<?xml version="1.0" encoding="UTF-8" standalone="no"?>
<!DOCTYPE svg PUBLIC "-//W3C//DTD SVG 1.1//EN"
 "http://www.w3.org/Graphics/SVG/1.1/DTD/svg11.dtd">
<!-- Generated by graphviz version 2.43.0 (0)
 -->
<!-- Title: ES3Internal.ES3ReferenceMgrBase Pages: 1 -->
<svg width="359pt" height="1191pt"
 viewBox="0.00 0.00 359.00 1191.00" xmlns="http://www.w3.org/2000/svg" xmlns:xlink="http://www.w3.org/1999/xlink">
<g id="graph0" class="graph" transform="scale(1 1) rotate(0) translate(4 1187)">
<title>ES3Internal.ES3ReferenceMgrBase</title>
<!-- Node1 -->
<g id="Node000001" class="node">
<title>Node1</title>
<g id="a_Node000001"><a xlink:title=" ">
<polygon fill="#999999" stroke="transparent" points="351,-1092 0,-1092 0,-91 351,-91 351,-1092"/>
<text text-anchor="start" x="85.5" y="-1077.9" font-family="Consolas" font-size="12.00">ES3Internal.ES3Reference</text>
<text text-anchor="start" x="149.5" y="-1064.9" font-family="Consolas" font-size="12.00">MgrBase</text>
<text text-anchor="start" x="4.5" y="-1047.9" font-family="Consolas" font-size="12.00">+</text>
<text text-anchor="start" x="16.5" y="-1047.9" font-family="Consolas" font-size="12.00">List&lt; UnityEngine.Object</text>
<text text-anchor="start" x="16.5" y="-1034.9" font-family="Consolas" font-size="12.00"> &gt; excludeObjects</text>
<text text-anchor="start" x="4.5" y="-1017.9" font-family="Consolas" font-size="12.00">+</text>
<text text-anchor="start" x="16.5" y="-1017.9" font-family="Consolas" font-size="12.00">bool openPrefabs</text>
<text text-anchor="start" x="4.5" y="-1000.9" font-family="Consolas" font-size="12.00">+</text>
<text text-anchor="start" x="16.5" y="-1000.9" font-family="Consolas" font-size="12.00">List&lt; ES3Prefab &gt; prefabs</text>
<text text-anchor="start" x="4.5" y="-983.9" font-family="Consolas" font-size="12.00">+</text>
<text text-anchor="start" x="16.5" y="-983.9" font-family="Consolas" font-size="12.00">ES3IdRefDictionary</text>
<text text-anchor="start" x="16.5" y="-970.9" font-family="Consolas" font-size="12.00"> idRef</text>
<text text-anchor="start" x="4.5" y="-953.9" font-family="Consolas" font-size="12.00">+</text>
<text text-anchor="start" x="16.5" y="-953.9" font-family="Consolas" font-size="12.00">const string referencePropertyName</text>
<text text-anchor="start" x="4.5" y="-936.9" font-family="Consolas" font-size="12.00">+</text>
<text text-anchor="start" x="16.5" y="-936.9" font-family="Consolas" font-size="12.00">static ES3ReferenceMgrBase</text>
<text text-anchor="start" x="16.5" y="-923.9" font-family="Consolas" font-size="12.00"> Current</text>
<text text-anchor="start" x="4.5" y="-906.9" font-family="Consolas" font-size="12.00">+</text>
<text text-anchor="start" x="16.5" y="-906.9" font-family="Consolas" font-size="12.00">bool IsInitialised</text>
<text text-anchor="start" x="4.5" y="-889.9" font-family="Consolas" font-size="12.00">+</text>
<text text-anchor="start" x="16.5" y="-889.9" font-family="Consolas" font-size="12.00">ES3RefIdDictionary</text>
<text text-anchor="start" x="16.5" y="-876.9" font-family="Consolas" font-size="12.00"> refId</text>
<text text-anchor="start" x="4.5" y="-859.9" font-family="Consolas" font-size="12.00">+</text>
<text text-anchor="start" x="16.5" y="-859.9" font-family="Consolas" font-size="12.00">ES3GlobalReferences</text>
<text text-anchor="start" x="16.5" y="-846.9" font-family="Consolas" font-size="12.00"> GlobalReferences</text>
<text text-anchor="start" x="4.5" y="-829.9" font-family="Consolas" font-size="12.00">~</text>
<text text-anchor="start" x="16.5" y="-829.9" font-family="Consolas" font-size="12.00">object _lock</text>
<text text-anchor="start" x="4.5" y="-812.9" font-family="Consolas" font-size="12.00">&#45;</text>
<text text-anchor="start" x="16.5" y="-812.9" font-family="Consolas" font-size="12.00">ES3RefIdDictionary</text>
<text text-anchor="start" x="16.5" y="-799.9" font-family="Consolas" font-size="12.00"> _refId</text>
<text text-anchor="start" x="4.5" y="-782.9" font-family="Consolas" font-size="12.00">&#45;</text>
<text text-anchor="start" x="16.5" y="-782.9" font-family="Consolas" font-size="12.00">static ES3ReferenceMgrBase</text>
<text text-anchor="start" x="16.5" y="-769.9" font-family="Consolas" font-size="12.00"> _current</text>
<text text-anchor="start" x="4.5" y="-752.9" font-family="Consolas" font-size="12.00">&#45;</text>
<text text-anchor="start" x="16.5" y="-752.9" font-family="Consolas" font-size="12.00">static HashSet&lt; ES3Reference</text>
<text text-anchor="start" x="16.5" y="-739.9" font-family="Consolas" font-size="12.00">MgrBase &gt; mgrs</text>
<text text-anchor="start" x="4.5" y="-722.9" font-family="Consolas" font-size="12.00">&#45;</text>
<text text-anchor="start" x="16.5" y="-722.9" font-family="Consolas" font-size="12.00">static System.Random rng</text>
<text text-anchor="start" x="4.5" y="-705.9" font-family="Consolas" font-size="12.00">+</text>
<text text-anchor="start" x="16.5" y="-705.9" font-family="Consolas" font-size="12.00">void Merge(ES3ReferenceMgr</text>
<text text-anchor="start" x="16.5" y="-692.9" font-family="Consolas" font-size="12.00">Base otherMgr)</text>
<text text-anchor="start" x="4.5" y="-675.9" font-family="Consolas" font-size="12.00">+</text>
<text text-anchor="start" x="16.5" y="-675.9" font-family="Consolas" font-size="12.00">long Get(UnityEngine.Object obj)</text>
<text text-anchor="start" x="4.5" y="-658.9" font-family="Consolas" font-size="12.00">+</text>
<text text-anchor="start" x="16.5" y="-658.9" font-family="Consolas" font-size="12.00">UnityEngine.Object</text>
<text text-anchor="start" x="16.5" y="-645.9" font-family="Consolas" font-size="12.00"> Get(long id, bool suppress</text>
<text text-anchor="start" x="16.5" y="-632.9" font-family="Consolas" font-size="12.00">Warnings=false)</text>
<text text-anchor="start" x="4.5" y="-615.9" font-family="Consolas" font-size="12.00">+</text>
<text text-anchor="start" x="16.5" y="-615.9" font-family="Consolas" font-size="12.00">ES3Prefab GetPrefab</text>
<text text-anchor="start" x="16.5" y="-602.9" font-family="Consolas" font-size="12.00">(long id, bool suppressWarnings</text>
<text text-anchor="start" x="16.5" y="-589.9" font-family="Consolas" font-size="12.00">=false)</text>
<text text-anchor="start" x="4.5" y="-572.9" font-family="Consolas" font-size="12.00">+</text>
<text text-anchor="start" x="16.5" y="-572.9" font-family="Consolas" font-size="12.00">long GetPrefab(ES3Prefab</text>
<text text-anchor="start" x="16.5" y="-559.9" font-family="Consolas" font-size="12.00"> prefabToFind, bool suppressWarnings=false)</text>
<text text-anchor="start" x="4.5" y="-542.9" font-family="Consolas" font-size="12.00">+</text>
<text text-anchor="start" x="16.5" y="-542.9" font-family="Consolas" font-size="12.00">long Add(UnityEngine.Object obj)</text>
<text text-anchor="start" x="4.5" y="-525.9" font-family="Consolas" font-size="12.00">+</text>
<text text-anchor="start" x="16.5" y="-525.9" font-family="Consolas" font-size="12.00">long Add(UnityEngine.Object</text>
<text text-anchor="start" x="16.5" y="-512.9" font-family="Consolas" font-size="12.00"> obj, long id)</text>
<text text-anchor="start" x="4.5" y="-495.9" font-family="Consolas" font-size="12.00">+</text>
<text text-anchor="start" x="16.5" y="-495.9" font-family="Consolas" font-size="12.00">bool AddPrefab(ES3Prefab</text>
<text text-anchor="start" x="16.5" y="-482.9" font-family="Consolas" font-size="12.00"> prefab)</text>
<text text-anchor="start" x="4.5" y="-465.9" font-family="Consolas" font-size="12.00">+</text>
<text text-anchor="start" x="16.5" y="-465.9" font-family="Consolas" font-size="12.00">void Remove(UnityEngine.</text>
<text text-anchor="start" x="16.5" y="-452.9" font-family="Consolas" font-size="12.00">Object obj)</text>
<text text-anchor="start" x="4.5" y="-435.9" font-family="Consolas" font-size="12.00">+</text>
<text text-anchor="start" x="16.5" y="-435.9" font-family="Consolas" font-size="12.00">void Remove(long referenceID)</text>
<text text-anchor="start" x="4.5" y="-418.9" font-family="Consolas" font-size="12.00">+</text>
<text text-anchor="start" x="16.5" y="-418.9" font-family="Consolas" font-size="12.00">void RemoveNullValues()</text>
<text text-anchor="start" x="4.5" y="-401.9" font-family="Consolas" font-size="12.00">+</text>
<text text-anchor="start" x="16.5" y="-401.9" font-family="Consolas" font-size="12.00">void RemoveNullOrInvalid</text>
<text text-anchor="start" x="16.5" y="-388.9" font-family="Consolas" font-size="12.00">Values()</text>
<text text-anchor="start" x="4.5" y="-371.9" font-family="Consolas" font-size="12.00">+</text>
<text text-anchor="start" x="16.5" y="-371.9" font-family="Consolas" font-size="12.00">void Clear()</text>
<text text-anchor="start" x="4.5" y="-354.9" font-family="Consolas" font-size="12.00">+</text>
<text text-anchor="start" x="16.5" y="-354.9" font-family="Consolas" font-size="12.00">bool Contains(UnityEngine.</text>
<text text-anchor="start" x="16.5" y="-341.9" font-family="Consolas" font-size="12.00">Object obj)</text>
<text text-anchor="start" x="4.5" y="-324.9" font-family="Consolas" font-size="12.00">+</text>
<text text-anchor="start" x="16.5" y="-324.9" font-family="Consolas" font-size="12.00">bool Contains(long</text>
<text text-anchor="start" x="16.5" y="-311.9" font-family="Consolas" font-size="12.00"> referenceID)</text>
<text text-anchor="start" x="4.5" y="-294.9" font-family="Consolas" font-size="12.00">+</text>
<text text-anchor="start" x="16.5" y="-294.9" font-family="Consolas" font-size="12.00">void ChangeId(long</text>
<text text-anchor="start" x="16.5" y="-281.9" font-family="Consolas" font-size="12.00"> oldId, long newId)</text>
<text text-anchor="start" x="4.5" y="-264.9" font-family="Consolas" font-size="12.00">+</text>
<text text-anchor="start" x="16.5" y="-264.9" font-family="Consolas" font-size="12.00">static ES3ReferenceMgrBase</text>
<text text-anchor="start" x="16.5" y="-251.9" font-family="Consolas" font-size="12.00"> GetManagerFromScene(Scene</text>
<text text-anchor="start" x="16.5" y="-238.9" font-family="Consolas" font-size="12.00"> scene, bool getAnyManagerIfNotInScene=true)</text>
<text text-anchor="start" x="4.5" y="-221.9" font-family="Consolas" font-size="12.00">~</text>
<text text-anchor="start" x="16.5" y="-221.9" font-family="Consolas" font-size="12.00">void Awake()</text>
<text text-anchor="start" x="4.5" y="-204.9" font-family="Consolas" font-size="12.00">~</text>
<text text-anchor="start" x="16.5" y="-204.9" font-family="Consolas" font-size="12.00">UnityEngine.Object</text>
<text text-anchor="start" x="16.5" y="-191.9" font-family="Consolas" font-size="12.00"> Get(long id, Type type,</text>
<text text-anchor="start" x="16.5" y="-178.9" font-family="Consolas" font-size="12.00"> bool suppressWarnings=false)</text>
<text text-anchor="start" x="4.5" y="-161.9" font-family="Consolas" font-size="12.00">~</text>
<text text-anchor="start" x="16.5" y="-161.9" font-family="Consolas" font-size="12.00">static long GetNewRefID()</text>
<text text-anchor="start" x="4.5" y="-144.9" font-family="Consolas" font-size="12.00">~</text>
<text text-anchor="start" x="16.5" y="-144.9" font-family="Consolas" font-size="12.00">static bool CanBeSaved</text>
<text text-anchor="start" x="16.5" y="-131.9" font-family="Consolas" font-size="12.00">(UnityEngine.Object obj)</text>
<text text-anchor="start" x="4.5" y="-114.9" font-family="Consolas" font-size="12.00">&#45;</text>
<text text-anchor="start" x="16.5" y="-114.9" font-family="Consolas" font-size="12.00">void OnDestroy()</text>
<text text-anchor="start" x="4.5" y="-97.9" font-family="Consolas" font-size="12.00">&#45;</text>
<text text-anchor="start" x="16.5" y="-97.9" font-family="Consolas" font-size="12.00">static void Init()</text>
<polygon fill="#666666" stroke="#666666" points="0.5,-1059.5 0.5,-1059.5 351.5,-1059.5 351.5,-1059.5 0.5,-1059.5"/>
<polygon fill="#666666" stroke="#666666" points="0.5,-717.5 0.5,-717.5 14.5,-717.5 14.5,-717.5 0.5,-717.5"/>
<polygon fill="#666666" stroke="#666666" points="14.5,-717.5 14.5,-717.5 351.5,-717.5 351.5,-717.5 14.5,-717.5"/>
<polygon fill="none" stroke="#666666" points="0,-91 0,-1092 351,-1092 351,-91 0,-91"/>
</a>
</g>
</g>
<!-- Node3 -->
<g id="Node000003" class="node">
<title>Node3</title>
<g id="a_Node000003"><a xlink:href="classES3ReferenceMgr.html" target="_top" xlink:title=" ">
<polygon fill="white" stroke="transparent" points="237,-55 114,-55 114,0 237,0 237,-55"/>
<text text-anchor="start" x="119.5" y="-40.9" font-family="Consolas" font-size="12.00">ES3ReferenceMgr</text>
<text text-anchor="start" x="172" y="-23.9" font-family="Consolas" font-size="12.00"> </text>
<text text-anchor="start" x="172" y="-6.9" font-family="Consolas" font-size="12.00"> </text>
<polygon fill="#bfbfbf" stroke="#bfbfbf" points="114.5,-35.5 114.5,-35.5 237.5,-35.5 237.5,-35.5 114.5,-35.5"/>
<polygon fill="#bfbfbf" stroke="#bfbfbf" points="114.5,-18.5 114.5,-18.5 237.5,-18.5 237.5,-18.5 114.5,-18.5"/>
<polygon fill="none" stroke="#bfbfbf" points="114,0 114,-55 237,-55 237,0 114,0"/>
</a>
</g>
</g>
<!-- Node1&#45;&gt;Node3 -->
<g id="edge2_Node000001_Node000003" class="edge">
<title>Node1&#45;&gt;Node3</title>
<g id="a_edge2_Node000001_Node000003"><a xlink:title=" ">
<path fill="none" stroke="#63b8ff" d="M175.5,-80.74C175.5,-71.05 175.5,-62.48 175.5,-55.22"/>
<polygon fill="none" stroke="#63b8ff" points="172,-80.79 175.5,-90.79 179,-80.79 172,-80.79"/>
</a>
</g>
</g>
<!-- Node2 -->
<g id="Node000002" class="node">
<title>Node2</title>
<g id="a_Node000002"><a xlink:title=" ">
<polygon fill="white" stroke="transparent" points="229.5,-1183 121.5,-1183 121.5,-1128 229.5,-1128 229.5,-1183"/>
<text text-anchor="start" x="126.5" y="-1168.9" font-family="Consolas" font-size="12.00">MonoBehaviour</text>
<text text-anchor="start" x="171.5" y="-1151.9" font-family="Consolas" font-size="12.00"> </text>
<text text-anchor="start" x="171.5" y="-1134.9" font-family="Consolas" font-size="12.00"> </text>
<polygon fill="#bfbfbf" stroke="#bfbfbf" points="121.5,-1163.5 121.5,-1163.5 229.5,-1163.5 229.5,-1163.5 121.5,-1163.5"/>
<polygon fill="#bfbfbf" stroke="#bfbfbf" points="121.5,-1146.5 121.5,-1146.5 229.5,-1146.5 229.5,-1146.5 121.5,-1146.5"/>
<polygon fill="none" stroke="#bfbfbf" points="121.5,-1128 121.5,-1183 229.5,-1183 229.5,-1128 121.5,-1128"/>
</a>
</g>
</g>
<!-- Node2&#45;&gt;Node1 -->
<g id="edge1_Node000001_Node000002" class="edge">
<title>Node2&#45;&gt;Node1</title>
<g id="a_edge1_Node000001_Node000002"><a xlink:title=" ">
<path fill="none" stroke="#63b8ff" d="M175.5,-1117.73C175.5,-1110.14 175.5,-1101.54 175.5,-1092.06"/>
<polygon fill="none" stroke="#63b8ff" points="172,-1117.77 175.5,-1127.77 179,-1117.77 172,-1117.77"/>
</a>
</g>
</g>
</g>
</svg>
