<?xml version="1.0" encoding="UTF-8" standalone="no"?>
<!DOCTYPE svg PUBLIC "-//W3C//DTD SVG 1.1//EN"
 "http://www.w3.org/Graphics/SVG/1.1/DTD/svg11.dtd">
<!-- Generated by graphviz version 2.43.0 (0)
 -->
<!-- Title: ES3Internal.ES3GlobalReferencesEditor Pages: 1 -->
<svg width="311pt" height="242pt"
 viewBox="0.00 0.00 310.50 242.00" xmlns="http://www.w3.org/2000/svg" xmlns:xlink="http://www.w3.org/1999/xlink">

<svg id="main" version="1.1" xmlns="http://www.w3.org/2000/svg" xmlns:xlink="http://www.w3.org/1999/xlink" xml:space="preserve" onload="init(evt)">
<style type="text/css"><![CDATA[
.node, .edge {opacity: 0.7;}
.node.selected, .edge.selected {opacity: 1;}
.edge:hover path { stroke: red; }
.edge:hover polygon { stroke: red; fill: red; }
]]></style>
<script type="application/ecmascript" xlink:href="svg.min.js"/>
<svg id="graph" class="graph">
<g id="graph0" class="graph" transform="scale(1 1) rotate(0) translate(4 238)">
<title>ES3Internal.ES3GlobalReferencesEditor</title>
<!-- Node1 -->
<g id="Node000001" class="node">
<title>Node1</title>
<g id="a_Node000001"><a xlink:title=" ">
<polygon fill="#999999" stroke="transparent" points="273,-128 20,-128 20,0 273,0 273,-128"/>
<text text-anchor="start" x="30.5" y="-114.4" font-family="Consolas" font-size="12.00">ES3Internal.ES3GlobalReferences</text>
<text text-anchor="start" x="124" y="-101.4" font-family="Consolas" font-size="12.00">Editor</text>
<text text-anchor="start" x="24.5" y="-84.4" font-family="Consolas" font-size="12.00">+</text>
<text text-anchor="start" x="36.5" y="-84.4" font-family="Consolas" font-size="12.00">ES3Internal.ES3GlobalReferences</text>
<text text-anchor="start" x="36.5" y="-71.4" font-family="Consolas" font-size="12.00"> globalRefs</text>
<text text-anchor="start" x="24.5" y="-54.4" font-family="Consolas" font-size="12.00">&#45;</text>
<text text-anchor="start" x="36.5" y="-54.4" font-family="Consolas" font-size="12.00">bool isDraggingOver</text>
<text text-anchor="start" x="24.5" y="-37.4" font-family="Consolas" font-size="12.00">&#45;</text>
<text text-anchor="start" x="36.5" y="-37.4" font-family="Consolas" font-size="12.00">bool openReferences</text>
<text text-anchor="start" x="24.5" y="-20.4" font-family="Consolas" font-size="12.00">+</text>
<text text-anchor="start" x="36.5" y="-20.4" font-family="Consolas" font-size="12.00">override void OnInspector</text>
<text text-anchor="start" x="36.5" y="-7.4" font-family="Consolas" font-size="12.00">GUI()</text>
<polygon fill="#666666" stroke="#666666" points="20.5,-96 20.5,-96 273.5,-96 273.5,-96 20.5,-96"/>
<polygon fill="#666666" stroke="#666666" points="20.5,-32 20.5,-32 34.5,-32 34.5,-32 20.5,-32"/>
<polygon fill="#666666" stroke="#666666" points="34.5,-32 34.5,-32 273.5,-32 273.5,-32 34.5,-32"/>
<polygon fill="none" stroke="#666666" points="20,0 20,-128 273,-128 273,0 20,0"/>
</a>
</g>
</g>
<!-- Node2 -->
<g id="Node000002" class="node">
<title>Node2</title>
<g id="a_Node000002"><a xlink:title=" ">
<polygon fill="white" stroke="transparent" points="153,-234 0,-234 0,-179 153,-179 153,-234"/>
<text text-anchor="start" x="5.5" y="-219.9" font-family="Consolas" font-size="12.00">UnityEditor::Editor</text>
<text text-anchor="start" x="73" y="-202.9" font-family="Consolas" font-size="12.00"> </text>
<text text-anchor="start" x="73" y="-185.9" font-family="Consolas" font-size="12.00"> </text>
<polygon fill="#bfbfbf" stroke="#bfbfbf" points="0.5,-214.5 0.5,-214.5 153.5,-214.5 153.5,-214.5 0.5,-214.5"/>
<polygon fill="#bfbfbf" stroke="#bfbfbf" points="0.5,-197.5 0.5,-197.5 153.5,-197.5 153.5,-197.5 0.5,-197.5"/>
<polygon fill="none" stroke="#bfbfbf" points="0,-179 0,-234 153,-234 153,-179 0,-179"/>
</a>
</g>
</g>
<!-- Node2&#45;&gt;Node1 -->
<g id="edge1_Node000001_Node000002" class="edge">
<title>Node2&#45;&gt;Node1</title>
<g id="a_edge1_Node000001_Node000002"><a xlink:title=" ">
<path fill="none" stroke="#63b8ff" d="M94.44,-169.5C100.73,-156.87 108,-142.28 115.07,-128.08"/>
<polygon fill="none" stroke="#63b8ff" points="91.16,-168.23 89.83,-178.74 97.42,-171.35 91.16,-168.23"/>
</a>
</g>
</g>
<!-- Node3 -->
<g id="Node000003" class="node">
<title>Node3</title>
<g id="a_Node000003"><a xlink:title=" ">
<polygon fill="white" stroke="transparent" points="264,-234 171,-234 171,-179 264,-179 264,-234"/>
<text text-anchor="start" x="176.5" y="-219.9" font-family="Consolas" font-size="12.00">ES3Internal</text>
<text text-anchor="start" x="214" y="-202.9" font-family="Consolas" font-size="12.00"> </text>
<text text-anchor="start" x="214" y="-185.9" font-family="Consolas" font-size="12.00"> </text>
<polygon fill="#bfbfbf" stroke="#bfbfbf" points="171.5,-214.5 171.5,-214.5 264.5,-214.5 264.5,-214.5 171.5,-214.5"/>
<polygon fill="#bfbfbf" stroke="#bfbfbf" points="171.5,-197.5 171.5,-197.5 264.5,-197.5 264.5,-197.5 171.5,-197.5"/>
<polygon fill="none" stroke="#bfbfbf" points="171,-179 171,-234 264,-234 264,-179 171,-179"/>
</a>
</g>
</g>
<!-- Node3&#45;&gt;Node1 -->
<g id="edge2_Node000001_Node000003" class="edge">
<title>Node3&#45;&gt;Node1</title>
<g id="a_edge2_Node000001_Node000003"><a xlink:title=" ">
<path fill="none" stroke="#63b8ff" d="M203.98,-178.74C198.18,-167.26 191.08,-153.22 183.88,-138.97"/>
<polygon fill="none" stroke="#63b8ff" points="183.79,-138.79 177.51,-135.24 178.38,-128.08 184.65,-131.63 183.79,-138.79"/>
</a>
</g>
<text text-anchor="middle" x="248.5" y="-149.8" font-family="Consolas" font-size="14.00" fill="grey"> &#45;_globalRefs</text>
</g>
</g>
</svg>
</svg>

<style type='text/css'>
<![CDATA[
[data-mouse-over-selected='false'] { opacity: 0.7; }
[data-mouse-over-selected='true']  { opacity: 1.0; }
]]>
</style>
<script type="application/ecmascript"><![CDATA[
document.addEventListener('DOMContentLoaded', (event) => {
  highlightEdges();
  highlightAdjacentNodes();
});
]]></script>
</svg>
