<?xml version="1.0" encoding="UTF-8" standalone="no"?>
<!DOCTYPE svg PUBLIC "-//W3C//DTD SVG 1.1//EN"
 "http://www.w3.org/Graphics/SVG/1.1/DTD/svg11.dtd">
<!-- Generated by graphviz version 2.43.0 (0)
 -->
<!-- Title: HitPointSystem.GetHitPointPercentage Pages: 1 -->
<svg width="581pt" height="42pt"
 viewBox="0.00 0.00 581.00 42.00" xmlns="http://www.w3.org/2000/svg" xmlns:xlink="http://www.w3.org/1999/xlink">
<g id="graph0" class="graph" transform="scale(1 1) rotate(0) translate(4 38)">
<title>HitPointSystem.GetHitPointPercentage</title>
<!-- Node1 -->
<g id="Node000001" class="node">
<title>Node1</title>
<g id="a_Node000001"><a xlink:title="현재 체력의 퍼센트 값을 반환합니다. (0 ~ 100)">
<polygon fill="#999999" stroke="#666666" points="212,-34 0,-34 0,0 212,0 212,-34"/>
<text text-anchor="start" x="8" y="-20.4" font-family="Consolas" font-size="12.00">HitPointSystem.GetHitPoint</text>
<text text-anchor="middle" x="106" y="-7.4" font-family="Consolas" font-size="12.00">Percentage</text>
</a>
</g>
</g>
<!-- Node2 -->
<g id="Node000002" class="node">
<title>Node2</title>
<g id="a_Node000002"><a xlink:href="classShipSystem.html#a0c4c206aa7e875dc6810ea122e46b332" target="_top" xlink:title="현재 함선의 특정 스탯 값을 가져옵니다.">
<polygon fill="white" stroke="#666666" points="430,-27.5 248,-27.5 248,-6.5 430,-6.5 430,-27.5"/>
<text text-anchor="middle" x="339" y="-13.9" font-family="Consolas" font-size="12.00">ShipSystem.GetShipStat</text>
</a>
</g>
</g>
<!-- Node1&#45;&gt;Node2 -->
<g id="edge1_Node000001_Node000002" class="edge">
<title>Node1&#45;&gt;Node2</title>
<g id="a_edge1_Node000001_Node000002"><a xlink:title=" ">
<path fill="none" stroke="#63b8ff" d="M212.02,-17C220.5,-17 229.05,-17 237.49,-17"/>
<polygon fill="#63b8ff" stroke="#63b8ff" points="237.72,-20.5 247.72,-17 237.71,-13.5 237.72,-20.5"/>
</a>
</g>
</g>
<!-- Node3 -->
<g id="Node000003" class="node">
<title>Node3</title>
<g id="a_Node000003"><a xlink:href="classShip.html#a080a77bc4aa01fd3e5b2561cb5317eca" target="_top" xlink:title="특정 스탯 값을 반환합니다.">
<polygon fill="white" stroke="#666666" points="573,-27.5 466,-27.5 466,-6.5 573,-6.5 573,-27.5"/>
<text text-anchor="middle" x="519.5" y="-13.9" font-family="Consolas" font-size="12.00">Ship.GetStat</text>
</a>
</g>
</g>
<!-- Node2&#45;&gt;Node3 -->
<g id="edge2_Node000002_Node000003" class="edge">
<title>Node2&#45;&gt;Node3</title>
<g id="a_edge2_Node000002_Node000003"><a xlink:title=" ">
<path fill="none" stroke="#63b8ff" d="M430.03,-17C438.78,-17 447.52,-17 455.91,-17"/>
<polygon fill="#63b8ff" stroke="#63b8ff" points="455.95,-20.5 465.95,-17 455.95,-13.5 455.95,-20.5"/>
</a>
</g>
</g>
</g>
</svg>
