<?xml version="1.0" encoding="UTF-8" standalone="no"?>
<!DOCTYPE svg PUBLIC "-//W3C//DTD SVG 1.1//EN"
 "http://www.w3.org/Graphics/SVG/1.1/DTD/svg11.dtd">
<!-- Generated by graphviz version 2.43.0 (0)
 -->
<!-- Title: ShipTemplateSaver.DeleteTemplate Pages: 1 -->
<svg width="1278pt" height="56pt"
 viewBox="0.00 0.00 1278.00 55.50" xmlns="http://www.w3.org/2000/svg" xmlns:xlink="http://www.w3.org/1999/xlink">
<g id="graph0" class="graph" transform="scale(1 1) rotate(0) translate(4 51.5)">
<title>ShipTemplateSaver.DeleteTemplate</title>
<!-- Node1 -->
<g id="Node000001" class="node">
<title>Node1</title>
<g id="a_Node000001"><a xlink:title="템플릿 삭제">
<polygon fill="#999999" stroke="#666666" points="1270,-34 1073,-34 1073,0 1270,0 1270,-34"/>
<text text-anchor="start" x="1081" y="-20.4" font-family="Consolas" font-size="12.00">ShipTemplateSaver.Delete</text>
<text text-anchor="middle" x="1171.5" y="-7.4" font-family="Consolas" font-size="12.00">Template</text>
</a>
</g>
</g>
<!-- Node2 -->
<g id="Node000002" class="node">
<title>Node2</title>
<g id="a_Node000002"><a xlink:href="classShipTemplateSaver.html#a6c6e9dd017c3169597bbf314593d6fd6" target="_top" xlink:title="템플릿 목록 아이템 추가">
<polygon fill="white" stroke="#666666" points="1037,-47.5 773,-47.5 773,-26.5 1037,-26.5 1037,-47.5"/>
<text text-anchor="middle" x="905" y="-33.9" font-family="Consolas" font-size="12.00">ShipTemplateSaver.AddTemplateItem</text>
</a>
</g>
</g>
<!-- Node1&#45;&gt;Node2 -->
<g id="edge1_Node000001_Node000002" class="edge">
<title>Node1&#45;&gt;Node2</title>
<g id="a_edge1_Node000001_Node000002"><a xlink:title=" ">
<path fill="none" stroke="#63b8ff" d="M1062.59,-25.16C1054.19,-25.79 1045.66,-26.44 1037.13,-27.08"/>
<polygon fill="#63b8ff" stroke="#63b8ff" points="1063.05,-28.63 1072.76,-24.39 1062.53,-21.65 1063.05,-28.63"/>
</a>
</g>
</g>
<!-- Node3 -->
<g id="Node000003" class="node">
<title>Node3</title>
<g id="a_Node000003"><a xlink:href="classShipTemplateSaver.html#a7ef3c42f57f55899bc89f716dd2ddd00" target="_top" xlink:title="템플릿 목록 새로고침">
<polygon fill="white" stroke="#666666" points="737,-34 533,-34 533,0 737,0 737,-34"/>
<text text-anchor="start" x="541" y="-20.4" font-family="Consolas" font-size="12.00">ShipTemplateSaver.Refresh</text>
<text text-anchor="middle" x="635" y="-7.4" font-family="Consolas" font-size="12.00">TemplateList</text>
</a>
</g>
</g>
<!-- Node2&#45;&gt;Node3 -->
<g id="edge2_Node000002_Node000003" class="edge">
<title>Node2&#45;&gt;Node3</title>
<g id="a_edge2_Node000002_Node000003"><a xlink:title=" ">
<path fill="none" stroke="#63b8ff" d="M762.68,-26.45C754.11,-25.81 745.58,-25.18 737.23,-24.55"/>
<polygon fill="#63b8ff" stroke="#63b8ff" points="762.52,-29.95 772.75,-27.21 763.04,-22.97 762.52,-29.95"/>
</a>
</g>
</g>
<!-- Node3&#45;&gt;Node1 -->
<g id="edge3_Node000003_Node000001" class="edge">
<title>Node3&#45;&gt;Node1</title>
<g id="a_edge3_Node000003_Node000001"><a xlink:title=" ">
<path fill="none" stroke="#63b8ff" d="M747.21,-17C843.31,-17 980.84,-17 1072.78,-17"/>
<polygon fill="#63b8ff" stroke="#63b8ff" points="747.17,-13.5 737.17,-17 747.17,-20.5 747.17,-13.5"/>
</a>
</g>
</g>
<!-- Node4 -->
<g id="Node000004" class="node">
<title>Node4</title>
<g id="a_Node000004"><a xlink:href="classShipTemplateSaver.html#aeeb52bd9da7cf308ada9e400f7ed18e5" target="_top" xlink:title="템플릿 목록 표시">
<polygon fill="white" stroke="#666666" points="497,-47.5 225,-47.5 225,-26.5 497,-26.5 497,-47.5"/>
<text text-anchor="middle" x="361" y="-33.9" font-family="Consolas" font-size="12.00">ShipTemplateSaver.ShowTemplateList</text>
</a>
</g>
</g>
<!-- Node3&#45;&gt;Node4 -->
<g id="edge4_Node000003_Node000004" class="edge">
<title>Node3&#45;&gt;Node4</title>
<g id="a_edge4_Node000003_Node000004"><a xlink:title=" ">
<path fill="none" stroke="#63b8ff" d="M522.55,-25.19C514.15,-25.81 505.63,-26.44 497.11,-27.07"/>
<polygon fill="#63b8ff" stroke="#63b8ff" points="523,-28.67 532.72,-24.45 522.49,-21.69 523,-28.67"/>
</a>
</g>
</g>
<!-- Node5 -->
<g id="Node000005" class="node">
<title>Node5</title>
<g id="a_Node000005"><a xlink:href="classShipTemplateSaver.html#ac21a9409eb9263a08102e63c84238ee4" target="_top" xlink:title="초기화">
<polygon fill="white" stroke="#666666" points="189,-27.5 0,-27.5 0,-6.5 189,-6.5 189,-27.5"/>
<text text-anchor="middle" x="94.5" y="-13.9" font-family="Consolas" font-size="12.00">ShipTemplateSaver.Start</text>
</a>
</g>
</g>
<!-- Node3&#45;&gt;Node5 -->
<g id="edge6_Node000003_Node000005" class="edge">
<title>Node3&#45;&gt;Node5</title>
<g id="a_edge6_Node000003_Node000005"><a xlink:title=" ">
<path fill="none" stroke="#63b8ff" d="M522.42,-17C423.89,-17 281.86,-17 189.13,-17"/>
<polygon fill="#63b8ff" stroke="#63b8ff" points="522.71,-20.5 532.71,-17 522.71,-13.5 522.71,-20.5"/>
</a>
</g>
</g>
<!-- Node4&#45;&gt;Node5 -->
<g id="edge5_Node000004_Node000005" class="edge">
<title>Node4&#45;&gt;Node5</title>
<g id="a_edge5_Node000004_Node000005"><a xlink:title=" ">
<path fill="none" stroke="#63b8ff" d="M214.59,-26C206.04,-25.36 197.56,-24.72 189.3,-24.09"/>
<polygon fill="#63b8ff" stroke="#63b8ff" points="214.42,-29.5 224.65,-26.77 214.94,-22.52 214.42,-29.5"/>
</a>
</g>
</g>
</g>
</svg>
