<?xml version="1.0" encoding="UTF-8" standalone="no"?>
<!DOCTYPE svg PUBLIC "-//W3C//DTD SVG 1.1//EN"
 "http://www.w3.org/Graphics/SVG/1.1/DTD/svg11.dtd">
<!-- Generated by graphviz version 2.43.0 (0)
 -->
<!-- Title: ShipWeapon.ApplyRotationSprite Pages: 1 -->
<svg width="1437pt" height="207pt"
 viewBox="0.00 0.00 1437.00 207.00" xmlns="http://www.w3.org/2000/svg" xmlns:xlink="http://www.w3.org/1999/xlink">
<g id="graph0" class="graph" transform="scale(1 1) rotate(0) translate(4 203)">
<title>ShipWeapon.ApplyRotationSprite</title>
<!-- Node1 -->
<g id="Node000001" class="node">
<title>Node1</title>
<g id="a_Node000001"><a xlink:title="현재 attachedDirection에 맞는 스프라이트를 SpriteRenderer에 적용합니다. 인덱스 매핑: 0 &#45; Up (North), 1 &#45; Right (East),...">
<polygon fill="#999999" stroke="#666666" points="1429,-99 1232,-99 1232,-65 1429,-65 1429,-99"/>
<text text-anchor="start" x="1240" y="-85.4" font-family="Consolas" font-size="12.00">ShipWeapon.ApplyRotation</text>
<text text-anchor="middle" x="1330.5" y="-72.4" font-family="Consolas" font-size="12.00">Sprite</text>
</a>
</g>
</g>
<!-- Node2 -->
<g id="Node000002" class="node">
<title>Node2</title>
<g id="a_Node000002"><a xlink:href="classWeaponSystem.html#ab22fd7259a04cbb21178d961d6b31047" target="_top" xlink:title="새로운 무기를 시스템에 추가합니다.">
<polygon fill="white" stroke="#666666" points="1188.5,-151.5 1006.5,-151.5 1006.5,-130.5 1188.5,-130.5 1188.5,-151.5"/>
<text text-anchor="middle" x="1097.5" y="-137.9" font-family="Consolas" font-size="12.00">WeaponSystem.AddWeapon</text>
</a>
</g>
</g>
<!-- Node1&#45;&gt;Node2 -->
<g id="edge1_Node000001_Node000002" class="edge">
<title>Node1&#45;&gt;Node2</title>
<g id="a_edge1_Node000001_Node000002"><a xlink:title=" ">
<path fill="none" stroke="#63b8ff" d="M1252.74,-101.61C1215.02,-111.24 1171.07,-122.46 1139.76,-130.46"/>
<polygon fill="#63b8ff" stroke="#63b8ff" points="1253.86,-104.93 1262.69,-99.07 1252.13,-98.15 1253.86,-104.93"/>
</a>
</g>
</g>
<!-- Node3 -->
<g id="Node000003" class="node">
<title>Node3</title>
<g id="a_Node000003"><a xlink:href="classShip.html#a23daf25351bed0b564d1059ebc999796" target="_top" xlink:title="현재 설계도 함선을 실제 함선 구조로 반영 &#45; bpship 버전 (방뿐 아니라 무기도 함께 적용)">
<polygon fill="white" stroke="#666666" points="745,-96.5 511,-96.5 511,-75.5 745,-75.5 745,-96.5"/>
<text text-anchor="middle" x="628" y="-82.9" font-family="Consolas" font-size="12.00">Ship.ReplaceShipFromBlueprint</text>
</a>
</g>
</g>
<!-- Node1&#45;&gt;Node3 -->
<g id="edge2_Node000001_Node000003" class="edge">
<title>Node1&#45;&gt;Node3</title>
<g id="a_edge2_Node000001_Node000003"><a xlink:title=" ">
<path fill="none" stroke="#63b8ff" d="M1221.45,-82.62C1092.49,-83.35 877.72,-84.58 745.25,-85.34"/>
<polygon fill="#63b8ff" stroke="#63b8ff" points="1221.75,-86.12 1231.73,-82.56 1221.71,-79.12 1221.75,-86.12"/>
</a>
</g>
</g>
<!-- Node10 -->
<g id="Node000010" class="node">
<title>Node10</title>
<g id="a_Node000010"><a xlink:href="classShipWeapon.html#a06ab2e9a77af7957cbdcd3c35e06c45b" target="_top" xlink:title="우클릭 시 호출되어 무기의 회전(힌지 회전) 상태를 변경합니다. 회전 상태는 East → South → North → East 순으로 순환합니다.">
<polygon fill="white" stroke="#666666" points="1192,-73.5 1003,-73.5 1003,-52.5 1192,-52.5 1192,-73.5"/>
<text text-anchor="middle" x="1097.5" y="-59.9" font-family="Consolas" font-size="12.00">ShipWeapon.RotateWeapon</text>
</a>
</g>
</g>
<!-- Node1&#45;&gt;Node10 -->
<g id="edge9_Node000001_Node000010" class="edge">
<title>Node1&#45;&gt;Node10</title>
<g id="a_edge9_Node000001_Node000010"><a xlink:title=" ">
<path fill="none" stroke="#63b8ff" d="M1221.63,-73.13C1211.76,-72.32 1201.82,-71.5 1192.1,-70.7"/>
<polygon fill="#63b8ff" stroke="#63b8ff" points="1221.62,-76.64 1231.87,-73.97 1222.19,-69.66 1221.62,-76.64"/>
</a>
</g>
</g>
<!-- Node11 -->
<g id="Node000011" class="node">
<title>Node11</title>
<g id="a_Node000011"><a xlink:href="classOuterHullSystem.html#aa21e355ccbc76283db70b65cff027675" target="_top" xlink:title="함선의 외갑판 레벨을 설정합니다. 모든 무기의 외형도 함께 업데이트합니다.">
<polygon fill="white" stroke="#666666" points="1196,-34 999,-34 999,0 1196,0 1196,-34"/>
<text text-anchor="start" x="1007" y="-20.4" font-family="Consolas" font-size="12.00">OuterHullSystem.SetOuter</text>
<text text-anchor="middle" x="1097.5" y="-7.4" font-family="Consolas" font-size="12.00">HullLevel</text>
</a>
</g>
</g>
<!-- Node1&#45;&gt;Node11 -->
<g id="edge10_Node000001_Node000011" class="edge">
<title>Node1&#45;&gt;Node11</title>
<g id="a_edge10_Node000001_Node000011"><a xlink:title=" ">
<path fill="none" stroke="#63b8ff" d="M1262.22,-62.01C1241.06,-55.81 1217.58,-49.03 1196,-43 1185.45,-40.05 1174.25,-37 1163.33,-34.06"/>
<polygon fill="#63b8ff" stroke="#63b8ff" points="1261.51,-65.45 1272.09,-64.91 1263.48,-58.73 1261.51,-65.45"/>
</a>
</g>
</g>
<!-- Node4 -->
<g id="Node000004" class="node">
<title>Node4</title>
<g id="a_Node000004"><a xlink:href="classCustomizeShipUIHandler.html#a0a87df1bbf10a142bcfb73c4634a7bd4" target="_top" xlink:title="&#39;함선 제작&#39; 버튼 클릭 시 호출. 조건 만족 시 기존 함선을 설계도의 함선으로 교체합니다. 이후 방, 문의 연결 유효성 검사 수행 후 만족 여부에 따라 실제 함선으로 교체,...">
<polygon fill="white" stroke="#666666" points="471,-199 267,-199 267,-165 471,-165 471,-199"/>
<text text-anchor="start" x="275" y="-185.4" font-family="Consolas" font-size="12.00">CustomizeShipUIHandler.On</text>
<text text-anchor="middle" x="369" y="-172.4" font-family="Consolas" font-size="12.00">ClickBuild</text>
</a>
</g>
</g>
<!-- Node3&#45;&gt;Node4 -->
<g id="edge3_Node000003_Node000004" class="edge">
<title>Node3&#45;&gt;Node4</title>
<g id="a_edge3_Node000003_Node000004"><a xlink:title=" ">
<path fill="none" stroke="#63b8ff" d="M598.27,-101.22C568.2,-116.68 519.28,-140.48 475,-156 465.78,-159.23 455.98,-162.22 446.21,-164.94"/>
<polygon fill="#63b8ff" stroke="#63b8ff" points="600.07,-104.23 607.34,-96.52 596.85,-98.02 600.07,-104.23"/>
</a>
</g>
</g>
<!-- Node5 -->
<g id="Node000005" class="node">
<title>Node5</title>
<g id="a_Node000005"><a xlink:href="classCustomize__2__Controller.html#a4f017401dbc31501a4109324ccec2bd7" target="_top" xlink:title="&#39;함선 제작&#39; 버튼 클릭 시 호출. 조건 만족 시 기존 함선을 설계도의 함선으로 교체합니다. 이후 방, 문의 연결 유효성 검사 수행 후 만족 여부에 따라 실제 함선으로 교체,...">
<polygon fill="white" stroke="#666666" points="471,-43 267,-43 267,-9 471,-9 471,-43"/>
<text text-anchor="start" x="275" y="-29.4" font-family="Consolas" font-size="12.00">Customize_2_Controller.On</text>
<text text-anchor="middle" x="369" y="-16.4" font-family="Consolas" font-size="12.00">ClickBuy</text>
</a>
</g>
</g>
<!-- Node3&#45;&gt;Node5 -->
<g id="edge4_Node000003_Node000005" class="edge">
<title>Node3&#45;&gt;Node5</title>
<g id="a_edge4_Node000003_Node000005"><a xlink:title=" ">
<path fill="none" stroke="#63b8ff" d="M572.16,-73.2C534.49,-64.4 484.06,-52.63 442.99,-43.04"/>
<polygon fill="#63b8ff" stroke="#63b8ff" points="571.41,-76.61 581.94,-75.48 573,-69.8 571.41,-76.61"/>
</a>
</g>
</g>
<!-- Node6 -->
<g id="Node000006" class="node">
<title>Node6</title>
<g id="a_Node000006"><a xlink:href="classCustomize__1__Controller.html#ac71022868de14f02fffd845270ffb42b" target="_top" xlink:title="도안 저장 버튼 클릭 &#45; 유효성 검사">
<polygon fill="white" stroke="#666666" points="471,-147 267,-147 267,-113 471,-113 471,-147"/>
<text text-anchor="start" x="275" y="-133.4" font-family="Consolas" font-size="12.00">Customize_1_Controller.On</text>
<text text-anchor="middle" x="369" y="-120.4" font-family="Consolas" font-size="12.00">ClickSave</text>
</a>
</g>
</g>
<!-- Node3&#45;&gt;Node6 -->
<g id="edge5_Node000003_Node000006" class="edge">
<title>Node3&#45;&gt;Node6</title>
<g id="a_edge5_Node000003_Node000006"><a xlink:title=" ">
<path fill="none" stroke="#63b8ff" d="M555.45,-98.25C528.83,-102.81 498.11,-108.07 469.44,-112.98"/>
<polygon fill="#63b8ff" stroke="#63b8ff" points="556.18,-101.68 565.44,-96.54 554.99,-94.78 556.18,-101.68"/>
</a>
</g>
</g>
<!-- Node8 -->
<g id="Node000008" class="node">
<title>Node8</title>
<g id="a_Node000008"><a xlink:href="classShipTemplateSaver.html#a60eaa44e4b337e8589cdac750c4c7006" target="_top" xlink:title="함선 템플릿 저장">
<polygon fill="white" stroke="#666666" points="475,-95 263,-95 263,-61 475,-61 475,-95"/>
<text text-anchor="start" x="271" y="-81.4" font-family="Consolas" font-size="12.00">ShipTemplateSaver.SaveShip</text>
<text text-anchor="middle" x="369" y="-68.4" font-family="Consolas" font-size="12.00">Template</text>
</a>
</g>
</g>
<!-- Node3&#45;&gt;Node8 -->
<g id="edge7_Node000003_Node000008" class="edge">
<title>Node3&#45;&gt;Node8</title>
<g id="a_edge7_Node000003_Node000008"><a xlink:title=" ">
<path fill="none" stroke="#63b8ff" d="M500.89,-82.07C492.35,-81.81 483.79,-81.54 475.37,-81.28"/>
<polygon fill="#63b8ff" stroke="#63b8ff" points="500.8,-85.57 510.91,-82.39 501.02,-78.58 500.8,-85.57"/>
</a>
</g>
</g>
<!-- Node7 -->
<g id="Node000007" class="node">
<title>Node7</title>
<g id="a_Node000007"><a xlink:href="classCustomize__1__Controller.html#aec55e07635dd1dfd43176946b3dd6f2b" target="_top" xlink:title="button 클릭 함수 연결">
<polygon fill="white" stroke="#666666" points="227,-140.5 0,-140.5 0,-119.5 227,-119.5 227,-140.5"/>
<text text-anchor="middle" x="113.5" y="-126.9" font-family="Consolas" font-size="12.00">Customize_1_Controller.Start</text>
</a>
</g>
</g>
<!-- Node6&#45;&gt;Node7 -->
<g id="edge6_Node000006_Node000007" class="edge">
<title>Node6&#45;&gt;Node7</title>
<g id="a_edge6_Node000006_Node000007"><a xlink:title=" ">
<path fill="none" stroke="#63b8ff" d="M256.63,-130C246.89,-130 237.03,-130 227.29,-130"/>
<polygon fill="#63b8ff" stroke="#63b8ff" points="256.72,-133.5 266.72,-130 256.72,-126.5 256.72,-133.5"/>
</a>
</g>
</g>
<!-- Node9 -->
<g id="Node000009" class="node">
<title>Node9</title>
<g id="a_Node000009"><a xlink:href="classShipTemplateSaver.html#ac21a9409eb9263a08102e63c84238ee4" target="_top" xlink:title="초기화">
<polygon fill="white" stroke="#666666" points="208,-88.5 19,-88.5 19,-67.5 208,-67.5 208,-88.5"/>
<text text-anchor="middle" x="113.5" y="-74.9" font-family="Consolas" font-size="12.00">ShipTemplateSaver.Start</text>
</a>
</g>
</g>
<!-- Node8&#45;&gt;Node9 -->
<g id="edge8_Node000008_Node000009" class="edge">
<title>Node8&#45;&gt;Node9</title>
<g id="a_edge8_Node000008_Node000009"><a xlink:title=" ">
<path fill="none" stroke="#63b8ff" d="M252.47,-78C237.63,-78 222.58,-78 208.15,-78"/>
<polygon fill="#63b8ff" stroke="#63b8ff" points="252.7,-81.5 262.7,-78 252.7,-74.5 252.7,-81.5"/>
</a>
</g>
</g>
<!-- Node12 -->
<g id="Node000012" class="node">
<title>Node12</title>
<g id="a_Node000012"><a xlink:href="classShip.html#a50e268691a28944bb1d65185242bc5c5" target="_top" xlink:title="함선의 외갑판 레벨을 설정합니다.">
<polygon fill="white" stroke="#666666" points="963,-36.5 781,-36.5 781,-15.5 963,-15.5 963,-36.5"/>
<text text-anchor="middle" x="872" y="-22.9" font-family="Consolas" font-size="12.00">Ship.SetOuterHullLevel</text>
</a>
</g>
</g>
<!-- Node11&#45;&gt;Node12 -->
<g id="edge11_Node000011_Node000012" class="edge">
<title>Node11&#45;&gt;Node12</title>
<g id="a_edge11_Node000011_Node000012"><a xlink:title=" ">
<path fill="none" stroke="#63b8ff" d="M988.75,-21.34C980.16,-21.68 971.55,-22.03 963.11,-22.37"/>
<polygon fill="#63b8ff" stroke="#63b8ff" points="988.94,-24.83 998.79,-20.93 988.66,-17.84 988.94,-24.83"/>
</a>
</g>
</g>
<!-- Node12&#45;&gt;Node3 -->
<g id="edge13_Node000012_Node000003" class="edge">
<title>Node12&#45;&gt;Node3</title>
<g id="a_edge13_Node000012_Node000003"><a xlink:title=" ">
<path fill="none" stroke="#63b8ff" d="M818.62,-38.99C774.56,-49.91 712.36,-65.33 671.38,-75.49"/>
<polygon fill="#63b8ff" stroke="#63b8ff" points="819.71,-42.32 828.57,-36.52 818.02,-35.53 819.71,-42.32"/>
</a>
</g>
</g>
<!-- Node12&#45;&gt;Node5 -->
<g id="edge12_Node000012_Node000005" class="edge">
<title>Node12&#45;&gt;Node5</title>
<g id="a_edge12_Node000012_Node000005"><a xlink:title=" ">
<path fill="none" stroke="#63b8ff" d="M770.7,-26C683.67,-26 558.3,-26 471.05,-26"/>
<polygon fill="#63b8ff" stroke="#63b8ff" points="770.85,-29.5 780.85,-26 770.85,-22.5 770.85,-29.5"/>
</a>
</g>
</g>
</g>
</svg>
