<?xml version="1.0" encoding="UTF-8" standalone="no"?>
<!DOCTYPE svg PUBLIC "-//W3C//DTD SVG 1.1//EN"
 "http://www.w3.org/Graphics/SVG/1.1/DTD/svg11.dtd">
<!-- Generated by graphviz version 2.43.0 (0)
 -->
<!-- Title: InventoryUI.PopulateInventory Pages: 1 -->
<svg width="955pt" height="68pt"
 viewBox="0.00 0.00 955.00 68.00" xmlns="http://www.w3.org/2000/svg" xmlns:xlink="http://www.w3.org/1999/xlink">
<g id="graph0" class="graph" transform="scale(1 1) rotate(0) translate(4 64)">
<title>InventoryUI.PopulateInventory</title>
<!-- Node1 -->
<g id="Node000001" class="node">
<title>Node1</title>
<g id="a_Node000001"><a xlink:title="Storage에 저장된 모든 아이템을 기반으로 UI를 동적으로 생성합니다. 기존의 아이템 UI를 제거한 후 새롭게 생성하여 중복 생성을 방지합니다.">
<polygon fill="#999999" stroke="#666666" points="234,-40 0,-40 0,-19 234,-19 234,-40"/>
<text text-anchor="middle" x="117" y="-26.4" font-family="Consolas" font-size="12.00">InventoryUI.PopulateInventory</text>
</a>
</g>
</g>
<!-- Node2 -->
<g id="Node000002" class="node">
<title>Node2</title>
<g id="a_Node000002"><a xlink:href="classStorage.html#a97dfaceb6c6f0d3f1fc3387cc7c79400" target="_top" xlink:title="저장된 모든 아이템 목록을 반환합니다.">
<polygon fill="white" stroke="#666666" points="436.5,-60 277.5,-60 277.5,-39 436.5,-39 436.5,-60"/>
<text text-anchor="middle" x="357" y="-46.4" font-family="Consolas" font-size="12.00">Storage.GetAllItems</text>
</a>
</g>
</g>
<!-- Node1&#45;&gt;Node2 -->
<g id="edge1_Node000001_Node000002" class="edge">
<title>Node1&#45;&gt;Node2</title>
<g id="a_edge1_Node000001_Node000002"><a xlink:title=" ">
<path fill="none" stroke="#63b8ff" d="M234.21,-39.27C245.3,-40.2 256.42,-41.13 267.19,-42.04"/>
<polygon fill="#63b8ff" stroke="#63b8ff" points="267.13,-45.54 277.39,-42.89 267.72,-38.57 267.13,-45.54"/>
</a>
</g>
</g>
<!-- Node3 -->
<g id="Node000003" class="node">
<title>Node3</title>
<g id="a_Node000003"><a xlink:href="classInventoryItemUI.html#a12790122e12779e871c01211d723fd8e" target="_top" xlink:title="아이템 데이터와 수량, 구매 당시 가격을 받아 UI를 초기화합니다.">
<polygon fill="white" stroke="#666666" points="444,-21 270,-21 270,0 444,0 444,-21"/>
<text text-anchor="middle" x="357" y="-7.4" font-family="Consolas" font-size="12.00">InventoryItemUI.Setup</text>
</a>
</g>
</g>
<!-- Node1&#45;&gt;Node3 -->
<g id="edge2_Node000001_Node000003" class="edge">
<title>Node1&#45;&gt;Node3</title>
<g id="a_edge2_Node000001_Node000003"><a xlink:title=" ">
<path fill="none" stroke="#63b8ff" d="M234.21,-20.22C242.77,-19.54 251.34,-18.85 259.76,-18.18"/>
<polygon fill="#63b8ff" stroke="#63b8ff" points="260.25,-21.66 269.94,-17.37 259.69,-14.68 260.25,-21.66"/>
</a>
</g>
</g>
<!-- Node4 -->
<g id="Node000004" class="node">
<title>Node4</title>
<g id="a_Node000004"><a xlink:href="classInventoryItemUI.html#a3fe4150cf97c171d203c8c3272ac20c0" target="_top" xlink:title="현재 슬롯의 선택 상태를 설정합니다.">
<polygon fill="white" stroke="#666666" points="699,-21 480,-21 480,0 699,0 699,-21"/>
<text text-anchor="middle" x="589.5" y="-7.4" font-family="Consolas" font-size="12.00">InventoryItemUI.SetSelected</text>
</a>
</g>
</g>
<!-- Node3&#45;&gt;Node4 -->
<g id="edge3_Node000003_Node000004" class="edge">
<title>Node3&#45;&gt;Node4</title>
<g id="a_edge3_Node000003_Node000004"><a xlink:title=" ">
<path fill="none" stroke="#63b8ff" d="M444.16,-10.5C452.52,-10.5 461.1,-10.5 469.71,-10.5"/>
<polygon fill="#63b8ff" stroke="#63b8ff" points="469.82,-14 479.82,-10.5 469.82,-7 469.82,-14"/>
</a>
</g>
</g>
<!-- Node5 -->
<g id="Node000005" class="node">
<title>Node5</title>
<g id="a_Node000005"><a xlink:href="classInventoryItemUI.html#a0d9fd41fc111f34c6c7ccfaf1577e76b" target="_top" xlink:title="4개 텍스트 색상을 모두 지정된 색으로 설정합니다.">
<polygon fill="white" stroke="#666666" points="947,-21 735,-21 735,0 947,0 947,-21"/>
<text text-anchor="middle" x="841" y="-7.4" font-family="Consolas" font-size="12.00">InventoryItemUI.ApplyColor</text>
</a>
</g>
</g>
<!-- Node4&#45;&gt;Node5 -->
<g id="edge4_Node000004_Node000005" class="edge">
<title>Node4&#45;&gt;Node5</title>
<g id="a_edge4_Node000004_Node000005"><a xlink:title=" ">
<path fill="none" stroke="#63b8ff" d="M699.21,-10.5C707.61,-10.5 716.11,-10.5 724.56,-10.5"/>
<polygon fill="#63b8ff" stroke="#63b8ff" points="724.82,-14 734.82,-10.5 724.82,-7 724.82,-14"/>
</a>
</g>
</g>
</g>
</svg>
