<?xml version="1.0" encoding="UTF-8" standalone="no"?>
<!DOCTYPE svg PUBLIC "-//W3C//DTD SVG 1.1//EN"
 "http://www.w3.org/Graphics/SVG/1.1/DTD/svg11.dtd">
<!-- Generated by graphviz version 2.43.0 (0)
 -->
<!-- Title: Customize_2_Controller.OnClickOuterHullButton Pages: 1 -->
<svg width="1285pt" height="218pt"
 viewBox="0.00 0.00 1285.00 218.00" xmlns="http://www.w3.org/2000/svg" xmlns:xlink="http://www.w3.org/1999/xlink">
<g id="graph0" class="graph" transform="scale(1 1) rotate(0) translate(4 214)">
<title>Customize_2_Controller.OnClickOuterHullButton</title>
<!-- Node1 -->
<g id="Node000001" class="node">
<title>Node1</title>
<g id="a_Node000001"><a xlink:title="외갑판 적용">
<polygon fill="#999999" stroke="#666666" points="204,-135 0,-135 0,-101 204,-101 204,-135"/>
<text text-anchor="start" x="8" y="-121.4" font-family="Consolas" font-size="12.00">Customize_2_Controller.On</text>
<text text-anchor="middle" x="102" y="-108.4" font-family="Consolas" font-size="12.00">ClickOuterHullButton</text>
</a>
</g>
</g>
<!-- Node2 -->
<g id="Node000002" class="node">
<title>Node2</title>
<g id="a_Node000002"><a xlink:href="classCustomize__2__Controller.html#afcb54597ec4c412e8043ae44d6b513d8" target="_top" xlink:title="Image 비율 조정">
<polygon fill="white" stroke="#666666" points="474,-158 240,-158 240,-124 474,-124 474,-158"/>
<text text-anchor="start" x="248" y="-144.4" font-family="Consolas" font-size="12.00">Customize_2_Controller.Adjust</text>
<text text-anchor="middle" x="357" y="-131.4" font-family="Consolas" font-size="12.00">RawImageAspect</text>
</a>
</g>
</g>
<!-- Node1&#45;&gt;Node2 -->
<g id="edge1_Node000001_Node000002" class="edge">
<title>Node1&#45;&gt;Node2</title>
<g id="a_edge1_Node000001_Node000002"><a xlink:title=" ">
<path fill="none" stroke="#63b8ff" d="M204.08,-127.19C212.49,-127.95 221.06,-128.73 229.62,-129.51"/>
<polygon fill="#63b8ff" stroke="#63b8ff" points="229.39,-133 239.67,-130.42 230.02,-126.03 229.39,-133"/>
</a>
</g>
</g>
<!-- Node3 -->
<g id="Node000003" class="node">
<title>Node3</title>
<g id="a_Node000003"><a xlink:href="classBlueprintShip.html#a1c492e0713444916c84c37894b82c71d" target="_top" xlink:title="외갑판 세팅">
<polygon fill="white" stroke="#666666" points="470.5,-105.5 243.5,-105.5 243.5,-84.5 470.5,-84.5 470.5,-105.5"/>
<text text-anchor="middle" x="357" y="-91.9" font-family="Consolas" font-size="12.00">BlueprintShip.SetBPHullLevel</text>
</a>
</g>
</g>
<!-- Node1&#45;&gt;Node3 -->
<g id="edge2_Node000001_Node000003" class="edge">
<title>Node1&#45;&gt;Node3</title>
<g id="a_edge2_Node000001_Node000003"><a xlink:title=" ">
<path fill="none" stroke="#63b8ff" d="M204.08,-108.81C213.69,-107.94 223.49,-107.05 233.27,-106.16"/>
<polygon fill="#63b8ff" stroke="#63b8ff" points="233.79,-109.62 243.43,-105.23 233.16,-102.65 233.79,-109.62"/>
</a>
</g>
</g>
<!-- Node4 -->
<g id="Node000004" class="node">
<title>Node4</title>
<g id="a_Node000004"><a xlink:href="classBlueprintShip.html#aeadcaa00abc9c7654507f23d6c2bef78" target="_top" xlink:title="중복 검사 후 배치 정보 추가">
<polygon fill="white" stroke="#666666" points="733,-210 521,-210 521,-176 733,-176 733,-210"/>
<text text-anchor="start" x="529" y="-196.4" font-family="Consolas" font-size="12.00">BlueprintShip.AddPlacement</text>
<text text-anchor="middle" x="627" y="-183.4" font-family="Consolas" font-size="12.00">IfNotDuplicate</text>
</a>
</g>
</g>
<!-- Node3&#45;&gt;Node4 -->
<g id="edge3_Node000003_Node000004" class="edge">
<title>Node3&#45;&gt;Node4</title>
<g id="a_edge3_Node000003_Node000004"><a xlink:title=" ">
<path fill="none" stroke="#63b8ff" d="M455.19,-105.6C461.8,-108.16 468.14,-111.26 474,-115 497.7,-130.12 486.69,-151.29 510,-167 512.29,-168.54 514.65,-169.99 517.08,-171.36"/>
<polygon fill="#63b8ff" stroke="#63b8ff" points="515.62,-174.54 526.12,-175.95 518.79,-168.3 515.62,-174.54"/>
</a>
</g>
</g>
<!-- Node5 -->
<g id="Node000005" class="node">
<title>Node5</title>
<g id="a_Node000005"><a xlink:href="classBlueprintShip.html#a8827839dae653ca4af9e268efc1506f7" target="_top" xlink:title="외갑판 배치 정보에 따른 스프라이트 인덱스 계산">
<polygon fill="white" stroke="#666666" points="744,-158 510,-158 510,-124 744,-124 744,-158"/>
<text text-anchor="start" x="518" y="-144.4" font-family="Consolas" font-size="12.00">BlueprintShip.CalculateSprite</text>
<text text-anchor="middle" x="627" y="-131.4" font-family="Consolas" font-size="12.00">Index</text>
</a>
</g>
</g>
<!-- Node3&#45;&gt;Node5 -->
<g id="edge4_Node000003_Node000005" class="edge">
<title>Node3&#45;&gt;Node5</title>
<g id="a_edge4_Node000003_Node000005"><a xlink:title=" ">
<path fill="none" stroke="#63b8ff" d="M419.48,-105.55C448.26,-110.49 483.43,-116.53 516.53,-122.21"/>
<polygon fill="#63b8ff" stroke="#63b8ff" points="516.28,-125.72 526.73,-123.96 517.46,-118.82 516.28,-125.72"/>
</a>
</g>
</g>
<!-- Node6 -->
<g id="Node000006" class="node">
<title>Node6</title>
<g id="a_Node000006"><a xlink:href="classBlueprintShip.html#a392c4c1316b3611f52f2b957aa93d06c" target="_top" xlink:title="지정된 위치에 외갑판을 생성합니다.">
<polygon fill="white" stroke="#666666" points="744,-105.5 510,-105.5 510,-84.5 744,-84.5 744,-105.5"/>
<text text-anchor="middle" x="627" y="-91.9" font-family="Consolas" font-size="12.00">BlueprintShip.CreateOuterHull</text>
</a>
</g>
</g>
<!-- Node3&#45;&gt;Node6 -->
<g id="edge5_Node000003_Node000006" class="edge">
<title>Node3&#45;&gt;Node6</title>
<g id="a_edge5_Node000003_Node000006"><a xlink:title=" ">
<path fill="none" stroke="#63b8ff" d="M470.88,-95C480.43,-95 490.14,-95 499.79,-95"/>
<polygon fill="#63b8ff" stroke="#63b8ff" points="499.81,-98.5 509.81,-95 499.81,-91.5 499.81,-98.5"/>
</a>
</g>
</g>
<!-- Node11 -->
<g id="Node000011" class="node">
<title>Node11</title>
<g id="a_Node000011"><a xlink:href="classRoomData.html#a93ada549c4d197d14917913e944f46c2" target="_top" xlink:title="주어진 레벨에 해당하는 RoomLevel 데이터를 반환합니다. 각 파생 클래스에서 구현해야 합니다.">
<polygon fill="white" stroke="#666666" points="736.5,-66.5 517.5,-66.5 517.5,-45.5 736.5,-45.5 736.5,-66.5"/>
<text text-anchor="middle" x="627" y="-52.9" font-family="Consolas" font-size="12.00">RoomData.GetRoomDataByLevel</text>
</a>
</g>
</g>
<!-- Node3&#45;&gt;Node11 -->
<g id="edge10_Node000003_Node000011" class="edge">
<title>Node3&#45;&gt;Node11</title>
<g id="a_edge10_Node000003_Node000011"><a xlink:title=" ">
<path fill="none" stroke="#63b8ff" d="M430.17,-84.5C465.17,-79.4 507.39,-73.26 543.64,-67.98"/>
<polygon fill="#63b8ff" stroke="#63b8ff" points="544.31,-71.43 553.7,-66.52 543.3,-64.5 544.31,-71.43"/>
</a>
</g>
</g>
<!-- Node12 -->
<g id="Node000012" class="node">
<title>Node12</title>
<g id="a_Node000012"><a xlink:href="classBlueprintWeapon.html#ab44eb8d7287bbcaa5504a8629a4bbf4f" target="_top" xlink:title="함선 외갑판 레벨 설정 (내부적으로만 캐싱)">
<polygon fill="white" stroke="#666666" points="740.5,-27.5 513.5,-27.5 513.5,-6.5 740.5,-6.5 740.5,-27.5"/>
<text text-anchor="middle" x="627" y="-13.9" font-family="Consolas" font-size="12.00">BlueprintWeapon.SetHullLevel</text>
</a>
</g>
</g>
<!-- Node3&#45;&gt;Node12 -->
<g id="edge11_Node000003_Node000012" class="edge">
<title>Node3&#45;&gt;Node12</title>
<g id="a_edge11_Node000003_Node000012"><a xlink:title=" ">
<path fill="none" stroke="#63b8ff" d="M380.67,-84.48C409.95,-71.3 462.75,-48.89 510,-36 518.99,-33.55 528.46,-31.37 537.95,-29.44"/>
<polygon fill="#63b8ff" stroke="#63b8ff" points="538.69,-32.86 547.84,-27.52 537.35,-25.99 538.69,-32.86"/>
</a>
</g>
</g>
<!-- Node7 -->
<g id="Node000007" class="node">
<title>Node7</title>
<g id="a_Node000007"><a xlink:href="classOuterHullData.html#a96a23b3ef4a7ccdd9770367243248111" target="_top" xlink:title="특정 레벨과 방향에 해당하는 외갑판 스프라이트를 반환합니다.">
<polygon fill="white" stroke="#666666" points="999,-142 795,-142 795,-108 999,-108 999,-142"/>
<text text-anchor="start" x="803" y="-128.4" font-family="Consolas" font-size="12.00">OuterHullData.GetSpecific</text>
<text text-anchor="middle" x="897" y="-115.4" font-family="Consolas" font-size="12.00">HullSprite</text>
</a>
</g>
</g>
<!-- Node6&#45;&gt;Node7 -->
<g id="edge6_Node000006_Node000007" class="edge">
<title>Node6&#45;&gt;Node7</title>
<g id="a_edge6_Node000006_Node000007"><a xlink:title=" ">
<path fill="none" stroke="#63b8ff" d="M722.11,-105.53C742.33,-107.8 763.88,-110.21 784.68,-112.54"/>
<polygon fill="#63b8ff" stroke="#63b8ff" points="784.5,-116.04 794.83,-113.67 785.28,-109.08 784.5,-116.04"/>
</a>
</g>
</g>
<!-- Node9 -->
<g id="Node000009" class="node">
<title>Node9</title>
<g id="a_Node000009"><a xlink:href="classShip.html#acc377098e3c61bbd4b8fc53595d09293" target="_top" xlink:title="실제 월드 위치 반환">
<polygon fill="white" stroke="#666666" points="1014,-89.5 780,-89.5 780,-68.5 1014,-68.5 1014,-89.5"/>
<text text-anchor="middle" x="897" y="-75.9" font-family="Consolas" font-size="12.00">Ship.GetWorldPositionFromGrid</text>
</a>
</g>
</g>
<!-- Node6&#45;&gt;Node9 -->
<g id="edge8_Node000006_Node000009" class="edge">
<title>Node6&#45;&gt;Node9</title>
<g id="a_edge8_Node000006_Node000009"><a xlink:title=" ">
<path fill="none" stroke="#63b8ff" d="M744.38,-88.05C752.71,-87.55 761.14,-87.05 769.53,-86.55"/>
<polygon fill="#63b8ff" stroke="#63b8ff" points="769.96,-90.03 779.74,-85.94 769.54,-83.04 769.96,-90.03"/>
</a>
</g>
</g>
<!-- Node8 -->
<g id="Node000008" class="node">
<title>Node8</title>
<g id="a_Node000008"><a xlink:href="classOuterHullData.html#a384cd23c0bd3ce51069b8d2eba0bf431" target="_top" xlink:title="지정한 레벨의 방향별 스프라이트 배열을 반환합니다.">
<polygon fill="white" stroke="#666666" points="1277,-135.5 1050,-135.5 1050,-114.5 1277,-114.5 1277,-135.5"/>
<text text-anchor="middle" x="1163.5" y="-121.9" font-family="Consolas" font-size="12.00">OuterHullData.GetHullSprites</text>
</a>
</g>
</g>
<!-- Node7&#45;&gt;Node8 -->
<g id="edge7_Node000007_Node000008" class="edge">
<title>Node7&#45;&gt;Node8</title>
<g id="a_edge7_Node000007_Node000008"><a xlink:title=" ">
<path fill="none" stroke="#63b8ff" d="M999.13,-125C1012.38,-125 1026.07,-125 1039.63,-125"/>
<polygon fill="#63b8ff" stroke="#63b8ff" points="1039.96,-128.5 1049.96,-125 1039.96,-121.5 1039.96,-128.5"/>
</a>
</g>
</g>
<!-- Node10 -->
<g id="Node000010" class="node">
<title>Node10</title>
<g id="a_Node000010"><a xlink:href="classShip.html#a84f03b9700fea23f4e8a48f1233de137" target="_top" xlink:title="그리드 좌표를 월드 좌표로 변환 ((0, 0) ~ (60, 60) 그리드 내 좌표라 local relative 좌표임)">
<polygon fill="white" stroke="#666666" points="1262,-89.5 1065,-89.5 1065,-68.5 1262,-68.5 1262,-89.5"/>
<text text-anchor="middle" x="1163.5" y="-75.9" font-family="Consolas" font-size="12.00">Ship.GridToWorldPosition</text>
</a>
</g>
</g>
<!-- Node9&#45;&gt;Node10 -->
<g id="edge9_Node000009_Node000010" class="edge">
<title>Node9&#45;&gt;Node10</title>
<g id="a_edge9_Node000009_Node000010"><a xlink:title=" ">
<path fill="none" stroke="#63b8ff" d="M1014.01,-79C1027.51,-79 1041.23,-79 1054.61,-79"/>
<polygon fill="#63b8ff" stroke="#63b8ff" points="1054.76,-82.5 1064.76,-79 1054.76,-75.5 1054.76,-82.5"/>
</a>
</g>
</g>
<!-- Node13 -->
<g id="Node000013" class="node">
<title>Node13</title>
<g id="a_Node000013"><a xlink:href="classBlueprintWeapon.html#a60094977796de28499b592ef408f5a5b" target="_top" xlink:title="현재 부착 방향과 외갑판 레벨에 맞는 스프라이트 적용">
<polygon fill="white" stroke="#666666" points="1014,-34 780,-34 780,0 1014,0 1014,-34"/>
<text text-anchor="start" x="788" y="-20.4" font-family="Consolas" font-size="12.00">BlueprintWeapon.ApplyAttached</text>
<text text-anchor="middle" x="897" y="-7.4" font-family="Consolas" font-size="12.00">DirectionSprite</text>
</a>
</g>
</g>
<!-- Node12&#45;&gt;Node13 -->
<g id="edge12_Node000012_Node000013" class="edge">
<title>Node12&#45;&gt;Node13</title>
<g id="a_edge12_Node000012_Node000013"><a xlink:title=" ">
<path fill="none" stroke="#63b8ff" d="M740.88,-17C750.43,-17 760.14,-17 769.79,-17"/>
<polygon fill="#63b8ff" stroke="#63b8ff" points="769.81,-20.5 779.81,-17 769.81,-13.5 769.81,-20.5"/>
</a>
</g>
</g>
</g>
</svg>
