<?xml version="1.0" encoding="UTF-8" standalone="no"?>
<!DOCTYPE svg PUBLIC "-//W3C//DTD SVG 1.1//EN"
 "http://www.w3.org/Graphics/SVG/1.1/DTD/svg11.dtd">
<!-- Generated by graphviz version 2.43.0 (0)
 -->
<!-- Title: PlanetTooltip Pages: 1 -->
<svg width="306pt" height="355pt"
 viewBox="0.00 0.00 306.00 355.00" xmlns="http://www.w3.org/2000/svg" xmlns:xlink="http://www.w3.org/1999/xlink">
<g id="graph0" class="graph" transform="scale(1 1) rotate(0) translate(4 351)">
<title>PlanetTooltip</title>
<!-- Node1 -->
<g id="Node000001" class="node">
<title>Node1</title>
<g id="a_Node000001"><a xlink:title="행성의 정보를 UI 툴팁 형태로 표시하는 컴포넌트입니다.">
<polygon fill="#999999" stroke="transparent" points="298,-256 0,-256 0,0 298,0 298,-256"/>
<text text-anchor="start" x="100" y="-242.4" font-family="Consolas" font-size="12.00">PlanetTooltip</text>
<text text-anchor="start" x="4" y="-225.4" font-family="Consolas" font-size="12.00">+</text>
<text text-anchor="start" x="16" y="-225.4" font-family="Consolas" font-size="12.00">TextMeshProUGUI planetNameText</text>
<text text-anchor="start" x="4" y="-208.4" font-family="Consolas" font-size="12.00">+</text>
<text text-anchor="start" x="16" y="-208.4" font-family="Consolas" font-size="12.00">Image planetTradeTierIcon</text>
<text text-anchor="start" x="4" y="-191.4" font-family="Consolas" font-size="12.00">+</text>
<text text-anchor="start" x="16" y="-191.4" font-family="Consolas" font-size="12.00">Image planetIcon</text>
<text text-anchor="start" x="4" y="-174.4" font-family="Consolas" font-size="12.00">+</text>
<text text-anchor="start" x="16" y="-174.4" font-family="Consolas" font-size="12.00">TextMeshProUGUI planetDescriptionText</text>
<text text-anchor="start" x="4" y="-157.4" font-family="Consolas" font-size="12.00">+</text>
<text text-anchor="start" x="16" y="-157.4" font-family="Consolas" font-size="12.00">TextMeshProUGUI planetEvent</text>
<text text-anchor="start" x="16" y="-144.4" font-family="Consolas" font-size="12.00">TitleText</text>
<text text-anchor="start" x="4" y="-127.4" font-family="Consolas" font-size="12.00">+</text>
<text text-anchor="start" x="16" y="-127.4" font-family="Consolas" font-size="12.00">TextMeshProUGUI planetEvent</text>
<text text-anchor="start" x="16" y="-114.4" font-family="Consolas" font-size="12.00">UpText</text>
<text text-anchor="start" x="4" y="-97.4" font-family="Consolas" font-size="12.00">+</text>
<text text-anchor="start" x="16" y="-97.4" font-family="Consolas" font-size="12.00">TextMeshProUGUI planetEvent</text>
<text text-anchor="start" x="16" y="-84.4" font-family="Consolas" font-size="12.00">DownText</text>
<text text-anchor="start" x="4" y="-67.4" font-family="Consolas" font-size="12.00">+</text>
<text text-anchor="start" x="16" y="-67.4" font-family="Consolas" font-size="12.00">TextMeshProUGUI planetActive</text>
<text text-anchor="start" x="16" y="-54.4" font-family="Consolas" font-size="12.00">QuestTitleText</text>
<text text-anchor="start" x="4" y="-37.4" font-family="Consolas" font-size="12.00">+</text>
<text text-anchor="start" x="16" y="-37.4" font-family="Consolas" font-size="12.00">TextMeshProUGUI planetIn</text>
<text text-anchor="start" x="16" y="-24.4" font-family="Consolas" font-size="12.00">ActiveQuestTitleText</text>
<text text-anchor="start" x="145" y="-7.4" font-family="Consolas" font-size="12.00"> </text>
<polygon fill="#666666" stroke="#666666" points="0,-237 0,-237 298,-237 298,-237 0,-237"/>
<polygon fill="#666666" stroke="#666666" points="0,-19 0,-19 14,-19 14,-19 0,-19"/>
<polygon fill="#666666" stroke="#666666" points="14,-19 14,-19 298,-19 298,-19 14,-19"/>
<polygon fill="none" stroke="#666666" points="0,0 0,-256 298,-256 298,0 0,0"/>
</a>
</g>
</g>
<!-- Node2 -->
<g id="Node000002" class="node">
<title>Node2</title>
<g id="a_Node000002"><a xlink:title=" ">
<polygon fill="white" stroke="transparent" points="203,-347 95,-347 95,-292 203,-292 203,-347"/>
<text text-anchor="start" x="100" y="-332.9" font-family="Consolas" font-size="12.00">MonoBehaviour</text>
<text text-anchor="start" x="145" y="-315.9" font-family="Consolas" font-size="12.00"> </text>
<text text-anchor="start" x="145" y="-298.9" font-family="Consolas" font-size="12.00"> </text>
<polygon fill="#bfbfbf" stroke="#bfbfbf" points="95,-327.5 95,-327.5 203,-327.5 203,-327.5 95,-327.5"/>
<polygon fill="#bfbfbf" stroke="#bfbfbf" points="95,-310.5 95,-310.5 203,-310.5 203,-310.5 95,-310.5"/>
<polygon fill="none" stroke="#bfbfbf" points="95,-292 95,-347 203,-347 203,-292 95,-292"/>
</a>
</g>
</g>
<!-- Node2&#45;&gt;Node1 -->
<g id="edge1_Node000001_Node000002" class="edge">
<title>Node2&#45;&gt;Node1</title>
<g id="a_edge1_Node000001_Node000002"><a xlink:title=" ">
<path fill="none" stroke="#63b8ff" d="M149,-281.68C149,-273.88 149,-265.23 149,-256.13"/>
<polygon fill="none" stroke="#63b8ff" points="145.5,-281.75 149,-291.75 152.5,-281.75 145.5,-281.75"/>
</a>
</g>
</g>
</g>
</svg>
