<?xml version="1.0" encoding="UTF-8" standalone="no"?>
<!DOCTYPE svg PUBLIC "-//W3C//DTD SVG 1.1//EN"
 "http://www.w3.org/Graphics/SVG/1.1/DTD/svg11.dtd">
<!-- Generated by graphviz version 2.43.0 (0)
 -->
<!-- Title: CrewInfoPanel Pages: 1 -->
<!--zoomable 980 -->

<svg id="main" version="1.1" xmlns="http://www.w3.org/2000/svg" xmlns:xlink="http://www.w3.org/1999/xlink" xml:space="preserve" onload="init(evt)">
<style type="text/css"><![CDATA[
.node, .edge {opacity: 0.7;}
.node.selected, .edge.selected {opacity: 1;}
.edge:hover path { stroke: red; }
.edge:hover polygon { stroke: red; fill: red; }
]]></style>

<defs>
  <circle id="rim" cx="0" cy="0" r="7"/>
  <circle id="rim2" cx="0" cy="0" r="3.5"/>
  <g id="zoomPlus">
    <use xlink:href="#rim" fill="#404040"><set attributeName="fill" to="#808080" begin="zoomplus.mouseover" end="zoomplus.mouseout"/></use>
    <path d="M-4,0h8M0,-4v8" fill="none" stroke="white" stroke-width="1.5" pointer-events="none"/>
  </g>
  <g id="zoomMin">
    <use xlink:href="#rim" fill="#404040"><set attributeName="fill" to="#808080" begin="zoomminus.mouseover" end="zoomminus.mouseout"/></use>
    <path d="M-4,0h8" fill="none" stroke="white" stroke-width="1.5" pointer-events="none"/>
  </g>
  <g id="arrowUp" transform="translate(30 24)">
    <use xlink:href="#rim"/>
    <path pointer-events="none" fill="none" stroke="white" stroke-width="1.5" d="M0,-3.0v7 M-2.5,-0.5L0,-3.0L2.5,-0.5"/>
  </g>
  <g id="arrowRight" transform="rotate(90) translate(36 -43)">
    <use xlink:href="#rim"/>
    <path pointer-events="none" fill="none" stroke="white" stroke-width="1.5" d="M0,-3.0v7 M-2.5,-0.5L0,-3.0L2.5,-0.5"/>
  </g>
  <g id="arrowDown" transform="rotate(180) translate(-30 -48)">
    <use xlink:href="#rim"/>
    <path pointer-events="none" fill="none" stroke="white" stroke-width="1.5" d="M0,-3.0v7 M-2.5,-0.5L0,-3.0L2.5,-0.5"/>
  </g>
  <g id="arrowLeft" transform="rotate(270) translate(-36 17)">
    <use xlink:href="#rim"/>
    <path pointer-events="none" fill="none" stroke="white" stroke-width="1.5" d="M0,-3.0v7 M-2.5,-0.5L0,-3.0L2.5,-0.5"/>
  </g>
  <g id="resetDef">
    <use xlink:href="#rim2" fill="#404040"><set attributeName="fill" to="#808080" begin="reset.mouseover" end="reset.mouseout"/></use>
  </g>
</defs>
<script type="application/ecmascript">
var viewWidth = 467;
var viewHeight = 980;
var sectionId = 'dynsection-0';
</script>
<script type="application/ecmascript" xlink:href="svg.min.js"/>
<svg id="graph" class="graph">
<g id="viewport">
<title>CrewInfoPanel</title>
<!-- Node1 -->
<g id="Node000001" class="node">
<title>Node1</title>
<g id="a_Node000001"><a xlink:title=" ">
<polygon fill="#999999" stroke="transparent" points="326,-311 88,-311 88,0 326,0 326,-311"/>
<text text-anchor="start" x="158" y="-296.9" font-family="Consolas" font-size="12.00">CrewInfoPanel</text>
<text text-anchor="start" x="92" y="-279.9" font-family="Consolas" font-size="12.00">&#45;</text>
<text text-anchor="start" x="104" y="-279.9" font-family="Consolas" font-size="12.00">Button atkButton</text>
<text text-anchor="start" x="92" y="-262.9" font-family="Consolas" font-size="12.00">&#45;</text>
<text text-anchor="start" x="104" y="-262.9" font-family="Consolas" font-size="12.00">Button defButton</text>
<text text-anchor="start" x="92" y="-245.9" font-family="Consolas" font-size="12.00">&#45;</text>
<text text-anchor="start" x="104" y="-245.9" font-family="Consolas" font-size="12.00">Button assistButton</text>
<text text-anchor="start" x="92" y="-228.9" font-family="Consolas" font-size="12.00">&#45;</text>
<text text-anchor="start" x="104" y="-228.9" font-family="Consolas" font-size="12.00">TextMeshProUGUI crewName</text>
<text text-anchor="start" x="92" y="-211.9" font-family="Consolas" font-size="12.00">&#45;</text>
<text text-anchor="start" x="104" y="-211.9" font-family="Consolas" font-size="12.00">TextMeshProUGUI currentHealth</text>
<text text-anchor="start" x="92" y="-194.9" font-family="Consolas" font-size="12.00">&#45;</text>
<text text-anchor="start" x="104" y="-194.9" font-family="Consolas" font-size="12.00">Image crewIcon</text>
<text text-anchor="start" x="92" y="-177.9" font-family="Consolas" font-size="12.00">&#45;</text>
<text text-anchor="start" x="104" y="-177.9" font-family="Consolas" font-size="12.00">Button rtsButton</text>
<text text-anchor="start" x="92" y="-160.9" font-family="Consolas" font-size="12.00">&#45;</text>
<text text-anchor="start" x="104" y="-160.9" font-family="Consolas" font-size="12.00">SlidePanelController</text>
<text text-anchor="start" x="104" y="-147.9" font-family="Consolas" font-size="12.00"> slidePanelController</text>
<text text-anchor="start" x="92" y="-130.9" font-family="Consolas" font-size="12.00">&#45;</text>
<text text-anchor="start" x="104" y="-130.9" font-family="Consolas" font-size="12.00">CrewMember currentCrew</text>
<text text-anchor="start" x="92" y="-113.9" font-family="Consolas" font-size="12.00">+</text>
<text text-anchor="start" x="104" y="-113.9" font-family="Consolas" font-size="12.00">void Initialize(CrewMember</text>
<text text-anchor="start" x="104" y="-100.9" font-family="Consolas" font-size="12.00"> crew)</text>
<text text-anchor="start" x="92" y="-83.9" font-family="Consolas" font-size="12.00">+</text>
<text text-anchor="start" x="104" y="-83.9" font-family="Consolas" font-size="12.00">void RefreshCrewEquipments</text>
<text text-anchor="start" x="104" y="-70.9" font-family="Consolas" font-size="12.00">(CrewMember crew)</text>
<text text-anchor="start" x="92" y="-53.9" font-family="Consolas" font-size="12.00">#</text>
<text text-anchor="start" x="104" y="-53.9" font-family="Consolas" font-size="12.00">override void Start()</text>
<text text-anchor="start" x="92" y="-36.9" font-family="Consolas" font-size="12.00">#</text>
<text text-anchor="start" x="104" y="-36.9" font-family="Consolas" font-size="12.00">override void SetToolTip</text>
<text text-anchor="start" x="104" y="-23.9" font-family="Consolas" font-size="12.00">Text()</text>
<text text-anchor="start" x="92" y="-6.9" font-family="Consolas" font-size="12.00">&#45;</text>
<text text-anchor="start" x="104" y="-6.9" font-family="Consolas" font-size="12.00">void OnRTSButtonClicked()</text>
<polygon fill="#666666" stroke="#666666" points="88,-291.5 88,-291.5 326,-291.5 326,-291.5 88,-291.5"/>
<polygon fill="#666666" stroke="#666666" points="88,-125.5 88,-125.5 102,-125.5 102,-125.5 88,-125.5"/>
<polygon fill="#666666" stroke="#666666" points="102,-125.5 102,-125.5 326,-125.5 326,-125.5 102,-125.5"/>
<polygon fill="none" stroke="#666666" points="88,0 88,-311 326,-311 326,0 88,0"/>
</a>
</g>
</g>
<!-- Node2 -->
<g id="Node000002" class="node">
<title>Node2</title>
<g id="a_Node000002"><a xlink:href="classTooltipPanelBase.html" target="_top" xlink:title=" ">
<polygon fill="white" stroke="transparent" points="322.5,-881 91.5,-881 91.5,-347 322.5,-347 322.5,-881"/>
<text text-anchor="start" x="147" y="-867.4" font-family="Consolas" font-size="12.00">TooltipPanelBase</text>
<text text-anchor="start" x="96" y="-850.4" font-family="Consolas" font-size="12.00">#</text>
<text text-anchor="start" x="108" y="-850.4" font-family="Consolas" font-size="12.00">GameObject tooltipPrefab</text>
<text text-anchor="start" x="96" y="-833.4" font-family="Consolas" font-size="12.00">#</text>
<text text-anchor="start" x="108" y="-833.4" font-family="Consolas" font-size="12.00">GameObject currentToolTip</text>
<text text-anchor="start" x="96" y="-816.4" font-family="Consolas" font-size="12.00">#</text>
<text text-anchor="start" x="108" y="-816.4" font-family="Consolas" font-size="12.00">Canvas canvasComponent</text>
<text text-anchor="start" x="96" y="-799.4" font-family="Consolas" font-size="12.00">#</text>
<text text-anchor="start" x="108" y="-799.4" font-family="Consolas" font-size="12.00">RectTransform canvasRect</text>
<text text-anchor="start" x="108" y="-786.4" font-family="Consolas" font-size="12.00">Transform</text>
<text text-anchor="start" x="96" y="-769.4" font-family="Consolas" font-size="12.00">#</text>
<text text-anchor="start" x="108" y="-769.4" font-family="Consolas" font-size="12.00">bool isMouseOver</text>
<text text-anchor="start" x="96" y="-752.4" font-family="Consolas" font-size="12.00">#</text>
<text text-anchor="start" x="108" y="-752.4" font-family="Consolas" font-size="12.00">Coroutine toolTipCoroutine</text>
<text text-anchor="start" x="96" y="-735.4" font-family="Consolas" font-size="12.00">#</text>
<text text-anchor="start" x="108" y="-735.4" font-family="Consolas" font-size="12.00">GameObject tooltipParent</text>
<text text-anchor="start" x="96" y="-718.4" font-family="Consolas" font-size="12.00">#</text>
<text text-anchor="start" x="108" y="-718.4" font-family="Consolas" font-size="12.00">Vector2 lastMousePosition</text>
<text text-anchor="start" x="96" y="-701.4" font-family="Consolas" font-size="12.00">+</text>
<text text-anchor="start" x="108" y="-701.4" font-family="Consolas" font-size="12.00">virtual void OnPointerEnter</text>
<text text-anchor="start" x="108" y="-688.4" font-family="Consolas" font-size="12.00">(PointerEventData eventData)</text>
<text text-anchor="start" x="96" y="-671.4" font-family="Consolas" font-size="12.00">+</text>
<text text-anchor="start" x="108" y="-671.4" font-family="Consolas" font-size="12.00">virtual void OnPointerExit</text>
<text text-anchor="start" x="108" y="-658.4" font-family="Consolas" font-size="12.00">(PointerEventData eventData)</text>
<text text-anchor="start" x="96" y="-641.4" font-family="Consolas" font-size="12.00">#</text>
<text text-anchor="start" x="108" y="-641.4" font-family="Consolas" font-size="12.00">virtual void Start()</text>
<text text-anchor="start" x="96" y="-624.4" font-family="Consolas" font-size="12.00">#</text>
<text text-anchor="start" x="108" y="-624.4" font-family="Consolas" font-size="12.00">virtual void Update()</text>
<text text-anchor="start" x="96" y="-607.4" font-family="Consolas" font-size="12.00">#</text>
<text text-anchor="start" x="108" y="-607.4" font-family="Consolas" font-size="12.00">virtual void CreateTooltip()</text>
<text text-anchor="start" x="96" y="-590.4" font-family="Consolas" font-size="12.00">#</text>
<text text-anchor="start" x="108" y="-590.4" font-family="Consolas" font-size="12.00">virtual void OnMouseEnter</text>
<text text-anchor="start" x="108" y="-577.4" font-family="Consolas" font-size="12.00">(PointerEventData eventData)</text>
<text text-anchor="start" x="96" y="-560.4" font-family="Consolas" font-size="12.00">#</text>
<text text-anchor="start" x="108" y="-560.4" font-family="Consolas" font-size="12.00">virtual void OnMouseExit</text>
<text text-anchor="start" x="108" y="-547.4" font-family="Consolas" font-size="12.00">(PointerEventData eventData)</text>
<text text-anchor="start" x="96" y="-530.4" font-family="Consolas" font-size="12.00">#</text>
<text text-anchor="start" x="108" y="-530.4" font-family="Consolas" font-size="12.00">virtual void UpdateToolTip</text>
<text text-anchor="start" x="108" y="-517.4" font-family="Consolas" font-size="12.00">PositionFromMouse()</text>
<text text-anchor="start" x="96" y="-500.4" font-family="Consolas" font-size="12.00">#</text>
<text text-anchor="start" x="108" y="-500.4" font-family="Consolas" font-size="12.00">virtual void UpdateToolTip</text>
<text text-anchor="start" x="108" y="-487.4" font-family="Consolas" font-size="12.00">Position(PointerEventData</text>
<text text-anchor="start" x="108" y="-474.4" font-family="Consolas" font-size="12.00"> eventData)</text>
<text text-anchor="start" x="96" y="-457.4" font-family="Consolas" font-size="12.00">#</text>
<text text-anchor="start" x="108" y="-457.4" font-family="Consolas" font-size="12.00">virtual void UpdateToolTip</text>
<text text-anchor="start" x="108" y="-444.4" font-family="Consolas" font-size="12.00">PositionInternal(Vector2</text>
<text text-anchor="start" x="108" y="-431.4" font-family="Consolas" font-size="12.00"> mousePosition)</text>
<text text-anchor="start" x="96" y="-414.4" font-family="Consolas" font-size="12.00">#</text>
<text text-anchor="start" x="108" y="-414.4" font-family="Consolas" font-size="12.00">virtual IEnumerator</text>
<text text-anchor="start" x="108" y="-401.4" font-family="Consolas" font-size="12.00"> ShowToolTipWithDelay</text>
<text text-anchor="start" x="108" y="-388.4" font-family="Consolas" font-size="12.00">(PointerEventData eventData)</text>
<text text-anchor="start" x="96" y="-371.4" font-family="Consolas" font-size="12.00">#</text>
<text text-anchor="start" x="108" y="-371.4" font-family="Consolas" font-size="12.00">virtual void OnDestroy()</text>
<text text-anchor="start" x="96" y="-354.4" font-family="Consolas" font-size="12.00">#</text>
<text text-anchor="start" x="108" y="-354.4" font-family="Consolas" font-size="12.00">void SetToolTipText()</text>
<polygon fill="#bfbfbf" stroke="#bfbfbf" points="92,-862 92,-862 323,-862 323,-862 92,-862"/>
<polygon fill="#bfbfbf" stroke="#bfbfbf" points="92,-713 92,-713 106,-713 106,-713 92,-713"/>
<polygon fill="#bfbfbf" stroke="#bfbfbf" points="106,-713 106,-713 323,-713 323,-713 106,-713"/>
<polygon fill="none" stroke="#bfbfbf" points="91.5,-347 91.5,-881 322.5,-881 322.5,-347 91.5,-347"/>
</a>
</g>
</g>
<!-- Node2&#45;&gt;Node1 -->
<g id="edge1_Node000001_Node000002" class="edge">
<title>Node2&#45;&gt;Node1</title>
<g id="a_edge1_Node000001_Node000002"><a xlink:title=" ">
<path fill="none" stroke="#63b8ff" d="M207,-336.68C207,-328.1 207,-319.61 207,-311.27"/>
<polygon fill="none" stroke="#63b8ff" points="203.5,-336.79 207,-346.79 210.5,-336.79 203.5,-336.79"/>
</a>
</g>
</g>
<!-- Node3 -->
<g id="Node000003" class="node">
<title>Node3</title>
<g id="a_Node000003"><a xlink:title=" ">
<polygon fill="white" stroke="transparent" points="108,-972 0,-972 0,-917 108,-917 108,-972"/>
<text text-anchor="start" x="5" y="-957.9" font-family="Consolas" font-size="12.00">MonoBehaviour</text>
<text text-anchor="start" x="50" y="-940.9" font-family="Consolas" font-size="12.00"> </text>
<text text-anchor="start" x="50" y="-923.9" font-family="Consolas" font-size="12.00"> </text>
<polygon fill="#bfbfbf" stroke="#bfbfbf" points="0,-952.5 0,-952.5 108,-952.5 108,-952.5 0,-952.5"/>
<polygon fill="#bfbfbf" stroke="#bfbfbf" points="0,-935.5 0,-935.5 108,-935.5 108,-935.5 0,-935.5"/>
<polygon fill="none" stroke="#bfbfbf" points="0,-917 0,-972 108,-972 108,-917 0,-917"/>
</a>
</g>
</g>
<!-- Node3&#45;&gt;Node2 -->
<g id="edge2_Node000002_Node000003" class="edge">
<title>Node3&#45;&gt;Node2</title>
<g id="a_edge2_Node000002_Node000003"><a xlink:title=" ">
<path fill="none" stroke="#63b8ff" d="M70.62,-907.82C76.47,-895.25 83.58,-880 91.43,-863.14"/>
<polygon fill="none" stroke="#63b8ff" points="67.44,-906.35 66.39,-916.9 73.79,-909.31 67.44,-906.35"/>
</a>
</g>
</g>
<!-- Node4 -->
<g id="Node000004" class="node">
<title>Node4</title>
<g id="a_Node000004"><a xlink:title=" ">
<polygon fill="white" stroke="transparent" points="287.5,-972 126.5,-972 126.5,-917 287.5,-917 287.5,-972"/>
<text text-anchor="start" x="132" y="-957.9" font-family="Consolas" font-size="12.00">IPointerEnterHandler</text>
<text text-anchor="start" x="203.5" y="-940.9" font-family="Consolas" font-size="12.00"> </text>
<text text-anchor="start" x="203.5" y="-923.9" font-family="Consolas" font-size="12.00"> </text>
<polygon fill="#bfbfbf" stroke="#bfbfbf" points="127,-952.5 127,-952.5 288,-952.5 288,-952.5 127,-952.5"/>
<polygon fill="#bfbfbf" stroke="#bfbfbf" points="127,-935.5 127,-935.5 288,-935.5 288,-935.5 127,-935.5"/>
<polygon fill="none" stroke="#bfbfbf" points="126.5,-917 126.5,-972 287.5,-972 287.5,-917 126.5,-917"/>
</a>
</g>
</g>
<!-- Node4&#45;&gt;Node2 -->
<g id="edge3_Node000002_Node000004" class="edge">
<title>Node4&#45;&gt;Node2</title>
<g id="a_edge3_Node000002_Node000004"><a xlink:title=" ">
<path fill="none" stroke="#63b8ff" d="M207,-906.74C207,-899.09 207,-890.48 207,-881.15"/>
<polygon fill="none" stroke="#63b8ff" points="203.5,-906.9 207,-916.9 210.5,-906.9 203.5,-906.9"/>
</a>
</g>
</g>
<!-- Node5 -->
<g id="Node000005" class="node">
<title>Node5</title>
<g id="a_Node000005"><a xlink:title=" ">
<polygon fill="white" stroke="transparent" points="458.5,-972 305.5,-972 305.5,-917 458.5,-917 458.5,-972"/>
<text text-anchor="start" x="311" y="-957.9" font-family="Consolas" font-size="12.00">IPointerExitHandler</text>
<text text-anchor="start" x="378.5" y="-940.9" font-family="Consolas" font-size="12.00"> </text>
<text text-anchor="start" x="378.5" y="-923.9" font-family="Consolas" font-size="12.00"> </text>
<polygon fill="#bfbfbf" stroke="#bfbfbf" points="306,-952.5 306,-952.5 459,-952.5 459,-952.5 306,-952.5"/>
<polygon fill="#bfbfbf" stroke="#bfbfbf" points="306,-935.5 306,-935.5 459,-935.5 459,-935.5 306,-935.5"/>
<polygon fill="none" stroke="#bfbfbf" points="305.5,-917 305.5,-972 458.5,-972 458.5,-917 305.5,-917"/>
</a>
</g>
</g>
<!-- Node5&#45;&gt;Node2 -->
<g id="edge4_Node000002_Node000005" class="edge">
<title>Node5&#45;&gt;Node2</title>
<g id="a_edge4_Node000002_Node000005"><a xlink:title=" ">
<path fill="none" stroke="#63b8ff" d="M363.05,-907.92C352.39,-887.93 338.12,-861.13 322.51,-831.84"/>
<polygon fill="none" stroke="#63b8ff" points="360.04,-909.72 367.83,-916.9 366.21,-906.42 360.04,-909.72"/>
</a>
</g>
</g>
</g>
</svg>

<g id="navigator" transform="translate(0 0)" fill="#404254">
  <rect fill="#f2f5e9" fill-opacity="0.5" stroke="#606060" stroke-width=".5" x="0" y="0" width="60" height="60"/>
  <use id="zoomplus" xlink:href="#zoomPlus" x="17" y="9" onmousedown="handleZoom(evt,'in')"/>
  <use id="zoomminus" xlink:href="#zoomMin" x="42" y="9" onmousedown="handleZoom(evt,'out')"/>
  <use id="reset" xlink:href="#resetDef" x="30" y="36" onmousedown="handleReset()"/>
   <use id="arrowup" xlink:href="#arrowUp" x="0" y="0" onmousedown="handlePan(0,-1)"/>
  <use id="arrowright" xlink:href="#arrowRight" x="0" y="0" onmousedown="handlePan(1,0)"/>
  <use id="arrowdown" xlink:href="#arrowDown" x="0" y="0" onmousedown="handlePan(0,1)"/>
  <use id="arrowleft" xlink:href="#arrowLeft" x="0" y="0" onmousedown="handlePan(-1,0)"/>
</g>
<svg viewBox="0 0 15 15" width="100%" height="30px" preserveAspectRatio="xMaxYMin meet">
 <g id="arrow_out" transform="scale(0.3 0.3)">
  <a xlink:href="classCrewInfoPanel__inherit__graph_org.svg" target="_base">
   <rect id="button" ry="5" rx="5" y="6" x="6" height="38" width="38"
        fill="#f2f5e9" fill-opacity="0.5" stroke="#606060" stroke-width="1.0"/>
   <path id="arrow"
     d="M 11.500037,31.436501 C 11.940474,20.09759 22.043105,11.32322 32.158766,21.979434 L 37.068811,17.246167 C 37.068811,17.246167 37.088388,32 37.088388,32 L 22.160133,31.978069 C 22.160133,31.978069 26.997745,27.140456 26.997745,27.140456 C 18.528582,18.264221 13.291696,25.230495 11.500037,31.436501 z"
     style="fill:#404040;"/>
  </a>
 </g>
</svg>

<style type='text/css'>
<![CDATA[
[data-mouse-over-selected='false'] { opacity: 0.7; }
[data-mouse-over-selected='true']  { opacity: 1.0; }
]]>
</style>
<script type="application/ecmascript"><![CDATA[
document.addEventListener('DOMContentLoaded', (event) => {
  highlightEdges();
  highlightAdjacentNodes();
});
]]></script>
</svg>
