<?xml version="1.0" encoding="UTF-8" standalone="no"?>
<!DOCTYPE svg PUBLIC "-//W3C//DTD SVG 1.1//EN"
 "http://www.w3.org/Graphics/SVG/1.1/DTD/svg11.dtd">
<!-- Generated by graphviz version 2.43.0 (0)
 -->
<!-- Title: RaceButtonController.SetHighlighted Pages: 1 -->
<!--zoomable 146 -->

<svg id="main" version="1.1" xmlns="http://www.w3.org/2000/svg" xmlns:xlink="http://www.w3.org/1999/xlink" xml:space="preserve" onload="init(evt)">
<style type="text/css"><![CDATA[
.node, .edge {opacity: 0.7;}
.node.selected, .edge.selected {opacity: 1;}
.edge:hover path { stroke: red; }
.edge:hover polygon { stroke: red; fill: red; }
]]></style>

<defs>
  <circle id="rim" cx="0" cy="0" r="7"/>
  <circle id="rim2" cx="0" cy="0" r="3.5"/>
  <g id="zoomPlus">
    <use xlink:href="#rim" fill="#404040"><set attributeName="fill" to="#808080" begin="zoomplus.mouseover" end="zoomplus.mouseout"/></use>
    <path d="M-4,0h8M0,-4v8" fill="none" stroke="white" stroke-width="1.5" pointer-events="none"/>
  </g>
  <g id="zoomMin">
    <use xlink:href="#rim" fill="#404040"><set attributeName="fill" to="#808080" begin="zoomminus.mouseover" end="zoomminus.mouseout"/></use>
    <path d="M-4,0h8" fill="none" stroke="white" stroke-width="1.5" pointer-events="none"/>
  </g>
  <g id="arrowUp" transform="translate(30 24)">
    <use xlink:href="#rim"/>
    <path pointer-events="none" fill="none" stroke="white" stroke-width="1.5" d="M0,-3.0v7 M-2.5,-0.5L0,-3.0L2.5,-0.5"/>
  </g>
  <g id="arrowRight" transform="rotate(90) translate(36 -43)">
    <use xlink:href="#rim"/>
    <path pointer-events="none" fill="none" stroke="white" stroke-width="1.5" d="M0,-3.0v7 M-2.5,-0.5L0,-3.0L2.5,-0.5"/>
  </g>
  <g id="arrowDown" transform="rotate(180) translate(-30 -48)">
    <use xlink:href="#rim"/>
    <path pointer-events="none" fill="none" stroke="white" stroke-width="1.5" d="M0,-3.0v7 M-2.5,-0.5L0,-3.0L2.5,-0.5"/>
  </g>
  <g id="arrowLeft" transform="rotate(270) translate(-36 17)">
    <use xlink:href="#rim"/>
    <path pointer-events="none" fill="none" stroke="white" stroke-width="1.5" d="M0,-3.0v7 M-2.5,-0.5L0,-3.0L2.5,-0.5"/>
  </g>
  <g id="resetDef">
    <use xlink:href="#rim2" fill="#404040"><set attributeName="fill" to="#808080" begin="reset.mouseover" end="reset.mouseout"/></use>
  </g>
</defs>
<script type="application/ecmascript">
var viewWidth = 768;
var viewHeight = 146;
var sectionId = 'dynsection-5';
</script>
<script type="application/ecmascript" xlink:href="svg.min.js"/>
<svg id="graph" class="graph">
<g id="viewport">
<title>RaceButtonController.SetHighlighted</title>
<!-- Node1 -->
<g id="Node000001" class="node">
<title>Node1</title>
<g id="a_Node000001"><a xlink:title="현재 버튼이 선택되었을 때(하이라이트)">
<polygon fill="#999999" stroke="#666666" points="760,-109 563,-109 563,-75 760,-75 760,-109"/>
<text text-anchor="start" x="571" y="-95.4" font-family="Consolas" font-size="12.00">RaceButtonController.Set</text>
<text text-anchor="middle" x="661.5" y="-82.4" font-family="Consolas" font-size="12.00">Highlighted</text>
</a>
</g>
</g>
<!-- Node2 -->
<g id="Node000002" class="node">
<title>Node2</title>
<g id="a_Node000002"><a xlink:href="classCrewUIHandler.html#a836663b4d3ffe30f66baaeac349a35cc" target="_top" xlink:title="종족 선택하는 버튼 클릭 시 호출">
<polygon fill="white" stroke="#666666" points="508.5,-135 296.5,-135 296.5,-101 508.5,-101 508.5,-135"/>
<text text-anchor="start" x="304.5" y="-121.4" font-family="Consolas" font-size="12.00">CrewUIHandler.OnRaceButton</text>
<text text-anchor="middle" x="402.5" y="-108.4" font-family="Consolas" font-size="12.00">Clicked</text>
</a>
</g>
</g>
<!-- Node1&#45;&gt;Node2 -->
<g id="edge1_Node000001_Node000002" class="edge">
<title>Node1&#45;&gt;Node2</title>
<g id="a_edge1_Node000001_Node000002"><a xlink:title=" ">
<path fill="none" stroke="#63b8ff" d="M552.91,-102.88C538.27,-104.37 523.27,-105.88 508.68,-107.36"/>
<polygon fill="#63b8ff" stroke="#63b8ff" points="553.38,-106.36 562.97,-101.87 552.67,-99.39 553.38,-106.36"/>
</a>
</g>
</g>
<!-- Node4 -->
<g id="Node000004" class="node">
<title>Node4</title>
<g id="a_Node000004"><a xlink:href="classCrewUIHandler.html#ae1dc75523a6a216baa0f0705209d3b31" target="_top" xlink:title="선원 생성 시 UI 초기화">
<polygon fill="white" stroke="#666666" points="527,-79.5 278,-79.5 278,-58.5 527,-58.5 527,-79.5"/>
<text text-anchor="middle" x="402.5" y="-65.9" font-family="Consolas" font-size="12.00">CrewUIHandler.ResetCrewCreateUI</text>
</a>
</g>
</g>
<!-- Node1&#45;&gt;Node4 -->
<g id="edge3_Node000001_Node000004" class="edge">
<title>Node1&#45;&gt;Node4</title>
<g id="a_edge3_Node000001_Node000004"><a xlink:title=" ">
<path fill="none" stroke="#63b8ff" d="M552.99,-82.38C542.51,-81.44 531.83,-80.49 521.26,-79.54"/>
<polygon fill="#63b8ff" stroke="#63b8ff" points="552.7,-85.87 562.97,-83.27 553.32,-78.89 552.7,-85.87"/>
</a>
</g>
</g>
<!-- Node3 -->
<g id="Node000003" class="node">
<title>Node3</title>
<g id="a_Node000003"><a xlink:href="classRaceButtonController.html#ac5a97be35fbb20a2f0e12e6ca9f4c283" target="_top" xlink:title="버튼 클릭">
<polygon fill="white" stroke="#666666" points="242,-138 0,-138 0,-104 242,-104 242,-138"/>
<text text-anchor="start" x="8" y="-124.4" font-family="Consolas" font-size="12.00">RaceButtonController.OnPointer</text>
<text text-anchor="middle" x="121" y="-111.4" font-family="Consolas" font-size="12.00">Click</text>
</a>
</g>
</g>
<!-- Node2&#45;&gt;Node3 -->
<g id="edge2_Node000002_Node000003" class="edge">
<title>Node2&#45;&gt;Node3</title>
<g id="a_edge2_Node000002_Node000003"><a xlink:title=" ">
<path fill="none" stroke="#63b8ff" d="M285.81,-119.24C271.41,-119.4 256.66,-119.55 242.19,-119.71"/>
<polygon fill="#63b8ff" stroke="#63b8ff" points="286.27,-122.74 296.23,-119.13 286.19,-115.74 286.27,-122.74"/>
</a>
</g>
</g>
<!-- Node5 -->
<g id="Node000005" class="node">
<title>Node5</title>
<g id="a_Node000005"><a xlink:href="classCrewUIHandler.html#a25fe54aa5427f0bcdc856b95714bfd34" target="_top" xlink:title="선원 추가를 위한 UI로 이동 버튼 클릭 시 호출">
<polygon fill="white" stroke="#666666" points="234.5,-86 7.5,-86 7.5,-52 234.5,-52 234.5,-86"/>
<text text-anchor="start" x="15.5" y="-72.4" font-family="Consolas" font-size="12.00">CrewUIHandler.OnCreateButton</text>
<text text-anchor="middle" x="121" y="-59.4" font-family="Consolas" font-size="12.00">Clicked</text>
</a>
</g>
</g>
<!-- Node4&#45;&gt;Node5 -->
<g id="edge4_Node000004_Node000005" class="edge">
<title>Node4&#45;&gt;Node5</title>
<g id="a_edge4_Node000004_Node000005"><a xlink:title=" ">
<path fill="none" stroke="#63b8ff" d="M267.6,-69C256.58,-69 245.52,-69 234.69,-69"/>
<polygon fill="#63b8ff" stroke="#63b8ff" points="267.69,-72.5 277.69,-69 267.69,-65.5 267.69,-72.5"/>
</a>
</g>
</g>
<!-- Node6 -->
<g id="Node000006" class="node">
<title>Node6</title>
<g id="a_Node000006"><a xlink:href="classCrewUIHandler.html#a22bad1caab3c0a3183de081a6257d08b" target="_top" xlink:title="선원 정보 입력 후 실제 생성하는 버튼 클릭 시 호출">
<polygon fill="white" stroke="#666666" points="234.5,-34 7.5,-34 7.5,0 234.5,0 234.5,-34"/>
<text text-anchor="start" x="15.5" y="-20.4" font-family="Consolas" font-size="12.00">CrewUIHandler.OnSubmitButton</text>
<text text-anchor="middle" x="121" y="-7.4" font-family="Consolas" font-size="12.00">Clicked</text>
</a>
</g>
</g>
<!-- Node4&#45;&gt;Node6 -->
<g id="edge5_Node000004_Node000006" class="edge">
<title>Node4&#45;&gt;Node6</title>
<g id="a_edge5_Node000004_Node000006"><a xlink:title=" ">
<path fill="none" stroke="#63b8ff" d="M334.94,-56.62C298.6,-49.86 253.05,-41.38 213.41,-34.01"/>
<polygon fill="#63b8ff" stroke="#63b8ff" points="334.47,-60.09 344.94,-58.48 335.75,-53.21 334.47,-60.09"/>
</a>
</g>
</g>
</g>
</svg>

<g id="navigator" transform="translate(0 0)" fill="#404254">
  <rect fill="#f2f5e9" fill-opacity="0.5" stroke="#606060" stroke-width=".5" x="0" y="0" width="60" height="60"/>
  <use id="zoomplus" xlink:href="#zoomPlus" x="17" y="9" onmousedown="handleZoom(evt,'in')"/>
  <use id="zoomminus" xlink:href="#zoomMin" x="42" y="9" onmousedown="handleZoom(evt,'out')"/>
  <use id="reset" xlink:href="#resetDef" x="30" y="36" onmousedown="handleReset()"/>
   <use id="arrowup" xlink:href="#arrowUp" x="0" y="0" onmousedown="handlePan(0,-1)"/>
  <use id="arrowright" xlink:href="#arrowRight" x="0" y="0" onmousedown="handlePan(1,0)"/>
  <use id="arrowdown" xlink:href="#arrowDown" x="0" y="0" onmousedown="handlePan(0,1)"/>
  <use id="arrowleft" xlink:href="#arrowLeft" x="0" y="0" onmousedown="handlePan(-1,0)"/>
</g>
<svg viewBox="0 0 15 15" width="100%" height="30px" preserveAspectRatio="xMaxYMin meet">
 <g id="arrow_out" transform="scale(0.3 0.3)">
  <a xlink:href="classRaceButtonController_accdf9f43b1ab621a795a98af3ad97ba7_icgraph_org.svg" target="_base">
   <rect id="button" ry="5" rx="5" y="6" x="6" height="38" width="38"
        fill="#f2f5e9" fill-opacity="0.5" stroke="#606060" stroke-width="1.0"/>
   <path id="arrow"
     d="M 11.500037,31.436501 C 11.940474,20.09759 22.043105,11.32322 32.158766,21.979434 L 37.068811,17.246167 C 37.068811,17.246167 37.088388,32 37.088388,32 L 22.160133,31.978069 C 22.160133,31.978069 26.997745,27.140456 26.997745,27.140456 C 18.528582,18.264221 13.291696,25.230495 11.500037,31.436501 z"
     style="fill:#404040;"/>
  </a>
 </g>
</svg>

<style type='text/css'>
<![CDATA[
[data-mouse-over-selected='false'] { opacity: 0.7; }
[data-mouse-over-selected='true']  { opacity: 1.0; }
]]>
</style>
<script type="application/ecmascript"><![CDATA[
document.addEventListener('DOMContentLoaded', (event) => {
  highlightEdges();
  highlightAdjacentNodes();
});
]]></script>
</svg>
