<?xml version="1.0" encoding="UTF-8" standalone="no"?>
<!DOCTYPE svg PUBLIC "-//W3C//DTD SVG 1.1//EN"
 "http://www.w3.org/Graphics/SVG/1.1/DTD/svg11.dtd">
<!-- Generated by graphviz version 2.43.0 (0)
 -->
<!-- Title: InventoryItemUI Pages: 1 -->
<svg width="646pt" height="773pt"
 viewBox="0.00 0.00 645.50 773.00" xmlns="http://www.w3.org/2000/svg" xmlns:xlink="http://www.w3.org/1999/xlink">
<g id="graph0" class="graph" transform="scale(1 1) rotate(0) translate(4 769)">
<title>InventoryItemUI</title>
<!-- Node1 -->
<g id="Node000001" class="node">
<title>Node1</title>
<g id="a_Node000001"><a xlink:title="InventoryItemUI는 인벤토리 항목의 정보를 UI로 표시하고 마우스 입력에 따라 하이라이트 및 선택 기능을 수행합니다.">
<polygon fill="#999999" stroke="transparent" points="420.5,-674 167.5,-674 167.5,0 420.5,0 420.5,-674"/>
<text text-anchor="start" x="238" y="-660.4" font-family="Consolas" font-size="12.00">InventoryItemUI</text>
<text text-anchor="start" x="172" y="-643.4" font-family="Consolas" font-size="12.00">+</text>
<text text-anchor="start" x="184" y="-643.4" font-family="Consolas" font-size="12.00">bool isInteractable</text>
<text text-anchor="start" x="172" y="-626.4" font-family="Consolas" font-size="12.00">+</text>
<text text-anchor="start" x="184" y="-626.4" font-family="Consolas" font-size="12.00">static string currentlySelected</text>
<text text-anchor="start" x="184" y="-613.4" font-family="Consolas" font-size="12.00">ItemName</text>
<text text-anchor="start" x="172" y="-596.4" font-family="Consolas" font-size="12.00">&#45;</text>
<text text-anchor="start" x="184" y="-596.4" font-family="Consolas" font-size="12.00">Image itemShapeImage</text>
<text text-anchor="start" x="172" y="-579.4" font-family="Consolas" font-size="12.00">&#45;</text>
<text text-anchor="start" x="184" y="-579.4" font-family="Consolas" font-size="12.00">List&lt; Sprite &gt; itemShape</text>
<text text-anchor="start" x="184" y="-566.4" font-family="Consolas" font-size="12.00">Sprites</text>
<text text-anchor="start" x="172" y="-549.4" font-family="Consolas" font-size="12.00">&#45;</text>
<text text-anchor="start" x="184" y="-549.4" font-family="Consolas" font-size="12.00">Image itemImage</text>
<text text-anchor="start" x="172" y="-532.4" font-family="Consolas" font-size="12.00">&#45;</text>
<text text-anchor="start" x="184" y="-532.4" font-family="Consolas" font-size="12.00">TextMeshProUGUI itemNameText</text>
<text text-anchor="start" x="172" y="-515.4" font-family="Consolas" font-size="12.00">&#45;</text>
<text text-anchor="start" x="184" y="-515.4" font-family="Consolas" font-size="12.00">TextMeshProUGUI categoryText</text>
<text text-anchor="start" x="172" y="-498.4" font-family="Consolas" font-size="12.00">&#45;</text>
<text text-anchor="start" x="184" y="-498.4" font-family="Consolas" font-size="12.00">TextMeshProUGUI quantityText</text>
<text text-anchor="start" x="172" y="-481.4" font-family="Consolas" font-size="12.00">&#45;</text>
<text text-anchor="start" x="184" y="-481.4" font-family="Consolas" font-size="12.00">TextMeshProUGUI priceText</text>
<text text-anchor="start" x="172" y="-464.4" font-family="Consolas" font-size="12.00">&#45;</text>
<text text-anchor="start" x="184" y="-464.4" font-family="Consolas" font-size="12.00">MiddlePanelUI middlePanel</text>
<text text-anchor="start" x="172" y="-447.4" font-family="Consolas" font-size="12.00">&#45;</text>
<text text-anchor="start" x="184" y="-447.4" font-family="Consolas" font-size="12.00">TradingItemData currentItemData</text>
<text text-anchor="start" x="172" y="-430.4" font-family="Consolas" font-size="12.00">&#45;</text>
<text text-anchor="start" x="184" y="-430.4" font-family="Consolas" font-size="12.00">int currentQuantity</text>
<text text-anchor="start" x="172" y="-413.4" font-family="Consolas" font-size="12.00">&#45;</text>
<text text-anchor="start" x="184" y="-413.4" font-family="Consolas" font-size="12.00">float currentPurchasePrice</text>
<text text-anchor="start" x="172" y="-396.4" font-family="Consolas" font-size="12.00">&#45;</text>
<text text-anchor="start" x="184" y="-396.4" font-family="Consolas" font-size="12.00">bool isSelected</text>
<text text-anchor="start" x="172" y="-379.4" font-family="Consolas" font-size="12.00">&#45;</text>
<text text-anchor="start" x="184" y="-379.4" font-family="Consolas" font-size="12.00">Color highlightColor</text>
<text text-anchor="start" x="172" y="-362.4" font-family="Consolas" font-size="12.00">&#45;</text>
<text text-anchor="start" x="184" y="-362.4" font-family="Consolas" font-size="12.00">Color itemNameOriginalColor</text>
<text text-anchor="start" x="172" y="-345.4" font-family="Consolas" font-size="12.00">&#45;</text>
<text text-anchor="start" x="184" y="-345.4" font-family="Consolas" font-size="12.00">Color priceOriginalColor</text>
<text text-anchor="start" x="172" y="-328.4" font-family="Consolas" font-size="12.00">&#45;</text>
<text text-anchor="start" x="184" y="-328.4" font-family="Consolas" font-size="12.00">Color quantityOriginalColor</text>
<text text-anchor="start" x="172" y="-311.4" font-family="Consolas" font-size="12.00">&#45;</text>
<text text-anchor="start" x="184" y="-311.4" font-family="Consolas" font-size="12.00">Color categoryOriginalColor</text>
<text text-anchor="start" x="172" y="-294.4" font-family="Consolas" font-size="12.00">&#45;</text>
<text text-anchor="start" x="184" y="-294.4" font-family="Consolas" font-size="12.00">static InventoryItemUI</text>
<text text-anchor="start" x="184" y="-281.4" font-family="Consolas" font-size="12.00"> _currentSelectedItem</text>
<text text-anchor="start" x="172" y="-264.4" font-family="Consolas" font-size="12.00">+</text>
<text text-anchor="start" x="184" y="-264.4" font-family="Consolas" font-size="12.00">void Setup(TradingItemData</text>
<text text-anchor="start" x="184" y="-251.4" font-family="Consolas" font-size="12.00"> itemData, int quantity,</text>
<text text-anchor="start" x="184" y="-238.4" font-family="Consolas" font-size="12.00"> float purchasePrice)</text>
<text text-anchor="start" x="172" y="-221.4" font-family="Consolas" font-size="12.00">+</text>
<text text-anchor="start" x="184" y="-221.4" font-family="Consolas" font-size="12.00">string GetStoredItemName()</text>
<text text-anchor="start" x="172" y="-204.4" font-family="Consolas" font-size="12.00">+</text>
<text text-anchor="start" x="184" y="-204.4" font-family="Consolas" font-size="12.00">void OnPointerEnter</text>
<text text-anchor="start" x="184" y="-191.4" font-family="Consolas" font-size="12.00">(PointerEventData eventData)</text>
<text text-anchor="start" x="172" y="-174.4" font-family="Consolas" font-size="12.00">+</text>
<text text-anchor="start" x="184" y="-174.4" font-family="Consolas" font-size="12.00">void OnPointerExit</text>
<text text-anchor="start" x="184" y="-161.4" font-family="Consolas" font-size="12.00">(PointerEventData eventData)</text>
<text text-anchor="start" x="172" y="-144.4" font-family="Consolas" font-size="12.00">+</text>
<text text-anchor="start" x="184" y="-144.4" font-family="Consolas" font-size="12.00">void OnPointerClick</text>
<text text-anchor="start" x="184" y="-131.4" font-family="Consolas" font-size="12.00">(PointerEventData eventData)</text>
<text text-anchor="start" x="172" y="-114.4" font-family="Consolas" font-size="12.00">+</text>
<text text-anchor="start" x="184" y="-114.4" font-family="Consolas" font-size="12.00">void SetSelected(bool</text>
<text text-anchor="start" x="184" y="-101.4" font-family="Consolas" font-size="12.00"> selected)</text>
<text text-anchor="start" x="172" y="-84.4" font-family="Consolas" font-size="12.00">+</text>
<text text-anchor="start" x="184" y="-84.4" font-family="Consolas" font-size="12.00">TradingItemData GetItemData()</text>
<text text-anchor="start" x="172" y="-67.4" font-family="Consolas" font-size="12.00">+</text>
<text text-anchor="start" x="184" y="-67.4" font-family="Consolas" font-size="12.00">int GetQuantity()</text>
<text text-anchor="start" x="172" y="-50.4" font-family="Consolas" font-size="12.00">+</text>
<text text-anchor="start" x="184" y="-50.4" font-family="Consolas" font-size="12.00">static InventoryItemUI</text>
<text text-anchor="start" x="184" y="-37.4" font-family="Consolas" font-size="12.00"> GetCurrentSelectedItem()</text>
<text text-anchor="start" x="172" y="-20.4" font-family="Consolas" font-size="12.00">&#45;</text>
<text text-anchor="start" x="184" y="-20.4" font-family="Consolas" font-size="12.00">void ApplyColor(Color</text>
<text text-anchor="start" x="184" y="-7.4" font-family="Consolas" font-size="12.00"> targetColor)</text>
<polygon fill="#666666" stroke="#666666" points="168,-655 168,-655 421,-655 421,-655 168,-655"/>
<polygon fill="#666666" stroke="#666666" points="168,-276 168,-276 182,-276 182,-276 168,-276"/>
<polygon fill="#666666" stroke="#666666" points="182,-276 182,-276 421,-276 421,-276 182,-276"/>
<polygon fill="none" stroke="#666666" points="167.5,0 167.5,-674 420.5,-674 420.5,0 167.5,0"/>
</a>
</g>
</g>
<!-- Node2 -->
<g id="Node000002" class="node">
<title>Node2</title>
<g id="a_Node000002"><a xlink:title=" ">
<polygon fill="white" stroke="transparent" points="108,-765 0,-765 0,-710 108,-710 108,-765"/>
<text text-anchor="start" x="5" y="-750.9" font-family="Consolas" font-size="12.00">MonoBehaviour</text>
<text text-anchor="start" x="50" y="-733.9" font-family="Consolas" font-size="12.00"> </text>
<text text-anchor="start" x="50" y="-716.9" font-family="Consolas" font-size="12.00"> </text>
<polygon fill="#bfbfbf" stroke="#bfbfbf" points="0,-745.5 0,-745.5 108,-745.5 108,-745.5 0,-745.5"/>
<polygon fill="#bfbfbf" stroke="#bfbfbf" points="0,-728.5 0,-728.5 108,-728.5 108,-728.5 0,-728.5"/>
<polygon fill="none" stroke="#bfbfbf" points="0,-710 0,-765 108,-765 108,-710 0,-710"/>
</a>
</g>
</g>
<!-- Node2&#45;&gt;Node1 -->
<g id="edge1_Node000001_Node000002" class="edge">
<title>Node2&#45;&gt;Node1</title>
<g id="a_edge1_Node000001_Node000002"><a xlink:title=" ">
<path fill="none" stroke="#63b8ff" d="M75.54,-700.74C96.98,-665.14 131.72,-607.45 167.26,-548.44"/>
<polygon fill="none" stroke="#63b8ff" points="72.28,-699.36 70.12,-709.73 78.28,-702.97 72.28,-699.36"/>
</a>
</g>
</g>
<!-- Node3 -->
<g id="Node000003" class="node">
<title>Node3</title>
<g id="a_Node000003"><a xlink:title=" ">
<polygon fill="white" stroke="transparent" points="287.5,-765 126.5,-765 126.5,-710 287.5,-710 287.5,-765"/>
<text text-anchor="start" x="132" y="-750.9" font-family="Consolas" font-size="12.00">IPointerEnterHandler</text>
<text text-anchor="start" x="203.5" y="-733.9" font-family="Consolas" font-size="12.00"> </text>
<text text-anchor="start" x="203.5" y="-716.9" font-family="Consolas" font-size="12.00"> </text>
<polygon fill="#bfbfbf" stroke="#bfbfbf" points="127,-745.5 127,-745.5 288,-745.5 288,-745.5 127,-745.5"/>
<polygon fill="#bfbfbf" stroke="#bfbfbf" points="127,-728.5 127,-728.5 288,-728.5 288,-728.5 127,-728.5"/>
<polygon fill="none" stroke="#bfbfbf" points="126.5,-710 126.5,-765 287.5,-765 287.5,-710 126.5,-710"/>
</a>
</g>
</g>
<!-- Node3&#45;&gt;Node1 -->
<g id="edge2_Node000001_Node000003" class="edge">
<title>Node3&#45;&gt;Node1</title>
<g id="a_edge2_Node000001_Node000003"><a xlink:title=" ">
<path fill="none" stroke="#63b8ff" d="M214.99,-699.92C216.66,-692.25 218.55,-683.58 220.62,-674.11"/>
<polygon fill="none" stroke="#63b8ff" points="211.56,-699.22 212.84,-709.73 218.4,-700.71 211.56,-699.22"/>
</a>
</g>
</g>
<!-- Node4 -->
<g id="Node000004" class="node">
<title>Node4</title>
<g id="a_Node000004"><a xlink:title=" ">
<polygon fill="white" stroke="transparent" points="458.5,-765 305.5,-765 305.5,-710 458.5,-710 458.5,-765"/>
<text text-anchor="start" x="311" y="-750.9" font-family="Consolas" font-size="12.00">IPointerExitHandler</text>
<text text-anchor="start" x="378.5" y="-733.9" font-family="Consolas" font-size="12.00"> </text>
<text text-anchor="start" x="378.5" y="-716.9" font-family="Consolas" font-size="12.00"> </text>
<polygon fill="#bfbfbf" stroke="#bfbfbf" points="306,-745.5 306,-745.5 459,-745.5 459,-745.5 306,-745.5"/>
<polygon fill="#bfbfbf" stroke="#bfbfbf" points="306,-728.5 306,-728.5 459,-728.5 459,-728.5 306,-728.5"/>
<polygon fill="none" stroke="#bfbfbf" points="305.5,-710 305.5,-765 458.5,-765 458.5,-710 305.5,-710"/>
</a>
</g>
</g>
<!-- Node4&#45;&gt;Node1 -->
<g id="edge3_Node000001_Node000004" class="edge">
<title>Node4&#45;&gt;Node1</title>
<g id="a_edge3_Node000001_Node000004"><a xlink:title=" ">
<path fill="none" stroke="#63b8ff" d="M373.92,-699.92C372.23,-692.25 370.31,-683.58 368.22,-674.11"/>
<polygon fill="none" stroke="#63b8ff" points="370.52,-700.72 376.09,-709.73 377.35,-699.22 370.52,-700.72"/>
</a>
</g>
</g>
<!-- Node5 -->
<g id="Node000005" class="node">
<title>Node5</title>
<g id="a_Node000005"><a xlink:title=" ">
<polygon fill="white" stroke="transparent" points="637.5,-765 476.5,-765 476.5,-710 637.5,-710 637.5,-765"/>
<text text-anchor="start" x="482" y="-750.9" font-family="Consolas" font-size="12.00">IPointerClickHandler</text>
<text text-anchor="start" x="553.5" y="-733.9" font-family="Consolas" font-size="12.00"> </text>
<text text-anchor="start" x="553.5" y="-716.9" font-family="Consolas" font-size="12.00"> </text>
<polygon fill="#bfbfbf" stroke="#bfbfbf" points="477,-745.5 477,-745.5 638,-745.5 638,-745.5 477,-745.5"/>
<polygon fill="#bfbfbf" stroke="#bfbfbf" points="477,-728.5 477,-728.5 638,-728.5 638,-728.5 477,-728.5"/>
<polygon fill="none" stroke="#bfbfbf" points="476.5,-710 476.5,-765 637.5,-765 637.5,-710 476.5,-710"/>
</a>
</g>
</g>
<!-- Node5&#45;&gt;Node1 -->
<g id="edge4_Node000001_Node000005" class="edge">
<title>Node5&#45;&gt;Node1</title>
<g id="a_edge4_Node000001_Node000005"><a xlink:title=" ">
<path fill="none" stroke="#63b8ff" d="M533.77,-701.31C507.86,-662.04 463.85,-595.36 420.56,-529.77"/>
<polygon fill="none" stroke="#63b8ff" points="530.91,-703.32 539.34,-709.73 536.75,-699.46 530.91,-703.32"/>
</a>
</g>
</g>
</g>
</svg>
