<?xml version="1.0" encoding="UTF-8" standalone="no"?>
<!DOCTYPE svg PUBLIC "-//W3C//DTD SVG 1.1//EN"
 "http://www.w3.org/Graphics/SVG/1.1/DTD/svg11.dtd">
<!-- Generated by graphviz version 2.43.0 (0)
 -->
<!-- Title: MiddlePanelUI Pages: 1 -->
<svg width="254pt" height="487pt"
 viewBox="0.00 0.00 254.00 487.00" xmlns="http://www.w3.org/2000/svg" xmlns:xlink="http://www.w3.org/1999/xlink">
<g id="graph0" class="graph" transform="scale(1 1) rotate(0) translate(4 483)">
<title>MiddlePanelUI</title>
<!-- Node1 -->
<g id="Node000001" class="node">
<title>Node1</title>
<g id="a_Node000001"><a xlink:title="MiddlePanelUI는 중간 패널의 UI를 관리하며, 선택된 아이템의 상세 정보와 거래(구매, 판매) 기능을 제공합니다.">
<polygon fill="#999999" stroke="transparent" points="246,-388 0,-388 0,0 246,0 246,-388"/>
<text text-anchor="start" x="74" y="-374.4" font-family="Consolas" font-size="12.00">MiddlePanelUI</text>
<text text-anchor="start" x="4" y="-357.4" font-family="Consolas" font-size="12.00">&#45;</text>
<text text-anchor="start" x="16" y="-357.4" font-family="Consolas" font-size="12.00">TextMeshProUGUI selected</text>
<text text-anchor="start" x="16" y="-344.4" font-family="Consolas" font-size="12.00">ItemNameText</text>
<text text-anchor="start" x="4" y="-327.4" font-family="Consolas" font-size="12.00">&#45;</text>
<text text-anchor="start" x="16" y="-327.4" font-family="Consolas" font-size="12.00">TextMeshProUGUI selected</text>
<text text-anchor="start" x="16" y="-314.4" font-family="Consolas" font-size="12.00">ItemDescriptionText</text>
<text text-anchor="start" x="4" y="-297.4" font-family="Consolas" font-size="12.00">&#45;</text>
<text text-anchor="start" x="16" y="-297.4" font-family="Consolas" font-size="12.00">TextMeshProUGUI priceText</text>
<text text-anchor="start" x="4" y="-280.4" font-family="Consolas" font-size="12.00">&#45;</text>
<text text-anchor="start" x="16" y="-280.4" font-family="Consolas" font-size="12.00">TMP_InputField tradeNumInput</text>
<text text-anchor="start" x="16" y="-267.4" font-family="Consolas" font-size="12.00">Field</text>
<text text-anchor="start" x="4" y="-250.4" font-family="Consolas" font-size="12.00">&#45;</text>
<text text-anchor="start" x="16" y="-250.4" font-family="Consolas" font-size="12.00">Button buyButton</text>
<text text-anchor="start" x="4" y="-233.4" font-family="Consolas" font-size="12.00">&#45;</text>
<text text-anchor="start" x="16" y="-233.4" font-family="Consolas" font-size="12.00">Button sellButton</text>
<text text-anchor="start" x="4" y="-216.4" font-family="Consolas" font-size="12.00">&#45;</text>
<text text-anchor="start" x="16" y="-216.4" font-family="Consolas" font-size="12.00">Image itemShapeImage</text>
<text text-anchor="start" x="4" y="-199.4" font-family="Consolas" font-size="12.00">&#45;</text>
<text text-anchor="start" x="16" y="-199.4" font-family="Consolas" font-size="12.00">List&lt; Sprite &gt; itemShape</text>
<text text-anchor="start" x="16" y="-186.4" font-family="Consolas" font-size="12.00">Sprites</text>
<text text-anchor="start" x="4" y="-169.4" font-family="Consolas" font-size="12.00">&#45;</text>
<text text-anchor="start" x="16" y="-169.4" font-family="Consolas" font-size="12.00">TextMeshProUGUI playerCOMAText</text>
<text text-anchor="start" x="4" y="-152.4" font-family="Consolas" font-size="12.00">&#45;</text>
<text text-anchor="start" x="16" y="-152.4" font-family="Consolas" font-size="12.00">TradingItemData selected</text>
<text text-anchor="start" x="16" y="-139.4" font-family="Consolas" font-size="12.00">ItemData</text>
<text text-anchor="start" x="4" y="-122.4" font-family="Consolas" font-size="12.00">&#45;</text>
<text text-anchor="start" x="16" y="-122.4" font-family="Consolas" font-size="12.00">TradeManager tradeManager</text>
<text text-anchor="start" x="4" y="-105.4" font-family="Consolas" font-size="12.00">+</text>
<text text-anchor="start" x="16" y="-105.4" font-family="Consolas" font-size="12.00">void SetSelectedItem</text>
<text text-anchor="start" x="16" y="-92.4" font-family="Consolas" font-size="12.00">(TradingItemData itemData)</text>
<text text-anchor="start" x="4" y="-75.4" font-family="Consolas" font-size="12.00">+</text>
<text text-anchor="start" x="16" y="-75.4" font-family="Consolas" font-size="12.00">void UpdatePlayerComa()</text>
<text text-anchor="start" x="4" y="-58.4" font-family="Consolas" font-size="12.00">&#45;</text>
<text text-anchor="start" x="16" y="-58.4" font-family="Consolas" font-size="12.00">void Awake()</text>
<text text-anchor="start" x="4" y="-41.4" font-family="Consolas" font-size="12.00">&#45;</text>
<text text-anchor="start" x="16" y="-41.4" font-family="Consolas" font-size="12.00">void Start()</text>
<text text-anchor="start" x="4" y="-24.4" font-family="Consolas" font-size="12.00">&#45;</text>
<text text-anchor="start" x="16" y="-24.4" font-family="Consolas" font-size="12.00">void OnBuyClicked()</text>
<text text-anchor="start" x="4" y="-7.4" font-family="Consolas" font-size="12.00">&#45;</text>
<text text-anchor="start" x="16" y="-7.4" font-family="Consolas" font-size="12.00">void OnSellClicked()</text>
<polygon fill="#666666" stroke="#666666" points="0,-369 0,-369 246,-369 246,-369 0,-369"/>
<polygon fill="#666666" stroke="#666666" points="0,-117 0,-117 14,-117 14,-117 0,-117"/>
<polygon fill="#666666" stroke="#666666" points="14,-117 14,-117 246,-117 246,-117 14,-117"/>
<polygon fill="none" stroke="#666666" points="0,0 0,-388 246,-388 246,0 0,0"/>
</a>
</g>
</g>
<!-- Node2 -->
<g id="Node000002" class="node">
<title>Node2</title>
<g id="a_Node000002"><a xlink:title=" ">
<polygon fill="white" stroke="transparent" points="177,-479 69,-479 69,-424 177,-424 177,-479"/>
<text text-anchor="start" x="74" y="-464.9" font-family="Consolas" font-size="12.00">MonoBehaviour</text>
<text text-anchor="start" x="119" y="-447.9" font-family="Consolas" font-size="12.00"> </text>
<text text-anchor="start" x="119" y="-430.9" font-family="Consolas" font-size="12.00"> </text>
<polygon fill="#bfbfbf" stroke="#bfbfbf" points="69,-459.5 69,-459.5 177,-459.5 177,-459.5 69,-459.5"/>
<polygon fill="#bfbfbf" stroke="#bfbfbf" points="69,-442.5 69,-442.5 177,-442.5 177,-442.5 69,-442.5"/>
<polygon fill="none" stroke="#bfbfbf" points="69,-424 69,-479 177,-479 177,-424 69,-424"/>
</a>
</g>
</g>
<!-- Node2&#45;&gt;Node1 -->
<g id="edge1_Node000001_Node000002" class="edge">
<title>Node2&#45;&gt;Node1</title>
<g id="a_edge1_Node000001_Node000002"><a xlink:title=" ">
<path fill="none" stroke="#63b8ff" d="M123,-413.44C123,-405.78 123,-397.23 123,-388.06"/>
<polygon fill="none" stroke="#63b8ff" points="119.5,-413.64 123,-423.64 126.5,-413.64 119.5,-413.64"/>
</a>
</g>
</g>
</g>
</svg>
