<?xml version="1.0" encoding="UTF-8" standalone="no"?>
<!DOCTYPE svg PUBLIC "-//W3C//DTD SVG 1.1//EN"
 "http://www.w3.org/Graphics/SVG/1.1/DTD/svg11.dtd">
<!-- Generated by graphviz version 2.43.0 (0)
 -->
<!-- Title: OuterHullSystem.ReduceDamage Pages: 1 -->
<!--zoomable 263 -->

<svg id="main" version="1.1" xmlns="http://www.w3.org/2000/svg" xmlns:xlink="http://www.w3.org/1999/xlink" xml:space="preserve" onload="init(evt)">
<style type="text/css"><![CDATA[
.node, .edge {opacity: 0.7;}
.node.selected, .edge.selected {opacity: 1;}
.edge:hover path { stroke: red; }
.edge:hover polygon { stroke: red; fill: red; }
]]></style>

<defs>
  <circle id="rim" cx="0" cy="0" r="7"/>
  <circle id="rim2" cx="0" cy="0" r="3.5"/>
  <g id="zoomPlus">
    <use xlink:href="#rim" fill="#404040"><set attributeName="fill" to="#808080" begin="zoomplus.mouseover" end="zoomplus.mouseout"/></use>
    <path d="M-4,0h8M0,-4v8" fill="none" stroke="white" stroke-width="1.5" pointer-events="none"/>
  </g>
  <g id="zoomMin">
    <use xlink:href="#rim" fill="#404040"><set attributeName="fill" to="#808080" begin="zoomminus.mouseover" end="zoomminus.mouseout"/></use>
    <path d="M-4,0h8" fill="none" stroke="white" stroke-width="1.5" pointer-events="none"/>
  </g>
  <g id="arrowUp" transform="translate(30 24)">
    <use xlink:href="#rim"/>
    <path pointer-events="none" fill="none" stroke="white" stroke-width="1.5" d="M0,-3.0v7 M-2.5,-0.5L0,-3.0L2.5,-0.5"/>
  </g>
  <g id="arrowRight" transform="rotate(90) translate(36 -43)">
    <use xlink:href="#rim"/>
    <path pointer-events="none" fill="none" stroke="white" stroke-width="1.5" d="M0,-3.0v7 M-2.5,-0.5L0,-3.0L2.5,-0.5"/>
  </g>
  <g id="arrowDown" transform="rotate(180) translate(-30 -48)">
    <use xlink:href="#rim"/>
    <path pointer-events="none" fill="none" stroke="white" stroke-width="1.5" d="M0,-3.0v7 M-2.5,-0.5L0,-3.0L2.5,-0.5"/>
  </g>
  <g id="arrowLeft" transform="rotate(270) translate(-36 17)">
    <use xlink:href="#rim"/>
    <path pointer-events="none" fill="none" stroke="white" stroke-width="1.5" d="M0,-3.0v7 M-2.5,-0.5L0,-3.0L2.5,-0.5"/>
  </g>
  <g id="resetDef">
    <use xlink:href="#rim2" fill="#404040"><set attributeName="fill" to="#808080" begin="reset.mouseover" end="reset.mouseout"/></use>
  </g>
</defs>
<script type="application/ecmascript">
var viewWidth = 1474;
var viewHeight = 263;
var sectionId = 'dynsection-7';
</script>
<script type="application/ecmascript" xlink:href="svg.min.js"/>
<svg id="graph" class="graph">
<g id="viewport">
<title>OuterHullSystem.ReduceDamage</title>
<!-- Node1 -->
<g id="Node000001" class="node">
<title>Node1</title>
<g id="a_Node000001"><a xlink:title="외부 선체의 피해 감소율을 적용하여 실질적인 피해량을 계산합니다.">
<polygon fill="#999999" stroke="#666666" points="1466,-135.5 1239,-135.5 1239,-114.5 1466,-114.5 1466,-135.5"/>
<text text-anchor="middle" x="1352.5" y="-121.9" font-family="Consolas" font-size="12.00">OuterHullSystem.ReduceDamage</text>
</a>
</g>
</g>
<!-- Node2 -->
<g id="Node000002" class="node">
<title>Node2</title>
<g id="a_Node000002"><a xlink:href="classShip.html#a8f64cf8910e4b5d5f08382a0128860ef" target="_top" xlink:title="무기 및 외부 방어 시스템을 포함한 실제 피해 계산 및 적용을 수행합니다.">
<polygon fill="white" stroke="#666666" points="1203,-135.5 1074,-135.5 1074,-114.5 1203,-114.5 1203,-135.5"/>
<text text-anchor="middle" x="1138.5" y="-121.9" font-family="Consolas" font-size="12.00">Ship.TakeAttack</text>
</a>
</g>
</g>
<!-- Node1&#45;&gt;Node2 -->
<g id="edge1_Node000001_Node000002" class="edge">
<title>Node1&#45;&gt;Node2</title>
<g id="a_edge1_Node000001_Node000002"><a xlink:title=" ">
<path fill="none" stroke="#63b8ff" d="M1228.94,-125C1220.1,-125 1211.41,-125 1203.13,-125"/>
<polygon fill="#63b8ff" stroke="#63b8ff" points="1228.98,-128.5 1238.98,-125 1228.98,-121.5 1228.98,-128.5"/>
</a>
</g>
</g>
<!-- Node3 -->
<g id="Node000003" class="node">
<title>Node3</title>
<g id="a_Node000003"><a xlink:href="classShipWeapon.html#a5c800bb1a7dc07c7f60e36ff30acc817" target="_top" xlink:title="투사체가 목표에 도달했을 때 호출">
<polygon fill="white" stroke="#666666" points="1038,-135.5 826,-135.5 826,-114.5 1038,-114.5 1038,-135.5"/>
<text text-anchor="middle" x="932" y="-121.9" font-family="Consolas" font-size="12.00">ShipWeapon.OnProjectileHit</text>
</a>
</g>
</g>
<!-- Node2&#45;&gt;Node3 -->
<g id="edge2_Node000002_Node000003" class="edge">
<title>Node2&#45;&gt;Node3</title>
<g id="a_edge2_Node000002_Node000003"><a xlink:title=" ">
<path fill="none" stroke="#63b8ff" d="M1063.88,-125C1055.53,-125 1046.9,-125 1038.24,-125"/>
<polygon fill="#63b8ff" stroke="#63b8ff" points="1063.92,-128.5 1073.92,-125 1063.92,-121.5 1063.92,-128.5"/>
</a>
</g>
</g>
<!-- Node4 -->
<g id="Node000004" class="node">
<title>Node4</title>
<g id="a_Node000004"><a xlink:href="classShipWeapon.html#a988ecbbbe6152ece7f3651236ed9b0d8" target="_top" xlink:title="무기 발사 실행">
<polygon fill="white" stroke="#666666" points="790,-135.5 661,-135.5 661,-114.5 790,-114.5 790,-135.5"/>
<text text-anchor="middle" x="725.5" y="-121.9" font-family="Consolas" font-size="12.00">ShipWeapon.Fire</text>
</a>
</g>
</g>
<!-- Node3&#45;&gt;Node4 -->
<g id="edge3_Node000003_Node000004" class="edge">
<title>Node3&#45;&gt;Node4</title>
<g id="a_edge3_Node000003_Node000004"><a xlink:title=" ">
<path fill="none" stroke="#63b8ff" d="M815.54,-125C806.88,-125 798.35,-125 790.2,-125"/>
<polygon fill="#63b8ff" stroke="#63b8ff" points="815.75,-128.5 825.75,-125 815.75,-121.5 815.75,-128.5"/>
</a>
</g>
</g>
<!-- Node5 -->
<g id="Node000005" class="node">
<title>Node5</title>
<g id="a_Node000005"><a xlink:href="classShipWeapon.html#ae07871ba8eadcce6c4042e3f988980a6" target="_top" xlink:title="무기 발사 시도">
<polygon fill="white" stroke="#666666" points="625,-135.5 473,-135.5 473,-114.5 625,-114.5 625,-135.5"/>
<text text-anchor="middle" x="549" y="-121.9" font-family="Consolas" font-size="12.00">ShipWeapon.TryFire</text>
</a>
</g>
</g>
<!-- Node4&#45;&gt;Node5 -->
<g id="edge4_Node000004_Node000005" class="edge">
<title>Node4&#45;&gt;Node5</title>
<g id="a_edge4_Node000004_Node000005"><a xlink:title=" ">
<path fill="none" stroke="#63b8ff" d="M650.44,-125C642.09,-125 633.58,-125 625.22,-125"/>
<polygon fill="#63b8ff" stroke="#63b8ff" points="650.51,-128.5 660.51,-125 650.51,-121.5 650.51,-128.5"/>
</a>
</g>
</g>
<!-- Node6 -->
<g id="Node000006" class="node">
<title>Node6</title>
<g id="a_Node000006"><a xlink:href="classWeaponSystem.html#a73e0b9a0da5d4c185a14d7e8e2410650" target="_top" xlink:title="준비된 모든 무기를 발사합니다.">
<polygon fill="white" stroke="#666666" points="433,-255 229,-255 229,-221 433,-221 433,-255"/>
<text text-anchor="start" x="237" y="-241.4" font-family="Consolas" font-size="12.00">WeaponSystem.FireAllReady</text>
<text text-anchor="middle" x="331" y="-228.4" font-family="Consolas" font-size="12.00">Weapons</text>
</a>
</g>
</g>
<!-- Node5&#45;&gt;Node6 -->
<g id="edge5_Node000005_Node000006" class="edge">
<title>Node5&#45;&gt;Node6</title>
<g id="a_edge5_Node000005_Node000006"><a xlink:title=" ">
<path fill="none" stroke="#63b8ff" d="M529.01,-142.31C507.93,-160.7 472.22,-189.48 437,-207 426.11,-212.42 414.1,-217.07 402.22,-220.99"/>
<polygon fill="#63b8ff" stroke="#63b8ff" points="531.43,-144.84 536.59,-135.59 526.78,-139.6 531.43,-144.84"/>
</a>
</g>
</g>
<!-- Node7 -->
<g id="Node000007" class="node">
<title>Node7</title>
<g id="a_Node000007"><a xlink:href="classWeaponSystem.html#a266a34e53065779bd5f92db175dcb5f3" target="_top" xlink:title="준비된 무기가 있는지 확인하고 발사를 시도합니다.">
<polygon fill="white" stroke="#666666" points="189,-225.5 0,-225.5 0,-204.5 189,-204.5 189,-225.5"/>
<text text-anchor="middle" x="94.5" y="-211.9" font-family="Consolas" font-size="12.00">WeaponSystem.FireWeapon</text>
</a>
</g>
</g>
<!-- Node5&#45;&gt;Node7 -->
<g id="edge7_Node000005_Node000007" class="edge">
<title>Node5&#45;&gt;Node7</title>
<g id="a_edge7_Node000005_Node000007"><a xlink:title=" ">
<path fill="none" stroke="#63b8ff" d="M519.53,-140.39C497.6,-151.53 466.2,-165.99 437,-174 355.08,-196.46 258.76,-206.62 189.33,-211.21"/>
<polygon fill="#63b8ff" stroke="#63b8ff" points="521.33,-143.4 528.6,-135.69 518.11,-137.18 521.33,-143.4"/>
</a>
</g>
</g>
<!-- Node8 -->
<g id="Node000008" class="node">
<title>Node8</title>
<g id="a_Node000008"><a xlink:href="classWeaponSystem.html#a8bbbcfefb2cf3cacb7abc79900ab1cfd" target="_top" xlink:title="특정 타입의 무기만 발사합니다.">
<polygon fill="white" stroke="#666666" points="429.5,-165 232.5,-165 232.5,-131 429.5,-131 429.5,-165"/>
<text text-anchor="start" x="240.5" y="-151.4" font-family="Consolas" font-size="12.00">WeaponSystem.FireWeapons</text>
<text text-anchor="middle" x="331" y="-138.4" font-family="Consolas" font-size="12.00">ByType</text>
</a>
</g>
</g>
<!-- Node5&#45;&gt;Node8 -->
<g id="edge8_Node000005_Node000008" class="edge">
<title>Node5&#45;&gt;Node8</title>
<g id="a_edge8_Node000005_Node000008"><a xlink:title=" ">
<path fill="none" stroke="#63b8ff" d="M462.55,-134.1C451.78,-135.25 440.7,-136.42 429.77,-137.59"/>
<polygon fill="#63b8ff" stroke="#63b8ff" points="463.18,-137.55 472.76,-133.01 462.44,-130.59 463.18,-137.55"/>
</a>
</g>
</g>
<!-- Node9 -->
<g id="Node000009" class="node">
<title>Node9</title>
<g id="a_Node000009"><a xlink:href="classShipWeapon.html#a5921a06b1952c0802dd2e06fdb7bc4dd" target="_top" xlink:title="쿨다운 완료 시 자동 발사 시도">
<polygon fill="white" stroke="#666666" points="422,-112.5 240,-112.5 240,-91.5 422,-91.5 422,-112.5"/>
<text text-anchor="middle" x="331" y="-98.9" font-family="Consolas" font-size="12.00">ShipWeapon.TryAutoFire</text>
</a>
</g>
</g>
<!-- Node5&#45;&gt;Node9 -->
<g id="edge9_Node000005_Node000009" class="edge">
<title>Node5&#45;&gt;Node9</title>
<g id="a_edge9_Node000005_Node000009"><a xlink:title=" ">
<path fill="none" stroke="#63b8ff" d="M462.69,-115.92C449.39,-114.5 435.61,-113.03 422.2,-111.6"/>
<polygon fill="#63b8ff" stroke="#63b8ff" points="462.44,-119.41 472.76,-116.99 463.18,-112.45 462.44,-119.41"/>
</a>
</g>
</g>
<!-- Node10 -->
<g id="Node000010" class="node">
<title>Node10</title>
<g id="a_Node000010"><a xlink:href="classWeaponSystem.html#a4664bc232783de0d119664f701436a6b" target="_top" xlink:title="매 프레임마다 호출되어 각 무기의 쿨다운 상태를 업데이트합니다.">
<polygon fill="white" stroke="#666666" points="410.5,-73.5 251.5,-73.5 251.5,-52.5 410.5,-52.5 410.5,-73.5"/>
<text text-anchor="middle" x="331" y="-59.9" font-family="Consolas" font-size="12.00">WeaponSystem.Update</text>
</a>
</g>
</g>
<!-- Node5&#45;&gt;Node10 -->
<g id="edge10_Node000005_Node000010" class="edge">
<title>Node5&#45;&gt;Node10</title>
<g id="a_edge10_Node000005_Node000010"><a xlink:title=" ">
<path fill="none" stroke="#63b8ff" d="M515.18,-110.38C493.38,-101.15 463.91,-89.57 437,-82 425.41,-78.74 412.93,-75.91 400.77,-73.5"/>
<polygon fill="#63b8ff" stroke="#63b8ff" points="514.06,-113.71 524.63,-114.44 516.82,-107.28 514.06,-113.71"/>
</a>
</g>
</g>
<!-- Node12 -->
<g id="Node000012" class="node">
<title>Node12</title>
<g id="a_Node000012"><a xlink:href="classWeaponFrameFunction.html#a380506c0cc2e11a7eb7de9a1495f1057" target="_top" xlink:title="weapon panel frame에 정보를 갱신하여 다시 그린다. 만약 전원 상태가 Auto라면 게이지가 꽉 찼을 때 자동발사한다.">
<polygon fill="white" stroke="#666666" points="437,-34 225,-34 225,0 437,0 437,-34"/>
<text text-anchor="start" x="233" y="-20.4" font-family="Consolas" font-size="12.00">WeaponFrameFunction.Update</text>
<text text-anchor="middle" x="331" y="-7.4" font-family="Consolas" font-size="12.00">WeaponPanel</text>
</a>
</g>
</g>
<!-- Node5&#45;&gt;Node12 -->
<g id="edge12_Node000005_Node000012" class="edge">
<title>Node5&#45;&gt;Node12</title>
<g id="a_edge12_Node000005_Node000012"><a xlink:title=" ">
<path fill="none" stroke="#63b8ff" d="M529.49,-107.69C508.58,-89.05 472.79,-59.83 437,-43 429.78,-39.6 422.06,-36.62 414.21,-34"/>
<polygon fill="#63b8ff" stroke="#63b8ff" points="527.23,-110.37 536.99,-114.49 531.94,-105.18 527.23,-110.37"/>
</a>
</g>
</g>
<!-- Node6&#45;&gt;Node7 -->
<g id="edge6_Node000006_Node000007" class="edge">
<title>Node6&#45;&gt;Node7</title>
<g id="a_edge6_Node000006_Node000007"><a xlink:title=" ">
<path fill="none" stroke="#63b8ff" d="M218.64,-227.08C208.82,-226.11 198.94,-225.15 189.28,-224.2"/>
<polygon fill="#63b8ff" stroke="#63b8ff" points="218.56,-230.59 228.85,-228.08 219.24,-223.62 218.56,-230.59"/>
</a>
</g>
</g>
<!-- Node11 -->
<g id="Node000011" class="node">
<title>Node11</title>
<g id="a_Node000011"><a xlink:href="classShip.html#a6ab0aaf28782b38d9c80bf19e652f46c" target="_top" xlink:title="게임 시작 시 호출되며, 테스트 룸 배치 및 시스템 초기화를 수행합니다.">
<polygon fill="white" stroke="#666666" points="144,-73.5 45,-73.5 45,-52.5 144,-52.5 144,-73.5"/>
<text text-anchor="middle" x="94.5" y="-59.9" font-family="Consolas" font-size="12.00">Ship.Update</text>
</a>
</g>
</g>
<!-- Node10&#45;&gt;Node11 -->
<g id="edge11_Node000010_Node000011" class="edge">
<title>Node10&#45;&gt;Node11</title>
<g id="a_edge11_Node000010_Node000011"><a xlink:title=" ">
<path fill="none" stroke="#63b8ff" d="M241.18,-63C208.33,-63 172.31,-63 144.31,-63"/>
<polygon fill="#63b8ff" stroke="#63b8ff" points="241.26,-66.5 251.26,-63 241.26,-59.5 241.26,-66.5"/>
</a>
</g>
</g>
</g>
</svg>

<g id="navigator" transform="translate(0 0)" fill="#404254">
  <rect fill="#f2f5e9" fill-opacity="0.5" stroke="#606060" stroke-width=".5" x="0" y="0" width="60" height="60"/>
  <use id="zoomplus" xlink:href="#zoomPlus" x="17" y="9" onmousedown="handleZoom(evt,'in')"/>
  <use id="zoomminus" xlink:href="#zoomMin" x="42" y="9" onmousedown="handleZoom(evt,'out')"/>
  <use id="reset" xlink:href="#resetDef" x="30" y="36" onmousedown="handleReset()"/>
   <use id="arrowup" xlink:href="#arrowUp" x="0" y="0" onmousedown="handlePan(0,-1)"/>
  <use id="arrowright" xlink:href="#arrowRight" x="0" y="0" onmousedown="handlePan(1,0)"/>
  <use id="arrowdown" xlink:href="#arrowDown" x="0" y="0" onmousedown="handlePan(0,1)"/>
  <use id="arrowleft" xlink:href="#arrowLeft" x="0" y="0" onmousedown="handlePan(-1,0)"/>
</g>
<svg viewBox="0 0 15 15" width="100%" height="30px" preserveAspectRatio="xMaxYMin meet">
 <g id="arrow_out" transform="scale(0.3 0.3)">
  <a xlink:href="classOuterHullSystem_a546cc38872f4b8e97bb31c84214e0d5d_icgraph_org.svg" target="_base">
   <rect id="button" ry="5" rx="5" y="6" x="6" height="38" width="38"
        fill="#f2f5e9" fill-opacity="0.5" stroke="#606060" stroke-width="1.0"/>
   <path id="arrow"
     d="M 11.500037,31.436501 C 11.940474,20.09759 22.043105,11.32322 32.158766,21.979434 L 37.068811,17.246167 C 37.068811,17.246167 37.088388,32 37.088388,32 L 22.160133,31.978069 C 22.160133,31.978069 26.997745,27.140456 26.997745,27.140456 C 18.528582,18.264221 13.291696,25.230495 11.500037,31.436501 z"
     style="fill:#404040;"/>
  </a>
 </g>
</svg>

<style type='text/css'>
<![CDATA[
[data-mouse-over-selected='false'] { opacity: 0.7; }
[data-mouse-over-selected='true']  { opacity: 1.0; }
]]>
</style>
<script type="application/ecmascript"><![CDATA[
document.addEventListener('DOMContentLoaded', (event) => {
  highlightEdges();
  highlightAdjacentNodes();
});
]]></script>
</svg>
