<?xml version="1.0" encoding="UTF-8" standalone="no"?>
<!DOCTYPE svg PUBLIC "-//W3C//DTD SVG 1.1//EN"
 "http://www.w3.org/Graphics/SVG/1.1/DTD/svg11.dtd">
<!-- Generated by graphviz version 2.43.0 (0)
 -->
<!-- Title: EnemyShipFactory Pages: 1 -->
<svg width="396pt" height="648pt"
 viewBox="0.00 0.00 396.00 648.00" xmlns="http://www.w3.org/2000/svg" xmlns:xlink="http://www.w3.org/1999/xlink">
<g id="graph0" class="graph" transform="scale(1 1) rotate(0) translate(4 644)">
<title>EnemyShipFactory</title>
<!-- Node1 -->
<g id="Node000001" class="node">
<title>Node1</title>
<g id="a_Node000001"><a xlink:title="템플릿을 기반으로 해적선을 생성하는 유틸리티 클래스">
<polygon fill="#999999" stroke="transparent" points="268,-356 0,-356 0,0 268,0 268,-356"/>
<text text-anchor="start" x="73.5" y="-342.4" font-family="Consolas" font-size="12.00">EnemyShipFactory</text>
<text text-anchor="start" x="130" y="-325.4" font-family="Consolas" font-size="12.00"> </text>
<text text-anchor="start" x="4" y="-308.4" font-family="Consolas" font-size="12.00">+</text>
<text text-anchor="start" x="16" y="-308.4" font-family="Consolas" font-size="12.00">Ship SpawnPirateShip</text>
<text text-anchor="start" x="16" y="-295.4" font-family="Consolas" font-size="12.00">(string templateName,</text>
<text text-anchor="start" x="16" y="-282.4" font-family="Consolas" font-size="12.00"> Vector2Int position=new())</text>
<text text-anchor="start" x="4" y="-265.4" font-family="Consolas" font-size="12.00">&#45;</text>
<text text-anchor="start" x="16" y="-265.4" font-family="Consolas" font-size="12.00">Ship FindShipByName</text>
<text text-anchor="start" x="16" y="-252.4" font-family="Consolas" font-size="12.00">(string shipName)</text>
<text text-anchor="start" x="4" y="-235.4" font-family="Consolas" font-size="12.00">&#45;</text>
<text text-anchor="start" x="16" y="-235.4" font-family="Consolas" font-size="12.00">Ship CreateDefaultShip</text>
<text text-anchor="start" x="16" y="-222.4" font-family="Consolas" font-size="12.00">(EnemyShipTemplate template,</text>
<text text-anchor="start" x="16" y="-209.4" font-family="Consolas" font-size="12.00"> Vector2Int position)</text>
<text text-anchor="start" x="4" y="-192.4" font-family="Consolas" font-size="12.00">&#45;</text>
<text text-anchor="start" x="16" y="-192.4" font-family="Consolas" font-size="12.00">void ApplyDefaultShipSettings</text>
<text text-anchor="start" x="16" y="-179.4" font-family="Consolas" font-size="12.00">(Ship ship)</text>
<text text-anchor="start" x="4" y="-162.4" font-family="Consolas" font-size="12.00">&#45;</text>
<text text-anchor="start" x="16" y="-162.4" font-family="Consolas" font-size="12.00">static void GeneratePirate</text>
<text text-anchor="start" x="16" y="-149.4" font-family="Consolas" font-size="12.00">Crew(Ship ship, EnemyShipTemplate</text>
<text text-anchor="start" x="16" y="-136.4" font-family="Consolas" font-size="12.00"> template)</text>
<text text-anchor="start" x="4" y="-119.4" font-family="Consolas" font-size="12.00">&#45;</text>
<text text-anchor="start" x="16" y="-119.4" font-family="Consolas" font-size="12.00">static CrewRace SelectRace</text>
<text text-anchor="start" x="16" y="-106.4" font-family="Consolas" font-size="12.00">(List&lt; CrewRaceOption &gt;</text>
<text text-anchor="start" x="16" y="-93.4" font-family="Consolas" font-size="12.00"> options, List&lt; CrewRace</text>
<text text-anchor="start" x="16" y="-80.4" font-family="Consolas" font-size="12.00"> &gt; usedRaces)</text>
<text text-anchor="start" x="4" y="-63.4" font-family="Consolas" font-size="12.00">&#45;</text>
<text text-anchor="start" x="16" y="-63.4" font-family="Consolas" font-size="12.00">static CrewRace Weighted</text>
<text text-anchor="start" x="16" y="-50.4" font-family="Consolas" font-size="12.00">RandomRace(List&lt; CrewRaceOption</text>
<text text-anchor="start" x="16" y="-37.4" font-family="Consolas" font-size="12.00"> &gt; options)</text>
<text text-anchor="start" x="4" y="-20.4" font-family="Consolas" font-size="12.00">&#45;</text>
<text text-anchor="start" x="16" y="-20.4" font-family="Consolas" font-size="12.00">static string GeneratePirate</text>
<text text-anchor="start" x="16" y="-7.4" font-family="Consolas" font-size="12.00">Name(CrewRace race)</text>
<polygon fill="#666666" stroke="#666666" points="0,-337 0,-337 268,-337 268,-337 0,-337"/>
<polygon fill="#666666" stroke="#666666" points="0,-320 0,-320 268,-320 268,-320 0,-320"/>
<polygon fill="none" stroke="#666666" points="0,0 0,-356 268,-356 268,0 0,0"/>
</a>
</g>
</g>
<!-- Node2 -->
<g id="Node000002" class="node">
<title>Node2</title>
<g id="a_Node000002"><a xlink:title=" ">
<polygon fill="white" stroke="transparent" points="132,-505 24,-505 24,-450 132,-450 132,-505"/>
<text text-anchor="start" x="29" y="-490.9" font-family="Consolas" font-size="12.00">MonoBehaviour</text>
<text text-anchor="start" x="74" y="-473.9" font-family="Consolas" font-size="12.00"> </text>
<text text-anchor="start" x="74" y="-456.9" font-family="Consolas" font-size="12.00"> </text>
<polygon fill="#bfbfbf" stroke="#bfbfbf" points="24,-485.5 24,-485.5 132,-485.5 132,-485.5 24,-485.5"/>
<polygon fill="#bfbfbf" stroke="#bfbfbf" points="24,-468.5 24,-468.5 132,-468.5 132,-468.5 24,-468.5"/>
<polygon fill="none" stroke="#bfbfbf" points="24,-450 24,-505 132,-505 132,-450 24,-450"/>
</a>
</g>
</g>
<!-- Node2&#45;&gt;Node1 -->
<g id="edge1_Node000001_Node000002" class="edge">
<title>Node2&#45;&gt;Node1</title>
<g id="a_edge1_Node000001_Node000002"><a xlink:title=" ">
<path fill="none" stroke="#63b8ff" d="M84.88,-439.95C89.04,-417.85 94.69,-387.85 100.67,-356.06"/>
<polygon fill="none" stroke="#63b8ff" points="81.43,-439.36 83.02,-449.84 88.31,-440.66 81.43,-439.36"/>
</a>
</g>
</g>
<!-- Node3 -->
<g id="Node000003" class="node">
<title>Node3</title>
<g id="a_Node000003"><a xlink:href="classEnemyShipDatabase.html" target="_top" xlink:title=" ">
<polygon fill="white" stroke="transparent" points="388,-548 150,-548 150,-407 388,-407 388,-548"/>
<text text-anchor="start" x="205" y="-533.9" font-family="Consolas" font-size="12.00">EnemyShipDatabase</text>
<text text-anchor="start" x="154" y="-516.9" font-family="Consolas" font-size="12.00">+</text>
<text text-anchor="start" x="166" y="-516.9" font-family="Consolas" font-size="12.00">List&lt; EnemyShipTemplate</text>
<text text-anchor="start" x="166" y="-503.9" font-family="Consolas" font-size="12.00"> &gt; allShips</text>
<text text-anchor="start" x="154" y="-486.9" font-family="Consolas" font-size="12.00">&#45;</text>
<text text-anchor="start" x="166" y="-486.9" font-family="Consolas" font-size="12.00">Dictionary&lt; string,</text>
<text text-anchor="start" x="166" y="-473.9" font-family="Consolas" font-size="12.00"> EnemyShipTemplate &gt;</text>
<text text-anchor="start" x="166" y="-460.9" font-family="Consolas" font-size="12.00"> shipDictionary</text>
<text text-anchor="start" x="154" y="-443.9" font-family="Consolas" font-size="12.00">+</text>
<text text-anchor="start" x="166" y="-443.9" font-family="Consolas" font-size="12.00">void InitializeDictionary()</text>
<text text-anchor="start" x="154" y="-426.9" font-family="Consolas" font-size="12.00">+</text>
<text text-anchor="start" x="166" y="-426.9" font-family="Consolas" font-size="12.00">EnemyShipTemplate GetShip</text>
<text text-anchor="start" x="166" y="-413.9" font-family="Consolas" font-size="12.00">Template(string templateName)</text>
<polygon fill="#bfbfbf" stroke="#bfbfbf" points="150,-528.5 150,-528.5 388,-528.5 388,-528.5 150,-528.5"/>
<polygon fill="#bfbfbf" stroke="#bfbfbf" points="150,-455.5 150,-455.5 164,-455.5 164,-455.5 150,-455.5"/>
<polygon fill="#bfbfbf" stroke="#bfbfbf" points="164,-455.5 164,-455.5 388,-455.5 388,-455.5 164,-455.5"/>
<polygon fill="none" stroke="#bfbfbf" points="150,-407 150,-548 388,-548 388,-407 150,-407"/>
</a>
</g>
</g>
<!-- Node3&#45;&gt;Node1 -->
<g id="edge2_Node000001_Node000003" class="edge">
<title>Node3&#45;&gt;Node1</title>
<g id="a_edge2_Node000001_Node000003"><a xlink:title=" ">
<path fill="none" stroke="#63b8ff" d="M237.35,-406.75C231.75,-394.42 225.69,-381.07 219.41,-367.22"/>
<polygon fill="none" stroke="#63b8ff" points="219.29,-366.95 213.17,-363.14 214.33,-356.02 220.45,-359.83 219.29,-366.95"/>
</a>
</g>
<text text-anchor="middle" x="287" y="-377.8" font-family="Consolas" font-size="14.00" fill="grey"> &#45;shipDatabase</text>
</g>
<!-- Node4 -->
<g id="Node000004" class="node">
<title>Node4</title>
<g id="a_Node000004"><a xlink:title=" ">
<polygon fill="white" stroke="transparent" points="334.5,-640 203.5,-640 203.5,-585 334.5,-585 334.5,-640"/>
<text text-anchor="start" x="209" y="-625.9" font-family="Consolas" font-size="12.00">ScriptableObject</text>
<text text-anchor="start" x="265.5" y="-608.9" font-family="Consolas" font-size="12.00"> </text>
<text text-anchor="start" x="265.5" y="-591.9" font-family="Consolas" font-size="12.00"> </text>
<polygon fill="#bfbfbf" stroke="#bfbfbf" points="204,-620.5 204,-620.5 335,-620.5 335,-620.5 204,-620.5"/>
<polygon fill="#bfbfbf" stroke="#bfbfbf" points="204,-603.5 204,-603.5 335,-603.5 335,-603.5 204,-603.5"/>
<polygon fill="none" stroke="#bfbfbf" points="203.5,-585 203.5,-640 334.5,-640 334.5,-585 203.5,-585"/>
</a>
</g>
</g>
<!-- Node4&#45;&gt;Node3 -->
<g id="edge3_Node000003_Node000004" class="edge">
<title>Node4&#45;&gt;Node3</title>
<g id="a_edge3_Node000003_Node000004"><a xlink:title=" ">
<path fill="none" stroke="#63b8ff" d="M269,-574.79C269,-566.42 269,-557.26 269,-548.03"/>
<polygon fill="none" stroke="#63b8ff" points="265.5,-574.91 269,-584.91 272.5,-574.91 265.5,-574.91"/>
</a>
</g>
</g>
</g>
</svg>
