<?xml version="1.0" encoding="UTF-8" standalone="no"?>
<!DOCTYPE svg PUBLIC "-//W3C//DTD SVG 1.1//EN"
 "http://www.w3.org/Graphics/SVG/1.1/DTD/svg11.dtd">
<!-- Generated by graphviz version 2.43.0 (0)
 -->
<!-- Title: ShipCustomizationManager Pages: 1 -->
<svg width="306pt" height="590pt"
 viewBox="0.00 0.00 306.00 590.00" xmlns="http://www.w3.org/2000/svg" xmlns:xlink="http://www.w3.org/1999/xlink">
<g id="graph0" class="graph" transform="scale(1 1) rotate(0) translate(4 586)">
<title>ShipCustomizationManager</title>
<!-- Node1 -->
<g id="Node000001" class="node">
<title>Node1</title>
<g id="a_Node000001"><a xlink:title=" ">
<polygon fill="#999999" stroke="transparent" points="298,-491 0,-491 0,0 298,0 298,-491"/>
<text text-anchor="start" x="58.5" y="-476.9" font-family="Consolas" font-size="12.00">ShipCustomizationManager</text>
<text text-anchor="start" x="4" y="-459.9" font-family="Consolas" font-size="12.00">+</text>
<text text-anchor="start" x="16" y="-459.9" font-family="Consolas" font-size="12.00">float cellSize</text>
<text text-anchor="start" x="4" y="-442.9" font-family="Consolas" font-size="12.00">+</text>
<text text-anchor="start" x="16" y="-442.9" font-family="Consolas" font-size="12.00">Vector2 gridMin</text>
<text text-anchor="start" x="4" y="-425.9" font-family="Consolas" font-size="12.00">+</text>
<text text-anchor="start" x="16" y="-425.9" font-family="Consolas" font-size="12.00">Vector2 gridMax</text>
<text text-anchor="start" x="4" y="-408.9" font-family="Consolas" font-size="12.00">+</text>
<text text-anchor="start" x="16" y="-408.9" font-family="Consolas" font-size="12.00">GameObject corridorPrefab</text>
<text text-anchor="start" x="4" y="-391.9" font-family="Consolas" font-size="12.00">+</text>
<text text-anchor="start" x="16" y="-391.9" font-family="Consolas" font-size="12.00">GameObject doorPrefab</text>
<text text-anchor="start" x="4" y="-374.9" font-family="Consolas" font-size="12.00">+</text>
<text text-anchor="start" x="16" y="-374.9" font-family="Consolas" font-size="12.00">Transform modulesContainer</text>
<text text-anchor="start" x="4" y="-357.9" font-family="Consolas" font-size="12.00">+</text>
<text text-anchor="start" x="16" y="-357.9" font-family="Consolas" font-size="12.00">int currency</text>
<text text-anchor="start" x="4" y="-340.9" font-family="Consolas" font-size="12.00">+</text>
<text text-anchor="start" x="16" y="-340.9" font-family="Consolas" font-size="12.00">int corridorCost</text>
<text text-anchor="start" x="4" y="-323.9" font-family="Consolas" font-size="12.00">+</text>
<text text-anchor="start" x="16" y="-323.9" font-family="Consolas" font-size="12.00">int doorCost</text>
<text text-anchor="start" x="4" y="-306.9" font-family="Consolas" font-size="12.00">+</text>
<text text-anchor="start" x="16" y="-306.9" font-family="Consolas" font-size="12.00">Dictionary&lt; Vector2Int,</text>
<text text-anchor="start" x="16" y="-293.9" font-family="Consolas" font-size="12.00"> GameObject &gt; PlacedModules</text>
<text text-anchor="start" x="4" y="-276.9" font-family="Consolas" font-size="12.00">&#45;</text>
<text text-anchor="start" x="16" y="-276.9" font-family="Consolas" font-size="12.00">Dictionary&lt; Vector2Int,</text>
<text text-anchor="start" x="16" y="-263.9" font-family="Consolas" font-size="12.00"> GameObject &gt; placedModules</text>
<text text-anchor="start" x="4" y="-246.9" font-family="Consolas" font-size="12.00">+</text>
<text text-anchor="start" x="16" y="-246.9" font-family="Consolas" font-size="12.00">bool PlaceModule(GameObject</text>
<text text-anchor="start" x="16" y="-233.9" font-family="Consolas" font-size="12.00"> modulePrefab, Vector2 worldPosition)</text>
<text text-anchor="start" x="4" y="-216.9" font-family="Consolas" font-size="12.00">+</text>
<text text-anchor="start" x="16" y="-216.9" font-family="Consolas" font-size="12.00">bool RemoveModule(Vector2</text>
<text text-anchor="start" x="16" y="-203.9" font-family="Consolas" font-size="12.00"> worldPosition)</text>
<text text-anchor="start" x="4" y="-186.9" font-family="Consolas" font-size="12.00">+</text>
<text text-anchor="start" x="16" y="-186.9" font-family="Consolas" font-size="12.00">void ClearAllModules()</text>
<text text-anchor="start" x="4" y="-169.9" font-family="Consolas" font-size="12.00">+</text>
<text text-anchor="start" x="16" y="-169.9" font-family="Consolas" font-size="12.00">void PlaceSavedRoom</text>
<text text-anchor="start" x="16" y="-156.9" font-family="Consolas" font-size="12.00">(Room savedRoom)</text>
<text text-anchor="start" x="4" y="-139.9" font-family="Consolas" font-size="12.00">&#45;</text>
<text text-anchor="start" x="16" y="-139.9" font-family="Consolas" font-size="12.00">Vector2Int SnapToGrid</text>
<text text-anchor="start" x="16" y="-126.9" font-family="Consolas" font-size="12.00">(Vector2 position)</text>
<text text-anchor="start" x="4" y="-109.9" font-family="Consolas" font-size="12.00">&#45;</text>
<text text-anchor="start" x="16" y="-109.9" font-family="Consolas" font-size="12.00">Vector3 GridCenter</text>
<text text-anchor="start" x="16" y="-96.9" font-family="Consolas" font-size="12.00">(Vector2Int gridPos)</text>
<text text-anchor="start" x="4" y="-79.9" font-family="Consolas" font-size="12.00">&#45;</text>
<text text-anchor="start" x="16" y="-79.9" font-family="Consolas" font-size="12.00">bool IsWithinGrid(Vector2</text>
<text text-anchor="start" x="16" y="-66.9" font-family="Consolas" font-size="12.00">Int gridPos)</text>
<text text-anchor="start" x="4" y="-49.9" font-family="Consolas" font-size="12.00">&#45;</text>
<text text-anchor="start" x="16" y="-49.9" font-family="Consolas" font-size="12.00">int GetModuleCost(GameObject</text>
<text text-anchor="start" x="16" y="-36.9" font-family="Consolas" font-size="12.00"> modulePrefab)</text>
<text text-anchor="start" x="4" y="-19.9" font-family="Consolas" font-size="12.00">&#45;</text>
<text text-anchor="start" x="16" y="-19.9" font-family="Consolas" font-size="12.00">GameObject GetPrefabByRoom</text>
<text text-anchor="start" x="16" y="-6.9" font-family="Consolas" font-size="12.00">Type(RoomType type)</text>
<polygon fill="#666666" stroke="#666666" points="0,-471.5 0,-471.5 298,-471.5 298,-471.5 0,-471.5"/>
<polygon fill="#666666" stroke="#666666" points="0,-258.5 0,-258.5 14,-258.5 14,-258.5 0,-258.5"/>
<polygon fill="#666666" stroke="#666666" points="14,-258.5 14,-258.5 298,-258.5 298,-258.5 14,-258.5"/>
<polygon fill="none" stroke="#666666" points="0,0 0,-491 298,-491 298,0 0,0"/>
</a>
</g>
</g>
<!-- Node2 -->
<g id="Node000002" class="node">
<title>Node2</title>
<g id="a_Node000002"><a xlink:title=" ">
<polygon fill="white" stroke="transparent" points="203,-582 95,-582 95,-527 203,-527 203,-582"/>
<text text-anchor="start" x="100" y="-567.9" font-family="Consolas" font-size="12.00">MonoBehaviour</text>
<text text-anchor="start" x="145" y="-550.9" font-family="Consolas" font-size="12.00"> </text>
<text text-anchor="start" x="145" y="-533.9" font-family="Consolas" font-size="12.00"> </text>
<polygon fill="#bfbfbf" stroke="#bfbfbf" points="95,-562.5 95,-562.5 203,-562.5 203,-562.5 95,-562.5"/>
<polygon fill="#bfbfbf" stroke="#bfbfbf" points="95,-545.5 95,-545.5 203,-545.5 203,-545.5 95,-545.5"/>
<polygon fill="none" stroke="#bfbfbf" points="95,-527 95,-582 203,-582 203,-527 95,-527"/>
</a>
</g>
</g>
<!-- Node2&#45;&gt;Node1 -->
<g id="edge1_Node000001_Node000002" class="edge">
<title>Node2&#45;&gt;Node1</title>
<g id="a_edge1_Node000001_Node000002"><a xlink:title=" ">
<path fill="none" stroke="#63b8ff" d="M149,-516.66C149,-509.03 149,-500.46 149,-491.2"/>
<polygon fill="none" stroke="#63b8ff" points="145.5,-516.79 149,-526.79 152.5,-516.79 145.5,-516.79"/>
</a>
</g>
</g>
</g>
</svg>
