<?xml version="1.0" encoding="UTF-8" standalone="no"?>
<!DOCTYPE svg PUBLIC "-//W3C//DTD SVG 1.1//EN"
 "http://www.w3.org/Graphics/SVG/1.1/DTD/svg11.dtd">
<!-- Generated by graphviz version 2.43.0 (0)
 -->
<!-- Title: MenuUIManager Pages: 1 -->
<svg width="209pt" height="350pt"
 viewBox="0.00 0.00 209.00 350.00" xmlns="http://www.w3.org/2000/svg" xmlns:xlink="http://www.w3.org/1999/xlink">
<g id="graph0" class="graph" transform="scale(1 1) rotate(0) translate(4 346)">
<title>MenuUIManager</title>
<!-- Node1 -->
<g id="Node000001" class="node">
<title>Node1</title>
<g id="a_Node000001"><a xlink:title="모든 오브젝트 및 UI 중 가장 상위에서 관리되어 언제나 유저에게 보이는 MenuUI를 관리하는 Manager">
<polygon fill="#999999" stroke="transparent" points="201,-251 0,-251 0,0 201,0 201,-251"/>
<text text-anchor="start" x="52" y="-236.9" font-family="Consolas" font-size="12.00">MenuUIManager</text>
<text text-anchor="start" x="4.5" y="-219.9" font-family="Consolas" font-size="12.00">+</text>
<text text-anchor="start" x="16.5" y="-219.9" font-family="Consolas" font-size="12.00">RectTransform mainUI</text>
<text text-anchor="start" x="4.5" y="-202.9" font-family="Consolas" font-size="12.00">+</text>
<text text-anchor="start" x="16.5" y="-202.9" font-family="Consolas" font-size="12.00">Button menuButton</text>
<text text-anchor="start" x="4.5" y="-185.9" font-family="Consolas" font-size="12.00">+</text>
<text text-anchor="start" x="16.5" y="-185.9" font-family="Consolas" font-size="12.00">float slideSpeed</text>
<text text-anchor="start" x="4.5" y="-168.9" font-family="Consolas" font-size="12.00">+</text>
<text text-anchor="start" x="16.5" y="-168.9" font-family="Consolas" font-size="12.00">static MenuUIManager</text>
<text text-anchor="start" x="16.5" y="-155.9" font-family="Consolas" font-size="12.00"> Instance</text>
<text text-anchor="start" x="4.5" y="-138.9" font-family="Consolas" font-size="12.00">&#45;</text>
<text text-anchor="start" x="16.5" y="-138.9" font-family="Consolas" font-size="12.00">bool isMenuOpen</text>
<text text-anchor="start" x="4.5" y="-121.9" font-family="Consolas" font-size="12.00">&#45;</text>
<text text-anchor="start" x="16.5" y="-121.9" font-family="Consolas" font-size="12.00">Vector2 hiddenPosition</text>
<text text-anchor="start" x="4.5" y="-104.9" font-family="Consolas" font-size="12.00">&#45;</text>
<text text-anchor="start" x="16.5" y="-104.9" font-family="Consolas" font-size="12.00">Vector2 visiblePosition</text>
<text text-anchor="start" x="4.5" y="-87.9" font-family="Consolas" font-size="12.00">&#45;</text>
<text text-anchor="start" x="16.5" y="-87.9" font-family="Consolas" font-size="12.00">Coroutine slideCoroutine</text>
<text text-anchor="start" x="4.5" y="-70.9" font-family="Consolas" font-size="12.00">+</text>
<text text-anchor="start" x="16.5" y="-70.9" font-family="Consolas" font-size="12.00">void ForceCloseMenu()</text>
<text text-anchor="start" x="4.5" y="-53.9" font-family="Consolas" font-size="12.00">+</text>
<text text-anchor="start" x="16.5" y="-53.9" font-family="Consolas" font-size="12.00">void ToggleMenu()</text>
<text text-anchor="start" x="4.5" y="-36.9" font-family="Consolas" font-size="12.00">&#45;</text>
<text text-anchor="start" x="16.5" y="-36.9" font-family="Consolas" font-size="12.00">void Start()</text>
<text text-anchor="start" x="4.5" y="-19.9" font-family="Consolas" font-size="12.00">&#45;</text>
<text text-anchor="start" x="16.5" y="-19.9" font-family="Consolas" font-size="12.00">IEnumerator SlideMenu</text>
<text text-anchor="start" x="16.5" y="-6.9" font-family="Consolas" font-size="12.00">(Vector2 targetPosition)</text>
<polygon fill="#666666" stroke="#666666" points="0.5,-231.5 0.5,-231.5 201.5,-231.5 201.5,-231.5 0.5,-231.5"/>
<polygon fill="#666666" stroke="#666666" points="0.5,-82.5 0.5,-82.5 14.5,-82.5 14.5,-82.5 0.5,-82.5"/>
<polygon fill="#666666" stroke="#666666" points="14.5,-82.5 14.5,-82.5 201.5,-82.5 201.5,-82.5 14.5,-82.5"/>
<polygon fill="none" stroke="#666666" points="0,0 0,-251 201,-251 201,0 0,0"/>
</a>
</g>
</g>
<!-- Node2 -->
<g id="Node000002" class="node">
<title>Node2</title>
<g id="a_Node000002"><a xlink:title=" ">
<polygon fill="white" stroke="transparent" points="154.5,-342 46.5,-342 46.5,-287 154.5,-287 154.5,-342"/>
<text text-anchor="start" x="51.5" y="-327.9" font-family="Consolas" font-size="12.00">MonoBehaviour</text>
<text text-anchor="start" x="96.5" y="-310.9" font-family="Consolas" font-size="12.00"> </text>
<text text-anchor="start" x="96.5" y="-293.9" font-family="Consolas" font-size="12.00"> </text>
<polygon fill="#bfbfbf" stroke="#bfbfbf" points="46.5,-322.5 46.5,-322.5 154.5,-322.5 154.5,-322.5 46.5,-322.5"/>
<polygon fill="#bfbfbf" stroke="#bfbfbf" points="46.5,-305.5 46.5,-305.5 154.5,-305.5 154.5,-305.5 46.5,-305.5"/>
<polygon fill="none" stroke="#bfbfbf" points="46.5,-287 46.5,-342 154.5,-342 154.5,-287 46.5,-287"/>
</a>
</g>
</g>
<!-- Node2&#45;&gt;Node1 -->
<g id="edge1_Node000001_Node000002" class="edge">
<title>Node2&#45;&gt;Node1</title>
<g id="a_edge1_Node000001_Node000002"><a xlink:title=" ">
<path fill="none" stroke="#63b8ff" d="M100.5,-276.64C100.5,-268.85 100.5,-260.22 100.5,-251.14"/>
<polygon fill="none" stroke="#63b8ff" points="97,-276.71 100.5,-286.71 104,-276.71 97,-276.71"/>
</a>
</g>
</g>
</g>
</svg>
