<?xml version="1.0" encoding="UTF-8" standalone="no"?>
<!DOCTYPE svg PUBLIC "-//W3C//DTD SVG 1.1//EN"
 "http://www.w3.org/Graphics/SVG/1.1/DTD/svg11.dtd">
<!-- Generated by graphviz version 2.43.0 (0)
 -->
<!-- Title: QuestListItem Pages: 1 -->
<svg width="880pt" height="2389pt"
 viewBox="0.00 0.00 880.19 2389.00" xmlns="http://www.w3.org/2000/svg" xmlns:xlink="http://www.w3.org/1999/xlink">
<g id="graph0" class="graph" transform="scale(1 1) rotate(0) translate(4 2385)">
<title>QuestListItem</title>
<!-- Node1 -->
<g id="Node000001" class="node">
<title>Node1</title>
<g id="a_Node000001"><a xlink:title=" ">
<polygon fill="#999999" stroke="transparent" points="529.19,-268 283.19,-268 283.19,0 529.19,0 529.19,-268"/>
<text text-anchor="start" x="357.19" y="-254.4" font-family="Consolas" font-size="12.00">QuestListItem</text>
<text text-anchor="start" x="287.19" y="-237.4" font-family="Consolas" font-size="12.00">+</text>
<text text-anchor="start" x="299.19" y="-237.4" font-family="Consolas" font-size="12.00">TextMeshProUGUI title</text>
<text text-anchor="start" x="287.19" y="-220.4" font-family="Consolas" font-size="12.00">+</text>
<text text-anchor="start" x="299.19" y="-220.4" font-family="Consolas" font-size="12.00">Image planetImage</text>
<text text-anchor="start" x="287.19" y="-203.4" font-family="Consolas" font-size="12.00">+</text>
<text text-anchor="start" x="299.19" y="-203.4" font-family="Consolas" font-size="12.00">TextMeshProUGUI description</text>
<text text-anchor="start" x="287.19" y="-186.4" font-family="Consolas" font-size="12.00">+</text>
<text text-anchor="start" x="299.19" y="-186.4" font-family="Consolas" font-size="12.00">TextMeshProUGUI destination</text>
<text text-anchor="start" x="287.19" y="-169.4" font-family="Consolas" font-size="12.00">+</text>
<text text-anchor="start" x="299.19" y="-169.4" font-family="Consolas" font-size="12.00">TextMeshProUGUI reward</text>
<text text-anchor="start" x="287.19" y="-152.4" font-family="Consolas" font-size="12.00">&#45;</text>
<text text-anchor="start" x="299.19" y="-152.4" font-family="Consolas" font-size="12.00">Image backPanel</text>
<text text-anchor="start" x="287.19" y="-135.4" font-family="Consolas" font-size="12.00">+</text>
<text text-anchor="start" x="299.19" y="-135.4" font-family="Consolas" font-size="12.00">void OnAcceptButtonClicked()</text>
<text text-anchor="start" x="287.19" y="-118.4" font-family="Consolas" font-size="12.00">+</text>
<text text-anchor="start" x="299.19" y="-118.4" font-family="Consolas" font-size="12.00">void OnCompleteButtonClicked()</text>
<text text-anchor="start" x="287.19" y="-101.4" font-family="Consolas" font-size="12.00">+</text>
<text text-anchor="start" x="299.19" y="-101.4" font-family="Consolas" font-size="12.00">void OnDeclineButtonClicked()</text>
<text text-anchor="start" x="287.19" y="-84.4" font-family="Consolas" font-size="12.00">+</text>
<text text-anchor="start" x="299.19" y="-84.4" font-family="Consolas" font-size="12.00">void UpdateItem()</text>
<text text-anchor="start" x="287.19" y="-67.4" font-family="Consolas" font-size="12.00">&#45;</text>
<text text-anchor="start" x="299.19" y="-67.4" font-family="Consolas" font-size="12.00">void Start()</text>
<text text-anchor="start" x="287.19" y="-50.4" font-family="Consolas" font-size="12.00">&#45;</text>
<text text-anchor="start" x="299.19" y="-50.4" font-family="Consolas" font-size="12.00">IEnumerator CheckItemQuests</text>
<text text-anchor="start" x="299.19" y="-37.4" font-family="Consolas" font-size="12.00">Delayed()</text>
<text text-anchor="start" x="287.19" y="-20.4" font-family="Consolas" font-size="12.00">&#45;</text>
<text text-anchor="start" x="299.19" y="-20.4" font-family="Consolas" font-size="12.00">void ButtonActivate</text>
<text text-anchor="start" x="299.19" y="-7.4" font-family="Consolas" font-size="12.00">(Button whichButton)</text>
<polygon fill="#666666" stroke="#666666" points="283.19,-249 283.19,-249 529.19,-249 529.19,-249 283.19,-249"/>
<polygon fill="#666666" stroke="#666666" points="283.19,-147 283.19,-147 297.19,-147 297.19,-147 283.19,-147"/>
<polygon fill="#666666" stroke="#666666" points="297.19,-147 297.19,-147 529.19,-147 529.19,-147 297.19,-147"/>
<polygon fill="none" stroke="#666666" points="283.19,0 283.19,-268 529.19,-268 529.19,0 283.19,0"/>
</a>
</g>
</g>
<!-- Node2 -->
<g id="Node000002" class="node">
<title>Node2</title>
<g id="a_Node000002"><a xlink:title=" ">
<polygon fill="white" stroke="transparent" points="191.19,-1323.5 83.19,-1323.5 83.19,-1268.5 191.19,-1268.5 191.19,-1323.5"/>
<text text-anchor="start" x="88.19" y="-1309.4" font-family="Consolas" font-size="12.00">MonoBehaviour</text>
<text text-anchor="start" x="133.19" y="-1292.4" font-family="Consolas" font-size="12.00"> </text>
<text text-anchor="start" x="133.19" y="-1275.4" font-family="Consolas" font-size="12.00"> </text>
<polygon fill="#bfbfbf" stroke="#bfbfbf" points="83.19,-1304 83.19,-1304 191.19,-1304 191.19,-1304 83.19,-1304"/>
<polygon fill="#bfbfbf" stroke="#bfbfbf" points="83.19,-1287 83.19,-1287 191.19,-1287 191.19,-1287 83.19,-1287"/>
<polygon fill="none" stroke="#bfbfbf" points="83.19,-1268.5 83.19,-1323.5 191.19,-1323.5 191.19,-1268.5 83.19,-1268.5"/>
</a>
</g>
</g>
<!-- Node2&#45;&gt;Node1 -->
<g id="edge1_Node000001_Node000002" class="edge">
<title>Node2&#45;&gt;Node1</title>
<g id="a_edge1_Node000001_Node000002"><a xlink:title=" ">
<path fill="none" stroke="#63b8ff" d="M122.23,-1259.02C68.67,-1124.13 -100.71,-639.85 85.19,-319 127.7,-245.64 211.72,-199.01 283.13,-171.05"/>
<polygon fill="none" stroke="#63b8ff" points="119.05,-1260.5 126.03,-1268.48 125.55,-1257.89 119.05,-1260.5"/>
</a>
</g>
</g>
<!-- Node4 -->
<g id="Node000004" class="node">
<title>Node4</title>
<g id="a_Node000004"><a xlink:href="classQuestList.html" target="_top" xlink:title=" ">
<polygon fill="white" stroke="transparent" points="506.69,-621.5 305.69,-621.5 305.69,-344.5 506.69,-344.5 506.69,-621.5"/>
<text text-anchor="start" x="372.69" y="-607.4" font-family="Consolas" font-size="12.00">QuestList</text>
<text text-anchor="start" x="310.19" y="-590.4" font-family="Consolas" font-size="12.00">+</text>
<text text-anchor="start" x="322.19" y="-590.4" font-family="Consolas" font-size="12.00">GameObject questListItem</text>
<text text-anchor="start" x="310.19" y="-573.4" font-family="Consolas" font-size="12.00">+</text>
<text text-anchor="start" x="322.19" y="-573.4" font-family="Consolas" font-size="12.00">GameObject content</text>
<text text-anchor="start" x="310.19" y="-556.4" font-family="Consolas" font-size="12.00">+</text>
<text text-anchor="start" x="322.19" y="-556.4" font-family="Consolas" font-size="12.00">Sprite availableSprite</text>
<text text-anchor="start" x="310.19" y="-539.4" font-family="Consolas" font-size="12.00">+</text>
<text text-anchor="start" x="322.19" y="-539.4" font-family="Consolas" font-size="12.00">Sprite activeSprite</text>
<text text-anchor="start" x="310.19" y="-522.4" font-family="Consolas" font-size="12.00">+</text>
<text text-anchor="start" x="322.19" y="-522.4" font-family="Consolas" font-size="12.00">Sprite completableSprite</text>
<text text-anchor="start" x="310.19" y="-505.4" font-family="Consolas" font-size="12.00">&#45;</text>
<text text-anchor="start" x="322.19" y="-505.4" font-family="Consolas" font-size="12.00">List&lt; RandomQuest &gt;</text>
<text text-anchor="start" x="322.19" y="-492.4" font-family="Consolas" font-size="12.00"> quests</text>
<text text-anchor="start" x="310.19" y="-475.4" font-family="Consolas" font-size="12.00">+</text>
<text text-anchor="start" x="322.19" y="-475.4" font-family="Consolas" font-size="12.00">void UpdateList()</text>
<text text-anchor="start" x="310.19" y="-458.4" font-family="Consolas" font-size="12.00">+</text>
<text text-anchor="start" x="322.19" y="-458.4" font-family="Consolas" font-size="12.00">void CloseQuestList()</text>
<text text-anchor="start" x="310.19" y="-441.4" font-family="Consolas" font-size="12.00">+</text>
<text text-anchor="start" x="322.19" y="-441.4" font-family="Consolas" font-size="12.00">void OpenQuestList()</text>
<text text-anchor="start" x="310.19" y="-424.4" font-family="Consolas" font-size="12.00">&#45;</text>
<text text-anchor="start" x="322.19" y="-424.4" font-family="Consolas" font-size="12.00">void Start()</text>
<text text-anchor="start" x="310.19" y="-407.4" font-family="Consolas" font-size="12.00">&#45;</text>
<text text-anchor="start" x="322.19" y="-407.4" font-family="Consolas" font-size="12.00">void AddQuestToListUI</text>
<text text-anchor="start" x="322.19" y="-394.4" font-family="Consolas" font-size="12.00">(RandomQuest quest)</text>
<text text-anchor="start" x="310.19" y="-377.4" font-family="Consolas" font-size="12.00">&#45;</text>
<text text-anchor="start" x="322.19" y="-377.4" font-family="Consolas" font-size="12.00">void SetQuestStatus</text>
<text text-anchor="start" x="322.19" y="-364.4" font-family="Consolas" font-size="12.00">(RandomQuest quest,</text>
<text text-anchor="start" x="322.19" y="-351.4" font-family="Consolas" font-size="12.00"> QuestStatus status)</text>
<polygon fill="#bfbfbf" stroke="#bfbfbf" points="306.19,-602 306.19,-602 507.19,-602 507.19,-602 306.19,-602"/>
<polygon fill="#bfbfbf" stroke="#bfbfbf" points="306.19,-487 306.19,-487 320.19,-487 320.19,-487 306.19,-487"/>
<polygon fill="#bfbfbf" stroke="#bfbfbf" points="320.19,-487 320.19,-487 507.19,-487 507.19,-487 320.19,-487"/>
<polygon fill="none" stroke="#bfbfbf" points="305.69,-344.5 305.69,-621.5 506.69,-621.5 506.69,-344.5 305.69,-344.5"/>
</a>
</g>
</g>
<!-- Node2&#45;&gt;Node4 -->
<g id="edge4_Node000004_Node000002" class="edge">
<title>Node2&#45;&gt;Node4</title>
<g id="a_edge4_Node000004_Node000002"><a xlink:title=" ">
<path fill="none" stroke="#63b8ff" d="M148.44,-1258.59C176.39,-1168.38 251.65,-927.42 319.19,-728 330.88,-693.5 343.88,-656.4 356.19,-621.81"/>
<polygon fill="none" stroke="#63b8ff" points="145.04,-1257.74 145.42,-1268.33 151.72,-1259.81 145.04,-1257.74"/>
</a>
</g>
</g>
<!-- Node3 -->
<g id="Node000003" class="node">
<title>Node3</title>
<g id="a_Node000003"><a xlink:href="classRandomQuest.html" target="_top" xlink:title="랜덤 퀘스트의 데이터 정의를 위한 클래스입니다.">
<polygon fill="white" stroke="transparent" points="287.69,-647 94.69,-647 94.69,-319 287.69,-319 287.69,-647"/>
<text text-anchor="start" x="150.19" y="-633.4" font-family="Consolas" font-size="12.00">RandomQuest</text>
<text text-anchor="start" x="99.19" y="-616.4" font-family="Consolas" font-size="12.00">+</text>
<text text-anchor="start" x="111.19" y="-616.4" font-family="Consolas" font-size="12.00">string questId</text>
<text text-anchor="start" x="99.19" y="-599.4" font-family="Consolas" font-size="12.00">+</text>
<text text-anchor="start" x="111.19" y="-599.4" font-family="Consolas" font-size="12.00">string title</text>
<text text-anchor="start" x="99.19" y="-582.4" font-family="Consolas" font-size="12.00">+</text>
<text text-anchor="start" x="111.19" y="-582.4" font-family="Consolas" font-size="12.00">string description</text>
<text text-anchor="start" x="99.19" y="-565.4" font-family="Consolas" font-size="12.00">+</text>
<text text-anchor="start" x="111.19" y="-565.4" font-family="Consolas" font-size="12.00">int questAcceptedYear</text>
<text text-anchor="start" x="99.19" y="-548.4" font-family="Consolas" font-size="12.00">+</text>
<text text-anchor="start" x="111.19" y="-548.4" font-family="Consolas" font-size="12.00">string acceptedPlanetId</text>
<text text-anchor="start" x="99.19" y="-531.4" font-family="Consolas" font-size="12.00">+</text>
<text text-anchor="start" x="111.19" y="-531.4" font-family="Consolas" font-size="12.00">QuestStatus status</text>
<text text-anchor="start" x="99.19" y="-514.4" font-family="Consolas" font-size="12.00">+</text>
<text text-anchor="start" x="111.19" y="-514.4" font-family="Consolas" font-size="12.00">List&lt; QuestObjective</text>
<text text-anchor="start" x="111.19" y="-501.4" font-family="Consolas" font-size="12.00"> &gt; objectives</text>
<text text-anchor="start" x="99.19" y="-484.4" font-family="Consolas" font-size="12.00">+</text>
<text text-anchor="start" x="111.19" y="-484.4" font-family="Consolas" font-size="12.00">List&lt; QuestReward &gt;</text>
<text text-anchor="start" x="111.19" y="-471.4" font-family="Consolas" font-size="12.00"> rewards</text>
<text text-anchor="start" x="99.19" y="-454.4" font-family="Consolas" font-size="12.00">+</text>
<text text-anchor="start" x="111.19" y="-454.4" font-family="Consolas" font-size="12.00">int QuestExpiredYear</text>
<text text-anchor="start" x="99.19" y="-437.4" font-family="Consolas" font-size="12.00">+</text>
<text text-anchor="start" x="111.19" y="-437.4" font-family="Consolas" font-size="12.00">int QuestDurationLeft</text>
<text text-anchor="start" x="99.19" y="-420.4" font-family="Consolas" font-size="12.00">&#45;</text>
<text text-anchor="start" x="111.19" y="-420.4" font-family="Consolas" font-size="12.00">bool canCompleteQuest</text>
<text text-anchor="start" x="99.19" y="-403.4" font-family="Consolas" font-size="12.00">+</text>
<text text-anchor="start" x="111.19" y="-403.4" font-family="Consolas" font-size="12.00">void Accept(string</text>
<text text-anchor="start" x="111.19" y="-390.4" font-family="Consolas" font-size="12.00"> planetId)</text>
<text text-anchor="start" x="99.19" y="-373.4" font-family="Consolas" font-size="12.00">+</text>
<text text-anchor="start" x="111.19" y="-373.4" font-family="Consolas" font-size="12.00">void Decline()</text>
<text text-anchor="start" x="99.19" y="-356.4" font-family="Consolas" font-size="12.00">+</text>
<text text-anchor="start" x="111.19" y="-356.4" font-family="Consolas" font-size="12.00">bool GetCanComplete()</text>
<text text-anchor="start" x="99.19" y="-339.4" font-family="Consolas" font-size="12.00">+</text>
<text text-anchor="start" x="111.19" y="-339.4" font-family="Consolas" font-size="12.00">void SetCanComplete</text>
<text text-anchor="start" x="111.19" y="-326.4" font-family="Consolas" font-size="12.00">(bool canComplete)</text>
<polygon fill="#666666" stroke="#666666" points="95.19,-628 95.19,-628 288.19,-628 288.19,-628 95.19,-628"/>
<polygon fill="#666666" stroke="#666666" points="95.19,-415 95.19,-415 109.19,-415 109.19,-415 95.19,-415"/>
<polygon fill="#666666" stroke="#666666" points="109.19,-415 109.19,-415 288.19,-415 288.19,-415 109.19,-415"/>
<polygon fill="none" stroke="#666666" points="94.69,-319 94.69,-647 287.69,-647 287.69,-319 94.69,-319"/>
</a>
</g>
</g>
<!-- Node3&#45;&gt;Node1 -->
<g id="edge2_Node000001_Node000003" class="edge">
<title>Node3&#45;&gt;Node1</title>
<g id="a_edge2_Node000001_Node000003"><a xlink:title=" ">
<path fill="none" stroke="#63b8ff" d="M287.8,-323.84C295.69,-311.03 303.57,-298.29 311.19,-286 312.71,-283.56 314.24,-281.09 315.78,-278.61"/>
<polygon fill="none" stroke="#63b8ff" points="315.84,-278.52 315.62,-271.31 322.18,-268.33 322.41,-275.54 315.84,-278.52"/>
</a>
</g>
<text text-anchor="middle" x="356.69" y="-289.8" font-family="Consolas" font-size="14.00" fill="grey"> +questInfo</text>
</g>
<!-- Node4&#45;&gt;Node1 -->
<g id="edge3_Node000001_Node000004" class="edge">
<title>Node4&#45;&gt;Node1</title>
<g id="a_edge3_Node000001_Node000004"><a xlink:title=" ">
<path fill="none" stroke="#63b8ff" d="M406.19,-344.36C406.19,-323.3 406.19,-301.51 406.19,-280.29"/>
<polygon fill="none" stroke="#63b8ff" points="406.19,-280.23 402.19,-274.23 406.19,-268.23 410.19,-274.23 406.19,-280.23"/>
</a>
</g>
<text text-anchor="middle" x="451.69" y="-289.8" font-family="Consolas" font-size="14.00" fill="grey"> +questList</text>
</g>
<!-- Node5 -->
<g id="Node000005" class="node">
<title>Node5</title>
<g id="a_Node000005"><a xlink:href="classPlanetData.html" target="_top" xlink:title="행성 데이터">
<polygon fill="white" stroke="transparent" points="604.19,-1864 328.19,-1864 328.19,-728 604.19,-728 604.19,-1864"/>
<text text-anchor="start" x="428.19" y="-1850.4" font-family="Consolas" font-size="12.00">PlanetData</text>
<text text-anchor="start" x="332.19" y="-1833.4" font-family="Consolas" font-size="12.00">+</text>
<text text-anchor="start" x="344.19" y="-1833.4" font-family="Consolas" font-size="12.00">int planetId</text>
<text text-anchor="start" x="332.19" y="-1816.4" font-family="Consolas" font-size="12.00">+</text>
<text text-anchor="start" x="344.19" y="-1816.4" font-family="Consolas" font-size="12.00">string planetName</text>
<text text-anchor="start" x="332.19" y="-1799.4" font-family="Consolas" font-size="12.00">+</text>
<text text-anchor="start" x="344.19" y="-1799.4" font-family="Consolas" font-size="12.00">PlanetRace planetRace</text>
<text text-anchor="start" x="332.19" y="-1782.4" font-family="Consolas" font-size="12.00">+</text>
<text text-anchor="start" x="344.19" y="-1782.4" font-family="Consolas" font-size="12.00">ItemPlanet itemPlanet</text>
<text text-anchor="start" x="332.19" y="-1765.4" font-family="Consolas" font-size="12.00">+</text>
<text text-anchor="start" x="344.19" y="-1765.4" font-family="Consolas" font-size="12.00">Sprite currentSprite</text>
<text text-anchor="start" x="332.19" y="-1748.4" font-family="Consolas" font-size="12.00">+</text>
<text text-anchor="start" x="344.19" y="-1748.4" font-family="Consolas" font-size="12.00">List&lt; TradingItemData</text>
<text text-anchor="start" x="344.19" y="-1735.4" font-family="Consolas" font-size="12.00"> &gt; itemsTier1</text>
<text text-anchor="start" x="332.19" y="-1718.4" font-family="Consolas" font-size="12.00">+</text>
<text text-anchor="start" x="344.19" y="-1718.4" font-family="Consolas" font-size="12.00">List&lt; TradingItemData</text>
<text text-anchor="start" x="344.19" y="-1705.4" font-family="Consolas" font-size="12.00"> &gt; itemsTier2</text>
<text text-anchor="start" x="332.19" y="-1688.4" font-family="Consolas" font-size="12.00">+</text>
<text text-anchor="start" x="344.19" y="-1688.4" font-family="Consolas" font-size="12.00">List&lt; TradingItemData</text>
<text text-anchor="start" x="344.19" y="-1675.4" font-family="Consolas" font-size="12.00"> &gt; itemsTier3</text>
<text text-anchor="start" x="332.19" y="-1658.4" font-family="Consolas" font-size="12.00">+</text>
<text text-anchor="start" x="344.19" y="-1658.4" font-family="Consolas" font-size="12.00">int currentRevenue</text>
<text text-anchor="start" x="332.19" y="-1641.4" font-family="Consolas" font-size="12.00">+</text>
<text text-anchor="start" x="344.19" y="-1641.4" font-family="Consolas" font-size="12.00">int currentFuelPrice</text>
<text text-anchor="start" x="332.19" y="-1624.4" font-family="Consolas" font-size="12.00">+</text>
<text text-anchor="start" x="344.19" y="-1624.4" font-family="Consolas" font-size="12.00">int currentMissilePrice</text>
<text text-anchor="start" x="332.19" y="-1607.4" font-family="Consolas" font-size="12.00">+</text>
<text text-anchor="start" x="344.19" y="-1607.4" font-family="Consolas" font-size="12.00">int currentHypersonicPrice</text>
<text text-anchor="start" x="332.19" y="-1590.4" font-family="Consolas" font-size="12.00">+</text>
<text text-anchor="start" x="344.19" y="-1590.4" font-family="Consolas" font-size="12.00">List&lt; RandomQuest &gt;</text>
<text text-anchor="start" x="344.19" y="-1577.4" font-family="Consolas" font-size="12.00"> questList</text>
<text text-anchor="start" x="332.19" y="-1560.4" font-family="Consolas" font-size="12.00">+</text>
<text text-anchor="start" x="344.19" y="-1560.4" font-family="Consolas" font-size="12.00">List&lt; PlanetEffect</text>
<text text-anchor="start" x="344.19" y="-1547.4" font-family="Consolas" font-size="12.00"> &gt; activeEffects</text>
<text text-anchor="start" x="332.19" y="-1530.4" font-family="Consolas" font-size="12.00">+</text>
<text text-anchor="start" x="344.19" y="-1530.4" font-family="Consolas" font-size="12.00">Dictionary&lt; ItemCategory,</text>
<text text-anchor="start" x="344.19" y="-1517.4" font-family="Consolas" font-size="12.00"> float &gt; categoryPriceModifiers</text>
<text text-anchor="start" x="332.19" y="-1500.4" font-family="Consolas" font-size="12.00">+</text>
<text text-anchor="start" x="344.19" y="-1500.4" font-family="Consolas" font-size="12.00">Dictionary&lt; int, int</text>
<text text-anchor="start" x="344.19" y="-1487.4" font-family="Consolas" font-size="12.00"> &gt; itemPriceDictionary</text>
<text text-anchor="start" x="332.19" y="-1470.4" font-family="Consolas" font-size="12.00">+</text>
<text text-anchor="start" x="344.19" y="-1470.4" font-family="Consolas" font-size="12.00">bool isHome</text>
<text text-anchor="start" x="332.19" y="-1453.4" font-family="Consolas" font-size="12.00">+</text>
<text text-anchor="start" x="344.19" y="-1453.4" font-family="Consolas" font-size="12.00">ItemTierLevel CurrentTier</text>
<text text-anchor="start" x="332.19" y="-1436.4" font-family="Consolas" font-size="12.00">+</text>
<text text-anchor="start" x="344.19" y="-1436.4" font-family="Consolas" font-size="12.00">PlanetRace PlanetRace</text>
<text text-anchor="start" x="332.19" y="-1419.4" font-family="Consolas" font-size="12.00">+</text>
<text text-anchor="start" x="344.19" y="-1419.4" font-family="Consolas" font-size="12.00">void CreateRandomData()</text>
<text text-anchor="start" x="332.19" y="-1402.4" font-family="Consolas" font-size="12.00">+</text>
<text text-anchor="start" x="344.19" y="-1402.4" font-family="Consolas" font-size="12.00">void LoadSprites()</text>
<text text-anchor="start" x="332.19" y="-1385.4" font-family="Consolas" font-size="12.00">+</text>
<text text-anchor="start" x="344.19" y="-1385.4" font-family="Consolas" font-size="12.00">string GetSpeciesPrefix</text>
<text text-anchor="start" x="344.19" y="-1372.4" font-family="Consolas" font-size="12.00">(PlanetRace species)</text>
<text text-anchor="start" x="332.19" y="-1355.4" font-family="Consolas" font-size="12.00">+</text>
<text text-anchor="start" x="344.19" y="-1355.4" font-family="Consolas" font-size="12.00">void SetItems()</text>
<text text-anchor="start" x="332.19" y="-1338.4" font-family="Consolas" font-size="12.00">+</text>
<text text-anchor="start" x="344.19" y="-1338.4" font-family="Consolas" font-size="12.00">void ChangeItemPrice()</text>
<text text-anchor="start" x="332.19" y="-1321.4" font-family="Consolas" font-size="12.00">+</text>
<text text-anchor="start" x="344.19" y="-1321.4" font-family="Consolas" font-size="12.00">int GetItemPrice(int</text>
<text text-anchor="start" x="344.19" y="-1308.4" font-family="Consolas" font-size="12.00"> itemId)</text>
<text text-anchor="start" x="332.19" y="-1291.4" font-family="Consolas" font-size="12.00">+</text>
<text text-anchor="start" x="344.19" y="-1291.4" font-family="Consolas" font-size="12.00">int GetItemPrice(Trading</text>
<text text-anchor="start" x="344.19" y="-1278.4" font-family="Consolas" font-size="12.00">ItemData item)</text>
<text text-anchor="start" x="332.19" y="-1261.4" font-family="Consolas" font-size="12.00">+</text>
<text text-anchor="start" x="344.19" y="-1261.4" font-family="Consolas" font-size="12.00">void RegisterPlanetEffect</text>
<text text-anchor="start" x="344.19" y="-1248.4" font-family="Consolas" font-size="12.00">(PlanetEffect effectData)</text>
<text text-anchor="start" x="332.19" y="-1231.4" font-family="Consolas" font-size="12.00">+</text>
<text text-anchor="start" x="344.19" y="-1231.4" font-family="Consolas" font-size="12.00">void CheckPirateQuests()</text>
<text text-anchor="start" x="332.19" y="-1214.4" font-family="Consolas" font-size="12.00">+</text>
<text text-anchor="start" x="344.19" y="-1214.4" font-family="Consolas" font-size="12.00">void CheckItemQuests</text>
<text text-anchor="start" x="344.19" y="-1201.4" font-family="Consolas" font-size="12.00">(int itemId)</text>
<text text-anchor="start" x="332.19" y="-1184.4" font-family="Consolas" font-size="12.00">+</text>
<text text-anchor="start" x="344.19" y="-1184.4" font-family="Consolas" font-size="12.00">void CheckEventExpirations</text>
<text text-anchor="start" x="344.19" y="-1171.4" font-family="Consolas" font-size="12.00">(int currentYear)</text>
<text text-anchor="start" x="332.19" y="-1154.4" font-family="Consolas" font-size="12.00">+</text>
<text text-anchor="start" x="344.19" y="-1154.4" font-family="Consolas" font-size="12.00">float GetCategoryPriceModifier</text>
<text text-anchor="start" x="344.19" y="-1141.4" font-family="Consolas" font-size="12.00">(ItemCategory category)</text>
<text text-anchor="start" x="332.19" y="-1124.4" font-family="Consolas" font-size="12.00">+</text>
<text text-anchor="start" x="344.19" y="-1124.4" font-family="Consolas" font-size="12.00">void ResetAllEffects()</text>
<text text-anchor="start" x="332.19" y="-1107.4" font-family="Consolas" font-size="12.00">+</text>
<text text-anchor="start" x="344.19" y="-1107.4" font-family="Consolas" font-size="12.00">int CalculateAdjustedPrice</text>
<text text-anchor="start" x="344.19" y="-1094.4" font-family="Consolas" font-size="12.00">(int basePrice, ItemCategory</text>
<text text-anchor="start" x="344.19" y="-1081.4" font-family="Consolas" font-size="12.00"> category)</text>
<text text-anchor="start" x="332.19" y="-1064.4" font-family="Consolas" font-size="12.00">+</text>
<text text-anchor="start" x="344.19" y="-1064.4" font-family="Consolas" font-size="12.00">void PrintAllEffects()</text>
<text text-anchor="start" x="332.19" y="-1047.4" font-family="Consolas" font-size="12.00">+</text>
<text text-anchor="start" x="344.19" y="-1047.4" font-family="Consolas" font-size="12.00">void CheckQuestExpirations</text>
<text text-anchor="start" x="344.19" y="-1034.4" font-family="Consolas" font-size="12.00">(int currentYear)</text>
<text text-anchor="start" x="332.19" y="-1017.4" font-family="Consolas" font-size="12.00">+</text>
<text text-anchor="start" x="344.19" y="-1017.4" font-family="Consolas" font-size="12.00">void ActivateQuest</text>
<text text-anchor="start" x="344.19" y="-1004.4" font-family="Consolas" font-size="12.00">(RandomQuest quest)</text>
<text text-anchor="start" x="332.19" y="-987.4" font-family="Consolas" font-size="12.00">+</text>
<text text-anchor="start" x="344.19" y="-987.4" font-family="Consolas" font-size="12.00">void CompleteQuest</text>
<text text-anchor="start" x="344.19" y="-974.4" font-family="Consolas" font-size="12.00">(RandomQuest quest)</text>
<text text-anchor="start" x="332.19" y="-957.4" font-family="Consolas" font-size="12.00">+</text>
<text text-anchor="start" x="344.19" y="-957.4" font-family="Consolas" font-size="12.00">void FailQuest(RandomQuest</text>
<text text-anchor="start" x="344.19" y="-944.4" font-family="Consolas" font-size="12.00"> quest)</text>
<text text-anchor="start" x="332.19" y="-927.4" font-family="Consolas" font-size="12.00">+</text>
<text text-anchor="start" x="344.19" y="-927.4" font-family="Consolas" font-size="12.00">void TrySpawnQuest()</text>
<text text-anchor="start" x="332.19" y="-910.4" font-family="Consolas" font-size="12.00">+</text>
<text text-anchor="start" x="344.19" y="-910.4" font-family="Consolas" font-size="12.00">void RefreshEquipmentSelling()</text>
<text text-anchor="start" x="332.19" y="-893.4" font-family="Consolas" font-size="12.00">+</text>
<text text-anchor="start" x="344.19" y="-893.4" font-family="Consolas" font-size="12.00">void ChangeFuelPrice()</text>
<text text-anchor="start" x="332.19" y="-876.4" font-family="Consolas" font-size="12.00">+</text>
<text text-anchor="start" x="344.19" y="-876.4" font-family="Consolas" font-size="12.00">void SetPlanetRace</text>
<text text-anchor="start" x="344.19" y="-863.4" font-family="Consolas" font-size="12.00">(PlanetRace planetRace)</text>
<text text-anchor="start" x="332.19" y="-846.4" font-family="Consolas" font-size="12.00">&#45;</text>
<text text-anchor="start" x="344.19" y="-846.4" font-family="Consolas" font-size="12.00">void InitializeCategoryModifiers()</text>
<text text-anchor="start" x="332.19" y="-829.4" font-family="Consolas" font-size="12.00">&#45;</text>
<text text-anchor="start" x="344.19" y="-829.4" font-family="Consolas" font-size="12.00">void SetRandomName()</text>
<text text-anchor="start" x="332.19" y="-812.4" font-family="Consolas" font-size="12.00">&#45;</text>
<text text-anchor="start" x="344.19" y="-812.4" font-family="Consolas" font-size="12.00">void SetRandomPosition()</text>
<text text-anchor="start" x="332.19" y="-795.4" font-family="Consolas" font-size="12.00">&#45;</text>
<text text-anchor="start" x="344.19" y="-795.4" font-family="Consolas" font-size="12.00">void ApplyPlanetEffectValue</text>
<text text-anchor="start" x="344.19" y="-782.4" font-family="Consolas" font-size="12.00">(PlanetEffect effect)</text>
<text text-anchor="start" x="332.19" y="-765.4" font-family="Consolas" font-size="12.00">&#45;</text>
<text text-anchor="start" x="344.19" y="-765.4" font-family="Consolas" font-size="12.00">void RemovePlanetEffectValue</text>
<text text-anchor="start" x="344.19" y="-752.4" font-family="Consolas" font-size="12.00">(PlanetEffect effect)</text>
<text text-anchor="start" x="332.19" y="-735.4" font-family="Consolas" font-size="12.00">&#45;</text>
<text text-anchor="start" x="344.19" y="-735.4" font-family="Consolas" font-size="12.00">void CreateRandomQuest()</text>
<polygon fill="#666666" stroke="#666666" points="328.19,-1845 328.19,-1845 604.19,-1845 604.19,-1845 328.19,-1845"/>
<polygon fill="#666666" stroke="#666666" points="328.19,-1431 328.19,-1431 342.19,-1431 342.19,-1431 328.19,-1431"/>
<polygon fill="#666666" stroke="#666666" points="342.19,-1431 342.19,-1431 604.19,-1431 604.19,-1431 342.19,-1431"/>
<polygon fill="none" stroke="#666666" points="328.19,-728 328.19,-1864 604.19,-1864 604.19,-728 328.19,-728"/>
</a>
</g>
</g>
<!-- Node5&#45;&gt;Node1 -->
<g id="edge10_Node000001_Node000005" class="edge">
<title>Node5&#45;&gt;Node1</title>
<g id="a_edge10_Node000001_Node000005"><a xlink:title=" ">
<path fill="none" stroke="#63b8ff" d="M548.25,-727.73C553.28,-592.51 546.46,-449.58 516.19,-319 513.11,-305.68 508.64,-292.39 503.25,-279.41"/>
<polygon fill="none" stroke="#63b8ff" points="503.1,-279.07 497.03,-275.18 498.29,-268.08 504.36,-271.97 503.1,-279.07"/>
</a>
</g>
<text text-anchor="middle" x="611.19" y="-479.3" font-family="Consolas" font-size="14.00" fill="grey"> &#45;currentPlanet</text>
</g>
<!-- Node5&#45;&gt;Node4 -->
<g id="edge5_Node000004_Node000005" class="edge">
<title>Node5&#45;&gt;Node4</title>
<g id="a_edge5_Node000004_Node000005"><a xlink:title=" ">
<path fill="none" stroke="#63b8ff" d="M424.24,-727.88C421.76,-694.39 419.41,-662.66 417.28,-633.84"/>
<polygon fill="none" stroke="#63b8ff" points="417.26,-633.63 412.83,-627.94 416.38,-621.67 420.81,-627.35 417.26,-633.63"/>
</a>
</g>
<text text-anchor="middle" x="472.19" y="-683.8" font-family="Consolas" font-size="14.00" fill="grey"> &#45;planetData</text>
</g>
<!-- Node6 -->
<g id="Node000006" class="node">
<title>Node6</title>
<g id="a_Node000006"><a xlink:title=" ">
<polygon fill="white" stroke="transparent" points="650.69,-2129.5 557.69,-2129.5 557.69,-2074.5 650.69,-2074.5 650.69,-2129.5"/>
<text text-anchor="start" x="563.19" y="-2115.4" font-family="Consolas" font-size="12.00">UnityEngine</text>
<text text-anchor="start" x="600.69" y="-2098.4" font-family="Consolas" font-size="12.00"> </text>
<text text-anchor="start" x="600.69" y="-2081.4" font-family="Consolas" font-size="12.00"> </text>
<polygon fill="#bfbfbf" stroke="#bfbfbf" points="558.19,-2110 558.19,-2110 651.19,-2110 651.19,-2110 558.19,-2110"/>
<polygon fill="#bfbfbf" stroke="#bfbfbf" points="558.19,-2093 558.19,-2093 651.19,-2093 651.19,-2093 558.19,-2093"/>
<polygon fill="none" stroke="#bfbfbf" points="557.69,-2074.5 557.69,-2129.5 650.69,-2129.5 650.69,-2074.5 557.69,-2074.5"/>
</a>
</g>
</g>
<!-- Node6&#45;&gt;Node1 -->
<g id="edge9_Node000001_Node000006" class="edge">
<title>Node6&#45;&gt;Node1</title>
<g id="a_edge9_Node000001_Node000006"><a xlink:title=" ">
<path fill="none" stroke="#63b8ff" d="M617.91,-2074.19C636.6,-2036.02 669.1,-1963.29 681.19,-1897 682.39,-1890.44 681.2,-1888.67 681.19,-1882 680.75,-1534.67 840.18,-625.72 677.19,-319 647.61,-263.33 592.82,-221.37 540.22,-191.68"/>
<polygon fill="none" stroke="#63b8ff" points="539.9,-191.51 532.71,-192.12 529.38,-185.72 536.57,-185.11 539.9,-191.51"/>
</a>
</g>
<text text-anchor="middle" x="810.19" y="-698.8" font-family="Consolas" font-size="14.00" fill="grey"> &#45;buttonAccpet</text>
<text text-anchor="middle" x="810.19" y="-683.8" font-family="Consolas" font-size="14.00" fill="grey">&#45;buttonComplete</text>
<text text-anchor="middle" x="810.19" y="-668.8" font-family="Consolas" font-size="14.00" fill="grey">&#45;buttonDecline</text>
</g>
<!-- Node6&#45;&gt;Node5 -->
<g id="edge6_Node000005_Node000006" class="edge">
<title>Node6&#45;&gt;Node5</title>
<g id="a_edge6_Node000005_Node000006"><a xlink:title=" ">
<path fill="none" stroke="#63b8ff" d="M589.11,-2074.3C568.45,-2036.27 531.97,-1963.7 515.19,-1897 513.46,-1890.1 511.78,-1883.14 510.16,-1876.14"/>
<polygon fill="none" stroke="#63b8ff" points="510.13,-1876.01 504.9,-1871.04 507.48,-1864.3 512.71,-1869.27 510.13,-1876.01"/>
</a>
</g>
<text text-anchor="middle" x="598.19" y="-1885.8" font-family="Consolas" font-size="14.00" fill="grey"> +normalizedPosition</text>
</g>
<!-- Node7 -->
<g id="Node000007" class="node">
<title>Node7</title>
<g id="a_Node000007"><a xlink:href="classEquipmentItem.html" target="_top" xlink:title="각 장비 별 필요한 필드 정리">
<polygon fill="white" stroke="transparent" points="370.69,-2289 147.69,-2289 147.69,-1915 370.69,-1915 370.69,-2289"/>
<text text-anchor="start" x="210.69" y="-2275.4" font-family="Consolas" font-size="12.00">EquipmentItem</text>
<text text-anchor="start" x="152.19" y="-2258.4" font-family="Consolas" font-size="12.00">+</text>
<text text-anchor="start" x="164.19" y="-2258.4" font-family="Consolas" font-size="12.00">int eqId</text>
<text text-anchor="start" x="152.19" y="-2241.4" font-family="Consolas" font-size="12.00">+</text>
<text text-anchor="start" x="164.19" y="-2241.4" font-family="Consolas" font-size="12.00">Sprite eqIcon</text>
<text text-anchor="start" x="152.19" y="-2224.4" font-family="Consolas" font-size="12.00">+</text>
<text text-anchor="start" x="164.19" y="-2224.4" font-family="Consolas" font-size="12.00">string eqName</text>
<text text-anchor="start" x="152.19" y="-2207.4" font-family="Consolas" font-size="12.00">+</text>
<text text-anchor="start" x="164.19" y="-2207.4" font-family="Consolas" font-size="12.00">string eqDescription</text>
<text text-anchor="start" x="152.19" y="-2190.4" font-family="Consolas" font-size="12.00">+</text>
<text text-anchor="start" x="164.19" y="-2190.4" font-family="Consolas" font-size="12.00">EquipmentType eqType</text>
<text text-anchor="start" x="152.19" y="-2173.4" font-family="Consolas" font-size="12.00">+</text>
<text text-anchor="start" x="164.19" y="-2173.4" font-family="Consolas" font-size="12.00">int eqPrice</text>
<text text-anchor="start" x="152.19" y="-2156.4" font-family="Consolas" font-size="12.00">+</text>
<text text-anchor="start" x="164.19" y="-2156.4" font-family="Consolas" font-size="12.00">bool isGlobalEquip</text>
<text text-anchor="start" x="152.19" y="-2139.4" font-family="Consolas" font-size="12.00">+</text>
<text text-anchor="start" x="164.19" y="-2139.4" font-family="Consolas" font-size="12.00">ItemPlanet planet</text>
<text text-anchor="start" x="152.19" y="-2122.4" font-family="Consolas" font-size="12.00">+</text>
<text text-anchor="start" x="164.19" y="-2122.4" font-family="Consolas" font-size="12.00">int eqAttackBonus</text>
<text text-anchor="start" x="152.19" y="-2105.4" font-family="Consolas" font-size="12.00">+</text>
<text text-anchor="start" x="164.19" y="-2105.4" font-family="Consolas" font-size="12.00">int eqDefenseBonus</text>
<text text-anchor="start" x="152.19" y="-2088.4" font-family="Consolas" font-size="12.00">+</text>
<text text-anchor="start" x="164.19" y="-2088.4" font-family="Consolas" font-size="12.00">int eqHealthBonus</text>
<text text-anchor="start" x="152.19" y="-2071.4" font-family="Consolas" font-size="12.00">+</text>
<text text-anchor="start" x="164.19" y="-2071.4" font-family="Consolas" font-size="12.00">int eqAdditionalPilotSkill</text>
<text text-anchor="start" x="152.19" y="-2054.4" font-family="Consolas" font-size="12.00">+</text>
<text text-anchor="start" x="164.19" y="-2054.4" font-family="Consolas" font-size="12.00">int eqAdditionalEngineSkill</text>
<text text-anchor="start" x="152.19" y="-2037.4" font-family="Consolas" font-size="12.00">+</text>
<text text-anchor="start" x="164.19" y="-2037.4" font-family="Consolas" font-size="12.00">int eqAdditionalPowerSkill</text>
<text text-anchor="start" x="152.19" y="-2020.4" font-family="Consolas" font-size="12.00">+</text>
<text text-anchor="start" x="164.19" y="-2020.4" font-family="Consolas" font-size="12.00">int eqAdditionalShieldSkill</text>
<text text-anchor="start" x="152.19" y="-2003.4" font-family="Consolas" font-size="12.00">+</text>
<text text-anchor="start" x="164.19" y="-2003.4" font-family="Consolas" font-size="12.00">int eqAdditionalWeaponSkill</text>
<text text-anchor="start" x="152.19" y="-1986.4" font-family="Consolas" font-size="12.00">+</text>
<text text-anchor="start" x="164.19" y="-1986.4" font-family="Consolas" font-size="12.00">int eqAdditionalAmmunition</text>
<text text-anchor="start" x="164.19" y="-1973.4" font-family="Consolas" font-size="12.00">Skill</text>
<text text-anchor="start" x="152.19" y="-1956.4" font-family="Consolas" font-size="12.00">+</text>
<text text-anchor="start" x="164.19" y="-1956.4" font-family="Consolas" font-size="12.00">int eqAdditionalMedBaySkill</text>
<text text-anchor="start" x="152.19" y="-1939.4" font-family="Consolas" font-size="12.00">+</text>
<text text-anchor="start" x="164.19" y="-1939.4" font-family="Consolas" font-size="12.00">int eqAdditionalRepairSkill</text>
<text text-anchor="start" x="255.69" y="-1922.4" font-family="Consolas" font-size="12.00"> </text>
<polygon fill="#666666" stroke="#666666" points="148.19,-2270 148.19,-2270 371.19,-2270 371.19,-2270 148.19,-2270"/>
<polygon fill="#666666" stroke="#666666" points="148.19,-1934 148.19,-1934 162.19,-1934 162.19,-1934 148.19,-1934"/>
<polygon fill="#666666" stroke="#666666" points="162.19,-1934 162.19,-1934 371.19,-1934 371.19,-1934 162.19,-1934"/>
<polygon fill="none" stroke="#666666" points="147.69,-1915 147.69,-2289 370.69,-2289 370.69,-1915 147.69,-1915"/>
</a>
</g>
</g>
<!-- Node7&#45;&gt;Node5 -->
<g id="edge7_Node000005_Node000007" class="edge">
<title>Node7&#45;&gt;Node5</title>
<g id="a_edge7_Node000005_Node000007"><a xlink:title=" ">
<path fill="none" stroke="#63b8ff" d="M273.38,-1914.8C275.1,-1903.67 277.03,-1892.66 279.19,-1882 291.27,-1822.49 307.23,-1760.5 324.75,-1700.08"/>
<polygon fill="none" stroke="#63b8ff" points="324.79,-1699.94 322.63,-1693.06 328.15,-1688.42 330.31,-1695.3 324.79,-1699.94"/>
</a>
</g>
<text text-anchor="middle" x="395.19" y="-1885.8" font-family="Consolas" font-size="14.00" fill="grey"> +currentRandomEquipmentItem</text>
</g>
<!-- Node8 -->
<g id="Node000008" class="node">
<title>Node8</title>
<g id="a_Node000008"><a xlink:title=" ">
<polygon fill="white" stroke="transparent" points="324.69,-2381 193.69,-2381 193.69,-2326 324.69,-2326 324.69,-2381"/>
<text text-anchor="start" x="199.19" y="-2366.9" font-family="Consolas" font-size="12.00">ScriptableObject</text>
<text text-anchor="start" x="255.69" y="-2349.9" font-family="Consolas" font-size="12.00"> </text>
<text text-anchor="start" x="255.69" y="-2332.9" font-family="Consolas" font-size="12.00"> </text>
<polygon fill="#bfbfbf" stroke="#bfbfbf" points="194.19,-2361.5 194.19,-2361.5 325.19,-2361.5 325.19,-2361.5 194.19,-2361.5"/>
<polygon fill="#bfbfbf" stroke="#bfbfbf" points="194.19,-2344.5 194.19,-2344.5 325.19,-2344.5 325.19,-2344.5 194.19,-2344.5"/>
<polygon fill="none" stroke="#bfbfbf" points="193.69,-2326 193.69,-2381 324.69,-2381 324.69,-2326 193.69,-2326"/>
</a>
</g>
</g>
<!-- Node8&#45;&gt;Node7 -->
<g id="edge8_Node000007_Node000008" class="edge">
<title>Node8&#45;&gt;Node7</title>
<g id="a_edge8_Node000007_Node000008"><a xlink:title=" ">
<path fill="none" stroke="#63b8ff" d="M259.19,-2315.59C259.19,-2307.65 259.19,-2298.74 259.19,-2289.19"/>
<polygon fill="none" stroke="#63b8ff" points="255.69,-2315.8 259.19,-2325.8 262.69,-2315.8 255.69,-2315.8"/>
</a>
</g>
</g>
</g>
</svg>
