<?xml version="1.0" encoding="UTF-8" standalone="no"?>
<!DOCTYPE svg PUBLIC "-//W3C//DTD SVG 1.1//EN"
 "http://www.w3.org/Graphics/SVG/1.1/DTD/svg11.dtd">
<!-- Generated by graphviz version 2.43.0 (0)
 -->
<!-- Title: EventTreeMap Pages: 1 -->
<!--zoomable 916 -->

<svg id="main" version="1.1" xmlns="http://www.w3.org/2000/svg" xmlns:xlink="http://www.w3.org/1999/xlink" xml:space="preserve" onload="init(evt)">
<style type="text/css"><![CDATA[
.node, .edge {opacity: 0.7;}
.node.selected, .edge.selected {opacity: 1;}
.edge:hover path { stroke: red; }
.edge:hover polygon { stroke: red; fill: red; }
]]></style>

<defs>
  <circle id="rim" cx="0" cy="0" r="7"/>
  <circle id="rim2" cx="0" cy="0" r="3.5"/>
  <g id="zoomPlus">
    <use xlink:href="#rim" fill="#404040"><set attributeName="fill" to="#808080" begin="zoomplus.mouseover" end="zoomplus.mouseout"/></use>
    <path d="M-4,0h8M0,-4v8" fill="none" stroke="white" stroke-width="1.5" pointer-events="none"/>
  </g>
  <g id="zoomMin">
    <use xlink:href="#rim" fill="#404040"><set attributeName="fill" to="#808080" begin="zoomminus.mouseover" end="zoomminus.mouseout"/></use>
    <path d="M-4,0h8" fill="none" stroke="white" stroke-width="1.5" pointer-events="none"/>
  </g>
  <g id="arrowUp" transform="translate(30 24)">
    <use xlink:href="#rim"/>
    <path pointer-events="none" fill="none" stroke="white" stroke-width="1.5" d="M0,-3.0v7 M-2.5,-0.5L0,-3.0L2.5,-0.5"/>
  </g>
  <g id="arrowRight" transform="rotate(90) translate(36 -43)">
    <use xlink:href="#rim"/>
    <path pointer-events="none" fill="none" stroke="white" stroke-width="1.5" d="M0,-3.0v7 M-2.5,-0.5L0,-3.0L2.5,-0.5"/>
  </g>
  <g id="arrowDown" transform="rotate(180) translate(-30 -48)">
    <use xlink:href="#rim"/>
    <path pointer-events="none" fill="none" stroke="white" stroke-width="1.5" d="M0,-3.0v7 M-2.5,-0.5L0,-3.0L2.5,-0.5"/>
  </g>
  <g id="arrowLeft" transform="rotate(270) translate(-36 17)">
    <use xlink:href="#rim"/>
    <path pointer-events="none" fill="none" stroke="white" stroke-width="1.5" d="M0,-3.0v7 M-2.5,-0.5L0,-3.0L2.5,-0.5"/>
  </g>
  <g id="resetDef">
    <use xlink:href="#rim2" fill="#404040"><set attributeName="fill" to="#808080" begin="reset.mouseover" end="reset.mouseout"/></use>
  </g>
</defs>
<script type="application/ecmascript">
var viewWidth = 254;
var viewHeight = 916;
var sectionId = 'dynsection-1';
</script>
<script type="application/ecmascript" xlink:href="svg.min.js"/>
<svg id="graph" class="graph">
<g id="viewport">
<title>EventTreeMap</title>
<!-- Node1 -->
<g id="Node000001" class="node">
<title>Node1</title>
<g id="a_Node000001"><a xlink:title="이벤트 트리 맵을 생성하고 시각화하는 매니저. 노드를 자동으로 배치하고, 위험 여부를 표시하며, 연결선까지 구성합니다. 노드 클릭 시 선택 이벤트를 발생시킵니다.">
<polygon fill="#999999" stroke="transparent" points="246,-817 0,-817 0,0 246,0 246,-817"/>
<text text-anchor="start" x="77.5" y="-802.9" font-family="Consolas" font-size="12.00">EventTreeMap</text>
<text text-anchor="start" x="4" y="-785.9" font-family="Consolas" font-size="12.00">&#45;</text>
<text text-anchor="start" x="16" y="-785.9" font-family="Consolas" font-size="12.00">RectTransform treeContainer</text>
<text text-anchor="start" x="4" y="-768.9" font-family="Consolas" font-size="12.00">&#45;</text>
<text text-anchor="start" x="16" y="-768.9" font-family="Consolas" font-size="12.00">GameObject eventNodePrefab</text>
<text text-anchor="start" x="4" y="-751.9" font-family="Consolas" font-size="12.00">&#45;</text>
<text text-anchor="start" x="16" y="-751.9" font-family="Consolas" font-size="12.00">GameObject connectionLine</text>
<text text-anchor="start" x="16" y="-738.9" font-family="Consolas" font-size="12.00">Prefab</text>
<text text-anchor="start" x="4" y="-721.9" font-family="Consolas" font-size="12.00">&#45;</text>
<text text-anchor="start" x="16" y="-721.9" font-family="Consolas" font-size="12.00">float minNodeDistance</text>
<text text-anchor="start" x="4" y="-704.9" font-family="Consolas" font-size="12.00">&#45;</text>
<text text-anchor="start" x="16" y="-704.9" font-family="Consolas" font-size="12.00">int minNodesPerLayer</text>
<text text-anchor="start" x="4" y="-687.9" font-family="Consolas" font-size="12.00">&#45;</text>
<text text-anchor="start" x="16" y="-687.9" font-family="Consolas" font-size="12.00">int maxNodesPerLayer</text>
<text text-anchor="start" x="4" y="-670.9" font-family="Consolas" font-size="12.00">&#45;</text>
<text text-anchor="start" x="16" y="-670.9" font-family="Consolas" font-size="12.00">Color startNodeColor</text>
<text text-anchor="start" x="4" y="-653.9" font-family="Consolas" font-size="12.00">&#45;</text>
<text text-anchor="start" x="16" y="-653.9" font-family="Consolas" font-size="12.00">Color endNodeColor</text>
<text text-anchor="start" x="4" y="-636.9" font-family="Consolas" font-size="12.00">&#45;</text>
<text text-anchor="start" x="16" y="-636.9" font-family="Consolas" font-size="12.00">Color pirateNodeColor</text>
<text text-anchor="start" x="4" y="-619.9" font-family="Consolas" font-size="12.00">&#45;</text>
<text text-anchor="start" x="16" y="-619.9" font-family="Consolas" font-size="12.00">Color spaceStationNodeColor</text>
<text text-anchor="start" x="4" y="-602.9" font-family="Consolas" font-size="12.00">&#45;</text>
<text text-anchor="start" x="16" y="-602.9" font-family="Consolas" font-size="12.00">Color randomEventNodeColor</text>
<text text-anchor="start" x="4" y="-585.9" font-family="Consolas" font-size="12.00">&#45;</text>
<text text-anchor="start" x="16" y="-585.9" font-family="Consolas" font-size="12.00">Color dangerNodeColor</text>
<text text-anchor="start" x="4" y="-568.9" font-family="Consolas" font-size="12.00">&#45;</text>
<text text-anchor="start" x="16" y="-568.9" font-family="Consolas" font-size="12.00">readonly List&lt; EventNode</text>
<text text-anchor="start" x="16" y="-555.9" font-family="Consolas" font-size="12.00"> &gt; allNodes</text>
<text text-anchor="start" x="4" y="-538.9" font-family="Consolas" font-size="12.00">&#45;</text>
<text text-anchor="start" x="16" y="-538.9" font-family="Consolas" font-size="12.00">readonly List&lt; GameObject</text>
<text text-anchor="start" x="16" y="-525.9" font-family="Consolas" font-size="12.00"> &gt; connectionLines</text>
<text text-anchor="start" x="4" y="-508.9" font-family="Consolas" font-size="12.00">&#45;</text>
<text text-anchor="start" x="16" y="-508.9" font-family="Consolas" font-size="12.00">List&lt; List&lt; EventNode</text>
<text text-anchor="start" x="16" y="-495.9" font-family="Consolas" font-size="12.00"> &gt; &gt; layerNodes</text>
<text text-anchor="start" x="4" y="-478.9" font-family="Consolas" font-size="12.00">&#45;</text>
<text text-anchor="start" x="16" y="-478.9" font-family="Consolas" font-size="12.00">List&lt; bool &gt; layerDangerInfo</text>
<text text-anchor="start" x="4" y="-461.9" font-family="Consolas" font-size="12.00">+</text>
<text text-anchor="start" x="16" y="-461.9" font-family="Consolas" font-size="12.00">delegate void NodeSelected</text>
<text text-anchor="start" x="16" y="-448.9" font-family="Consolas" font-size="12.00">Handler(EventNode node)</text>
<text text-anchor="start" x="4" y="-431.9" font-family="Consolas" font-size="12.00">+</text>
<text text-anchor="start" x="16" y="-431.9" font-family="Consolas" font-size="12.00">void Initialize()</text>
<text text-anchor="start" x="4" y="-414.9" font-family="Consolas" font-size="12.00">+</text>
<text text-anchor="start" x="16" y="-414.9" font-family="Consolas" font-size="12.00">void GenerateTreeFromPath</text>
<text text-anchor="start" x="16" y="-401.9" font-family="Consolas" font-size="12.00">(List&lt; Vector2 &gt; pathNodes,</text>
<text text-anchor="start" x="16" y="-388.9" font-family="Consolas" font-size="12.00"> List&lt; bool &gt; dangerInfo=null)</text>
<text text-anchor="start" x="4" y="-371.9" font-family="Consolas" font-size="12.00">+</text>
<text text-anchor="start" x="16" y="-371.9" font-family="Consolas" font-size="12.00">void GenerateImprovedTree</text>
<text text-anchor="start" x="16" y="-358.9" font-family="Consolas" font-size="12.00">(int layers)</text>
<text text-anchor="start" x="4" y="-341.9" font-family="Consolas" font-size="12.00">&#45;</text>
<text text-anchor="start" x="16" y="-341.9" font-family="Consolas" font-size="12.00">NodeType DetermineNodeType</text>
<text text-anchor="start" x="16" y="-328.9" font-family="Consolas" font-size="12.00">(int layer, int totalLayers)</text>
<text text-anchor="start" x="4" y="-311.9" font-family="Consolas" font-size="12.00">&#45;</text>
<text text-anchor="start" x="16" y="-311.9" font-family="Consolas" font-size="12.00">EventNode CreateNode</text>
<text text-anchor="start" x="16" y="-298.9" font-family="Consolas" font-size="12.00">(Vector2 position, int</text>
<text text-anchor="start" x="16" y="-285.9" font-family="Consolas" font-size="12.00"> layer, int index, NodeType</text>
<text text-anchor="start" x="16" y="-272.9" font-family="Consolas" font-size="12.00"> type, bool isDangerous)</text>
<text text-anchor="start" x="4" y="-255.9" font-family="Consolas" font-size="12.00">&#45;</text>
<text text-anchor="start" x="16" y="-255.9" font-family="Consolas" font-size="12.00">void ApplyNodeStyle</text>
<text text-anchor="start" x="16" y="-242.9" font-family="Consolas" font-size="12.00">(GameObject nodeObj,</text>
<text text-anchor="start" x="16" y="-229.9" font-family="Consolas" font-size="12.00"> NodeType type, bool</text>
<text text-anchor="start" x="16" y="-216.9" font-family="Consolas" font-size="12.00"> isDangerous)</text>
<text text-anchor="start" x="4" y="-199.9" font-family="Consolas" font-size="12.00">&#45;</text>
<text text-anchor="start" x="16" y="-199.9" font-family="Consolas" font-size="12.00">void CreateStrictlyPlanar</text>
<text text-anchor="start" x="16" y="-186.9" font-family="Consolas" font-size="12.00">Connections()</text>
<text text-anchor="start" x="4" y="-169.9" font-family="Consolas" font-size="12.00">&#45;</text>
<text text-anchor="start" x="16" y="-169.9" font-family="Consolas" font-size="12.00">void VerifyAndFixConnections()</text>
<text text-anchor="start" x="4" y="-152.9" font-family="Consolas" font-size="12.00">&#45;</text>
<text text-anchor="start" x="16" y="-152.9" font-family="Consolas" font-size="12.00">void CreateConnectionLines()</text>
<text text-anchor="start" x="4" y="-135.9" font-family="Consolas" font-size="12.00">&#45;</text>
<text text-anchor="start" x="16" y="-135.9" font-family="Consolas" font-size="12.00">GameObject CreateConnection</text>
<text text-anchor="start" x="16" y="-122.9" font-family="Consolas" font-size="12.00">Line(RectTransform startNode,</text>
<text text-anchor="start" x="16" y="-109.9" font-family="Consolas" font-size="12.00"> RectTransform endNode)</text>
<text text-anchor="start" x="4" y="-92.9" font-family="Consolas" font-size="12.00">&#45;</text>
<text text-anchor="start" x="16" y="-92.9" font-family="Consolas" font-size="12.00">Vector2 CalculateNodeEdge</text>
<text text-anchor="start" x="16" y="-79.9" font-family="Consolas" font-size="12.00">Position(Vector2 nodeCenter,</text>
<text text-anchor="start" x="16" y="-66.9" font-family="Consolas" font-size="12.00"> Vector2 direction, float</text>
<text text-anchor="start" x="16" y="-53.9" font-family="Consolas" font-size="12.00"> halfWidth, float halfHeight)</text>
<text text-anchor="start" x="4" y="-36.9" font-family="Consolas" font-size="12.00">&#45;</text>
<text text-anchor="start" x="16" y="-36.9" font-family="Consolas" font-size="12.00">void ClearCurrentTree()</text>
<text text-anchor="start" x="4" y="-19.9" font-family="Consolas" font-size="12.00">&#45;</text>
<text text-anchor="start" x="16" y="-19.9" font-family="Consolas" font-size="12.00">void OnNodeClicked</text>
<text text-anchor="start" x="16" y="-6.9" font-family="Consolas" font-size="12.00">(EventNode node)</text>
<polygon fill="#666666" stroke="#666666" points="0,-797.5 0,-797.5 246,-797.5 246,-797.5 0,-797.5"/>
<polygon fill="#666666" stroke="#666666" points="0,-473.5 0,-473.5 14,-473.5 14,-473.5 0,-473.5"/>
<polygon fill="#666666" stroke="#666666" points="14,-473.5 14,-473.5 246,-473.5 246,-473.5 14,-473.5"/>
<polygon fill="none" stroke="#666666" points="0,0 0,-817 246,-817 246,0 0,0"/>
</a>
</g>
</g>
<!-- Node2 -->
<g id="Node000002" class="node">
<title>Node2</title>
<g id="a_Node000002"><a xlink:title=" ">
<polygon fill="white" stroke="transparent" points="177,-908 69,-908 69,-853 177,-853 177,-908"/>
<text text-anchor="start" x="74" y="-893.9" font-family="Consolas" font-size="12.00">MonoBehaviour</text>
<text text-anchor="start" x="119" y="-876.9" font-family="Consolas" font-size="12.00"> </text>
<text text-anchor="start" x="119" y="-859.9" font-family="Consolas" font-size="12.00"> </text>
<polygon fill="#bfbfbf" stroke="#bfbfbf" points="69,-888.5 69,-888.5 177,-888.5 177,-888.5 69,-888.5"/>
<polygon fill="#bfbfbf" stroke="#bfbfbf" points="69,-871.5 69,-871.5 177,-871.5 177,-871.5 69,-871.5"/>
<polygon fill="none" stroke="#bfbfbf" points="69,-853 69,-908 177,-908 177,-853 69,-853"/>
</a>
</g>
</g>
<!-- Node2&#45;&gt;Node1 -->
<g id="edge1_Node000001_Node000002" class="edge">
<title>Node2&#45;&gt;Node1</title>
<g id="a_edge1_Node000001_Node000002"><a xlink:title=" ">
<path fill="none" stroke="#63b8ff" d="M123,-842.85C123,-835.28 123,-826.7 123,-817.31"/>
<polygon fill="none" stroke="#63b8ff" points="119.5,-842.88 123,-852.88 126.5,-842.88 119.5,-842.88"/>
</a>
</g>
</g>
</g>
</svg>

<g id="navigator" transform="translate(0 0)" fill="#404254">
  <rect fill="#f2f5e9" fill-opacity="0.5" stroke="#606060" stroke-width=".5" x="0" y="0" width="60" height="60"/>
  <use id="zoomplus" xlink:href="#zoomPlus" x="17" y="9" onmousedown="handleZoom(evt,'in')"/>
  <use id="zoomminus" xlink:href="#zoomMin" x="42" y="9" onmousedown="handleZoom(evt,'out')"/>
  <use id="reset" xlink:href="#resetDef" x="30" y="36" onmousedown="handleReset()"/>
   <use id="arrowup" xlink:href="#arrowUp" x="0" y="0" onmousedown="handlePan(0,-1)"/>
  <use id="arrowright" xlink:href="#arrowRight" x="0" y="0" onmousedown="handlePan(1,0)"/>
  <use id="arrowdown" xlink:href="#arrowDown" x="0" y="0" onmousedown="handlePan(0,1)"/>
  <use id="arrowleft" xlink:href="#arrowLeft" x="0" y="0" onmousedown="handlePan(-1,0)"/>
</g>
<svg viewBox="0 0 15 15" width="100%" height="30px" preserveAspectRatio="xMaxYMin meet">
 <g id="arrow_out" transform="scale(0.3 0.3)">
  <a xlink:href="classEventTreeMap__coll__graph_org.svg" target="_base">
   <rect id="button" ry="5" rx="5" y="6" x="6" height="38" width="38"
        fill="#f2f5e9" fill-opacity="0.5" stroke="#606060" stroke-width="1.0"/>
   <path id="arrow"
     d="M 11.500037,31.436501 C 11.940474,20.09759 22.043105,11.32322 32.158766,21.979434 L 37.068811,17.246167 C 37.068811,17.246167 37.088388,32 37.088388,32 L 22.160133,31.978069 C 22.160133,31.978069 26.997745,27.140456 26.997745,27.140456 C 18.528582,18.264221 13.291696,25.230495 11.500037,31.436501 z"
     style="fill:#404040;"/>
  </a>
 </g>
</svg>

<style type='text/css'>
<![CDATA[
[data-mouse-over-selected='false'] { opacity: 0.7; }
[data-mouse-over-selected='true']  { opacity: 1.0; }
]]>
</style>
<script type="application/ecmascript"><![CDATA[
document.addEventListener('DOMContentLoaded', (event) => {
  highlightEdges();
  highlightAdjacentNodes();
});
]]></script>
</svg>
