<?xml version="1.0" encoding="UTF-8" standalone="no"?>
<!DOCTYPE svg PUBLIC "-//W3C//DTD SVG 1.1//EN"
 "http://www.w3.org/Graphics/SVG/1.1/DTD/svg11.dtd">
<!-- Generated by graphviz version 2.43.0 (0)
 -->
<!-- Title: CustomizeShipUIHandler Pages: 1 -->
<svg width="276pt" height="678pt"
 viewBox="0.00 0.00 276.00 678.00" xmlns="http://www.w3.org/2000/svg" xmlns:xlink="http://www.w3.org/1999/xlink">
<g id="graph0" class="graph" transform="scale(1 1) rotate(0) translate(4 674)">
<title>CustomizeShipUIHandler</title>
<!-- Node1 -->
<g id="Node000001" class="node">
<title>Node1</title>
<g id="a_Node000001"><a xlink:title="함선 커스터마이징 UI를 제어하는 핸들러. UI 전환, 모듈 배치, 저장 및 취소 기능을 관리합니다.">
<polygon fill="#999999" stroke="transparent" points="268,-579 0,-579 0,0 268,0 268,-579"/>
<text text-anchor="start" x="51" y="-564.9" font-family="Consolas" font-size="12.00">CustomizeShipUIHandler</text>
<text text-anchor="start" x="4" y="-547.9" font-family="Consolas" font-size="12.00">+</text>
<text text-anchor="start" x="16" y="-547.9" font-family="Consolas" font-size="12.00">GameObject customizeUI</text>
<text text-anchor="start" x="4" y="-530.9" font-family="Consolas" font-size="12.00">+</text>
<text text-anchor="start" x="16" y="-530.9" font-family="Consolas" font-size="12.00">GameObject gridTiles</text>
<text text-anchor="start" x="4" y="-513.9" font-family="Consolas" font-size="12.00">+</text>
<text text-anchor="start" x="16" y="-513.9" font-family="Consolas" font-size="12.00">Button buildButton</text>
<text text-anchor="start" x="4" y="-496.9" font-family="Consolas" font-size="12.00">+</text>
<text text-anchor="start" x="16" y="-496.9" font-family="Consolas" font-size="12.00">TMP_Text feedbackText</text>
<text text-anchor="start" x="4" y="-479.9" font-family="Consolas" font-size="12.00">+</text>
<text text-anchor="start" x="16" y="-479.9" font-family="Consolas" font-size="12.00">TMP_Text currency</text>
<text text-anchor="start" x="4" y="-462.9" font-family="Consolas" font-size="12.00">+</text>
<text text-anchor="start" x="16" y="-462.9" font-family="Consolas" font-size="12.00">TMP_Text originShipCost</text>
<text text-anchor="start" x="4" y="-445.9" font-family="Consolas" font-size="12.00">+</text>
<text text-anchor="start" x="16" y="-445.9" font-family="Consolas" font-size="12.00">TMP_Text totalCostText</text>
<text text-anchor="start" x="4" y="-428.9" font-family="Consolas" font-size="12.00">+</text>
<text text-anchor="start" x="16" y="-428.9" font-family="Consolas" font-size="12.00">Ship playerShip</text>
<text text-anchor="start" x="4" y="-411.9" font-family="Consolas" font-size="12.00">+</text>
<text text-anchor="start" x="16" y="-411.9" font-family="Consolas" font-size="12.00">GridPlacer gridPlacer</text>
<text text-anchor="start" x="4" y="-394.9" font-family="Consolas" font-size="12.00">+</text>
<text text-anchor="start" x="16" y="-394.9" font-family="Consolas" font-size="12.00">BlueprintShip targetBlueprintShip</text>
<text text-anchor="start" x="4" y="-377.9" font-family="Consolas" font-size="12.00">&#45;</text>
<text text-anchor="start" x="16" y="-377.9" font-family="Consolas" font-size="12.00">int originalShipCost</text>
<text text-anchor="start" x="4" y="-360.9" font-family="Consolas" font-size="12.00">&#45;</text>
<text text-anchor="start" x="16" y="-360.9" font-family="Consolas" font-size="12.00">ValidationResult validation</text>
<text text-anchor="start" x="16" y="-347.9" font-family="Consolas" font-size="12.00">Result</text>
<text text-anchor="start" x="4" y="-330.9" font-family="Consolas" font-size="12.00">&#45;</text>
<text text-anchor="start" x="16" y="-330.9" font-family="Consolas" font-size="12.00">int totalBPCost</text>
<text text-anchor="start" x="4" y="-313.9" font-family="Consolas" font-size="12.00">&#45;</text>
<text text-anchor="start" x="16" y="-313.9" font-family="Consolas" font-size="12.00">Coroutine flashCoroutine</text>
<text text-anchor="start" x="4" y="-296.9" font-family="Consolas" font-size="12.00">&#45;</text>
<text text-anchor="start" x="16" y="-296.9" font-family="Consolas" font-size="12.00">Color? originButtonColor</text>
<text text-anchor="start" x="4" y="-279.9" font-family="Consolas" font-size="12.00">+</text>
<text text-anchor="start" x="16" y="-279.9" font-family="Consolas" font-size="12.00">void OnClickBuild()</text>
<text text-anchor="start" x="4" y="-262.9" font-family="Consolas" font-size="12.00">+</text>
<text text-anchor="start" x="16" y="-262.9" font-family="Consolas" font-size="12.00">void OnClickClear()</text>
<text text-anchor="start" x="4" y="-245.9" font-family="Consolas" font-size="12.00">&#45;</text>
<text text-anchor="start" x="16" y="-245.9" font-family="Consolas" font-size="12.00">void Update()</text>
<text text-anchor="start" x="4" y="-228.9" font-family="Consolas" font-size="12.00">&#45;</text>
<text text-anchor="start" x="16" y="-228.9" font-family="Consolas" font-size="12.00">void OnEnable()</text>
<text text-anchor="start" x="4" y="-211.9" font-family="Consolas" font-size="12.00">&#45;</text>
<text text-anchor="start" x="16" y="-211.9" font-family="Consolas" font-size="12.00">void OnDisable()</text>
<text text-anchor="start" x="4" y="-194.9" font-family="Consolas" font-size="12.00">&#45;</text>
<text text-anchor="start" x="16" y="-194.9" font-family="Consolas" font-size="12.00">void DisableCrews()</text>
<text text-anchor="start" x="4" y="-177.9" font-family="Consolas" font-size="12.00">&#45;</text>
<text text-anchor="start" x="16" y="-177.9" font-family="Consolas" font-size="12.00">void EnableCrews()</text>
<text text-anchor="start" x="4" y="-160.9" font-family="Consolas" font-size="12.00">&#45;</text>
<text text-anchor="start" x="16" y="-160.9" font-family="Consolas" font-size="12.00">void CenterCameraToBP()</text>
<text text-anchor="start" x="4" y="-143.9" font-family="Consolas" font-size="12.00">&#45;</text>
<text text-anchor="start" x="16" y="-143.9" font-family="Consolas" font-size="12.00">void ResetCameraToOrigin</text>
<text text-anchor="start" x="16" y="-130.9" font-family="Consolas" font-size="12.00">Ship()</text>
<text text-anchor="start" x="4" y="-113.9" font-family="Consolas" font-size="12.00">&#45;</text>
<text text-anchor="start" x="16" y="-113.9" font-family="Consolas" font-size="12.00">void GetSavedBPRooms()</text>
<text text-anchor="start" x="4" y="-96.9" font-family="Consolas" font-size="12.00">&#45;</text>
<text text-anchor="start" x="16" y="-96.9" font-family="Consolas" font-size="12.00">void GetSavedWeaponRooms()</text>
<text text-anchor="start" x="4" y="-79.9" font-family="Consolas" font-size="12.00">&#45;</text>
<text text-anchor="start" x="16" y="-79.9" font-family="Consolas" font-size="12.00">void SaveBPRoomsandDestroy()</text>
<text text-anchor="start" x="4" y="-62.9" font-family="Consolas" font-size="12.00">&#45;</text>
<text text-anchor="start" x="16" y="-62.9" font-family="Consolas" font-size="12.00">void SetPlayerShipColliders</text>
<text text-anchor="start" x="16" y="-49.9" font-family="Consolas" font-size="12.00">Active(bool active)</text>
<text text-anchor="start" x="4" y="-32.9" font-family="Consolas" font-size="12.00">&#45;</text>
<text text-anchor="start" x="16" y="-32.9" font-family="Consolas" font-size="12.00">IEnumerator FlashBuildButton</text>
<text text-anchor="start" x="16" y="-19.9" font-family="Consolas" font-size="12.00">Color(Color flashColor,</text>
<text text-anchor="start" x="16" y="-6.9" font-family="Consolas" font-size="12.00"> float duration)</text>
<polygon fill="#666666" stroke="#666666" points="0,-559.5 0,-559.5 268,-559.5 268,-559.5 0,-559.5"/>
<polygon fill="#666666" stroke="#666666" points="0,-291.5 0,-291.5 14,-291.5 14,-291.5 0,-291.5"/>
<polygon fill="#666666" stroke="#666666" points="14,-291.5 14,-291.5 268,-291.5 268,-291.5 14,-291.5"/>
<polygon fill="none" stroke="#666666" points="0,0 0,-579 268,-579 268,0 0,0"/>
</a>
</g>
</g>
<!-- Node2 -->
<g id="Node000002" class="node">
<title>Node2</title>
<g id="a_Node000002"><a xlink:title=" ">
<polygon fill="white" stroke="transparent" points="188,-670 80,-670 80,-615 188,-615 188,-670"/>
<text text-anchor="start" x="85" y="-655.9" font-family="Consolas" font-size="12.00">MonoBehaviour</text>
<text text-anchor="start" x="130" y="-638.9" font-family="Consolas" font-size="12.00"> </text>
<text text-anchor="start" x="130" y="-621.9" font-family="Consolas" font-size="12.00"> </text>
<polygon fill="#bfbfbf" stroke="#bfbfbf" points="80,-650.5 80,-650.5 188,-650.5 188,-650.5 80,-650.5"/>
<polygon fill="#bfbfbf" stroke="#bfbfbf" points="80,-633.5 80,-633.5 188,-633.5 188,-633.5 80,-633.5"/>
<polygon fill="none" stroke="#bfbfbf" points="80,-615 80,-670 188,-670 188,-615 80,-615"/>
</a>
</g>
</g>
<!-- Node2&#45;&gt;Node1 -->
<g id="edge1_Node000001_Node000002" class="edge">
<title>Node2&#45;&gt;Node1</title>
<g id="a_edge1_Node000001_Node000002"><a xlink:title=" ">
<path fill="none" stroke="#63b8ff" d="M134,-604.69C134,-597.04 134,-588.42 134,-579.06"/>
<polygon fill="none" stroke="#63b8ff" points="130.5,-604.83 134,-614.83 137.5,-604.83 130.5,-604.83"/>
</a>
</g>
</g>
</g>
</svg>
