<?xml version="1.0" encoding="UTF-8" standalone="no"?>
<!DOCTYPE svg PUBLIC "-//W3C//DTD SVG 1.1//EN"
 "http://www.w3.org/Graphics/SVG/1.1/DTD/svg11.dtd">
<!-- Generated by graphviz version 2.43.0 (0)
 -->
<!-- Title: RoomData.GetTypedRoomData Pages: 1 -->
<svg width="707pt" height="394pt"
 viewBox="0.00 0.00 707.00 393.50" xmlns="http://www.w3.org/2000/svg" xmlns:xlink="http://www.w3.org/1999/xlink">
<g id="graph0" class="graph" transform="scale(1 1) rotate(0) translate(4 389.5)">
<title>RoomData.GetTypedRoomData</title>
<!-- Node1 -->
<g id="Node000001" class="node">
<title>Node1</title>
<g id="a_Node000001"><a xlink:title="제네릭 타입으로 명확하게 캐스팅된 RoomLevel 데이터를 반환합니다.">
<polygon fill="#999999" stroke="#666666" points="699,-209.5 495,-209.5 495,-188.5 699,-188.5 699,-209.5"/>
<text text-anchor="middle" x="597" y="-195.9" font-family="Consolas" font-size="12.00">RoomData.GetTypedRoomData</text>
</a>
</g>
</g>
<!-- Node2 -->
<g id="Node000002" class="node">
<title>Node2</title>
<g id="a_Node000002"><a xlink:href="classRoomData.html#a00b57e4ed23ddfeb9665caa90e9a94f3" target="_top" xlink:title="주어진 레벨에 해당하는 RoomLevel 데이터를 반환합니다.">
<polygon fill="white" stroke="#666666" points="429,-385.5 210,-385.5 210,-364.5 429,-364.5 429,-385.5"/>
<text text-anchor="middle" x="319.5" y="-371.9" font-family="Consolas" font-size="12.00">RoomData.GetRoomDataByLevel</text>
</a>
</g>
</g>
<!-- Node1&#45;&gt;Node2 -->
<g id="edge1_Node000001_Node000002" class="edge">
<title>Node1&#45;&gt;Node2</title>
<g id="a_edge1_Node000001_Node000002"><a xlink:title=" ">
<path fill="none" stroke="#63b8ff" d="M585.22,-218.79C565.32,-253.2 519.27,-323.48 459,-356 449.71,-361.01 439.58,-364.87 429.16,-367.82"/>
<polygon fill="#63b8ff" stroke="#63b8ff" points="588.47,-220.15 590.34,-209.72 582.38,-216.71 588.47,-220.15"/>
</a>
</g>
</g>
<!-- Node3 -->
<g id="Node000003" class="node">
<title>Node3</title>
<g id="a_Node000003"><a xlink:href="classAmmunitionRoom.html#a012c56f5c2f19743ed9cf120aefb8309" target="_top" xlink:title="이 방이 함선의 스탯에 기여하는 수치를 계산합니다. 작동 상태 및 손상 정도에 따라 기여도가 달라집니다.">
<polygon fill="white" stroke="#666666" points="459,-346.5 180,-346.5 180,-325.5 459,-325.5 459,-346.5"/>
<text text-anchor="middle" x="319.5" y="-332.9" font-family="Consolas" font-size="12.00">AmmunitionRoom.GetStatContributions</text>
</a>
</g>
</g>
<!-- Node1&#45;&gt;Node3 -->
<g id="edge2_Node000001_Node000003" class="edge">
<title>Node1&#45;&gt;Node3</title>
<g id="a_edge2_Node000001_Node000003"><a xlink:title=" ">
<path fill="none" stroke="#63b8ff" d="M580.75,-217.67C557.56,-244.62 510.64,-293.71 459,-317 451.59,-320.34 443.74,-323.14 435.71,-325.47"/>
<polygon fill="#63b8ff" stroke="#63b8ff" points="583.64,-219.66 587.42,-209.76 578.29,-215.15 583.64,-219.66"/>
</a>
</g>
</g>
<!-- Node4 -->
<g id="Node000004" class="node">
<title>Node4</title>
<g id="a_Node000004"><a xlink:href="classCockpitRoom.html#af833aa863276c6bc42615c39a355c313" target="_top" xlink:title="이 방이 함선 스탯에 기여하는 값을 계산합니다. 손상 정도에 따라 기여 수치가 달라집니다.">
<polygon fill="white" stroke="#666666" points="448,-307.5 191,-307.5 191,-286.5 448,-286.5 448,-307.5"/>
<text text-anchor="middle" x="319.5" y="-293.9" font-family="Consolas" font-size="12.00">CockpitRoom.GetStatContributions</text>
</a>
</g>
</g>
<!-- Node1&#45;&gt;Node4 -->
<g id="edge3_Node000001_Node000004" class="edge">
<title>Node1&#45;&gt;Node4</title>
<g id="a_edge3_Node000001_Node000004"><a xlink:title=" ">
<path fill="none" stroke="#63b8ff" d="M573.7,-215.53C547.61,-233.96 502.45,-263.13 459,-278 449.13,-281.38 438.66,-284.16 428.08,-286.45"/>
<polygon fill="#63b8ff" stroke="#63b8ff" points="576.01,-218.18 582.09,-209.5 571.93,-212.49 576.01,-218.18"/>
</a>
</g>
</g>
<!-- Node5 -->
<g id="Node000005" class="node">
<title>Node5</title>
<g id="a_Node000005"><a xlink:href="classEngineRoom.html#a9fc4568124314c8f33d8a34835f94839" target="_top" xlink:title="이 방이 함선 스탯에 기여하는 값을 계산합니다. 작동 상태 및 손상 정도에 따라 수치가 조정됩니다.">
<polygon fill="white" stroke="#666666" points="444,-268.5 195,-268.5 195,-247.5 444,-247.5 444,-268.5"/>
<text text-anchor="middle" x="319.5" y="-254.9" font-family="Consolas" font-size="12.00">EngineRoom.GetStatContributions</text>
</a>
</g>
</g>
<!-- Node1&#45;&gt;Node5 -->
<g id="edge4_Node000001_Node000005" class="edge">
<title>Node1&#45;&gt;Node5</title>
<g id="a_edge4_Node000001_Node000005"><a xlink:title=" ">
<path fill="none" stroke="#63b8ff" d="M554.91,-212.72C527.91,-221.31 491.66,-232.03 459,-239 443.69,-242.27 427.3,-245.09 411.35,-247.49"/>
<polygon fill="#63b8ff" stroke="#63b8ff" points="556.33,-215.94 564.78,-209.55 554.19,-209.28 556.33,-215.94"/>
</a>
</g>
</g>
<!-- Node6 -->
<g id="Node000006" class="node">
<title>Node6</title>
<g id="a_Node000006"><a xlink:href="classMedBayRoom.html#a75a59c7fa045fb29df402c27871a8757" target="_top" xlink:title="이 방이 함선 스탯에 기여하는 값을 계산합니다. 작동 상태 및 손상 정도에 따라 회복량과 전력 사용량이 조정됩니다.">
<polygon fill="white" stroke="#666666" points="444,-229.5 195,-229.5 195,-208.5 444,-208.5 444,-229.5"/>
<text text-anchor="middle" x="319.5" y="-215.9" font-family="Consolas" font-size="12.00">MedBayRoom.GetStatContributions</text>
</a>
</g>
</g>
<!-- Node1&#45;&gt;Node6 -->
<g id="edge5_Node000001_Node000006" class="edge">
<title>Node1&#45;&gt;Node6</title>
<g id="a_edge5_Node000001_Node000006"><a xlink:title=" ">
<path fill="none" stroke="#63b8ff" d="M484.88,-207.07C471.58,-208.03 457.93,-209.02 444.46,-210"/>
<polygon fill="#63b8ff" stroke="#63b8ff" points="485.26,-210.55 494.98,-206.33 484.75,-203.57 485.26,-210.55"/>
</a>
</g>
</g>
<!-- Node8 -->
<g id="Node000008" class="node">
<title>Node8</title>
<g id="a_Node000008"><a xlink:href="classOxygenRoom.html#a103b113ef388bb74136d5e69602ea653" target="_top" xlink:title="이 방이 함선 스탯에 기여하는 값을 계산합니다. 작동 여부 및 손상 상태에 따라 산소 생성량과 전력 소비량이 조정됩니다.">
<polygon fill="white" stroke="#666666" points="444,-190.5 195,-190.5 195,-169.5 444,-169.5 444,-190.5"/>
<text text-anchor="middle" x="319.5" y="-176.9" font-family="Consolas" font-size="12.00">OxygenRoom.GetStatContributions</text>
</a>
</g>
</g>
<!-- Node1&#45;&gt;Node8 -->
<g id="edge7_Node000001_Node000008" class="edge">
<title>Node1&#45;&gt;Node8</title>
<g id="a_edge7_Node000001_Node000008"><a xlink:title=" ">
<path fill="none" stroke="#63b8ff" d="M484.88,-191.34C471.58,-190.42 457.93,-189.48 444.46,-188.55"/>
<polygon fill="#63b8ff" stroke="#63b8ff" points="484.76,-194.84 494.98,-192.03 485.24,-187.85 484.76,-194.84"/>
</a>
</g>
</g>
<!-- Node9 -->
<g id="Node000009" class="node">
<title>Node9</title>
<g id="a_Node000009"><a xlink:href="classPowerRoom.html#ad9c7015d49b585675a4da437c37d413d" target="_top" xlink:title="이 방이 함선 스탯에 기여하는 값을 계산합니다. 작동 여부 및 손상 상태에 따라 전력 생산량이 달라집니다.">
<polygon fill="white" stroke="#666666" points="440.5,-151.5 198.5,-151.5 198.5,-130.5 440.5,-130.5 440.5,-151.5"/>
<text text-anchor="middle" x="319.5" y="-137.9" font-family="Consolas" font-size="12.00">PowerRoom.GetStatContributions</text>
</a>
</g>
</g>
<!-- Node1&#45;&gt;Node9 -->
<g id="edge8_Node000001_Node000009" class="edge">
<title>Node1&#45;&gt;Node9</title>
<g id="a_edge8_Node000001_Node000009"><a xlink:title=" ">
<path fill="none" stroke="#63b8ff" d="M552.68,-185.46C525.9,-177.48 490.7,-167.66 459,-161 441.76,-157.38 423.18,-154.21 405.4,-151.52"/>
<polygon fill="#63b8ff" stroke="#63b8ff" points="551.93,-188.89 562.51,-188.43 553.95,-182.19 551.93,-188.89"/>
</a>
</g>
</g>
<!-- Node10 -->
<g id="Node000010" class="node">
<title>Node10</title>
<g id="a_Node000010"><a xlink:href="classShieldRoom.html#a0e069dba29de8d01cf788925860bd76c" target="_top" xlink:title="이 방이 함선 스탯에 기여하는 값을 계산합니다. 작동 여부 및 손상 상태에 따라 배리어 관련 수치가 조정됩니다.">
<polygon fill="white" stroke="#666666" points="444,-112.5 195,-112.5 195,-91.5 444,-91.5 444,-112.5"/>
<text text-anchor="middle" x="319.5" y="-98.9" font-family="Consolas" font-size="12.00">ShieldRoom.GetStatContributions</text>
</a>
</g>
</g>
<!-- Node1&#45;&gt;Node10 -->
<g id="edge9_Node000001_Node000010" class="edge">
<title>Node1&#45;&gt;Node10</title>
<g id="a_edge9_Node000001_Node000010"><a xlink:title=" ">
<path fill="none" stroke="#63b8ff" d="M572.76,-182.38C546.48,-164.45 501.75,-136.53 459,-122 447.73,-118.17 435.7,-115.07 423.61,-112.57"/>
<polygon fill="#63b8ff" stroke="#63b8ff" points="571.05,-185.45 581.26,-188.27 575.03,-179.69 571.05,-185.45"/>
</a>
</g>
</g>
<!-- Node11 -->
<g id="Node000011" class="node">
<title>Node11</title>
<g id="a_Node000011"><a xlink:href="classTeleportRoom.html#a8e8196e6aa87b8c720c3b8b413cbcfda" target="_top" xlink:title="이 방이 함선 스탯에 기여하는 값을 계산합니다. 전력 사용량이 포함되며, 손상 시 단계별 기여도 감소 또는 작동 불능 처리됩니다.">
<polygon fill="white" stroke="#666666" points="451.5,-73.5 187.5,-73.5 187.5,-52.5 451.5,-52.5 451.5,-73.5"/>
<text text-anchor="middle" x="319.5" y="-59.9" font-family="Consolas" font-size="12.00">TeleportRoom.GetStatContributions</text>
</a>
</g>
</g>
<!-- Node1&#45;&gt;Node11 -->
<g id="edge10_Node000001_Node000011" class="edge">
<title>Node1&#45;&gt;Node11</title>
<g id="a_edge10_Node000001_Node000011"><a xlink:title=" ">
<path fill="none" stroke="#63b8ff" d="M580.65,-180.69C557.35,-154.27 510.29,-106.09 459,-83 450.58,-79.21 441.61,-76.11 432.44,-73.56"/>
<polygon fill="#63b8ff" stroke="#63b8ff" points="578.17,-183.18 587.36,-188.45 583.47,-178.6 578.17,-183.18"/>
</a>
</g>
</g>
<!-- Node12 -->
<g id="Node000012" class="node">
<title>Node12</title>
<g id="a_Node000012"><a xlink:href="classWeaponControlRoom.html#afc42aa6a0418c1e6276ea271414baf17" target="_top" xlink:title="이 방이 함선 스탯에 기여하는 값을 계산합니다. 작동 상태 및 손상 정도에 따라 전력 사용량과 명중률 보너스가 달라집니다.">
<polygon fill="white" stroke="#666666" points="421.5,-34 217.5,-34 217.5,0 421.5,0 421.5,-34"/>
<text text-anchor="start" x="225.5" y="-20.4" font-family="Consolas" font-size="12.00">WeaponControlRoom.GetStat</text>
<text text-anchor="middle" x="319.5" y="-7.4" font-family="Consolas" font-size="12.00">Contributions</text>
</a>
</g>
</g>
<!-- Node1&#45;&gt;Node12 -->
<g id="edge11_Node000001_Node000012" class="edge">
<title>Node1&#45;&gt;Node12</title>
<g id="a_edge11_Node000001_Node000012"><a xlink:title=" ">
<path fill="none" stroke="#63b8ff" d="M584.67,-179.32C564.22,-145.7 517.73,-77.61 459,-44 447.52,-37.43 434.72,-32.43 421.67,-28.63"/>
<polygon fill="#63b8ff" stroke="#63b8ff" points="581.83,-181.39 589.96,-188.2 587.85,-177.81 581.83,-181.39"/>
</a>
</g>
</g>
<!-- Node7 -->
<g id="Node000007" class="node">
<title>Node7</title>
<g id="a_Node000007"><a xlink:href="classMedBayRoom.html#abbbb914b1e061f0d720012883375a24d" target="_top" xlink:title="매 프레임마다 방의 상태를 업데이트합니다.">
<polygon fill="white" stroke="#666666" points="144,-229.5 0,-229.5 0,-208.5 144,-208.5 144,-229.5"/>
<text text-anchor="middle" x="72" y="-215.9" font-family="Consolas" font-size="12.00">MedBayRoom.Update</text>
</a>
</g>
</g>
<!-- Node6&#45;&gt;Node7 -->
<g id="edge6_Node000006_Node000007" class="edge">
<title>Node6&#45;&gt;Node7</title>
<g id="a_edge6_Node000006_Node000007"><a xlink:title=" ">
<path fill="none" stroke="#63b8ff" d="M184.56,-219C170.71,-219 157.05,-219 144.29,-219"/>
<polygon fill="#63b8ff" stroke="#63b8ff" points="184.67,-222.5 194.67,-219 184.67,-215.5 184.67,-222.5"/>
</a>
</g>
</g>
</g>
</svg>
