<?xml version="1.0" encoding="UTF-8" standalone="no"?>
<!DOCTYPE svg PUBLIC "-//W3C//DTD SVG 1.1//EN"
 "http://www.w3.org/Graphics/SVG/1.1/DTD/svg11.dtd">
<!-- Generated by graphviz version 2.43.0 (0)
 -->
<!-- Title: ShipTemplateSaver Pages: 1 -->
<svg width="284pt" height="747pt"
 viewBox="0.00 0.00 284.00 747.00" xmlns="http://www.w3.org/2000/svg" xmlns:xlink="http://www.w3.org/1999/xlink">
<g id="graph0" class="graph" transform="scale(1 1) rotate(0) translate(4 743)">
<title>ShipTemplateSaver</title>
<!-- Node1 -->
<g id="Node000001" class="node">
<title>Node1</title>
<g id="a_Node000001"><a xlink:title="Ship 템플릿을 저장하고 관리하는 클래스. ShipSerialization 유틸리티를 활용하여 블루프린트를 Ship으로 변환 후 저장합니다.">
<polygon fill="#999999" stroke="transparent" points="276,-648 0,-648 0,0 276,0 276,-648"/>
<text text-anchor="start" x="74" y="-634.4" font-family="Consolas" font-size="12.00">ShipTemplateSaver</text>
<text text-anchor="start" x="4" y="-617.4" font-family="Consolas" font-size="12.00">+</text>
<text text-anchor="start" x="16" y="-617.4" font-family="Consolas" font-size="12.00">TMP_InputField templateName</text>
<text text-anchor="start" x="16" y="-604.4" font-family="Consolas" font-size="12.00">Input</text>
<text text-anchor="start" x="4" y="-587.4" font-family="Consolas" font-size="12.00">+</text>
<text text-anchor="start" x="16" y="-587.4" font-family="Consolas" font-size="12.00">TMP_Text feedbackText</text>
<text text-anchor="start" x="4" y="-570.4" font-family="Consolas" font-size="12.00">+</text>
<text text-anchor="start" x="16" y="-570.4" font-family="Consolas" font-size="12.00">Button saveButton</text>
<text text-anchor="start" x="4" y="-553.4" font-family="Consolas" font-size="12.00">+</text>
<text text-anchor="start" x="16" y="-553.4" font-family="Consolas" font-size="12.00">BlueprintShip targetBlueprintShip</text>
<text text-anchor="start" x="4" y="-536.4" font-family="Consolas" font-size="12.00">+</text>
<text text-anchor="start" x="16" y="-536.4" font-family="Consolas" font-size="12.00">Ship playerShip</text>
<text text-anchor="start" x="4" y="-519.4" font-family="Consolas" font-size="12.00">+</text>
<text text-anchor="start" x="16" y="-519.4" font-family="Consolas" font-size="12.00">GridPlacer gridPlacer</text>
<text text-anchor="start" x="4" y="-502.4" font-family="Consolas" font-size="12.00">+</text>
<text text-anchor="start" x="16" y="-502.4" font-family="Consolas" font-size="12.00">GameObject templateListPanel</text>
<text text-anchor="start" x="4" y="-485.4" font-family="Consolas" font-size="12.00">+</text>
<text text-anchor="start" x="16" y="-485.4" font-family="Consolas" font-size="12.00">Transform templateListContent</text>
<text text-anchor="start" x="4" y="-468.4" font-family="Consolas" font-size="12.00">+</text>
<text text-anchor="start" x="16" y="-468.4" font-family="Consolas" font-size="12.00">GameObject templateItemPrefab</text>
<text text-anchor="start" x="4" y="-451.4" font-family="Consolas" font-size="12.00">+</text>
<text text-anchor="start" x="16" y="-451.4" font-family="Consolas" font-size="12.00">Button listButton</text>
<text text-anchor="start" x="4" y="-434.4" font-family="Consolas" font-size="12.00">+</text>
<text text-anchor="start" x="16" y="-434.4" font-family="Consolas" font-size="12.00">Button closeListButton</text>
<text text-anchor="start" x="4" y="-417.4" font-family="Consolas" font-size="12.00">+</text>
<text text-anchor="start" x="16" y="-417.4" font-family="Consolas" font-size="12.00">Button refreshButton</text>
<text text-anchor="start" x="4" y="-400.4" font-family="Consolas" font-size="12.00">&#45;</text>
<text text-anchor="start" x="16" y="-400.4" font-family="Consolas" font-size="12.00">readonly string template</text>
<text text-anchor="start" x="16" y="-387.4" font-family="Consolas" font-size="12.00">SavePath</text>
<text text-anchor="start" x="4" y="-370.4" font-family="Consolas" font-size="12.00">&#45;</text>
<text text-anchor="start" x="16" y="-370.4" font-family="Consolas" font-size="12.00">List&lt; GameObject &gt;</text>
<text text-anchor="start" x="16" y="-357.4" font-family="Consolas" font-size="12.00"> activeTemplateItems</text>
<text text-anchor="start" x="4" y="-340.4" font-family="Consolas" font-size="12.00">+</text>
<text text-anchor="start" x="16" y="-340.4" font-family="Consolas" font-size="12.00">void SaveShipTemplate()</text>
<text text-anchor="start" x="4" y="-323.4" font-family="Consolas" font-size="12.00">+</text>
<text text-anchor="start" x="16" y="-323.4" font-family="Consolas" font-size="12.00">void ShowTemplateList()</text>
<text text-anchor="start" x="4" y="-306.4" font-family="Consolas" font-size="12.00">+</text>
<text text-anchor="start" x="16" y="-306.4" font-family="Consolas" font-size="12.00">void HideTemplateList()</text>
<text text-anchor="start" x="4" y="-289.4" font-family="Consolas" font-size="12.00">+</text>
<text text-anchor="start" x="16" y="-289.4" font-family="Consolas" font-size="12.00">void RefreshTemplateList()</text>
<text text-anchor="start" x="4" y="-272.4" font-family="Consolas" font-size="12.00">+</text>
<text text-anchor="start" x="16" y="-272.4" font-family="Consolas" font-size="12.00">void LoadTemplate(string</text>
<text text-anchor="start" x="16" y="-259.4" font-family="Consolas" font-size="12.00"> templateName)</text>
<text text-anchor="start" x="4" y="-242.4" font-family="Consolas" font-size="12.00">+</text>
<text text-anchor="start" x="16" y="-242.4" font-family="Consolas" font-size="12.00">void DeleteTemplate</text>
<text text-anchor="start" x="16" y="-229.4" font-family="Consolas" font-size="12.00">(string templateName)</text>
<text text-anchor="start" x="4" y="-212.4" font-family="Consolas" font-size="12.00">&#45;</text>
<text text-anchor="start" x="16" y="-212.4" font-family="Consolas" font-size="12.00">void Start()</text>
<text text-anchor="start" x="4" y="-195.4" font-family="Consolas" font-size="12.00">&#45;</text>
<text text-anchor="start" x="16" y="-195.4" font-family="Consolas" font-size="12.00">void EnsureTemplateSaveDirectory()</text>
<text text-anchor="start" x="4" y="-178.4" font-family="Consolas" font-size="12.00">&#45;</text>
<text text-anchor="start" x="16" y="-178.4" font-family="Consolas" font-size="12.00">void OnTemplateNameChanged</text>
<text text-anchor="start" x="16" y="-165.4" font-family="Consolas" font-size="12.00">(string newName)</text>
<text text-anchor="start" x="4" y="-148.4" font-family="Consolas" font-size="12.00">&#45;</text>
<text text-anchor="start" x="16" y="-148.4" font-family="Consolas" font-size="12.00">void UpdateSaveButtonState()</text>
<text text-anchor="start" x="4" y="-131.4" font-family="Consolas" font-size="12.00">&#45;</text>
<text text-anchor="start" x="16" y="-131.4" font-family="Consolas" font-size="12.00">void Update()</text>
<text text-anchor="start" x="4" y="-114.4" font-family="Consolas" font-size="12.00">&#45;</text>
<text text-anchor="start" x="16" y="-114.4" font-family="Consolas" font-size="12.00">string GetTemplateFilePath</text>
<text text-anchor="start" x="16" y="-101.4" font-family="Consolas" font-size="12.00">(string templateName)</text>
<text text-anchor="start" x="4" y="-84.4" font-family="Consolas" font-size="12.00">&#45;</text>
<text text-anchor="start" x="16" y="-84.4" font-family="Consolas" font-size="12.00">void ClearTemplateList()</text>
<text text-anchor="start" x="4" y="-67.4" font-family="Consolas" font-size="12.00">&#45;</text>
<text text-anchor="start" x="16" y="-67.4" font-family="Consolas" font-size="12.00">void AddTemplateItem</text>
<text text-anchor="start" x="16" y="-54.4" font-family="Consolas" font-size="12.00">(string templateName)</text>
<text text-anchor="start" x="4" y="-37.4" font-family="Consolas" font-size="12.00">&#45;</text>
<text text-anchor="start" x="16" y="-37.4" font-family="Consolas" font-size="12.00">void ShowFeedback(string</text>
<text text-anchor="start" x="16" y="-24.4" font-family="Consolas" font-size="12.00"> message)</text>
<text text-anchor="start" x="4" y="-7.4" font-family="Consolas" font-size="12.00">&#45;</text>
<text text-anchor="start" x="16" y="-7.4" font-family="Consolas" font-size="12.00">void ClearFeedback()</text>
<polygon fill="#666666" stroke="#666666" points="0,-629 0,-629 276,-629 276,-629 0,-629"/>
<polygon fill="#666666" stroke="#666666" points="0,-352 0,-352 14,-352 14,-352 0,-352"/>
<polygon fill="#666666" stroke="#666666" points="14,-352 14,-352 276,-352 276,-352 14,-352"/>
<polygon fill="none" stroke="#666666" points="0,0 0,-648 276,-648 276,0 0,0"/>
</a>
</g>
</g>
<!-- Node2 -->
<g id="Node000002" class="node">
<title>Node2</title>
<g id="a_Node000002"><a xlink:title=" ">
<polygon fill="white" stroke="transparent" points="192,-739 84,-739 84,-684 192,-684 192,-739"/>
<text text-anchor="start" x="89" y="-724.9" font-family="Consolas" font-size="12.00">MonoBehaviour</text>
<text text-anchor="start" x="134" y="-707.9" font-family="Consolas" font-size="12.00"> </text>
<text text-anchor="start" x="134" y="-690.9" font-family="Consolas" font-size="12.00"> </text>
<polygon fill="#bfbfbf" stroke="#bfbfbf" points="84,-719.5 84,-719.5 192,-719.5 192,-719.5 84,-719.5"/>
<polygon fill="#bfbfbf" stroke="#bfbfbf" points="84,-702.5 84,-702.5 192,-702.5 192,-702.5 84,-702.5"/>
<polygon fill="none" stroke="#bfbfbf" points="84,-684 84,-739 192,-739 192,-684 84,-684"/>
</a>
</g>
</g>
<!-- Node2&#45;&gt;Node1 -->
<g id="edge1_Node000001_Node000002" class="edge">
<title>Node2&#45;&gt;Node1</title>
<g id="a_edge1_Node000001_Node000002"><a xlink:title=" ">
<path fill="none" stroke="#63b8ff" d="M138,-673.67C138,-666.1 138,-657.58 138,-648.29"/>
<polygon fill="none" stroke="#63b8ff" points="134.5,-673.7 138,-683.7 141.5,-673.7 134.5,-673.7"/>
</a>
</g>
</g>
</g>
</svg>
