<?xml version="1.0" encoding="UTF-8" standalone="no"?>
<!DOCTYPE svg PUBLIC "-//W3C//DTD SVG 1.1//EN"
 "http://www.w3.org/Graphics/SVG/1.1/DTD/svg11.dtd">
<!-- Generated by graphviz version 2.43.0 (0)
 -->
<!-- Title: EquipmentUIHandler.OnEquipmentIconSelected Pages: 1 -->
<svg width="775pt" height="101pt"
 viewBox="0.00 0.00 775.00 100.50" xmlns="http://www.w3.org/2000/svg" xmlns:xlink="http://www.w3.org/1999/xlink">
<g id="graph0" class="graph" transform="scale(1 1) rotate(0) translate(4 96.5)">
<title>EquipmentUIHandler.OnEquipmentIconSelected</title>
<!-- Node1 -->
<g id="Node000001" class="node">
<title>Node1</title>
<g id="a_Node000001"><a xlink:title="장비 선택됨 (장비 착용, 미착용 등 스텟 비교)">
<polygon fill="#999999" stroke="#666666" points="242,-80 0,-80 0,-46 242,-46 242,-80"/>
<text text-anchor="start" x="8" y="-66.4" font-family="Consolas" font-size="12.00">EquipmentUIHandler.OnEquipment</text>
<text text-anchor="middle" x="121" y="-53.4" font-family="Consolas" font-size="12.00">IconSelected</text>
</a>
</g>
</g>
<!-- Node2 -->
<g id="Node000002" class="node">
<title>Node2</title>
<g id="a_Node000002"><a xlink:href="classCrewMember.html#a4eba19a797d1f5b3bcaa0c36b695f245" target="_top" xlink:title="현재 선원의 스텟 반환">
<polygon fill="white" stroke="#666666" points="767,-92.5 548,-92.5 548,-71.5 767,-71.5 767,-92.5"/>
<text text-anchor="middle" x="657.5" y="-78.9" font-family="Consolas" font-size="12.00">CrewMember.GetCombinedStats</text>
</a>
</g>
</g>
<!-- Node1&#45;&gt;Node2 -->
<g id="edge1_Node000001_Node000002" class="edge">
<title>Node1&#45;&gt;Node2</title>
<g id="a_edge1_Node000001_Node000002"><a xlink:title=" ">
<path fill="none" stroke="#63b8ff" d="M242.36,-79.99C254.38,-81.22 266.42,-82.26 278,-83 381.79,-89.63 408,-83.36 512,-83 520.29,-82.97 528.86,-82.93 537.48,-82.89"/>
<polygon fill="#63b8ff" stroke="#63b8ff" points="537.64,-86.39 547.62,-82.83 537.6,-79.39 537.64,-86.39"/>
</a>
</g>
</g>
<!-- Node3 -->
<g id="Node000003" class="node">
<title>Node3</title>
<g id="a_Node000003"><a xlink:href="classCrewMember.html#ab51adc771fd75a9ee2d1f53e218e77c8" target="_top" xlink:title="새로운 장비 착용 시뮬레이션">
<polygon fill="white" stroke="#666666" points="512,-73.5 278,-73.5 278,-52.5 512,-52.5 512,-73.5"/>
<text text-anchor="middle" x="395" y="-59.9" font-family="Consolas" font-size="12.00">CrewMember.GetStatsIfEquipped</text>
</a>
</g>
</g>
<!-- Node1&#45;&gt;Node3 -->
<g id="edge2_Node000001_Node000003" class="edge">
<title>Node1&#45;&gt;Node3</title>
<g id="a_edge2_Node000001_Node000003"><a xlink:title=" ">
<path fill="none" stroke="#63b8ff" d="M242.09,-63C250.49,-63 258.97,-63 267.4,-63"/>
<polygon fill="#63b8ff" stroke="#63b8ff" points="267.66,-66.5 277.66,-63 267.66,-59.5 267.66,-66.5"/>
</a>
</g>
</g>
<!-- Node4 -->
<g id="Node000004" class="node">
<title>Node4</title>
<g id="a_Node000004"><a xlink:href="classEquipmentUIHandler.html#af1f5826004fd514cfd3b974c7b32d8b1" target="_top" xlink:title="장비 착용 / 해제 비교">
<polygon fill="white" stroke="#666666" points="504.5,-34 285.5,-34 285.5,0 504.5,0 504.5,-34"/>
<text text-anchor="start" x="293.5" y="-20.4" font-family="Consolas" font-size="12.00">EquipmentUIHandler.ShowStat</text>
<text text-anchor="middle" x="395" y="-7.4" font-family="Consolas" font-size="12.00">Comparison</text>
</a>
</g>
</g>
<!-- Node1&#45;&gt;Node4 -->
<g id="edge4_Node000001_Node000004" class="edge">
<title>Node1&#45;&gt;Node4</title>
<g id="a_edge4_Node000001_Node000004"><a xlink:title=" ">
<path fill="none" stroke="#63b8ff" d="M222.9,-45.94C242.56,-42.61 263.27,-39.11 283.22,-35.73"/>
<polygon fill="#63b8ff" stroke="#63b8ff" points="283.99,-39.15 293.27,-34.04 282.82,-32.25 283.99,-39.15"/>
</a>
</g>
</g>
<!-- Node3&#45;&gt;Node2 -->
<g id="edge3_Node000003_Node000002" class="edge">
<title>Node3&#45;&gt;Node2</title>
<g id="a_edge3_Node000003_Node000002"><a xlink:title=" ">
<path fill="none" stroke="#63b8ff" d="M512.16,-71.47C520.55,-72.08 529.02,-72.7 537.43,-73.32"/>
<polygon fill="#63b8ff" stroke="#63b8ff" points="537.41,-76.82 547.64,-74.06 537.92,-69.84 537.41,-76.82"/>
</a>
</g>
</g>
</g>
</svg>
