<?xml version="1.0" encoding="UTF-8" standalone="no"?>
<!DOCTYPE svg PUBLIC "-//W3C//DTD SVG 1.1//EN"
 "http://www.w3.org/Graphics/SVG/1.1/DTD/svg11.dtd">
<!-- Generated by graphviz version 2.43.0 (0)
 -->
<!-- Title: InventoryUI Pages: 1 -->
<!--zoomable 929 -->

<svg id="main" version="1.1" xmlns="http://www.w3.org/2000/svg" xmlns:xlink="http://www.w3.org/1999/xlink" xml:space="preserve" onload="init(evt)">
<style type="text/css"><![CDATA[
.node, .edge {opacity: 0.7;}
.node.selected, .edge.selected {opacity: 1;}
.edge:hover path { stroke: red; }
.edge:hover polygon { stroke: red; fill: red; }
]]></style>

<defs>
  <circle id="rim" cx="0" cy="0" r="7"/>
  <circle id="rim2" cx="0" cy="0" r="3.5"/>
  <g id="zoomPlus">
    <use xlink:href="#rim" fill="#404040"><set attributeName="fill" to="#808080" begin="zoomplus.mouseover" end="zoomplus.mouseout"/></use>
    <path d="M-4,0h8M0,-4v8" fill="none" stroke="white" stroke-width="1.5" pointer-events="none"/>
  </g>
  <g id="zoomMin">
    <use xlink:href="#rim" fill="#404040"><set attributeName="fill" to="#808080" begin="zoomminus.mouseover" end="zoomminus.mouseout"/></use>
    <path d="M-4,0h8" fill="none" stroke="white" stroke-width="1.5" pointer-events="none"/>
  </g>
  <g id="arrowUp" transform="translate(30 24)">
    <use xlink:href="#rim"/>
    <path pointer-events="none" fill="none" stroke="white" stroke-width="1.5" d="M0,-3.0v7 M-2.5,-0.5L0,-3.0L2.5,-0.5"/>
  </g>
  <g id="arrowRight" transform="rotate(90) translate(36 -43)">
    <use xlink:href="#rim"/>
    <path pointer-events="none" fill="none" stroke="white" stroke-width="1.5" d="M0,-3.0v7 M-2.5,-0.5L0,-3.0L2.5,-0.5"/>
  </g>
  <g id="arrowDown" transform="rotate(180) translate(-30 -48)">
    <use xlink:href="#rim"/>
    <path pointer-events="none" fill="none" stroke="white" stroke-width="1.5" d="M0,-3.0v7 M-2.5,-0.5L0,-3.0L2.5,-0.5"/>
  </g>
  <g id="arrowLeft" transform="rotate(270) translate(-36 17)">
    <use xlink:href="#rim"/>
    <path pointer-events="none" fill="none" stroke="white" stroke-width="1.5" d="M0,-3.0v7 M-2.5,-0.5L0,-3.0L2.5,-0.5"/>
  </g>
  <g id="resetDef">
    <use xlink:href="#rim2" fill="#404040"><set attributeName="fill" to="#808080" begin="reset.mouseover" end="reset.mouseout"/></use>
  </g>
</defs>
<script type="application/ecmascript">
var viewWidth = 478;
var viewHeight = 929;
var sectionId = 'dynsection-1';
</script>
<script type="application/ecmascript" xlink:href="svg.min.js"/>
<svg id="graph" class="graph">
<g id="viewport">
<title>InventoryUI</title>
<!-- Node1 -->
<g id="Node000001" class="node">
<title>Node1</title>
<g id="a_Node000001"><a xlink:title="InventoryUI는 스크롤 뷰의 콘텐츠 패널에 인벤토리 아이템 UI를 동적으로 생성하고 관리하는 클래스입니다.">
<polygon fill="#999999" stroke="transparent" points="231,-132 0,-132 0,0 231,0 231,-132"/>
<text text-anchor="start" x="74.5" y="-118.4" font-family="Consolas" font-size="12.00">InventoryUI</text>
<text text-anchor="start" x="4.5" y="-101.4" font-family="Consolas" font-size="12.00">&#45;</text>
<text text-anchor="start" x="16.5" y="-101.4" font-family="Consolas" font-size="12.00">Transform contentPanel</text>
<text text-anchor="start" x="4.5" y="-84.4" font-family="Consolas" font-size="12.00">&#45;</text>
<text text-anchor="start" x="16.5" y="-84.4" font-family="Consolas" font-size="12.00">GameObject inventoryItem</text>
<text text-anchor="start" x="16.5" y="-71.4" font-family="Consolas" font-size="12.00">Prefab</text>
<text text-anchor="start" x="4.5" y="-54.4" font-family="Consolas" font-size="12.00">+</text>
<text text-anchor="start" x="16.5" y="-54.4" font-family="Consolas" font-size="12.00">void PopulateInventory</text>
<text text-anchor="start" x="16.5" y="-41.4" font-family="Consolas" font-size="12.00">(bool makeInteractable=true)</text>
<text text-anchor="start" x="4.5" y="-24.4" font-family="Consolas" font-size="12.00">+</text>
<text text-anchor="start" x="16.5" y="-24.4" font-family="Consolas" font-size="12.00">void CloseSelfPanel()</text>
<text text-anchor="start" x="4.5" y="-7.4" font-family="Consolas" font-size="12.00">&#45;</text>
<text text-anchor="start" x="16.5" y="-7.4" font-family="Consolas" font-size="12.00">void Start()</text>
<polygon fill="#666666" stroke="#666666" points="0.5,-113 0.5,-113 231.5,-113 231.5,-113 0.5,-113"/>
<polygon fill="#666666" stroke="#666666" points="0.5,-66 0.5,-66 14.5,-66 14.5,-66 0.5,-66"/>
<polygon fill="#666666" stroke="#666666" points="14.5,-66 14.5,-66 231.5,-66 231.5,-66 14.5,-66"/>
<polygon fill="none" stroke="#666666" points="0,0 0,-132 231,-132 231,0 0,0"/>
</a>
</g>
</g>
<!-- Node2 -->
<g id="Node000002" class="node">
<title>Node2</title>
<g id="a_Node000002"><a xlink:title=" ">
<polygon fill="white" stroke="transparent" points="153.5,-741 45.5,-741 45.5,-686 153.5,-686 153.5,-741"/>
<text text-anchor="start" x="50.5" y="-726.9" font-family="Consolas" font-size="12.00">MonoBehaviour</text>
<text text-anchor="start" x="95.5" y="-709.9" font-family="Consolas" font-size="12.00"> </text>
<text text-anchor="start" x="95.5" y="-692.9" font-family="Consolas" font-size="12.00"> </text>
<polygon fill="#bfbfbf" stroke="#bfbfbf" points="45.5,-721.5 45.5,-721.5 153.5,-721.5 153.5,-721.5 45.5,-721.5"/>
<polygon fill="#bfbfbf" stroke="#bfbfbf" points="45.5,-704.5 45.5,-704.5 153.5,-704.5 153.5,-704.5 45.5,-704.5"/>
<polygon fill="none" stroke="#bfbfbf" points="45.5,-686 45.5,-741 153.5,-741 153.5,-686 45.5,-686"/>
</a>
</g>
</g>
<!-- Node2&#45;&gt;Node1 -->
<g id="edge1_Node000001_Node000002" class="edge">
<title>Node2&#45;&gt;Node1</title>
<g id="a_edge1_Node000001_Node000002"><a xlink:title=" ">
<path fill="none" stroke="#63b8ff" d="M100.41,-675.87C103.02,-570.66 110.55,-266.51 113.89,-132.14"/>
<polygon fill="none" stroke="#63b8ff" points="96.91,-675.91 100.16,-685.99 103.9,-676.08 96.91,-675.91"/>
</a>
</g>
</g>
<!-- Node3 -->
<g id="Node000003" class="node">
<title>Node3</title>
<g id="a_Node000003"><a xlink:href="classStorage.html" target="_top" xlink:title="Storage는 플레이어가 보유한 무역 아이템을 관리하는 클래스입니다. 아이템은 itemId(int)를 키로 사용하여 TradingItemData,...">
<polygon fill="white" stroke="transparent" points="359,-547 128,-547 128,-183 359,-183 359,-547"/>
<text text-anchor="start" x="217.5" y="-533.4" font-family="Consolas" font-size="12.00">Storage</text>
<text text-anchor="start" x="132.5" y="-516.4" font-family="Consolas" font-size="12.00">+</text>
<text text-anchor="start" x="144.5" y="-516.4" font-family="Consolas" font-size="12.00">static Storage Instance</text>
<text text-anchor="start" x="132.5" y="-499.4" font-family="Consolas" font-size="12.00">&#45;</text>
<text text-anchor="start" x="144.5" y="-499.4" font-family="Consolas" font-size="12.00">Dictionary&lt; int, StoredItem</text>
<text text-anchor="start" x="144.5" y="-486.4" font-family="Consolas" font-size="12.00"> &gt; storedItems</text>
<text text-anchor="start" x="132.5" y="-469.4" font-family="Consolas" font-size="12.00">+</text>
<text text-anchor="start" x="144.5" y="-469.4" font-family="Consolas" font-size="12.00">bool CanAddItem(TradingItem</text>
<text text-anchor="start" x="144.5" y="-456.4" font-family="Consolas" font-size="12.00">Data itemData, int quantity)</text>
<text text-anchor="start" x="132.5" y="-439.4" font-family="Consolas" font-size="12.00">+</text>
<text text-anchor="start" x="144.5" y="-439.4" font-family="Consolas" font-size="12.00">bool AddItem(TradingItem</text>
<text text-anchor="start" x="144.5" y="-426.4" font-family="Consolas" font-size="12.00">Data itemData, int quantity)</text>
<text text-anchor="start" x="132.5" y="-409.4" font-family="Consolas" font-size="12.00">+</text>
<text text-anchor="start" x="144.5" y="-409.4" font-family="Consolas" font-size="12.00">bool AddItem(TradingItem</text>
<text text-anchor="start" x="144.5" y="-396.4" font-family="Consolas" font-size="12.00">Data itemData, int quantity,</text>
<text text-anchor="start" x="144.5" y="-383.4" font-family="Consolas" font-size="12.00"> float purchasePrice)</text>
<text text-anchor="start" x="132.5" y="-366.4" font-family="Consolas" font-size="12.00">+</text>
<text text-anchor="start" x="144.5" y="-366.4" font-family="Consolas" font-size="12.00">bool RemoveItem(TradingItem</text>
<text text-anchor="start" x="144.5" y="-353.4" font-family="Consolas" font-size="12.00">Data itemData, int quantity)</text>
<text text-anchor="start" x="132.5" y="-336.4" font-family="Consolas" font-size="12.00">+</text>
<text text-anchor="start" x="144.5" y="-336.4" font-family="Consolas" font-size="12.00">bool HasItem(TradingItem</text>
<text text-anchor="start" x="144.5" y="-323.4" font-family="Consolas" font-size="12.00">Data itemData, int quantity)</text>
<text text-anchor="start" x="132.5" y="-306.4" font-family="Consolas" font-size="12.00">+</text>
<text text-anchor="start" x="144.5" y="-306.4" font-family="Consolas" font-size="12.00">int GetItemQuantity</text>
<text text-anchor="start" x="144.5" y="-293.4" font-family="Consolas" font-size="12.00">(TradingItemData itemData)</text>
<text text-anchor="start" x="132.5" y="-276.4" font-family="Consolas" font-size="12.00">+</text>
<text text-anchor="start" x="144.5" y="-276.4" font-family="Consolas" font-size="12.00">int GetItemQuantityById</text>
<text text-anchor="start" x="144.5" y="-263.4" font-family="Consolas" font-size="12.00">(string targetId)</text>
<text text-anchor="start" x="132.5" y="-246.4" font-family="Consolas" font-size="12.00">+</text>
<text text-anchor="start" x="144.5" y="-246.4" font-family="Consolas" font-size="12.00">List&lt;(TradingItemData</text>
<text text-anchor="start" x="144.5" y="-233.4" font-family="Consolas" font-size="12.00"> itemData, int quantity,</text>
<text text-anchor="start" x="144.5" y="-220.4" font-family="Consolas" font-size="12.00"> float purchasePrice)&gt;</text>
<text text-anchor="start" x="144.5" y="-207.4" font-family="Consolas" font-size="12.00"> GetAllItems()</text>
<text text-anchor="start" x="132.5" y="-190.4" font-family="Consolas" font-size="12.00">&#45;</text>
<text text-anchor="start" x="144.5" y="-190.4" font-family="Consolas" font-size="12.00">void Awake()</text>
<polygon fill="#666666" stroke="#666666" points="128.5,-528 128.5,-528 359.5,-528 359.5,-528 128.5,-528"/>
<polygon fill="#666666" stroke="#666666" points="128.5,-481 128.5,-481 142.5,-481 142.5,-481 128.5,-481"/>
<polygon fill="#666666" stroke="#666666" points="142.5,-481 142.5,-481 359.5,-481 359.5,-481 142.5,-481"/>
<polygon fill="none" stroke="#666666" points="128,-183 128,-547 359,-547 359,-183 128,-183"/>
</a>
</g>
</g>
<!-- Node2&#45;&gt;Node3 -->
<g id="edge3_Node000003_Node000002" class="edge">
<title>Node2&#45;&gt;Node3</title>
<g id="a_edge3_Node000003_Node000002"><a xlink:title=" ">
<path fill="none" stroke="#63b8ff" d="M114.56,-676.25C127.67,-644.71 147.73,-596.45 168.14,-547.33"/>
<polygon fill="none" stroke="#63b8ff" points="111.17,-675.31 110.56,-685.89 117.63,-677.99 111.17,-675.31"/>
</a>
</g>
</g>
<!-- Node3&#45;&gt;Node1 -->
<g id="edge2_Node000001_Node000003" class="edge">
<title>Node3&#45;&gt;Node1</title>
<g id="a_edge2_Node000001_Node000003"><a xlink:title=" ">
<path fill="none" stroke="#63b8ff" d="M165.35,-182.68C159.46,-168.99 153.73,-155.7 148.38,-143.29"/>
<polygon fill="none" stroke="#63b8ff" points="148.33,-143.19 142.29,-139.26 143.59,-132.17 149.63,-136.09 148.33,-143.19"/>
</a>
</g>
<text text-anchor="middle" x="194" y="-153.8" font-family="Consolas" font-size="14.00" fill="grey"> &#45;storage</text>
</g>
<!-- Node4 -->
<g id="Node000004" class="node">
<title>Node4</title>
<g id="a_Node000004"><a xlink:href="classTradingItemDataBase.html" target="_top" xlink:title=" ">
<polygon fill="white" stroke="transparent" points="469.5,-829 171.5,-829 171.5,-598 469.5,-598 469.5,-829"/>
<text text-anchor="start" x="249" y="-814.9" font-family="Consolas" font-size="12.00">TradingItemDataBase</text>
<text text-anchor="start" x="175.5" y="-797.9" font-family="Consolas" font-size="12.00">+</text>
<text text-anchor="start" x="187.5" y="-797.9" font-family="Consolas" font-size="12.00">List&lt; TradingItemData</text>
<text text-anchor="start" x="187.5" y="-784.9" font-family="Consolas" font-size="12.00"> &gt; allItems</text>
<text text-anchor="start" x="175.5" y="-767.9" font-family="Consolas" font-size="12.00">&#45;</text>
<text text-anchor="start" x="187.5" y="-767.9" font-family="Consolas" font-size="12.00">Dictionary&lt; int, Trading</text>
<text text-anchor="start" x="187.5" y="-754.9" font-family="Consolas" font-size="12.00">ItemData &gt; itemDictionary</text>
<text text-anchor="start" x="175.5" y="-737.9" font-family="Consolas" font-size="12.00">+</text>
<text text-anchor="start" x="187.5" y="-737.9" font-family="Consolas" font-size="12.00">void InitializeDictionary()</text>
<text text-anchor="start" x="175.5" y="-720.9" font-family="Consolas" font-size="12.00">+</text>
<text text-anchor="start" x="187.5" y="-720.9" font-family="Consolas" font-size="12.00">TradingItemData GetItemData</text>
<text text-anchor="start" x="187.5" y="-707.9" font-family="Consolas" font-size="12.00">(int id)</text>
<text text-anchor="start" x="175.5" y="-690.9" font-family="Consolas" font-size="12.00">+</text>
<text text-anchor="start" x="187.5" y="-690.9" font-family="Consolas" font-size="12.00">List&lt; TradingItemData</text>
<text text-anchor="start" x="187.5" y="-677.9" font-family="Consolas" font-size="12.00"> &gt; GetItemsByPlanet(ItemPlanet</text>
<text text-anchor="start" x="187.5" y="-664.9" font-family="Consolas" font-size="12.00"> planetName)</text>
<text text-anchor="start" x="175.5" y="-647.9" font-family="Consolas" font-size="12.00">+</text>
<text text-anchor="start" x="187.5" y="-647.9" font-family="Consolas" font-size="12.00">List&lt; TradingItemData</text>
<text text-anchor="start" x="187.5" y="-634.9" font-family="Consolas" font-size="12.00"> &gt; GetItemsByTier(ItemTierLevel tier)</text>
<text text-anchor="start" x="175.5" y="-617.9" font-family="Consolas" font-size="12.00">+</text>
<text text-anchor="start" x="187.5" y="-617.9" font-family="Consolas" font-size="12.00">TradingItemData GetRandom</text>
<text text-anchor="start" x="187.5" y="-604.9" font-family="Consolas" font-size="12.00">Item()</text>
<polygon fill="#bfbfbf" stroke="#bfbfbf" points="171.5,-809.5 171.5,-809.5 469.5,-809.5 469.5,-809.5 171.5,-809.5"/>
<polygon fill="#bfbfbf" stroke="#bfbfbf" points="171.5,-749.5 171.5,-749.5 185.5,-749.5 185.5,-749.5 171.5,-749.5"/>
<polygon fill="#bfbfbf" stroke="#bfbfbf" points="185.5,-749.5 185.5,-749.5 469.5,-749.5 469.5,-749.5 185.5,-749.5"/>
<polygon fill="none" stroke="#bfbfbf" points="171.5,-598 171.5,-829 469.5,-829 469.5,-598 171.5,-598"/>
</a>
</g>
</g>
<!-- Node4&#45;&gt;Node3 -->
<g id="edge4_Node000003_Node000004" class="edge">
<title>Node4&#45;&gt;Node3</title>
<g id="a_edge4_Node000003_Node000004"><a xlink:title=" ">
<path fill="none" stroke="#63b8ff" d="M294.97,-597.6C292.2,-585.16 289.34,-572.26 286.44,-559.21"/>
<polygon fill="none" stroke="#63b8ff" points="286.37,-558.9 281.16,-553.91 283.76,-547.19 288.97,-552.18 286.37,-558.9"/>
</a>
</g>
<text text-anchor="middle" x="346.5" y="-568.8" font-family="Consolas" font-size="14.00" fill="grey"> &#45;itemDatabase</text>
</g>
<!-- Node5 -->
<g id="Node000005" class="node">
<title>Node5</title>
<g id="a_Node000005"><a xlink:title=" ">
<polygon fill="white" stroke="transparent" points="386,-921 255,-921 255,-866 386,-866 386,-921"/>
<text text-anchor="start" x="260.5" y="-906.9" font-family="Consolas" font-size="12.00">ScriptableObject</text>
<text text-anchor="start" x="317" y="-889.9" font-family="Consolas" font-size="12.00"> </text>
<text text-anchor="start" x="317" y="-872.9" font-family="Consolas" font-size="12.00"> </text>
<polygon fill="#bfbfbf" stroke="#bfbfbf" points="255.5,-901.5 255.5,-901.5 386.5,-901.5 386.5,-901.5 255.5,-901.5"/>
<polygon fill="#bfbfbf" stroke="#bfbfbf" points="255.5,-884.5 255.5,-884.5 386.5,-884.5 386.5,-884.5 255.5,-884.5"/>
<polygon fill="none" stroke="#bfbfbf" points="255,-866 255,-921 386,-921 386,-866 255,-866"/>
</a>
</g>
</g>
<!-- Node5&#45;&gt;Node4 -->
<g id="edge5_Node000004_Node000005" class="edge">
<title>Node5&#45;&gt;Node4</title>
<g id="a_edge5_Node000004_Node000005"><a xlink:title=" ">
<path fill="none" stroke="#63b8ff" d="M320.5,-855.77C320.5,-847.68 320.5,-838.7 320.5,-829.3"/>
<polygon fill="none" stroke="#63b8ff" points="317,-855.85 320.5,-865.85 324,-855.85 317,-855.85"/>
</a>
</g>
</g>
</g>
</svg>

<g id="navigator" transform="translate(0 0)" fill="#404254">
  <rect fill="#f2f5e9" fill-opacity="0.5" stroke="#606060" stroke-width=".5" x="0" y="0" width="60" height="60"/>
  <use id="zoomplus" xlink:href="#zoomPlus" x="17" y="9" onmousedown="handleZoom(evt,'in')"/>
  <use id="zoomminus" xlink:href="#zoomMin" x="42" y="9" onmousedown="handleZoom(evt,'out')"/>
  <use id="reset" xlink:href="#resetDef" x="30" y="36" onmousedown="handleReset()"/>
   <use id="arrowup" xlink:href="#arrowUp" x="0" y="0" onmousedown="handlePan(0,-1)"/>
  <use id="arrowright" xlink:href="#arrowRight" x="0" y="0" onmousedown="handlePan(1,0)"/>
  <use id="arrowdown" xlink:href="#arrowDown" x="0" y="0" onmousedown="handlePan(0,1)"/>
  <use id="arrowleft" xlink:href="#arrowLeft" x="0" y="0" onmousedown="handlePan(-1,0)"/>
</g>
<svg viewBox="0 0 15 15" width="100%" height="30px" preserveAspectRatio="xMaxYMin meet">
 <g id="arrow_out" transform="scale(0.3 0.3)">
  <a xlink:href="classInventoryUI__coll__graph_org.svg" target="_base">
   <rect id="button" ry="5" rx="5" y="6" x="6" height="38" width="38"
        fill="#f2f5e9" fill-opacity="0.5" stroke="#606060" stroke-width="1.0"/>
   <path id="arrow"
     d="M 11.500037,31.436501 C 11.940474,20.09759 22.043105,11.32322 32.158766,21.979434 L 37.068811,17.246167 C 37.068811,17.246167 37.088388,32 37.088388,32 L 22.160133,31.978069 C 22.160133,31.978069 26.997745,27.140456 26.997745,27.140456 C 18.528582,18.264221 13.291696,25.230495 11.500037,31.436501 z"
     style="fill:#404040;"/>
  </a>
 </g>
</svg>

<style type='text/css'>
<![CDATA[
[data-mouse-over-selected='false'] { opacity: 0.7; }
[data-mouse-over-selected='true']  { opacity: 1.0; }
]]>
</style>
<script type="application/ecmascript"><![CDATA[
document.addEventListener('DOMContentLoaded', (event) => {
  highlightEdges();
  highlightAdjacentNodes();
});
]]></script>
</svg>
