<?xml version="1.0" encoding="UTF-8" standalone="no"?>
<!DOCTYPE svg PUBLIC "-//W3C//DTD SVG 1.1//EN"
 "http://www.w3.org/Graphics/SVG/1.1/DTD/svg11.dtd">
<!-- Generated by graphviz version 2.43.0 (0)
 -->
<!-- Title: CrewMember.FollowPathCoroutine Pages: 1 -->
<svg width="513pt" height="68pt"
 viewBox="0.00 0.00 513.00 68.00" xmlns="http://www.w3.org/2000/svg" xmlns:xlink="http://www.w3.org/1999/xlink">
<g id="graph0" class="graph" transform="scale(1 1) rotate(0) translate(4 64)">
<title>CrewMember.FollowPathCoroutine</title>
<!-- Node1 -->
<g id="Node000001" class="node">
<title>Node1</title>
<g id="a_Node000001"><a xlink:title="경로를 따라 이동하는 코루틴">
<polygon fill="#999999" stroke="#666666" points="505,-40 263,-40 263,-19 505,-19 505,-40"/>
<text text-anchor="middle" x="384" y="-26.4" font-family="Consolas" font-size="12.00">CrewMember.FollowPathCoroutine</text>
</a>
</g>
</g>
<!-- Node2 -->
<g id="Node000002" class="node">
<title>Node2</title>
<g id="a_Node000002"><a xlink:href="classCrewMember.html#a66e77fbffb949a64534ac03233d3fc65" target="_top" xlink:title="이동 경로를 명시하고 이동 시작 이동 시작 시 기존 점유 타일 해제, 새로운 목적지 타일 점유 등록">
<polygon fill="white" stroke="#666666" points="227,-60 0,-60 0,-39 227,-39 227,-60"/>
<text text-anchor="middle" x="113.5" y="-46.4" font-family="Consolas" font-size="12.00">CrewMember.AssignPathAndMove</text>
</a>
</g>
</g>
<!-- Node1&#45;&gt;Node2 -->
<g id="edge1_Node000001_Node000002" class="edge">
<title>Node1&#45;&gt;Node2</title>
<g id="a_edge1_Node000001_Node000002"><a xlink:title=" ">
<path fill="none" stroke="#63b8ff" d="M252.84,-39.19C244.28,-39.83 235.68,-40.47 227.21,-41.1"/>
<polygon fill="#63b8ff" stroke="#63b8ff" points="253.17,-42.68 262.89,-38.45 252.65,-35.7 253.17,-42.68"/>
</a>
</g>
</g>
<!-- Node3 -->
<g id="Node000003" class="node">
<title>Node3</title>
<g id="a_Node000003"><a xlink:href="classCrewMember.html#a2472a8d09a844b219190039393a6a601" target="_top" xlink:title="이동 중 새로운 이동 명령 수신 시 이전 목적지 타일 점유 해제 (체력바 follow)">
<polygon fill="white" stroke="#666666" points="227,-21 0,-21 0,0 227,0 227,-21"/>
<text text-anchor="middle" x="113.5" y="-7.4" font-family="Consolas" font-size="12.00">CrewMember.CancelAndRedirect</text>
</a>
</g>
</g>
<!-- Node1&#45;&gt;Node3 -->
<g id="edge2_Node000001_Node000003" class="edge">
<title>Node1&#45;&gt;Node3</title>
<g id="a_edge2_Node000001_Node000003"><a xlink:title=" ">
<path fill="none" stroke="#63b8ff" d="M252.84,-20.29C244.28,-19.68 235.68,-19.08 227.21,-18.48"/>
<polygon fill="#63b8ff" stroke="#63b8ff" points="252.66,-23.79 262.89,-21 253.16,-16.8 252.66,-23.79"/>
</a>
</g>
</g>
</g>
</svg>
