<?xml version="1.0" encoding="UTF-8" standalone="no"?>
<!DOCTYPE svg PUBLIC "-//W3C//DTD SVG 1.1//EN"
 "http://www.w3.org/Graphics/SVG/1.1/DTD/svg11.dtd">
<!-- Generated by graphviz version 2.43.0 (0)
 -->
<!-- Title: ES3Editor.ReferencesWindow Pages: 1 -->
<svg width="224pt" height="312pt"
 viewBox="0.00 0.00 224.00 312.00" xmlns="http://www.w3.org/2000/svg" xmlns:xlink="http://www.w3.org/1999/xlink">

<svg id="main" version="1.1" xmlns="http://www.w3.org/2000/svg" xmlns:xlink="http://www.w3.org/1999/xlink" xml:space="preserve" onload="init(evt)">
<style type="text/css"><![CDATA[
.node, .edge {opacity: 0.7;}
.node.selected, .edge.selected {opacity: 1;}
.edge:hover path { stroke: red; }
.edge:hover polygon { stroke: red; fill: red; }
]]></style>
<script type="application/ecmascript" xlink:href="svg.min.js"/>
<svg id="graph" class="graph">
<g id="graph0" class="graph" transform="scale(1 1) rotate(0) translate(4 308)">
<title>ES3Editor.ReferencesWindow</title>
<!-- Node1 -->
<g id="Node000001" class="node">
<title>Node1</title>
<g id="a_Node000001"><a xlink:title=" ">
<polygon fill="#999999" stroke="transparent" points="211,-85 5,-85 5,0 211,0 211,-85"/>
<text text-anchor="start" x="10" y="-70.9" font-family="Consolas" font-size="12.00">ES3Editor.ReferencesWindow</text>
<text text-anchor="start" x="104" y="-53.9" font-family="Consolas" font-size="12.00"> </text>
<text text-anchor="start" x="12" y="-36.9" font-family="Consolas" font-size="12.00">+</text>
<text text-anchor="start" x="27" y="-36.9" font-family="Consolas" font-size="12.00">ReferencesWindow(Editor</text>
<text text-anchor="start" x="27" y="-23.9" font-family="Consolas" font-size="12.00">Window window)</text>
<text text-anchor="start" x="12" y="-6.9" font-family="Consolas" font-size="12.00">+</text>
<text text-anchor="start" x="27" y="-6.9" font-family="Consolas" font-size="12.00">override void OnGUI()</text>
<polygon fill="#666666" stroke="#666666" points="5,-65.5 5,-65.5 211,-65.5 211,-65.5 5,-65.5"/>
<polygon fill="#666666" stroke="#666666" points="5,-48.5 5,-48.5 211,-48.5 211,-48.5 5,-48.5"/>
<polygon fill="none" stroke="#666666" points="5,0 5,-85 211,-85 211,0 5,0"/>
</a>
</g>
</g>
<!-- Node2 -->
<g id="Node000002" class="node">
<title>Node2</title>
<g id="a_Node000002"><a xlink:href="classES3Editor_1_1SubWindow.html" target="_top" xlink:title=" ">
<polygon fill="white" stroke="transparent" points="216,-304 0,-304 0,-121 216,-121 216,-304"/>
<text text-anchor="start" x="74" y="-289.9" font-family="Consolas" font-size="12.00">SubWindow</text>
<text text-anchor="start" x="4" y="-272.9" font-family="Consolas" font-size="12.00">+</text>
<text text-anchor="start" x="16" y="-272.9" font-family="Consolas" font-size="12.00">string name</text>
<text text-anchor="start" x="4" y="-255.9" font-family="Consolas" font-size="12.00">+</text>
<text text-anchor="start" x="16" y="-255.9" font-family="Consolas" font-size="12.00">EditorWindow parent</text>
<text text-anchor="start" x="4" y="-238.9" font-family="Consolas" font-size="12.00">+</text>
<text text-anchor="start" x="16" y="-238.9" font-family="Consolas" font-size="12.00">void OnGUI()</text>
<text text-anchor="start" x="4" y="-221.9" font-family="Consolas" font-size="12.00">+</text>
<text text-anchor="start" x="16" y="-221.9" font-family="Consolas" font-size="12.00">SubWindow(string name,</text>
<text text-anchor="start" x="16" y="-208.9" font-family="Consolas" font-size="12.00"> EditorWindow parent)</text>
<text text-anchor="start" x="4" y="-191.9" font-family="Consolas" font-size="12.00">+</text>
<text text-anchor="start" x="16" y="-191.9" font-family="Consolas" font-size="12.00">virtual void OnLostFocus()</text>
<text text-anchor="start" x="4" y="-174.9" font-family="Consolas" font-size="12.00">+</text>
<text text-anchor="start" x="16" y="-174.9" font-family="Consolas" font-size="12.00">virtual void OnFocus()</text>
<text text-anchor="start" x="4" y="-157.9" font-family="Consolas" font-size="12.00">+</text>
<text text-anchor="start" x="16" y="-157.9" font-family="Consolas" font-size="12.00">virtual void OnDestroy()</text>
<text text-anchor="start" x="4" y="-140.9" font-family="Consolas" font-size="12.00">+</text>
<text text-anchor="start" x="16" y="-140.9" font-family="Consolas" font-size="12.00">virtual void OnHierarchy</text>
<text text-anchor="start" x="16" y="-127.9" font-family="Consolas" font-size="12.00">Change()</text>
<polygon fill="#bfbfbf" stroke="#bfbfbf" points="0,-284.5 0,-284.5 216,-284.5 216,-284.5 0,-284.5"/>
<polygon fill="#bfbfbf" stroke="#bfbfbf" points="0,-250.5 0,-250.5 14,-250.5 14,-250.5 0,-250.5"/>
<polygon fill="#bfbfbf" stroke="#bfbfbf" points="14,-250.5 14,-250.5 216,-250.5 216,-250.5 14,-250.5"/>
<polygon fill="none" stroke="#bfbfbf" points="0,-121 0,-304 216,-304 216,-121 0,-121"/>
</a>
</g>
</g>
<!-- Node2&#45;&gt;Node1 -->
<g id="edge1_Node000001_Node000002" class="edge">
<title>Node2&#45;&gt;Node1</title>
<g id="a_edge1_Node000001_Node000002"><a xlink:title=" ">
<path fill="none" stroke="#63b8ff" d="M108,-110.54C108,-101.69 108,-93.1 108,-85.19"/>
<polygon fill="none" stroke="#63b8ff" points="104.5,-110.62 108,-120.62 111.5,-110.62 104.5,-110.62"/>
</a>
</g>
</g>
</g>
</svg>
</svg>

<style type='text/css'>
<![CDATA[
[data-mouse-over-selected='false'] { opacity: 0.7; }
[data-mouse-over-selected='true']  { opacity: 1.0; }
]]>
</style>
<script type="application/ecmascript"><![CDATA[
document.addEventListener('DOMContentLoaded', (event) => {
  highlightEdges();
  highlightAdjacentNodes();
});
]]></script>
</svg>
