<?xml version="1.0" encoding="UTF-8" standalone="no"?>
<!DOCTYPE svg PUBLIC "-//W3C//DTD SVG 1.1//EN"
 "http://www.w3.org/Graphics/SVG/1.1/DTD/svg11.dtd">
<!-- Generated by graphviz version 2.43.0 (0)
 -->
<!-- Title: BlueprintDragManager.StartRoomDrag Pages: 1 -->
<svg width="745pt" height="42pt"
 viewBox="0.00 0.00 745.00 42.00" xmlns="http://www.w3.org/2000/svg" xmlns:xlink="http://www.w3.org/1999/xlink">
<g id="graph0" class="graph" transform="scale(1 1) rotate(0) translate(4 38)">
<title>BlueprintDragManager.StartRoomDrag</title>
<!-- Node1 -->
<g id="Node000001" class="node">
<title>Node1</title>
<g id="a_Node000001"><a xlink:title="방 드래그 시작">
<polygon fill="#999999" stroke="#666666" points="737,-34 525,-34 525,0 737,0 737,-34"/>
<text text-anchor="start" x="533" y="-20.4" font-family="Consolas" font-size="12.00">BlueprintDragManager.Start</text>
<text text-anchor="middle" x="631" y="-7.4" font-family="Consolas" font-size="12.00">RoomDrag</text>
</a>
</g>
</g>
<!-- Node2 -->
<g id="Node000002" class="node">
<title>Node2</title>
<g id="a_Node000002"><a xlink:href="classBlueprintRoomDragHandler.html#acab88240f6dc197cf08fc6842585cb44" target="_top" xlink:title="드래그 시작 시 호출됨.">
<polygon fill="white" stroke="#666666" points="489,-34 285,-34 285,0 489,0 489,-34"/>
<text text-anchor="start" x="293" y="-20.4" font-family="Consolas" font-size="12.00">BlueprintRoomDragHandler.</text>
<text text-anchor="middle" x="387" y="-7.4" font-family="Consolas" font-size="12.00">StartDragging</text>
</a>
</g>
</g>
<!-- Node1&#45;&gt;Node2 -->
<g id="edge1_Node000001_Node000002" class="edge">
<title>Node1&#45;&gt;Node2</title>
<g id="a_edge1_Node000001_Node000002"><a xlink:title=" ">
<path fill="none" stroke="#63b8ff" d="M514.86,-17C506.28,-17 497.66,-17 489.17,-17"/>
<polygon fill="#63b8ff" stroke="#63b8ff" points="514.91,-20.5 524.91,-17 514.91,-13.5 514.91,-20.5"/>
</a>
</g>
</g>
<!-- Node3 -->
<g id="Node000003" class="node">
<title>Node3</title>
<g id="a_Node000003"><a xlink:href="classRoomInventoryButton.html#aa6093a1d936511467ea555b5b7dfa848" target="_top" xlink:title="드래그 시작">
<polygon fill="white" stroke="#666666" points="249,-27.5 0,-27.5 0,-6.5 249,-6.5 249,-27.5"/>
<text text-anchor="middle" x="124.5" y="-13.9" font-family="Consolas" font-size="12.00">RoomInventoryButton.OnBeginDrag</text>
</a>
</g>
</g>
<!-- Node2&#45;&gt;Node3 -->
<g id="edge2_Node000002_Node000003" class="edge">
<title>Node2&#45;&gt;Node3</title>
<g id="a_edge2_Node000002_Node000003"><a xlink:title=" ">
<path fill="none" stroke="#63b8ff" d="M274.67,-17C266.22,-17 257.66,-17 249.14,-17"/>
<polygon fill="#63b8ff" stroke="#63b8ff" points="274.91,-20.5 284.91,-17 274.91,-13.5 274.91,-20.5"/>
</a>
</g>
</g>
</g>
</svg>
