<?xml version="1.0" encoding="UTF-8" standalone="no"?>
<!DOCTYPE svg PUBLIC "-//W3C//DTD SVG 1.1//EN"
 "http://www.w3.org/Graphics/SVG/1.1/DTD/svg11.dtd">
<!-- Generated by graphviz version 2.43.0 (0)
 -->
<!-- Title: CrewMember.TeleportAfterDelay Pages: 1 -->
<svg width="978pt" height="342pt"
 viewBox="0.00 0.00 978.00 342.00" xmlns="http://www.w3.org/2000/svg" xmlns:xlink="http://www.w3.org/1999/xlink">
<g id="graph0" class="graph" transform="scale(1 1) rotate(0) translate(4 338)">
<title>CrewMember.TeleportAfterDelay</title>
<!-- Node1 -->
<g id="Node000001" class="node">
<title>Node1</title>
<g id="a_Node000001"><a xlink:title="딜레이 후 텔레포트 진행">
<polygon fill="#999999" stroke="#666666" points="197,-223.5 0,-223.5 0,-189.5 197,-189.5 197,-223.5"/>
<text text-anchor="start" x="8" y="-209.9" font-family="Consolas" font-size="12.00">CrewMember.TeleportAfter</text>
<text text-anchor="middle" x="98.5" y="-196.9" font-family="Consolas" font-size="12.00">Delay</text>
</a>
</g>
</g>
<!-- Node2 -->
<g id="Node000002" class="node">
<title>Node2</title>
<g id="a_Node000002"><a xlink:href="classShip.html#a8ced30f0d71c2a5cf333b3de23af48f2" target="_top" xlink:title="모든 룸 정보를 반환합니다.">
<polygon fill="white" stroke="#666666" points="400,-332 263,-332 263,-311 400,-311 400,-332"/>
<text text-anchor="middle" x="331.5" y="-318.4" font-family="Consolas" font-size="12.00">Ship.GetAllRooms</text>
</a>
</g>
</g>
<!-- Node1&#45;&gt;Node2 -->
<g id="edge1_Node000001_Node000002" class="edge">
<title>Node1&#45;&gt;Node2</title>
<g id="a_edge1_Node000001_Node000002"><a xlink:title=" ">
<path fill="none" stroke="#63b8ff" d="M118.27,-223.79C142.77,-245.38 187.87,-281.87 233,-301.5 239.28,-304.23 245.95,-306.6 252.75,-308.65"/>
<polygon fill="#63b8ff" stroke="#63b8ff" points="252.19,-312.12 262.76,-311.42 254.06,-305.38 252.19,-312.12"/>
</a>
</g>
</g>
<!-- Node3 -->
<g id="Node000003" class="node">
<title>Node3</title>
<g id="a_Node000003"><a xlink:href="classRoom.html#a08dfe5c5a797aacad22c29926b3482e4" target="_top" xlink:title="방의 우선순위 타일에 따른 그리드에서의 위치 반환 (회전각 적용)">
<polygon fill="white" stroke="#666666" points="430,-292.5 233,-292.5 233,-258.5 430,-258.5 430,-292.5"/>
<text text-anchor="start" x="241" y="-278.9" font-family="Consolas" font-size="12.00">Room.GetRotatedCrewEntry</text>
<text text-anchor="middle" x="331.5" y="-265.9" font-family="Consolas" font-size="12.00">GridPriority</text>
</a>
</g>
</g>
<!-- Node1&#45;&gt;Node3 -->
<g id="edge2_Node000001_Node000003" class="edge">
<title>Node1&#45;&gt;Node3</title>
<g id="a_edge2_Node000001_Node000003"><a xlink:title=" ">
<path fill="none" stroke="#63b8ff" d="M152.32,-223.58C176.8,-231.38 206.32,-240.61 233,-248.5 241.05,-250.88 249.49,-253.31 257.9,-255.7"/>
<polygon fill="#63b8ff" stroke="#63b8ff" points="257.16,-259.12 267.73,-258.46 259.05,-252.38 257.16,-259.12"/>
</a>
</g>
</g>
<!-- Node5 -->
<g id="Node000005" class="node">
<title>Node5</title>
<g id="a_Node000005"><a xlink:href="classCrewMember.html#a2a72214520c246d394664e2f4bf4a03c" target="_top" xlink:title="현재 선원이 탑승해 있는 함선이 선원의 모선인지 확인 (상대 배에 타있으면 false)">
<polygon fill="white" stroke="#666666" points="415,-240 248,-240 248,-219 415,-219 415,-240"/>
<text text-anchor="middle" x="331.5" y="-226.4" font-family="Consolas" font-size="12.00">CrewMember.IsOwnShip</text>
</a>
</g>
</g>
<!-- Node1&#45;&gt;Node5 -->
<g id="edge4_Node000001_Node000005" class="edge">
<title>Node1&#45;&gt;Node5</title>
<g id="a_edge4_Node000001_Node000005"><a xlink:title=" ">
<path fill="none" stroke="#63b8ff" d="M197.13,-216.22C210.57,-217.56 224.35,-218.93 237.7,-220.26"/>
<polygon fill="#63b8ff" stroke="#63b8ff" points="237.52,-223.76 247.82,-221.27 238.21,-216.79 237.52,-223.76"/>
</a>
</g>
</g>
<!-- Node6 -->
<g id="Node000006" class="node">
<title>Node6</title>
<g id="a_Node000006"><a xlink:href="classRTSSelectionManager.html#ad41f57db47b19c1fc53f8415a0ec46c3" target="_top" xlink:title="같은 방 내에 적이 있다면 공격 AI">
<polygon fill="white" stroke="#666666" points="430,-200.5 233,-200.5 233,-166.5 430,-166.5 430,-200.5"/>
<text text-anchor="start" x="241" y="-186.9" font-family="Consolas" font-size="12.00">RTSSelectionManager.Move</text>
<text text-anchor="middle" x="331.5" y="-173.9" font-family="Consolas" font-size="12.00">ForCombat</text>
</a>
</g>
</g>
<!-- Node1&#45;&gt;Node6 -->
<g id="edge5_Node000001_Node000006" class="edge">
<title>Node1&#45;&gt;Node6</title>
<g id="a_edge5_Node000001_Node000006"><a xlink:title=" ">
<path fill="none" stroke="#63b8ff" d="M197.13,-196.78C205.63,-195.93 214.25,-195.07 222.83,-194.22"/>
<polygon fill="#63b8ff" stroke="#63b8ff" points="223.25,-197.7 232.85,-193.22 222.55,-190.73 223.25,-197.7"/>
</a>
</g>
</g>
<!-- Node13 -->
<g id="Node000013" class="node">
<title>Node13</title>
<g id="a_Node000013"><a xlink:href="classRoom.html#a577bbc93f6479096f0d4bedd6cefc26e" target="_top" xlink:title="선원이 방에 진입할 때 호출됩니다.">
<polygon fill="white" stroke="#666666" points="400,-148 263,-148 263,-127 400,-127 400,-148"/>
<text text-anchor="middle" x="331.5" y="-134.4" font-family="Consolas" font-size="12.00">Room.OnCrewEnter</text>
</a>
</g>
</g>
<!-- Node1&#45;&gt;Node13 -->
<g id="edge13_Node000001_Node000013" class="edge">
<title>Node1&#45;&gt;Node13</title>
<g id="a_edge13_Node000001_Node000013"><a xlink:title=" ">
<path fill="none" stroke="#63b8ff" d="M141.06,-189.42C167.14,-179.16 201.65,-166.41 233,-157.5 242.25,-154.87 252.09,-152.44 261.82,-150.24"/>
<polygon fill="#63b8ff" stroke="#63b8ff" points="262.87,-153.59 271.9,-148.04 261.38,-146.76 262.87,-153.59"/>
</a>
</g>
</g>
<!-- Node14 -->
<g id="Node000014" class="node">
<title>Node14</title>
<g id="a_Node000014"><a xlink:href="classCrewMember.html#a536ad7d67b7d95eac17c63ac7449fbe1" target="_top" xlink:title="animation 실행">
<polygon fill="white" stroke="#666666" points="430,-77 233,-77 233,-56 430,-56 430,-77"/>
<text text-anchor="middle" x="331.5" y="-63.4" font-family="Consolas" font-size="12.00">CrewMember.PlayAnimation</text>
</a>
</g>
</g>
<!-- Node1&#45;&gt;Node14 -->
<g id="edge14_Node000001_Node000014" class="edge">
<title>Node1&#45;&gt;Node14</title>
<g id="a_edge14_Node000001_Node000014"><a xlink:title=" ">
<path fill="none" stroke="#63b8ff" d="M123.61,-189.3C149.96,-170.77 193.7,-140.79 233,-117.5 254.89,-104.53 280.4,-91.25 299.83,-81.49"/>
<polygon fill="#63b8ff" stroke="#63b8ff" points="301.45,-84.59 308.84,-77 298.33,-78.33 301.45,-84.59"/>
</a>
</g>
</g>
<!-- Node4 -->
<g id="Node000004" class="node">
<title>Node4</title>
<g id="a_Node000004"><a xlink:href="classRoomData.html#a93ada549c4d197d14917913e944f46c2" target="_top" xlink:title="주어진 레벨에 해당하는 RoomLevel 데이터를 반환합니다. 각 파생 클래스에서 구현해야 합니다.">
<polygon fill="white" stroke="#666666" points="707.5,-334 488.5,-334 488.5,-313 707.5,-313 707.5,-334"/>
<text text-anchor="middle" x="598" y="-320.4" font-family="Consolas" font-size="12.00">RoomData.GetRoomDataByLevel</text>
</a>
</g>
</g>
<!-- Node3&#45;&gt;Node4 -->
<g id="edge3_Node000003_Node000004" class="edge">
<title>Node3&#45;&gt;Node4</title>
<g id="a_edge3_Node000003_Node000004"><a xlink:title=" ">
<path fill="none" stroke="#63b8ff" d="M406.46,-292.53C425.79,-296.72 446.63,-301 466,-304.5 479.56,-306.95 493.95,-309.3 508.04,-311.45"/>
<polygon fill="#63b8ff" stroke="#63b8ff" points="507.82,-314.96 518.23,-312.99 508.86,-308.04 507.82,-314.96"/>
</a>
</g>
</g>
<!-- Node7 -->
<g id="Node000007" class="node">
<title>Node7</title>
<g id="a_Node000007"><a xlink:href="classCrewPathfinder.html#a5511dc3dd1f1dd7fefda36d5c9e044c2" target="_top" xlink:title="인자로 들어온 위치의 타일까지 최단 경로 검색">
<polygon fill="white" stroke="#666666" points="715,-295 481,-295 481,-274 715,-274 715,-295"/>
<text text-anchor="middle" x="598" y="-281.4" font-family="Consolas" font-size="12.00">CrewPathfinder.FindPathToTile</text>
</a>
</g>
</g>
<!-- Node6&#45;&gt;Node7 -->
<g id="edge6_Node000006_Node000007" class="edge">
<title>Node6&#45;&gt;Node7</title>
<g id="a_edge6_Node000006_Node000007"><a xlink:title=" ">
<path fill="none" stroke="#63b8ff" d="M414.23,-200.62C419.78,-203.18 425.1,-206.12 430,-209.5 452.54,-225.04 442.91,-244.78 466,-259.5 472.87,-263.88 480.33,-267.53 488.08,-270.57"/>
<polygon fill="#63b8ff" stroke="#63b8ff" points="487.07,-273.92 497.66,-273.97 489.41,-267.32 487.07,-273.92"/>
</a>
</g>
</g>
<!-- Node8 -->
<g id="Node000008" class="node">
<title>Node8</title>
<g id="a_Node000008"><a xlink:href="classCrewMember.html#af4b290dc38d44cde63972f5260377c43" target="_top" xlink:title="현재 위치 반환 (가장 가까운 타일)">
<polygon fill="white" stroke="#666666" points="970,-275 766,-275 766,-254 970,-254 970,-275"/>
<text text-anchor="middle" x="868" y="-261.4" font-family="Consolas" font-size="12.00">CrewMember.GetCurrentTile</text>
</a>
</g>
</g>
<!-- Node6&#45;&gt;Node8 -->
<g id="edge9_Node000006_Node000008" class="edge">
<title>Node6&#45;&gt;Node8</title>
<g id="a_edge9_Node000006_Node000008"><a xlink:title=" ">
<path fill="none" stroke="#63b8ff" d="M401.89,-200.56C411.41,-203.32 421,-206.32 430,-209.5 446.51,-215.33 449.07,-221.04 466,-225.5 561.68,-250.7 674.05,-259.96 755.45,-263.2"/>
<polygon fill="#63b8ff" stroke="#63b8ff" points="755.6,-266.71 765.73,-263.59 755.86,-259.71 755.6,-266.71"/>
</a>
</g>
</g>
<!-- Node9 -->
<g id="Node000009" class="node">
<title>Node9</title>
<g id="a_Node000009"><a xlink:href="classCrewSystem.html#a211d4d37de0e70c08101ad8733367bd7" target="_top" xlink:title="현재 탑승 중인 아군, 적군 포함 모든 크루 객체의 목록을 반환합니다.">
<polygon fill="white" stroke="#666666" points="677.5,-217 518.5,-217 518.5,-196 677.5,-196 677.5,-217"/>
<text text-anchor="middle" x="598" y="-203.4" font-family="Consolas" font-size="12.00">CrewSystem.GetCrews</text>
</a>
</g>
</g>
<!-- Node6&#45;&gt;Node9 -->
<g id="edge8_Node000006_Node000009" class="edge">
<title>Node6&#45;&gt;Node9</title>
<g id="a_edge8_Node000006_Node000009"><a xlink:title=" ">
<path fill="none" stroke="#63b8ff" d="M430.24,-192C455.72,-194.21 483.04,-196.59 508.03,-198.76"/>
<polygon fill="#63b8ff" stroke="#63b8ff" points="507.96,-202.27 518.22,-199.65 508.57,-195.3 507.96,-202.27"/>
</a>
</g>
</g>
<!-- Node10 -->
<g id="Node000010" class="node">
<title>Node10</title>
<g id="a_Node000010"><a xlink:href="classRTSSelectionManager.html#ae5c3f854603e7329447bf4cd81a1be14" target="_top" xlink:title="이동 가능 검사기 설정">
<polygon fill="white" stroke="#666666" points="722.5,-177.5 473.5,-177.5 473.5,-143.5 722.5,-143.5 722.5,-177.5"/>
<text text-anchor="start" x="481.5" y="-163.9" font-family="Consolas" font-size="12.00">RTSSelectionManager.GetMovement</text>
<text text-anchor="middle" x="598" y="-150.9" font-family="Consolas" font-size="12.00">ValidatorForCrew</text>
</a>
</g>
</g>
<!-- Node6&#45;&gt;Node10 -->
<g id="edge10_Node000006_Node000010" class="edge">
<title>Node6&#45;&gt;Node10</title>
<g id="a_edge10_Node000006_Node000010"><a xlink:title=" ">
<path fill="none" stroke="#63b8ff" d="M430.24,-175C440.94,-174.07 451.97,-173.11 463.01,-172.15"/>
<polygon fill="#63b8ff" stroke="#63b8ff" points="463.49,-175.62 473.15,-171.27 462.89,-168.65 463.49,-175.62"/>
</a>
</g>
</g>
<!-- Node11 -->
<g id="Node000011" class="node">
<title>Node11</title>
<g id="a_Node000011"><a xlink:href="classRTSSelectionManager.html#ae59ec6d9fbc150d1b018fb03d62b17fe" target="_top" xlink:title="이동 경로 탐색기 설정">
<polygon fill="white" stroke="#666666" points="730,-125.5 466,-125.5 466,-91.5 730,-91.5 730,-125.5"/>
<text text-anchor="start" x="474" y="-111.9" font-family="Consolas" font-size="12.00">RTSSelectionManager.GetPathfinder</text>
<text text-anchor="middle" x="598" y="-98.9" font-family="Consolas" font-size="12.00">ForCrew</text>
</a>
</g>
</g>
<!-- Node6&#45;&gt;Node11 -->
<g id="edge11_Node000006_Node000011" class="edge">
<title>Node6&#45;&gt;Node11</title>
<g id="a_edge11_Node000006_Node000011"><a xlink:title=" ">
<path fill="none" stroke="#63b8ff" d="M403.08,-166.48C412.28,-163.53 421.46,-160.21 430,-156.5 447.2,-149.04 448.53,-141.32 466,-134.5 471.53,-132.34 477.27,-130.35 483.12,-128.52"/>
<polygon fill="#63b8ff" stroke="#63b8ff" points="484.45,-131.78 493.05,-125.59 482.47,-125.07 484.45,-131.78"/>
</a>
</g>
</g>
<!-- Node12 -->
<g id="Node000012" class="node">
<title>Node12</title>
<g id="a_Node000012"><a xlink:href="classCrewMovementValidator.html#a5d4caf53367c1f0d9ac691bfd9c553cc" target="_top" xlink:title="타일이 이동 가능한 영역인가 (방/복도에 속하는가)">
<polygon fill="white" stroke="#666666" points="696.5,-73.5 499.5,-73.5 499.5,-39.5 696.5,-39.5 696.5,-73.5"/>
<text text-anchor="start" x="507.5" y="-59.9" font-family="Consolas" font-size="12.00">CrewMovementValidator.Is</text>
<text text-anchor="middle" x="598" y="-46.9" font-family="Consolas" font-size="12.00">TileWalkable</text>
</a>
</g>
</g>
<!-- Node6&#45;&gt;Node12 -->
<g id="edge12_Node000006_Node000012" class="edge">
<title>Node6&#45;&gt;Node12</title>
<g id="a_edge12_Node000006_Node000012"><a xlink:title=" ">
<path fill="none" stroke="#63b8ff" d="M414.94,-166.42C420.32,-163.6 425.41,-160.32 430,-156.5 458.11,-133.1 437.04,-104.84 466,-82.5 473.21,-76.94 481.3,-72.47 489.82,-68.89"/>
<polygon fill="#63b8ff" stroke="#63b8ff" points="491.09,-72.15 499.21,-65.35 488.62,-65.6 491.09,-72.15"/>
</a>
</g>
</g>
<!-- Node7&#45;&gt;Node8 -->
<g id="edge7_Node000007_Node000008" class="edge">
<title>Node7&#45;&gt;Node8</title>
<g id="a_edge7_Node000007_Node000008"><a xlink:title=" ">
<path fill="none" stroke="#63b8ff" d="M715.38,-275.81C728.77,-274.82 742.41,-273.8 755.74,-272.8"/>
<polygon fill="#63b8ff" stroke="#63b8ff" points="756.14,-276.28 765.86,-272.05 755.62,-269.3 756.14,-276.28"/>
</a>
</g>
</g>
<!-- Node15 -->
<g id="Node000015" class="node">
<title>Node15</title>
<g id="a_Node000015"><a xlink:href="classCrewMember.html#a3c76b7a048169237b4038ee133aa1704" target="_top" xlink:title="애니메이션 방향 설정">
<polygon fill="white" stroke="#666666" points="726.5,-21 469.5,-21 469.5,0 726.5,0 726.5,-21"/>
<text text-anchor="middle" x="598" y="-7.4" font-family="Consolas" font-size="12.00">CrewMember.SetAnimationDirection</text>
</a>
</g>
</g>
<!-- Node14&#45;&gt;Node15 -->
<g id="edge15_Node000014_Node000015" class="edge">
<title>Node14&#45;&gt;Node15</title>
<g id="a_edge15_Node000014_Node000015"><a xlink:title=" ">
<path fill="none" stroke="#63b8ff" d="M367.38,-55.95C394.16,-48.12 432.17,-37.62 466,-30.5 479.59,-27.64 494.05,-25.02 508.22,-22.68"/>
<polygon fill="#63b8ff" stroke="#63b8ff" points="509.15,-26.07 518.47,-21.03 508.04,-19.16 509.15,-26.07"/>
</a>
</g>
</g>
</g>
</svg>
