<?xml version="1.0" encoding="UTF-8" standalone="no"?>
<!DOCTYPE svg PUBLIC "-//W3C//DTD SVG 1.1//EN"
 "http://www.w3.org/Graphics/SVG/1.1/DTD/svg11.dtd">
<!-- Generated by graphviz version 2.43.0 (0)
 -->
<!-- Title: BPPreviewCamera.FitToBlueprint Pages: 1 -->
<svg width="1271pt" height="134pt"
 viewBox="0.00 0.00 1271.00 133.50" xmlns="http://www.w3.org/2000/svg" xmlns:xlink="http://www.w3.org/1999/xlink">
<g id="graph0" class="graph" transform="scale(1 1) rotate(0) translate(4 129.5)">
<title>BPPreviewCamera.FitToBlueprint</title>
<!-- Node1 -->
<g id="Node000001" class="node">
<title>Node1</title>
<g id="a_Node000001"><a xlink:title="preview Area 사이즈에 맞게 도안 띄우기">
<polygon fill="#999999" stroke="#666666" points="1263,-92 1021,-92 1021,-71 1263,-71 1263,-92"/>
<text text-anchor="middle" x="1142" y="-78.4" font-family="Consolas" font-size="12.00">BPPreviewCamera.FitToBlueprint</text>
</a>
</g>
</g>
<!-- Node2 -->
<g id="Node000002" class="node">
<title>Node2</title>
<g id="a_Node000002"><a xlink:href="classBPPreviewArea.html#a6b5d2cb5df9097c71feb974ab80c5eb3" target="_top" xlink:title="도안 preview Area에 띄우기 (미리보기)">
<polygon fill="white" stroke="#666666" points="985,-92 766,-92 766,-71 985,-71 985,-92"/>
<text text-anchor="middle" x="875.5" y="-78.4" font-family="Consolas" font-size="12.00">BPPreviewArea.UpdateAndShow</text>
</a>
</g>
</g>
<!-- Node1&#45;&gt;Node2 -->
<g id="edge1_Node000001_Node000002" class="edge">
<title>Node1&#45;&gt;Node2</title>
<g id="a_edge1_Node000001_Node000002"><a xlink:title=" ">
<path fill="none" stroke="#63b8ff" d="M1010.71,-81.5C1002.14,-81.5 993.57,-81.5 985.13,-81.5"/>
<polygon fill="#63b8ff" stroke="#63b8ff" points="1010.75,-85 1020.75,-81.5 1010.75,-78 1010.75,-85"/>
</a>
</g>
</g>
<!-- Node3 -->
<g id="Node000003" class="node">
<title>Node3</title>
<g id="a_Node000003"><a xlink:href="classCustomize__2__Controller.html#a4f017401dbc31501a4109324ccec2bd7" target="_top" xlink:title="&#39;함선 제작&#39; 버튼 클릭 시 호출. 조건 만족 시 기존 함선을 설계도의 함선으로 교체합니다. 이후 방, 문의 연결 유효성 검사 수행 후 만족 여부에 따라 실제 함선으로 교체,...">
<polygon fill="white" stroke="#666666" points="478.5,-125.5 274.5,-125.5 274.5,-91.5 478.5,-91.5 478.5,-125.5"/>
<text text-anchor="start" x="282.5" y="-111.9" font-family="Consolas" font-size="12.00">Customize_2_Controller.On</text>
<text text-anchor="middle" x="376.5" y="-98.9" font-family="Consolas" font-size="12.00">ClickBuy</text>
</a>
</g>
</g>
<!-- Node2&#45;&gt;Node3 -->
<g id="edge2_Node000002_Node000003" class="edge">
<title>Node2&#45;&gt;Node3</title>
<g id="a_edge2_Node000002_Node000003"><a xlink:title=" ">
<path fill="none" stroke="#63b8ff" d="M755.58,-87.96C671.15,-92.55 559,-98.64 478.82,-103"/>
<polygon fill="#63b8ff" stroke="#63b8ff" points="755.94,-91.45 765.74,-87.41 755.56,-84.46 755.94,-91.45"/>
</a>
</g>
</g>
<!-- Node4 -->
<g id="Node000004" class="node">
<title>Node4</title>
<g id="a_Node000004"><a xlink:href="classCustomize__0__Controller.html#a574259bae338d10309582b4ec5c4120f" target="_top" xlink:title="슬롯 버튼 클릭">
<polygon fill="white" stroke="#666666" points="730,-76.5 526,-76.5 526,-42.5 730,-42.5 730,-76.5"/>
<text text-anchor="start" x="534" y="-62.9" font-family="Consolas" font-size="12.00">Customize_0_Controller.On</text>
<text text-anchor="middle" x="628" y="-49.9" font-family="Consolas" font-size="12.00">ClickSlot</text>
</a>
</g>
</g>
<!-- Node2&#45;&gt;Node4 -->
<g id="edge3_Node000002_Node000004" class="edge">
<title>Node2&#45;&gt;Node4</title>
<g id="a_edge3_Node000002_Node000004"><a xlink:title=" ">
<path fill="none" stroke="#63b8ff" d="M755.76,-70.86C747.23,-70.1 738.68,-69.33 730.27,-68.58"/>
<polygon fill="#63b8ff" stroke="#63b8ff" points="755.48,-74.35 765.75,-71.75 756.1,-67.38 755.48,-74.35"/>
</a>
</g>
</g>
<!-- Node4&#45;&gt;Node3 -->
<g id="edge6_Node000004_Node000003" class="edge">
<title>Node4&#45;&gt;Node3</title>
<g id="a_edge6_Node000004_Node000003"><a xlink:title=" ">
<path fill="none" stroke="#63b8ff" d="M530.52,-78.45C508.72,-82.73 485.71,-87.25 464.33,-91.45"/>
<polygon fill="#63b8ff" stroke="#63b8ff" points="531.3,-81.86 540.44,-76.5 529.95,-74.99 531.3,-81.86"/>
</a>
</g>
</g>
<!-- Node5 -->
<g id="Node000005" class="node">
<title>Node5</title>
<g id="a_Node000005"><a xlink:href="classCustomize__1__Controller.html#a6efbdf30cb4fc11fa3f6b1bfbf6eb061" target="_top" xlink:title="customize_0_panel로 복귀">
<polygon fill="white" stroke="#666666" points="478.5,-73.5 274.5,-73.5 274.5,-39.5 478.5,-39.5 478.5,-73.5"/>
<text text-anchor="start" x="282.5" y="-59.9" font-family="Consolas" font-size="12.00">Customize_1_Controller.On</text>
<text text-anchor="middle" x="376.5" y="-46.9" font-family="Consolas" font-size="12.00">ClickBack</text>
</a>
</g>
</g>
<!-- Node4&#45;&gt;Node5 -->
<g id="edge4_Node000004_Node000005" class="edge">
<title>Node4&#45;&gt;Node5</title>
<g id="a_edge4_Node000004_Node000005"><a xlink:title=" ">
<path fill="none" stroke="#63b8ff" d="M515.62,-58.16C503.35,-58.01 490.9,-57.86 478.77,-57.72"/>
<polygon fill="#63b8ff" stroke="#63b8ff" points="515.84,-61.66 525.88,-58.28 515.92,-54.66 515.84,-61.66"/>
</a>
</g>
</g>
<!-- Node7 -->
<g id="Node000007" class="node">
<title>Node7</title>
<g id="a_Node000007"><a xlink:href="classCustomize__0__Controller.html#a9a5c64825556b732c13268f61d9893db" target="_top" xlink:title="button 클릭 함수 연결">
<polygon fill="white" stroke="#666666" points="490,-21 263,-21 263,0 490,0 490,-21"/>
<text text-anchor="middle" x="376.5" y="-7.4" font-family="Consolas" font-size="12.00">Customize_0_Controller.Start</text>
</a>
</g>
</g>
<!-- Node4&#45;&gt;Node7 -->
<g id="edge7_Node000004_Node000007" class="edge">
<title>Node4&#45;&gt;Node7</title>
<g id="a_edge7_Node000004_Node000007"><a xlink:title=" ">
<path fill="none" stroke="#63b8ff" d="M538.83,-40.39C522.61,-37 505.81,-33.58 490,-30.5 473.45,-27.28 455.49,-23.99 438.87,-21.04"/>
<polygon fill="#63b8ff" stroke="#63b8ff" points="538.34,-43.87 548.85,-42.5 539.78,-37.02 538.34,-43.87"/>
</a>
</g>
</g>
<!-- Node6 -->
<g id="Node000006" class="node">
<title>Node6</title>
<g id="a_Node000006"><a xlink:href="classCustomize__1__Controller.html#aec55e07635dd1dfd43176946b3dd6f2b" target="_top" xlink:title="button 클릭 함수 연결">
<polygon fill="white" stroke="#666666" points="227,-67 0,-67 0,-46 227,-46 227,-67"/>
<text text-anchor="middle" x="113.5" y="-53.4" font-family="Consolas" font-size="12.00">Customize_1_Controller.Start</text>
</a>
</g>
</g>
<!-- Node5&#45;&gt;Node6 -->
<g id="edge5_Node000005_Node000006" class="edge">
<title>Node5&#45;&gt;Node6</title>
<g id="a_edge5_Node000005_Node000006"><a xlink:title=" ">
<path fill="none" stroke="#63b8ff" d="M264.08,-56.5C251.95,-56.5 239.58,-56.5 227.43,-56.5"/>
<polygon fill="#63b8ff" stroke="#63b8ff" points="264.22,-60 274.22,-56.5 264.22,-53 264.22,-60"/>
</a>
</g>
</g>
</g>
</svg>
