<?xml version="1.0" encoding="UTF-8" standalone="no"?>
<!DOCTYPE svg PUBLIC "-//W3C//DTD SVG 1.1//EN"
 "http://www.w3.org/Graphics/SVG/1.1/DTD/svg11.dtd">
<!-- Generated by graphviz version 2.43.0 (0)
 -->
<!-- Title: ShipFactory.CreateEmptyShipInstance Pages: 1 -->
<svg width="490pt" height="121pt"
 viewBox="0.00 0.00 490.00 121.00" xmlns="http://www.w3.org/2000/svg" xmlns:xlink="http://www.w3.org/1999/xlink">

<svg id="main" version="1.1" xmlns="http://www.w3.org/2000/svg" xmlns:xlink="http://www.w3.org/1999/xlink" xml:space="preserve" onload="init(evt)">
<style type="text/css"><![CDATA[
.node, .edge {opacity: 0.7;}
.node.selected, .edge.selected {opacity: 1;}
.edge:hover path { stroke: red; }
.edge:hover polygon { stroke: red; fill: red; }
]]></style>
<script type="application/ecmascript" xlink:href="svg.min.js"/>
<svg id="graph" class="graph">
<g id="graph0" class="graph" transform="scale(1 1) rotate(0) translate(4 117)">
<title>ShipFactory.CreateEmptyShipInstance</title>
<!-- Node1 -->
<g id="Node000001" class="node">
<title>Node1</title>
<g id="a_Node000001"><a xlink:title="빈 함선 인스턴스 생성">
<polygon fill="#999999" stroke="#666666" points="482,-73.5 263,-73.5 263,-39.5 482,-39.5 482,-73.5"/>
<text text-anchor="start" x="271" y="-59.9" font-family="Consolas" font-size="12.00">ShipFactory.CreateEmptyShip</text>
<text text-anchor="middle" x="372.5" y="-46.9" font-family="Consolas" font-size="12.00">Instance</text>
</a>
</g>
</g>
<!-- Node2 -->
<g id="Node000002" class="node">
<title>Node2</title>
<g id="a_Node000002"><a xlink:href="classShipFactory.html#a4d0d4bf2882b83a2ab97df63c38695e5" target="_top" xlink:title="기존 함선을 복제하여 새 인스턴스 생성">
<polygon fill="white" stroke="#666666" points="200.5,-113 26.5,-113 26.5,-92 200.5,-92 200.5,-113"/>
<text text-anchor="middle" x="113.5" y="-99.4" font-family="Consolas" font-size="12.00">ShipFactory.CloneShip</text>
</a>
</g>
</g>
<!-- Node1&#45;&gt;Node2 -->
<g id="edge1_Node000001_Node000002" class="edge">
<title>Node1&#45;&gt;Node2</title>
<g id="a_edge1_Node000001_Node000002"><a xlink:title=" ">
<path fill="none" stroke="#63b8ff" d="M266.85,-75.36C253.44,-77.76 239.9,-80.19 227,-82.5 209.72,-85.59 190.94,-88.94 173.77,-91.99"/>
<polygon fill="#63b8ff" stroke="#63b8ff" points="267.84,-78.73 277.06,-73.52 266.6,-71.84 267.84,-78.73"/>
</a>
</g>
</g>
<!-- Node3 -->
<g id="Node000003" class="node">
<title>Node3</title>
<g id="a_Node000003"><a xlink:href="classShipFactory.html#a3c26f8bde8633e87fe1d7eaf140bc253" target="_top" xlink:title="템플릿을 기반으로 함선 생성">
<polygon fill="white" stroke="#666666" points="219.5,-73.5 7.5,-73.5 7.5,-39.5 219.5,-39.5 219.5,-73.5"/>
<text text-anchor="start" x="15.5" y="-59.9" font-family="Consolas" font-size="12.00">ShipFactory.CreateShipFrom</text>
<text text-anchor="middle" x="113.5" y="-46.9" font-family="Consolas" font-size="12.00">Template</text>
</a>
</g>
</g>
<!-- Node1&#45;&gt;Node3 -->
<g id="edge2_Node000001_Node000003" class="edge">
<title>Node1&#45;&gt;Node3</title>
<g id="a_edge2_Node000001_Node000003"><a xlink:title=" ">
<path fill="none" stroke="#63b8ff" d="M252.82,-56.5C241.82,-56.5 230.73,-56.5 219.86,-56.5"/>
<polygon fill="#63b8ff" stroke="#63b8ff" points="252.88,-60 262.88,-56.5 252.88,-53 252.88,-60"/>
</a>
</g>
</g>
<!-- Node4 -->
<g id="Node000004" class="node">
<title>Node4</title>
<g id="a_Node000004"><a xlink:href="classShipFactory.html#a6309b885baeace7184e54cf447f6ce88" target="_top" xlink:title="저장된 함선 데이터에서 함선 복원">
<polygon fill="white" stroke="#666666" points="227,-21 0,-21 0,0 227,0 227,-21"/>
<text text-anchor="middle" x="113.5" y="-7.4" font-family="Consolas" font-size="12.00">ShipFactory.LoadShipFromSave</text>
</a>
</g>
</g>
<!-- Node1&#45;&gt;Node4 -->
<g id="edge3_Node000001_Node000004" class="edge">
<title>Node1&#45;&gt;Node4</title>
<g id="a_edge3_Node000001_Node000004"><a xlink:title=" ">
<path fill="none" stroke="#63b8ff" d="M266.85,-37.64C253.44,-35.24 239.9,-32.81 227,-30.5 209.72,-27.41 190.94,-24.06 173.77,-21.01"/>
<polygon fill="#63b8ff" stroke="#63b8ff" points="266.6,-41.16 277.06,-39.48 267.84,-34.27 266.6,-41.16"/>
</a>
</g>
</g>
</g>
</svg>
</svg>

<style type='text/css'>
<![CDATA[
[data-mouse-over-selected='false'] { opacity: 0.7; }
[data-mouse-over-selected='true']  { opacity: 1.0; }
]]>
</style>
<script type="application/ecmascript"><![CDATA[
document.addEventListener('DOMContentLoaded', (event) => {
  highlightEdges();
  highlightAdjacentNodes();
});
]]></script>
</svg>
