<?xml version="1.0" encoding="UTF-8" standalone="no"?>
<!DOCTYPE svg PUBLIC "-//W3C//DTD SVG 1.1//EN"
 "http://www.w3.org/Graphics/SVG/1.1/DTD/svg11.dtd">
<!-- Generated by graphviz version 2.43.0 (0)
 -->
<!-- Title: WeaponControlRoom.GetStatContributions Pages: 1 -->
<!--zoomable 140 -->

<svg id="main" version="1.1" xmlns="http://www.w3.org/2000/svg" xmlns:xlink="http://www.w3.org/1999/xlink" xml:space="preserve" onload="init(evt)">
<style type="text/css"><![CDATA[
.node, .edge {opacity: 0.7;}
.node.selected, .edge.selected {opacity: 1;}
.edge:hover path { stroke: red; }
.edge:hover polygon { stroke: red; fill: red; }
]]></style>

<defs>
  <circle id="rim" cx="0" cy="0" r="7"/>
  <circle id="rim2" cx="0" cy="0" r="3.5"/>
  <g id="zoomPlus">
    <use xlink:href="#rim" fill="#404040"><set attributeName="fill" to="#808080" begin="zoomplus.mouseover" end="zoomplus.mouseout"/></use>
    <path d="M-4,0h8M0,-4v8" fill="none" stroke="white" stroke-width="1.5" pointer-events="none"/>
  </g>
  <g id="zoomMin">
    <use xlink:href="#rim" fill="#404040"><set attributeName="fill" to="#808080" begin="zoomminus.mouseover" end="zoomminus.mouseout"/></use>
    <path d="M-4,0h8" fill="none" stroke="white" stroke-width="1.5" pointer-events="none"/>
  </g>
  <g id="arrowUp" transform="translate(30 24)">
    <use xlink:href="#rim"/>
    <path pointer-events="none" fill="none" stroke="white" stroke-width="1.5" d="M0,-3.0v7 M-2.5,-0.5L0,-3.0L2.5,-0.5"/>
  </g>
  <g id="arrowRight" transform="rotate(90) translate(36 -43)">
    <use xlink:href="#rim"/>
    <path pointer-events="none" fill="none" stroke="white" stroke-width="1.5" d="M0,-3.0v7 M-2.5,-0.5L0,-3.0L2.5,-0.5"/>
  </g>
  <g id="arrowDown" transform="rotate(180) translate(-30 -48)">
    <use xlink:href="#rim"/>
    <path pointer-events="none" fill="none" stroke="white" stroke-width="1.5" d="M0,-3.0v7 M-2.5,-0.5L0,-3.0L2.5,-0.5"/>
  </g>
  <g id="arrowLeft" transform="rotate(270) translate(-36 17)">
    <use xlink:href="#rim"/>
    <path pointer-events="none" fill="none" stroke="white" stroke-width="1.5" d="M0,-3.0v7 M-2.5,-0.5L0,-3.0L2.5,-0.5"/>
  </g>
  <g id="resetDef">
    <use xlink:href="#rim2" fill="#404040"><set attributeName="fill" to="#808080" begin="reset.mouseover" end="reset.mouseout"/></use>
  </g>
</defs>
<script type="application/ecmascript">
var viewWidth = 1053;
var viewHeight = 140;
var sectionId = 'dynsection-3';
</script>
<script type="application/ecmascript" xlink:href="svg.min.js"/>
<svg id="graph" class="graph">
<g id="viewport">
<title>WeaponControlRoom.GetStatContributions</title>
<!-- Node1 -->
<g id="Node000001" class="node">
<title>Node1</title>
<g id="a_Node000001"><a xlink:title="이 방이 함선 스탯에 기여하는 값을 계산합니다. 작동 상태 및 손상 정도에 따라 전력 사용량과 명중률 보너스가 달라집니다.">
<polygon fill="#999999" stroke="#666666" points="204,-92.5 0,-92.5 0,-58.5 204,-58.5 204,-92.5"/>
<text text-anchor="start" x="8" y="-78.9" font-family="Consolas" font-size="12.00">WeaponControlRoom.GetStat</text>
<text text-anchor="middle" x="102" y="-65.9" font-family="Consolas" font-size="12.00">Contributions</text>
</a>
</g>
</g>
<!-- Node2 -->
<g id="Node000002" class="node">
<title>Node2</title>
<g id="a_Node000002"><a xlink:href="classCrewMember.html#aad4604b549178c53a36eb89d903633e8" target="_top" xlink:title="현재 선원의 모든 스킬 값을 계산하여 반환합니다. 기본 숙련도, 장비 보너스, 사기 보너스를 포함합니다.">
<polygon fill="white" stroke="#666666" points="497,-125 270,-125 270,-104 497,-104 497,-125"/>
<text text-anchor="middle" x="383.5" y="-111.4" font-family="Consolas" font-size="12.00">CrewMember.GetCrewSkillValue</text>
</a>
</g>
</g>
<!-- Node1&#45;&gt;Node2 -->
<g id="edge1_Node000001_Node000002" class="edge">
<title>Node1&#45;&gt;Node2</title>
<g id="a_edge1_Node000001_Node000002"><a xlink:title=" ">
<path fill="none" stroke="#63b8ff" d="M204.36,-90.44C216.37,-92.17 228.45,-93.89 240,-95.5 256.84,-97.85 274.81,-100.3 292.11,-102.62"/>
<polygon fill="#63b8ff" stroke="#63b8ff" points="291.84,-106.11 302.21,-103.97 292.77,-99.18 291.84,-106.11"/>
</a>
</g>
</g>
<!-- Node5 -->
<g id="Node000005" class="node">
<title>Node5</title>
<g id="a_Node000005"><a xlink:href="classRoomData.html#ac5eea85482100577e37c421191d087aa" target="_top" xlink:title="제네릭 타입으로 명확하게 캐스팅된 RoomLevel 데이터를 반환합니다.">
<polygon fill="white" stroke="#666666" points="485.5,-86 281.5,-86 281.5,-65 485.5,-65 485.5,-86"/>
<text text-anchor="middle" x="383.5" y="-72.4" font-family="Consolas" font-size="12.00">RoomData.GetTypedRoomData</text>
</a>
</g>
</g>
<!-- Node1&#45;&gt;Node5 -->
<g id="edge4_Node000001_Node000005" class="edge">
<title>Node1&#45;&gt;Node5</title>
<g id="a_edge4_Node000001_Node000005"><a xlink:title=" ">
<path fill="none" stroke="#63b8ff" d="M204.3,-75.5C225.98,-75.5 248.99,-75.5 271.03,-75.5"/>
<polygon fill="#63b8ff" stroke="#63b8ff" points="271.08,-79 281.08,-75.5 271.08,-72 271.08,-79"/>
</a>
</g>
</g>
<!-- Node6 -->
<g id="Node000006" class="node">
<title>Node6</title>
<g id="a_Node000006"><a xlink:href="classRoom.html#af15fefedd48a2009da56d461a9084ed8" target="_top" xlink:title="방이 작동 가능한 상태인지 확인합니다.">
<polygon fill="white" stroke="#666666" points="527,-47 240,-47 240,0 527,0 527,-47"/>
<text text-anchor="start" x="248" y="-33.4" font-family="Consolas" font-size="12.00">Room&lt; WeaponControlRoomData,</text>
<text text-anchor="start" x="248" y="-20.4" font-family="Consolas" font-size="12.00"> WeaponControlRoomData.WeaponControl</text>
<text text-anchor="middle" x="383.5" y="-7.4" font-family="Consolas" font-size="12.00">RoomLevel &gt;::IsOperational</text>
</a>
</g>
</g>
<!-- Node1&#45;&gt;Node6 -->
<g id="edge5_Node000001_Node000006" class="edge">
<title>Node1&#45;&gt;Node6</title>
<g id="a_edge5_Node000001_Node000006"><a xlink:title=" ">
<path fill="none" stroke="#63b8ff" d="M194.52,-58.47C210.96,-55.42 228.41,-52.17 245.79,-48.93"/>
<polygon fill="#63b8ff" stroke="#63b8ff" points="246.83,-52.3 256.02,-47.03 245.54,-45.42 246.83,-52.3"/>
</a>
</g>
</g>
<!-- Node3 -->
<g id="Node000003" class="node">
<title>Node3</title>
<g id="a_Node000003"><a xlink:href="classMoraleManager.html#ae4bd0f13d318a29833b66d05fe6b632e" target="_top" xlink:title="선원의 총 사기 반환">
<polygon fill="white" stroke="#666666" points="790,-131.5 563,-131.5 563,-97.5 790,-97.5 790,-131.5"/>
<text text-anchor="start" x="571" y="-117.9" font-family="Consolas" font-size="12.00">MoraleManager.GetTotalMorale</text>
<text text-anchor="middle" x="676.5" y="-104.9" font-family="Consolas" font-size="12.00">Bonus</text>
</a>
</g>
</g>
<!-- Node2&#45;&gt;Node3 -->
<g id="edge2_Node000002_Node000003" class="edge">
<title>Node2&#45;&gt;Node3</title>
<g id="a_edge2_Node000002_Node000003"><a xlink:title=" ">
<path fill="none" stroke="#63b8ff" d="M497.01,-114.5C515.23,-114.5 534.17,-114.5 552.62,-114.5"/>
<polygon fill="#63b8ff" stroke="#63b8ff" points="552.81,-118 562.81,-114.5 552.81,-111 552.81,-118"/>
</a>
</g>
</g>
<!-- Node4 -->
<g id="Node000004" class="node">
<title>Node4</title>
<g id="a_Node000004"><a xlink:href="classMoraleManager.html#ad25d3eb792d8fede14408e5b7a9863d0" target="_top" xlink:title="종족 별 사기 반환">
<polygon fill="white" stroke="#666666" points="1045,-125 826,-125 826,-104 1045,-104 1045,-125"/>
<text text-anchor="middle" x="935.5" y="-111.4" font-family="Consolas" font-size="12.00">MoraleManager.GetRaceMorale</text>
</a>
</g>
</g>
<!-- Node3&#45;&gt;Node4 -->
<g id="edge3_Node000003_Node000004" class="edge">
<title>Node3&#45;&gt;Node4</title>
<g id="a_edge3_Node000003_Node000004"><a xlink:title=" ">
<path fill="none" stroke="#63b8ff" d="M790.22,-114.5C798.75,-114.5 807.38,-114.5 815.94,-114.5"/>
<polygon fill="#63b8ff" stroke="#63b8ff" points="815.96,-118 825.96,-114.5 815.96,-111 815.96,-118"/>
</a>
</g>
</g>
</g>
</svg>

<g id="navigator" transform="translate(0 0)" fill="#404254">
  <rect fill="#f2f5e9" fill-opacity="0.5" stroke="#606060" stroke-width=".5" x="0" y="0" width="60" height="60"/>
  <use id="zoomplus" xlink:href="#zoomPlus" x="17" y="9" onmousedown="handleZoom(evt,'in')"/>
  <use id="zoomminus" xlink:href="#zoomMin" x="42" y="9" onmousedown="handleZoom(evt,'out')"/>
  <use id="reset" xlink:href="#resetDef" x="30" y="36" onmousedown="handleReset()"/>
   <use id="arrowup" xlink:href="#arrowUp" x="0" y="0" onmousedown="handlePan(0,-1)"/>
  <use id="arrowright" xlink:href="#arrowRight" x="0" y="0" onmousedown="handlePan(1,0)"/>
  <use id="arrowdown" xlink:href="#arrowDown" x="0" y="0" onmousedown="handlePan(0,1)"/>
  <use id="arrowleft" xlink:href="#arrowLeft" x="0" y="0" onmousedown="handlePan(-1,0)"/>
</g>
<svg viewBox="0 0 15 15" width="100%" height="30px" preserveAspectRatio="xMaxYMin meet">
 <g id="arrow_out" transform="scale(0.3 0.3)">
  <a xlink:href="classWeaponControlRoom_afc42aa6a0418c1e6276ea271414baf17_cgraph_org.svg" target="_base">
   <rect id="button" ry="5" rx="5" y="6" x="6" height="38" width="38"
        fill="#f2f5e9" fill-opacity="0.5" stroke="#606060" stroke-width="1.0"/>
   <path id="arrow"
     d="M 11.500037,31.436501 C 11.940474,20.09759 22.043105,11.32322 32.158766,21.979434 L 37.068811,17.246167 C 37.068811,17.246167 37.088388,32 37.088388,32 L 22.160133,31.978069 C 22.160133,31.978069 26.997745,27.140456 26.997745,27.140456 C 18.528582,18.264221 13.291696,25.230495 11.500037,31.436501 z"
     style="fill:#404040;"/>
  </a>
 </g>
</svg>

<style type='text/css'>
<![CDATA[
[data-mouse-over-selected='false'] { opacity: 0.7; }
[data-mouse-over-selected='true']  { opacity: 1.0; }
]]>
</style>
<script type="application/ecmascript"><![CDATA[
document.addEventListener('DOMContentLoaded', (event) => {
  highlightEdges();
  highlightAdjacentNodes();
});
]]></script>
</svg>
