<?xml version="1.0" encoding="UTF-8" standalone="no"?>
<!DOCTYPE svg PUBLIC "-//W3C//DTD SVG 1.1//EN"
 "http://www.w3.org/Graphics/SVG/1.1/DTD/svg11.dtd">
<!-- Generated by graphviz version 2.43.0 (0)
 -->
<!-- Title: ES3.Load&lt; T &gt; Pages: 1 -->
<svg width="272pt" height="185pt"
 viewBox="0.00 0.00 272.00 185.00" xmlns="http://www.w3.org/2000/svg" xmlns:xlink="http://www.w3.org/1999/xlink">
<g id="graph0" class="graph" transform="scale(1 1) rotate(0) translate(4 181)">
<title>ES3.Load&lt; T &gt;</title>
<!-- Node1 -->
<g id="Node000001" class="node">
<title>Node1</title>
<g id="a_Node000001"><a xlink:title="Loads the value from a file with the given key.">
<polygon fill="#999999" stroke="#666666" points="264,-99 150,-99 150,-78 264,-78 264,-99"/>
<text text-anchor="middle" x="207" y="-85.4" font-family="Consolas" font-size="12.00">ES3.Load&lt; T &gt;</text>
</a>
</g>
</g>
<!-- Node1&#45;&gt;Node1 -->
<g id="edge1_Node000001_Node000001" class="edge">
<title>Node1&#45;&gt;Node1</title>
<g id="a_edge1_Node000001_Node000001"><a xlink:title=" ">
<path fill="none" stroke="#63b8ff" d="M234.79,-108.21C232.97,-113.23 223.7,-117 207,-117 180.93,-117 172.98,-107.81 183.17,-99.02"/>
<polygon fill="#63b8ff" stroke="#63b8ff" points="238,-106.82 230.83,-99.02 231.57,-109.59 238,-106.82"/>
</a>
</g>
</g>
<!-- Node2 -->
<g id="Node000002" class="node">
<title>Node2</title>
<g id="a_Node000002"><a xlink:href="classES3.html#a4cb48ec7db6b60037aa2e92eb71592b0" target="_top" xlink:title="Loads the value from a file with the given key.">
<polygon fill="white" stroke="#666666" points="114,-177 0,-177 0,-156 114,-156 114,-177"/>
<text text-anchor="middle" x="57" y="-163.4" font-family="Consolas" font-size="12.00">ES3.Load&lt; T &gt;</text>
</a>
</g>
</g>
<!-- Node1&#45;&gt;Node2 -->
<g id="edge2_Node000001_Node000002" class="edge">
<title>Node1&#45;&gt;Node2</title>
<g id="a_edge2_Node000001_Node000002"><a xlink:title=" ">
<path fill="none" stroke="#63b8ff" d="M183.82,-104.91C165.72,-117.75 139.12,-135.41 114,-147.5 107.52,-150.62 100.4,-153.45 93.47,-155.92"/>
<polygon fill="#63b8ff" stroke="#63b8ff" points="185.91,-107.72 191.98,-99.04 181.82,-102.04 185.91,-107.72"/>
</a>
</g>
</g>
<!-- Node3 -->
<g id="Node000003" class="node">
<title>Node3</title>
<g id="a_Node000003"><a xlink:href="classES3.html#ace5df18f23ae273155e5cbc0834f75bc" target="_top" xlink:title="Loads the value from a file with the given key.">
<polygon fill="white" stroke="#666666" points="114,-138 0,-138 0,-117 114,-117 114,-138"/>
<text text-anchor="middle" x="57" y="-124.4" font-family="Consolas" font-size="12.00">ES3.Load&lt; T &gt;</text>
</a>
</g>
</g>
<!-- Node1&#45;&gt;Node3 -->
<g id="edge3_Node000001_Node000003" class="edge">
<title>Node1&#45;&gt;Node3</title>
<g id="a_edge3_Node000001_Node000003"><a xlink:title=" ">
<path fill="none" stroke="#63b8ff" d="M156.03,-101.67C137.15,-106.64 115.94,-112.23 98.08,-116.94"/>
<polygon fill="#63b8ff" stroke="#63b8ff" points="157.17,-104.99 165.95,-99.05 155.39,-98.22 157.17,-104.99"/>
</a>
</g>
</g>
<!-- Node4 -->
<g id="Node000004" class="node">
<title>Node4</title>
<g id="a_Node000004"><a xlink:href="classES3.html#a78a05d3108f32ca5b917b16bff6a3d1a" target="_top" xlink:title="Loads the value from a file with the given key.">
<polygon fill="white" stroke="#666666" points="114,-99 0,-99 0,-78 114,-78 114,-99"/>
<text text-anchor="middle" x="57" y="-85.4" font-family="Consolas" font-size="12.00">ES3.Load&lt; T &gt;</text>
</a>
</g>
</g>
<!-- Node1&#45;&gt;Node4 -->
<g id="edge4_Node000001_Node000004" class="edge">
<title>Node1&#45;&gt;Node4</title>
<g id="a_edge4_Node000001_Node000004"><a xlink:title=" ">
<path fill="none" stroke="#63b8ff" d="M139.44,-88.5C131.02,-88.5 122.46,-88.5 114.22,-88.5"/>
<polygon fill="#63b8ff" stroke="#63b8ff" points="139.63,-92 149.63,-88.5 139.63,-85 139.63,-92"/>
</a>
</g>
</g>
<!-- Node5 -->
<g id="Node000005" class="node">
<title>Node5</title>
<g id="a_Node000005"><a xlink:href="classES3.html#a51bec5dde60b86559d4f9131482644ec" target="_top" xlink:title="Loads the value from a file with the given key.">
<polygon fill="white" stroke="#666666" points="114,-60 0,-60 0,-39 114,-39 114,-60"/>
<text text-anchor="middle" x="57" y="-46.4" font-family="Consolas" font-size="12.00">ES3.Load&lt; T &gt;</text>
</a>
</g>
</g>
<!-- Node1&#45;&gt;Node5 -->
<g id="edge5_Node000001_Node000005" class="edge">
<title>Node1&#45;&gt;Node5</title>
<g id="a_edge5_Node000001_Node000005"><a xlink:title=" ">
<path fill="none" stroke="#63b8ff" d="M156.03,-75.33C137.15,-70.36 115.94,-64.77 98.08,-60.06"/>
<polygon fill="#63b8ff" stroke="#63b8ff" points="155.39,-78.78 165.95,-77.95 157.17,-72.01 155.39,-78.78"/>
</a>
</g>
</g>
<!-- Node6 -->
<g id="Node000006" class="node">
<title>Node6</title>
<g id="a_Node000006"><a xlink:href="classES3.html#a2d76f99c5cdcca4aacfcab5dbe375437" target="_top" xlink:title="Loads the value from a file with the given key.">
<polygon fill="white" stroke="#666666" points="114,-21 0,-21 0,0 114,0 114,-21"/>
<text text-anchor="middle" x="57" y="-7.4" font-family="Consolas" font-size="12.00">ES3.Load&lt; T &gt;</text>
</a>
</g>
</g>
<!-- Node1&#45;&gt;Node6 -->
<g id="edge6_Node000001_Node000006" class="edge">
<title>Node1&#45;&gt;Node6</title>
<g id="a_edge6_Node000001_Node000006"><a xlink:title=" ">
<path fill="none" stroke="#63b8ff" d="M183.08,-72.06C164.95,-59.55 138.66,-42.5 114,-30.5 106.85,-27.02 98.94,-23.83 91.36,-21.06"/>
<polygon fill="#63b8ff" stroke="#63b8ff" points="181.09,-74.93 191.29,-77.79 185.1,-69.2 181.09,-74.93"/>
</a>
</g>
</g>
</g>
</svg>
