<?xml version="1.0" encoding="UTF-8" standalone="no"?>
<!DOCTYPE svg PUBLIC "-//W3C//DTD SVG 1.1//EN"
 "http://www.w3.org/Graphics/SVG/1.1/DTD/svg11.dtd">
<!-- Generated by graphviz version 2.43.0 (0)
 -->
<!-- Title: ES3.CopyDirectory Pages: 1 -->
<svg width="347pt" height="275pt"
 viewBox="0.00 0.00 347.00 275.00" xmlns="http://www.w3.org/2000/svg" xmlns:xlink="http://www.w3.org/1999/xlink">

<svg id="main" version="1.1" xmlns="http://www.w3.org/2000/svg" xmlns:xlink="http://www.w3.org/1999/xlink" xml:space="preserve" onload="init(evt)">
<style type="text/css"><![CDATA[
.node, .edge {opacity: 0.7;}
.node.selected, .edge.selected {opacity: 1;}
.edge:hover path { stroke: red; }
.edge:hover polygon { stroke: red; fill: red; }
]]></style>
<script type="application/ecmascript" xlink:href="svg.min.js"/>
<svg id="graph" class="graph">
<g id="graph0" class="graph" transform="scale(1 1) rotate(0) translate(4 271)">
<title>ES3.CopyDirectory</title>
<!-- Node1 -->
<g id="Node000001" class="node">
<title>Node1</title>
<g id="a_Node000001"><a xlink:title="Copies a file from one location to another, using the ES3Settings provided to determine the locations...">
<polygon fill="#999999" stroke="#666666" points="144,-135 0,-135 0,-114 144,-114 144,-135"/>
<text text-anchor="middle" x="72" y="-121.4" font-family="Consolas" font-size="12.00">ES3.CopyDirectory</text>
</a>
</g>
</g>
<!-- Node2 -->
<g id="Node000002" class="node">
<title>Node2</title>
<g id="a_Node000002"><a xlink:href="classES3.html#af95f61bc3b7e9f40308c0738d019d5d5" target="_top" xlink:title="Copies a file from one path to another.">
<polygon fill="white" stroke="#666666" points="331.5,-249 187.5,-249 187.5,-228 331.5,-228 331.5,-249"/>
<text text-anchor="middle" x="259.5" y="-235.4" font-family="Consolas" font-size="12.00">ES3.CopyDirectory</text>
</a>
</g>
</g>
<!-- Node1&#45;&gt;Node2 -->
<g id="edge1_Node000001_Node000002" class="edge">
<title>Node1&#45;&gt;Node2</title>
<g id="a_edge1_Node000001_Node000002"><a xlink:title=" ">
<path fill="none" stroke="#63b8ff" d="M81.79,-135.2C98.68,-155.01 137.73,-197.4 180,-219.5 183.53,-221.35 187.25,-223.02 191.07,-224.53"/>
<polygon fill="#63b8ff" stroke="#63b8ff" points="190.12,-227.91 200.71,-227.97 192.47,-221.31 190.12,-227.91"/>
</a>
</g>
</g>
<!-- Node3 -->
<g id="Node000003" class="node">
<title>Node3</title>
<g id="a_Node000003"><a xlink:href="classES3.html#a199dddfd7792430abc4cdec0d3b13e5c" target="_top" xlink:title="Copies a file from one path to another.">
<polygon fill="white" stroke="#666666" points="313,-192 206,-192 206,-171 313,-171 313,-192"/>
<text text-anchor="middle" x="259.5" y="-178.4" font-family="Consolas" font-size="12.00">ES3.CopyFile</text>
</a>
</g>
</g>
<!-- Node1&#45;&gt;Node3 -->
<g id="edge3_Node000001_Node000003" class="edge">
<title>Node1&#45;&gt;Node3</title>
<g id="a_edge3_Node000001_Node000003"><a xlink:title=" ">
<path fill="none" stroke="#63b8ff" d="M100.45,-135.14C121.92,-143.24 152.6,-154.34 180,-162.5 186.93,-164.56 194.25,-166.57 201.53,-168.45"/>
<polygon fill="#63b8ff" stroke="#63b8ff" points="200.83,-171.88 211.38,-170.94 202.54,-165.09 200.83,-171.88"/>
</a>
</g>
</g>
<!-- Node4 -->
<g id="Node000004" class="node">
<title>Node4</title>
<g id="a_Node000004"><a xlink:href="classES3.html#a2a44b91e3315e24c98665de92d3f03da" target="_top" xlink:title="Checks whether a folder exists.">
<polygon fill="white" stroke="#666666" points="339,-135 180,-135 180,-114 339,-114 339,-135"/>
<text text-anchor="middle" x="259.5" y="-121.4" font-family="Consolas" font-size="12.00">ES3.DirectoryExists</text>
</a>
</g>
</g>
<!-- Node1&#45;&gt;Node4 -->
<g id="edge5_Node000001_Node000004" class="edge">
<title>Node1&#45;&gt;Node4</title>
<g id="a_edge5_Node000001_Node000004"><a xlink:title=" ">
<path fill="none" stroke="#63b8ff" d="M144.19,-124.5C152.56,-124.5 161.18,-124.5 169.75,-124.5"/>
<polygon fill="#63b8ff" stroke="#63b8ff" points="169.78,-128 179.78,-124.5 169.78,-121 169.78,-128"/>
</a>
</g>
</g>
<!-- Node5 -->
<g id="Node000005" class="node">
<title>Node5</title>
<g id="a_Node000005"><a xlink:href="classES3.html#a543ec50b060c1454e530c49ff5b30c09" target="_top" xlink:title="Gets an array of all of the sub&#45;directory names in a directory.">
<polygon fill="white" stroke="#666666" points="335.5,-78 183.5,-78 183.5,-57 335.5,-57 335.5,-78"/>
<text text-anchor="middle" x="259.5" y="-64.4" font-family="Consolas" font-size="12.00">ES3.GetDirectories</text>
</a>
</g>
</g>
<!-- Node1&#45;&gt;Node5 -->
<g id="edge7_Node000001_Node000005" class="edge">
<title>Node1&#45;&gt;Node5</title>
<g id="a_edge7_Node000001_Node000005"><a xlink:title=" ">
<path fill="none" stroke="#63b8ff" d="M107.46,-113.91C137.65,-104.63 181.71,-91.1 214.46,-81.03"/>
<polygon fill="#63b8ff" stroke="#63b8ff" points="215.7,-84.31 224.23,-78.03 213.64,-77.62 215.7,-84.31"/>
</a>
</g>
</g>
<!-- Node6 -->
<g id="Node000006" class="node">
<title>Node6</title>
<g id="a_Node000006"><a xlink:href="classES3.html#a6501d17e4b57287c7f81645168540dfa" target="_top" xlink:title="Gets an array of all of the file names in a directory.">
<polygon fill="white" stroke="#666666" points="313,-21 206,-21 206,0 313,0 313,-21"/>
<text text-anchor="middle" x="259.5" y="-7.4" font-family="Consolas" font-size="12.00">ES3.GetFiles</text>
</a>
</g>
</g>
<!-- Node1&#45;&gt;Node6 -->
<g id="edge9_Node000001_Node000006" class="edge">
<title>Node1&#45;&gt;Node6</title>
<g id="a_edge9_Node000001_Node000006"><a xlink:title=" ">
<path fill="none" stroke="#63b8ff" d="M86.36,-113.9C106.14,-98.47 144.7,-69.38 180,-48.5 194.19,-40.11 210.51,-31.98 224.58,-25.41"/>
<polygon fill="#63b8ff" stroke="#63b8ff" points="226.28,-28.48 233.91,-21.13 223.36,-22.12 226.28,-28.48"/>
</a>
</g>
</g>
<!-- Node2&#45;&gt;Node2 -->
<g id="edge2_Node000002_Node000002" class="edge">
<title>Node2&#45;&gt;Node2</title>
<g id="a_edge2_Node000002_Node000002"><a xlink:title=" ">
<path fill="none" stroke="#63b8ff" d="M229.95,-249.02C217.32,-257.81 227.17,-267 259.5,-267 280.72,-267 292.25,-263.04 294.11,-257.84"/>
<polygon fill="#63b8ff" stroke="#63b8ff" points="297.06,-255.96 289.05,-249.02 290.99,-259.44 297.06,-255.96"/>
</a>
</g>
</g>
<!-- Node3&#45;&gt;Node3 -->
<g id="edge4_Node000003_Node000003" class="edge">
<title>Node3&#45;&gt;Node3</title>
<g id="a_edge4_Node000003_Node000003"><a xlink:title=" ">
<path fill="none" stroke="#63b8ff" d="M229.95,-192.02C217.32,-200.81 227.17,-210 259.5,-210 280.72,-210 292.25,-206.04 294.11,-200.84"/>
<polygon fill="#63b8ff" stroke="#63b8ff" points="297.06,-198.96 289.05,-192.02 290.99,-202.44 297.06,-198.96"/>
</a>
</g>
</g>
<!-- Node4&#45;&gt;Node4 -->
<g id="edge6_Node000004_Node000004" class="edge">
<title>Node4&#45;&gt;Node4</title>
<g id="a_edge6_Node000004_Node000004"><a xlink:title=" ">
<path fill="none" stroke="#63b8ff" d="M229.95,-135.02C217.32,-143.81 227.17,-153 259.5,-153 280.72,-153 292.25,-149.04 294.11,-143.84"/>
<polygon fill="#63b8ff" stroke="#63b8ff" points="297.06,-141.96 289.05,-135.02 290.99,-145.44 297.06,-141.96"/>
</a>
</g>
</g>
<!-- Node5&#45;&gt;Node5 -->
<g id="edge8_Node000005_Node000005" class="edge">
<title>Node5&#45;&gt;Node5</title>
<g id="a_edge8_Node000005_Node000005"><a xlink:title=" ">
<path fill="none" stroke="#63b8ff" d="M229.95,-78.02C217.32,-86.81 227.17,-96 259.5,-96 280.72,-96 292.25,-92.04 294.11,-86.84"/>
<polygon fill="#63b8ff" stroke="#63b8ff" points="297.06,-84.96 289.05,-78.02 290.99,-88.44 297.06,-84.96"/>
</a>
</g>
</g>
<!-- Node6&#45;&gt;Node6 -->
<g id="edge10_Node000006_Node000006" class="edge">
<title>Node6&#45;&gt;Node6</title>
<g id="a_edge10_Node000006_Node000006"><a xlink:title=" ">
<path fill="none" stroke="#63b8ff" d="M229.95,-21.02C217.32,-29.81 227.17,-39 259.5,-39 280.72,-39 292.25,-35.04 294.11,-29.84"/>
<polygon fill="#63b8ff" stroke="#63b8ff" points="297.06,-27.96 289.05,-21.02 290.99,-31.44 297.06,-27.96"/>
</a>
</g>
</g>
</g>
</svg>
</svg>

<style type='text/css'>
<![CDATA[
[data-mouse-over-selected='false'] { opacity: 0.7; }
[data-mouse-over-selected='true']  { opacity: 1.0; }
]]>
</style>
<script type="application/ecmascript"><![CDATA[
document.addEventListener('DOMContentLoaded', (event) => {
  highlightEdges();
  highlightAdjacentNodes();
});
]]></script>
</svg>
