<?xml version="1.0" encoding="UTF-8" standalone="no"?>
<!DOCTYPE svg PUBLIC "-//W3C//DTD SVG 1.1//EN"
 "http://www.w3.org/Graphics/SVG/1.1/DTD/svg11.dtd">
<!-- Generated by graphviz version 2.43.0 (0)
 -->
<!-- Title: CrewBase.SwapEquipment Pages: 1 -->
<!--zoomable 143 -->

<svg id="main" version="1.1" xmlns="http://www.w3.org/2000/svg" xmlns:xlink="http://www.w3.org/1999/xlink" xml:space="preserve" onload="init(evt)">
<style type="text/css"><![CDATA[
.node, .edge {opacity: 0.7;}
.node.selected, .edge.selected {opacity: 1;}
.edge:hover path { stroke: red; }
.edge:hover polygon { stroke: red; fill: red; }
]]></style>

<defs>
  <circle id="rim" cx="0" cy="0" r="7"/>
  <circle id="rim2" cx="0" cy="0" r="3.5"/>
  <g id="zoomPlus">
    <use xlink:href="#rim" fill="#404040"><set attributeName="fill" to="#808080" begin="zoomplus.mouseover" end="zoomplus.mouseout"/></use>
    <path d="M-4,0h8M0,-4v8" fill="none" stroke="white" stroke-width="1.5" pointer-events="none"/>
  </g>
  <g id="zoomMin">
    <use xlink:href="#rim" fill="#404040"><set attributeName="fill" to="#808080" begin="zoomminus.mouseover" end="zoomminus.mouseout"/></use>
    <path d="M-4,0h8" fill="none" stroke="white" stroke-width="1.5" pointer-events="none"/>
  </g>
  <g id="arrowUp" transform="translate(30 24)">
    <use xlink:href="#rim"/>
    <path pointer-events="none" fill="none" stroke="white" stroke-width="1.5" d="M0,-3.0v7 M-2.5,-0.5L0,-3.0L2.5,-0.5"/>
  </g>
  <g id="arrowRight" transform="rotate(90) translate(36 -43)">
    <use xlink:href="#rim"/>
    <path pointer-events="none" fill="none" stroke="white" stroke-width="1.5" d="M0,-3.0v7 M-2.5,-0.5L0,-3.0L2.5,-0.5"/>
  </g>
  <g id="arrowDown" transform="rotate(180) translate(-30 -48)">
    <use xlink:href="#rim"/>
    <path pointer-events="none" fill="none" stroke="white" stroke-width="1.5" d="M0,-3.0v7 M-2.5,-0.5L0,-3.0L2.5,-0.5"/>
  </g>
  <g id="arrowLeft" transform="rotate(270) translate(-36 17)">
    <use xlink:href="#rim"/>
    <path pointer-events="none" fill="none" stroke="white" stroke-width="1.5" d="M0,-3.0v7 M-2.5,-0.5L0,-3.0L2.5,-0.5"/>
  </g>
  <g id="resetDef">
    <use xlink:href="#rim2" fill="#404040"><set attributeName="fill" to="#808080" begin="reset.mouseover" end="reset.mouseout"/></use>
  </g>
</defs>
<script type="application/ecmascript">
var viewWidth = 985;
var viewHeight = 143;
var sectionId = 'dynsection-10';
</script>
<script type="application/ecmascript" xlink:href="svg.min.js"/>
<svg id="graph" class="graph">
<g id="viewport">
<title>CrewBase.SwapEquipment</title>
<!-- Node1 -->
<g id="Node000001" class="node">
<title>Node1</title>
<g id="a_Node000001"><a xlink:title="기존 장비를 해제하고 새 장비를 장착합니다.">
<polygon fill="#999999" stroke="#666666" points="977,-102.5 795,-102.5 795,-81.5 977,-81.5 977,-102.5"/>
<text text-anchor="middle" x="886" y="-88.9" font-family="Consolas" font-size="12.00">CrewBase.SwapEquipment</text>
</a>
</g>
</g>
<!-- Node2 -->
<g id="Node000002" class="node">
<title>Node2</title>
<g id="a_Node000002"><a xlink:href="classCrewBase.html#a9dddfbc358fd94633bac8de4575e4f8a" target="_top" xlink:title="개인 장비를 착용합니다. 기존 장비는 해제되며 효과도 반영됩니다.">
<polygon fill="white" stroke="#666666" points="759,-102.5 510,-102.5 510,-81.5 759,-81.5 759,-102.5"/>
<text text-anchor="middle" x="634.5" y="-88.9" font-family="Consolas" font-size="12.00">CrewBase.ApplyPersonalEquipment</text>
</a>
</g>
</g>
<!-- Node1&#45;&gt;Node2 -->
<g id="edge1_Node000001_Node000002" class="edge">
<title>Node1&#45;&gt;Node2</title>
<g id="a_edge1_Node000001_Node000002"><a xlink:title=" ">
<path fill="none" stroke="#63b8ff" d="M784.78,-92C776.39,-92 767.85,-92 759.31,-92"/>
<polygon fill="#63b8ff" stroke="#63b8ff" points="784.92,-95.5 794.92,-92 784.92,-88.5 784.92,-95.5"/>
</a>
</g>
</g>
<!-- Node3 -->
<g id="Node000003" class="node">
<title>Node3</title>
<g id="a_Node000003"><a xlink:href="classEquipmentManager.html#ac4e3818c3b6daa9db63cd7a78f07bfdf" target="_top" xlink:title="전 크루에게 적용되는 전역 장비 구매 및 장착 처리.">
<polygon fill="white" stroke="#666666" points="474,-135 270,-135 270,-101 474,-101 474,-135"/>
<text text-anchor="start" x="278" y="-121.4" font-family="Consolas" font-size="12.00">EquipmentManager.Purchase</text>
<text text-anchor="middle" x="372" y="-108.4" font-family="Consolas" font-size="12.00">AndEquipGlobal</text>
</a>
</g>
</g>
<!-- Node2&#45;&gt;Node3 -->
<g id="edge2_Node000002_Node000003" class="edge">
<title>Node2&#45;&gt;Node3</title>
<g id="a_edge2_Node000002_Node000003"><a xlink:title=" ">
<path fill="none" stroke="#63b8ff" d="M518.23,-103.51C503.61,-104.96 488.75,-106.45 474.37,-107.88"/>
<polygon fill="#63b8ff" stroke="#63b8ff" points="518.69,-106.98 528.3,-102.5 518,-100.01 518.69,-106.98"/>
</a>
</g>
</g>
<!-- Node5 -->
<g id="Node000005" class="node">
<title>Node5</title>
<g id="a_Node000005"><a xlink:href="classEquipmentManager.html#a90239daf1d91e83617f4863e00a4b2e2" target="_top" xlink:title="개별 크루에게 장비를 구매하고 적용합니다. 전역 장비는 무시됩니다.">
<polygon fill="white" stroke="#666666" points="474,-83 270,-83 270,-49 474,-49 474,-83"/>
<text text-anchor="start" x="278" y="-69.4" font-family="Consolas" font-size="12.00">EquipmentManager.Purchase</text>
<text text-anchor="middle" x="372" y="-56.4" font-family="Consolas" font-size="12.00">AndEquipPersonal</text>
</a>
</g>
</g>
<!-- Node2&#45;&gt;Node5 -->
<g id="edge4_Node000002_Node000005" class="edge">
<title>Node2&#45;&gt;Node5</title>
<g id="a_edge4_Node000002_Node000005"><a xlink:title=" ">
<path fill="none" stroke="#63b8ff" d="M518.23,-80.49C503.61,-79.04 488.75,-77.55 474.37,-76.12"/>
<polygon fill="#63b8ff" stroke="#63b8ff" points="518,-83.99 528.3,-81.5 518.69,-77.02 518,-83.99"/>
</a>
</g>
</g>
<!-- Node4 -->
<g id="Node000004" class="node">
<title>Node4</title>
<g id="a_Node000004"><a xlink:href="classEquipmentUIHandler.html#a36609bab2603d9760f69e61c2ff4dbde" target="_top" xlink:title="구매 버튼 클릭 시 호출됩니다. 재화를 차감하고, 장비 효과를 적용하며, 버튼 색상도 변경됩니다.">
<polygon fill="white" stroke="#666666" points="234,-128.5 0,-128.5 0,-107.5 234,-107.5 234,-128.5"/>
<text text-anchor="middle" x="117" y="-114.9" font-family="Consolas" font-size="12.00">EquipmentUIHandler.OnClickBuy</text>
</a>
</g>
</g>
<!-- Node3&#45;&gt;Node4 -->
<g id="edge3_Node000003_Node000004" class="edge">
<title>Node3&#45;&gt;Node4</title>
<g id="a_edge3_Node000003_Node000004"><a xlink:title=" ">
<path fill="none" stroke="#63b8ff" d="M259.71,-118C251.29,-118 242.78,-118 234.33,-118"/>
<polygon fill="#63b8ff" stroke="#63b8ff" points="259.92,-121.5 269.92,-118 259.92,-114.5 259.92,-121.5"/>
</a>
</g>
</g>
<!-- Node6 -->
<g id="Node000006" class="node">
<title>Node6</title>
<g id="a_Node000006"><a xlink:href="classEquipmentApplyHandler.html#aa78bfaf762e0ef65f070c6aea9f16112" target="_top" xlink:title="ok 버튼 눌러 장비를 선원에게 직접 적용 / 해제">
<polygon fill="white" stroke="#666666" points="215.5,-86 18.5,-86 18.5,-52 215.5,-52 215.5,-86"/>
<text text-anchor="start" x="26.5" y="-72.4" font-family="Consolas" font-size="12.00">EquipmentApplyHandler.On</text>
<text text-anchor="middle" x="117" y="-59.4" font-family="Consolas" font-size="12.00">ClickStatApplyButton</text>
</a>
</g>
</g>
<!-- Node5&#45;&gt;Node6 -->
<g id="edge5_Node000005_Node000006" class="edge">
<title>Node5&#45;&gt;Node6</title>
<g id="a_edge5_Node000005_Node000006"><a xlink:title=" ">
<path fill="none" stroke="#63b8ff" d="M259.79,-67.32C245.08,-67.49 230.09,-67.67 215.63,-67.84"/>
<polygon fill="#63b8ff" stroke="#63b8ff" points="259.96,-70.82 269.92,-67.2 259.88,-63.82 259.96,-70.82"/>
</a>
</g>
</g>
<!-- Node7 -->
<g id="Node000007" class="node">
<title>Node7</title>
<g id="a_Node000007"><a xlink:href="classEquipmentUIHandler.html#a64413f18f8e2e2448bdde4a42834a9df" target="_top" xlink:title="ok 버튼 눌러 장비를 선원에게 직접 적용 / 해제">
<polygon fill="white" stroke="#666666" points="223,-34 11,-34 11,0 223,0 223,-34"/>
<text text-anchor="start" x="19" y="-20.4" font-family="Consolas" font-size="12.00">EquipmentUIHandler.OnClick</text>
<text text-anchor="middle" x="117" y="-7.4" font-family="Consolas" font-size="12.00">StatApplyButton</text>
</a>
</g>
</g>
<!-- Node5&#45;&gt;Node7 -->
<g id="edge6_Node000005_Node000007" class="edge">
<title>Node5&#45;&gt;Node7</title>
<g id="a_edge6_Node000005_Node000007"><a xlink:title=" ">
<path fill="none" stroke="#63b8ff" d="M273.16,-47.05C251.06,-42.77 227.72,-38.25 206.05,-34.05"/>
<polygon fill="#63b8ff" stroke="#63b8ff" points="272.74,-50.53 283.22,-49 274.07,-43.66 272.74,-50.53"/>
</a>
</g>
</g>
</g>
</svg>

<g id="navigator" transform="translate(0 0)" fill="#404254">
  <rect fill="#f2f5e9" fill-opacity="0.5" stroke="#606060" stroke-width=".5" x="0" y="0" width="60" height="60"/>
  <use id="zoomplus" xlink:href="#zoomPlus" x="17" y="9" onmousedown="handleZoom(evt,'in')"/>
  <use id="zoomminus" xlink:href="#zoomMin" x="42" y="9" onmousedown="handleZoom(evt,'out')"/>
  <use id="reset" xlink:href="#resetDef" x="30" y="36" onmousedown="handleReset()"/>
   <use id="arrowup" xlink:href="#arrowUp" x="0" y="0" onmousedown="handlePan(0,-1)"/>
  <use id="arrowright" xlink:href="#arrowRight" x="0" y="0" onmousedown="handlePan(1,0)"/>
  <use id="arrowdown" xlink:href="#arrowDown" x="0" y="0" onmousedown="handlePan(0,1)"/>
  <use id="arrowleft" xlink:href="#arrowLeft" x="0" y="0" onmousedown="handlePan(-1,0)"/>
</g>
<svg viewBox="0 0 15 15" width="100%" height="30px" preserveAspectRatio="xMaxYMin meet">
 <g id="arrow_out" transform="scale(0.3 0.3)">
  <a xlink:href="classCrewBase_ae85c44a76273e19c8d76f3eb61a24d49_icgraph_org.svg" target="_base">
   <rect id="button" ry="5" rx="5" y="6" x="6" height="38" width="38"
        fill="#f2f5e9" fill-opacity="0.5" stroke="#606060" stroke-width="1.0"/>
   <path id="arrow"
     d="M 11.500037,31.436501 C 11.940474,20.09759 22.043105,11.32322 32.158766,21.979434 L 37.068811,17.246167 C 37.068811,17.246167 37.088388,32 37.088388,32 L 22.160133,31.978069 C 22.160133,31.978069 26.997745,27.140456 26.997745,27.140456 C 18.528582,18.264221 13.291696,25.230495 11.500037,31.436501 z"
     style="fill:#404040;"/>
  </a>
 </g>
</svg>

<style type='text/css'>
<![CDATA[
[data-mouse-over-selected='false'] { opacity: 0.7; }
[data-mouse-over-selected='true']  { opacity: 1.0; }
]]>
</style>
<script type="application/ecmascript"><![CDATA[
document.addEventListener('DOMContentLoaded', (event) => {
  highlightEdges();
  highlightAdjacentNodes();
});
]]></script>
</svg>
