<?xml version="1.0" encoding="UTF-8" standalone="no"?>
<!DOCTYPE svg PUBLIC "-//W3C//DTD SVG 1.1//EN"
 "http://www.w3.org/Graphics/SVG/1.1/DTD/svg11.dtd">
<!-- Generated by graphviz version 2.43.0 (0)
 -->
<!-- Title: NodePlacementMap.UpdateValidRangeIndicator Pages: 1 -->
<!--zoomable 121 -->

<svg id="main" version="1.1" xmlns="http://www.w3.org/2000/svg" xmlns:xlink="http://www.w3.org/1999/xlink" xml:space="preserve" onload="init(evt)">
<style type="text/css"><![CDATA[
.node, .edge {opacity: 0.7;}
.node.selected, .edge.selected {opacity: 1;}
.edge:hover path { stroke: red; }
.edge:hover polygon { stroke: red; fill: red; }
]]></style>

<defs>
  <circle id="rim" cx="0" cy="0" r="7"/>
  <circle id="rim2" cx="0" cy="0" r="3.5"/>
  <g id="zoomPlus">
    <use xlink:href="#rim" fill="#404040"><set attributeName="fill" to="#808080" begin="zoomplus.mouseover" end="zoomplus.mouseout"/></use>
    <path d="M-4,0h8M0,-4v8" fill="none" stroke="white" stroke-width="1.5" pointer-events="none"/>
  </g>
  <g id="zoomMin">
    <use xlink:href="#rim" fill="#404040"><set attributeName="fill" to="#808080" begin="zoomminus.mouseover" end="zoomminus.mouseout"/></use>
    <path d="M-4,0h8" fill="none" stroke="white" stroke-width="1.5" pointer-events="none"/>
  </g>
  <g id="arrowUp" transform="translate(30 24)">
    <use xlink:href="#rim"/>
    <path pointer-events="none" fill="none" stroke="white" stroke-width="1.5" d="M0,-3.0v7 M-2.5,-0.5L0,-3.0L2.5,-0.5"/>
  </g>
  <g id="arrowRight" transform="rotate(90) translate(36 -43)">
    <use xlink:href="#rim"/>
    <path pointer-events="none" fill="none" stroke="white" stroke-width="1.5" d="M0,-3.0v7 M-2.5,-0.5L0,-3.0L2.5,-0.5"/>
  </g>
  <g id="arrowDown" transform="rotate(180) translate(-30 -48)">
    <use xlink:href="#rim"/>
    <path pointer-events="none" fill="none" stroke="white" stroke-width="1.5" d="M0,-3.0v7 M-2.5,-0.5L0,-3.0L2.5,-0.5"/>
  </g>
  <g id="arrowLeft" transform="rotate(270) translate(-36 17)">
    <use xlink:href="#rim"/>
    <path pointer-events="none" fill="none" stroke="white" stroke-width="1.5" d="M0,-3.0v7 M-2.5,-0.5L0,-3.0L2.5,-0.5"/>
  </g>
  <g id="resetDef">
    <use xlink:href="#rim2" fill="#404040"><set attributeName="fill" to="#808080" begin="reset.mouseover" end="reset.mouseout"/></use>
  </g>
</defs>
<script type="application/ecmascript">
var viewWidth = 760;
var viewHeight = 121;
var sectionId = 'dynsection-10';
</script>
<script type="application/ecmascript" xlink:href="svg.min.js"/>
<svg id="graph" class="graph">
<g id="viewport">
<title>NodePlacementMap.UpdateValidRangeIndicator</title>
<!-- Node1 -->
<g id="Node000001" class="node">
<title>Node1</title>
<g id="a_Node000001"><a xlink:title="유효 범위 표시기의 위치를 업데이트합니다.">
<polygon fill="#999999" stroke="#666666" points="752,-66.5 525,-66.5 525,-32.5 752,-32.5 752,-66.5"/>
<text text-anchor="start" x="533" y="-52.9" font-family="Consolas" font-size="12.00">NodePlacementMap.UpdateValid</text>
<text text-anchor="middle" x="638.5" y="-39.9" font-family="Consolas" font-size="12.00">RangeIndicator</text>
</a>
</g>
</g>
<!-- Node2 -->
<g id="Node000002" class="node">
<title>Node2</title>
<g id="a_Node000002"><a xlink:href="classNodePlacementMap.html#ae94d637a1ddb262a24a49688ada93179" target="_top" xlink:title="행성 클릭 시 경로에 추가하고 배치를 종료합니다.">
<polygon fill="white" stroke="#666666" points="474,-112.5 270,-112.5 270,-78.5 474,-78.5 474,-112.5"/>
<text text-anchor="start" x="278" y="-98.9" font-family="Consolas" font-size="12.00">NodePlacementMap.OnPlanet</text>
<text text-anchor="middle" x="372" y="-85.9" font-family="Consolas" font-size="12.00">Clicked</text>
</a>
</g>
</g>
<!-- Node1&#45;&gt;Node2 -->
<g id="edge1_Node000001_Node000002" class="edge">
<title>Node1&#45;&gt;Node2</title>
<g id="a_edge1_Node000001_Node000002"><a xlink:title=" ">
<path fill="none" stroke="#63b8ff" d="M529.35,-68.31C510.02,-71.67 489.98,-75.16 470.96,-78.46"/>
<polygon fill="#63b8ff" stroke="#63b8ff" points="530.13,-71.73 539.39,-66.56 528.93,-64.83 530.13,-71.73"/>
</a>
</g>
</g>
<!-- Node4 -->
<g id="Node000004" class="node">
<title>Node4</title>
<g id="a_Node000004"><a xlink:href="classNodePlacementMap.html#a23caca1f0e47338d8feaad47dc2d8439" target="_top" xlink:title="노드 배치를 시도합니다.">
<polygon fill="white" stroke="#666666" points="489,-60 255,-60 255,-39 489,-39 489,-60"/>
<text text-anchor="middle" x="372" y="-46.4" font-family="Consolas" font-size="12.00">NodePlacementMap.TryPlaceNode</text>
</a>
</g>
</g>
<!-- Node1&#45;&gt;Node4 -->
<g id="edge3_Node000001_Node000004" class="edge">
<title>Node1&#45;&gt;Node4</title>
<g id="a_edge3_Node000001_Node000004"><a xlink:title=" ">
<path fill="none" stroke="#63b8ff" d="M514.94,-49.5C506.38,-49.5 497.78,-49.5 489.26,-49.5"/>
<polygon fill="#63b8ff" stroke="#63b8ff" points="514.94,-53 524.94,-49.5 514.94,-46 514.94,-53"/>
</a>
</g>
</g>
<!-- Node6 -->
<g id="Node000006" class="node">
<title>Node6</title>
<g id="a_Node000006"><a xlink:href="classNodePlacementMap.html#a63970e0b2895aa151e3b3456eac70b3e" target="_top" xlink:title="매 프레임마다 유효 범위 표시기를 갱신합니다.">
<polygon fill="white" stroke="#666666" points="466.5,-21 277.5,-21 277.5,0 466.5,0 466.5,-21"/>
<text text-anchor="middle" x="372" y="-7.4" font-family="Consolas" font-size="12.00">NodePlacementMap.Update</text>
</a>
</g>
</g>
<!-- Node1&#45;&gt;Node6 -->
<g id="edge5_Node000001_Node000006" class="edge">
<title>Node1&#45;&gt;Node6</title>
<g id="a_edge5_Node000001_Node000006"><a xlink:title=" ">
<path fill="none" stroke="#63b8ff" d="M514.99,-31.44C490.84,-27.87 466.25,-24.25 444.46,-21.04"/>
<polygon fill="#63b8ff" stroke="#63b8ff" points="514.54,-34.91 524.94,-32.9 515.56,-27.98 514.54,-34.91"/>
</a>
</g>
</g>
<!-- Node3 -->
<g id="Node000003" class="node">
<title>Node3</title>
<g id="a_Node000003"><a xlink:href="classNodePlacementMap.html#a8ef0fbbed3fa506af750b472f6eeff70" target="_top" xlink:title="Planet.cs에서 행성 클릭 시 호출되는 메서드입니다.">
<polygon fill="white" stroke="#666666" points="211.5,-112.5 7.5,-112.5 7.5,-78.5 211.5,-78.5 211.5,-112.5"/>
<text text-anchor="start" x="15.5" y="-98.9" font-family="Consolas" font-size="12.00">NodePlacementMap.OnPlanet</text>
<text text-anchor="middle" x="109.5" y="-85.9" font-family="Consolas" font-size="12.00">ClickedFromComponent</text>
</a>
</g>
</g>
<!-- Node2&#45;&gt;Node3 -->
<g id="edge2_Node000002_Node000003" class="edge">
<title>Node2&#45;&gt;Node3</title>
<g id="a_edge2_Node000002_Node000003"><a xlink:title=" ">
<path fill="none" stroke="#63b8ff" d="M259.5,-95.5C243.57,-95.5 227.25,-95.5 211.53,-95.5"/>
<polygon fill="#63b8ff" stroke="#63b8ff" points="259.91,-99 269.91,-95.5 259.91,-92 259.91,-99"/>
</a>
</g>
</g>
<!-- Node5 -->
<g id="Node000005" class="node">
<title>Node5</title>
<g id="a_Node000005"><a xlink:href="classNodePlacementMap.html#ae365de2af57732b188dc9f52b8a58855" target="_top" xlink:title="맵 클릭 시 호출되어 노드 배치를 시도합니다.">
<polygon fill="white" stroke="#666666" points="219,-60 0,-60 0,-39 219,-39 219,-60"/>
<text text-anchor="middle" x="109.5" y="-46.4" font-family="Consolas" font-size="12.00">NodePlacementMap.OnMapClick</text>
</a>
</g>
</g>
<!-- Node4&#45;&gt;Node5 -->
<g id="edge4_Node000004_Node000005" class="edge">
<title>Node4&#45;&gt;Node5</title>
<g id="a_edge4_Node000004_Node000005"><a xlink:title=" ">
<path fill="none" stroke="#63b8ff" d="M244.58,-49.5C236.15,-49.5 227.69,-49.5 219.36,-49.5"/>
<polygon fill="#63b8ff" stroke="#63b8ff" points="244.84,-53 254.84,-49.5 244.84,-46 244.84,-53"/>
</a>
</g>
</g>
</g>
</svg>

<g id="navigator" transform="translate(0 0)" fill="#404254">
  <rect fill="#f2f5e9" fill-opacity="0.5" stroke="#606060" stroke-width=".5" x="0" y="0" width="60" height="60"/>
  <use id="zoomplus" xlink:href="#zoomPlus" x="17" y="9" onmousedown="handleZoom(evt,'in')"/>
  <use id="zoomminus" xlink:href="#zoomMin" x="42" y="9" onmousedown="handleZoom(evt,'out')"/>
  <use id="reset" xlink:href="#resetDef" x="30" y="36" onmousedown="handleReset()"/>
   <use id="arrowup" xlink:href="#arrowUp" x="0" y="0" onmousedown="handlePan(0,-1)"/>
  <use id="arrowright" xlink:href="#arrowRight" x="0" y="0" onmousedown="handlePan(1,0)"/>
  <use id="arrowdown" xlink:href="#arrowDown" x="0" y="0" onmousedown="handlePan(0,1)"/>
  <use id="arrowleft" xlink:href="#arrowLeft" x="0" y="0" onmousedown="handlePan(-1,0)"/>
</g>
<svg viewBox="0 0 15 15" width="100%" height="30px" preserveAspectRatio="xMaxYMin meet">
 <g id="arrow_out" transform="scale(0.3 0.3)">
  <a xlink:href="classNodePlacementMap_a1ee46cf2ebec4644cfb17ae06e61cafa_icgraph_org.svg" target="_base">
   <rect id="button" ry="5" rx="5" y="6" x="6" height="38" width="38"
        fill="#f2f5e9" fill-opacity="0.5" stroke="#606060" stroke-width="1.0"/>
   <path id="arrow"
     d="M 11.500037,31.436501 C 11.940474,20.09759 22.043105,11.32322 32.158766,21.979434 L 37.068811,17.246167 C 37.068811,17.246167 37.088388,32 37.088388,32 L 22.160133,31.978069 C 22.160133,31.978069 26.997745,27.140456 26.997745,27.140456 C 18.528582,18.264221 13.291696,25.230495 11.500037,31.436501 z"
     style="fill:#404040;"/>
  </a>
 </g>
</svg>

<style type='text/css'>
<![CDATA[
[data-mouse-over-selected='false'] { opacity: 0.7; }
[data-mouse-over-selected='true']  { opacity: 1.0; }
]]>
</style>
<script type="application/ecmascript"><![CDATA[
document.addEventListener('DOMContentLoaded', (event) => {
  highlightEdges();
  highlightAdjacentNodes();
});
]]></script>
</svg>
