<?xml version="1.0" encoding="UTF-8" standalone="no"?>
<!DOCTYPE svg PUBLIC "-//W3C//DTD SVG 1.1//EN"
 "http://www.w3.org/Graphics/SVG/1.1/DTD/svg11.dtd">
<!-- Generated by graphviz version 2.43.0 (0)
 -->
<!-- Title: InventoryItemUI.Setup Pages: 1 -->
<svg width="685pt" height="29pt"
 viewBox="0.00 0.00 685.00 29.00" xmlns="http://www.w3.org/2000/svg" xmlns:xlink="http://www.w3.org/1999/xlink">
<g id="graph0" class="graph" transform="scale(1 1) rotate(0) translate(4 25)">
<title>InventoryItemUI.Setup</title>
<!-- Node1 -->
<g id="Node000001" class="node">
<title>Node1</title>
<g id="a_Node000001"><a xlink:title="아이템 데이터와 수량, 구매 당시 가격을 받아 UI를 초기화합니다.">
<polygon fill="#999999" stroke="#666666" points="174,-21 0,-21 0,0 174,0 174,-21"/>
<text text-anchor="middle" x="87" y="-7.4" font-family="Consolas" font-size="12.00">InventoryItemUI.Setup</text>
</a>
</g>
</g>
<!-- Node2 -->
<g id="Node000002" class="node">
<title>Node2</title>
<g id="a_Node000002"><a xlink:href="classInventoryItemUI.html#a3fe4150cf97c171d203c8c3272ac20c0" target="_top" xlink:title="현재 슬롯의 선택 상태를 설정합니다.">
<polygon fill="white" stroke="#666666" points="429,-21 210,-21 210,0 429,0 429,-21"/>
<text text-anchor="middle" x="319.5" y="-7.4" font-family="Consolas" font-size="12.00">InventoryItemUI.SetSelected</text>
</a>
</g>
</g>
<!-- Node1&#45;&gt;Node2 -->
<g id="edge1_Node000001_Node000002" class="edge">
<title>Node1&#45;&gt;Node2</title>
<g id="a_edge1_Node000001_Node000002"><a xlink:title=" ">
<path fill="none" stroke="#63b8ff" d="M174.16,-10.5C182.52,-10.5 191.1,-10.5 199.71,-10.5"/>
<polygon fill="#63b8ff" stroke="#63b8ff" points="199.82,-14 209.82,-10.5 199.82,-7 199.82,-14"/>
</a>
</g>
</g>
<!-- Node3 -->
<g id="Node000003" class="node">
<title>Node3</title>
<g id="a_Node000003"><a xlink:href="classInventoryItemUI.html#a0d9fd41fc111f34c6c7ccfaf1577e76b" target="_top" xlink:title="4개 텍스트 색상을 모두 지정된 색으로 설정합니다.">
<polygon fill="white" stroke="#666666" points="677,-21 465,-21 465,0 677,0 677,-21"/>
<text text-anchor="middle" x="571" y="-7.4" font-family="Consolas" font-size="12.00">InventoryItemUI.ApplyColor</text>
</a>
</g>
</g>
<!-- Node2&#45;&gt;Node3 -->
<g id="edge2_Node000002_Node000003" class="edge">
<title>Node2&#45;&gt;Node3</title>
<g id="a_edge2_Node000002_Node000003"><a xlink:title=" ">
<path fill="none" stroke="#63b8ff" d="M429.21,-10.5C437.61,-10.5 446.11,-10.5 454.56,-10.5"/>
<polygon fill="#63b8ff" stroke="#63b8ff" points="454.82,-14 464.82,-10.5 454.82,-7 454.82,-14"/>
</a>
</g>
</g>
</g>
</svg>
