<?xml version="1.0" encoding="UTF-8" standalone="no"?>
<!DOCTYPE svg PUBLIC "-//W3C//DTD SVG 1.1//EN"
 "http://www.w3.org/Graphics/SVG/1.1/DTD/svg11.dtd">
<!-- Generated by graphviz version 2.43.0 (0)
 -->
<!-- Title: RepairAlert Pages: 1 -->
<svg width="239pt" height="256pt"
 viewBox="0.00 0.00 239.00 256.00" xmlns="http://www.w3.org/2000/svg" xmlns:xlink="http://www.w3.org/1999/xlink">

<svg id="main" version="1.1" xmlns="http://www.w3.org/2000/svg" xmlns:xlink="http://www.w3.org/1999/xlink" xml:space="preserve" onload="init(evt)">
<style type="text/css"><![CDATA[
.node, .edge {opacity: 0.7;}
.node.selected, .edge.selected {opacity: 1;}
.edge:hover path { stroke: red; }
.edge:hover polygon { stroke: red; fill: red; }
]]></style>
<script type="application/ecmascript" xlink:href="svg.min.js"/>
<svg id="graph" class="graph">
<g id="graph0" class="graph" transform="scale(1 1) rotate(0) translate(4 252)">
<title>RepairAlert</title>
<!-- Node1 -->
<g id="Node000001" class="node">
<title>Node1</title>
<g id="a_Node000001"><a xlink:title=" ">
<polygon fill="#999999" stroke="transparent" points="231,-157 0,-157 0,0 231,0 231,-157"/>
<text text-anchor="start" x="74.5" y="-142.9" font-family="Consolas" font-size="12.00">RepairAlert</text>
<text text-anchor="start" x="4.5" y="-125.9" font-family="Consolas" font-size="12.00">+</text>
<text text-anchor="start" x="16.5" y="-125.9" font-family="Consolas" font-size="12.00">int repairCF</text>
<text text-anchor="start" x="4.5" y="-108.9" font-family="Consolas" font-size="12.00">&#45;</text>
<text text-anchor="start" x="16.5" y="-108.9" font-family="Consolas" font-size="12.00">Ship playerShip</text>
<text text-anchor="start" x="4.5" y="-91.9" font-family="Consolas" font-size="12.00">&#45;</text>
<text text-anchor="start" x="16.5" y="-91.9" font-family="Consolas" font-size="12.00">List&lt; Room &gt; destroyedRooms</text>
<text text-anchor="start" x="4.5" y="-74.9" font-family="Consolas" font-size="12.00">&#45;</text>
<text text-anchor="start" x="16.5" y="-74.9" font-family="Consolas" font-size="12.00">int destroyedRoomsCount</text>
<text text-anchor="start" x="4.5" y="-57.9" font-family="Consolas" font-size="12.00">&#45;</text>
<text text-anchor="start" x="16.5" y="-57.9" font-family="Consolas" font-size="12.00">Animator animator</text>
<text text-anchor="start" x="4.5" y="-40.9" font-family="Consolas" font-size="12.00">&#45;</text>
<text text-anchor="start" x="16.5" y="-40.9" font-family="Consolas" font-size="12.00">int repairCost</text>
<text text-anchor="start" x="4.5" y="-23.9" font-family="Consolas" font-size="12.00">+</text>
<text text-anchor="start" x="16.5" y="-23.9" font-family="Consolas" font-size="12.00">void OnRepairButtonClicked()</text>
<text text-anchor="start" x="4.5" y="-6.9" font-family="Consolas" font-size="12.00">&#45;</text>
<text text-anchor="start" x="16.5" y="-6.9" font-family="Consolas" font-size="12.00">void Start()</text>
<polygon fill="#666666" stroke="#666666" points="0.5,-137.5 0.5,-137.5 231.5,-137.5 231.5,-137.5 0.5,-137.5"/>
<polygon fill="#666666" stroke="#666666" points="0.5,-35.5 0.5,-35.5 14.5,-35.5 14.5,-35.5 0.5,-35.5"/>
<polygon fill="#666666" stroke="#666666" points="14.5,-35.5 14.5,-35.5 231.5,-35.5 231.5,-35.5 14.5,-35.5"/>
<polygon fill="none" stroke="#666666" points="0,0 0,-157 231,-157 231,0 0,0"/>
</a>
</g>
</g>
<!-- Node2 -->
<g id="Node000002" class="node">
<title>Node2</title>
<g id="a_Node000002"><a xlink:title=" ">
<polygon fill="white" stroke="transparent" points="169.5,-248 61.5,-248 61.5,-193 169.5,-193 169.5,-248"/>
<text text-anchor="start" x="66.5" y="-233.9" font-family="Consolas" font-size="12.00">MonoBehaviour</text>
<text text-anchor="start" x="111.5" y="-216.9" font-family="Consolas" font-size="12.00"> </text>
<text text-anchor="start" x="111.5" y="-199.9" font-family="Consolas" font-size="12.00"> </text>
<polygon fill="#bfbfbf" stroke="#bfbfbf" points="61.5,-228.5 61.5,-228.5 169.5,-228.5 169.5,-228.5 61.5,-228.5"/>
<polygon fill="#bfbfbf" stroke="#bfbfbf" points="61.5,-211.5 61.5,-211.5 169.5,-211.5 169.5,-211.5 61.5,-211.5"/>
<polygon fill="none" stroke="#bfbfbf" points="61.5,-193 61.5,-248 169.5,-248 169.5,-193 61.5,-193"/>
</a>
</g>
</g>
<!-- Node2&#45;&gt;Node1 -->
<g id="edge1_Node000001_Node000002" class="edge">
<title>Node2&#45;&gt;Node1</title>
<g id="a_edge1_Node000001_Node000002"><a xlink:title=" ">
<path fill="none" stroke="#63b8ff" d="M115.5,-182.8C115.5,-174.8 115.5,-166.04 115.5,-157.11"/>
<polygon fill="none" stroke="#63b8ff" points="112,-182.84 115.5,-192.84 119,-182.84 112,-182.84"/>
</a>
</g>
</g>
</g>
</svg>
</svg>

<style type='text/css'>
<![CDATA[
[data-mouse-over-selected='false'] { opacity: 0.7; }
[data-mouse-over-selected='true']  { opacity: 1.0; }
]]>
</style>
<script type="application/ecmascript"><![CDATA[
document.addEventListener('DOMContentLoaded', (event) => {
  highlightEdges();
  highlightAdjacentNodes();
});
]]></script>
</svg>
