<?xml version="1.0" encoding="UTF-8" standalone="no"?>
<!DOCTYPE svg PUBLIC "-//W3C//DTD SVG 1.1//EN"
 "http://www.w3.org/Graphics/SVG/1.1/DTD/svg11.dtd">
<!-- Generated by graphviz version 2.43.0 (0)
 -->
<!-- Title: WeaponControlRoom.CanITouch Pages: 1 -->
<svg width="1068pt" height="101pt"
 viewBox="0.00 0.00 1068.00 100.50" xmlns="http://www.w3.org/2000/svg" xmlns:xlink="http://www.w3.org/1999/xlink">
<g id="graph0" class="graph" transform="scale(1 1) rotate(0) translate(4 96.5)">
<title>WeaponControlRoom.CanITouch</title>
<!-- Node1 -->
<g id="Node000001" class="node">
<title>Node1</title>
<g id="a_Node000001"><a xlink:title="선원이 작업을 해도 되냐고 물어보고 되면 workingCrew로 할당해주고 아님 말고">
<polygon fill="#999999" stroke="#666666" points="219,-60 0,-60 0,-39 219,-39 219,-60"/>
<text text-anchor="middle" x="109.5" y="-46.4" font-family="Consolas" font-size="12.00">WeaponControlRoom.CanITouch</text>
</a>
</g>
</g>
<!-- Node2 -->
<g id="Node000002" class="node">
<title>Node2</title>
<g id="a_Node000002"><a xlink:href="classCrewMember.html#aad4604b549178c53a36eb89d903633e8" target="_top" xlink:title="현재 선원의 모든 스킬 값을 계산하여 반환합니다. 기본 숙련도, 장비 보너스, 사기 보너스를 포함합니다.">
<polygon fill="white" stroke="#666666" points="512,-86 285,-86 285,-65 512,-65 512,-86"/>
<text text-anchor="middle" x="398.5" y="-72.4" font-family="Consolas" font-size="12.00">CrewMember.GetCrewSkillValue</text>
</a>
</g>
</g>
<!-- Node1&#45;&gt;Node2 -->
<g id="edge1_Node000001_Node000002" class="edge">
<title>Node1&#45;&gt;Node2</title>
<g id="a_edge1_Node000001_Node000002"><a xlink:title=" ">
<path fill="none" stroke="#63b8ff" d="M219,-59.33C237.08,-60.97 255.95,-62.68 274.37,-64.35"/>
<polygon fill="#63b8ff" stroke="#63b8ff" points="274.27,-67.85 284.54,-65.27 274.9,-60.88 274.27,-67.85"/>
</a>
</g>
</g>
<!-- Node5 -->
<g id="Node000005" class="node">
<title>Node5</title>
<g id="a_Node000005"><a xlink:href="classRoom.html#af15fefedd48a2009da56d461a9084ed8" target="_top" xlink:title="방이 작동 가능한 상태인지 확인합니다.">
<polygon fill="white" stroke="#666666" points="542,-47 255,-47 255,0 542,0 542,-47"/>
<text text-anchor="start" x="263" y="-33.4" font-family="Consolas" font-size="12.00">Room&lt; WeaponControlRoomData,</text>
<text text-anchor="start" x="263" y="-20.4" font-family="Consolas" font-size="12.00"> WeaponControlRoomData.WeaponControl</text>
<text text-anchor="middle" x="398.5" y="-7.4" font-family="Consolas" font-size="12.00">RoomLevel &gt;::IsOperational</text>
</a>
</g>
</g>
<!-- Node1&#45;&gt;Node5 -->
<g id="edge4_Node000001_Node000005" class="edge">
<title>Node1&#45;&gt;Node5</title>
<g id="a_edge4_Node000001_Node000005"><a xlink:title=" ">
<path fill="none" stroke="#63b8ff" d="M219,-39.67C227.45,-38.91 236.06,-38.13 244.72,-37.34"/>
<polygon fill="#63b8ff" stroke="#63b8ff" points="245.26,-40.81 254.9,-36.42 244.62,-33.84 245.26,-40.81"/>
</a>
</g>
</g>
<!-- Node3 -->
<g id="Node000003" class="node">
<title>Node3</title>
<g id="a_Node000003"><a xlink:href="classMoraleManager.html#ae4bd0f13d318a29833b66d05fe6b632e" target="_top" xlink:title="선원의 총 사기 반환">
<polygon fill="white" stroke="#666666" points="805,-92.5 578,-92.5 578,-58.5 805,-58.5 805,-92.5"/>
<text text-anchor="start" x="586" y="-78.9" font-family="Consolas" font-size="12.00">MoraleManager.GetTotalMorale</text>
<text text-anchor="middle" x="691.5" y="-65.9" font-family="Consolas" font-size="12.00">Bonus</text>
</a>
</g>
</g>
<!-- Node2&#45;&gt;Node3 -->
<g id="edge2_Node000002_Node000003" class="edge">
<title>Node2&#45;&gt;Node3</title>
<g id="a_edge2_Node000002_Node000003"><a xlink:title=" ">
<path fill="none" stroke="#63b8ff" d="M512.01,-75.5C530.23,-75.5 549.17,-75.5 567.62,-75.5"/>
<polygon fill="#63b8ff" stroke="#63b8ff" points="567.81,-79 577.81,-75.5 567.81,-72 567.81,-79"/>
</a>
</g>
</g>
<!-- Node4 -->
<g id="Node000004" class="node">
<title>Node4</title>
<g id="a_Node000004"><a xlink:href="classMoraleManager.html#ad25d3eb792d8fede14408e5b7a9863d0" target="_top" xlink:title="종족 별 사기 반환">
<polygon fill="white" stroke="#666666" points="1060,-86 841,-86 841,-65 1060,-65 1060,-86"/>
<text text-anchor="middle" x="950.5" y="-72.4" font-family="Consolas" font-size="12.00">MoraleManager.GetRaceMorale</text>
</a>
</g>
</g>
<!-- Node3&#45;&gt;Node4 -->
<g id="edge3_Node000003_Node000004" class="edge">
<title>Node3&#45;&gt;Node4</title>
<g id="a_edge3_Node000003_Node000004"><a xlink:title=" ">
<path fill="none" stroke="#63b8ff" d="M805.22,-75.5C813.75,-75.5 822.38,-75.5 830.94,-75.5"/>
<polygon fill="#63b8ff" stroke="#63b8ff" points="830.96,-79 840.96,-75.5 830.96,-72 830.96,-79"/>
</a>
</g>
</g>
</g>
</svg>
