<?xml version="1.0" encoding="UTF-8" standalone="no"?>
<!DOCTYPE svg PUBLIC "-//W3C//DTD SVG 1.1//EN"
 "http://www.w3.org/Graphics/SVG/1.1/DTD/svg11.dtd">
<!-- Generated by graphviz version 2.43.0 (0)
 -->
<!-- Title: ES3.FileExists Pages: 1 -->
<!--zoomable 263 -->

<svg id="main" version="1.1" xmlns="http://www.w3.org/2000/svg" xmlns:xlink="http://www.w3.org/1999/xlink" xml:space="preserve" onload="init(evt)">
<style type="text/css"><![CDATA[
.node, .edge {opacity: 0.7;}
.node.selected, .edge.selected {opacity: 1;}
.edge:hover path { stroke: red; }
.edge:hover polygon { stroke: red; fill: red; }
]]></style>

<defs>
  <circle id="rim" cx="0" cy="0" r="7"/>
  <circle id="rim2" cx="0" cy="0" r="3.5"/>
  <g id="zoomPlus">
    <use xlink:href="#rim" fill="#404040"><set attributeName="fill" to="#808080" begin="zoomplus.mouseover" end="zoomplus.mouseout"/></use>
    <path d="M-4,0h8M0,-4v8" fill="none" stroke="white" stroke-width="1.5" pointer-events="none"/>
  </g>
  <g id="zoomMin">
    <use xlink:href="#rim" fill="#404040"><set attributeName="fill" to="#808080" begin="zoomminus.mouseover" end="zoomminus.mouseout"/></use>
    <path d="M-4,0h8" fill="none" stroke="white" stroke-width="1.5" pointer-events="none"/>
  </g>
  <g id="arrowUp" transform="translate(30 24)">
    <use xlink:href="#rim"/>
    <path pointer-events="none" fill="none" stroke="white" stroke-width="1.5" d="M0,-3.0v7 M-2.5,-0.5L0,-3.0L2.5,-0.5"/>
  </g>
  <g id="arrowRight" transform="rotate(90) translate(36 -43)">
    <use xlink:href="#rim"/>
    <path pointer-events="none" fill="none" stroke="white" stroke-width="1.5" d="M0,-3.0v7 M-2.5,-0.5L0,-3.0L2.5,-0.5"/>
  </g>
  <g id="arrowDown" transform="rotate(180) translate(-30 -48)">
    <use xlink:href="#rim"/>
    <path pointer-events="none" fill="none" stroke="white" stroke-width="1.5" d="M0,-3.0v7 M-2.5,-0.5L0,-3.0L2.5,-0.5"/>
  </g>
  <g id="arrowLeft" transform="rotate(270) translate(-36 17)">
    <use xlink:href="#rim"/>
    <path pointer-events="none" fill="none" stroke="white" stroke-width="1.5" d="M0,-3.0v7 M-2.5,-0.5L0,-3.0L2.5,-0.5"/>
  </g>
  <g id="resetDef">
    <use xlink:href="#rim2" fill="#404040"><set attributeName="fill" to="#808080" begin="reset.mouseover" end="reset.mouseout"/></use>
  </g>
</defs>
<script type="application/ecmascript">
var viewWidth = 641;
var viewHeight = 263;
var sectionId = 'dynsection-36';
</script>
<script type="application/ecmascript" xlink:href="svg.min.js"/>
<svg id="graph" class="graph">
<g id="viewport">
<title>ES3.FileExists</title>
<!-- Node1 -->
<g id="Node000001" class="node">
<title>Node1</title>
<g id="a_Node000001"><a xlink:title="Checks whether the default file exists.">
<polygon fill="#999999" stroke="#666666" points="633,-138 511,-138 511,-117 633,-117 633,-138"/>
<text text-anchor="middle" x="572" y="-124.4" font-family="Consolas" font-size="12.00">ES3.FileExists</text>
</a>
</g>
</g>
<!-- Node1&#45;&gt;Node1 -->
<g id="edge2_Node000001_Node000001" class="edge">
<title>Node1&#45;&gt;Node1</title>
<g id="a_edge2_Node000001_Node000001"><a xlink:title=" ">
<path fill="none" stroke="#63b8ff" d="M612.8,-146.09C611.65,-151.66 598.05,-156 572,-156 534.11,-156 522.56,-146.81 537.36,-138.02"/>
<polygon fill="#63b8ff" stroke="#63b8ff" points="615.49,-143.85 606.64,-138.02 609.93,-148.1 615.49,-143.85"/>
</a>
</g>
</g>
<!-- Node2 -->
<g id="Node000002" class="node">
<title>Node2</title>
<g id="a_Node000002"><a xlink:href="classES3.html#a781732149c0277858b961a545f206ba7" target="_top" xlink:title="Deletes a key in the file specified by the ES3Settings object.">
<polygon fill="white" stroke="#666666" points="411,-255 297,-255 297,-234 411,-234 411,-255"/>
<text text-anchor="middle" x="354" y="-241.4" font-family="Consolas" font-size="12.00">ES3.DeleteKey</text>
</a>
</g>
</g>
<!-- Node1&#45;&gt;Node2 -->
<g id="edge1_Node000001_Node000002" class="edge">
<title>Node1&#45;&gt;Node2</title>
<g id="a_edge1_Node000001_Node000002"><a xlink:title=" ">
<path fill="none" stroke="#63b8ff" d="M558.32,-146.45C541.96,-169.26 511.25,-206.8 475,-225.5 455.51,-235.56 432.05,-240.58 411.06,-243"/>
<polygon fill="#63b8ff" stroke="#63b8ff" points="561.21,-148.44 564.06,-138.23 555.47,-144.43 561.21,-148.44"/>
</a>
</g>
</g>
<!-- Node3 -->
<g id="Node000003" class="node">
<title>Node3</title>
<g id="a_Node000003"><a xlink:href="classES3.html#a0f131e83e01f8d15f74c22c40df74202" target="_top" xlink:title="Checks whether a file exists.">
<polygon fill="white" stroke="#666666" points="415,-216 293,-216 293,-195 415,-195 415,-216"/>
<text text-anchor="middle" x="354" y="-202.4" font-family="Consolas" font-size="12.00">ES3.FileExists</text>
</a>
</g>
</g>
<!-- Node1&#45;&gt;Node3 -->
<g id="edge3_Node000001_Node000003" class="edge">
<title>Node1&#45;&gt;Node3</title>
<g id="a_edge3_Node000001_Node000003"><a xlink:title=" ">
<path fill="none" stroke="#63b8ff" d="M549.49,-144.18C530.83,-157.77 502.56,-176.31 475,-186.5 456.11,-193.48 434.61,-197.9 415.08,-200.69"/>
<polygon fill="#63b8ff" stroke="#63b8ff" points="551.66,-146.93 557.59,-138.15 547.48,-141.31 551.66,-146.93"/>
</a>
</g>
</g>
<!-- Node4 -->
<g id="Node000004" class="node">
<title>Node4</title>
<g id="a_Node000004"><a xlink:href="classES3.html#a84e229a88db9aca360e0ba2076cae1fe" target="_top" xlink:title="Checks whether a file exists.">
<polygon fill="white" stroke="#666666" points="415,-177 293,-177 293,-156 415,-156 415,-177"/>
<text text-anchor="middle" x="354" y="-163.4" font-family="Consolas" font-size="12.00">ES3.FileExists</text>
</a>
</g>
</g>
<!-- Node1&#45;&gt;Node4 -->
<g id="edge4_Node000001_Node000004" class="edge">
<title>Node1&#45;&gt;Node4</title>
<g id="a_edge4_Node000001_Node000004"><a xlink:title=" ">
<path fill="none" stroke="#63b8ff" d="M512.9,-140.07C500.42,-142.64 487.29,-145.25 475,-147.5 455.6,-151.05 434.36,-154.55 415.22,-157.55"/>
<polygon fill="#63b8ff" stroke="#63b8ff" points="513.67,-143.49 522.74,-138.03 512.24,-136.64 513.67,-143.49"/>
</a>
</g>
</g>
<!-- Node5 -->
<g id="Node000005" class="node">
<title>Node5</title>
<g id="a_Node000005"><a xlink:href="classGameManager.html#a229cccd2baab5ebf97e46ed2a92ff8d4" target="_top" xlink:title="엔딩과 관련된 플레이어 데이터를 불러오는 함수.">
<polygon fill="white" stroke="#666666" points="460,-138 248,-138 248,-117 460,-117 460,-138"/>
<text text-anchor="middle" x="354" y="-124.4" font-family="Consolas" font-size="12.00">GameManager.LoadPlayerData</text>
</a>
</g>
</g>
<!-- Node1&#45;&gt;Node5 -->
<g id="edge5_Node000001_Node000005" class="edge">
<title>Node1&#45;&gt;Node5</title>
<g id="a_edge5_Node000001_Node000005"><a xlink:title=" ">
<path fill="none" stroke="#63b8ff" d="M500.67,-127.5C487.76,-127.5 474.02,-127.5 460.35,-127.5"/>
<polygon fill="#63b8ff" stroke="#63b8ff" points="500.83,-131 510.83,-127.5 500.83,-124 500.83,-131"/>
</a>
</g>
</g>
<!-- Node7 -->
<g id="Node000007" class="node">
<title>Node7</title>
<g id="a_Node000007"><a xlink:href="classES3.html#a05d1e47a259d390de967cd0c9bb3374c" target="_top" xlink:title="Restores a backup of a file.">
<polygon fill="white" stroke="#666666" points="426,-99 282,-99 282,-78 426,-78 426,-99"/>
<text text-anchor="middle" x="354" y="-85.4" font-family="Consolas" font-size="12.00">ES3.RestoreBackup</text>
</a>
</g>
</g>
<!-- Node1&#45;&gt;Node7 -->
<g id="edge7_Node000001_Node000007" class="edge">
<title>Node1&#45;&gt;Node7</title>
<g id="a_edge7_Node000001_Node000007"><a xlink:title=" ">
<path fill="none" stroke="#63b8ff" d="M509.35,-115.01C497.94,-112.78 486.12,-110.53 475,-108.5 457.34,-105.28 438.18,-101.99 420.46,-99.04"/>
<polygon fill="#63b8ff" stroke="#63b8ff" points="508.75,-118.46 519.24,-116.96 510.1,-111.59 508.75,-118.46"/>
</a>
</g>
</g>
<!-- Node8 -->
<g id="Node000008" class="node">
<title>Node8</title>
<g id="a_Node000008"><a xlink:href="classCrewFactory.html#ac8ca1d814fa505854ab2871e0c2135fb" target="_top" xlink:title="저장 데이터에서 선원 복원">
<polygon fill="white" stroke="#666666" points="475,-60 233,-60 233,-39 475,-39 475,-60"/>
<text text-anchor="middle" x="354" y="-46.4" font-family="Consolas" font-size="12.00">CrewFactory.RestoreCrewFromES3</text>
</a>
</g>
</g>
<!-- Node1&#45;&gt;Node8 -->
<g id="edge8_Node000001_Node000008" class="edge">
<title>Node1&#45;&gt;Node8</title>
<g id="a_edge8_Node000001_Node000008"><a xlink:title=" ">
<path fill="none" stroke="#63b8ff" d="M549.1,-110.94C530.4,-97.65 502.28,-79.59 475,-69.5 464.6,-65.65 453.42,-62.54 442.21,-60.03"/>
<polygon fill="#63b8ff" stroke="#63b8ff" points="547.09,-113.8 557.23,-116.85 551.2,-108.14 547.09,-113.8"/>
</a>
</g>
</g>
<!-- Node9 -->
<g id="Node000009" class="node">
<title>Node9</title>
<g id="a_Node000009"><a xlink:href="classES3Cloud.html#a360045cc94dce619e926fee9fd7a78f5" target="_top" xlink:title="Synchronises a local file with a file on the server. If the file on the server is newer than the loca...">
<polygon fill="white" stroke="#666666" points="411,-21 297,-21 297,0 411,0 411,-21"/>
<text text-anchor="middle" x="354" y="-7.4" font-family="Consolas" font-size="12.00">ES3Cloud.Sync</text>
</a>
</g>
</g>
<!-- Node1&#45;&gt;Node9 -->
<g id="edge9_Node000001_Node000009" class="edge">
<title>Node1&#45;&gt;Node9</title>
<g id="a_edge9_Node000001_Node000009"><a xlink:title=" ">
<path fill="none" stroke="#63b8ff" d="M558.03,-108.49C541.55,-85.94 510.87,-49.08 475,-30.5 455.5,-20.4 432.03,-15.2 411.05,-12.6"/>
<polygon fill="#63b8ff" stroke="#63b8ff" points="555.37,-110.78 564.02,-116.91 561.08,-106.73 555.37,-110.78"/>
</a>
</g>
</g>
<!-- Node6 -->
<g id="Node000006" class="node">
<title>Node6</title>
<g id="a_Node000006"><a xlink:href="classGameManager.html#a1cb6739824aa21933e74f129eb3a68e6" target="_top" xlink:title="게임 전체를 불러오는 함수.">
<polygon fill="white" stroke="#666666" points="197,-138 0,-138 0,-117 197,-117 197,-138"/>
<text text-anchor="middle" x="98.5" y="-124.4" font-family="Consolas" font-size="12.00">GameManager.LoadGameData</text>
</a>
</g>
</g>
<!-- Node5&#45;&gt;Node6 -->
<g id="edge6_Node000005_Node000006" class="edge">
<title>Node5&#45;&gt;Node6</title>
<g id="a_edge6_Node000005_Node000006"><a xlink:title=" ">
<path fill="none" stroke="#63b8ff" d="M237.45,-127.5C223.99,-127.5 210.36,-127.5 197.17,-127.5"/>
<polygon fill="#63b8ff" stroke="#63b8ff" points="237.7,-131 247.7,-127.5 237.7,-124 237.7,-131"/>
</a>
</g>
</g>
</g>
</svg>

<g id="navigator" transform="translate(0 0)" fill="#404254">
  <rect fill="#f2f5e9" fill-opacity="0.5" stroke="#606060" stroke-width=".5" x="0" y="0" width="60" height="60"/>
  <use id="zoomplus" xlink:href="#zoomPlus" x="17" y="9" onmousedown="handleZoom(evt,'in')"/>
  <use id="zoomminus" xlink:href="#zoomMin" x="42" y="9" onmousedown="handleZoom(evt,'out')"/>
  <use id="reset" xlink:href="#resetDef" x="30" y="36" onmousedown="handleReset()"/>
   <use id="arrowup" xlink:href="#arrowUp" x="0" y="0" onmousedown="handlePan(0,-1)"/>
  <use id="arrowright" xlink:href="#arrowRight" x="0" y="0" onmousedown="handlePan(1,0)"/>
  <use id="arrowdown" xlink:href="#arrowDown" x="0" y="0" onmousedown="handlePan(0,1)"/>
  <use id="arrowleft" xlink:href="#arrowLeft" x="0" y="0" onmousedown="handlePan(-1,0)"/>
</g>
<svg viewBox="0 0 15 15" width="100%" height="30px" preserveAspectRatio="xMaxYMin meet">
 <g id="arrow_out" transform="scale(0.3 0.3)">
  <a xlink:href="classES3_a248c68f2b255ae21a240540630889142_icgraph_org.svg" target="_base">
   <rect id="button" ry="5" rx="5" y="6" x="6" height="38" width="38"
        fill="#f2f5e9" fill-opacity="0.5" stroke="#606060" stroke-width="1.0"/>
   <path id="arrow"
     d="M 11.500037,31.436501 C 11.940474,20.09759 22.043105,11.32322 32.158766,21.979434 L 37.068811,17.246167 C 37.068811,17.246167 37.088388,32 37.088388,32 L 22.160133,31.978069 C 22.160133,31.978069 26.997745,27.140456 26.997745,27.140456 C 18.528582,18.264221 13.291696,25.230495 11.500037,31.436501 z"
     style="fill:#404040;"/>
  </a>
 </g>
</svg>

<style type='text/css'>
<![CDATA[
[data-mouse-over-selected='false'] { opacity: 0.7; }
[data-mouse-over-selected='true']  { opacity: 1.0; }
]]>
</style>
<script type="application/ecmascript"><![CDATA[
document.addEventListener('DOMContentLoaded', (event) => {
  highlightEdges();
  highlightAdjacentNodes();
});
]]></script>
</svg>
