<?xml version="1.0" encoding="UTF-8" standalone="no"?>
<!DOCTYPE svg PUBLIC "-//W3C//DTD SVG 1.1//EN"
 "http://www.w3.org/Graphics/SVG/1.1/DTD/svg11.dtd">
<!-- Generated by graphviz version 2.43.0 (0)
 -->
<!-- Title: BuyCheckPanel Pages: 1 -->
<svg width="291pt" height="571pt"
 viewBox="0.00 0.00 291.00 571.00" xmlns="http://www.w3.org/2000/svg" xmlns:xlink="http://www.w3.org/1999/xlink">
<g id="graph0" class="graph" transform="scale(1 1) rotate(0) translate(4 567)">
<title>BuyCheckPanel</title>
<!-- Node1 -->
<g id="Node000001" class="node">
<title>Node1</title>
<g id="a_Node000001"><a xlink:title=" ">
<polygon fill="#999999" stroke="transparent" points="283,-472 0,-472 0,0 283,0 283,-472"/>
<text text-anchor="start" x="93" y="-458.4" font-family="Consolas" font-size="12.00">BuyCheckPanel</text>
<text text-anchor="start" x="4.5" y="-441.4" font-family="Consolas" font-size="12.00">&#45;</text>
<text text-anchor="start" x="16.5" y="-441.4" font-family="Consolas" font-size="12.00">TextMeshProUGUI categoryText</text>
<text text-anchor="start" x="4.5" y="-424.4" font-family="Consolas" font-size="12.00">&#45;</text>
<text text-anchor="start" x="16.5" y="-424.4" font-family="Consolas" font-size="12.00">TextMeshProUGUI nameText</text>
<text text-anchor="start" x="4.5" y="-407.4" font-family="Consolas" font-size="12.00">&#45;</text>
<text text-anchor="start" x="16.5" y="-407.4" font-family="Consolas" font-size="12.00">Image shapeImage</text>
<text text-anchor="start" x="4.5" y="-390.4" font-family="Consolas" font-size="12.00">&#45;</text>
<text text-anchor="start" x="16.5" y="-390.4" font-family="Consolas" font-size="12.00">List&lt; Sprite &gt; itemShape</text>
<text text-anchor="start" x="16.5" y="-377.4" font-family="Consolas" font-size="12.00">Sprites</text>
<text text-anchor="start" x="4.5" y="-360.4" font-family="Consolas" font-size="12.00">&#45;</text>
<text text-anchor="start" x="16.5" y="-360.4" font-family="Consolas" font-size="12.00">TextMeshProUGUI descriptionText</text>
<text text-anchor="start" x="4.5" y="-343.4" font-family="Consolas" font-size="12.00">&#45;</text>
<text text-anchor="start" x="16.5" y="-343.4" font-family="Consolas" font-size="12.00">TextMeshProUGUI priceText</text>
<text text-anchor="start" x="4.5" y="-326.4" font-family="Consolas" font-size="12.00">&#45;</text>
<text text-anchor="start" x="16.5" y="-326.4" font-family="Consolas" font-size="12.00">TextMeshProUGUI amountText</text>
<text text-anchor="start" x="4.5" y="-309.4" font-family="Consolas" font-size="12.00">&#45;</text>
<text text-anchor="start" x="16.5" y="-309.4" font-family="Consolas" font-size="12.00">Button leftLeftButton</text>
<text text-anchor="start" x="4.5" y="-292.4" font-family="Consolas" font-size="12.00">&#45;</text>
<text text-anchor="start" x="16.5" y="-292.4" font-family="Consolas" font-size="12.00">Button leftButton</text>
<text text-anchor="start" x="4.5" y="-275.4" font-family="Consolas" font-size="12.00">&#45;</text>
<text text-anchor="start" x="16.5" y="-275.4" font-family="Consolas" font-size="12.00">Button rightButton</text>
<text text-anchor="start" x="4.5" y="-258.4" font-family="Consolas" font-size="12.00">&#45;</text>
<text text-anchor="start" x="16.5" y="-258.4" font-family="Consolas" font-size="12.00">Button rightRightButton</text>
<text text-anchor="start" x="4.5" y="-241.4" font-family="Consolas" font-size="12.00">&#45;</text>
<text text-anchor="start" x="16.5" y="-241.4" font-family="Consolas" font-size="12.00">Button buyButton</text>
<text text-anchor="start" x="4.5" y="-224.4" font-family="Consolas" font-size="12.00">&#45;</text>
<text text-anchor="start" x="16.5" y="-224.4" font-family="Consolas" font-size="12.00">Button closeButton</text>
<text text-anchor="start" x="4.5" y="-207.4" font-family="Consolas" font-size="12.00">&#45;</text>
<text text-anchor="start" x="16.5" y="-207.4" font-family="Consolas" font-size="12.00">TradeUIController tradeUIController</text>
<text text-anchor="start" x="4.5" y="-190.4" font-family="Consolas" font-size="12.00">&#45;</text>
<text text-anchor="start" x="16.5" y="-190.4" font-family="Consolas" font-size="12.00">TradingItemData currentItem</text>
<text text-anchor="start" x="4.5" y="-173.4" font-family="Consolas" font-size="12.00">&#45;</text>
<text text-anchor="start" x="16.5" y="-173.4" font-family="Consolas" font-size="12.00">int currentAmount</text>
<text text-anchor="start" x="4.5" y="-156.4" font-family="Consolas" font-size="12.00">&#45;</text>
<text text-anchor="start" x="16.5" y="-156.4" font-family="Consolas" font-size="12.00">int minAmount</text>
<text text-anchor="start" x="4.5" y="-139.4" font-family="Consolas" font-size="12.00">&#45;</text>
<text text-anchor="start" x="16.5" y="-139.4" font-family="Consolas" font-size="12.00">int maxAmount</text>
<text text-anchor="start" x="4.5" y="-122.4" font-family="Consolas" font-size="12.00">+</text>
<text text-anchor="start" x="16.5" y="-122.4" font-family="Consolas" font-size="12.00">void Initialize(TradingItem</text>
<text text-anchor="start" x="16.5" y="-109.4" font-family="Consolas" font-size="12.00">Data item)</text>
<text text-anchor="start" x="4.5" y="-92.4" font-family="Consolas" font-size="12.00">+</text>
<text text-anchor="start" x="16.5" y="-92.4" font-family="Consolas" font-size="12.00">void OnLeftLeftButtonClicked()</text>
<text text-anchor="start" x="4.5" y="-75.4" font-family="Consolas" font-size="12.00">+</text>
<text text-anchor="start" x="16.5" y="-75.4" font-family="Consolas" font-size="12.00">void OnLeftButtonClicked()</text>
<text text-anchor="start" x="4.5" y="-58.4" font-family="Consolas" font-size="12.00">+</text>
<text text-anchor="start" x="16.5" y="-58.4" font-family="Consolas" font-size="12.00">void OnRightButtonClicked()</text>
<text text-anchor="start" x="4.5" y="-41.4" font-family="Consolas" font-size="12.00">+</text>
<text text-anchor="start" x="16.5" y="-41.4" font-family="Consolas" font-size="12.00">void OnRightRightButtonClicked()</text>
<text text-anchor="start" x="4.5" y="-24.4" font-family="Consolas" font-size="12.00">+</text>
<text text-anchor="start" x="16.5" y="-24.4" font-family="Consolas" font-size="12.00">void UpdateAmount()</text>
<text text-anchor="start" x="4.5" y="-7.4" font-family="Consolas" font-size="12.00">+</text>
<text text-anchor="start" x="16.5" y="-7.4" font-family="Consolas" font-size="12.00">void OnBuyButtonClicked()</text>
<polygon fill="#666666" stroke="#666666" points="0.5,-453 0.5,-453 283.5,-453 283.5,-453 0.5,-453"/>
<polygon fill="#666666" stroke="#666666" points="0.5,-134 0.5,-134 14.5,-134 14.5,-134 0.5,-134"/>
<polygon fill="#666666" stroke="#666666" points="14.5,-134 14.5,-134 283.5,-134 283.5,-134 14.5,-134"/>
<polygon fill="none" stroke="#666666" points="0,0 0,-472 283,-472 283,0 0,0"/>
</a>
</g>
</g>
<!-- Node2 -->
<g id="Node000002" class="node">
<title>Node2</title>
<g id="a_Node000002"><a xlink:title=" ">
<polygon fill="white" stroke="transparent" points="195.5,-563 87.5,-563 87.5,-508 195.5,-508 195.5,-563"/>
<text text-anchor="start" x="92.5" y="-548.9" font-family="Consolas" font-size="12.00">MonoBehaviour</text>
<text text-anchor="start" x="137.5" y="-531.9" font-family="Consolas" font-size="12.00"> </text>
<text text-anchor="start" x="137.5" y="-514.9" font-family="Consolas" font-size="12.00"> </text>
<polygon fill="#bfbfbf" stroke="#bfbfbf" points="87.5,-543.5 87.5,-543.5 195.5,-543.5 195.5,-543.5 87.5,-543.5"/>
<polygon fill="#bfbfbf" stroke="#bfbfbf" points="87.5,-526.5 87.5,-526.5 195.5,-526.5 195.5,-526.5 87.5,-526.5"/>
<polygon fill="none" stroke="#bfbfbf" points="87.5,-508 87.5,-563 195.5,-563 195.5,-508 87.5,-508"/>
</a>
</g>
</g>
<!-- Node2&#45;&gt;Node1 -->
<g id="edge1_Node000001_Node000002" class="edge">
<title>Node2&#45;&gt;Node1</title>
<g id="a_edge1_Node000001_Node000002"><a xlink:title=" ">
<path fill="none" stroke="#63b8ff" d="M141.5,-497.63C141.5,-489.95 141.5,-481.32 141.5,-472.01"/>
<polygon fill="none" stroke="#63b8ff" points="138,-497.84 141.5,-507.84 145,-497.84 138,-497.84"/>
</a>
</g>
</g>
</g>
</svg>
