<?xml version="1.0" encoding="UTF-8" standalone="no"?>
<!DOCTYPE svg PUBLIC "-//W3C//DTD SVG 1.1//EN"
 "http://www.w3.org/Graphics/SVG/1.1/DTD/svg11.dtd">
<!-- Generated by graphviz version 2.43.0 (0)
 -->
<!-- Title: PowerRoomData.PowerRoomLevel Pages: 1 -->
<svg width="229pt" height="154pt"
 viewBox="0.00 0.00 229.00 154.00" xmlns="http://www.w3.org/2000/svg" xmlns:xlink="http://www.w3.org/1999/xlink">
<g id="graph0" class="graph" transform="scale(1 1) rotate(0) translate(4 150)">
<title>PowerRoomData.PowerRoomLevel</title>
<!-- Node1 -->
<g id="Node000001" class="node">
<title>Node1</title>
<g id="a_Node000001"><a xlink:title="전력실의 레벨별 데이터 구조. 특별한 속성 없이 기본 RoomLevel 속성만 사용됩니다.">
<polygon fill="#999999" stroke="transparent" points="221,-55 0,-55 0,0 221,0 221,-55"/>
<text text-anchor="start" x="5.5" y="-40.9" font-family="Consolas" font-size="12.00">PowerRoomData.PowerRoomLevel</text>
<text text-anchor="start" x="107" y="-23.9" font-family="Consolas" font-size="12.00"> </text>
<text text-anchor="start" x="107" y="-6.9" font-family="Consolas" font-size="12.00"> </text>
<polygon fill="#666666" stroke="#666666" points="0.5,-35.5 0.5,-35.5 221.5,-35.5 221.5,-35.5 0.5,-35.5"/>
<polygon fill="#666666" stroke="#666666" points="0.5,-18.5 0.5,-18.5 221.5,-18.5 221.5,-18.5 0.5,-18.5"/>
<polygon fill="none" stroke="#666666" points="0,0 0,-55 221,-55 221,0 0,0"/>
</a>
</g>
</g>
<!-- Node2 -->
<g id="Node000002" class="node">
<title>Node2</title>
<g id="a_Node000002"><a xlink:title=" ">
<polygon fill="white" stroke="transparent" points="149.5,-146 71.5,-146 71.5,-91 149.5,-91 149.5,-146"/>
<text text-anchor="start" x="76.5" y="-131.9" font-family="Consolas" font-size="12.00">RoomLevel</text>
<text text-anchor="start" x="106.5" y="-114.9" font-family="Consolas" font-size="12.00"> </text>
<text text-anchor="start" x="106.5" y="-97.9" font-family="Consolas" font-size="12.00"> </text>
<polygon fill="#bfbfbf" stroke="#bfbfbf" points="71.5,-126.5 71.5,-126.5 149.5,-126.5 149.5,-126.5 71.5,-126.5"/>
<polygon fill="#bfbfbf" stroke="#bfbfbf" points="71.5,-109.5 71.5,-109.5 149.5,-109.5 149.5,-109.5 71.5,-109.5"/>
<polygon fill="none" stroke="#bfbfbf" points="71.5,-91 71.5,-146 149.5,-146 149.5,-91 71.5,-91"/>
</a>
</g>
</g>
<!-- Node2&#45;&gt;Node1 -->
<g id="edge1_Node000001_Node000002" class="edge">
<title>Node2&#45;&gt;Node1</title>
<g id="a_edge1_Node000001_Node000002"><a xlink:title=" ">
<path fill="none" stroke="#63b8ff" d="M110.5,-80.66C110.5,-72.12 110.5,-63.19 110.5,-55.18"/>
<polygon fill="none" stroke="#63b8ff" points="107,-80.8 110.5,-90.8 114,-80.8 107,-80.8"/>
</a>
</g>
</g>
</g>
</svg>
