<?xml version="1.0" encoding="UTF-8" standalone="no"?>
<!DOCTYPE svg PUBLIC "-//W3C//DTD SVG 1.1//EN"
 "http://www.w3.org/Graphics/SVG/1.1/DTD/svg11.dtd">
<!-- Generated by graphviz version 2.43.0 (0)
 -->
<!-- Title: ES3.Save Pages: 1 -->
<svg width="1069pt" height="134pt"
 viewBox="0.00 0.00 1069.00 134.00" xmlns="http://www.w3.org/2000/svg" xmlns:xlink="http://www.w3.org/1999/xlink">
<g id="graph0" class="graph" transform="scale(1 1) rotate(0) translate(4 130)">
<title>ES3.Save</title>
<!-- Node1 -->
<g id="Node000001" class="node">
<title>Node1</title>
<g id="a_Node000001"><a xlink:title=" ">
<polygon fill="#999999" stroke="#666666" points="1061,-92.5 984,-92.5 984,-71.5 1061,-71.5 1061,-92.5"/>
<text text-anchor="middle" x="1022.5" y="-78.9" font-family="Consolas" font-size="12.00">ES3.Save</text>
</a>
</g>
</g>
<!-- Node2 -->
<g id="Node000002" class="node">
<title>Node2</title>
<g id="a_Node000002"><a xlink:href="classGameManager.html#a3f9d70e8b90c50d31469cf9b15bda527" target="_top" xlink:title="엔딩과 관련된 플레이어 데이터를 저장하는 함수.">
<polygon fill="white" stroke="#666666" points="948,-92.5 736,-92.5 736,-71.5 948,-71.5 948,-92.5"/>
<text text-anchor="middle" x="842" y="-78.9" font-family="Consolas" font-size="12.00">GameManager.SavePlayerData</text>
</a>
</g>
</g>
<!-- Node1&#45;&gt;Node2 -->
<g id="edge1_Node000001_Node000002" class="edge">
<title>Node1&#45;&gt;Node2</title>
<g id="a_edge1_Node000001_Node000002"><a xlink:title=" ">
<path fill="none" stroke="#63b8ff" d="M973.53,-82C965.57,-82 957.05,-82 948.32,-82"/>
<polygon fill="#63b8ff" stroke="#63b8ff" points="973.64,-85.5 983.64,-82 973.64,-78.5 973.64,-85.5"/>
</a>
</g>
</g>
<!-- Node3 -->
<g id="Node000003" class="node">
<title>Node3</title>
<g id="a_Node000003"><a xlink:href="classGameManager.html#ad0e6a59004a4709bd6dc034be50e8a62" target="_top" xlink:title="게임 전체를 저장하는 함수. 워프를 할 때마다 떠야할 것이다.">
<polygon fill="white" stroke="#666666" points="700,-92.5 503,-92.5 503,-71.5 700,-71.5 700,-92.5"/>
<text text-anchor="middle" x="601.5" y="-78.9" font-family="Consolas" font-size="12.00">GameManager.SaveGameData</text>
</a>
</g>
</g>
<!-- Node2&#45;&gt;Node3 -->
<g id="edge2_Node000002_Node000003" class="edge">
<title>Node2&#45;&gt;Node3</title>
<g id="a_edge2_Node000002_Node000003"><a xlink:title=" ">
<path fill="none" stroke="#63b8ff" d="M725.66,-82C717.09,-82 708.5,-82 700.05,-82"/>
<polygon fill="#63b8ff" stroke="#63b8ff" points="725.7,-85.5 735.7,-82 725.7,-78.5 725.7,-85.5"/>
</a>
</g>
</g>
<!-- Node4 -->
<g id="Node000004" class="node">
<title>Node4</title>
<g id="a_Node000004"><a xlink:href="classSceneChanger.html#a414c25e36c5ac30a44e6af6238466b6c" target="_top" xlink:title="모선으로 복귀하라">
<polygon fill="white" stroke="#666666" points="467,-115.5 255,-115.5 255,-94.5 467,-94.5 467,-115.5"/>
<text text-anchor="middle" x="361" y="-101.9" font-family="Consolas" font-size="12.00">SceneChanger.BackToTheHome</text>
</a>
</g>
</g>
<!-- Node3&#45;&gt;Node4 -->
<g id="edge3_Node000003_Node000004" class="edge">
<title>Node3&#45;&gt;Node4</title>
<g id="a_edge3_Node000003_Node000004"><a xlink:title=" ">
<path fill="none" stroke="#63b8ff" d="M492.59,-92.41C484.18,-93.22 475.69,-94.04 467.3,-94.85"/>
<polygon fill="#63b8ff" stroke="#63b8ff" points="493.19,-95.87 502.8,-91.42 492.51,-88.9 493.19,-95.87"/>
</a>
</g>
</g>
<!-- Node6 -->
<g id="Node000006" class="node">
<title>Node6</title>
<g id="a_Node000006"><a xlink:href="classSceneChanger.html#a073fc80d7277cccf463fd2e3257f7a39" target="_top" xlink:title="외부에서 호출하는 씬 전환 함수">
<polygon fill="white" stroke="#666666" points="452,-73.5 270,-73.5 270,-52.5 452,-52.5 452,-73.5"/>
<text text-anchor="middle" x="361" y="-59.9" font-family="Consolas" font-size="12.00">SceneChanger.LoadScene</text>
</a>
</g>
</g>
<!-- Node3&#45;&gt;Node6 -->
<g id="edge5_Node000003_Node000006" class="edge">
<title>Node3&#45;&gt;Node6</title>
<g id="a_edge5_Node000003_Node000006"><a xlink:title=" ">
<path fill="none" stroke="#63b8ff" d="M492.55,-73.4C479.08,-72.33 465.42,-71.24 452.25,-70.19"/>
<polygon fill="#63b8ff" stroke="#63b8ff" points="492.56,-76.91 502.8,-74.22 493.11,-69.93 492.56,-76.91"/>
</a>
</g>
</g>
<!-- Node5 -->
<g id="Node000005" class="node">
<title>Node5</title>
<g id="a_Node000005"><a xlink:href="classSceneChanger.html#aca38256f57d0002d035d5b97b1632f32" target="_top" xlink:title="전투 종료 후 집으로 가라">
<polygon fill="white" stroke="#666666" points="219,-126 0,-126 0,-92 219,-92 219,-126"/>
<text text-anchor="start" x="8" y="-112.4" font-family="Consolas" font-size="12.00">SceneChanger.CombatDefeated</text>
<text text-anchor="middle" x="109.5" y="-99.4" font-family="Consolas" font-size="12.00">AndGoHome</text>
</a>
</g>
</g>
<!-- Node4&#45;&gt;Node5 -->
<g id="edge4_Node000004_Node000005" class="edge">
<title>Node4&#45;&gt;Node5</title>
<g id="a_edge4_Node000004_Node000005"><a xlink:title=" ">
<path fill="none" stroke="#63b8ff" d="M244.86,-106.85C236.27,-106.98 227.62,-107.12 219.07,-107.26"/>
<polygon fill="#63b8ff" stroke="#63b8ff" points="244.97,-110.34 254.91,-106.68 244.86,-103.35 244.97,-110.34"/>
</a>
</g>
</g>
<!-- Node7 -->
<g id="Node000007" class="node">
<title>Node7</title>
<g id="a_Node000007"><a xlink:href="classGameManager.html#a2ba50fa10e943f9d7f70ca36ab162742" target="_top" xlink:title="메인 화면에서 이어하기를 누르면 호출되는 함수. 행성 데이터를 로드 후 게임 시작">
<polygon fill="white" stroke="#666666" points="208,-73.5 11,-73.5 11,-52.5 208,-52.5 208,-73.5"/>
<text text-anchor="middle" x="109.5" y="-59.9" font-family="Consolas" font-size="12.00">GameManager.ContinueGame</text>
</a>
</g>
</g>
<!-- Node6&#45;&gt;Node7 -->
<g id="edge6_Node000006_Node000007" class="edge">
<title>Node6&#45;&gt;Node7</title>
<g id="a_edge6_Node000006_Node000007"><a xlink:title=" ">
<path fill="none" stroke="#63b8ff" d="M259.46,-63C242.5,-63 224.92,-63 208.04,-63"/>
<polygon fill="#63b8ff" stroke="#63b8ff" points="259.92,-66.5 269.92,-63 259.92,-59.5 259.92,-66.5"/>
</a>
</g>
</g>
<!-- Node8 -->
<g id="Node000008" class="node">
<title>Node8</title>
<g id="a_Node000008"><a xlink:href="classTradeUIController.html#ab9a5418f54931badad1dd59176d7e6fb" target="_top" xlink:title="나가기 버튼이 눌렸을 때 호출됨. 행성 씬으로 돌아간다.">
<polygon fill="white" stroke="#666666" points="215.5,-34 3.5,-34 3.5,0 215.5,0 215.5,-34"/>
<text text-anchor="start" x="11.5" y="-20.4" font-family="Consolas" font-size="12.00">TradeUIController.OnGoBack</text>
<text text-anchor="middle" x="109.5" y="-7.4" font-family="Consolas" font-size="12.00">ButtonClicked</text>
</a>
</g>
</g>
<!-- Node6&#45;&gt;Node8 -->
<g id="edge7_Node000006_Node000008" class="edge">
<title>Node6&#45;&gt;Node8</title>
<g id="a_edge7_Node000006_Node000008"><a xlink:title=" ">
<path fill="none" stroke="#63b8ff" d="M292.84,-50.62C265.28,-45.54 232.92,-39.57 203.16,-34.08"/>
<polygon fill="#63b8ff" stroke="#63b8ff" points="292.29,-54.08 302.76,-52.45 293.56,-47.19 292.29,-54.08"/>
</a>
</g>
</g>
</g>
</svg>
