<?xml version="1.0" encoding="UTF-8" standalone="no"?>
<!DOCTYPE svg PUBLIC "-//W3C//DTD SVG 1.1//EN"
 "http://www.w3.org/Graphics/SVG/1.1/DTD/svg11.dtd">
<!-- Generated by graphviz version 2.43.0 (0)
 -->
<!-- Title: CockpitRoom.CanITouch Pages: 1 -->
<!--zoomable 101 -->

<svg id="main" version="1.1" xmlns="http://www.w3.org/2000/svg" xmlns:xlink="http://www.w3.org/1999/xlink" xml:space="preserve" onload="init(evt)">
<style type="text/css"><![CDATA[
.node, .edge {opacity: 0.7;}
.node.selected, .edge.selected {opacity: 1;}
.edge:hover path { stroke: red; }
.edge:hover polygon { stroke: red; fill: red; }
]]></style>

<defs>
  <circle id="rim" cx="0" cy="0" r="7"/>
  <circle id="rim2" cx="0" cy="0" r="3.5"/>
  <g id="zoomPlus">
    <use xlink:href="#rim" fill="#404040"><set attributeName="fill" to="#808080" begin="zoomplus.mouseover" end="zoomplus.mouseout"/></use>
    <path d="M-4,0h8M0,-4v8" fill="none" stroke="white" stroke-width="1.5" pointer-events="none"/>
  </g>
  <g id="zoomMin">
    <use xlink:href="#rim" fill="#404040"><set attributeName="fill" to="#808080" begin="zoomminus.mouseover" end="zoomminus.mouseout"/></use>
    <path d="M-4,0h8" fill="none" stroke="white" stroke-width="1.5" pointer-events="none"/>
  </g>
  <g id="arrowUp" transform="translate(30 24)">
    <use xlink:href="#rim"/>
    <path pointer-events="none" fill="none" stroke="white" stroke-width="1.5" d="M0,-3.0v7 M-2.5,-0.5L0,-3.0L2.5,-0.5"/>
  </g>
  <g id="arrowRight" transform="rotate(90) translate(36 -43)">
    <use xlink:href="#rim"/>
    <path pointer-events="none" fill="none" stroke="white" stroke-width="1.5" d="M0,-3.0v7 M-2.5,-0.5L0,-3.0L2.5,-0.5"/>
  </g>
  <g id="arrowDown" transform="rotate(180) translate(-30 -48)">
    <use xlink:href="#rim"/>
    <path pointer-events="none" fill="none" stroke="white" stroke-width="1.5" d="M0,-3.0v7 M-2.5,-0.5L0,-3.0L2.5,-0.5"/>
  </g>
  <g id="arrowLeft" transform="rotate(270) translate(-36 17)">
    <use xlink:href="#rim"/>
    <path pointer-events="none" fill="none" stroke="white" stroke-width="1.5" d="M0,-3.0v7 M-2.5,-0.5L0,-3.0L2.5,-0.5"/>
  </g>
  <g id="resetDef">
    <use xlink:href="#rim2" fill="#404040"><set attributeName="fill" to="#808080" begin="reset.mouseover" end="reset.mouseout"/></use>
  </g>
</defs>
<script type="application/ecmascript">
var viewWidth = 963;
var viewHeight = 101;
var sectionId = 'dynsection-2';
</script>
<script type="application/ecmascript" xlink:href="svg.min.js"/>
<svg id="graph" class="graph">
<g id="viewport">
<title>CockpitRoom.CanITouch</title>
<!-- Node1 -->
<g id="Node000001" class="node">
<title>Node1</title>
<g id="a_Node000001"><a xlink:title="선원이 작업을 해도 되냐고 물어보고 되면 workingCrew로 할당해주고 아님 말고">
<polygon fill="#999999" stroke="#666666" points="174,-60 0,-60 0,-39 174,-39 174,-60"/>
<text text-anchor="middle" x="87" y="-46.4" font-family="Consolas" font-size="12.00">CockpitRoom.CanITouch</text>
</a>
</g>
</g>
<!-- Node2 -->
<g id="Node000002" class="node">
<title>Node2</title>
<g id="a_Node000002"><a xlink:href="classCrewMember.html#aad4604b549178c53a36eb89d903633e8" target="_top" xlink:title="현재 선원의 모든 스킬 값을 계산하여 반환합니다. 기본 숙련도, 장비 보너스, 사기 보너스를 포함합니다.">
<polygon fill="white" stroke="#666666" points="437,-86 210,-86 210,-65 437,-65 437,-86"/>
<text text-anchor="middle" x="323.5" y="-72.4" font-family="Consolas" font-size="12.00">CrewMember.GetCrewSkillValue</text>
</a>
</g>
</g>
<!-- Node1&#45;&gt;Node2 -->
<g id="edge1_Node000001_Node000002" class="edge">
<title>Node1&#45;&gt;Node2</title>
<g id="a_edge1_Node000001_Node000002"><a xlink:title=" ">
<path fill="none" stroke="#63b8ff" d="M174.32,-59.07C188.43,-60.64 203.19,-62.27 217.69,-63.88"/>
<polygon fill="#63b8ff" stroke="#63b8ff" points="217.35,-67.36 227.67,-64.99 218.12,-60.41 217.35,-67.36"/>
</a>
</g>
</g>
<!-- Node5 -->
<g id="Node000005" class="node">
<title>Node5</title>
<g id="a_Node000005"><a xlink:href="classRoom.html#af15fefedd48a2009da56d461a9084ed8" target="_top" xlink:title="방이 작동 가능한 상태인지 확인합니다.">
<polygon fill="white" stroke="#666666" points="437,-47 210,-47 210,0 437,0 437,-47"/>
<text text-anchor="start" x="218" y="-33.4" font-family="Consolas" font-size="12.00">Room&lt; CockpitRoomData,</text>
<text text-anchor="start" x="218" y="-20.4" font-family="Consolas" font-size="12.00"> CockpitRoomData.CockpitRoom</text>
<text text-anchor="middle" x="323.5" y="-7.4" font-family="Consolas" font-size="12.00">Level &gt;::IsOperational</text>
</a>
</g>
</g>
<!-- Node1&#45;&gt;Node5 -->
<g id="edge4_Node000001_Node000005" class="edge">
<title>Node1&#45;&gt;Node5</title>
<g id="a_edge4_Node000001_Node000005"><a xlink:title=" ">
<path fill="none" stroke="#63b8ff" d="M174.32,-39.93C182.67,-39 191.25,-38.05 199.87,-37.1"/>
<polygon fill="#63b8ff" stroke="#63b8ff" points="200.44,-40.55 210,-35.97 199.67,-33.6 200.44,-40.55"/>
</a>
</g>
</g>
<!-- Node3 -->
<g id="Node000003" class="node">
<title>Node3</title>
<g id="a_Node000003"><a xlink:href="classMoraleManager.html#ae4bd0f13d318a29833b66d05fe6b632e" target="_top" xlink:title="선원의 총 사기 반환">
<polygon fill="white" stroke="#666666" points="700,-92.5 473,-92.5 473,-58.5 700,-58.5 700,-92.5"/>
<text text-anchor="start" x="481" y="-78.9" font-family="Consolas" font-size="12.00">MoraleManager.GetTotalMorale</text>
<text text-anchor="middle" x="586.5" y="-65.9" font-family="Consolas" font-size="12.00">Bonus</text>
</a>
</g>
</g>
<!-- Node2&#45;&gt;Node3 -->
<g id="edge2_Node000002_Node000003" class="edge">
<title>Node2&#45;&gt;Node3</title>
<g id="a_edge2_Node000002_Node000003"><a xlink:title=" ">
<path fill="none" stroke="#63b8ff" d="M437.08,-75.5C445.61,-75.5 454.24,-75.5 462.83,-75.5"/>
<polygon fill="#63b8ff" stroke="#63b8ff" points="462.88,-79 472.88,-75.5 462.88,-72 462.88,-79"/>
</a>
</g>
</g>
<!-- Node4 -->
<g id="Node000004" class="node">
<title>Node4</title>
<g id="a_Node000004"><a xlink:href="classMoraleManager.html#ad25d3eb792d8fede14408e5b7a9863d0" target="_top" xlink:title="종족 별 사기 반환">
<polygon fill="white" stroke="#666666" points="955,-86 736,-86 736,-65 955,-65 955,-86"/>
<text text-anchor="middle" x="845.5" y="-72.4" font-family="Consolas" font-size="12.00">MoraleManager.GetRaceMorale</text>
</a>
</g>
</g>
<!-- Node3&#45;&gt;Node4 -->
<g id="edge3_Node000003_Node000004" class="edge">
<title>Node3&#45;&gt;Node4</title>
<g id="a_edge3_Node000003_Node000004"><a xlink:title=" ">
<path fill="none" stroke="#63b8ff" d="M700.22,-75.5C708.75,-75.5 717.38,-75.5 725.94,-75.5"/>
<polygon fill="#63b8ff" stroke="#63b8ff" points="725.96,-79 735.96,-75.5 725.96,-72 725.96,-79"/>
</a>
</g>
</g>
</g>
</svg>

<g id="navigator" transform="translate(0 0)" fill="#404254">
  <rect fill="#f2f5e9" fill-opacity="0.5" stroke="#606060" stroke-width=".5" x="0" y="0" width="60" height="60"/>
  <use id="zoomplus" xlink:href="#zoomPlus" x="17" y="9" onmousedown="handleZoom(evt,'in')"/>
  <use id="zoomminus" xlink:href="#zoomMin" x="42" y="9" onmousedown="handleZoom(evt,'out')"/>
  <use id="reset" xlink:href="#resetDef" x="30" y="36" onmousedown="handleReset()"/>
   <use id="arrowup" xlink:href="#arrowUp" x="0" y="0" onmousedown="handlePan(0,-1)"/>
  <use id="arrowright" xlink:href="#arrowRight" x="0" y="0" onmousedown="handlePan(1,0)"/>
  <use id="arrowdown" xlink:href="#arrowDown" x="0" y="0" onmousedown="handlePan(0,1)"/>
  <use id="arrowleft" xlink:href="#arrowLeft" x="0" y="0" onmousedown="handlePan(-1,0)"/>
</g>
<svg viewBox="0 0 15 15" width="100%" height="30px" preserveAspectRatio="xMaxYMin meet">
 <g id="arrow_out" transform="scale(0.3 0.3)">
  <a xlink:href="classCockpitRoom_adb55e600c703d61b88522127f8ab69fd_cgraph_org.svg" target="_base">
   <rect id="button" ry="5" rx="5" y="6" x="6" height="38" width="38"
        fill="#f2f5e9" fill-opacity="0.5" stroke="#606060" stroke-width="1.0"/>
   <path id="arrow"
     d="M 11.500037,31.436501 C 11.940474,20.09759 22.043105,11.32322 32.158766,21.979434 L 37.068811,17.246167 C 37.068811,17.246167 37.088388,32 37.088388,32 L 22.160133,31.978069 C 22.160133,31.978069 26.997745,27.140456 26.997745,27.140456 C 18.528582,18.264221 13.291696,25.230495 11.500037,31.436501 z"
     style="fill:#404040;"/>
  </a>
 </g>
</svg>

<style type='text/css'>
<![CDATA[
[data-mouse-over-selected='false'] { opacity: 0.7; }
[data-mouse-over-selected='true']  { opacity: 1.0; }
]]>
</style>
<script type="application/ecmascript"><![CDATA[
document.addEventListener('DOMContentLoaded', (event) => {
  highlightEdges();
  highlightAdjacentNodes();
});
]]></script>
</svg>
