<?xml version="1.0" encoding="UTF-8" standalone="no"?>
<!DOCTYPE svg PUBLIC "-//W3C//DTD SVG 1.1//EN"
 "http://www.w3.org/Graphics/SVG/1.1/DTD/svg11.dtd">
<!-- Generated by graphviz version 2.43.0 (0)
 -->
<!-- Title: ES3File.SaveRaw Pages: 1 -->
<svg width="310pt" height="47pt"
 viewBox="0.00 0.00 310.00 47.00" xmlns="http://www.w3.org/2000/svg" xmlns:xlink="http://www.w3.org/1999/xlink">
<g id="graph0" class="graph" transform="scale(1 1) rotate(0) translate(4 43)">
<title>ES3File.SaveRaw</title>
<!-- Node1 -->
<g id="Node000001" class="node">
<title>Node1</title>
<g id="a_Node000001"><a xlink:title="Merges the data specified by the bytes parameter into this ES3File.">
<polygon fill="#999999" stroke="#666666" points="129,-21 0,-21 0,0 129,0 129,-21"/>
<text text-anchor="middle" x="64.5" y="-7.4" font-family="Consolas" font-size="12.00">ES3File.SaveRaw</text>
</a>
</g>
</g>
<!-- Node2 -->
<g id="Node000002" class="node">
<title>Node2</title>
<g id="a_Node000002"><a xlink:href="classES3Reader.html#aaaa29fbf59162a541245da765cefe48f" target="_top" xlink:title="Creates a new ES3Reader and loads the default file into it.">
<polygon fill="white" stroke="#666666" points="302,-21 165,-21 165,0 302,0 302,-21"/>
<text text-anchor="middle" x="233.5" y="-7.4" font-family="Consolas" font-size="12.00">ES3Reader.Create</text>
</a>
</g>
</g>
<!-- Node1&#45;&gt;Node2 -->
<g id="edge1_Node000001_Node000002" class="edge">
<title>Node1&#45;&gt;Node2</title>
<g id="a_edge1_Node000001_Node000002"><a xlink:title=" ">
<path fill="none" stroke="#63b8ff" d="M129.11,-10.5C137.53,-10.5 146.23,-10.5 154.84,-10.5"/>
<polygon fill="#63b8ff" stroke="#63b8ff" points="154.9,-14 164.9,-10.5 154.9,-7 154.9,-14"/>
</a>
</g>
</g>
<!-- Node2&#45;&gt;Node2 -->
<g id="edge2_Node000002_Node000002" class="edge">
<title>Node2&#45;&gt;Node2</title>
<g id="a_edge2_Node000002_Node000002"><a xlink:title=" ">
<path fill="none" stroke="#63b8ff" d="M206.81,-21.02C195.4,-29.81 204.3,-39 233.5,-39 252.21,-39 262.58,-35.23 264.62,-30.21"/>
<polygon fill="#63b8ff" stroke="#63b8ff" points="267.69,-28.51 260.19,-21.02 261.39,-31.55 267.69,-28.51"/>
</a>
</g>
</g>
</g>
</svg>
