<?xml version="1.0" encoding="UTF-8" standalone="no"?>
<!DOCTYPE svg PUBLIC "-//W3C//DTD SVG 1.1//EN"
 "http://www.w3.org/Graphics/SVG/1.1/DTD/svg11.dtd">
<!-- Generated by graphviz version 2.43.0 (0)
 -->
<!-- Title: RTSSelectionManager.IssueMoveCommand Pages: 1 -->
<!--zoomable 856 -->

<svg id="main" version="1.1" xmlns="http://www.w3.org/2000/svg" xmlns:xlink="http://www.w3.org/1999/xlink" xml:space="preserve" onload="init(evt)">
<style type="text/css"><![CDATA[
.node, .edge {opacity: 0.7;}
.node.selected, .edge.selected {opacity: 1;}
.edge:hover path { stroke: red; }
.edge:hover polygon { stroke: red; fill: red; }
]]></style>

<defs>
  <circle id="rim" cx="0" cy="0" r="7"/>
  <circle id="rim2" cx="0" cy="0" r="3.5"/>
  <g id="zoomPlus">
    <use xlink:href="#rim" fill="#404040"><set attributeName="fill" to="#808080" begin="zoomplus.mouseover" end="zoomplus.mouseout"/></use>
    <path d="M-4,0h8M0,-4v8" fill="none" stroke="white" stroke-width="1.5" pointer-events="none"/>
  </g>
  <g id="zoomMin">
    <use xlink:href="#rim" fill="#404040"><set attributeName="fill" to="#808080" begin="zoomminus.mouseover" end="zoomminus.mouseout"/></use>
    <path d="M-4,0h8" fill="none" stroke="white" stroke-width="1.5" pointer-events="none"/>
  </g>
  <g id="arrowUp" transform="translate(30 24)">
    <use xlink:href="#rim"/>
    <path pointer-events="none" fill="none" stroke="white" stroke-width="1.5" d="M0,-3.0v7 M-2.5,-0.5L0,-3.0L2.5,-0.5"/>
  </g>
  <g id="arrowRight" transform="rotate(90) translate(36 -43)">
    <use xlink:href="#rim"/>
    <path pointer-events="none" fill="none" stroke="white" stroke-width="1.5" d="M0,-3.0v7 M-2.5,-0.5L0,-3.0L2.5,-0.5"/>
  </g>
  <g id="arrowDown" transform="rotate(180) translate(-30 -48)">
    <use xlink:href="#rim"/>
    <path pointer-events="none" fill="none" stroke="white" stroke-width="1.5" d="M0,-3.0v7 M-2.5,-0.5L0,-3.0L2.5,-0.5"/>
  </g>
  <g id="arrowLeft" transform="rotate(270) translate(-36 17)">
    <use xlink:href="#rim"/>
    <path pointer-events="none" fill="none" stroke="white" stroke-width="1.5" d="M0,-3.0v7 M-2.5,-0.5L0,-3.0L2.5,-0.5"/>
  </g>
  <g id="resetDef">
    <use xlink:href="#rim2" fill="#404040"><set attributeName="fill" to="#808080" begin="reset.mouseover" end="reset.mouseout"/></use>
  </g>
</defs>
<script type="application/ecmascript">
var viewWidth = 1758;
var viewHeight = 856;
var sectionId = 'dynsection-8';
</script>
<script type="application/ecmascript" xlink:href="svg.min.js"/>
<svg id="graph" class="graph">
<g id="viewport">
<title>RTSSelectionManager.IssueMoveCommand</title>
<!-- Node1 -->
<g id="Node000001" class="node">
<title>Node1</title>
<g id="a_Node000001"><a xlink:title="선택된 선원들을 목적지 방의 우선순위 타일로 최단 경로 기반 배정 후 이동시킵니다.">
<polygon fill="#999999" stroke="#666666" points="204,-658.8 0,-658.8 0,-624.8 204,-624.8 204,-658.8"/>
<text text-anchor="start" x="8" y="-645.2" font-family="Consolas" font-size="12.00">RTSSelectionManager.Issue</text>
<text text-anchor="middle" x="102" y="-632.2" font-family="Consolas" font-size="12.00">MoveCommand</text>
</a>
</g>
</g>
<!-- Node2 -->
<g id="Node000002" class="node">
<title>Node2</title>
<g id="a_Node000002"><a xlink:href="classCrewPathfinder.html#a5511dc3dd1f1dd7fefda36d5c9e044c2" target="_top" xlink:title="인자로 들어온 위치의 타일까지 최단 경로 검색">
<polygon fill="white" stroke="#666666" points="962,-742.3 728,-742.3 728,-721.3 962,-721.3 962,-742.3"/>
<text text-anchor="middle" x="845" y="-728.7" font-family="Consolas" font-size="12.00">CrewPathfinder.FindPathToTile</text>
</a>
</g>
</g>
<!-- Node1&#45;&gt;Node2 -->
<g id="edge1_Node000001_Node000002" class="edge">
<title>Node1&#45;&gt;Node2</title>
<g id="a_edge1_Node000001_Node000002"><a xlink:title=" ">
<path fill="none" stroke="#63b8ff" d="M117.22,-659.02C139.96,-685.03 187.34,-733.28 240,-751.8 436.36,-820.88 691.12,-770.88 795.84,-744.88"/>
<polygon fill="#63b8ff" stroke="#63b8ff" points="796.95,-748.21 805.79,-742.37 795.24,-741.42 796.95,-748.21"/>
</a>
</g>
</g>
<!-- Node3 -->
<g id="Node000003" class="node">
<title>Node3</title>
<g id="a_Node000003"><a xlink:href="classCrewMember.html#af4b290dc38d44cde63972f5260377c43" target="_top" xlink:title="현재 위치 반환 (가장 가까운 타일)">
<polygon fill="white" stroke="#666666" points="1243.5,-762.3 1039.5,-762.3 1039.5,-741.3 1243.5,-741.3 1243.5,-762.3"/>
<text text-anchor="middle" x="1141.5" y="-748.7" font-family="Consolas" font-size="12.00">CrewMember.GetCurrentTile</text>
</a>
</g>
</g>
<!-- Node1&#45;&gt;Node3 -->
<g id="edge27_Node000001_Node000003" class="edge">
<title>Node1&#45;&gt;Node3</title>
<g id="a_edge27_Node000001_Node000003"><a xlink:title=" ">
<path fill="none" stroke="#63b8ff" d="M113.18,-658.84C133,-690.17 180.13,-756.17 240,-782.8 544.7,-918.38 966.44,-806.64 1098.95,-765.49"/>
<polygon fill="#63b8ff" stroke="#63b8ff" points="1100.22,-768.76 1108.71,-762.42 1098.12,-762.08 1100.22,-768.76"/>
</a>
</g>
</g>
<!-- Node4 -->
<g id="Node000004" class="node">
<title>Node4</title>
<g id="a_Node000004"><a xlink:href="classCrewMember.html#a41c7608e6555b803935adbc401e44bbe" target="_top" xlink:title="현재 하던 행동을 모두 멈추고 애니메이션을 대기 상태로 전환시킨다.">
<polygon fill="white" stroke="#666666" points="414,-366.3 270,-366.3 270,-345.3 414,-345.3 414,-366.3"/>
<text text-anchor="middle" x="342" y="-352.7" font-family="Consolas" font-size="12.00">CrewMember.Freeze</text>
</a>
</g>
</g>
<!-- Node1&#45;&gt;Node4 -->
<g id="edge3_Node000001_Node000004" class="edge">
<title>Node1&#45;&gt;Node4</title>
<g id="a_edge3_Node000001_Node000004"><a xlink:title=" ">
<path fill="none" stroke="#63b8ff" d="M107.05,-624.63C118.9,-578.27 157.95,-449.69 240,-383.8 247.09,-378.12 255.25,-373.58 263.8,-369.97"/>
<polygon fill="#63b8ff" stroke="#63b8ff" points="265.1,-373.22 273.2,-366.39 262.61,-366.67 265.1,-373.22"/>
</a>
</g>
</g>
<!-- Node26 -->
<g id="Node000026" class="node">
<title>Node26</title>
<g id="a_Node000026"><a xlink:href="classCrewMember.html#adf2ef6b08d0e224b1b592ee7f68a1d39" target="_top" xlink:title="현재 방에서 선원이 점유 중인 타일의 우선순위 인덱스 반환">
<polygon fill="white" stroke="#666666" points="444,-742.8 240,-742.8 240,-708.8 444,-708.8 444,-742.8"/>
<text text-anchor="start" x="248" y="-729.2" font-family="Consolas" font-size="12.00">CrewMember.GetCurrentTile</text>
<text text-anchor="middle" x="342" y="-716.2" font-family="Consolas" font-size="12.00">PriorityIndex</text>
</a>
</g>
</g>
<!-- Node1&#45;&gt;Node26 -->
<g id="edge28_Node000001_Node000026" class="edge">
<title>Node1&#45;&gt;Node26</title>
<g id="a_edge28_Node000001_Node000026"><a xlink:title=" ">
<path fill="none" stroke="#63b8ff" d="M144.69,-658.82C171.69,-669.62 207.71,-683.62 240,-694.8 250.66,-698.5 262.02,-702.2 273.14,-705.7"/>
<polygon fill="#63b8ff" stroke="#63b8ff" points="272.23,-709.09 282.82,-708.72 274.32,-702.41 272.23,-709.09"/>
</a>
</g>
</g>
<!-- Node28 -->
<g id="Node000028" class="node">
<title>Node28</title>
<g id="a_Node000028"><a xlink:href="classRTSSelectionManager.html#ae5c3f854603e7329447bf4cd81a1be14" target="_top" xlink:title="이동 가능 검사기 설정">
<polygon fill="white" stroke="#666666" points="969.5,-650.8 720.5,-650.8 720.5,-616.8 969.5,-616.8 969.5,-650.8"/>
<text text-anchor="start" x="728.5" y="-637.2" font-family="Consolas" font-size="12.00">RTSSelectionManager.GetMovement</text>
<text text-anchor="middle" x="845" y="-624.2" font-family="Consolas" font-size="12.00">ValidatorForCrew</text>
</a>
</g>
</g>
<!-- Node1&#45;&gt;Node28 -->
<g id="edge32_Node000001_Node000028" class="edge">
<title>Node1&#45;&gt;Node28</title>
<g id="a_edge32_Node000001_Node000028"><a xlink:title=" ">
<path fill="none" stroke="#63b8ff" d="M204.01,-652.5C318.8,-662.99 511.67,-675.57 677,-661.8 700.46,-659.85 725.57,-656.38 749.02,-652.54"/>
<polygon fill="#63b8ff" stroke="#63b8ff" points="749.68,-655.97 758.96,-650.87 748.52,-649.07 749.68,-655.97"/>
</a>
</g>
</g>
<!-- Node29 -->
<g id="Node000029" class="node">
<title>Node29</title>
<g id="a_Node000029"><a xlink:href="classRTSSelectionManager.html#ae59ec6d9fbc150d1b018fb03d62b17fe" target="_top" xlink:title="이동 경로 탐색기 설정">
<polygon fill="white" stroke="#666666" points="977,-470.8 713,-470.8 713,-436.8 977,-436.8 977,-470.8"/>
<text text-anchor="start" x="721" y="-457.2" font-family="Consolas" font-size="12.00">RTSSelectionManager.GetPathfinder</text>
<text text-anchor="middle" x="845" y="-444.2" font-family="Consolas" font-size="12.00">ForCrew</text>
</a>
</g>
</g>
<!-- Node1&#45;&gt;Node29 -->
<g id="edge33_Node000001_Node000029" class="edge">
<title>Node1&#45;&gt;Node29</title>
<g id="a_edge33_Node000001_Node000029"><a xlink:title=" ">
<path fill="none" stroke="#63b8ff" d="M136.33,-624.77C163.8,-611.02 203.96,-591.61 240,-576.8 344.53,-533.86 369.75,-517.66 480,-492.8 552.39,-476.49 634.46,-466.94 702.33,-461.39"/>
<polygon fill="#63b8ff" stroke="#63b8ff" points="702.98,-464.84 712.67,-460.56 702.42,-457.87 702.98,-464.84"/>
</a>
</g>
</g>
<!-- Node30 -->
<g id="Node000030" class="node">
<title>Node30</title>
<g id="a_Node000030"><a xlink:href="classCrewMovementValidator.html#a5d4caf53367c1f0d9ac691bfd9c553cc" target="_top" xlink:title="타일이 이동 가능한 영역인가 (방/복도에 속하는가)">
<polygon fill="white" stroke="#666666" points="943.5,-418.8 746.5,-418.8 746.5,-384.8 943.5,-384.8 943.5,-418.8"/>
<text text-anchor="start" x="754.5" y="-405.2" font-family="Consolas" font-size="12.00">CrewMovementValidator.Is</text>
<text text-anchor="middle" x="845" y="-392.2" font-family="Consolas" font-size="12.00">TileWalkable</text>
</a>
</g>
</g>
<!-- Node1&#45;&gt;Node30 -->
<g id="edge34_Node000001_Node000030" class="edge">
<title>Node1&#45;&gt;Node30</title>
<g id="a_edge34_Node000001_Node000030"><a xlink:title=" ">
<path fill="none" stroke="#63b8ff" d="M113.74,-624.62C134.14,-593.59 181.71,-528.57 240,-497.8 398.39,-414.2 610.29,-399.09 736.41,-398.51"/>
<polygon fill="#63b8ff" stroke="#63b8ff" points="736.47,-402.01 746.46,-398.49 736.46,-395.01 736.47,-402.01"/>
</a>
</g>
</g>
<!-- Node31 -->
<g id="Node000031" class="node">
<title>Node31</title>
<g id="a_Node000031"><a xlink:href="classCrewMember.html#a508cdfced903ba8a7c2f9a5ebfe9927e" target="_top" xlink:title="딜레이 후 텔레포트 진행">
<polygon fill="white" stroke="#666666" points="440.5,-619.8 243.5,-619.8 243.5,-585.8 440.5,-585.8 440.5,-619.8"/>
<text text-anchor="start" x="251.5" y="-606.2" font-family="Consolas" font-size="12.00">CrewMember.TeleportAfter</text>
<text text-anchor="middle" x="342" y="-593.2" font-family="Consolas" font-size="12.00">Delay</text>
</a>
</g>
</g>
<!-- Node1&#45;&gt;Node31 -->
<g id="edge35_Node000001_Node000031" class="edge">
<title>Node1&#45;&gt;Node31</title>
<g id="a_edge35_Node000001_Node000031"><a xlink:title=" ">
<path fill="none" stroke="#63b8ff" d="M204.28,-625.21C213.86,-623.64 223.59,-622.04 233.23,-620.47"/>
<polygon fill="#63b8ff" stroke="#63b8ff" points="233.92,-623.9 243.22,-618.83 232.79,-616.99 233.92,-623.9"/>
</a>
</g>
</g>
<!-- Node2&#45;&gt;Node3 -->
<g id="edge2_Node000002_Node000003" class="edge">
<title>Node2&#45;&gt;Node3</title>
<g id="a_edge2_Node000002_Node000003"><a xlink:title=" ">
<path fill="none" stroke="#63b8ff" d="M962.39,-739.71C984.32,-741.2 1007.21,-742.75 1028.99,-744.23"/>
<polygon fill="#63b8ff" stroke="#63b8ff" points="1029.03,-747.74 1039.24,-744.93 1029.5,-740.76 1029.03,-747.74"/>
</a>
</g>
</g>
<!-- Node5 -->
<g id="Node000005" class="node">
<title>Node5</title>
<g id="a_Node000005"><a xlink:href="classCrewMember.html#a536ad7d67b7d95eac17c63ac7449fbe1" target="_top" xlink:title="animation 실행">
<polygon fill="white" stroke="#666666" points="943.5,-366.3 746.5,-366.3 746.5,-345.3 943.5,-345.3 943.5,-366.3"/>
<text text-anchor="middle" x="845" y="-352.7" font-family="Consolas" font-size="12.00">CrewMember.PlayAnimation</text>
</a>
</g>
</g>
<!-- Node4&#45;&gt;Node5 -->
<g id="edge4_Node000004_Node000005" class="edge">
<title>Node4&#45;&gt;Node5</title>
<g id="a_edge4_Node000004_Node000005"><a xlink:title=" ">
<path fill="none" stroke="#63b8ff" d="M414.25,-355.8C498.26,-355.8 638.77,-355.8 736.15,-355.8"/>
<polygon fill="#63b8ff" stroke="#63b8ff" points="736.32,-359.31 746.32,-355.8 736.32,-352.31 736.32,-359.31"/>
</a>
</g>
</g>
<!-- Node7 -->
<g id="Node000007" class="node">
<title>Node7</title>
<g id="a_Node000007"><a xlink:href="classCrewMember.html#a5161a521053d829ee86ecae3de914b22" target="_top" xlink:title="현재 하던 작업 행동을 멈추고 자신을 Room.workingCrew로 할당한 Room을 찾아 할당 해제시키고 함선 능력치를 재계산한다.">
<polygon fill="white" stroke="#666666" points="654.5,-313.3 502.5,-313.3 502.5,-292.3 654.5,-292.3 654.5,-313.3"/>
<text text-anchor="middle" x="578.5" y="-299.7" font-family="Consolas" font-size="12.00">CrewMember.WalkOut</text>
</a>
</g>
</g>
<!-- Node4&#45;&gt;Node7 -->
<g id="edge6_Node000004_Node000007" class="edge">
<title>Node4&#45;&gt;Node7</title>
<g id="a_edge6_Node000004_Node000007"><a xlink:title=" ">
<path fill="none" stroke="#63b8ff" d="M389.61,-345.27C427.41,-336.73 480.83,-324.65 521.05,-315.56"/>
<polygon fill="#63b8ff" stroke="#63b8ff" points="522,-318.94 530.98,-313.32 520.45,-312.11 522,-318.94"/>
</a>
</g>
</g>
<!-- Node6 -->
<g id="Node000006" class="node">
<title>Node6</title>
<g id="a_Node000006"><a xlink:href="classCrewMember.html#a3c76b7a048169237b4038ee133aa1704" target="_top" xlink:title="애니메이션 방향 설정">
<polygon fill="white" stroke="#666666" points="1270,-507.3 1013,-507.3 1013,-486.3 1270,-486.3 1270,-507.3"/>
<text text-anchor="middle" x="1141.5" y="-493.7" font-family="Consolas" font-size="12.00">CrewMember.SetAnimationDirection</text>
</a>
</g>
</g>
<!-- Node5&#45;&gt;Node6 -->
<g id="edge5_Node000005_Node000006" class="edge">
<title>Node5&#45;&gt;Node6</title>
<g id="a_edge5_Node000005_Node000006"><a xlink:title=" ">
<path fill="none" stroke="#63b8ff" d="M943.77,-358.61C955.86,-362.31 967.34,-367.81 977,-375.8 1014.03,-406.46 975.91,-447.21 1013,-477.8 1014.21,-478.81 1015.46,-479.77 1016.73,-480.69"/>
<polygon fill="#63b8ff" stroke="#63b8ff" points="1015.15,-483.83 1025.48,-486.22 1018.89,-477.92 1015.15,-483.83"/>
</a>
</g>
</g>
<!-- Node7&#45;&gt;Node5 -->
<g id="edge8_Node000007_Node000005" class="edge">
<title>Node7&#45;&gt;Node5</title>
<g id="a_edge8_Node000007_Node000005"><a xlink:title=" ">
<path fill="none" stroke="#63b8ff" d="M632.07,-313.34C675.07,-321.96 735.99,-334.16 781.48,-343.28"/>
<polygon fill="#63b8ff" stroke="#63b8ff" points="781.03,-346.76 791.53,-345.29 782.41,-339.89 781.03,-346.76"/>
</a>
</g>
</g>
<!-- Node8 -->
<g id="Node000008" class="node">
<title>Node8</title>
<g id="a_Node000008"><a xlink:href="classShip.html#a8ced30f0d71c2a5cf333b3de23af48f2" target="_top" xlink:title="모든 룸 정보를 반환합니다.">
<polygon fill="white" stroke="#666666" points="1484,-425.3 1347,-425.3 1347,-404.3 1484,-404.3 1484,-425.3"/>
<text text-anchor="middle" x="1415.5" y="-411.7" font-family="Consolas" font-size="12.00">Ship.GetAllRooms</text>
</a>
</g>
</g>
<!-- Node7&#45;&gt;Node8 -->
<g id="edge7_Node000007_Node000008" class="edge">
<title>Node7&#45;&gt;Node8</title>
<g id="a_edge7_Node000007_Node000008"><a xlink:title=" ">
<path fill="none" stroke="#63b8ff" d="M590.33,-292.02C660.09,-223.78 1050.15,138.81 1270,-58.8 1326.01,-109.15 1254.56,-340.8 1306,-395.8 1314.32,-404.7 1325.21,-410.34 1336.88,-413.8"/>
<polygon fill="#63b8ff" stroke="#63b8ff" points="1336.28,-417.26 1346.83,-416.22 1337.94,-410.46 1336.28,-417.26"/>
</a>
</g>
</g>
<!-- Node9 -->
<g id="Node000009" class="node">
<title>Node9</title>
<g id="a_Node000009"><a xlink:href="classShip.html#a8f3f2bdca106f32f2d4c2b3f892a139f" target="_top" xlink:title="현재 함선의 모든 스탯을 다시 계산합니다. 방, 시스템, 선원의 기여도를 반영합니다.">
<polygon fill="white" stroke="#666666" points="943.5,-305.3 746.5,-305.3 746.5,-284.3 943.5,-284.3 943.5,-305.3"/>
<text text-anchor="middle" x="845" y="-291.7" font-family="Consolas" font-size="12.00">Ship.RecalculateAllStats</text>
</a>
</g>
</g>
<!-- Node7&#45;&gt;Node9 -->
<g id="edge9_Node000007_Node000009" class="edge">
<title>Node7&#45;&gt;Node9</title>
<g id="a_edge9_Node000007_Node000009"><a xlink:title=" ">
<path fill="none" stroke="#63b8ff" d="M654.59,-300.53C680.02,-299.76 708.95,-298.89 736.41,-298.06"/>
<polygon fill="#63b8ff" stroke="#63b8ff" points="736.57,-301.56 746.46,-297.76 736.35,-294.56 736.57,-301.56"/>
</a>
</g>
</g>
<!-- Node10 -->
<g id="Node000010" class="node">
<title>Node10</title>
<g id="a_Node000010"><a xlink:href="classMoraleSystem.html#aa5e29aef57bec024e207404bb90894b3" target="_top" xlink:title="현재 함선의 전체 사기 수치를 계산합니다. 생명유지실과 승무원 침실이 기여하며, 승무원 수가 수용 가능 인원을 초과할 경우 패널티가 적용됩니다.">
<polygon fill="white" stroke="#666666" points="1255,-428.8 1028,-428.8 1028,-394.8 1255,-394.8 1255,-428.8"/>
<text text-anchor="start" x="1036" y="-415.2" font-family="Consolas" font-size="12.00">MoraleSystem.CalculateGlobal</text>
<text text-anchor="middle" x="1141.5" y="-402.2" font-family="Consolas" font-size="12.00">Morale</text>
</a>
</g>
</g>
<!-- Node9&#45;&gt;Node10 -->
<g id="edge10_Node000009_Node000010" class="edge">
<title>Node9&#45;&gt;Node10</title>
<g id="a_edge10_Node000009_Node000010"><a xlink:title=" ">
<path fill="none" stroke="#63b8ff" d="M904.75,-305.32C928.74,-311.64 955.77,-321.53 977,-336.8 998.94,-352.59 990.24,-371.24 1013,-385.8 1015.5,-387.4 1018.07,-388.91 1020.72,-390.32"/>
<polygon fill="#63b8ff" stroke="#63b8ff" points="1019.4,-393.57 1029.92,-394.78 1022.45,-387.27 1019.4,-393.57"/>
</a>
</g>
</g>
<!-- Node13 -->
<g id="Node000013" class="node">
<title>Node13</title>
<g id="a_Node000013"><a xlink:href="classCrewSystem.html#a211d4d37de0e70c08101ad8733367bd7" target="_top" xlink:title="현재 탑승 중인 아군, 적군 포함 모든 크루 객체의 목록을 반환합니다.">
<polygon fill="white" stroke="#666666" points="1221,-546.3 1062,-546.3 1062,-525.3 1221,-525.3 1221,-546.3"/>
<text text-anchor="middle" x="1141.5" y="-532.7" font-family="Consolas" font-size="12.00">CrewSystem.GetCrews</text>
</a>
</g>
</g>
<!-- Node9&#45;&gt;Node13 -->
<g id="edge14_Node000009_Node000013" class="edge">
<title>Node9&#45;&gt;Node13</title>
<g id="a_edge14_Node000009_Node000013"><a xlink:title=" ">
<path fill="none" stroke="#63b8ff" d="M924.14,-305.39C943.82,-311.61 963.24,-321.4 977,-336.8 1031.34,-397.66 953.9,-460.56 1013,-516.8 1023.74,-527.02 1037.45,-533.22 1051.88,-536.81"/>
<polygon fill="#63b8ff" stroke="#63b8ff" points="1051.46,-540.29 1061.96,-538.88 1052.87,-533.44 1051.46,-540.29"/>
</a>
</g>
</g>
<!-- Node14 -->
<g id="Node000014" class="node">
<title>Node14</title>
<g id="a_Node000014"><a xlink:href="classOuterHullData.html#a51ad6d062c547a1cad0fb2c08ff593eb" target="_top" xlink:title="지정한 레벨에 해당하는 외갑판 데이터를 반환합니다.">
<polygon fill="white" stroke="#666666" points="1262.5,-167.3 1020.5,-167.3 1020.5,-146.3 1262.5,-146.3 1262.5,-167.3"/>
<text text-anchor="middle" x="1141.5" y="-153.7" font-family="Consolas" font-size="12.00">OuterHullData.GetOuterHullData</text>
</a>
</g>
</g>
<!-- Node9&#45;&gt;Node14 -->
<g id="edge15_Node000009_Node000014" class="edge">
<title>Node9&#45;&gt;Node14</title>
<g id="a_edge15_Node000009_Node000014"><a xlink:title=" ">
<path fill="none" stroke="#63b8ff" d="M857.03,-284.17C882.29,-260.5 947.21,-203.49 1013,-176.8 1019.35,-174.23 1026,-171.99 1032.79,-170.03"/>
<polygon fill="#63b8ff" stroke="#63b8ff" points="1034.05,-173.31 1042.81,-167.36 1032.25,-166.55 1034.05,-173.31"/>
</a>
</g>
</g>
<!-- Node15 -->
<g id="Node000015" class="node">
<title>Node15</title>
<g id="a_Node000015"><a xlink:href="classShip.html#a61cb09945d19adc35f1c2aaf845c39ce" target="_top" xlink:title="현재 함선의 외갑판 레벨을 반환합니다.">
<polygon fill="white" stroke="#666666" points="1232.5,-259.3 1050.5,-259.3 1050.5,-238.3 1232.5,-238.3 1232.5,-259.3"/>
<text text-anchor="middle" x="1141.5" y="-245.7" font-family="Consolas" font-size="12.00">Ship.GetOuterHullLevel</text>
</a>
</g>
</g>
<!-- Node9&#45;&gt;Node15 -->
<g id="edge16_Node000009_Node000015" class="edge">
<title>Node9&#45;&gt;Node15</title>
<g id="a_edge16_Node000009_Node000015"><a xlink:title=" ">
<path fill="none" stroke="#63b8ff" d="M909.81,-284.3C940.92,-279.22 978.9,-273.1 1013,-267.8 1027.78,-265.51 1043.54,-263.12 1058.76,-260.83"/>
<polygon fill="#63b8ff" stroke="#63b8ff" points="1059.29,-264.29 1068.66,-259.35 1058.25,-257.37 1059.29,-264.29"/>
</a>
</g>
</g>
<!-- Node17 -->
<g id="Node000017" class="node">
<title>Node17</title>
<g id="a_Node000017"><a xlink:href="classCrewBase.html#a0c35d7b81e7bbda6c1187cd56da46b19" target="_top" xlink:title="선원이 함선 스탯에 기여하는 수치를 반환합니다. 예: 산소 소모량 등.">
<polygon fill="white" stroke="#666666" points="1258.5,-128.3 1024.5,-128.3 1024.5,-107.3 1258.5,-107.3 1258.5,-128.3"/>
<text text-anchor="middle" x="1141.5" y="-114.7" font-family="Consolas" font-size="12.00">CrewBase.GetStatContributions</text>
</a>
</g>
</g>
<!-- Node9&#45;&gt;Node17 -->
<g id="edge18_Node000009_Node000017" class="edge">
<title>Node9&#45;&gt;Node17</title>
<g id="a_edge18_Node000009_Node000017"><a xlink:title=" ">
<path fill="none" stroke="#63b8ff" d="M853.54,-284.05C874.76,-254.73 938.35,-173.13 1013,-136.8 1016.85,-134.93 1020.83,-133.23 1024.91,-131.69"/>
<polygon fill="#63b8ff" stroke="#63b8ff" points="1026.26,-134.93 1034.59,-128.38 1023.99,-128.31 1026.26,-134.93"/>
</a>
</g>
</g>
<!-- Node18 -->
<g id="Node000018" class="node">
<title>Node18</title>
<g id="a_Node000018"><a xlink:href="classRoom.html#a8533094cb230185cce7735d640d950f1" target="_top" xlink:title="방이 함선 스탯에 기여하는 값을 반환합니다.">
<polygon fill="white" stroke="#666666" points="1243.5,-468.3 1039.5,-468.3 1039.5,-447.3 1243.5,-447.3 1243.5,-468.3"/>
<text text-anchor="middle" x="1141.5" y="-454.7" font-family="Consolas" font-size="12.00">Room.GetStatContributions</text>
</a>
</g>
</g>
<!-- Node9&#45;&gt;Node18 -->
<g id="edge19_Node000009_Node000018" class="edge">
<title>Node9&#45;&gt;Node18</title>
<g id="a_edge19_Node000009_Node000018"><a xlink:title=" ">
<path fill="none" stroke="#63b8ff" d="M917.95,-305.31C939.16,-311.48 960.96,-321.27 977,-336.8 1011.23,-369.96 976.31,-407.4 1013,-437.8 1018.09,-442.03 1023.71,-445.54 1029.66,-448.45"/>
<polygon fill="#63b8ff" stroke="#63b8ff" points="1028.68,-451.84 1039.26,-452.55 1031.43,-445.41 1028.68,-451.84"/>
</a>
</g>
</g>
<!-- Node21 -->
<g id="Node000021" class="node">
<title>Node21</title>
<g id="a_Node000021"><a xlink:href="classShip.html#a7ce33b470844e7f8b04df7741582010a" target="_top" xlink:title="함선의 기본 스탯을 초기화합니다. 모든 ShipStat 값을 0으로 설정하여 이후 계산의 기준을 만듭니다.">
<polygon fill="white" stroke="#666666" points="1240,-89.3 1043,-89.3 1043,-68.3 1240,-68.3 1240,-89.3"/>
<text text-anchor="middle" x="1141.5" y="-75.7" font-family="Consolas" font-size="12.00">Ship.InitializeBaseStats</text>
</a>
</g>
</g>
<!-- Node9&#45;&gt;Node21 -->
<g id="edge22_Node000009_Node000021" class="edge">
<title>Node9&#45;&gt;Node21</title>
<g id="a_edge22_Node000009_Node000021"><a xlink:title=" ">
<path fill="none" stroke="#63b8ff" d="M851.49,-283.93C869.36,-249.78 929.55,-144.24 1013,-97.8 1019.32,-94.29 1026.07,-91.36 1033.05,-88.92"/>
<polygon fill="#63b8ff" stroke="#63b8ff" points="1034.2,-92.23 1042.69,-85.89 1032.1,-85.55 1034.2,-92.23"/>
</a>
</g>
</g>
<!-- Node22 -->
<g id="Node000022" class="node">
<title>Node22</title>
<g id="a_Node000022"><a xlink:href="classShip.html#a4ef99106ff3d8b5e7149f15ff9317769" target="_top" xlink:title="주어진 ShipStat이 가산형(덧셈 방식) 스탯인지 여부를 반환합니다. 예: 쉴드 최대량, 산소 생성량 등은 단순 덧셈으로 누적됩니다.">
<polygon fill="white" stroke="#666666" points="1236,-376.3 1047,-376.3 1047,-355.3 1236,-355.3 1236,-376.3"/>
<text text-anchor="middle" x="1141.5" y="-362.7" font-family="Consolas" font-size="12.00">Ship.IsAdditiveStatType</text>
</a>
</g>
</g>
<!-- Node9&#45;&gt;Node22 -->
<g id="edge23_Node000009_Node000022" class="edge">
<title>Node9&#45;&gt;Node22</title>
<g id="a_edge23_Node000009_Node000022"><a xlink:title=" ">
<path fill="none" stroke="#63b8ff" d="M879.02,-305.39C923.81,-319.69 999.79,-343.78 1013,-346.8 1023.97,-349.31 1035.54,-351.57 1047.07,-353.58"/>
<polygon fill="#63b8ff" stroke="#63b8ff" points="1046.72,-357.07 1057.17,-355.28 1047.89,-350.16 1046.72,-357.07"/>
</a>
</g>
</g>
<!-- Node23 -->
<g id="Node000023" class="node">
<title>Node23</title>
<g id="a_Node000023"><a xlink:href="classShip.html#ae9a8351b5c780010ba90040c511976f6" target="_top" xlink:title="주어진 ShipStat이 배율형(곱셈 방식) 스탯인지 여부를 반환합니다. 예: 회피율 보너스 %, 데미지 증폭 % 등이 해당됩니다. 현재는 정의된 곱셈 스탯이 없습니다.">
<polygon fill="white" stroke="#666666" points="1258.5,-337.3 1024.5,-337.3 1024.5,-316.3 1258.5,-316.3 1258.5,-337.3"/>
<text text-anchor="middle" x="1141.5" y="-323.7" font-family="Consolas" font-size="12.00">Ship.IsMultiplicativeStatType</text>
</a>
</g>
</g>
<!-- Node9&#45;&gt;Node23 -->
<g id="edge24_Node000009_Node000023" class="edge">
<title>Node9&#45;&gt;Node23</title>
<g id="a_edge24_Node000009_Node000023"><a xlink:title=" ">
<path fill="none" stroke="#63b8ff" d="M942.84,-305.33C971.98,-308.49 1004.12,-311.99 1033.87,-315.22"/>
<polygon fill="#63b8ff" stroke="#63b8ff" points="1033.54,-318.7 1043.86,-316.3 1034.29,-311.74 1033.54,-318.7"/>
</a>
</g>
</g>
<!-- Node24 -->
<g id="Node000024" class="node">
<title>Node24</title>
<g id="a_Node000024"><a xlink:href="classShip.html#ad8f70687934e3a804bf86e704ca18150" target="_top" xlink:title="현재 함선의 스탯과 룸별 스탯 기여도를 콘솔에 출력합니다. 디버깅 모드가 활성화된 경우에만 호출되며, 전체 스탯 상태를 확인할 수 있습니다.">
<polygon fill="white" stroke="#666666" points="1236,-298.3 1047,-298.3 1047,-277.3 1236,-277.3 1236,-298.3"/>
<text text-anchor="middle" x="1141.5" y="-284.7" font-family="Consolas" font-size="12.00">Ship.PrintDebugStatInfo</text>
</a>
</g>
</g>
<!-- Node9&#45;&gt;Node24 -->
<g id="edge25_Node000009_Node000024" class="edge">
<title>Node9&#45;&gt;Node24</title>
<g id="a_edge25_Node000009_Node000024"><a xlink:title=" ">
<path fill="none" stroke="#63b8ff" d="M943.66,-292.48C973.44,-291.78 1006.29,-291 1036.48,-290.28"/>
<polygon fill="#63b8ff" stroke="#63b8ff" points="1036.69,-293.77 1046.61,-290.04 1036.53,-286.78 1036.69,-293.77"/>
</a>
</g>
</g>
<!-- Node25 -->
<g id="Node000025" class="node">
<title>Node25</title>
<g id="a_Node000025"><a xlink:href="classMoraleManager.html#af1cb805b49d259cc84441559dd0bb1c6" target="_top" xlink:title="전체 선원 사기 한 번에 할당">
<polygon fill="white" stroke="#666666" points="1240,-219.8 1043,-219.8 1043,-185.8 1240,-185.8 1240,-219.8"/>
<text text-anchor="start" x="1051" y="-206.2" font-family="Consolas" font-size="12.00">MoraleManager.SetAllCrew</text>
<text text-anchor="middle" x="1141.5" y="-193.2" font-family="Consolas" font-size="12.00">Morale</text>
</a>
</g>
</g>
<!-- Node9&#45;&gt;Node25 -->
<g id="edge26_Node000009_Node000025" class="edge">
<title>Node9&#45;&gt;Node25</title>
<g id="a_edge26_Node000009_Node000025"><a xlink:title=" ">
<path fill="none" stroke="#63b8ff" d="M869.05,-284.2C900.86,-269.91 960.25,-244.47 1013,-228.8 1020.94,-226.45 1029.22,-224.23 1037.58,-222.16"/>
<polygon fill="#63b8ff" stroke="#63b8ff" points="1038.5,-225.54 1047.41,-219.81 1036.87,-218.73 1038.5,-225.54"/>
</a>
</g>
</g>
<!-- Node10&#45;&gt;Node8 -->
<g id="edge11_Node000010_Node000008" class="edge">
<title>Node10&#45;&gt;Node8</title>
<g id="a_edge11_Node000010_Node000008"><a xlink:title=" ">
<path fill="none" stroke="#63b8ff" d="M1255.1,-413.05C1282.46,-413.35 1311.12,-413.66 1336.48,-413.94"/>
<polygon fill="#63b8ff" stroke="#63b8ff" points="1336.72,-417.45 1346.76,-414.06 1336.79,-410.45 1336.72,-417.45"/>
</a>
</g>
</g>
<!-- Node11 -->
<g id="Node000011" class="node">
<title>Node11</title>
<g id="a_Node000011"><a xlink:href="classShip.html#a89be268214921c4585f6b70038b98c8e" target="_top" xlink:title="현재 탑승 중인 크루 수를 반환합니다.">
<polygon fill="white" stroke="#666666" points="1487.5,-386.3 1343.5,-386.3 1343.5,-365.3 1487.5,-365.3 1487.5,-386.3"/>
<text text-anchor="middle" x="1415.5" y="-372.7" font-family="Consolas" font-size="12.00">Ship.GetCrewCount</text>
</a>
</g>
</g>
<!-- Node10&#45;&gt;Node11 -->
<g id="edge12_Node000010_Node000011" class="edge">
<title>Node10&#45;&gt;Node11</title>
<g id="a_edge12_Node000010_Node000011"><a xlink:title=" ">
<path fill="none" stroke="#63b8ff" d="M1255.1,-396.9C1281.3,-393.43 1308.7,-389.81 1333.24,-386.56"/>
<polygon fill="#63b8ff" stroke="#63b8ff" points="1333.76,-390.02 1343.22,-385.24 1332.84,-383.08 1333.76,-390.02"/>
</a>
</g>
</g>
<!-- Node12 -->
<g id="Node000012" class="node">
<title>Node12</title>
<g id="a_Node000012"><a xlink:href="classCrewSystem.html#ae270e71cdbafb68eb26d6f031758b1f5" target="_top" xlink:title="현재 탑승 중인 크루의 수를 반환합니다.">
<polygon fill="white" stroke="#666666" points="1750,-386.3 1561,-386.3 1561,-365.3 1750,-365.3 1750,-386.3"/>
<text text-anchor="middle" x="1655.5" y="-372.7" font-family="Consolas" font-size="12.00">CrewSystem.GetCrewCount</text>
</a>
</g>
</g>
<!-- Node11&#45;&gt;Node12 -->
<g id="edge13_Node000011_Node000012" class="edge">
<title>Node11&#45;&gt;Node12</title>
<g id="a_edge13_Node000011_Node000012"><a xlink:title=" ">
<path fill="none" stroke="#63b8ff" d="M1487.59,-375.8C1507.45,-375.8 1529.46,-375.8 1550.79,-375.8"/>
<polygon fill="#63b8ff" stroke="#63b8ff" points="1550.87,-379.31 1560.87,-375.8 1550.87,-372.31 1550.87,-379.31"/>
</a>
</g>
</g>
<!-- Node16 -->
<g id="Node000016" class="node">
<title>Node16</title>
<g id="a_Node000016"><a xlink:href="classOuterHullSystem.html#ab352abfc02989177392c3b60dd28ddc3" target="_top" xlink:title="외부 선체 시스템의 현재 레벨을 반환합니다.">
<polygon fill="white" stroke="#666666" points="1514,-265.8 1317,-265.8 1317,-231.8 1514,-231.8 1514,-265.8"/>
<text text-anchor="start" x="1325" y="-252.2" font-family="Consolas" font-size="12.00">OuterHullSystem.GetOuter</text>
<text text-anchor="middle" x="1415.5" y="-239.2" font-family="Consolas" font-size="12.00">HullLevel</text>
</a>
</g>
</g>
<!-- Node15&#45;&gt;Node16 -->
<g id="edge17_Node000015_Node000016" class="edge">
<title>Node15&#45;&gt;Node16</title>
<g id="a_edge17_Node000015_Node000016"><a xlink:title=" ">
<path fill="none" stroke="#63b8ff" d="M1232.69,-248.8C1256.34,-248.8 1282.09,-248.8 1306.56,-248.8"/>
<polygon fill="#63b8ff" stroke="#63b8ff" points="1306.59,-252.31 1316.59,-248.8 1306.59,-245.31 1306.59,-252.31"/>
</a>
</g>
</g>
<!-- Node19 -->
<g id="Node000019" class="node">
<title>Node19</title>
<g id="a_Node000019"><a xlink:href="classRoomData.html#a93ada549c4d197d14917913e944f46c2" target="_top" xlink:title="주어진 레벨에 해당하는 RoomLevel 데이터를 반환합니다. 각 파생 클래스에서 구현해야 합니다.">
<polygon fill="white" stroke="#666666" points="1525,-591.3 1306,-591.3 1306,-570.3 1525,-570.3 1525,-591.3"/>
<text text-anchor="middle" x="1415.5" y="-577.7" font-family="Consolas" font-size="12.00">RoomData.GetRoomDataByLevel</text>
</a>
</g>
</g>
<!-- Node18&#45;&gt;Node19 -->
<g id="edge20_Node000018_Node000019" class="edge">
<title>Node18&#45;&gt;Node19</title>
<g id="a_edge20_Node000018_Node000019"><a xlink:title=" ">
<path fill="none" stroke="#63b8ff" d="M1240.2,-468.32C1250.45,-470.84 1260.56,-473.95 1270,-477.8 1320.45,-498.39 1370.16,-539.69 1396.07,-563.26"/>
<polygon fill="#63b8ff" stroke="#63b8ff" points="1393.9,-566.02 1403.62,-570.24 1398.66,-560.88 1393.9,-566.02"/>
</a>
</g>
</g>
<!-- Node20 -->
<g id="Node000020" class="node">
<title>Node20</title>
<g id="a_Node000020"><a xlink:href="classRoom.html#af15fefedd48a2009da56d461a9084ed8" target="_top" xlink:title="방이 작동 가능한 상태인지 확인합니다.">
<polygon fill="white" stroke="#666666" points="1491.5,-468.3 1339.5,-468.3 1339.5,-447.3 1491.5,-447.3 1491.5,-468.3"/>
<text text-anchor="middle" x="1415.5" y="-454.7" font-family="Consolas" font-size="12.00">Room.IsOperational</text>
</a>
</g>
</g>
<!-- Node18&#45;&gt;Node20 -->
<g id="edge21_Node000018_Node000020" class="edge">
<title>Node18&#45;&gt;Node20</title>
<g id="a_edge21_Node000018_Node000020"><a xlink:title=" ">
<path fill="none" stroke="#63b8ff" d="M1243.78,-457.8C1271.91,-457.8 1302.16,-457.8 1329.26,-457.8"/>
<polygon fill="#63b8ff" stroke="#63b8ff" points="1329.49,-461.31 1339.49,-457.8 1329.49,-454.31 1329.49,-461.31"/>
</a>
</g>
</g>
<!-- Node26&#45;&gt;Node3 -->
<g id="edge29_Node000026_Node000003" class="edge">
<title>Node26&#45;&gt;Node3</title>
<g id="a_edge29_Node000026_Node000003"><a xlink:title=" ">
<path fill="none" stroke="#63b8ff" d="M419.09,-742.87C438.82,-746.57 460.12,-749.93 480,-751.8 672.35,-769.9 897.61,-764.17 1029.15,-758.15"/>
<polygon fill="#63b8ff" stroke="#63b8ff" points="1029.41,-761.64 1039.23,-757.68 1029.08,-754.65 1029.41,-761.64"/>
</a>
</g>
</g>
<!-- Node27 -->
<g id="Node000027" class="node">
<title>Node27</title>
<g id="a_Node000027"><a xlink:href="classRoom.html#a08dfe5c5a797aacad22c29926b3482e4" target="_top" xlink:title="방의 우선순위 타일에 따른 그리드에서의 위치 반환 (회전각 적용)">
<polygon fill="white" stroke="#666666" points="677,-742.8 480,-742.8 480,-708.8 677,-708.8 677,-742.8"/>
<text text-anchor="start" x="488" y="-729.2" font-family="Consolas" font-size="12.00">Room.GetRotatedCrewEntry</text>
<text text-anchor="middle" x="578.5" y="-716.2" font-family="Consolas" font-size="12.00">GridPriority</text>
</a>
</g>
</g>
<!-- Node26&#45;&gt;Node27 -->
<g id="edge30_Node000026_Node000027" class="edge">
<title>Node26&#45;&gt;Node27</title>
<g id="a_edge30_Node000026_Node000027"><a xlink:title=" ">
<path fill="none" stroke="#63b8ff" d="M444.15,-725.8C452.52,-725.8 461.01,-725.8 469.43,-725.8"/>
<polygon fill="#63b8ff" stroke="#63b8ff" points="469.65,-729.31 479.65,-725.8 469.65,-722.31 469.65,-729.31"/>
</a>
</g>
</g>
<!-- Node27&#45;&gt;Node19 -->
<g id="edge31_Node000027_Node000019" class="edge">
<title>Node27&#45;&gt;Node19</title>
<g id="a_edge31_Node000027_Node000019"><a xlink:title=" ">
<path fill="none" stroke="#63b8ff" d="M677.17,-709.98C757.68,-696.85 874.81,-677.51 977,-659.8 1108.49,-637.02 1261.94,-608.97 1347.7,-593.17"/>
<polygon fill="#63b8ff" stroke="#63b8ff" points="1348.36,-596.61 1357.56,-591.35 1347.1,-589.72 1348.36,-596.61"/>
</a>
</g>
</g>
<!-- Node31&#45;&gt;Node5 -->
<g id="edge47_Node000031_Node000005" class="edge">
<title>Node31&#45;&gt;Node5</title>
<g id="a_edge47_Node000031_Node000005"><a xlink:title=" ">
<path fill="none" stroke="#63b8ff" d="M361.54,-585.79C387.01,-562.93 434.83,-521.82 480,-492.8 577.5,-430.18 602.59,-410.98 713,-375.8 721.95,-372.95 731.37,-370.5 740.9,-368.4"/>
<polygon fill="#63b8ff" stroke="#63b8ff" points="741.76,-371.79 750.84,-366.33 740.34,-364.94 741.76,-371.79"/>
</a>
</g>
</g>
<!-- Node31&#45;&gt;Node8 -->
<g id="edge36_Node000031_Node000008" class="edge">
<title>Node31&#45;&gt;Node8</title>
<g id="a_edge36_Node000031_Node000008"><a xlink:title=" ">
<path fill="none" stroke="#63b8ff" d="M440.53,-588.03C453.77,-586.39 467.2,-584.92 480,-583.8 523.75,-580.01 1235.14,-582.52 1270,-555.8 1313.18,-522.71 1266.01,-475.69 1306,-438.8 1314.81,-430.68 1325.73,-425.09 1337.22,-421.27"/>
<polygon fill="#63b8ff" stroke="#63b8ff" points="1338.33,-424.6 1346.97,-418.47 1336.39,-417.87 1338.33,-424.6"/>
</a>
</g>
</g>
<!-- Node31&#45;&gt;Node27 -->
<g id="edge37_Node000031_Node000027" class="edge">
<title>Node31&#45;&gt;Node27</title>
<g id="a_edge37_Node000031_Node000027"><a xlink:title=" ">
<path fill="none" stroke="#63b8ff" d="M375.61,-619.91C417.4,-641.83 489.93,-679.87 535.73,-703.89"/>
<polygon fill="#63b8ff" stroke="#63b8ff" points="534.31,-707.1 544.79,-708.65 537.56,-700.91 534.31,-707.1"/>
</a>
</g>
</g>
<!-- Node32 -->
<g id="Node000032" class="node">
<title>Node32</title>
<g id="a_Node000032"><a xlink:href="classCrewMember.html#a2a72214520c246d394664e2f4bf4a03c" target="_top" xlink:title="현재 선원이 탑승해 있는 함선이 선원의 모선인지 확인 (상대 배에 타있으면 false)">
<polygon fill="white" stroke="#666666" points="662,-652.3 495,-652.3 495,-631.3 662,-631.3 662,-652.3"/>
<text text-anchor="middle" x="578.5" y="-638.7" font-family="Consolas" font-size="12.00">CrewMember.IsOwnShip</text>
</a>
</g>
</g>
<!-- Node31&#45;&gt;Node32 -->
<g id="edge38_Node000031_Node000032" class="edge">
<title>Node31&#45;&gt;Node32</title>
<g id="a_edge38_Node000031_Node000032"><a xlink:title=" ">
<path fill="none" stroke="#63b8ff" d="M440.75,-619.06C462.04,-622.6 484.21,-626.29 504.34,-629.64"/>
<polygon fill="#63b8ff" stroke="#63b8ff" points="503.92,-633.12 514.36,-631.3 505.07,-626.21 503.92,-633.12"/>
</a>
</g>
</g>
<!-- Node33 -->
<g id="Node000033" class="node">
<title>Node33</title>
<g id="a_Node000033"><a xlink:href="classRTSSelectionManager.html#ad41f57db47b19c1fc53f8415a0ec46c3" target="_top" xlink:title="같은 방 내에 적이 있다면 공격 AI">
<polygon fill="white" stroke="#666666" points="677,-535.8 480,-535.8 480,-501.8 677,-501.8 677,-535.8"/>
<text text-anchor="start" x="488" y="-522.2" font-family="Consolas" font-size="12.00">RTSSelectionManager.Move</text>
<text text-anchor="middle" x="578.5" y="-509.2" font-family="Consolas" font-size="12.00">ForCombat</text>
</a>
</g>
</g>
<!-- Node31&#45;&gt;Node33 -->
<g id="edge39_Node000031_Node000033" class="edge">
<title>Node31&#45;&gt;Node33</title>
<g id="a_edge39_Node000031_Node000033"><a xlink:title=" ">
<path fill="none" stroke="#63b8ff" d="M385.03,-585.78C412.01,-575.04 447.89,-561.11 480,-549.8 490.33,-546.17 501.33,-542.49 512.09,-538.99"/>
<polygon fill="#63b8ff" stroke="#63b8ff" points="513.43,-542.24 521.88,-535.84 511.28,-535.58 513.43,-542.24"/>
</a>
</g>
</g>
<!-- Node34 -->
<g id="Node000034" class="node">
<title>Node34</title>
<g id="a_Node000034"><a xlink:href="classRoom.html#a577bbc93f6479096f0d4bedd6cefc26e" target="_top" xlink:title="선원이 방에 진입할 때 호출됩니다.">
<polygon fill="white" stroke="#666666" points="647,-613.3 510,-613.3 510,-592.3 647,-592.3 647,-613.3"/>
<text text-anchor="middle" x="578.5" y="-599.7" font-family="Consolas" font-size="12.00">Room.OnCrewEnter</text>
</a>
</g>
</g>
<!-- Node31&#45;&gt;Node34 -->
<g id="edge46_Node000031_Node000034" class="edge">
<title>Node31&#45;&gt;Node34</title>
<g id="a_edge46_Node000031_Node000034"><a xlink:title=" ">
<path fill="none" stroke="#63b8ff" d="M440.75,-602.8C460.46,-602.8 480.92,-602.8 499.83,-602.8"/>
<polygon fill="#63b8ff" stroke="#63b8ff" points="499.86,-606.31 509.86,-602.8 499.86,-599.31 499.86,-606.31"/>
</a>
</g>
</g>
<!-- Node33&#45;&gt;Node2 -->
<g id="edge40_Node000033_Node000002" class="edge">
<title>Node33&#45;&gt;Node2</title>
<g id="a_edge40_Node000033_Node000002"><a xlink:title=" ">
<path fill="none" stroke="#63b8ff" d="M614.54,-536C634.84,-547.34 659.71,-563.79 677,-583.8 701.44,-612.09 687.38,-632.59 713,-659.8 738.06,-686.43 775.22,-705.55 803.56,-717.37"/>
<polygon fill="#63b8ff" stroke="#63b8ff" points="802.6,-720.76 813.19,-721.25 805.22,-714.26 802.6,-720.76"/>
</a>
</g>
</g>
<!-- Node33&#45;&gt;Node3 -->
<g id="edge42_Node000033_Node000003" class="edge">
<title>Node33&#45;&gt;Node3</title>
<g id="a_edge42_Node000033_Node000003"><a xlink:title=" ">
<path fill="none" stroke="#63b8ff" d="M677.24,-526.98C760.65,-537.08 881.85,-559.33 977,-607.8 1040.15,-639.98 1098.45,-702.2 1125.17,-733.25"/>
<polygon fill="#63b8ff" stroke="#63b8ff" points="1122.71,-735.76 1131.84,-741.13 1128.05,-731.24 1122.71,-735.76"/>
</a>
</g>
</g>
<!-- Node33&#45;&gt;Node13 -->
<g id="edge41_Node000033_Node000013" class="edge">
<title>Node33&#45;&gt;Node13</title>
<g id="a_edge41_Node000033_Node000013"><a xlink:title=" ">
<path fill="none" stroke="#63b8ff" d="M677.16,-517.9C757.65,-517.61 874.79,-518.23 977,-522.8 1001.27,-523.89 1027.52,-525.7 1051.74,-527.62"/>
<polygon fill="#63b8ff" stroke="#63b8ff" points="1051.73,-531.13 1061.98,-528.45 1052.3,-524.16 1051.73,-531.13"/>
</a>
</g>
</g>
<!-- Node33&#45;&gt;Node28 -->
<g id="edge43_Node000033_Node000028" class="edge">
<title>Node33&#45;&gt;Node28</title>
<g id="a_edge43_Node000033_Node000028"><a xlink:title=" ">
<path fill="none" stroke="#63b8ff" d="M618.81,-535.9C665.73,-556.29 744.19,-590.41 795.01,-612.5"/>
<polygon fill="#63b8ff" stroke="#63b8ff" points="793.91,-615.84 804.47,-616.62 796.7,-609.42 793.91,-615.84"/>
</a>
</g>
</g>
<!-- Node33&#45;&gt;Node29 -->
<g id="edge44_Node000033_Node000029" class="edge">
<title>Node33&#45;&gt;Node29</title>
<g id="a_edge44_Node000033_Node000029"><a xlink:title=" ">
<path fill="none" stroke="#63b8ff" d="M645.65,-501.72C667.12,-496.24 691.05,-490.2 713,-484.8 728.51,-481 745.07,-477.01 761.01,-473.22"/>
<polygon fill="#63b8ff" stroke="#63b8ff" points="761.93,-476.6 770.85,-470.88 760.31,-469.79 761.93,-476.6"/>
</a>
</g>
</g>
<!-- Node33&#45;&gt;Node30 -->
<g id="edge45_Node000033_Node000030" class="edge">
<title>Node33&#45;&gt;Node30</title>
<g id="a_edge45_Node000033_Node000030"><a xlink:title=" ">
<path fill="none" stroke="#63b8ff" d="M653.76,-501.59C662.07,-497.85 670.03,-493.31 677,-487.8 701.39,-468.52 687.57,-445.7 713,-427.8 720.3,-422.67 728.37,-418.49 736.81,-415.09"/>
<polygon fill="#63b8ff" stroke="#63b8ff" points="738.27,-418.28 746.48,-411.58 735.88,-411.7 738.27,-418.28"/>
</a>
</g>
</g>
</g>
</svg>

<g id="navigator" transform="translate(0 0)" fill="#404254">
  <rect fill="#f2f5e9" fill-opacity="0.5" stroke="#606060" stroke-width=".5" x="0" y="0" width="60" height="60"/>
  <use id="zoomplus" xlink:href="#zoomPlus" x="17" y="9" onmousedown="handleZoom(evt,'in')"/>
  <use id="zoomminus" xlink:href="#zoomMin" x="42" y="9" onmousedown="handleZoom(evt,'out')"/>
  <use id="reset" xlink:href="#resetDef" x="30" y="36" onmousedown="handleReset()"/>
   <use id="arrowup" xlink:href="#arrowUp" x="0" y="0" onmousedown="handlePan(0,-1)"/>
  <use id="arrowright" xlink:href="#arrowRight" x="0" y="0" onmousedown="handlePan(1,0)"/>
  <use id="arrowdown" xlink:href="#arrowDown" x="0" y="0" onmousedown="handlePan(0,1)"/>
  <use id="arrowleft" xlink:href="#arrowLeft" x="0" y="0" onmousedown="handlePan(-1,0)"/>
</g>
<svg viewBox="0 0 15 15" width="100%" height="30px" preserveAspectRatio="xMaxYMin meet">
 <g id="arrow_out" transform="scale(0.3 0.3)">
  <a xlink:href="classRTSSelectionManager_a0002c5992875339db3028007c2472b6d_cgraph_org.svg" target="_base">
   <rect id="button" ry="5" rx="5" y="6" x="6" height="38" width="38"
        fill="#f2f5e9" fill-opacity="0.5" stroke="#606060" stroke-width="1.0"/>
   <path id="arrow"
     d="M 11.500037,31.436501 C 11.940474,20.09759 22.043105,11.32322 32.158766,21.979434 L 37.068811,17.246167 C 37.068811,17.246167 37.088388,32 37.088388,32 L 22.160133,31.978069 C 22.160133,31.978069 26.997745,27.140456 26.997745,27.140456 C 18.528582,18.264221 13.291696,25.230495 11.500037,31.436501 z"
     style="fill:#404040;"/>
  </a>
 </g>
</svg>

<style type='text/css'>
<![CDATA[
[data-mouse-over-selected='false'] { opacity: 0.7; }
[data-mouse-over-selected='true']  { opacity: 1.0; }
]]>
</style>
<script type="application/ecmascript"><![CDATA[
document.addEventListener('DOMContentLoaded', (event) => {
  highlightEdges();
  highlightAdjacentNodes();
});
]]></script>
</svg>
