<?xml version="1.0" encoding="UTF-8" standalone="no"?>
<!DOCTYPE svg PUBLIC "-//W3C//DTD SVG 1.1//EN"
 "http://www.w3.org/Graphics/SVG/1.1/DTD/svg11.dtd">
<!-- Generated by graphviz version 2.43.0 (0)
 -->
<!-- Title: ES3Types.ES3Type_GameObject Pages: 1 -->
<svg width="291pt" height="1815pt"
 viewBox="0.00 0.00 291.00 1815.00" xmlns="http://www.w3.org/2000/svg" xmlns:xlink="http://www.w3.org/1999/xlink">
<g id="graph0" class="graph" transform="scale(1 1) rotate(0) translate(4 1811)">
<title>ES3Types.ES3Type_GameObject</title>
<!-- Node1 -->
<g id="Node000001" class="node">
<title>Node1</title>
<g id="a_Node000001"><a xlink:title=" ">
<polygon fill="#999999" stroke="transparent" points="283,-428 0,-428 0,0 283,0 283,-428"/>
<text text-anchor="start" x="40.5" y="-414.4" font-family="Consolas" font-size="12.00">ES3Types.ES3Type_GameObject</text>
<text text-anchor="start" x="4.5" y="-397.4" font-family="Consolas" font-size="12.00">+</text>
<text text-anchor="start" x="16.5" y="-397.4" font-family="Consolas" font-size="12.00">bool saveChildren</text>
<text text-anchor="start" x="4.5" y="-380.4" font-family="Consolas" font-size="12.00">+</text>
<text text-anchor="start" x="16.5" y="-380.4" font-family="Consolas" font-size="12.00">static ES3Type Instance</text>
<text text-anchor="start" x="4.5" y="-363.4" font-family="Consolas" font-size="12.00">&#45;</text>
<text text-anchor="start" x="16.5" y="-363.4" font-family="Consolas" font-size="12.00">const string prefabPropertyName</text>
<text text-anchor="start" x="4.5" y="-346.4" font-family="Consolas" font-size="12.00">&#45;</text>
<text text-anchor="start" x="16.5" y="-346.4" font-family="Consolas" font-size="12.00">const string transformPropertyName</text>
<text text-anchor="start" x="4.5" y="-329.4" font-family="Consolas" font-size="12.00">+</text>
<text text-anchor="start" x="16.5" y="-329.4" font-family="Consolas" font-size="12.00">ES3Type_GameObject()</text>
<text text-anchor="start" x="4.5" y="-312.4" font-family="Consolas" font-size="12.00">+</text>
<text text-anchor="start" x="16.5" y="-312.4" font-family="Consolas" font-size="12.00">override void WriteObject</text>
<text text-anchor="start" x="16.5" y="-299.4" font-family="Consolas" font-size="12.00">(object obj, ES3Writer</text>
<text text-anchor="start" x="16.5" y="-286.4" font-family="Consolas" font-size="12.00"> writer, ES3.ReferenceMode mode)</text>
<text text-anchor="start" x="4.5" y="-269.4" font-family="Consolas" font-size="12.00">+</text>
<text text-anchor="start" x="16.5" y="-269.4" font-family="Consolas" font-size="12.00">static List&lt; GameObject</text>
<text text-anchor="start" x="16.5" y="-256.4" font-family="Consolas" font-size="12.00"> &gt; GetChildren(GameObject go)</text>
<text text-anchor="start" x="4.5" y="-239.4" font-family="Consolas" font-size="12.00">#</text>
<text text-anchor="start" x="16.5" y="-239.4" font-family="Consolas" font-size="12.00">override object ReadObject</text>
<text text-anchor="start" x="16.5" y="-226.4" font-family="Consolas" font-size="12.00">&lt; T &gt;(ES3Reader reader)</text>
<text text-anchor="start" x="4.5" y="-209.4" font-family="Consolas" font-size="12.00">#</text>
<text text-anchor="start" x="16.5" y="-209.4" font-family="Consolas" font-size="12.00">override void ReadObject</text>
<text text-anchor="start" x="16.5" y="-196.4" font-family="Consolas" font-size="12.00">&lt; T &gt;(ES3Reader reader,</text>
<text text-anchor="start" x="16.5" y="-183.4" font-family="Consolas" font-size="12.00"> object obj)</text>
<text text-anchor="start" x="4.5" y="-166.4" font-family="Consolas" font-size="12.00">#</text>
<text text-anchor="start" x="16.5" y="-166.4" font-family="Consolas" font-size="12.00">override void WriteUnity</text>
<text text-anchor="start" x="16.5" y="-153.4" font-family="Consolas" font-size="12.00">Object(object obj, ES3Writer</text>
<text text-anchor="start" x="16.5" y="-140.4" font-family="Consolas" font-size="12.00"> writer)</text>
<text text-anchor="start" x="4.5" y="-123.4" font-family="Consolas" font-size="12.00">#</text>
<text text-anchor="start" x="16.5" y="-123.4" font-family="Consolas" font-size="12.00">override void ReadUnityObject</text>
<text text-anchor="start" x="16.5" y="-110.4" font-family="Consolas" font-size="12.00">&lt; T &gt;(ES3Reader reader, object obj)</text>
<text text-anchor="start" x="4.5" y="-93.4" font-family="Consolas" font-size="12.00">#</text>
<text text-anchor="start" x="16.5" y="-93.4" font-family="Consolas" font-size="12.00">override object ReadUnity</text>
<text text-anchor="start" x="16.5" y="-80.4" font-family="Consolas" font-size="12.00">Object&lt; T &gt;(ES3Reader reader)</text>
<text text-anchor="start" x="4.5" y="-63.4" font-family="Consolas" font-size="12.00">&#45;</text>
<text text-anchor="start" x="16.5" y="-63.4" font-family="Consolas" font-size="12.00">void ReadComponents</text>
<text text-anchor="start" x="16.5" y="-50.4" font-family="Consolas" font-size="12.00">(ES3Reader reader, GameObject go)</text>
<text text-anchor="start" x="4.5" y="-33.4" font-family="Consolas" font-size="12.00">&#45;</text>
<text text-anchor="start" x="16.5" y="-33.4" font-family="Consolas" font-size="12.00">GameObject CreateNewGame</text>
<text text-anchor="start" x="16.5" y="-20.4" font-family="Consolas" font-size="12.00">Object(ES3ReferenceMgrBase</text>
<text text-anchor="start" x="16.5" y="-7.4" font-family="Consolas" font-size="12.00"> refMgr, long id)</text>
<polygon fill="#666666" stroke="#666666" points="0.5,-409 0.5,-409 283.5,-409 283.5,-409 0.5,-409"/>
<polygon fill="#666666" stroke="#666666" points="0.5,-341 0.5,-341 14.5,-341 14.5,-341 0.5,-341"/>
<polygon fill="#666666" stroke="#666666" points="14.5,-341 14.5,-341 283.5,-341 283.5,-341 14.5,-341"/>
<polygon fill="none" stroke="#666666" points="0,0 0,-428 283,-428 283,0 0,0"/>
</a>
</g>
</g>
<!-- Node2 -->
<g id="Node000002" class="node">
<title>Node2</title>
<g id="a_Node000002"><a xlink:href="classES3Types_1_1ES3UnityObjectType.html" target="_top" xlink:title=" ">
<polygon fill="white" stroke="transparent" points="272,-850 11,-850 11,-464 272,-464 272,-850"/>
<text text-anchor="start" x="74" y="-836.4" font-family="Consolas" font-size="12.00">ES3UnityObjectType</text>
<text text-anchor="start" x="138" y="-819.4" font-family="Consolas" font-size="12.00"> </text>
<text text-anchor="start" x="15.5" y="-802.4" font-family="Consolas" font-size="12.00">+</text>
<text text-anchor="start" x="27.5" y="-802.4" font-family="Consolas" font-size="12.00">ES3UnityObjectType</text>
<text text-anchor="start" x="27.5" y="-789.4" font-family="Consolas" font-size="12.00">(Type type)</text>
<text text-anchor="start" x="15.5" y="-772.4" font-family="Consolas" font-size="12.00">+</text>
<text text-anchor="start" x="27.5" y="-772.4" font-family="Consolas" font-size="12.00">virtual void WriteObject</text>
<text text-anchor="start" x="27.5" y="-759.4" font-family="Consolas" font-size="12.00">(object obj, ES3Writer</text>
<text text-anchor="start" x="27.5" y="-746.4" font-family="Consolas" font-size="12.00"> writer, ES3.ReferenceMode mode)</text>
<text text-anchor="start" x="15.5" y="-729.4" font-family="Consolas" font-size="12.00">#</text>
<text text-anchor="start" x="27.5" y="-729.4" font-family="Consolas" font-size="12.00">void WriteUnityObject</text>
<text text-anchor="start" x="27.5" y="-716.4" font-family="Consolas" font-size="12.00">(object obj, ES3Writer</text>
<text text-anchor="start" x="27.5" y="-703.4" font-family="Consolas" font-size="12.00"> writer)</text>
<text text-anchor="start" x="15.5" y="-686.4" font-family="Consolas" font-size="12.00">#</text>
<text text-anchor="start" x="27.5" y="-686.4" font-family="Consolas" font-size="12.00">void ReadUnityObject</text>
<text text-anchor="start" x="27.5" y="-673.4" font-family="Consolas" font-size="12.00">&lt; T &gt;(ES3Reader reader,</text>
<text text-anchor="start" x="27.5" y="-660.4" font-family="Consolas" font-size="12.00"> object obj)</text>
<text text-anchor="start" x="15.5" y="-643.4" font-family="Consolas" font-size="12.00">#</text>
<text text-anchor="start" x="27.5" y="-643.4" font-family="Consolas" font-size="12.00">object ReadUnityObject</text>
<text text-anchor="start" x="27.5" y="-630.4" font-family="Consolas" font-size="12.00">&lt; T &gt;(ES3Reader reader)</text>
<text text-anchor="start" x="15.5" y="-613.4" font-family="Consolas" font-size="12.00">#</text>
<text text-anchor="start" x="27.5" y="-613.4" font-family="Consolas" font-size="12.00">override void WriteObject</text>
<text text-anchor="start" x="27.5" y="-600.4" font-family="Consolas" font-size="12.00">(object obj, ES3Writer</text>
<text text-anchor="start" x="27.5" y="-587.4" font-family="Consolas" font-size="12.00"> writer)</text>
<text text-anchor="start" x="15.5" y="-570.4" font-family="Consolas" font-size="12.00">#</text>
<text text-anchor="start" x="27.5" y="-570.4" font-family="Consolas" font-size="12.00">override void ReadObject</text>
<text text-anchor="start" x="27.5" y="-557.4" font-family="Consolas" font-size="12.00">&lt; T &gt;(ES3Reader reader,</text>
<text text-anchor="start" x="27.5" y="-544.4" font-family="Consolas" font-size="12.00"> object obj)</text>
<text text-anchor="start" x="15.5" y="-527.4" font-family="Consolas" font-size="12.00">#</text>
<text text-anchor="start" x="27.5" y="-527.4" font-family="Consolas" font-size="12.00">override object ReadObject</text>
<text text-anchor="start" x="27.5" y="-514.4" font-family="Consolas" font-size="12.00">&lt; T &gt;(ES3Reader reader)</text>
<text text-anchor="start" x="15.5" y="-497.4" font-family="Consolas" font-size="12.00">#</text>
<text text-anchor="start" x="27.5" y="-497.4" font-family="Consolas" font-size="12.00">bool WriteUsingDerivedType</text>
<text text-anchor="start" x="27.5" y="-484.4" font-family="Consolas" font-size="12.00">(object obj, ES3Writer writer,</text>
<text text-anchor="start" x="27.5" y="-471.4" font-family="Consolas" font-size="12.00"> ES3.ReferenceMode mode)</text>
<polygon fill="#bfbfbf" stroke="#bfbfbf" points="11.5,-831 11.5,-831 272.5,-831 272.5,-831 11.5,-831"/>
<polygon fill="#bfbfbf" stroke="#bfbfbf" points="11.5,-814 11.5,-814 272.5,-814 272.5,-814 11.5,-814"/>
<polygon fill="none" stroke="#bfbfbf" points="11,-464 11,-850 272,-850 272,-464 11,-464"/>
</a>
</g>
</g>
<!-- Node2&#45;&gt;Node1 -->
<g id="edge1_Node000001_Node000002" class="edge">
<title>Node2&#45;&gt;Node1</title>
<g id="a_edge1_Node000001_Node000002"><a xlink:title=" ">
<path fill="none" stroke="#63b8ff" d="M141.5,-453.84C141.5,-445.3 141.5,-436.72 141.5,-428.15"/>
<polygon fill="none" stroke="#63b8ff" points="138,-453.85 141.5,-463.85 145,-453.85 138,-453.85"/>
</a>
</g>
</g>
<!-- Node3 -->
<g id="Node000003" class="node">
<title>Node3</title>
<g id="a_Node000003"><a xlink:href="classES3Types_1_1ES3ObjectType.html" target="_top" xlink:title=" ">
<polygon fill="white" stroke="transparent" points="238,-1173 45,-1173 45,-886 238,-886 238,-1173"/>
<text text-anchor="start" x="93" y="-1158.9" font-family="Consolas" font-size="12.00">ES3ObjectType</text>
<text text-anchor="start" x="138" y="-1141.9" font-family="Consolas" font-size="12.00"> </text>
<text text-anchor="start" x="49.5" y="-1124.9" font-family="Consolas" font-size="12.00">+</text>
<text text-anchor="start" x="61.5" y="-1124.9" font-family="Consolas" font-size="12.00">ES3ObjectType(Type</text>
<text text-anchor="start" x="61.5" y="-1111.9" font-family="Consolas" font-size="12.00"> type)</text>
<text text-anchor="start" x="49.5" y="-1094.9" font-family="Consolas" font-size="12.00">+</text>
<text text-anchor="start" x="61.5" y="-1094.9" font-family="Consolas" font-size="12.00">override void Write</text>
<text text-anchor="start" x="61.5" y="-1081.9" font-family="Consolas" font-size="12.00">(object obj, ES3Writer</text>
<text text-anchor="start" x="61.5" y="-1068.9" font-family="Consolas" font-size="12.00"> writer)</text>
<text text-anchor="start" x="49.5" y="-1051.9" font-family="Consolas" font-size="12.00">+</text>
<text text-anchor="start" x="61.5" y="-1051.9" font-family="Consolas" font-size="12.00">override object Read</text>
<text text-anchor="start" x="61.5" y="-1038.9" font-family="Consolas" font-size="12.00">&lt; T &gt;(ES3Reader reader)</text>
<text text-anchor="start" x="49.5" y="-1021.9" font-family="Consolas" font-size="12.00">+</text>
<text text-anchor="start" x="61.5" y="-1021.9" font-family="Consolas" font-size="12.00">override void ReadInto</text>
<text text-anchor="start" x="61.5" y="-1008.9" font-family="Consolas" font-size="12.00">&lt; T &gt;(ES3Reader reader,</text>
<text text-anchor="start" x="61.5" y="-995.9" font-family="Consolas" font-size="12.00"> object obj)</text>
<text text-anchor="start" x="49.5" y="-978.9" font-family="Consolas" font-size="12.00">#</text>
<text text-anchor="start" x="61.5" y="-978.9" font-family="Consolas" font-size="12.00">void WriteObject(object</text>
<text text-anchor="start" x="61.5" y="-965.9" font-family="Consolas" font-size="12.00"> obj, ES3Writer writer)</text>
<text text-anchor="start" x="49.5" y="-948.9" font-family="Consolas" font-size="12.00">#</text>
<text text-anchor="start" x="61.5" y="-948.9" font-family="Consolas" font-size="12.00">object ReadObject&lt;</text>
<text text-anchor="start" x="61.5" y="-935.9" font-family="Consolas" font-size="12.00"> T &gt;(ES3Reader reader)</text>
<text text-anchor="start" x="49.5" y="-918.9" font-family="Consolas" font-size="12.00">#</text>
<text text-anchor="start" x="61.5" y="-918.9" font-family="Consolas" font-size="12.00">virtual void ReadObject</text>
<text text-anchor="start" x="61.5" y="-905.9" font-family="Consolas" font-size="12.00">&lt; T &gt;(ES3Reader reader,</text>
<text text-anchor="start" x="61.5" y="-892.9" font-family="Consolas" font-size="12.00"> object obj)</text>
<polygon fill="#bfbfbf" stroke="#bfbfbf" points="45.5,-1153.5 45.5,-1153.5 238.5,-1153.5 238.5,-1153.5 45.5,-1153.5"/>
<polygon fill="#bfbfbf" stroke="#bfbfbf" points="45.5,-1136.5 45.5,-1136.5 238.5,-1136.5 238.5,-1136.5 45.5,-1136.5"/>
<polygon fill="none" stroke="#bfbfbf" points="45,-886 45,-1173 238,-1173 238,-886 45,-886"/>
</a>
</g>
</g>
<!-- Node3&#45;&gt;Node2 -->
<g id="edge2_Node000002_Node000003" class="edge">
<title>Node3&#45;&gt;Node2</title>
<g id="a_edge2_Node000002_Node000003"><a xlink:title=" ">
<path fill="none" stroke="#63b8ff" d="M141.5,-875.57C141.5,-867.15 141.5,-858.63 141.5,-850.1"/>
<polygon fill="none" stroke="#63b8ff" points="138,-875.78 141.5,-885.78 145,-875.79 138,-875.78"/>
</a>
</g>
</g>
<!-- Node4 -->
<g id="Node000004" class="node">
<title>Node4</title>
<g id="a_Node000004"><a xlink:href="classES3Types_1_1ES3Type.html" target="_top" xlink:title=" ">
<polygon fill="white" stroke="transparent" points="264.5,-1807 18.5,-1807 18.5,-1209 264.5,-1209 264.5,-1807"/>
<text text-anchor="start" x="115" y="-1793.4" font-family="Consolas" font-size="12.00">ES3Type</text>
<text text-anchor="start" x="22.5" y="-1776.4" font-family="Consolas" font-size="12.00">+</text>
<text text-anchor="start" x="34.5" y="-1776.4" font-family="Consolas" font-size="12.00">ES3Member[] members</text>
<text text-anchor="start" x="22.5" y="-1759.4" font-family="Consolas" font-size="12.00">+</text>
<text text-anchor="start" x="34.5" y="-1759.4" font-family="Consolas" font-size="12.00">Type type</text>
<text text-anchor="start" x="22.5" y="-1742.4" font-family="Consolas" font-size="12.00">+</text>
<text text-anchor="start" x="34.5" y="-1742.4" font-family="Consolas" font-size="12.00">bool isPrimitive</text>
<text text-anchor="start" x="22.5" y="-1725.4" font-family="Consolas" font-size="12.00">+</text>
<text text-anchor="start" x="34.5" y="-1725.4" font-family="Consolas" font-size="12.00">bool isValueType</text>
<text text-anchor="start" x="22.5" y="-1708.4" font-family="Consolas" font-size="12.00">+</text>
<text text-anchor="start" x="34.5" y="-1708.4" font-family="Consolas" font-size="12.00">bool isCollection</text>
<text text-anchor="start" x="22.5" y="-1691.4" font-family="Consolas" font-size="12.00">+</text>
<text text-anchor="start" x="34.5" y="-1691.4" font-family="Consolas" font-size="12.00">bool isDictionary</text>
<text text-anchor="start" x="22.5" y="-1674.4" font-family="Consolas" font-size="12.00">+</text>
<text text-anchor="start" x="34.5" y="-1674.4" font-family="Consolas" font-size="12.00">bool isTuple</text>
<text text-anchor="start" x="22.5" y="-1657.4" font-family="Consolas" font-size="12.00">+</text>
<text text-anchor="start" x="34.5" y="-1657.4" font-family="Consolas" font-size="12.00">bool isEnum</text>
<text text-anchor="start" x="22.5" y="-1640.4" font-family="Consolas" font-size="12.00">+</text>
<text text-anchor="start" x="34.5" y="-1640.4" font-family="Consolas" font-size="12.00">bool isES3TypeUnityObject</text>
<text text-anchor="start" x="22.5" y="-1623.4" font-family="Consolas" font-size="12.00">+</text>
<text text-anchor="start" x="34.5" y="-1623.4" font-family="Consolas" font-size="12.00">bool isReflectedType</text>
<text text-anchor="start" x="22.5" y="-1606.4" font-family="Consolas" font-size="12.00">+</text>
<text text-anchor="start" x="34.5" y="-1606.4" font-family="Consolas" font-size="12.00">bool isUnsupported</text>
<text text-anchor="start" x="22.5" y="-1589.4" font-family="Consolas" font-size="12.00">+</text>
<text text-anchor="start" x="34.5" y="-1589.4" font-family="Consolas" font-size="12.00">int priority</text>
<text text-anchor="start" x="22.5" y="-1572.4" font-family="Consolas" font-size="12.00">+</text>
<text text-anchor="start" x="34.5" y="-1572.4" font-family="Consolas" font-size="12.00">const string typeFieldName</text>
<text text-anchor="start" x="22.5" y="-1555.4" font-family="Consolas" font-size="12.00">+</text>
<text text-anchor="start" x="34.5" y="-1555.4" font-family="Consolas" font-size="12.00">void Write(object obj,</text>
<text text-anchor="start" x="34.5" y="-1542.4" font-family="Consolas" font-size="12.00"> ES3Writer writer)</text>
<text text-anchor="start" x="22.5" y="-1525.4" font-family="Consolas" font-size="12.00">+</text>
<text text-anchor="start" x="34.5" y="-1525.4" font-family="Consolas" font-size="12.00">object Read&lt; T &gt;(ES3Reader</text>
<text text-anchor="start" x="34.5" y="-1512.4" font-family="Consolas" font-size="12.00"> reader)</text>
<text text-anchor="start" x="22.5" y="-1495.4" font-family="Consolas" font-size="12.00">+</text>
<text text-anchor="start" x="34.5" y="-1495.4" font-family="Consolas" font-size="12.00">virtual void ReadInto</text>
<text text-anchor="start" x="34.5" y="-1482.4" font-family="Consolas" font-size="12.00">&lt; T &gt;(ES3Reader reader,</text>
<text text-anchor="start" x="34.5" y="-1469.4" font-family="Consolas" font-size="12.00"> object obj)</text>
<text text-anchor="start" x="22.5" y="-1452.4" font-family="Consolas" font-size="12.00">~</text>
<text text-anchor="start" x="34.5" y="-1452.4" font-family="Consolas" font-size="12.00">string ReadPropertyName</text>
<text text-anchor="start" x="34.5" y="-1439.4" font-family="Consolas" font-size="12.00">(ES3Reader reader)</text>
<text text-anchor="start" x="22.5" y="-1422.4" font-family="Consolas" font-size="12.00">#</text>
<text text-anchor="start" x="34.5" y="-1422.4" font-family="Consolas" font-size="12.00">ES3Type(Type type)</text>
<text text-anchor="start" x="22.5" y="-1405.4" font-family="Consolas" font-size="12.00">#</text>
<text text-anchor="start" x="34.5" y="-1405.4" font-family="Consolas" font-size="12.00">bool WriteUsingDerivedType</text>
<text text-anchor="start" x="34.5" y="-1392.4" font-family="Consolas" font-size="12.00">(object obj, ES3Writer writer)</text>
<text text-anchor="start" x="22.5" y="-1375.4" font-family="Consolas" font-size="12.00">#</text>
<text text-anchor="start" x="34.5" y="-1375.4" font-family="Consolas" font-size="12.00">void ReadUsingDerivedType</text>
<text text-anchor="start" x="34.5" y="-1362.4" font-family="Consolas" font-size="12.00">&lt; T &gt;(ES3Reader reader,</text>
<text text-anchor="start" x="34.5" y="-1349.4" font-family="Consolas" font-size="12.00"> object obj)</text>
<text text-anchor="start" x="22.5" y="-1332.4" font-family="Consolas" font-size="12.00">#</text>
<text text-anchor="start" x="34.5" y="-1332.4" font-family="Consolas" font-size="12.00">void WriteProperties</text>
<text text-anchor="start" x="34.5" y="-1319.4" font-family="Consolas" font-size="12.00">(object obj, ES3Writer</text>
<text text-anchor="start" x="34.5" y="-1306.4" font-family="Consolas" font-size="12.00"> writer)</text>
<text text-anchor="start" x="22.5" y="-1289.4" font-family="Consolas" font-size="12.00">#</text>
<text text-anchor="start" x="34.5" y="-1289.4" font-family="Consolas" font-size="12.00">object ReadProperties</text>
<text text-anchor="start" x="34.5" y="-1276.4" font-family="Consolas" font-size="12.00">(ES3Reader reader, object obj)</text>
<text text-anchor="start" x="22.5" y="-1259.4" font-family="Consolas" font-size="12.00">#</text>
<text text-anchor="start" x="34.5" y="-1259.4" font-family="Consolas" font-size="12.00">void GetMembers(bool</text>
<text text-anchor="start" x="34.5" y="-1246.4" font-family="Consolas" font-size="12.00"> safe)</text>
<text text-anchor="start" x="22.5" y="-1229.4" font-family="Consolas" font-size="12.00">#</text>
<text text-anchor="start" x="34.5" y="-1229.4" font-family="Consolas" font-size="12.00">void GetMembers(bool</text>
<text text-anchor="start" x="34.5" y="-1216.4" font-family="Consolas" font-size="12.00"> safe, string[] memberNames)</text>
<polygon fill="#bfbfbf" stroke="#bfbfbf" points="18.5,-1788 18.5,-1788 264.5,-1788 264.5,-1788 18.5,-1788"/>
<polygon fill="#bfbfbf" stroke="#bfbfbf" points="18.5,-1567 18.5,-1567 32.5,-1567 32.5,-1567 18.5,-1567"/>
<polygon fill="#bfbfbf" stroke="#bfbfbf" points="32.5,-1567 32.5,-1567 264.5,-1567 264.5,-1567 32.5,-1567"/>
<polygon fill="none" stroke="#bfbfbf" points="18.5,-1209 18.5,-1807 264.5,-1807 264.5,-1209 18.5,-1209"/>
</a>
</g>
</g>
<!-- Node4&#45;&gt;Node3 -->
<g id="edge3_Node000003_Node000004" class="edge">
<title>Node4&#45;&gt;Node3</title>
<g id="a_edge3_Node000003_Node000004"><a xlink:title=" ">
<path fill="none" stroke="#63b8ff" d="M141.5,-1198.7C141.5,-1190.02 141.5,-1181.48 141.5,-1173.13"/>
<polygon fill="none" stroke="#63b8ff" points="138,-1198.95 141.5,-1208.95 145,-1198.95 138,-1198.95"/>
</a>
</g>
</g>
</g>
</svg>
