<?xml version="1.0" encoding="UTF-8" standalone="no"?>
<!DOCTYPE svg PUBLIC "-//W3C//DTD SVG 1.1//EN"
 "http://www.w3.org/Graphics/SVG/1.1/DTD/svg11.dtd">
<!-- Generated by graphviz version 2.43.0 (0)
 -->
<!-- Title: ES3.CreateBackup Pages: 1 -->
<svg width="318pt" height="68pt"
 viewBox="0.00 0.00 318.00 68.00" xmlns="http://www.w3.org/2000/svg" xmlns:xlink="http://www.w3.org/1999/xlink">
<g id="graph0" class="graph" transform="scale(1 1) rotate(0) translate(4 64)">
<title>ES3.CreateBackup</title>
<!-- Node1 -->
<g id="Node000001" class="node">
<title>Node1</title>
<g id="a_Node000001"><a xlink:title="Creates a backup of the default file .">
<polygon fill="#999999" stroke="#666666" points="310,-40 173,-40 173,-19 310,-19 310,-40"/>
<text text-anchor="middle" x="241.5" y="-26.4" font-family="Consolas" font-size="12.00">ES3.CreateBackup</text>
</a>
</g>
</g>
<!-- Node1&#45;&gt;Node1 -->
<g id="edge1_Node000001_Node000001" class="edge">
<title>Node1&#45;&gt;Node1</title>
<g id="a_edge1_Node000001_Node000001"><a xlink:title=" ">
<path fill="none" stroke="#63b8ff" d="M273.37,-49.21C271.28,-54.23 260.65,-58 241.5,-58 211.6,-58 202.49,-48.81 214.17,-40.02"/>
<polygon fill="#63b8ff" stroke="#63b8ff" points="276.4,-47.44 268.83,-40.02 270.12,-50.54 276.4,-47.44"/>
</a>
</g>
</g>
<!-- Node2 -->
<g id="Node000002" class="node">
<title>Node2</title>
<g id="a_Node000002"><a xlink:href="classES3.html#aa090d582ac0334f900fd6d579eac26fd" target="_top" xlink:title="Creates a backup of a file.">
<polygon fill="white" stroke="#666666" points="137,-60 0,-60 0,-39 137,-39 137,-60"/>
<text text-anchor="middle" x="68.5" y="-46.4" font-family="Consolas" font-size="12.00">ES3.CreateBackup</text>
</a>
</g>
</g>
<!-- Node1&#45;&gt;Node2 -->
<g id="edge2_Node000001_Node000002" class="edge">
<title>Node1&#45;&gt;Node2</title>
<g id="a_edge2_Node000001_Node000002"><a xlink:title=" ">
<path fill="none" stroke="#63b8ff" d="M162.9,-38.58C154.31,-39.58 145.61,-40.6 137.15,-41.59"/>
<polygon fill="#63b8ff" stroke="#63b8ff" points="163.39,-42.04 172.92,-37.4 162.58,-35.09 163.39,-42.04"/>
</a>
</g>
</g>
<!-- Node3 -->
<g id="Node000003" class="node">
<title>Node3</title>
<g id="a_Node000003"><a xlink:href="classES3.html#ac99b6b4a07b03014f089086cc30804ff" target="_top" xlink:title="Creates a backup of a file.">
<polygon fill="white" stroke="#666666" points="137,-21 0,-21 0,0 137,0 137,-21"/>
<text text-anchor="middle" x="68.5" y="-7.4" font-family="Consolas" font-size="12.00">ES3.CreateBackup</text>
</a>
</g>
</g>
<!-- Node1&#45;&gt;Node3 -->
<g id="edge3_Node000001_Node000003" class="edge">
<title>Node1&#45;&gt;Node3</title>
<g id="a_edge3_Node000001_Node000003"><a xlink:title=" ">
<path fill="none" stroke="#63b8ff" d="M162.9,-20.88C154.31,-19.92 145.61,-18.96 137.15,-18.02"/>
<polygon fill="#63b8ff" stroke="#63b8ff" points="162.59,-24.36 172.92,-21.99 163.36,-17.41 162.59,-24.36"/>
</a>
</g>
</g>
</g>
</svg>
