<?xml version="1.0" encoding="UTF-8" standalone="no"?>
<!DOCTYPE svg PUBLIC "-//W3C//DTD SVG 1.1//EN"
 "http://www.w3.org/Graphics/SVG/1.1/DTD/svg11.dtd">
<!-- Generated by graphviz version 2.43.0 (0)
 -->
<!-- Title: DoorData Pages: 1 -->
<svg width="254pt" height="201pt"
 viewBox="0.00 0.00 254.00 201.00" xmlns="http://www.w3.org/2000/svg" xmlns:xlink="http://www.w3.org/1999/xlink">
<g id="graph0" class="graph" transform="scale(1 1) rotate(0) translate(4 197)">
<title>DoorData</title>
<!-- Node1 -->
<g id="Node000001" class="node">
<title>Node1</title>
<g id="a_Node000001"><a xlink:title="문의 기본 데이터를 정의하는 ScriptableObject">
<polygon fill="#999999" stroke="transparent" points="246,-102 0,-102 0,0 246,0 246,-102"/>
<text text-anchor="start" x="92.5" y="-88.4" font-family="Consolas" font-size="12.00">DoorData</text>
<text text-anchor="start" x="4" y="-71.4" font-family="Consolas" font-size="12.00">&#45;</text>
<text text-anchor="start" x="16" y="-71.4" font-family="Consolas" font-size="12.00">List&lt; DoorLevel &gt; doorLevels</text>
<text text-anchor="start" x="4" y="-54.4" font-family="Consolas" font-size="12.00">+</text>
<text text-anchor="start" x="16" y="-54.4" font-family="Consolas" font-size="12.00">DoorLevel GetDoorData</text>
<text text-anchor="start" x="16" y="-41.4" font-family="Consolas" font-size="12.00">(int level)</text>
<text text-anchor="start" x="4" y="-24.4" font-family="Consolas" font-size="12.00">&#45;</text>
<text text-anchor="start" x="16" y="-24.4" font-family="Consolas" font-size="12.00">void OnEnable()</text>
<text text-anchor="start" x="4" y="-7.4" font-family="Consolas" font-size="12.00">&#45;</text>
<text text-anchor="start" x="16" y="-7.4" font-family="Consolas" font-size="12.00">void InitializeDefaultLevels()</text>
<polygon fill="#666666" stroke="#666666" points="0,-83 0,-83 246,-83 246,-83 0,-83"/>
<polygon fill="#666666" stroke="#666666" points="0,-66 0,-66 14,-66 14,-66 0,-66"/>
<polygon fill="#666666" stroke="#666666" points="14,-66 14,-66 246,-66 246,-66 14,-66"/>
<polygon fill="none" stroke="#666666" points="0,0 0,-102 246,-102 246,0 0,0"/>
</a>
</g>
</g>
<!-- Node2 -->
<g id="Node000002" class="node">
<title>Node2</title>
<g id="a_Node000002"><a xlink:title=" ">
<polygon fill="white" stroke="transparent" points="188.5,-193 57.5,-193 57.5,-138 188.5,-138 188.5,-193"/>
<text text-anchor="start" x="63" y="-178.9" font-family="Consolas" font-size="12.00">ScriptableObject</text>
<text text-anchor="start" x="119.5" y="-161.9" font-family="Consolas" font-size="12.00"> </text>
<text text-anchor="start" x="119.5" y="-144.9" font-family="Consolas" font-size="12.00"> </text>
<polygon fill="#bfbfbf" stroke="#bfbfbf" points="58,-173.5 58,-173.5 189,-173.5 189,-173.5 58,-173.5"/>
<polygon fill="#bfbfbf" stroke="#bfbfbf" points="58,-156.5 58,-156.5 189,-156.5 189,-156.5 58,-156.5"/>
<polygon fill="none" stroke="#bfbfbf" points="57.5,-138 57.5,-193 188.5,-193 188.5,-138 57.5,-138"/>
</a>
</g>
</g>
<!-- Node2&#45;&gt;Node1 -->
<g id="edge1_Node000001_Node000002" class="edge">
<title>Node2&#45;&gt;Node1</title>
<g id="a_edge1_Node000001_Node000002"><a xlink:title=" ">
<path fill="none" stroke="#63b8ff" d="M123,-127.61C123,-119.52 123,-110.81 123,-102.29"/>
<polygon fill="none" stroke="#63b8ff" points="119.5,-127.84 123,-137.84 126.5,-127.84 119.5,-127.84"/>
</a>
</g>
</g>
</g>
</svg>
