<?xml version="1.0" encoding="UTF-8" standalone="no"?>
<!DOCTYPE svg PUBLIC "-//W3C//DTD SVG 1.1//EN"
 "http://www.w3.org/Graphics/SVG/1.1/DTD/svg11.dtd">
<!-- Generated by graphviz version 2.43.0 (0)
 -->
<!-- Title: ShipTemplate.CrewTemplate Pages: 1 -->
<svg width="206pt" height="80pt"
 viewBox="0.00 0.00 206.00 80.00" xmlns="http://www.w3.org/2000/svg" xmlns:xlink="http://www.w3.org/1999/xlink">
<g id="graph0" class="graph" transform="scale(1 1) rotate(0) translate(4 76)">
<title>ShipTemplate.CrewTemplate</title>
<!-- Node1 -->
<g id="Node000001" class="node">
<title>Node1</title>
<g id="a_Node000001"><a xlink:title=" ">
<polygon fill="#999999" stroke="transparent" points="198,-72 0,-72 0,0 198,0 198,-72"/>
<text text-anchor="start" x="5" y="-58.4" font-family="Consolas" font-size="12.00">ShipTemplate.CrewTemplate</text>
<text text-anchor="start" x="16.5" y="-41.4" font-family="Consolas" font-size="12.00">+</text>
<text text-anchor="start" x="41" y="-41.4" font-family="Consolas" font-size="12.00">CrewRace crewRace</text>
<text text-anchor="start" x="16.5" y="-24.4" font-family="Consolas" font-size="12.00">+</text>
<text text-anchor="start" x="41" y="-24.4" font-family="Consolas" font-size="12.00">string crewName</text>
<text text-anchor="start" x="95" y="-7.4" font-family="Consolas" font-size="12.00"> </text>
<polygon fill="#666666" stroke="#666666" points="0,-53 0,-53 198,-53 198,-53 0,-53"/>
<polygon fill="#666666" stroke="#666666" points="0,-19 0,-19 39,-19 39,-19 0,-19"/>
<polygon fill="#666666" stroke="#666666" points="39,-19 39,-19 198,-19 198,-19 39,-19"/>
<polygon fill="none" stroke="#666666" points="0,0 0,-72 198,-72 198,0 0,0"/>
</a>
</g>
</g>
</g>
</svg>
