<?xml version="1.0" encoding="UTF-8" standalone="no"?>
<!DOCTYPE svg PUBLIC "-//W3C//DTD SVG 1.1//EN"
 "http://www.w3.org/Graphics/SVG/1.1/DTD/svg11.dtd">
<!-- Generated by graphviz version 2.43.0 (0)
 -->
<!-- Title: TeleportEffectHandler Pages: 1 -->
<svg width="254pt" height="180pt"
 viewBox="0.00 0.00 254.00 180.00" xmlns="http://www.w3.org/2000/svg" xmlns:xlink="http://www.w3.org/1999/xlink">
<g id="graph0" class="graph" transform="scale(1 1) rotate(0) translate(4 176)">
<title>TeleportEffectHandler</title>
<!-- Node1 -->
<g id="Node000001" class="node">
<title>Node1</title>
<g id="a_Node000001"><a xlink:title=" ">
<polygon fill="#999999" stroke="transparent" points="246,-68 0,-68 0,0 246,0 246,-68"/>
<text text-anchor="start" x="44" y="-54.4" font-family="Consolas" font-size="12.00">TeleportEffectHandler</text>
<text text-anchor="start" x="119" y="-37.4" font-family="Consolas" font-size="12.00"> </text>
<text text-anchor="start" x="4" y="-20.4" font-family="Consolas" font-size="12.00">+</text>
<text text-anchor="start" x="16" y="-20.4" font-family="Consolas" font-size="12.00">void HandleEffect(EventOutcome</text>
<text text-anchor="start" x="16" y="-7.4" font-family="Consolas" font-size="12.00"> outcome)</text>
<polygon fill="#666666" stroke="#666666" points="0,-49 0,-49 246,-49 246,-49 0,-49"/>
<polygon fill="#666666" stroke="#666666" points="0,-32 0,-32 246,-32 246,-32 0,-32"/>
<polygon fill="none" stroke="#666666" points="0,0 0,-68 246,-68 246,0 0,0"/>
</a>
</g>
</g>
<!-- Node2 -->
<g id="Node000002" class="node">
<title>Node2</title>
<g id="a_Node000002"><a xlink:href="interfaceISpecialEffectHandler.html" target="_top" xlink:title=" ">
<polygon fill="white" stroke="transparent" points="246,-172 0,-172 0,-104 246,-104 246,-172"/>
<text text-anchor="start" x="44" y="-158.4" font-family="Consolas" font-size="12.00">ISpecialEffectHandler</text>
<text text-anchor="start" x="119" y="-141.4" font-family="Consolas" font-size="12.00"> </text>
<text text-anchor="start" x="4" y="-124.4" font-family="Consolas" font-size="12.00">+</text>
<text text-anchor="start" x="16" y="-124.4" font-family="Consolas" font-size="12.00">void HandleEffect(EventOutcome</text>
<text text-anchor="start" x="16" y="-111.4" font-family="Consolas" font-size="12.00"> outcome)</text>
<polygon fill="#bfbfbf" stroke="#bfbfbf" points="0,-153 0,-153 246,-153 246,-153 0,-153"/>
<polygon fill="#bfbfbf" stroke="#bfbfbf" points="0,-136 0,-136 246,-136 246,-136 0,-136"/>
<polygon fill="none" stroke="#bfbfbf" points="0,-104 0,-172 246,-172 246,-104 0,-104"/>
</a>
</g>
</g>
<!-- Node2&#45;&gt;Node1 -->
<g id="edge1_Node000001_Node000002" class="edge">
<title>Node2&#45;&gt;Node1</title>
<g id="a_edge1_Node000001_Node000002"><a xlink:title=" ">
<path fill="none" stroke="#63b8ff" d="M123,-93.72C123,-85.21 123,-76.42 123,-68.3"/>
<polygon fill="none" stroke="#63b8ff" points="119.5,-93.88 123,-103.88 126.5,-93.88 119.5,-93.88"/>
</a>
</g>
</g>
</g>
</svg>
