<?xml version="1.0" encoding="UTF-8" standalone="no"?>
<!DOCTYPE svg PUBLIC "-//W3C//DTD SVG 1.1//EN"
 "http://www.w3.org/Graphics/SVG/1.1/DTD/svg11.dtd">
<!-- Generated by graphviz version 2.43.0 (0)
 -->
<!-- Title: ES3Types.ES3Type_uint Pages: 1 -->
<svg width="254pt" height="770pt"
 viewBox="0.00 0.00 254.00 770.00" xmlns="http://www.w3.org/2000/svg" xmlns:xlink="http://www.w3.org/1999/xlink">
<g id="graph0" class="graph" transform="scale(1 1) rotate(0) translate(4 766)">
<title>ES3Types.ES3Type_uint</title>
<!-- Node1 -->
<g id="Node000001" class="node">
<title>Node1</title>
<g id="a_Node000001"><a xlink:title=" ">
<polygon fill="#999999" stroke="transparent" points="219.5,-128 26.5,-128 26.5,0 219.5,0 219.5,-128"/>
<text text-anchor="start" x="44.5" y="-114.4" font-family="Consolas" font-size="12.00">ES3Types.ES3Type_uint</text>
<text text-anchor="start" x="31" y="-97.4" font-family="Consolas" font-size="12.00">+</text>
<text text-anchor="start" x="43" y="-97.4" font-family="Consolas" font-size="12.00">static ES3Type Instance</text>
<text text-anchor="start" x="31" y="-80.4" font-family="Consolas" font-size="12.00">+</text>
<text text-anchor="start" x="43" y="-80.4" font-family="Consolas" font-size="12.00">ES3Type_uint()</text>
<text text-anchor="start" x="31" y="-63.4" font-family="Consolas" font-size="12.00">+</text>
<text text-anchor="start" x="43" y="-63.4" font-family="Consolas" font-size="12.00">override void Write</text>
<text text-anchor="start" x="43" y="-50.4" font-family="Consolas" font-size="12.00">(object obj, ES3Writer</text>
<text text-anchor="start" x="43" y="-37.4" font-family="Consolas" font-size="12.00"> writer)</text>
<text text-anchor="start" x="31" y="-20.4" font-family="Consolas" font-size="12.00">+</text>
<text text-anchor="start" x="43" y="-20.4" font-family="Consolas" font-size="12.00">override object Read</text>
<text text-anchor="start" x="43" y="-7.4" font-family="Consolas" font-size="12.00">&lt; T &gt;(ES3Reader reader)</text>
<polygon fill="#666666" stroke="#666666" points="27,-109 27,-109 220,-109 220,-109 27,-109"/>
<polygon fill="#666666" stroke="#666666" points="27,-92 27,-92 41,-92 41,-92 27,-92"/>
<polygon fill="#666666" stroke="#666666" points="41,-92 41,-92 220,-92 220,-92 41,-92"/>
<polygon fill="none" stroke="#666666" points="26.5,0 26.5,-128 219.5,-128 219.5,0 26.5,0"/>
</a>
</g>
</g>
<!-- Node2 -->
<g id="Node000002" class="node">
<title>Node2</title>
<g id="a_Node000002"><a xlink:href="classES3Types_1_1ES3Type.html" target="_top" xlink:title=" ">
<polygon fill="white" stroke="transparent" points="246,-762 0,-762 0,-164 246,-164 246,-762"/>
<text text-anchor="start" x="96.5" y="-748.4" font-family="Consolas" font-size="12.00">ES3Type</text>
<text text-anchor="start" x="4" y="-731.4" font-family="Consolas" font-size="12.00">+</text>
<text text-anchor="start" x="16" y="-731.4" font-family="Consolas" font-size="12.00">ES3Member[] members</text>
<text text-anchor="start" x="4" y="-714.4" font-family="Consolas" font-size="12.00">+</text>
<text text-anchor="start" x="16" y="-714.4" font-family="Consolas" font-size="12.00">Type type</text>
<text text-anchor="start" x="4" y="-697.4" font-family="Consolas" font-size="12.00">+</text>
<text text-anchor="start" x="16" y="-697.4" font-family="Consolas" font-size="12.00">bool isPrimitive</text>
<text text-anchor="start" x="4" y="-680.4" font-family="Consolas" font-size="12.00">+</text>
<text text-anchor="start" x="16" y="-680.4" font-family="Consolas" font-size="12.00">bool isValueType</text>
<text text-anchor="start" x="4" y="-663.4" font-family="Consolas" font-size="12.00">+</text>
<text text-anchor="start" x="16" y="-663.4" font-family="Consolas" font-size="12.00">bool isCollection</text>
<text text-anchor="start" x="4" y="-646.4" font-family="Consolas" font-size="12.00">+</text>
<text text-anchor="start" x="16" y="-646.4" font-family="Consolas" font-size="12.00">bool isDictionary</text>
<text text-anchor="start" x="4" y="-629.4" font-family="Consolas" font-size="12.00">+</text>
<text text-anchor="start" x="16" y="-629.4" font-family="Consolas" font-size="12.00">bool isTuple</text>
<text text-anchor="start" x="4" y="-612.4" font-family="Consolas" font-size="12.00">+</text>
<text text-anchor="start" x="16" y="-612.4" font-family="Consolas" font-size="12.00">bool isEnum</text>
<text text-anchor="start" x="4" y="-595.4" font-family="Consolas" font-size="12.00">+</text>
<text text-anchor="start" x="16" y="-595.4" font-family="Consolas" font-size="12.00">bool isES3TypeUnityObject</text>
<text text-anchor="start" x="4" y="-578.4" font-family="Consolas" font-size="12.00">+</text>
<text text-anchor="start" x="16" y="-578.4" font-family="Consolas" font-size="12.00">bool isReflectedType</text>
<text text-anchor="start" x="4" y="-561.4" font-family="Consolas" font-size="12.00">+</text>
<text text-anchor="start" x="16" y="-561.4" font-family="Consolas" font-size="12.00">bool isUnsupported</text>
<text text-anchor="start" x="4" y="-544.4" font-family="Consolas" font-size="12.00">+</text>
<text text-anchor="start" x="16" y="-544.4" font-family="Consolas" font-size="12.00">int priority</text>
<text text-anchor="start" x="4" y="-527.4" font-family="Consolas" font-size="12.00">+</text>
<text text-anchor="start" x="16" y="-527.4" font-family="Consolas" font-size="12.00">const string typeFieldName</text>
<text text-anchor="start" x="4" y="-510.4" font-family="Consolas" font-size="12.00">+</text>
<text text-anchor="start" x="16" y="-510.4" font-family="Consolas" font-size="12.00">void Write(object obj,</text>
<text text-anchor="start" x="16" y="-497.4" font-family="Consolas" font-size="12.00"> ES3Writer writer)</text>
<text text-anchor="start" x="4" y="-480.4" font-family="Consolas" font-size="12.00">+</text>
<text text-anchor="start" x="16" y="-480.4" font-family="Consolas" font-size="12.00">object Read&lt; T &gt;(ES3Reader</text>
<text text-anchor="start" x="16" y="-467.4" font-family="Consolas" font-size="12.00"> reader)</text>
<text text-anchor="start" x="4" y="-450.4" font-family="Consolas" font-size="12.00">+</text>
<text text-anchor="start" x="16" y="-450.4" font-family="Consolas" font-size="12.00">virtual void ReadInto</text>
<text text-anchor="start" x="16" y="-437.4" font-family="Consolas" font-size="12.00">&lt; T &gt;(ES3Reader reader,</text>
<text text-anchor="start" x="16" y="-424.4" font-family="Consolas" font-size="12.00"> object obj)</text>
<text text-anchor="start" x="4" y="-407.4" font-family="Consolas" font-size="12.00">~</text>
<text text-anchor="start" x="16" y="-407.4" font-family="Consolas" font-size="12.00">string ReadPropertyName</text>
<text text-anchor="start" x="16" y="-394.4" font-family="Consolas" font-size="12.00">(ES3Reader reader)</text>
<text text-anchor="start" x="4" y="-377.4" font-family="Consolas" font-size="12.00">#</text>
<text text-anchor="start" x="16" y="-377.4" font-family="Consolas" font-size="12.00">ES3Type(Type type)</text>
<text text-anchor="start" x="4" y="-360.4" font-family="Consolas" font-size="12.00">#</text>
<text text-anchor="start" x="16" y="-360.4" font-family="Consolas" font-size="12.00">bool WriteUsingDerivedType</text>
<text text-anchor="start" x="16" y="-347.4" font-family="Consolas" font-size="12.00">(object obj, ES3Writer writer)</text>
<text text-anchor="start" x="4" y="-330.4" font-family="Consolas" font-size="12.00">#</text>
<text text-anchor="start" x="16" y="-330.4" font-family="Consolas" font-size="12.00">void ReadUsingDerivedType</text>
<text text-anchor="start" x="16" y="-317.4" font-family="Consolas" font-size="12.00">&lt; T &gt;(ES3Reader reader,</text>
<text text-anchor="start" x="16" y="-304.4" font-family="Consolas" font-size="12.00"> object obj)</text>
<text text-anchor="start" x="4" y="-287.4" font-family="Consolas" font-size="12.00">#</text>
<text text-anchor="start" x="16" y="-287.4" font-family="Consolas" font-size="12.00">void WriteProperties</text>
<text text-anchor="start" x="16" y="-274.4" font-family="Consolas" font-size="12.00">(object obj, ES3Writer</text>
<text text-anchor="start" x="16" y="-261.4" font-family="Consolas" font-size="12.00"> writer)</text>
<text text-anchor="start" x="4" y="-244.4" font-family="Consolas" font-size="12.00">#</text>
<text text-anchor="start" x="16" y="-244.4" font-family="Consolas" font-size="12.00">object ReadProperties</text>
<text text-anchor="start" x="16" y="-231.4" font-family="Consolas" font-size="12.00">(ES3Reader reader, object obj)</text>
<text text-anchor="start" x="4" y="-214.4" font-family="Consolas" font-size="12.00">#</text>
<text text-anchor="start" x="16" y="-214.4" font-family="Consolas" font-size="12.00">void GetMembers(bool</text>
<text text-anchor="start" x="16" y="-201.4" font-family="Consolas" font-size="12.00"> safe)</text>
<text text-anchor="start" x="4" y="-184.4" font-family="Consolas" font-size="12.00">#</text>
<text text-anchor="start" x="16" y="-184.4" font-family="Consolas" font-size="12.00">void GetMembers(bool</text>
<text text-anchor="start" x="16" y="-171.4" font-family="Consolas" font-size="12.00"> safe, string[] memberNames)</text>
<polygon fill="#bfbfbf" stroke="#bfbfbf" points="0,-743 0,-743 246,-743 246,-743 0,-743"/>
<polygon fill="#bfbfbf" stroke="#bfbfbf" points="0,-522 0,-522 14,-522 14,-522 0,-522"/>
<polygon fill="#bfbfbf" stroke="#bfbfbf" points="14,-522 14,-522 246,-522 246,-522 14,-522"/>
<polygon fill="none" stroke="#bfbfbf" points="0,-164 0,-762 246,-762 246,-164 0,-164"/>
</a>
</g>
</g>
<!-- Node2&#45;&gt;Node1 -->
<g id="edge1_Node000001_Node000002" class="edge">
<title>Node2&#45;&gt;Node1</title>
<g id="a_edge1_Node000001_Node000002"><a xlink:title=" ">
<path fill="none" stroke="#63b8ff" d="M123,-153.9C123,-144.84 123,-136.22 123,-128.17"/>
<polygon fill="none" stroke="#63b8ff" points="119.5,-153.9 123,-163.9 126.5,-153.9 119.5,-153.9"/>
</a>
</g>
</g>
</g>
</svg>
