<?xml version="1.0" encoding="UTF-8" standalone="no"?>
<!DOCTYPE svg PUBLIC "-//W3C//DTD SVG 1.1//EN"
 "http://www.w3.org/Graphics/SVG/1.1/DTD/svg11.dtd">
<!-- Generated by graphviz version 2.43.0 (0)
 -->
<!-- Title: Room.Initialize Pages: 1 -->
<svg width="647pt" height="107pt"
 viewBox="0.00 0.00 647.00 107.00" xmlns="http://www.w3.org/2000/svg" xmlns:xlink="http://www.w3.org/1999/xlink">
<g id="graph0" class="graph" transform="scale(1 1) rotate(0) translate(4 103)">
<title>Room.Initialize</title>
<!-- Node1 -->
<g id="Node000001" class="node">
<title>Node1</title>
<g id="a_Node000001"><a xlink:title="방을 초기화합니다.">
<polygon fill="#999999" stroke="#666666" points="129,-60 0,-60 0,-39 129,-39 129,-60"/>
<text text-anchor="middle" x="64.5" y="-46.4" font-family="Consolas" font-size="12.00">Room.Initialize</text>
</a>
</g>
</g>
<!-- Node2 -->
<g id="Node000002" class="node">
<title>Node2</title>
<g id="a_Node000002"><a xlink:href="classRoom.html#abe64553abf13aa2fe9d0d9c902c64383" target="_top" xlink:title="최대 업그레이드 레벨을 반환합니다.">
<polygon fill="white" stroke="#666666" points="373,-99 176,-99 176,-78 373,-78 373,-99"/>
<text text-anchor="middle" x="274.5" y="-85.4" font-family="Consolas" font-size="12.00">Room.GetPowerConsumption</text>
</a>
</g>
</g>
<!-- Node1&#45;&gt;Node2 -->
<g id="edge1_Node000001_Node000002" class="edge">
<title>Node1&#45;&gt;Node2</title>
<g id="a_edge1_Node000001_Node000002"><a xlink:title=" ">
<path fill="none" stroke="#63b8ff" d="M121.51,-60C147.98,-64.97 179.76,-70.92 207.41,-76.11"/>
<polygon fill="#63b8ff" stroke="#63b8ff" points="206.91,-79.58 217.39,-77.98 208.2,-72.7 206.91,-79.58"/>
</a>
</g>
</g>
<!-- Node3 -->
<g id="Node000003" class="node">
<title>Node3</title>
<g id="a_Node000003"><a xlink:href="classRoomData.html#a93ada549c4d197d14917913e944f46c2" target="_top" xlink:title="주어진 레벨에 해당하는 RoomLevel 데이터를 반환합니다. 각 파생 클래스에서 구현해야 합니다.">
<polygon fill="white" stroke="#666666" points="639,-79 420,-79 420,-58 639,-58 639,-79"/>
<text text-anchor="middle" x="529.5" y="-65.4" font-family="Consolas" font-size="12.00">RoomData.GetRoomDataByLevel</text>
</a>
</g>
</g>
<!-- Node1&#45;&gt;Node3 -->
<g id="edge3_Node000001_Node000003" class="edge">
<title>Node1&#45;&gt;Node3</title>
<g id="a_edge3_Node000001_Node000003"><a xlink:title=" ">
<path fill="none" stroke="#63b8ff" d="M129.39,-52.12C201.53,-55.08 320.47,-59.96 409.77,-63.63"/>
<polygon fill="#63b8ff" stroke="#63b8ff" points="409.83,-67.13 419.96,-64.05 410.12,-60.14 409.83,-67.13"/>
</a>
</g>
</g>
<!-- Node4 -->
<g id="Node000004" class="node">
<title>Node4</title>
<g id="a_Node000004"><a xlink:href="classRoom.html#a33bb9ff12585bbc75833a118ffab2eb0" target="_top" xlink:title="이 방이 데미지를 받을 수 있는지 여부를 초기화합니다.">
<polygon fill="white" stroke="#666666" points="384,-21 165,-21 165,0 384,0 384,-21"/>
<text text-anchor="middle" x="274.5" y="-7.4" font-family="Consolas" font-size="12.00">Room.InitializeIsDamageable</text>
</a>
</g>
</g>
<!-- Node1&#45;&gt;Node4 -->
<g id="edge4_Node000001_Node000004" class="edge">
<title>Node1&#45;&gt;Node4</title>
<g id="a_edge4_Node000001_Node000004"><a xlink:title=" ">
<path fill="none" stroke="#63b8ff" d="M121.51,-39C147.98,-34.03 179.76,-28.08 207.41,-22.89"/>
<polygon fill="#63b8ff" stroke="#63b8ff" points="208.2,-26.3 217.39,-21.02 206.91,-19.42 208.2,-26.3"/>
</a>
</g>
</g>
<!-- Node2&#45;&gt;Node3 -->
<g id="edge2_Node000002_Node000003" class="edge">
<title>Node2&#45;&gt;Node3</title>
<g id="a_edge2_Node000002_Node000003"><a xlink:title=" ">
<path fill="none" stroke="#63b8ff" d="M373.32,-80.77C385.16,-79.83 397.35,-78.87 409.46,-77.91"/>
<polygon fill="#63b8ff" stroke="#63b8ff" points="409.9,-81.39 419.59,-77.11 409.35,-74.41 409.9,-81.39"/>
</a>
</g>
</g>
</g>
</svg>
