<?xml version="1.0" encoding="UTF-8" standalone="no"?>
<!DOCTYPE svg PUBLIC "-//W3C//DTD SVG 1.1//EN"
 "http://www.w3.org/Graphics/SVG/1.1/DTD/svg11.dtd">
<!-- Generated by graphviz version 2.43.0 (0)
 -->
<!-- Title: CrewFactory.InitializeCrewStats Pages: 1 -->
<svg width="1294pt" height="278pt"
 viewBox="0.00 0.00 1294.00 277.50" xmlns="http://www.w3.org/2000/svg" xmlns:xlink="http://www.w3.org/1999/xlink">
<g id="graph0" class="graph" transform="scale(1 1) rotate(0) translate(4 273.5)">
<title>CrewFactory.InitializeCrewStats</title>
<!-- Node1 -->
<g id="Node000001" class="node">
<title>Node1</title>
<g id="a_Node000001"><a xlink:title="선원의 스탯과 스킬을 종족 정보에 따라 초기화합니다.">
<polygon fill="#999999" stroke="#666666" points="1286,-161 1074,-161 1074,-127 1286,-127 1286,-161"/>
<text text-anchor="start" x="1082" y="-147.4" font-family="Consolas" font-size="12.00">CrewFactory.InitializeCrew</text>
<text text-anchor="middle" x="1180" y="-134.4" font-family="Consolas" font-size="12.00">Stats</text>
</a>
</g>
</g>
<!-- Node2 -->
<g id="Node000002" class="node">
<title>Node2</title>
<g id="a_Node000002"><a xlink:href="classCrewFactory.html#aec5572d50c5f18479de10fc97839e5d5" target="_top" xlink:title="새로운 선원 객체 생성">
<polygon fill="white" stroke="#666666" points="1038,-154.5 796,-154.5 796,-133.5 1038,-133.5 1038,-154.5"/>
<text text-anchor="middle" x="917" y="-140.9" font-family="Consolas" font-size="12.00">CrewFactory.CreateCrewInstance</text>
</a>
</g>
</g>
<!-- Node1&#45;&gt;Node2 -->
<g id="edge1_Node000001_Node000002" class="edge">
<title>Node1&#45;&gt;Node2</title>
<g id="a_edge1_Node000001_Node000002"><a xlink:title=" ">
<path fill="none" stroke="#63b8ff" d="M1063.71,-144C1055.26,-144 1046.72,-144 1038.24,-144"/>
<polygon fill="#63b8ff" stroke="#63b8ff" points="1063.97,-147.5 1073.97,-144 1063.97,-140.5 1063.97,-147.5"/>
</a>
</g>
</g>
<!-- Node3 -->
<g id="Node000003" class="node">
<title>Node3</title>
<g id="a_Node000003"><a xlink:href="classShipFactory.html#a4d0d4bf2882b83a2ab97df63c38695e5" target="_top" xlink:title="기존 함선을 복제하여 새 인스턴스 생성">
<polygon fill="white" stroke="#666666" points="726,-269.5 552,-269.5 552,-248.5 726,-248.5 726,-269.5"/>
<text text-anchor="middle" x="639" y="-255.9" font-family="Consolas" font-size="12.00">ShipFactory.CloneShip</text>
</a>
</g>
</g>
<!-- Node2&#45;&gt;Node3 -->
<g id="edge2_Node000002_Node000003" class="edge">
<title>Node2&#45;&gt;Node3</title>
<g id="a_edge2_Node000002_Node000003"><a xlink:title=" ">
<path fill="none" stroke="#63b8ff" d="M894.6,-160.74C865.75,-182.41 811.98,-219.67 760,-239 749.31,-242.98 737.79,-246.16 726.27,-248.72"/>
<polygon fill="#63b8ff" stroke="#63b8ff" points="896.89,-163.4 902.73,-154.55 892.65,-157.83 896.89,-163.4"/>
</a>
</g>
</g>
<!-- Node4 -->
<g id="Node000004" class="node">
<title>Node4</title>
<g id="a_Node000004"><a xlink:href="classShipFactory.html#a3c26f8bde8633e87fe1d7eaf140bc253" target="_top" xlink:title="템플릿을 기반으로 함선 생성">
<polygon fill="white" stroke="#666666" points="745,-230 533,-230 533,-196 745,-196 745,-230"/>
<text text-anchor="start" x="541" y="-216.4" font-family="Consolas" font-size="12.00">ShipFactory.CreateShipFrom</text>
<text text-anchor="middle" x="639" y="-203.4" font-family="Consolas" font-size="12.00">Template</text>
</a>
</g>
</g>
<!-- Node2&#45;&gt;Node4 -->
<g id="edge3_Node000002_Node000004" class="edge">
<title>Node2&#45;&gt;Node4</title>
<g id="a_edge3_Node000002_Node000004"><a xlink:title=" ">
<path fill="none" stroke="#63b8ff" d="M870.24,-157.33C839.24,-166.19 797.29,-177.83 760,-187 747.58,-190.05 734.39,-193.11 721.47,-195.99"/>
<polygon fill="#63b8ff" stroke="#63b8ff" points="871.25,-160.69 879.9,-154.56 869.32,-153.96 871.25,-160.69"/>
</a>
</g>
</g>
<!-- Node5 -->
<g id="Node000005" class="node">
<title>Node5</title>
<g id="a_Node000005"><a xlink:href="classEmployController.html#aae8334ca67a3e43c06aaadef71c74313" target="_top" xlink:title="선원 고용 확정">
<polygon fill="white" stroke="#666666" points="748.5,-177.5 529.5,-177.5 529.5,-156.5 748.5,-156.5 748.5,-177.5"/>
<text text-anchor="middle" x="639" y="-163.9" font-family="Consolas" font-size="12.00">EmployController.OnClickBuy</text>
</a>
</g>
</g>
<!-- Node2&#45;&gt;Node5 -->
<g id="edge4_Node000002_Node000005" class="edge">
<title>Node2&#45;&gt;Node5</title>
<g id="a_edge4_Node000002_Node000005"><a xlink:title=" ">
<path fill="none" stroke="#63b8ff" d="M785.41,-154.88C773.08,-155.91 760.67,-156.94 748.57,-157.95"/>
<polygon fill="#63b8ff" stroke="#63b8ff" points="786.07,-158.34 795.75,-154.02 785.49,-151.36 786.07,-158.34"/>
</a>
</g>
</g>
<!-- Node6 -->
<g id="Node000006" class="node">
<title>Node6</title>
<g id="a_Node000006"><a xlink:href="classCrewSystem.html#ad3044664f70376b994206ccfed121df3" target="_top" xlink:title="새로운 함선의 랜덤한 방의 랜덤 타일에 선원 배치 (겹치지 않게 타일 점유 등록)">
<polygon fill="white" stroke="#666666" points="748.5,-138 529.5,-138 529.5,-104 748.5,-104 748.5,-138"/>
<text text-anchor="start" x="537.5" y="-124.4" font-family="Consolas" font-size="12.00">CrewSystem.RestoreCrewAfter</text>
<text text-anchor="middle" x="639" y="-111.4" font-family="Consolas" font-size="12.00">Build</text>
</a>
</g>
</g>
<!-- Node2&#45;&gt;Node6 -->
<g id="edge5_Node000002_Node000006" class="edge">
<title>Node2&#45;&gt;Node6</title>
<g id="a_edge5_Node000002_Node000006"><a xlink:title=" ">
<path fill="none" stroke="#63b8ff" d="M785.41,-133.12C773.08,-132.09 760.67,-131.06 748.57,-130.05"/>
<polygon fill="#63b8ff" stroke="#63b8ff" points="785.49,-136.64 795.75,-133.98 786.07,-129.66 785.49,-136.64"/>
</a>
</g>
</g>
<!-- Node10 -->
<g id="Node000010" class="node">
<title>Node10</title>
<g id="a_Node000010"><a xlink:href="classCrewFactory.html#ac8ca1d814fa505854ab2871e0c2135fb" target="_top" xlink:title="저장 데이터에서 선원 복원">
<polygon fill="white" stroke="#666666" points="760,-85.5 518,-85.5 518,-64.5 760,-64.5 760,-85.5"/>
<text text-anchor="middle" x="639" y="-71.9" font-family="Consolas" font-size="12.00">CrewFactory.RestoreCrewFromES3</text>
</a>
</g>
</g>
<!-- Node2&#45;&gt;Node10 -->
<g id="edge9_Node000002_Node000010" class="edge">
<title>Node2&#45;&gt;Node10</title>
<g id="a_edge9_Node000002_Node000010"><a xlink:title=" ">
<path fill="none" stroke="#63b8ff" d="M877.08,-130.11C845.77,-119.35 800.48,-104.68 760,-95 745,-91.41 728.8,-88.25 713.3,-85.55"/>
<polygon fill="#63b8ff" stroke="#63b8ff" points="876.13,-133.49 886.73,-133.46 878.43,-126.88 876.13,-133.49"/>
</a>
</g>
</g>
<!-- Node11 -->
<g id="Node000011" class="node">
<title>Node11</title>
<g id="a_Node000011"><a xlink:href="classCrewSystem.html#a8fa6c2c5bfdf4e92705a212bb4e2fe3c" target="_top" xlink:title="유효성 검사 실패 시, 기존 선원들을 백업된 위치 및 방으로 복구">
<polygon fill="white" stroke="#666666" points="741,-46 537,-46 537,-12 741,-12 741,-46"/>
<text text-anchor="start" x="545" y="-32.4" font-family="Consolas" font-size="12.00">CrewSystem.RevertOriginal</text>
<text text-anchor="middle" x="639" y="-19.4" font-family="Consolas" font-size="12.00">Crews</text>
</a>
</g>
</g>
<!-- Node2&#45;&gt;Node11 -->
<g id="edge10_Node000002_Node000011" class="edge">
<title>Node2&#45;&gt;Node11</title>
<g id="a_edge10_Node000002_Node000011"><a xlink:title=" ">
<path fill="none" stroke="#63b8ff" d="M892.44,-127.49C862.84,-107.49 809.87,-74.11 760,-55 751.24,-51.64 741.95,-48.67 732.56,-46.06"/>
<polygon fill="#63b8ff" stroke="#63b8ff" points="890.61,-130.48 900.84,-133.24 894.57,-124.7 890.61,-130.48"/>
</a>
</g>
</g>
<!-- Node7 -->
<g id="Node000007" class="node">
<title>Node7</title>
<g id="a_Node000007"><a xlink:href="classCombatManager.html#aee060c280528f8f8ffcbd2b5e94dc91e" target="_top" xlink:title="모선으로 복귀하라 (승리 : isDefeated = false, 패배 : isDefeated = true)">
<polygon fill="white" stroke="#666666" points="482,-177.5 263,-177.5 263,-156.5 482,-156.5 482,-177.5"/>
<text text-anchor="middle" x="372.5" y="-163.9" font-family="Consolas" font-size="12.00">CombatManager.BackToTheHome</text>
</a>
</g>
</g>
<!-- Node6&#45;&gt;Node7 -->
<g id="edge6_Node000006_Node000007" class="edge">
<title>Node6&#45;&gt;Node7</title>
<g id="a_edge6_Node000006_Node000007"><a xlink:title=" ">
<path fill="none" stroke="#63b8ff" d="M529.84,-139.81C497.22,-145.48 462.58,-151.51 434.22,-156.44"/>
<polygon fill="#63b8ff" stroke="#63b8ff" points="530.63,-143.23 539.89,-138.06 529.43,-136.33 530.63,-143.23"/>
</a>
</g>
</g>
<!-- Node8 -->
<g id="Node000008" class="node">
<title>Node8</title>
<g id="a_Node000008"><a xlink:href="classCustomizeShipUIHandler.html#a0a87df1bbf10a142bcfb73c4634a7bd4" target="_top" xlink:title="&#39;함선 제작&#39; 버튼 클릭 시 호출. 조건 만족 시 기존 함선을 설계도의 함선으로 교체합니다. 이후 방, 문의 연결 유효성 검사 수행 후 만족 여부에 따라 실제 함선으로 교체,...">
<polygon fill="white" stroke="#666666" points="474.5,-86 270.5,-86 270.5,-52 474.5,-52 474.5,-86"/>
<text text-anchor="start" x="278.5" y="-72.4" font-family="Consolas" font-size="12.00">CustomizeShipUIHandler.On</text>
<text text-anchor="middle" x="372.5" y="-59.4" font-family="Consolas" font-size="12.00">ClickBuild</text>
</a>
</g>
</g>
<!-- Node6&#45;&gt;Node8 -->
<g id="edge7_Node000006_Node000008" class="edge">
<title>Node6&#45;&gt;Node8</title>
<g id="a_edge7_Node000006_Node000008"><a xlink:title=" ">
<path fill="none" stroke="#63b8ff" d="M541.34,-102C514.82,-96.78 486.23,-91.16 460.3,-86.06"/>
<polygon fill="#63b8ff" stroke="#63b8ff" points="540.91,-105.48 551.39,-103.97 542.26,-98.61 540.91,-105.48"/>
</a>
</g>
</g>
<!-- Node9 -->
<g id="Node000009" class="node">
<title>Node9</title>
<g id="a_Node000009"><a xlink:href="classCustomize__2__Controller.html#a4f017401dbc31501a4109324ccec2bd7" target="_top" xlink:title="&#39;함선 제작&#39; 버튼 클릭 시 호출. 조건 만족 시 기존 함선을 설계도의 함선으로 교체합니다. 이후 방, 문의 연결 유효성 검사 수행 후 만족 여부에 따라 실제 함선으로 교체,...">
<polygon fill="white" stroke="#666666" points="474.5,-138 270.5,-138 270.5,-104 474.5,-104 474.5,-138"/>
<text text-anchor="start" x="278.5" y="-124.4" font-family="Consolas" font-size="12.00">Customize_2_Controller.On</text>
<text text-anchor="middle" x="372.5" y="-111.4" font-family="Consolas" font-size="12.00">ClickBuy</text>
</a>
</g>
</g>
<!-- Node6&#45;&gt;Node9 -->
<g id="edge8_Node000006_Node000009" class="edge">
<title>Node6&#45;&gt;Node9</title>
<g id="a_edge8_Node000006_Node000009"><a xlink:title=" ">
<path fill="none" stroke="#63b8ff" d="M519.04,-121C504.19,-121 489.12,-121 474.58,-121"/>
<polygon fill="#63b8ff" stroke="#63b8ff" points="519.27,-124.5 529.27,-121 519.27,-117.5 519.27,-124.5"/>
</a>
</g>
</g>
<!-- Node11&#45;&gt;Node8 -->
<g id="edge11_Node000011_Node000008" class="edge">
<title>Node11&#45;&gt;Node8</title>
<g id="a_edge11_Node000011_Node000008"><a xlink:title=" ">
<path fill="none" stroke="#63b8ff" d="M526.75,-45.82C509.44,-48.44 491.64,-51.13 474.57,-53.71"/>
<polygon fill="#63b8ff" stroke="#63b8ff" points="527.51,-49.25 536.87,-44.29 526.46,-42.33 527.51,-49.25"/>
</a>
</g>
</g>
<!-- Node12 -->
<g id="Node000012" class="node">
<title>Node12</title>
<g id="a_Node000012"><a xlink:href="classCustomize__1__Controller.html#ac71022868de14f02fffd845270ffb42b" target="_top" xlink:title="도안 저장 버튼 클릭 &#45; 유효성 검사">
<polygon fill="white" stroke="#666666" points="474.5,-34 270.5,-34 270.5,0 474.5,0 474.5,-34"/>
<text text-anchor="start" x="278.5" y="-20.4" font-family="Consolas" font-size="12.00">Customize_1_Controller.On</text>
<text text-anchor="middle" x="372.5" y="-7.4" font-family="Consolas" font-size="12.00">ClickSave</text>
</a>
</g>
</g>
<!-- Node11&#45;&gt;Node12 -->
<g id="edge12_Node000011_Node000012" class="edge">
<title>Node11&#45;&gt;Node12</title>
<g id="a_edge12_Node000011_Node000012"><a xlink:title=" ">
<path fill="none" stroke="#63b8ff" d="M526.75,-23.95C509.44,-23.17 491.64,-22.36 474.57,-21.59"/>
<polygon fill="#63b8ff" stroke="#63b8ff" points="526.72,-27.46 536.87,-24.41 527.04,-20.46 526.72,-27.46"/>
</a>
</g>
</g>
<!-- Node13 -->
<g id="Node000013" class="node">
<title>Node13</title>
<g id="a_Node000013"><a xlink:href="classCustomize__1__Controller.html#aec55e07635dd1dfd43176946b3dd6f2b" target="_top" xlink:title="button 클릭 함수 연결">
<polygon fill="white" stroke="#666666" points="227,-27.5 0,-27.5 0,-6.5 227,-6.5 227,-27.5"/>
<text text-anchor="middle" x="113.5" y="-13.9" font-family="Consolas" font-size="12.00">Customize_1_Controller.Start</text>
</a>
</g>
</g>
<!-- Node12&#45;&gt;Node13 -->
<g id="edge13_Node000012_Node000013" class="edge">
<title>Node12&#45;&gt;Node13</title>
<g id="a_edge13_Node000012_Node000013"><a xlink:title=" ">
<path fill="none" stroke="#63b8ff" d="M260.25,-17C249.26,-17 238.09,-17 227.07,-17"/>
<polygon fill="#63b8ff" stroke="#63b8ff" points="260.3,-20.5 270.3,-17 260.3,-13.5 260.3,-20.5"/>
</a>
</g>
</g>
</g>
</svg>
