<?xml version="1.0" encoding="UTF-8" standalone="no"?>
<!DOCTYPE svg PUBLIC "-//W3C//DTD SVG 1.1//EN"
 "http://www.w3.org/Graphics/SVG/1.1/DTD/svg11.dtd">
<!-- Generated by graphviz version 2.43.0 (0)
 -->
<!-- Title: BPPreviewArea Pages: 1 -->
<svg width="246pt" height="308pt"
 viewBox="0.00 0.00 246.00 308.00" xmlns="http://www.w3.org/2000/svg" xmlns:xlink="http://www.w3.org/1999/xlink">

<svg id="main" version="1.1" xmlns="http://www.w3.org/2000/svg" xmlns:xlink="http://www.w3.org/1999/xlink" xml:space="preserve" onload="init(evt)">
<style type="text/css"><![CDATA[
.node, .edge {opacity: 0.7;}
.node.selected, .edge.selected {opacity: 1;}
.edge:hover path { stroke: red; }
.edge:hover polygon { stroke: red; fill: red; }
]]></style>
<script type="application/ecmascript" xlink:href="svg.min.js"/>
<svg id="graph" class="graph">
<g id="graph0" class="graph" transform="scale(1 1) rotate(0) translate(4 304)">
<title>BPPreviewArea</title>
<!-- Node1 -->
<g id="Node000001" class="node">
<title>Node1</title>
<g id="a_Node000001"><a xlink:title="저장된 설계도를 미리보기 형태로 표시하는 컴포넌트">
<polygon fill="#999999" stroke="transparent" points="238,-209 0,-209 0,0 238,0 238,-209"/>
<text text-anchor="start" x="70" y="-194.9" font-family="Consolas" font-size="12.00">BPPreviewArea</text>
<text text-anchor="start" x="4" y="-177.9" font-family="Consolas" font-size="12.00">&#45;</text>
<text text-anchor="start" x="16" y="-177.9" font-family="Consolas" font-size="12.00">Transform previewRoot</text>
<text text-anchor="start" x="4" y="-160.9" font-family="Consolas" font-size="12.00">&#45;</text>
<text text-anchor="start" x="16" y="-160.9" font-family="Consolas" font-size="12.00">BPPreviewCamera previewCamera</text>
<text text-anchor="start" x="4" y="-143.9" font-family="Consolas" font-size="12.00">&#45;</text>
<text text-anchor="start" x="16" y="-143.9" font-family="Consolas" font-size="12.00">GridPlacer gridPlacer</text>
<text text-anchor="start" x="4" y="-126.9" font-family="Consolas" font-size="12.00">&#45;</text>
<text text-anchor="start" x="16" y="-126.9" font-family="Consolas" font-size="12.00">List&lt; GameObject &gt;</text>
<text text-anchor="start" x="16" y="-113.9" font-family="Consolas" font-size="12.00"> spawnedPreviews</text>
<text text-anchor="start" x="4" y="-96.9" font-family="Consolas" font-size="12.00">+</text>
<text text-anchor="start" x="16" y="-96.9" font-family="Consolas" font-size="12.00">void UpdateAndShow</text>
<text text-anchor="start" x="16" y="-83.9" font-family="Consolas" font-size="12.00">(BlueprintSaveData data)</text>
<text text-anchor="start" x="4" y="-66.9" font-family="Consolas" font-size="12.00">+</text>
<text text-anchor="start" x="16" y="-66.9" font-family="Consolas" font-size="12.00">void Clear()</text>
<text text-anchor="start" x="4" y="-49.9" font-family="Consolas" font-size="12.00">+</text>
<text text-anchor="start" x="16" y="-49.9" font-family="Consolas" font-size="12.00">Vector3 GridToWorldPosition</text>
<text text-anchor="start" x="16" y="-36.9" font-family="Consolas" font-size="12.00">(Vector2Int gridPos)</text>
<text text-anchor="start" x="4" y="-19.9" font-family="Consolas" font-size="12.00">+</text>
<text text-anchor="start" x="16" y="-19.9" font-family="Consolas" font-size="12.00">Vector3 GetWorldPosition</text>
<text text-anchor="start" x="16" y="-6.9" font-family="Consolas" font-size="12.00">FromGrid(Vector2Int gridPos)</text>
<polygon fill="#666666" stroke="#666666" points="0,-189.5 0,-189.5 238,-189.5 238,-189.5 0,-189.5"/>
<polygon fill="#666666" stroke="#666666" points="0,-108.5 0,-108.5 14,-108.5 14,-108.5 0,-108.5"/>
<polygon fill="#666666" stroke="#666666" points="14,-108.5 14,-108.5 238,-108.5 238,-108.5 14,-108.5"/>
<polygon fill="none" stroke="#666666" points="0,0 0,-209 238,-209 238,0 0,0"/>
</a>
</g>
</g>
<!-- Node2 -->
<g id="Node000002" class="node">
<title>Node2</title>
<g id="a_Node000002"><a xlink:title=" ">
<polygon fill="white" stroke="transparent" points="173,-300 65,-300 65,-245 173,-245 173,-300"/>
<text text-anchor="start" x="70" y="-285.9" font-family="Consolas" font-size="12.00">MonoBehaviour</text>
<text text-anchor="start" x="115" y="-268.9" font-family="Consolas" font-size="12.00"> </text>
<text text-anchor="start" x="115" y="-251.9" font-family="Consolas" font-size="12.00"> </text>
<polygon fill="#bfbfbf" stroke="#bfbfbf" points="65,-280.5 65,-280.5 173,-280.5 173,-280.5 65,-280.5"/>
<polygon fill="#bfbfbf" stroke="#bfbfbf" points="65,-263.5 65,-263.5 173,-263.5 173,-263.5 65,-263.5"/>
<polygon fill="none" stroke="#bfbfbf" points="65,-245 65,-300 173,-300 173,-245 65,-245"/>
</a>
</g>
</g>
<!-- Node2&#45;&gt;Node1 -->
<g id="edge1_Node000001_Node000002" class="edge">
<title>Node2&#45;&gt;Node1</title>
<g id="a_edge1_Node000001_Node000002"><a xlink:title=" ">
<path fill="none" stroke="#63b8ff" d="M119,-234.71C119,-226.89 119,-218.27 119,-209.3"/>
<polygon fill="none" stroke="#63b8ff" points="115.5,-234.83 119,-244.83 122.5,-234.83 115.5,-234.83"/>
</a>
</g>
</g>
</g>
</svg>
</svg>

<style type='text/css'>
<![CDATA[
[data-mouse-over-selected='false'] { opacity: 0.7; }
[data-mouse-over-selected='true']  { opacity: 1.0; }
]]>
</style>
<script type="application/ecmascript"><![CDATA[
document.addEventListener('DOMContentLoaded', (event) => {
  highlightEdges();
  highlightAdjacentNodes();
});
]]></script>
</svg>
