<?xml version="1.0" encoding="UTF-8" standalone="no"?>
<!DOCTYPE svg PUBLIC "-//W3C//DTD SVG 1.1//EN"
 "http://www.w3.org/Graphics/SVG/1.1/DTD/svg11.dtd">
<!-- Generated by graphviz version 2.43.0 (0)
 -->
<!-- Title: EventNode Pages: 1 -->
<svg width="231pt" height="346pt"
 viewBox="0.00 0.00 231.00 346.00" xmlns="http://www.w3.org/2000/svg" xmlns:xlink="http://www.w3.org/1999/xlink">
<g id="graph0" class="graph" transform="scale(1 1) rotate(0) translate(4 342)">
<title>EventNode</title>
<!-- Node1 -->
<g id="Node000001" class="node">
<title>Node1</title>
<g id="a_Node000001"><a xlink:title="이벤트 맵 상의 개별 노드를 나타내는 컴포넌트. 레벨/인덱스/위험 여부 등 정보를 포함하며, 연결된 다음 노드를 관리합니다.">
<polygon fill="#999999" stroke="transparent" points="223,-247 0,-247 0,0 223,0 223,-247"/>
<text text-anchor="start" x="78" y="-232.9" font-family="Consolas" font-size="12.00">EventNode</text>
<text text-anchor="start" x="4.5" y="-215.9" font-family="Consolas" font-size="12.00">+</text>
<text text-anchor="start" x="16.5" y="-215.9" font-family="Consolas" font-size="12.00">int LevelIndex</text>
<text text-anchor="start" x="4.5" y="-198.9" font-family="Consolas" font-size="12.00">+</text>
<text text-anchor="start" x="16.5" y="-198.9" font-family="Consolas" font-size="12.00">int NodeIndex</text>
<text text-anchor="start" x="4.5" y="-181.9" font-family="Consolas" font-size="12.00">+</text>
<text text-anchor="start" x="16.5" y="-181.9" font-family="Consolas" font-size="12.00">List&lt; EventNode &gt; NextNodes</text>
<text text-anchor="start" x="4.5" y="-164.9" font-family="Consolas" font-size="12.00">+</text>
<text text-anchor="start" x="16.5" y="-164.9" font-family="Consolas" font-size="12.00">bool IsDangerous</text>
<text text-anchor="start" x="4.5" y="-147.9" font-family="Consolas" font-size="12.00">&#45;</text>
<text text-anchor="start" x="16.5" y="-147.9" font-family="Consolas" font-size="12.00">int levelIndex</text>
<text text-anchor="start" x="4.5" y="-130.9" font-family="Consolas" font-size="12.00">&#45;</text>
<text text-anchor="start" x="16.5" y="-130.9" font-family="Consolas" font-size="12.00">int nodeIndex</text>
<text text-anchor="start" x="4.5" y="-113.9" font-family="Consolas" font-size="12.00">&#45;</text>
<text text-anchor="start" x="16.5" y="-113.9" font-family="Consolas" font-size="12.00">bool isDangerous</text>
<text text-anchor="start" x="4.5" y="-96.9" font-family="Consolas" font-size="12.00">&#45;</text>
<text text-anchor="start" x="16.5" y="-96.9" font-family="Consolas" font-size="12.00">List&lt; EventNode &gt; nextNodes</text>
<text text-anchor="start" x="4.5" y="-79.9" font-family="Consolas" font-size="12.00">+</text>
<text text-anchor="start" x="16.5" y="-79.9" font-family="Consolas" font-size="12.00">void SetNodeData(int</text>
<text text-anchor="start" x="16.5" y="-66.9" font-family="Consolas" font-size="12.00"> level, int index, bool</text>
<text text-anchor="start" x="16.5" y="-53.9" font-family="Consolas" font-size="12.00"> dangerous=false)</text>
<text text-anchor="start" x="4.5" y="-36.9" font-family="Consolas" font-size="12.00">+</text>
<text text-anchor="start" x="16.5" y="-36.9" font-family="Consolas" font-size="12.00">void AddNextNode(EventNode</text>
<text text-anchor="start" x="16.5" y="-23.9" font-family="Consolas" font-size="12.00"> node)</text>
<text text-anchor="start" x="4.5" y="-6.9" font-family="Consolas" font-size="12.00">+</text>
<text text-anchor="start" x="16.5" y="-6.9" font-family="Consolas" font-size="12.00">void ClearConnections()</text>
<polygon fill="#666666" stroke="#666666" points="0.5,-227.5 0.5,-227.5 223.5,-227.5 223.5,-227.5 0.5,-227.5"/>
<polygon fill="#666666" stroke="#666666" points="0.5,-91.5 0.5,-91.5 14.5,-91.5 14.5,-91.5 0.5,-91.5"/>
<polygon fill="#666666" stroke="#666666" points="14.5,-91.5 14.5,-91.5 223.5,-91.5 223.5,-91.5 14.5,-91.5"/>
<polygon fill="none" stroke="#666666" points="0,0 0,-247 223,-247 223,0 0,0"/>
</a>
</g>
</g>
<!-- Node2 -->
<g id="Node000002" class="node">
<title>Node2</title>
<g id="a_Node000002"><a xlink:title=" ">
<polygon fill="white" stroke="transparent" points="165.5,-338 57.5,-338 57.5,-283 165.5,-283 165.5,-338"/>
<text text-anchor="start" x="62.5" y="-323.9" font-family="Consolas" font-size="12.00">MonoBehaviour</text>
<text text-anchor="start" x="107.5" y="-306.9" font-family="Consolas" font-size="12.00"> </text>
<text text-anchor="start" x="107.5" y="-289.9" font-family="Consolas" font-size="12.00"> </text>
<polygon fill="#bfbfbf" stroke="#bfbfbf" points="57.5,-318.5 57.5,-318.5 165.5,-318.5 165.5,-318.5 57.5,-318.5"/>
<polygon fill="#bfbfbf" stroke="#bfbfbf" points="57.5,-301.5 57.5,-301.5 165.5,-301.5 165.5,-301.5 57.5,-301.5"/>
<polygon fill="none" stroke="#bfbfbf" points="57.5,-283 57.5,-338 165.5,-338 165.5,-283 57.5,-283"/>
</a>
</g>
</g>
<!-- Node2&#45;&gt;Node1 -->
<g id="edge1_Node000001_Node000002" class="edge">
<title>Node2&#45;&gt;Node1</title>
<g id="a_edge1_Node000001_Node000002"><a xlink:title=" ">
<path fill="none" stroke="#63b8ff" d="M111.5,-272.83C111.5,-264.95 111.5,-256.21 111.5,-247.02"/>
<polygon fill="none" stroke="#63b8ff" points="108,-272.99 111.5,-282.99 115,-272.99 108,-272.99"/>
</a>
</g>
</g>
</g>
</svg>
