<?xml version="1.0" encoding="UTF-8" standalone="no"?>
<!DOCTYPE svg PUBLIC "-//W3C//DTD SVG 1.1//EN"
 "http://www.w3.org/Graphics/SVG/1.1/DTD/svg11.dtd">
<!-- Generated by graphviz version 2.43.0 (0)
 -->
<!-- Title: CrewBase.SwapEquipment Pages: 1 -->
<svg width="460pt" height="121pt"
 viewBox="0.00 0.00 460.00 121.00" xmlns="http://www.w3.org/2000/svg" xmlns:xlink="http://www.w3.org/1999/xlink">

<svg id="main" version="1.1" xmlns="http://www.w3.org/2000/svg" xmlns:xlink="http://www.w3.org/1999/xlink" xml:space="preserve" onload="init(evt)">
<style type="text/css"><![CDATA[
.node, .edge {opacity: 0.7;}
.node.selected, .edge.selected {opacity: 1;}
.edge:hover path { stroke: red; }
.edge:hover polygon { stroke: red; fill: red; }
]]></style>
<script type="application/ecmascript" xlink:href="svg.min.js"/>
<svg id="graph" class="graph">
<g id="graph0" class="graph" transform="scale(1 1) rotate(0) translate(4 117)">
<title>CrewBase.SwapEquipment</title>
<!-- Node1 -->
<g id="Node000001" class="node">
<title>Node1</title>
<g id="a_Node000001"><a xlink:title="기존 장비를 해제하고 새 장비를 장착합니다.">
<polygon fill="#999999" stroke="#666666" points="182,-67 0,-67 0,-46 182,-46 182,-67"/>
<text text-anchor="middle" x="91" y="-53.4" font-family="Consolas" font-size="12.00">CrewBase.SwapEquipment</text>
</a>
</g>
</g>
<!-- Node2 -->
<g id="Node000002" class="node">
<title>Node2</title>
<g id="a_Node000002"><a xlink:href="classCrewBase.html#abd66d1b5faf5b30ecac4247f5b434442" target="_top" xlink:title="현재 장착 중인 장비를 반환합니다.">
<polygon fill="white" stroke="#666666" points="433.5,-113 236.5,-113 236.5,-92 433.5,-92 433.5,-113"/>
<text text-anchor="middle" x="335" y="-99.4" font-family="Consolas" font-size="12.00">CrewBase.GetEquippedItem</text>
</a>
</g>
</g>
<!-- Node1&#45;&gt;Node2 -->
<g id="edge1_Node000001_Node000002" class="edge">
<title>Node1&#45;&gt;Node2</title>
<g id="a_edge1_Node000001_Node000002"><a xlink:title=" ">
<path fill="none" stroke="#63b8ff" d="M141.29,-67.06C164.53,-71.94 192.65,-77.7 218,-82.5 231.73,-85.1 246.41,-87.74 260.54,-90.21"/>
<polygon fill="#63b8ff" stroke="#63b8ff" points="260.27,-93.71 270.72,-91.98 261.46,-86.82 260.27,-93.71"/>
</a>
</g>
</g>
<!-- Node3 -->
<g id="Node000003" class="node">
<title>Node3</title>
<g id="a_Node000003"><a xlink:href="classCrewBase.html#a233fbdc4519521e27786d8c0799dcd44" target="_top" xlink:title="장비 효과를 스탯에 반영하거나 제거합니다.">
<polygon fill="white" stroke="#666666" points="452,-73.5 218,-73.5 218,-39.5 452,-39.5 452,-73.5"/>
<text text-anchor="start" x="226" y="-59.9" font-family="Consolas" font-size="12.00">CrewBase.RecalculateEquipment</text>
<text text-anchor="middle" x="335" y="-46.9" font-family="Consolas" font-size="12.00">Bonus</text>
</a>
</g>
</g>
<!-- Node1&#45;&gt;Node3 -->
<g id="edge2_Node000001_Node000003" class="edge">
<title>Node1&#45;&gt;Node3</title>
<g id="a_edge2_Node000001_Node000003"><a xlink:title=" ">
<path fill="none" stroke="#63b8ff" d="M182.11,-56.5C190.51,-56.5 199.13,-56.5 207.78,-56.5"/>
<polygon fill="#63b8ff" stroke="#63b8ff" points="207.95,-60 217.95,-56.5 207.95,-53 207.95,-60"/>
</a>
</g>
</g>
<!-- Node4 -->
<g id="Node000004" class="node">
<title>Node4</title>
<g id="a_Node000004"><a xlink:href="classCrewBase.html#a1a8c5407b341616bb1432afd43a8be47" target="_top" xlink:title="장비를 지정된 슬롯에 장착합니다.">
<polygon fill="white" stroke="#666666" points="433.5,-21 236.5,-21 236.5,0 433.5,0 433.5,-21"/>
<text text-anchor="middle" x="335" y="-7.4" font-family="Consolas" font-size="12.00">CrewBase.SetEquippedItem</text>
</a>
</g>
</g>
<!-- Node1&#45;&gt;Node4 -->
<g id="edge3_Node000001_Node000004" class="edge">
<title>Node1&#45;&gt;Node4</title>
<g id="a_edge3_Node000001_Node000004"><a xlink:title=" ">
<path fill="none" stroke="#63b8ff" d="M141.29,-45.94C164.53,-41.06 192.65,-35.3 218,-30.5 231.73,-27.9 246.41,-25.26 260.54,-22.79"/>
<polygon fill="#63b8ff" stroke="#63b8ff" points="261.46,-26.18 270.72,-21.02 260.27,-19.29 261.46,-26.18"/>
</a>
</g>
</g>
</g>
</svg>
</svg>

<style type='text/css'>
<![CDATA[
[data-mouse-over-selected='false'] { opacity: 0.7; }
[data-mouse-over-selected='true']  { opacity: 1.0; }
]]>
</style>
<script type="application/ecmascript"><![CDATA[
document.addEventListener('DOMContentLoaded', (event) => {
  highlightEdges();
  highlightAdjacentNodes();
});
]]></script>
</svg>
