<?xml version="1.0" encoding="UTF-8" standalone="no"?>
<!DOCTYPE svg PUBLIC "-//W3C//DTD SVG 1.1//EN"
 "http://www.w3.org/Graphics/SVG/1.1/DTD/svg11.dtd">
<!-- Generated by graphviz version 2.43.0 (0)
 -->
<!-- Title: Room.SetPowerStatus Pages: 1 -->
<svg width="2389pt" height="856pt"
 viewBox="0.00 0.00 2389.00 855.50" xmlns="http://www.w3.org/2000/svg" xmlns:xlink="http://www.w3.org/1999/xlink">
<g id="graph0" class="graph" transform="scale(1 1) rotate(0) translate(4 851.5)">
<title>Room.SetPowerStatus</title>
<!-- Node1 -->
<g id="Node000001" class="node">
<title>Node1</title>
<g id="a_Node000001"><a xlink:title="전력 공급 상태를 설정합니다.">
<polygon fill="#999999" stroke="#666666" points="159,-124 0,-124 0,-103 159,-103 159,-124"/>
<text text-anchor="middle" x="79.5" y="-110.4" font-family="Consolas" font-size="12.00">Room.SetPowerStatus</text>
</a>
</g>
</g>
<!-- Node2 -->
<g id="Node000002" class="node">
<title>Node2</title>
<g id="a_Node000002"><a xlink:href="classRoom.html#a24a2b295f97d7b3d6efbe51b8f865415" target="_top" xlink:title="상태 변경을 알립니다.">
<polygon fill="white" stroke="#666666" points="384,-250 195,-250 195,-229 384,-229 384,-250"/>
<text text-anchor="middle" x="289.5" y="-236.4" font-family="Consolas" font-size="12.00">Room.NotifyStateChanged</text>
</a>
</g>
</g>
<!-- Node1&#45;&gt;Node2 -->
<g id="edge1_Node000001_Node000002" class="edge">
<title>Node1&#45;&gt;Node2</title>
<g id="a_edge1_Node000001_Node000002"><a xlink:title=" ">
<path fill="none" stroke="#63b8ff" d="M97.88,-124.03C134.35,-146.12 219.09,-197.45 262.24,-223.59"/>
<polygon fill="#63b8ff" stroke="#63b8ff" points="260.66,-226.73 271.03,-228.92 264.29,-220.74 260.66,-226.73"/>
</a>
</g>
</g>
<!-- Node44 -->
<g id="Node000044" class="node">
<title>Node44</title>
<g id="a_Node000044"><a xlink:href="classRoom.html#a2114f1e3c7ce8957cb3ed170958ef84a" target="_top" xlink:title="방의 이펙트(색상, 파티클 등)를 업데이트합니다.">
<polygon fill="white" stroke="#666666" points="598,-105 446,-105 446,-84 598,-84 598,-105"/>
<text text-anchor="middle" x="522" y="-91.4" font-family="Consolas" font-size="12.00">Room.UpdateEffects</text>
</a>
</g>
</g>
<!-- Node1&#45;&gt;Node44 -->
<g id="edge60_Node000001_Node000044" class="edge">
<title>Node1&#45;&gt;Node44</title>
<g id="a_edge60_Node000001_Node000044"><a xlink:title=" ">
<path fill="none" stroke="#63b8ff" d="M159.25,-110.1C237.09,-106.75 355.82,-101.62 435.82,-98.17"/>
<polygon fill="#63b8ff" stroke="#63b8ff" points="436.03,-101.67 445.87,-97.74 435.73,-94.67 436.03,-101.67"/>
</a>
</g>
</g>
<!-- Node3 -->
<g id="Node000003" class="node">
<title>Node3</title>
<g id="a_Node000003"><a xlink:href="classCrewMember.html#ae80f1831860b8a260b6899410f48bc1d" target="_top" xlink:title="Idle 상태 이후">
<polygon fill="white" stroke="#666666" points="624,-357 420,-357 420,-336 624,-336 624,-357"/>
<text text-anchor="middle" x="522" y="-343.4" font-family="Consolas" font-size="12.00">CrewMember.BackToThePeace</text>
</a>
</g>
</g>
<!-- Node2&#45;&gt;Node3 -->
<g id="edge2_Node000002_Node000003" class="edge">
<title>Node2&#45;&gt;Node3</title>
<g id="a_edge2_Node000002_Node000003"><a xlink:title=" ">
<path fill="none" stroke="#63b8ff" d="M313.44,-250.15C354.78,-269.34 441.83,-309.75 489,-331.64"/>
<polygon fill="#63b8ff" stroke="#63b8ff" points="487.6,-334.86 498.15,-335.89 490.55,-328.51 487.6,-334.86"/>
</a>
</g>
</g>
<!-- Node27 -->
<g id="Node000027" class="node">
<title>Node27</title>
<g id="a_Node000027"><a xlink:href="classCrewMember.html#a5161a521053d829ee86ecae3de914b22" target="_top" xlink:title="현재 하던 작업 행동을 멈추고 자신을 Room.workingCrew로 할당한 Room을 찾아 할당 해제시키고 함선 능력치를 재계산한다.">
<polygon fill="white" stroke="#666666" points="1274,-520 1122,-520 1122,-499 1274,-499 1274,-520"/>
<text text-anchor="middle" x="1198" y="-506.4" font-family="Consolas" font-size="12.00">CrewMember.WalkOut</text>
</a>
</g>
</g>
<!-- Node2&#45;&gt;Node27 -->
<g id="edge39_Node000002_Node000027" class="edge">
<title>Node2&#45;&gt;Node27</title>
<g id="a_edge39_Node000002_Node000027"><a xlink:title=" ">
<path fill="none" stroke="#63b8ff" d="M297.83,-250.14C315.57,-275.02 363.59,-337.1 420,-366.5 649.39,-486.07 962.51,-507.08 1111.48,-509.85"/>
<polygon fill="#63b8ff" stroke="#63b8ff" points="1111.87,-513.35 1121.92,-510.02 1111.98,-506.35 1111.87,-513.35"/>
</a>
</g>
</g>
<!-- Node4 -->
<g id="Node000004" class="node">
<title>Node4</title>
<g id="a_Node000004"><a xlink:href="classCrewMember.html#a2a72214520c246d394664e2f4bf4a03c" target="_top" xlink:title="현재 선원이 탑승해 있는 함선이 선원의 모선인지 확인 (상대 배에 타있으면 false)">
<polygon fill="white" stroke="#666666" points="1045,-357 878,-357 878,-336 1045,-336 1045,-357"/>
<text text-anchor="middle" x="961.5" y="-343.4" font-family="Consolas" font-size="12.00">CrewMember.IsOwnShip</text>
</a>
</g>
</g>
<!-- Node3&#45;&gt;Node4 -->
<g id="edge3_Node000003_Node000004" class="edge">
<title>Node3&#45;&gt;Node4</title>
<g id="a_edge3_Node000003_Node000004"><a xlink:title=" ">
<path fill="none" stroke="#63b8ff" d="M624.2,-346.5C697.57,-346.5 796.04,-346.5 867.45,-346.5"/>
<polygon fill="#63b8ff" stroke="#63b8ff" points="867.78,-350 877.78,-346.5 867.78,-343 867.78,-350"/>
</a>
</g>
</g>
<!-- Node5 -->
<g id="Node000005" class="node">
<title>Node5</title>
<g id="a_Node000005"><a xlink:href="classCrewMember.html#a536ad7d67b7d95eac17c63ac7449fbe1" target="_top" xlink:title="animation 실행">
<polygon fill="white" stroke="#666666" points="1548,-391 1351,-391 1351,-370 1548,-370 1548,-391"/>
<text text-anchor="middle" x="1449.5" y="-377.4" font-family="Consolas" font-size="12.00">CrewMember.PlayAnimation</text>
</a>
</g>
</g>
<!-- Node3&#45;&gt;Node5 -->
<g id="edge4_Node000003_Node000005" class="edge">
<title>Node3&#45;&gt;Node5</title>
<g id="a_edge4_Node000003_Node000005"><a xlink:title=" ">
<path fill="none" stroke="#63b8ff" d="M548.45,-357.06C575.55,-367.69 619.96,-383.36 660,-389.5 904.89,-427.03 1197.57,-407 1348.11,-392.04"/>
<polygon fill="#63b8ff" stroke="#63b8ff" points="1348.66,-395.5 1358.26,-391.02 1347.96,-388.54 1348.66,-395.5"/>
</a>
</g>
</g>
<!-- Node7 -->
<g id="Node000007" class="node">
<title>Node7</title>
<g id="a_Node000007"><a xlink:href="classCrewMember.html#a2e19d5fd76a3e3435eb7b6c313057ef8" target="_top" xlink:title="본인 함선에서 수리 시도">
<polygon fill="white" stroke="#666666" points="827,-318 660,-318 660,-297 827,-297 827,-318"/>
<text text-anchor="middle" x="743.5" y="-304.4" font-family="Consolas" font-size="12.00">CrewMember.TryRepair</text>
</a>
</g>
</g>
<!-- Node3&#45;&gt;Node7 -->
<g id="edge6_Node000003_Node000007" class="edge">
<title>Node3&#45;&gt;Node7</title>
<g id="a_edge6_Node000003_Node000007"><a xlink:title=" ">
<path fill="none" stroke="#63b8ff" d="M582.11,-336C610.17,-331.01 643.88,-325.02 673.14,-319.82"/>
<polygon fill="#63b8ff" stroke="#63b8ff" points="674.05,-323.22 683.28,-318.02 672.83,-316.32 674.05,-323.22"/>
</a>
</g>
</g>
<!-- Node23 -->
<g id="Node000023" class="node">
<title>Node23</title>
<g id="a_Node000023"><a xlink:href="classCrewMember.html#a4786d3c0560290a9558f6420dc3304b3" target="_top" xlink:title="주변 적들의 유무와 현재 자신의 위치한 타일, 작업 가능한 방인지 여부에 따라 작업 행동을 시도한다. 선원의 작업 숙련도 유무와 숙련도 적용은 Room....">
<polygon fill="white" stroke="#666666" points="1274,-318 1122,-318 1122,-297 1274,-297 1274,-318"/>
<text text-anchor="middle" x="1198" y="-304.4" font-family="Consolas" font-size="12.00">CrewMember.TryWork</text>
</a>
</g>
</g>
<!-- Node3&#45;&gt;Node23 -->
<g id="edge38_Node000003_Node000023" class="edge">
<title>Node3&#45;&gt;Node23</title>
<g id="a_edge38_Node000003_Node000023"><a xlink:title=" ">
<path fill="none" stroke="#63b8ff" d="M577.44,-357.01C675.24,-374.01 886.62,-402.25 1060,-366.5 1100.38,-358.17 1143.53,-337.38 1170.38,-322.85"/>
<polygon fill="#63b8ff" stroke="#63b8ff" points="1172.1,-325.9 1179.17,-318 1168.72,-319.77 1172.1,-325.9"/>
</a>
</g>
</g>
<!-- Node6 -->
<g id="Node000006" class="node">
<title>Node6</title>
<g id="a_Node000006"><a xlink:href="classCrewMember.html#a3c76b7a048169237b4038ee133aa1704" target="_top" xlink:title="애니메이션 방향 설정">
<polygon fill="white" stroke="#666666" points="1856,-346 1599,-346 1599,-325 1856,-325 1856,-346"/>
<text text-anchor="middle" x="1727.5" y="-332.4" font-family="Consolas" font-size="12.00">CrewMember.SetAnimationDirection</text>
</a>
</g>
</g>
<!-- Node5&#45;&gt;Node6 -->
<g id="edge5_Node000005_Node000006" class="edge">
<title>Node5&#45;&gt;Node6</title>
<g id="a_edge5_Node000005_Node000006"><a xlink:title=" ">
<path fill="none" stroke="#63b8ff" d="M1512.25,-369.95C1538.92,-365.43 1570.49,-360.14 1599,-355.5 1614.93,-352.91 1632,-350.19 1648.29,-347.63"/>
<polygon fill="#63b8ff" stroke="#63b8ff" points="1648.99,-351.06 1658.32,-346.05 1647.9,-344.14 1648.99,-351.06"/>
</a>
</g>
</g>
<!-- Node7&#45;&gt;Node4 -->
<g id="edge10_Node000007_Node000004" class="edge">
<title>Node7&#45;&gt;Node4</title>
<g id="a_edge10_Node000007_Node000004"><a xlink:title=" ">
<path fill="none" stroke="#63b8ff" d="M802.67,-318C830.28,-322.99 863.45,-328.98 892.24,-334.18"/>
<polygon fill="#63b8ff" stroke="#63b8ff" points="891.77,-337.65 902.23,-335.98 893.01,-330.76 891.77,-337.65"/>
</a>
</g>
</g>
<!-- Node8 -->
<g id="Node000008" class="node">
<title>Node8</title>
<g id="a_Node000008"><a xlink:href="classCrewMember.html#aad4604b549178c53a36eb89d903633e8" target="_top" xlink:title="현재 선원의 모든 스킬 값을 계산하여 반환합니다. 기본 숙련도, 장비 보너스, 사기 보너스를 포함합니다.">
<polygon fill="white" stroke="#666666" points="1563,-222 1336,-222 1336,-201 1563,-201 1563,-222"/>
<text text-anchor="middle" x="1449.5" y="-208.4" font-family="Consolas" font-size="12.00">CrewMember.GetCrewSkillValue</text>
</a>
</g>
</g>
<!-- Node7&#45;&gt;Node8 -->
<g id="edge7_Node000007_Node000008" class="edge">
<title>Node7&#45;&gt;Node8</title>
<g id="a_edge7_Node000007_Node000008"><a xlink:title=" ">
<path fill="none" stroke="#63b8ff" d="M756.18,-296.88C776.25,-279.39 819.37,-245.1 863,-231.5 946.09,-205.6 1179.76,-205.39 1325.54,-208.1"/>
<polygon fill="#63b8ff" stroke="#63b8ff" points="1325.82,-211.6 1335.88,-208.3 1325.95,-204.6 1325.82,-211.6"/>
</a>
</g>
</g>
<!-- Node11 -->
<g id="Node000011" class="node">
<title>Node11</title>
<g id="a_Node000011"><a xlink:href="classCrewMember.html#a8ee5c024823e872d9addf84d0858879b" target="_top" xlink:title="수리 루틴">
<polygon fill="white" stroke="#666666" points="1060,-261 863,-261 863,-240 1060,-240 1060,-261"/>
<text text-anchor="middle" x="961.5" y="-247.4" font-family="Consolas" font-size="12.00">CrewMember.RepairRoutine</text>
</a>
</g>
</g>
<!-- Node7&#45;&gt;Node11 -->
<g id="edge11_Node000007_Node000011" class="edge">
<title>Node7&#45;&gt;Node11</title>
<g id="a_edge11_Node000007_Node000011"><a xlink:title=" ">
<path fill="none" stroke="#63b8ff" d="M784.37,-296.98C819.95,-287.59 872.22,-273.8 910.57,-263.68"/>
<polygon fill="#63b8ff" stroke="#63b8ff" points="911.72,-266.99 920.5,-261.06 909.94,-260.22 911.72,-266.99"/>
</a>
</g>
</g>
<!-- Node7&#45;&gt;Node23 -->
<g id="edge37_Node000007_Node000023" class="edge">
<title>Node7&#45;&gt;Node23</title>
<g id="a_edge37_Node000007_Node000023"><a xlink:title=" ">
<path fill="none" stroke="#63b8ff" d="M827.23,-307.5C907.94,-307.5 1030.14,-307.5 1111.71,-307.5"/>
<polygon fill="#63b8ff" stroke="#63b8ff" points="1111.95,-311 1121.95,-307.5 1111.95,-304 1111.95,-311"/>
</a>
</g>
</g>
<!-- Node9 -->
<g id="Node000009" class="node">
<title>Node9</title>
<g id="a_Node000009"><a xlink:href="classMoraleManager.html#ae4bd0f13d318a29833b66d05fe6b632e" target="_top" xlink:title="선원의 총 사기 반환">
<polygon fill="white" stroke="#666666" points="1841,-228.5 1614,-228.5 1614,-194.5 1841,-194.5 1841,-228.5"/>
<text text-anchor="start" x="1622" y="-214.9" font-family="Consolas" font-size="12.00">MoraleManager.GetTotalMorale</text>
<text text-anchor="middle" x="1727.5" y="-201.9" font-family="Consolas" font-size="12.00">Bonus</text>
</a>
</g>
</g>
<!-- Node8&#45;&gt;Node9 -->
<g id="edge8_Node000008_Node000009" class="edge">
<title>Node8&#45;&gt;Node9</title>
<g id="a_edge8_Node000008_Node000009"><a xlink:title=" ">
<path fill="none" stroke="#63b8ff" d="M1563.16,-211.5C1576.46,-211.5 1590.09,-211.5 1603.53,-211.5"/>
<polygon fill="#63b8ff" stroke="#63b8ff" points="1603.76,-215 1613.76,-211.5 1603.76,-208 1603.76,-215"/>
</a>
</g>
</g>
<!-- Node10 -->
<g id="Node000010" class="node">
<title>Node10</title>
<g id="a_Node000010"><a xlink:href="classMoraleManager.html#ad25d3eb792d8fede14408e5b7a9863d0" target="_top" xlink:title="종족 별 사기 반환">
<polygon fill="white" stroke="#666666" points="2118.5,-222 1899.5,-222 1899.5,-201 2118.5,-201 2118.5,-222"/>
<text text-anchor="middle" x="2009" y="-208.4" font-family="Consolas" font-size="12.00">MoraleManager.GetRaceMorale</text>
</a>
</g>
</g>
<!-- Node9&#45;&gt;Node10 -->
<g id="edge9_Node000009_Node000010" class="edge">
<title>Node9&#45;&gt;Node10</title>
<g id="a_edge9_Node000009_Node000010"><a xlink:title=" ">
<path fill="none" stroke="#63b8ff" d="M1841.38,-211.5C1857.04,-211.5 1873.16,-211.5 1888.93,-211.5"/>
<polygon fill="#63b8ff" stroke="#63b8ff" points="1889.23,-215 1899.23,-211.5 1889.23,-208 1889.23,-215"/>
</a>
</g>
</g>
<!-- Node11&#45;&gt;Node5 -->
<g id="edge13_Node000011_Node000005" class="edge">
<title>Node11&#45;&gt;Node5</title>
<g id="a_edge13_Node000011_Node000005"><a xlink:title=" ">
<path fill="none" stroke="#63b8ff" d="M976.83,-261.21C1000.36,-278.23 1049.27,-311.17 1096,-327.5 1175.21,-355.18 1269.39,-368.41 1340.47,-374.73"/>
<polygon fill="#63b8ff" stroke="#63b8ff" points="1340.52,-378.24 1350.78,-375.61 1341.12,-371.27 1340.52,-378.24"/>
</a>
</g>
</g>
<!-- Node11&#45;&gt;Node11 -->
<g id="edge28_Node000011_Node000011" class="edge">
<title>Node11&#45;&gt;Node11</title>
<g id="a_edge28_Node000011_Node000011"><a xlink:title=" ">
<path fill="none" stroke="#63b8ff" d="M926.86,-261.02C912.06,-269.81 923.61,-279 961.5,-279 987.55,-279 1001.15,-274.66 1002.3,-269.09"/>
<polygon fill="#63b8ff" stroke="#63b8ff" points="1004.99,-266.85 996.14,-261.02 999.43,-271.1 1004.99,-266.85"/>
</a>
</g>
</g>
<!-- Node12 -->
<g id="Node000012" class="node">
<title>Node12</title>
<g id="a_Node000012"><a xlink:href="classCrewMember.html#a11bff82217c9aa131dd188028cffd5d2" target="_top" xlink:title="방 안의 적군 탐지">
<polygon fill="white" stroke="#666666" points="1540.5,-261 1358.5,-261 1358.5,-240 1540.5,-240 1540.5,-261"/>
<text text-anchor="middle" x="1449.5" y="-247.4" font-family="Consolas" font-size="12.00">CrewMember.isWithEnemy</text>
</a>
</g>
</g>
<!-- Node11&#45;&gt;Node12 -->
<g id="edge12_Node000011_Node000012" class="edge">
<title>Node11&#45;&gt;Node12</title>
<g id="a_edge12_Node000011_Node000012"><a xlink:title=" ">
<path fill="none" stroke="#63b8ff" d="M1060.26,-250.5C1143.9,-250.5 1263.8,-250.5 1348.16,-250.5"/>
<polygon fill="#63b8ff" stroke="#63b8ff" points="1348.27,-254 1358.27,-250.5 1348.27,-247 1348.27,-254"/>
</a>
</g>
</g>
<!-- Node13 -->
<g id="Node000013" class="node">
<title>Node13</title>
<g id="a_Node000013"><a xlink:href="classCrewMember.html#a6d2b12f78fe2bb8cae67fa23d5878e4d" target="_top" xlink:title="특정 방을 수리하며 수리 스킬을 향상시킵니다.">
<polygon fill="white" stroke="#666666" points="1300,-183 1096,-183 1096,-162 1300,-162 1300,-183"/>
<text text-anchor="middle" x="1198" y="-169.4" font-family="Consolas" font-size="12.00">CrewMember.RepairFacility</text>
</a>
</g>
</g>
<!-- Node11&#45;&gt;Node13 -->
<g id="edge14_Node000011_Node000013" class="edge">
<title>Node11&#45;&gt;Node13</title>
<g id="a_edge14_Node000011_Node000013"><a xlink:title=" ">
<path fill="none" stroke="#63b8ff" d="M994.13,-239.98C1035.82,-226.11 1109.28,-201.68 1155.43,-186.33"/>
<polygon fill="#63b8ff" stroke="#63b8ff" points="1156.74,-189.58 1165.13,-183.1 1154.53,-182.94 1156.74,-189.58"/>
</a>
</g>
</g>
<!-- Node11&#45;&gt;Node23 -->
<g id="edge29_Node000011_Node000023" class="edge">
<title>Node11&#45;&gt;Node23</title>
<g id="a_edge29_Node000011_Node000023"><a xlink:title=" ">
<path fill="none" stroke="#63b8ff" d="M1005.78,-261.02C1044.74,-270.49 1102.12,-284.44 1143.85,-294.58"/>
<polygon fill="#63b8ff" stroke="#63b8ff" points="1143.03,-297.98 1153.57,-296.94 1144.68,-291.18 1143.03,-297.98"/>
</a>
</g>
</g>
<!-- Node13&#45;&gt;Node8 -->
<g id="edge15_Node000013_Node000008" class="edge">
<title>Node13&#45;&gt;Node8</title>
<g id="a_edge15_Node000013_Node000008"><a xlink:title=" ">
<path fill="none" stroke="#63b8ff" d="M1266.19,-183C1298.5,-188.05 1337.4,-194.13 1370.96,-199.38"/>
<polygon fill="#63b8ff" stroke="#63b8ff" points="1370.77,-202.89 1381.19,-200.98 1371.85,-195.98 1370.77,-202.89"/>
</a>
</g>
</g>
<!-- Node14 -->
<g id="Node000014" class="node">
<title>Node14</title>
<g id="a_Node000014"><a xlink:href="classCrewBase.html#a186f7b2292966c554c5dabc126baeb11" target="_top" xlink:title="특정 스킬을 주어진 수치만큼 향상시키며 최대치를 넘지 않도록 제한합니다.">
<polygon fill="white" stroke="#666666" points="1536.5,-183 1362.5,-183 1362.5,-162 1536.5,-162 1536.5,-183"/>
<text text-anchor="middle" x="1449.5" y="-169.4" font-family="Consolas" font-size="12.00">CrewBase.ImproveSkill</text>
</a>
</g>
</g>
<!-- Node13&#45;&gt;Node14 -->
<g id="edge16_Node000013_Node000014" class="edge">
<title>Node13&#45;&gt;Node14</title>
<g id="a_edge16_Node000013_Node000014"><a xlink:title=" ">
<path fill="none" stroke="#63b8ff" d="M1300.12,-172.5C1317.24,-172.5 1334.97,-172.5 1351.96,-172.5"/>
<polygon fill="#63b8ff" stroke="#63b8ff" points="1352.44,-176 1362.43,-172.5 1352.43,-169 1352.44,-176"/>
</a>
</g>
</g>
<!-- Node15 -->
<g id="Node000015" class="node">
<title>Node15</title>
<g id="a_Node000015"><a xlink:href="classRoom.html#ab0d240e0649b42fe9bec652095f91c35" target="_top" xlink:title="지정된 양만큼 체력을 회복시킵니다.">
<polygon fill="white" stroke="#666666" points="1499,-144 1400,-144 1400,-123 1499,-123 1499,-144"/>
<text text-anchor="middle" x="1449.5" y="-130.4" font-family="Consolas" font-size="12.00">Room.Repair</text>
</a>
</g>
</g>
<!-- Node13&#45;&gt;Node15 -->
<g id="edge17_Node000013_Node000015" class="edge">
<title>Node13&#45;&gt;Node15</title>
<g id="a_edge17_Node000013_Node000015"><a xlink:title=" ">
<path fill="none" stroke="#63b8ff" d="M1266.19,-162C1304.71,-155.98 1352.62,-148.49 1389.65,-142.7"/>
<polygon fill="#63b8ff" stroke="#63b8ff" points="1390.45,-146.12 1399.79,-141.11 1389.37,-139.2 1390.45,-146.12"/>
</a>
</g>
</g>
<!-- Node15&#45;&gt;Node2 -->
<g id="edge19_Node000015_Node000002" class="edge">
<title>Node15&#45;&gt;Node2</title>
<g id="a_edge19_Node000015_Node000002"><a xlink:title=" ">
<path fill="none" stroke="#63b8ff" d="M1399.87,-133.5C1312.37,-133.5 1122.6,-133.5 962.5,-133.5 742.5,-133.5 742.5,-133.5 742.5,-133.5 583.6,-133.5 401.37,-196.37 325.99,-225.27"/>
<polygon fill="#63b8ff" stroke="#63b8ff" points="324.55,-222.07 316.49,-228.95 327.08,-228.6 324.55,-222.07"/>
</a>
</g>
</g>
<!-- Node16 -->
<g id="Node000016" class="node">
<title>Node16</title>
<g id="a_Node000016"><a xlink:href="classRoomData.html#a93ada549c4d197d14917913e944f46c2" target="_top" xlink:title="주어진 레벨에 해당하는 RoomLevel 데이터를 반환합니다. 각 파생 클래스에서 구현해야 합니다.">
<polygon fill="white" stroke="#666666" points="2381,-177 2162,-177 2162,-156 2381,-156 2381,-177"/>
<text text-anchor="middle" x="2271.5" y="-163.4" font-family="Consolas" font-size="12.00">RoomData.GetRoomDataByLevel</text>
</a>
</g>
</g>
<!-- Node15&#45;&gt;Node16 -->
<g id="edge18_Node000015_Node000016" class="edge">
<title>Node15&#45;&gt;Node16</title>
<g id="a_edge18_Node000015_Node000016"><a xlink:title=" ">
<path fill="none" stroke="#63b8ff" d="M1499.04,-135.45C1625.58,-140.55 1968.41,-154.34 2151.5,-161.71"/>
<polygon fill="#63b8ff" stroke="#63b8ff" points="2151.57,-165.22 2161.71,-162.12 2151.85,-158.22 2151.57,-165.22"/>
</a>
</g>
</g>
<!-- Node17 -->
<g id="Node000017" class="node">
<title>Node17</title>
<g id="a_Node000017"><a xlink:href="classRoom.html#ae5b8e019f27766e7e2537bb65f0d5f2e" target="_top" xlink:title="현재 레벨의 시각적 요소 (스프라이트 등)를 갱신합니다.">
<polygon fill="white" stroke="#666666" points="1814.5,-66 1640.5,-66 1640.5,-45 1814.5,-45 1814.5,-66"/>
<text text-anchor="middle" x="1727.5" y="-52.4" font-family="Consolas" font-size="12.00">Room.UpdateRoomVisual</text>
</a>
</g>
</g>
<!-- Node15&#45;&gt;Node17 -->
<g id="edge20_Node000015_Node000017" class="edge">
<title>Node15&#45;&gt;Node17</title>
<g id="a_edge20_Node000015_Node000017"><a xlink:title=" ">
<path fill="none" stroke="#63b8ff" d="M1487.72,-122.98C1537.31,-108.97 1625.08,-84.16 1679.27,-68.85"/>
<polygon fill="#63b8ff" stroke="#63b8ff" points="1680.31,-72.19 1688.99,-66.1 1678.41,-65.45 1680.31,-72.19"/>
</a>
</g>
</g>
<!-- Node17&#45;&gt;Node16 -->
<g id="edge24_Node000017_Node000016" class="edge">
<title>Node17&#45;&gt;Node16</title>
<g id="a_edge24_Node000017_Node000016"><a xlink:title=" ">
<path fill="none" stroke="#63b8ff" d="M1814.89,-64.17C1913.67,-74.55 2069.06,-92.42 2126,-107.5 2166.95,-118.34 2211.77,-137.94 2240.47,-151.56"/>
<polygon fill="#63b8ff" stroke="#63b8ff" points="2239.02,-154.75 2249.55,-155.93 2242.05,-148.44 2239.02,-154.75"/>
</a>
</g>
</g>
<!-- Node18 -->
<g id="Node000018" class="node">
<title>Node18</title>
<g id="a_Node000018"><a xlink:href="classRoom.html#a18ac2f2af25dbf2e6181db75eab061ae" target="_top" xlink:title="회전각을 고려하여 방의 점유 타일 반환">
<polygon fill="white" stroke="#666666" points="2096,-60 1922,-60 1922,-39 2096,-39 2096,-60"/>
<text text-anchor="middle" x="2009" y="-46.4" font-family="Consolas" font-size="12.00">Room.GetOccupiedTiles</text>
</a>
</g>
</g>
<!-- Node17&#45;&gt;Node18 -->
<g id="edge21_Node000017_Node000018" class="edge">
<title>Node17&#45;&gt;Node18</title>
<g id="a_edge21_Node000017_Node000018"><a xlink:title=" ">
<path fill="none" stroke="#63b8ff" d="M1814.64,-53.65C1845.32,-52.99 1880.07,-52.25 1911.56,-51.57"/>
<polygon fill="#63b8ff" stroke="#63b8ff" points="1911.74,-55.07 1921.66,-51.35 1911.59,-48.07 1911.74,-55.07"/>
</a>
</g>
</g>
<!-- Node20 -->
<g id="Node000020" class="node">
<title>Node20</title>
<g id="a_Node000020"><a xlink:href="classShip.html#acc377098e3c61bbd4b8fc53595d09293" target="_top" xlink:title="실제 월드 위치 반환">
<polygon fill="white" stroke="#666666" points="2126,-21 1892,-21 1892,0 2126,0 2126,-21"/>
<text text-anchor="middle" x="2009" y="-7.4" font-family="Consolas" font-size="12.00">Ship.GetWorldPositionFromGrid</text>
</a>
</g>
</g>
<!-- Node17&#45;&gt;Node20 -->
<g id="edge25_Node000017_Node000020" class="edge">
<title>Node17&#45;&gt;Node20</title>
<g id="a_edge25_Node000017_Node000020"><a xlink:title=" ">
<path fill="none" stroke="#63b8ff" d="M1794.03,-44.95C1835.49,-38.27 1889.24,-29.62 1932.49,-22.66"/>
<polygon fill="#63b8ff" stroke="#63b8ff" points="1933.08,-26.11 1942.4,-21.06 1931.97,-19.2 1933.08,-26.11"/>
</a>
</g>
</g>
<!-- Node22 -->
<g id="Node000022" class="node">
<title>Node22</title>
<g id="a_Node000022"><a xlink:href="classRoom.html#af15fefedd48a2009da56d461a9084ed8" target="_top" xlink:title="방이 작동 가능한 상태인지 확인합니다.">
<polygon fill="white" stroke="#666666" points="2085,-138 1933,-138 1933,-117 2085,-117 2085,-138"/>
<text text-anchor="middle" x="2009" y="-124.4" font-family="Consolas" font-size="12.00">Room.IsOperational</text>
</a>
</g>
</g>
<!-- Node17&#45;&gt;Node22 -->
<g id="edge27_Node000017_Node000022" class="edge">
<title>Node17&#45;&gt;Node22</title>
<g id="a_edge27_Node000017_Node000022"><a xlink:title=" ">
<path fill="none" stroke="#63b8ff" d="M1805.6,-66.05C1822.53,-69.62 1840.13,-74.32 1856,-80.5 1873.47,-87.3 1874.59,-95.54 1892,-102.5 1904.19,-107.38 1917.51,-111.37 1930.63,-114.63"/>
<polygon fill="#63b8ff" stroke="#63b8ff" points="1930.07,-118.09 1940.6,-116.98 1931.67,-111.28 1930.07,-118.09"/>
</a>
</g>
</g>
<!-- Node18&#45;&gt;Node16 -->
<g id="edge23_Node000018_Node000016" class="edge">
<title>Node18&#45;&gt;Node16</title>
<g id="a_edge23_Node000018_Node000016"><a xlink:title=" ">
<path fill="none" stroke="#63b8ff" d="M2078.39,-60.03C2094.35,-63.63 2111.04,-68.36 2126,-74.5 2173.41,-93.97 2222.48,-128.92 2249.48,-149.69"/>
<polygon fill="#63b8ff" stroke="#63b8ff" points="2247.41,-152.5 2257.45,-155.89 2251.71,-146.98 2247.41,-152.5"/>
</a>
</g>
</g>
<!-- Node19 -->
<g id="Node000019" class="node">
<title>Node19</title>
<g id="a_Node000019"><a xlink:href="classRoom.html#ae14b08f3ba19cce81b077d6fefcb1fd5" target="_top" xlink:title="현재 업그레이드 레벨을 반환합니다.">
<polygon fill="white" stroke="#666666" points="2355,-60 2188,-60 2188,-39 2355,-39 2355,-60"/>
<text text-anchor="middle" x="2271.5" y="-46.4" font-family="Consolas" font-size="12.00">Room.GetCurrentLevel</text>
</a>
</g>
</g>
<!-- Node18&#45;&gt;Node19 -->
<g id="edge22_Node000018_Node000019" class="edge">
<title>Node18&#45;&gt;Node19</title>
<g id="a_edge22_Node000018_Node000019"><a xlink:title=" ">
<path fill="none" stroke="#63b8ff" d="M2096.02,-49.5C2122.17,-49.5 2151.02,-49.5 2177.6,-49.5"/>
<polygon fill="#63b8ff" stroke="#63b8ff" points="2177.67,-53 2187.67,-49.5 2177.67,-46 2177.67,-53"/>
</a>
</g>
</g>
<!-- Node21 -->
<g id="Node000021" class="node">
<title>Node21</title>
<g id="a_Node000021"><a xlink:href="classShip.html#a84f03b9700fea23f4e8a48f1233de137" target="_top" xlink:title="그리드 좌표를 월드 좌표로 변환 ((0, 0) ~ (60, 60) 그리드 내 좌표라 local relative 좌표임)">
<polygon fill="white" stroke="#666666" points="2370,-21 2173,-21 2173,0 2370,0 2370,-21"/>
<text text-anchor="middle" x="2271.5" y="-7.4" font-family="Consolas" font-size="12.00">Ship.GridToWorldPosition</text>
</a>
</g>
</g>
<!-- Node20&#45;&gt;Node21 -->
<g id="edge26_Node000020_Node000021" class="edge">
<title>Node20&#45;&gt;Node21</title>
<g id="a_edge26_Node000020_Node000021"><a xlink:title=" ">
<path fill="none" stroke="#63b8ff" d="M2126.16,-10.5C2138.35,-10.5 2150.7,-10.5 2162.79,-10.5"/>
<polygon fill="#63b8ff" stroke="#63b8ff" points="2162.87,-14 2172.87,-10.5 2162.87,-7 2162.87,-14"/>
</a>
</g>
</g>
<!-- Node23&#45;&gt;Node5 -->
<g id="edge35_Node000023_Node000005" class="edge">
<title>Node23&#45;&gt;Node5</title>
<g id="a_edge35_Node000023_Node000005"><a xlink:title=" ">
<path fill="none" stroke="#63b8ff" d="M1225.99,-318.02C1253.4,-328.46 1297.22,-344.44 1336,-355.5 1351.77,-360 1368.98,-364.18 1385.09,-367.79"/>
<polygon fill="#63b8ff" stroke="#63b8ff" points="1384.44,-371.23 1394.95,-369.95 1385.94,-364.39 1384.44,-371.23"/>
</a>
</g>
</g>
<!-- Node23&#45;&gt;Node6 -->
<g id="edge36_Node000023_Node000006" class="edge">
<title>Node23&#45;&gt;Node6</title>
<g id="a_edge36_Node000023_Node000006"><a xlink:title=" ">
<path fill="none" stroke="#63b8ff" d="M1274.28,-316.78C1294.31,-318.96 1315.95,-321.07 1336,-322.5 1419.68,-328.47 1513.66,-331.7 1588.44,-333.45"/>
<polygon fill="#63b8ff" stroke="#63b8ff" points="1588.79,-336.96 1598.87,-333.69 1588.95,-329.96 1588.79,-336.96"/>
</a>
</g>
</g>
<!-- Node23&#45;&gt;Node12 -->
<g id="edge34_Node000023_Node000012" class="edge">
<title>Node23&#45;&gt;Node12</title>
<g id="a_edge34_Node000023_Node000012"><a xlink:title=" ">
<path fill="none" stroke="#63b8ff" d="M1234.56,-296.98C1262.09,-289.05 1301.26,-278.26 1336,-270.5 1348.14,-267.79 1361.09,-265.2 1373.72,-262.85"/>
<polygon fill="#63b8ff" stroke="#63b8ff" points="1374.55,-266.25 1383.76,-261.01 1373.29,-259.37 1374.55,-266.25"/>
</a>
</g>
</g>
<!-- Node24 -->
<g id="Node000024" class="node">
<title>Node24</title>
<g id="a_Node000024"><a xlink:href="classCrewMember.html#adf2ef6b08d0e224b1b592ee7f68a1d39" target="_top" xlink:title="현재 방에서 선원이 점유 중인 타일의 우선순위 인덱스 반환">
<polygon fill="white" stroke="#666666" points="1551.5,-313.5 1347.5,-313.5 1347.5,-279.5 1551.5,-279.5 1551.5,-313.5"/>
<text text-anchor="start" x="1355.5" y="-299.9" font-family="Consolas" font-size="12.00">CrewMember.GetCurrentTile</text>
<text text-anchor="middle" x="1449.5" y="-286.9" font-family="Consolas" font-size="12.00">PriorityIndex</text>
</a>
</g>
</g>
<!-- Node23&#45;&gt;Node24 -->
<g id="edge30_Node000023_Node000024" class="edge">
<title>Node23&#45;&gt;Node24</title>
<g id="a_edge30_Node000023_Node000024"><a xlink:title=" ">
<path fill="none" stroke="#63b8ff" d="M1274.2,-304.18C1294.02,-303.31 1315.83,-302.35 1337.11,-301.41"/>
<polygon fill="#63b8ff" stroke="#63b8ff" points="1337.34,-304.9 1347.18,-300.97 1337.03,-297.91 1337.34,-304.9"/>
</a>
</g>
</g>
<!-- Node25 -->
<g id="Node000025" class="node">
<title>Node25</title>
<g id="a_Node000025"><a xlink:href="classCrewMember.html#af4b290dc38d44cde63972f5260377c43" target="_top" xlink:title="현재 위치 반환 (가장 가까운 타일)">
<polygon fill="white" stroke="#666666" points="1829.5,-268 1625.5,-268 1625.5,-247 1829.5,-247 1829.5,-268"/>
<text text-anchor="middle" x="1727.5" y="-254.4" font-family="Consolas" font-size="12.00">CrewMember.GetCurrentTile</text>
</a>
</g>
</g>
<!-- Node24&#45;&gt;Node25 -->
<g id="edge31_Node000024_Node000025" class="edge">
<title>Node24&#45;&gt;Node25</title>
<g id="a_edge31_Node000024_Node000025"><a xlink:title=" ">
<path fill="none" stroke="#63b8ff" d="M1551.71,-282.2C1581.43,-278 1613.62,-273.45 1642.17,-269.42"/>
<polygon fill="#63b8ff" stroke="#63b8ff" points="1642.69,-272.88 1652.11,-268.01 1641.71,-265.95 1642.69,-272.88"/>
</a>
</g>
</g>
<!-- Node26 -->
<g id="Node000026" class="node">
<title>Node26</title>
<g id="a_Node000026"><a xlink:href="classRoom.html#a08dfe5c5a797aacad22c29926b3482e4" target="_top" xlink:title="방의 우선순위 타일에 따른 그리드에서의 위치 반환 (회전각 적용)">
<polygon fill="white" stroke="#666666" points="2107.5,-294.5 1910.5,-294.5 1910.5,-260.5 2107.5,-260.5 2107.5,-294.5"/>
<text text-anchor="start" x="1918.5" y="-280.9" font-family="Consolas" font-size="12.00">Room.GetRotatedCrewEntry</text>
<text text-anchor="middle" x="2009" y="-267.9" font-family="Consolas" font-size="12.00">GridPriority</text>
</a>
</g>
</g>
<!-- Node24&#45;&gt;Node26 -->
<g id="edge32_Node000024_Node000026" class="edge">
<title>Node24&#45;&gt;Node26</title>
<g id="a_edge32_Node000024_Node000026"><a xlink:title=" ">
<path fill="none" stroke="#63b8ff" d="M1551.78,-293.05C1650.27,-289.69 1799.35,-284.61 1900.05,-281.18"/>
<polygon fill="#63b8ff" stroke="#63b8ff" points="1900.37,-284.67 1910.25,-280.83 1900.13,-277.67 1900.37,-284.67"/>
</a>
</g>
</g>
<!-- Node26&#45;&gt;Node16 -->
<g id="edge33_Node000026_Node000016" class="edge">
<title>Node26&#45;&gt;Node16</title>
<g id="a_edge33_Node000026_Node000016"><a xlink:title=" ">
<path fill="none" stroke="#63b8ff" d="M2054.26,-260.49C2075.97,-252.01 2102.46,-241.46 2126,-231.5 2164.92,-215.04 2209.17,-194.92 2238.33,-181.47"/>
<polygon fill="#63b8ff" stroke="#63b8ff" points="2240.01,-184.55 2247.62,-177.18 2237.07,-178.2 2240.01,-184.55"/>
</a>
</g>
</g>
<!-- Node27&#45;&gt;Node5 -->
<g id="edge41_Node000027_Node000005" class="edge">
<title>Node27&#45;&gt;Node5</title>
<g id="a_edge41_Node000027_Node000005"><a xlink:title=" ">
<path fill="none" stroke="#63b8ff" d="M1219.42,-498.94C1263.57,-476.11 1368.07,-422.08 1419.24,-395.63"/>
<polygon fill="#63b8ff" stroke="#63b8ff" points="1420.87,-398.72 1428.15,-391.02 1417.66,-392.51 1420.87,-398.72"/>
</a>
</g>
</g>
<!-- Node28 -->
<g id="Node000028" class="node">
<title>Node28</title>
<g id="a_Node000028"><a xlink:href="classShip.html#a8ced30f0d71c2a5cf333b3de23af48f2" target="_top" xlink:title="모든 룸 정보를 반환합니다.">
<polygon fill="white" stroke="#666666" points="2077.5,-678 1940.5,-678 1940.5,-657 2077.5,-657 2077.5,-678"/>
<text text-anchor="middle" x="2009" y="-664.4" font-family="Consolas" font-size="12.00">Ship.GetAllRooms</text>
</a>
</g>
</g>
<!-- Node27&#45;&gt;Node28 -->
<g id="edge40_Node000027_Node000028" class="edge">
<title>Node27&#45;&gt;Node28</title>
<g id="a_edge40_Node000027_Node000028"><a xlink:title=" ">
<path fill="none" stroke="#63b8ff" d="M1209.81,-520.24C1253.55,-562.81 1423.44,-719.95 1599,-772.5 1708.43,-805.25 1746.96,-806.5 1856,-772.5 1910.94,-755.37 1963.54,-710.67 1990.09,-685.46"/>
<polygon fill="#63b8ff" stroke="#63b8ff" points="1992.72,-687.79 1997.46,-678.32 1987.85,-682.76 1992.72,-687.79"/>
</a>
</g>
</g>
<!-- Node29 -->
<g id="Node000029" class="node">
<title>Node29</title>
<g id="a_Node000029"><a xlink:href="classShip.html#a8f3f2bdca106f32f2d4c2b3f892a139f" target="_top" xlink:title="현재 함선의 모든 스탯을 다시 계산합니다. 방, 시스템, 선원의 기여도를 반영합니다.">
<polygon fill="white" stroke="#666666" points="1548,-587 1351,-587 1351,-566 1548,-566 1548,-587"/>
<text text-anchor="middle" x="1449.5" y="-573.4" font-family="Consolas" font-size="12.00">Ship.RecalculateAllStats</text>
</a>
</g>
</g>
<!-- Node27&#45;&gt;Node29 -->
<g id="edge42_Node000027_Node000029" class="edge">
<title>Node27&#45;&gt;Node29</title>
<g id="a_edge42_Node000027_Node000029"><a xlink:title=" ">
<path fill="none" stroke="#63b8ff" d="M1238.26,-520.04C1281.82,-531.74 1352.18,-550.63 1399.36,-563.3"/>
<polygon fill="#63b8ff" stroke="#63b8ff" points="1398.49,-566.7 1409.06,-565.91 1400.31,-559.93 1398.49,-566.7"/>
</a>
</g>
</g>
<!-- Node30 -->
<g id="Node000030" class="node">
<title>Node30</title>
<g id="a_Node000030"><a xlink:href="classMoraleSystem.html#aa5e29aef57bec024e207404bb90894b3" target="_top" xlink:title="현재 함선의 전체 사기 수치를 계산합니다. 생명유지실과 승무원 침실이 기여하며, 승무원 수가 수용 가능 인원을 초과할 경우 패널티가 적용됩니다.">
<polygon fill="white" stroke="#666666" points="1841,-528.5 1614,-528.5 1614,-494.5 1841,-494.5 1841,-528.5"/>
<text text-anchor="start" x="1622" y="-514.9" font-family="Consolas" font-size="12.00">MoraleSystem.CalculateGlobal</text>
<text text-anchor="middle" x="1727.5" y="-501.9" font-family="Consolas" font-size="12.00">Morale</text>
</a>
</g>
</g>
<!-- Node29&#45;&gt;Node30 -->
<g id="edge43_Node000029_Node000030" class="edge">
<title>Node29&#45;&gt;Node30</title>
<g id="a_edge43_Node000029_Node000030"><a xlink:title=" ">
<path fill="none" stroke="#63b8ff" d="M1489.79,-565.97C1519.66,-558.08 1561.81,-547.19 1599,-538.5 1610.08,-535.91 1621.72,-533.3 1633.28,-530.77"/>
<polygon fill="#63b8ff" stroke="#63b8ff" points="1634.37,-534.11 1643.4,-528.57 1632.89,-527.27 1634.37,-534.11"/>
</a>
</g>
</g>
<!-- Node33 -->
<g id="Node000033" class="node">
<title>Node33</title>
<g id="a_Node000033"><a xlink:href="classCrewSystem.html#a211d4d37de0e70c08101ad8733367bd7" target="_top" xlink:title="현재 탑승 중인 아군, 적군 포함 모든 크루 객체의 목록을 반환합니다.">
<polygon fill="white" stroke="#666666" points="1807,-424 1648,-424 1648,-403 1807,-403 1807,-424"/>
<text text-anchor="middle" x="1727.5" y="-410.4" font-family="Consolas" font-size="12.00">CrewSystem.GetCrews</text>
</a>
</g>
</g>
<!-- Node29&#45;&gt;Node33 -->
<g id="edge47_Node000029_Node000033" class="edge">
<title>Node29&#45;&gt;Node33</title>
<g id="a_edge47_Node000029_Node000033"><a xlink:title=" ">
<path fill="none" stroke="#63b8ff" d="M1458.01,-565.62C1477.59,-538.21 1533.29,-466.14 1599,-433.5 1611.11,-427.48 1624.6,-423.19 1638.14,-420.15"/>
<polygon fill="#63b8ff" stroke="#63b8ff" points="1638.89,-423.57 1647.99,-418.14 1637.49,-416.71 1638.89,-423.57"/>
</a>
</g>
</g>
<!-- Node34 -->
<g id="Node000034" class="node">
<title>Node34</title>
<g id="a_Node000034"><a xlink:href="classOuterHullData.html#a51ad6d062c547a1cad0fb2c08ff593eb" target="_top" xlink:title="지정한 레벨에 해당하는 외갑판 데이터를 반환합니다.">
<polygon fill="white" stroke="#666666" points="1848.5,-763 1606.5,-763 1606.5,-742 1848.5,-742 1848.5,-763"/>
<text text-anchor="middle" x="1727.5" y="-749.4" font-family="Consolas" font-size="12.00">OuterHullData.GetOuterHullData</text>
</a>
</g>
</g>
<!-- Node29&#45;&gt;Node34 -->
<g id="edge48_Node000029_Node000034" class="edge">
<title>Node29&#45;&gt;Node34</title>
<g id="a_edge48_Node000029_Node000034"><a xlink:title=" ">
<path fill="none" stroke="#63b8ff" d="M1456.91,-587.18C1475.02,-616.33 1529.8,-697.42 1599,-733.5 1602.37,-735.26 1605.86,-736.87 1609.43,-738.34"/>
<polygon fill="#63b8ff" stroke="#63b8ff" points="1608.47,-741.72 1619.06,-741.92 1610.91,-735.15 1608.47,-741.72"/>
</a>
</g>
</g>
<!-- Node35 -->
<g id="Node000035" class="node">
<title>Node35</title>
<g id="a_Node000035"><a xlink:href="classShip.html#a61cb09945d19adc35f1c2aaf845c39ce" target="_top" xlink:title="현재 함선의 외갑판 레벨을 반환합니다.">
<polygon fill="white" stroke="#666666" points="1818.5,-841 1636.5,-841 1636.5,-820 1818.5,-820 1818.5,-841"/>
<text text-anchor="middle" x="1727.5" y="-827.4" font-family="Consolas" font-size="12.00">Ship.GetOuterHullLevel</text>
</a>
</g>
</g>
<!-- Node29&#45;&gt;Node35 -->
<g id="edge49_Node000029_Node000035" class="edge">
<title>Node29&#45;&gt;Node35</title>
<g id="a_edge49_Node000029_Node000035"><a xlink:title=" ">
<path fill="none" stroke="#63b8ff" d="M1456.13,-587.32C1473.39,-619.57 1528.66,-716.23 1599,-772.5 1623.67,-792.23 1656.13,-806.87 1682.13,-816.51"/>
<polygon fill="#63b8ff" stroke="#63b8ff" points="1681.15,-819.88 1691.74,-819.96 1683.51,-813.29 1681.15,-819.88"/>
</a>
</g>
</g>
<!-- Node37 -->
<g id="Node000037" class="node">
<title>Node37</title>
<g id="a_Node000037"><a xlink:href="classCrewBase.html#a0c35d7b81e7bbda6c1187cd56da46b19" target="_top" xlink:title="선원이 함선 스탯에 기여하는 수치를 반환합니다. 예: 산소 소모량 등.">
<polygon fill="white" stroke="#666666" points="1844.5,-724 1610.5,-724 1610.5,-703 1844.5,-703 1844.5,-724"/>
<text text-anchor="middle" x="1727.5" y="-710.4" font-family="Consolas" font-size="12.00">CrewBase.GetStatContributions</text>
</a>
</g>
</g>
<!-- Node29&#45;&gt;Node37 -->
<g id="edge51_Node000029_Node000037" class="edge">
<title>Node29&#45;&gt;Node37</title>
<g id="a_edge51_Node000029_Node000037"><a xlink:title=" ">
<path fill="none" stroke="#63b8ff" d="M1460.04,-587.2C1481.93,-611 1538.59,-668.27 1599,-694.5 1603.69,-696.54 1608.56,-698.36 1613.54,-700"/>
<polygon fill="#63b8ff" stroke="#63b8ff" points="1612.65,-703.38 1623.23,-702.91 1614.66,-696.68 1612.65,-703.38"/>
</a>
</g>
</g>
<!-- Node38 -->
<g id="Node000038" class="node">
<title>Node38</title>
<g id="a_Node000038"><a xlink:href="classRoom.html#a8533094cb230185cce7735d640d950f1" target="_top" xlink:title="방이 함선 스탯에 기여하는 값을 반환합니다.">
<polygon fill="white" stroke="#666666" points="1829.5,-385 1625.5,-385 1625.5,-364 1829.5,-364 1829.5,-385"/>
<text text-anchor="middle" x="1727.5" y="-371.4" font-family="Consolas" font-size="12.00">Room.GetStatContributions</text>
</a>
</g>
</g>
<!-- Node29&#45;&gt;Node38 -->
<g id="edge52_Node000029_Node000038" class="edge">
<title>Node29&#45;&gt;Node38</title>
<g id="a_edge52_Node000029_Node000038"><a xlink:title=" ">
<path fill="none" stroke="#63b8ff" d="M1455.73,-565.58C1471.88,-533.2 1524.37,-437.33 1599,-394.5 1604.23,-391.5 1609.77,-388.91 1615.49,-386.67"/>
<polygon fill="#63b8ff" stroke="#63b8ff" points="1617,-389.85 1625.28,-383.24 1614.69,-383.25 1617,-389.85"/>
</a>
</g>
</g>
<!-- Node39 -->
<g id="Node000039" class="node">
<title>Node39</title>
<g id="a_Node000039"><a xlink:href="classShip.html#a7ce33b470844e7f8b04df7741582010a" target="_top" xlink:title="함선의 기본 스탯을 초기화합니다. 모든 ShipStat 값을 0으로 설정하여 이후 계산의 기준을 만듭니다.">
<polygon fill="white" stroke="#666666" points="1826,-685 1629,-685 1629,-664 1826,-664 1826,-685"/>
<text text-anchor="middle" x="1727.5" y="-671.4" font-family="Consolas" font-size="12.00">Ship.InitializeBaseStats</text>
</a>
</g>
</g>
<!-- Node29&#45;&gt;Node39 -->
<g id="edge55_Node000029_Node000039" class="edge">
<title>Node29&#45;&gt;Node39</title>
<g id="a_edge55_Node000029_Node000039"><a xlink:title=" ">
<path fill="none" stroke="#63b8ff" d="M1466.17,-587.18C1492.4,-604.5 1547.41,-638.5 1599,-655.5 1606.25,-657.89 1613.83,-659.98 1621.52,-661.81"/>
<polygon fill="#63b8ff" stroke="#63b8ff" points="1620.79,-665.23 1631.31,-663.98 1622.31,-658.4 1620.79,-665.23"/>
</a>
</g>
</g>
<!-- Node40 -->
<g id="Node000040" class="node">
<title>Node40</title>
<g id="a_Node000040"><a xlink:href="classShip.html#a4ef99106ff3d8b5e7149f15ff9317769" target="_top" xlink:title="주어진 ShipStat이 가산형(덧셈 방식) 스탯인지 여부를 반환합니다. 예: 쉴드 최대량, 산소 생성량 등은 단순 덧셈으로 누적됩니다.">
<polygon fill="white" stroke="#666666" points="1822,-646 1633,-646 1633,-625 1822,-625 1822,-646"/>
<text text-anchor="middle" x="1727.5" y="-632.4" font-family="Consolas" font-size="12.00">Ship.IsAdditiveStatType</text>
</a>
</g>
</g>
<!-- Node29&#45;&gt;Node40 -->
<g id="edge56_Node000029_Node000040" class="edge">
<title>Node29&#45;&gt;Node40</title>
<g id="a_edge56_Node000029_Node000040"><a xlink:title=" ">
<path fill="none" stroke="#63b8ff" d="M1485.03,-587.01C1514.96,-595.83 1559.53,-608.27 1599,-616.5 1611.01,-619 1623.73,-621.31 1636.3,-623.38"/>
<polygon fill="#63b8ff" stroke="#63b8ff" points="1635.9,-626.86 1646.33,-624.99 1637.02,-619.95 1635.9,-626.86"/>
</a>
</g>
</g>
<!-- Node41 -->
<g id="Node000041" class="node">
<title>Node41</title>
<g id="a_Node000041"><a xlink:href="classShip.html#ae9a8351b5c780010ba90040c511976f6" target="_top" xlink:title="주어진 ShipStat이 배율형(곱셈 방식) 스탯인지 여부를 반환합니다. 예: 회피율 보너스 %, 데미지 증폭 % 등이 해당됩니다. 현재는 정의된 곱셈 스탯이 없습니다.">
<polygon fill="white" stroke="#666666" points="1844.5,-607 1610.5,-607 1610.5,-586 1844.5,-586 1844.5,-607"/>
<text text-anchor="middle" x="1727.5" y="-593.4" font-family="Consolas" font-size="12.00">Ship.IsMultiplicativeStatType</text>
</a>
</g>
</g>
<!-- Node29&#45;&gt;Node41 -->
<g id="edge57_Node000029_Node000041" class="edge">
<title>Node29&#45;&gt;Node41</title>
<g id="a_edge57_Node000029_Node000041"><a xlink:title=" ">
<path fill="none" stroke="#63b8ff" d="M1548.2,-583.58C1564.92,-584.79 1582.51,-586.07 1599.85,-587.32"/>
<polygon fill="#63b8ff" stroke="#63b8ff" points="1599.8,-590.83 1610.03,-588.06 1600.31,-583.85 1599.8,-590.83"/>
</a>
</g>
</g>
<!-- Node42 -->
<g id="Node000042" class="node">
<title>Node42</title>
<g id="a_Node000042"><a xlink:href="classShip.html#ad8f70687934e3a804bf86e704ca18150" target="_top" xlink:title="현재 함선의 스탯과 룸별 스탯 기여도를 콘솔에 출력합니다. 디버깅 모드가 활성화된 경우에만 호출되며, 전체 스탯 상태를 확인할 수 있습니다.">
<polygon fill="white" stroke="#666666" points="1822,-568 1633,-568 1633,-547 1822,-547 1822,-568"/>
<text text-anchor="middle" x="1727.5" y="-554.4" font-family="Consolas" font-size="12.00">Ship.PrintDebugStatInfo</text>
</a>
</g>
</g>
<!-- Node29&#45;&gt;Node42 -->
<g id="edge58_Node000029_Node000042" class="edge">
<title>Node29&#45;&gt;Node42</title>
<g id="a_edge58_Node000029_Node000042"><a xlink:title=" ">
<path fill="none" stroke="#63b8ff" d="M1548.2,-569.77C1572.32,-568.11 1598.24,-566.33 1622.65,-564.65"/>
<polygon fill="#63b8ff" stroke="#63b8ff" points="1622.91,-568.14 1632.64,-563.96 1622.42,-561.16 1622.91,-568.14"/>
</a>
</g>
</g>
<!-- Node43 -->
<g id="Node000043" class="node">
<title>Node43</title>
<g id="a_Node000043"><a xlink:href="classMoraleManager.html#af1cb805b49d259cc84441559dd0bb1c6" target="_top" xlink:title="전체 선원 사기 한 번에 할당">
<polygon fill="white" stroke="#666666" points="1826,-476.5 1629,-476.5 1629,-442.5 1826,-442.5 1826,-476.5"/>
<text text-anchor="start" x="1637" y="-462.9" font-family="Consolas" font-size="12.00">MoraleManager.SetAllCrew</text>
<text text-anchor="middle" x="1727.5" y="-449.9" font-family="Consolas" font-size="12.00">Morale</text>
</a>
</g>
</g>
<!-- Node29&#45;&gt;Node43 -->
<g id="edge59_Node000029_Node000043" class="edge">
<title>Node29&#45;&gt;Node43</title>
<g id="a_edge59_Node000029_Node000043"><a xlink:title=" ">
<path fill="none" stroke="#63b8ff" d="M1463.97,-565.98C1489.05,-546.91 1545.27,-506.68 1599,-485.5 1605.35,-483 1611.99,-480.72 1618.74,-478.65"/>
<polygon fill="#63b8ff" stroke="#63b8ff" points="1620.07,-481.91 1628.71,-475.77 1618.13,-475.19 1620.07,-481.91"/>
</a>
</g>
</g>
<!-- Node30&#45;&gt;Node28 -->
<g id="edge44_Node000030_Node000028" class="edge">
<title>Node30&#45;&gt;Node28</title>
<g id="a_edge44_Node000030_Node000028"><a xlink:title=" ">
<path fill="none" stroke="#63b8ff" d="M1831.28,-528.54C1839.83,-531.37 1848.18,-534.66 1856,-538.5 1913.13,-566.53 1966.6,-620.84 1992.2,-649.22"/>
<polygon fill="#63b8ff" stroke="#63b8ff" points="1989.69,-651.66 1998.94,-656.81 1994.92,-647.01 1989.69,-651.66"/>
</a>
</g>
</g>
<!-- Node31 -->
<g id="Node000031" class="node">
<title>Node31</title>
<g id="a_Node000031"><a xlink:href="classShip.html#a89be268214921c4585f6b70038b98c8e" target="_top" xlink:title="현재 탑승 중인 크루 수를 반환합니다.">
<polygon fill="white" stroke="#666666" points="2081,-522 1937,-522 1937,-501 2081,-501 2081,-522"/>
<text text-anchor="middle" x="2009" y="-508.4" font-family="Consolas" font-size="12.00">Ship.GetCrewCount</text>
</a>
</g>
</g>
<!-- Node30&#45;&gt;Node31 -->
<g id="edge45_Node000030_Node000031" class="edge">
<title>Node30&#45;&gt;Node31</title>
<g id="a_edge45_Node000030_Node000031"><a xlink:title=" ">
<path fill="none" stroke="#63b8ff" d="M1841.38,-511.5C1869.99,-511.5 1900.17,-511.5 1926.86,-511.5"/>
<polygon fill="#63b8ff" stroke="#63b8ff" points="1926.91,-515 1936.91,-511.5 1926.91,-508 1926.91,-515"/>
</a>
</g>
</g>
<!-- Node32 -->
<g id="Node000032" class="node">
<title>Node32</title>
<g id="a_Node000032"><a xlink:href="classCrewSystem.html#ae270e71cdbafb68eb26d6f031758b1f5" target="_top" xlink:title="현재 탑승 중인 크루의 수를 반환합니다.">
<polygon fill="white" stroke="#666666" points="2366,-522 2177,-522 2177,-501 2366,-501 2366,-522"/>
<text text-anchor="middle" x="2271.5" y="-508.4" font-family="Consolas" font-size="12.00">CrewSystem.GetCrewCount</text>
</a>
</g>
</g>
<!-- Node31&#45;&gt;Node32 -->
<g id="edge46_Node000031_Node000032" class="edge">
<title>Node31&#45;&gt;Node32</title>
<g id="a_edge46_Node000031_Node000032"><a xlink:title=" ">
<path fill="none" stroke="#63b8ff" d="M2081.18,-511.5C2107.59,-511.5 2138.12,-511.5 2166.84,-511.5"/>
<polygon fill="#63b8ff" stroke="#63b8ff" points="2166.91,-515 2176.91,-511.5 2166.91,-508 2166.91,-515"/>
</a>
</g>
</g>
<!-- Node36 -->
<g id="Node000036" class="node">
<title>Node36</title>
<g id="a_Node000036"><a xlink:href="classOuterHullSystem.html#ab352abfc02989177392c3b60dd28ddc3" target="_top" xlink:title="외부 선체 시스템의 현재 레벨을 반환합니다.">
<polygon fill="white" stroke="#666666" points="2107.5,-847.5 1910.5,-847.5 1910.5,-813.5 2107.5,-813.5 2107.5,-847.5"/>
<text text-anchor="start" x="1918.5" y="-833.9" font-family="Consolas" font-size="12.00">OuterHullSystem.GetOuter</text>
<text text-anchor="middle" x="2009" y="-820.9" font-family="Consolas" font-size="12.00">HullLevel</text>
</a>
</g>
</g>
<!-- Node35&#45;&gt;Node36 -->
<g id="edge50_Node000035_Node000036" class="edge">
<title>Node35&#45;&gt;Node36</title>
<g id="a_edge50_Node000035_Node000036"><a xlink:title=" ">
<path fill="none" stroke="#63b8ff" d="M1818.86,-830.5C1844.74,-830.5 1873.21,-830.5 1900.04,-830.5"/>
<polygon fill="#63b8ff" stroke="#63b8ff" points="1900.23,-834 1910.23,-830.5 1900.23,-827 1900.23,-834"/>
</a>
</g>
</g>
<!-- Node38&#45;&gt;Node16 -->
<g id="edge53_Node000038_Node000016" class="edge">
<title>Node38&#45;&gt;Node16</title>
<g id="a_edge53_Node000038_Node000016"><a xlink:title=" ">
<path fill="none" stroke="#63b8ff" d="M1829.66,-372.7C1913.27,-367.5 2032.93,-351.31 2126,-303.5 2183.09,-274.17 2233.38,-215.32 2256.7,-185.2"/>
<polygon fill="#63b8ff" stroke="#63b8ff" points="2259.54,-187.25 2262.8,-177.17 2253.96,-183.02 2259.54,-187.25"/>
</a>
</g>
</g>
<!-- Node38&#45;&gt;Node22 -->
<g id="edge54_Node000038_Node000022" class="edge">
<title>Node38&#45;&gt;Node22</title>
<g id="a_edge54_Node000038_Node000022"><a xlink:title=" ">
<path fill="none" stroke="#63b8ff" d="M1829.62,-371.42C1839.34,-367.75 1848.39,-362.6 1856,-355.5 1910.25,-304.89 1847.77,-252.06 1892,-192.5 1909.8,-168.53 1939.22,-152.19 1963.98,-141.89"/>
<polygon fill="#63b8ff" stroke="#63b8ff" points="1965.54,-145.03 1973.55,-138.1 1962.97,-138.52 1965.54,-145.03"/>
</a>
</g>
</g>
<!-- Node44&#45;&gt;Node22 -->
<g id="edge61_Node000044_Node000022" class="edge">
<title>Node44&#45;&gt;Node22</title>
<g id="a_edge61_Node000044_Node000022"><a xlink:title=" ">
<path fill="none" stroke="#63b8ff" d="M598.09,-94.5C685.24,-94.5 833.28,-94.5 960.5,-94.5 960.5,-94.5 960.5,-94.5 1450.5,-94.5 1618.09,-94.5 1813.54,-109.54 1922.81,-119.32"/>
<polygon fill="#63b8ff" stroke="#63b8ff" points="1922.52,-122.81 1932.79,-120.22 1923.14,-115.83 1922.52,-122.81"/>
</a>
</g>
</g>
</g>
</svg>
