<?xml version="1.0" encoding="UTF-8" standalone="no"?>
<!DOCTYPE svg PUBLIC "-//W3C//DTD SVG 1.1//EN"
 "http://www.w3.org/Graphics/SVG/1.1/DTD/svg11.dtd">
<!-- Generated by graphviz version 2.43.0 (0)
 -->
<!-- Title: NodePlacementMap.TryPlaceNode Pages: 1 -->
<svg width="512pt" height="186pt"
 viewBox="0.00 0.00 512.00 185.50" xmlns="http://www.w3.org/2000/svg" xmlns:xlink="http://www.w3.org/1999/xlink">
<g id="graph0" class="graph" transform="scale(1 1) rotate(0) translate(4 181.5)">
<title>NodePlacementMap.TryPlaceNode</title>
<!-- Node1 -->
<g id="Node000001" class="node">
<title>Node1</title>
<g id="a_Node000001"><a xlink:title="노드 배치를 시도합니다.">
<polygon fill="#999999" stroke="#666666" points="234,-105.5 0,-105.5 0,-84.5 234,-84.5 234,-105.5"/>
<text text-anchor="middle" x="117" y="-91.9" font-family="Consolas" font-size="12.00">NodePlacementMap.TryPlaceNode</text>
</a>
</g>
</g>
<!-- Node2 -->
<g id="Node000002" class="node">
<title>Node2</title>
<g id="a_Node000002"><a xlink:href="classNodePlacementMap.html#ad7eb47c7b627234d1233cecf5ec7ba34" target="_top" xlink:title="실제 노드를 생성하여 UI에 배치합니다.">
<polygon fill="white" stroke="#666666" points="504,-177.5 270,-177.5 270,-156.5 504,-156.5 504,-177.5"/>
<text text-anchor="middle" x="387" y="-163.9" font-family="Consolas" font-size="12.00">NodePlacementMap.CreateNodeUI</text>
</a>
</g>
</g>
<!-- Node1&#45;&gt;Node2 -->
<g id="edge1_Node000001_Node000002" class="edge">
<title>Node1&#45;&gt;Node2</title>
<g id="a_edge1_Node000001_Node000002"><a xlink:title=" ">
<path fill="none" stroke="#63b8ff" d="M144.52,-105.51C174.55,-117.08 225.14,-135.54 270,-147 280.95,-149.8 292.58,-152.32 304.09,-154.56"/>
<polygon fill="#63b8ff" stroke="#63b8ff" points="303.68,-158.04 314.15,-156.45 304.97,-151.16 303.68,-158.04"/>
</a>
</g>
</g>
<!-- Node3 -->
<g id="Node000003" class="node">
<title>Node3</title>
<g id="a_Node000003"><a xlink:href="classNodePlacementMap.html#a8b0d850d202d7832b7b8f5da17d2173b" target="_top" xlink:title="주어진 위치가 위험지역 안에 있는지 확인합니다.">
<polygon fill="white" stroke="#666666" points="496.5,-138 277.5,-138 277.5,-104 496.5,-104 496.5,-138"/>
<text text-anchor="start" x="285.5" y="-124.4" font-family="Consolas" font-size="12.00">NodePlacementMap.IsPosition</text>
<text text-anchor="middle" x="387" y="-111.4" font-family="Consolas" font-size="12.00">InDangerZone</text>
</a>
</g>
</g>
<!-- Node1&#45;&gt;Node3 -->
<g id="edge2_Node000001_Node000003" class="edge">
<title>Node1&#45;&gt;Node3</title>
<g id="a_edge2_Node000001_Node000003"><a xlink:title=" ">
<path fill="none" stroke="#63b8ff" d="M226.23,-105.5C239.66,-106.8 253.45,-108.14 267.03,-109.46"/>
<polygon fill="#63b8ff" stroke="#63b8ff" points="267.07,-112.98 277.36,-110.46 267.75,-106.01 267.07,-112.98"/>
</a>
</g>
</g>
<!-- Node4 -->
<g id="Node000004" class="node">
<title>Node4</title>
<g id="a_Node000004"><a xlink:href="classNodePlacementMap.html#a946ab0f1206a7208373a06e44523207e" target="_top" xlink:title="주어진 위치가 현재 배치 기준점으로부터 유효한 거리인지 확인합니다.">
<polygon fill="white" stroke="#666666" points="485.5,-86 288.5,-86 288.5,-52 485.5,-52 485.5,-86"/>
<text text-anchor="start" x="296.5" y="-72.4" font-family="Consolas" font-size="12.00">NodePlacementMap.IsValid</text>
<text text-anchor="middle" x="387" y="-59.4" font-family="Consolas" font-size="12.00">Placement</text>
</a>
</g>
</g>
<!-- Node1&#45;&gt;Node4 -->
<g id="edge3_Node000001_Node000004" class="edge">
<title>Node1&#45;&gt;Node4</title>
<g id="a_edge3_Node000001_Node000004"><a xlink:title=" ">
<path fill="none" stroke="#63b8ff" d="M226.23,-84.5C243.36,-82.84 261.06,-81.12 278.18,-79.46"/>
<polygon fill="#63b8ff" stroke="#63b8ff" points="278.56,-82.94 288.17,-78.49 277.88,-75.97 278.56,-82.94"/>
</a>
</g>
</g>
<!-- Node5 -->
<g id="Node000005" class="node">
<title>Node5</title>
<g id="a_Node000005"><a xlink:href="classNodePlacementMap.html#a1ee46cf2ebec4644cfb17ae06e61cafa" target="_top" xlink:title="유효 범위 표시기의 위치를 업데이트합니다.">
<polygon fill="white" stroke="#666666" points="500.5,-34 273.5,-34 273.5,0 500.5,0 500.5,-34"/>
<text text-anchor="start" x="281.5" y="-20.4" font-family="Consolas" font-size="12.00">NodePlacementMap.UpdateValid</text>
<text text-anchor="middle" x="387" y="-7.4" font-family="Consolas" font-size="12.00">RangeIndicator</text>
</a>
</g>
</g>
<!-- Node1&#45;&gt;Node5 -->
<g id="edge4_Node000001_Node000005" class="edge">
<title>Node1&#45;&gt;Node5</title>
<g id="a_edge4_Node000001_Node000005"><a xlink:title=" ">
<path fill="none" stroke="#63b8ff" d="M145.73,-84.49C175.98,-73.27 225.98,-55.42 270,-43 277.99,-40.74 286.34,-38.55 294.74,-36.47"/>
<polygon fill="#63b8ff" stroke="#63b8ff" points="295.7,-39.83 304.59,-34.06 294.05,-33.03 295.7,-39.83"/>
</a>
</g>
</g>
</g>
</svg>
