<?xml version="1.0" encoding="UTF-8" standalone="no"?>
<!DOCTYPE svg PUBLIC "-//W3C//DTD SVG 1.1//EN"
 "http://www.w3.org/Graphics/SVG/1.1/DTD/svg11.dtd">
<!-- Generated by graphviz version 2.43.0 (0)
 -->
<!-- Title: BlueprintWeaponInventoryUI Pages: 1 -->
<svg width="254pt" height="308pt"
 viewBox="0.00 0.00 254.00 308.00" xmlns="http://www.w3.org/2000/svg" xmlns:xlink="http://www.w3.org/1999/xlink">
<g id="graph0" class="graph" transform="scale(1 1) rotate(0) translate(4 304)">
<title>BlueprintWeaponInventoryUI</title>
<!-- Node1 -->
<g id="Node000001" class="node">
<title>Node1</title>
<g id="a_Node000001"><a xlink:title="무기 인벤토리 UI: ShipWeaponDatabase에서 모든 무기를 불러와 UI로 나열.">
<polygon fill="#999999" stroke="transparent" points="246,-209 0,-209 0,0 246,0 246,-209"/>
<text text-anchor="start" x="25" y="-194.9" font-family="Consolas" font-size="12.00">BlueprintWeaponInventoryUI</text>
<text text-anchor="start" x="4" y="-177.9" font-family="Consolas" font-size="12.00">+</text>
<text text-anchor="start" x="16" y="-177.9" font-family="Consolas" font-size="12.00">ShipWeaponDatabase</text>
<text text-anchor="start" x="16" y="-164.9" font-family="Consolas" font-size="12.00"> weaponDatabase</text>
<text text-anchor="start" x="4" y="-147.9" font-family="Consolas" font-size="12.00">+</text>
<text text-anchor="start" x="16" y="-147.9" font-family="Consolas" font-size="12.00">Transform contentRoot</text>
<text text-anchor="start" x="4" y="-130.9" font-family="Consolas" font-size="12.00">+</text>
<text text-anchor="start" x="16" y="-130.9" font-family="Consolas" font-size="12.00">GameObject weaponButtonPrefab</text>
<text text-anchor="start" x="4" y="-113.9" font-family="Consolas" font-size="12.00">+</text>
<text text-anchor="start" x="16" y="-113.9" font-family="Consolas" font-size="12.00">BlueprintWeaponDragHandler</text>
<text text-anchor="start" x="16" y="-100.9" font-family="Consolas" font-size="12.00"> dragHandler</text>
<text text-anchor="start" x="4" y="-83.9" font-family="Consolas" font-size="12.00">+</text>
<text text-anchor="start" x="16" y="-83.9" font-family="Consolas" font-size="12.00">BlueprintCategoryButtonHandler</text>
<text text-anchor="start" x="16" y="-70.9" font-family="Consolas" font-size="12.00"> categoryButtonHandler</text>
<text text-anchor="start" x="4" y="-53.9" font-family="Consolas" font-size="12.00">+</text>
<text text-anchor="start" x="16" y="-53.9" font-family="Consolas" font-size="12.00">bool filterByType</text>
<text text-anchor="start" x="4" y="-36.9" font-family="Consolas" font-size="12.00">+</text>
<text text-anchor="start" x="16" y="-36.9" font-family="Consolas" font-size="12.00">ShipWeaponType weaponType</text>
<text text-anchor="start" x="16" y="-23.9" font-family="Consolas" font-size="12.00">Filter</text>
<text text-anchor="start" x="4" y="-6.9" font-family="Consolas" font-size="12.00">+</text>
<text text-anchor="start" x="16" y="-6.9" font-family="Consolas" font-size="12.00">void LoadWeapons()</text>
<polygon fill="#666666" stroke="#666666" points="0,-189.5 0,-189.5 246,-189.5 246,-189.5 0,-189.5"/>
<polygon fill="#666666" stroke="#666666" points="0,-18.5 0,-18.5 14,-18.5 14,-18.5 0,-18.5"/>
<polygon fill="#666666" stroke="#666666" points="14,-18.5 14,-18.5 246,-18.5 246,-18.5 14,-18.5"/>
<polygon fill="none" stroke="#666666" points="0,0 0,-209 246,-209 246,0 0,0"/>
</a>
</g>
</g>
<!-- Node2 -->
<g id="Node000002" class="node">
<title>Node2</title>
<g id="a_Node000002"><a xlink:title=" ">
<polygon fill="white" stroke="transparent" points="177,-300 69,-300 69,-245 177,-245 177,-300"/>
<text text-anchor="start" x="74" y="-285.9" font-family="Consolas" font-size="12.00">MonoBehaviour</text>
<text text-anchor="start" x="119" y="-268.9" font-family="Consolas" font-size="12.00"> </text>
<text text-anchor="start" x="119" y="-251.9" font-family="Consolas" font-size="12.00"> </text>
<polygon fill="#bfbfbf" stroke="#bfbfbf" points="69,-280.5 69,-280.5 177,-280.5 177,-280.5 69,-280.5"/>
<polygon fill="#bfbfbf" stroke="#bfbfbf" points="69,-263.5 69,-263.5 177,-263.5 177,-263.5 69,-263.5"/>
<polygon fill="none" stroke="#bfbfbf" points="69,-245 69,-300 177,-300 177,-245 69,-245"/>
</a>
</g>
</g>
<!-- Node2&#45;&gt;Node1 -->
<g id="edge1_Node000001_Node000002" class="edge">
<title>Node2&#45;&gt;Node1</title>
<g id="a_edge1_Node000001_Node000002"><a xlink:title=" ">
<path fill="none" stroke="#63b8ff" d="M123,-234.71C123,-226.89 123,-218.27 123,-209.3"/>
<polygon fill="none" stroke="#63b8ff" points="119.5,-234.83 123,-244.83 126.5,-234.83 119.5,-234.83"/>
</a>
</g>
</g>
</g>
</svg>
