<?xml version="1.0" encoding="UTF-8" standalone="no"?>
<!DOCTYPE svg PUBLIC "-//W3C//DTD SVG 1.1//EN"
 "http://www.w3.org/Graphics/SVG/1.1/DTD/svg11.dtd">
<!-- Generated by graphviz version 2.43.0 (0)
 -->
<!-- Title: RoomDatabase.StorageRoomDataEntry Pages: 1 -->
<!--zoomable 1285 -->

<svg id="main" version="1.1" xmlns="http://www.w3.org/2000/svg" xmlns:xlink="http://www.w3.org/1999/xlink" xml:space="preserve" onload="init(evt)">
<style type="text/css"><![CDATA[
.node, .edge {opacity: 0.7;}
.node.selected, .edge.selected {opacity: 1;}
.edge:hover path { stroke: red; }
.edge:hover polygon { stroke: red; fill: red; }
]]></style>

<defs>
  <circle id="rim" cx="0" cy="0" r="7"/>
  <circle id="rim2" cx="0" cy="0" r="3.5"/>
  <g id="zoomPlus">
    <use xlink:href="#rim" fill="#404040"><set attributeName="fill" to="#808080" begin="zoomplus.mouseover" end="zoomplus.mouseout"/></use>
    <path d="M-4,0h8M0,-4v8" fill="none" stroke="white" stroke-width="1.5" pointer-events="none"/>
  </g>
  <g id="zoomMin">
    <use xlink:href="#rim" fill="#404040"><set attributeName="fill" to="#808080" begin="zoomminus.mouseover" end="zoomminus.mouseout"/></use>
    <path d="M-4,0h8" fill="none" stroke="white" stroke-width="1.5" pointer-events="none"/>
  </g>
  <g id="arrowUp" transform="translate(30 24)">
    <use xlink:href="#rim"/>
    <path pointer-events="none" fill="none" stroke="white" stroke-width="1.5" d="M0,-3.0v7 M-2.5,-0.5L0,-3.0L2.5,-0.5"/>
  </g>
  <g id="arrowRight" transform="rotate(90) translate(36 -43)">
    <use xlink:href="#rim"/>
    <path pointer-events="none" fill="none" stroke="white" stroke-width="1.5" d="M0,-3.0v7 M-2.5,-0.5L0,-3.0L2.5,-0.5"/>
  </g>
  <g id="arrowDown" transform="rotate(180) translate(-30 -48)">
    <use xlink:href="#rim"/>
    <path pointer-events="none" fill="none" stroke="white" stroke-width="1.5" d="M0,-3.0v7 M-2.5,-0.5L0,-3.0L2.5,-0.5"/>
  </g>
  <g id="arrowLeft" transform="rotate(270) translate(-36 17)">
    <use xlink:href="#rim"/>
    <path pointer-events="none" fill="none" stroke="white" stroke-width="1.5" d="M0,-3.0v7 M-2.5,-0.5L0,-3.0L2.5,-0.5"/>
  </g>
  <g id="resetDef">
    <use xlink:href="#rim2" fill="#404040"><set attributeName="fill" to="#808080" begin="reset.mouseover" end="reset.mouseout"/></use>
  </g>
</defs>
<script type="application/ecmascript">
var viewWidth = 524;
var viewHeight = 1285;
var sectionId = 'dynsection-0';
</script>
<script type="application/ecmascript" xlink:href="svg.min.js"/>
<svg id="graph" class="graph">
<g id="viewport">
<title>RoomDatabase.StorageRoomDataEntry</title>
<!-- Node1 -->
<g id="Node000001" class="node">
<title>Node1</title>
<g id="a_Node000001"><a xlink:title=" ">
<polygon fill="#999999" stroke="transparent" points="264.5,-85 71.5,-85 71.5,0 264.5,0 264.5,-85"/>
<text text-anchor="start" x="78" y="-70.9" font-family="Consolas" font-size="12.00">RoomDatabase.StorageRoom</text>
<text text-anchor="start" x="134.5" y="-57.9" font-family="Consolas" font-size="12.00">DataEntry</text>
<text text-anchor="start" x="76" y="-40.9" font-family="Consolas" font-size="12.00">+</text>
<text text-anchor="start" x="88" y="-40.9" font-family="Consolas" font-size="12.00">StorageType storageType</text>
<text text-anchor="start" x="76" y="-23.9" font-family="Consolas" font-size="12.00">+</text>
<text text-anchor="start" x="88" y="-23.9" font-family="Consolas" font-size="12.00">StorageSize size</text>
<text text-anchor="start" x="164.5" y="-6.9" font-family="Consolas" font-size="12.00"> </text>
<polygon fill="#666666" stroke="#666666" points="72,-52.5 72,-52.5 265,-52.5 265,-52.5 72,-52.5"/>
<polygon fill="#666666" stroke="#666666" points="72,-18.5 72,-18.5 86,-18.5 86,-18.5 72,-18.5"/>
<polygon fill="#666666" stroke="#666666" points="86,-18.5 86,-18.5 265,-18.5 265,-18.5 86,-18.5"/>
<polygon fill="none" stroke="#666666" points="71.5,0 71.5,-85 264.5,-85 264.5,0 71.5,0"/>
</a>
</g>
</g>
<!-- Node2 -->
<g id="Node000002" class="node">
<title>Node2</title>
<g id="a_Node000002"><a xlink:href="classStorageRoomBaseData.html" target="_top" xlink:title="모든 창고 타입의 기본 데이터를 저장하는 ScriptableObject. 창고는 레벨이 아닌 종류로 구분되며, ScriptableObject 인스턴스에 직접 데이터 입력이 필요합니다...">
<polygon fill="white" stroke="transparent" points="283.5,-221 52.5,-221 52.5,-136 283.5,-136 283.5,-221"/>
<text text-anchor="start" x="97" y="-206.9" font-family="Consolas" font-size="12.00">StorageRoomBaseData</text>
<text text-anchor="start" x="57" y="-189.9" font-family="Consolas" font-size="12.00">+</text>
<text text-anchor="start" x="69" y="-189.9" font-family="Consolas" font-size="12.00">StorageType storageType</text>
<text text-anchor="start" x="57" y="-172.9" font-family="Consolas" font-size="12.00">+</text>
<text text-anchor="start" x="69" y="-172.9" font-family="Consolas" font-size="12.00">StorageType GetStorageType()</text>
<text text-anchor="start" x="57" y="-155.9" font-family="Consolas" font-size="12.00">#</text>
<text text-anchor="start" x="69" y="-155.9" font-family="Consolas" font-size="12.00">override void Initialize</text>
<text text-anchor="start" x="69" y="-142.9" font-family="Consolas" font-size="12.00">DefaultLevels()</text>
<polygon fill="#666666" stroke="#666666" points="53,-201.5 53,-201.5 284,-201.5 284,-201.5 53,-201.5"/>
<polygon fill="#666666" stroke="#666666" points="53,-184.5 53,-184.5 67,-184.5 67,-184.5 53,-184.5"/>
<polygon fill="#666666" stroke="#666666" points="67,-184.5 67,-184.5 284,-184.5 284,-184.5 67,-184.5"/>
<polygon fill="none" stroke="#666666" points="52.5,-136 52.5,-221 283.5,-221 283.5,-136 52.5,-136"/>
</a>
</g>
</g>
<!-- Node2&#45;&gt;Node1 -->
<g id="edge1_Node000001_Node000002" class="edge">
<title>Node2&#45;&gt;Node1</title>
<g id="a_edge1_Node000001_Node000002"><a xlink:title=" ">
<path fill="none" stroke="#63b8ff" d="M168,-135.84C168,-123.61 168,-110.06 168,-97.2"/>
<polygon fill="none" stroke="#63b8ff" points="168,-97.14 164,-91.14 168,-85.14 172,-91.14 168,-97.14"/>
</a>
</g>
<text text-anchor="middle" x="209.5" y="-106.8" font-family="Consolas" font-size="14.00" fill="grey"> +roomData</text>
</g>
<!-- Node3 -->
<g id="Node000003" class="node">
<title>Node3</title>
<g id="a_Node000003"><a xlink:href="classRoomData.html" target="_top" xlink:title=" ">
<polygon fill="white" stroke="transparent" points="336,-695 0,-695 0,-258 336,-258 336,-695"/>
<text text-anchor="start" x="66.5" y="-680.9" font-family="Consolas" font-size="12.00">RoomData&lt; StorageRoomBase</text>
<text text-anchor="start" x="66.5" y="-667.9" font-family="Consolas" font-size="12.00">Data.StorageRoomBaseLevel &gt;</text>
<text text-anchor="start" x="4" y="-650.9" font-family="Consolas" font-size="12.00">+</text>
<text text-anchor="start" x="16" y="-650.9" font-family="Consolas" font-size="12.00">List&lt; T &gt; RoomLevels</text>
<text text-anchor="start" x="4" y="-633.9" font-family="Consolas" font-size="12.00">+</text>
<text text-anchor="start" x="16" y="-633.9" font-family="Consolas" font-size="12.00">List&lt; RoomLevel &gt; GetAll</text>
<text text-anchor="start" x="16" y="-620.9" font-family="Consolas" font-size="12.00">Levels()</text>
<text text-anchor="start" x="4" y="-603.9" font-family="Consolas" font-size="12.00">+</text>
<text text-anchor="start" x="16" y="-603.9" font-family="Consolas" font-size="12.00">override List&lt; RoomLevel</text>
<text text-anchor="start" x="16" y="-590.9" font-family="Consolas" font-size="12.00"> &gt; GetAllLevels()</text>
<text text-anchor="start" x="4" y="-573.9" font-family="Consolas" font-size="12.00">+</text>
<text text-anchor="start" x="16" y="-573.9" font-family="Consolas" font-size="12.00">RoomLevel GetRoomDataByLevel</text>
<text text-anchor="start" x="16" y="-560.9" font-family="Consolas" font-size="12.00">(int level)</text>
<text text-anchor="start" x="4" y="-543.9" font-family="Consolas" font-size="12.00">+</text>
<text text-anchor="start" x="16" y="-543.9" font-family="Consolas" font-size="12.00">override RoomLevel</text>
<text text-anchor="start" x="16" y="-530.9" font-family="Consolas" font-size="12.00"> GetRoomDataByLevel</text>
<text text-anchor="start" x="16" y="-517.9" font-family="Consolas" font-size="12.00">(int level)</text>
<text text-anchor="start" x="4" y="-500.9" font-family="Consolas" font-size="12.00">+</text>
<text text-anchor="start" x="16" y="-500.9" font-family="Consolas" font-size="12.00">RoomType GetRoomType()</text>
<text text-anchor="start" x="4" y="-483.9" font-family="Consolas" font-size="12.00">+</text>
<text text-anchor="start" x="16" y="-483.9" font-family="Consolas" font-size="12.00">List&lt; DoorPosition</text>
<text text-anchor="start" x="16" y="-470.9" font-family="Consolas" font-size="12.00"> &gt; GetDoorPositionsWithDirection</text>
<text text-anchor="start" x="16" y="-457.9" font-family="Consolas" font-size="12.00">(int levelIndex, Vector2Int</text>
<text text-anchor="start" x="16" y="-444.9" font-family="Consolas" font-size="12.00"> originalPos, Constants.Rotations.Rotation</text>
<text text-anchor="start" x="16" y="-431.9" font-family="Consolas" font-size="12.00"> rotation)</text>
<text text-anchor="start" x="4" y="-414.9" font-family="Consolas" font-size="12.00">+</text>
<text text-anchor="start" x="16" y="-414.9" font-family="Consolas" font-size="12.00">T GetTypedRoomData</text>
<text text-anchor="start" x="16" y="-401.9" font-family="Consolas" font-size="12.00">(int level)</text>
<text text-anchor="start" x="4" y="-384.9" font-family="Consolas" font-size="12.00">#</text>
<text text-anchor="start" x="16" y="-384.9" font-family="Consolas" font-size="12.00">void InitializeDefaultLevels()</text>
<text text-anchor="start" x="4" y="-367.9" font-family="Consolas" font-size="12.00">#</text>
<text text-anchor="start" x="16" y="-367.9" font-family="Consolas" font-size="12.00">virtual void OnEnable()</text>
<text text-anchor="start" x="4" y="-350.9" font-family="Consolas" font-size="12.00">#</text>
<text text-anchor="start" x="16" y="-350.9" font-family="Consolas" font-size="12.00">bool CheckIfNeedsInitialization()</text>
<text text-anchor="start" x="4" y="-333.9" font-family="Consolas" font-size="12.00">#</text>
<text text-anchor="start" x="16" y="-333.9" font-family="Consolas" font-size="12.00">override bool CheckIfNeeds</text>
<text text-anchor="start" x="16" y="-320.9" font-family="Consolas" font-size="12.00">Initialization()</text>
<text text-anchor="start" x="4" y="-303.9" font-family="Consolas" font-size="12.00">&#45;</text>
<text text-anchor="start" x="16" y="-303.9" font-family="Consolas" font-size="12.00">DoorDirection LocalDirTo</text>
<text text-anchor="start" x="16" y="-290.9" font-family="Consolas" font-size="12.00">WorldDir(DoorDirection</text>
<text text-anchor="start" x="16" y="-277.9" font-family="Consolas" font-size="12.00"> localDir, Constants.Rotations.</text>
<text text-anchor="start" x="16" y="-264.9" font-family="Consolas" font-size="12.00">Rotation rotation)</text>
<polygon fill="#666666" stroke="#666666" points="0,-662.5 0,-662.5 336,-662.5 336,-662.5 0,-662.5"/>
<polygon fill="#666666" stroke="#666666" points="0,-645.5 0,-645.5 14,-645.5 14,-645.5 0,-645.5"/>
<polygon fill="#666666" stroke="#666666" points="14,-645.5 14,-645.5 336,-645.5 336,-645.5 14,-645.5"/>
<polygon fill="none" stroke="#666666" points="0,-258 0,-695 336,-695 336,-258 0,-258"/>
</a>
</g>
</g>
<!-- Node3&#45;&gt;Node2 -->
<g id="edge2_Node000002_Node000003" class="edge">
<title>Node3&#45;&gt;Node2</title>
<g id="a_edge2_Node000002_Node000003"><a xlink:title=" ">
<path fill="none" stroke="#63b8ff" d="M168,-247.5C168,-237.96 168,-229.06 168,-221.04"/>
<polygon fill="none" stroke="#63b8ff" points="164.5,-247.66 168,-257.66 171.5,-247.66 164.5,-247.66"/>
</a>
</g>
</g>
<!-- Node4 -->
<g id="Node000004" class="node">
<title>Node4</title>
<g id="a_Node000004"><a xlink:title=" ">
<polygon fill="white" stroke="transparent" points="229.5,-1277 98.5,-1277 98.5,-1222 229.5,-1222 229.5,-1277"/>
<text text-anchor="start" x="104" y="-1262.9" font-family="Consolas" font-size="12.00">ScriptableObject</text>
<text text-anchor="start" x="160.5" y="-1245.9" font-family="Consolas" font-size="12.00"> </text>
<text text-anchor="start" x="160.5" y="-1228.9" font-family="Consolas" font-size="12.00"> </text>
<polygon fill="#bfbfbf" stroke="#bfbfbf" points="99,-1257.5 99,-1257.5 230,-1257.5 230,-1257.5 99,-1257.5"/>
<polygon fill="#bfbfbf" stroke="#bfbfbf" points="99,-1240.5 99,-1240.5 230,-1240.5 230,-1240.5 99,-1240.5"/>
<polygon fill="none" stroke="#bfbfbf" points="98.5,-1222 98.5,-1277 229.5,-1277 229.5,-1222 98.5,-1222"/>
</a>
</g>
</g>
<!-- Node4&#45;&gt;Node3 -->
<g id="edge3_Node000003_Node000004" class="edge">
<title>Node4&#45;&gt;Node3</title>
<g id="a_edge3_Node000003_Node000004"><a xlink:title=" ">
<path fill="none" stroke="#63b8ff" d="M164.19,-1211.84C164.66,-1120.5 165.93,-877.08 166.87,-695.37"/>
<polygon fill="none" stroke="#63b8ff" points="160.69,-1211.94 164.14,-1221.96 167.69,-1211.98 160.69,-1211.94"/>
</a>
</g>
</g>
<!-- Node5 -->
<g id="Node000005" class="node">
<title>Node5</title>
<g id="a_Node000005"><a xlink:href="classRoomData.html" target="_top" xlink:title="모든 방 유형의 기본 데이터를 정의하는 추상 ScriptableObject. 방의 레벨별 속성, 체력, 크기, 요구 자원 등을 설정합니다.">
<polygon fill="white" stroke="transparent" points="516,-1185 180,-1185 180,-761 516,-761 516,-1185"/>
<text text-anchor="start" x="299" y="-1171.4" font-family="Consolas" font-size="12.00">RoomData&lt; T &gt;</text>
<text text-anchor="start" x="184" y="-1154.4" font-family="Consolas" font-size="12.00">+</text>
<text text-anchor="start" x="196" y="-1154.4" font-family="Consolas" font-size="12.00">List&lt; T &gt; RoomLevels</text>
<text text-anchor="start" x="184" y="-1137.4" font-family="Consolas" font-size="12.00">+</text>
<text text-anchor="start" x="196" y="-1137.4" font-family="Consolas" font-size="12.00">List&lt; RoomLevel &gt; GetAll</text>
<text text-anchor="start" x="196" y="-1124.4" font-family="Consolas" font-size="12.00">Levels()</text>
<text text-anchor="start" x="184" y="-1107.4" font-family="Consolas" font-size="12.00">+</text>
<text text-anchor="start" x="196" y="-1107.4" font-family="Consolas" font-size="12.00">RoomLevel GetRoomDataByLevel</text>
<text text-anchor="start" x="196" y="-1094.4" font-family="Consolas" font-size="12.00">(int level)</text>
<text text-anchor="start" x="184" y="-1077.4" font-family="Consolas" font-size="12.00">+</text>
<text text-anchor="start" x="196" y="-1077.4" font-family="Consolas" font-size="12.00">RoomType GetRoomType()</text>
<text text-anchor="start" x="184" y="-1060.4" font-family="Consolas" font-size="12.00">+</text>
<text text-anchor="start" x="196" y="-1060.4" font-family="Consolas" font-size="12.00">List&lt; DoorPosition</text>
<text text-anchor="start" x="196" y="-1047.4" font-family="Consolas" font-size="12.00"> &gt; GetDoorPositionsWithDirection</text>
<text text-anchor="start" x="196" y="-1034.4" font-family="Consolas" font-size="12.00">(int levelIndex, Vector2Int</text>
<text text-anchor="start" x="196" y="-1021.4" font-family="Consolas" font-size="12.00"> originalPos, Constants.Rotations.Rotation</text>
<text text-anchor="start" x="196" y="-1008.4" font-family="Consolas" font-size="12.00"> rotation)</text>
<text text-anchor="start" x="184" y="-991.4" font-family="Consolas" font-size="12.00">+</text>
<text text-anchor="start" x="196" y="-991.4" font-family="Consolas" font-size="12.00">override List&lt; RoomLevel</text>
<text text-anchor="start" x="196" y="-978.4" font-family="Consolas" font-size="12.00"> &gt; GetAllLevels()</text>
<text text-anchor="start" x="184" y="-961.4" font-family="Consolas" font-size="12.00">+</text>
<text text-anchor="start" x="196" y="-961.4" font-family="Consolas" font-size="12.00">override RoomLevel</text>
<text text-anchor="start" x="196" y="-948.4" font-family="Consolas" font-size="12.00"> GetRoomDataByLevel</text>
<text text-anchor="start" x="196" y="-935.4" font-family="Consolas" font-size="12.00">(int level)</text>
<text text-anchor="start" x="184" y="-918.4" font-family="Consolas" font-size="12.00">+</text>
<text text-anchor="start" x="196" y="-918.4" font-family="Consolas" font-size="12.00">T GetTypedRoomData</text>
<text text-anchor="start" x="196" y="-905.4" font-family="Consolas" font-size="12.00">(int level)</text>
<text text-anchor="start" x="184" y="-888.4" font-family="Consolas" font-size="12.00">#</text>
<text text-anchor="start" x="196" y="-888.4" font-family="Consolas" font-size="12.00">void InitializeDefaultLevels()</text>
<text text-anchor="start" x="184" y="-871.4" font-family="Consolas" font-size="12.00">#</text>
<text text-anchor="start" x="196" y="-871.4" font-family="Consolas" font-size="12.00">virtual void OnEnable()</text>
<text text-anchor="start" x="184" y="-854.4" font-family="Consolas" font-size="12.00">#</text>
<text text-anchor="start" x="196" y="-854.4" font-family="Consolas" font-size="12.00">bool CheckIfNeedsInitialization()</text>
<text text-anchor="start" x="184" y="-837.4" font-family="Consolas" font-size="12.00">#</text>
<text text-anchor="start" x="196" y="-837.4" font-family="Consolas" font-size="12.00">override bool CheckIfNeeds</text>
<text text-anchor="start" x="196" y="-824.4" font-family="Consolas" font-size="12.00">Initialization()</text>
<text text-anchor="start" x="184" y="-807.4" font-family="Consolas" font-size="12.00">&#45;</text>
<text text-anchor="start" x="196" y="-807.4" font-family="Consolas" font-size="12.00">DoorDirection LocalDirTo</text>
<text text-anchor="start" x="196" y="-794.4" font-family="Consolas" font-size="12.00">WorldDir(DoorDirection</text>
<text text-anchor="start" x="196" y="-781.4" font-family="Consolas" font-size="12.00"> localDir, Constants.Rotations.</text>
<text text-anchor="start" x="196" y="-768.4" font-family="Consolas" font-size="12.00">Rotation rotation)</text>
<polygon fill="#666666" stroke="#666666" points="180,-1166 180,-1166 516,-1166 516,-1166 180,-1166"/>
<polygon fill="#666666" stroke="#666666" points="180,-1149 180,-1149 194,-1149 194,-1149 180,-1149"/>
<polygon fill="#666666" stroke="#666666" points="194,-1149 194,-1149 516,-1149 516,-1149 194,-1149"/>
<polygon fill="none" stroke="#666666" points="180,-761 180,-1185 516,-1185 516,-761 180,-761"/>
</a>
</g>
</g>
<!-- Node4&#45;&gt;Node5 -->
<g id="edge5_Node000005_Node000004" class="edge">
<title>Node4&#45;&gt;Node5</title>
<g id="a_edge5_Node000005_Node000004"><a xlink:title=" ">
<path fill="none" stroke="#63b8ff" d="M187.7,-1213.14C193.27,-1204.84 199.59,-1195.4 206.44,-1185.18"/>
<polygon fill="none" stroke="#63b8ff" points="184.64,-1211.42 181.98,-1221.68 190.45,-1215.32 184.64,-1211.42"/>
</a>
</g>
</g>
<!-- Node5&#45;&gt;Node3 -->
<g id="edge4_Node000003_Node000005" class="edge">
<title>Node5&#45;&gt;Node3</title>
<g id="a_edge4_Node000003_Node000005"><a xlink:title=" ">
<path fill="none" stroke="orange" d="M267.69,-751.38C260.88,-732.66 253.99,-713.74 247.18,-695.04"/>
<polygon fill="orange" stroke="orange" points="264.43,-752.65 271.14,-760.85 271.01,-750.26 264.43,-752.65"/>
</a>
</g>
<text text-anchor="start" x="263" y="-731.8" font-family="Consolas" font-size="14.00" fill="grey"> &lt; StorageRoomBaseData.Storage</text>
<text text-anchor="middle" x="387" y="-716.8" font-family="Consolas" font-size="14.00" fill="grey">RoomBaseLevel &gt;</text>
</g>
</g>
</svg>

<g id="navigator" transform="translate(0 0)" fill="#404254">
  <rect fill="#f2f5e9" fill-opacity="0.5" stroke="#606060" stroke-width=".5" x="0" y="0" width="60" height="60"/>
  <use id="zoomplus" xlink:href="#zoomPlus" x="17" y="9" onmousedown="handleZoom(evt,'in')"/>
  <use id="zoomminus" xlink:href="#zoomMin" x="42" y="9" onmousedown="handleZoom(evt,'out')"/>
  <use id="reset" xlink:href="#resetDef" x="30" y="36" onmousedown="handleReset()"/>
   <use id="arrowup" xlink:href="#arrowUp" x="0" y="0" onmousedown="handlePan(0,-1)"/>
  <use id="arrowright" xlink:href="#arrowRight" x="0" y="0" onmousedown="handlePan(1,0)"/>
  <use id="arrowdown" xlink:href="#arrowDown" x="0" y="0" onmousedown="handlePan(0,1)"/>
  <use id="arrowleft" xlink:href="#arrowLeft" x="0" y="0" onmousedown="handlePan(-1,0)"/>
</g>
<svg viewBox="0 0 15 15" width="100%" height="30px" preserveAspectRatio="xMaxYMin meet">
 <g id="arrow_out" transform="scale(0.3 0.3)">
  <a xlink:href="classRoomDatabase_1_1StorageRoomDataEntry__coll__graph_org.svg" target="_base">
   <rect id="button" ry="5" rx="5" y="6" x="6" height="38" width="38"
        fill="#f2f5e9" fill-opacity="0.5" stroke="#606060" stroke-width="1.0"/>
   <path id="arrow"
     d="M 11.500037,31.436501 C 11.940474,20.09759 22.043105,11.32322 32.158766,21.979434 L 37.068811,17.246167 C 37.068811,17.246167 37.088388,32 37.088388,32 L 22.160133,31.978069 C 22.160133,31.978069 26.997745,27.140456 26.997745,27.140456 C 18.528582,18.264221 13.291696,25.230495 11.500037,31.436501 z"
     style="fill:#404040;"/>
  </a>
 </g>
</svg>

<style type='text/css'>
<![CDATA[
[data-mouse-over-selected='false'] { opacity: 0.7; }
[data-mouse-over-selected='true']  { opacity: 1.0; }
]]>
</style>
<script type="application/ecmascript"><![CDATA[
document.addEventListener('DOMContentLoaded', (event) => {
  highlightEdges();
  highlightAdjacentNodes();
});
]]></script>
</svg>
