<?xml version="1.0" encoding="UTF-8" standalone="no"?>
<!DOCTYPE svg PUBLIC "-//W3C//DTD SVG 1.1//EN"
 "http://www.w3.org/Graphics/SVG/1.1/DTD/svg11.dtd">
<!-- Generated by graphviz version 2.43.0 (0)
 -->
<!-- Title: Storage.AddItem Pages: 1 -->
<svg width="828pt" height="68pt"
 viewBox="0.00 0.00 828.00 68.00" xmlns="http://www.w3.org/2000/svg" xmlns:xlink="http://www.w3.org/1999/xlink">
<g id="graph0" class="graph" transform="scale(1 1) rotate(0) translate(4 64)">
<title>Storage.AddItem</title>
<!-- Node1 -->
<g id="Node000001" class="node">
<title>Node1</title>
<g id="a_Node000001"><a xlink:title="아이템을 창고에 추가합니다. (기본 구매가 사용)">
<polygon fill="#999999" stroke="#666666" points="820,-40 691,-40 691,-19 820,-19 820,-40"/>
<text text-anchor="middle" x="755.5" y="-26.4" font-family="Consolas" font-size="12.00">Storage.AddItem</text>
</a>
</g>
</g>
<!-- Node1&#45;&gt;Node1 -->
<g id="edge1_Node000001_Node000001" class="edge">
<title>Node1&#45;&gt;Node1</title>
<g id="a_edge1_Node000001_Node000001"><a xlink:title=" ">
<path fill="none" stroke="#63b8ff" d="M793.96,-48.47C792.38,-53.85 779.56,-58 755.5,-58 719.69,-58 708.78,-48.81 722.77,-40.02"/>
<polygon fill="#63b8ff" stroke="#63b8ff" points="796.74,-46.33 788.23,-40.02 790.95,-50.26 796.74,-46.33"/>
</a>
</g>
</g>
<!-- Node2 -->
<g id="Node000002" class="node">
<title>Node2</title>
<g id="a_Node000002"><a xlink:href="classTradeManager.html#a22c669e983d33b0d39551c21c77837d8" target="_top" xlink:title="지정한 아이템을 구매 시도합니다. 성공 시 COMA를 차감하고 아이템을 창고에 추가합니다.">
<polygon fill="white" stroke="#666666" points="632.5,-60 465.5,-60 465.5,-39 632.5,-39 632.5,-60"/>
<text text-anchor="middle" x="549" y="-46.4" font-family="Consolas" font-size="12.00">TradeManager.BuyItem</text>
</a>
</g>
</g>
<!-- Node1&#45;&gt;Node2 -->
<g id="edge2_Node000001_Node000002" class="edge">
<title>Node1&#45;&gt;Node2</title>
<g id="a_edge2_Node000001_Node000002"><a xlink:title=" ">
<path fill="none" stroke="#63b8ff" d="M680.82,-36.71C665.22,-38.23 648.65,-39.85 632.74,-41.41"/>
<polygon fill="#63b8ff" stroke="#63b8ff" points="681.3,-40.18 690.92,-35.72 680.62,-33.21 681.3,-40.18"/>
</a>
</g>
</g>
<!-- Node5 -->
<g id="Node000005" class="node">
<title>Node5</title>
<g id="a_Node000005"><a xlink:href="classTestStorageItemAdder.html#acf9231bc26add2d4187038cdc742ea81" target="_top" xlink:title="시작 시 랜덤 아이템을 Storage에 추가하고 InventoryUI를 갱신합니다.">
<polygon fill="white" stroke="#666666" points="655,-21 443,-21 443,0 655,0 655,-21"/>
<text text-anchor="middle" x="549" y="-7.4" font-family="Consolas" font-size="12.00">TestStorageItemAdder.Start</text>
</a>
</g>
</g>
<!-- Node1&#45;&gt;Node5 -->
<g id="edge5_Node000001_Node000005" class="edge">
<title>Node1&#45;&gt;Node5</title>
<g id="a_edge5_Node000001_Node000005"><a xlink:title=" ">
<path fill="none" stroke="#63b8ff" d="M680.88,-22.66C672.53,-21.88 663.9,-21.08 655.24,-20.28"/>
<polygon fill="#63b8ff" stroke="#63b8ff" points="680.63,-26.15 690.92,-23.59 681.28,-19.18 680.63,-26.15"/>
</a>
</g>
</g>
<!-- Node3 -->
<g id="Node000003" class="node">
<title>Node3</title>
<g id="a_Node000003"><a xlink:href="classMiddlePanelUI.html#a9295791df36e66545387bf2a5e7fa241" target="_top" xlink:title="구매 버튼 클릭 시 호출되는 메서드입니다. 선택된 아이템의 구매를 시도하고, 성공 시 인벤토리 UI를 갱신합니다.">
<polygon fill="white" stroke="#666666" points="407,-60 195,-60 195,-39 407,-39 407,-60"/>
<text text-anchor="middle" x="301" y="-46.4" font-family="Consolas" font-size="12.00">MiddlePanelUI.OnBuyClicked</text>
</a>
</g>
</g>
<!-- Node2&#45;&gt;Node3 -->
<g id="edge3_Node000002_Node000003" class="edge">
<title>Node2&#45;&gt;Node3</title>
<g id="a_edge3_Node000002_Node000003"><a xlink:title=" ">
<path fill="none" stroke="#63b8ff" d="M455.19,-49.5C439.49,-49.5 423.09,-49.5 407.1,-49.5"/>
<polygon fill="#63b8ff" stroke="#63b8ff" points="455.4,-53 465.4,-49.5 455.4,-46 455.4,-53"/>
</a>
</g>
</g>
<!-- Node4 -->
<g id="Node000004" class="node">
<title>Node4</title>
<g id="a_Node000004"><a xlink:href="classMiddlePanelUI.html#a86566fb320e3bc338e89fb50dabfaad9" target="_top" xlink:title="초기화 작업을 수행하고 버튼 이벤트를 등록하는 메서드입니다.">
<polygon fill="white" stroke="#666666" points="159,-60 0,-60 0,-39 159,-39 159,-60"/>
<text text-anchor="middle" x="79.5" y="-46.4" font-family="Consolas" font-size="12.00">MiddlePanelUI.Start</text>
</a>
</g>
</g>
<!-- Node3&#45;&gt;Node4 -->
<g id="edge4_Node000003_Node000004" class="edge">
<title>Node3&#45;&gt;Node4</title>
<g id="a_edge4_Node000003_Node000004"><a xlink:title=" ">
<path fill="none" stroke="#63b8ff" d="M184.63,-49.5C176.01,-49.5 167.44,-49.5 159.13,-49.5"/>
<polygon fill="#63b8ff" stroke="#63b8ff" points="184.75,-53 194.75,-49.5 184.75,-46 184.75,-53"/>
</a>
</g>
</g>
</g>
</svg>
