<?xml version="1.0" encoding="UTF-8" standalone="no"?>
<!DOCTYPE svg PUBLIC "-//W3C//DTD SVG 1.1//EN"
 "http://www.w3.org/Graphics/SVG/1.1/DTD/svg11.dtd">
<!-- Generated by graphviz version 2.43.0 (0)
 -->
<!-- Title: RTSSelectionManager.GetScreenRect Pages: 1 -->
<svg width="768pt" height="82pt"
 viewBox="0.00 0.00 768.00 81.50" xmlns="http://www.w3.org/2000/svg" xmlns:xlink="http://www.w3.org/1999/xlink">
<g id="graph0" class="graph" transform="scale(1 1) rotate(0) translate(4 77.5)">
<title>RTSSelectionManager.GetScreenRect</title>
<!-- Node1 -->
<g id="Node000001" class="node">
<title>Node1</title>
<g id="a_Node000001"><a xlink:title="두 스크린 좌표로 사각형 영역 계산 (y좌표 보정 포함)">
<polygon fill="#999999" stroke="#666666" points="760,-50.5 496,-50.5 496,-29.5 760,-29.5 760,-50.5"/>
<text text-anchor="middle" x="628" y="-36.9" font-family="Consolas" font-size="12.00">RTSSelectionManager.GetScreenRect</text>
</a>
</g>
</g>
<!-- Node2 -->
<g id="Node000002" class="node">
<title>Node2</title>
<g id="a_Node000002"><a xlink:href="classRTSSelectionManager.html#af5851fbefc56215070a7599f6481be19" target="_top" xlink:title="OnGUI를 이용하여 드래그 영역의 사각형 표시">
<polygon fill="white" stroke="#666666" points="456,-73.5 252,-73.5 252,-52.5 456,-52.5 456,-73.5"/>
<text text-anchor="middle" x="354" y="-59.9" font-family="Consolas" font-size="12.00">RTSSelectionManager.OnGUI</text>
</a>
</g>
</g>
<!-- Node1&#45;&gt;Node2 -->
<g id="edge1_Node000001_Node000002" class="edge">
<title>Node1&#45;&gt;Node2</title>
<g id="a_edge1_Node000001_Node000002"><a xlink:title=" ">
<path fill="none" stroke="#63b8ff" d="M492.33,-51.39C480.16,-52.42 467.98,-53.45 456.17,-54.45"/>
<polygon fill="#63b8ff" stroke="#63b8ff" points="492.87,-54.85 502.54,-50.52 492.28,-47.88 492.87,-54.85"/>
</a>
</g>
</g>
<!-- Node3 -->
<g id="Node000003" class="node">
<title>Node3</title>
<g id="a_Node000003"><a xlink:href="classRTSSelectionManager.html#a8f7107c278338d7cb2abbe4d1a6ebfba" target="_top" xlink:title="영역 내 선원 다중 선택">
<polygon fill="white" stroke="#666666" points="460,-34 248,-34 248,0 460,0 460,-34"/>
<text text-anchor="start" x="256" y="-20.4" font-family="Consolas" font-size="12.00">RTSSelectionManager.Select</text>
<text text-anchor="middle" x="354" y="-7.4" font-family="Consolas" font-size="12.00">MultipleCrew</text>
</a>
</g>
</g>
<!-- Node1&#45;&gt;Node3 -->
<g id="edge2_Node000001_Node000003" class="edge">
<title>Node1&#45;&gt;Node3</title>
<g id="a_edge2_Node000001_Node000003"><a xlink:title=" ">
<path fill="none" stroke="#63b8ff" d="M492.26,-28.61C481.52,-27.7 470.76,-26.79 460.27,-25.9"/>
<polygon fill="#63b8ff" stroke="#63b8ff" points="492.28,-32.12 502.54,-29.48 492.87,-25.15 492.28,-32.12"/>
</a>
</g>
</g>
<!-- Node4 -->
<g id="Node000004" class="node">
<title>Node4</title>
<g id="a_Node000004"><a xlink:href="classRTSSelectionManager.html#abe94780370a9af6878c66cf3cc98732a" target="_top" xlink:title="좌클릭 감지 &#45; 다중 선택 시 영역 표시 우클릭 감지 &#45; 선택한 선원 이동 명령">
<polygon fill="white" stroke="#666666" points="212,-27.5 0,-27.5 0,-6.5 212,-6.5 212,-27.5"/>
<text text-anchor="middle" x="106" y="-13.9" font-family="Consolas" font-size="12.00">RTSSelectionManager.Update</text>
</a>
</g>
</g>
<!-- Node3&#45;&gt;Node4 -->
<g id="edge3_Node000003_Node000004" class="edge">
<title>Node3&#45;&gt;Node4</title>
<g id="a_edge3_Node000003_Node000004"><a xlink:title=" ">
<path fill="none" stroke="#63b8ff" d="M237.89,-17C229.28,-17 220.62,-17 212.08,-17"/>
<polygon fill="#63b8ff" stroke="#63b8ff" points="237.96,-20.5 247.96,-17 237.96,-13.5 237.96,-20.5"/>
</a>
</g>
</g>
</g>
</svg>
