<?xml version="1.0" encoding="UTF-8" standalone="no"?>
<!DOCTYPE svg PUBLIC "-//W3C//DTD SVG 1.1//EN"
 "http://www.w3.org/Graphics/SVG/1.1/DTD/svg11.dtd">
<!-- Generated by graphviz version 2.43.0 (0)
 -->
<!-- Title: ShipTemplateSaver.DeleteTemplate Pages: 1 -->
<!--zoomable 173 -->

<svg id="main" version="1.1" xmlns="http://www.w3.org/2000/svg" xmlns:xlink="http://www.w3.org/1999/xlink" xml:space="preserve" onload="init(evt)">
<style type="text/css"><![CDATA[
.node, .edge {opacity: 0.7;}
.node.selected, .edge.selected {opacity: 1;}
.edge:hover path { stroke: red; }
.edge:hover polygon { stroke: red; fill: red; }
]]></style>

<defs>
  <circle id="rim" cx="0" cy="0" r="7"/>
  <circle id="rim2" cx="0" cy="0" r="3.5"/>
  <g id="zoomPlus">
    <use xlink:href="#rim" fill="#404040"><set attributeName="fill" to="#808080" begin="zoomplus.mouseover" end="zoomplus.mouseout"/></use>
    <path d="M-4,0h8M0,-4v8" fill="none" stroke="white" stroke-width="1.5" pointer-events="none"/>
  </g>
  <g id="zoomMin">
    <use xlink:href="#rim" fill="#404040"><set attributeName="fill" to="#808080" begin="zoomminus.mouseover" end="zoomminus.mouseout"/></use>
    <path d="M-4,0h8" fill="none" stroke="white" stroke-width="1.5" pointer-events="none"/>
  </g>
  <g id="arrowUp" transform="translate(30 24)">
    <use xlink:href="#rim"/>
    <path pointer-events="none" fill="none" stroke="white" stroke-width="1.5" d="M0,-3.0v7 M-2.5,-0.5L0,-3.0L2.5,-0.5"/>
  </g>
  <g id="arrowRight" transform="rotate(90) translate(36 -43)">
    <use xlink:href="#rim"/>
    <path pointer-events="none" fill="none" stroke="white" stroke-width="1.5" d="M0,-3.0v7 M-2.5,-0.5L0,-3.0L2.5,-0.5"/>
  </g>
  <g id="arrowDown" transform="rotate(180) translate(-30 -48)">
    <use xlink:href="#rim"/>
    <path pointer-events="none" fill="none" stroke="white" stroke-width="1.5" d="M0,-3.0v7 M-2.5,-0.5L0,-3.0L2.5,-0.5"/>
  </g>
  <g id="arrowLeft" transform="rotate(270) translate(-36 17)">
    <use xlink:href="#rim"/>
    <path pointer-events="none" fill="none" stroke="white" stroke-width="1.5" d="M0,-3.0v7 M-2.5,-0.5L0,-3.0L2.5,-0.5"/>
  </g>
  <g id="resetDef">
    <use xlink:href="#rim2" fill="#404040"><set attributeName="fill" to="#808080" begin="reset.mouseover" end="reset.mouseout"/></use>
  </g>
</defs>
<script type="application/ecmascript">
var viewWidth = 1346;
var viewHeight = 173;
var sectionId = 'dynsection-4';
</script>
<script type="application/ecmascript" xlink:href="svg.min.js"/>
<svg id="graph" class="graph">
<g id="viewport">
<title>ShipTemplateSaver.DeleteTemplate</title>
<!-- Node1 -->
<g id="Node000001" class="node">
<title>Node1</title>
<g id="a_Node000001"><a xlink:title="템플릿 삭제">
<polygon fill="#999999" stroke="#666666" points="197,-99.77 0,-99.77 0,-65.77 197,-65.77 197,-99.77"/>
<text text-anchor="start" x="8" y="-86.17" font-family="Consolas" font-size="12.00">ShipTemplateSaver.Delete</text>
<text text-anchor="middle" x="98.5" y="-73.17" font-family="Consolas" font-size="12.00">Template</text>
</a>
</g>
</g>
<!-- Node2 -->
<g id="Node000002" class="node">
<title>Node2</title>
<g id="a_Node000002"><a xlink:href="classShipTemplateSaver.html#a9f66b826b50171073eedeb9282db164b" target="_top" xlink:title="템플릿 파일 경로 생성">
<polygon fill="white" stroke="#666666" points="1319,-164.77 1085,-164.77 1085,-130.77 1319,-130.77 1319,-164.77"/>
<text text-anchor="start" x="1093" y="-151.17" font-family="Consolas" font-size="12.00">ShipTemplateSaver.GetTemplate</text>
<text text-anchor="middle" x="1202" y="-138.17" font-family="Consolas" font-size="12.00">FilePath</text>
</a>
</g>
</g>
<!-- Node1&#45;&gt;Node2 -->
<g id="edge1_Node000001_Node000002" class="edge">
<title>Node1&#45;&gt;Node2</title>
<g id="a_edge1_Node000001_Node000002"><a xlink:title=" ">
<path fill="none" stroke="#63b8ff" d="M191.61,-99.83C205.45,-102.05 219.58,-104.12 233,-105.77 533.2,-142.81 889.26,-148.54 1074.6,-148.67"/>
<polygon fill="#63b8ff" stroke="#63b8ff" points="1074.66,-152.17 1084.66,-148.67 1074.66,-145.17 1074.66,-152.17"/>
</a>
</g>
</g>
<!-- Node3 -->
<g id="Node000003" class="node">
<title>Node3</title>
<g id="a_Node000003"><a xlink:href="classShipTemplateSaver.html#a7ef3c42f57f55899bc89f716dd2ddd00" target="_top" xlink:title="템플릿 목록 새로고침">
<polygon fill="white" stroke="#666666" points="437,-77.77 233,-77.77 233,-43.77 437,-43.77 437,-77.77"/>
<text text-anchor="start" x="241" y="-64.17" font-family="Consolas" font-size="12.00">ShipTemplateSaver.Refresh</text>
<text text-anchor="middle" x="335" y="-51.17" font-family="Consolas" font-size="12.00">TemplateList</text>
</a>
</g>
</g>
<!-- Node1&#45;&gt;Node3 -->
<g id="edge2_Node000001_Node000003" class="edge">
<title>Node1&#45;&gt;Node3</title>
<g id="a_edge2_Node000001_Node000003"><a xlink:title=" ">
<path fill="none" stroke="#63b8ff" d="M197.25,-73.6C205.56,-72.82 214,-72.03 222.41,-71.24"/>
<polygon fill="#63b8ff" stroke="#63b8ff" points="223,-74.7 232.63,-70.28 222.35,-67.73 223,-74.7"/>
</a>
</g>
</g>
<!-- Node7 -->
<g id="Node000007" class="node">
<title>Node7</title>
<g id="a_Node000007"><a xlink:href="classShipTemplateSaver.html#a398c37a1800d6cb43edc09c03c181f7a" target="_top" xlink:title="피드백 메시지 표시">
<polygon fill="white" stroke="#666666" points="1323,-73.27 1081,-73.27 1081,-52.27 1323,-52.27 1323,-73.27"/>
<text text-anchor="middle" x="1202" y="-59.67" font-family="Consolas" font-size="12.00">ShipTemplateSaver.ShowFeedback</text>
</a>
</g>
</g>
<!-- Node1&#45;&gt;Node7 -->
<g id="edge11_Node000001_Node000007" class="edge">
<title>Node1&#45;&gt;Node7</title>
<g id="a_edge11_Node000001_Node000007"><a xlink:title=" ">
<path fill="none" stroke="#63b8ff" d="M139.39,-65.76C165.55,-55.28 200.77,-42.41 233,-34.77 337.55,-10 365.75,-12.23 473,-5.77 596.78,1.68 628.25,2.05 752,-5.77 885.28,-14.2 1039.48,-36.56 1128.09,-50.64"/>
<polygon fill="#63b8ff" stroke="#63b8ff" points="1127.61,-54.11 1138.04,-52.23 1128.71,-47.2 1127.61,-54.11"/>
</a>
</g>
</g>
<!-- Node4 -->
<g id="Node000004" class="node">
<title>Node4</title>
<g id="a_Node000004"><a xlink:href="classShipTemplateSaver.html#a6c6e9dd017c3169597bbf314593d6fd6" target="_top" xlink:title="템플릿 목록 아이템 추가">
<polygon fill="white" stroke="#666666" points="744.5,-114.27 480.5,-114.27 480.5,-93.27 744.5,-93.27 744.5,-114.27"/>
<text text-anchor="middle" x="612.5" y="-100.67" font-family="Consolas" font-size="12.00">ShipTemplateSaver.AddTemplateItem</text>
</a>
</g>
</g>
<!-- Node3&#45;&gt;Node4 -->
<g id="edge3_Node000003_Node000004" class="edge">
<title>Node3&#45;&gt;Node4</title>
<g id="a_edge3_Node000003_Node000004"><a xlink:title=" ">
<path fill="none" stroke="#63b8ff" d="M437.02,-76.54C469.03,-81.54 503.9,-86.98 533.98,-91.68"/>
<polygon fill="#63b8ff" stroke="#63b8ff" points="533.57,-95.15 543.99,-93.24 534.65,-88.24 533.57,-95.15"/>
</a>
</g>
</g>
<!-- Node3&#45;&gt;Node7 -->
<g id="edge10_Node000003_Node000007" class="edge">
<title>Node3&#45;&gt;Node7</title>
<g id="a_edge10_Node000003_Node000007"><a xlink:title=" ">
<path fill="none" stroke="#63b8ff" d="M437.34,-61.01C594.59,-61.37 897.26,-62.07 1070.6,-62.47"/>
<polygon fill="#63b8ff" stroke="#63b8ff" points="1070.79,-65.97 1080.8,-62.5 1070.81,-58.97 1070.79,-65.97"/>
</a>
</g>
</g>
<!-- Node8 -->
<g id="Node000008" class="node">
<title>Node8</title>
<g id="a_Node000008"><a xlink:href="classShipTemplateSaver.html#aca735b6593de44e3e4ba1b284d5f6840" target="_top" xlink:title="기존 템플릿 목록 아이템 제거">
<polygon fill="white" stroke="#666666" points="752,-36.27 473,-36.27 473,-15.27 752,-15.27 752,-36.27"/>
<text text-anchor="middle" x="612.5" y="-22.67" font-family="Consolas" font-size="12.00">ShipTemplateSaver.ClearTemplateList</text>
</a>
</g>
</g>
<!-- Node3&#45;&gt;Node8 -->
<g id="edge9_Node000003_Node000008" class="edge">
<title>Node3&#45;&gt;Node8</title>
<g id="a_edge9_Node000003_Node000008"><a xlink:title=" ">
<path fill="none" stroke="#63b8ff" d="M437.02,-47.94C463.71,-44.55 492.39,-40.91 518.62,-37.57"/>
<polygon fill="#63b8ff" stroke="#63b8ff" points="519.07,-41.05 528.55,-36.31 518.19,-34.1 519.07,-41.05"/>
</a>
</g>
</g>
<!-- Node4&#45;&gt;Node1 -->
<g id="edge4_Node000004_Node000001" class="edge">
<title>Node4&#45;&gt;Node1</title>
<g id="a_edge4_Node000004_Node000001"><a xlink:title=" ">
<path fill="none" stroke="#63b8ff" d="M480.49,-98.4C395.73,-94.92 286.74,-90.45 207.07,-87.19"/>
<polygon fill="#63b8ff" stroke="#63b8ff" points="207.14,-83.69 197.01,-86.77 206.86,-90.68 207.14,-83.69"/>
</a>
</g>
</g>
<!-- Node5 -->
<g id="Node000005" class="node">
<title>Node5</title>
<g id="a_Node000005"><a xlink:href="classShipTemplateSaver.html#a358776f0395184e3d2426a8d001e6b0d" target="_top" xlink:title="템플릿 로드하여 함선에 적용">
<polygon fill="white" stroke="#666666" points="1030,-114.27 788,-114.27 788,-93.27 1030,-93.27 1030,-114.27"/>
<text text-anchor="middle" x="909" y="-100.67" font-family="Consolas" font-size="12.00">ShipTemplateSaver.LoadTemplate</text>
</a>
</g>
</g>
<!-- Node4&#45;&gt;Node5 -->
<g id="edge5_Node000004_Node000005" class="edge">
<title>Node4&#45;&gt;Node5</title>
<g id="a_edge5_Node000004_Node000005"><a xlink:title=" ">
<path fill="none" stroke="#63b8ff" d="M744.82,-103.77C755.63,-103.77 766.55,-103.77 777.36,-103.77"/>
<polygon fill="#63b8ff" stroke="#63b8ff" points="777.67,-107.27 787.67,-103.77 777.67,-100.27 777.67,-107.27"/>
</a>
</g>
</g>
<!-- Node5&#45;&gt;Node2 -->
<g id="edge6_Node000005_Node000002" class="edge">
<title>Node5&#45;&gt;Node2</title>
<g id="a_edge6_Node000005_Node000002"><a xlink:title=" ">
<path fill="none" stroke="#63b8ff" d="M979.7,-114.31C1009.31,-118.79 1044.74,-124.15 1078.47,-129.25"/>
<polygon fill="#63b8ff" stroke="#63b8ff" points="1078,-132.72 1088.41,-130.75 1079.04,-125.79 1078,-132.72"/>
</a>
</g>
</g>
<!-- Node6 -->
<g id="Node000006" class="node">
<title>Node6</title>
<g id="a_Node000006"><a xlink:href="classShipTemplateSaver.html#a547fe300a63c6d41f67a53004a658eea" target="_top" xlink:title="템플릿 목록 숨기기">
<polygon fill="white" stroke="#666666" points="1338,-112.27 1066,-112.27 1066,-91.27 1338,-91.27 1338,-112.27"/>
<text text-anchor="middle" x="1202" y="-98.67" font-family="Consolas" font-size="12.00">ShipTemplateSaver.HideTemplateList</text>
</a>
</g>
</g>
<!-- Node5&#45;&gt;Node6 -->
<g id="edge7_Node000005_Node000006" class="edge">
<title>Node5&#45;&gt;Node6</title>
<g id="a_edge7_Node000005_Node000006"><a xlink:title=" ">
<path fill="none" stroke="#63b8ff" d="M1030.04,-102.95C1038.48,-102.89 1047.04,-102.83 1055.6,-102.77"/>
<polygon fill="#63b8ff" stroke="#63b8ff" points="1055.66,-106.27 1065.63,-102.7 1055.61,-99.27 1055.66,-106.27"/>
</a>
</g>
</g>
<!-- Node5&#45;&gt;Node7 -->
<g id="edge8_Node000005_Node000007" class="edge">
<title>Node5&#45;&gt;Node7</title>
<g id="a_edge8_Node000005_Node000007"><a xlink:title=" ">
<path fill="none" stroke="#63b8ff" d="M984.56,-93.27C1024.78,-87.6 1074.56,-80.59 1116.24,-74.72"/>
<polygon fill="#63b8ff" stroke="#63b8ff" points="1116.97,-78.15 1126.38,-73.29 1115.99,-71.22 1116.97,-78.15"/>
</a>
</g>
</g>
</g>
</svg>

<g id="navigator" transform="translate(0 0)" fill="#404254">
  <rect fill="#f2f5e9" fill-opacity="0.5" stroke="#606060" stroke-width=".5" x="0" y="0" width="60" height="60"/>
  <use id="zoomplus" xlink:href="#zoomPlus" x="17" y="9" onmousedown="handleZoom(evt,'in')"/>
  <use id="zoomminus" xlink:href="#zoomMin" x="42" y="9" onmousedown="handleZoom(evt,'out')"/>
  <use id="reset" xlink:href="#resetDef" x="30" y="36" onmousedown="handleReset()"/>
   <use id="arrowup" xlink:href="#arrowUp" x="0" y="0" onmousedown="handlePan(0,-1)"/>
  <use id="arrowright" xlink:href="#arrowRight" x="0" y="0" onmousedown="handlePan(1,0)"/>
  <use id="arrowdown" xlink:href="#arrowDown" x="0" y="0" onmousedown="handlePan(0,1)"/>
  <use id="arrowleft" xlink:href="#arrowLeft" x="0" y="0" onmousedown="handlePan(-1,0)"/>
</g>
<svg viewBox="0 0 15 15" width="100%" height="30px" preserveAspectRatio="xMaxYMin meet">
 <g id="arrow_out" transform="scale(0.3 0.3)">
  <a xlink:href="classShipTemplateSaver_af690a1bdcb85a92ad60fc5b58a24c7e0_cgraph_org.svg" target="_base">
   <rect id="button" ry="5" rx="5" y="6" x="6" height="38" width="38"
        fill="#f2f5e9" fill-opacity="0.5" stroke="#606060" stroke-width="1.0"/>
   <path id="arrow"
     d="M 11.500037,31.436501 C 11.940474,20.09759 22.043105,11.32322 32.158766,21.979434 L 37.068811,17.246167 C 37.068811,17.246167 37.088388,32 37.088388,32 L 22.160133,31.978069 C 22.160133,31.978069 26.997745,27.140456 26.997745,27.140456 C 18.528582,18.264221 13.291696,25.230495 11.500037,31.436501 z"
     style="fill:#404040;"/>
  </a>
 </g>
</svg>

<style type='text/css'>
<![CDATA[
[data-mouse-over-selected='false'] { opacity: 0.7; }
[data-mouse-over-selected='true']  { opacity: 1.0; }
]]>
</style>
<script type="application/ecmascript"><![CDATA[
document.addEventListener('DOMContentLoaded', (event) => {
  highlightEdges();
  highlightAdjacentNodes();
});
]]></script>
</svg>
