<?xml version="1.0" encoding="UTF-8" standalone="no"?>
<!DOCTYPE svg PUBLIC "-//W3C//DTD SVG 1.1//EN"
 "http://www.w3.org/Graphics/SVG/1.1/DTD/svg11.dtd">
<!-- Generated by graphviz version 2.43.0 (0)
 -->
<!-- Title: PlanetUI Pages: 1 -->
<svg width="254pt" height="265pt"
 viewBox="0.00 0.00 254.00 265.00" xmlns="http://www.w3.org/2000/svg" xmlns:xlink="http://www.w3.org/1999/xlink">
<g id="graph0" class="graph" transform="scale(1 1) rotate(0) translate(4 261)">
<title>PlanetUI</title>
<!-- Node1 -->
<g id="Node000001" class="node">
<title>Node1</title>
<g id="a_Node000001"><a xlink:title=" ">
<polygon fill="#999999" stroke="transparent" points="246,-166 0,-166 0,0 246,0 246,-166"/>
<text text-anchor="start" x="92.5" y="-152.4" font-family="Consolas" font-size="12.00">PlanetUI</text>
<text text-anchor="start" x="4" y="-135.4" font-family="Consolas" font-size="12.00">&#45;</text>
<text text-anchor="start" x="16" y="-135.4" font-family="Consolas" font-size="12.00">Image portrait</text>
<text text-anchor="start" x="4" y="-118.4" font-family="Consolas" font-size="12.00">&#45;</text>
<text text-anchor="start" x="16" y="-118.4" font-family="Consolas" font-size="12.00">Image planetIllust</text>
<text text-anchor="start" x="4" y="-101.4" font-family="Consolas" font-size="12.00">&#45;</text>
<text text-anchor="start" x="16" y="-101.4" font-family="Consolas" font-size="12.00">List&lt; PlanetSpriteInfo</text>
<text text-anchor="start" x="16" y="-88.4" font-family="Consolas" font-size="12.00"> &gt; spritesInfo</text>
<text text-anchor="start" x="4" y="-71.4" font-family="Consolas" font-size="12.00">&#45;</text>
<text text-anchor="start" x="16" y="-71.4" font-family="Consolas" font-size="12.00">Dictionary&lt; PlanetRace,</text>
<text text-anchor="start" x="16" y="-58.4" font-family="Consolas" font-size="12.00"> PlanetSpriteInfo &gt; spriteDict</text>
<text text-anchor="start" x="4" y="-41.4" font-family="Consolas" font-size="12.00">+</text>
<text text-anchor="start" x="16" y="-41.4" font-family="Consolas" font-size="12.00">void OnExitButtonClicked()</text>
<text text-anchor="start" x="4" y="-24.4" font-family="Consolas" font-size="12.00">&#45;</text>
<text text-anchor="start" x="16" y="-24.4" font-family="Consolas" font-size="12.00">void Awake()</text>
<text text-anchor="start" x="4" y="-7.4" font-family="Consolas" font-size="12.00">&#45;</text>
<text text-anchor="start" x="16" y="-7.4" font-family="Consolas" font-size="12.00">void Start()</text>
<polygon fill="#666666" stroke="#666666" points="0,-147 0,-147 246,-147 246,-147 0,-147"/>
<polygon fill="#666666" stroke="#666666" points="0,-53 0,-53 14,-53 14,-53 0,-53"/>
<polygon fill="#666666" stroke="#666666" points="14,-53 14,-53 246,-53 246,-53 14,-53"/>
<polygon fill="none" stroke="#666666" points="0,0 0,-166 246,-166 246,0 0,0"/>
</a>
</g>
</g>
<!-- Node2 -->
<g id="Node000002" class="node">
<title>Node2</title>
<g id="a_Node000002"><a xlink:title=" ">
<polygon fill="white" stroke="transparent" points="177,-257 69,-257 69,-202 177,-202 177,-257"/>
<text text-anchor="start" x="74" y="-242.9" font-family="Consolas" font-size="12.00">MonoBehaviour</text>
<text text-anchor="start" x="119" y="-225.9" font-family="Consolas" font-size="12.00"> </text>
<text text-anchor="start" x="119" y="-208.9" font-family="Consolas" font-size="12.00"> </text>
<polygon fill="#bfbfbf" stroke="#bfbfbf" points="69,-237.5 69,-237.5 177,-237.5 177,-237.5 69,-237.5"/>
<polygon fill="#bfbfbf" stroke="#bfbfbf" points="69,-220.5 69,-220.5 177,-220.5 177,-220.5 69,-220.5"/>
<polygon fill="none" stroke="#bfbfbf" points="69,-202 69,-257 177,-257 177,-202 69,-202"/>
</a>
</g>
</g>
<!-- Node2&#45;&gt;Node1 -->
<g id="edge1_Node000001_Node000002" class="edge">
<title>Node2&#45;&gt;Node1</title>
<g id="a_edge1_Node000001_Node000002"><a xlink:title=" ">
<path fill="none" stroke="#63b8ff" d="M123,-191.99C123,-184.01 123,-175.24 123,-166.27"/>
<polygon fill="none" stroke="#63b8ff" points="119.5,-192 123,-202 126.5,-192 119.5,-192"/>
</a>
</g>
</g>
</g>
</svg>
