<?xml version="1.0" encoding="UTF-8" standalone="no"?>
<!DOCTYPE svg PUBLIC "-//W3C//DTD SVG 1.1//EN"
 "http://www.w3.org/Graphics/SVG/1.1/DTD/svg11.dtd">
<!-- Generated by graphviz version 2.43.0 (0)
 -->
<!-- Title: OuterHullSystem Pages: 1 -->
<svg width="291pt" height="613pt"
 viewBox="0.00 0.00 291.00 613.00" xmlns="http://www.w3.org/2000/svg" xmlns:xlink="http://www.w3.org/1999/xlink">
<g id="graph0" class="graph" transform="scale(1 1) rotate(0) translate(4 609)">
<title>OuterHullSystem</title>
<!-- Node1 -->
<g id="Node000001" class="node">
<title>Node1</title>
<g id="a_Node000001"><a xlink:title="외갑판 시스템. 공격에 대한 피해를 감소시키는 기능을 담당합니다.">
<polygon fill="#999999" stroke="transparent" points="283,-437 0,-437 0,0 283,0 283,-437"/>
<text text-anchor="start" x="85.5" y="-422.9" font-family="Consolas" font-size="12.00">OuterHullSystem</text>
<text text-anchor="start" x="4.5" y="-405.9" font-family="Consolas" font-size="12.00">+</text>
<text text-anchor="start" x="16.5" y="-405.9" font-family="Consolas" font-size="12.00">List&lt; OuterHull &gt; current</text>
<text text-anchor="start" x="16.5" y="-392.9" font-family="Consolas" font-size="12.00">OuterHulls</text>
<text text-anchor="start" x="4.5" y="-375.9" font-family="Consolas" font-size="12.00">&#45;</text>
<text text-anchor="start" x="16.5" y="-375.9" font-family="Consolas" font-size="12.00">int currentOuterHullLevel</text>
<text text-anchor="start" x="4.5" y="-358.9" font-family="Consolas" font-size="12.00">+</text>
<text text-anchor="start" x="16.5" y="-358.9" font-family="Consolas" font-size="12.00">override void Initialize</text>
<text text-anchor="start" x="16.5" y="-345.9" font-family="Consolas" font-size="12.00">(Ship ship)</text>
<text text-anchor="start" x="4.5" y="-328.9" font-family="Consolas" font-size="12.00">+</text>
<text text-anchor="start" x="16.5" y="-328.9" font-family="Consolas" font-size="12.00">override void Update</text>
<text text-anchor="start" x="16.5" y="-315.9" font-family="Consolas" font-size="12.00">(float deltaTime)</text>
<text text-anchor="start" x="4.5" y="-298.9" font-family="Consolas" font-size="12.00">+</text>
<text text-anchor="start" x="16.5" y="-298.9" font-family="Consolas" font-size="12.00">float ReduceDamage</text>
<text text-anchor="start" x="16.5" y="-285.9" font-family="Consolas" font-size="12.00">(float damage)</text>
<text text-anchor="start" x="4.5" y="-268.9" font-family="Consolas" font-size="12.00">+</text>
<text text-anchor="start" x="16.5" y="-268.9" font-family="Consolas" font-size="12.00">int GetOuterHullLevel()</text>
<text text-anchor="start" x="4.5" y="-251.9" font-family="Consolas" font-size="12.00">+</text>
<text text-anchor="start" x="16.5" y="-251.9" font-family="Consolas" font-size="12.00">void SetOuterHullLevel</text>
<text text-anchor="start" x="16.5" y="-238.9" font-family="Consolas" font-size="12.00">(int level)</text>
<text text-anchor="start" x="4.5" y="-221.9" font-family="Consolas" font-size="12.00">+</text>
<text text-anchor="start" x="16.5" y="-221.9" font-family="Consolas" font-size="12.00">void UpdateVisuals</text>
<text text-anchor="start" x="16.5" y="-208.9" font-family="Consolas" font-size="12.00">(int level)</text>
<text text-anchor="start" x="4.5" y="-191.9" font-family="Consolas" font-size="12.00">+</text>
<text text-anchor="start" x="16.5" y="-191.9" font-family="Consolas" font-size="12.00">void ClearExistingHulls()</text>
<text text-anchor="start" x="4.5" y="-174.9" font-family="Consolas" font-size="12.00">&#45;</text>
<text text-anchor="start" x="16.5" y="-174.9" font-family="Consolas" font-size="12.00">bool IsOutOfBounds</text>
<text text-anchor="start" x="16.5" y="-161.9" font-family="Consolas" font-size="12.00">(Vector2Int pos)</text>
<text text-anchor="start" x="4.5" y="-144.9" font-family="Consolas" font-size="12.00">&#45;</text>
<text text-anchor="start" x="16.5" y="-144.9" font-family="Consolas" font-size="12.00">void AddPlacementIfNotDuplicate</text>
<text text-anchor="start" x="16.5" y="-131.9" font-family="Consolas" font-size="12.00">(List&lt; HullPlacementInfo &gt;</text>
<text text-anchor="start" x="16.5" y="-118.9" font-family="Consolas" font-size="12.00"> placements, HullPlacementInfo</text>
<text text-anchor="start" x="16.5" y="-105.9" font-family="Consolas" font-size="12.00"> newInfo)</text>
<text text-anchor="start" x="4.5" y="-88.9" font-family="Consolas" font-size="12.00">&#45;</text>
<text text-anchor="start" x="16.5" y="-88.9" font-family="Consolas" font-size="12.00">int CalculateSpriteIndex</text>
<text text-anchor="start" x="16.5" y="-75.9" font-family="Consolas" font-size="12.00">(HullPlacementInfo info)</text>
<text text-anchor="start" x="4.5" y="-58.9" font-family="Consolas" font-size="12.00">&#45;</text>
<text text-anchor="start" x="16.5" y="-58.9" font-family="Consolas" font-size="12.00">void CreateOuterHull</text>
<text text-anchor="start" x="16.5" y="-45.9" font-family="Consolas" font-size="12.00">(Vector2Int hullPosition,</text>
<text text-anchor="start" x="16.5" y="-32.9" font-family="Consolas" font-size="12.00"> int spriteIndex, int level,</text>
<text text-anchor="start" x="16.5" y="-19.9" font-family="Consolas" font-size="12.00"> OuterHullData hullData, GameObject</text>
<text text-anchor="start" x="16.5" y="-6.9" font-family="Consolas" font-size="12.00"> hullPrefab, HullType hullType)</text>
<polygon fill="#666666" stroke="#666666" points="0.5,-417.5 0.5,-417.5 283.5,-417.5 283.5,-417.5 0.5,-417.5"/>
<polygon fill="#666666" stroke="#666666" points="0.5,-370.5 0.5,-370.5 14.5,-370.5 14.5,-370.5 0.5,-370.5"/>
<polygon fill="#666666" stroke="#666666" points="14.5,-370.5 14.5,-370.5 283.5,-370.5 283.5,-370.5 14.5,-370.5"/>
<polygon fill="none" stroke="#666666" points="0,0 0,-437 283,-437 283,0 0,0"/>
</a>
</g>
</g>
<!-- Node2 -->
<g id="Node000002" class="node">
<title>Node2</title>
<g id="a_Node000002"><a xlink:href="classShipSystem.html" target="_top" xlink:title="모든 함선 시스템의 추상 기반 클래스. 각 시스템은 함선 객체를 기반으로 동작하며, 공통적인 초기화 및 스탯 조회 기능을 제공합니다.">
<polygon fill="white" stroke="transparent" points="257,-605 26,-605 26,-473 257,-473 257,-605"/>
<text text-anchor="start" x="104" y="-591.4" font-family="Consolas" font-size="12.00">ShipSystem</text>
<text text-anchor="start" x="30.5" y="-574.4" font-family="Consolas" font-size="12.00">#</text>
<text text-anchor="start" x="42.5" y="-574.4" font-family="Consolas" font-size="12.00">Ship parentShip</text>
<text text-anchor="start" x="30.5" y="-557.4" font-family="Consolas" font-size="12.00">+</text>
<text text-anchor="start" x="42.5" y="-557.4" font-family="Consolas" font-size="12.00">virtual void Initialize</text>
<text text-anchor="start" x="42.5" y="-544.4" font-family="Consolas" font-size="12.00">(Ship ship)</text>
<text text-anchor="start" x="30.5" y="-527.4" font-family="Consolas" font-size="12.00">+</text>
<text text-anchor="start" x="42.5" y="-527.4" font-family="Consolas" font-size="12.00">virtual void Refresh()</text>
<text text-anchor="start" x="30.5" y="-510.4" font-family="Consolas" font-size="12.00">+</text>
<text text-anchor="start" x="42.5" y="-510.4" font-family="Consolas" font-size="12.00">void Update(float deltaTime)</text>
<text text-anchor="start" x="30.5" y="-493.4" font-family="Consolas" font-size="12.00">#</text>
<text text-anchor="start" x="42.5" y="-493.4" font-family="Consolas" font-size="12.00">float GetShipStat(ShipStat</text>
<text text-anchor="start" x="42.5" y="-480.4" font-family="Consolas" font-size="12.00"> stat)</text>
<polygon fill="#666666" stroke="#666666" points="26.5,-586 26.5,-586 257.5,-586 257.5,-586 26.5,-586"/>
<polygon fill="#666666" stroke="#666666" points="26.5,-569 26.5,-569 40.5,-569 40.5,-569 26.5,-569"/>
<polygon fill="#666666" stroke="#666666" points="40.5,-569 40.5,-569 257.5,-569 257.5,-569 40.5,-569"/>
<polygon fill="none" stroke="#666666" points="26,-473 26,-605 257,-605 257,-473 26,-473"/>
</a>
</g>
</g>
<!-- Node2&#45;&gt;Node1 -->
<g id="edge1_Node000001_Node000002" class="edge">
<title>Node2&#45;&gt;Node1</title>
<g id="a_edge1_Node000001_Node000002"><a xlink:title=" ">
<path fill="none" stroke="#63b8ff" d="M141.5,-462.65C141.5,-454.47 141.5,-445.88 141.5,-437.01"/>
<polygon fill="none" stroke="#63b8ff" points="138,-462.78 141.5,-472.78 145,-462.78 138,-462.78"/>
</a>
</g>
</g>
</g>
</svg>
