<?xml version="1.0" encoding="UTF-8" standalone="no"?>
<!DOCTYPE svg PUBLIC "-//W3C//DTD SVG 1.1//EN"
 "http://www.w3.org/Graphics/SVG/1.1/DTD/svg11.dtd">
<!-- Generated by graphviz version 2.43.0 (0)
 -->
<!-- Title: ES3Types.ES3UserType_MoraleSystem Pages: 1 -->
<svg width="254pt" height="1149pt"
 viewBox="0.00 0.00 254.00 1149.00" xmlns="http://www.w3.org/2000/svg" xmlns:xlink="http://www.w3.org/1999/xlink">
<g id="graph0" class="graph" transform="scale(1 1) rotate(0) translate(4 1145)">
<title>ES3Types.ES3UserType_MoraleSystem</title>
<!-- Node1 -->
<g id="Node000001" class="node">
<title>Node1</title>
<g id="a_Node000001"><a xlink:title=" ">
<polygon fill="#999999" stroke="transparent" points="231,-184 15,-184 15,0 231,0 231,-184"/>
<text text-anchor="start" x="47.5" y="-170.4" font-family="Consolas" font-size="12.00">ES3Types.ES3UserType</text>
<text text-anchor="start" x="74" y="-157.4" font-family="Consolas" font-size="12.00">_MoraleSystem</text>
<text text-anchor="start" x="19" y="-140.4" font-family="Consolas" font-size="12.00">+</text>
<text text-anchor="start" x="31" y="-140.4" font-family="Consolas" font-size="12.00">static ES3Type Instance</text>
<text text-anchor="start" x="19" y="-123.4" font-family="Consolas" font-size="12.00">+</text>
<text text-anchor="start" x="31" y="-123.4" font-family="Consolas" font-size="12.00">ES3UserType_MoraleSystem()</text>
<text text-anchor="start" x="19" y="-106.4" font-family="Consolas" font-size="12.00">#</text>
<text text-anchor="start" x="31" y="-106.4" font-family="Consolas" font-size="12.00">override void WriteObject</text>
<text text-anchor="start" x="31" y="-93.4" font-family="Consolas" font-size="12.00">(object obj, ES3Writer</text>
<text text-anchor="start" x="31" y="-80.4" font-family="Consolas" font-size="12.00"> writer)</text>
<text text-anchor="start" x="19" y="-63.4" font-family="Consolas" font-size="12.00">#</text>
<text text-anchor="start" x="31" y="-63.4" font-family="Consolas" font-size="12.00">override void ReadObject</text>
<text text-anchor="start" x="31" y="-50.4" font-family="Consolas" font-size="12.00">&lt; T &gt;(ES3Reader reader,</text>
<text text-anchor="start" x="31" y="-37.4" font-family="Consolas" font-size="12.00"> object obj)</text>
<text text-anchor="start" x="19" y="-20.4" font-family="Consolas" font-size="12.00">#</text>
<text text-anchor="start" x="31" y="-20.4" font-family="Consolas" font-size="12.00">override object ReadObject</text>
<text text-anchor="start" x="31" y="-7.4" font-family="Consolas" font-size="12.00">&lt; T &gt;(ES3Reader reader)</text>
<polygon fill="#666666" stroke="#666666" points="15,-152 15,-152 231,-152 231,-152 15,-152"/>
<polygon fill="#666666" stroke="#666666" points="15,-135 15,-135 29,-135 29,-135 15,-135"/>
<polygon fill="#666666" stroke="#666666" points="29,-135 29,-135 231,-135 231,-135 29,-135"/>
<polygon fill="none" stroke="#666666" points="15,0 15,-184 231,-184 231,0 15,0"/>
</a>
</g>
</g>
<!-- Node2 -->
<g id="Node000002" class="node">
<title>Node2</title>
<g id="a_Node000002"><a xlink:href="classES3Types_1_1ES3ObjectType.html" target="_top" xlink:title=" ">
<polygon fill="white" stroke="transparent" points="219.5,-507 26.5,-507 26.5,-220 219.5,-220 219.5,-507"/>
<text text-anchor="start" x="74.5" y="-492.9" font-family="Consolas" font-size="12.00">ES3ObjectType</text>
<text text-anchor="start" x="119.5" y="-475.9" font-family="Consolas" font-size="12.00"> </text>
<text text-anchor="start" x="31" y="-458.9" font-family="Consolas" font-size="12.00">+</text>
<text text-anchor="start" x="43" y="-458.9" font-family="Consolas" font-size="12.00">ES3ObjectType(Type</text>
<text text-anchor="start" x="43" y="-445.9" font-family="Consolas" font-size="12.00"> type)</text>
<text text-anchor="start" x="31" y="-428.9" font-family="Consolas" font-size="12.00">+</text>
<text text-anchor="start" x="43" y="-428.9" font-family="Consolas" font-size="12.00">override void Write</text>
<text text-anchor="start" x="43" y="-415.9" font-family="Consolas" font-size="12.00">(object obj, ES3Writer</text>
<text text-anchor="start" x="43" y="-402.9" font-family="Consolas" font-size="12.00"> writer)</text>
<text text-anchor="start" x="31" y="-385.9" font-family="Consolas" font-size="12.00">+</text>
<text text-anchor="start" x="43" y="-385.9" font-family="Consolas" font-size="12.00">override object Read</text>
<text text-anchor="start" x="43" y="-372.9" font-family="Consolas" font-size="12.00">&lt; T &gt;(ES3Reader reader)</text>
<text text-anchor="start" x="31" y="-355.9" font-family="Consolas" font-size="12.00">+</text>
<text text-anchor="start" x="43" y="-355.9" font-family="Consolas" font-size="12.00">override void ReadInto</text>
<text text-anchor="start" x="43" y="-342.9" font-family="Consolas" font-size="12.00">&lt; T &gt;(ES3Reader reader,</text>
<text text-anchor="start" x="43" y="-329.9" font-family="Consolas" font-size="12.00"> object obj)</text>
<text text-anchor="start" x="31" y="-312.9" font-family="Consolas" font-size="12.00">#</text>
<text text-anchor="start" x="43" y="-312.9" font-family="Consolas" font-size="12.00">void WriteObject(object</text>
<text text-anchor="start" x="43" y="-299.9" font-family="Consolas" font-size="12.00"> obj, ES3Writer writer)</text>
<text text-anchor="start" x="31" y="-282.9" font-family="Consolas" font-size="12.00">#</text>
<text text-anchor="start" x="43" y="-282.9" font-family="Consolas" font-size="12.00">object ReadObject&lt;</text>
<text text-anchor="start" x="43" y="-269.9" font-family="Consolas" font-size="12.00"> T &gt;(ES3Reader reader)</text>
<text text-anchor="start" x="31" y="-252.9" font-family="Consolas" font-size="12.00">#</text>
<text text-anchor="start" x="43" y="-252.9" font-family="Consolas" font-size="12.00">virtual void ReadObject</text>
<text text-anchor="start" x="43" y="-239.9" font-family="Consolas" font-size="12.00">&lt; T &gt;(ES3Reader reader,</text>
<text text-anchor="start" x="43" y="-226.9" font-family="Consolas" font-size="12.00"> object obj)</text>
<polygon fill="#bfbfbf" stroke="#bfbfbf" points="27,-487.5 27,-487.5 220,-487.5 220,-487.5 27,-487.5"/>
<polygon fill="#bfbfbf" stroke="#bfbfbf" points="27,-470.5 27,-470.5 220,-470.5 220,-470.5 27,-470.5"/>
<polygon fill="none" stroke="#bfbfbf" points="26.5,-220 26.5,-507 219.5,-507 219.5,-220 26.5,-220"/>
</a>
</g>
</g>
<!-- Node2&#45;&gt;Node1 -->
<g id="edge1_Node000001_Node000002" class="edge">
<title>Node2&#45;&gt;Node1</title>
<g id="a_edge1_Node000001_Node000002"><a xlink:title=" ">
<path fill="none" stroke="#63b8ff" d="M123,-209.66C123,-201.01 123,-192.45 123,-184.15"/>
<polygon fill="none" stroke="#63b8ff" points="119.5,-209.86 123,-219.86 126.5,-209.86 119.5,-209.86"/>
</a>
</g>
</g>
<!-- Node3 -->
<g id="Node000003" class="node">
<title>Node3</title>
<g id="a_Node000003"><a xlink:href="classES3Types_1_1ES3Type.html" target="_top" xlink:title=" ">
<polygon fill="white" stroke="transparent" points="246,-1141 0,-1141 0,-543 246,-543 246,-1141"/>
<text text-anchor="start" x="96.5" y="-1127.4" font-family="Consolas" font-size="12.00">ES3Type</text>
<text text-anchor="start" x="4" y="-1110.4" font-family="Consolas" font-size="12.00">+</text>
<text text-anchor="start" x="16" y="-1110.4" font-family="Consolas" font-size="12.00">ES3Member[] members</text>
<text text-anchor="start" x="4" y="-1093.4" font-family="Consolas" font-size="12.00">+</text>
<text text-anchor="start" x="16" y="-1093.4" font-family="Consolas" font-size="12.00">Type type</text>
<text text-anchor="start" x="4" y="-1076.4" font-family="Consolas" font-size="12.00">+</text>
<text text-anchor="start" x="16" y="-1076.4" font-family="Consolas" font-size="12.00">bool isPrimitive</text>
<text text-anchor="start" x="4" y="-1059.4" font-family="Consolas" font-size="12.00">+</text>
<text text-anchor="start" x="16" y="-1059.4" font-family="Consolas" font-size="12.00">bool isValueType</text>
<text text-anchor="start" x="4" y="-1042.4" font-family="Consolas" font-size="12.00">+</text>
<text text-anchor="start" x="16" y="-1042.4" font-family="Consolas" font-size="12.00">bool isCollection</text>
<text text-anchor="start" x="4" y="-1025.4" font-family="Consolas" font-size="12.00">+</text>
<text text-anchor="start" x="16" y="-1025.4" font-family="Consolas" font-size="12.00">bool isDictionary</text>
<text text-anchor="start" x="4" y="-1008.4" font-family="Consolas" font-size="12.00">+</text>
<text text-anchor="start" x="16" y="-1008.4" font-family="Consolas" font-size="12.00">bool isTuple</text>
<text text-anchor="start" x="4" y="-991.4" font-family="Consolas" font-size="12.00">+</text>
<text text-anchor="start" x="16" y="-991.4" font-family="Consolas" font-size="12.00">bool isEnum</text>
<text text-anchor="start" x="4" y="-974.4" font-family="Consolas" font-size="12.00">+</text>
<text text-anchor="start" x="16" y="-974.4" font-family="Consolas" font-size="12.00">bool isES3TypeUnityObject</text>
<text text-anchor="start" x="4" y="-957.4" font-family="Consolas" font-size="12.00">+</text>
<text text-anchor="start" x="16" y="-957.4" font-family="Consolas" font-size="12.00">bool isReflectedType</text>
<text text-anchor="start" x="4" y="-940.4" font-family="Consolas" font-size="12.00">+</text>
<text text-anchor="start" x="16" y="-940.4" font-family="Consolas" font-size="12.00">bool isUnsupported</text>
<text text-anchor="start" x="4" y="-923.4" font-family="Consolas" font-size="12.00">+</text>
<text text-anchor="start" x="16" y="-923.4" font-family="Consolas" font-size="12.00">int priority</text>
<text text-anchor="start" x="4" y="-906.4" font-family="Consolas" font-size="12.00">+</text>
<text text-anchor="start" x="16" y="-906.4" font-family="Consolas" font-size="12.00">const string typeFieldName</text>
<text text-anchor="start" x="4" y="-889.4" font-family="Consolas" font-size="12.00">+</text>
<text text-anchor="start" x="16" y="-889.4" font-family="Consolas" font-size="12.00">void Write(object obj,</text>
<text text-anchor="start" x="16" y="-876.4" font-family="Consolas" font-size="12.00"> ES3Writer writer)</text>
<text text-anchor="start" x="4" y="-859.4" font-family="Consolas" font-size="12.00">+</text>
<text text-anchor="start" x="16" y="-859.4" font-family="Consolas" font-size="12.00">object Read&lt; T &gt;(ES3Reader</text>
<text text-anchor="start" x="16" y="-846.4" font-family="Consolas" font-size="12.00"> reader)</text>
<text text-anchor="start" x="4" y="-829.4" font-family="Consolas" font-size="12.00">+</text>
<text text-anchor="start" x="16" y="-829.4" font-family="Consolas" font-size="12.00">virtual void ReadInto</text>
<text text-anchor="start" x="16" y="-816.4" font-family="Consolas" font-size="12.00">&lt; T &gt;(ES3Reader reader,</text>
<text text-anchor="start" x="16" y="-803.4" font-family="Consolas" font-size="12.00"> object obj)</text>
<text text-anchor="start" x="4" y="-786.4" font-family="Consolas" font-size="12.00">~</text>
<text text-anchor="start" x="16" y="-786.4" font-family="Consolas" font-size="12.00">string ReadPropertyName</text>
<text text-anchor="start" x="16" y="-773.4" font-family="Consolas" font-size="12.00">(ES3Reader reader)</text>
<text text-anchor="start" x="4" y="-756.4" font-family="Consolas" font-size="12.00">#</text>
<text text-anchor="start" x="16" y="-756.4" font-family="Consolas" font-size="12.00">ES3Type(Type type)</text>
<text text-anchor="start" x="4" y="-739.4" font-family="Consolas" font-size="12.00">#</text>
<text text-anchor="start" x="16" y="-739.4" font-family="Consolas" font-size="12.00">bool WriteUsingDerivedType</text>
<text text-anchor="start" x="16" y="-726.4" font-family="Consolas" font-size="12.00">(object obj, ES3Writer writer)</text>
<text text-anchor="start" x="4" y="-709.4" font-family="Consolas" font-size="12.00">#</text>
<text text-anchor="start" x="16" y="-709.4" font-family="Consolas" font-size="12.00">void ReadUsingDerivedType</text>
<text text-anchor="start" x="16" y="-696.4" font-family="Consolas" font-size="12.00">&lt; T &gt;(ES3Reader reader,</text>
<text text-anchor="start" x="16" y="-683.4" font-family="Consolas" font-size="12.00"> object obj)</text>
<text text-anchor="start" x="4" y="-666.4" font-family="Consolas" font-size="12.00">#</text>
<text text-anchor="start" x="16" y="-666.4" font-family="Consolas" font-size="12.00">void WriteProperties</text>
<text text-anchor="start" x="16" y="-653.4" font-family="Consolas" font-size="12.00">(object obj, ES3Writer</text>
<text text-anchor="start" x="16" y="-640.4" font-family="Consolas" font-size="12.00"> writer)</text>
<text text-anchor="start" x="4" y="-623.4" font-family="Consolas" font-size="12.00">#</text>
<text text-anchor="start" x="16" y="-623.4" font-family="Consolas" font-size="12.00">object ReadProperties</text>
<text text-anchor="start" x="16" y="-610.4" font-family="Consolas" font-size="12.00">(ES3Reader reader, object obj)</text>
<text text-anchor="start" x="4" y="-593.4" font-family="Consolas" font-size="12.00">#</text>
<text text-anchor="start" x="16" y="-593.4" font-family="Consolas" font-size="12.00">void GetMembers(bool</text>
<text text-anchor="start" x="16" y="-580.4" font-family="Consolas" font-size="12.00"> safe)</text>
<text text-anchor="start" x="4" y="-563.4" font-family="Consolas" font-size="12.00">#</text>
<text text-anchor="start" x="16" y="-563.4" font-family="Consolas" font-size="12.00">void GetMembers(bool</text>
<text text-anchor="start" x="16" y="-550.4" font-family="Consolas" font-size="12.00"> safe, string[] memberNames)</text>
<polygon fill="#bfbfbf" stroke="#bfbfbf" points="0,-1122 0,-1122 246,-1122 246,-1122 0,-1122"/>
<polygon fill="#bfbfbf" stroke="#bfbfbf" points="0,-901 0,-901 14,-901 14,-901 0,-901"/>
<polygon fill="#bfbfbf" stroke="#bfbfbf" points="14,-901 14,-901 246,-901 246,-901 14,-901"/>
<polygon fill="none" stroke="#bfbfbf" points="0,-543 0,-1141 246,-1141 246,-543 0,-543"/>
</a>
</g>
</g>
<!-- Node3&#45;&gt;Node2 -->
<g id="edge2_Node000002_Node000003" class="edge">
<title>Node3&#45;&gt;Node2</title>
<g id="a_edge2_Node000002_Node000003"><a xlink:title=" ">
<path fill="none" stroke="#63b8ff" d="M123,-532.7C123,-524.02 123,-515.48 123,-507.13"/>
<polygon fill="none" stroke="#63b8ff" points="119.5,-532.95 123,-542.95 126.5,-532.95 119.5,-532.95"/>
</a>
</g>
</g>
</g>
</svg>
