<?xml version="1.0" encoding="UTF-8" standalone="no"?>
<!DOCTYPE svg PUBLIC "-//W3C//DTD SVG 1.1//EN"
 "http://www.w3.org/Graphics/SVG/1.1/DTD/svg11.dtd">
<!-- Generated by graphviz version 2.43.0 (0)
 -->
<!-- Title: MoraleIcon Pages: 1 -->
<svg width="654pt" height="958pt"
 viewBox="0.00 0.00 654.00 958.00" xmlns="http://www.w3.org/2000/svg" xmlns:xlink="http://www.w3.org/1999/xlink">
<g id="graph0" class="graph" transform="scale(1 1) rotate(0) translate(4 954)">
<title>MoraleIcon</title>
<!-- Node1 -->
<g id="Node000001" class="node">
<title>Node1</title>
<g id="a_Node000001"><a xlink:title=" ">
<polygon fill="#999999" stroke="transparent" points="409.5,-290 178.5,-290 178.5,0 409.5,0 409.5,-290"/>
<text text-anchor="start" x="256.5" y="-276.4" font-family="Consolas" font-size="12.00">MoraleIcon</text>
<text text-anchor="start" x="183" y="-259.4" font-family="Consolas" font-size="12.00">+</text>
<text text-anchor="start" x="195" y="-259.4" font-family="Consolas" font-size="12.00">CrewRace race</text>
<text text-anchor="start" x="183" y="-242.4" font-family="Consolas" font-size="12.00">+</text>
<text text-anchor="start" x="195" y="-242.4" font-family="Consolas" font-size="12.00">int totalValue</text>
<text text-anchor="start" x="183" y="-225.4" font-family="Consolas" font-size="12.00">+</text>
<text text-anchor="start" x="195" y="-225.4" font-family="Consolas" font-size="12.00">Image iconImage</text>
<text text-anchor="start" x="183" y="-208.4" font-family="Consolas" font-size="12.00">&#45;</text>
<text text-anchor="start" x="195" y="-208.4" font-family="Consolas" font-size="12.00">List&lt; MoraleEffectData</text>
<text text-anchor="start" x="195" y="-195.4" font-family="Consolas" font-size="12.00"> &gt; effectDataList</text>
<text text-anchor="start" x="183" y="-178.4" font-family="Consolas" font-size="12.00">+</text>
<text text-anchor="start" x="195" y="-178.4" font-family="Consolas" font-size="12.00">void Initialize(CrewRace</text>
<text text-anchor="start" x="195" y="-165.4" font-family="Consolas" font-size="12.00"> race)</text>
<text text-anchor="start" x="183" y="-148.4" font-family="Consolas" font-size="12.00">+</text>
<text text-anchor="start" x="195" y="-148.4" font-family="Consolas" font-size="12.00">void AddEffectData</text>
<text text-anchor="start" x="195" y="-135.4" font-family="Consolas" font-size="12.00">(MoraleEffectData data)</text>
<text text-anchor="start" x="183" y="-118.4" font-family="Consolas" font-size="12.00">+</text>
<text text-anchor="start" x="195" y="-118.4" font-family="Consolas" font-size="12.00">void RemoveEffectData</text>
<text text-anchor="start" x="195" y="-105.4" font-family="Consolas" font-size="12.00">(MoraleEffectData data)</text>
<text text-anchor="start" x="183" y="-88.4" font-family="Consolas" font-size="12.00">+</text>
<text text-anchor="start" x="195" y="-88.4" font-family="Consolas" font-size="12.00">void ClearEffectData()</text>
<text text-anchor="start" x="183" y="-71.4" font-family="Consolas" font-size="12.00">#</text>
<text text-anchor="start" x="195" y="-71.4" font-family="Consolas" font-size="12.00">override void Start()</text>
<text text-anchor="start" x="183" y="-54.4" font-family="Consolas" font-size="12.00">#</text>
<text text-anchor="start" x="195" y="-54.4" font-family="Consolas" font-size="12.00">override void SetToolTip</text>
<text text-anchor="start" x="195" y="-41.4" font-family="Consolas" font-size="12.00">Text()</text>
<text text-anchor="start" x="183" y="-24.4" font-family="Consolas" font-size="12.00">&#45;</text>
<text text-anchor="start" x="195" y="-24.4" font-family="Consolas" font-size="12.00">void RecalculateTotalValue()</text>
<text text-anchor="start" x="183" y="-7.4" font-family="Consolas" font-size="12.00">&#45;</text>
<text text-anchor="start" x="195" y="-7.4" font-family="Consolas" font-size="12.00">void UpdateSprite()</text>
<polygon fill="#666666" stroke="#666666" points="179,-271 179,-271 410,-271 410,-271 179,-271"/>
<polygon fill="#666666" stroke="#666666" points="179,-190 179,-190 193,-190 193,-190 179,-190"/>
<polygon fill="#666666" stroke="#666666" points="193,-190 193,-190 410,-190 410,-190 193,-190"/>
<polygon fill="none" stroke="#666666" points="178.5,0 178.5,-290 409.5,-290 409.5,0 178.5,0"/>
</a>
</g>
</g>
<!-- Node2 -->
<g id="Node000002" class="node">
<title>Node2</title>
<g id="a_Node000002"><a xlink:href="classTooltipPanelBase.html" target="_top" xlink:title=" ">
<polygon fill="white" stroke="transparent" points="409.5,-844 178.5,-844 178.5,-327 409.5,-327 409.5,-844"/>
<text text-anchor="start" x="234" y="-829.9" font-family="Consolas" font-size="12.00">TooltipPanelBase</text>
<text text-anchor="start" x="183" y="-812.9" font-family="Consolas" font-size="12.00">#</text>
<text text-anchor="start" x="195" y="-812.9" font-family="Consolas" font-size="12.00">GameObject tooltipPrefab</text>
<text text-anchor="start" x="183" y="-795.9" font-family="Consolas" font-size="12.00">#</text>
<text text-anchor="start" x="195" y="-795.9" font-family="Consolas" font-size="12.00">GameObject currentToolTip</text>
<text text-anchor="start" x="183" y="-778.9" font-family="Consolas" font-size="12.00">#</text>
<text text-anchor="start" x="195" y="-778.9" font-family="Consolas" font-size="12.00">Canvas canvasComponent</text>
<text text-anchor="start" x="183" y="-761.9" font-family="Consolas" font-size="12.00">#</text>
<text text-anchor="start" x="195" y="-761.9" font-family="Consolas" font-size="12.00">RectTransform canvasRect</text>
<text text-anchor="start" x="195" y="-748.9" font-family="Consolas" font-size="12.00">Transform</text>
<text text-anchor="start" x="183" y="-731.9" font-family="Consolas" font-size="12.00">#</text>
<text text-anchor="start" x="195" y="-731.9" font-family="Consolas" font-size="12.00">bool isMouseOver</text>
<text text-anchor="start" x="183" y="-714.9" font-family="Consolas" font-size="12.00">#</text>
<text text-anchor="start" x="195" y="-714.9" font-family="Consolas" font-size="12.00">Coroutine toolTipCoroutine</text>
<text text-anchor="start" x="183" y="-697.9" font-family="Consolas" font-size="12.00">#</text>
<text text-anchor="start" x="195" y="-697.9" font-family="Consolas" font-size="12.00">GameObject tooltipParent</text>
<text text-anchor="start" x="183" y="-680.9" font-family="Consolas" font-size="12.00">+</text>
<text text-anchor="start" x="195" y="-680.9" font-family="Consolas" font-size="12.00">virtual void OnPointerEnter</text>
<text text-anchor="start" x="195" y="-667.9" font-family="Consolas" font-size="12.00">(PointerEventData eventData)</text>
<text text-anchor="start" x="183" y="-650.9" font-family="Consolas" font-size="12.00">+</text>
<text text-anchor="start" x="195" y="-650.9" font-family="Consolas" font-size="12.00">virtual void OnPointerExit</text>
<text text-anchor="start" x="195" y="-637.9" font-family="Consolas" font-size="12.00">(PointerEventData eventData)</text>
<text text-anchor="start" x="183" y="-620.9" font-family="Consolas" font-size="12.00">#</text>
<text text-anchor="start" x="195" y="-620.9" font-family="Consolas" font-size="12.00">virtual void Start()</text>
<text text-anchor="start" x="183" y="-603.9" font-family="Consolas" font-size="12.00">#</text>
<text text-anchor="start" x="195" y="-603.9" font-family="Consolas" font-size="12.00">virtual void Update()</text>
<text text-anchor="start" x="183" y="-586.9" font-family="Consolas" font-size="12.00">#</text>
<text text-anchor="start" x="195" y="-586.9" font-family="Consolas" font-size="12.00">virtual void CreateTooltip()</text>
<text text-anchor="start" x="183" y="-569.9" font-family="Consolas" font-size="12.00">#</text>
<text text-anchor="start" x="195" y="-569.9" font-family="Consolas" font-size="12.00">virtual void OnMouseEnter</text>
<text text-anchor="start" x="195" y="-556.9" font-family="Consolas" font-size="12.00">(PointerEventData eventData)</text>
<text text-anchor="start" x="183" y="-539.9" font-family="Consolas" font-size="12.00">#</text>
<text text-anchor="start" x="195" y="-539.9" font-family="Consolas" font-size="12.00">virtual void OnMouseExit</text>
<text text-anchor="start" x="195" y="-526.9" font-family="Consolas" font-size="12.00">(PointerEventData eventData)</text>
<text text-anchor="start" x="183" y="-509.9" font-family="Consolas" font-size="12.00">#</text>
<text text-anchor="start" x="195" y="-509.9" font-family="Consolas" font-size="12.00">virtual void UpdateToolTip</text>
<text text-anchor="start" x="195" y="-496.9" font-family="Consolas" font-size="12.00">PositionFromMouse()</text>
<text text-anchor="start" x="183" y="-479.9" font-family="Consolas" font-size="12.00">#</text>
<text text-anchor="start" x="195" y="-479.9" font-family="Consolas" font-size="12.00">virtual void UpdateToolTip</text>
<text text-anchor="start" x="195" y="-466.9" font-family="Consolas" font-size="12.00">Position(PointerEventData</text>
<text text-anchor="start" x="195" y="-453.9" font-family="Consolas" font-size="12.00"> eventData)</text>
<text text-anchor="start" x="183" y="-436.9" font-family="Consolas" font-size="12.00">#</text>
<text text-anchor="start" x="195" y="-436.9" font-family="Consolas" font-size="12.00">virtual void UpdateToolTip</text>
<text text-anchor="start" x="195" y="-423.9" font-family="Consolas" font-size="12.00">PositionInternal(Vector2</text>
<text text-anchor="start" x="195" y="-410.9" font-family="Consolas" font-size="12.00"> mousePosition)</text>
<text text-anchor="start" x="183" y="-393.9" font-family="Consolas" font-size="12.00">#</text>
<text text-anchor="start" x="195" y="-393.9" font-family="Consolas" font-size="12.00">virtual IEnumerator</text>
<text text-anchor="start" x="195" y="-380.9" font-family="Consolas" font-size="12.00"> ShowToolTipWithDelay</text>
<text text-anchor="start" x="195" y="-367.9" font-family="Consolas" font-size="12.00">(PointerEventData eventData)</text>
<text text-anchor="start" x="183" y="-350.9" font-family="Consolas" font-size="12.00">#</text>
<text text-anchor="start" x="195" y="-350.9" font-family="Consolas" font-size="12.00">virtual void OnDestroy()</text>
<text text-anchor="start" x="183" y="-333.9" font-family="Consolas" font-size="12.00">#</text>
<text text-anchor="start" x="195" y="-333.9" font-family="Consolas" font-size="12.00">void SetToolTipText()</text>
<polygon fill="#bfbfbf" stroke="#bfbfbf" points="179,-824.5 179,-824.5 410,-824.5 410,-824.5 179,-824.5"/>
<polygon fill="#bfbfbf" stroke="#bfbfbf" points="179,-692.5 179,-692.5 193,-692.5 193,-692.5 179,-692.5"/>
<polygon fill="#bfbfbf" stroke="#bfbfbf" points="193,-692.5 193,-692.5 410,-692.5 410,-692.5 193,-692.5"/>
<polygon fill="none" stroke="#bfbfbf" points="178.5,-327 178.5,-844 409.5,-844 409.5,-327 178.5,-327"/>
</a>
</g>
</g>
<!-- Node2&#45;&gt;Node1 -->
<g id="edge1_Node000001_Node000002" class="edge">
<title>Node2&#45;&gt;Node1</title>
<g id="a_edge1_Node000001_Node000002"><a xlink:title=" ">
<path fill="none" stroke="#63b8ff" d="M294,-316.68C294,-307.68 294,-298.8 294,-290.1"/>
<polygon fill="none" stroke="#63b8ff" points="290.5,-316.89 294,-326.89 297.5,-316.89 290.5,-316.89"/>
</a>
</g>
</g>
<!-- Node3 -->
<g id="Node000003" class="node">
<title>Node3</title>
<g id="a_Node000003"><a xlink:title=" ">
<polygon fill="white" stroke="transparent" points="108,-950 0,-950 0,-895 108,-895 108,-950"/>
<text text-anchor="start" x="5" y="-935.9" font-family="Consolas" font-size="12.00">MonoBehaviour</text>
<text text-anchor="start" x="50" y="-918.9" font-family="Consolas" font-size="12.00"> </text>
<text text-anchor="start" x="50" y="-901.9" font-family="Consolas" font-size="12.00"> </text>
<polygon fill="#bfbfbf" stroke="#bfbfbf" points="0,-930.5 0,-930.5 108,-930.5 108,-930.5 0,-930.5"/>
<polygon fill="#bfbfbf" stroke="#bfbfbf" points="0,-913.5 0,-913.5 108,-913.5 108,-913.5 0,-913.5"/>
<polygon fill="none" stroke="#bfbfbf" points="0,-895 0,-950 108,-950 108,-895 0,-895"/>
</a>
</g>
</g>
<!-- Node3&#45;&gt;Node2 -->
<g id="edge2_Node000002_Node000003" class="edge">
<title>Node3&#45;&gt;Node2</title>
<g id="a_edge2_Node000002_Node000003"><a xlink:title=" ">
<path fill="none" stroke="#63b8ff" d="M79.12,-886.44C103.1,-852.97 141.01,-800.05 178.36,-747.92"/>
<polygon fill="none" stroke="#63b8ff" points="76.01,-884.77 73.03,-894.93 81.7,-888.84 76.01,-884.77"/>
</a>
</g>
</g>
<!-- Node4 -->
<g id="Node000004" class="node">
<title>Node4</title>
<g id="a_Node000004"><a xlink:title=" ">
<polygon fill="white" stroke="transparent" points="287.5,-950 126.5,-950 126.5,-895 287.5,-895 287.5,-950"/>
<text text-anchor="start" x="132" y="-935.9" font-family="Consolas" font-size="12.00">IPointerEnterHandler</text>
<text text-anchor="start" x="203.5" y="-918.9" font-family="Consolas" font-size="12.00"> </text>
<text text-anchor="start" x="203.5" y="-901.9" font-family="Consolas" font-size="12.00"> </text>
<polygon fill="#bfbfbf" stroke="#bfbfbf" points="127,-930.5 127,-930.5 288,-930.5 288,-930.5 127,-930.5"/>
<polygon fill="#bfbfbf" stroke="#bfbfbf" points="127,-913.5 127,-913.5 288,-913.5 288,-913.5 127,-913.5"/>
<polygon fill="none" stroke="#bfbfbf" points="126.5,-895 126.5,-950 287.5,-950 287.5,-895 126.5,-895"/>
</a>
</g>
</g>
<!-- Node4&#45;&gt;Node2 -->
<g id="edge3_Node000002_Node000004" class="edge">
<title>Node4&#45;&gt;Node2</title>
<g id="a_edge3_Node000002_Node000004"><a xlink:title=" ">
<path fill="none" stroke="#63b8ff" d="M216.5,-884.9C219.53,-873.27 223.13,-859.4 227.1,-844.11"/>
<polygon fill="none" stroke="#63b8ff" points="213.03,-884.37 213.9,-894.93 219.8,-886.13 213.03,-884.37"/>
</a>
</g>
</g>
<!-- Node5 -->
<g id="Node000005" class="node">
<title>Node5</title>
<g id="a_Node000005"><a xlink:title=" ">
<polygon fill="white" stroke="transparent" points="458.5,-950 305.5,-950 305.5,-895 458.5,-895 458.5,-950"/>
<text text-anchor="start" x="311" y="-935.9" font-family="Consolas" font-size="12.00">IPointerExitHandler</text>
<text text-anchor="start" x="378.5" y="-918.9" font-family="Consolas" font-size="12.00"> </text>
<text text-anchor="start" x="378.5" y="-901.9" font-family="Consolas" font-size="12.00"> </text>
<polygon fill="#bfbfbf" stroke="#bfbfbf" points="306,-930.5 306,-930.5 459,-930.5 459,-930.5 306,-930.5"/>
<polygon fill="#bfbfbf" stroke="#bfbfbf" points="306,-913.5 306,-913.5 459,-913.5 459,-913.5 306,-913.5"/>
<polygon fill="none" stroke="#bfbfbf" points="305.5,-895 305.5,-950 458.5,-950 458.5,-895 305.5,-895"/>
</a>
</g>
</g>
<!-- Node5&#45;&gt;Node2 -->
<g id="edge4_Node000002_Node000005" class="edge">
<title>Node5&#45;&gt;Node2</title>
<g id="a_edge4_Node000002_Node000005"><a xlink:title=" ">
<path fill="none" stroke="#63b8ff" d="M372.48,-885.26C369.4,-873.55 365.73,-859.56 361.67,-844.11"/>
<polygon fill="none" stroke="#63b8ff" points="369.1,-886.15 375.02,-894.93 375.87,-884.37 369.1,-886.15"/>
</a>
</g>
</g>
<!-- Node6 -->
<g id="Node000006" class="node">
<title>Node6</title>
<g id="a_Node000006"><a xlink:title=" ">
<polygon fill="white" stroke="transparent" points="569.5,-950 476.5,-950 476.5,-895 569.5,-895 569.5,-950"/>
<text text-anchor="start" x="482" y="-935.9" font-family="Consolas" font-size="12.00">UnityEngine</text>
<text text-anchor="start" x="519.5" y="-918.9" font-family="Consolas" font-size="12.00"> </text>
<text text-anchor="start" x="519.5" y="-901.9" font-family="Consolas" font-size="12.00"> </text>
<polygon fill="#bfbfbf" stroke="#bfbfbf" points="477,-930.5 477,-930.5 570,-930.5 570,-930.5 477,-930.5"/>
<polygon fill="#bfbfbf" stroke="#bfbfbf" points="477,-913.5 477,-913.5 570,-913.5 570,-913.5 477,-913.5"/>
<polygon fill="none" stroke="#bfbfbf" points="476.5,-895 476.5,-950 569.5,-950 569.5,-895 476.5,-895"/>
</a>
</g>
</g>
<!-- Node6&#45;&gt;Node2 -->
<g id="edge5_Node000002_Node000006" class="edge">
<title>Node6&#45;&gt;Node2</title>
<g id="a_edge5_Node000002_Node000006"><a xlink:title=" ">
<path fill="none" stroke="#63b8ff" d="M504.84,-894.93C484.95,-865.84 451.25,-816.54 416.56,-765.79"/>
<polygon fill="none" stroke="#63b8ff" points="416.38,-765.53 409.7,-762.84 409.61,-755.63 416.3,-758.32 416.38,-765.53"/>
</a>
</g>
<text text-anchor="middle" x="567.5" y="-865.8" font-family="Consolas" font-size="14.00" fill="grey"> #lastMousePosition</text>
</g>
</g>
</svg>
