<?xml version="1.0" encoding="UTF-8" standalone="no"?>
<!DOCTYPE svg PUBLIC "-//W3C//DTD SVG 1.1//EN"
 "http://www.w3.org/Graphics/SVG/1.1/DTD/svg11.dtd">
<!-- Generated by graphviz version 2.43.0 (0)
 -->
<!-- Title: ES3SerializableSettings Pages: 1 -->
<svg width="276pt" height="1392pt"
 viewBox="0.00 0.00 276.00 1392.00" xmlns="http://www.w3.org/2000/svg" xmlns:xlink="http://www.w3.org/1999/xlink">
<g id="graph0" class="graph" transform="scale(1 1) rotate(0) translate(4 1388)">
<title>ES3SerializableSettings</title>
<!-- Node1 -->
<g id="Node000001" class="node">
<title>Node1</title>
<g id="a_Node000001"><a xlink:title=" ">
<polygon fill="#999999" stroke="transparent" points="242,-158 26,-158 26,0 242,0 242,-158"/>
<text text-anchor="start" x="47.5" y="-144.4" font-family="Consolas" font-size="12.00">ES3SerializableSettings</text>
<text text-anchor="start" x="130" y="-127.4" font-family="Consolas" font-size="12.00"> </text>
<text text-anchor="start" x="30" y="-110.4" font-family="Consolas" font-size="12.00">+</text>
<text text-anchor="start" x="42" y="-110.4" font-family="Consolas" font-size="12.00">ES3SerializableSettings()</text>
<text text-anchor="start" x="30" y="-93.4" font-family="Consolas" font-size="12.00">+</text>
<text text-anchor="start" x="42" y="-93.4" font-family="Consolas" font-size="12.00">ES3SerializableSettings</text>
<text text-anchor="start" x="42" y="-80.4" font-family="Consolas" font-size="12.00">(bool applyDefaults)</text>
<text text-anchor="start" x="30" y="-63.4" font-family="Consolas" font-size="12.00">+</text>
<text text-anchor="start" x="42" y="-63.4" font-family="Consolas" font-size="12.00">ES3SerializableSettings</text>
<text text-anchor="start" x="42" y="-50.4" font-family="Consolas" font-size="12.00">(string path)</text>
<text text-anchor="start" x="30" y="-33.4" font-family="Consolas" font-size="12.00">+</text>
<text text-anchor="start" x="42" y="-33.4" font-family="Consolas" font-size="12.00">ES3SerializableSettings</text>
<text text-anchor="start" x="42" y="-20.4" font-family="Consolas" font-size="12.00">(string path, ES3.Location</text>
<text text-anchor="start" x="42" y="-7.4" font-family="Consolas" font-size="12.00"> location)</text>
<polygon fill="#666666" stroke="#666666" points="26,-139 26,-139 242,-139 242,-139 26,-139"/>
<polygon fill="#666666" stroke="#666666" points="26,-122 26,-122 242,-122 242,-122 26,-122"/>
<polygon fill="none" stroke="#666666" points="26,0 26,-158 242,-158 242,0 26,0"/>
</a>
</g>
</g>
<!-- Node2 -->
<g id="Node000002" class="node">
<title>Node2</title>
<g id="a_Node000002"><a xlink:href="classES3Settings.html" target="_top" xlink:title=" ">
<polygon fill="white" stroke="transparent" points="268,-1293 0,-1293 0,-194 268,-194 268,-1293"/>
<text text-anchor="start" x="92.5" y="-1278.9" font-family="Consolas" font-size="12.00">ES3Settings</text>
<text text-anchor="start" x="4" y="-1261.9" font-family="Consolas" font-size="12.00">+</text>
<text text-anchor="start" x="16" y="-1261.9" font-family="Consolas" font-size="12.00">string path</text>
<text text-anchor="start" x="4" y="-1244.9" font-family="Consolas" font-size="12.00">+</text>
<text text-anchor="start" x="16" y="-1244.9" font-family="Consolas" font-size="12.00">ES3.EncryptionType</text>
<text text-anchor="start" x="16" y="-1231.9" font-family="Consolas" font-size="12.00"> encryptionType</text>
<text text-anchor="start" x="4" y="-1214.9" font-family="Consolas" font-size="12.00">+</text>
<text text-anchor="start" x="16" y="-1214.9" font-family="Consolas" font-size="12.00">ES3.CompressionType</text>
<text text-anchor="start" x="16" y="-1201.9" font-family="Consolas" font-size="12.00"> compressionType</text>
<text text-anchor="start" x="4" y="-1184.9" font-family="Consolas" font-size="12.00">+</text>
<text text-anchor="start" x="16" y="-1184.9" font-family="Consolas" font-size="12.00">string encryptionPassword</text>
<text text-anchor="start" x="4" y="-1167.9" font-family="Consolas" font-size="12.00">+</text>
<text text-anchor="start" x="16" y="-1167.9" font-family="Consolas" font-size="12.00">ES3.Directory directory</text>
<text text-anchor="start" x="4" y="-1150.9" font-family="Consolas" font-size="12.00">+</text>
<text text-anchor="start" x="16" y="-1150.9" font-family="Consolas" font-size="12.00">ES3.Format format</text>
<text text-anchor="start" x="4" y="-1133.9" font-family="Consolas" font-size="12.00">+</text>
<text text-anchor="start" x="16" y="-1133.9" font-family="Consolas" font-size="12.00">bool prettyPrint</text>
<text text-anchor="start" x="4" y="-1116.9" font-family="Consolas" font-size="12.00">+</text>
<text text-anchor="start" x="16" y="-1116.9" font-family="Consolas" font-size="12.00">int bufferSize</text>
<text text-anchor="start" x="4" y="-1099.9" font-family="Consolas" font-size="12.00">+</text>
<text text-anchor="start" x="16" y="-1099.9" font-family="Consolas" font-size="12.00">System.Text.Encoding</text>
<text text-anchor="start" x="16" y="-1086.9" font-family="Consolas" font-size="12.00"> encoding</text>
<text text-anchor="start" x="4" y="-1069.9" font-family="Consolas" font-size="12.00">+</text>
<text text-anchor="start" x="16" y="-1069.9" font-family="Consolas" font-size="12.00">bool saveChildren</text>
<text text-anchor="start" x="4" y="-1052.9" font-family="Consolas" font-size="12.00">+</text>
<text text-anchor="start" x="16" y="-1052.9" font-family="Consolas" font-size="12.00">bool postprocessRawCachedData</text>
<text text-anchor="start" x="4" y="-1035.9" font-family="Consolas" font-size="12.00">+</text>
<text text-anchor="start" x="16" y="-1035.9" font-family="Consolas" font-size="12.00">bool storeCacheAtEndOfEvery</text>
<text text-anchor="start" x="16" y="-1022.9" font-family="Consolas" font-size="12.00">Frame</text>
<text text-anchor="start" x="4" y="-1005.9" font-family="Consolas" font-size="12.00">+</text>
<text text-anchor="start" x="16" y="-1005.9" font-family="Consolas" font-size="12.00">bool storeCacheOnApplicationQuit</text>
<text text-anchor="start" x="4" y="-988.9" font-family="Consolas" font-size="12.00">+</text>
<text text-anchor="start" x="16" y="-988.9" font-family="Consolas" font-size="12.00">bool storeCacheOnApplication</text>
<text text-anchor="start" x="16" y="-975.9" font-family="Consolas" font-size="12.00">Pause</text>
<text text-anchor="start" x="4" y="-958.9" font-family="Consolas" font-size="12.00">+</text>
<text text-anchor="start" x="16" y="-958.9" font-family="Consolas" font-size="12.00">bool autoCacheDefaultFile</text>
<text text-anchor="start" x="4" y="-941.9" font-family="Consolas" font-size="12.00">+</text>
<text text-anchor="start" x="16" y="-941.9" font-family="Consolas" font-size="12.00">bool autoCacheFileOnLoad</text>
<text text-anchor="start" x="4" y="-924.9" font-family="Consolas" font-size="12.00">+</text>
<text text-anchor="start" x="16" y="-924.9" font-family="Consolas" font-size="12.00">bool typeChecking</text>
<text text-anchor="start" x="4" y="-907.9" font-family="Consolas" font-size="12.00">+</text>
<text text-anchor="start" x="16" y="-907.9" font-family="Consolas" font-size="12.00">bool safeReflection</text>
<text text-anchor="start" x="4" y="-890.9" font-family="Consolas" font-size="12.00">+</text>
<text text-anchor="start" x="16" y="-890.9" font-family="Consolas" font-size="12.00">ES3.ReferenceMode member</text>
<text text-anchor="start" x="16" y="-877.9" font-family="Consolas" font-size="12.00">ReferenceMode</text>
<text text-anchor="start" x="4" y="-860.9" font-family="Consolas" font-size="12.00">+</text>
<text text-anchor="start" x="16" y="-860.9" font-family="Consolas" font-size="12.00">ES3.ReferenceMode referenceMode</text>
<text text-anchor="start" x="4" y="-843.9" font-family="Consolas" font-size="12.00">+</text>
<text text-anchor="start" x="16" y="-843.9" font-family="Consolas" font-size="12.00">int serializationDepthLimit</text>
<text text-anchor="start" x="4" y="-826.9" font-family="Consolas" font-size="12.00">+</text>
<text text-anchor="start" x="16" y="-826.9" font-family="Consolas" font-size="12.00">string[] assemblyNames</text>
<text text-anchor="start" x="4" y="-809.9" font-family="Consolas" font-size="12.00">+</text>
<text text-anchor="start" x="16" y="-809.9" font-family="Consolas" font-size="12.00">static ES3Defaults</text>
<text text-anchor="start" x="16" y="-796.9" font-family="Consolas" font-size="12.00"> defaultSettingsScriptable</text>
<text text-anchor="start" x="16" y="-783.9" font-family="Consolas" font-size="12.00">Object</text>
<text text-anchor="start" x="4" y="-766.9" font-family="Consolas" font-size="12.00">+</text>
<text text-anchor="start" x="16" y="-766.9" font-family="Consolas" font-size="12.00">static ES3Settings</text>
<text text-anchor="start" x="16" y="-753.9" font-family="Consolas" font-size="12.00"> defaultSettings</text>
<text text-anchor="start" x="4" y="-736.9" font-family="Consolas" font-size="12.00">+</text>
<text text-anchor="start" x="16" y="-736.9" font-family="Consolas" font-size="12.00">static ES3Settings</text>
<text text-anchor="start" x="16" y="-723.9" font-family="Consolas" font-size="12.00"> unencryptedUncompressedSettings</text>
<text text-anchor="start" x="4" y="-706.9" font-family="Consolas" font-size="12.00">+</text>
<text text-anchor="start" x="16" y="-706.9" font-family="Consolas" font-size="12.00">ES3.Location location</text>
<text text-anchor="start" x="4" y="-689.9" font-family="Consolas" font-size="12.00">+</text>
<text text-anchor="start" x="16" y="-689.9" font-family="Consolas" font-size="12.00">string FullPath</text>
<text text-anchor="start" x="4" y="-672.9" font-family="Consolas" font-size="12.00">&#45;</text>
<text text-anchor="start" x="16" y="-672.9" font-family="Consolas" font-size="12.00">ES3.Location _location</text>
<text text-anchor="start" x="4" y="-655.9" font-family="Consolas" font-size="12.00">&#45;</text>
<text text-anchor="start" x="16" y="-655.9" font-family="Consolas" font-size="12.00">static ES3Settings</text>
<text text-anchor="start" x="16" y="-642.9" font-family="Consolas" font-size="12.00"> _defaults</text>
<text text-anchor="start" x="4" y="-625.9" font-family="Consolas" font-size="12.00">&#45;</text>
<text text-anchor="start" x="16" y="-625.9" font-family="Consolas" font-size="12.00">static ES3Defaults</text>
<text text-anchor="start" x="16" y="-612.9" font-family="Consolas" font-size="12.00"> _defaultSettingsScriptable</text>
<text text-anchor="start" x="16" y="-599.9" font-family="Consolas" font-size="12.00">Object</text>
<text text-anchor="start" x="4" y="-582.9" font-family="Consolas" font-size="12.00">&#45;</text>
<text text-anchor="start" x="16" y="-582.9" font-family="Consolas" font-size="12.00">const string defaultSettingsPath</text>
<text text-anchor="start" x="4" y="-565.9" font-family="Consolas" font-size="12.00">&#45;</text>
<text text-anchor="start" x="16" y="-565.9" font-family="Consolas" font-size="12.00">static ES3Settings</text>
<text text-anchor="start" x="16" y="-552.9" font-family="Consolas" font-size="12.00"> _unencryptedUncompressedSettings</text>
<text text-anchor="start" x="4" y="-535.9" font-family="Consolas" font-size="12.00">&#45;</text>
<text text-anchor="start" x="16" y="-535.9" font-family="Consolas" font-size="12.00">static readonly string</text>
<text text-anchor="start" x="16" y="-522.9" font-family="Consolas" font-size="12.00">[] resourcesExtensions</text>
<text text-anchor="start" x="4" y="-505.9" font-family="Consolas" font-size="12.00">+</text>
<text text-anchor="start" x="16" y="-505.9" font-family="Consolas" font-size="12.00">ES3Settings(string</text>
<text text-anchor="start" x="16" y="-492.9" font-family="Consolas" font-size="12.00"> path=null, ES3Settings</text>
<text text-anchor="start" x="16" y="-479.9" font-family="Consolas" font-size="12.00"> settings=null)</text>
<text text-anchor="start" x="4" y="-462.9" font-family="Consolas" font-size="12.00">+</text>
<text text-anchor="start" x="16" y="-462.9" font-family="Consolas" font-size="12.00">ES3Settings(string</text>
<text text-anchor="start" x="16" y="-449.9" font-family="Consolas" font-size="12.00"> path, params System.Enum</text>
<text text-anchor="start" x="16" y="-436.9" font-family="Consolas" font-size="12.00">[] enums)</text>
<text text-anchor="start" x="4" y="-419.9" font-family="Consolas" font-size="12.00">+</text>
<text text-anchor="start" x="16" y="-419.9" font-family="Consolas" font-size="12.00">ES3Settings(params</text>
<text text-anchor="start" x="16" y="-406.9" font-family="Consolas" font-size="12.00"> System.Enum[] enums)</text>
<text text-anchor="start" x="4" y="-389.9" font-family="Consolas" font-size="12.00">+</text>
<text text-anchor="start" x="16" y="-389.9" font-family="Consolas" font-size="12.00">ES3Settings(ES3.Encryption</text>
<text text-anchor="start" x="16" y="-376.9" font-family="Consolas" font-size="12.00">Type encryptionType, string</text>
<text text-anchor="start" x="16" y="-363.9" font-family="Consolas" font-size="12.00"> encryptionPassword)</text>
<text text-anchor="start" x="4" y="-346.9" font-family="Consolas" font-size="12.00">+</text>
<text text-anchor="start" x="16" y="-346.9" font-family="Consolas" font-size="12.00">ES3Settings(string</text>
<text text-anchor="start" x="16" y="-333.9" font-family="Consolas" font-size="12.00"> path, ES3.EncryptionType</text>
<text text-anchor="start" x="16" y="-320.9" font-family="Consolas" font-size="12.00"> encryptionType, string</text>
<text text-anchor="start" x="16" y="-307.9" font-family="Consolas" font-size="12.00"> encryptionPassword, ES3Settings</text>
<text text-anchor="start" x="16" y="-294.9" font-family="Consolas" font-size="12.00"> settings=null)</text>
<text text-anchor="start" x="4" y="-277.9" font-family="Consolas" font-size="12.00">+</text>
<text text-anchor="start" x="16" y="-277.9" font-family="Consolas" font-size="12.00">ES3Settings(bool applyDefaults)</text>
<text text-anchor="start" x="4" y="-260.9" font-family="Consolas" font-size="12.00">+</text>
<text text-anchor="start" x="16" y="-260.9" font-family="Consolas" font-size="12.00">object Clone()</text>
<text text-anchor="start" x="4" y="-243.9" font-family="Consolas" font-size="12.00">&#45;</text>
<text text-anchor="start" x="16" y="-243.9" font-family="Consolas" font-size="12.00">void CopyInto(ES3Settings</text>
<text text-anchor="start" x="16" y="-230.9" font-family="Consolas" font-size="12.00"> newSettings)</text>
<text text-anchor="start" x="4" y="-213.9" font-family="Consolas" font-size="12.00">&#45;</text>
<text text-anchor="start" x="16" y="-213.9" font-family="Consolas" font-size="12.00">static bool IsAbsolute</text>
<text text-anchor="start" x="16" y="-200.9" font-family="Consolas" font-size="12.00">(string path)</text>
<polygon fill="#bfbfbf" stroke="#bfbfbf" points="0,-1273.5 0,-1273.5 268,-1273.5 268,-1273.5 0,-1273.5"/>
<polygon fill="#bfbfbf" stroke="#bfbfbf" points="0,-517.5 0,-517.5 14,-517.5 14,-517.5 0,-517.5"/>
<polygon fill="#bfbfbf" stroke="#bfbfbf" points="14,-517.5 14,-517.5 268,-517.5 268,-517.5 14,-517.5"/>
<polygon fill="none" stroke="#bfbfbf" points="0,-194 0,-1293 268,-1293 268,-194 0,-194"/>
</a>
</g>
</g>
<!-- Node2&#45;&gt;Node1 -->
<g id="edge1_Node000001_Node000002" class="edge">
<title>Node2&#45;&gt;Node1</title>
<g id="a_edge1_Node000001_Node000002"><a xlink:title=" ">
<path fill="none" stroke="#63b8ff" d="M134,-183.63C134,-174.7 134,-166.2 134,-158.19"/>
<polygon fill="none" stroke="#63b8ff" points="130.5,-183.89 134,-193.89 137.5,-183.89 130.5,-183.89"/>
</a>
</g>
</g>
<!-- Node3 -->
<g id="Node000003" class="node">
<title>Node3</title>
<g id="a_Node000003"><a xlink:title=" ">
<polygon fill="white" stroke="transparent" points="207,-1384 61,-1384 61,-1329 207,-1329 207,-1384"/>
<text text-anchor="start" x="66" y="-1369.9" font-family="Consolas" font-size="12.00">System::ICloneable</text>
<text text-anchor="start" x="130" y="-1352.9" font-family="Consolas" font-size="12.00"> </text>
<text text-anchor="start" x="130" y="-1335.9" font-family="Consolas" font-size="12.00"> </text>
<polygon fill="#bfbfbf" stroke="#bfbfbf" points="61,-1364.5 61,-1364.5 207,-1364.5 207,-1364.5 61,-1364.5"/>
<polygon fill="#bfbfbf" stroke="#bfbfbf" points="61,-1347.5 61,-1347.5 207,-1347.5 207,-1347.5 61,-1347.5"/>
<polygon fill="none" stroke="#bfbfbf" points="61,-1329 61,-1384 207,-1384 207,-1329 61,-1329"/>
</a>
</g>
</g>
<!-- Node3&#45;&gt;Node2 -->
<g id="edge2_Node000002_Node000003" class="edge">
<title>Node3&#45;&gt;Node2</title>
<g id="a_edge2_Node000002_Node000003"><a xlink:title=" ">
<path fill="none" stroke="#63b8ff" d="M134,-1318.61C134,-1311.13 134,-1302.65 134,-1293.31"/>
<polygon fill="none" stroke="#63b8ff" points="130.5,-1318.85 134,-1328.85 137.5,-1318.85 130.5,-1318.85"/>
</a>
</g>
</g>
</g>
</svg>
