<?xml version="1.0" encoding="UTF-8" standalone="no"?>
<!DOCTYPE svg PUBLIC "-//W3C//DTD SVG 1.1//EN"
 "http://www.w3.org/Graphics/SVG/1.1/DTD/svg11.dtd">
<!-- Generated by graphviz version 2.43.0 (0)
 -->
<!-- Title: GameInitializer Pages: 1 -->
<svg width="246pt" height="436pt"
 viewBox="0.00 0.00 246.00 436.00" xmlns="http://www.w3.org/2000/svg" xmlns:xlink="http://www.w3.org/1999/xlink">

<svg id="main" version="1.1" xmlns="http://www.w3.org/2000/svg" xmlns:xlink="http://www.w3.org/1999/xlink" xml:space="preserve" onload="init(evt)">
<style type="text/css"><![CDATA[
.node, .edge {opacity: 0.7;}
.node.selected, .edge.selected {opacity: 1;}
.edge:hover path { stroke: red; }
.edge:hover polygon { stroke: red; fill: red; }
]]></style>
<script type="application/ecmascript" xlink:href="svg.min.js"/>
<svg id="graph" class="graph">
<g id="graph0" class="graph" transform="scale(1 1) rotate(0) translate(4 432)">
<title>GameInitializer</title>
<!-- Node1 -->
<g id="Node000001" class="node">
<title>Node1</title>
<g id="a_Node000001"><a xlink:title="게임 시작 시 필요한 매니저들을 초기화하는 컴포넌트. 중복 생성을 방지하며, 씬에 존재하지 않으면 프리팹을 통해 생성합니다.">
<polygon fill="#999999" stroke="transparent" points="238,-337 0,-337 0,0 238,0 238,-337"/>
<text text-anchor="start" x="62.5" y="-322.9" font-family="Consolas" font-size="12.00">GameInitializer</text>
<text text-anchor="start" x="4" y="-305.9" font-family="Consolas" font-size="12.00">&#45;</text>
<text text-anchor="start" x="16" y="-305.9" font-family="Consolas" font-size="12.00">GameObject eventManagerPrefab</text>
<text text-anchor="start" x="4" y="-288.9" font-family="Consolas" font-size="12.00">&#45;</text>
<text text-anchor="start" x="16" y="-288.9" font-family="Consolas" font-size="12.00">GameObject gameManagerPrefab</text>
<text text-anchor="start" x="4" y="-271.9" font-family="Consolas" font-size="12.00">&#45;</text>
<text text-anchor="start" x="16" y="-271.9" font-family="Consolas" font-size="12.00">GameObject questManagerPrefab</text>
<text text-anchor="start" x="4" y="-254.9" font-family="Consolas" font-size="12.00">&#45;</text>
<text text-anchor="start" x="16" y="-254.9" font-family="Consolas" font-size="12.00">GameObject resourceManager</text>
<text text-anchor="start" x="16" y="-241.9" font-family="Consolas" font-size="12.00">Prefab</text>
<text text-anchor="start" x="4" y="-224.9" font-family="Consolas" font-size="12.00">&#45;</text>
<text text-anchor="start" x="16" y="-224.9" font-family="Consolas" font-size="12.00">GameObject uiManagerPrefab</text>
<text text-anchor="start" x="4" y="-207.9" font-family="Consolas" font-size="12.00">&#45;</text>
<text text-anchor="start" x="16" y="-207.9" font-family="Consolas" font-size="12.00">GameObject gameStateManager</text>
<text text-anchor="start" x="16" y="-194.9" font-family="Consolas" font-size="12.00">Prefab</text>
<text text-anchor="start" x="4" y="-177.9" font-family="Consolas" font-size="12.00">&#45;</text>
<text text-anchor="start" x="16" y="-177.9" font-family="Consolas" font-size="12.00">GameObject moraleMangerPrefab</text>
<text text-anchor="start" x="4" y="-160.9" font-family="Consolas" font-size="12.00">&#45;</text>
<text text-anchor="start" x="16" y="-160.9" font-family="Consolas" font-size="12.00">GameObject gameObjectFactory</text>
<text text-anchor="start" x="16" y="-147.9" font-family="Consolas" font-size="12.00">Prefab</text>
<text text-anchor="start" x="4" y="-130.9" font-family="Consolas" font-size="12.00">&#45;</text>
<text text-anchor="start" x="16" y="-130.9" font-family="Consolas" font-size="12.00">GameObject audioManagerPrefab</text>
<text text-anchor="start" x="4" y="-113.9" font-family="Consolas" font-size="12.00">&#45;</text>
<text text-anchor="start" x="16" y="-113.9" font-family="Consolas" font-size="12.00">GameObject sceneChangerPrefab</text>
<text text-anchor="start" x="4" y="-96.9" font-family="Consolas" font-size="12.00">&#45;</text>
<text text-anchor="start" x="16" y="-96.9" font-family="Consolas" font-size="12.00">GameObject projectileManager</text>
<text text-anchor="start" x="16" y="-83.9" font-family="Consolas" font-size="12.00">Prefab</text>
<text text-anchor="start" x="4" y="-66.9" font-family="Consolas" font-size="12.00">&#45;</text>
<text text-anchor="start" x="16" y="-66.9" font-family="Consolas" font-size="12.00">GameObject equipmentManager</text>
<text text-anchor="start" x="16" y="-53.9" font-family="Consolas" font-size="12.00">Prefab</text>
<text text-anchor="start" x="4" y="-36.9" font-family="Consolas" font-size="12.00">&#45;</text>
<text text-anchor="start" x="16" y="-36.9" font-family="Consolas" font-size="12.00">void Awake()</text>
<text text-anchor="start" x="4" y="-19.9" font-family="Consolas" font-size="12.00">&#45;</text>
<text text-anchor="start" x="16" y="-19.9" font-family="Consolas" font-size="12.00">T InstantiateIfNotExists</text>
<text text-anchor="start" x="16" y="-6.9" font-family="Consolas" font-size="12.00">&lt; T &gt;(GameObject prefab)</text>
<polygon fill="#666666" stroke="#666666" points="0,-317.5 0,-317.5 238,-317.5 238,-317.5 0,-317.5"/>
<polygon fill="#666666" stroke="#666666" points="0,-48.5 0,-48.5 14,-48.5 14,-48.5 0,-48.5"/>
<polygon fill="#666666" stroke="#666666" points="14,-48.5 14,-48.5 238,-48.5 238,-48.5 14,-48.5"/>
<polygon fill="none" stroke="#666666" points="0,0 0,-337 238,-337 238,0 0,0"/>
</a>
</g>
</g>
<!-- Node2 -->
<g id="Node000002" class="node">
<title>Node2</title>
<g id="a_Node000002"><a xlink:title=" ">
<polygon fill="white" stroke="transparent" points="173,-428 65,-428 65,-373 173,-373 173,-428"/>
<text text-anchor="start" x="70" y="-413.9" font-family="Consolas" font-size="12.00">MonoBehaviour</text>
<text text-anchor="start" x="115" y="-396.9" font-family="Consolas" font-size="12.00"> </text>
<text text-anchor="start" x="115" y="-379.9" font-family="Consolas" font-size="12.00"> </text>
<polygon fill="#bfbfbf" stroke="#bfbfbf" points="65,-408.5 65,-408.5 173,-408.5 173,-408.5 65,-408.5"/>
<polygon fill="#bfbfbf" stroke="#bfbfbf" points="65,-391.5 65,-391.5 173,-391.5 173,-391.5 65,-391.5"/>
<polygon fill="none" stroke="#bfbfbf" points="65,-373 65,-428 173,-428 173,-373 65,-373"/>
</a>
</g>
</g>
<!-- Node2&#45;&gt;Node1 -->
<g id="edge1_Node000001_Node000002" class="edge">
<title>Node2&#45;&gt;Node1</title>
<g id="a_edge1_Node000001_Node000002"><a xlink:title=" ">
<path fill="none" stroke="#63b8ff" d="M119,-362.46C119,-354.8 119,-346.27 119,-337.19"/>
<polygon fill="none" stroke="#63b8ff" points="115.5,-362.67 119,-372.67 122.5,-362.67 115.5,-362.67"/>
</a>
</g>
</g>
</g>
</svg>
</svg>

<style type='text/css'>
<![CDATA[
[data-mouse-over-selected='false'] { opacity: 0.7; }
[data-mouse-over-selected='true']  { opacity: 1.0; }
]]>
</style>
<script type="application/ecmascript"><![CDATA[
document.addEventListener('DOMContentLoaded', (event) => {
  highlightEdges();
  highlightAdjacentNodes();
});
]]></script>
</svg>
