<?xml version="1.0" encoding="UTF-8" standalone="no"?>
<!DOCTYPE svg PUBLIC "-//W3C//DTD SVG 1.1//EN"
 "http://www.w3.org/Graphics/SVG/1.1/DTD/svg11.dtd">
<!-- Generated by graphviz version 2.43.0 (0)
 -->
<!-- Title: BlueprintShip Pages: 1 -->
<!--zoomable 814 -->

<svg id="main" version="1.1" xmlns="http://www.w3.org/2000/svg" xmlns:xlink="http://www.w3.org/1999/xlink" xml:space="preserve" onload="init(evt)">
<style type="text/css"><![CDATA[
.node, .edge {opacity: 0.7;}
.node.selected, .edge.selected {opacity: 1;}
.edge:hover path { stroke: red; }
.edge:hover polygon { stroke: red; fill: red; }
]]></style>

<defs>
  <circle id="rim" cx="0" cy="0" r="7"/>
  <circle id="rim2" cx="0" cy="0" r="3.5"/>
  <g id="zoomPlus">
    <use xlink:href="#rim" fill="#404040"><set attributeName="fill" to="#808080" begin="zoomplus.mouseover" end="zoomplus.mouseout"/></use>
    <path d="M-4,0h8M0,-4v8" fill="none" stroke="white" stroke-width="1.5" pointer-events="none"/>
  </g>
  <g id="zoomMin">
    <use xlink:href="#rim" fill="#404040"><set attributeName="fill" to="#808080" begin="zoomminus.mouseover" end="zoomminus.mouseout"/></use>
    <path d="M-4,0h8" fill="none" stroke="white" stroke-width="1.5" pointer-events="none"/>
  </g>
  <g id="arrowUp" transform="translate(30 24)">
    <use xlink:href="#rim"/>
    <path pointer-events="none" fill="none" stroke="white" stroke-width="1.5" d="M0,-3.0v7 M-2.5,-0.5L0,-3.0L2.5,-0.5"/>
  </g>
  <g id="arrowRight" transform="rotate(90) translate(36 -43)">
    <use xlink:href="#rim"/>
    <path pointer-events="none" fill="none" stroke="white" stroke-width="1.5" d="M0,-3.0v7 M-2.5,-0.5L0,-3.0L2.5,-0.5"/>
  </g>
  <g id="arrowDown" transform="rotate(180) translate(-30 -48)">
    <use xlink:href="#rim"/>
    <path pointer-events="none" fill="none" stroke="white" stroke-width="1.5" d="M0,-3.0v7 M-2.5,-0.5L0,-3.0L2.5,-0.5"/>
  </g>
  <g id="arrowLeft" transform="rotate(270) translate(-36 17)">
    <use xlink:href="#rim"/>
    <path pointer-events="none" fill="none" stroke="white" stroke-width="1.5" d="M0,-3.0v7 M-2.5,-0.5L0,-3.0L2.5,-0.5"/>
  </g>
  <g id="resetDef">
    <use xlink:href="#rim2" fill="#404040"><set attributeName="fill" to="#808080" begin="reset.mouseover" end="reset.mouseout"/></use>
  </g>
</defs>
<script type="application/ecmascript">
var viewWidth = 381;
var viewHeight = 814;
var sectionId = 'dynsection-1';
</script>
<script type="application/ecmascript" xlink:href="svg.min.js"/>
<svg id="graph" class="graph">
<g id="viewport">
<title>BlueprintShip</title>
<!-- Node1 -->
<g id="Node000001" class="node">
<title>Node1</title>
<g id="a_Node000001"><a xlink:title="실제 설계도 데이터를 관리하는 인스턴스 클래스. 방/무기 배치, 가격 계산, 중심 좌표 제공.">
<polygon fill="#999999" stroke="transparent" points="373,-715 0,-715 0,0 373,0 373,-715"/>
<text text-anchor="start" x="138" y="-700.9" font-family="Consolas" font-size="12.00">BlueprintShip</text>
<text text-anchor="start" x="4.5" y="-683.9" font-family="Consolas" font-size="12.00">+</text>
<text text-anchor="start" x="16.5" y="-683.9" font-family="Consolas" font-size="12.00">int CurrentHullLevel</text>
<text text-anchor="start" x="4.5" y="-666.9" font-family="Consolas" font-size="12.00">+</text>
<text text-anchor="start" x="16.5" y="-666.9" font-family="Consolas" font-size="12.00">List&lt; BlueprintRoom</text>
<text text-anchor="start" x="16.5" y="-653.9" font-family="Consolas" font-size="12.00"> &gt; PlacedBlueprintRooms</text>
<text text-anchor="start" x="4.5" y="-636.9" font-family="Consolas" font-size="12.00">+</text>
<text text-anchor="start" x="16.5" y="-636.9" font-family="Consolas" font-size="12.00">List&lt; BlueprintWeapon</text>
<text text-anchor="start" x="16.5" y="-623.9" font-family="Consolas" font-size="12.00"> &gt; PlacedBlueprintWeapons</text>
<text text-anchor="start" x="4.5" y="-606.9" font-family="Consolas" font-size="12.00">+</text>
<text text-anchor="start" x="16.5" y="-606.9" font-family="Consolas" font-size="12.00">Vector2Int CenterPosition</text>
<text text-anchor="start" x="4.5" y="-589.9" font-family="Consolas" font-size="12.00">&#45;</text>
<text text-anchor="start" x="16.5" y="-589.9" font-family="Consolas" font-size="12.00">Transform outerHulls</text>
<text text-anchor="start" x="4.5" y="-572.9" font-family="Consolas" font-size="12.00">&#45;</text>
<text text-anchor="start" x="16.5" y="-572.9" font-family="Consolas" font-size="12.00">Vector2Int gridSize</text>
<text text-anchor="start" x="4.5" y="-555.9" font-family="Consolas" font-size="12.00">&#45;</text>
<text text-anchor="start" x="16.5" y="-555.9" font-family="Consolas" font-size="12.00">List&lt; IBlueprintPlaceable</text>
<text text-anchor="start" x="16.5" y="-542.9" font-family="Consolas" font-size="12.00"> &gt; placedBlueprintObjects</text>
<text text-anchor="start" x="4.5" y="-525.9" font-family="Consolas" font-size="12.00">&#45;</text>
<text text-anchor="start" x="16.5" y="-525.9" font-family="Consolas" font-size="12.00">int currentHullLevel</text>
<text text-anchor="start" x="4.5" y="-508.9" font-family="Consolas" font-size="12.00">&#45;</text>
<text text-anchor="start" x="16.5" y="-508.9" font-family="Consolas" font-size="12.00">List&lt; GameObject &gt;</text>
<text text-anchor="start" x="16.5" y="-495.9" font-family="Consolas" font-size="12.00"> previewOuterHulls</text>
<text text-anchor="start" x="4.5" y="-478.9" font-family="Consolas" font-size="12.00">+</text>
<text text-anchor="start" x="16.5" y="-478.9" font-family="Consolas" font-size="12.00">IReadOnlyList&lt; Blueprint</text>
<text text-anchor="start" x="16.5" y="-465.9" font-family="Consolas" font-size="12.00">Room &gt; GetPlacedBlueprintRooms()</text>
<text text-anchor="start" x="4.5" y="-448.9" font-family="Consolas" font-size="12.00">+</text>
<text text-anchor="start" x="16.5" y="-448.9" font-family="Consolas" font-size="12.00">IReadOnlyList&lt; Blueprint</text>
<text text-anchor="start" x="16.5" y="-435.9" font-family="Consolas" font-size="12.00">Weapon &gt; GetPlacedBlueprintWeapons()</text>
<text text-anchor="start" x="4.5" y="-418.9" font-family="Consolas" font-size="12.00">+</text>
<text text-anchor="start" x="16.5" y="-418.9" font-family="Consolas" font-size="12.00">int GetTotalBPCost()</text>
<text text-anchor="start" x="4.5" y="-401.9" font-family="Consolas" font-size="12.00">+</text>
<text text-anchor="start" x="16.5" y="-401.9" font-family="Consolas" font-size="12.00">void ClearPlacedBPObjects()</text>
<text text-anchor="start" x="4.5" y="-384.9" font-family="Consolas" font-size="12.00">+</text>
<text text-anchor="start" x="16.5" y="-384.9" font-family="Consolas" font-size="12.00">void SetHullLevel(int</text>
<text text-anchor="start" x="16.5" y="-371.9" font-family="Consolas" font-size="12.00"> level)</text>
<text text-anchor="start" x="4.5" y="-354.9" font-family="Consolas" font-size="12.00">+</text>
<text text-anchor="start" x="16.5" y="-354.9" font-family="Consolas" font-size="12.00">int GetHullLevel()</text>
<text text-anchor="start" x="4.5" y="-337.9" font-family="Consolas" font-size="12.00">+</text>
<text text-anchor="start" x="16.5" y="-337.9" font-family="Consolas" font-size="12.00">IBlueprintPlaceable</text>
<text text-anchor="start" x="16.5" y="-324.9" font-family="Consolas" font-size="12.00"> GetObjectAt(Vector2Int</text>
<text text-anchor="start" x="16.5" y="-311.9" font-family="Consolas" font-size="12.00"> gridPos)</text>
<text text-anchor="start" x="4.5" y="-294.9" font-family="Consolas" font-size="12.00">+</text>
<text text-anchor="start" x="16.5" y="-294.9" font-family="Consolas" font-size="12.00">void AddPlaceable(IBlueprint</text>
<text text-anchor="start" x="16.5" y="-281.9" font-family="Consolas" font-size="12.00">Placeable placeable)</text>
<text text-anchor="start" x="4.5" y="-264.9" font-family="Consolas" font-size="12.00">+</text>
<text text-anchor="start" x="16.5" y="-264.9" font-family="Consolas" font-size="12.00">void RemovePlaceable</text>
<text text-anchor="start" x="16.5" y="-251.9" font-family="Consolas" font-size="12.00">(IBlueprintPlaceable</text>
<text text-anchor="start" x="16.5" y="-238.9" font-family="Consolas" font-size="12.00"> placeable)</text>
<text text-anchor="start" x="4.5" y="-221.9" font-family="Consolas" font-size="12.00">+</text>
<text text-anchor="start" x="16.5" y="-221.9" font-family="Consolas" font-size="12.00">void ClearRooms()</text>
<text text-anchor="start" x="4.5" y="-204.9" font-family="Consolas" font-size="12.00">+</text>
<text text-anchor="start" x="16.5" y="-204.9" font-family="Consolas" font-size="12.00">void SetBPHullLevel</text>
<text text-anchor="start" x="16.5" y="-191.9" font-family="Consolas" font-size="12.00">(int level, GameObject</text>
<text text-anchor="start" x="16.5" y="-178.9" font-family="Consolas" font-size="12.00"> previewOuterHullPrefab)</text>
<text text-anchor="start" x="4.5" y="-161.9" font-family="Consolas" font-size="12.00">+</text>
<text text-anchor="start" x="16.5" y="-161.9" font-family="Consolas" font-size="12.00">void ClearPreviewOuterHulls()</text>
<text text-anchor="start" x="4.5" y="-144.9" font-family="Consolas" font-size="12.00">&#45;</text>
<text text-anchor="start" x="16.5" y="-144.9" font-family="Consolas" font-size="12.00">void AddPlacementIfNotDuplicate</text>
<text text-anchor="start" x="16.5" y="-131.9" font-family="Consolas" font-size="12.00">(List&lt; HullPlacementInfo &gt;</text>
<text text-anchor="start" x="16.5" y="-118.9" font-family="Consolas" font-size="12.00"> placements, HullPlacementInfo</text>
<text text-anchor="start" x="16.5" y="-105.9" font-family="Consolas" font-size="12.00"> newInfo)</text>
<text text-anchor="start" x="4.5" y="-88.9" font-family="Consolas" font-size="12.00">&#45;</text>
<text text-anchor="start" x="16.5" y="-88.9" font-family="Consolas" font-size="12.00">int CalculateSpriteIndex</text>
<text text-anchor="start" x="16.5" y="-75.9" font-family="Consolas" font-size="12.00">(HullPlacementInfo info)</text>
<text text-anchor="start" x="4.5" y="-58.9" font-family="Consolas" font-size="12.00">&#45;</text>
<text text-anchor="start" x="16.5" y="-58.9" font-family="Consolas" font-size="12.00">void CreateOuterHull</text>
<text text-anchor="start" x="16.5" y="-45.9" font-family="Consolas" font-size="12.00">(Vector2Int hullPosition,</text>
<text text-anchor="start" x="16.5" y="-32.9" font-family="Consolas" font-size="12.00"> int spriteIndex, int level,</text>
<text text-anchor="start" x="16.5" y="-19.9" font-family="Consolas" font-size="12.00"> OuterHullData hullData, GameObject</text>
<text text-anchor="start" x="16.5" y="-6.9" font-family="Consolas" font-size="12.00"> hullPrefab, OuterHullSystem.HullType hullType)</text>
<polygon fill="#666666" stroke="#666666" points="0.5,-695.5 0.5,-695.5 373.5,-695.5 373.5,-695.5 0.5,-695.5"/>
<polygon fill="#666666" stroke="#666666" points="0.5,-490.5 0.5,-490.5 14.5,-490.5 14.5,-490.5 0.5,-490.5"/>
<polygon fill="#666666" stroke="#666666" points="14.5,-490.5 14.5,-490.5 373.5,-490.5 373.5,-490.5 14.5,-490.5"/>
<polygon fill="none" stroke="#666666" points="0,0 0,-715 373,-715 373,0 0,0"/>
</a>
</g>
</g>
<!-- Node2 -->
<g id="Node000002" class="node">
<title>Node2</title>
<g id="a_Node000002"><a xlink:title=" ">
<polygon fill="white" stroke="transparent" points="240.5,-806 132.5,-806 132.5,-751 240.5,-751 240.5,-806"/>
<text text-anchor="start" x="137.5" y="-791.9" font-family="Consolas" font-size="12.00">MonoBehaviour</text>
<text text-anchor="start" x="182.5" y="-774.9" font-family="Consolas" font-size="12.00"> </text>
<text text-anchor="start" x="182.5" y="-757.9" font-family="Consolas" font-size="12.00"> </text>
<polygon fill="#bfbfbf" stroke="#bfbfbf" points="132.5,-786.5 132.5,-786.5 240.5,-786.5 240.5,-786.5 132.5,-786.5"/>
<polygon fill="#bfbfbf" stroke="#bfbfbf" points="132.5,-769.5 132.5,-769.5 240.5,-769.5 240.5,-769.5 132.5,-769.5"/>
<polygon fill="none" stroke="#bfbfbf" points="132.5,-751 132.5,-806 240.5,-806 240.5,-751 132.5,-751"/>
</a>
</g>
</g>
<!-- Node2&#45;&gt;Node1 -->
<g id="edge1_Node000001_Node000002" class="edge">
<title>Node2&#45;&gt;Node1</title>
<g id="a_edge1_Node000001_Node000002"><a xlink:title=" ">
<path fill="none" stroke="#63b8ff" d="M186.5,-740.84C186.5,-733.2 186.5,-724.55 186.5,-715.09"/>
<polygon fill="none" stroke="#63b8ff" points="183,-740.97 186.5,-750.97 190,-740.97 183,-740.97"/>
</a>
</g>
</g>
</g>
</svg>

<g id="navigator" transform="translate(0 0)" fill="#404254">
  <rect fill="#f2f5e9" fill-opacity="0.5" stroke="#606060" stroke-width=".5" x="0" y="0" width="60" height="60"/>
  <use id="zoomplus" xlink:href="#zoomPlus" x="17" y="9" onmousedown="handleZoom(evt,'in')"/>
  <use id="zoomminus" xlink:href="#zoomMin" x="42" y="9" onmousedown="handleZoom(evt,'out')"/>
  <use id="reset" xlink:href="#resetDef" x="30" y="36" onmousedown="handleReset()"/>
   <use id="arrowup" xlink:href="#arrowUp" x="0" y="0" onmousedown="handlePan(0,-1)"/>
  <use id="arrowright" xlink:href="#arrowRight" x="0" y="0" onmousedown="handlePan(1,0)"/>
  <use id="arrowdown" xlink:href="#arrowDown" x="0" y="0" onmousedown="handlePan(0,1)"/>
  <use id="arrowleft" xlink:href="#arrowLeft" x="0" y="0" onmousedown="handlePan(-1,0)"/>
</g>
<svg viewBox="0 0 15 15" width="100%" height="30px" preserveAspectRatio="xMaxYMin meet">
 <g id="arrow_out" transform="scale(0.3 0.3)">
  <a xlink:href="classBlueprintShip__coll__graph_org.svg" target="_base">
   <rect id="button" ry="5" rx="5" y="6" x="6" height="38" width="38"
        fill="#f2f5e9" fill-opacity="0.5" stroke="#606060" stroke-width="1.0"/>
   <path id="arrow"
     d="M 11.500037,31.436501 C 11.940474,20.09759 22.043105,11.32322 32.158766,21.979434 L 37.068811,17.246167 C 37.068811,17.246167 37.088388,32 37.088388,32 L 22.160133,31.978069 C 22.160133,31.978069 26.997745,27.140456 26.997745,27.140456 C 18.528582,18.264221 13.291696,25.230495 11.500037,31.436501 z"
     style="fill:#404040;"/>
  </a>
 </g>
</svg>

<style type='text/css'>
<![CDATA[
[data-mouse-over-selected='false'] { opacity: 0.7; }
[data-mouse-over-selected='true']  { opacity: 1.0; }
]]>
</style>
<script type="application/ecmascript"><![CDATA[
document.addEventListener('DOMContentLoaded', (event) => {
  highlightEdges();
  highlightAdjacentNodes();
});
]]></script>
</svg>
