<?xml version="1.0" encoding="UTF-8" standalone="no"?>
<!DOCTYPE svg PUBLIC "-//W3C//DTD SVG 1.1//EN"
 "http://www.w3.org/Graphics/SVG/1.1/DTD/svg11.dtd">
<!-- Generated by graphviz version 2.43.0 (0)
 -->
<!-- Title: ES3.LoadImage Pages: 1 -->
<svg width="295pt" height="104pt"
 viewBox="0.00 0.00 295.00 104.00" xmlns="http://www.w3.org/2000/svg" xmlns:xlink="http://www.w3.org/1999/xlink">
<g id="graph0" class="graph" transform="scale(1 1) rotate(0) translate(4 100)">
<title>ES3.LoadImage</title>
<!-- Node1 -->
<g id="Node000001" class="node">
<title>Node1</title>
<g id="a_Node000001"><a xlink:title="Loads a PNG or JPG as a Texture2D.">
<polygon fill="#999999" stroke="#666666" points="114,-49 0,-49 0,-28 114,-28 114,-49"/>
<text text-anchor="middle" x="57" y="-35.4" font-family="Consolas" font-size="12.00">ES3.LoadImage</text>
</a>
</g>
</g>
<!-- Node2 -->
<g id="Node000002" class="node">
<title>Node2</title>
<g id="a_Node000002"><a xlink:href="classES3.html#a312edb7789ae24f94a043bc27d16fe21" target="_top" xlink:title="Loads a PNG or JPG as a Texture2D.">
<polygon fill="white" stroke="#666666" points="275.5,-78 161.5,-78 161.5,-57 275.5,-57 275.5,-78"/>
<text text-anchor="middle" x="218.5" y="-64.4" font-family="Consolas" font-size="12.00">ES3.LoadImage</text>
</a>
</g>
</g>
<!-- Node1&#45;&gt;Node2 -->
<g id="edge1_Node000001_Node000002" class="edge">
<title>Node1&#45;&gt;Node2</title>
<g id="a_edge1_Node000001_Node000002"><a xlink:title=" ">
<path fill="none" stroke="#63b8ff" d="M114.23,-48.72C126.15,-50.89 138.83,-53.2 151.08,-55.42"/>
<polygon fill="#63b8ff" stroke="#63b8ff" points="150.77,-58.92 161.24,-57.27 152.02,-52.04 150.77,-58.92"/>
</a>
</g>
</g>
<!-- Node3 -->
<g id="Node000003" class="node">
<title>Node3</title>
<g id="a_Node000003"><a xlink:href="classES3.html#a5ffd0b12e24d6a33c7bd22e0e8ca149c" target="_top" xlink:title="Loads the default file as a byte array.">
<polygon fill="white" stroke="#666666" points="287,-21 150,-21 150,0 287,0 287,-21"/>
<text text-anchor="middle" x="218.5" y="-7.4" font-family="Consolas" font-size="12.00">ES3.LoadRawBytes</text>
</a>
</g>
</g>
<!-- Node1&#45;&gt;Node3 -->
<g id="edge3_Node000001_Node000003" class="edge">
<title>Node1&#45;&gt;Node3</title>
<g id="a_edge3_Node000001_Node000003"><a xlink:title=" ">
<path fill="none" stroke="#63b8ff" d="M114.23,-28.63C124.95,-26.75 136.28,-24.76 147.36,-22.81"/>
<polygon fill="#63b8ff" stroke="#63b8ff" points="148.2,-26.22 157.44,-21.04 146.99,-19.32 148.2,-26.22"/>
</a>
</g>
</g>
<!-- Node2&#45;&gt;Node2 -->
<g id="edge2_Node000002_Node000002" class="edge">
<title>Node2&#45;&gt;Node2</title>
<g id="a_edge2_Node000002_Node000002"><a xlink:title=" ">
<path fill="none" stroke="#63b8ff" d="M193.08,-78.02C182.21,-86.81 190.69,-96 218.5,-96 236.32,-96 246.2,-92.23 248.14,-87.21"/>
<polygon fill="#63b8ff" stroke="#63b8ff" points="251.28,-85.65 243.92,-78.02 244.92,-88.57 251.28,-85.65"/>
</a>
</g>
</g>
<!-- Node3&#45;&gt;Node3 -->
<g id="edge4_Node000003_Node000003" class="edge">
<title>Node3&#45;&gt;Node3</title>
<g id="a_edge4_Node000003_Node000003"><a xlink:title=" ">
<path fill="none" stroke="#63b8ff" d="M193.08,-21.02C182.21,-29.81 190.69,-39 218.5,-39 236.32,-39 246.2,-35.23 248.14,-30.21"/>
<polygon fill="#63b8ff" stroke="#63b8ff" points="251.28,-28.65 243.92,-21.02 244.92,-31.57 251.28,-28.65"/>
</a>
</g>
</g>
</g>
</svg>
