<?xml version="1.0" encoding="UTF-8" standalone="no"?>
<!DOCTYPE svg PUBLIC "-//W3C//DTD SVG 1.1//EN"
 "http://www.w3.org/Graphics/SVG/1.1/DTD/svg11.dtd">
<!-- Generated by graphviz version 2.43.0 (0)
 -->
<!-- Title: ES3.Load Pages: 1 -->
<svg width="596pt" height="68pt"
 viewBox="0.00 0.00 596.00 68.00" xmlns="http://www.w3.org/2000/svg" xmlns:xlink="http://www.w3.org/1999/xlink">
<g id="graph0" class="graph" transform="scale(1 1) rotate(0) translate(4 64)">
<title>ES3.Load</title>
<!-- Node1 -->
<g id="Node000001" class="node">
<title>Node1</title>
<g id="a_Node000001"><a xlink:title="Loads the value from a file with the given key.">
<polygon fill="#999999" stroke="#666666" points="588,-40 511,-40 511,-19 588,-19 588,-40"/>
<text text-anchor="middle" x="549.5" y="-26.4" font-family="Consolas" font-size="12.00">ES3.Load</text>
</a>
</g>
</g>
<!-- Node2 -->
<g id="Node000002" class="node">
<title>Node2</title>
<g id="a_Node000002"><a xlink:href="classGameManager.html#a229cccd2baab5ebf97e46ed2a92ff8d4" target="_top" xlink:title="엔딩과 관련된 플레이어 데이터를 불러오는 함수.">
<polygon fill="white" stroke="#666666" points="460,-60 248,-60 248,-39 460,-39 460,-60"/>
<text text-anchor="middle" x="354" y="-46.4" font-family="Consolas" font-size="12.00">GameManager.LoadPlayerData</text>
</a>
</g>
</g>
<!-- Node1&#45;&gt;Node2 -->
<g id="edge1_Node000001_Node000002" class="edge">
<title>Node1&#45;&gt;Node2</title>
<g id="a_edge1_Node000001_Node000002"><a xlink:title=" ">
<path fill="none" stroke="#63b8ff" d="M500.43,-34.47C487.11,-35.84 472.13,-37.39 456.97,-38.96"/>
<polygon fill="#63b8ff" stroke="#63b8ff" points="501.14,-37.91 510.73,-33.4 500.43,-30.95 501.14,-37.91"/>
</a>
</g>
</g>
<!-- Node4 -->
<g id="Node000004" class="node">
<title>Node4</title>
<g id="a_Node000004"><a xlink:href="classCrewFactory.html#ac8ca1d814fa505854ab2871e0c2135fb" target="_top" xlink:title="저장 데이터에서 선원 복원">
<polygon fill="white" stroke="#666666" points="475,-21 233,-21 233,0 475,0 475,-21"/>
<text text-anchor="middle" x="354" y="-7.4" font-family="Consolas" font-size="12.00">CrewFactory.RestoreCrewFromES3</text>
</a>
</g>
</g>
<!-- Node1&#45;&gt;Node4 -->
<g id="edge3_Node000001_Node000004" class="edge">
<title>Node1&#45;&gt;Node4</title>
<g id="a_edge3_Node000001_Node000004"><a xlink:title=" ">
<path fill="none" stroke="#63b8ff" d="M500.69,-24.81C488.85,-23.64 475.68,-22.35 462.24,-21.03"/>
<polygon fill="#63b8ff" stroke="#63b8ff" points="500.44,-28.3 510.73,-25.79 501.12,-21.33 500.44,-28.3"/>
</a>
</g>
</g>
<!-- Node3 -->
<g id="Node000003" class="node">
<title>Node3</title>
<g id="a_Node000003"><a xlink:href="classGameManager.html#a1cb6739824aa21933e74f129eb3a68e6" target="_top" xlink:title="게임 전체를 불러오는 함수.">
<polygon fill="white" stroke="#666666" points="197,-60 0,-60 0,-39 197,-39 197,-60"/>
<text text-anchor="middle" x="98.5" y="-46.4" font-family="Consolas" font-size="12.00">GameManager.LoadGameData</text>
</a>
</g>
</g>
<!-- Node2&#45;&gt;Node3 -->
<g id="edge2_Node000002_Node000003" class="edge">
<title>Node2&#45;&gt;Node3</title>
<g id="a_edge2_Node000002_Node000003"><a xlink:title=" ">
<path fill="none" stroke="#63b8ff" d="M237.45,-49.5C223.99,-49.5 210.36,-49.5 197.17,-49.5"/>
<polygon fill="#63b8ff" stroke="#63b8ff" points="237.7,-53 247.7,-49.5 237.7,-46 237.7,-53"/>
</a>
</g>
</g>
</g>
</svg>
