<?xml version="1.0" encoding="UTF-8" standalone="no"?>
<!DOCTYPE svg PUBLIC "-//W3C//DTD SVG 1.1//EN"
 "http://www.w3.org/Graphics/SVG/1.1/DTD/svg11.dtd">
<!-- Generated by graphviz version 2.43.0 (0)
 -->
<!-- Title: TradeUIController.HideChangeText Pages: 1 -->
<svg width="1114pt" height="186pt"
 viewBox="0.00 0.00 1114.00 185.50" xmlns="http://www.w3.org/2000/svg" xmlns:xlink="http://www.w3.org/1999/xlink">
<g id="graph0" class="graph" transform="scale(1 1) rotate(0) translate(4 181.5)">
<title>TradeUIController.HideChangeText</title>
<!-- Node1 -->
<g id="Node000001" class="node">
<title>Node1</title>
<g id="a_Node000001"><a xlink:title="텍스트를 몇 초 있다가 없어지게 하는 코루틴">
<polygon fill="#999999" stroke="#666666" points="1106,-93 849,-93 849,-72 1106,-72 1106,-93"/>
<text text-anchor="middle" x="977.5" y="-79.4" font-family="Consolas" font-size="12.00">TradeUIController.HideChangeText</text>
</a>
</g>
</g>
<!-- Node2 -->
<g id="Node000002" class="node">
<title>Node2</title>
<g id="a_Node000002"><a xlink:href="classTradeUIController.html#a573473d40671cea1da7805769e28f5f7" target="_top" xlink:title="구매를 취소하는 버튼을 누르면 호출되는 함수.">
<polygon fill="white" stroke="#666666" points="801.5,-177.5 567.5,-177.5 567.5,-143.5 801.5,-143.5 801.5,-177.5"/>
<text text-anchor="start" x="575.5" y="-163.9" font-family="Consolas" font-size="12.00">TradeUIController.OnBuyCancel</text>
<text text-anchor="middle" x="684.5" y="-150.9" font-family="Consolas" font-size="12.00">ButtonClicked</text>
</a>
</g>
</g>
<!-- Node1&#45;&gt;Node2 -->
<g id="edge1_Node000001_Node000002" class="edge">
<title>Node1&#45;&gt;Node2</title>
<g id="a_edge1_Node000001_Node000002"><a xlink:title=" ">
<path fill="none" stroke="#63b8ff" d="M936.95,-96.39C904.05,-107.62 855.84,-123.35 813,-134.5 800.87,-137.66 788,-140.67 775.29,-143.45"/>
<polygon fill="#63b8ff" stroke="#63b8ff" points="938.33,-99.61 946.65,-93.05 936.05,-92.99 938.33,-99.61"/>
</a>
</g>
</g>
<!-- Node3 -->
<g id="Node000003" class="node">
<title>Node3</title>
<g id="a_Node000003"><a xlink:href="classTradeUIController.html#a87352fc401e8224c0320aee60c258f7b" target="_top" xlink:title="구매 승인 버튼을 누를 때 호출되는 함수">
<polygon fill="white" stroke="#666666" points="798,-125.5 571,-125.5 571,-91.5 798,-91.5 798,-125.5"/>
<text text-anchor="start" x="579" y="-111.9" font-family="Consolas" font-size="12.00">TradeUIController.OnBuyCheck</text>
<text text-anchor="middle" x="684.5" y="-98.9" font-family="Consolas" font-size="12.00">BuyButtonClicked</text>
</a>
</g>
</g>
<!-- Node1&#45;&gt;Node3 -->
<g id="edge2_Node000001_Node000003" class="edge">
<title>Node1&#45;&gt;Node3</title>
<g id="a_edge2_Node000001_Node000003"><a xlink:title=" ">
<path fill="none" stroke="#63b8ff" d="M848.59,-93.93C831.83,-95.43 814.76,-96.95 798.27,-98.42"/>
<polygon fill="#63b8ff" stroke="#63b8ff" points="849.33,-97.38 858.98,-93 848.71,-90.4 849.33,-97.38"/>
</a>
</g>
</g>
<!-- Node4 -->
<g id="Node000004" class="node">
<title>Node4</title>
<g id="a_Node000004"><a xlink:href="classTradeUIController.html#ae701cac291f31c4a3ccbbf75edb6555b" target="_top" xlink:title="아이템을 임시 창고에서 꺼내 배치하고 구매를 최종적으로 확정하는 버튼을 눌렀을 때 호출되는 함수. 만약 임시 창고에 아이템이 남아있으면 경고 문구를 출력한다....">
<polygon fill="white" stroke="#666666" points="805.5,-73.5 563.5,-73.5 563.5,-39.5 805.5,-39.5 805.5,-73.5"/>
<text text-anchor="start" x="571.5" y="-59.9" font-family="Consolas" font-size="12.00">TradeUIController.OnBuyConfirm</text>
<text text-anchor="middle" x="684.5" y="-46.9" font-family="Consolas" font-size="12.00">ButtonClicked</text>
</a>
</g>
</g>
<!-- Node1&#45;&gt;Node4 -->
<g id="edge3_Node000001_Node000004" class="edge">
<title>Node1&#45;&gt;Node4</title>
<g id="a_edge3_Node000001_Node000004"><a xlink:title=" ">
<path fill="none" stroke="#63b8ff" d="M848.66,-71.08C834.43,-69.81 819.97,-68.51 805.83,-67.25"/>
<polygon fill="#63b8ff" stroke="#63b8ff" points="848.71,-74.6 858.98,-72 849.33,-67.62 848.71,-74.6"/>
</a>
</g>
</g>
<!-- Node5 -->
<g id="Node000005" class="node">
<title>Node5</title>
<g id="a_Node000005"><a xlink:href="classTradeUIController.html#abfea3063b8834aae28efecc2781c97ea" target="_top" xlink:title="재화의 변화량을 표시하는 함수">
<polygon fill="white" stroke="#666666" points="813,-21 556,-21 556,0 813,0 813,-21"/>
<text text-anchor="middle" x="684.5" y="-7.4" font-family="Consolas" font-size="12.00">TradeUIController.ShowChangeText</text>
</a>
</g>
</g>
<!-- Node1&#45;&gt;Node5 -->
<g id="edge4_Node000001_Node000005" class="edge">
<title>Node1&#45;&gt;Node5</title>
<g id="a_edge4_Node000001_Node000005"><a xlink:title=" ">
<path fill="none" stroke="#63b8ff" d="M938.27,-68.52C905.43,-56.95 856.61,-40.79 813,-30.5 797.52,-26.85 780.81,-23.68 764.76,-21.01"/>
<polygon fill="#63b8ff" stroke="#63b8ff" points="937.33,-71.9 947.93,-71.95 939.68,-65.3 937.33,-71.9"/>
</a>
</g>
</g>
<!-- Node6 -->
<g id="Node000006" class="node">
<title>Node6</title>
<g id="a_Node000006"><a xlink:href="classTradeUIController.html#ae08c07cab87963dd491c1ce26a187a5b" target="_top" xlink:title="재화 패널의 텍스트를 업데이트하고, 변화값을 표시한다.">
<polygon fill="white" stroke="#666666" points="520,-21 248,-21 248,0 520,0 520,-21"/>
<text text-anchor="middle" x="384" y="-7.4" font-family="Consolas" font-size="12.00">TradeUIController.SetResourcesText</text>
</a>
</g>
</g>
<!-- Node5&#45;&gt;Node6 -->
<g id="edge5_Node000005_Node000006" class="edge">
<title>Node5&#45;&gt;Node6</title>
<g id="a_edge5_Node000005_Node000006"><a xlink:title=" ">
<path fill="none" stroke="#63b8ff" d="M545.42,-10.5C537.04,-10.5 528.61,-10.5 520.24,-10.5"/>
<polygon fill="#63b8ff" stroke="#63b8ff" points="545.61,-14 555.61,-10.5 545.61,-7 545.61,-14"/>
</a>
</g>
</g>
<!-- Node7 -->
<g id="Node000007" class="node">
<title>Node7</title>
<g id="a_Node000007"><a xlink:href="classTradeUIController.html#a7a8c594d1bdfc58fc95f1ac432d0403e" target="_top" xlink:title="자원 변화 효과를 위해 ResourceManager 의 OnResourceChanged 를 구독.">
<polygon fill="white" stroke="#666666" points="212,-21 0,-21 0,0 212,0 212,-21"/>
<text text-anchor="middle" x="106" y="-7.4" font-family="Consolas" font-size="12.00">TradeUIController.OnEnable</text>
</a>
</g>
</g>
<!-- Node6&#45;&gt;Node7 -->
<g id="edge6_Node000006_Node000007" class="edge">
<title>Node6&#45;&gt;Node7</title>
<g id="a_edge6_Node000006_Node000007"><a xlink:title=" ">
<path fill="none" stroke="#63b8ff" d="M237.69,-10.5C229.06,-10.5 220.47,-10.5 212.05,-10.5"/>
<polygon fill="#63b8ff" stroke="#63b8ff" points="237.83,-14 247.83,-10.5 237.83,-7 237.83,-14"/>
</a>
</g>
</g>
</g>
</svg>
