<?xml version="1.0" encoding="UTF-8" standalone="no"?>
<!DOCTYPE svg PUBLIC "-//W3C//DTD SVG 1.1//EN"
 "http://www.w3.org/Graphics/SVG/1.1/DTD/svg11.dtd">
<!-- Generated by graphviz version 2.43.0 (0)
 -->
<!-- Title: BlueprintShip Pages: 1 -->
<svg width="381pt" height="814pt"
 viewBox="0.00 0.00 381.00 814.00" xmlns="http://www.w3.org/2000/svg" xmlns:xlink="http://www.w3.org/1999/xlink">
<g id="graph0" class="graph" transform="scale(1 1) rotate(0) translate(4 810)">
<title>BlueprintShip</title>
<!-- Node1 -->
<g id="Node000001" class="node">
<title>Node1</title>
<g id="a_Node000001"><a xlink:title="실제 설계도 데이터를 관리하는 인스턴스 클래스. 방/무기 배치, 가격 계산, 중심 좌표 제공.">
<polygon fill="#999999" stroke="transparent" points="373,-715 0,-715 0,0 373,0 373,-715"/>
<text text-anchor="start" x="138" y="-700.9" font-family="Consolas" font-size="12.00">BlueprintShip</text>
<text text-anchor="start" x="4.5" y="-683.9" font-family="Consolas" font-size="12.00">+</text>
<text text-anchor="start" x="16.5" y="-683.9" font-family="Consolas" font-size="12.00">int CurrentHullLevel</text>
<text text-anchor="start" x="4.5" y="-666.9" font-family="Consolas" font-size="12.00">+</text>
<text text-anchor="start" x="16.5" y="-666.9" font-family="Consolas" font-size="12.00">List&lt; BlueprintRoom</text>
<text text-anchor="start" x="16.5" y="-653.9" font-family="Consolas" font-size="12.00"> &gt; PlacedBlueprintRooms</text>
<text text-anchor="start" x="4.5" y="-636.9" font-family="Consolas" font-size="12.00">+</text>
<text text-anchor="start" x="16.5" y="-636.9" font-family="Consolas" font-size="12.00">List&lt; BlueprintWeapon</text>
<text text-anchor="start" x="16.5" y="-623.9" font-family="Consolas" font-size="12.00"> &gt; PlacedBlueprintWeapons</text>
<text text-anchor="start" x="4.5" y="-606.9" font-family="Consolas" font-size="12.00">+</text>
<text text-anchor="start" x="16.5" y="-606.9" font-family="Consolas" font-size="12.00">Vector2Int CenterPosition</text>
<text text-anchor="start" x="4.5" y="-589.9" font-family="Consolas" font-size="12.00">&#45;</text>
<text text-anchor="start" x="16.5" y="-589.9" font-family="Consolas" font-size="12.00">Transform outerHulls</text>
<text text-anchor="start" x="4.5" y="-572.9" font-family="Consolas" font-size="12.00">&#45;</text>
<text text-anchor="start" x="16.5" y="-572.9" font-family="Consolas" font-size="12.00">Vector2Int gridSize</text>
<text text-anchor="start" x="4.5" y="-555.9" font-family="Consolas" font-size="12.00">&#45;</text>
<text text-anchor="start" x="16.5" y="-555.9" font-family="Consolas" font-size="12.00">List&lt; IBlueprintPlaceable</text>
<text text-anchor="start" x="16.5" y="-542.9" font-family="Consolas" font-size="12.00"> &gt; placedBlueprintObjects</text>
<text text-anchor="start" x="4.5" y="-525.9" font-family="Consolas" font-size="12.00">&#45;</text>
<text text-anchor="start" x="16.5" y="-525.9" font-family="Consolas" font-size="12.00">int currentHullLevel</text>
<text text-anchor="start" x="4.5" y="-508.9" font-family="Consolas" font-size="12.00">&#45;</text>
<text text-anchor="start" x="16.5" y="-508.9" font-family="Consolas" font-size="12.00">List&lt; GameObject &gt;</text>
<text text-anchor="start" x="16.5" y="-495.9" font-family="Consolas" font-size="12.00"> previewOuterHulls</text>
<text text-anchor="start" x="4.5" y="-478.9" font-family="Consolas" font-size="12.00">+</text>
<text text-anchor="start" x="16.5" y="-478.9" font-family="Consolas" font-size="12.00">IReadOnlyList&lt; Blueprint</text>
<text text-anchor="start" x="16.5" y="-465.9" font-family="Consolas" font-size="12.00">Room &gt; GetPlacedBlueprintRooms()</text>
<text text-anchor="start" x="4.5" y="-448.9" font-family="Consolas" font-size="12.00">+</text>
<text text-anchor="start" x="16.5" y="-448.9" font-family="Consolas" font-size="12.00">IReadOnlyList&lt; Blueprint</text>
<text text-anchor="start" x="16.5" y="-435.9" font-family="Consolas" font-size="12.00">Weapon &gt; GetPlacedBlueprintWeapons()</text>
<text text-anchor="start" x="4.5" y="-418.9" font-family="Consolas" font-size="12.00">+</text>
<text text-anchor="start" x="16.5" y="-418.9" font-family="Consolas" font-size="12.00">int GetTotalBPCost()</text>
<text text-anchor="start" x="4.5" y="-401.9" font-family="Consolas" font-size="12.00">+</text>
<text text-anchor="start" x="16.5" y="-401.9" font-family="Consolas" font-size="12.00">void ClearPlacedBPObjects()</text>
<text text-anchor="start" x="4.5" y="-384.9" font-family="Consolas" font-size="12.00">+</text>
<text text-anchor="start" x="16.5" y="-384.9" font-family="Consolas" font-size="12.00">void SetHullLevel(int</text>
<text text-anchor="start" x="16.5" y="-371.9" font-family="Consolas" font-size="12.00"> level)</text>
<text text-anchor="start" x="4.5" y="-354.9" font-family="Consolas" font-size="12.00">+</text>
<text text-anchor="start" x="16.5" y="-354.9" font-family="Consolas" font-size="12.00">int GetHullLevel()</text>
<text text-anchor="start" x="4.5" y="-337.9" font-family="Consolas" font-size="12.00">+</text>
<text text-anchor="start" x="16.5" y="-337.9" font-family="Consolas" font-size="12.00">IBlueprintPlaceable</text>
<text text-anchor="start" x="16.5" y="-324.9" font-family="Consolas" font-size="12.00"> GetObjectAt(Vector2Int</text>
<text text-anchor="start" x="16.5" y="-311.9" font-family="Consolas" font-size="12.00"> gridPos)</text>
<text text-anchor="start" x="4.5" y="-294.9" font-family="Consolas" font-size="12.00">+</text>
<text text-anchor="start" x="16.5" y="-294.9" font-family="Consolas" font-size="12.00">void AddPlaceable(IBlueprint</text>
<text text-anchor="start" x="16.5" y="-281.9" font-family="Consolas" font-size="12.00">Placeable placeable)</text>
<text text-anchor="start" x="4.5" y="-264.9" font-family="Consolas" font-size="12.00">+</text>
<text text-anchor="start" x="16.5" y="-264.9" font-family="Consolas" font-size="12.00">void RemovePlaceable</text>
<text text-anchor="start" x="16.5" y="-251.9" font-family="Consolas" font-size="12.00">(IBlueprintPlaceable</text>
<text text-anchor="start" x="16.5" y="-238.9" font-family="Consolas" font-size="12.00"> placeable)</text>
<text text-anchor="start" x="4.5" y="-221.9" font-family="Consolas" font-size="12.00">+</text>
<text text-anchor="start" x="16.5" y="-221.9" font-family="Consolas" font-size="12.00">void ClearRooms()</text>
<text text-anchor="start" x="4.5" y="-204.9" font-family="Consolas" font-size="12.00">+</text>
<text text-anchor="start" x="16.5" y="-204.9" font-family="Consolas" font-size="12.00">void SetBPHullLevel</text>
<text text-anchor="start" x="16.5" y="-191.9" font-family="Consolas" font-size="12.00">(int level, GameObject</text>
<text text-anchor="start" x="16.5" y="-178.9" font-family="Consolas" font-size="12.00"> previewOuterHullPrefab)</text>
<text text-anchor="start" x="4.5" y="-161.9" font-family="Consolas" font-size="12.00">+</text>
<text text-anchor="start" x="16.5" y="-161.9" font-family="Consolas" font-size="12.00">void ClearPreviewOuterHulls()</text>
<text text-anchor="start" x="4.5" y="-144.9" font-family="Consolas" font-size="12.00">&#45;</text>
<text text-anchor="start" x="16.5" y="-144.9" font-family="Consolas" font-size="12.00">void AddPlacementIfNotDuplicate</text>
<text text-anchor="start" x="16.5" y="-131.9" font-family="Consolas" font-size="12.00">(List&lt; HullPlacementInfo &gt;</text>
<text text-anchor="start" x="16.5" y="-118.9" font-family="Consolas" font-size="12.00"> placements, HullPlacementInfo</text>
<text text-anchor="start" x="16.5" y="-105.9" font-family="Consolas" font-size="12.00"> newInfo)</text>
<text text-anchor="start" x="4.5" y="-88.9" font-family="Consolas" font-size="12.00">&#45;</text>
<text text-anchor="start" x="16.5" y="-88.9" font-family="Consolas" font-size="12.00">int CalculateSpriteIndex</text>
<text text-anchor="start" x="16.5" y="-75.9" font-family="Consolas" font-size="12.00">(HullPlacementInfo info)</text>
<text text-anchor="start" x="4.5" y="-58.9" font-family="Consolas" font-size="12.00">&#45;</text>
<text text-anchor="start" x="16.5" y="-58.9" font-family="Consolas" font-size="12.00">void CreateOuterHull</text>
<text text-anchor="start" x="16.5" y="-45.9" font-family="Consolas" font-size="12.00">(Vector2Int hullPosition,</text>
<text text-anchor="start" x="16.5" y="-32.9" font-family="Consolas" font-size="12.00"> int spriteIndex, int level,</text>
<text text-anchor="start" x="16.5" y="-19.9" font-family="Consolas" font-size="12.00"> OuterHullData hullData, GameObject</text>
<text text-anchor="start" x="16.5" y="-6.9" font-family="Consolas" font-size="12.00"> hullPrefab, OuterHullSystem.HullType hullType)</text>
<polygon fill="#666666" stroke="#666666" points="0.5,-695.5 0.5,-695.5 373.5,-695.5 373.5,-695.5 0.5,-695.5"/>
<polygon fill="#666666" stroke="#666666" points="0.5,-490.5 0.5,-490.5 14.5,-490.5 14.5,-490.5 0.5,-490.5"/>
<polygon fill="#666666" stroke="#666666" points="14.5,-490.5 14.5,-490.5 373.5,-490.5 373.5,-490.5 14.5,-490.5"/>
<polygon fill="none" stroke="#666666" points="0,0 0,-715 373,-715 373,0 0,0"/>
</a>
</g>
</g>
<!-- Node2 -->
<g id="Node000002" class="node">
<title>Node2</title>
<g id="a_Node000002"><a xlink:title=" ">
<polygon fill="white" stroke="transparent" points="240.5,-806 132.5,-806 132.5,-751 240.5,-751 240.5,-806"/>
<text text-anchor="start" x="137.5" y="-791.9" font-family="Consolas" font-size="12.00">MonoBehaviour</text>
<text text-anchor="start" x="182.5" y="-774.9" font-family="Consolas" font-size="12.00"> </text>
<text text-anchor="start" x="182.5" y="-757.9" font-family="Consolas" font-size="12.00"> </text>
<polygon fill="#bfbfbf" stroke="#bfbfbf" points="132.5,-786.5 132.5,-786.5 240.5,-786.5 240.5,-786.5 132.5,-786.5"/>
<polygon fill="#bfbfbf" stroke="#bfbfbf" points="132.5,-769.5 132.5,-769.5 240.5,-769.5 240.5,-769.5 132.5,-769.5"/>
<polygon fill="none" stroke="#bfbfbf" points="132.5,-751 132.5,-806 240.5,-806 240.5,-751 132.5,-751"/>
</a>
</g>
</g>
<!-- Node2&#45;&gt;Node1 -->
<g id="edge1_Node000001_Node000002" class="edge">
<title>Node2&#45;&gt;Node1</title>
<g id="a_edge1_Node000001_Node000002"><a xlink:title=" ">
<path fill="none" stroke="#63b8ff" d="M186.5,-740.84C186.5,-733.2 186.5,-724.55 186.5,-715.09"/>
<polygon fill="none" stroke="#63b8ff" points="183,-740.97 186.5,-750.97 190,-740.97 183,-740.97"/>
</a>
</g>
</g>
</g>
</svg>
