<?xml version="1.0" encoding="UTF-8" standalone="no"?>
<!DOCTYPE svg PUBLIC "-//W3C//DTD SVG 1.1//EN"
 "http://www.w3.org/Graphics/SVG/1.1/DTD/svg11.dtd">
<!-- Generated by graphviz version 2.43.0 (0)
 -->
<!-- Title: Customize_1_Controller.Update Pages: 1 -->
<svg width="760pt" height="29pt"
 viewBox="0.00 0.00 760.00 29.00" xmlns="http://www.w3.org/2000/svg" xmlns:xlink="http://www.w3.org/1999/xlink">
<g id="graph0" class="graph" transform="scale(1 1) rotate(0) translate(4 25)">
<title>Customize_1_Controller.Update</title>
<!-- Node1 -->
<g id="Node000001" class="node">
<title>Node1</title>
<g id="a_Node000001"><a xlink:title="현재 설계도의 가격 지속 갱신 설계도로 함선 교체 가능 조건">
<polygon fill="#999999" stroke="#666666" points="234,-21 0,-21 0,0 234,0 234,-21"/>
<text text-anchor="middle" x="117" y="-7.4" font-family="Consolas" font-size="12.00">Customize_1_Controller.Update</text>
</a>
</g>
</g>
<!-- Node2 -->
<g id="Node000002" class="node">
<title>Node2</title>
<g id="a_Node000002"><a xlink:href="classBlueprintShip.html#a4d0bb68f1e596c3a4f8799c565b6faf2" target="_top" xlink:title="함선 설계도의 총 가격 반환">
<polygon fill="white" stroke="#666666" points="497,-21 270,-21 270,0 497,0 497,-21"/>
<text text-anchor="middle" x="383.5" y="-7.4" font-family="Consolas" font-size="12.00">BlueprintShip.GetTotalBPCost</text>
</a>
</g>
</g>
<!-- Node1&#45;&gt;Node2 -->
<g id="edge1_Node000001_Node000002" class="edge">
<title>Node1&#45;&gt;Node2</title>
<g id="a_edge1_Node000001_Node000002"><a xlink:title=" ">
<path fill="none" stroke="#63b8ff" d="M234.01,-10.5C242.59,-10.5 251.27,-10.5 259.88,-10.5"/>
<polygon fill="#63b8ff" stroke="#63b8ff" points="259.97,-14 269.97,-10.5 259.97,-7 259.97,-14"/>
</a>
</g>
</g>
<!-- Node3 -->
<g id="Node000003" class="node">
<title>Node3</title>
<g id="a_Node000003"><a xlink:href="interfaceIBlueprintPlaceable.html#ae9ea0c6d296c89ec5569152b697996a0" target="_top" xlink:title="설치 비용 반환">
<polygon fill="white" stroke="#666666" points="752,-21 533,-21 533,0 752,0 752,-21"/>
<text text-anchor="middle" x="642.5" y="-7.4" font-family="Consolas" font-size="12.00">IBlueprintPlaceable.GetCost</text>
</a>
</g>
</g>
<!-- Node2&#45;&gt;Node3 -->
<g id="edge2_Node000002_Node000003" class="edge">
<title>Node2&#45;&gt;Node3</title>
<g id="a_edge2_Node000002_Node000003"><a xlink:title=" ">
<path fill="none" stroke="#63b8ff" d="M497.22,-10.5C505.75,-10.5 514.38,-10.5 522.94,-10.5"/>
<polygon fill="#63b8ff" stroke="#63b8ff" points="522.96,-14 532.96,-10.5 522.96,-7 522.96,-14"/>
</a>
</g>
</g>
</g>
</svg>
