<?xml version="1.0" encoding="UTF-8" standalone="no"?>
<!DOCTYPE svg PUBLIC "-//W3C//DTD SVG 1.1//EN"
 "http://www.w3.org/Graphics/SVG/1.1/DTD/svg11.dtd">
<!-- Generated by graphviz version 2.43.0 (0)
 -->
<!-- Title: RoomFactory.GetLifeSupportRoomData Pages: 1 -->
<svg width="730pt" height="42pt"
 viewBox="0.00 0.00 730.00 42.00" xmlns="http://www.w3.org/2000/svg" xmlns:xlink="http://www.w3.org/1999/xlink">
<g id="graph0" class="graph" transform="scale(1 1) rotate(0) translate(4 38)">
<title>RoomFactory.GetLifeSupportRoomData</title>
<!-- Node1 -->
<g id="Node000001" class="node">
<title>Node1</title>
<g id="a_Node000001"><a xlink:title="생활시설 데이터 반환">
<polygon fill="#999999" stroke="#666666" points="212,-34 0,-34 0,0 212,0 212,-34"/>
<text text-anchor="start" x="8" y="-20.4" font-family="Consolas" font-size="12.00">RoomFactory.GetLifeSupport</text>
<text text-anchor="middle" x="106" y="-7.4" font-family="Consolas" font-size="12.00">RoomData</text>
</a>
</g>
</g>
<!-- Node2 -->
<g id="Node000002" class="node">
<title>Node2</title>
<g id="a_Node000002"><a xlink:href="classRoomDatabase.html#a6e93aa81081b9f4415136aa4e40e624b" target="_top" xlink:title="생활시설 데이터 반환">
<polygon fill="white" stroke="#666666" points="467,-34 248,-34 248,0 467,0 467,-34"/>
<text text-anchor="start" x="256" y="-20.4" font-family="Consolas" font-size="12.00">RoomDatabase.GetLifeSupport</text>
<text text-anchor="middle" x="357.5" y="-7.4" font-family="Consolas" font-size="12.00">RoomData</text>
</a>
</g>
</g>
<!-- Node1&#45;&gt;Node2 -->
<g id="edge1_Node000001_Node000002" class="edge">
<title>Node1&#45;&gt;Node2</title>
<g id="a_edge1_Node000001_Node000002"><a xlink:title=" ">
<path fill="none" stroke="#63b8ff" d="M212.09,-17C220.61,-17 229.25,-17 237.86,-17"/>
<polygon fill="#63b8ff" stroke="#63b8ff" points="237.93,-20.5 247.93,-17 237.93,-13.5 237.93,-20.5"/>
</a>
</g>
</g>
<!-- Node3 -->
<g id="Node000003" class="node">
<title>Node3</title>
<g id="a_Node000003"><a xlink:href="classRoomDatabase.html#a6b8c4df89baca260968d5b9383440552" target="_top" xlink:title="생활시설 데이터 맵 초기화">
<polygon fill="white" stroke="#666666" points="722,-34 503,-34 503,0 722,0 722,-34"/>
<text text-anchor="start" x="511" y="-20.4" font-family="Consolas" font-size="12.00">RoomDatabase.InitializeLife</text>
<text text-anchor="middle" x="612.5" y="-7.4" font-family="Consolas" font-size="12.00">SupportDataMap</text>
</a>
</g>
</g>
<!-- Node2&#45;&gt;Node3 -->
<g id="edge2_Node000002_Node000003" class="edge">
<title>Node2&#45;&gt;Node3</title>
<g id="a_edge2_Node000002_Node000003"><a xlink:title=" ">
<path fill="none" stroke="#63b8ff" d="M467.26,-17C475.64,-17 484.13,-17 492.57,-17"/>
<polygon fill="#63b8ff" stroke="#63b8ff" points="492.83,-20.5 502.83,-17 492.83,-13.5 492.83,-20.5"/>
</a>
</g>
</g>
</g>
</svg>
