<?xml version="1.0" encoding="UTF-8" standalone="no"?>
<!DOCTYPE svg PUBLIC "-//W3C//DTD SVG 1.1//EN"
 "http://www.w3.org/Graphics/SVG/1.1/DTD/svg11.dtd">
<!-- Generated by graphviz version 2.43.0 (0)
 -->
<!-- Title: EmployController.PopulateCardsFromSavedData Pages: 1 -->
<svg width="588pt" height="42pt"
 viewBox="0.00 0.00 588.00 42.00" xmlns="http://www.w3.org/2000/svg" xmlns:xlink="http://www.w3.org/1999/xlink">
<g id="graph0" class="graph" transform="scale(1 1) rotate(0) translate(4 38)">
<title>EmployController.PopulateCardsFromSavedData</title>
<!-- Node1 -->
<g id="Node000001" class="node">
<title>Node1</title>
<g id="a_Node000001"><a xlink:title="TODO : 해당 행성에서 구매했음을 공유하기 위한 장치 (10년 주기로 새로고침 구현 필요)">
<polygon fill="#999999" stroke="#666666" points="204,-34 0,-34 0,0 204,0 204,-34"/>
<text text-anchor="start" x="8" y="-20.4" font-family="Consolas" font-size="12.00">EmployController.Populate</text>
<text text-anchor="middle" x="102" y="-7.4" font-family="Consolas" font-size="12.00">CardsFromSavedData</text>
</a>
</g>
</g>
<!-- Node2 -->
<g id="Node000002" class="node">
<title>Node2</title>
<g id="a_Node000002"><a xlink:href="classEmployController.html#a113ccafbc15909d01082ac8dc978a035" target="_top" xlink:title="선원 카드 선택">
<polygon fill="white" stroke="#666666" points="437,-34 240,-34 240,0 437,0 437,-34"/>
<text text-anchor="start" x="248" y="-20.4" font-family="Consolas" font-size="12.00">EmployController.OnClick</text>
<text text-anchor="middle" x="338.5" y="-7.4" font-family="Consolas" font-size="12.00">CrewCard</text>
</a>
</g>
</g>
<!-- Node1&#45;&gt;Node2 -->
<g id="edge1_Node000001_Node000002" class="edge">
<title>Node1&#45;&gt;Node2</title>
<g id="a_edge1_Node000001_Node000002"><a xlink:title=" ">
<path fill="none" stroke="#63b8ff" d="M204.15,-17C212.52,-17 221.01,-17 229.43,-17"/>
<polygon fill="#63b8ff" stroke="#63b8ff" points="229.65,-20.5 239.65,-17 229.65,-13.5 229.65,-20.5"/>
</a>
</g>
</g>
<!-- Node3 -->
<g id="Node000003" class="node">
<title>Node3</title>
<g id="a_Node000003"><a xlink:href="classShip.html#a080a77bc4aa01fd3e5b2561cb5317eca" target="_top" xlink:title="특정 스탯 값을 반환합니다.">
<polygon fill="white" stroke="#666666" points="580,-27.5 473,-27.5 473,-6.5 580,-6.5 580,-27.5"/>
<text text-anchor="middle" x="526.5" y="-13.9" font-family="Consolas" font-size="12.00">Ship.GetStat</text>
</a>
</g>
</g>
<!-- Node2&#45;&gt;Node3 -->
<g id="edge2_Node000002_Node000003" class="edge">
<title>Node2&#45;&gt;Node3</title>
<g id="a_edge2_Node000002_Node000003"><a xlink:title=" ">
<path fill="none" stroke="#63b8ff" d="M437.13,-17C445.76,-17 454.34,-17 462.57,-17"/>
<polygon fill="#63b8ff" stroke="#63b8ff" points="462.78,-20.5 472.78,-17 462.78,-13.5 462.78,-20.5"/>
</a>
</g>
</g>
</g>
</svg>
