<?xml version="1.0" encoding="UTF-8" standalone="no"?>
<!DOCTYPE svg PUBLIC "-//W3C//DTD SVG 1.1//EN"
 "http://www.w3.org/Graphics/SVG/1.1/DTD/svg11.dtd">
<!-- Generated by graphviz version 2.43.0 (0)
 -->
<!-- Title: RaceButtonController Pages: 1 -->
<svg width="1014pt" height="624pt"
 viewBox="0.00 0.00 1013.50 624.00" xmlns="http://www.w3.org/2000/svg" xmlns:xlink="http://www.w3.org/1999/xlink">
<g id="graph0" class="graph" transform="scale(1 1) rotate(0) translate(4 620)">
<title>RaceButtonController</title>
<!-- Node1 -->
<g id="Node000001" class="node">
<title>Node1</title>
<g id="a_Node000001"><a xlink:title="선원 생성 시, UI를 통한 종족 선택">
<polygon fill="#999999" stroke="transparent" points="584.5,-294 353.5,-294 353.5,0 584.5,0 584.5,-294"/>
<text text-anchor="start" x="394" y="-280.4" font-family="Consolas" font-size="12.00">RaceButtonController</text>
<text text-anchor="start" x="358" y="-263.4" font-family="Consolas" font-size="12.00">+</text>
<text text-anchor="start" x="370" y="-263.4" font-family="Consolas" font-size="12.00">CrewRace raceType</text>
<text text-anchor="start" x="358" y="-246.4" font-family="Consolas" font-size="12.00">+</text>
<text text-anchor="start" x="370" y="-246.4" font-family="Consolas" font-size="12.00">GameObject raceTooltipPrefab</text>
<text text-anchor="start" x="358" y="-229.4" font-family="Consolas" font-size="12.00">+</text>
<text text-anchor="start" x="370" y="-229.4" font-family="Consolas" font-size="12.00">Color highlightColor</text>
<text text-anchor="start" x="358" y="-212.4" font-family="Consolas" font-size="12.00">&#45;</text>
<text text-anchor="start" x="370" y="-212.4" font-family="Consolas" font-size="12.00">GameObject activeTooltip</text>
<text text-anchor="start" x="358" y="-195.4" font-family="Consolas" font-size="12.00">&#45;</text>
<text text-anchor="start" x="370" y="-195.4" font-family="Consolas" font-size="12.00">Canvas mainCanvas</text>
<text text-anchor="start" x="358" y="-178.4" font-family="Consolas" font-size="12.00">&#45;</text>
<text text-anchor="start" x="370" y="-178.4" font-family="Consolas" font-size="12.00">Color normalColor</text>
<text text-anchor="start" x="358" y="-161.4" font-family="Consolas" font-size="12.00">+</text>
<text text-anchor="start" x="370" y="-161.4" font-family="Consolas" font-size="12.00">void OnPointerEnter</text>
<text text-anchor="start" x="370" y="-148.4" font-family="Consolas" font-size="12.00">(PointerEventData eventData)</text>
<text text-anchor="start" x="358" y="-131.4" font-family="Consolas" font-size="12.00">+</text>
<text text-anchor="start" x="370" y="-131.4" font-family="Consolas" font-size="12.00">void OnPointerExit</text>
<text text-anchor="start" x="370" y="-118.4" font-family="Consolas" font-size="12.00">(PointerEventData eventData)</text>
<text text-anchor="start" x="358" y="-101.4" font-family="Consolas" font-size="12.00">+</text>
<text text-anchor="start" x="370" y="-101.4" font-family="Consolas" font-size="12.00">void OnPointerClick</text>
<text text-anchor="start" x="370" y="-88.4" font-family="Consolas" font-size="12.00">(PointerEventData eventData)</text>
<text text-anchor="start" x="358" y="-71.4" font-family="Consolas" font-size="12.00">+</text>
<text text-anchor="start" x="370" y="-71.4" font-family="Consolas" font-size="12.00">void SetHighlighted</text>
<text text-anchor="start" x="370" y="-58.4" font-family="Consolas" font-size="12.00">(bool highlighted)</text>
<text text-anchor="start" x="358" y="-41.4" font-family="Consolas" font-size="12.00">&#45;</text>
<text text-anchor="start" x="370" y="-41.4" font-family="Consolas" font-size="12.00">void Awake()</text>
<text text-anchor="start" x="358" y="-24.4" font-family="Consolas" font-size="12.00">&#45;</text>
<text text-anchor="start" x="370" y="-24.4" font-family="Consolas" font-size="12.00">void ShowTooltip()</text>
<text text-anchor="start" x="358" y="-7.4" font-family="Consolas" font-size="12.00">&#45;</text>
<text text-anchor="start" x="370" y="-7.4" font-family="Consolas" font-size="12.00">void HideTooltip()</text>
<polygon fill="#666666" stroke="#666666" points="354,-275 354,-275 585,-275 585,-275 354,-275"/>
<polygon fill="#666666" stroke="#666666" points="354,-173 354,-173 368,-173 368,-173 354,-173"/>
<polygon fill="#666666" stroke="#666666" points="368,-173 368,-173 585,-173 585,-173 368,-173"/>
<polygon fill="none" stroke="#666666" points="353.5,0 353.5,-294 584.5,-294 584.5,0 353.5,0"/>
</a>
</g>
</g>
<!-- Node2 -->
<g id="Node000002" class="node">
<title>Node2</title>
<g id="a_Node000002"><a xlink:title=" ">
<polygon fill="white" stroke="transparent" points="108,-462 0,-462 0,-407 108,-407 108,-462"/>
<text text-anchor="start" x="5" y="-447.9" font-family="Consolas" font-size="12.00">MonoBehaviour</text>
<text text-anchor="start" x="50" y="-430.9" font-family="Consolas" font-size="12.00"> </text>
<text text-anchor="start" x="50" y="-413.9" font-family="Consolas" font-size="12.00"> </text>
<polygon fill="#bfbfbf" stroke="#bfbfbf" points="0,-442.5 0,-442.5 108,-442.5 108,-442.5 0,-442.5"/>
<polygon fill="#bfbfbf" stroke="#bfbfbf" points="0,-425.5 0,-425.5 108,-425.5 108,-425.5 0,-425.5"/>
<polygon fill="none" stroke="#bfbfbf" points="0,-407 0,-462 108,-462 108,-407 0,-407"/>
</a>
</g>
</g>
<!-- Node2&#45;&gt;Node1 -->
<g id="edge1_Node000001_Node000002" class="edge">
<title>Node2&#45;&gt;Node1</title>
<g id="a_edge1_Node000001_Node000002"><a xlink:title=" ">
<path fill="none" stroke="#63b8ff" d="M74.17,-397.93C85.24,-380.53 100.14,-360.12 117,-345 186.98,-282.22 280.37,-231.11 353.37,-196.69"/>
<polygon fill="none" stroke="#63b8ff" points="71.02,-396.37 68.73,-406.72 76.97,-400.05 71.02,-396.37"/>
</a>
</g>
</g>
<!-- Node3 -->
<g id="Node000003" class="node">
<title>Node3</title>
<g id="a_Node000003"><a xlink:title=" ">
<polygon fill="white" stroke="transparent" points="287.5,-462 126.5,-462 126.5,-407 287.5,-407 287.5,-462"/>
<text text-anchor="start" x="132" y="-447.9" font-family="Consolas" font-size="12.00">IPointerEnterHandler</text>
<text text-anchor="start" x="203.5" y="-430.9" font-family="Consolas" font-size="12.00"> </text>
<text text-anchor="start" x="203.5" y="-413.9" font-family="Consolas" font-size="12.00"> </text>
<polygon fill="#bfbfbf" stroke="#bfbfbf" points="127,-442.5 127,-442.5 288,-442.5 288,-442.5 127,-442.5"/>
<polygon fill="#bfbfbf" stroke="#bfbfbf" points="127,-425.5 127,-425.5 288,-425.5 288,-425.5 127,-425.5"/>
<polygon fill="none" stroke="#bfbfbf" points="126.5,-407 126.5,-462 287.5,-462 287.5,-407 126.5,-407"/>
</a>
</g>
</g>
<!-- Node3&#45;&gt;Node1 -->
<g id="edge2_Node000001_Node000003" class="edge">
<title>Node3&#45;&gt;Node1</title>
<g id="a_edge2_Node000001_Node000003"><a xlink:title=" ">
<path fill="none" stroke="#63b8ff" d="M238.35,-399.34C266.99,-368.13 311.16,-320 353.2,-274.18"/>
<polygon fill="none" stroke="#63b8ff" points="235.6,-397.16 231.41,-406.9 240.75,-401.9 235.6,-397.16"/>
</a>
</g>
</g>
<!-- Node4 -->
<g id="Node000004" class="node">
<title>Node4</title>
<g id="a_Node000004"><a xlink:title=" ">
<polygon fill="white" stroke="transparent" points="458.5,-462 305.5,-462 305.5,-407 458.5,-407 458.5,-462"/>
<text text-anchor="start" x="311" y="-447.9" font-family="Consolas" font-size="12.00">IPointerExitHandler</text>
<text text-anchor="start" x="378.5" y="-430.9" font-family="Consolas" font-size="12.00"> </text>
<text text-anchor="start" x="378.5" y="-413.9" font-family="Consolas" font-size="12.00"> </text>
<polygon fill="#bfbfbf" stroke="#bfbfbf" points="306,-442.5 306,-442.5 459,-442.5 459,-442.5 306,-442.5"/>
<polygon fill="#bfbfbf" stroke="#bfbfbf" points="306,-425.5 306,-425.5 459,-425.5 459,-425.5 306,-425.5"/>
<polygon fill="none" stroke="#bfbfbf" points="305.5,-407 305.5,-462 458.5,-462 458.5,-407 305.5,-407"/>
</a>
</g>
</g>
<!-- Node4&#45;&gt;Node1 -->
<g id="edge3_Node000001_Node000004" class="edge">
<title>Node4&#45;&gt;Node1</title>
<g id="a_edge3_Node000001_Node000004"><a xlink:title=" ">
<path fill="none" stroke="#63b8ff" d="M393.04,-397.28C401.15,-370.66 412.75,-332.58 424.46,-294.17"/>
<polygon fill="none" stroke="#63b8ff" points="389.67,-396.31 390.11,-406.9 396.37,-398.35 389.67,-396.31"/>
</a>
</g>
</g>
<!-- Node5 -->
<g id="Node000005" class="node">
<title>Node5</title>
<g id="a_Node000005"><a xlink:title=" ">
<polygon fill="white" stroke="transparent" points="637.5,-462 476.5,-462 476.5,-407 637.5,-407 637.5,-462"/>
<text text-anchor="start" x="482" y="-447.9" font-family="Consolas" font-size="12.00">IPointerClickHandler</text>
<text text-anchor="start" x="553.5" y="-430.9" font-family="Consolas" font-size="12.00"> </text>
<text text-anchor="start" x="553.5" y="-413.9" font-family="Consolas" font-size="12.00"> </text>
<polygon fill="#bfbfbf" stroke="#bfbfbf" points="477,-442.5 477,-442.5 638,-442.5 638,-442.5 477,-442.5"/>
<polygon fill="#bfbfbf" stroke="#bfbfbf" points="477,-425.5 477,-425.5 638,-425.5 638,-425.5 477,-425.5"/>
<polygon fill="none" stroke="#bfbfbf" points="476.5,-407 476.5,-462 637.5,-462 637.5,-407 476.5,-407"/>
</a>
</g>
</g>
<!-- Node5&#45;&gt;Node1 -->
<g id="edge4_Node000001_Node000005" class="edge">
<title>Node5&#45;&gt;Node1</title>
<g id="a_edge4_Node000001_Node000005"><a xlink:title=" ">
<path fill="none" stroke="#63b8ff" d="M545.84,-397.28C537.63,-370.66 525.89,-332.58 514.06,-294.17"/>
<polygon fill="none" stroke="#63b8ff" points="542.51,-398.37 548.8,-406.9 549.2,-396.31 542.51,-398.37"/>
</a>
</g>
</g>
<!-- Node6 -->
<g id="Node000006" class="node">
<title>Node6</title>
<g id="a_Node000006"><a xlink:href="classCrewRaceStat.html" target="_top" xlink:title="종족 별 기본 값">
<polygon fill="white" stroke="transparent" points="894,-524 656,-524 656,-345 894,-345 894,-524"/>
<text text-anchor="start" x="729.5" y="-509.9" font-family="Consolas" font-size="12.00">CrewRaceStat</text>
<text text-anchor="start" x="660" y="-492.9" font-family="Consolas" font-size="12.00">+</text>
<text text-anchor="start" x="672" y="-492.9" font-family="Consolas" font-size="12.00">Dictionary&lt; CrewRace,</text>
<text text-anchor="start" x="672" y="-479.9" font-family="Consolas" font-size="12.00"> RaceStat &gt; ByRace</text>
<text text-anchor="start" x="660" y="-462.9" font-family="Consolas" font-size="12.00">&#45;</text>
<text text-anchor="start" x="672" y="-462.9" font-family="Consolas" font-size="12.00">List&lt; RaceStat &gt; raceStats</text>
<text text-anchor="start" x="660" y="-445.9" font-family="Consolas" font-size="12.00">&#45;</text>
<text text-anchor="start" x="672" y="-445.9" font-family="Consolas" font-size="12.00">Dictionary&lt; CrewRace,</text>
<text text-anchor="start" x="672" y="-432.9" font-family="Consolas" font-size="12.00"> RaceStat &gt; byRace</text>
<text text-anchor="start" x="660" y="-415.9" font-family="Consolas" font-size="12.00">&#45;</text>
<text text-anchor="start" x="672" y="-415.9" font-family="Consolas" font-size="12.00">void InitializeDictionary</text>
<text text-anchor="start" x="672" y="-402.9" font-family="Consolas" font-size="12.00">FromList()</text>
<text text-anchor="start" x="660" y="-385.9" font-family="Consolas" font-size="12.00">&#45;</text>
<text text-anchor="start" x="672" y="-385.9" font-family="Consolas" font-size="12.00">void OnValidate()</text>
<text text-anchor="start" x="660" y="-368.9" font-family="Consolas" font-size="12.00">&#45;</text>
<text text-anchor="start" x="672" y="-368.9" font-family="Consolas" font-size="12.00">void OnEnable()</text>
<text text-anchor="start" x="660" y="-351.9" font-family="Consolas" font-size="12.00">&#45;</text>
<text text-anchor="start" x="672" y="-351.9" font-family="Consolas" font-size="12.00">void InitializeDefaultStats()</text>
<polygon fill="#666666" stroke="#666666" points="656,-504.5 656,-504.5 894,-504.5 894,-504.5 656,-504.5"/>
<polygon fill="#666666" stroke="#666666" points="656,-427.5 656,-427.5 670,-427.5 670,-427.5 656,-427.5"/>
<polygon fill="#666666" stroke="#666666" points="670,-427.5 670,-427.5 894,-427.5 894,-427.5 670,-427.5"/>
<polygon fill="none" stroke="#666666" points="656,-345 656,-524 894,-524 894,-345 656,-345"/>
</a>
</g>
</g>
<!-- Node6&#45;&gt;Node1 -->
<g id="edge5_Node000001_Node000006" class="edge">
<title>Node6&#45;&gt;Node1</title>
<g id="a_edge5_Node000001_Node000006"><a xlink:title=" ">
<path fill="none" stroke="#63b8ff" d="M679.86,-344.73C652.51,-319.22 622.27,-291 593.43,-264.1"/>
<polygon fill="none" stroke="#63b8ff" points="593.31,-263.98 586.19,-262.81 584.54,-255.8 591.65,-256.96 593.31,-263.98"/>
</a>
</g>
<text text-anchor="middle" x="717" y="-315.8" font-family="Consolas" font-size="14.00" fill="grey"> +crewRaceStat</text>
</g>
<!-- Node7 -->
<g id="Node000007" class="node">
<title>Node7</title>
<g id="a_Node000007"><a xlink:title=" ">
<polygon fill="white" stroke="transparent" points="840.5,-616 709.5,-616 709.5,-561 840.5,-561 840.5,-616"/>
<text text-anchor="start" x="715" y="-601.9" font-family="Consolas" font-size="12.00">ScriptableObject</text>
<text text-anchor="start" x="771.5" y="-584.9" font-family="Consolas" font-size="12.00"> </text>
<text text-anchor="start" x="771.5" y="-567.9" font-family="Consolas" font-size="12.00"> </text>
<polygon fill="#bfbfbf" stroke="#bfbfbf" points="710,-596.5 710,-596.5 841,-596.5 841,-596.5 710,-596.5"/>
<polygon fill="#bfbfbf" stroke="#bfbfbf" points="710,-579.5 710,-579.5 841,-579.5 841,-579.5 710,-579.5"/>
<polygon fill="none" stroke="#bfbfbf" points="709.5,-561 709.5,-616 840.5,-616 840.5,-561 709.5,-561"/>
</a>
</g>
</g>
<!-- Node7&#45;&gt;Node6 -->
<g id="edge6_Node000006_Node000007" class="edge">
<title>Node7&#45;&gt;Node6</title>
<g id="a_edge6_Node000006_Node000007"><a xlink:title=" ">
<path fill="none" stroke="#63b8ff" d="M775,-550.53C775,-542.42 775,-533.5 775,-524.32"/>
<polygon fill="none" stroke="#63b8ff" points="771.5,-550.68 775,-560.68 778.5,-550.68 771.5,-550.68"/>
</a>
</g>
</g>
<!-- Node8 -->
<g id="Node000008" class="node">
<title>Node8</title>
<g id="a_Node000008"><a xlink:title=" ">
<polygon fill="white" stroke="transparent" points="1005.5,-462 912.5,-462 912.5,-407 1005.5,-407 1005.5,-462"/>
<text text-anchor="start" x="918" y="-447.9" font-family="Consolas" font-size="12.00">UnityEngine</text>
<text text-anchor="start" x="955.5" y="-430.9" font-family="Consolas" font-size="12.00"> </text>
<text text-anchor="start" x="955.5" y="-413.9" font-family="Consolas" font-size="12.00"> </text>
<polygon fill="#bfbfbf" stroke="#bfbfbf" points="913,-442.5 913,-442.5 1006,-442.5 1006,-442.5 913,-442.5"/>
<polygon fill="#bfbfbf" stroke="#bfbfbf" points="913,-425.5 913,-425.5 1006,-425.5 1006,-425.5 913,-425.5"/>
<polygon fill="none" stroke="#bfbfbf" points="912.5,-407 912.5,-462 1005.5,-462 1005.5,-407 912.5,-407"/>
</a>
</g>
</g>
<!-- Node8&#45;&gt;Node1 -->
<g id="edge7_Node000001_Node000008" class="edge">
<title>Node8&#45;&gt;Node1</title>
<g id="a_edge7_Node000001_Node000008"><a xlink:title=" ">
<path fill="none" stroke="#63b8ff" d="M947.36,-406.97C937.79,-387.69 922.61,-362.07 903,-345 813.89,-267.41 689.16,-215.09 596.27,-183.98"/>
<polygon fill="none" stroke="#63b8ff" points="596.21,-183.96 589.26,-185.88 584.82,-180.2 591.77,-178.28 596.21,-183.96"/>
</a>
</g>
<text text-anchor="middle" x="906.5" y="-315.8" font-family="Consolas" font-size="14.00" fill="grey"> &#45;button</text>
</g>
</g>
</svg>
