<?xml version="1.0" encoding="UTF-8" standalone="no"?>
<!DOCTYPE svg PUBLIC "-//W3C//DTD SVG 1.1//EN"
 "http://www.w3.org/Graphics/SVG/1.1/DTD/svg11.dtd">
<!-- Generated by graphviz version 2.43.0 (0)
 -->
<!-- Title: ShipTemplateSaver.GetTemplateFilePath Pages: 1 -->
<svg width="1593pt" height="127pt"
 viewBox="0.00 0.00 1593.00 126.50" xmlns="http://www.w3.org/2000/svg" xmlns:xlink="http://www.w3.org/1999/xlink">
<g id="graph0" class="graph" transform="scale(1 1) rotate(0) translate(4 122.5)">
<title>ShipTemplateSaver.GetTemplateFilePath</title>
<!-- Node1 -->
<g id="Node000001" class="node">
<title>Node1</title>
<g id="a_Node000001"><a xlink:title="템플릿 파일 경로 생성">
<polygon fill="#999999" stroke="#666666" points="1585,-79 1351,-79 1351,-45 1585,-45 1585,-79"/>
<text text-anchor="start" x="1359" y="-65.4" font-family="Consolas" font-size="12.00">ShipTemplateSaver.GetTemplate</text>
<text text-anchor="middle" x="1468" y="-52.4" font-family="Consolas" font-size="12.00">FilePath</text>
</a>
</g>
</g>
<!-- Node2 -->
<g id="Node000002" class="node">
<title>Node2</title>
<g id="a_Node000002"><a xlink:href="classShipTemplateSaver.html#af690a1bdcb85a92ad60fc5b58a24c7e0" target="_top" xlink:title="템플릿 삭제">
<polygon fill="white" stroke="#666666" points="1292.5,-79 1095.5,-79 1095.5,-45 1292.5,-45 1292.5,-79"/>
<text text-anchor="start" x="1103.5" y="-65.4" font-family="Consolas" font-size="12.00">ShipTemplateSaver.Delete</text>
<text text-anchor="middle" x="1194" y="-52.4" font-family="Consolas" font-size="12.00">Template</text>
</a>
</g>
</g>
<!-- Node1&#45;&gt;Node2 -->
<g id="edge1_Node000001_Node000002" class="edge">
<title>Node1&#45;&gt;Node2</title>
<g id="a_edge1_Node000001_Node000002"><a xlink:title=" ">
<path fill="none" stroke="#63b8ff" d="M1340.84,-62C1324.7,-62 1308.38,-62 1292.78,-62"/>
<polygon fill="#63b8ff" stroke="#63b8ff" points="1340.86,-65.5 1350.86,-62 1340.86,-58.5 1340.86,-65.5"/>
</a>
</g>
</g>
<!-- Node7 -->
<g id="Node000007" class="node">
<title>Node7</title>
<g id="a_Node000007"><a xlink:href="classShipTemplateSaver.html#a358776f0395184e3d2426a8d001e6b0d" target="_top" xlink:title="템플릿 로드하여 함선에 적용">
<polygon fill="white" stroke="#666666" points="1315,-118.5 1073,-118.5 1073,-97.5 1315,-97.5 1315,-118.5"/>
<text text-anchor="middle" x="1194" y="-104.9" font-family="Consolas" font-size="12.00">ShipTemplateSaver.LoadTemplate</text>
</a>
</g>
</g>
<!-- Node1&#45;&gt;Node7 -->
<g id="edge8_Node000001_Node000007" class="edge">
<title>Node1&#45;&gt;Node7</title>
<g id="a_edge8_Node000001_Node000007"><a xlink:title=" ">
<path fill="none" stroke="#63b8ff" d="M1357.75,-80.74C1343.37,-83.19 1328.83,-85.66 1315,-88 1296.67,-91.09 1276.77,-94.42 1258.53,-97.46"/>
<polygon fill="#63b8ff" stroke="#63b8ff" points="1358.4,-84.18 1367.67,-79.05 1357.22,-77.28 1358.4,-84.18"/>
</a>
</g>
</g>
<!-- Node8 -->
<g id="Node000008" class="node">
<title>Node8</title>
<g id="a_Node000008"><a xlink:href="classShipTemplateSaver.html#a60eaa44e4b337e8589cdac750c4c7006" target="_top" xlink:title="함선 템플릿 저장">
<polygon fill="white" stroke="#666666" points="1011,-34 799,-34 799,0 1011,0 1011,-34"/>
<text text-anchor="start" x="807" y="-20.4" font-family="Consolas" font-size="12.00">ShipTemplateSaver.SaveShip</text>
<text text-anchor="middle" x="905" y="-7.4" font-family="Consolas" font-size="12.00">Template</text>
</a>
</g>
</g>
<!-- Node1&#45;&gt;Node8 -->
<g id="edge10_Node000001_Node000008" class="edge">
<title>Node1&#45;&gt;Node8</title>
<g id="a_edge10_Node000001_Node000008"><a xlink:title=" ">
<path fill="none" stroke="#63b8ff" d="M1368.14,-43.28C1350.49,-40.46 1332.24,-37.87 1315,-36 1212.18,-24.86 1094.11,-20.25 1011.35,-18.34"/>
<polygon fill="#63b8ff" stroke="#63b8ff" points="1368.01,-46.8 1378.44,-44.97 1369.14,-39.9 1368.01,-46.8"/>
</a>
</g>
</g>
<!-- Node3 -->
<g id="Node000003" class="node">
<title>Node3</title>
<g id="a_Node000003"><a xlink:href="classShipTemplateSaver.html#a6c6e9dd017c3169597bbf314593d6fd6" target="_top" xlink:title="템플릿 목록 아이템 추가">
<polygon fill="white" stroke="#666666" points="1037,-111.5 773,-111.5 773,-90.5 1037,-90.5 1037,-111.5"/>
<text text-anchor="middle" x="905" y="-97.9" font-family="Consolas" font-size="12.00">ShipTemplateSaver.AddTemplateItem</text>
</a>
</g>
</g>
<!-- Node2&#45;&gt;Node3 -->
<g id="edge2_Node000002_Node000003" class="edge">
<title>Node2&#45;&gt;Node3</title>
<g id="a_edge2_Node000002_Node000003"><a xlink:title=" ">
<path fill="none" stroke="#63b8ff" d="M1085.48,-76.61C1051.55,-81.22 1014.76,-86.22 983.37,-90.49"/>
<polygon fill="#63b8ff" stroke="#63b8ff" points="1086,-80.07 1095.43,-75.26 1085.05,-73.14 1086,-80.07"/>
</a>
</g>
</g>
<!-- Node4 -->
<g id="Node000004" class="node">
<title>Node4</title>
<g id="a_Node000004"><a xlink:href="classShipTemplateSaver.html#a7ef3c42f57f55899bc89f716dd2ddd00" target="_top" xlink:title="템플릿 목록 새로고침">
<polygon fill="white" stroke="#666666" points="737,-95 533,-95 533,-61 737,-61 737,-95"/>
<text text-anchor="start" x="541" y="-81.4" font-family="Consolas" font-size="12.00">ShipTemplateSaver.Refresh</text>
<text text-anchor="middle" x="635" y="-68.4" font-family="Consolas" font-size="12.00">TemplateList</text>
</a>
</g>
</g>
<!-- Node3&#45;&gt;Node4 -->
<g id="edge3_Node000003_Node000004" class="edge">
<title>Node3&#45;&gt;Node4</title>
<g id="a_edge3_Node000003_Node000004"><a xlink:title=" ">
<path fill="none" stroke="#63b8ff" d="M771.33,-89.61C759.89,-88.63 748.43,-87.65 737.3,-86.69"/>
<polygon fill="#63b8ff" stroke="#63b8ff" points="771.11,-93.11 781.37,-90.48 771.71,-86.13 771.11,-93.11"/>
</a>
</g>
</g>
<!-- Node4&#45;&gt;Node2 -->
<g id="edge4_Node000004_Node000002" class="edge">
<title>Node4&#45;&gt;Node2</title>
<g id="a_edge4_Node000004_Node000002"><a xlink:title=" ">
<path fill="none" stroke="#63b8ff" d="M747.32,-74.8C849.08,-71.88 998.11,-67.6 1095.34,-64.81"/>
<polygon fill="#63b8ff" stroke="#63b8ff" points="747.21,-71.3 737.32,-75.09 747.41,-78.3 747.21,-71.3"/>
</a>
</g>
</g>
<!-- Node5 -->
<g id="Node000005" class="node">
<title>Node5</title>
<g id="a_Node000005"><a xlink:href="classShipTemplateSaver.html#aeeb52bd9da7cf308ada9e400f7ed18e5" target="_top" xlink:title="템플릿 목록 표시">
<polygon fill="white" stroke="#666666" points="497,-104.5 225,-104.5 225,-83.5 497,-83.5 497,-104.5"/>
<text text-anchor="middle" x="361" y="-90.9" font-family="Consolas" font-size="12.00">ShipTemplateSaver.ShowTemplateList</text>
</a>
</g>
</g>
<!-- Node4&#45;&gt;Node5 -->
<g id="edge5_Node000004_Node000005" class="edge">
<title>Node4&#45;&gt;Node5</title>
<g id="a_edge5_Node000004_Node000005"><a xlink:title=" ">
<path fill="none" stroke="#63b8ff" d="M522.55,-84.56C514.15,-85.05 505.63,-85.55 497.11,-86.05"/>
<polygon fill="#63b8ff" stroke="#63b8ff" points="522.94,-88.04 532.72,-83.96 522.53,-81.05 522.94,-88.04"/>
</a>
</g>
</g>
<!-- Node6 -->
<g id="Node000006" class="node">
<title>Node6</title>
<g id="a_Node000006"><a xlink:href="classShipTemplateSaver.html#ac21a9409eb9263a08102e63c84238ee4" target="_top" xlink:title="초기화">
<polygon fill="white" stroke="#666666" points="189,-65.5 0,-65.5 0,-44.5 189,-44.5 189,-65.5"/>
<text text-anchor="middle" x="94.5" y="-51.9" font-family="Consolas" font-size="12.00">ShipTemplateSaver.Start</text>
</a>
</g>
</g>
<!-- Node4&#45;&gt;Node6 -->
<g id="edge7_Node000004_Node000006" class="edge">
<title>Node4&#45;&gt;Node6</title>
<g id="a_edge7_Node000004_Node000006"><a xlink:title=" ">
<path fill="none" stroke="#63b8ff" d="M522.72,-73.25C424.17,-69.04 281.95,-62.96 189.13,-59"/>
<polygon fill="#63b8ff" stroke="#63b8ff" points="522.57,-76.74 532.71,-73.67 522.87,-69.75 522.57,-76.74"/>
</a>
</g>
</g>
<!-- Node5&#45;&gt;Node6 -->
<g id="edge6_Node000005_Node000006" class="edge">
<title>Node5&#45;&gt;Node6</title>
<g id="a_edge6_Node000005_Node000006"><a xlink:title=" ">
<path fill="none" stroke="#63b8ff" d="M278.85,-82.03C243.08,-76.76 201.42,-70.62 166.86,-65.52"/>
<polygon fill="#63b8ff" stroke="#63b8ff" points="278.37,-85.5 288.77,-83.5 279.39,-78.58 278.37,-85.5"/>
</a>
</g>
</g>
<!-- Node7&#45;&gt;Node3 -->
<g id="edge9_Node000007_Node000003" class="edge">
<title>Node7&#45;&gt;Node3</title>
<g id="a_edge9_Node000007_Node000003"><a xlink:title=" ">
<path fill="none" stroke="#63b8ff" d="M1062.93,-104.83C1054.35,-104.62 1045.72,-104.41 1037.14,-104.2"/>
<polygon fill="#63b8ff" stroke="#63b8ff" points="1062.87,-108.33 1072.95,-105.07 1063.04,-101.33 1062.87,-108.33"/>
</a>
</g>
</g>
<!-- Node8&#45;&gt;Node6 -->
<g id="edge11_Node000008_Node000006" class="edge">
<title>Node8&#45;&gt;Node6</title>
<g id="a_edge11_Node000008_Node000006"><a xlink:title=" ">
<path fill="none" stroke="#63b8ff" d="M788.28,-22.44C626.97,-30.02 337.63,-43.62 189.1,-50.6"/>
<polygon fill="#63b8ff" stroke="#63b8ff" points="788.89,-25.91 798.72,-21.95 788.56,-18.92 788.89,-25.91"/>
</a>
</g>
</g>
</g>
</svg>
