<?xml version="1.0" encoding="UTF-8" standalone="no"?>
<!DOCTYPE svg PUBLIC "-//W3C//DTD SVG 1.1//EN"
 "http://www.w3.org/Graphics/SVG/1.1/DTD/svg11.dtd">
<!-- Generated by graphviz version 2.43.0 (0)
 -->
<!-- Title: ShipWeaponFactory.CreateWeaponInstance Pages: 1 -->
<!--zoomable 75 -->

<svg id="main" version="1.1" xmlns="http://www.w3.org/2000/svg" xmlns:xlink="http://www.w3.org/1999/xlink" xml:space="preserve" onload="init(evt)">
<style type="text/css"><![CDATA[
.node, .edge {opacity: 0.7;}
.node.selected, .edge.selected {opacity: 1;}
.edge:hover path { stroke: red; }
.edge:hover polygon { stroke: red; fill: red; }
]]></style>

<defs>
  <circle id="rim" cx="0" cy="0" r="7"/>
  <circle id="rim2" cx="0" cy="0" r="3.5"/>
  <g id="zoomPlus">
    <use xlink:href="#rim" fill="#404040"><set attributeName="fill" to="#808080" begin="zoomplus.mouseover" end="zoomplus.mouseout"/></use>
    <path d="M-4,0h8M0,-4v8" fill="none" stroke="white" stroke-width="1.5" pointer-events="none"/>
  </g>
  <g id="zoomMin">
    <use xlink:href="#rim" fill="#404040"><set attributeName="fill" to="#808080" begin="zoomminus.mouseover" end="zoomminus.mouseout"/></use>
    <path d="M-4,0h8" fill="none" stroke="white" stroke-width="1.5" pointer-events="none"/>
  </g>
  <g id="arrowUp" transform="translate(30 24)">
    <use xlink:href="#rim"/>
    <path pointer-events="none" fill="none" stroke="white" stroke-width="1.5" d="M0,-3.0v7 M-2.5,-0.5L0,-3.0L2.5,-0.5"/>
  </g>
  <g id="arrowRight" transform="rotate(90) translate(36 -43)">
    <use xlink:href="#rim"/>
    <path pointer-events="none" fill="none" stroke="white" stroke-width="1.5" d="M0,-3.0v7 M-2.5,-0.5L0,-3.0L2.5,-0.5"/>
  </g>
  <g id="arrowDown" transform="rotate(180) translate(-30 -48)">
    <use xlink:href="#rim"/>
    <path pointer-events="none" fill="none" stroke="white" stroke-width="1.5" d="M0,-3.0v7 M-2.5,-0.5L0,-3.0L2.5,-0.5"/>
  </g>
  <g id="arrowLeft" transform="rotate(270) translate(-36 17)">
    <use xlink:href="#rim"/>
    <path pointer-events="none" fill="none" stroke="white" stroke-width="1.5" d="M0,-3.0v7 M-2.5,-0.5L0,-3.0L2.5,-0.5"/>
  </g>
  <g id="resetDef">
    <use xlink:href="#rim2" fill="#404040"><set attributeName="fill" to="#808080" begin="reset.mouseover" end="reset.mouseout"/></use>
  </g>
</defs>
<script type="application/ecmascript">
var viewWidth = 1053;
var viewHeight = 75;
var sectionId = 'dynsection-2';
</script>
<script type="application/ecmascript" xlink:href="svg.min.js"/>
<svg id="graph" class="graph">
<g id="viewport">
<title>ShipWeaponFactory.CreateWeaponInstance</title>
<!-- Node1 -->
<g id="Node000001" class="node">
<title>Node1</title>
<g id="a_Node000001"><a xlink:title="무기 인스턴스 생성 &#45; 함선에 자동 추가하지 않음">
<polygon fill="#999999" stroke="#666666" points="197,-46.5 0,-46.5 0,-12.5 197,-12.5 197,-46.5"/>
<text text-anchor="start" x="8" y="-32.9" font-family="Consolas" font-size="12.00">ShipWeaponFactory.Create</text>
<text text-anchor="middle" x="98.5" y="-19.9" font-family="Consolas" font-size="12.00">WeaponInstance</text>
</a>
</g>
</g>
<!-- Node2 -->
<g id="Node000002" class="node">
<title>Node2</title>
<g id="a_Node000002"><a xlink:href="classShipWeaponFactory.html#a188118dbfa6dcc8e4bb34619e8de7964" target="_top" xlink:title="ID로 무기 데이터 검색">
<polygon fill="white" stroke="#666666" points="482,-60 233,-60 233,-39 482,-39 482,-60"/>
<text text-anchor="middle" x="357.5" y="-46.4" font-family="Consolas" font-size="12.00">ShipWeaponFactory.GetWeaponData</text>
</a>
</g>
</g>
<!-- Node1&#45;&gt;Node2 -->
<g id="edge1_Node000001_Node000002" class="edge">
<title>Node1&#45;&gt;Node2</title>
<g id="a_edge1_Node000001_Node000002"><a xlink:title=" ">
<path fill="none" stroke="#63b8ff" d="M197.03,-37.09C205.4,-37.74 213.95,-38.41 222.54,-39.08"/>
<polygon fill="#63b8ff" stroke="#63b8ff" points="222.39,-42.57 232.63,-39.86 222.93,-35.59 222.39,-42.57"/>
</a>
</g>
</g>
<!-- Node5 -->
<g id="Node000005" class="node">
<title>Node5</title>
<g id="a_Node000005"><a xlink:href="classShipWeapon.html#ad1bc7dcd44db24b78956ab3c77626d57" target="_top" xlink:title="무기 초기화 (무기 생성 후 필요한 추가 설정)">
<polygon fill="white" stroke="#666666" points="444.5,-21 270.5,-21 270.5,0 444.5,0 444.5,-21"/>
<text text-anchor="middle" x="357.5" y="-7.4" font-family="Consolas" font-size="12.00">ShipWeapon.Initialize</text>
</a>
</g>
</g>
<!-- Node1&#45;&gt;Node5 -->
<g id="edge4_Node000001_Node000005" class="edge">
<title>Node1&#45;&gt;Node5</title>
<g id="a_edge4_Node000001_Node000005"><a xlink:title=" ">
<path fill="none" stroke="#63b8ff" d="M197.03,-22.29C217.77,-20.76 239.66,-19.14 260.36,-17.61"/>
<polygon fill="#63b8ff" stroke="#63b8ff" points="260.69,-21.09 270.41,-16.86 260.18,-14.11 260.69,-21.09"/>
</a>
</g>
</g>
<!-- Node3 -->
<g id="Node000003" class="node">
<title>Node3</title>
<g id="a_Node000003"><a xlink:href="classShipWeaponDatabase.html#a44753cec6c02804586718ae52321f33a" target="_top" xlink:title="ID로 무기 데이터 검색">
<polygon fill="white" stroke="#666666" points="775,-60 518,-60 518,-39 775,-39 775,-60"/>
<text text-anchor="middle" x="646.5" y="-46.4" font-family="Consolas" font-size="12.00">ShipWeaponDatabase.GetWeaponData</text>
</a>
</g>
</g>
<!-- Node2&#45;&gt;Node3 -->
<g id="edge2_Node000002_Node000003" class="edge">
<title>Node2&#45;&gt;Node3</title>
<g id="a_edge2_Node000002_Node000003"><a xlink:title=" ">
<path fill="none" stroke="#63b8ff" d="M482.3,-49.5C490.6,-49.5 499,-49.5 507.37,-49.5"/>
<polygon fill="#63b8ff" stroke="#63b8ff" points="507.56,-53 517.56,-49.5 507.56,-46 507.56,-53"/>
</a>
</g>
</g>
<!-- Node4 -->
<g id="Node000004" class="node">
<title>Node4</title>
<g id="a_Node000004"><a xlink:href="classShipWeaponDatabase.html#a4962b1ebf5d68ef3370ec6ae05209928" target="_top" xlink:title="무기 검색용 딕셔너리 초기화">
<polygon fill="white" stroke="#666666" points="1045,-66.5 811,-66.5 811,-32.5 1045,-32.5 1045,-66.5"/>
<text text-anchor="start" x="819" y="-52.9" font-family="Consolas" font-size="12.00">ShipWeaponDatabase.Initialize</text>
<text text-anchor="middle" x="928" y="-39.9" font-family="Consolas" font-size="12.00">WeaponDictionary</text>
</a>
</g>
</g>
<!-- Node3&#45;&gt;Node4 -->
<g id="edge3_Node000003_Node000004" class="edge">
<title>Node3&#45;&gt;Node4</title>
<g id="a_edge3_Node000003_Node000004"><a xlink:title=" ">
<path fill="none" stroke="#63b8ff" d="M775.39,-49.5C783.77,-49.5 792.21,-49.5 800.58,-49.5"/>
<polygon fill="#63b8ff" stroke="#63b8ff" points="800.75,-53 810.75,-49.5 800.75,-46 800.75,-53"/>
</a>
</g>
</g>
</g>
</svg>

<g id="navigator" transform="translate(0 0)" fill="#404254">
  <rect fill="#f2f5e9" fill-opacity="0.5" stroke="#606060" stroke-width=".5" x="0" y="0" width="60" height="60"/>
  <use id="zoomplus" xlink:href="#zoomPlus" x="17" y="9" onmousedown="handleZoom(evt,'in')"/>
  <use id="zoomminus" xlink:href="#zoomMin" x="42" y="9" onmousedown="handleZoom(evt,'out')"/>
  <use id="reset" xlink:href="#resetDef" x="30" y="36" onmousedown="handleReset()"/>
   <use id="arrowup" xlink:href="#arrowUp" x="0" y="0" onmousedown="handlePan(0,-1)"/>
  <use id="arrowright" xlink:href="#arrowRight" x="0" y="0" onmousedown="handlePan(1,0)"/>
  <use id="arrowdown" xlink:href="#arrowDown" x="0" y="0" onmousedown="handlePan(0,1)"/>
  <use id="arrowleft" xlink:href="#arrowLeft" x="0" y="0" onmousedown="handlePan(-1,0)"/>
</g>
<svg viewBox="0 0 15 15" width="100%" height="30px" preserveAspectRatio="xMaxYMin meet">
 <g id="arrow_out" transform="scale(0.3 0.3)">
  <a xlink:href="classShipWeaponFactory_a4101dd150eadd0690cdb9c839b005c08_cgraph_org.svg" target="_base">
   <rect id="button" ry="5" rx="5" y="6" x="6" height="38" width="38"
        fill="#f2f5e9" fill-opacity="0.5" stroke="#606060" stroke-width="1.0"/>
   <path id="arrow"
     d="M 11.500037,31.436501 C 11.940474,20.09759 22.043105,11.32322 32.158766,21.979434 L 37.068811,17.246167 C 37.068811,17.246167 37.088388,32 37.088388,32 L 22.160133,31.978069 C 22.160133,31.978069 26.997745,27.140456 26.997745,27.140456 C 18.528582,18.264221 13.291696,25.230495 11.500037,31.436501 z"
     style="fill:#404040;"/>
  </a>
 </g>
</svg>

<style type='text/css'>
<![CDATA[
[data-mouse-over-selected='false'] { opacity: 0.7; }
[data-mouse-over-selected='true']  { opacity: 1.0; }
]]>
</style>
<script type="application/ecmascript"><![CDATA[
document.addEventListener('DOMContentLoaded', (event) => {
  highlightEdges();
  highlightAdjacentNodes();
});
]]></script>
</svg>
