<?xml version="1.0" encoding="UTF-8" standalone="no"?>
<!DOCTYPE svg PUBLIC "-//W3C//DTD SVG 1.1//EN"
 "http://www.w3.org/Graphics/SVG/1.1/DTD/svg11.dtd">
<!-- Generated by graphviz version 2.43.0 (0)
 -->
<!-- Title: ES3AutoSave Pages: 1 -->
<svg width="370pt" height="388pt"
 viewBox="0.00 0.00 370.00 388.00" xmlns="http://www.w3.org/2000/svg" xmlns:xlink="http://www.w3.org/1999/xlink">

<svg id="main" version="1.1" xmlns="http://www.w3.org/2000/svg" xmlns:xlink="http://www.w3.org/1999/xlink" xml:space="preserve" onload="init(evt)">
<style type="text/css"><![CDATA[
.node, .edge {opacity: 0.7;}
.node.selected, .edge.selected {opacity: 1;}
.edge:hover path { stroke: red; }
.edge:hover polygon { stroke: red; fill: red; }
]]></style>
<script type="application/ecmascript" xlink:href="svg.min.js"/>
<svg id="graph" class="graph">
<g id="graph0" class="graph" transform="scale(1 1) rotate(0) translate(4 384)">
<title>ES3AutoSave</title>
<!-- Node1 -->
<g id="Node000001" class="node">
<title>Node1</title>
<g id="a_Node000001"><a xlink:title=" ">
<polygon fill="#999999" stroke="transparent" points="264.5,-289 33.5,-289 33.5,0 264.5,0 264.5,-289"/>
<text text-anchor="start" x="108" y="-274.9" font-family="Consolas" font-size="12.00">ES3AutoSave</text>
<text text-anchor="start" x="38" y="-257.9" font-family="Consolas" font-size="12.00">+</text>
<text text-anchor="start" x="50" y="-257.9" font-family="Consolas" font-size="12.00">bool saveLayer</text>
<text text-anchor="start" x="38" y="-240.9" font-family="Consolas" font-size="12.00">+</text>
<text text-anchor="start" x="50" y="-240.9" font-family="Consolas" font-size="12.00">bool saveTag</text>
<text text-anchor="start" x="38" y="-223.9" font-family="Consolas" font-size="12.00">+</text>
<text text-anchor="start" x="50" y="-223.9" font-family="Consolas" font-size="12.00">bool saveName</text>
<text text-anchor="start" x="38" y="-206.9" font-family="Consolas" font-size="12.00">+</text>
<text text-anchor="start" x="50" y="-206.9" font-family="Consolas" font-size="12.00">bool saveHideFlags</text>
<text text-anchor="start" x="38" y="-189.9" font-family="Consolas" font-size="12.00">+</text>
<text text-anchor="start" x="50" y="-189.9" font-family="Consolas" font-size="12.00">bool saveActive</text>
<text text-anchor="start" x="38" y="-172.9" font-family="Consolas" font-size="12.00">+</text>
<text text-anchor="start" x="50" y="-172.9" font-family="Consolas" font-size="12.00">bool saveChildren</text>
<text text-anchor="start" x="38" y="-155.9" font-family="Consolas" font-size="12.00">+</text>
<text text-anchor="start" x="50" y="-155.9" font-family="Consolas" font-size="12.00">bool saveDestroyed</text>
<text text-anchor="start" x="38" y="-138.9" font-family="Consolas" font-size="12.00">+</text>
<text text-anchor="start" x="50" y="-138.9" font-family="Consolas" font-size="12.00">List&lt; Component &gt; components</text>
<text text-anchor="start" x="50" y="-125.9" font-family="Consolas" font-size="12.00">ToSave</text>
<text text-anchor="start" x="38" y="-108.9" font-family="Consolas" font-size="12.00">&#45;</text>
<text text-anchor="start" x="50" y="-108.9" font-family="Consolas" font-size="12.00">bool isQuitting</text>
<text text-anchor="start" x="38" y="-91.9" font-family="Consolas" font-size="12.00">+</text>
<text text-anchor="start" x="50" y="-91.9" font-family="Consolas" font-size="12.00">void Reset()</text>
<text text-anchor="start" x="38" y="-74.9" font-family="Consolas" font-size="12.00">+</text>
<text text-anchor="start" x="50" y="-74.9" font-family="Consolas" font-size="12.00">void Awake()</text>
<text text-anchor="start" x="38" y="-57.9" font-family="Consolas" font-size="12.00">+</text>
<text text-anchor="start" x="50" y="-57.9" font-family="Consolas" font-size="12.00">void OnApplicationQuit()</text>
<text text-anchor="start" x="38" y="-40.9" font-family="Consolas" font-size="12.00">+</text>
<text text-anchor="start" x="50" y="-40.9" font-family="Consolas" font-size="12.00">void OnDestroy()</text>
<text text-anchor="start" x="38" y="-23.9" font-family="Consolas" font-size="12.00">+</text>
<text text-anchor="start" x="50" y="-23.9" font-family="Consolas" font-size="12.00">void OnBeforeSerialize()</text>
<text text-anchor="start" x="38" y="-6.9" font-family="Consolas" font-size="12.00">+</text>
<text text-anchor="start" x="50" y="-6.9" font-family="Consolas" font-size="12.00">void OnAfterDeserialize()</text>
<polygon fill="#666666" stroke="#666666" points="34,-269.5 34,-269.5 265,-269.5 265,-269.5 34,-269.5"/>
<polygon fill="#666666" stroke="#666666" points="34,-103.5 34,-103.5 48,-103.5 48,-103.5 34,-103.5"/>
<polygon fill="#666666" stroke="#666666" points="48,-103.5 48,-103.5 265,-103.5 265,-103.5 48,-103.5"/>
<polygon fill="none" stroke="#666666" points="33.5,0 33.5,-289 264.5,-289 264.5,0 33.5,0"/>
</a>
</g>
</g>
<!-- Node2 -->
<g id="Node000002" class="node">
<title>Node2</title>
<g id="a_Node000002"><a xlink:title=" ">
<polygon fill="white" stroke="transparent" points="108,-380 0,-380 0,-325 108,-325 108,-380"/>
<text text-anchor="start" x="5" y="-365.9" font-family="Consolas" font-size="12.00">MonoBehaviour</text>
<text text-anchor="start" x="50" y="-348.9" font-family="Consolas" font-size="12.00"> </text>
<text text-anchor="start" x="50" y="-331.9" font-family="Consolas" font-size="12.00"> </text>
<polygon fill="#bfbfbf" stroke="#bfbfbf" points="0,-360.5 0,-360.5 108,-360.5 108,-360.5 0,-360.5"/>
<polygon fill="#bfbfbf" stroke="#bfbfbf" points="0,-343.5 0,-343.5 108,-343.5 108,-343.5 0,-343.5"/>
<polygon fill="none" stroke="#bfbfbf" points="0,-325 0,-380 108,-380 108,-325 0,-325"/>
</a>
</g>
</g>
<!-- Node2&#45;&gt;Node1 -->
<g id="edge1_Node000001_Node000002" class="edge">
<title>Node2&#45;&gt;Node1</title>
<g id="a_edge1_Node000001_Node000002"><a xlink:title=" ">
<path fill="none" stroke="#63b8ff" d="M70.51,-315.69C74.22,-307.65 78.38,-298.64 82.79,-289.07"/>
<polygon fill="none" stroke="#63b8ff" points="67.23,-314.44 66.23,-324.99 73.59,-317.38 67.23,-314.44"/>
</a>
</g>
</g>
<!-- Node3 -->
<g id="Node000003" class="node">
<title>Node3</title>
<g id="a_Node000003"><a xlink:title=" ">
<polygon fill="white" stroke="transparent" points="362,-380 126,-380 126,-325 362,-325 362,-380"/>
<text text-anchor="start" x="131" y="-365.9" font-family="Consolas" font-size="12.00">ISerializationCallbackReceiver</text>
<text text-anchor="start" x="240" y="-348.9" font-family="Consolas" font-size="12.00"> </text>
<text text-anchor="start" x="240" y="-331.9" font-family="Consolas" font-size="12.00"> </text>
<polygon fill="#bfbfbf" stroke="#bfbfbf" points="126,-360.5 126,-360.5 362,-360.5 362,-360.5 126,-360.5"/>
<polygon fill="#bfbfbf" stroke="#bfbfbf" points="126,-343.5 126,-343.5 362,-343.5 362,-343.5 126,-343.5"/>
<polygon fill="none" stroke="#bfbfbf" points="126,-325 126,-380 362,-380 362,-325 126,-325"/>
</a>
</g>
</g>
<!-- Node3&#45;&gt;Node1 -->
<g id="edge2_Node000001_Node000003" class="edge">
<title>Node3&#45;&gt;Node1</title>
<g id="a_edge2_Node000001_Node000003"><a xlink:title=" ">
<path fill="none" stroke="#63b8ff" d="M227.49,-315.69C223.78,-307.65 219.62,-298.64 215.21,-289.07"/>
<polygon fill="none" stroke="#63b8ff" points="224.41,-317.38 231.77,-324.99 230.77,-314.44 224.41,-317.38"/>
</a>
</g>
</g>
</g>
</svg>
</svg>

<style type='text/css'>
<![CDATA[
[data-mouse-over-selected='false'] { opacity: 0.7; }
[data-mouse-over-selected='true']  { opacity: 1.0; }
]]>
</style>
<script type="application/ecmascript"><![CDATA[
document.addEventListener('DOMContentLoaded', (event) => {
  highlightEdges();
  highlightAdjacentNodes();
});
]]></script>
</svg>
