<?xml version="1.0" encoding="UTF-8" standalone="no"?>
<!DOCTYPE svg PUBLIC "-//W3C//DTD SVG 1.1//EN"
 "http://www.w3.org/Graphics/SVG/1.1/DTD/svg11.dtd">
<!-- Generated by graphviz version 2.43.0 (0)
 -->
<!-- Title: EventCrewEffectHandler Pages: 1 -->
<svg width="231pt" height="106pt"
 viewBox="0.00 0.00 231.00 106.00" xmlns="http://www.w3.org/2000/svg" xmlns:xlink="http://www.w3.org/1999/xlink">
<g id="graph0" class="graph" transform="scale(1 1) rotate(0) translate(4 102)">
<title>EventCrewEffectHandler</title>
<!-- Node1 -->
<g id="Node000001" class="node">
<title>Node1</title>
<g id="a_Node000001"><a xlink:title="이벤트 결과로 승무원 효과를 적용하는 유틸성 클래스입니다. SpecialEffectType 시스템과는 무관하게 EventOutcome의 crewEffects를 직접 처리합니다.">
<polygon fill="#999999" stroke="transparent" points="223,-98 0,-98 0,0 223,0 223,-98"/>
<text text-anchor="start" x="29" y="-84.4" font-family="Consolas" font-size="12.00">EventCrewEffectHandler</text>
<text text-anchor="start" x="108" y="-67.4" font-family="Consolas" font-size="12.00"> </text>
<text text-anchor="start" x="4.5" y="-50.4" font-family="Consolas" font-size="12.00">+</text>
<text text-anchor="start" x="16.5" y="-50.4" font-family="Consolas" font-size="12.00">void Handle(CrewEffect</text>
<text text-anchor="start" x="16.5" y="-37.4" font-family="Consolas" font-size="12.00"> effect)</text>
<text text-anchor="start" x="4.5" y="-20.4" font-family="Consolas" font-size="12.00">+</text>
<text text-anchor="start" x="16.5" y="-20.4" font-family="Consolas" font-size="12.00">void ApplyEffects(List</text>
<text text-anchor="start" x="16.5" y="-7.4" font-family="Consolas" font-size="12.00">&lt; CrewEffect &gt; crewEffects)</text>
<polygon fill="#666666" stroke="#666666" points="0.5,-79 0.5,-79 223.5,-79 223.5,-79 0.5,-79"/>
<polygon fill="#666666" stroke="#666666" points="0.5,-62 0.5,-62 223.5,-62 223.5,-62 0.5,-62"/>
<polygon fill="none" stroke="#666666" points="0,0 0,-98 223,-98 223,0 0,0"/>
</a>
</g>
</g>
</g>
</svg>
