<?xml version="1.0" encoding="UTF-8" standalone="no"?>
<!DOCTYPE svg PUBLIC "-//W3C//DTD SVG 1.1//EN"
 "http://www.w3.org/Graphics/SVG/1.1/DTD/svg11.dtd">
<!-- Generated by graphviz version 2.43.0 (0)
 -->
<!-- Title: EventDatabase Pages: 1 -->
<!--zoomable 772 -->

<svg id="main" version="1.1" xmlns="http://www.w3.org/2000/svg" xmlns:xlink="http://www.w3.org/1999/xlink" xml:space="preserve" onload="init(evt)">
<style type="text/css"><![CDATA[
.node, .edge {opacity: 0.7;}
.node.selected, .edge.selected {opacity: 1;}
.edge:hover path { stroke: red; }
.edge:hover polygon { stroke: red; fill: red; }
]]></style>

<defs>
  <circle id="rim" cx="0" cy="0" r="7"/>
  <circle id="rim2" cx="0" cy="0" r="3.5"/>
  <g id="zoomPlus">
    <use xlink:href="#rim" fill="#404040"><set attributeName="fill" to="#808080" begin="zoomplus.mouseover" end="zoomplus.mouseout"/></use>
    <path d="M-4,0h8M0,-4v8" fill="none" stroke="white" stroke-width="1.5" pointer-events="none"/>
  </g>
  <g id="zoomMin">
    <use xlink:href="#rim" fill="#404040"><set attributeName="fill" to="#808080" begin="zoomminus.mouseover" end="zoomminus.mouseout"/></use>
    <path d="M-4,0h8" fill="none" stroke="white" stroke-width="1.5" pointer-events="none"/>
  </g>
  <g id="arrowUp" transform="translate(30 24)">
    <use xlink:href="#rim"/>
    <path pointer-events="none" fill="none" stroke="white" stroke-width="1.5" d="M0,-3.0v7 M-2.5,-0.5L0,-3.0L2.5,-0.5"/>
  </g>
  <g id="arrowRight" transform="rotate(90) translate(36 -43)">
    <use xlink:href="#rim"/>
    <path pointer-events="none" fill="none" stroke="white" stroke-width="1.5" d="M0,-3.0v7 M-2.5,-0.5L0,-3.0L2.5,-0.5"/>
  </g>
  <g id="arrowDown" transform="rotate(180) translate(-30 -48)">
    <use xlink:href="#rim"/>
    <path pointer-events="none" fill="none" stroke="white" stroke-width="1.5" d="M0,-3.0v7 M-2.5,-0.5L0,-3.0L2.5,-0.5"/>
  </g>
  <g id="arrowLeft" transform="rotate(270) translate(-36 17)">
    <use xlink:href="#rim"/>
    <path pointer-events="none" fill="none" stroke="white" stroke-width="1.5" d="M0,-3.0v7 M-2.5,-0.5L0,-3.0L2.5,-0.5"/>
  </g>
  <g id="resetDef">
    <use xlink:href="#rim2" fill="#404040"><set attributeName="fill" to="#808080" begin="reset.mouseover" end="reset.mouseout"/></use>
  </g>
</defs>
<script type="application/ecmascript">
var viewWidth = 269;
var viewHeight = 772;
var sectionId = 'dynsection-1';
</script>
<script type="application/ecmascript" xlink:href="svg.min.js"/>
<svg id="graph" class="graph">
<g id="viewport">
<title>EventDatabase</title>
<!-- Node1 -->
<g id="Node000001" class="node">
<title>Node1</title>
<g id="a_Node000001"><a xlink:title="모든 이벤트 데이터를 관리하는 중앙 데이터베이스">
<polygon fill="#999999" stroke="transparent" points="261,-673 0,-673 0,0 261,0 261,-673"/>
<text text-anchor="start" x="82" y="-658.9" font-family="Consolas" font-size="12.00">EventDatabase</text>
<text text-anchor="start" x="4.5" y="-641.9" font-family="Consolas" font-size="12.00">&#45;</text>
<text text-anchor="start" x="16.5" y="-641.9" font-family="Consolas" font-size="12.00">List&lt; RandomEvent &gt;</text>
<text text-anchor="start" x="16.5" y="-628.9" font-family="Consolas" font-size="12.00"> allEvents</text>
<text text-anchor="start" x="4.5" y="-611.9" font-family="Consolas" font-size="12.00">&#45;</text>
<text text-anchor="start" x="16.5" y="-611.9" font-family="Consolas" font-size="12.00">Dictionary&lt; int, RandomEvent</text>
<text text-anchor="start" x="16.5" y="-598.9" font-family="Consolas" font-size="12.00"> &gt; eventDictionary</text>
<text text-anchor="start" x="4.5" y="-581.9" font-family="Consolas" font-size="12.00">&#45;</text>
<text text-anchor="start" x="16.5" y="-581.9" font-family="Consolas" font-size="12.00">Dictionary&lt; EventType,</text>
<text text-anchor="start" x="16.5" y="-568.9" font-family="Consolas" font-size="12.00"> List&lt; RandomEvent &gt;</text>
<text text-anchor="start" x="16.5" y="-555.9" font-family="Consolas" font-size="12.00"> &gt; eventsByType</text>
<text text-anchor="start" x="4.5" y="-538.9" font-family="Consolas" font-size="12.00">&#45;</text>
<text text-anchor="start" x="16.5" y="-538.9" font-family="Consolas" font-size="12.00">Dictionary&lt; EventOutcome</text>
<text text-anchor="start" x="16.5" y="-525.9" font-family="Consolas" font-size="12.00">Type, List&lt; RandomEvent</text>
<text text-anchor="start" x="16.5" y="-512.9" font-family="Consolas" font-size="12.00"> &gt; &gt; eventsByOutcomeType</text>
<text text-anchor="start" x="4.5" y="-495.9" font-family="Consolas" font-size="12.00">+</text>
<text text-anchor="start" x="16.5" y="-495.9" font-family="Consolas" font-size="12.00">void Initialize()</text>
<text text-anchor="start" x="4.5" y="-478.9" font-family="Consolas" font-size="12.00">+</text>
<text text-anchor="start" x="16.5" y="-478.9" font-family="Consolas" font-size="12.00">List&lt; RandomEvent &gt;</text>
<text text-anchor="start" x="16.5" y="-465.9" font-family="Consolas" font-size="12.00"> GetAllEvents()</text>
<text text-anchor="start" x="4.5" y="-448.9" font-family="Consolas" font-size="12.00">+</text>
<text text-anchor="start" x="16.5" y="-448.9" font-family="Consolas" font-size="12.00">RandomEvent GetEvent</text>
<text text-anchor="start" x="16.5" y="-435.9" font-family="Consolas" font-size="12.00">(int id)</text>
<text text-anchor="start" x="4.5" y="-418.9" font-family="Consolas" font-size="12.00">+</text>
<text text-anchor="start" x="16.5" y="-418.9" font-family="Consolas" font-size="12.00">RandomEvent GetEventByDebug</text>
<text text-anchor="start" x="16.5" y="-405.9" font-family="Consolas" font-size="12.00">Name(string debugName)</text>
<text text-anchor="start" x="4.5" y="-388.9" font-family="Consolas" font-size="12.00">+</text>
<text text-anchor="start" x="16.5" y="-388.9" font-family="Consolas" font-size="12.00">List&lt; RandomEvent &gt;</text>
<text text-anchor="start" x="16.5" y="-375.9" font-family="Consolas" font-size="12.00"> GetEventsByType(EventType type)</text>
<text text-anchor="start" x="4.5" y="-358.9" font-family="Consolas" font-size="12.00">+</text>
<text text-anchor="start" x="16.5" y="-358.9" font-family="Consolas" font-size="12.00">List&lt; RandomEvent &gt;</text>
<text text-anchor="start" x="16.5" y="-345.9" font-family="Consolas" font-size="12.00"> GetEventsByOutcomeType</text>
<text text-anchor="start" x="16.5" y="-332.9" font-family="Consolas" font-size="12.00">(EventOutcomeType outcomeType)</text>
<text text-anchor="start" x="4.5" y="-315.9" font-family="Consolas" font-size="12.00">+</text>
<text text-anchor="start" x="16.5" y="-315.9" font-family="Consolas" font-size="12.00">List&lt; RandomEvent &gt;</text>
<text text-anchor="start" x="16.5" y="-302.9" font-family="Consolas" font-size="12.00"> GetEventsForYear(int year)</text>
<text text-anchor="start" x="4.5" y="-285.9" font-family="Consolas" font-size="12.00">+</text>
<text text-anchor="start" x="16.5" y="-285.9" font-family="Consolas" font-size="12.00">List&lt; RandomEvent &gt;</text>
<text text-anchor="start" x="16.5" y="-272.9" font-family="Consolas" font-size="12.00"> GetEventsForCOMA(int coma)</text>
<text text-anchor="start" x="4.5" y="-255.9" font-family="Consolas" font-size="12.00">+</text>
<text text-anchor="start" x="16.5" y="-255.9" font-family="Consolas" font-size="12.00">List&lt; RandomEvent &gt;</text>
<text text-anchor="start" x="16.5" y="-242.9" font-family="Consolas" font-size="12.00"> GetEventsRequiringRace</text>
<text text-anchor="start" x="16.5" y="-229.9" font-family="Consolas" font-size="12.00">(CrewRace race)</text>
<text text-anchor="start" x="4.5" y="-212.9" font-family="Consolas" font-size="12.00">+</text>
<text text-anchor="start" x="16.5" y="-212.9" font-family="Consolas" font-size="12.00">List&lt; RandomEvent &gt;</text>
<text text-anchor="start" x="16.5" y="-199.9" font-family="Consolas" font-size="12.00"> GetFilteredEvents(EventType</text>
<text text-anchor="start" x="16.5" y="-186.9" font-family="Consolas" font-size="12.00"> type, int year, int coma,</text>
<text text-anchor="start" x="16.5" y="-173.9" font-family="Consolas" font-size="12.00"> float fuel, List&lt; CrewRace</text>
<text text-anchor="start" x="16.5" y="-160.9" font-family="Consolas" font-size="12.00"> &gt; availableRaces)</text>
<text text-anchor="start" x="4.5" y="-143.9" font-family="Consolas" font-size="12.00">+</text>
<text text-anchor="start" x="16.5" y="-143.9" font-family="Consolas" font-size="12.00">RandomEvent GetRandomEvent</text>
<text text-anchor="start" x="16.5" y="-130.9" font-family="Consolas" font-size="12.00">(EventType type, int year,</text>
<text text-anchor="start" x="16.5" y="-117.9" font-family="Consolas" font-size="12.00"> int coma, float fuel, List</text>
<text text-anchor="start" x="16.5" y="-104.9" font-family="Consolas" font-size="12.00">&lt; CrewRace &gt; availableRaces)</text>
<text text-anchor="start" x="4.5" y="-87.9" font-family="Consolas" font-size="12.00">+</text>
<text text-anchor="start" x="16.5" y="-87.9" font-family="Consolas" font-size="12.00">void ReloadEvents()</text>
<text text-anchor="start" x="4.5" y="-70.9" font-family="Consolas" font-size="12.00">&#45;</text>
<text text-anchor="start" x="16.5" y="-70.9" font-family="Consolas" font-size="12.00">void InitializeEventDictionary()</text>
<text text-anchor="start" x="4.5" y="-53.9" font-family="Consolas" font-size="12.00">&#45;</text>
<text text-anchor="start" x="16.5" y="-53.9" font-family="Consolas" font-size="12.00">void InitializeEventsByType()</text>
<text text-anchor="start" x="4.5" y="-36.9" font-family="Consolas" font-size="12.00">&#45;</text>
<text text-anchor="start" x="16.5" y="-36.9" font-family="Consolas" font-size="12.00">void InitializeEventsByOutcome</text>
<text text-anchor="start" x="16.5" y="-23.9" font-family="Consolas" font-size="12.00">Type()</text>
<text text-anchor="start" x="4.5" y="-6.9" font-family="Consolas" font-size="12.00">&#45;</text>
<text text-anchor="start" x="16.5" y="-6.9" font-family="Consolas" font-size="12.00">void OnEnable()</text>
<polygon fill="#666666" stroke="#666666" points="0.5,-653.5 0.5,-653.5 261.5,-653.5 261.5,-653.5 0.5,-653.5"/>
<polygon fill="#666666" stroke="#666666" points="0.5,-507.5 0.5,-507.5 14.5,-507.5 14.5,-507.5 0.5,-507.5"/>
<polygon fill="#666666" stroke="#666666" points="14.5,-507.5 14.5,-507.5 261.5,-507.5 261.5,-507.5 14.5,-507.5"/>
<polygon fill="none" stroke="#666666" points="0,0 0,-673 261,-673 261,0 0,0"/>
</a>
</g>
</g>
<!-- Node2 -->
<g id="Node000002" class="node">
<title>Node2</title>
<g id="a_Node000002"><a xlink:title=" ">
<polygon fill="white" stroke="transparent" points="196,-764 65,-764 65,-709 196,-709 196,-764"/>
<text text-anchor="start" x="70.5" y="-749.9" font-family="Consolas" font-size="12.00">ScriptableObject</text>
<text text-anchor="start" x="127" y="-732.9" font-family="Consolas" font-size="12.00"> </text>
<text text-anchor="start" x="127" y="-715.9" font-family="Consolas" font-size="12.00"> </text>
<polygon fill="#bfbfbf" stroke="#bfbfbf" points="65.5,-744.5 65.5,-744.5 196.5,-744.5 196.5,-744.5 65.5,-744.5"/>
<polygon fill="#bfbfbf" stroke="#bfbfbf" points="65.5,-727.5 65.5,-727.5 196.5,-727.5 196.5,-727.5 65.5,-727.5"/>
<polygon fill="none" stroke="#bfbfbf" points="65,-709 65,-764 196,-764 196,-709 65,-709"/>
</a>
</g>
</g>
<!-- Node2&#45;&gt;Node1 -->
<g id="edge1_Node000001_Node000002" class="edge">
<title>Node2&#45;&gt;Node1</title>
<g id="a_edge1_Node000001_Node000002"><a xlink:title=" ">
<path fill="none" stroke="#63b8ff" d="M130.5,-698.7C130.5,-691.1 130.5,-682.54 130.5,-673.19"/>
<polygon fill="none" stroke="#63b8ff" points="127,-698.77 130.5,-708.77 134,-698.77 127,-698.77"/>
</a>
</g>
</g>
</g>
</svg>

<g id="navigator" transform="translate(0 0)" fill="#404254">
  <rect fill="#f2f5e9" fill-opacity="0.5" stroke="#606060" stroke-width=".5" x="0" y="0" width="60" height="60"/>
  <use id="zoomplus" xlink:href="#zoomPlus" x="17" y="9" onmousedown="handleZoom(evt,'in')"/>
  <use id="zoomminus" xlink:href="#zoomMin" x="42" y="9" onmousedown="handleZoom(evt,'out')"/>
  <use id="reset" xlink:href="#resetDef" x="30" y="36" onmousedown="handleReset()"/>
   <use id="arrowup" xlink:href="#arrowUp" x="0" y="0" onmousedown="handlePan(0,-1)"/>
  <use id="arrowright" xlink:href="#arrowRight" x="0" y="0" onmousedown="handlePan(1,0)"/>
  <use id="arrowdown" xlink:href="#arrowDown" x="0" y="0" onmousedown="handlePan(0,1)"/>
  <use id="arrowleft" xlink:href="#arrowLeft" x="0" y="0" onmousedown="handlePan(-1,0)"/>
</g>
<svg viewBox="0 0 15 15" width="100%" height="30px" preserveAspectRatio="xMaxYMin meet">
 <g id="arrow_out" transform="scale(0.3 0.3)">
  <a xlink:href="classEventDatabase__coll__graph_org.svg" target="_base">
   <rect id="button" ry="5" rx="5" y="6" x="6" height="38" width="38"
        fill="#f2f5e9" fill-opacity="0.5" stroke="#606060" stroke-width="1.0"/>
   <path id="arrow"
     d="M 11.500037,31.436501 C 11.940474,20.09759 22.043105,11.32322 32.158766,21.979434 L 37.068811,17.246167 C 37.068811,17.246167 37.088388,32 37.088388,32 L 22.160133,31.978069 C 22.160133,31.978069 26.997745,27.140456 26.997745,27.140456 C 18.528582,18.264221 13.291696,25.230495 11.500037,31.436501 z"
     style="fill:#404040;"/>
  </a>
 </g>
</svg>

<style type='text/css'>
<![CDATA[
[data-mouse-over-selected='false'] { opacity: 0.7; }
[data-mouse-over-selected='true']  { opacity: 1.0; }
]]>
</style>
<script type="application/ecmascript"><![CDATA[
document.addEventListener('DOMContentLoaded', (event) => {
  highlightEdges();
  highlightAdjacentNodes();
});
]]></script>
</svg>
