<?xml version="1.0" encoding="UTF-8" standalone="no"?>
<!DOCTYPE svg PUBLIC "-//W3C//DTD SVG 1.1//EN"
 "http://www.w3.org/Graphics/SVG/1.1/DTD/svg11.dtd">
<!-- Generated by graphviz version 2.43.0 (0)
 -->
<!-- Title: ES3.KeyExists Pages: 1 -->
<!--zoomable 146 -->

<svg id="main" version="1.1" xmlns="http://www.w3.org/2000/svg" xmlns:xlink="http://www.w3.org/1999/xlink" xml:space="preserve" onload="init(evt)">
<style type="text/css"><![CDATA[
.node, .edge {opacity: 0.7;}
.node.selected, .edge.selected {opacity: 1;}
.edge:hover path { stroke: red; }
.edge:hover polygon { stroke: red; fill: red; }
]]></style>

<defs>
  <circle id="rim" cx="0" cy="0" r="7"/>
  <circle id="rim2" cx="0" cy="0" r="3.5"/>
  <g id="zoomPlus">
    <use xlink:href="#rim" fill="#404040"><set attributeName="fill" to="#808080" begin="zoomplus.mouseover" end="zoomplus.mouseout"/></use>
    <path d="M-4,0h8M0,-4v8" fill="none" stroke="white" stroke-width="1.5" pointer-events="none"/>
  </g>
  <g id="zoomMin">
    <use xlink:href="#rim" fill="#404040"><set attributeName="fill" to="#808080" begin="zoomminus.mouseover" end="zoomminus.mouseout"/></use>
    <path d="M-4,0h8" fill="none" stroke="white" stroke-width="1.5" pointer-events="none"/>
  </g>
  <g id="arrowUp" transform="translate(30 24)">
    <use xlink:href="#rim"/>
    <path pointer-events="none" fill="none" stroke="white" stroke-width="1.5" d="M0,-3.0v7 M-2.5,-0.5L0,-3.0L2.5,-0.5"/>
  </g>
  <g id="arrowRight" transform="rotate(90) translate(36 -43)">
    <use xlink:href="#rim"/>
    <path pointer-events="none" fill="none" stroke="white" stroke-width="1.5" d="M0,-3.0v7 M-2.5,-0.5L0,-3.0L2.5,-0.5"/>
  </g>
  <g id="arrowDown" transform="rotate(180) translate(-30 -48)">
    <use xlink:href="#rim"/>
    <path pointer-events="none" fill="none" stroke="white" stroke-width="1.5" d="M0,-3.0v7 M-2.5,-0.5L0,-3.0L2.5,-0.5"/>
  </g>
  <g id="arrowLeft" transform="rotate(270) translate(-36 17)">
    <use xlink:href="#rim"/>
    <path pointer-events="none" fill="none" stroke="white" stroke-width="1.5" d="M0,-3.0v7 M-2.5,-0.5L0,-3.0L2.5,-0.5"/>
  </g>
  <g id="resetDef">
    <use xlink:href="#rim2" fill="#404040"><set attributeName="fill" to="#808080" begin="reset.mouseover" end="reset.mouseout"/></use>
  </g>
</defs>
<script type="application/ecmascript">
var viewWidth = 633;
var viewHeight = 146;
var sectionId = 'dynsection-47';
</script>
<script type="application/ecmascript" xlink:href="svg.min.js"/>
<svg id="graph" class="graph">
<g id="viewport">
<title>ES3.KeyExists</title>
<!-- Node1 -->
<g id="Node000001" class="node">
<title>Node1</title>
<g id="a_Node000001"><a xlink:title="Checks whether a key exists in the default file.">
<polygon fill="#999999" stroke="#666666" points="625,-79 511,-79 511,-58 625,-58 625,-79"/>
<text text-anchor="middle" x="568" y="-65.4" font-family="Consolas" font-size="12.00">ES3.KeyExists</text>
</a>
</g>
</g>
<!-- Node1&#45;&gt;Node1 -->
<g id="edge1_Node000001_Node000001" class="edge">
<title>Node1&#45;&gt;Node1</title>
<g id="a_edge1_Node000001_Node000001"><a xlink:title=" ">
<path fill="none" stroke="#63b8ff" d="M608.05,-87.09C606.92,-92.66 593.57,-97 568,-97 530.8,-97 519.47,-87.81 534,-79.02"/>
<polygon fill="#63b8ff" stroke="#63b8ff" points="610.8,-84.93 602,-79.02 605.2,-89.12 610.8,-84.93"/>
</a>
</g>
</g>
<!-- Node2 -->
<g id="Node000002" class="node">
<title>Node2</title>
<g id="a_Node000002"><a xlink:href="classES3.html#ad25a691c8bacf39d440f20f0550cf619" target="_top" xlink:title="Checks whether a key exists in the specified file.">
<polygon fill="white" stroke="#666666" points="411,-138 297,-138 297,-117 411,-117 411,-138"/>
<text text-anchor="middle" x="354" y="-124.4" font-family="Consolas" font-size="12.00">ES3.KeyExists</text>
</a>
</g>
</g>
<!-- Node1&#45;&gt;Node2 -->
<g id="edge2_Node000001_Node000002" class="edge">
<title>Node1&#45;&gt;Node2</title>
<g id="a_edge2_Node000001_Node000002"><a xlink:title=" ">
<path fill="none" stroke="#63b8ff" d="M537.5,-83.61C519.8,-92.09 496.59,-102.21 475,-108.5 454.55,-114.46 431.55,-118.68 411.21,-121.59"/>
<polygon fill="#63b8ff" stroke="#63b8ff" points="539.28,-86.63 546.73,-79.09 536.21,-80.34 539.28,-86.63"/>
</a>
</g>
</g>
<!-- Node3 -->
<g id="Node000003" class="node">
<title>Node3</title>
<g id="a_Node000003"><a xlink:href="classES3.html#abe520d79328153a1a569a74e26df7314" target="_top" xlink:title="Checks whether a key exists in the default file.">
<polygon fill="white" stroke="#666666" points="411,-99 297,-99 297,-78 411,-78 411,-99"/>
<text text-anchor="middle" x="354" y="-85.4" font-family="Consolas" font-size="12.00">ES3.KeyExists</text>
</a>
</g>
</g>
<!-- Node1&#45;&gt;Node3 -->
<g id="edge3_Node000001_Node000003" class="edge">
<title>Node1&#45;&gt;Node3</title>
<g id="a_edge3_Node000001_Node000003"><a xlink:title=" ">
<path fill="none" stroke="#63b8ff" d="M500.78,-74.75C472.01,-77.46 438.68,-80.61 411.15,-83.2"/>
<polygon fill="#63b8ff" stroke="#63b8ff" points="501.12,-78.23 510.74,-73.81 500.46,-71.26 501.12,-78.23"/>
</a>
</g>
</g>
<!-- Node4 -->
<g id="Node000004" class="node">
<title>Node4</title>
<g id="a_Node000004"><a xlink:href="classGameManager.html#a229cccd2baab5ebf97e46ed2a92ff8d4" target="_top" xlink:title="엔딩과 관련된 플레이어 데이터를 불러오는 함수.">
<polygon fill="white" stroke="#666666" points="460,-60 248,-60 248,-39 460,-39 460,-60"/>
<text text-anchor="middle" x="354" y="-46.4" font-family="Consolas" font-size="12.00">GameManager.LoadPlayerData</text>
</a>
</g>
</g>
<!-- Node1&#45;&gt;Node4 -->
<g id="edge4_Node000001_Node000004" class="edge">
<title>Node1&#45;&gt;Node4</title>
<g id="a_edge4_Node000001_Node000004"><a xlink:title=" ">
<path fill="none" stroke="#63b8ff" d="M500.66,-62.55C487.81,-61.4 474.06,-60.17 460.32,-58.94"/>
<polygon fill="#63b8ff" stroke="#63b8ff" points="500.47,-66.05 510.74,-63.46 501.1,-59.08 500.47,-66.05"/>
</a>
</g>
</g>
<!-- Node6 -->
<g id="Node000006" class="node">
<title>Node6</title>
<g id="a_Node000006"><a xlink:href="classCrewFactory.html#ac8ca1d814fa505854ab2871e0c2135fb" target="_top" xlink:title="저장 데이터에서 선원 복원">
<polygon fill="white" stroke="#666666" points="475,-21 233,-21 233,0 475,0 475,-21"/>
<text text-anchor="middle" x="354" y="-7.4" font-family="Consolas" font-size="12.00">CrewFactory.RestoreCrewFromES3</text>
</a>
</g>
</g>
<!-- Node1&#45;&gt;Node6 -->
<g id="edge6_Node000001_Node000006" class="edge">
<title>Node1&#45;&gt;Node6</title>
<g id="a_edge6_Node000001_Node000006"><a xlink:title=" ">
<path fill="none" stroke="#63b8ff" d="M536,-53.63C518.45,-45.74 495.89,-36.47 475,-30.5 461.9,-26.76 447.79,-23.63 434,-21.05"/>
<polygon fill="#63b8ff" stroke="#63b8ff" points="534.64,-56.86 545.19,-57.84 537.56,-50.5 534.64,-56.86"/>
</a>
</g>
</g>
<!-- Node5 -->
<g id="Node000005" class="node">
<title>Node5</title>
<g id="a_Node000005"><a xlink:href="classGameManager.html#a1cb6739824aa21933e74f129eb3a68e6" target="_top" xlink:title="게임 전체를 불러오는 함수.">
<polygon fill="white" stroke="#666666" points="197,-60 0,-60 0,-39 197,-39 197,-60"/>
<text text-anchor="middle" x="98.5" y="-46.4" font-family="Consolas" font-size="12.00">GameManager.LoadGameData</text>
</a>
</g>
</g>
<!-- Node4&#45;&gt;Node5 -->
<g id="edge5_Node000004_Node000005" class="edge">
<title>Node4&#45;&gt;Node5</title>
<g id="a_edge5_Node000004_Node000005"><a xlink:title=" ">
<path fill="none" stroke="#63b8ff" d="M237.45,-49.5C223.99,-49.5 210.36,-49.5 197.17,-49.5"/>
<polygon fill="#63b8ff" stroke="#63b8ff" points="237.7,-53 247.7,-49.5 237.7,-46 237.7,-53"/>
</a>
</g>
</g>
</g>
</svg>

<g id="navigator" transform="translate(0 0)" fill="#404254">
  <rect fill="#f2f5e9" fill-opacity="0.5" stroke="#606060" stroke-width=".5" x="0" y="0" width="60" height="60"/>
  <use id="zoomplus" xlink:href="#zoomPlus" x="17" y="9" onmousedown="handleZoom(evt,'in')"/>
  <use id="zoomminus" xlink:href="#zoomMin" x="42" y="9" onmousedown="handleZoom(evt,'out')"/>
  <use id="reset" xlink:href="#resetDef" x="30" y="36" onmousedown="handleReset()"/>
   <use id="arrowup" xlink:href="#arrowUp" x="0" y="0" onmousedown="handlePan(0,-1)"/>
  <use id="arrowright" xlink:href="#arrowRight" x="0" y="0" onmousedown="handlePan(1,0)"/>
  <use id="arrowdown" xlink:href="#arrowDown" x="0" y="0" onmousedown="handlePan(0,1)"/>
  <use id="arrowleft" xlink:href="#arrowLeft" x="0" y="0" onmousedown="handlePan(-1,0)"/>
</g>
<svg viewBox="0 0 15 15" width="100%" height="30px" preserveAspectRatio="xMaxYMin meet">
 <g id="arrow_out" transform="scale(0.3 0.3)">
  <a xlink:href="classES3_a6375e28a1f61fb3f3484b68823ed3262_icgraph_org.svg" target="_base">
   <rect id="button" ry="5" rx="5" y="6" x="6" height="38" width="38"
        fill="#f2f5e9" fill-opacity="0.5" stroke="#606060" stroke-width="1.0"/>
   <path id="arrow"
     d="M 11.500037,31.436501 C 11.940474,20.09759 22.043105,11.32322 32.158766,21.979434 L 37.068811,17.246167 C 37.068811,17.246167 37.088388,32 37.088388,32 L 22.160133,31.978069 C 22.160133,31.978069 26.997745,27.140456 26.997745,27.140456 C 18.528582,18.264221 13.291696,25.230495 11.500037,31.436501 z"
     style="fill:#404040;"/>
  </a>
 </g>
</svg>

<style type='text/css'>
<![CDATA[
[data-mouse-over-selected='false'] { opacity: 0.7; }
[data-mouse-over-selected='true']  { opacity: 1.0; }
]]>
</style>
<script type="application/ecmascript"><![CDATA[
document.addEventListener('DOMContentLoaded', (event) => {
  highlightEdges();
  highlightAdjacentNodes();
});
]]></script>
</svg>
