<?xml version="1.0" encoding="UTF-8" standalone="no"?>
<!DOCTYPE svg PUBLIC "-//W3C//DTD SVG 1.1//EN"
 "http://www.w3.org/Graphics/SVG/1.1/DTD/svg11.dtd">
<!-- Generated by graphviz version 2.43.0 (0)
 -->
<!-- Title: Customize_0_Controller.OnClickSlot Pages: 1 -->
<svg width="738pt" height="134pt"
 viewBox="0.00 0.00 738.00 133.50" xmlns="http://www.w3.org/2000/svg" xmlns:xlink="http://www.w3.org/1999/xlink">
<g id="graph0" class="graph" transform="scale(1 1) rotate(0) translate(4 129.5)">
<title>Customize_0_Controller.OnClickSlot</title>
<!-- Node1 -->
<g id="Node000001" class="node">
<title>Node1</title>
<g id="a_Node000001"><a xlink:title="슬롯 버튼 클릭">
<polygon fill="#999999" stroke="#666666" points="730,-73.5 526,-73.5 526,-39.5 730,-39.5 730,-73.5"/>
<text text-anchor="start" x="534" y="-59.9" font-family="Consolas" font-size="12.00">Customize_0_Controller.On</text>
<text text-anchor="middle" x="628" y="-46.9" font-family="Consolas" font-size="12.00">ClickSlot</text>
</a>
</g>
</g>
<!-- Node2 -->
<g id="Node000002" class="node">
<title>Node2</title>
<g id="a_Node000002"><a xlink:href="classCustomize__1__Controller.html#a6efbdf30cb4fc11fa3f6b1bfbf6eb061" target="_top" xlink:title="customize_0_panel로 복귀">
<polygon fill="white" stroke="#666666" points="478.5,-125.5 274.5,-125.5 274.5,-91.5 478.5,-91.5 478.5,-125.5"/>
<text text-anchor="start" x="282.5" y="-111.9" font-family="Consolas" font-size="12.00">Customize_1_Controller.On</text>
<text text-anchor="middle" x="376.5" y="-98.9" font-family="Consolas" font-size="12.00">ClickBack</text>
</a>
</g>
</g>
<!-- Node1&#45;&gt;Node2 -->
<g id="edge1_Node000001_Node000002" class="edge">
<title>Node1&#45;&gt;Node2</title>
<g id="a_edge1_Node000001_Node000002"><a xlink:title=" ">
<path fill="none" stroke="#63b8ff" d="M535.49,-75.57C510.57,-80.77 483.73,-86.36 459.38,-91.44"/>
<polygon fill="#63b8ff" stroke="#63b8ff" points="536.23,-78.99 545.3,-73.53 534.8,-72.14 536.23,-78.99"/>
</a>
</g>
</g>
<!-- Node4 -->
<g id="Node000004" class="node">
<title>Node4</title>
<g id="a_Node000004"><a xlink:href="classCustomize__2__Controller.html#a4f017401dbc31501a4109324ccec2bd7" target="_top" xlink:title="&#39;함선 제작&#39; 버튼 클릭 시 호출. 조건 만족 시 기존 함선을 설계도의 함선으로 교체합니다. 이후 방, 문의 연결 유효성 검사 수행 후 만족 여부에 따라 실제 함선으로 교체,...">
<polygon fill="white" stroke="#666666" points="478.5,-73.5 274.5,-73.5 274.5,-39.5 478.5,-39.5 478.5,-73.5"/>
<text text-anchor="start" x="282.5" y="-59.9" font-family="Consolas" font-size="12.00">Customize_2_Controller.On</text>
<text text-anchor="middle" x="376.5" y="-46.9" font-family="Consolas" font-size="12.00">ClickBuy</text>
</a>
</g>
</g>
<!-- Node1&#45;&gt;Node4 -->
<g id="edge3_Node000001_Node000004" class="edge">
<title>Node1&#45;&gt;Node4</title>
<g id="a_edge3_Node000001_Node000004"><a xlink:title=" ">
<path fill="none" stroke="#63b8ff" d="M515.62,-56.5C503.35,-56.5 490.9,-56.5 478.77,-56.5"/>
<polygon fill="#63b8ff" stroke="#63b8ff" points="515.88,-60 525.88,-56.5 515.88,-53 515.88,-60"/>
</a>
</g>
</g>
<!-- Node5 -->
<g id="Node000005" class="node">
<title>Node5</title>
<g id="a_Node000005"><a xlink:href="classCustomize__0__Controller.html#a9a5c64825556b732c13268f61d9893db" target="_top" xlink:title="button 클릭 함수 연결">
<polygon fill="white" stroke="#666666" points="490,-21 263,-21 263,0 490,0 490,-21"/>
<text text-anchor="middle" x="376.5" y="-7.4" font-family="Consolas" font-size="12.00">Customize_0_Controller.Start</text>
</a>
</g>
</g>
<!-- Node1&#45;&gt;Node5 -->
<g id="edge4_Node000001_Node000005" class="edge">
<title>Node1&#45;&gt;Node5</title>
<g id="a_edge4_Node000001_Node000005"><a xlink:title=" ">
<path fill="none" stroke="#63b8ff" d="M528.39,-37.64C515.48,-35.22 502.43,-32.78 490,-30.5 472.93,-27.36 454.38,-24.03 437.37,-21.01"/>
<polygon fill="#63b8ff" stroke="#63b8ff" points="527.75,-41.08 538.22,-39.5 529.05,-34.21 527.75,-41.08"/>
</a>
</g>
</g>
<!-- Node3 -->
<g id="Node000003" class="node">
<title>Node3</title>
<g id="a_Node000003"><a xlink:href="classCustomize__1__Controller.html#aec55e07635dd1dfd43176946b3dd6f2b" target="_top" xlink:title="button 클릭 함수 연결">
<polygon fill="white" stroke="#666666" points="227,-119 0,-119 0,-98 227,-98 227,-119"/>
<text text-anchor="middle" x="113.5" y="-105.4" font-family="Consolas" font-size="12.00">Customize_1_Controller.Start</text>
</a>
</g>
</g>
<!-- Node2&#45;&gt;Node3 -->
<g id="edge2_Node000002_Node000003" class="edge">
<title>Node2&#45;&gt;Node3</title>
<g id="a_edge2_Node000002_Node000003"><a xlink:title=" ">
<path fill="none" stroke="#63b8ff" d="M264.08,-108.5C251.95,-108.5 239.58,-108.5 227.43,-108.5"/>
<polygon fill="#63b8ff" stroke="#63b8ff" points="264.22,-112 274.22,-108.5 264.22,-105 264.22,-112"/>
</a>
</g>
</g>
</g>
</svg>
