<?xml version="1.0" encoding="UTF-8" standalone="no"?>
<!DOCTYPE svg PUBLIC "-//W3C//DTD SVG 1.1//EN"
 "http://www.w3.org/Graphics/SVG/1.1/DTD/svg11.dtd">
<!-- Generated by graphviz version 2.43.0 (0)
 -->
<!-- Title: TradingItem Pages: 1 -->
<!--zoomable 1387 -->

<svg id="main" version="1.1" xmlns="http://www.w3.org/2000/svg" xmlns:xlink="http://www.w3.org/1999/xlink" xml:space="preserve" onload="init(evt)">
<style type="text/css"><![CDATA[
.node, .edge {opacity: 0.7;}
.node.selected, .edge.selected {opacity: 1;}
.edge:hover path { stroke: red; }
.edge:hover polygon { stroke: red; fill: red; }
]]></style>

<defs>
  <circle id="rim" cx="0" cy="0" r="7"/>
  <circle id="rim2" cx="0" cy="0" r="3.5"/>
  <g id="zoomPlus">
    <use xlink:href="#rim" fill="#404040"><set attributeName="fill" to="#808080" begin="zoomplus.mouseover" end="zoomplus.mouseout"/></use>
    <path d="M-4,0h8M0,-4v8" fill="none" stroke="white" stroke-width="1.5" pointer-events="none"/>
  </g>
  <g id="zoomMin">
    <use xlink:href="#rim" fill="#404040"><set attributeName="fill" to="#808080" begin="zoomminus.mouseover" end="zoomminus.mouseout"/></use>
    <path d="M-4,0h8" fill="none" stroke="white" stroke-width="1.5" pointer-events="none"/>
  </g>
  <g id="arrowUp" transform="translate(30 24)">
    <use xlink:href="#rim"/>
    <path pointer-events="none" fill="none" stroke="white" stroke-width="1.5" d="M0,-3.0v7 M-2.5,-0.5L0,-3.0L2.5,-0.5"/>
  </g>
  <g id="arrowRight" transform="rotate(90) translate(36 -43)">
    <use xlink:href="#rim"/>
    <path pointer-events="none" fill="none" stroke="white" stroke-width="1.5" d="M0,-3.0v7 M-2.5,-0.5L0,-3.0L2.5,-0.5"/>
  </g>
  <g id="arrowDown" transform="rotate(180) translate(-30 -48)">
    <use xlink:href="#rim"/>
    <path pointer-events="none" fill="none" stroke="white" stroke-width="1.5" d="M0,-3.0v7 M-2.5,-0.5L0,-3.0L2.5,-0.5"/>
  </g>
  <g id="arrowLeft" transform="rotate(270) translate(-36 17)">
    <use xlink:href="#rim"/>
    <path pointer-events="none" fill="none" stroke="white" stroke-width="1.5" d="M0,-3.0v7 M-2.5,-0.5L0,-3.0L2.5,-0.5"/>
  </g>
  <g id="resetDef">
    <use xlink:href="#rim2" fill="#404040"><set attributeName="fill" to="#808080" begin="reset.mouseover" end="reset.mouseout"/></use>
  </g>
</defs>
<script type="application/ecmascript">
var viewWidth = 992;
var viewHeight = 1387;
var sectionId = 'dynsection-0';
</script>
<script type="application/ecmascript" xlink:href="svg.min.js"/>
<svg id="graph" class="graph">
<g id="viewport">
<title>TradingItem</title>
<!-- Node1 -->
<g id="Node000001" class="node">
<title>Node1</title>
<g id="a_Node000001"><a xlink:title="TradingItem 클래스는 거래 가능한 아이템의 데이터를 담고 있으며, 아이템의 속성(행성 코드, 티어, 이름, 상태, 분류 등)과 가격 관련 기능을 제공합니다.">
<polygon fill="#999999" stroke="transparent" points="582,-1181 306,-1181 306,0 582,0 582,-1181"/>
<text text-anchor="start" x="402.5" y="-1166.9" font-family="Consolas" font-size="12.00">TradingItem</text>
<text text-anchor="start" x="310" y="-1149.9" font-family="Consolas" font-size="12.00">+</text>
<text text-anchor="start" x="322" y="-1149.9" font-family="Consolas" font-size="12.00">Constants.Rotations.Rotation</text>
<text text-anchor="start" x="322" y="-1136.9" font-family="Consolas" font-size="12.00"> rotation</text>
<text text-anchor="start" x="310" y="-1119.9" font-family="Consolas" font-size="12.00">+</text>
<text text-anchor="start" x="322" y="-1119.9" font-family="Consolas" font-size="12.00">bool[][] boxGrid</text>
<text text-anchor="start" x="310" y="-1102.9" font-family="Consolas" font-size="12.00">+</text>
<text text-anchor="start" x="322" y="-1102.9" font-family="Consolas" font-size="12.00">StorageRoomBase parentStorage</text>
<text text-anchor="start" x="310" y="-1085.9" font-family="Consolas" font-size="12.00">+</text>
<text text-anchor="start" x="322" y="-1085.9" font-family="Consolas" font-size="12.00">Vector2Int gridPosition</text>
<text text-anchor="start" x="310" y="-1068.9" font-family="Consolas" font-size="12.00">+</text>
<text text-anchor="start" x="322" y="-1068.9" font-family="Consolas" font-size="12.00">bool isDragging</text>
<text text-anchor="start" x="310" y="-1051.9" font-family="Consolas" font-size="12.00">+</text>
<text text-anchor="start" x="322" y="-1051.9" font-family="Consolas" font-size="12.00">bool isDragMode</text>
<text text-anchor="start" x="310" y="-1034.9" font-family="Consolas" font-size="12.00">&#45;</text>
<text text-anchor="start" x="322" y="-1034.9" font-family="Consolas" font-size="12.00">TradingItemData itemData</text>
<text text-anchor="start" x="310" y="-1017.9" font-family="Consolas" font-size="12.00">&#45;</text>
<text text-anchor="start" x="322" y="-1017.9" font-family="Consolas" font-size="12.00">SpriteRenderer boxRenderer</text>
<text text-anchor="start" x="310" y="-1000.9" font-family="Consolas" font-size="12.00">&#45;</text>
<text text-anchor="start" x="322" y="-1000.9" font-family="Consolas" font-size="12.00">SpriteRenderer itemRenderer</text>
<text text-anchor="start" x="310" y="-983.9" font-family="Consolas" font-size="12.00">&#45;</text>
<text text-anchor="start" x="322" y="-983.9" font-family="Consolas" font-size="12.00">SpriteRenderer frameRenderer</text>
<text text-anchor="start" x="310" y="-966.9" font-family="Consolas" font-size="12.00">&#45;</text>
<text text-anchor="start" x="322" y="-966.9" font-family="Consolas" font-size="12.00">float frameOffsetY</text>
<text text-anchor="start" x="310" y="-949.9" font-family="Consolas" font-size="12.00">&#45;</text>
<text text-anchor="start" x="322" y="-949.9" font-family="Consolas" font-size="12.00">Sprite[] boxSprites</text>
<text text-anchor="start" x="310" y="-932.9" font-family="Consolas" font-size="12.00">&#45;</text>
<text text-anchor="start" x="322" y="-932.9" font-family="Consolas" font-size="12.00">float? cachedPrice</text>
<text text-anchor="start" x="310" y="-915.9" font-family="Consolas" font-size="12.00">&#45;</text>
<text text-anchor="start" x="322" y="-915.9" font-family="Consolas" font-size="12.00">bool priceInitialized</text>
<text text-anchor="start" x="310" y="-898.9" font-family="Consolas" font-size="12.00">+</text>
<text text-anchor="start" x="322" y="-898.9" font-family="Consolas" font-size="12.00">void Initialize(TradingItem</text>
<text text-anchor="start" x="322" y="-885.9" font-family="Consolas" font-size="12.00">Data data, int quantity,</text>
<text text-anchor="start" x="322" y="-872.9" font-family="Consolas" font-size="12.00"> ItemState state=ItemState.Normal)</text>
<text text-anchor="start" x="310" y="-855.9" font-family="Consolas" font-size="12.00">+</text>
<text text-anchor="start" x="322" y="-855.9" font-family="Consolas" font-size="12.00">void CopyFrom(TradingItem</text>
<text text-anchor="start" x="322" y="-842.9" font-family="Consolas" font-size="12.00"> other)</text>
<text text-anchor="start" x="310" y="-825.9" font-family="Consolas" font-size="12.00">+</text>
<text text-anchor="start" x="322" y="-825.9" font-family="Consolas" font-size="12.00">float GetCurrentPrice()</text>
<text text-anchor="start" x="310" y="-808.9" font-family="Consolas" font-size="12.00">+</text>
<text text-anchor="start" x="322" y="-808.9" font-family="Consolas" font-size="12.00">void RecalculatePrice()</text>
<text text-anchor="start" x="310" y="-791.9" font-family="Consolas" font-size="12.00">+</text>
<text text-anchor="start" x="322" y="-791.9" font-family="Consolas" font-size="12.00">float GetBasePrice()</text>
<text text-anchor="start" x="310" y="-774.9" font-family="Consolas" font-size="12.00">+</text>
<text text-anchor="start" x="322" y="-774.9" font-family="Consolas" font-size="12.00">TradingItemData GetItemData()</text>
<text text-anchor="start" x="310" y="-757.9" font-family="Consolas" font-size="12.00">+</text>
<text text-anchor="start" x="322" y="-757.9" font-family="Consolas" font-size="12.00">void ShowItemFrame()</text>
<text text-anchor="start" x="310" y="-740.9" font-family="Consolas" font-size="12.00">+</text>
<text text-anchor="start" x="322" y="-740.9" font-family="Consolas" font-size="12.00">void HideItemFrame()</text>
<text text-anchor="start" x="310" y="-723.9" font-family="Consolas" font-size="12.00">+</text>
<text text-anchor="start" x="322" y="-723.9" font-family="Consolas" font-size="12.00">Sprite GetItemSprite()</text>
<text text-anchor="start" x="310" y="-706.9" font-family="Consolas" font-size="12.00">+</text>
<text text-anchor="start" x="322" y="-706.9" font-family="Consolas" font-size="12.00">Vector2 GetWorldPosition()</text>
<text text-anchor="start" x="310" y="-689.9" font-family="Consolas" font-size="12.00">+</text>
<text text-anchor="start" x="322" y="-689.9" font-family="Consolas" font-size="12.00">void Rotate(Constants.Rotations.</text>
<text text-anchor="start" x="322" y="-676.9" font-family="Consolas" font-size="12.00">Rotation newRotation)</text>
<text text-anchor="start" x="310" y="-659.9" font-family="Consolas" font-size="12.00">+</text>
<text text-anchor="start" x="322" y="-659.9" font-family="Consolas" font-size="12.00">object GetRotation()</text>
<text text-anchor="start" x="310" y="-642.9" font-family="Consolas" font-size="12.00">+</text>
<text text-anchor="start" x="322" y="-642.9" font-family="Consolas" font-size="12.00">Vector2Int GetGridPosition()</text>
<text text-anchor="start" x="310" y="-625.9" font-family="Consolas" font-size="12.00">+</text>
<text text-anchor="start" x="322" y="-625.9" font-family="Consolas" font-size="12.00">void SetGridPosition</text>
<text text-anchor="start" x="322" y="-612.9" font-family="Consolas" font-size="12.00">(Vector2Int position)</text>
<text text-anchor="start" x="310" y="-595.9" font-family="Consolas" font-size="12.00">+</text>
<text text-anchor="start" x="322" y="-595.9" font-family="Consolas" font-size="12.00">void SetParentStorage</text>
<text text-anchor="start" x="322" y="-582.9" font-family="Consolas" font-size="12.00">(StorageRoomBase storage)</text>
<text text-anchor="start" x="310" y="-565.9" font-family="Consolas" font-size="12.00">+</text>
<text text-anchor="start" x="322" y="-565.9" font-family="Consolas" font-size="12.00">void OnPointerClick</text>
<text text-anchor="start" x="322" y="-552.9" font-family="Consolas" font-size="12.00">(PointerEventData eventData)</text>
<text text-anchor="start" x="310" y="-535.9" font-family="Consolas" font-size="12.00">+</text>
<text text-anchor="start" x="322" y="-535.9" font-family="Consolas" font-size="12.00">void OnBeginDrag(Pointer</text>
<text text-anchor="start" x="322" y="-522.9" font-family="Consolas" font-size="12.00">EventData eventData)</text>
<text text-anchor="start" x="310" y="-505.9" font-family="Consolas" font-size="12.00">+</text>
<text text-anchor="start" x="322" y="-505.9" font-family="Consolas" font-size="12.00">void OnDrag(PointerEvent</text>
<text text-anchor="start" x="322" y="-492.9" font-family="Consolas" font-size="12.00">Data eventData)</text>
<text text-anchor="start" x="310" y="-475.9" font-family="Consolas" font-size="12.00">+</text>
<text text-anchor="start" x="322" y="-475.9" font-family="Consolas" font-size="12.00">void OnEndDrag(PointerEvent</text>
<text text-anchor="start" x="322" y="-462.9" font-family="Consolas" font-size="12.00">Data eventData)</text>
<text text-anchor="start" x="310" y="-445.9" font-family="Consolas" font-size="12.00">+</text>
<text text-anchor="start" x="322" y="-445.9" font-family="Consolas" font-size="12.00">void SetDragMode(bool</text>
<text text-anchor="start" x="322" y="-432.9" font-family="Consolas" font-size="12.00"> isDragging)</text>
<text text-anchor="start" x="310" y="-415.9" font-family="Consolas" font-size="12.00">+</text>
<text text-anchor="start" x="322" y="-415.9" font-family="Consolas" font-size="12.00">SpriteRenderer GetBoxRenderer()</text>
<text text-anchor="start" x="310" y="-398.9" font-family="Consolas" font-size="12.00">+</text>
<text text-anchor="start" x="322" y="-398.9" font-family="Consolas" font-size="12.00">void PositionFrameAtGrid</text>
<text text-anchor="start" x="322" y="-385.9" font-family="Consolas" font-size="12.00">Center()</text>
<text text-anchor="start" x="310" y="-368.9" font-family="Consolas" font-size="12.00">+</text>
<text text-anchor="start" x="322" y="-368.9" font-family="Consolas" font-size="12.00">bool GetIsDragMode()</text>
<text text-anchor="start" x="310" y="-351.9" font-family="Consolas" font-size="12.00">+</text>
<text text-anchor="start" x="322" y="-351.9" font-family="Consolas" font-size="12.00">int GetItemId()</text>
<text text-anchor="start" x="310" y="-334.9" font-family="Consolas" font-size="12.00">+</text>
<text text-anchor="start" x="322" y="-334.9" font-family="Consolas" font-size="12.00">ItemState GetItemState()</text>
<text text-anchor="start" x="310" y="-317.9" font-family="Consolas" font-size="12.00">+</text>
<text text-anchor="start" x="322" y="-317.9" font-family="Consolas" font-size="12.00">void SetItemState(ItemState</text>
<text text-anchor="start" x="322" y="-304.9" font-family="Consolas" font-size="12.00"> state)</text>
<text text-anchor="start" x="310" y="-287.9" font-family="Consolas" font-size="12.00">+</text>
<text text-anchor="start" x="322" y="-287.9" font-family="Consolas" font-size="12.00">ItemPlanet GetItemPlanet()</text>
<text text-anchor="start" x="310" y="-270.9" font-family="Consolas" font-size="12.00">+</text>
<text text-anchor="start" x="322" y="-270.9" font-family="Consolas" font-size="12.00">ItemTierLevel GetItemTier</text>
<text text-anchor="start" x="322" y="-257.9" font-family="Consolas" font-size="12.00">Level()</text>
<text text-anchor="start" x="310" y="-240.9" font-family="Consolas" font-size="12.00">+</text>
<text text-anchor="start" x="322" y="-240.9" font-family="Consolas" font-size="12.00">string GetItemName()</text>
<text text-anchor="start" x="310" y="-223.9" font-family="Consolas" font-size="12.00">+</text>
<text text-anchor="start" x="322" y="-223.9" font-family="Consolas" font-size="12.00">ItemCategory GetItemCategory()</text>
<text text-anchor="start" x="310" y="-206.9" font-family="Consolas" font-size="12.00">+</text>
<text text-anchor="start" x="322" y="-206.9" font-family="Consolas" font-size="12.00">int GetItemShape()</text>
<text text-anchor="start" x="310" y="-189.9" font-family="Consolas" font-size="12.00">+</text>
<text text-anchor="start" x="322" y="-189.9" font-family="Consolas" font-size="12.00">float GetTemperaturMin()</text>
<text text-anchor="start" x="310" y="-172.9" font-family="Consolas" font-size="12.00">+</text>
<text text-anchor="start" x="322" y="-172.9" font-family="Consolas" font-size="12.00">float GetTemperaturMax()</text>
<text text-anchor="start" x="310" y="-155.9" font-family="Consolas" font-size="12.00">+</text>
<text text-anchor="start" x="322" y="-155.9" font-family="Consolas" font-size="12.00">int GetCapacity()</text>
<text text-anchor="start" x="310" y="-138.9" font-family="Consolas" font-size="12.00">+</text>
<text text-anchor="start" x="322" y="-138.9" font-family="Consolas" font-size="12.00">int GetCostMin()</text>
<text text-anchor="start" x="310" y="-121.9" font-family="Consolas" font-size="12.00">+</text>
<text text-anchor="start" x="322" y="-121.9" font-family="Consolas" font-size="12.00">int GetCostMax()</text>
<text text-anchor="start" x="310" y="-104.9" font-family="Consolas" font-size="12.00">+</text>
<text text-anchor="start" x="322" y="-104.9" font-family="Consolas" font-size="12.00">string GetDescription()</text>
<text text-anchor="start" x="310" y="-87.9" font-family="Consolas" font-size="12.00">+</text>
<text text-anchor="start" x="322" y="-87.9" font-family="Consolas" font-size="12.00">float GetCostChangeRate()</text>
<text text-anchor="start" x="310" y="-70.9" font-family="Consolas" font-size="12.00">+</text>
<text text-anchor="start" x="322" y="-70.9" font-family="Consolas" font-size="12.00">int GetRandomCost()</text>
<text text-anchor="start" x="310" y="-53.9" font-family="Consolas" font-size="12.00">+</text>
<text text-anchor="start" x="322" y="-53.9" font-family="Consolas" font-size="12.00">StorageRoomBase GetParent</text>
<text text-anchor="start" x="322" y="-40.9" font-family="Consolas" font-size="12.00">Storage()</text>
<text text-anchor="start" x="310" y="-23.9" font-family="Consolas" font-size="12.00">&#45;</text>
<text text-anchor="start" x="322" y="-23.9" font-family="Consolas" font-size="12.00">void Start()</text>
<text text-anchor="start" x="310" y="-6.9" font-family="Consolas" font-size="12.00">&#45;</text>
<text text-anchor="start" x="322" y="-6.9" font-family="Consolas" font-size="12.00">void UpdateColliderSize()</text>
<polygon fill="#666666" stroke="#666666" points="306,-1161.5 306,-1161.5 582,-1161.5 582,-1161.5 306,-1161.5"/>
<polygon fill="#666666" stroke="#666666" points="306,-910.5 306,-910.5 320,-910.5 320,-910.5 306,-910.5"/>
<polygon fill="#666666" stroke="#666666" points="320,-910.5 320,-910.5 582,-910.5 582,-910.5 320,-910.5"/>
<polygon fill="none" stroke="#666666" points="306,0 306,-1181 582,-1181 582,0 306,0"/>
</a>
</g>
</g>
<!-- Node2 -->
<g id="Node000002" class="node">
<title>Node2</title>
<g id="a_Node000002"><a xlink:title=" ">
<polygon fill="white" stroke="transparent" points="108,-1325.5 0,-1325.5 0,-1270.5 108,-1270.5 108,-1325.5"/>
<text text-anchor="start" x="5" y="-1311.4" font-family="Consolas" font-size="12.00">MonoBehaviour</text>
<text text-anchor="start" x="50" y="-1294.4" font-family="Consolas" font-size="12.00"> </text>
<text text-anchor="start" x="50" y="-1277.4" font-family="Consolas" font-size="12.00"> </text>
<polygon fill="#bfbfbf" stroke="#bfbfbf" points="0,-1306 0,-1306 108,-1306 108,-1306 0,-1306"/>
<polygon fill="#bfbfbf" stroke="#bfbfbf" points="0,-1289 0,-1289 108,-1289 108,-1289 0,-1289"/>
<polygon fill="none" stroke="#bfbfbf" points="0,-1270.5 0,-1325.5 108,-1325.5 108,-1270.5 0,-1270.5"/>
</a>
</g>
</g>
<!-- Node2&#45;&gt;Node1 -->
<g id="edge1_Node000001_Node000002" class="edge">
<title>Node2&#45;&gt;Node1</title>
<g id="a_edge1_Node000001_Node000002"><a xlink:title=" ">
<path fill="none" stroke="#63b8ff" d="M73.68,-1261.4C116.08,-1184.69 219.27,-998.03 305.98,-841.18"/>
<polygon fill="none" stroke="#63b8ff" points="70.59,-1259.76 68.81,-1270.21 76.71,-1263.15 70.59,-1259.76"/>
</a>
</g>
</g>
<!-- Node3 -->
<g id="Node000003" class="node">
<title>Node3</title>
<g id="a_Node000003"><a xlink:title=" ">
<polygon fill="white" stroke="transparent" points="287.5,-1325.5 126.5,-1325.5 126.5,-1270.5 287.5,-1270.5 287.5,-1325.5"/>
<text text-anchor="start" x="132" y="-1311.4" font-family="Consolas" font-size="12.00">IPointerClickHandler</text>
<text text-anchor="start" x="203.5" y="-1294.4" font-family="Consolas" font-size="12.00"> </text>
<text text-anchor="start" x="203.5" y="-1277.4" font-family="Consolas" font-size="12.00"> </text>
<polygon fill="#bfbfbf" stroke="#bfbfbf" points="127,-1306 127,-1306 288,-1306 288,-1306 127,-1306"/>
<polygon fill="#bfbfbf" stroke="#bfbfbf" points="127,-1289 127,-1289 288,-1289 288,-1289 127,-1289"/>
<polygon fill="none" stroke="#bfbfbf" points="126.5,-1270.5 126.5,-1325.5 287.5,-1325.5 287.5,-1270.5 126.5,-1270.5"/>
</a>
</g>
</g>
<!-- Node3&#45;&gt;Node1 -->
<g id="edge2_Node000001_Node000003" class="edge">
<title>Node3&#45;&gt;Node1</title>
<g id="a_edge2_Node000001_Node000003"><a xlink:title=" ">
<path fill="none" stroke="#63b8ff" d="M219.24,-1260.57C236.52,-1209.13 270,-1109.45 305.95,-1002.43"/>
<polygon fill="none" stroke="#63b8ff" points="215.87,-1259.61 216,-1270.21 222.5,-1261.84 215.87,-1259.61"/>
</a>
</g>
</g>
<!-- Node4 -->
<g id="Node000004" class="node">
<title>Node4</title>
<g id="a_Node000004"><a xlink:title=" ">
<polygon fill="white" stroke="transparent" points="444,-1325.5 306,-1325.5 306,-1270.5 444,-1270.5 444,-1325.5"/>
<text text-anchor="start" x="311" y="-1311.4" font-family="Consolas" font-size="12.00">IBeginDragHandler</text>
<text text-anchor="start" x="371" y="-1294.4" font-family="Consolas" font-size="12.00"> </text>
<text text-anchor="start" x="371" y="-1277.4" font-family="Consolas" font-size="12.00"> </text>
<polygon fill="#bfbfbf" stroke="#bfbfbf" points="306,-1306 306,-1306 444,-1306 444,-1306 306,-1306"/>
<polygon fill="#bfbfbf" stroke="#bfbfbf" points="306,-1289 306,-1289 444,-1289 444,-1289 306,-1289"/>
<polygon fill="none" stroke="#bfbfbf" points="306,-1270.5 306,-1325.5 444,-1325.5 444,-1270.5 306,-1270.5"/>
</a>
</g>
</g>
<!-- Node4&#45;&gt;Node1 -->
<g id="edge3_Node000001_Node000004" class="edge">
<title>Node4&#45;&gt;Node1</title>
<g id="a_edge3_Node000001_Node000004"><a xlink:title=" ">
<path fill="none" stroke="#63b8ff" d="M378.6,-1260.17C380.55,-1240.24 383.2,-1213.16 386.32,-1181.28"/>
<polygon fill="none" stroke="#63b8ff" points="375.11,-1259.91 377.62,-1270.21 382.08,-1260.59 375.11,-1259.91"/>
</a>
</g>
</g>
<!-- Node5 -->
<g id="Node000005" class="node">
<title>Node5</title>
<g id="a_Node000005"><a xlink:title=" ">
<polygon fill="white" stroke="transparent" points="563.5,-1325.5 462.5,-1325.5 462.5,-1270.5 563.5,-1270.5 563.5,-1325.5"/>
<text text-anchor="start" x="468" y="-1311.4" font-family="Consolas" font-size="12.00">IDragHandler</text>
<text text-anchor="start" x="509.5" y="-1294.4" font-family="Consolas" font-size="12.00"> </text>
<text text-anchor="start" x="509.5" y="-1277.4" font-family="Consolas" font-size="12.00"> </text>
<polygon fill="#bfbfbf" stroke="#bfbfbf" points="463,-1306 463,-1306 564,-1306 564,-1306 463,-1306"/>
<polygon fill="#bfbfbf" stroke="#bfbfbf" points="463,-1289 463,-1289 564,-1289 564,-1289 463,-1289"/>
<polygon fill="none" stroke="#bfbfbf" points="462.5,-1270.5 462.5,-1325.5 563.5,-1325.5 563.5,-1270.5 462.5,-1270.5"/>
</a>
</g>
</g>
<!-- Node5&#45;&gt;Node1 -->
<g id="edge4_Node000001_Node000005" class="edge">
<title>Node5&#45;&gt;Node1</title>
<g id="a_edge4_Node000001_Node000005"><a xlink:title=" ">
<path fill="none" stroke="#63b8ff" d="M509.4,-1260.17C507.45,-1240.24 504.8,-1213.16 501.68,-1181.28"/>
<polygon fill="none" stroke="#63b8ff" points="505.92,-1260.59 510.38,-1270.21 512.89,-1259.91 505.92,-1260.59"/>
</a>
</g>
</g>
<!-- Node6 -->
<g id="Node000006" class="node">
<title>Node6</title>
<g id="a_Node000006"><a xlink:title=" ">
<polygon fill="white" stroke="transparent" points="704.5,-1325.5 581.5,-1325.5 581.5,-1270.5 704.5,-1270.5 704.5,-1325.5"/>
<text text-anchor="start" x="587" y="-1311.4" font-family="Consolas" font-size="12.00">IEndDragHandler</text>
<text text-anchor="start" x="639.5" y="-1294.4" font-family="Consolas" font-size="12.00"> </text>
<text text-anchor="start" x="639.5" y="-1277.4" font-family="Consolas" font-size="12.00"> </text>
<polygon fill="#bfbfbf" stroke="#bfbfbf" points="582,-1306 582,-1306 705,-1306 705,-1306 582,-1306"/>
<polygon fill="#bfbfbf" stroke="#bfbfbf" points="582,-1289 582,-1289 705,-1289 705,-1289 582,-1289"/>
<polygon fill="none" stroke="#bfbfbf" points="581.5,-1270.5 581.5,-1325.5 704.5,-1325.5 704.5,-1270.5 581.5,-1270.5"/>
</a>
</g>
</g>
<!-- Node6&#45;&gt;Node1 -->
<g id="edge5_Node000001_Node000006" class="edge">
<title>Node6&#45;&gt;Node1</title>
<g id="a_edge5_Node000001_Node000006"><a xlink:title=" ">
<path fill="none" stroke="#63b8ff" d="M632.71,-1260.54C621.85,-1222.01 603.36,-1156.47 582.09,-1081.05"/>
<polygon fill="none" stroke="#63b8ff" points="629.36,-1261.53 635.44,-1270.21 636.1,-1259.63 629.36,-1261.53"/>
</a>
</g>
</g>
<!-- Node7 -->
<g id="Node000007" class="node">
<title>Node7</title>
<g id="a_Node000007"><a xlink:href="interfaceIGridPlaceable.html" target="_top" xlink:title="드래그하여 그리드에 배치 가능한 오브젝트 인터페이스">
<polygon fill="white" stroke="transparent" points="983.5,-1379 722.5,-1379 722.5,-1217 983.5,-1217 983.5,-1379"/>
<text text-anchor="start" x="800.5" y="-1365.4" font-family="Consolas" font-size="12.00">IGridPlaceable</text>
<text text-anchor="start" x="849.5" y="-1348.4" font-family="Consolas" font-size="12.00"> </text>
<text text-anchor="start" x="727" y="-1331.4" font-family="Consolas" font-size="12.00">+</text>
<text text-anchor="start" x="739" y="-1331.4" font-family="Consolas" font-size="12.00">void SetDragMode(bool</text>
<text text-anchor="start" x="739" y="-1318.4" font-family="Consolas" font-size="12.00"> isDragging)</text>
<text text-anchor="start" x="727" y="-1301.4" font-family="Consolas" font-size="12.00">+</text>
<text text-anchor="start" x="739" y="-1301.4" font-family="Consolas" font-size="12.00">void Rotate(Constants.Rotations.</text>
<text text-anchor="start" x="739" y="-1288.4" font-family="Consolas" font-size="12.00">Rotation rotation)</text>
<text text-anchor="start" x="727" y="-1271.4" font-family="Consolas" font-size="12.00">+</text>
<text text-anchor="start" x="739" y="-1271.4" font-family="Consolas" font-size="12.00">object GetRotation()</text>
<text text-anchor="start" x="727" y="-1254.4" font-family="Consolas" font-size="12.00">+</text>
<text text-anchor="start" x="739" y="-1254.4" font-family="Consolas" font-size="12.00">Vector2Int GetGridPosition()</text>
<text text-anchor="start" x="727" y="-1237.4" font-family="Consolas" font-size="12.00">+</text>
<text text-anchor="start" x="739" y="-1237.4" font-family="Consolas" font-size="12.00">void SetGridPosition</text>
<text text-anchor="start" x="739" y="-1224.4" font-family="Consolas" font-size="12.00">(Vector2Int position)</text>
<polygon fill="#666666" stroke="#666666" points="723,-1360 723,-1360 984,-1360 984,-1360 723,-1360"/>
<polygon fill="#666666" stroke="#666666" points="723,-1343 723,-1343 984,-1343 984,-1343 723,-1343"/>
<polygon fill="none" stroke="#666666" points="722.5,-1217 722.5,-1379 983.5,-1379 983.5,-1217 722.5,-1217"/>
</a>
</g>
</g>
<!-- Node7&#45;&gt;Node1 -->
<g id="edge6_Node000001_Node000007" class="edge">
<title>Node7&#45;&gt;Node1</title>
<g id="a_edge6_Node000001_Node000007"><a xlink:title=" ">
<path fill="none" stroke="#63b8ff" d="M801.45,-1208.08C746.63,-1113.52 657.6,-959.94 582.11,-829.73"/>
<polygon fill="none" stroke="#63b8ff" points="798.44,-1209.86 806.48,-1216.76 804.49,-1206.35 798.44,-1209.86"/>
</a>
</g>
</g>
</g>
</svg>

<g id="navigator" transform="translate(0 0)" fill="#404254">
  <rect fill="#f2f5e9" fill-opacity="0.5" stroke="#606060" stroke-width=".5" x="0" y="0" width="60" height="60"/>
  <use id="zoomplus" xlink:href="#zoomPlus" x="17" y="9" onmousedown="handleZoom(evt,'in')"/>
  <use id="zoomminus" xlink:href="#zoomMin" x="42" y="9" onmousedown="handleZoom(evt,'out')"/>
  <use id="reset" xlink:href="#resetDef" x="30" y="36" onmousedown="handleReset()"/>
   <use id="arrowup" xlink:href="#arrowUp" x="0" y="0" onmousedown="handlePan(0,-1)"/>
  <use id="arrowright" xlink:href="#arrowRight" x="0" y="0" onmousedown="handlePan(1,0)"/>
  <use id="arrowdown" xlink:href="#arrowDown" x="0" y="0" onmousedown="handlePan(0,1)"/>
  <use id="arrowleft" xlink:href="#arrowLeft" x="0" y="0" onmousedown="handlePan(-1,0)"/>
</g>
<svg viewBox="0 0 15 15" width="100%" height="30px" preserveAspectRatio="xMaxYMin meet">
 <g id="arrow_out" transform="scale(0.3 0.3)">
  <a xlink:href="classTradingItem__inherit__graph_org.svg" target="_base">
   <rect id="button" ry="5" rx="5" y="6" x="6" height="38" width="38"
        fill="#f2f5e9" fill-opacity="0.5" stroke="#606060" stroke-width="1.0"/>
   <path id="arrow"
     d="M 11.500037,31.436501 C 11.940474,20.09759 22.043105,11.32322 32.158766,21.979434 L 37.068811,17.246167 C 37.068811,17.246167 37.088388,32 37.088388,32 L 22.160133,31.978069 C 22.160133,31.978069 26.997745,27.140456 26.997745,27.140456 C 18.528582,18.264221 13.291696,25.230495 11.500037,31.436501 z"
     style="fill:#404040;"/>
  </a>
 </g>
</svg>

<style type='text/css'>
<![CDATA[
[data-mouse-over-selected='false'] { opacity: 0.7; }
[data-mouse-over-selected='true']  { opacity: 1.0; }
]]>
</style>
<script type="application/ecmascript"><![CDATA[
document.addEventListener('DOMContentLoaded', (event) => {
  highlightEdges();
  highlightAdjacentNodes();
});
]]></script>
</svg>
