<?xml version="1.0" encoding="UTF-8" standalone="no"?>
<!DOCTYPE svg PUBLIC "-//W3C//DTD SVG 1.1//EN"
 "http://www.w3.org/Graphics/SVG/1.1/DTD/svg11.dtd">
<!-- Generated by graphviz version 2.43.0 (0)
 -->
<!-- Title: QuestManager Pages: 1 -->
<svg width="254pt" height="681pt"
 viewBox="0.00 0.00 254.00 681.00" xmlns="http://www.w3.org/2000/svg" xmlns:xlink="http://www.w3.org/1999/xlink">
<g id="graph0" class="graph" transform="scale(1 1) rotate(0) translate(4 677)">
<title>QuestManager</title>
<!-- Node1 -->
<g id="Node000001" class="node">
<title>Node1</title>
<g id="a_Node000001"><a xlink:title="퀘스트의 등록, 진행도 갱신, 완료 처리 등을 담당하는 퀘스트 매니저. Singleton 방식으로 동작하며 퀘스트 변경 이벤트도 제공합니다.">
<polygon fill="#999999" stroke="transparent" points="246,-582 0,-582 0,0 246,0 246,-582"/>
<text text-anchor="start" x="77.5" y="-568.4" font-family="Consolas" font-size="12.00">QuestManager</text>
<text text-anchor="start" x="4" y="-551.4" font-family="Consolas" font-size="12.00">+</text>
<text text-anchor="start" x="16" y="-551.4" font-family="Consolas" font-size="12.00">TradingItemDataBase</text>
<text text-anchor="start" x="16" y="-538.4" font-family="Consolas" font-size="12.00"> itemDatabase</text>
<text text-anchor="start" x="4" y="-521.4" font-family="Consolas" font-size="12.00">+</text>
<text text-anchor="start" x="16" y="-521.4" font-family="Consolas" font-size="12.00">static QuestManager</text>
<text text-anchor="start" x="16" y="-508.4" font-family="Consolas" font-size="12.00"> Instance</text>
<text text-anchor="start" x="4" y="-491.4" font-family="Consolas" font-size="12.00">&#45;</text>
<text text-anchor="start" x="16" y="-491.4" font-family="Consolas" font-size="12.00">List&lt; RandomQuest &gt;</text>
<text text-anchor="start" x="16" y="-478.4" font-family="Consolas" font-size="12.00"> activeQuests</text>
<text text-anchor="start" x="4" y="-461.4" font-family="Consolas" font-size="12.00">&#45;</text>
<text text-anchor="start" x="16" y="-461.4" font-family="Consolas" font-size="12.00">List&lt; RandomQuest &gt;</text>
<text text-anchor="start" x="16" y="-448.4" font-family="Consolas" font-size="12.00"> completedQuests</text>
<text text-anchor="start" x="4" y="-431.4" font-family="Consolas" font-size="12.00">+</text>
<text text-anchor="start" x="16" y="-431.4" font-family="Consolas" font-size="12.00">delegate void QuestChanged</text>
<text text-anchor="start" x="16" y="-418.4" font-family="Consolas" font-size="12.00">Handler(RandomQuest quest)</text>
<text text-anchor="start" x="4" y="-401.4" font-family="Consolas" font-size="12.00">+</text>
<text text-anchor="start" x="16" y="-401.4" font-family="Consolas" font-size="12.00">void AddQuest(RandomQuest</text>
<text text-anchor="start" x="16" y="-388.4" font-family="Consolas" font-size="12.00"> quest)</text>
<text text-anchor="start" x="4" y="-371.4" font-family="Consolas" font-size="12.00">+</text>
<text text-anchor="start" x="16" y="-371.4" font-family="Consolas" font-size="12.00">void TriggerQuestCompleted</text>
<text text-anchor="start" x="16" y="-358.4" font-family="Consolas" font-size="12.00">(RandomQuest quest)</text>
<text text-anchor="start" x="4" y="-341.4" font-family="Consolas" font-size="12.00">+</text>
<text text-anchor="start" x="16" y="-341.4" font-family="Consolas" font-size="12.00">void UpdateQuestObjective</text>
<text text-anchor="start" x="16" y="-328.4" font-family="Consolas" font-size="12.00">(string questId, int objective</text>
<text text-anchor="start" x="16" y="-315.4" font-family="Consolas" font-size="12.00">Index, int amount)</text>
<text text-anchor="start" x="4" y="-298.4" font-family="Consolas" font-size="12.00">+</text>
<text text-anchor="start" x="16" y="-298.4" font-family="Consolas" font-size="12.00">void CompleteQuest</text>
<text text-anchor="start" x="16" y="-285.4" font-family="Consolas" font-size="12.00">(RandomQuest quest)</text>
<text text-anchor="start" x="4" y="-268.4" font-family="Consolas" font-size="12.00">+</text>
<text text-anchor="start" x="16" y="-268.4" font-family="Consolas" font-size="12.00">void GrantRewardForQuest</text>
<text text-anchor="start" x="16" y="-255.4" font-family="Consolas" font-size="12.00">(RandomQuest quest)</text>
<text text-anchor="start" x="4" y="-238.4" font-family="Consolas" font-size="12.00">+</text>
<text text-anchor="start" x="16" y="-238.4" font-family="Consolas" font-size="12.00">void RequestFailQuest</text>
<text text-anchor="start" x="16" y="-225.4" font-family="Consolas" font-size="12.00">(RandomQuest quest)</text>
<text text-anchor="start" x="4" y="-208.4" font-family="Consolas" font-size="12.00">+</text>
<text text-anchor="start" x="16" y="-208.4" font-family="Consolas" font-size="12.00">List&lt; RandomQuest &gt;</text>
<text text-anchor="start" x="16" y="-195.4" font-family="Consolas" font-size="12.00"> GetActiveQuests()</text>
<text text-anchor="start" x="4" y="-178.4" font-family="Consolas" font-size="12.00">+</text>
<text text-anchor="start" x="16" y="-178.4" font-family="Consolas" font-size="12.00">List&lt; RandomQuest &gt;</text>
<text text-anchor="start" x="16" y="-165.4" font-family="Consolas" font-size="12.00"> GetCompletedQuests()</text>
<text text-anchor="start" x="4" y="-148.4" font-family="Consolas" font-size="12.00">&#45;</text>
<text text-anchor="start" x="16" y="-148.4" font-family="Consolas" font-size="12.00">void Awake()</text>
<text text-anchor="start" x="4" y="-131.4" font-family="Consolas" font-size="12.00">&#45;</text>
<text text-anchor="start" x="16" y="-131.4" font-family="Consolas" font-size="12.00">void OnEnable()</text>
<text text-anchor="start" x="4" y="-114.4" font-family="Consolas" font-size="12.00">&#45;</text>
<text text-anchor="start" x="16" y="-114.4" font-family="Consolas" font-size="12.00">void OnDisable()</text>
<text text-anchor="start" x="4" y="-97.4" font-family="Consolas" font-size="12.00">&#45;</text>
<text text-anchor="start" x="16" y="-97.4" font-family="Consolas" font-size="12.00">void CheckQuestExpiration</text>
<text text-anchor="start" x="16" y="-84.4" font-family="Consolas" font-size="12.00">(int currentYear)</text>
<text text-anchor="start" x="4" y="-67.4" font-family="Consolas" font-size="12.00">&#45;</text>
<text text-anchor="start" x="16" y="-67.4" font-family="Consolas" font-size="12.00">void TrySpawnQuest</text>
<text text-anchor="start" x="16" y="-54.4" font-family="Consolas" font-size="12.00">(int year)</text>
<text text-anchor="start" x="4" y="-37.4" font-family="Consolas" font-size="12.00">&#45;</text>
<text text-anchor="start" x="16" y="-37.4" font-family="Consolas" font-size="12.00">void CreateRandomQuest()</text>
<text text-anchor="start" x="4" y="-20.4" font-family="Consolas" font-size="12.00">&#45;</text>
<text text-anchor="start" x="16" y="-20.4" font-family="Consolas" font-size="12.00">void FailQuest(RandomQuest</text>
<text text-anchor="start" x="16" y="-7.4" font-family="Consolas" font-size="12.00"> quest)</text>
<polygon fill="#666666" stroke="#666666" points="0,-563 0,-563 246,-563 246,-563 0,-563"/>
<polygon fill="#666666" stroke="#666666" points="0,-443 0,-443 14,-443 14,-443 0,-443"/>
<polygon fill="#666666" stroke="#666666" points="14,-443 14,-443 246,-443 246,-443 14,-443"/>
<polygon fill="none" stroke="#666666" points="0,0 0,-582 246,-582 246,0 0,0"/>
</a>
</g>
</g>
<!-- Node2 -->
<g id="Node000002" class="node">
<title>Node2</title>
<g id="a_Node000002"><a xlink:title=" ">
<polygon fill="white" stroke="transparent" points="177,-673 69,-673 69,-618 177,-618 177,-673"/>
<text text-anchor="start" x="74" y="-658.9" font-family="Consolas" font-size="12.00">MonoBehaviour</text>
<text text-anchor="start" x="119" y="-641.9" font-family="Consolas" font-size="12.00"> </text>
<text text-anchor="start" x="119" y="-624.9" font-family="Consolas" font-size="12.00"> </text>
<polygon fill="#bfbfbf" stroke="#bfbfbf" points="69,-653.5 69,-653.5 177,-653.5 177,-653.5 69,-653.5"/>
<polygon fill="#bfbfbf" stroke="#bfbfbf" points="69,-636.5 69,-636.5 177,-636.5 177,-636.5 69,-636.5"/>
<polygon fill="none" stroke="#bfbfbf" points="69,-618 69,-673 177,-673 177,-618 69,-618"/>
</a>
</g>
</g>
<!-- Node2&#45;&gt;Node1 -->
<g id="edge1_Node000001_Node000002" class="edge">
<title>Node2&#45;&gt;Node1</title>
<g id="a_edge1_Node000001_Node000002"><a xlink:title=" ">
<path fill="none" stroke="#63b8ff" d="M123,-607.62C123,-600.01 123,-591.44 123,-582.13"/>
<polygon fill="none" stroke="#63b8ff" points="119.5,-607.72 123,-617.72 126.5,-607.72 119.5,-607.72"/>
</a>
</g>
</g>
</g>
</svg>
