<?xml version="1.0" encoding="UTF-8" standalone="no"?>
<!DOCTYPE svg PUBLIC "-//W3C//DTD SVG 1.1//EN"
 "http://www.w3.org/Graphics/SVG/1.1/DTD/svg11.dtd">
<!-- Generated by graphviz version 2.43.0 (0)
 -->
<!-- Title: Ship.GetOuterHullPrefab Pages: 1 -->
<svg width="1195pt" height="198pt"
 viewBox="0.00 0.00 1195.00 198.00" xmlns="http://www.w3.org/2000/svg" xmlns:xlink="http://www.w3.org/1999/xlink">
<g id="graph0" class="graph" transform="scale(1 1) rotate(0) translate(4 194)">
<title>Ship.GetOuterHullPrefab</title>
<!-- Node1 -->
<g id="Node000001" class="node">
<title>Node1</title>
<g id="a_Node000001"><a xlink:title="외갑판 프리팹을 반환합니다.">
<polygon fill="#999999" stroke="#666666" points="1187,-105.5 998,-105.5 998,-84.5 1187,-84.5 1187,-105.5"/>
<text text-anchor="middle" x="1092.5" y="-91.9" font-family="Consolas" font-size="12.00">Ship.GetOuterHullPrefab</text>
</a>
</g>
</g>
<!-- Node2 -->
<g id="Node000002" class="node">
<title>Node2</title>
<g id="a_Node000002"><a xlink:href="classOuterHullSystem.html#adb5a5b7d00fda59c275bbd594504a5a3" target="_top" xlink:title="외갑판의 시각적 표현을 업데이트합니다. 방 주변에 외갑판을 생성하고, 필요한 위치에 내부 모서리 외갑판도 생성합니다.">
<polygon fill="white" stroke="#666666" points="962,-105.5 728,-105.5 728,-84.5 962,-84.5 962,-105.5"/>
<text text-anchor="middle" x="845" y="-91.9" font-family="Consolas" font-size="12.00">OuterHullSystem.UpdateVisuals</text>
</a>
</g>
</g>
<!-- Node1&#45;&gt;Node2 -->
<g id="edge1_Node000001_Node000002" class="edge">
<title>Node1&#45;&gt;Node2</title>
<g id="a_edge1_Node000001_Node000002"><a xlink:title=" ">
<path fill="none" stroke="#63b8ff" d="M987.8,-95C979.39,-95 970.85,-95 962.36,-95"/>
<polygon fill="#63b8ff" stroke="#63b8ff" points="987.99,-98.5 997.99,-95 987.99,-91.5 987.99,-98.5"/>
</a>
</g>
</g>
<!-- Node3 -->
<g id="Node000003" class="node">
<title>Node3</title>
<g id="a_Node000003"><a xlink:href="classShip.html#a1a2cb507900750750740527414721aa3" target="_top" xlink:title="외갑판 시각 효과를 업데이트합니다.">
<polygon fill="white" stroke="#666666" points="692,-105.5 473,-105.5 473,-84.5 692,-84.5 692,-105.5"/>
<text text-anchor="middle" x="582.5" y="-91.9" font-family="Consolas" font-size="12.00">Ship.UpdateOuterHullVisuals</text>
</a>
</g>
</g>
<!-- Node2&#45;&gt;Node3 -->
<g id="edge2_Node000002_Node000003" class="edge">
<title>Node2&#45;&gt;Node3</title>
<g id="a_edge2_Node000002_Node000003"><a xlink:title=" ">
<path fill="none" stroke="#63b8ff" d="M717.58,-95C709.15,-95 700.69,-95 692.36,-95"/>
<polygon fill="#63b8ff" stroke="#63b8ff" points="717.84,-98.5 727.84,-95 717.84,-91.5 717.84,-98.5"/>
</a>
</g>
</g>
<!-- Node4 -->
<g id="Node000004" class="node">
<title>Node4</title>
<g id="a_Node000004"><a xlink:href="classCustomize__2__Controller.html#a4f017401dbc31501a4109324ccec2bd7" target="_top" xlink:title="&#39;함선 제작&#39; 버튼 클릭 시 호출. 조건 만족 시 기존 함선을 설계도의 함선으로 교체합니다. 이후 방, 문의 연결 유효성 검사 수행 후 만족 여부에 따라 실제 함선으로 교체,...">
<polygon fill="white" stroke="#666666" points="433,-190 229,-190 229,-156 433,-156 433,-190"/>
<text text-anchor="start" x="237" y="-176.4" font-family="Consolas" font-size="12.00">Customize_2_Controller.On</text>
<text text-anchor="middle" x="331" y="-163.4" font-family="Consolas" font-size="12.00">ClickBuy</text>
</a>
</g>
</g>
<!-- Node3&#45;&gt;Node4 -->
<g id="edge3_Node000003_Node000004" class="edge">
<title>Node3&#45;&gt;Node4</title>
<g id="a_edge3_Node000003_Node000004"><a xlink:title=" ">
<path fill="none" stroke="#63b8ff" d="M545.18,-109.24C516.16,-120.34 474.32,-135.7 437,-147 426.67,-150.13 415.68,-153.17 404.85,-155.99"/>
<polygon fill="#63b8ff" stroke="#63b8ff" points="546.8,-112.37 554.88,-105.51 544.29,-105.84 546.8,-112.37"/>
</a>
</g>
</g>
<!-- Node5 -->
<g id="Node000005" class="node">
<title>Node5</title>
<g id="a_Node000005"><a xlink:href="classCustomize__1__Controller.html#ad205a3e7f14530fc11520997da42a8eb" target="_top" xlink:title="CustomizeShipUI 비활성화 시 아래 작업 수행 : 그리드 저장 오브젝트 비활성화 설계도 설치한 방 데이터 모두 저장 후 제거">
<polygon fill="white" stroke="#666666" points="433,-138 229,-138 229,-104 433,-104 433,-138"/>
<text text-anchor="start" x="237" y="-124.4" font-family="Consolas" font-size="12.00">Customize_1_Controller.On</text>
<text text-anchor="middle" x="331" y="-111.4" font-family="Consolas" font-size="12.00">Disable</text>
</a>
</g>
</g>
<!-- Node3&#45;&gt;Node5 -->
<g id="edge4_Node000003_Node000005" class="edge">
<title>Node3&#45;&gt;Node5</title>
<g id="a_edge4_Node000003_Node000005"><a xlink:title=" ">
<path fill="none" stroke="#63b8ff" d="M470.75,-106.54C458.23,-107.85 445.52,-109.17 433.14,-110.46"/>
<polygon fill="#63b8ff" stroke="#63b8ff" points="471.15,-110.02 480.74,-105.5 470.43,-103.06 471.15,-110.02"/>
</a>
</g>
</g>
<!-- Node6 -->
<g id="Node000006" class="node">
<title>Node6</title>
<g id="a_Node000006"><a xlink:href="classCustomizeShipUIHandler.html#a8e6c0d938789d432de979473f3b43ced" target="_top" xlink:title="CustomizeShipUI 비활성화 시 아래 작업 수행 : 그리드 저장 오브젝트 비활성화 설계도 설치한 방 데이터 모두 저장 후 제거">
<polygon fill="white" stroke="#666666" points="433,-86 229,-86 229,-52 433,-52 433,-86"/>
<text text-anchor="start" x="237" y="-72.4" font-family="Consolas" font-size="12.00">CustomizeShipUIHandler.On</text>
<text text-anchor="middle" x="331" y="-59.4" font-family="Consolas" font-size="12.00">Disable</text>
</a>
</g>
</g>
<!-- Node3&#45;&gt;Node6 -->
<g id="edge5_Node000003_Node000006" class="edge">
<title>Node3&#45;&gt;Node6</title>
<g id="a_edge5_Node000003_Node000006"><a xlink:title=" ">
<path fill="none" stroke="#63b8ff" d="M470.75,-83.46C458.23,-82.15 445.52,-80.83 433.14,-79.54"/>
<polygon fill="#63b8ff" stroke="#63b8ff" points="470.43,-86.94 480.74,-84.5 471.15,-79.98 470.43,-86.94"/>
</a>
</g>
</g>
<!-- Node7 -->
<g id="Node000007" class="node">
<title>Node7</title>
<g id="a_Node000007"><a xlink:href="classShipTemplateSaver.html#a60eaa44e4b337e8589cdac750c4c7006" target="_top" xlink:title="함선 템플릿 저장">
<polygon fill="white" stroke="#666666" points="437,-34 225,-34 225,0 437,0 437,-34"/>
<text text-anchor="start" x="233" y="-20.4" font-family="Consolas" font-size="12.00">ShipTemplateSaver.SaveShip</text>
<text text-anchor="middle" x="331" y="-7.4" font-family="Consolas" font-size="12.00">Template</text>
</a>
</g>
</g>
<!-- Node3&#45;&gt;Node7 -->
<g id="edge6_Node000003_Node000007" class="edge">
<title>Node3&#45;&gt;Node7</title>
<g id="a_edge6_Node000003_Node000007"><a xlink:title=" ">
<path fill="none" stroke="#63b8ff" d="M545.18,-80.76C516.16,-69.66 474.32,-54.3 437,-43 426.67,-39.87 415.68,-36.83 404.85,-34.01"/>
<polygon fill="#63b8ff" stroke="#63b8ff" points="544.29,-84.16 554.88,-84.49 546.8,-77.63 544.29,-84.16"/>
</a>
</g>
</g>
<!-- Node8 -->
<g id="Node000008" class="node">
<title>Node8</title>
<g id="a_Node000008"><a xlink:href="classShipTemplateSaver.html#ac21a9409eb9263a08102e63c84238ee4" target="_top" xlink:title="초기화">
<polygon fill="white" stroke="#666666" points="189,-27.5 0,-27.5 0,-6.5 189,-6.5 189,-27.5"/>
<text text-anchor="middle" x="94.5" y="-13.9" font-family="Consolas" font-size="12.00">ShipTemplateSaver.Start</text>
</a>
</g>
</g>
<!-- Node7&#45;&gt;Node8 -->
<g id="edge7_Node000007_Node000008" class="edge">
<title>Node7&#45;&gt;Node8</title>
<g id="a_edge7_Node000007_Node000008"><a xlink:title=" ">
<path fill="none" stroke="#63b8ff" d="M214.48,-17C206.05,-17 197.6,-17 189.32,-17"/>
<polygon fill="#63b8ff" stroke="#63b8ff" points="214.75,-20.5 224.75,-17 214.75,-13.5 214.75,-20.5"/>
</a>
</g>
</g>
</g>
</svg>
