<?xml version="1.0" encoding="UTF-8" standalone="no"?>
<!DOCTYPE svg PUBLIC "-//W3C//DTD SVG 1.1//EN"
 "http://www.w3.org/Graphics/SVG/1.1/DTD/svg11.dtd">
<!-- Generated by graphviz version 2.43.0 (0)
 -->
<!-- Title: ES3Cloud.RenameFile Pages: 1 -->
<svg width="362pt" height="185pt"
 viewBox="0.00 0.00 362.00 185.00" xmlns="http://www.w3.org/2000/svg" xmlns:xlink="http://www.w3.org/1999/xlink">

<svg id="main" version="1.1" xmlns="http://www.w3.org/2000/svg" xmlns:xlink="http://www.w3.org/1999/xlink" xml:space="preserve" onload="init(evt)">
<style type="text/css"><![CDATA[
.node, .edge {opacity: 0.7;}
.node.selected, .edge.selected {opacity: 1;}
.edge:hover path { stroke: red; }
.edge:hover polygon { stroke: red; fill: red; }
]]></style>
<script type="application/ecmascript" xlink:href="svg.min.js"/>
<svg id="graph" class="graph">
<g id="graph0" class="graph" transform="scale(1 1) rotate(0) translate(4 181)">
<title>ES3Cloud.RenameFile</title>
<!-- Node1 -->
<g id="Node000001" class="node">
<title>Node1</title>
<g id="a_Node000001"><a xlink:title="Renames a file from the server. An error is not returned if the file does not exist.">
<polygon fill="#999999" stroke="#666666" points="354,-99 195,-99 195,-78 354,-78 354,-99"/>
<text text-anchor="middle" x="274.5" y="-85.4" font-family="Consolas" font-size="12.00">ES3Cloud.RenameFile</text>
</a>
</g>
</g>
<!-- Node1&#45;&gt;Node1 -->
<g id="edge1_Node000001_Node000001" class="edge">
<title>Node1&#45;&gt;Node1</title>
<g id="a_edge1_Node000001_Node000001"><a xlink:title=" ">
<path fill="none" stroke="#63b8ff" d="M310.72,-107.47C309.23,-112.85 297.16,-117 274.5,-117 240.78,-117 230.5,-107.81 243.68,-99.02"/>
<polygon fill="#63b8ff" stroke="#63b8ff" points="313.66,-105.57 305.32,-99.02 307.76,-109.33 313.66,-105.57"/>
</a>
</g>
</g>
<!-- Node2 -->
<g id="Node000002" class="node">
<title>Node2</title>
<g id="a_Node000002"><a xlink:href="classES3Cloud.html#afead09651fa66e88ee9683e6bd18cfa1" target="_top" xlink:title="Renames a file from the server. An error is not returned if the file does not exist.">
<polygon fill="white" stroke="#666666" points="159,-177 0,-177 0,-156 159,-156 159,-177"/>
<text text-anchor="middle" x="79.5" y="-163.4" font-family="Consolas" font-size="12.00">ES3Cloud.RenameFile</text>
</a>
</g>
</g>
<!-- Node1&#45;&gt;Node2 -->
<g id="edge2_Node000001_Node000002" class="edge">
<title>Node1&#45;&gt;Node2</title>
<g id="a_edge2_Node000001_Node000002"><a xlink:title=" ">
<path fill="none" stroke="#63b8ff" d="M247.56,-104.14C224.87,-117.26 190.68,-135.7 159,-147.5 150.33,-150.73 140.91,-153.56 131.71,-155.98"/>
<polygon fill="#63b8ff" stroke="#63b8ff" points="249.39,-107.13 256.25,-99.05 245.85,-101.09 249.39,-107.13"/>
</a>
</g>
</g>
<!-- Node3 -->
<g id="Node000003" class="node">
<title>Node3</title>
<g id="a_Node000003"><a xlink:href="classES3Cloud.html#a56d8002ce833903ddc82311098651ca1" target="_top" xlink:title="Renames a file from the server. An error is not returned if the file does not exist.">
<polygon fill="white" stroke="#666666" points="159,-138 0,-138 0,-117 159,-117 159,-138"/>
<text text-anchor="middle" x="79.5" y="-124.4" font-family="Consolas" font-size="12.00">ES3Cloud.RenameFile</text>
</a>
</g>
</g>
<!-- Node1&#45;&gt;Node3 -->
<g id="edge3_Node000001_Node000003" class="edge">
<title>Node1&#45;&gt;Node3</title>
<g id="a_edge3_Node000001_Node000003"><a xlink:title=" ">
<path fill="none" stroke="#63b8ff" d="M211.59,-101.01C186.11,-106.16 156.92,-112.06 132.57,-116.98"/>
<polygon fill="#63b8ff" stroke="#63b8ff" points="212.42,-104.41 221.53,-99 211.03,-97.55 212.42,-104.41"/>
</a>
</g>
</g>
<!-- Node4 -->
<g id="Node000004" class="node">
<title>Node4</title>
<g id="a_Node000004"><a xlink:href="classES3Cloud.html#aabf44fadeb5576034f80ba81d161f9ff" target="_top" xlink:title="Renames a file from the server. An error is not returned if the file does not exist.">
<polygon fill="white" stroke="#666666" points="159,-99 0,-99 0,-78 159,-78 159,-99"/>
<text text-anchor="middle" x="79.5" y="-85.4" font-family="Consolas" font-size="12.00">ES3Cloud.RenameFile</text>
</a>
</g>
</g>
<!-- Node1&#45;&gt;Node4 -->
<g id="edge4_Node000001_Node000004" class="edge">
<title>Node1&#45;&gt;Node4</title>
<g id="a_edge4_Node000001_Node000004"><a xlink:title=" ">
<path fill="none" stroke="#63b8ff" d="M184.98,-88.5C176.39,-88.5 167.72,-88.5 159.24,-88.5"/>
<polygon fill="#63b8ff" stroke="#63b8ff" points="185,-92 195,-88.5 185,-85 185,-92"/>
</a>
</g>
</g>
<!-- Node5 -->
<g id="Node000005" class="node">
<title>Node5</title>
<g id="a_Node000005"><a xlink:href="classES3Cloud.html#a7704eb0ee5782a557f57373a089bb8fc" target="_top" xlink:title="Renames a file from the server. An error is not returned if the file does not exist.">
<polygon fill="white" stroke="#666666" points="159,-60 0,-60 0,-39 159,-39 159,-60"/>
<text text-anchor="middle" x="79.5" y="-46.4" font-family="Consolas" font-size="12.00">ES3Cloud.RenameFile</text>
</a>
</g>
</g>
<!-- Node1&#45;&gt;Node5 -->
<g id="edge5_Node000001_Node000005" class="edge">
<title>Node1&#45;&gt;Node5</title>
<g id="a_edge5_Node000001_Node000005"><a xlink:title=" ">
<path fill="none" stroke="#63b8ff" d="M211.59,-75.99C186.11,-70.84 156.92,-64.94 132.57,-60.02"/>
<polygon fill="#63b8ff" stroke="#63b8ff" points="211.03,-79.45 221.53,-78 212.42,-72.59 211.03,-79.45"/>
</a>
</g>
</g>
<!-- Node6 -->
<g id="Node000006" class="node">
<title>Node6</title>
<g id="a_Node000006"><a xlink:href="classES3Cloud.html#ab3a259148f0bb3891833a5d80fc35158" target="_top" xlink:title="Renames a file from the server. An error is not returned if the file does not exist.">
<polygon fill="white" stroke="#666666" points="159,-21 0,-21 0,0 159,0 159,-21"/>
<text text-anchor="middle" x="79.5" y="-7.4" font-family="Consolas" font-size="12.00">ES3Cloud.RenameFile</text>
</a>
</g>
</g>
<!-- Node1&#45;&gt;Node6 -->
<g id="edge6_Node000001_Node000006" class="edge">
<title>Node1&#45;&gt;Node6</title>
<g id="a_edge6_Node000001_Node000006"><a xlink:title=" ">
<path fill="none" stroke="#63b8ff" d="M247.09,-73.02C224.36,-60.21 190.35,-42.27 159,-30.5 149.39,-26.89 138.88,-23.71 128.76,-21.02"/>
<polygon fill="#63b8ff" stroke="#63b8ff" points="245.39,-76.08 255.81,-77.99 248.86,-70 245.39,-76.08"/>
</a>
</g>
</g>
</g>
</svg>
</svg>

<style type='text/css'>
<![CDATA[
[data-mouse-over-selected='false'] { opacity: 0.7; }
[data-mouse-over-selected='true']  { opacity: 1.0; }
]]>
</style>
<script type="application/ecmascript"><![CDATA[
document.addEventListener('DOMContentLoaded', (event) => {
  highlightEdges();
  highlightAdjacentNodes();
});
]]></script>
</svg>
