<?xml version="1.0" encoding="UTF-8" standalone="no"?>
<!DOCTYPE svg PUBLIC "-//W3C//DTD SVG 1.1//EN"
 "http://www.w3.org/Graphics/SVG/1.1/DTD/svg11.dtd">
<!-- Generated by graphviz version 2.43.0 (0)
 -->
<!-- Title: InventoryItemUI Pages: 1 -->
<!--zoomable 1495 -->

<svg id="main" version="1.1" xmlns="http://www.w3.org/2000/svg" xmlns:xlink="http://www.w3.org/1999/xlink" xml:space="preserve" onload="init(evt)">
<style type="text/css"><![CDATA[
.node, .edge {opacity: 0.7;}
.node.selected, .edge.selected {opacity: 1;}
.edge:hover path { stroke: red; }
.edge:hover polygon { stroke: red; fill: red; }
]]></style>

<defs>
  <circle id="rim" cx="0" cy="0" r="7"/>
  <circle id="rim2" cx="0" cy="0" r="3.5"/>
  <g id="zoomPlus">
    <use xlink:href="#rim" fill="#404040"><set attributeName="fill" to="#808080" begin="zoomplus.mouseover" end="zoomplus.mouseout"/></use>
    <path d="M-4,0h8M0,-4v8" fill="none" stroke="white" stroke-width="1.5" pointer-events="none"/>
  </g>
  <g id="zoomMin">
    <use xlink:href="#rim" fill="#404040"><set attributeName="fill" to="#808080" begin="zoomminus.mouseover" end="zoomminus.mouseout"/></use>
    <path d="M-4,0h8" fill="none" stroke="white" stroke-width="1.5" pointer-events="none"/>
  </g>
  <g id="arrowUp" transform="translate(30 24)">
    <use xlink:href="#rim"/>
    <path pointer-events="none" fill="none" stroke="white" stroke-width="1.5" d="M0,-3.0v7 M-2.5,-0.5L0,-3.0L2.5,-0.5"/>
  </g>
  <g id="arrowRight" transform="rotate(90) translate(36 -43)">
    <use xlink:href="#rim"/>
    <path pointer-events="none" fill="none" stroke="white" stroke-width="1.5" d="M0,-3.0v7 M-2.5,-0.5L0,-3.0L2.5,-0.5"/>
  </g>
  <g id="arrowDown" transform="rotate(180) translate(-30 -48)">
    <use xlink:href="#rim"/>
    <path pointer-events="none" fill="none" stroke="white" stroke-width="1.5" d="M0,-3.0v7 M-2.5,-0.5L0,-3.0L2.5,-0.5"/>
  </g>
  <g id="arrowLeft" transform="rotate(270) translate(-36 17)">
    <use xlink:href="#rim"/>
    <path pointer-events="none" fill="none" stroke="white" stroke-width="1.5" d="M0,-3.0v7 M-2.5,-0.5L0,-3.0L2.5,-0.5"/>
  </g>
  <g id="resetDef">
    <use xlink:href="#rim2" fill="#404040"><set attributeName="fill" to="#808080" begin="reset.mouseover" end="reset.mouseout"/></use>
  </g>
</defs>
<script type="application/ecmascript">
var viewWidth = 1294;
var viewHeight = 1495;
var sectionId = 'dynsection-1';
</script>
<script type="application/ecmascript" xlink:href="svg.min.js"/>
<svg id="graph" class="graph">
<g id="viewport">
<title>InventoryItemUI</title>
<!-- Node1 -->
<g id="Node000001" class="node">
<title>Node1</title>
<g id="a_Node000001"><a xlink:title="InventoryItemUI는 인벤토리 항목의 정보를 UI로 표시하고 마우스 입력에 따라 하이라이트 및 선택 기능을 수행합니다.">
<polygon fill="#999999" stroke="transparent" points="861.5,-610 608.5,-610 608.5,0 861.5,0 861.5,-610"/>
<text text-anchor="start" x="679" y="-596.4" font-family="Consolas" font-size="12.00">InventoryItemUI</text>
<text text-anchor="start" x="613" y="-579.4" font-family="Consolas" font-size="12.00">+</text>
<text text-anchor="start" x="625" y="-579.4" font-family="Consolas" font-size="12.00">bool isInteractable</text>
<text text-anchor="start" x="613" y="-562.4" font-family="Consolas" font-size="12.00">+</text>
<text text-anchor="start" x="625" y="-562.4" font-family="Consolas" font-size="12.00">static string currentlySelected</text>
<text text-anchor="start" x="625" y="-549.4" font-family="Consolas" font-size="12.00">ItemName</text>
<text text-anchor="start" x="613" y="-532.4" font-family="Consolas" font-size="12.00">&#45;</text>
<text text-anchor="start" x="625" y="-532.4" font-family="Consolas" font-size="12.00">Image itemShapeImage</text>
<text text-anchor="start" x="613" y="-515.4" font-family="Consolas" font-size="12.00">&#45;</text>
<text text-anchor="start" x="625" y="-515.4" font-family="Consolas" font-size="12.00">List&lt; Sprite &gt; itemShape</text>
<text text-anchor="start" x="625" y="-502.4" font-family="Consolas" font-size="12.00">Sprites</text>
<text text-anchor="start" x="613" y="-485.4" font-family="Consolas" font-size="12.00">&#45;</text>
<text text-anchor="start" x="625" y="-485.4" font-family="Consolas" font-size="12.00">Image itemImage</text>
<text text-anchor="start" x="613" y="-468.4" font-family="Consolas" font-size="12.00">&#45;</text>
<text text-anchor="start" x="625" y="-468.4" font-family="Consolas" font-size="12.00">TextMeshProUGUI itemNameText</text>
<text text-anchor="start" x="613" y="-451.4" font-family="Consolas" font-size="12.00">&#45;</text>
<text text-anchor="start" x="625" y="-451.4" font-family="Consolas" font-size="12.00">TextMeshProUGUI categoryText</text>
<text text-anchor="start" x="613" y="-434.4" font-family="Consolas" font-size="12.00">&#45;</text>
<text text-anchor="start" x="625" y="-434.4" font-family="Consolas" font-size="12.00">TextMeshProUGUI quantityText</text>
<text text-anchor="start" x="613" y="-417.4" font-family="Consolas" font-size="12.00">&#45;</text>
<text text-anchor="start" x="625" y="-417.4" font-family="Consolas" font-size="12.00">TextMeshProUGUI priceText</text>
<text text-anchor="start" x="613" y="-400.4" font-family="Consolas" font-size="12.00">&#45;</text>
<text text-anchor="start" x="625" y="-400.4" font-family="Consolas" font-size="12.00">int currentQuantity</text>
<text text-anchor="start" x="613" y="-383.4" font-family="Consolas" font-size="12.00">&#45;</text>
<text text-anchor="start" x="625" y="-383.4" font-family="Consolas" font-size="12.00">float currentPurchasePrice</text>
<text text-anchor="start" x="613" y="-366.4" font-family="Consolas" font-size="12.00">&#45;</text>
<text text-anchor="start" x="625" y="-366.4" font-family="Consolas" font-size="12.00">bool isSelected</text>
<text text-anchor="start" x="613" y="-349.4" font-family="Consolas" font-size="12.00">&#45;</text>
<text text-anchor="start" x="625" y="-349.4" font-family="Consolas" font-size="12.00">Color highlightColor</text>
<text text-anchor="start" x="613" y="-332.4" font-family="Consolas" font-size="12.00">&#45;</text>
<text text-anchor="start" x="625" y="-332.4" font-family="Consolas" font-size="12.00">Color itemNameOriginalColor</text>
<text text-anchor="start" x="613" y="-315.4" font-family="Consolas" font-size="12.00">&#45;</text>
<text text-anchor="start" x="625" y="-315.4" font-family="Consolas" font-size="12.00">Color priceOriginalColor</text>
<text text-anchor="start" x="613" y="-298.4" font-family="Consolas" font-size="12.00">&#45;</text>
<text text-anchor="start" x="625" y="-298.4" font-family="Consolas" font-size="12.00">Color quantityOriginalColor</text>
<text text-anchor="start" x="613" y="-281.4" font-family="Consolas" font-size="12.00">&#45;</text>
<text text-anchor="start" x="625" y="-281.4" font-family="Consolas" font-size="12.00">Color categoryOriginalColor</text>
<text text-anchor="start" x="613" y="-264.4" font-family="Consolas" font-size="12.00">+</text>
<text text-anchor="start" x="625" y="-264.4" font-family="Consolas" font-size="12.00">void Setup(TradingItemData</text>
<text text-anchor="start" x="625" y="-251.4" font-family="Consolas" font-size="12.00"> itemData, int quantity,</text>
<text text-anchor="start" x="625" y="-238.4" font-family="Consolas" font-size="12.00"> float purchasePrice)</text>
<text text-anchor="start" x="613" y="-221.4" font-family="Consolas" font-size="12.00">+</text>
<text text-anchor="start" x="625" y="-221.4" font-family="Consolas" font-size="12.00">string GetStoredItemName()</text>
<text text-anchor="start" x="613" y="-204.4" font-family="Consolas" font-size="12.00">+</text>
<text text-anchor="start" x="625" y="-204.4" font-family="Consolas" font-size="12.00">void OnPointerEnter</text>
<text text-anchor="start" x="625" y="-191.4" font-family="Consolas" font-size="12.00">(PointerEventData eventData)</text>
<text text-anchor="start" x="613" y="-174.4" font-family="Consolas" font-size="12.00">+</text>
<text text-anchor="start" x="625" y="-174.4" font-family="Consolas" font-size="12.00">void OnPointerExit</text>
<text text-anchor="start" x="625" y="-161.4" font-family="Consolas" font-size="12.00">(PointerEventData eventData)</text>
<text text-anchor="start" x="613" y="-144.4" font-family="Consolas" font-size="12.00">+</text>
<text text-anchor="start" x="625" y="-144.4" font-family="Consolas" font-size="12.00">void OnPointerClick</text>
<text text-anchor="start" x="625" y="-131.4" font-family="Consolas" font-size="12.00">(PointerEventData eventData)</text>
<text text-anchor="start" x="613" y="-114.4" font-family="Consolas" font-size="12.00">+</text>
<text text-anchor="start" x="625" y="-114.4" font-family="Consolas" font-size="12.00">void SetSelected(bool</text>
<text text-anchor="start" x="625" y="-101.4" font-family="Consolas" font-size="12.00"> selected)</text>
<text text-anchor="start" x="613" y="-84.4" font-family="Consolas" font-size="12.00">+</text>
<text text-anchor="start" x="625" y="-84.4" font-family="Consolas" font-size="12.00">TradingItemData GetItemData()</text>
<text text-anchor="start" x="613" y="-67.4" font-family="Consolas" font-size="12.00">+</text>
<text text-anchor="start" x="625" y="-67.4" font-family="Consolas" font-size="12.00">int GetQuantity()</text>
<text text-anchor="start" x="613" y="-50.4" font-family="Consolas" font-size="12.00">+</text>
<text text-anchor="start" x="625" y="-50.4" font-family="Consolas" font-size="12.00">static InventoryItemUI</text>
<text text-anchor="start" x="625" y="-37.4" font-family="Consolas" font-size="12.00"> GetCurrentSelectedItem()</text>
<text text-anchor="start" x="613" y="-20.4" font-family="Consolas" font-size="12.00">&#45;</text>
<text text-anchor="start" x="625" y="-20.4" font-family="Consolas" font-size="12.00">void ApplyColor(Color</text>
<text text-anchor="start" x="625" y="-7.4" font-family="Consolas" font-size="12.00"> targetColor)</text>
<polygon fill="#666666" stroke="#666666" points="609,-591 609,-591 862,-591 862,-591 609,-591"/>
<polygon fill="#666666" stroke="#666666" points="609,-276 609,-276 623,-276 623,-276 609,-276"/>
<polygon fill="#666666" stroke="#666666" points="623,-276 623,-276 862,-276 862,-276 623,-276"/>
<polygon fill="none" stroke="#666666" points="608.5,0 608.5,-610 861.5,-610 861.5,0 608.5,0"/>
</a>
</g>
</g>
<!-- Node1&#45;&gt;Node1 -->
<g id="edge13_Node000001_Node000001" class="edge">
<title>Node1&#45;&gt;Node1</title>
<g id="a_edge13_Node000001_Node000001"><a xlink:title=" ">
<path fill="none" stroke="#63b8ff" d="M861.82,-353.28C872.7,-343.01 879.5,-326.91 879.5,-305 879.5,-288.91 875.83,-275.95 869.58,-266.14"/>
<polygon fill="none" stroke="#63b8ff" points="869.45,-265.98 862.54,-263.89 861.82,-256.72 868.72,-258.81 869.45,-265.98"/>
</a>
</g>
<text text-anchor="middle" x="970.5" y="-301.3" font-family="Consolas" font-size="14.00" fill="grey"> &#45;_currentSelectedItem</text>
</g>
<!-- Node2 -->
<g id="Node000002" class="node">
<title>Node2</title>
<g id="a_Node000002"><a xlink:title=" ">
<polygon fill="white" stroke="transparent" points="108,-1487 0,-1487 0,-1432 108,-1432 108,-1487"/>
<text text-anchor="start" x="5" y="-1472.9" font-family="Consolas" font-size="12.00">MonoBehaviour</text>
<text text-anchor="start" x="50" y="-1455.9" font-family="Consolas" font-size="12.00"> </text>
<text text-anchor="start" x="50" y="-1438.9" font-family="Consolas" font-size="12.00"> </text>
<polygon fill="#bfbfbf" stroke="#bfbfbf" points="0,-1467.5 0,-1467.5 108,-1467.5 108,-1467.5 0,-1467.5"/>
<polygon fill="#bfbfbf" stroke="#bfbfbf" points="0,-1450.5 0,-1450.5 108,-1450.5 108,-1450.5 0,-1450.5"/>
<polygon fill="none" stroke="#bfbfbf" points="0,-1432 0,-1487 108,-1487 108,-1432 0,-1432"/>
</a>
</g>
</g>
<!-- Node2&#45;&gt;Node1 -->
<g id="edge1_Node000001_Node000002" class="edge">
<title>Node2&#45;&gt;Node1</title>
<g id="a_edge1_Node000001_Node000002"><a xlink:title=" ">
<path fill="none" stroke="#63b8ff" d="M47.6,-1421.56C35.92,-1347.24 14.93,-1174.72 44,-1034 80.53,-857.17 89.5,-799.79 205,-661 316.22,-527.35 490.36,-424.11 608.42,-364.25"/>
<polygon fill="none" stroke="#63b8ff" points="44.2,-1422.48 49.25,-1431.8 51.11,-1421.37 44.2,-1422.48"/>
</a>
</g>
</g>
<!-- Node6 -->
<g id="Node000006" class="node">
<title>Node6</title>
<g id="a_Node000006"><a xlink:href="classMiddlePanelUI.html" target="_top" xlink:title="MiddlePanelUI는 중간 패널의 UI를 관리하며, 선택된 아이템의 상세 정보와 거래(구매, 판매) 기능을 제공합니다.">
<polygon fill="white" stroke="transparent" points="460,-968 214,-968 214,-661 460,-661 460,-968"/>
<text text-anchor="start" x="288" y="-953.9" font-family="Consolas" font-size="12.00">MiddlePanelUI</text>
<text text-anchor="start" x="218" y="-936.9" font-family="Consolas" font-size="12.00">&#45;</text>
<text text-anchor="start" x="230" y="-936.9" font-family="Consolas" font-size="12.00">TextMeshProUGUI selected</text>
<text text-anchor="start" x="230" y="-923.9" font-family="Consolas" font-size="12.00">ItemNameText</text>
<text text-anchor="start" x="218" y="-906.9" font-family="Consolas" font-size="12.00">&#45;</text>
<text text-anchor="start" x="230" y="-906.9" font-family="Consolas" font-size="12.00">TextMeshProUGUI selected</text>
<text text-anchor="start" x="230" y="-893.9" font-family="Consolas" font-size="12.00">ItemDescriptionText</text>
<text text-anchor="start" x="218" y="-876.9" font-family="Consolas" font-size="12.00">&#45;</text>
<text text-anchor="start" x="230" y="-876.9" font-family="Consolas" font-size="12.00">TextMeshProUGUI priceText</text>
<text text-anchor="start" x="218" y="-859.9" font-family="Consolas" font-size="12.00">&#45;</text>
<text text-anchor="start" x="230" y="-859.9" font-family="Consolas" font-size="12.00">TMP_InputField tradeNumInput</text>
<text text-anchor="start" x="230" y="-846.9" font-family="Consolas" font-size="12.00">Field</text>
<text text-anchor="start" x="218" y="-829.9" font-family="Consolas" font-size="12.00">&#45;</text>
<text text-anchor="start" x="230" y="-829.9" font-family="Consolas" font-size="12.00">Image itemShapeImage</text>
<text text-anchor="start" x="218" y="-812.9" font-family="Consolas" font-size="12.00">&#45;</text>
<text text-anchor="start" x="230" y="-812.9" font-family="Consolas" font-size="12.00">List&lt; Sprite &gt; itemShape</text>
<text text-anchor="start" x="230" y="-799.9" font-family="Consolas" font-size="12.00">Sprites</text>
<text text-anchor="start" x="218" y="-782.9" font-family="Consolas" font-size="12.00">&#45;</text>
<text text-anchor="start" x="230" y="-782.9" font-family="Consolas" font-size="12.00">TextMeshProUGUI playerCOMAText</text>
<text text-anchor="start" x="218" y="-765.9" font-family="Consolas" font-size="12.00">+</text>
<text text-anchor="start" x="230" y="-765.9" font-family="Consolas" font-size="12.00">void SetSelectedItem</text>
<text text-anchor="start" x="230" y="-752.9" font-family="Consolas" font-size="12.00">(TradingItemData itemData)</text>
<text text-anchor="start" x="218" y="-735.9" font-family="Consolas" font-size="12.00">+</text>
<text text-anchor="start" x="230" y="-735.9" font-family="Consolas" font-size="12.00">void UpdatePlayerComa()</text>
<text text-anchor="start" x="218" y="-718.9" font-family="Consolas" font-size="12.00">&#45;</text>
<text text-anchor="start" x="230" y="-718.9" font-family="Consolas" font-size="12.00">void Awake()</text>
<text text-anchor="start" x="218" y="-701.9" font-family="Consolas" font-size="12.00">&#45;</text>
<text text-anchor="start" x="230" y="-701.9" font-family="Consolas" font-size="12.00">void Start()</text>
<text text-anchor="start" x="218" y="-684.9" font-family="Consolas" font-size="12.00">&#45;</text>
<text text-anchor="start" x="230" y="-684.9" font-family="Consolas" font-size="12.00">void OnBuyClicked()</text>
<text text-anchor="start" x="218" y="-667.9" font-family="Consolas" font-size="12.00">&#45;</text>
<text text-anchor="start" x="230" y="-667.9" font-family="Consolas" font-size="12.00">void OnSellClicked()</text>
<polygon fill="#666666" stroke="#666666" points="214,-948.5 214,-948.5 460,-948.5 460,-948.5 214,-948.5"/>
<polygon fill="#666666" stroke="#666666" points="214,-777.5 214,-777.5 228,-777.5 228,-777.5 214,-777.5"/>
<polygon fill="#666666" stroke="#666666" points="228,-777.5 228,-777.5 460,-777.5 460,-777.5 228,-777.5"/>
<polygon fill="none" stroke="#666666" points="214,-661 214,-968 460,-968 460,-661 214,-661"/>
</a>
</g>
</g>
<!-- Node2&#45;&gt;Node6 -->
<g id="edge6_Node000006_Node000002" class="edge">
<title>Node2&#45;&gt;Node6</title>
<g id="a_edge6_Node000006_Node000002"><a xlink:title=" ">
<path fill="none" stroke="#63b8ff" d="M51.91,-1421.95C47.34,-1331.84 39.39,-1101.49 73,-1034 103.7,-972.36 160.61,-921.79 213.75,-884.88"/>
<polygon fill="none" stroke="#63b8ff" points="48.42,-1422.17 52.43,-1431.97 55.41,-1421.8 48.42,-1422.17"/>
</a>
</g>
</g>
<!-- Node10 -->
<g id="Node000010" class="node">
<title>Node10</title>
<g id="a_Node000010"><a xlink:href="classTradeManager.html" target="_top" xlink:title="TradeManager는 무역 거래를 관리하는 클래스입니다. 플레이어의 재화(COMA)를 관리하며, 아이템의 구매 및 판매 기능을 제공합니다.">
<polygon fill="white" stroke="transparent" points="313.5,-1300 82.5,-1300 82.5,-1129 313.5,-1129 313.5,-1300"/>
<text text-anchor="start" x="153" y="-1285.9" font-family="Consolas" font-size="12.00">TradeManager</text>
<text text-anchor="start" x="87" y="-1268.9" font-family="Consolas" font-size="12.00">&#45;</text>
<text text-anchor="start" x="99" y="-1268.9" font-family="Consolas" font-size="12.00">float playerCOMA</text>
<text text-anchor="start" x="87" y="-1251.9" font-family="Consolas" font-size="12.00">+</text>
<text text-anchor="start" x="99" y="-1251.9" font-family="Consolas" font-size="12.00">float GetTotalPrice</text>
<text text-anchor="start" x="99" y="-1238.9" font-family="Consolas" font-size="12.00">(TradingItemData itemData,</text>
<text text-anchor="start" x="99" y="-1225.9" font-family="Consolas" font-size="12.00"> int quantity)</text>
<text text-anchor="start" x="87" y="-1208.9" font-family="Consolas" font-size="12.00">+</text>
<text text-anchor="start" x="99" y="-1208.9" font-family="Consolas" font-size="12.00">float CalculatePrice</text>
<text text-anchor="start" x="99" y="-1195.9" font-family="Consolas" font-size="12.00">(TradingItemData itemData)</text>
<text text-anchor="start" x="87" y="-1178.9" font-family="Consolas" font-size="12.00">+</text>
<text text-anchor="start" x="99" y="-1178.9" font-family="Consolas" font-size="12.00">bool BuyItem(TradingItem</text>
<text text-anchor="start" x="99" y="-1165.9" font-family="Consolas" font-size="12.00">Data itemData, int quantity)</text>
<text text-anchor="start" x="87" y="-1148.9" font-family="Consolas" font-size="12.00">+</text>
<text text-anchor="start" x="99" y="-1148.9" font-family="Consolas" font-size="12.00">bool SellItem(TradingItem</text>
<text text-anchor="start" x="99" y="-1135.9" font-family="Consolas" font-size="12.00">Data itemData, int quantity)</text>
<polygon fill="#666666" stroke="#666666" points="83,-1280.5 83,-1280.5 314,-1280.5 314,-1280.5 83,-1280.5"/>
<polygon fill="#666666" stroke="#666666" points="83,-1263.5 83,-1263.5 97,-1263.5 97,-1263.5 83,-1263.5"/>
<polygon fill="#666666" stroke="#666666" points="97,-1263.5 97,-1263.5 314,-1263.5 314,-1263.5 97,-1263.5"/>
<polygon fill="none" stroke="#666666" points="82.5,-1129 82.5,-1300 313.5,-1300 313.5,-1129 82.5,-1129"/>
</a>
</g>
</g>
<!-- Node2&#45;&gt;Node10 -->
<g id="edge11_Node000010_Node000002" class="edge">
<title>Node2&#45;&gt;Node10</title>
<g id="a_edge11_Node000010_Node000002"><a xlink:title=" ">
<path fill="none" stroke="#63b8ff" d="M75.07,-1422.95C94.12,-1390.79 122.94,-1342.17 147.88,-1300.08"/>
<polygon fill="none" stroke="#63b8ff" points="72.05,-1421.18 69.96,-1431.57 78.07,-1424.75 72.05,-1421.18"/>
</a>
</g>
</g>
<!-- Node3 -->
<g id="Node000003" class="node">
<title>Node3</title>
<g id="a_Node000003"><a xlink:title=" ">
<polygon fill="white" stroke="transparent" points="935.5,-842 774.5,-842 774.5,-787 935.5,-787 935.5,-842"/>
<text text-anchor="start" x="780" y="-827.9" font-family="Consolas" font-size="12.00">IPointerEnterHandler</text>
<text text-anchor="start" x="851.5" y="-810.9" font-family="Consolas" font-size="12.00"> </text>
<text text-anchor="start" x="851.5" y="-793.9" font-family="Consolas" font-size="12.00"> </text>
<polygon fill="#bfbfbf" stroke="#bfbfbf" points="775,-822.5 775,-822.5 936,-822.5 936,-822.5 775,-822.5"/>
<polygon fill="#bfbfbf" stroke="#bfbfbf" points="775,-805.5 775,-805.5 936,-805.5 936,-805.5 775,-805.5"/>
<polygon fill="none" stroke="#bfbfbf" points="774.5,-787 774.5,-842 935.5,-842 935.5,-787 774.5,-787"/>
</a>
</g>
</g>
<!-- Node3&#45;&gt;Node1 -->
<g id="edge2_Node000001_Node000003" class="edge">
<title>Node3&#45;&gt;Node1</title>
<g id="a_edge2_Node000001_Node000003"><a xlink:title=" ">
<path fill="none" stroke="#63b8ff" d="M846.38,-777.02C837.51,-739.52 822.78,-677.25 806.9,-610.08"/>
<polygon fill="none" stroke="#63b8ff" points="843.01,-778 848.72,-786.93 849.82,-776.39 843.01,-778"/>
</a>
</g>
</g>
<!-- Node4 -->
<g id="Node000004" class="node">
<title>Node4</title>
<g id="a_Node000004"><a xlink:title=" ">
<polygon fill="white" stroke="transparent" points="1106.5,-842 953.5,-842 953.5,-787 1106.5,-787 1106.5,-842"/>
<text text-anchor="start" x="959" y="-827.9" font-family="Consolas" font-size="12.00">IPointerExitHandler</text>
<text text-anchor="start" x="1026.5" y="-810.9" font-family="Consolas" font-size="12.00"> </text>
<text text-anchor="start" x="1026.5" y="-793.9" font-family="Consolas" font-size="12.00"> </text>
<polygon fill="#bfbfbf" stroke="#bfbfbf" points="954,-822.5 954,-822.5 1107,-822.5 1107,-822.5 954,-822.5"/>
<polygon fill="#bfbfbf" stroke="#bfbfbf" points="954,-805.5 954,-805.5 1107,-805.5 1107,-805.5 954,-805.5"/>
<polygon fill="none" stroke="#bfbfbf" points="953.5,-787 953.5,-842 1106.5,-842 1106.5,-787 953.5,-787"/>
</a>
</g>
</g>
<!-- Node4&#45;&gt;Node1 -->
<g id="edge3_Node000001_Node000004" class="edge">
<title>Node4&#45;&gt;Node1</title>
<g id="a_edge3_Node000001_Node000004"><a xlink:title=" ">
<path fill="none" stroke="#63b8ff" d="M1010.15,-777.86C992.84,-746.89 966.97,-700.86 944,-661 917.57,-615.14 888.96,-566.14 861.64,-519.63"/>
<polygon fill="none" stroke="#63b8ff" points="1007.3,-779.94 1015.23,-786.97 1013.41,-776.53 1007.3,-779.94"/>
</a>
</g>
</g>
<!-- Node5 -->
<g id="Node000005" class="node">
<title>Node5</title>
<g id="a_Node000005"><a xlink:title=" ">
<polygon fill="white" stroke="transparent" points="1285.5,-842 1124.5,-842 1124.5,-787 1285.5,-787 1285.5,-842"/>
<text text-anchor="start" x="1130" y="-827.9" font-family="Consolas" font-size="12.00">IPointerClickHandler</text>
<text text-anchor="start" x="1201.5" y="-810.9" font-family="Consolas" font-size="12.00"> </text>
<text text-anchor="start" x="1201.5" y="-793.9" font-family="Consolas" font-size="12.00"> </text>
<polygon fill="#bfbfbf" stroke="#bfbfbf" points="1125,-822.5 1125,-822.5 1286,-822.5 1286,-822.5 1125,-822.5"/>
<polygon fill="#bfbfbf" stroke="#bfbfbf" points="1125,-805.5 1125,-805.5 1286,-805.5 1286,-805.5 1125,-805.5"/>
<polygon fill="none" stroke="#bfbfbf" points="1124.5,-787 1124.5,-842 1285.5,-842 1285.5,-787 1124.5,-787"/>
</a>
</g>
</g>
<!-- Node5&#45;&gt;Node1 -->
<g id="edge4_Node000001_Node000005" class="edge">
<title>Node5&#45;&gt;Node1</title>
<g id="a_edge4_Node000001_Node000005"><a xlink:title=" ">
<path fill="none" stroke="#63b8ff" d="M1188,-777.89C1171.79,-745.74 1145.53,-697.94 1116,-661 1040.77,-566.91 940.63,-474.59 861.89,-407.69"/>
<polygon fill="none" stroke="#63b8ff" points="1184.91,-779.54 1192.5,-786.93 1191.18,-776.42 1184.91,-779.54"/>
</a>
</g>
</g>
<!-- Node6&#45;&gt;Node1 -->
<g id="edge5_Node000001_Node000006" class="edge">
<title>Node6&#45;&gt;Node1</title>
<g id="a_edge5_Node000001_Node000006"><a xlink:title=" ">
<path fill="none" stroke="#63b8ff" d="M456.68,-660.89C502.1,-602.98 554.11,-536.66 600.78,-477.15"/>
<polygon fill="none" stroke="#63b8ff" points="600.81,-477.1 601.37,-469.91 608.22,-467.66 607.66,-474.85 600.81,-477.1"/>
</a>
</g>
<text text-anchor="middle" x="532" y="-631.8" font-family="Consolas" font-size="14.00" fill="grey"> &#45;middlePanel</text>
</g>
<!-- Node7 -->
<g id="Node000007" class="node">
<title>Node7</title>
<g id="a_Node000007"><a xlink:title=" ">
<polygon fill="white" stroke="transparent" points="424.5,-1242 331.5,-1242 331.5,-1187 424.5,-1187 424.5,-1242"/>
<text text-anchor="start" x="337" y="-1227.9" font-family="Consolas" font-size="12.00">UnityEngine</text>
<text text-anchor="start" x="374.5" y="-1210.9" font-family="Consolas" font-size="12.00"> </text>
<text text-anchor="start" x="374.5" y="-1193.9" font-family="Consolas" font-size="12.00"> </text>
<polygon fill="#bfbfbf" stroke="#bfbfbf" points="332,-1222.5 332,-1222.5 425,-1222.5 425,-1222.5 332,-1222.5"/>
<polygon fill="#bfbfbf" stroke="#bfbfbf" points="332,-1205.5 332,-1205.5 425,-1205.5 425,-1205.5 332,-1205.5"/>
<polygon fill="none" stroke="#bfbfbf" points="331.5,-1187 331.5,-1242 424.5,-1242 424.5,-1187 331.5,-1187"/>
</a>
</g>
</g>
<!-- Node7&#45;&gt;Node6 -->
<g id="edge7_Node000006_Node000007" class="edge">
<title>Node7&#45;&gt;Node6</title>
<g id="a_edge7_Node000006_Node000007"><a xlink:title=" ">
<path fill="none" stroke="#63b8ff" d="M370.9,-1186.92C361.22,-1149.23 344.37,-1077.95 338,-1016 336.81,-1004.38 335.91,-992.36 335.25,-980.24"/>
<polygon fill="none" stroke="#63b8ff" points="335.24,-980.09 330.96,-974.29 334.67,-968.11 338.95,-973.91 335.24,-980.09"/>
</a>
</g>
<text text-anchor="middle" x="383.5" y="-1004.8" font-family="Consolas" font-size="14.00" fill="grey"> &#45;buyButton</text>
<text text-anchor="middle" x="383.5" y="-989.8" font-family="Consolas" font-size="14.00" fill="grey">&#45;sellButton</text>
</g>
<!-- Node8 -->
<g id="Node000008" class="node">
<title>Node8</title>
<g id="a_Node000008"><a xlink:href="classTradingItemData.html" target="_top" xlink:title=" ">
<polygon fill="white" stroke="transparent" points="657.5,-1395 486.5,-1395 486.5,-1034 657.5,-1034 657.5,-1395"/>
<text text-anchor="start" x="516" y="-1380.9" font-family="Consolas" font-size="12.00">TradingItemData</text>
<text text-anchor="start" x="491" y="-1363.9" font-family="Consolas" font-size="12.00">+</text>
<text text-anchor="start" x="503" y="-1363.9" font-family="Consolas" font-size="12.00">int id</text>
<text text-anchor="start" x="491" y="-1346.9" font-family="Consolas" font-size="12.00">+</text>
<text text-anchor="start" x="503" y="-1346.9" font-family="Consolas" font-size="12.00">ItemPlanet planet</text>
<text text-anchor="start" x="491" y="-1329.9" font-family="Consolas" font-size="12.00">+</text>
<text text-anchor="start" x="503" y="-1329.9" font-family="Consolas" font-size="12.00">ItemTierLevel tier</text>
<text text-anchor="start" x="491" y="-1312.9" font-family="Consolas" font-size="12.00">+</text>
<text text-anchor="start" x="503" y="-1312.9" font-family="Consolas" font-size="12.00">ItemState itemState</text>
<text text-anchor="start" x="491" y="-1295.9" font-family="Consolas" font-size="12.00">+</text>
<text text-anchor="start" x="503" y="-1295.9" font-family="Consolas" font-size="12.00">string itemName</text>
<text text-anchor="start" x="491" y="-1278.9" font-family="Consolas" font-size="12.00">+</text>
<text text-anchor="start" x="503" y="-1278.9" font-family="Consolas" font-size="12.00">string debugName</text>
<text text-anchor="start" x="491" y="-1261.9" font-family="Consolas" font-size="12.00">+</text>
<text text-anchor="start" x="503" y="-1261.9" font-family="Consolas" font-size="12.00">ItemCategory type</text>
<text text-anchor="start" x="491" y="-1244.9" font-family="Consolas" font-size="12.00">+</text>
<text text-anchor="start" x="503" y="-1244.9" font-family="Consolas" font-size="12.00">float temperatureMin</text>
<text text-anchor="start" x="491" y="-1227.9" font-family="Consolas" font-size="12.00">+</text>
<text text-anchor="start" x="503" y="-1227.9" font-family="Consolas" font-size="12.00">float temperatureMax</text>
<text text-anchor="start" x="491" y="-1210.9" font-family="Consolas" font-size="12.00">+</text>
<text text-anchor="start" x="503" y="-1210.9" font-family="Consolas" font-size="12.00">int shape</text>
<text text-anchor="start" x="491" y="-1193.9" font-family="Consolas" font-size="12.00">+</text>
<text text-anchor="start" x="503" y="-1193.9" font-family="Consolas" font-size="12.00">int costBase</text>
<text text-anchor="start" x="491" y="-1176.9" font-family="Consolas" font-size="12.00">+</text>
<text text-anchor="start" x="503" y="-1176.9" font-family="Consolas" font-size="12.00">int capacity</text>
<text text-anchor="start" x="491" y="-1159.9" font-family="Consolas" font-size="12.00">+</text>
<text text-anchor="start" x="503" y="-1159.9" font-family="Consolas" font-size="12.00">int costMin</text>
<text text-anchor="start" x="491" y="-1142.9" font-family="Consolas" font-size="12.00">+</text>
<text text-anchor="start" x="503" y="-1142.9" font-family="Consolas" font-size="12.00">float costChangerate</text>
<text text-anchor="start" x="491" y="-1125.9" font-family="Consolas" font-size="12.00">+</text>
<text text-anchor="start" x="503" y="-1125.9" font-family="Consolas" font-size="12.00">int costMax</text>
<text text-anchor="start" x="491" y="-1108.9" font-family="Consolas" font-size="12.00">+</text>
<text text-anchor="start" x="503" y="-1108.9" font-family="Consolas" font-size="12.00">string description</text>
<text text-anchor="start" x="491" y="-1091.9" font-family="Consolas" font-size="12.00">+</text>
<text text-anchor="start" x="503" y="-1091.9" font-family="Consolas" font-size="12.00">Sprite itemSprite</text>
<text text-anchor="start" x="491" y="-1074.9" font-family="Consolas" font-size="12.00">+</text>
<text text-anchor="start" x="503" y="-1074.9" font-family="Consolas" font-size="12.00">int amount</text>
<text text-anchor="start" x="491" y="-1057.9" font-family="Consolas" font-size="12.00">+</text>
<text text-anchor="start" x="503" y="-1057.9" font-family="Consolas" font-size="12.00">int boughtCost</text>
<text text-anchor="start" x="568.5" y="-1040.9" font-family="Consolas" font-size="12.00"> </text>
<polygon fill="#bfbfbf" stroke="#bfbfbf" points="487,-1375.5 487,-1375.5 658,-1375.5 658,-1375.5 487,-1375.5"/>
<polygon fill="#bfbfbf" stroke="#bfbfbf" points="487,-1052.5 487,-1052.5 501,-1052.5 501,-1052.5 487,-1052.5"/>
<polygon fill="#bfbfbf" stroke="#bfbfbf" points="501,-1052.5 501,-1052.5 658,-1052.5 658,-1052.5 501,-1052.5"/>
<polygon fill="none" stroke="#bfbfbf" points="486.5,-1034 486.5,-1395 657.5,-1395 657.5,-1034 486.5,-1034"/>
</a>
</g>
</g>
<!-- Node8&#45;&gt;Node1 -->
<g id="edge12_Node000001_Node000008" class="edge">
<title>Node8&#45;&gt;Node1</title>
<g id="a_edge12_Node000001_Node000008"><a xlink:title=" ">
<path fill="none" stroke="#63b8ff" d="M599.02,-1033.82C599.72,-1027.81 600.38,-1021.86 601,-1016 617.61,-858.77 595.09,-816.44 624,-661 626.37,-648.24 629.06,-635.3 631.99,-622.28"/>
<polygon fill="none" stroke="#63b8ff" points="632.05,-621.99 629.5,-615.25 634.75,-610.3 637.3,-617.05 632.05,-621.99"/>
</a>
</g>
<text text-anchor="middle" x="694.5" y="-810.8" font-family="Consolas" font-size="14.00" fill="grey"> &#45;currentItemData</text>
</g>
<!-- Node8&#45;&gt;Node6 -->
<g id="edge8_Node000006_Node000008" class="edge">
<title>Node8&#45;&gt;Node6</title>
<g id="a_edge8_Node000006_Node000008"><a xlink:title=" ">
<path fill="none" stroke="#63b8ff" d="M486.34,-1073.5C474.72,-1054.23 463.02,-1034.66 452,-1016 444.87,-1003.92 437.54,-991.4 430.2,-978.78"/>
<polygon fill="none" stroke="#63b8ff" points="430.06,-978.55 423.59,-975.37 424.03,-968.17 430.51,-971.35 430.06,-978.55"/>
</a>
</g>
<text text-anchor="middle" x="526.5" y="-997.3" font-family="Consolas" font-size="14.00" fill="grey"> &#45;selectedItemData</text>
</g>
<!-- Node9 -->
<g id="Node000009" class="node">
<title>Node9</title>
<g id="a_Node000009"><a xlink:title=" ">
<polygon fill="white" stroke="transparent" points="637.5,-1487 506.5,-1487 506.5,-1432 637.5,-1432 637.5,-1487"/>
<text text-anchor="start" x="512" y="-1472.9" font-family="Consolas" font-size="12.00">ScriptableObject</text>
<text text-anchor="start" x="568.5" y="-1455.9" font-family="Consolas" font-size="12.00"> </text>
<text text-anchor="start" x="568.5" y="-1438.9" font-family="Consolas" font-size="12.00"> </text>
<polygon fill="#bfbfbf" stroke="#bfbfbf" points="507,-1467.5 507,-1467.5 638,-1467.5 638,-1467.5 507,-1467.5"/>
<polygon fill="#bfbfbf" stroke="#bfbfbf" points="507,-1450.5 507,-1450.5 638,-1450.5 638,-1450.5 507,-1450.5"/>
<polygon fill="none" stroke="#bfbfbf" points="506.5,-1432 506.5,-1487 637.5,-1487 637.5,-1432 506.5,-1432"/>
</a>
</g>
</g>
<!-- Node9&#45;&gt;Node8 -->
<g id="edge9_Node000008_Node000009" class="edge">
<title>Node9&#45;&gt;Node8</title>
<g id="a_edge9_Node000008_Node000009"><a xlink:title=" ">
<path fill="none" stroke="#63b8ff" d="M572,-1421.36C572,-1413.42 572,-1404.53 572,-1395.02"/>
<polygon fill="none" stroke="#63b8ff" points="568.5,-1421.57 572,-1431.57 575.5,-1421.57 568.5,-1421.57"/>
</a>
</g>
</g>
<!-- Node10&#45;&gt;Node6 -->
<g id="edge10_Node000006_Node000010" class="edge">
<title>Node10&#45;&gt;Node6</title>
<g id="a_edge10_Node000006_Node000010"><a xlink:title=" ">
<path fill="none" stroke="#63b8ff" d="M194.08,-1128.84C194.67,-1085.02 199.55,-1031.34 216,-986 216.81,-983.76 217.66,-981.52 218.55,-979.29"/>
<polygon fill="none" stroke="#63b8ff" points="218.58,-979.22 217.24,-972.13 223.26,-968.17 224.6,-975.26 218.58,-979.22"/>
</a>
</g>
<text text-anchor="middle" x="274" y="-997.3" font-family="Consolas" font-size="14.00" fill="grey"> &#45;tradeManager</text>
</g>
</g>
</svg>

<g id="navigator" transform="translate(0 0)" fill="#404254">
  <rect fill="#f2f5e9" fill-opacity="0.5" stroke="#606060" stroke-width=".5" x="0" y="0" width="60" height="60"/>
  <use id="zoomplus" xlink:href="#zoomPlus" x="17" y="9" onmousedown="handleZoom(evt,'in')"/>
  <use id="zoomminus" xlink:href="#zoomMin" x="42" y="9" onmousedown="handleZoom(evt,'out')"/>
  <use id="reset" xlink:href="#resetDef" x="30" y="36" onmousedown="handleReset()"/>
   <use id="arrowup" xlink:href="#arrowUp" x="0" y="0" onmousedown="handlePan(0,-1)"/>
  <use id="arrowright" xlink:href="#arrowRight" x="0" y="0" onmousedown="handlePan(1,0)"/>
  <use id="arrowdown" xlink:href="#arrowDown" x="0" y="0" onmousedown="handlePan(0,1)"/>
  <use id="arrowleft" xlink:href="#arrowLeft" x="0" y="0" onmousedown="handlePan(-1,0)"/>
</g>
<svg viewBox="0 0 15 15" width="100%" height="30px" preserveAspectRatio="xMaxYMin meet">
 <g id="arrow_out" transform="scale(0.3 0.3)">
  <a xlink:href="classInventoryItemUI__coll__graph_org.svg" target="_base">
   <rect id="button" ry="5" rx="5" y="6" x="6" height="38" width="38"
        fill="#f2f5e9" fill-opacity="0.5" stroke="#606060" stroke-width="1.0"/>
   <path id="arrow"
     d="M 11.500037,31.436501 C 11.940474,20.09759 22.043105,11.32322 32.158766,21.979434 L 37.068811,17.246167 C 37.068811,17.246167 37.088388,32 37.088388,32 L 22.160133,31.978069 C 22.160133,31.978069 26.997745,27.140456 26.997745,27.140456 C 18.528582,18.264221 13.291696,25.230495 11.500037,31.436501 z"
     style="fill:#404040;"/>
  </a>
 </g>
</svg>

<style type='text/css'>
<![CDATA[
[data-mouse-over-selected='false'] { opacity: 0.7; }
[data-mouse-over-selected='true']  { opacity: 1.0; }
]]>
</style>
<script type="application/ecmascript"><![CDATA[
document.addEventListener('DOMContentLoaded', (event) => {
  highlightEdges();
  highlightAdjacentNodes();
});
]]></script>
</svg>
