<?xml version="1.0" encoding="UTF-8" standalone="no"?>
<!DOCTYPE svg PUBLIC "-//W3C//DTD SVG 1.1//EN"
 "http://www.w3.org/Graphics/SVG/1.1/DTD/svg11.dtd">
<!-- Generated by graphviz version 2.43.0 (0)
 -->
<!-- Title: CrewDatabase.GetMaxSkillValue Pages: 1 -->
<svg width="745pt" height="82pt"
 viewBox="0.00 0.00 745.00 81.50" xmlns="http://www.w3.org/2000/svg" xmlns:xlink="http://www.w3.org/1999/xlink">
<g id="graph0" class="graph" transform="scale(1 1) rotate(0) translate(4 77.5)">
<title>CrewDatabase.GetMaxSkillValue</title>
<!-- Node1 -->
<g id="Node000001" class="node">
<title>Node1</title>
<g id="a_Node000001"><a xlink:title="특정 스킬의 최대값 반환">
<polygon fill="#999999" stroke="#666666" points="197,-50.5 0,-50.5 0,-16.5 197,-16.5 197,-50.5"/>
<text text-anchor="start" x="8" y="-36.9" font-family="Consolas" font-size="12.00">CrewDatabase.GetMaxSkill</text>
<text text-anchor="middle" x="98.5" y="-23.9" font-family="Consolas" font-size="12.00">Value</text>
</a>
</g>
</g>
<!-- Node2 -->
<g id="Node000002" class="node">
<title>Node2</title>
<g id="a_Node000002"><a xlink:href="classCrewDatabase_1_1RaceStat.html#ac871cd4710cf7eabdbc608959eb34a95" target="_top" xlink:title="숙련도 기관별 최대 숙련도를 호출합니다.">
<polygon fill="white" stroke="#666666" points="437,-73.5 233,-73.5 233,-39.5 437,-39.5 437,-73.5"/>
<text text-anchor="start" x="241" y="-59.9" font-family="Consolas" font-size="12.00">CrewDatabase.RaceStat.Get</text>
<text text-anchor="middle" x="335" y="-46.9" font-family="Consolas" font-size="12.00">MaxSkillValueDictionary</text>
</a>
</g>
</g>
<!-- Node1&#45;&gt;Node2 -->
<g id="edge1_Node000001_Node000002" class="edge">
<title>Node1&#45;&gt;Node2</title>
<g id="a_edge1_Node000001_Node000002"><a xlink:title=" ">
<path fill="none" stroke="#63b8ff" d="M197.25,-43.09C205.56,-43.9 214,-44.73 222.41,-45.55"/>
<polygon fill="#63b8ff" stroke="#63b8ff" points="222.34,-49.06 232.63,-46.56 223.02,-42.1 222.34,-49.06"/>
</a>
</g>
</g>
<!-- Node3 -->
<g id="Node000003" class="node">
<title>Node3</title>
<g id="a_Node000003"><a xlink:href="classCrewDatabase.html#a58573aedfbc3736438540c6f941d4b37" target="_top" xlink:title="특정 종족의 스탯 정보 반환">
<polygon fill="white" stroke="#666666" points="433.5,-21 236.5,-21 236.5,0 433.5,0 433.5,-21"/>
<text text-anchor="middle" x="335" y="-7.4" font-family="Consolas" font-size="12.00">CrewDatabase.GetRaceStat</text>
</a>
</g>
</g>
<!-- Node1&#45;&gt;Node3 -->
<g id="edge2_Node000001_Node000003" class="edge">
<title>Node1&#45;&gt;Node3</title>
<g id="a_edge2_Node000001_Node000003"><a xlink:title=" ">
<path fill="none" stroke="#63b8ff" d="M197.25,-23.91C206.86,-22.97 216.64,-22.01 226.34,-21.06"/>
<polygon fill="#63b8ff" stroke="#63b8ff" points="226.8,-24.53 236.41,-20.07 226.11,-17.56 226.8,-24.53"/>
</a>
</g>
</g>
<!-- Node4 -->
<g id="Node000004" class="node">
<title>Node4</title>
<g id="a_Node000004"><a xlink:href="classCrewDatabase.html#a86ca289b3e8d21ba57d41c8c77f6578c" target="_top" xlink:title="데이터베이스 초기화">
<polygon fill="white" stroke="#666666" points="737,-21 473,-21 473,0 737,0 737,-21"/>
<text text-anchor="middle" x="605" y="-7.4" font-family="Consolas" font-size="12.00">CrewDatabase.InitializeDictionary</text>
</a>
</g>
</g>
<!-- Node3&#45;&gt;Node4 -->
<g id="edge3_Node000003_Node000004" class="edge">
<title>Node3&#45;&gt;Node4</title>
<g id="a_edge3_Node000003_Node000004"><a xlink:title=" ">
<path fill="none" stroke="#63b8ff" d="M433.51,-10.5C442.95,-10.5 452.66,-10.5 462.41,-10.5"/>
<polygon fill="#63b8ff" stroke="#63b8ff" points="462.59,-14 472.59,-10.5 462.59,-7 462.59,-14"/>
</a>
</g>
</g>
</g>
</svg>
