<?xml version="1.0" encoding="UTF-8" standalone="no"?>
<!DOCTYPE svg PUBLIC "-//W3C//DTD SVG 1.1//EN"
 "http://www.w3.org/Graphics/SVG/1.1/DTD/svg11.dtd">
<!-- Generated by graphviz version 2.43.0 (0)
 -->
<!-- Title: BlueprintRoom.GetOccupiedTiles Pages: 1 -->
<svg width="955pt" height="94pt"
 viewBox="0.00 0.00 955.00 94.00" xmlns="http://www.w3.org/2000/svg" xmlns:xlink="http://www.w3.org/1999/xlink">
<g id="graph0" class="graph" transform="scale(1 1) rotate(0) translate(4 90)">
<title>BlueprintRoom.GetOccupiedTiles</title>
<!-- Node1 -->
<g id="Node000001" class="node">
<title>Node1</title>
<g id="a_Node000001"><a xlink:title="Blueprint Room이 점유하고 있는 타일 반환">
<polygon fill="#999999" stroke="#666666" points="947,-60 743,-60 743,-26 947,-26 947,-60"/>
<text text-anchor="start" x="751" y="-46.4" font-family="Consolas" font-size="12.00">BlueprintRoom.GetOccupied</text>
<text text-anchor="middle" x="845" y="-33.4" font-family="Consolas" font-size="12.00">Tiles</text>
</a>
</g>
</g>
<!-- Node2 -->
<g id="Node000002" class="node">
<title>Node2</title>
<g id="a_Node000002"><a xlink:href="classGridPlacer.html#ab8195ca82a446385a2c7defcf3467d24" target="_top" xlink:title="기존 소유 함선을 이루는 방들의 중심으로 카메라 시작 위치 보정">
<polygon fill="white" stroke="#666666" points="707,-60 503,-60 503,-26 707,-26 707,-60"/>
<text text-anchor="start" x="511" y="-46.4" font-family="Consolas" font-size="12.00">GridPlacer.GetCameraStart</text>
<text text-anchor="middle" x="605" y="-33.4" font-family="Consolas" font-size="12.00">PositionToOriginShip</text>
</a>
</g>
</g>
<!-- Node1&#45;&gt;Node2 -->
<g id="edge1_Node000001_Node000002" class="edge">
<title>Node1&#45;&gt;Node2</title>
<g id="a_edge1_Node000001_Node000002"><a xlink:title=" ">
<path fill="none" stroke="#63b8ff" d="M732.47,-43C724.04,-43 715.55,-43 707.19,-43"/>
<polygon fill="#63b8ff" stroke="#63b8ff" points="732.72,-46.5 742.72,-43 732.72,-39.5 732.72,-46.5"/>
</a>
</g>
</g>
<!-- Node3 -->
<g id="Node000003" class="node">
<title>Node3</title>
<g id="a_Node000003"><a xlink:href="classCustomize__1__Controller.html#aeefc317aca4eeac648711932c7eebd11" target="_top" xlink:title="카메라 기본 세팅으로 복구">
<polygon fill="white" stroke="#666666" points="467,-86 240,-86 240,-52 467,-52 467,-86"/>
<text text-anchor="start" x="248" y="-72.4" font-family="Consolas" font-size="12.00">Customize_1_Controller.Reset</text>
<text text-anchor="middle" x="353.5" y="-59.4" font-family="Consolas" font-size="12.00">CameraToOriginShip</text>
</a>
</g>
</g>
<!-- Node2&#45;&gt;Node3 -->
<g id="edge2_Node000002_Node000003" class="edge">
<title>Node2&#45;&gt;Node3</title>
<g id="a_edge2_Node000002_Node000003"><a xlink:title=" ">
<path fill="none" stroke="#63b8ff" d="M492.9,-54.58C484.36,-55.47 475.74,-56.37 467.19,-57.26"/>
<polygon fill="#63b8ff" stroke="#63b8ff" points="493.3,-58.06 502.88,-53.54 492.57,-51.09 493.3,-58.06"/>
</a>
</g>
</g>
<!-- Node5 -->
<g id="Node000005" class="node">
<title>Node5</title>
<g id="a_Node000005"><a xlink:href="classCustomizeShipUIHandler.html#a879fbb6d240f6283df43ef8bb2f7378b" target="_top" xlink:title="카메라 기본 세팅으로 복구">
<polygon fill="white" stroke="#666666" points="467,-34 240,-34 240,0 467,0 467,-34"/>
<text text-anchor="start" x="248" y="-20.4" font-family="Consolas" font-size="12.00">CustomizeShipUIHandler.Reset</text>
<text text-anchor="middle" x="353.5" y="-7.4" font-family="Consolas" font-size="12.00">CameraToOriginShip</text>
</a>
</g>
</g>
<!-- Node2&#45;&gt;Node5 -->
<g id="edge4_Node000002_Node000005" class="edge">
<title>Node2&#45;&gt;Node5</title>
<g id="a_edge4_Node000002_Node000005"><a xlink:title=" ">
<path fill="none" stroke="#63b8ff" d="M492.9,-31.42C484.36,-30.53 475.74,-29.63 467.19,-28.74"/>
<polygon fill="#63b8ff" stroke="#63b8ff" points="492.57,-34.91 502.88,-32.46 493.3,-27.94 492.57,-34.91"/>
</a>
</g>
</g>
<!-- Node4 -->
<g id="Node000004" class="node">
<title>Node4</title>
<g id="a_Node000004"><a xlink:href="classCustomize__1__Controller.html#ad205a3e7f14530fc11520997da42a8eb" target="_top" xlink:title="CustomizeShipUI 비활성화 시 아래 작업 수행 : 그리드 저장 오브젝트 비활성화 설계도 설치한 방 데이터 모두 저장 후 제거">
<polygon fill="white" stroke="#666666" points="204,-86 0,-86 0,-52 204,-52 204,-86"/>
<text text-anchor="start" x="8" y="-72.4" font-family="Consolas" font-size="12.00">Customize_1_Controller.On</text>
<text text-anchor="middle" x="102" y="-59.4" font-family="Consolas" font-size="12.00">Disable</text>
</a>
</g>
</g>
<!-- Node3&#45;&gt;Node4 -->
<g id="edge3_Node000003_Node000004" class="edge">
<title>Node3&#45;&gt;Node4</title>
<g id="a_edge3_Node000003_Node000004"><a xlink:title=" ">
<path fill="none" stroke="#63b8ff" d="M229.74,-69C221.17,-69 212.58,-69 204.15,-69"/>
<polygon fill="#63b8ff" stroke="#63b8ff" points="229.79,-72.5 239.79,-69 229.79,-65.5 229.79,-72.5"/>
</a>
</g>
</g>
<!-- Node6 -->
<g id="Node000006" class="node">
<title>Node6</title>
<g id="a_Node000006"><a xlink:href="classCustomizeShipUIHandler.html#a8e6c0d938789d432de979473f3b43ced" target="_top" xlink:title="CustomizeShipUI 비활성화 시 아래 작업 수행 : 그리드 저장 오브젝트 비활성화 설계도 설치한 방 데이터 모두 저장 후 제거">
<polygon fill="white" stroke="#666666" points="204,-34 0,-34 0,0 204,0 204,-34"/>
<text text-anchor="start" x="8" y="-20.4" font-family="Consolas" font-size="12.00">CustomizeShipUIHandler.On</text>
<text text-anchor="middle" x="102" y="-7.4" font-family="Consolas" font-size="12.00">Disable</text>
</a>
</g>
</g>
<!-- Node5&#45;&gt;Node6 -->
<g id="edge5_Node000005_Node000006" class="edge">
<title>Node5&#45;&gt;Node6</title>
<g id="a_edge5_Node000005_Node000006"><a xlink:title=" ">
<path fill="none" stroke="#63b8ff" d="M229.74,-17C221.17,-17 212.58,-17 204.15,-17"/>
<polygon fill="#63b8ff" stroke="#63b8ff" points="229.79,-20.5 239.79,-17 229.79,-13.5 229.79,-20.5"/>
</a>
</g>
</g>
</g>
</svg>
