<?xml version="1.0" encoding="UTF-8" standalone="no"?>
<!DOCTYPE svg PUBLIC "-//W3C//DTD SVG 1.1//EN"
 "http://www.w3.org/Graphics/SVG/1.1/DTD/svg11.dtd">
<!-- Generated by graphviz version 2.43.0 (0)
 -->
<!-- Title: EquipmentIconButton Pages: 1 -->
<svg width="269pt" height="227pt"
 viewBox="0.00 0.00 269.00 227.00" xmlns="http://www.w3.org/2000/svg" xmlns:xlink="http://www.w3.org/1999/xlink">
<g id="graph0" class="graph" transform="scale(1 1) rotate(0) translate(4 223)">
<title>EquipmentIconButton</title>
<!-- Node1 -->
<g id="Node000001" class="node">
<title>Node1</title>
<g id="a_Node000001"><a xlink:title=" ">
<polygon fill="#999999" stroke="transparent" points="261,-128 0,-128 0,0 261,0 261,-128"/>
<text text-anchor="start" x="59.5" y="-114.4" font-family="Consolas" font-size="12.00">EquipmentIconButton</text>
<text text-anchor="start" x="4.5" y="-97.4" font-family="Consolas" font-size="12.00">+</text>
<text text-anchor="start" x="16.5" y="-97.4" font-family="Consolas" font-size="12.00">Image iconImage</text>
<text text-anchor="start" x="4.5" y="-80.4" font-family="Consolas" font-size="12.00">&#45;</text>
<text text-anchor="start" x="16.5" y="-80.4" font-family="Consolas" font-size="12.00">EquipmentItem eqItem</text>
<text text-anchor="start" x="4.5" y="-63.4" font-family="Consolas" font-size="12.00">&#45;</text>
<text text-anchor="start" x="16.5" y="-63.4" font-family="Consolas" font-size="12.00">Action&lt; EquipmentItem</text>
<text text-anchor="start" x="16.5" y="-50.4" font-family="Consolas" font-size="12.00"> &gt; onClick</text>
<text text-anchor="start" x="4.5" y="-33.4" font-family="Consolas" font-size="12.00">+</text>
<text text-anchor="start" x="16.5" y="-33.4" font-family="Consolas" font-size="12.00">void Initialize(Equipment</text>
<text text-anchor="start" x="16.5" y="-20.4" font-family="Consolas" font-size="12.00">Item item, Action&lt; EquipmentItem</text>
<text text-anchor="start" x="16.5" y="-7.4" font-family="Consolas" font-size="12.00"> &gt; onClickAction)</text>
<polygon fill="#666666" stroke="#666666" points="0.5,-109 0.5,-109 261.5,-109 261.5,-109 0.5,-109"/>
<polygon fill="#666666" stroke="#666666" points="0.5,-45 0.5,-45 14.5,-45 14.5,-45 0.5,-45"/>
<polygon fill="#666666" stroke="#666666" points="14.5,-45 14.5,-45 261.5,-45 261.5,-45 14.5,-45"/>
<polygon fill="none" stroke="#666666" points="0,0 0,-128 261,-128 261,0 0,0"/>
</a>
</g>
</g>
<!-- Node2 -->
<g id="Node000002" class="node">
<title>Node2</title>
<g id="a_Node000002"><a xlink:title=" ">
<polygon fill="white" stroke="transparent" points="184.5,-219 76.5,-219 76.5,-164 184.5,-164 184.5,-219"/>
<text text-anchor="start" x="81.5" y="-204.9" font-family="Consolas" font-size="12.00">MonoBehaviour</text>
<text text-anchor="start" x="126.5" y="-187.9" font-family="Consolas" font-size="12.00"> </text>
<text text-anchor="start" x="126.5" y="-170.9" font-family="Consolas" font-size="12.00"> </text>
<polygon fill="#bfbfbf" stroke="#bfbfbf" points="76.5,-199.5 76.5,-199.5 184.5,-199.5 184.5,-199.5 76.5,-199.5"/>
<polygon fill="#bfbfbf" stroke="#bfbfbf" points="76.5,-182.5 76.5,-182.5 184.5,-182.5 184.5,-182.5 76.5,-182.5"/>
<polygon fill="none" stroke="#bfbfbf" points="76.5,-164 76.5,-219 184.5,-219 184.5,-164 76.5,-164"/>
</a>
</g>
</g>
<!-- Node2&#45;&gt;Node1 -->
<g id="edge1_Node000001_Node000002" class="edge">
<title>Node2&#45;&gt;Node1</title>
<g id="a_edge1_Node000001_Node000002"><a xlink:title=" ">
<path fill="none" stroke="#63b8ff" d="M130.5,-153.77C130.5,-145.73 130.5,-136.99 130.5,-128.24"/>
<polygon fill="none" stroke="#63b8ff" points="127,-153.88 130.5,-163.88 134,-153.88 127,-153.88"/>
</a>
</g>
</g>
</g>
</svg>
