<?xml version="1.0" encoding="UTF-8" standalone="no"?>
<!DOCTYPE svg PUBLIC "-//W3C//DTD SVG 1.1//EN"
 "http://www.w3.org/Graphics/SVG/1.1/DTD/svg11.dtd">
<!-- Generated by graphviz version 2.43.0 (0)
 -->
<!-- Title: Ship.GetRandomTargetPosition Pages: 1 -->
<svg width="700pt" height="68pt"
 viewBox="0.00 0.00 700.00 68.00" xmlns="http://www.w3.org/2000/svg" xmlns:xlink="http://www.w3.org/1999/xlink">
<g id="graph0" class="graph" transform="scale(1 1) rotate(0) translate(4 64)">
<title>Ship.GetRandomTargetPosition</title>
<!-- Node1 -->
<g id="Node000001" class="node">
<title>Node1</title>
<g id="a_Node000001"><a xlink:title="무작위로 타겟팅 가능한 방의 위치를 반환합니다. 방이 없는 경우 (모두 파괴되었거나 타겟 불가) Vector2Int.zero를 반환합니다.">
<polygon fill="#999999" stroke="#666666" points="227,-40 0,-40 0,-19 227,-19 227,-40"/>
<text text-anchor="middle" x="113.5" y="-26.4" font-family="Consolas" font-size="12.00">Ship.GetRandomTargetPosition</text>
</a>
</g>
</g>
<!-- Node2 -->
<g id="Node000002" class="node">
<title>Node2</title>
<g id="a_Node000002"><a xlink:href="classRoom.html#a18ac2f2af25dbf2e6181db75eab061ae" target="_top" xlink:title="회전각을 고려하여 방의 점유 타일 반환">
<polygon fill="white" stroke="#666666" points="437,-40 263,-40 263,-19 437,-19 437,-40"/>
<text text-anchor="middle" x="350" y="-26.4" font-family="Consolas" font-size="12.00">Room.GetOccupiedTiles</text>
</a>
</g>
</g>
<!-- Node1&#45;&gt;Node2 -->
<g id="edge1_Node000001_Node000002" class="edge">
<title>Node1&#45;&gt;Node2</title>
<g id="a_edge1_Node000001_Node000002"><a xlink:title=" ">
<path fill="none" stroke="#63b8ff" d="M227.29,-29.5C235.79,-29.5 244.33,-29.5 252.73,-29.5"/>
<polygon fill="#63b8ff" stroke="#63b8ff" points="252.88,-33 262.88,-29.5 252.88,-26 252.88,-33"/>
</a>
</g>
</g>
<!-- Node3 -->
<g id="Node000003" class="node">
<title>Node3</title>
<g id="a_Node000003"><a xlink:href="classRoom.html#ae14b08f3ba19cce81b077d6fefcb1fd5" target="_top" xlink:title="현재 업그레이드 레벨을 반환합니다.">
<polygon fill="white" stroke="#666666" points="666,-60 499,-60 499,-39 666,-39 666,-60"/>
<text text-anchor="middle" x="582.5" y="-46.4" font-family="Consolas" font-size="12.00">Room.GetCurrentLevel</text>
</a>
</g>
</g>
<!-- Node2&#45;&gt;Node3 -->
<g id="edge2_Node000002_Node000003" class="edge">
<title>Node2&#45;&gt;Node3</title>
<g id="a_edge2_Node000002_Node000003"><a xlink:title=" ">
<path fill="none" stroke="#63b8ff" d="M437.16,-36.98C454.05,-38.44 471.83,-39.98 488.92,-41.47"/>
<polygon fill="#63b8ff" stroke="#63b8ff" points="488.62,-44.95 498.89,-42.33 489.23,-37.98 488.62,-44.95"/>
</a>
</g>
</g>
<!-- Node4 -->
<g id="Node000004" class="node">
<title>Node4</title>
<g id="a_Node000004"><a xlink:href="classRoomData.html#a93ada549c4d197d14917913e944f46c2" target="_top" xlink:title="주어진 레벨에 해당하는 RoomLevel 데이터를 반환합니다. 각 파생 클래스에서 구현해야 합니다.">
<polygon fill="white" stroke="#666666" points="692,-21 473,-21 473,0 692,0 692,-21"/>
<text text-anchor="middle" x="582.5" y="-7.4" font-family="Consolas" font-size="12.00">RoomData.GetRoomDataByLevel</text>
</a>
</g>
</g>
<!-- Node2&#45;&gt;Node4 -->
<g id="edge3_Node000002_Node000004" class="edge">
<title>Node2&#45;&gt;Node4</title>
<g id="a_edge3_Node000002_Node000004"><a xlink:title=" ">
<path fill="none" stroke="#63b8ff" d="M437.16,-22.4C445.52,-21.71 454.1,-21 462.71,-20.29"/>
<polygon fill="#63b8ff" stroke="#63b8ff" points="463.14,-23.77 472.82,-19.46 462.56,-16.79 463.14,-23.77"/>
</a>
</g>
</g>
</g>
</svg>
