<?xml version="1.0" encoding="UTF-8" standalone="no"?>
<!DOCTYPE svg PUBLIC "-//W3C//DTD SVG 1.1//EN"
 "http://www.w3.org/Graphics/SVG/1.1/DTD/svg11.dtd">
<!-- Generated by graphviz version 2.43.0 (0)
 -->
<!-- Title: CrewInfoWrapper Pages: 1 -->
<svg width="158pt" height="448pt"
 viewBox="0.00 0.00 158.00 448.00" xmlns="http://www.w3.org/2000/svg" xmlns:xlink="http://www.w3.org/1999/xlink">
<g id="graph0" class="graph" transform="scale(1 1) rotate(0) translate(4 444)">
<title>CrewInfoWrapper</title>
<!-- Node1 -->
<g id="Node000001" class="node">
<title>Node1</title>
<g id="a_Node000001"><a xlink:title="크루 유형별 스탯 데이터를 저장하는 래퍼 클래스. JSON 구조 상 최상단에 위치하며, 각 유형별로 CrewData를 포함합니다.">
<polygon fill="#999999" stroke="transparent" points="131.5,-55 8.5,-55 8.5,0 131.5,0 131.5,-55"/>
<text text-anchor="start" x="14" y="-40.9" font-family="Consolas" font-size="12.00">CrewInfoWrapper</text>
<text text-anchor="start" x="66.5" y="-23.9" font-family="Consolas" font-size="12.00"> </text>
<text text-anchor="start" x="66.5" y="-6.9" font-family="Consolas" font-size="12.00"> </text>
<polygon fill="#666666" stroke="#666666" points="9,-35.5 9,-35.5 132,-35.5 132,-35.5 9,-35.5"/>
<polygon fill="#666666" stroke="#666666" points="9,-18.5 9,-18.5 132,-18.5 132,-18.5 9,-18.5"/>
<polygon fill="none" stroke="#666666" points="8.5,0 8.5,-55 131.5,-55 131.5,0 8.5,0"/>
</a>
</g>
</g>
<!-- Node2 -->
<g id="Node000002" class="node">
<title>Node2</title>
<g id="a_Node000002"><a xlink:href="classCrewData.html" target="_top" xlink:title="크루원(승무원)의 능력치 및 숙련도 정보를 담는 데이터 클래스. 저장 및 로드 시 JSON 직렬화에 사용됩니다.">
<polygon fill="white" stroke="transparent" points="140,-440 0,-440 0,-181 140,-181 140,-440"/>
<text text-anchor="start" x="39.5" y="-425.9" font-family="Consolas" font-size="12.00">CrewData</text>
<text text-anchor="start" x="4" y="-408.9" font-family="Consolas" font-size="12.00">+</text>
<text text-anchor="start" x="16" y="-408.9" font-family="Consolas" font-size="12.00">int 공격력</text>
<text text-anchor="start" x="4" y="-391.9" font-family="Consolas" font-size="12.00">+</text>
<text text-anchor="start" x="16" y="-391.9" font-family="Consolas" font-size="12.00">int 방어력</text>
<text text-anchor="start" x="4" y="-374.9" font-family="Consolas" font-size="12.00">+</text>
<text text-anchor="start" x="16" y="-374.9" font-family="Consolas" font-size="12.00">int 체력</text>
<text text-anchor="start" x="4" y="-357.9" font-family="Consolas" font-size="12.00">+</text>
<text text-anchor="start" x="16" y="-357.9" font-family="Consolas" font-size="12.00">float 학습속도</text>
<text text-anchor="start" x="4" y="-340.9" font-family="Consolas" font-size="12.00">+</text>
<text text-anchor="start" x="16" y="-340.9" font-family="Consolas" font-size="12.00">string 산소호흡</text>
<text text-anchor="start" x="4" y="-323.9" font-family="Consolas" font-size="12.00">+</text>
<text text-anchor="start" x="16" y="-323.9" font-family="Consolas" font-size="12.00">int 조종실숙련도</text>
<text text-anchor="start" x="4" y="-306.9" font-family="Consolas" font-size="12.00">+</text>
<text text-anchor="start" x="16" y="-306.9" font-family="Consolas" font-size="12.00">int 엔진실숙련도</text>
<text text-anchor="start" x="4" y="-289.9" font-family="Consolas" font-size="12.00">+</text>
<text text-anchor="start" x="16" y="-289.9" font-family="Consolas" font-size="12.00">int 전력실숙련도</text>
<text text-anchor="start" x="4" y="-272.9" font-family="Consolas" font-size="12.00">+</text>
<text text-anchor="start" x="16" y="-272.9" font-family="Consolas" font-size="12.00">int 배리어실숙련도</text>
<text text-anchor="start" x="4" y="-255.9" font-family="Consolas" font-size="12.00">+</text>
<text text-anchor="start" x="16" y="-255.9" font-family="Consolas" font-size="12.00">int 조준석숙련도</text>
<text text-anchor="start" x="4" y="-238.9" font-family="Consolas" font-size="12.00">+</text>
<text text-anchor="start" x="16" y="-238.9" font-family="Consolas" font-size="12.00">int 탄약고숙련도</text>
<text text-anchor="start" x="4" y="-221.9" font-family="Consolas" font-size="12.00">+</text>
<text text-anchor="start" x="16" y="-221.9" font-family="Consolas" font-size="12.00">int 의무실숙련도</text>
<text text-anchor="start" x="4" y="-204.9" font-family="Consolas" font-size="12.00">+</text>
<text text-anchor="start" x="16" y="-204.9" font-family="Consolas" font-size="12.00">string 수리숙련도</text>
<text text-anchor="start" x="66" y="-187.9" font-family="Consolas" font-size="12.00"> </text>
<polygon fill="#666666" stroke="#666666" points="0,-420.5 0,-420.5 140,-420.5 140,-420.5 0,-420.5"/>
<polygon fill="#666666" stroke="#666666" points="0,-199.5 0,-199.5 14,-199.5 14,-199.5 0,-199.5"/>
<polygon fill="#666666" stroke="#666666" points="14,-199.5 14,-199.5 140,-199.5 140,-199.5 14,-199.5"/>
<polygon fill="none" stroke="#666666" points="0,-181 0,-440 140,-440 140,-181 0,-181"/>
</a>
</g>
</g>
<!-- Node2&#45;&gt;Node1 -->
<g id="edge1_Node000001_Node000002" class="edge">
<title>Node2&#45;&gt;Node1</title>
<g id="a_edge1_Node000001_Node000002"><a xlink:title=" ">
<path fill="none" stroke="#63b8ff" d="M70,-180.92C70,-139.63 70,-96.96 70,-67.31"/>
<polygon fill="none" stroke="#63b8ff" points="70,-67.04 66,-61.04 70,-55.04 74,-61.04 70,-67.04"/>
</a>
</g>
<text text-anchor="middle" x="110" y="-151.8" font-family="Consolas" font-size="14.00" fill="grey"> +곤충형</text>
<text text-anchor="middle" x="110" y="-136.8" font-family="Consolas" font-size="14.00" fill="grey">+돌격기계형</text>
<text text-anchor="middle" x="110" y="-121.8" font-family="Consolas" font-size="14.00" fill="grey">+부정형</text>
<text text-anchor="middle" x="110" y="-106.8" font-family="Consolas" font-size="14.00" fill="grey">+인간형</text>
<text text-anchor="middle" x="110" y="-91.8" font-family="Consolas" font-size="14.00" fill="grey">+지원기계형</text>
<text text-anchor="middle" x="110" y="-76.8" font-family="Consolas" font-size="14.00" fill="grey">+짐승형</text>
</g>
</g>
</svg>
