<?xml version="1.0" encoding="UTF-8" standalone="no"?>
<!DOCTYPE svg PUBLIC "-//W3C//DTD SVG 1.1//EN"
 "http://www.w3.org/Graphics/SVG/1.1/DTD/svg11.dtd">
<!-- Generated by graphviz version 2.43.0 (0)
 -->
<!-- Title: ES3Types.ES3Type_Nullable Pages: 1 -->
<svg width="254pt" height="877pt"
 viewBox="0.00 0.00 254.00 877.00" xmlns="http://www.w3.org/2000/svg" xmlns:xlink="http://www.w3.org/1999/xlink">
<g id="graph0" class="graph" transform="scale(1 1) rotate(0) translate(4 873)">
<title>ES3Types.ES3Type_Nullable</title>
<!-- Node1 -->
<g id="Node000001" class="node">
<title>Node1</title>
<g id="a_Node000001"><a xlink:title=" ">
<polygon fill="#999999" stroke="transparent" points="231,-235 15,-235 15,0 231,0 231,-235"/>
<text text-anchor="start" x="29" y="-220.9" font-family="Consolas" font-size="12.00">ES3Types.ES3Type_Nullable</text>
<text text-anchor="start" x="19" y="-203.9" font-family="Consolas" font-size="12.00">+</text>
<text text-anchor="start" x="31" y="-203.9" font-family="Consolas" font-size="12.00">ES3Type argumentES3Type</text>
<text text-anchor="start" x="19" y="-186.9" font-family="Consolas" font-size="12.00">+</text>
<text text-anchor="start" x="31" y="-186.9" font-family="Consolas" font-size="12.00">Type genericArgument</text>
<text text-anchor="start" x="19" y="-169.9" font-family="Consolas" font-size="12.00">&#45;</text>
<text text-anchor="start" x="31" y="-169.9" font-family="Consolas" font-size="12.00">ES3Reflection.ES3Reflected</text>
<text text-anchor="start" x="31" y="-156.9" font-family="Consolas" font-size="12.00">Member hasValueProperty</text>
<text text-anchor="start" x="19" y="-139.9" font-family="Consolas" font-size="12.00">&#45;</text>
<text text-anchor="start" x="31" y="-139.9" font-family="Consolas" font-size="12.00">ES3Reflection.ES3Reflected</text>
<text text-anchor="start" x="31" y="-126.9" font-family="Consolas" font-size="12.00">Member valueProperty</text>
<text text-anchor="start" x="19" y="-109.9" font-family="Consolas" font-size="12.00">+</text>
<text text-anchor="start" x="31" y="-109.9" font-family="Consolas" font-size="12.00">ES3Type_Nullable()</text>
<text text-anchor="start" x="19" y="-92.9" font-family="Consolas" font-size="12.00">+</text>
<text text-anchor="start" x="31" y="-92.9" font-family="Consolas" font-size="12.00">ES3Type_Nullable(Type</text>
<text text-anchor="start" x="31" y="-79.9" font-family="Consolas" font-size="12.00"> type)</text>
<text text-anchor="start" x="19" y="-62.9" font-family="Consolas" font-size="12.00">+</text>
<text text-anchor="start" x="31" y="-62.9" font-family="Consolas" font-size="12.00">override void Write</text>
<text text-anchor="start" x="31" y="-49.9" font-family="Consolas" font-size="12.00">(object obj, ES3Writer</text>
<text text-anchor="start" x="31" y="-36.9" font-family="Consolas" font-size="12.00"> writer)</text>
<text text-anchor="start" x="19" y="-19.9" font-family="Consolas" font-size="12.00">+</text>
<text text-anchor="start" x="31" y="-19.9" font-family="Consolas" font-size="12.00">override object Read</text>
<text text-anchor="start" x="31" y="-6.9" font-family="Consolas" font-size="12.00">&lt; T &gt;(ES3Reader reader)</text>
<polygon fill="#666666" stroke="#666666" points="15,-215.5 15,-215.5 231,-215.5 231,-215.5 15,-215.5"/>
<polygon fill="#666666" stroke="#666666" points="15,-121.5 15,-121.5 29,-121.5 29,-121.5 15,-121.5"/>
<polygon fill="#666666" stroke="#666666" points="29,-121.5 29,-121.5 231,-121.5 231,-121.5 29,-121.5"/>
<polygon fill="none" stroke="#666666" points="15,0 15,-235 231,-235 231,0 15,0"/>
</a>
</g>
</g>
<!-- Node2 -->
<g id="Node000002" class="node">
<title>Node2</title>
<g id="a_Node000002"><a xlink:href="classES3Types_1_1ES3Type.html" target="_top" xlink:title=" ">
<polygon fill="white" stroke="transparent" points="246,-869 0,-869 0,-271 246,-271 246,-869"/>
<text text-anchor="start" x="96.5" y="-855.4" font-family="Consolas" font-size="12.00">ES3Type</text>
<text text-anchor="start" x="4" y="-838.4" font-family="Consolas" font-size="12.00">+</text>
<text text-anchor="start" x="16" y="-838.4" font-family="Consolas" font-size="12.00">ES3Member[] members</text>
<text text-anchor="start" x="4" y="-821.4" font-family="Consolas" font-size="12.00">+</text>
<text text-anchor="start" x="16" y="-821.4" font-family="Consolas" font-size="12.00">Type type</text>
<text text-anchor="start" x="4" y="-804.4" font-family="Consolas" font-size="12.00">+</text>
<text text-anchor="start" x="16" y="-804.4" font-family="Consolas" font-size="12.00">bool isPrimitive</text>
<text text-anchor="start" x="4" y="-787.4" font-family="Consolas" font-size="12.00">+</text>
<text text-anchor="start" x="16" y="-787.4" font-family="Consolas" font-size="12.00">bool isValueType</text>
<text text-anchor="start" x="4" y="-770.4" font-family="Consolas" font-size="12.00">+</text>
<text text-anchor="start" x="16" y="-770.4" font-family="Consolas" font-size="12.00">bool isCollection</text>
<text text-anchor="start" x="4" y="-753.4" font-family="Consolas" font-size="12.00">+</text>
<text text-anchor="start" x="16" y="-753.4" font-family="Consolas" font-size="12.00">bool isDictionary</text>
<text text-anchor="start" x="4" y="-736.4" font-family="Consolas" font-size="12.00">+</text>
<text text-anchor="start" x="16" y="-736.4" font-family="Consolas" font-size="12.00">bool isTuple</text>
<text text-anchor="start" x="4" y="-719.4" font-family="Consolas" font-size="12.00">+</text>
<text text-anchor="start" x="16" y="-719.4" font-family="Consolas" font-size="12.00">bool isEnum</text>
<text text-anchor="start" x="4" y="-702.4" font-family="Consolas" font-size="12.00">+</text>
<text text-anchor="start" x="16" y="-702.4" font-family="Consolas" font-size="12.00">bool isES3TypeUnityObject</text>
<text text-anchor="start" x="4" y="-685.4" font-family="Consolas" font-size="12.00">+</text>
<text text-anchor="start" x="16" y="-685.4" font-family="Consolas" font-size="12.00">bool isReflectedType</text>
<text text-anchor="start" x="4" y="-668.4" font-family="Consolas" font-size="12.00">+</text>
<text text-anchor="start" x="16" y="-668.4" font-family="Consolas" font-size="12.00">bool isUnsupported</text>
<text text-anchor="start" x="4" y="-651.4" font-family="Consolas" font-size="12.00">+</text>
<text text-anchor="start" x="16" y="-651.4" font-family="Consolas" font-size="12.00">int priority</text>
<text text-anchor="start" x="4" y="-634.4" font-family="Consolas" font-size="12.00">+</text>
<text text-anchor="start" x="16" y="-634.4" font-family="Consolas" font-size="12.00">const string typeFieldName</text>
<text text-anchor="start" x="4" y="-617.4" font-family="Consolas" font-size="12.00">+</text>
<text text-anchor="start" x="16" y="-617.4" font-family="Consolas" font-size="12.00">void Write(object obj,</text>
<text text-anchor="start" x="16" y="-604.4" font-family="Consolas" font-size="12.00"> ES3Writer writer)</text>
<text text-anchor="start" x="4" y="-587.4" font-family="Consolas" font-size="12.00">+</text>
<text text-anchor="start" x="16" y="-587.4" font-family="Consolas" font-size="12.00">object Read&lt; T &gt;(ES3Reader</text>
<text text-anchor="start" x="16" y="-574.4" font-family="Consolas" font-size="12.00"> reader)</text>
<text text-anchor="start" x="4" y="-557.4" font-family="Consolas" font-size="12.00">+</text>
<text text-anchor="start" x="16" y="-557.4" font-family="Consolas" font-size="12.00">virtual void ReadInto</text>
<text text-anchor="start" x="16" y="-544.4" font-family="Consolas" font-size="12.00">&lt; T &gt;(ES3Reader reader,</text>
<text text-anchor="start" x="16" y="-531.4" font-family="Consolas" font-size="12.00"> object obj)</text>
<text text-anchor="start" x="4" y="-514.4" font-family="Consolas" font-size="12.00">~</text>
<text text-anchor="start" x="16" y="-514.4" font-family="Consolas" font-size="12.00">string ReadPropertyName</text>
<text text-anchor="start" x="16" y="-501.4" font-family="Consolas" font-size="12.00">(ES3Reader reader)</text>
<text text-anchor="start" x="4" y="-484.4" font-family="Consolas" font-size="12.00">#</text>
<text text-anchor="start" x="16" y="-484.4" font-family="Consolas" font-size="12.00">ES3Type(Type type)</text>
<text text-anchor="start" x="4" y="-467.4" font-family="Consolas" font-size="12.00">#</text>
<text text-anchor="start" x="16" y="-467.4" font-family="Consolas" font-size="12.00">bool WriteUsingDerivedType</text>
<text text-anchor="start" x="16" y="-454.4" font-family="Consolas" font-size="12.00">(object obj, ES3Writer writer)</text>
<text text-anchor="start" x="4" y="-437.4" font-family="Consolas" font-size="12.00">#</text>
<text text-anchor="start" x="16" y="-437.4" font-family="Consolas" font-size="12.00">void ReadUsingDerivedType</text>
<text text-anchor="start" x="16" y="-424.4" font-family="Consolas" font-size="12.00">&lt; T &gt;(ES3Reader reader,</text>
<text text-anchor="start" x="16" y="-411.4" font-family="Consolas" font-size="12.00"> object obj)</text>
<text text-anchor="start" x="4" y="-394.4" font-family="Consolas" font-size="12.00">#</text>
<text text-anchor="start" x="16" y="-394.4" font-family="Consolas" font-size="12.00">void WriteProperties</text>
<text text-anchor="start" x="16" y="-381.4" font-family="Consolas" font-size="12.00">(object obj, ES3Writer</text>
<text text-anchor="start" x="16" y="-368.4" font-family="Consolas" font-size="12.00"> writer)</text>
<text text-anchor="start" x="4" y="-351.4" font-family="Consolas" font-size="12.00">#</text>
<text text-anchor="start" x="16" y="-351.4" font-family="Consolas" font-size="12.00">object ReadProperties</text>
<text text-anchor="start" x="16" y="-338.4" font-family="Consolas" font-size="12.00">(ES3Reader reader, object obj)</text>
<text text-anchor="start" x="4" y="-321.4" font-family="Consolas" font-size="12.00">#</text>
<text text-anchor="start" x="16" y="-321.4" font-family="Consolas" font-size="12.00">void GetMembers(bool</text>
<text text-anchor="start" x="16" y="-308.4" font-family="Consolas" font-size="12.00"> safe)</text>
<text text-anchor="start" x="4" y="-291.4" font-family="Consolas" font-size="12.00">#</text>
<text text-anchor="start" x="16" y="-291.4" font-family="Consolas" font-size="12.00">void GetMembers(bool</text>
<text text-anchor="start" x="16" y="-278.4" font-family="Consolas" font-size="12.00"> safe, string[] memberNames)</text>
<polygon fill="#bfbfbf" stroke="#bfbfbf" points="0,-850 0,-850 246,-850 246,-850 0,-850"/>
<polygon fill="#bfbfbf" stroke="#bfbfbf" points="0,-629 0,-629 14,-629 14,-629 0,-629"/>
<polygon fill="#bfbfbf" stroke="#bfbfbf" points="14,-629 14,-629 246,-629 246,-629 14,-629"/>
<polygon fill="none" stroke="#bfbfbf" points="0,-271 0,-869 246,-869 246,-271 0,-271"/>
</a>
</g>
</g>
<!-- Node2&#45;&gt;Node1 -->
<g id="edge1_Node000001_Node000002" class="edge">
<title>Node2&#45;&gt;Node1</title>
<g id="a_edge1_Node000001_Node000002"><a xlink:title=" ">
<path fill="none" stroke="#63b8ff" d="M123,-260.45C123,-251.78 123,-243.31 123,-235.09"/>
<polygon fill="none" stroke="#63b8ff" points="119.5,-260.7 123,-270.7 126.5,-260.7 119.5,-260.7"/>
</a>
</g>
</g>
</g>
</svg>
