<?xml version="1.0" encoding="UTF-8" standalone="no"?>
<!DOCTYPE svg PUBLIC "-//W3C//DTD SVG 1.1//EN"
 "http://www.w3.org/Graphics/SVG/1.1/DTD/svg11.dtd">
<!-- Generated by graphviz version 2.43.0 (0)
 -->
<!-- Title: SceneChanger.CombatDefeatedAndGoHome Pages: 1 -->
<svg width="1263pt" height="146pt"
 viewBox="0.00 0.00 1263.00 146.00" xmlns="http://www.w3.org/2000/svg" xmlns:xlink="http://www.w3.org/1999/xlink">
<g id="graph0" class="graph" transform="scale(1 1) rotate(0) translate(4 142)">
<title>SceneChanger.CombatDefeatedAndGoHome</title>
<!-- Node1 -->
<g id="Node000001" class="node">
<title>Node1</title>
<g id="a_Node000001"><a xlink:title="전투 종료 후 집으로 가라">
<polygon fill="#999999" stroke="#666666" points="219,-85.5 0,-85.5 0,-51.5 219,-51.5 219,-85.5"/>
<text text-anchor="start" x="8" y="-71.9" font-family="Consolas" font-size="12.00">SceneChanger.CombatDefeated</text>
<text text-anchor="middle" x="109.5" y="-58.9" font-family="Consolas" font-size="12.00">AndGoHome</text>
</a>
</g>
</g>
<!-- Node2 -->
<g id="Node000002" class="node">
<title>Node2</title>
<g id="a_Node000002"><a xlink:href="classSceneChanger.html#a414c25e36c5ac30a44e6af6238466b6c" target="_top" xlink:title="모선으로 복귀하라">
<polygon fill="white" stroke="#666666" points="467,-79 255,-79 255,-58 467,-58 467,-79"/>
<text text-anchor="middle" x="361" y="-65.4" font-family="Consolas" font-size="12.00">SceneChanger.BackToTheHome</text>
</a>
</g>
</g>
<!-- Node1&#45;&gt;Node2 -->
<g id="edge1_Node000001_Node000002" class="edge">
<title>Node1&#45;&gt;Node2</title>
<g id="a_edge1_Node000001_Node000002"><a xlink:title=" ">
<path fill="none" stroke="#63b8ff" d="M219.21,-68.5C227.61,-68.5 236.11,-68.5 244.56,-68.5"/>
<polygon fill="#63b8ff" stroke="#63b8ff" points="244.82,-72 254.82,-68.5 244.82,-65 244.82,-72"/>
</a>
</g>
</g>
<!-- Node3 -->
<g id="Node000003" class="node">
<title>Node3</title>
<g id="a_Node000003"><a xlink:href="classGameManager.html#a85d5dc59fb89b6d024434f2bbbd33df2" target="_top" xlink:title="게임 상태를 변경하고 상태에 따라 관련 처리를 수행합니다.">
<polygon fill="white" stroke="#666666" points="729.5,-138 510.5,-138 510.5,-117 729.5,-117 729.5,-138"/>
<text text-anchor="middle" x="620" y="-124.4" font-family="Consolas" font-size="12.00">GameManager.ChangeGameState</text>
</a>
</g>
</g>
<!-- Node2&#45;&gt;Node3 -->
<g id="edge2_Node000002_Node000003" class="edge">
<title>Node2&#45;&gt;Node3</title>
<g id="a_edge2_Node000002_Node000003"><a xlink:title=" ">
<path fill="none" stroke="#63b8ff" d="M395.06,-79.03C423.46,-87.81 465.62,-100.17 503,-108.5 513.86,-110.92 525.36,-113.17 536.73,-115.22"/>
<polygon fill="#63b8ff" stroke="#63b8ff" points="536.21,-118.68 546.67,-116.96 537.42,-111.79 536.21,-118.68"/>
</a>
</g>
</g>
<!-- Node5 -->
<g id="Node000005" class="node">
<title>Node5</title>
<g id="a_Node000005"><a xlink:href="classSceneChanger.html#a77f01b62ebf947ddd8022495d813b82d" target="_top" xlink:title="알파값 0 → 1 또는 1 → 0 페이드 효과">
<polygon fill="white" stroke="#666666" points="692,-99 548,-99 548,-78 692,-78 692,-99"/>
<text text-anchor="middle" x="620" y="-85.4" font-family="Consolas" font-size="12.00">SceneChanger.Fade</text>
</a>
</g>
</g>
<!-- Node2&#45;&gt;Node5 -->
<g id="edge4_Node000002_Node000005" class="edge">
<title>Node2&#45;&gt;Node5</title>
<g id="a_edge4_Node000002_Node000005"><a xlink:title=" ">
<path fill="none" stroke="#63b8ff" d="M467.27,-76.69C490.71,-78.52 515.22,-80.42 537.53,-82.16"/>
<polygon fill="#63b8ff" stroke="#63b8ff" points="537.38,-85.66 547.62,-82.95 537.92,-78.68 537.38,-85.66"/>
</a>
</g>
</g>
<!-- Node6 -->
<g id="Node000006" class="node">
<title>Node6</title>
<g id="a_Node000006"><a xlink:href="classGameManager.html#ad0e6a59004a4709bd6dc034be50e8a62" target="_top" xlink:title="게임 전체를 저장하는 함수. 워프를 할 때마다 떠야할 것이다.">
<polygon fill="white" stroke="#666666" points="718.5,-60 521.5,-60 521.5,-39 718.5,-39 718.5,-60"/>
<text text-anchor="middle" x="620" y="-46.4" font-family="Consolas" font-size="12.00">GameManager.SaveGameData</text>
</a>
</g>
</g>
<!-- Node2&#45;&gt;Node6 -->
<g id="edge5_Node000002_Node000006" class="edge">
<title>Node2&#45;&gt;Node6</title>
<g id="a_edge5_Node000002_Node000006"><a xlink:title=" ">
<path fill="none" stroke="#63b8ff" d="M467.27,-60.72C481.8,-59.64 496.74,-58.54 511.31,-57.46"/>
<polygon fill="#63b8ff" stroke="#63b8ff" points="511.62,-60.95 521.33,-56.72 511.1,-53.97 511.62,-60.95"/>
</a>
</g>
</g>
<!-- Node10 -->
<g id="Node000010" class="node">
<title>Node10</title>
<g id="a_Node000010"><a xlink:href="classSceneChanger.html#a8c868c1087cc7f9fde81da0e86c9c59a" target="_top" xlink:title="입력 차단/해제 설정">
<polygon fill="white" stroke="#666666" points="737,-21 503,-21 503,0 737,0 737,-21"/>
<text text-anchor="middle" x="620" y="-7.4" font-family="Consolas" font-size="12.00">SceneChanger.SetInputBlocking</text>
</a>
</g>
</g>
<!-- Node2&#45;&gt;Node10 -->
<g id="edge9_Node000002_Node000010" class="edge">
<title>Node2&#45;&gt;Node10</title>
<g id="a_edge9_Node000002_Node000010"><a xlink:title=" ">
<path fill="none" stroke="#63b8ff" d="M397.41,-57.98C425.8,-49.79 466.73,-38.5 503,-30.5 515.48,-27.75 528.79,-25.15 541.78,-22.79"/>
<polygon fill="#63b8ff" stroke="#63b8ff" points="542.4,-26.23 551.63,-21.03 541.17,-19.34 542.4,-26.23"/>
</a>
</g>
</g>
<!-- Node4 -->
<g id="Node000004" class="node">
<title>Node4</title>
<g id="a_Node000004"><a xlink:href="classGameManager.html#adaed5a79b89e21922f5c889c52cf9b7e" target="_top" xlink:title="게임 오버 상태 진입 시 호출됩니다. UI 업데이트, 점수 계산 등 게임 오버 관련 처리를 담당합니다.">
<polygon fill="white" stroke="#666666" points="985,-138 773,-138 773,-117 985,-117 985,-138"/>
<text text-anchor="middle" x="879" y="-124.4" font-family="Consolas" font-size="12.00">GameManager.HandleGameOver</text>
</a>
</g>
</g>
<!-- Node3&#45;&gt;Node4 -->
<g id="edge3_Node000003_Node000004" class="edge">
<title>Node3&#45;&gt;Node4</title>
<g id="a_edge3_Node000003_Node000004"><a xlink:title=" ">
<path fill="none" stroke="#63b8ff" d="M729.62,-127.5C740.53,-127.5 751.63,-127.5 762.61,-127.5"/>
<polygon fill="#63b8ff" stroke="#63b8ff" points="762.64,-131 772.64,-127.5 762.64,-124 762.64,-131"/>
</a>
</g>
</g>
<!-- Node7 -->
<g id="Node000007" class="node">
<title>Node7</title>
<g id="a_Node000007"><a xlink:href="classGameManager.html#a3f9d70e8b90c50d31469cf9b15bda527" target="_top" xlink:title="엔딩과 관련된 플레이어 데이터를 저장하는 함수.">
<polygon fill="white" stroke="#666666" points="985,-60 773,-60 773,-39 985,-39 985,-60"/>
<text text-anchor="middle" x="879" y="-46.4" font-family="Consolas" font-size="12.00">GameManager.SavePlayerData</text>
</a>
</g>
</g>
<!-- Node6&#45;&gt;Node7 -->
<g id="edge6_Node000006_Node000007" class="edge">
<title>Node6&#45;&gt;Node7</title>
<g id="a_edge6_Node000006_Node000007"><a xlink:title=" ">
<path fill="none" stroke="#63b8ff" d="M718.53,-49.5C732.95,-49.5 747.92,-49.5 762.67,-49.5"/>
<polygon fill="#63b8ff" stroke="#63b8ff" points="762.82,-53 772.82,-49.5 762.82,-46 762.82,-53"/>
</a>
</g>
</g>
<!-- Node8 -->
<g id="Node000008" class="node">
<title>Node8</title>
<g id="a_Node000008"><a xlink:href="classES3.html#aa0c98e77dac7b3d8f2d0f06efe34c2c2" target="_top" xlink:title=" ">
<polygon fill="white" stroke="#666666" points="1176.5,-80 1099.5,-80 1099.5,-59 1176.5,-59 1176.5,-80"/>
<text text-anchor="middle" x="1138" y="-66.4" font-family="Consolas" font-size="12.00">ES3.Save</text>
</a>
</g>
</g>
<!-- Node7&#45;&gt;Node8 -->
<g id="edge7_Node000007_Node000008" class="edge">
<title>Node7&#45;&gt;Node8</title>
<g id="a_edge7_Node000007_Node000008"><a xlink:title=" ">
<path fill="none" stroke="#63b8ff" d="M985.27,-57.69C1021.32,-60.5 1059.9,-63.5 1089.13,-65.77"/>
<polygon fill="#63b8ff" stroke="#63b8ff" points="1089.21,-69.29 1099.45,-66.58 1089.76,-62.31 1089.21,-69.29"/>
</a>
</g>
</g>
<!-- Node9 -->
<g id="Node000009" class="node">
<title>Node9</title>
<g id="a_Node000009"><a xlink:href="classGameManager.html#a533d6a089300edb4fb1d0197db895fc1" target="_top" xlink:title="Blueprint 데이터를 JSON 파일로 저장합니다.">
<polygon fill="white" stroke="#666666" points="1255,-41 1021,-41 1021,-20 1255,-20 1255,-41"/>
<text text-anchor="middle" x="1138" y="-27.4" font-family="Consolas" font-size="12.00">GameManager.SaveBlueprintData</text>
</a>
</g>
</g>
<!-- Node7&#45;&gt;Node9 -->
<g id="edge8_Node000007_Node000009" class="edge">
<title>Node7&#45;&gt;Node9</title>
<g id="a_edge8_Node000007_Node000009"><a xlink:title=" ">
<path fill="none" stroke="#63b8ff" d="M985.27,-41.72C993.55,-41.11 1001.96,-40.48 1010.36,-39.86"/>
<polygon fill="#63b8ff" stroke="#63b8ff" points="1010.88,-43.33 1020.6,-39.11 1010.36,-36.35 1010.88,-43.33"/>
</a>
</g>
</g>
</g>
</svg>
