<?xml version="1.0" encoding="UTF-8" standalone="no"?>
<!DOCTYPE svg PUBLIC "-//W3C//DTD SVG 1.1//EN"
 "http://www.w3.org/Graphics/SVG/1.1/DTD/svg11.dtd">
<!-- Generated by graphviz version 2.43.0 (0)
 -->
<!-- Title: RoomFactory.CreateLifeSupportRoomInstance Pages: 1 -->
<svg width="1000pt" height="160pt"
 viewBox="0.00 0.00 1000.00 159.50" xmlns="http://www.w3.org/2000/svg" xmlns:xlink="http://www.w3.org/1999/xlink">
<g id="graph0" class="graph" transform="scale(1 1) rotate(0) translate(4 155.5)">
<title>RoomFactory.CreateLifeSupportRoomInstance</title>
<!-- Node1 -->
<g id="Node000001" class="node">
<title>Node1</title>
<g id="a_Node000001"><a xlink:title="생활시설 인스턴스 생성">
<polygon fill="#999999" stroke="#666666" points="234,-108.5 0,-108.5 0,-74.5 234,-74.5 234,-108.5"/>
<text text-anchor="start" x="8" y="-94.9" font-family="Consolas" font-size="12.00">RoomFactory.CreateLifeSupport</text>
<text text-anchor="middle" x="117" y="-81.9" font-family="Consolas" font-size="12.00">RoomInstance</text>
</a>
</g>
</g>
<!-- Node2 -->
<g id="Node000002" class="node">
<title>Node2</title>
<g id="a_Node000002"><a xlink:href="classRoomFactory.html#a101e5aab3006053430806c3e90ccf6e9" target="_top" xlink:title="생활시설 데이터 반환">
<polygon fill="white" stroke="#666666" points="482,-141.5 270,-141.5 270,-107.5 482,-107.5 482,-141.5"/>
<text text-anchor="start" x="278" y="-127.9" font-family="Consolas" font-size="12.00">RoomFactory.GetLifeSupport</text>
<text text-anchor="middle" x="376" y="-114.9" font-family="Consolas" font-size="12.00">RoomData</text>
</a>
</g>
</g>
<!-- Node1&#45;&gt;Node2 -->
<g id="edge1_Node000001_Node000002" class="edge">
<title>Node1&#45;&gt;Node2</title>
<g id="a_edge1_Node000001_Node000002"><a xlink:title=" ">
<path fill="none" stroke="#63b8ff" d="M234.09,-106.41C242.6,-107.5 251.19,-108.6 259.69,-109.69"/>
<polygon fill="#63b8ff" stroke="#63b8ff" points="259.26,-113.17 269.63,-110.97 260.16,-106.22 259.26,-113.17"/>
</a>
</g>
</g>
<!-- Node5 -->
<g id="Node000005" class="node">
<title>Node5</title>
<g id="a_Node000005"><a xlink:href="classRoom.html#a02fa31258f9318a89d5b7c29dfdf602c" target="_top" xlink:title="방을 초기화합니다.">
<polygon fill="white" stroke="#666666" points="440.5,-79 311.5,-79 311.5,-58 440.5,-58 440.5,-79"/>
<text text-anchor="middle" x="376" y="-65.4" font-family="Consolas" font-size="12.00">Room.Initialize</text>
</a>
</g>
</g>
<!-- Node1&#45;&gt;Node5 -->
<g id="edge4_Node000001_Node000005" class="edge">
<title>Node1&#45;&gt;Node5</title>
<g id="a_edge4_Node000001_Node000005"><a xlink:title=" ">
<path fill="none" stroke="#63b8ff" d="M234.09,-81.11C256.96,-79.06 280.35,-76.97 301.34,-75.09"/>
<polygon fill="#63b8ff" stroke="#63b8ff" points="301.79,-78.57 311.44,-74.19 301.16,-71.59 301.79,-78.57"/>
</a>
</g>
</g>
<!-- Node3 -->
<g id="Node000003" class="node">
<title>Node3</title>
<g id="a_Node000003"><a xlink:href="classRoomDatabase.html#a6e93aa81081b9f4415136aa4e40e624b" target="_top" xlink:title="생활시설 데이터 반환">
<polygon fill="white" stroke="#666666" points="737,-151.5 518,-151.5 518,-117.5 737,-117.5 737,-151.5"/>
<text text-anchor="start" x="526" y="-137.9" font-family="Consolas" font-size="12.00">RoomDatabase.GetLifeSupport</text>
<text text-anchor="middle" x="627.5" y="-124.9" font-family="Consolas" font-size="12.00">RoomData</text>
</a>
</g>
</g>
<!-- Node2&#45;&gt;Node3 -->
<g id="edge2_Node000002_Node000003" class="edge">
<title>Node2&#45;&gt;Node3</title>
<g id="a_edge2_Node000002_Node000003"><a xlink:title=" ">
<path fill="none" stroke="#63b8ff" d="M482.09,-128.71C490.61,-129.05 499.25,-129.4 507.86,-129.74"/>
<polygon fill="#63b8ff" stroke="#63b8ff" points="507.8,-133.25 517.93,-130.15 508.08,-126.25 507.8,-133.25"/>
</a>
</g>
</g>
<!-- Node4 -->
<g id="Node000004" class="node">
<title>Node4</title>
<g id="a_Node000004"><a xlink:href="classRoomDatabase.html#a6b8c4df89baca260968d5b9383440552" target="_top" xlink:title="생활시설 데이터 맵 초기화">
<polygon fill="white" stroke="#666666" points="992,-151.5 773,-151.5 773,-117.5 992,-117.5 992,-151.5"/>
<text text-anchor="start" x="781" y="-137.9" font-family="Consolas" font-size="12.00">RoomDatabase.InitializeLife</text>
<text text-anchor="middle" x="882.5" y="-124.9" font-family="Consolas" font-size="12.00">SupportDataMap</text>
</a>
</g>
</g>
<!-- Node3&#45;&gt;Node4 -->
<g id="edge3_Node000003_Node000004" class="edge">
<title>Node3&#45;&gt;Node4</title>
<g id="a_edge3_Node000003_Node000004"><a xlink:title=" ">
<path fill="none" stroke="#63b8ff" d="M737.26,-134.5C745.64,-134.5 754.13,-134.5 762.57,-134.5"/>
<polygon fill="#63b8ff" stroke="#63b8ff" points="762.83,-138 772.83,-134.5 762.83,-131 762.83,-138"/>
</a>
</g>
</g>
<!-- Node6 -->
<g id="Node000006" class="node">
<title>Node6</title>
<g id="a_Node000006"><a xlink:href="classRoom.html#abe64553abf13aa2fe9d0d9c902c64383" target="_top" xlink:title="최대 업그레이드 레벨을 반환합니다.">
<polygon fill="white" stroke="#666666" points="726,-99 529,-99 529,-78 726,-78 726,-99"/>
<text text-anchor="middle" x="627.5" y="-85.4" font-family="Consolas" font-size="12.00">Room.GetPowerConsumption</text>
</a>
</g>
</g>
<!-- Node5&#45;&gt;Node6 -->
<g id="edge5_Node000005_Node000006" class="edge">
<title>Node5&#45;&gt;Node6</title>
<g id="a_edge5_Node000005_Node000006"><a xlink:title=" ">
<path fill="none" stroke="#63b8ff" d="M440.6,-73.6C464.29,-75.5 491.88,-77.71 518.44,-79.84"/>
<polygon fill="#63b8ff" stroke="#63b8ff" points="518.31,-83.34 528.56,-80.65 518.87,-76.36 518.31,-83.34"/>
</a>
</g>
</g>
<!-- Node7 -->
<g id="Node000007" class="node">
<title>Node7</title>
<g id="a_Node000007"><a xlink:href="classRoomData.html#a93ada549c4d197d14917913e944f46c2" target="_top" xlink:title="주어진 레벨에 해당하는 RoomLevel 데이터를 반환합니다. 각 파생 클래스에서 구현해야 합니다.">
<polygon fill="white" stroke="#666666" points="992,-80 773,-80 773,-59 992,-59 992,-80"/>
<text text-anchor="middle" x="882.5" y="-66.4" font-family="Consolas" font-size="12.00">RoomData.GetRoomDataByLevel</text>
</a>
</g>
</g>
<!-- Node5&#45;&gt;Node7 -->
<g id="edge7_Node000005_Node000007" class="edge">
<title>Node5&#45;&gt;Node7</title>
<g id="a_edge7_Node000005_Node000007"><a xlink:title=" ">
<path fill="none" stroke="#63b8ff" d="M440.64,-68.63C521.31,-68.79 661.99,-69.06 762.75,-69.26"/>
<polygon fill="#63b8ff" stroke="#63b8ff" points="762.98,-72.76 772.98,-69.28 762.99,-65.76 762.98,-72.76"/>
</a>
</g>
</g>
<!-- Node8 -->
<g id="Node000008" class="node">
<title>Node8</title>
<g id="a_Node000008"><a xlink:href="classRoom.html#a33bb9ff12585bbc75833a118ffab2eb0" target="_top" xlink:title="이 방이 데미지를 받을 수 있는지 여부를 초기화합니다.">
<polygon fill="white" stroke="#666666" points="737,-21 518,-21 518,0 737,0 737,-21"/>
<text text-anchor="middle" x="627.5" y="-7.4" font-family="Consolas" font-size="12.00">Room.InitializeIsDamageable</text>
</a>
</g>
</g>
<!-- Node5&#45;&gt;Node8 -->
<g id="edge8_Node000005_Node000008" class="edge">
<title>Node5&#45;&gt;Node8</title>
<g id="a_edge8_Node000005_Node000008"><a xlink:title=" ">
<path fill="none" stroke="#63b8ff" d="M421.76,-57.98C449.47,-51.48 485.8,-42.98 518,-35.5 535.16,-31.52 553.85,-27.2 570.8,-23.29"/>
<polygon fill="#63b8ff" stroke="#63b8ff" points="571.6,-26.7 580.56,-21.05 570.03,-19.88 571.6,-26.7"/>
</a>
</g>
</g>
<!-- Node6&#45;&gt;Node7 -->
<g id="edge6_Node000006_Node000007" class="edge">
<title>Node6&#45;&gt;Node7</title>
<g id="a_edge6_Node000006_Node000007"><a xlink:title=" ">
<path fill="none" stroke="#63b8ff" d="M726.32,-81.15C738.16,-80.26 750.35,-79.35 762.46,-78.44"/>
<polygon fill="#63b8ff" stroke="#63b8ff" points="762.88,-81.92 772.59,-77.68 762.36,-74.94 762.88,-81.92"/>
</a>
</g>
</g>
</g>
</svg>
