<?xml version="1.0" encoding="UTF-8" standalone="no"?>
<!DOCTYPE svg PUBLIC "-//W3C//DTD SVG 1.1//EN"
 "http://www.w3.org/Graphics/SVG/1.1/DTD/svg11.dtd">
<!-- Generated by graphviz version 2.43.0 (0)
 -->
<!-- Title: CrewMember.TeleportAfterDelay Pages: 1 -->
<svg width="746pt" height="117pt"
 viewBox="0.00 0.00 746.00 116.50" xmlns="http://www.w3.org/2000/svg" xmlns:xlink="http://www.w3.org/1999/xlink">
<g id="graph0" class="graph" transform="scale(1 1) rotate(0) translate(4 112.5)">
<title>CrewMember.TeleportAfterDelay</title>
<!-- Node1 -->
<g id="Node000001" class="node">
<title>Node1</title>
<g id="a_Node000001"><a xlink:title="딜레이 후 텔레포트 진행">
<polygon fill="#999999" stroke="#666666" points="738,-57 541,-57 541,-23 738,-23 738,-57"/>
<text text-anchor="start" x="549" y="-43.4" font-family="Consolas" font-size="12.00">CrewMember.TeleportAfter</text>
<text text-anchor="middle" x="639.5" y="-30.4" font-family="Consolas" font-size="12.00">Delay</text>
</a>
</g>
</g>
<!-- Node2 -->
<g id="Node000002" class="node">
<title>Node2</title>
<g id="a_Node000002"><a xlink:href="classCrewMember.html#ae46abe81a744b6abd13f285a25455404" target="_top" xlink:title="경로를 따라 이동하는 코루틴">
<polygon fill="white" stroke="#666666" points="505,-73.5 263,-73.5 263,-52.5 505,-52.5 505,-73.5"/>
<text text-anchor="middle" x="384" y="-59.9" font-family="Consolas" font-size="12.00">CrewMember.FollowPathCoroutine</text>
</a>
</g>
</g>
<!-- Node1&#45;&gt;Node2 -->
<g id="edge1_Node000001_Node000002" class="edge">
<title>Node1&#45;&gt;Node2</title>
<g id="a_edge1_Node000001_Node000002"><a xlink:title=" ">
<path fill="none" stroke="#63b8ff" d="M530.64,-49.79C520.77,-50.68 510.74,-51.59 500.81,-52.49"/>
<polygon fill="#63b8ff" stroke="#63b8ff" points="531.21,-53.25 540.85,-48.86 530.58,-46.28 531.21,-53.25"/>
</a>
</g>
</g>
<!-- Node5 -->
<g id="Node000005" class="node">
<title>Node5</title>
<g id="a_Node000005"><a xlink:href="classRTSSelectionManager.html#a0002c5992875339db3028007c2472b6d" target="_top" xlink:title="선택된 선원들을 목적지 방의 우선순위 타일로 최단 경로 기반 배정 후 이동시킵니다.">
<polygon fill="white" stroke="#666666" points="486,-34 282,-34 282,0 486,0 486,-34"/>
<text text-anchor="start" x="290" y="-20.4" font-family="Consolas" font-size="12.00">RTSSelectionManager.Issue</text>
<text text-anchor="middle" x="384" y="-7.4" font-family="Consolas" font-size="12.00">MoveCommand</text>
</a>
</g>
</g>
<!-- Node1&#45;&gt;Node5 -->
<g id="edge4_Node000001_Node000005" class="edge">
<title>Node1&#45;&gt;Node5</title>
<g id="a_edge4_Node000001_Node000005"><a xlink:title=" ">
<path fill="none" stroke="#63b8ff" d="M530.73,-30.22C516.02,-28.89 500.97,-27.52 486.37,-26.2"/>
<polygon fill="#63b8ff" stroke="#63b8ff" points="530.58,-33.72 540.85,-31.14 531.21,-26.75 530.58,-33.72"/>
</a>
</g>
</g>
<!-- Node3 -->
<g id="Node000003" class="node">
<title>Node3</title>
<g id="a_Node000003"><a xlink:href="classCrewMember.html#a66e77fbffb949a64534ac03233d3fc65" target="_top" xlink:title="이동 경로를 명시하고 이동 시작 이동 시작 시 기존 점유 타일 해제, 새로운 목적지 타일 점유 등록">
<polygon fill="white" stroke="#666666" points="227,-108.5 0,-108.5 0,-87.5 227,-87.5 227,-108.5"/>
<text text-anchor="middle" x="113.5" y="-94.9" font-family="Consolas" font-size="12.00">CrewMember.AssignPathAndMove</text>
</a>
</g>
</g>
<!-- Node2&#45;&gt;Node3 -->
<g id="edge2_Node000002_Node000003" class="edge">
<title>Node2&#45;&gt;Node3</title>
<g id="a_edge2_Node000002_Node000003"><a xlink:title=" ">
<path fill="none" stroke="#63b8ff" d="M292.38,-74.81C260.99,-78.9 226.03,-83.46 195.47,-87.45"/>
<polygon fill="#63b8ff" stroke="#63b8ff" points="292.98,-78.26 302.44,-73.5 292.07,-71.32 292.98,-78.26"/>
</a>
</g>
</g>
<!-- Node4 -->
<g id="Node000004" class="node">
<title>Node4</title>
<g id="a_Node000004"><a xlink:href="classCrewMember.html#a2472a8d09a844b219190039393a6a601" target="_top" xlink:title="이동 중 새로운 이동 명령 수신 시 이전 목적지 타일 점유 해제 (체력바 follow)">
<polygon fill="white" stroke="#666666" points="227,-69.5 0,-69.5 0,-48.5 227,-48.5 227,-69.5"/>
<text text-anchor="middle" x="113.5" y="-55.9" font-family="Consolas" font-size="12.00">CrewMember.CancelAndRedirect</text>
</a>
</g>
</g>
<!-- Node2&#45;&gt;Node4 -->
<g id="edge3_Node000002_Node000004" class="edge">
<title>Node2&#45;&gt;Node4</title>
<g id="a_edge3_Node000002_Node000004"><a xlink:title=" ">
<path fill="none" stroke="#63b8ff" d="M252.84,-61.06C244.28,-60.93 235.68,-60.81 227.21,-60.68"/>
<polygon fill="#63b8ff" stroke="#63b8ff" points="252.83,-64.56 262.89,-61.21 252.94,-57.56 252.83,-64.56"/>
</a>
</g>
</g>
<!-- Node6 -->
<g id="Node000006" class="node">
<title>Node6</title>
<g id="a_Node000006"><a xlink:href="classEnemyController.html#a41090510cff98622fe675d1f6e3ecd82" target="_top" xlink:title=" ">
<polygon fill="white" stroke="#666666" points="204.5,-27.5 22.5,-27.5 22.5,-6.5 204.5,-6.5 204.5,-27.5"/>
<text text-anchor="middle" x="113.5" y="-13.9" font-family="Consolas" font-size="12.00">EnemyController.Update</text>
</a>
</g>
</g>
<!-- Node5&#45;&gt;Node6 -->
<g id="edge5_Node000005_Node000006" class="edge">
<title>Node5&#45;&gt;Node6</title>
<g id="a_edge5_Node000005_Node000006"><a xlink:title=" ">
<path fill="none" stroke="#63b8ff" d="M271.67,-17C249.29,-17 226.05,-17 204.51,-17"/>
<polygon fill="#63b8ff" stroke="#63b8ff" points="271.87,-20.5 281.87,-17 271.87,-13.5 271.87,-20.5"/>
</a>
</g>
</g>
</g>
</svg>
