<?xml version="1.0" encoding="UTF-8" standalone="no"?>
<!DOCTYPE svg PUBLIC "-//W3C//DTD SVG 1.1//EN"
 "http://www.w3.org/Graphics/SVG/1.1/DTD/svg11.dtd">
<!-- Generated by graphviz version 2.43.0 (0)
 -->
<!-- Title: YearDisplayUI Pages: 1 -->
<svg width="246pt" height="218pt"
 viewBox="0.00 0.00 246.00 218.00" xmlns="http://www.w3.org/2000/svg" xmlns:xlink="http://www.w3.org/1999/xlink">
<g id="graph0" class="graph" transform="scale(1 1) rotate(0) translate(4 214)">
<title>YearDisplayUI</title>
<!-- Node1 -->
<g id="Node000001" class="node">
<title>Node1</title>
<g id="a_Node000001"><a xlink:title=" ">
<polygon fill="#999999" stroke="transparent" points="238,-119 0,-119 0,0 238,0 238,-119"/>
<text text-anchor="start" x="70" y="-104.9" font-family="Consolas" font-size="12.00">YearDisplayUI</text>
<text text-anchor="start" x="4" y="-87.9" font-family="Consolas" font-size="12.00">+</text>
<text text-anchor="start" x="16" y="-87.9" font-family="Consolas" font-size="12.00">TextMeshProUGUI yearText</text>
<text text-anchor="start" x="4" y="-70.9" font-family="Consolas" font-size="12.00">+</text>
<text text-anchor="start" x="16" y="-70.9" font-family="Consolas" font-size="12.00">void OnAddYearButtonClicked()</text>
<text text-anchor="start" x="4" y="-53.9" font-family="Consolas" font-size="12.00">&#45;</text>
<text text-anchor="start" x="16" y="-53.9" font-family="Consolas" font-size="12.00">void Start()</text>
<text text-anchor="start" x="4" y="-36.9" font-family="Consolas" font-size="12.00">&#45;</text>
<text text-anchor="start" x="16" y="-36.9" font-family="Consolas" font-size="12.00">void OnDestroy()</text>
<text text-anchor="start" x="4" y="-19.9" font-family="Consolas" font-size="12.00">&#45;</text>
<text text-anchor="start" x="16" y="-19.9" font-family="Consolas" font-size="12.00">void UpdateYear(int</text>
<text text-anchor="start" x="16" y="-6.9" font-family="Consolas" font-size="12.00"> year)</text>
<polygon fill="#666666" stroke="#666666" points="0,-99.5 0,-99.5 238,-99.5 238,-99.5 0,-99.5"/>
<polygon fill="#666666" stroke="#666666" points="0,-82.5 0,-82.5 14,-82.5 14,-82.5 0,-82.5"/>
<polygon fill="#666666" stroke="#666666" points="14,-82.5 14,-82.5 238,-82.5 238,-82.5 14,-82.5"/>
<polygon fill="none" stroke="#666666" points="0,0 0,-119 238,-119 238,0 0,0"/>
</a>
</g>
</g>
<!-- Node2 -->
<g id="Node000002" class="node">
<title>Node2</title>
<g id="a_Node000002"><a xlink:title=" ">
<polygon fill="white" stroke="transparent" points="173,-210 65,-210 65,-155 173,-155 173,-210"/>
<text text-anchor="start" x="70" y="-195.9" font-family="Consolas" font-size="12.00">MonoBehaviour</text>
<text text-anchor="start" x="115" y="-178.9" font-family="Consolas" font-size="12.00"> </text>
<text text-anchor="start" x="115" y="-161.9" font-family="Consolas" font-size="12.00"> </text>
<polygon fill="#bfbfbf" stroke="#bfbfbf" points="65,-190.5 65,-190.5 173,-190.5 173,-190.5 65,-190.5"/>
<polygon fill="#bfbfbf" stroke="#bfbfbf" points="65,-173.5 65,-173.5 173,-173.5 173,-173.5 65,-173.5"/>
<polygon fill="none" stroke="#bfbfbf" points="65,-155 65,-210 173,-210 173,-155 65,-155"/>
</a>
</g>
</g>
<!-- Node2&#45;&gt;Node1 -->
<g id="edge1_Node000001_Node000002" class="edge">
<title>Node2&#45;&gt;Node1</title>
<g id="a_edge1_Node000001_Node000002"><a xlink:title=" ">
<path fill="none" stroke="#63b8ff" d="M119,-144.77C119,-136.69 119,-127.94 119,-119.23"/>
<polygon fill="none" stroke="#63b8ff" points="115.5,-144.95 119,-154.95 122.5,-144.95 115.5,-144.95"/>
</a>
</g>
</g>
</g>
</svg>
