<?xml version="1.0" encoding="UTF-8" standalone="no"?>
<!DOCTYPE svg PUBLIC "-//W3C//DTD SVG 1.1//EN"
 "http://www.w3.org/Graphics/SVG/1.1/DTD/svg11.dtd">
<!-- Generated by graphviz version 2.43.0 (0)
 -->
<!-- Title: AimBeam Pages: 1 -->
<svg width="228pt" height="203pt"
 viewBox="0.00 0.00 227.50 203.00" xmlns="http://www.w3.org/2000/svg" xmlns:xlink="http://www.w3.org/1999/xlink">
<g id="graph0" class="graph" transform="scale(1 1) rotate(0) translate(4 199)">
<title>AimBeam</title>
<!-- Node1 -->
<g id="Node000001" class="node">
<title>Node1</title>
<g id="a_Node000001"><a xlink:title=" ">
<polygon fill="#999999" stroke="transparent" points="209.5,-89 16.5,-89 16.5,0 209.5,0 209.5,-89"/>
<text text-anchor="start" x="87" y="-74.9" font-family="Consolas" font-size="12.00">AimBeam</text>
<text text-anchor="start" x="21" y="-57.9" font-family="Consolas" font-size="12.00">+</text>
<text text-anchor="start" x="33" y="-57.9" font-family="Consolas" font-size="12.00">LineRenderer lnRenderer</text>
<text text-anchor="start" x="21" y="-40.9" font-family="Consolas" font-size="12.00">+</text>
<text text-anchor="start" x="33" y="-40.9" font-family="Consolas" font-size="12.00">float visual_Distance</text>
<text text-anchor="start" x="21" y="-23.9" font-family="Consolas" font-size="12.00">&#45;</text>
<text text-anchor="start" x="33" y="-23.9" font-family="Consolas" font-size="12.00">void Start()</text>
<text text-anchor="start" x="21" y="-6.9" font-family="Consolas" font-size="12.00">&#45;</text>
<text text-anchor="start" x="33" y="-6.9" font-family="Consolas" font-size="12.00">void Update()</text>
<polygon fill="#666666" stroke="#666666" points="17,-69.5 17,-69.5 210,-69.5 210,-69.5 17,-69.5"/>
<polygon fill="#666666" stroke="#666666" points="17,-35.5 17,-35.5 31,-35.5 31,-35.5 17,-35.5"/>
<polygon fill="#666666" stroke="#666666" points="31,-35.5 31,-35.5 210,-35.5 210,-35.5 31,-35.5"/>
<polygon fill="none" stroke="#666666" points="16.5,0 16.5,-89 209.5,-89 209.5,0 16.5,0"/>
</a>
</g>
</g>
<!-- Node2 -->
<g id="Node000002" class="node">
<title>Node2</title>
<g id="a_Node000002"><a xlink:title=" ">
<polygon fill="white" stroke="transparent" points="108,-195 0,-195 0,-140 108,-140 108,-195"/>
<text text-anchor="start" x="5" y="-180.9" font-family="Consolas" font-size="12.00">MonoBehaviour</text>
<text text-anchor="start" x="50" y="-163.9" font-family="Consolas" font-size="12.00"> </text>
<text text-anchor="start" x="50" y="-146.9" font-family="Consolas" font-size="12.00"> </text>
<polygon fill="#bfbfbf" stroke="#bfbfbf" points="0,-175.5 0,-175.5 108,-175.5 108,-175.5 0,-175.5"/>
<polygon fill="#bfbfbf" stroke="#bfbfbf" points="0,-158.5 0,-158.5 108,-158.5 108,-158.5 0,-158.5"/>
<polygon fill="none" stroke="#bfbfbf" points="0,-140 0,-195 108,-195 108,-140 0,-140"/>
</a>
</g>
</g>
<!-- Node2&#45;&gt;Node1 -->
<g id="edge1_Node000001_Node000002" class="edge">
<title>Node2&#45;&gt;Node1</title>
<g id="a_edge1_Node000001_Node000002"><a xlink:title=" ">
<path fill="none" stroke="#63b8ff" d="M71.41,-130.8C77.78,-117.73 85.06,-102.8 91.74,-89.11"/>
<polygon fill="none" stroke="#63b8ff" points="68.18,-129.42 66.95,-139.95 74.48,-132.49 68.18,-129.42"/>
</a>
</g>
</g>
<!-- Node3 -->
<g id="Node000003" class="node">
<title>Node3</title>
<g id="a_Node000003"><a xlink:title=" ">
<polygon fill="white" stroke="transparent" points="219.5,-195 126.5,-195 126.5,-140 219.5,-140 219.5,-195"/>
<text text-anchor="start" x="132" y="-180.9" font-family="Consolas" font-size="12.00">UnityEngine</text>
<text text-anchor="start" x="169.5" y="-163.9" font-family="Consolas" font-size="12.00"> </text>
<text text-anchor="start" x="169.5" y="-146.9" font-family="Consolas" font-size="12.00"> </text>
<polygon fill="#bfbfbf" stroke="#bfbfbf" points="127,-175.5 127,-175.5 220,-175.5 220,-175.5 127,-175.5"/>
<polygon fill="#bfbfbf" stroke="#bfbfbf" points="127,-158.5 127,-158.5 220,-158.5 220,-158.5 127,-158.5"/>
<polygon fill="none" stroke="#bfbfbf" points="126.5,-140 126.5,-195 219.5,-195 219.5,-140 126.5,-140"/>
</a>
</g>
</g>
<!-- Node3&#45;&gt;Node1 -->
<g id="edge2_Node000001_Node000003" class="edge">
<title>Node3&#45;&gt;Node1</title>
<g id="a_edge2_Node000001_Node000003"><a xlink:title=" ">
<path fill="none" stroke="#63b8ff" d="M159.83,-139.95C154.01,-128.2 146.93,-113.93 140.06,-100.07"/>
<polygon fill="none" stroke="#63b8ff" points="139.96,-99.86 133.71,-96.26 134.62,-89.11 140.87,-92.71 139.96,-99.86"/>
</a>
</g>
<text text-anchor="middle" x="175" y="-110.8" font-family="Consolas" font-size="14.00" fill="grey"> &#45;beam</text>
</g>
</g>
</svg>
