<?xml version="1.0" encoding="UTF-8" standalone="no"?>
<!DOCTYPE svg PUBLIC "-//W3C//DTD SVG 1.1//EN"
 "http://www.w3.org/Graphics/SVG/1.1/DTD/svg11.dtd">
<!-- Generated by graphviz version 2.43.0 (0)
 -->
<!-- Title: Ship.AddCrew Pages: 1 -->
<svg width="1331pt" height="598pt"
 viewBox="0.00 0.00 1331.00 598.00" xmlns="http://www.w3.org/2000/svg" xmlns:xlink="http://www.w3.org/1999/xlink">
<g id="graph0" class="graph" transform="scale(1 1) rotate(0) translate(4 594)">
<title>Ship.AddCrew</title>
<!-- Node1 -->
<g id="Node000001" class="node">
<title>Node1</title>
<g id="a_Node000001"><a xlink:title="새로운 승무원을 함선에 추가합니다.">
<polygon fill="#999999" stroke="#666666" points="107,-288 0,-288 0,-267 107,-267 107,-288"/>
<text text-anchor="middle" x="53.5" y="-274.4" font-family="Consolas" font-size="12.00">Ship.AddCrew</text>
</a>
</g>
</g>
<!-- Node2 -->
<g id="Node000002" class="node">
<title>Node2</title>
<g id="a_Node000002"><a xlink:href="classCrewSystem.html#a5b59e65fd0e697d23dcab8598f9a7516" target="_top" xlink:title="새로운 크루 멤버를 추가합니다.">
<polygon fill="white" stroke="#666666" points="295,-288 143,-288 143,-267 295,-267 295,-288"/>
<text text-anchor="middle" x="219" y="-274.4" font-family="Consolas" font-size="12.00">CrewSystem.AddCrew</text>
</a>
</g>
</g>
<!-- Node1&#45;&gt;Node2 -->
<g id="edge1_Node000001_Node000002" class="edge">
<title>Node1&#45;&gt;Node2</title>
<g id="a_edge1_Node000001_Node000002"><a xlink:title=" ">
<path fill="none" stroke="#63b8ff" d="M107.13,-277.5C115.32,-277.5 123.95,-277.5 132.64,-277.5"/>
<polygon fill="#63b8ff" stroke="#63b8ff" points="132.84,-281 142.84,-277.5 132.84,-274 132.84,-281"/>
</a>
</g>
</g>
<!-- Node3 -->
<g id="Node000003" class="node">
<title>Node3</title>
<g id="a_Node000003"><a xlink:href="classShip.html#a8ced30f0d71c2a5cf333b3de23af48f2" target="_top" xlink:title="모든 룸 정보를 반환합니다.">
<polygon fill="white" stroke="#666666" points="1057,-590 920,-590 920,-569 1057,-569 1057,-590"/>
<text text-anchor="middle" x="988.5" y="-576.4" font-family="Consolas" font-size="12.00">Ship.GetAllRooms</text>
</a>
</g>
</g>
<!-- Node2&#45;&gt;Node3 -->
<g id="edge2_Node000002_Node000003" class="edge">
<title>Node2&#45;&gt;Node3</title>
<g id="a_edge2_Node000002_Node000003"><a xlink:title=" ">
<path fill="none" stroke="#63b8ff" d="M224.58,-288.41C237.32,-317.55 275.87,-398.09 331,-444.5 431.33,-528.95 473.26,-533.83 601,-563.5 705.71,-587.82 830.58,-587.99 909.46,-584.69"/>
<polygon fill="#63b8ff" stroke="#63b8ff" points="909.97,-588.17 919.8,-584.23 909.65,-581.18 909.97,-588.17"/>
</a>
</g>
</g>
<!-- Node4 -->
<g id="Node000004" class="node">
<title>Node4</title>
<g id="a_Node000004"><a xlink:href="classRoom.html#a08dfe5c5a797aacad22c29926b3482e4" target="_top" xlink:title="방의 우선순위 타일에 따른 그리드에서의 위치 반환 (회전각 적용)">
<polygon fill="white" stroke="#666666" points="546.5,-435.5 349.5,-435.5 349.5,-401.5 546.5,-401.5 546.5,-435.5"/>
<text text-anchor="start" x="357.5" y="-421.9" font-family="Consolas" font-size="12.00">Room.GetRotatedCrewEntry</text>
<text text-anchor="middle" x="448" y="-408.9" font-family="Consolas" font-size="12.00">GridPriority</text>
</a>
</g>
</g>
<!-- Node2&#45;&gt;Node4 -->
<g id="edge3_Node000002_Node000004" class="edge">
<title>Node2&#45;&gt;Node4</title>
<g id="a_edge3_Node000002_Node000004"><a xlink:title=" ">
<path fill="none" stroke="#63b8ff" d="M237.06,-288.1C273.83,-310.94 361.22,-365.22 410.88,-396.06"/>
<polygon fill="#63b8ff" stroke="#63b8ff" points="409.05,-399.05 419.4,-401.35 412.75,-393.1 409.05,-399.05"/>
</a>
</g>
</g>
<!-- Node6 -->
<g id="Node000006" class="node">
<title>Node6</title>
<g id="a_Node000006"><a xlink:href="classShipSystem.html#a0c4c206aa7e875dc6810ea122e46b332" target="_top" xlink:title="현재 함선의 특정 스탯 값을 가져옵니다.">
<polygon fill="white" stroke="#666666" points="539,-269 357,-269 357,-248 539,-248 539,-269"/>
<text text-anchor="middle" x="448" y="-255.4" font-family="Consolas" font-size="12.00">ShipSystem.GetShipStat</text>
</a>
</g>
</g>
<!-- Node2&#45;&gt;Node6 -->
<g id="edge5_Node000002_Node000006" class="edge">
<title>Node2&#45;&gt;Node6</title>
<g id="a_edge5_Node000002_Node000006"><a xlink:title=" ">
<path fill="none" stroke="#63b8ff" d="M295.27,-271.2C311.78,-269.82 329.51,-268.33 346.82,-266.89"/>
<polygon fill="#63b8ff" stroke="#63b8ff" points="347.27,-270.36 356.95,-266.04 346.69,-263.38 347.27,-270.36"/>
</a>
</g>
</g>
<!-- Node8 -->
<g id="Node000008" class="node">
<title>Node8</title>
<g id="a_Node000008"><a xlink:href="classShip.html#acc377098e3c61bbd4b8fc53595d09293" target="_top" xlink:title="실제 월드 위치 반환">
<polygon fill="white" stroke="#666666" points="565,-230 331,-230 331,-209 565,-209 565,-230"/>
<text text-anchor="middle" x="448" y="-216.4" font-family="Consolas" font-size="12.00">Ship.GetWorldPositionFromGrid</text>
</a>
</g>
</g>
<!-- Node2&#45;&gt;Node8 -->
<g id="edge7_Node000002_Node000008" class="edge">
<title>Node2&#45;&gt;Node8</title>
<g id="a_edge7_Node000002_Node000008"><a xlink:title=" ">
<path fill="none" stroke="#63b8ff" d="M247,-266.9C269.26,-258.5 301.79,-246.97 331,-239.5 341.95,-236.7 353.58,-234.18 365.09,-231.94"/>
<polygon fill="#63b8ff" stroke="#63b8ff" points="365.97,-235.34 375.15,-230.05 364.68,-228.46 365.97,-235.34"/>
</a>
</g>
</g>
<!-- Node10 -->
<g id="Node000010" class="node">
<title>Node10</title>
<g id="a_Node000010"><a xlink:href="classRoom.html#a577bbc93f6479096f0d4bedd6cefc26e" target="_top" xlink:title="선원이 방에 진입할 때 호출됩니다.">
<polygon fill="white" stroke="#666666" points="516.5,-191 379.5,-191 379.5,-170 516.5,-170 516.5,-191"/>
<text text-anchor="middle" x="448" y="-177.4" font-family="Consolas" font-size="12.00">Room.OnCrewEnter</text>
</a>
</g>
</g>
<!-- Node2&#45;&gt;Node10 -->
<g id="edge9_Node000002_Node000010" class="edge">
<title>Node2&#45;&gt;Node10</title>
<g id="a_edge9_Node000002_Node000010"><a xlink:title=" ">
<path fill="none" stroke="#63b8ff" d="M231.61,-266.81C250.76,-249.83 290.85,-216.94 331,-200.5 343.06,-195.56 356.3,-191.85 369.4,-189.05"/>
<polygon fill="#63b8ff" stroke="#63b8ff" points="370.23,-192.45 379.36,-187.08 368.87,-185.58 370.23,-192.45"/>
</a>
</g>
</g>
<!-- Node11 -->
<g id="Node000011" class="node">
<title>Node11</title>
<g id="a_Node000011"><a xlink:href="classShip.html#a8f3f2bdca106f32f2d4c2b3f892a139f" target="_top" xlink:title="현재 함선의 모든 스탯을 다시 계산합니다. 방, 시스템, 선원의 기여도를 반영합니다.">
<polygon fill="white" stroke="#666666" points="546.5,-308 349.5,-308 349.5,-287 546.5,-287 546.5,-308"/>
<text text-anchor="middle" x="448" y="-294.4" font-family="Consolas" font-size="12.00">Ship.RecalculateAllStats</text>
</a>
</g>
</g>
<!-- Node2&#45;&gt;Node11 -->
<g id="edge10_Node000002_Node000011" class="edge">
<title>Node2&#45;&gt;Node11</title>
<g id="a_edge10_Node000002_Node000011"><a xlink:title=" ">
<path fill="none" stroke="#63b8ff" d="M295.27,-284.13C309.32,-285.37 324.26,-286.69 339.07,-287.99"/>
<polygon fill="#63b8ff" stroke="#63b8ff" points="339.02,-291.5 349.29,-288.89 339.64,-284.53 339.02,-291.5"/>
</a>
</g>
</g>
<!-- Node5 -->
<g id="Node000005" class="node">
<title>Node5</title>
<g id="a_Node000005"><a xlink:href="classRoomData.html#a93ada549c4d197d14917913e944f46c2" target="_top" xlink:title="주어진 레벨에 해당하는 RoomLevel 데이터를 반환합니다. 각 파생 클래스에서 구현해야 합니다.">
<polygon fill="white" stroke="#666666" points="1098,-445 879,-445 879,-424 1098,-424 1098,-445"/>
<text text-anchor="middle" x="988.5" y="-431.4" font-family="Consolas" font-size="12.00">RoomData.GetRoomDataByLevel</text>
</a>
</g>
</g>
<!-- Node4&#45;&gt;Node5 -->
<g id="edge4_Node000004_Node000005" class="edge">
<title>Node4&#45;&gt;Node5</title>
<g id="a_edge4_Node000004_Node000005"><a xlink:title=" ">
<path fill="none" stroke="#63b8ff" d="M484.88,-435.51C515.08,-448.83 559.81,-466.28 601,-473.5 706.94,-492.08 736.38,-487.64 843,-473.5 879.18,-468.7 919.15,-457.43 947.86,-448.23"/>
<polygon fill="#63b8ff" stroke="#63b8ff" points="949.11,-451.51 957.53,-445.08 946.94,-444.86 949.11,-451.51"/>
</a>
</g>
</g>
<!-- Node7 -->
<g id="Node000007" class="node">
<title>Node7</title>
<g id="a_Node000007"><a xlink:href="classShip.html#a080a77bc4aa01fd3e5b2561cb5317eca" target="_top" xlink:title="특정 스탯 값을 반환합니다.">
<polygon fill="white" stroke="#666666" points="775.5,-60 668.5,-60 668.5,-39 775.5,-39 775.5,-60"/>
<text text-anchor="middle" x="722" y="-46.4" font-family="Consolas" font-size="12.00">Ship.GetStat</text>
</a>
</g>
</g>
<!-- Node6&#45;&gt;Node7 -->
<g id="edge6_Node000006_Node000007" class="edge">
<title>Node6&#45;&gt;Node7</title>
<g id="a_edge6_Node000006_Node000007"><a xlink:title=" ">
<path fill="none" stroke="#63b8ff" d="M539.12,-255.08C548.7,-251.56 557.62,-246.55 565,-239.5 620.86,-186.17 545.21,-122.91 601,-69.5 616.21,-54.94 637.77,-48.69 658.43,-46.48"/>
<polygon fill="#63b8ff" stroke="#63b8ff" points="658.77,-49.96 668.47,-45.7 658.22,-42.98 658.77,-49.96"/>
</a>
</g>
</g>
<!-- Node9 -->
<g id="Node000009" class="node">
<title>Node9</title>
<g id="a_Node000009"><a xlink:href="classShip.html#a84f03b9700fea23f4e8a48f1233de137" target="_top" xlink:title="그리드 좌표를 월드 좌표로 변환 ((0, 0) ~ (60, 60) 그리드 내 좌표라 local relative 좌표임)">
<polygon fill="white" stroke="#666666" points="820.5,-21 623.5,-21 623.5,0 820.5,0 820.5,-21"/>
<text text-anchor="middle" x="722" y="-7.4" font-family="Consolas" font-size="12.00">Ship.GridToWorldPosition</text>
</a>
</g>
</g>
<!-- Node8&#45;&gt;Node9 -->
<g id="edge8_Node000008_Node000009" class="edge">
<title>Node8&#45;&gt;Node9</title>
<g id="a_edge8_Node000008_Node000009"><a xlink:title=" ">
<path fill="none" stroke="#63b8ff" d="M553.93,-208.99C557.89,-206.56 561.61,-203.74 565,-200.5 621.14,-146.84 544.71,-83.02 601,-29.5 605.06,-25.64 609.57,-22.38 614.39,-19.63"/>
<polygon fill="#63b8ff" stroke="#63b8ff" points="615.95,-22.76 623.38,-15.21 612.86,-16.48 615.95,-22.76"/>
</a>
</g>
</g>
<!-- Node12 -->
<g id="Node000012" class="node">
<title>Node12</title>
<g id="a_Node000012"><a xlink:href="classMoraleSystem.html#aa5e29aef57bec024e207404bb90894b3" target="_top" xlink:title="현재 함선의 전체 사기 수치를 계산합니다. 생명유지실과 승무원 침실이 기여하며, 승무원 수가 수용 가능 인원을 초과할 경우 패널티가 적용됩니다.">
<polygon fill="white" stroke="#666666" points="835.5,-554.5 608.5,-554.5 608.5,-520.5 835.5,-520.5 835.5,-554.5"/>
<text text-anchor="start" x="616.5" y="-540.9" font-family="Consolas" font-size="12.00">MoraleSystem.CalculateGlobal</text>
<text text-anchor="middle" x="722" y="-527.9" font-family="Consolas" font-size="12.00">Morale</text>
</a>
</g>
</g>
<!-- Node11&#45;&gt;Node12 -->
<g id="edge11_Node000011_Node000012" class="edge">
<title>Node11&#45;&gt;Node12</title>
<g id="a_edge11_Node000011_Node000012"><a xlink:title=" ">
<path fill="none" stroke="#63b8ff" d="M466.5,-308.06C491.29,-323.76 536.75,-355.45 565,-392.5 588.89,-423.83 574.16,-444.66 601,-473.5 618.1,-491.87 641.69,-506.03 663.44,-516.29"/>
<polygon fill="#63b8ff" stroke="#63b8ff" points="662.07,-519.51 672.62,-520.45 664.96,-513.14 662.07,-519.51"/>
</a>
</g>
</g>
<!-- Node15 -->
<g id="Node000015" class="node">
<title>Node15</title>
<g id="a_Node000015"><a xlink:href="classCrewSystem.html#a211d4d37de0e70c08101ad8733367bd7" target="_top" xlink:title="현재 탑승 중인 아군, 적군 포함 모든 크루 객체의 목록을 반환합니다.">
<polygon fill="white" stroke="#666666" points="801.5,-425 642.5,-425 642.5,-404 801.5,-404 801.5,-425"/>
<text text-anchor="middle" x="722" y="-411.4" font-family="Consolas" font-size="12.00">CrewSystem.GetCrews</text>
</a>
</g>
</g>
<!-- Node11&#45;&gt;Node15 -->
<g id="edge15_Node000011_Node000015" class="edge">
<title>Node11&#45;&gt;Node15</title>
<g id="a_edge15_Node000011_Node000015"><a xlink:title=" ">
<path fill="none" stroke="#63b8ff" d="M461.42,-308.14C486.15,-328.69 544.1,-373.77 601,-395.5 610.96,-399.3 621.66,-402.34 632.42,-404.78"/>
<polygon fill="#63b8ff" stroke="#63b8ff" points="631.8,-408.22 642.31,-406.85 633.24,-401.37 631.8,-408.22"/>
</a>
</g>
</g>
<!-- Node16 -->
<g id="Node000016" class="node">
<title>Node16</title>
<g id="a_Node000016"><a xlink:href="classOuterHullData.html#a51ad6d062c547a1cad0fb2c08ff593eb" target="_top" xlink:title="지정한 레벨에 해당하는 외갑판 데이터를 반환합니다.">
<polygon fill="white" stroke="#666666" points="843,-386 601,-386 601,-365 843,-365 843,-386"/>
<text text-anchor="middle" x="722" y="-372.4" font-family="Consolas" font-size="12.00">OuterHullData.GetOuterHullData</text>
</a>
</g>
</g>
<!-- Node11&#45;&gt;Node16 -->
<g id="edge16_Node000011_Node000016" class="edge">
<title>Node11&#45;&gt;Node16</title>
<g id="a_edge16_Node000011_Node000016"><a xlink:title=" ">
<path fill="none" stroke="#63b8ff" d="M471.66,-308.06C500.93,-321.28 553.72,-343.74 601,-356.5 610.07,-358.95 619.61,-361.12 629.19,-363.04"/>
<polygon fill="#63b8ff" stroke="#63b8ff" points="628.69,-366.5 639.17,-364.94 630.01,-359.63 628.69,-366.5"/>
</a>
</g>
</g>
<!-- Node17 -->
<g id="Node000017" class="node">
<title>Node17</title>
<g id="a_Node000017"><a xlink:href="classShip.html#a61cb09945d19adc35f1c2aaf845c39ce" target="_top" xlink:title="현재 함선의 외갑판 레벨을 반환합니다.">
<polygon fill="white" stroke="#666666" points="813,-308 631,-308 631,-287 813,-287 813,-308"/>
<text text-anchor="middle" x="722" y="-294.4" font-family="Consolas" font-size="12.00">Ship.GetOuterHullLevel</text>
</a>
</g>
</g>
<!-- Node11&#45;&gt;Node17 -->
<g id="edge17_Node000011_Node000017" class="edge">
<title>Node11&#45;&gt;Node17</title>
<g id="a_edge17_Node000011_Node000017"><a xlink:title=" ">
<path fill="none" stroke="#63b8ff" d="M546.81,-297.5C570.8,-297.5 596.51,-297.5 620.62,-297.5"/>
<polygon fill="#63b8ff" stroke="#63b8ff" points="620.84,-301 630.84,-297.5 620.84,-294 620.84,-301"/>
</a>
</g>
</g>
<!-- Node19 -->
<g id="Node000019" class="node">
<title>Node19</title>
<g id="a_Node000019"><a xlink:href="classCrewBase.html#a0c35d7b81e7bbda6c1187cd56da46b19" target="_top" xlink:title="선원이 함선 스탯에 기여하는 수치를 반환합니다. 예: 산소 소모량 등.">
<polygon fill="white" stroke="#666666" points="839,-216 605,-216 605,-195 839,-195 839,-216"/>
<text text-anchor="middle" x="722" y="-202.4" font-family="Consolas" font-size="12.00">CrewBase.GetStatContributions</text>
</a>
</g>
</g>
<!-- Node11&#45;&gt;Node19 -->
<g id="edge19_Node000011_Node000019" class="edge">
<title>Node11&#45;&gt;Node19</title>
<g id="a_edge19_Node000011_Node000019"><a xlink:title=" ">
<path fill="none" stroke="#63b8ff" d="M546.5,-287.73C553,-285.22 559.24,-282.18 565,-278.5 589,-263.18 577.02,-240.86 601,-225.5 604.03,-223.56 607.18,-221.79 610.43,-220.18"/>
<polygon fill="#63b8ff" stroke="#63b8ff" points="612.09,-223.27 619.83,-216.03 609.27,-216.87 612.09,-223.27"/>
</a>
</g>
</g>
<!-- Node20 -->
<g id="Node000020" class="node">
<title>Node20</title>
<g id="a_Node000020"><a xlink:href="classRoom.html#a8533094cb230185cce7735d640d950f1" target="_top" xlink:title="방이 함선 스탯에 기여하는 값을 반환합니다.">
<polygon fill="white" stroke="#666666" points="824,-347 620,-347 620,-326 824,-326 824,-347"/>
<text text-anchor="middle" x="722" y="-333.4" font-family="Consolas" font-size="12.00">Room.GetStatContributions</text>
</a>
</g>
</g>
<!-- Node11&#45;&gt;Node20 -->
<g id="edge20_Node000011_Node000020" class="edge">
<title>Node11&#45;&gt;Node20</title>
<g id="a_edge20_Node000011_Node000020"><a xlink:title=" ">
<path fill="none" stroke="#63b8ff" d="M522.25,-308C557.77,-313.1 600.62,-319.24 637.41,-324.52"/>
<polygon fill="#63b8ff" stroke="#63b8ff" points="637.22,-328.02 647.62,-325.98 638.22,-321.09 637.22,-328.02"/>
</a>
</g>
</g>
<!-- Node22 -->
<g id="Node000022" class="node">
<title>Node22</title>
<g id="a_Node000022"><a xlink:href="classShip.html#a7ce33b470844e7f8b04df7741582010a" target="_top" xlink:title="함선의 기본 스탯을 초기화합니다. 모든 ShipStat 값을 0으로 설정하여 이후 계산의 기준을 만듭니다.">
<polygon fill="white" stroke="#666666" points="820.5,-177 623.5,-177 623.5,-156 820.5,-156 820.5,-177"/>
<text text-anchor="middle" x="722" y="-163.4" font-family="Consolas" font-size="12.00">Ship.InitializeBaseStats</text>
</a>
</g>
</g>
<!-- Node11&#45;&gt;Node22 -->
<g id="edge23_Node000011_Node000022" class="edge">
<title>Node11&#45;&gt;Node22</title>
<g id="a_edge23_Node000011_Node000022"><a xlink:title=" ">
<path fill="none" stroke="#63b8ff" d="M546.67,-289.51C553.24,-286.61 559.45,-282.99 565,-278.5 599.14,-250.89 566.9,-214.16 601,-186.5 605.1,-183.18 609.54,-180.31 614.22,-177.84"/>
<polygon fill="#63b8ff" stroke="#63b8ff" points="615.86,-180.94 623.48,-173.58 612.93,-174.58 615.86,-180.94"/>
</a>
</g>
</g>
<!-- Node23 -->
<g id="Node000023" class="node">
<title>Node23</title>
<g id="a_Node000023"><a xlink:href="classShip.html#a4ef99106ff3d8b5e7149f15ff9317769" target="_top" xlink:title="주어진 ShipStat이 가산형(덧셈 방식) 스탯인지 여부를 반환합니다. 예: 쉴드 최대량, 산소 생성량 등은 단순 덧셈으로 누적됩니다.">
<polygon fill="white" stroke="#666666" points="816.5,-138 627.5,-138 627.5,-117 816.5,-117 816.5,-138"/>
<text text-anchor="middle" x="722" y="-124.4" font-family="Consolas" font-size="12.00">Ship.IsAdditiveStatType</text>
</a>
</g>
</g>
<!-- Node11&#45;&gt;Node23 -->
<g id="edge24_Node000011_Node000023" class="edge">
<title>Node11&#45;&gt;Node23</title>
<g id="a_edge24_Node000011_Node000023"><a xlink:title=" ">
<path fill="none" stroke="#63b8ff" d="M546.66,-290.41C553.32,-287.32 559.54,-283.41 565,-278.5 609.89,-238.12 556.16,-187.94 601,-147.5 606.11,-142.89 611.86,-139.13 618.02,-136.08"/>
<polygon fill="#63b8ff" stroke="#63b8ff" points="619.48,-139.26 627.28,-132.1 616.71,-132.83 619.48,-139.26"/>
</a>
</g>
</g>
<!-- Node24 -->
<g id="Node000024" class="node">
<title>Node24</title>
<g id="a_Node000024"><a xlink:href="classShip.html#ae9a8351b5c780010ba90040c511976f6" target="_top" xlink:title="주어진 ShipStat이 배율형(곱셈 방식) 스탯인지 여부를 반환합니다. 예: 회피율 보너스 %, 데미지 증폭 % 등이 해당됩니다. 현재는 정의된 곱셈 스탯이 없습니다.">
<polygon fill="white" stroke="#666666" points="839,-99 605,-99 605,-78 839,-78 839,-99"/>
<text text-anchor="middle" x="722" y="-85.4" font-family="Consolas" font-size="12.00">Ship.IsMultiplicativeStatType</text>
</a>
</g>
</g>
<!-- Node11&#45;&gt;Node24 -->
<g id="edge25_Node000011_Node000024" class="edge">
<title>Node11&#45;&gt;Node24</title>
<g id="a_edge25_Node000011_Node000024"><a xlink:title=" ">
<path fill="none" stroke="#63b8ff" d="M546.72,-290.89C553.4,-287.71 559.61,-283.64 565,-278.5 620.86,-225.17 545.21,-161.91 601,-108.5 602.31,-107.24 603.67,-106.05 605.07,-104.92"/>
<polygon fill="#63b8ff" stroke="#63b8ff" points="607.31,-107.62 613.53,-99.05 603.32,-101.87 607.31,-107.62"/>
</a>
</g>
</g>
<!-- Node25 -->
<g id="Node000025" class="node">
<title>Node25</title>
<g id="a_Node000025"><a xlink:href="classShip.html#ad8f70687934e3a804bf86e704ca18150" target="_top" xlink:title="현재 함선의 스탯과 룸별 스탯 기여도를 콘솔에 출력합니다. 디버깅 모드가 활성화된 경우에만 호출되며, 전체 스탯 상태를 확인할 수 있습니다.">
<polygon fill="white" stroke="#666666" points="816.5,-464 627.5,-464 627.5,-443 816.5,-443 816.5,-464"/>
<text text-anchor="middle" x="722" y="-450.4" font-family="Consolas" font-size="12.00">Ship.PrintDebugStatInfo</text>
</a>
</g>
</g>
<!-- Node11&#45;&gt;Node25 -->
<g id="edge26_Node000011_Node000025" class="edge">
<title>Node11&#45;&gt;Node25</title>
<g id="a_edge26_Node000011_Node000025"><a xlink:title=" ">
<path fill="none" stroke="#63b8ff" d="M463.61,-308.14C486.3,-324.96 530.94,-359.2 565,-392.5 582.58,-409.69 579.54,-422.51 601,-434.5 606.25,-437.43 611.82,-439.95 617.57,-442.1"/>
<polygon fill="#63b8ff" stroke="#63b8ff" points="616.8,-445.54 627.4,-445.4 619.03,-438.9 616.8,-445.54"/>
</a>
</g>
</g>
<!-- Node26 -->
<g id="Node000026" class="node">
<title>Node26</title>
<g id="a_Node000026"><a xlink:href="classMoraleManager.html#af1cb805b49d259cc84441559dd0bb1c6" target="_top" xlink:title="전체 선원 사기 한 번에 할당">
<polygon fill="white" stroke="#666666" points="820.5,-268.5 623.5,-268.5 623.5,-234.5 820.5,-234.5 820.5,-268.5"/>
<text text-anchor="start" x="631.5" y="-254.9" font-family="Consolas" font-size="12.00">MoraleManager.SetAllCrew</text>
<text text-anchor="middle" x="722" y="-241.9" font-family="Consolas" font-size="12.00">Morale</text>
</a>
</g>
</g>
<!-- Node11&#45;&gt;Node26 -->
<g id="edge27_Node000011_Node000026" class="edge">
<title>Node11&#45;&gt;Node26</title>
<g id="a_edge27_Node000011_Node000026"><a xlink:title=" ">
<path fill="none" stroke="#63b8ff" d="M514.05,-286.95C530.67,-284.23 548.5,-281.28 565,-278.5 580.6,-275.87 597.07,-273.06 613.23,-270.28"/>
<polygon fill="#63b8ff" stroke="#63b8ff" points="613.98,-273.71 623.24,-268.56 612.79,-266.81 613.98,-273.71"/>
</a>
</g>
</g>
<!-- Node12&#45;&gt;Node3 -->
<g id="edge12_Node000012_Node000003" class="edge">
<title>Node12&#45;&gt;Node3</title>
<g id="a_edge12_Node000012_Node000003"><a xlink:title=" ">
<path fill="none" stroke="#63b8ff" d="M830.2,-554.52C857.38,-558.84 886.03,-563.39 911.32,-567.4"/>
<polygon fill="#63b8ff" stroke="#63b8ff" points="910.77,-570.86 921.2,-568.97 911.87,-563.95 910.77,-570.86"/>
</a>
</g>
</g>
<!-- Node13 -->
<g id="Node000013" class="node">
<title>Node13</title>
<g id="a_Node000013"><a xlink:href="classShip.html#a89be268214921c4585f6b70038b98c8e" target="_top" xlink:title="현재 탑승 중인 크루 수를 반환합니다.">
<polygon fill="white" stroke="#666666" points="1060.5,-548 916.5,-548 916.5,-527 1060.5,-527 1060.5,-548"/>
<text text-anchor="middle" x="988.5" y="-534.4" font-family="Consolas" font-size="12.00">Ship.GetCrewCount</text>
</a>
</g>
</g>
<!-- Node12&#45;&gt;Node13 -->
<g id="edge13_Node000012_Node000013" class="edge">
<title>Node12&#45;&gt;Node13</title>
<g id="a_edge13_Node000012_Node000013"><a xlink:title=" ">
<path fill="none" stroke="#63b8ff" d="M835.56,-537.5C859.33,-537.5 883.98,-537.5 906.32,-537.5"/>
<polygon fill="#63b8ff" stroke="#63b8ff" points="906.42,-541 916.42,-537.5 906.42,-534 906.42,-541"/>
</a>
</g>
</g>
<!-- Node14 -->
<g id="Node000014" class="node">
<title>Node14</title>
<g id="a_Node000014"><a xlink:href="classCrewSystem.html#ae270e71cdbafb68eb26d6f031758b1f5" target="_top" xlink:title="현재 탑승 중인 크루의 수를 반환합니다.">
<polygon fill="white" stroke="#666666" points="1323,-548 1134,-548 1134,-527 1323,-527 1323,-548"/>
<text text-anchor="middle" x="1228.5" y="-534.4" font-family="Consolas" font-size="12.00">CrewSystem.GetCrewCount</text>
</a>
</g>
</g>
<!-- Node13&#45;&gt;Node14 -->
<g id="edge14_Node000013_Node000014" class="edge">
<title>Node13&#45;&gt;Node14</title>
<g id="a_edge14_Node000013_Node000014"><a xlink:title=" ">
<path fill="none" stroke="#63b8ff" d="M1060.59,-537.5C1080.45,-537.5 1102.46,-537.5 1123.79,-537.5"/>
<polygon fill="#63b8ff" stroke="#63b8ff" points="1123.87,-541 1133.87,-537.5 1123.87,-534 1123.87,-541"/>
</a>
</g>
</g>
<!-- Node18 -->
<g id="Node000018" class="node">
<title>Node18</title>
<g id="a_Node000018"><a xlink:href="classOuterHullSystem.html#ab352abfc02989177392c3b60dd28ddc3" target="_top" xlink:title="외부 선체 시스템의 현재 레벨을 반환합니다.">
<polygon fill="white" stroke="#666666" points="1087,-310.5 890,-310.5 890,-276.5 1087,-276.5 1087,-310.5"/>
<text text-anchor="start" x="898" y="-296.9" font-family="Consolas" font-size="12.00">OuterHullSystem.GetOuter</text>
<text text-anchor="middle" x="988.5" y="-283.9" font-family="Consolas" font-size="12.00">HullLevel</text>
</a>
</g>
</g>
<!-- Node17&#45;&gt;Node18 -->
<g id="edge18_Node000017_Node000018" class="edge">
<title>Node17&#45;&gt;Node18</title>
<g id="a_edge18_Node000017_Node000018"><a xlink:title=" ">
<path fill="none" stroke="#63b8ff" d="M813.29,-296.13C834.7,-295.81 857.75,-295.46 879.85,-295.13"/>
<polygon fill="#63b8ff" stroke="#63b8ff" points="879.98,-298.63 889.93,-294.98 879.88,-291.63 879.98,-298.63"/>
</a>
</g>
</g>
<!-- Node20&#45;&gt;Node5 -->
<g id="edge21_Node000020_Node000005" class="edge">
<title>Node20&#45;&gt;Node5</title>
<g id="a_edge21_Node000020_Node000005"><a xlink:title=" ">
<path fill="none" stroke="#63b8ff" d="M807.8,-347.03C819.77,-349.55 831.81,-352.67 843,-356.5 887.83,-371.86 935.36,-400.15 963.18,-418.11"/>
<polygon fill="#63b8ff" stroke="#63b8ff" points="961.55,-421.23 971.83,-423.77 965.38,-415.37 961.55,-421.23"/>
</a>
</g>
</g>
<!-- Node21 -->
<g id="Node000021" class="node">
<title>Node21</title>
<g id="a_Node000021"><a xlink:href="classRoom.html#af15fefedd48a2009da56d461a9084ed8" target="_top" xlink:title="방이 작동 가능한 상태인지 확인합니다.">
<polygon fill="white" stroke="#666666" points="1064.5,-350 912.5,-350 912.5,-329 1064.5,-329 1064.5,-350"/>
<text text-anchor="middle" x="988.5" y="-336.4" font-family="Consolas" font-size="12.00">Room.IsOperational</text>
</a>
</g>
</g>
<!-- Node20&#45;&gt;Node21 -->
<g id="edge22_Node000020_Node000021" class="edge">
<title>Node20&#45;&gt;Node21</title>
<g id="a_edge22_Node000020_Node000021"><a xlink:title=" ">
<path fill="none" stroke="#63b8ff" d="M824.13,-337.65C849.89,-337.94 877.33,-338.25 902.21,-338.53"/>
<polygon fill="#63b8ff" stroke="#63b8ff" points="902.3,-342.03 912.34,-338.65 902.38,-335.03 902.3,-342.03"/>
</a>
</g>
</g>
</g>
</svg>
