<?xml version="1.0" encoding="UTF-8" standalone="no"?>
<!DOCTYPE svg PUBLIC "-//W3C//DTD SVG 1.1//EN"
 "http://www.w3.org/Graphics/SVG/1.1/DTD/svg11.dtd">
<!-- Generated by graphviz version 2.43.0 (0)
 -->
<!-- Title: ES3Editor.EditorStyle Pages: 1 -->
<!--zoomable 611 -->

<svg id="main" version="1.1" xmlns="http://www.w3.org/2000/svg" xmlns:xlink="http://www.w3.org/1999/xlink" xml:space="preserve" onload="init(evt)">
<style type="text/css"><![CDATA[
.node, .edge {opacity: 0.7;}
.node.selected, .edge.selected {opacity: 1;}
.edge:hover path { stroke: red; }
.edge:hover polygon { stroke: red; fill: red; }
]]></style>

<defs>
  <circle id="rim" cx="0" cy="0" r="7"/>
  <circle id="rim2" cx="0" cy="0" r="3.5"/>
  <g id="zoomPlus">
    <use xlink:href="#rim" fill="#404040"><set attributeName="fill" to="#808080" begin="zoomplus.mouseover" end="zoomplus.mouseout"/></use>
    <path d="M-4,0h8M0,-4v8" fill="none" stroke="white" stroke-width="1.5" pointer-events="none"/>
  </g>
  <g id="zoomMin">
    <use xlink:href="#rim" fill="#404040"><set attributeName="fill" to="#808080" begin="zoomminus.mouseover" end="zoomminus.mouseout"/></use>
    <path d="M-4,0h8" fill="none" stroke="white" stroke-width="1.5" pointer-events="none"/>
  </g>
  <g id="arrowUp" transform="translate(30 24)">
    <use xlink:href="#rim"/>
    <path pointer-events="none" fill="none" stroke="white" stroke-width="1.5" d="M0,-3.0v7 M-2.5,-0.5L0,-3.0L2.5,-0.5"/>
  </g>
  <g id="arrowRight" transform="rotate(90) translate(36 -43)">
    <use xlink:href="#rim"/>
    <path pointer-events="none" fill="none" stroke="white" stroke-width="1.5" d="M0,-3.0v7 M-2.5,-0.5L0,-3.0L2.5,-0.5"/>
  </g>
  <g id="arrowDown" transform="rotate(180) translate(-30 -48)">
    <use xlink:href="#rim"/>
    <path pointer-events="none" fill="none" stroke="white" stroke-width="1.5" d="M0,-3.0v7 M-2.5,-0.5L0,-3.0L2.5,-0.5"/>
  </g>
  <g id="arrowLeft" transform="rotate(270) translate(-36 17)">
    <use xlink:href="#rim"/>
    <path pointer-events="none" fill="none" stroke="white" stroke-width="1.5" d="M0,-3.0v7 M-2.5,-0.5L0,-3.0L2.5,-0.5"/>
  </g>
  <g id="resetDef">
    <use xlink:href="#rim2" fill="#404040"><set attributeName="fill" to="#808080" begin="reset.mouseover" end="reset.mouseout"/></use>
  </g>
</defs>
<script type="application/ecmascript">
var viewWidth = 315;
var viewHeight = 611;
var sectionId = 'dynsection-0';
</script>
<script type="application/ecmascript" xlink:href="svg.min.js"/>
<svg id="graph" class="graph">
<g id="viewport">
<title>ES3Editor.EditorStyle</title>
<!-- Node1 -->
<g id="Node000001" class="node">
<title>Node1</title>
<g id="a_Node000001"><a xlink:title=" ">
<polygon fill="#999999" stroke="transparent" points="231,-276 0,-276 0,0 231,0 231,-276"/>
<text text-anchor="start" x="37" y="-262.4" font-family="Consolas" font-size="12.00">ES3Editor.EditorStyle</text>
<text text-anchor="start" x="4.5" y="-245.4" font-family="Consolas" font-size="12.00">+</text>
<text text-anchor="start" x="16.5" y="-245.4" font-family="Consolas" font-size="12.00">GUIStyle area</text>
<text text-anchor="start" x="4.5" y="-228.4" font-family="Consolas" font-size="12.00">+</text>
<text text-anchor="start" x="16.5" y="-228.4" font-family="Consolas" font-size="12.00">GUIStyle areaPadded</text>
<text text-anchor="start" x="4.5" y="-211.4" font-family="Consolas" font-size="12.00">+</text>
<text text-anchor="start" x="16.5" y="-211.4" font-family="Consolas" font-size="12.00">GUIStyle menuButton</text>
<text text-anchor="start" x="4.5" y="-194.4" font-family="Consolas" font-size="12.00">+</text>
<text text-anchor="start" x="16.5" y="-194.4" font-family="Consolas" font-size="12.00">GUIStyle menuButtonSelected</text>
<text text-anchor="start" x="4.5" y="-177.4" font-family="Consolas" font-size="12.00">+</text>
<text text-anchor="start" x="16.5" y="-177.4" font-family="Consolas" font-size="12.00">GUIStyle smallSquareButton</text>
<text text-anchor="start" x="4.5" y="-160.4" font-family="Consolas" font-size="12.00">+</text>
<text text-anchor="start" x="16.5" y="-160.4" font-family="Consolas" font-size="12.00">GUIStyle heading</text>
<text text-anchor="start" x="4.5" y="-143.4" font-family="Consolas" font-size="12.00">+</text>
<text text-anchor="start" x="16.5" y="-143.4" font-family="Consolas" font-size="12.00">GUIStyle subheading</text>
<text text-anchor="start" x="4.5" y="-126.4" font-family="Consolas" font-size="12.00">+</text>
<text text-anchor="start" x="16.5" y="-126.4" font-family="Consolas" font-size="12.00">GUIStyle subheading2</text>
<text text-anchor="start" x="4.5" y="-109.4" font-family="Consolas" font-size="12.00">+</text>
<text text-anchor="start" x="16.5" y="-109.4" font-family="Consolas" font-size="12.00">GUIStyle boldLabelNoStretch</text>
<text text-anchor="start" x="4.5" y="-92.4" font-family="Consolas" font-size="12.00">+</text>
<text text-anchor="start" x="16.5" y="-92.4" font-family="Consolas" font-size="12.00">GUIStyle link</text>
<text text-anchor="start" x="4.5" y="-75.4" font-family="Consolas" font-size="12.00">+</text>
<text text-anchor="start" x="16.5" y="-75.4" font-family="Consolas" font-size="12.00">GUIStyle toggle</text>
<text text-anchor="start" x="4.5" y="-58.4" font-family="Consolas" font-size="12.00">+</text>
<text text-anchor="start" x="16.5" y="-58.4" font-family="Consolas" font-size="12.00">Texture2D saveIconSelected</text>
<text text-anchor="start" x="4.5" y="-41.4" font-family="Consolas" font-size="12.00">+</text>
<text text-anchor="start" x="16.5" y="-41.4" font-family="Consolas" font-size="12.00">Texture2D saveIconUnselected</text>
<text text-anchor="start" x="4.5" y="-24.4" font-family="Consolas" font-size="12.00">+</text>
<text text-anchor="start" x="16.5" y="-24.4" font-family="Consolas" font-size="12.00">static EditorStyle Get</text>
<text text-anchor="start" x="4.5" y="-7.4" font-family="Consolas" font-size="12.00">+</text>
<text text-anchor="start" x="16.5" y="-7.4" font-family="Consolas" font-size="12.00">EditorStyle()</text>
<polygon fill="#666666" stroke="#666666" points="0.5,-257 0.5,-257 231.5,-257 231.5,-257 0.5,-257"/>
<polygon fill="#666666" stroke="#666666" points="0.5,-19 0.5,-19 14.5,-19 14.5,-19 0.5,-19"/>
<polygon fill="#666666" stroke="#666666" points="14.5,-19 14.5,-19 231.5,-19 231.5,-19 14.5,-19"/>
<polygon fill="none" stroke="#666666" points="0,0 0,-276 231,-276 231,0 0,0"/>
</a>
</g>
</g>
<!-- Node2 -->
<g id="Node000002" class="node">
<title>Node2</title>
<g id="a_Node000002"><a xlink:href="classES3Editor_1_1EditorStyle.html" target="_top" xlink:title=" ">
<polygon fill="white" stroke="transparent" points="231,-603 0,-603 0,-327 231,-327 231,-603"/>
<text text-anchor="start" x="37" y="-589.4" font-family="Consolas" font-size="12.00">ES3Editor.EditorStyle</text>
<text text-anchor="start" x="4.5" y="-572.4" font-family="Consolas" font-size="12.00">+</text>
<text text-anchor="start" x="16.5" y="-572.4" font-family="Consolas" font-size="12.00">GUIStyle area</text>
<text text-anchor="start" x="4.5" y="-555.4" font-family="Consolas" font-size="12.00">+</text>
<text text-anchor="start" x="16.5" y="-555.4" font-family="Consolas" font-size="12.00">GUIStyle areaPadded</text>
<text text-anchor="start" x="4.5" y="-538.4" font-family="Consolas" font-size="12.00">+</text>
<text text-anchor="start" x="16.5" y="-538.4" font-family="Consolas" font-size="12.00">GUIStyle menuButton</text>
<text text-anchor="start" x="4.5" y="-521.4" font-family="Consolas" font-size="12.00">+</text>
<text text-anchor="start" x="16.5" y="-521.4" font-family="Consolas" font-size="12.00">GUIStyle menuButtonSelected</text>
<text text-anchor="start" x="4.5" y="-504.4" font-family="Consolas" font-size="12.00">+</text>
<text text-anchor="start" x="16.5" y="-504.4" font-family="Consolas" font-size="12.00">GUIStyle smallSquareButton</text>
<text text-anchor="start" x="4.5" y="-487.4" font-family="Consolas" font-size="12.00">+</text>
<text text-anchor="start" x="16.5" y="-487.4" font-family="Consolas" font-size="12.00">GUIStyle heading</text>
<text text-anchor="start" x="4.5" y="-470.4" font-family="Consolas" font-size="12.00">+</text>
<text text-anchor="start" x="16.5" y="-470.4" font-family="Consolas" font-size="12.00">GUIStyle subheading</text>
<text text-anchor="start" x="4.5" y="-453.4" font-family="Consolas" font-size="12.00">+</text>
<text text-anchor="start" x="16.5" y="-453.4" font-family="Consolas" font-size="12.00">GUIStyle subheading2</text>
<text text-anchor="start" x="4.5" y="-436.4" font-family="Consolas" font-size="12.00">+</text>
<text text-anchor="start" x="16.5" y="-436.4" font-family="Consolas" font-size="12.00">GUIStyle boldLabelNoStretch</text>
<text text-anchor="start" x="4.5" y="-419.4" font-family="Consolas" font-size="12.00">+</text>
<text text-anchor="start" x="16.5" y="-419.4" font-family="Consolas" font-size="12.00">GUIStyle link</text>
<text text-anchor="start" x="4.5" y="-402.4" font-family="Consolas" font-size="12.00">+</text>
<text text-anchor="start" x="16.5" y="-402.4" font-family="Consolas" font-size="12.00">GUIStyle toggle</text>
<text text-anchor="start" x="4.5" y="-385.4" font-family="Consolas" font-size="12.00">+</text>
<text text-anchor="start" x="16.5" y="-385.4" font-family="Consolas" font-size="12.00">Texture2D saveIconSelected</text>
<text text-anchor="start" x="4.5" y="-368.4" font-family="Consolas" font-size="12.00">+</text>
<text text-anchor="start" x="16.5" y="-368.4" font-family="Consolas" font-size="12.00">Texture2D saveIconUnselected</text>
<text text-anchor="start" x="4.5" y="-351.4" font-family="Consolas" font-size="12.00">+</text>
<text text-anchor="start" x="16.5" y="-351.4" font-family="Consolas" font-size="12.00">static EditorStyle Get</text>
<text text-anchor="start" x="4.5" y="-334.4" font-family="Consolas" font-size="12.00">+</text>
<text text-anchor="start" x="16.5" y="-334.4" font-family="Consolas" font-size="12.00">EditorStyle()</text>
<polygon fill="#bfbfbf" stroke="#bfbfbf" points="0.5,-584 0.5,-584 231.5,-584 231.5,-584 0.5,-584"/>
<polygon fill="#bfbfbf" stroke="#bfbfbf" points="0.5,-346 0.5,-346 14.5,-346 14.5,-346 0.5,-346"/>
<polygon fill="#bfbfbf" stroke="#bfbfbf" points="14.5,-346 14.5,-346 231.5,-346 231.5,-346 14.5,-346"/>
<polygon fill="none" stroke="#bfbfbf" points="0,-327 0,-603 231,-603 231,-327 0,-327"/>
</a>
</g>
</g>
<!-- Node2&#45;&gt;Node1 -->
<g id="edge1_Node000001_Node000002" class="edge">
<title>Node2&#45;&gt;Node1</title>
<g id="a_edge1_Node000001_Node000002"><a xlink:title=" ">
<path fill="none" stroke="#63b8ff" d="M115.5,-326.64C115.5,-313.97 115.5,-301.09 115.5,-288.33"/>
<polygon fill="none" stroke="#63b8ff" points="115.5,-288.13 111.5,-282.13 115.5,-276.13 119.5,-282.13 115.5,-288.13"/>
</a>
</g>
<text text-anchor="middle" x="144.5" y="-297.8" font-family="Consolas" font-size="14.00" fill="grey"> &#45;style</text>
</g>
<!-- Node2&#45;&gt;Node2 -->
<g id="edge2_Node000002_Node000002" class="edge">
<title>Node2&#45;&gt;Node2</title>
<g id="a_edge2_Node000002_Node000002"><a xlink:title=" ">
<path fill="none" stroke="#63b8ff" d="M231.31,-489.35C242.15,-484.35 249,-476.23 249,-465 249,-457.98 246.33,-452.18 241.67,-447.59"/>
<polygon fill="none" stroke="#63b8ff" points="241.28,-447.33 234.07,-447.31 231.31,-440.65 238.52,-440.66 241.28,-447.33"/>
</a>
</g>
<text text-anchor="middle" x="278" y="-461.3" font-family="Consolas" font-size="14.00" fill="grey"> &#45;style</text>
</g>
</g>
</svg>

<g id="navigator" transform="translate(0 0)" fill="#404254">
  <rect fill="#f2f5e9" fill-opacity="0.5" stroke="#606060" stroke-width=".5" x="0" y="0" width="60" height="60"/>
  <use id="zoomplus" xlink:href="#zoomPlus" x="17" y="9" onmousedown="handleZoom(evt,'in')"/>
  <use id="zoomminus" xlink:href="#zoomMin" x="42" y="9" onmousedown="handleZoom(evt,'out')"/>
  <use id="reset" xlink:href="#resetDef" x="30" y="36" onmousedown="handleReset()"/>
   <use id="arrowup" xlink:href="#arrowUp" x="0" y="0" onmousedown="handlePan(0,-1)"/>
  <use id="arrowright" xlink:href="#arrowRight" x="0" y="0" onmousedown="handlePan(1,0)"/>
  <use id="arrowdown" xlink:href="#arrowDown" x="0" y="0" onmousedown="handlePan(0,1)"/>
  <use id="arrowleft" xlink:href="#arrowLeft" x="0" y="0" onmousedown="handlePan(-1,0)"/>
</g>
<svg viewBox="0 0 15 15" width="100%" height="30px" preserveAspectRatio="xMaxYMin meet">
 <g id="arrow_out" transform="scale(0.3 0.3)">
  <a xlink:href="classES3Editor_1_1EditorStyle__coll__graph_org.svg" target="_base">
   <rect id="button" ry="5" rx="5" y="6" x="6" height="38" width="38"
        fill="#f2f5e9" fill-opacity="0.5" stroke="#606060" stroke-width="1.0"/>
   <path id="arrow"
     d="M 11.500037,31.436501 C 11.940474,20.09759 22.043105,11.32322 32.158766,21.979434 L 37.068811,17.246167 C 37.068811,17.246167 37.088388,32 37.088388,32 L 22.160133,31.978069 C 22.160133,31.978069 26.997745,27.140456 26.997745,27.140456 C 18.528582,18.264221 13.291696,25.230495 11.500037,31.436501 z"
     style="fill:#404040;"/>
  </a>
 </g>
</svg>

<style type='text/css'>
<![CDATA[
[data-mouse-over-selected='false'] { opacity: 0.7; }
[data-mouse-over-selected='true']  { opacity: 1.0; }
]]>
</style>
<script type="application/ecmascript"><![CDATA[
document.addEventListener('DOMContentLoaded', (event) => {
  highlightEdges();
  highlightAdjacentNodes();
});
]]></script>
</svg>
