<?xml version="1.0" encoding="UTF-8" standalone="no"?>
<!DOCTYPE svg PUBLIC "-//W3C//DTD SVG 1.1//EN"
 "http://www.w3.org/Graphics/SVG/1.1/DTD/svg11.dtd">
<!-- Generated by graphviz version 2.43.0 (0)
 -->
<!-- Title: CrewFactory Pages: 1 -->
<svg width="299pt" height="586pt"
 viewBox="0.00 0.00 299.00 586.00" xmlns="http://www.w3.org/2000/svg" xmlns:xlink="http://www.w3.org/1999/xlink">
<g id="graph0" class="graph" transform="scale(1 1) rotate(0) translate(4 582)">
<title>CrewFactory</title>
<!-- Node1 -->
<g id="Node000001" class="node">
<title>Node1</title>
<g id="a_Node000001"><a xlink:title="선원 관리 및 생성을 담당하는 싱글톤 매니저 클래스">
<polygon fill="#999999" stroke="transparent" points="291,-487 0,-487 0,0 291,0 291,-487"/>
<text text-anchor="start" x="104.5" y="-472.9" font-family="Consolas" font-size="12.00">CrewFactory</text>
<text text-anchor="start" x="4.5" y="-455.9" font-family="Consolas" font-size="12.00">+</text>
<text text-anchor="start" x="16.5" y="-455.9" font-family="Consolas" font-size="12.00">CrewDatabase crewDatabase</text>
<text text-anchor="start" x="4.5" y="-438.9" font-family="Consolas" font-size="12.00">&#45;</text>
<text text-anchor="start" x="16.5" y="-438.9" font-family="Consolas" font-size="12.00">GameObject crewPrefab</text>
<text text-anchor="start" x="4.5" y="-421.9" font-family="Consolas" font-size="12.00">&#45;</text>
<text text-anchor="start" x="16.5" y="-421.9" font-family="Consolas" font-size="12.00">List&lt; string &gt; humanNamePool</text>
<text text-anchor="start" x="4.5" y="-404.9" font-family="Consolas" font-size="12.00">&#45;</text>
<text text-anchor="start" x="16.5" y="-404.9" font-family="Consolas" font-size="12.00">List&lt; string &gt; amorphous</text>
<text text-anchor="start" x="16.5" y="-391.9" font-family="Consolas" font-size="12.00">NamePool</text>
<text text-anchor="start" x="4.5" y="-374.9" font-family="Consolas" font-size="12.00">&#45;</text>
<text text-anchor="start" x="16.5" y="-374.9" font-family="Consolas" font-size="12.00">List&lt; string &gt; beastNamePool</text>
<text text-anchor="start" x="4.5" y="-357.9" font-family="Consolas" font-size="12.00">&#45;</text>
<text text-anchor="start" x="16.5" y="-357.9" font-family="Consolas" font-size="12.00">List&lt; string &gt; insectNamePool</text>
<text text-anchor="start" x="4.5" y="-340.9" font-family="Consolas" font-size="12.00">&#45;</text>
<text text-anchor="start" x="16.5" y="-340.9" font-family="Consolas" font-size="12.00">List&lt; string &gt; mechSupNamePool</text>
<text text-anchor="start" x="4.5" y="-323.9" font-family="Consolas" font-size="12.00">&#45;</text>
<text text-anchor="start" x="16.5" y="-323.9" font-family="Consolas" font-size="12.00">List&lt; string &gt; mechTankNamePool</text>
<text text-anchor="start" x="4.5" y="-306.9" font-family="Consolas" font-size="12.00">&#45;</text>
<text text-anchor="start" x="16.5" y="-306.9" font-family="Consolas" font-size="12.00">int nextCrewId</text>
<text text-anchor="start" x="4.5" y="-289.9" font-family="Consolas" font-size="12.00">+</text>
<text text-anchor="start" x="16.5" y="-289.9" font-family="Consolas" font-size="12.00">CrewDatabase.RaceStat</text>
<text text-anchor="start" x="16.5" y="-276.9" font-family="Consolas" font-size="12.00"> GetRaceStat(CrewRace race)</text>
<text text-anchor="start" x="4.5" y="-259.9" font-family="Consolas" font-size="12.00">+</text>
<text text-anchor="start" x="16.5" y="-259.9" font-family="Consolas" font-size="12.00">CrewBase CreateCrewInstance</text>
<text text-anchor="start" x="16.5" y="-246.9" font-family="Consolas" font-size="12.00">(CrewRace race, string name</text>
<text text-anchor="start" x="16.5" y="-233.9" font-family="Consolas" font-size="12.00">=null, bool isPlayerControlled=true)</text>
<text text-anchor="start" x="4.5" y="-216.9" font-family="Consolas" font-size="12.00">+</text>
<text text-anchor="start" x="16.5" y="-216.9" font-family="Consolas" font-size="12.00">CrewBase CreateCrewObject</text>
<text text-anchor="start" x="16.5" y="-203.9" font-family="Consolas" font-size="12.00">(CrewBase crew)</text>
<text text-anchor="start" x="4.5" y="-186.9" font-family="Consolas" font-size="12.00">+</text>
<text text-anchor="start" x="16.5" y="-186.9" font-family="Consolas" font-size="12.00">CrewBase RestoreCrewFrom</text>
<text text-anchor="start" x="16.5" y="-173.9" font-family="Consolas" font-size="12.00">ES3(string savedKey, string</text>
<text text-anchor="start" x="16.5" y="-160.9" font-family="Consolas" font-size="12.00"> filename)</text>
<text text-anchor="start" x="4.5" y="-143.9" font-family="Consolas" font-size="12.00">+</text>
<text text-anchor="start" x="16.5" y="-143.9" font-family="Consolas" font-size="12.00">string GenerateRandomName</text>
<text text-anchor="start" x="16.5" y="-130.9" font-family="Consolas" font-size="12.00">(CrewRace race)</text>
<text text-anchor="start" x="4.5" y="-113.9" font-family="Consolas" font-size="12.00">+</text>
<text text-anchor="start" x="16.5" y="-113.9" font-family="Consolas" font-size="12.00">void InitializeNamePools()</text>
<text text-anchor="start" x="4.5" y="-96.9" font-family="Consolas" font-size="12.00">&#45;</text>
<text text-anchor="start" x="16.5" y="-96.9" font-family="Consolas" font-size="12.00">void Awake()</text>
<text text-anchor="start" x="4.5" y="-79.9" font-family="Consolas" font-size="12.00">&#45;</text>
<text text-anchor="start" x="16.5" y="-79.9" font-family="Consolas" font-size="12.00">void InitializeCrewStats</text>
<text text-anchor="start" x="16.5" y="-66.9" font-family="Consolas" font-size="12.00">(CrewBase crew)</text>
<text text-anchor="start" x="4.5" y="-49.9" font-family="Consolas" font-size="12.00">&#45;</text>
<text text-anchor="start" x="16.5" y="-49.9" font-family="Consolas" font-size="12.00">void InitializeCrewCollider</text>
<text text-anchor="start" x="16.5" y="-36.9" font-family="Consolas" font-size="12.00">(CrewBase crew)</text>
<text text-anchor="start" x="4.5" y="-19.9" font-family="Consolas" font-size="12.00">&#45;</text>
<text text-anchor="start" x="16.5" y="-19.9" font-family="Consolas" font-size="12.00">void InitializeCrewAnimator</text>
<text text-anchor="start" x="16.5" y="-6.9" font-family="Consolas" font-size="12.00">(CrewBase crew)</text>
<polygon fill="#666666" stroke="#666666" points="0.5,-467.5 0.5,-467.5 291.5,-467.5 291.5,-467.5 0.5,-467.5"/>
<polygon fill="#666666" stroke="#666666" points="0.5,-301.5 0.5,-301.5 14.5,-301.5 14.5,-301.5 0.5,-301.5"/>
<polygon fill="#666666" stroke="#666666" points="14.5,-301.5 14.5,-301.5 291.5,-301.5 291.5,-301.5 14.5,-301.5"/>
<polygon fill="none" stroke="#666666" points="0,0 0,-487 291,-487 291,0 0,0"/>
</a>
</g>
</g>
<!-- Node2 -->
<g id="Node000002" class="node">
<title>Node2</title>
<g id="a_Node000002"><a xlink:title=" ">
<polygon fill="white" stroke="transparent" points="199.5,-578 91.5,-578 91.5,-523 199.5,-523 199.5,-578"/>
<text text-anchor="start" x="96.5" y="-563.9" font-family="Consolas" font-size="12.00">MonoBehaviour</text>
<text text-anchor="start" x="141.5" y="-546.9" font-family="Consolas" font-size="12.00"> </text>
<text text-anchor="start" x="141.5" y="-529.9" font-family="Consolas" font-size="12.00"> </text>
<polygon fill="#bfbfbf" stroke="#bfbfbf" points="91.5,-558.5 91.5,-558.5 199.5,-558.5 199.5,-558.5 91.5,-558.5"/>
<polygon fill="#bfbfbf" stroke="#bfbfbf" points="91.5,-541.5 91.5,-541.5 199.5,-541.5 199.5,-541.5 91.5,-541.5"/>
<polygon fill="none" stroke="#bfbfbf" points="91.5,-523 91.5,-578 199.5,-578 199.5,-523 91.5,-523"/>
</a>
</g>
</g>
<!-- Node2&#45;&gt;Node1 -->
<g id="edge1_Node000001_Node000002" class="edge">
<title>Node2&#45;&gt;Node1</title>
<g id="a_edge1_Node000001_Node000002"><a xlink:title=" ">
<path fill="none" stroke="#63b8ff" d="M145.5,-512.74C145.5,-505.03 145.5,-496.37 145.5,-487"/>
<polygon fill="none" stroke="#63b8ff" points="142,-512.97 145.5,-522.97 149,-512.97 142,-512.97"/>
</a>
</g>
</g>
</g>
</svg>
