<?xml version="1.0" encoding="UTF-8" standalone="no"?>
<!DOCTYPE svg PUBLIC "-//W3C//DTD SVG 1.1//EN"
 "http://www.w3.org/Graphics/SVG/1.1/DTD/svg11.dtd">
<!-- Generated by graphviz version 2.43.0 (0)
 -->
<!-- Title: ShipWeapon.GetAttachedDirection Pages: 1 -->
<!--zoomable 94 -->

<svg id="main" version="1.1" xmlns="http://www.w3.org/2000/svg" xmlns:xlink="http://www.w3.org/1999/xlink" xml:space="preserve" onload="init(evt)">
<style type="text/css"><![CDATA[
.node, .edge {opacity: 0.7;}
.node.selected, .edge.selected {opacity: 1;}
.edge:hover path { stroke: red; }
.edge:hover polygon { stroke: red; fill: red; }
]]></style>

<defs>
  <circle id="rim" cx="0" cy="0" r="7"/>
  <circle id="rim2" cx="0" cy="0" r="3.5"/>
  <g id="zoomPlus">
    <use xlink:href="#rim" fill="#404040"><set attributeName="fill" to="#808080" begin="zoomplus.mouseover" end="zoomplus.mouseout"/></use>
    <path d="M-4,0h8M0,-4v8" fill="none" stroke="white" stroke-width="1.5" pointer-events="none"/>
  </g>
  <g id="zoomMin">
    <use xlink:href="#rim" fill="#404040"><set attributeName="fill" to="#808080" begin="zoomminus.mouseover" end="zoomminus.mouseout"/></use>
    <path d="M-4,0h8" fill="none" stroke="white" stroke-width="1.5" pointer-events="none"/>
  </g>
  <g id="arrowUp" transform="translate(30 24)">
    <use xlink:href="#rim"/>
    <path pointer-events="none" fill="none" stroke="white" stroke-width="1.5" d="M0,-3.0v7 M-2.5,-0.5L0,-3.0L2.5,-0.5"/>
  </g>
  <g id="arrowRight" transform="rotate(90) translate(36 -43)">
    <use xlink:href="#rim"/>
    <path pointer-events="none" fill="none" stroke="white" stroke-width="1.5" d="M0,-3.0v7 M-2.5,-0.5L0,-3.0L2.5,-0.5"/>
  </g>
  <g id="arrowDown" transform="rotate(180) translate(-30 -48)">
    <use xlink:href="#rim"/>
    <path pointer-events="none" fill="none" stroke="white" stroke-width="1.5" d="M0,-3.0v7 M-2.5,-0.5L0,-3.0L2.5,-0.5"/>
  </g>
  <g id="arrowLeft" transform="rotate(270) translate(-36 17)">
    <use xlink:href="#rim"/>
    <path pointer-events="none" fill="none" stroke="white" stroke-width="1.5" d="M0,-3.0v7 M-2.5,-0.5L0,-3.0L2.5,-0.5"/>
  </g>
  <g id="resetDef">
    <use xlink:href="#rim2" fill="#404040"><set attributeName="fill" to="#808080" begin="reset.mouseover" end="reset.mouseout"/></use>
  </g>
</defs>
<script type="application/ecmascript">
var viewWidth = 1300;
var viewHeight = 94;
var sectionId = 'dynsection-6';
</script>
<script type="application/ecmascript" xlink:href="svg.min.js"/>
<svg id="graph" class="graph">
<g id="viewport">
<title>ShipWeapon.GetAttachedDirection</title>
<!-- Node1 -->
<g id="Node000001" class="node">
<title>Node1</title>
<g id="a_Node000001"><a xlink:title="무기가 시설과 연결된 방향(회전 상태)을 반환합니다.">
<polygon fill="#999999" stroke="#666666" points="1292,-52.5 1043,-52.5 1043,-31.5 1292,-31.5 1292,-52.5"/>
<text text-anchor="middle" x="1167.5" y="-38.9" font-family="Consolas" font-size="12.00">ShipWeapon.GetAttachedDirection</text>
</a>
</g>
</g>
<!-- Node2 -->
<g id="Node000002" class="node">
<title>Node2</title>
<g id="a_Node000002"><a xlink:href="classShip.html#a24e7b7011b778b4c8c4aab0a12e90a3d" target="_top" xlink:title="설계도 교체 작업 전, 기존 함선 백업">
<polygon fill="white" stroke="#666666" points="711,-76.5 529,-76.5 529,-55.5 711,-55.5 711,-76.5"/>
<text text-anchor="middle" x="620" y="-62.9" font-family="Consolas" font-size="12.00">Ship.BackupCurrentShip</text>
</a>
</g>
</g>
<!-- Node1&#45;&gt;Node2 -->
<g id="edge1_Node000001_Node000002" class="edge">
<title>Node1&#45;&gt;Node2</title>
<g id="a_edge1_Node000001_Node000002"><a xlink:title=" ">
<path fill="none" stroke="#63b8ff" d="M1032.54,-47.89C932.56,-52.29 798.66,-58.18 711.15,-62.03"/>
<polygon fill="#63b8ff" stroke="#63b8ff" points="1032.88,-51.38 1042.72,-47.45 1032.57,-44.39 1032.88,-51.38"/>
</a>
</g>
</g>
<!-- Node6 -->
<g id="Node000006" class="node">
<title>Node6</title>
<g id="a_Node000006"><a xlink:href="classShipValidationHelper.html#a9111fff29a3ed831923e35aa76ba14be" target="_top" xlink:title="무기의 방향과 방 연결 상태를 검사합니다. 각 무기의 AttachedDirection에 따라 적절한 위치에 방이 있어야 합니다.">
<polygon fill="white" stroke="#666666" points="1007,-37 773,-37 773,-3 1007,-3 1007,-37"/>
<text text-anchor="start" x="781" y="-23.4" font-family="Consolas" font-size="12.00">ShipValidationHelper.Validate</text>
<text text-anchor="middle" x="890" y="-10.4" font-family="Consolas" font-size="12.00">WeaponAttachmentDirection</text>
</a>
</g>
</g>
<!-- Node1&#45;&gt;Node6 -->
<g id="edge5_Node000001_Node000006" class="edge">
<title>Node1&#45;&gt;Node6</title>
<g id="a_edge5_Node000001_Node000006"><a xlink:title=" ">
<path fill="none" stroke="#63b8ff" d="M1032.81,-31.32C1024.24,-30.64 1015.65,-29.95 1007.17,-29.28"/>
<polygon fill="#63b8ff" stroke="#63b8ff" points="1032.61,-34.82 1042.85,-32.13 1033.16,-27.84 1032.61,-34.82"/>
</a>
</g>
</g>
<!-- Node3 -->
<g id="Node000003" class="node">
<title>Node3</title>
<g id="a_Node000003"><a xlink:href="classCustomizeShipUIHandler.html#a0a87df1bbf10a142bcfb73c4634a7bd4" target="_top" xlink:title="&#39;함선 제작&#39; 버튼 클릭 시 호출. 조건 만족 시 기존 함선을 설계도의 함선으로 교체합니다. 이후 방, 문의 연결 유효성 검사 수행 후 만족 여부에 따라 실제 함선으로 교체,...">
<polygon fill="white" stroke="#666666" points="467,-86 263,-86 263,-52 467,-52 467,-86"/>
<text text-anchor="start" x="271" y="-72.4" font-family="Consolas" font-size="12.00">CustomizeShipUIHandler.On</text>
<text text-anchor="middle" x="365" y="-59.4" font-family="Consolas" font-size="12.00">ClickBuild</text>
</a>
</g>
</g>
<!-- Node2&#45;&gt;Node3 -->
<g id="edge2_Node000002_Node000003" class="edge">
<title>Node2&#45;&gt;Node3</title>
<g id="a_edge2_Node000002_Node000003"><a xlink:title=" ">
<path fill="none" stroke="#63b8ff" d="M518.38,-67.19C501.61,-67.39 484.21,-67.6 467.42,-67.8"/>
<polygon fill="#63b8ff" stroke="#63b8ff" points="518.77,-70.69 528.73,-67.07 518.69,-63.69 518.77,-70.69"/>
</a>
</g>
</g>
<!-- Node4 -->
<g id="Node000004" class="node">
<title>Node4</title>
<g id="a_Node000004"><a xlink:href="classCustomize__1__Controller.html#ac71022868de14f02fffd845270ffb42b" target="_top" xlink:title="도안 저장 버튼 클릭 &#45; 유효성 검사">
<polygon fill="white" stroke="#666666" points="467,-34 263,-34 263,0 467,0 467,-34"/>
<text text-anchor="start" x="271" y="-20.4" font-family="Consolas" font-size="12.00">Customize_1_Controller.On</text>
<text text-anchor="middle" x="365" y="-7.4" font-family="Consolas" font-size="12.00">ClickSave</text>
</a>
</g>
</g>
<!-- Node2&#45;&gt;Node4 -->
<g id="edge3_Node000002_Node000004" class="edge">
<title>Node2&#45;&gt;Node4</title>
<g id="a_edge3_Node000002_Node000004"><a xlink:title=" ">
<path fill="none" stroke="#63b8ff" d="M545.28,-53.72C531.23,-51.26 516.65,-48.62 503,-46 483.9,-42.33 463.36,-38.13 444.14,-34.07"/>
<polygon fill="#63b8ff" stroke="#63b8ff" points="544.95,-57.22 555.4,-55.48 546.15,-50.32 544.95,-57.22"/>
</a>
</g>
</g>
<!-- Node5 -->
<g id="Node000005" class="node">
<title>Node5</title>
<g id="a_Node000005"><a xlink:href="classCustomize__1__Controller.html#aec55e07635dd1dfd43176946b3dd6f2b" target="_top" xlink:title="button 클릭 함수 연결">
<polygon fill="white" stroke="#666666" points="227,-27.5 0,-27.5 0,-6.5 227,-6.5 227,-27.5"/>
<text text-anchor="middle" x="113.5" y="-13.9" font-family="Consolas" font-size="12.00">Customize_1_Controller.Start</text>
</a>
</g>
</g>
<!-- Node4&#45;&gt;Node5 -->
<g id="edge4_Node000004_Node000005" class="edge">
<title>Node4&#45;&gt;Node5</title>
<g id="a_edge4_Node000004_Node000005"><a xlink:title=" ">
<path fill="none" stroke="#63b8ff" d="M252.63,-17C244.18,-17 235.65,-17 227.19,-17"/>
<polygon fill="#63b8ff" stroke="#63b8ff" points="252.88,-20.5 262.88,-17 252.88,-13.5 252.88,-20.5"/>
</a>
</g>
</g>
<!-- Node7 -->
<g id="Node000007" class="node">
<title>Node7</title>
<g id="a_Node000007"><a xlink:href="classShipValidationHelper.html#afe90d1e14396951e3079f4a426ead02d" target="_top" xlink:title="함선 배치의 유효성 검사">
<polygon fill="white" stroke="#666666" points="737,-37 503,-37 503,-3 737,-3 737,-37"/>
<text text-anchor="start" x="511" y="-23.4" font-family="Consolas" font-size="12.00">ShipValidationHelper.Validate</text>
<text text-anchor="middle" x="620" y="-10.4" font-family="Consolas" font-size="12.00">ShipLayout</text>
</a>
</g>
</g>
<!-- Node6&#45;&gt;Node7 -->
<g id="edge6_Node000006_Node000007" class="edge">
<title>Node6&#45;&gt;Node7</title>
<g id="a_edge6_Node000006_Node000007"><a xlink:title=" ">
<path fill="none" stroke="#63b8ff" d="M762.42,-20C754.03,-20 745.6,-20 737.26,-20"/>
<polygon fill="#63b8ff" stroke="#63b8ff" points="762.62,-23.5 772.62,-20 762.62,-16.5 762.62,-23.5"/>
</a>
</g>
</g>
<!-- Node7&#45;&gt;Node3 -->
<g id="edge7_Node000007_Node000003" class="edge">
<title>Node7&#45;&gt;Node3</title>
<g id="a_edge7_Node000007_Node000003"><a xlink:title=" ">
<path fill="none" stroke="#63b8ff" d="M521.16,-38.95C499.06,-43.23 475.72,-47.75 454.05,-51.95"/>
<polygon fill="#63b8ff" stroke="#63b8ff" points="522.07,-42.34 531.22,-37 520.74,-35.47 522.07,-42.34"/>
</a>
</g>
</g>
<!-- Node7&#45;&gt;Node4 -->
<g id="edge8_Node000007_Node000004" class="edge">
<title>Node7&#45;&gt;Node4</title>
<g id="a_edge8_Node000007_Node000004"><a xlink:title=" ">
<path fill="none" stroke="#63b8ff" d="M492.76,-18.5C484.15,-18.4 475.53,-18.3 467.07,-18.2"/>
<polygon fill="#63b8ff" stroke="#63b8ff" points="492.83,-22 502.87,-18.62 492.91,-15 492.83,-22"/>
</a>
</g>
</g>
</g>
</svg>

<g id="navigator" transform="translate(0 0)" fill="#404254">
  <rect fill="#f2f5e9" fill-opacity="0.5" stroke="#606060" stroke-width=".5" x="0" y="0" width="60" height="60"/>
  <use id="zoomplus" xlink:href="#zoomPlus" x="17" y="9" onmousedown="handleZoom(evt,'in')"/>
  <use id="zoomminus" xlink:href="#zoomMin" x="42" y="9" onmousedown="handleZoom(evt,'out')"/>
  <use id="reset" xlink:href="#resetDef" x="30" y="36" onmousedown="handleReset()"/>
   <use id="arrowup" xlink:href="#arrowUp" x="0" y="0" onmousedown="handlePan(0,-1)"/>
  <use id="arrowright" xlink:href="#arrowRight" x="0" y="0" onmousedown="handlePan(1,0)"/>
  <use id="arrowdown" xlink:href="#arrowDown" x="0" y="0" onmousedown="handlePan(0,1)"/>
  <use id="arrowleft" xlink:href="#arrowLeft" x="0" y="0" onmousedown="handlePan(-1,0)"/>
</g>
<svg viewBox="0 0 15 15" width="100%" height="30px" preserveAspectRatio="xMaxYMin meet">
 <g id="arrow_out" transform="scale(0.3 0.3)">
  <a xlink:href="classShipWeapon_aeaa57cf7fa6e6a8543a0350f8e45ca9d_icgraph_org.svg" target="_base">
   <rect id="button" ry="5" rx="5" y="6" x="6" height="38" width="38"
        fill="#f2f5e9" fill-opacity="0.5" stroke="#606060" stroke-width="1.0"/>
   <path id="arrow"
     d="M 11.500037,31.436501 C 11.940474,20.09759 22.043105,11.32322 32.158766,21.979434 L 37.068811,17.246167 C 37.068811,17.246167 37.088388,32 37.088388,32 L 22.160133,31.978069 C 22.160133,31.978069 26.997745,27.140456 26.997745,27.140456 C 18.528582,18.264221 13.291696,25.230495 11.500037,31.436501 z"
     style="fill:#404040;"/>
  </a>
 </g>
</svg>

<style type='text/css'>
<![CDATA[
[data-mouse-over-selected='false'] { opacity: 0.7; }
[data-mouse-over-selected='true']  { opacity: 1.0; }
]]>
</style>
<script type="application/ecmascript"><![CDATA[
document.addEventListener('DOMContentLoaded', (event) => {
  highlightEdges();
  highlightAdjacentNodes();
});
]]></script>
</svg>
