<?xml version="1.0" encoding="UTF-8" standalone="no"?>
<!DOCTYPE svg PUBLIC "-//W3C//DTD SVG 1.1//EN"
 "http://www.w3.org/Graphics/SVG/1.1/DTD/svg11.dtd">
<!-- Generated by graphviz version 2.43.0 (0)
 -->
<!-- Title: ES3NonSerializable Pages: 1 -->
<svg width="154pt" height="154pt"
 viewBox="0.00 0.00 154.00 154.00" xmlns="http://www.w3.org/2000/svg" xmlns:xlink="http://www.w3.org/1999/xlink">
<g id="graph0" class="graph" transform="scale(1 1) rotate(0) translate(4 150)">
<title>ES3NonSerializable</title>
<!-- Node1 -->
<g id="Node000001" class="node">
<title>Node1</title>
<g id="a_Node000001"><a xlink:title=" ">
<polygon fill="#999999" stroke="transparent" points="146,-55 0,-55 0,0 146,0 146,-55"/>
<text text-anchor="start" x="5" y="-40.9" font-family="Consolas" font-size="12.00">ES3NonSerializable</text>
<text text-anchor="start" x="69" y="-23.9" font-family="Consolas" font-size="12.00"> </text>
<text text-anchor="start" x="69" y="-6.9" font-family="Consolas" font-size="12.00"> </text>
<polygon fill="#666666" stroke="#666666" points="0,-35.5 0,-35.5 146,-35.5 146,-35.5 0,-35.5"/>
<polygon fill="#666666" stroke="#666666" points="0,-18.5 0,-18.5 146,-18.5 146,-18.5 0,-18.5"/>
<polygon fill="none" stroke="#666666" points="0,0 0,-55 146,-55 146,0 0,0"/>
</a>
</g>
</g>
<!-- Node2 -->
<g id="Node000002" class="node">
<title>Node2</title>
<g id="a_Node000002"><a xlink:title=" ">
<polygon fill="white" stroke="transparent" points="112,-146 34,-146 34,-91 112,-91 112,-146"/>
<text text-anchor="start" x="39" y="-131.9" font-family="Consolas" font-size="12.00">Attribute</text>
<text text-anchor="start" x="69" y="-114.9" font-family="Consolas" font-size="12.00"> </text>
<text text-anchor="start" x="69" y="-97.9" font-family="Consolas" font-size="12.00"> </text>
<polygon fill="#bfbfbf" stroke="#bfbfbf" points="34,-126.5 34,-126.5 112,-126.5 112,-126.5 34,-126.5"/>
<polygon fill="#bfbfbf" stroke="#bfbfbf" points="34,-109.5 34,-109.5 112,-109.5 112,-109.5 34,-109.5"/>
<polygon fill="none" stroke="#bfbfbf" points="34,-91 34,-146 112,-146 112,-91 34,-91"/>
</a>
</g>
</g>
<!-- Node2&#45;&gt;Node1 -->
<g id="edge1_Node000001_Node000002" class="edge">
<title>Node2&#45;&gt;Node1</title>
<g id="a_edge1_Node000001_Node000002"><a xlink:title=" ">
<path fill="none" stroke="#63b8ff" d="M73,-80.66C73,-72.12 73,-63.19 73,-55.18"/>
<polygon fill="none" stroke="#63b8ff" points="69.5,-80.8 73,-90.8 76.5,-80.8 69.5,-80.8"/>
</a>
</g>
</g>
</g>
</svg>
