<?xml version="1.0" encoding="UTF-8" standalone="no"?>
<!DOCTYPE svg PUBLIC "-//W3C//DTD SVG 1.1//EN"
 "http://www.w3.org/Graphics/SVG/1.1/DTD/svg11.dtd">
<!-- Generated by graphviz version 2.43.0 (0)
 -->
<!-- Title: EndingSceneTestDataInjector Pages: 1 -->
<svg width="224pt" height="235pt"
 viewBox="0.00 0.00 224.00 235.00" xmlns="http://www.w3.org/2000/svg" xmlns:xlink="http://www.w3.org/1999/xlink">

<svg id="main" version="1.1" xmlns="http://www.w3.org/2000/svg" xmlns:xlink="http://www.w3.org/1999/xlink" xml:space="preserve" onload="init(evt)">
<style type="text/css"><![CDATA[
.node, .edge {opacity: 0.7;}
.node.selected, .edge.selected {opacity: 1;}
.edge:hover path { stroke: red; }
.edge:hover polygon { stroke: red; fill: red; }
]]></style>
<script type="application/ecmascript" xlink:href="svg.min.js"/>
<svg id="graph" class="graph">
<g id="graph0" class="graph" transform="scale(1 1) rotate(0) translate(4 231)">
<title>EndingSceneTestDataInjector</title>
<!-- Node1 -->
<g id="Node000001" class="node">
<title>Node1</title>
<g id="a_Node000001"><a xlink:title="EndingScene 단독 테스트 시 필요한 데이터를 주입하는 클래스. GameManager, ResourceManager는 그대로 두고 별도 주입 처리.">
<polygon fill="#999999" stroke="transparent" points="216,-136 0,-136 0,0 216,0 216,-136"/>
<text text-anchor="start" x="6.5" y="-122.4" font-family="Consolas" font-size="12.00">EndingSceneTestDataInjector</text>
<text text-anchor="start" x="4" y="-105.4" font-family="Consolas" font-size="12.00">&#45;</text>
<text text-anchor="start" x="16" y="-105.4" font-family="Consolas" font-size="12.00">int pirateDefeated</text>
<text text-anchor="start" x="4" y="-88.4" font-family="Consolas" font-size="12.00">&#45;</text>
<text text-anchor="start" x="16" y="-88.4" font-family="Consolas" font-size="12.00">int questCleared</text>
<text text-anchor="start" x="4" y="-71.4" font-family="Consolas" font-size="12.00">&#45;</text>
<text text-anchor="start" x="16" y="-71.4" font-family="Consolas" font-size="12.00">int mysteryFound</text>
<text text-anchor="start" x="4" y="-54.4" font-family="Consolas" font-size="12.00">&#45;</text>
<text text-anchor="start" x="16" y="-54.4" font-family="Consolas" font-size="12.00">int comaAmount</text>
<text text-anchor="start" x="4" y="-37.4" font-family="Consolas" font-size="12.00">&#45;</text>
<text text-anchor="start" x="16" y="-37.4" font-family="Consolas" font-size="12.00">void Start()</text>
<text text-anchor="start" x="4" y="-20.4" font-family="Consolas" font-size="12.00">&#45;</text>
<text text-anchor="start" x="16" y="-20.4" font-family="Consolas" font-size="12.00">IEnumerator InjectDataWhen</text>
<text text-anchor="start" x="16" y="-7.4" font-family="Consolas" font-size="12.00">Ready()</text>
<polygon fill="#666666" stroke="#666666" points="0,-117 0,-117 216,-117 216,-117 0,-117"/>
<polygon fill="#666666" stroke="#666666" points="0,-49 0,-49 14,-49 14,-49 0,-49"/>
<polygon fill="#666666" stroke="#666666" points="14,-49 14,-49 216,-49 216,-49 14,-49"/>
<polygon fill="none" stroke="#666666" points="0,0 0,-136 216,-136 216,0 0,0"/>
</a>
</g>
</g>
<!-- Node2 -->
<g id="Node000002" class="node">
<title>Node2</title>
<g id="a_Node000002"><a xlink:title=" ">
<polygon fill="white" stroke="transparent" points="162,-227 54,-227 54,-172 162,-172 162,-227"/>
<text text-anchor="start" x="59" y="-212.9" font-family="Consolas" font-size="12.00">MonoBehaviour</text>
<text text-anchor="start" x="104" y="-195.9" font-family="Consolas" font-size="12.00"> </text>
<text text-anchor="start" x="104" y="-178.9" font-family="Consolas" font-size="12.00"> </text>
<polygon fill="#bfbfbf" stroke="#bfbfbf" points="54,-207.5 54,-207.5 162,-207.5 162,-207.5 54,-207.5"/>
<polygon fill="#bfbfbf" stroke="#bfbfbf" points="54,-190.5 54,-190.5 162,-190.5 162,-190.5 54,-190.5"/>
<polygon fill="none" stroke="#bfbfbf" points="54,-172 54,-227 162,-227 162,-172 54,-172"/>
</a>
</g>
</g>
<!-- Node2&#45;&gt;Node1 -->
<g id="edge1_Node000001_Node000002" class="edge">
<title>Node2&#45;&gt;Node1</title>
<g id="a_edge1_Node000001_Node000002"><a xlink:title=" ">
<path fill="none" stroke="#63b8ff" d="M108,-161.85C108,-153.78 108,-145 108,-136.15"/>
<polygon fill="none" stroke="#63b8ff" points="104.5,-161.98 108,-171.98 111.5,-161.98 104.5,-161.98"/>
</a>
</g>
</g>
</g>
</svg>
</svg>

<style type='text/css'>
<![CDATA[
[data-mouse-over-selected='false'] { opacity: 0.7; }
[data-mouse-over-selected='true']  { opacity: 1.0; }
]]>
</style>
<script type="application/ecmascript"><![CDATA[
document.addEventListener('DOMContentLoaded', (event) => {
  highlightEdges();
  highlightAdjacentNodes();
});
]]></script>
</svg>
