<?xml version="1.0" encoding="UTF-8" standalone="no"?>
<!DOCTYPE svg PUBLIC "-//W3C//DTD SVG 1.1//EN"
 "http://www.w3.org/Graphics/SVG/1.1/DTD/svg11.dtd">
<!-- Generated by graphviz version 2.43.0 (0)
 -->
<!-- Title: EventChoice Pages: 1 -->
<svg width="261pt" height="93pt"
 viewBox="0.00 0.00 261.00 93.00" xmlns="http://www.w3.org/2000/svg" xmlns:xlink="http://www.w3.org/1999/xlink">

<svg id="main" version="1.1" xmlns="http://www.w3.org/2000/svg" xmlns:xlink="http://www.w3.org/1999/xlink" xml:space="preserve" onload="init(evt)">
<style type="text/css"><![CDATA[
.node, .edge {opacity: 0.7;}
.node.selected, .edge.selected {opacity: 1;}
.edge:hover path { stroke: red; }
.edge:hover polygon { stroke: red; fill: red; }
]]></style>
<script type="application/ecmascript" xlink:href="svg.min.js"/>
<svg id="graph" class="graph">
<g id="graph0" class="graph" transform="scale(1 1) rotate(0) translate(4 89)">
<title>EventChoice</title>
<!-- Node1 -->
<g id="Node000001" class="node">
<title>Node1</title>
<g id="a_Node000001"><a xlink:title=" ">
<polygon fill="#999999" stroke="transparent" points="253,-85 0,-85 0,0 253,0 253,-85"/>
<text text-anchor="start" x="85.5" y="-70.9" font-family="Consolas" font-size="12.00">EventChoice</text>
<text text-anchor="start" x="4.5" y="-53.9" font-family="Consolas" font-size="12.00">+</text>
<text text-anchor="start" x="16.5" y="-53.9" font-family="Consolas" font-size="12.00">string choiceText</text>
<text text-anchor="start" x="4.5" y="-36.9" font-family="Consolas" font-size="12.00">+</text>
<text text-anchor="start" x="16.5" y="-36.9" font-family="Consolas" font-size="12.00">List&lt; EventOutcome</text>
<text text-anchor="start" x="16.5" y="-23.9" font-family="Consolas" font-size="12.00"> &gt; possibleOutcomes</text>
<text text-anchor="start" x="4.5" y="-6.9" font-family="Consolas" font-size="12.00">+</text>
<text text-anchor="start" x="16.5" y="-6.9" font-family="Consolas" font-size="12.00">EventOutcome GetRandomOutcome()</text>
<polygon fill="#666666" stroke="#666666" points="0.5,-65.5 0.5,-65.5 253.5,-65.5 253.5,-65.5 0.5,-65.5"/>
<polygon fill="#666666" stroke="#666666" points="0.5,-18.5 0.5,-18.5 14.5,-18.5 14.5,-18.5 0.5,-18.5"/>
<polygon fill="#666666" stroke="#666666" points="14.5,-18.5 14.5,-18.5 253.5,-18.5 253.5,-18.5 14.5,-18.5"/>
<polygon fill="none" stroke="#666666" points="0,0 0,-85 253,-85 253,0 0,0"/>
</a>
</g>
</g>
</g>
</svg>
</svg>

<style type='text/css'>
<![CDATA[
[data-mouse-over-selected='false'] { opacity: 0.7; }
[data-mouse-over-selected='true']  { opacity: 1.0; }
]]>
</style>
<script type="application/ecmascript"><![CDATA[
document.addEventListener('DOMContentLoaded', (event) => {
  highlightEdges();
  highlightAdjacentNodes();
});
]]></script>
</svg>
