<?xml version="1.0" encoding="UTF-8" standalone="no"?>
<!DOCTYPE svg PUBLIC "-//W3C//DTD SVG 1.1//EN"
 "http://www.w3.org/Graphics/SVG/1.1/DTD/svg11.dtd">
<!-- Generated by graphviz version 2.43.0 (0)
 -->
<!-- Title: QuestPanel Pages: 1 -->
<!--zoomable 1976 -->

<svg id="main" version="1.1" xmlns="http://www.w3.org/2000/svg" xmlns:xlink="http://www.w3.org/1999/xlink" xml:space="preserve" onload="init(evt)">
<style type="text/css"><![CDATA[
.node, .edge {opacity: 0.7;}
.node.selected, .edge.selected {opacity: 1;}
.edge:hover path { stroke: red; }
.edge:hover polygon { stroke: red; fill: red; }
]]></style>

<defs>
  <circle id="rim" cx="0" cy="0" r="7"/>
  <circle id="rim2" cx="0" cy="0" r="3.5"/>
  <g id="zoomPlus">
    <use xlink:href="#rim" fill="#404040"><set attributeName="fill" to="#808080" begin="zoomplus.mouseover" end="zoomplus.mouseout"/></use>
    <path d="M-4,0h8M0,-4v8" fill="none" stroke="white" stroke-width="1.5" pointer-events="none"/>
  </g>
  <g id="zoomMin">
    <use xlink:href="#rim" fill="#404040"><set attributeName="fill" to="#808080" begin="zoomminus.mouseover" end="zoomminus.mouseout"/></use>
    <path d="M-4,0h8" fill="none" stroke="white" stroke-width="1.5" pointer-events="none"/>
  </g>
  <g id="arrowUp" transform="translate(30 24)">
    <use xlink:href="#rim"/>
    <path pointer-events="none" fill="none" stroke="white" stroke-width="1.5" d="M0,-3.0v7 M-2.5,-0.5L0,-3.0L2.5,-0.5"/>
  </g>
  <g id="arrowRight" transform="rotate(90) translate(36 -43)">
    <use xlink:href="#rim"/>
    <path pointer-events="none" fill="none" stroke="white" stroke-width="1.5" d="M0,-3.0v7 M-2.5,-0.5L0,-3.0L2.5,-0.5"/>
  </g>
  <g id="arrowDown" transform="rotate(180) translate(-30 -48)">
    <use xlink:href="#rim"/>
    <path pointer-events="none" fill="none" stroke="white" stroke-width="1.5" d="M0,-3.0v7 M-2.5,-0.5L0,-3.0L2.5,-0.5"/>
  </g>
  <g id="arrowLeft" transform="rotate(270) translate(-36 17)">
    <use xlink:href="#rim"/>
    <path pointer-events="none" fill="none" stroke="white" stroke-width="1.5" d="M0,-3.0v7 M-2.5,-0.5L0,-3.0L2.5,-0.5"/>
  </g>
  <g id="resetDef">
    <use xlink:href="#rim2" fill="#404040"><set attributeName="fill" to="#808080" begin="reset.mouseover" end="reset.mouseout"/></use>
  </g>
</defs>
<script type="application/ecmascript">
var viewWidth = 577;
var viewHeight = 1976;
var sectionId = 'dynsection-1';
</script>
<script type="application/ecmascript" xlink:href="svg.min.js"/>
<svg id="graph" class="graph">
<g id="viewport">
<title>QuestPanel</title>
<!-- Node1 -->
<g id="Node000001" class="node">
<title>Node1</title>
<g id="a_Node000001"><a xlink:title=" ">
<polygon fill="#999999" stroke="transparent" points="210.5,-264 17.5,-264 17.5,0 210.5,0 210.5,-264"/>
<text text-anchor="start" x="76.5" y="-250.4" font-family="Consolas" font-size="12.00">QuestPanel</text>
<text text-anchor="start" x="22" y="-233.4" font-family="Consolas" font-size="12.00">+</text>
<text text-anchor="start" x="34" y="-233.4" font-family="Consolas" font-size="12.00">Sprite completablePanel</text>
<text text-anchor="start" x="22" y="-216.4" font-family="Consolas" font-size="12.00">+</text>
<text text-anchor="start" x="34" y="-216.4" font-family="Consolas" font-size="12.00">Sprite availablePanel</text>
<text text-anchor="start" x="22" y="-199.4" font-family="Consolas" font-size="12.00">+</text>
<text text-anchor="start" x="34" y="-199.4" font-family="Consolas" font-size="12.00">Sprite activePanel</text>
<text text-anchor="start" x="22" y="-182.4" font-family="Consolas" font-size="12.00">&#45;</text>
<text text-anchor="start" x="34" y="-182.4" font-family="Consolas" font-size="12.00">bool isActive</text>
<text text-anchor="start" x="22" y="-165.4" font-family="Consolas" font-size="12.00">&#45;</text>
<text text-anchor="start" x="34" y="-165.4" font-family="Consolas" font-size="12.00">Animator animator</text>
<text text-anchor="start" x="22" y="-148.4" font-family="Consolas" font-size="12.00">&#45;</text>
<text text-anchor="start" x="34" y="-148.4" font-family="Consolas" font-size="12.00">Image panel</text>
<text text-anchor="start" x="22" y="-131.4" font-family="Consolas" font-size="12.00">&#45;</text>
<text text-anchor="start" x="34" y="-131.4" font-family="Consolas" font-size="12.00">TextMeshProUGUI tmp</text>
<text text-anchor="start" x="22" y="-114.4" font-family="Consolas" font-size="12.00">&#45;</text>
<text text-anchor="start" x="34" y="-114.4" font-family="Consolas" font-size="12.00">List&lt; RandomQuest &gt;</text>
<text text-anchor="start" x="34" y="-101.4" font-family="Consolas" font-size="12.00"> completableQuests</text>
<text text-anchor="start" x="22" y="-84.4" font-family="Consolas" font-size="12.00">&#45;</text>
<text text-anchor="start" x="34" y="-84.4" font-family="Consolas" font-size="12.00">List&lt; RandomQuest &gt;</text>
<text text-anchor="start" x="34" y="-71.4" font-family="Consolas" font-size="12.00"> availableQuests</text>
<text text-anchor="start" x="22" y="-54.4" font-family="Consolas" font-size="12.00">&#45;</text>
<text text-anchor="start" x="34" y="-54.4" font-family="Consolas" font-size="12.00">List&lt; RandomQuest &gt;</text>
<text text-anchor="start" x="34" y="-41.4" font-family="Consolas" font-size="12.00"> activeQuests</text>
<text text-anchor="start" x="22" y="-24.4" font-family="Consolas" font-size="12.00">+</text>
<text text-anchor="start" x="34" y="-24.4" font-family="Consolas" font-size="12.00">void UpdatePanel()</text>
<text text-anchor="start" x="22" y="-7.4" font-family="Consolas" font-size="12.00">&#45;</text>
<text text-anchor="start" x="34" y="-7.4" font-family="Consolas" font-size="12.00">void Start()</text>
<polygon fill="#666666" stroke="#666666" points="18,-245 18,-245 211,-245 211,-245 18,-245"/>
<polygon fill="#666666" stroke="#666666" points="18,-36 18,-36 32,-36 32,-36 18,-36"/>
<polygon fill="#666666" stroke="#666666" points="32,-36 32,-36 211,-36 211,-36 32,-36"/>
<polygon fill="none" stroke="#666666" points="17.5,0 17.5,-264 210.5,-264 210.5,0 17.5,0"/>
</a>
</g>
</g>
<!-- Node2 -->
<g id="Node000002" class="node">
<title>Node2</title>
<g id="a_Node000002"><a xlink:title=" ">
<polygon fill="white" stroke="transparent" points="108,-910.5 0,-910.5 0,-855.5 108,-855.5 108,-910.5"/>
<text text-anchor="start" x="5" y="-896.4" font-family="Consolas" font-size="12.00">MonoBehaviour</text>
<text text-anchor="start" x="50" y="-879.4" font-family="Consolas" font-size="12.00"> </text>
<text text-anchor="start" x="50" y="-862.4" font-family="Consolas" font-size="12.00"> </text>
<polygon fill="#bfbfbf" stroke="#bfbfbf" points="0,-891 0,-891 108,-891 108,-891 0,-891"/>
<polygon fill="#bfbfbf" stroke="#bfbfbf" points="0,-874 0,-874 108,-874 108,-874 0,-874"/>
<polygon fill="none" stroke="#bfbfbf" points="0,-855.5 0,-910.5 108,-910.5 108,-855.5 0,-855.5"/>
</a>
</g>
</g>
<!-- Node2&#45;&gt;Node1 -->
<g id="edge1_Node000001_Node000002" class="edge">
<title>Node2&#45;&gt;Node1</title>
<g id="a_edge1_Node000001_Node000002"><a xlink:title=" ">
<path fill="none" stroke="#63b8ff" d="M56.94,-845.32C65.29,-741.12 89.44,-439.59 103.5,-264.04"/>
<polygon fill="none" stroke="#63b8ff" points="53.45,-845.1 56.14,-855.34 60.42,-845.65 53.45,-845.1"/>
</a>
</g>
</g>
<!-- Node3 -->
<g id="Node000003" class="node">
<title>Node3</title>
<g id="a_Node000003"><a xlink:href="classPlanetData.html" target="_top" xlink:title="행성 데이터">
<polygon fill="white" stroke="transparent" points="402,-1451 126,-1451 126,-315 402,-315 402,-1451"/>
<text text-anchor="start" x="226" y="-1437.4" font-family="Consolas" font-size="12.00">PlanetData</text>
<text text-anchor="start" x="130" y="-1420.4" font-family="Consolas" font-size="12.00">+</text>
<text text-anchor="start" x="142" y="-1420.4" font-family="Consolas" font-size="12.00">int planetId</text>
<text text-anchor="start" x="130" y="-1403.4" font-family="Consolas" font-size="12.00">+</text>
<text text-anchor="start" x="142" y="-1403.4" font-family="Consolas" font-size="12.00">string planetName</text>
<text text-anchor="start" x="130" y="-1386.4" font-family="Consolas" font-size="12.00">+</text>
<text text-anchor="start" x="142" y="-1386.4" font-family="Consolas" font-size="12.00">PlanetRace planetRace</text>
<text text-anchor="start" x="130" y="-1369.4" font-family="Consolas" font-size="12.00">+</text>
<text text-anchor="start" x="142" y="-1369.4" font-family="Consolas" font-size="12.00">ItemPlanet itemPlanet</text>
<text text-anchor="start" x="130" y="-1352.4" font-family="Consolas" font-size="12.00">+</text>
<text text-anchor="start" x="142" y="-1352.4" font-family="Consolas" font-size="12.00">Sprite currentSprite</text>
<text text-anchor="start" x="130" y="-1335.4" font-family="Consolas" font-size="12.00">+</text>
<text text-anchor="start" x="142" y="-1335.4" font-family="Consolas" font-size="12.00">List&lt; TradingItemData</text>
<text text-anchor="start" x="142" y="-1322.4" font-family="Consolas" font-size="12.00"> &gt; itemsTier1</text>
<text text-anchor="start" x="130" y="-1305.4" font-family="Consolas" font-size="12.00">+</text>
<text text-anchor="start" x="142" y="-1305.4" font-family="Consolas" font-size="12.00">List&lt; TradingItemData</text>
<text text-anchor="start" x="142" y="-1292.4" font-family="Consolas" font-size="12.00"> &gt; itemsTier2</text>
<text text-anchor="start" x="130" y="-1275.4" font-family="Consolas" font-size="12.00">+</text>
<text text-anchor="start" x="142" y="-1275.4" font-family="Consolas" font-size="12.00">List&lt; TradingItemData</text>
<text text-anchor="start" x="142" y="-1262.4" font-family="Consolas" font-size="12.00"> &gt; itemsTier3</text>
<text text-anchor="start" x="130" y="-1245.4" font-family="Consolas" font-size="12.00">+</text>
<text text-anchor="start" x="142" y="-1245.4" font-family="Consolas" font-size="12.00">int currentRevenue</text>
<text text-anchor="start" x="130" y="-1228.4" font-family="Consolas" font-size="12.00">+</text>
<text text-anchor="start" x="142" y="-1228.4" font-family="Consolas" font-size="12.00">int currentFuelPrice</text>
<text text-anchor="start" x="130" y="-1211.4" font-family="Consolas" font-size="12.00">+</text>
<text text-anchor="start" x="142" y="-1211.4" font-family="Consolas" font-size="12.00">int currentMissilePrice</text>
<text text-anchor="start" x="130" y="-1194.4" font-family="Consolas" font-size="12.00">+</text>
<text text-anchor="start" x="142" y="-1194.4" font-family="Consolas" font-size="12.00">int currentHypersonicPrice</text>
<text text-anchor="start" x="130" y="-1177.4" font-family="Consolas" font-size="12.00">+</text>
<text text-anchor="start" x="142" y="-1177.4" font-family="Consolas" font-size="12.00">List&lt; RandomQuest &gt;</text>
<text text-anchor="start" x="142" y="-1164.4" font-family="Consolas" font-size="12.00"> questList</text>
<text text-anchor="start" x="130" y="-1147.4" font-family="Consolas" font-size="12.00">+</text>
<text text-anchor="start" x="142" y="-1147.4" font-family="Consolas" font-size="12.00">List&lt; PlanetEffect</text>
<text text-anchor="start" x="142" y="-1134.4" font-family="Consolas" font-size="12.00"> &gt; activeEffects</text>
<text text-anchor="start" x="130" y="-1117.4" font-family="Consolas" font-size="12.00">+</text>
<text text-anchor="start" x="142" y="-1117.4" font-family="Consolas" font-size="12.00">Dictionary&lt; ItemCategory,</text>
<text text-anchor="start" x="142" y="-1104.4" font-family="Consolas" font-size="12.00"> float &gt; categoryPriceModifiers</text>
<text text-anchor="start" x="130" y="-1087.4" font-family="Consolas" font-size="12.00">+</text>
<text text-anchor="start" x="142" y="-1087.4" font-family="Consolas" font-size="12.00">Dictionary&lt; int, int</text>
<text text-anchor="start" x="142" y="-1074.4" font-family="Consolas" font-size="12.00"> &gt; itemPriceDictionary</text>
<text text-anchor="start" x="130" y="-1057.4" font-family="Consolas" font-size="12.00">+</text>
<text text-anchor="start" x="142" y="-1057.4" font-family="Consolas" font-size="12.00">bool isHome</text>
<text text-anchor="start" x="130" y="-1040.4" font-family="Consolas" font-size="12.00">+</text>
<text text-anchor="start" x="142" y="-1040.4" font-family="Consolas" font-size="12.00">ItemTierLevel CurrentTier</text>
<text text-anchor="start" x="130" y="-1023.4" font-family="Consolas" font-size="12.00">+</text>
<text text-anchor="start" x="142" y="-1023.4" font-family="Consolas" font-size="12.00">PlanetRace PlanetRace</text>
<text text-anchor="start" x="130" y="-1006.4" font-family="Consolas" font-size="12.00">+</text>
<text text-anchor="start" x="142" y="-1006.4" font-family="Consolas" font-size="12.00">void CreateRandomData()</text>
<text text-anchor="start" x="130" y="-989.4" font-family="Consolas" font-size="12.00">+</text>
<text text-anchor="start" x="142" y="-989.4" font-family="Consolas" font-size="12.00">void LoadSprites()</text>
<text text-anchor="start" x="130" y="-972.4" font-family="Consolas" font-size="12.00">+</text>
<text text-anchor="start" x="142" y="-972.4" font-family="Consolas" font-size="12.00">string GetSpeciesPrefix</text>
<text text-anchor="start" x="142" y="-959.4" font-family="Consolas" font-size="12.00">(PlanetRace species)</text>
<text text-anchor="start" x="130" y="-942.4" font-family="Consolas" font-size="12.00">+</text>
<text text-anchor="start" x="142" y="-942.4" font-family="Consolas" font-size="12.00">void SetItems()</text>
<text text-anchor="start" x="130" y="-925.4" font-family="Consolas" font-size="12.00">+</text>
<text text-anchor="start" x="142" y="-925.4" font-family="Consolas" font-size="12.00">void ChangeItemPrice()</text>
<text text-anchor="start" x="130" y="-908.4" font-family="Consolas" font-size="12.00">+</text>
<text text-anchor="start" x="142" y="-908.4" font-family="Consolas" font-size="12.00">int GetItemPrice(int</text>
<text text-anchor="start" x="142" y="-895.4" font-family="Consolas" font-size="12.00"> itemId)</text>
<text text-anchor="start" x="130" y="-878.4" font-family="Consolas" font-size="12.00">+</text>
<text text-anchor="start" x="142" y="-878.4" font-family="Consolas" font-size="12.00">int GetItemPrice(Trading</text>
<text text-anchor="start" x="142" y="-865.4" font-family="Consolas" font-size="12.00">ItemData item)</text>
<text text-anchor="start" x="130" y="-848.4" font-family="Consolas" font-size="12.00">+</text>
<text text-anchor="start" x="142" y="-848.4" font-family="Consolas" font-size="12.00">void RegisterPlanetEffect</text>
<text text-anchor="start" x="142" y="-835.4" font-family="Consolas" font-size="12.00">(PlanetEffect effectData)</text>
<text text-anchor="start" x="130" y="-818.4" font-family="Consolas" font-size="12.00">+</text>
<text text-anchor="start" x="142" y="-818.4" font-family="Consolas" font-size="12.00">void CheckPirateQuests()</text>
<text text-anchor="start" x="130" y="-801.4" font-family="Consolas" font-size="12.00">+</text>
<text text-anchor="start" x="142" y="-801.4" font-family="Consolas" font-size="12.00">void CheckItemQuests</text>
<text text-anchor="start" x="142" y="-788.4" font-family="Consolas" font-size="12.00">(int itemId)</text>
<text text-anchor="start" x="130" y="-771.4" font-family="Consolas" font-size="12.00">+</text>
<text text-anchor="start" x="142" y="-771.4" font-family="Consolas" font-size="12.00">void CheckEventExpirations</text>
<text text-anchor="start" x="142" y="-758.4" font-family="Consolas" font-size="12.00">(int currentYear)</text>
<text text-anchor="start" x="130" y="-741.4" font-family="Consolas" font-size="12.00">+</text>
<text text-anchor="start" x="142" y="-741.4" font-family="Consolas" font-size="12.00">float GetCategoryPriceModifier</text>
<text text-anchor="start" x="142" y="-728.4" font-family="Consolas" font-size="12.00">(ItemCategory category)</text>
<text text-anchor="start" x="130" y="-711.4" font-family="Consolas" font-size="12.00">+</text>
<text text-anchor="start" x="142" y="-711.4" font-family="Consolas" font-size="12.00">void ResetAllEffects()</text>
<text text-anchor="start" x="130" y="-694.4" font-family="Consolas" font-size="12.00">+</text>
<text text-anchor="start" x="142" y="-694.4" font-family="Consolas" font-size="12.00">int CalculateAdjustedPrice</text>
<text text-anchor="start" x="142" y="-681.4" font-family="Consolas" font-size="12.00">(int basePrice, ItemCategory</text>
<text text-anchor="start" x="142" y="-668.4" font-family="Consolas" font-size="12.00"> category)</text>
<text text-anchor="start" x="130" y="-651.4" font-family="Consolas" font-size="12.00">+</text>
<text text-anchor="start" x="142" y="-651.4" font-family="Consolas" font-size="12.00">void PrintAllEffects()</text>
<text text-anchor="start" x="130" y="-634.4" font-family="Consolas" font-size="12.00">+</text>
<text text-anchor="start" x="142" y="-634.4" font-family="Consolas" font-size="12.00">void CheckQuestExpirations</text>
<text text-anchor="start" x="142" y="-621.4" font-family="Consolas" font-size="12.00">(int currentYear)</text>
<text text-anchor="start" x="130" y="-604.4" font-family="Consolas" font-size="12.00">+</text>
<text text-anchor="start" x="142" y="-604.4" font-family="Consolas" font-size="12.00">void ActivateQuest</text>
<text text-anchor="start" x="142" y="-591.4" font-family="Consolas" font-size="12.00">(RandomQuest quest)</text>
<text text-anchor="start" x="130" y="-574.4" font-family="Consolas" font-size="12.00">+</text>
<text text-anchor="start" x="142" y="-574.4" font-family="Consolas" font-size="12.00">void CompleteQuest</text>
<text text-anchor="start" x="142" y="-561.4" font-family="Consolas" font-size="12.00">(RandomQuest quest)</text>
<text text-anchor="start" x="130" y="-544.4" font-family="Consolas" font-size="12.00">+</text>
<text text-anchor="start" x="142" y="-544.4" font-family="Consolas" font-size="12.00">void FailQuest(RandomQuest</text>
<text text-anchor="start" x="142" y="-531.4" font-family="Consolas" font-size="12.00"> quest)</text>
<text text-anchor="start" x="130" y="-514.4" font-family="Consolas" font-size="12.00">+</text>
<text text-anchor="start" x="142" y="-514.4" font-family="Consolas" font-size="12.00">void TrySpawnQuest()</text>
<text text-anchor="start" x="130" y="-497.4" font-family="Consolas" font-size="12.00">+</text>
<text text-anchor="start" x="142" y="-497.4" font-family="Consolas" font-size="12.00">void RefreshEquipmentSelling()</text>
<text text-anchor="start" x="130" y="-480.4" font-family="Consolas" font-size="12.00">+</text>
<text text-anchor="start" x="142" y="-480.4" font-family="Consolas" font-size="12.00">void ChangeFuelPrice()</text>
<text text-anchor="start" x="130" y="-463.4" font-family="Consolas" font-size="12.00">+</text>
<text text-anchor="start" x="142" y="-463.4" font-family="Consolas" font-size="12.00">void SetPlanetRace</text>
<text text-anchor="start" x="142" y="-450.4" font-family="Consolas" font-size="12.00">(PlanetRace planetRace)</text>
<text text-anchor="start" x="130" y="-433.4" font-family="Consolas" font-size="12.00">&#45;</text>
<text text-anchor="start" x="142" y="-433.4" font-family="Consolas" font-size="12.00">void InitializeCategoryModifiers()</text>
<text text-anchor="start" x="130" y="-416.4" font-family="Consolas" font-size="12.00">&#45;</text>
<text text-anchor="start" x="142" y="-416.4" font-family="Consolas" font-size="12.00">void SetRandomName()</text>
<text text-anchor="start" x="130" y="-399.4" font-family="Consolas" font-size="12.00">&#45;</text>
<text text-anchor="start" x="142" y="-399.4" font-family="Consolas" font-size="12.00">void SetRandomPosition()</text>
<text text-anchor="start" x="130" y="-382.4" font-family="Consolas" font-size="12.00">&#45;</text>
<text text-anchor="start" x="142" y="-382.4" font-family="Consolas" font-size="12.00">void ApplyPlanetEffectValue</text>
<text text-anchor="start" x="142" y="-369.4" font-family="Consolas" font-size="12.00">(PlanetEffect effect)</text>
<text text-anchor="start" x="130" y="-352.4" font-family="Consolas" font-size="12.00">&#45;</text>
<text text-anchor="start" x="142" y="-352.4" font-family="Consolas" font-size="12.00">void RemovePlanetEffectValue</text>
<text text-anchor="start" x="142" y="-339.4" font-family="Consolas" font-size="12.00">(PlanetEffect effect)</text>
<text text-anchor="start" x="130" y="-322.4" font-family="Consolas" font-size="12.00">&#45;</text>
<text text-anchor="start" x="142" y="-322.4" font-family="Consolas" font-size="12.00">void CreateRandomQuest()</text>
<polygon fill="#666666" stroke="#666666" points="126,-1432 126,-1432 402,-1432 402,-1432 126,-1432"/>
<polygon fill="#666666" stroke="#666666" points="126,-1018 126,-1018 140,-1018 140,-1018 126,-1018"/>
<polygon fill="#666666" stroke="#666666" points="140,-1018 140,-1018 402,-1018 402,-1018 140,-1018"/>
<polygon fill="none" stroke="#666666" points="126,-315 126,-1451 402,-1451 402,-315 126,-315"/>
</a>
</g>
</g>
<!-- Node3&#45;&gt;Node1 -->
<g id="edge2_Node000001_Node000003" class="edge">
<title>Node3&#45;&gt;Node1</title>
<g id="a_edge2_Node000001_Node000003"><a xlink:title=" ">
<path fill="none" stroke="#63b8ff" d="M150.41,-314.79C147.71,-301.31 145.1,-288.28 142.6,-275.82"/>
<polygon fill="none" stroke="#63b8ff" points="142.6,-275.82 137.5,-270.72 140.24,-264.05 145.35,-269.15 142.6,-275.82"/>
</a>
</g>
<text text-anchor="middle" x="180.5" y="-285.8" font-family="Consolas" font-size="14.00" fill="grey"> &#45;planet</text>
</g>
<!-- Node4 -->
<g id="Node000004" class="node">
<title>Node4</title>
<g id="a_Node000004"><a xlink:title=" ">
<polygon fill="white" stroke="transparent" points="215.5,-1716.5 122.5,-1716.5 122.5,-1661.5 215.5,-1661.5 215.5,-1716.5"/>
<text text-anchor="start" x="128" y="-1702.4" font-family="Consolas" font-size="12.00">UnityEngine</text>
<text text-anchor="start" x="165.5" y="-1685.4" font-family="Consolas" font-size="12.00"> </text>
<text text-anchor="start" x="165.5" y="-1668.4" font-family="Consolas" font-size="12.00"> </text>
<polygon fill="#bfbfbf" stroke="#bfbfbf" points="123,-1697 123,-1697 216,-1697 216,-1697 123,-1697"/>
<polygon fill="#bfbfbf" stroke="#bfbfbf" points="123,-1680 123,-1680 216,-1680 216,-1680 123,-1680"/>
<polygon fill="none" stroke="#bfbfbf" points="122.5,-1661.5 122.5,-1716.5 215.5,-1716.5 215.5,-1661.5 122.5,-1661.5"/>
</a>
</g>
</g>
<!-- Node4&#45;&gt;Node3 -->
<g id="edge3_Node000003_Node000004" class="edge">
<title>Node4&#45;&gt;Node3</title>
<g id="a_edge3_Node000003_Node000004"><a xlink:title=" ">
<path fill="none" stroke="#63b8ff" d="M168.48,-1661.27C167.75,-1622.29 166.47,-1547.58 166,-1484 165.95,-1477.15 165.96,-1470.27 166.04,-1463.35"/>
<polygon fill="none" stroke="#63b8ff" points="166.04,-1463.28 162.14,-1457.22 166.24,-1451.28 170.14,-1457.35 166.04,-1463.28"/>
</a>
</g>
<text text-anchor="middle" x="249" y="-1472.8" font-family="Consolas" font-size="14.00" fill="grey"> +normalizedPosition</text>
</g>
<!-- Node5 -->
<g id="Node000005" class="node">
<title>Node5</title>
<g id="a_Node000005"><a xlink:href="classEquipmentItem.html" target="_top" xlink:title="각 장비 별 필요한 필드 정리">
<polygon fill="white" stroke="transparent" points="469.5,-1876 246.5,-1876 246.5,-1502 469.5,-1502 469.5,-1876"/>
<text text-anchor="start" x="309.5" y="-1862.4" font-family="Consolas" font-size="12.00">EquipmentItem</text>
<text text-anchor="start" x="251" y="-1845.4" font-family="Consolas" font-size="12.00">+</text>
<text text-anchor="start" x="263" y="-1845.4" font-family="Consolas" font-size="12.00">int eqId</text>
<text text-anchor="start" x="251" y="-1828.4" font-family="Consolas" font-size="12.00">+</text>
<text text-anchor="start" x="263" y="-1828.4" font-family="Consolas" font-size="12.00">Sprite eqIcon</text>
<text text-anchor="start" x="251" y="-1811.4" font-family="Consolas" font-size="12.00">+</text>
<text text-anchor="start" x="263" y="-1811.4" font-family="Consolas" font-size="12.00">string eqName</text>
<text text-anchor="start" x="251" y="-1794.4" font-family="Consolas" font-size="12.00">+</text>
<text text-anchor="start" x="263" y="-1794.4" font-family="Consolas" font-size="12.00">string eqDescription</text>
<text text-anchor="start" x="251" y="-1777.4" font-family="Consolas" font-size="12.00">+</text>
<text text-anchor="start" x="263" y="-1777.4" font-family="Consolas" font-size="12.00">EquipmentType eqType</text>
<text text-anchor="start" x="251" y="-1760.4" font-family="Consolas" font-size="12.00">+</text>
<text text-anchor="start" x="263" y="-1760.4" font-family="Consolas" font-size="12.00">int eqPrice</text>
<text text-anchor="start" x="251" y="-1743.4" font-family="Consolas" font-size="12.00">+</text>
<text text-anchor="start" x="263" y="-1743.4" font-family="Consolas" font-size="12.00">bool isGlobalEquip</text>
<text text-anchor="start" x="251" y="-1726.4" font-family="Consolas" font-size="12.00">+</text>
<text text-anchor="start" x="263" y="-1726.4" font-family="Consolas" font-size="12.00">ItemPlanet planet</text>
<text text-anchor="start" x="251" y="-1709.4" font-family="Consolas" font-size="12.00">+</text>
<text text-anchor="start" x="263" y="-1709.4" font-family="Consolas" font-size="12.00">int eqAttackBonus</text>
<text text-anchor="start" x="251" y="-1692.4" font-family="Consolas" font-size="12.00">+</text>
<text text-anchor="start" x="263" y="-1692.4" font-family="Consolas" font-size="12.00">int eqDefenseBonus</text>
<text text-anchor="start" x="251" y="-1675.4" font-family="Consolas" font-size="12.00">+</text>
<text text-anchor="start" x="263" y="-1675.4" font-family="Consolas" font-size="12.00">int eqHealthBonus</text>
<text text-anchor="start" x="251" y="-1658.4" font-family="Consolas" font-size="12.00">+</text>
<text text-anchor="start" x="263" y="-1658.4" font-family="Consolas" font-size="12.00">int eqAdditionalPilotSkill</text>
<text text-anchor="start" x="251" y="-1641.4" font-family="Consolas" font-size="12.00">+</text>
<text text-anchor="start" x="263" y="-1641.4" font-family="Consolas" font-size="12.00">int eqAdditionalEngineSkill</text>
<text text-anchor="start" x="251" y="-1624.4" font-family="Consolas" font-size="12.00">+</text>
<text text-anchor="start" x="263" y="-1624.4" font-family="Consolas" font-size="12.00">int eqAdditionalPowerSkill</text>
<text text-anchor="start" x="251" y="-1607.4" font-family="Consolas" font-size="12.00">+</text>
<text text-anchor="start" x="263" y="-1607.4" font-family="Consolas" font-size="12.00">int eqAdditionalShieldSkill</text>
<text text-anchor="start" x="251" y="-1590.4" font-family="Consolas" font-size="12.00">+</text>
<text text-anchor="start" x="263" y="-1590.4" font-family="Consolas" font-size="12.00">int eqAdditionalWeaponSkill</text>
<text text-anchor="start" x="251" y="-1573.4" font-family="Consolas" font-size="12.00">+</text>
<text text-anchor="start" x="263" y="-1573.4" font-family="Consolas" font-size="12.00">int eqAdditionalAmmunition</text>
<text text-anchor="start" x="263" y="-1560.4" font-family="Consolas" font-size="12.00">Skill</text>
<text text-anchor="start" x="251" y="-1543.4" font-family="Consolas" font-size="12.00">+</text>
<text text-anchor="start" x="263" y="-1543.4" font-family="Consolas" font-size="12.00">int eqAdditionalMedBaySkill</text>
<text text-anchor="start" x="251" y="-1526.4" font-family="Consolas" font-size="12.00">+</text>
<text text-anchor="start" x="263" y="-1526.4" font-family="Consolas" font-size="12.00">int eqAdditionalRepairSkill</text>
<text text-anchor="start" x="354.5" y="-1509.4" font-family="Consolas" font-size="12.00"> </text>
<polygon fill="#666666" stroke="#666666" points="247,-1857 247,-1857 470,-1857 470,-1857 247,-1857"/>
<polygon fill="#666666" stroke="#666666" points="247,-1521 247,-1521 261,-1521 261,-1521 247,-1521"/>
<polygon fill="#666666" stroke="#666666" points="261,-1521 261,-1521 470,-1521 470,-1521 261,-1521"/>
<polygon fill="none" stroke="#666666" points="246.5,-1502 246.5,-1876 469.5,-1876 469.5,-1502 246.5,-1502"/>
</a>
</g>
</g>
<!-- Node5&#45;&gt;Node3 -->
<g id="edge4_Node000003_Node000005" class="edge">
<title>Node5&#45;&gt;Node3</title>
<g id="a_edge4_Node000003_Node000005"><a xlink:title=" ">
<path fill="none" stroke="#63b8ff" d="M339.59,-1501.89C338.4,-1490.76 337.2,-1479.73 336,-1469 335.8,-1467.17 335.59,-1465.34 335.39,-1463.51"/>
<polygon fill="none" stroke="#63b8ff" points="335.36,-1463.29 330.72,-1457.77 334.02,-1451.36 338.66,-1456.88 335.36,-1463.29"/>
</a>
</g>
<text text-anchor="middle" x="453" y="-1472.8" font-family="Consolas" font-size="14.00" fill="grey"> +currentRandomEquipmentItem</text>
</g>
<!-- Node6 -->
<g id="Node000006" class="node">
<title>Node6</title>
<g id="a_Node000006"><a xlink:title=" ">
<polygon fill="white" stroke="transparent" points="423.5,-1968 292.5,-1968 292.5,-1913 423.5,-1913 423.5,-1968"/>
<text text-anchor="start" x="298" y="-1953.9" font-family="Consolas" font-size="12.00">ScriptableObject</text>
<text text-anchor="start" x="354.5" y="-1936.9" font-family="Consolas" font-size="12.00"> </text>
<text text-anchor="start" x="354.5" y="-1919.9" font-family="Consolas" font-size="12.00"> </text>
<polygon fill="#bfbfbf" stroke="#bfbfbf" points="293,-1948.5 293,-1948.5 424,-1948.5 424,-1948.5 293,-1948.5"/>
<polygon fill="#bfbfbf" stroke="#bfbfbf" points="293,-1931.5 293,-1931.5 424,-1931.5 424,-1931.5 293,-1931.5"/>
<polygon fill="none" stroke="#bfbfbf" points="292.5,-1913 292.5,-1968 423.5,-1968 423.5,-1913 292.5,-1913"/>
</a>
</g>
</g>
<!-- Node6&#45;&gt;Node5 -->
<g id="edge5_Node000005_Node000006" class="edge">
<title>Node6&#45;&gt;Node5</title>
<g id="a_edge5_Node000005_Node000006"><a xlink:title=" ">
<path fill="none" stroke="#63b8ff" d="M358,-1902.59C358,-1894.65 358,-1885.74 358,-1876.19"/>
<polygon fill="none" stroke="#63b8ff" points="354.5,-1902.8 358,-1912.8 361.5,-1902.8 354.5,-1902.8"/>
</a>
</g>
</g>
</g>
</svg>

<g id="navigator" transform="translate(0 0)" fill="#404254">
  <rect fill="#f2f5e9" fill-opacity="0.5" stroke="#606060" stroke-width=".5" x="0" y="0" width="60" height="60"/>
  <use id="zoomplus" xlink:href="#zoomPlus" x="17" y="9" onmousedown="handleZoom(evt,'in')"/>
  <use id="zoomminus" xlink:href="#zoomMin" x="42" y="9" onmousedown="handleZoom(evt,'out')"/>
  <use id="reset" xlink:href="#resetDef" x="30" y="36" onmousedown="handleReset()"/>
   <use id="arrowup" xlink:href="#arrowUp" x="0" y="0" onmousedown="handlePan(0,-1)"/>
  <use id="arrowright" xlink:href="#arrowRight" x="0" y="0" onmousedown="handlePan(1,0)"/>
  <use id="arrowdown" xlink:href="#arrowDown" x="0" y="0" onmousedown="handlePan(0,1)"/>
  <use id="arrowleft" xlink:href="#arrowLeft" x="0" y="0" onmousedown="handlePan(-1,0)"/>
</g>
<svg viewBox="0 0 15 15" width="100%" height="30px" preserveAspectRatio="xMaxYMin meet">
 <g id="arrow_out" transform="scale(0.3 0.3)">
  <a xlink:href="classQuestPanel__coll__graph_org.svg" target="_base">
   <rect id="button" ry="5" rx="5" y="6" x="6" height="38" width="38"
        fill="#f2f5e9" fill-opacity="0.5" stroke="#606060" stroke-width="1.0"/>
   <path id="arrow"
     d="M 11.500037,31.436501 C 11.940474,20.09759 22.043105,11.32322 32.158766,21.979434 L 37.068811,17.246167 C 37.068811,17.246167 37.088388,32 37.088388,32 L 22.160133,31.978069 C 22.160133,31.978069 26.997745,27.140456 26.997745,27.140456 C 18.528582,18.264221 13.291696,25.230495 11.500037,31.436501 z"
     style="fill:#404040;"/>
  </a>
 </g>
</svg>

<style type='text/css'>
<![CDATA[
[data-mouse-over-selected='false'] { opacity: 0.7; }
[data-mouse-over-selected='true']  { opacity: 1.0; }
]]>
</style>
<script type="application/ecmascript"><![CDATA[
document.addEventListener('DOMContentLoaded', (event) => {
  highlightEdges();
  highlightAdjacentNodes();
});
]]></script>
</svg>
