<?xml version="1.0" encoding="UTF-8" standalone="no"?>
<!DOCTYPE svg PUBLIC "-//W3C//DTD SVG 1.1//EN"
 "http://www.w3.org/Graphics/SVG/1.1/DTD/svg11.dtd">
<!-- Generated by graphviz version 2.43.0 (0)
 -->
<!-- Title: ShipWeaponTypeData Pages: 1 -->
<svg width="216pt" height="222pt"
 viewBox="0.00 0.00 216.00 222.00" xmlns="http://www.w3.org/2000/svg" xmlns:xlink="http://www.w3.org/1999/xlink">

<svg id="main" version="1.1" xmlns="http://www.w3.org/2000/svg" xmlns:xlink="http://www.w3.org/1999/xlink" xml:space="preserve" onload="init(evt)">
<style type="text/css"><![CDATA[
.node, .edge {opacity: 0.7;}
.node.selected, .edge.selected {opacity: 1;}
.edge:hover path { stroke: red; }
.edge:hover polygon { stroke: red; fill: red; }
]]></style>
<script type="application/ecmascript" xlink:href="svg.min.js"/>
<svg id="graph" class="graph">
<g id="graph0" class="graph" transform="scale(1 1) rotate(0) translate(4 218)">
<title>ShipWeaponTypeData</title>
<!-- Node1 -->
<g id="Node000001" class="node">
<title>Node1</title>
<g id="a_Node000001"><a xlink:title="무기 타입 데이터 클래스">
<polygon fill="#999999" stroke="transparent" points="208,-123 0,-123 0,0 208,0 208,-123"/>
<text text-anchor="start" x="36" y="-108.9" font-family="Consolas" font-size="12.00">ShipWeaponTypeData</text>
<text text-anchor="start" x="4" y="-91.9" font-family="Consolas" font-size="12.00">+</text>
<text text-anchor="start" x="16" y="-91.9" font-family="Consolas" font-size="12.00">int id</text>
<text text-anchor="start" x="4" y="-74.9" font-family="Consolas" font-size="12.00">+</text>
<text text-anchor="start" x="16" y="-74.9" font-family="Consolas" font-size="12.00">string typeName</text>
<text text-anchor="start" x="4" y="-57.9" font-family="Consolas" font-size="12.00">+</text>
<text text-anchor="start" x="16" y="-57.9" font-family="Consolas" font-size="12.00">string description</text>
<text text-anchor="start" x="4" y="-40.9" font-family="Consolas" font-size="12.00">+</text>
<text text-anchor="start" x="16" y="-40.9" font-family="Consolas" font-size="12.00">ShipWeaponType weaponType</text>
<text text-anchor="start" x="4" y="-23.9" font-family="Consolas" font-size="12.00">+</text>
<text text-anchor="start" x="16" y="-23.9" font-family="Consolas" font-size="12.00">Sprite icon</text>
<text text-anchor="start" x="100" y="-6.9" font-family="Consolas" font-size="12.00"> </text>
<polygon fill="#666666" stroke="#666666" points="0,-103.5 0,-103.5 208,-103.5 208,-103.5 0,-103.5"/>
<polygon fill="#666666" stroke="#666666" points="0,-18.5 0,-18.5 14,-18.5 14,-18.5 0,-18.5"/>
<polygon fill="#666666" stroke="#666666" points="14,-18.5 14,-18.5 208,-18.5 208,-18.5 14,-18.5"/>
<polygon fill="none" stroke="#666666" points="0,0 0,-123 208,-123 208,0 0,0"/>
</a>
</g>
</g>
<!-- Node2 -->
<g id="Node000002" class="node">
<title>Node2</title>
<g id="a_Node000002"><a xlink:title=" ">
<polygon fill="white" stroke="transparent" points="169.5,-214 38.5,-214 38.5,-159 169.5,-159 169.5,-214"/>
<text text-anchor="start" x="44" y="-199.9" font-family="Consolas" font-size="12.00">ScriptableObject</text>
<text text-anchor="start" x="100.5" y="-182.9" font-family="Consolas" font-size="12.00"> </text>
<text text-anchor="start" x="100.5" y="-165.9" font-family="Consolas" font-size="12.00"> </text>
<polygon fill="#bfbfbf" stroke="#bfbfbf" points="39,-194.5 39,-194.5 170,-194.5 170,-194.5 39,-194.5"/>
<polygon fill="#bfbfbf" stroke="#bfbfbf" points="39,-177.5 39,-177.5 170,-177.5 170,-177.5 39,-177.5"/>
<polygon fill="none" stroke="#bfbfbf" points="38.5,-159 38.5,-214 169.5,-214 169.5,-159 38.5,-159"/>
</a>
</g>
</g>
<!-- Node2&#45;&gt;Node1 -->
<g id="edge1_Node000001_Node000002" class="edge">
<title>Node2&#45;&gt;Node1</title>
<g id="a_edge1_Node000001_Node000002"><a xlink:title=" ">
<path fill="none" stroke="#63b8ff" d="M104,-148.68C104,-140.64 104,-131.91 104,-123.21"/>
<polygon fill="none" stroke="#63b8ff" points="100.5,-148.81 104,-158.81 107.5,-148.81 100.5,-148.81"/>
</a>
</g>
</g>
</g>
</svg>
</svg>

<style type='text/css'>
<![CDATA[
[data-mouse-over-selected='false'] { opacity: 0.7; }
[data-mouse-over-selected='true']  { opacity: 1.0; }
]]>
</style>
<script type="application/ecmascript"><![CDATA[
document.addEventListener('DOMContentLoaded', (event) => {
  highlightEdges();
  highlightAdjacentNodes();
});
]]></script>
</svg>
