<?xml version="1.0" encoding="UTF-8" standalone="no"?>
<!DOCTYPE svg PUBLIC "-//W3C//DTD SVG 1.1//EN"
 "http://www.w3.org/Graphics/SVG/1.1/DTD/svg11.dtd">
<!-- Generated by graphviz version 2.43.0 (0)
 -->
<!-- Title: ShipWeaponFactory.CreateWeaponInstance Pages: 1 -->
<svg width="1053pt" height="75pt"
 viewBox="0.00 0.00 1053.00 74.50" xmlns="http://www.w3.org/2000/svg" xmlns:xlink="http://www.w3.org/1999/xlink">
<g id="graph0" class="graph" transform="scale(1 1) rotate(0) translate(4 70.5)">
<title>ShipWeaponFactory.CreateWeaponInstance</title>
<!-- Node1 -->
<g id="Node000001" class="node">
<title>Node1</title>
<g id="a_Node000001"><a xlink:title="무기 인스턴스 생성 &#45; 함선에 자동 추가하지 않음">
<polygon fill="#999999" stroke="#666666" points="197,-46.5 0,-46.5 0,-12.5 197,-12.5 197,-46.5"/>
<text text-anchor="start" x="8" y="-32.9" font-family="Consolas" font-size="12.00">ShipWeaponFactory.Create</text>
<text text-anchor="middle" x="98.5" y="-19.9" font-family="Consolas" font-size="12.00">WeaponInstance</text>
</a>
</g>
</g>
<!-- Node2 -->
<g id="Node000002" class="node">
<title>Node2</title>
<g id="a_Node000002"><a xlink:href="classShipWeaponFactory.html#a188118dbfa6dcc8e4bb34619e8de7964" target="_top" xlink:title="ID로 무기 데이터 검색">
<polygon fill="white" stroke="#666666" points="482,-60 233,-60 233,-39 482,-39 482,-60"/>
<text text-anchor="middle" x="357.5" y="-46.4" font-family="Consolas" font-size="12.00">ShipWeaponFactory.GetWeaponData</text>
</a>
</g>
</g>
<!-- Node1&#45;&gt;Node2 -->
<g id="edge1_Node000001_Node000002" class="edge">
<title>Node1&#45;&gt;Node2</title>
<g id="a_edge1_Node000001_Node000002"><a xlink:title=" ">
<path fill="none" stroke="#63b8ff" d="M197.03,-37.09C205.4,-37.74 213.95,-38.41 222.54,-39.08"/>
<polygon fill="#63b8ff" stroke="#63b8ff" points="222.39,-42.57 232.63,-39.86 222.93,-35.59 222.39,-42.57"/>
</a>
</g>
</g>
<!-- Node5 -->
<g id="Node000005" class="node">
<title>Node5</title>
<g id="a_Node000005"><a xlink:href="classShipWeapon.html#ad1bc7dcd44db24b78956ab3c77626d57" target="_top" xlink:title="무기 초기화 (무기 생성 후 필요한 추가 설정)">
<polygon fill="white" stroke="#666666" points="444.5,-21 270.5,-21 270.5,0 444.5,0 444.5,-21"/>
<text text-anchor="middle" x="357.5" y="-7.4" font-family="Consolas" font-size="12.00">ShipWeapon.Initialize</text>
</a>
</g>
</g>
<!-- Node1&#45;&gt;Node5 -->
<g id="edge4_Node000001_Node000005" class="edge">
<title>Node1&#45;&gt;Node5</title>
<g id="a_edge4_Node000001_Node000005"><a xlink:title=" ">
<path fill="none" stroke="#63b8ff" d="M197.03,-22.29C217.77,-20.76 239.66,-19.14 260.36,-17.61"/>
<polygon fill="#63b8ff" stroke="#63b8ff" points="260.69,-21.09 270.41,-16.86 260.18,-14.11 260.69,-21.09"/>
</a>
</g>
</g>
<!-- Node3 -->
<g id="Node000003" class="node">
<title>Node3</title>
<g id="a_Node000003"><a xlink:href="classShipWeaponDatabase.html#a44753cec6c02804586718ae52321f33a" target="_top" xlink:title="ID로 무기 데이터 검색">
<polygon fill="white" stroke="#666666" points="775,-60 518,-60 518,-39 775,-39 775,-60"/>
<text text-anchor="middle" x="646.5" y="-46.4" font-family="Consolas" font-size="12.00">ShipWeaponDatabase.GetWeaponData</text>
</a>
</g>
</g>
<!-- Node2&#45;&gt;Node3 -->
<g id="edge2_Node000002_Node000003" class="edge">
<title>Node2&#45;&gt;Node3</title>
<g id="a_edge2_Node000002_Node000003"><a xlink:title=" ">
<path fill="none" stroke="#63b8ff" d="M482.3,-49.5C490.6,-49.5 499,-49.5 507.37,-49.5"/>
<polygon fill="#63b8ff" stroke="#63b8ff" points="507.56,-53 517.56,-49.5 507.56,-46 507.56,-53"/>
</a>
</g>
</g>
<!-- Node4 -->
<g id="Node000004" class="node">
<title>Node4</title>
<g id="a_Node000004"><a xlink:href="classShipWeaponDatabase.html#a4962b1ebf5d68ef3370ec6ae05209928" target="_top" xlink:title="무기 검색용 딕셔너리 초기화">
<polygon fill="white" stroke="#666666" points="1045,-66.5 811,-66.5 811,-32.5 1045,-32.5 1045,-66.5"/>
<text text-anchor="start" x="819" y="-52.9" font-family="Consolas" font-size="12.00">ShipWeaponDatabase.Initialize</text>
<text text-anchor="middle" x="928" y="-39.9" font-family="Consolas" font-size="12.00">WeaponDictionary</text>
</a>
</g>
</g>
<!-- Node3&#45;&gt;Node4 -->
<g id="edge3_Node000003_Node000004" class="edge">
<title>Node3&#45;&gt;Node4</title>
<g id="a_edge3_Node000003_Node000004"><a xlink:title=" ">
<path fill="none" stroke="#63b8ff" d="M775.39,-49.5C783.77,-49.5 792.21,-49.5 800.58,-49.5"/>
<polygon fill="#63b8ff" stroke="#63b8ff" points="800.75,-53 810.75,-49.5 800.75,-46 800.75,-53"/>
</a>
</g>
</g>
</g>
</svg>
