<?xml version="1.0" encoding="UTF-8" standalone="no"?>
<!DOCTYPE svg PUBLIC "-//W3C//DTD SVG 1.1//EN"
 "http://www.w3.org/Graphics/SVG/1.1/DTD/svg11.dtd">
<!-- Generated by graphviz version 2.43.0 (0)
 -->
<!-- Title: ES3Internal.ES3GlobalReferences Pages: 1 -->
<svg width="251pt" height="227pt"
 viewBox="0.00 0.00 251.00 227.00" xmlns="http://www.w3.org/2000/svg" xmlns:xlink="http://www.w3.org/1999/xlink">

<svg id="main" version="1.1" xmlns="http://www.w3.org/2000/svg" xmlns:xlink="http://www.w3.org/1999/xlink" xml:space="preserve" onload="init(evt)">
<style type="text/css"><![CDATA[
.node, .edge {opacity: 0.7;}
.node.selected, .edge.selected {opacity: 1;}
.edge:hover path { stroke: red; }
.edge:hover polygon { stroke: red; fill: red; }
]]></style>
<script type="application/ecmascript" xlink:href="svg.min.js"/>
<svg id="graph" class="graph">
<g id="graph0" class="graph" transform="scale(1 1) rotate(0) translate(4 223)">
<title>ES3Internal.ES3GlobalReferences</title>
<!-- Node1 -->
<g id="Node000001" class="node">
<title>Node1</title>
<g id="a_Node000001"><a xlink:title=" ">
<polygon fill="#999999" stroke="transparent" points="243,-128 0,-128 0,0 243,0 243,-128"/>
<text text-anchor="start" x="5.5" y="-114.4" font-family="Consolas" font-size="12.00">ES3Internal.ES3GlobalReferences</text>
<text text-anchor="start" x="11" y="-97.4" font-family="Consolas" font-size="12.00">+</text>
<text text-anchor="start" x="29.5" y="-97.4" font-family="Consolas" font-size="12.00">static ES3GlobalReferences</text>
<text text-anchor="start" x="29.5" y="-84.4" font-family="Consolas" font-size="12.00"> Instance</text>
<text text-anchor="start" x="11" y="-67.4" font-family="Consolas" font-size="12.00">+</text>
<text text-anchor="start" x="29.5" y="-67.4" font-family="Consolas" font-size="12.00">UnityEngine.Object</text>
<text text-anchor="start" x="29.5" y="-54.4" font-family="Consolas" font-size="12.00"> Get(long id)</text>
<text text-anchor="start" x="11" y="-37.4" font-family="Consolas" font-size="12.00">+</text>
<text text-anchor="start" x="29.5" y="-37.4" font-family="Consolas" font-size="12.00">long GetOrAdd(UnityEngine.</text>
<text text-anchor="start" x="29.5" y="-24.4" font-family="Consolas" font-size="12.00">Object obj)</text>
<text text-anchor="start" x="11" y="-7.4" font-family="Consolas" font-size="12.00">+</text>
<text text-anchor="start" x="29.5" y="-7.4" font-family="Consolas" font-size="12.00">void RemoveInvalidKeys()</text>
<polygon fill="#666666" stroke="#666666" points="0.5,-109 0.5,-109 243.5,-109 243.5,-109 0.5,-109"/>
<polygon fill="#666666" stroke="#666666" points="0.5,-79 0.5,-79 27.5,-79 27.5,-79 0.5,-79"/>
<polygon fill="#666666" stroke="#666666" points="27.5,-79 27.5,-79 243.5,-79 243.5,-79 27.5,-79"/>
<polygon fill="none" stroke="#666666" points="0,0 0,-128 243,-128 243,0 0,0"/>
</a>
</g>
</g>
<!-- Node2 -->
<g id="Node000002" class="node">
<title>Node2</title>
<g id="a_Node000002"><a xlink:title=" ">
<polygon fill="white" stroke="transparent" points="187,-219 56,-219 56,-164 187,-164 187,-219"/>
<text text-anchor="start" x="61.5" y="-204.9" font-family="Consolas" font-size="12.00">ScriptableObject</text>
<text text-anchor="start" x="118" y="-187.9" font-family="Consolas" font-size="12.00"> </text>
<text text-anchor="start" x="118" y="-170.9" font-family="Consolas" font-size="12.00"> </text>
<polygon fill="#bfbfbf" stroke="#bfbfbf" points="56.5,-199.5 56.5,-199.5 187.5,-199.5 187.5,-199.5 56.5,-199.5"/>
<polygon fill="#bfbfbf" stroke="#bfbfbf" points="56.5,-182.5 56.5,-182.5 187.5,-182.5 187.5,-182.5 56.5,-182.5"/>
<polygon fill="none" stroke="#bfbfbf" points="56,-164 56,-219 187,-219 187,-164 56,-164"/>
</a>
</g>
</g>
<!-- Node2&#45;&gt;Node1 -->
<g id="edge1_Node000001_Node000002" class="edge">
<title>Node2&#45;&gt;Node1</title>
<g id="a_edge1_Node000001_Node000002"><a xlink:title=" ">
<path fill="none" stroke="#63b8ff" d="M121.5,-153.77C121.5,-145.73 121.5,-136.99 121.5,-128.24"/>
<polygon fill="none" stroke="#63b8ff" points="118,-153.88 121.5,-163.88 125,-153.88 118,-153.88"/>
</a>
</g>
</g>
</g>
</svg>
</svg>

<style type='text/css'>
<![CDATA[
[data-mouse-over-selected='false'] { opacity: 0.7; }
[data-mouse-over-selected='true']  { opacity: 1.0; }
]]>
</style>
<script type="application/ecmascript"><![CDATA[
document.addEventListener('DOMContentLoaded', (event) => {
  highlightEdges();
  highlightAdjacentNodes();
});
]]></script>
</svg>
