<?xml version="1.0" encoding="UTF-8" standalone="no"?>
<!DOCTYPE svg PUBLIC "-//W3C//DTD SVG 1.1//EN"
 "http://www.w3.org/Graphics/SVG/1.1/DTD/svg11.dtd">
<!-- Generated by graphviz version 2.43.0 (0)
 -->
<!-- Title: ShipTemplateSaver.DeleteTemplate Pages: 1 -->
<svg width="1346pt" height="173pt"
 viewBox="0.00 0.00 1346.00 172.77" xmlns="http://www.w3.org/2000/svg" xmlns:xlink="http://www.w3.org/1999/xlink">
<g id="graph0" class="graph" transform="scale(1 1) rotate(0) translate(4 168.77)">
<title>ShipTemplateSaver.DeleteTemplate</title>
<!-- Node1 -->
<g id="Node000001" class="node">
<title>Node1</title>
<g id="a_Node000001"><a xlink:title="템플릿 삭제">
<polygon fill="#999999" stroke="#666666" points="197,-99.77 0,-99.77 0,-65.77 197,-65.77 197,-99.77"/>
<text text-anchor="start" x="8" y="-86.17" font-family="Consolas" font-size="12.00">ShipTemplateSaver.Delete</text>
<text text-anchor="middle" x="98.5" y="-73.17" font-family="Consolas" font-size="12.00">Template</text>
</a>
</g>
</g>
<!-- Node2 -->
<g id="Node000002" class="node">
<title>Node2</title>
<g id="a_Node000002"><a xlink:href="classShipTemplateSaver.html#a9f66b826b50171073eedeb9282db164b" target="_top" xlink:title="템플릿 파일 경로 생성">
<polygon fill="white" stroke="#666666" points="1319,-164.77 1085,-164.77 1085,-130.77 1319,-130.77 1319,-164.77"/>
<text text-anchor="start" x="1093" y="-151.17" font-family="Consolas" font-size="12.00">ShipTemplateSaver.GetTemplate</text>
<text text-anchor="middle" x="1202" y="-138.17" font-family="Consolas" font-size="12.00">FilePath</text>
</a>
</g>
</g>
<!-- Node1&#45;&gt;Node2 -->
<g id="edge1_Node000001_Node000002" class="edge">
<title>Node1&#45;&gt;Node2</title>
<g id="a_edge1_Node000001_Node000002"><a xlink:title=" ">
<path fill="none" stroke="#63b8ff" d="M191.61,-99.83C205.45,-102.05 219.58,-104.12 233,-105.77 533.2,-142.81 889.26,-148.54 1074.6,-148.67"/>
<polygon fill="#63b8ff" stroke="#63b8ff" points="1074.66,-152.17 1084.66,-148.67 1074.66,-145.17 1074.66,-152.17"/>
</a>
</g>
</g>
<!-- Node3 -->
<g id="Node000003" class="node">
<title>Node3</title>
<g id="a_Node000003"><a xlink:href="classShipTemplateSaver.html#a7ef3c42f57f55899bc89f716dd2ddd00" target="_top" xlink:title="템플릿 목록 새로고침">
<polygon fill="white" stroke="#666666" points="437,-77.77 233,-77.77 233,-43.77 437,-43.77 437,-77.77"/>
<text text-anchor="start" x="241" y="-64.17" font-family="Consolas" font-size="12.00">ShipTemplateSaver.Refresh</text>
<text text-anchor="middle" x="335" y="-51.17" font-family="Consolas" font-size="12.00">TemplateList</text>
</a>
</g>
</g>
<!-- Node1&#45;&gt;Node3 -->
<g id="edge2_Node000001_Node000003" class="edge">
<title>Node1&#45;&gt;Node3</title>
<g id="a_edge2_Node000001_Node000003"><a xlink:title=" ">
<path fill="none" stroke="#63b8ff" d="M197.25,-73.6C205.56,-72.82 214,-72.03 222.41,-71.24"/>
<polygon fill="#63b8ff" stroke="#63b8ff" points="223,-74.7 232.63,-70.28 222.35,-67.73 223,-74.7"/>
</a>
</g>
</g>
<!-- Node7 -->
<g id="Node000007" class="node">
<title>Node7</title>
<g id="a_Node000007"><a xlink:href="classShipTemplateSaver.html#a398c37a1800d6cb43edc09c03c181f7a" target="_top" xlink:title="피드백 메시지 표시">
<polygon fill="white" stroke="#666666" points="1323,-73.27 1081,-73.27 1081,-52.27 1323,-52.27 1323,-73.27"/>
<text text-anchor="middle" x="1202" y="-59.67" font-family="Consolas" font-size="12.00">ShipTemplateSaver.ShowFeedback</text>
</a>
</g>
</g>
<!-- Node1&#45;&gt;Node7 -->
<g id="edge11_Node000001_Node000007" class="edge">
<title>Node1&#45;&gt;Node7</title>
<g id="a_edge11_Node000001_Node000007"><a xlink:title=" ">
<path fill="none" stroke="#63b8ff" d="M139.39,-65.76C165.55,-55.28 200.77,-42.41 233,-34.77 337.55,-10 365.75,-12.23 473,-5.77 596.78,1.68 628.25,2.05 752,-5.77 885.28,-14.2 1039.48,-36.56 1128.09,-50.64"/>
<polygon fill="#63b8ff" stroke="#63b8ff" points="1127.61,-54.11 1138.04,-52.23 1128.71,-47.2 1127.61,-54.11"/>
</a>
</g>
</g>
<!-- Node4 -->
<g id="Node000004" class="node">
<title>Node4</title>
<g id="a_Node000004"><a xlink:href="classShipTemplateSaver.html#a6c6e9dd017c3169597bbf314593d6fd6" target="_top" xlink:title="템플릿 목록 아이템 추가">
<polygon fill="white" stroke="#666666" points="744.5,-114.27 480.5,-114.27 480.5,-93.27 744.5,-93.27 744.5,-114.27"/>
<text text-anchor="middle" x="612.5" y="-100.67" font-family="Consolas" font-size="12.00">ShipTemplateSaver.AddTemplateItem</text>
</a>
</g>
</g>
<!-- Node3&#45;&gt;Node4 -->
<g id="edge3_Node000003_Node000004" class="edge">
<title>Node3&#45;&gt;Node4</title>
<g id="a_edge3_Node000003_Node000004"><a xlink:title=" ">
<path fill="none" stroke="#63b8ff" d="M437.02,-76.54C469.03,-81.54 503.9,-86.98 533.98,-91.68"/>
<polygon fill="#63b8ff" stroke="#63b8ff" points="533.57,-95.15 543.99,-93.24 534.65,-88.24 533.57,-95.15"/>
</a>
</g>
</g>
<!-- Node3&#45;&gt;Node7 -->
<g id="edge10_Node000003_Node000007" class="edge">
<title>Node3&#45;&gt;Node7</title>
<g id="a_edge10_Node000003_Node000007"><a xlink:title=" ">
<path fill="none" stroke="#63b8ff" d="M437.34,-61.01C594.59,-61.37 897.26,-62.07 1070.6,-62.47"/>
<polygon fill="#63b8ff" stroke="#63b8ff" points="1070.79,-65.97 1080.8,-62.5 1070.81,-58.97 1070.79,-65.97"/>
</a>
</g>
</g>
<!-- Node8 -->
<g id="Node000008" class="node">
<title>Node8</title>
<g id="a_Node000008"><a xlink:href="classShipTemplateSaver.html#aca735b6593de44e3e4ba1b284d5f6840" target="_top" xlink:title="기존 템플릿 목록 아이템 제거">
<polygon fill="white" stroke="#666666" points="752,-36.27 473,-36.27 473,-15.27 752,-15.27 752,-36.27"/>
<text text-anchor="middle" x="612.5" y="-22.67" font-family="Consolas" font-size="12.00">ShipTemplateSaver.ClearTemplateList</text>
</a>
</g>
</g>
<!-- Node3&#45;&gt;Node8 -->
<g id="edge9_Node000003_Node000008" class="edge">
<title>Node3&#45;&gt;Node8</title>
<g id="a_edge9_Node000003_Node000008"><a xlink:title=" ">
<path fill="none" stroke="#63b8ff" d="M437.02,-47.94C463.71,-44.55 492.39,-40.91 518.62,-37.57"/>
<polygon fill="#63b8ff" stroke="#63b8ff" points="519.07,-41.05 528.55,-36.31 518.19,-34.1 519.07,-41.05"/>
</a>
</g>
</g>
<!-- Node4&#45;&gt;Node1 -->
<g id="edge4_Node000004_Node000001" class="edge">
<title>Node4&#45;&gt;Node1</title>
<g id="a_edge4_Node000004_Node000001"><a xlink:title=" ">
<path fill="none" stroke="#63b8ff" d="M480.49,-98.4C395.73,-94.92 286.74,-90.45 207.07,-87.19"/>
<polygon fill="#63b8ff" stroke="#63b8ff" points="207.14,-83.69 197.01,-86.77 206.86,-90.68 207.14,-83.69"/>
</a>
</g>
</g>
<!-- Node5 -->
<g id="Node000005" class="node">
<title>Node5</title>
<g id="a_Node000005"><a xlink:href="classShipTemplateSaver.html#a358776f0395184e3d2426a8d001e6b0d" target="_top" xlink:title="템플릿 로드하여 함선에 적용">
<polygon fill="white" stroke="#666666" points="1030,-114.27 788,-114.27 788,-93.27 1030,-93.27 1030,-114.27"/>
<text text-anchor="middle" x="909" y="-100.67" font-family="Consolas" font-size="12.00">ShipTemplateSaver.LoadTemplate</text>
</a>
</g>
</g>
<!-- Node4&#45;&gt;Node5 -->
<g id="edge5_Node000004_Node000005" class="edge">
<title>Node4&#45;&gt;Node5</title>
<g id="a_edge5_Node000004_Node000005"><a xlink:title=" ">
<path fill="none" stroke="#63b8ff" d="M744.82,-103.77C755.63,-103.77 766.55,-103.77 777.36,-103.77"/>
<polygon fill="#63b8ff" stroke="#63b8ff" points="777.67,-107.27 787.67,-103.77 777.67,-100.27 777.67,-107.27"/>
</a>
</g>
</g>
<!-- Node5&#45;&gt;Node2 -->
<g id="edge6_Node000005_Node000002" class="edge">
<title>Node5&#45;&gt;Node2</title>
<g id="a_edge6_Node000005_Node000002"><a xlink:title=" ">
<path fill="none" stroke="#63b8ff" d="M979.7,-114.31C1009.31,-118.79 1044.74,-124.15 1078.47,-129.25"/>
<polygon fill="#63b8ff" stroke="#63b8ff" points="1078,-132.72 1088.41,-130.75 1079.04,-125.79 1078,-132.72"/>
</a>
</g>
</g>
<!-- Node6 -->
<g id="Node000006" class="node">
<title>Node6</title>
<g id="a_Node000006"><a xlink:href="classShipTemplateSaver.html#a547fe300a63c6d41f67a53004a658eea" target="_top" xlink:title="템플릿 목록 숨기기">
<polygon fill="white" stroke="#666666" points="1338,-112.27 1066,-112.27 1066,-91.27 1338,-91.27 1338,-112.27"/>
<text text-anchor="middle" x="1202" y="-98.67" font-family="Consolas" font-size="12.00">ShipTemplateSaver.HideTemplateList</text>
</a>
</g>
</g>
<!-- Node5&#45;&gt;Node6 -->
<g id="edge7_Node000005_Node000006" class="edge">
<title>Node5&#45;&gt;Node6</title>
<g id="a_edge7_Node000005_Node000006"><a xlink:title=" ">
<path fill="none" stroke="#63b8ff" d="M1030.04,-102.95C1038.48,-102.89 1047.04,-102.83 1055.6,-102.77"/>
<polygon fill="#63b8ff" stroke="#63b8ff" points="1055.66,-106.27 1065.63,-102.7 1055.61,-99.27 1055.66,-106.27"/>
</a>
</g>
</g>
<!-- Node5&#45;&gt;Node7 -->
<g id="edge8_Node000005_Node000007" class="edge">
<title>Node5&#45;&gt;Node7</title>
<g id="a_edge8_Node000005_Node000007"><a xlink:title=" ">
<path fill="none" stroke="#63b8ff" d="M984.56,-93.27C1024.78,-87.6 1074.56,-80.59 1116.24,-74.72"/>
<polygon fill="#63b8ff" stroke="#63b8ff" points="1116.97,-78.15 1126.38,-73.29 1115.99,-71.22 1116.97,-78.15"/>
</a>
</g>
</g>
</g>
</svg>
