<?xml version="1.0" encoding="UTF-8" standalone="no"?>
<!DOCTYPE svg PUBLIC "-//W3C//DTD SVG 1.1//EN"
 "http://www.w3.org/Graphics/SVG/1.1/DTD/svg11.dtd">
<!-- Generated by graphviz version 2.43.0 (0)
 -->
<!-- Title: Ship.GetActualDamage Pages: 1 -->
<svg width="799pt" height="29pt"
 viewBox="0.00 0.00 799.00 29.00" xmlns="http://www.w3.org/2000/svg" xmlns:xlink="http://www.w3.org/1999/xlink">
<g id="graph0" class="graph" transform="scale(1 1) rotate(0) translate(4 25)">
<title>Ship.GetActualDamage</title>
<!-- Node1 -->
<g id="Node000001" class="node">
<title>Node1</title>
<g id="a_Node000001"><a xlink:title="무기 시스템 수정자를 적용한 후의 실제 피해량을 계산합니다.">
<polygon fill="#999999" stroke="#666666" points="167,-21 0,-21 0,0 167,0 167,-21"/>
<text text-anchor="middle" x="83.5" y="-7.4" font-family="Consolas" font-size="12.00">Ship.GetActualDamage</text>
</a>
</g>
</g>
<!-- Node2 -->
<g id="Node000002" class="node">
<title>Node2</title>
<g id="a_Node000002"><a xlink:href="classWeaponSystem.html#a76fad11c0e7c6d587a635081322f4b4f" target="_top" xlink:title="실제 적용될 데미지를 계산합니다. 데미지 보너스를 적용하여 최종 데미지를 산출합니다.">
<polygon fill="white" stroke="#666666" points="430,-21 203,-21 203,0 430,0 430,-21"/>
<text text-anchor="middle" x="316.5" y="-7.4" font-family="Consolas" font-size="12.00">WeaponSystem.GetActualDamage</text>
</a>
</g>
</g>
<!-- Node1&#45;&gt;Node2 -->
<g id="edge1_Node000001_Node000002" class="edge">
<title>Node1&#45;&gt;Node2</title>
<g id="a_edge1_Node000001_Node000002"><a xlink:title=" ">
<path fill="none" stroke="#63b8ff" d="M167.24,-10.5C175.53,-10.5 184.05,-10.5 192.63,-10.5"/>
<polygon fill="#63b8ff" stroke="#63b8ff" points="192.72,-14 202.72,-10.5 192.72,-7 192.72,-14"/>
</a>
</g>
</g>
<!-- Node3 -->
<g id="Node000003" class="node">
<title>Node3</title>
<g id="a_Node000003"><a xlink:href="classShipSystem.html#a0c4c206aa7e875dc6810ea122e46b332" target="_top" xlink:title="현재 함선의 특정 스탯 값을 가져옵니다.">
<polygon fill="white" stroke="#666666" points="648,-21 466,-21 466,0 648,0 648,-21"/>
<text text-anchor="middle" x="557" y="-7.4" font-family="Consolas" font-size="12.00">ShipSystem.GetShipStat</text>
</a>
</g>
</g>
<!-- Node2&#45;&gt;Node3 -->
<g id="edge2_Node000002_Node000003" class="edge">
<title>Node2&#45;&gt;Node3</title>
<g id="a_edge2_Node000002_Node000003"><a xlink:title=" ">
<path fill="none" stroke="#63b8ff" d="M430.12,-10.5C438.6,-10.5 447.14,-10.5 455.54,-10.5"/>
<polygon fill="#63b8ff" stroke="#63b8ff" points="455.72,-14 465.72,-10.5 455.72,-7 455.72,-14"/>
</a>
</g>
</g>
<!-- Node4 -->
<g id="Node000004" class="node">
<title>Node4</title>
<g id="a_Node000004"><a xlink:href="classShip.html#a080a77bc4aa01fd3e5b2561cb5317eca" target="_top" xlink:title="특정 스탯 값을 반환합니다.">
<polygon fill="white" stroke="#666666" points="791,-21 684,-21 684,0 791,0 791,-21"/>
<text text-anchor="middle" x="737.5" y="-7.4" font-family="Consolas" font-size="12.00">Ship.GetStat</text>
</a>
</g>
</g>
<!-- Node3&#45;&gt;Node4 -->
<g id="edge3_Node000003_Node000004" class="edge">
<title>Node3&#45;&gt;Node4</title>
<g id="a_edge3_Node000003_Node000004"><a xlink:title=" ">
<path fill="none" stroke="#63b8ff" d="M648.03,-10.5C656.78,-10.5 665.52,-10.5 673.91,-10.5"/>
<polygon fill="#63b8ff" stroke="#63b8ff" points="673.95,-14 683.95,-10.5 673.95,-7 673.95,-14"/>
</a>
</g>
</g>
</g>
</svg>
