<?xml version="1.0" encoding="UTF-8" standalone="no"?>
<!DOCTYPE svg PUBLIC "-//W3C//DTD SVG 1.1//EN"
 "http://www.w3.org/Graphics/SVG/1.1/DTD/svg11.dtd">
<!-- Generated by graphviz version 2.43.0 (0)
 -->
<!-- Title: GridPlacer.GridToWorldPosition Pages: 1 -->
<svg width="1818pt" height="519pt"
 viewBox="0.00 0.00 1818.00 519.00" xmlns="http://www.w3.org/2000/svg" xmlns:xlink="http://www.w3.org/1999/xlink">
<g id="graph0" class="graph" transform="scale(1 1) rotate(0) translate(4 515)">
<title>GridPlacer.GridToWorldPosition</title>
<!-- Node1 -->
<g id="Node000001" class="node">
<title>Node1</title>
<g id="a_Node000001"><a xlink:title="그리드 좌표를 월드 좌표로 변환합니다.">
<polygon fill="#999999" stroke="#666666" points="1810,-191 1568,-191 1568,-170 1810,-170 1810,-191"/>
<text text-anchor="middle" x="1689" y="-177.4" font-family="Consolas" font-size="12.00">GridPlacer.GridToWorldPosition</text>
</a>
</g>
</g>
<!-- Node2 -->
<g id="Node000002" class="node">
<title>Node2</title>
<g id="a_Node000002"><a xlink:href="classGridPlacer.html#a67a8b7577950ee0bbbed35781a1e984b" target="_top" xlink:title="실제 월드 위치 반환">
<polygon fill="white" stroke="#666666" points="1532,-197.5 1313,-197.5 1313,-163.5 1532,-163.5 1532,-197.5"/>
<text text-anchor="start" x="1321" y="-183.9" font-family="Consolas" font-size="12.00">GridPlacer.GetWorldPosition</text>
<text text-anchor="middle" x="1422.5" y="-170.9" font-family="Consolas" font-size="12.00">FromGrid</text>
</a>
</g>
</g>
<!-- Node1&#45;&gt;Node2 -->
<g id="edge1_Node000001_Node000002" class="edge">
<title>Node1&#45;&gt;Node2</title>
<g id="a_edge1_Node000001_Node000002"><a xlink:title=" ">
<path fill="none" stroke="#63b8ff" d="M1557.71,-180.5C1549.14,-180.5 1540.57,-180.5 1532.13,-180.5"/>
<polygon fill="#63b8ff" stroke="#63b8ff" points="1557.75,-184 1567.75,-180.5 1557.75,-177 1557.75,-184"/>
</a>
</g>
</g>
<!-- Node3 -->
<g id="Node000003" class="node">
<title>Node3</title>
<g id="a_Node000003"><a xlink:href="classGridPlacer.html#a1903444fb2ff22b35e6dab2bfea054de" target="_top" xlink:title="함선 커스터마이징에 사용할 그리드 생성 모든 tile object는 gridTiles 오브젝트의 자식으로 생성됩니다.">
<polygon fill="white" stroke="#666666" points="1258.5,-485 1061.5,-485 1061.5,-464 1258.5,-464 1258.5,-485"/>
<text text-anchor="middle" x="1160" y="-471.4" font-family="Consolas" font-size="12.00">GridPlacer.GenerateTiles</text>
</a>
</g>
</g>
<!-- Node2&#45;&gt;Node3 -->
<g id="edge2_Node000002_Node000003" class="edge">
<title>Node2&#45;&gt;Node3</title>
<g id="a_edge2_Node000002_Node000003"><a xlink:title=" ">
<path fill="none" stroke="#63b8ff" d="M1412.72,-206.99C1394.89,-256.99 1349.81,-365.87 1277,-428.5 1257.04,-445.67 1229.9,-456.9 1206.89,-463.96"/>
<polygon fill="#63b8ff" stroke="#63b8ff" points="1416.04,-208.12 1416.02,-197.53 1409.43,-205.82 1416.04,-208.12"/>
</a>
</g>
</g>
<!-- Node5 -->
<g id="Node000005" class="node">
<title>Node5</title>
<g id="a_Node000005"><a xlink:href="classGridPlacer.html#a256d47f047aeee7f201c3375ab82f131" target="_top" xlink:title="설게도 화면에서 camera의 시작 위치 보정 설계도에 방이 없을 시 그리드 중앙 시작 설계도에 방이 있을 경우 방 들의 중앙 위치에서 시작">
<polygon fill="white" stroke="#666666" points="1262,-419.5 1058,-419.5 1058,-385.5 1262,-385.5 1262,-419.5"/>
<text text-anchor="start" x="1066" y="-405.9" font-family="Consolas" font-size="12.00">GridPlacer.GetCameraStart</text>
<text text-anchor="middle" x="1160" y="-392.9" font-family="Consolas" font-size="12.00">PositionToBP</text>
</a>
</g>
</g>
<!-- Node2&#45;&gt;Node5 -->
<g id="edge4_Node000002_Node000005" class="edge">
<title>Node2&#45;&gt;Node5</title>
<g id="a_edge4_Node000002_Node000005"><a xlink:title=" ">
<path fill="none" stroke="#63b8ff" d="M1393.87,-204.05C1341.13,-248.99 1227.27,-346.03 1181.08,-385.39"/>
<polygon fill="#63b8ff" stroke="#63b8ff" points="1396.15,-206.7 1401.49,-197.55 1391.61,-201.37 1396.15,-206.7"/>
</a>
</g>
</g>
<!-- Node13 -->
<g id="Node000013" class="node">
<title>Node13</title>
<g id="a_Node000013"><a xlink:href="classGridPlacer.html#ab8195ca82a446385a2c7defcf3467d24" target="_top" xlink:title="기존 소유 함선을 이루는 방들의 중심으로 카메라 시작 위치 보정">
<polygon fill="white" stroke="#666666" points="1262,-112.5 1058,-112.5 1058,-78.5 1262,-78.5 1262,-112.5"/>
<text text-anchor="start" x="1066" y="-98.9" font-family="Consolas" font-size="12.00">GridPlacer.GetCameraStart</text>
<text text-anchor="middle" x="1160" y="-85.9" font-family="Consolas" font-size="12.00">PositionToOriginShip</text>
</a>
</g>
</g>
<!-- Node2&#45;&gt;Node13 -->
<g id="edge13_Node000002_Node000013" class="edge">
<title>Node2&#45;&gt;Node13</title>
<g id="a_edge13_Node000002_Node000013"><a xlink:title=" ">
<path fill="none" stroke="#63b8ff" d="M1374.24,-159.4C1346.33,-147.48 1310.1,-132.93 1277,-122.5 1265.56,-118.9 1253.35,-115.54 1241.31,-112.5"/>
<polygon fill="#63b8ff" stroke="#63b8ff" points="1373.18,-162.75 1383.74,-163.49 1375.95,-156.32 1373.18,-162.75"/>
</a>
</g>
</g>
<!-- Node18 -->
<g id="Node000018" class="node">
<title>Node18</title>
<g id="a_Node000018"><a xlink:href="classGridPlacer.html#a11cf51c13e2c8c9261444a8e1687218a" target="_top" xlink:title="실제 방을 해당 위치에 배치함">
<polygon fill="white" stroke="#666666" points="1269.5,-152 1050.5,-152 1050.5,-131 1269.5,-131 1269.5,-152"/>
<text text-anchor="middle" x="1160" y="-138.4" font-family="Consolas" font-size="12.00">GridPlacer.PlacePreviewRoom</text>
</a>
</g>
</g>
<!-- Node2&#45;&gt;Node18 -->
<g id="edge18_Node000002_Node000018" class="edge">
<title>Node2&#45;&gt;Node18</title>
<g id="a_edge18_Node000002_Node000018"><a xlink:title=" ">
<path fill="none" stroke="#63b8ff" d="M1302.82,-162.73C1278.31,-159.06 1253.24,-155.31 1231.14,-152"/>
<polygon fill="#63b8ff" stroke="#63b8ff" points="1302.5,-166.22 1312.91,-164.24 1303.54,-159.3 1302.5,-166.22"/>
</a>
</g>
</g>
<!-- Node26 -->
<g id="Node000026" class="node">
<title>Node26</title>
<g id="a_Node000026"><a xlink:href="classGridPlacer.html#a38cc9ea2fbdde83a506c75b7cad9010c" target="_top" xlink:title="실제 무기를 해당 위치에 배치함">
<polygon fill="white" stroke="#666666" points="1277,-191 1043,-191 1043,-170 1277,-170 1277,-191"/>
<text text-anchor="middle" x="1160" y="-177.4" font-family="Consolas" font-size="12.00">GridPlacer.PlacePreviewWeapon</text>
</a>
</g>
</g>
<!-- Node2&#45;&gt;Node26 -->
<g id="edge29_Node000002_Node000026" class="edge">
<title>Node2&#45;&gt;Node26</title>
<g id="a_edge29_Node000002_Node000026"><a xlink:title=" ">
<path fill="none" stroke="#63b8ff" d="M1302.69,-180.5C1294.28,-180.5 1285.8,-180.5 1277.4,-180.5"/>
<polygon fill="#63b8ff" stroke="#63b8ff" points="1302.91,-184 1312.91,-180.5 1302.91,-177 1302.91,-184"/>
</a>
</g>
</g>
<!-- Node27 -->
<g id="Node000027" class="node">
<title>Node27</title>
<g id="a_Node000027"><a xlink:href="classGridPlacer.html#a2392673a4205e76f004e252a493286b5" target="_top" xlink:title="실제 방을 해당 위치에 배치함">
<polygon fill="white" stroke="#666666" points="1243.5,-285 1076.5,-285 1076.5,-264 1243.5,-264 1243.5,-285"/>
<text text-anchor="middle" x="1160" y="-271.4" font-family="Consolas" font-size="12.00">GridPlacer.PlaceRoom</text>
</a>
</g>
</g>
<!-- Node2&#45;&gt;Node27 -->
<g id="edge32_Node000002_Node000027" class="edge">
<title>Node2&#45;&gt;Node27</title>
<g id="a_edge32_Node000002_Node000027"><a xlink:title=" ">
<path fill="none" stroke="#63b8ff" d="M1376.33,-201.77C1348.15,-214.56 1310.91,-230.61 1277,-242.5 1253.44,-250.76 1226.6,-258.28 1204.68,-263.95"/>
<polygon fill="#63b8ff" stroke="#63b8ff" points="1377.88,-204.9 1385.52,-197.56 1374.97,-198.54 1377.88,-204.9"/>
</a>
</g>
</g>
<!-- Node29 -->
<g id="Node000029" class="node">
<title>Node29</title>
<g id="a_Node000029"><a xlink:href="classGridPlacer.html#a60364dec18d1d693cef75d517e768de6" target="_top" xlink:title="실제 무기를 해당 위치에 배치함">
<polygon fill="white" stroke="#666666" points="1251,-233 1069,-233 1069,-212 1251,-212 1251,-233"/>
<text text-anchor="middle" x="1160" y="-219.4" font-family="Consolas" font-size="12.00">GridPlacer.PlaceWeapon</text>
</a>
</g>
</g>
<!-- Node2&#45;&gt;Node29 -->
<g id="edge36_Node000002_Node000029" class="edge">
<title>Node2&#45;&gt;Node29</title>
<g id="a_edge36_Node000002_Node000029"><a xlink:title=" ">
<path fill="none" stroke="#63b8ff" d="M1305.91,-199.14C1278.62,-203.54 1250.46,-208.08 1226.3,-211.97"/>
<polygon fill="#63b8ff" stroke="#63b8ff" points="1306.6,-202.57 1315.92,-197.52 1305.49,-195.66 1306.6,-202.57"/>
</a>
</g>
</g>
<!-- Node31 -->
<g id="Node000031" class="node">
<title>Node31</title>
<g id="a_Node000031"><a xlink:href="classBlueprintRoom.html#a53cf733e4494a70c823b5c01eaf4855a" target="_top" xlink:title="방 배치와 관련된 모든 작업을 매 프레임 검사">
<polygon fill="white" stroke="#666666" points="1243.5,-60 1076.5,-60 1076.5,-39 1243.5,-39 1243.5,-60"/>
<text text-anchor="middle" x="1160" y="-46.4" font-family="Consolas" font-size="12.00">BlueprintRoom.Update</text>
</a>
</g>
</g>
<!-- Node2&#45;&gt;Node31 -->
<g id="edge40_Node000002_Node000031" class="edge">
<title>Node2&#45;&gt;Node31</title>
<g id="a_edge40_Node000002_Node000031"><a xlink:title=" ">
<path fill="none" stroke="#63b8ff" d="M1397.7,-156.21C1370.87,-130.37 1324.73,-90.41 1277,-69.5 1266.52,-64.91 1255.07,-61.37 1243.58,-58.64"/>
<polygon fill="#63b8ff" stroke="#63b8ff" points="1395.47,-158.92 1405.06,-163.42 1400.36,-153.92 1395.47,-158.92"/>
</a>
</g>
</g>
<!-- Node32 -->
<g id="Node000032" class="node">
<title>Node32</title>
<g id="a_Node000032"><a xlink:href="classBlueprintWeapon.html#a67de5752dd1667838d17b66b66e4775c" target="_top" xlink:title="무기 배치와 관련된 모든 작업을 매 프레임 검사">
<polygon fill="white" stroke="#666666" points="1251,-21 1069,-21 1069,0 1251,0 1251,-21"/>
<text text-anchor="middle" x="1160" y="-7.4" font-family="Consolas" font-size="12.00">BlueprintWeapon.Update</text>
</a>
</g>
</g>
<!-- Node2&#45;&gt;Node32 -->
<g id="edge41_Node000002_Node000032" class="edge">
<title>Node2&#45;&gt;Node32</title>
<g id="a_edge41_Node000002_Node000032"><a xlink:title=" ">
<path fill="none" stroke="#63b8ff" d="M1404.56,-154.59C1380.58,-120.2 1333.31,-60.35 1277,-30.5 1268.96,-26.24 1260.22,-22.86 1251.25,-20.18"/>
<polygon fill="#63b8ff" stroke="#63b8ff" points="1401.89,-156.88 1410.42,-163.16 1407.67,-152.93 1401.89,-156.88"/>
</a>
</g>
</g>
<!-- Node4 -->
<g id="Node000004" class="node">
<title>Node4</title>
<g id="a_Node000004"><a xlink:href="classGridPlacer.html#aadc01e43a91ea0bf558b803759c47a7c" target="_top" xlink:title="게임 시작 시 그리드 타일을 생성합니다.">
<polygon fill="white" stroke="#666666" points="958.5,-511 821.5,-511 821.5,-490 958.5,-490 958.5,-511"/>
<text text-anchor="middle" x="890" y="-497.4" font-family="Consolas" font-size="12.00">GridPlacer.Start</text>
</a>
</g>
</g>
<!-- Node3&#45;&gt;Node4 -->
<g id="edge3_Node000003_Node000004" class="edge">
<title>Node3&#45;&gt;Node4</title>
<g id="a_edge3_Node000003_Node000004"><a xlink:title=" ">
<path fill="none" stroke="#63b8ff" d="M1051.4,-484.94C1020.09,-487.98 986.78,-491.21 958.68,-493.93"/>
<polygon fill="#63b8ff" stroke="#63b8ff" points="1051.87,-488.41 1061.49,-483.96 1051.2,-481.44 1051.87,-488.41"/>
</a>
</g>
</g>
<!-- Node6 -->
<g id="Node000006" class="node">
<title>Node6</title>
<g id="a_Node000006"><a xlink:href="classCustomize__1__Controller.html#a1e3252edf847a5240e2adf246a7c16d0" target="_top" xlink:title="설계도 UI 호출 시 카메라 중앙값 보정">
<polygon fill="white" stroke="#666666" points="1007,-471.5 773,-471.5 773,-437.5 1007,-437.5 1007,-471.5"/>
<text text-anchor="start" x="781" y="-457.9" font-family="Consolas" font-size="12.00">Customize_1_Controller.Center</text>
<text text-anchor="middle" x="890" y="-444.9" font-family="Consolas" font-size="12.00">CameraToBP</text>
</a>
</g>
</g>
<!-- Node5&#45;&gt;Node6 -->
<g id="edge5_Node000005_Node000006" class="edge">
<title>Node5&#45;&gt;Node6</title>
<g id="a_edge5_Node000005_Node000006"><a xlink:title=" ">
<path fill="none" stroke="#63b8ff" d="M1061.41,-421.43C1034.44,-426.67 1005.34,-432.31 978.95,-437.44"/>
<polygon fill="#63b8ff" stroke="#63b8ff" points="1062.1,-424.87 1071.25,-419.53 1060.76,-418 1062.1,-424.87"/>
</a>
</g>
</g>
<!-- Node11 -->
<g id="Node000011" class="node">
<title>Node11</title>
<g id="a_Node000011"><a xlink:href="classCustomizeShipUIHandler.html#a5b4e6936bd278afd768d73911b716bee" target="_top" xlink:title="설계도 UI 호출 시 카메라 중앙값 보정">
<polygon fill="white" stroke="#666666" points="1007,-419.5 773,-419.5 773,-385.5 1007,-385.5 1007,-419.5"/>
<text text-anchor="start" x="781" y="-405.9" font-family="Consolas" font-size="12.00">CustomizeShipUIHandler.Center</text>
<text text-anchor="middle" x="890" y="-392.9" font-family="Consolas" font-size="12.00">CameraToBP</text>
</a>
</g>
</g>
<!-- Node5&#45;&gt;Node11 -->
<g id="edge11_Node000005_Node000011" class="edge">
<title>Node5&#45;&gt;Node11</title>
<g id="a_edge11_Node000005_Node000011"><a xlink:title=" ">
<path fill="none" stroke="#63b8ff" d="M1047.58,-402.5C1034.27,-402.5 1020.67,-402.5 1007.3,-402.5"/>
<polygon fill="#63b8ff" stroke="#63b8ff" points="1047.68,-406 1057.68,-402.5 1047.68,-399 1047.68,-406"/>
</a>
</g>
</g>
<!-- Node7 -->
<g id="Node000007" class="node">
<title>Node7</title>
<g id="a_Node000007"><a xlink:href="classCustomize__1__Controller.html#aa35f4f305d8242a209520c05d6c3a2d9" target="_top" xlink:title="CustomizeShipUI 활성화 시 아래 작업 수행 : 그리드 생성 및 그리드 저장 오브젝트 활성화 작업하던 설계도 방 호출, 배치 카메라 중앙값 세팅">
<polygon fill="white" stroke="#666666" points="467,-406.5 263,-406.5 263,-372.5 467,-372.5 467,-406.5"/>
<text text-anchor="start" x="271" y="-392.9" font-family="Consolas" font-size="12.00">Customize_1_Controller.On</text>
<text text-anchor="middle" x="365" y="-379.9" font-family="Consolas" font-size="12.00">Enable</text>
</a>
</g>
</g>
<!-- Node6&#45;&gt;Node7 -->
<g id="edge6_Node000006_Node000007" class="edge">
<title>Node6&#45;&gt;Node7</title>
<g id="a_edge6_Node000006_Node000007"><a xlink:title=" ">
<path fill="none" stroke="#63b8ff" d="M762.86,-438.82C672.2,-427.56 551.56,-412.56 467.18,-402.08"/>
<polygon fill="#63b8ff" stroke="#63b8ff" points="762.57,-442.31 772.93,-440.07 763.44,-435.37 762.57,-442.31"/>
</a>
</g>
</g>
<!-- Node8 -->
<g id="Node000008" class="node">
<title>Node8</title>
<g id="a_Node000008"><a xlink:href="classCustomize__1__Controller.html#a765b5d6af2c3ccd94e113c0d3bc1a6fa" target="_top" xlink:title="클릭한 슬롯 도안 호출">
<polygon fill="white" stroke="#666666" points="737,-374.5 503,-374.5 503,-340.5 737,-340.5 737,-374.5"/>
<text text-anchor="start" x="511" y="-360.9" font-family="Consolas" font-size="12.00">Customize_1_Controller.Reload</text>
<text text-anchor="middle" x="620" y="-347.9" font-family="Consolas" font-size="12.00">BlueprintFromSlot</text>
</a>
</g>
</g>
<!-- Node6&#45;&gt;Node8 -->
<g id="edge7_Node000006_Node000008" class="edge">
<title>Node6&#45;&gt;Node8</title>
<g id="a_edge7_Node000006_Node000008"><a xlink:title=" ">
<path fill="none" stroke="#63b8ff" d="M793.12,-434.74C786.26,-432.8 779.5,-430.72 773,-428.5 750.05,-420.67 692.66,-392.99 655.33,-374.6"/>
<polygon fill="#63b8ff" stroke="#63b8ff" points="792.64,-438.23 803.21,-437.48 794.48,-431.48 792.64,-438.23"/>
</a>
</g>
</g>
<!-- Node8&#45;&gt;Node7 -->
<g id="edge10_Node000008_Node000007" class="edge">
<title>Node8&#45;&gt;Node7</title>
<g id="a_edge10_Node000008_Node000007"><a xlink:title=" ">
<path fill="none" stroke="#63b8ff" d="M492.76,-373.47C484.15,-374.56 475.53,-375.65 467.07,-376.72"/>
<polygon fill="#63b8ff" stroke="#63b8ff" points="493.38,-376.92 502.87,-372.19 492.51,-369.97 493.38,-376.92"/>
</a>
</g>
</g>
<!-- Node9 -->
<g id="Node000009" class="node">
<title>Node9</title>
<g id="a_Node000009"><a xlink:href="classCustomize__0__Controller.html#aa717dd688aeccaaa6ea9db66d5b85cda" target="_top" xlink:title="도안 편집">
<polygon fill="white" stroke="#666666" points="467,-341.5 263,-341.5 263,-307.5 467,-307.5 467,-341.5"/>
<text text-anchor="start" x="271" y="-327.9" font-family="Consolas" font-size="12.00">Customize_0_Controller.On</text>
<text text-anchor="middle" x="365" y="-314.9" font-family="Consolas" font-size="12.00">ClickEdit</text>
</a>
</g>
</g>
<!-- Node8&#45;&gt;Node9 -->
<g id="edge8_Node000008_Node000009" class="edge">
<title>Node8&#45;&gt;Node9</title>
<g id="a_edge8_Node000008_Node000009"><a xlink:title=" ">
<path fill="none" stroke="#63b8ff" d="M492.76,-341.03C484.15,-339.91 475.53,-338.79 467.07,-337.68"/>
<polygon fill="#63b8ff" stroke="#63b8ff" points="492.5,-344.53 502.87,-342.35 493.4,-337.59 492.5,-344.53"/>
</a>
</g>
</g>
<!-- Node10 -->
<g id="Node000010" class="node">
<title>Node10</title>
<g id="a_Node000010"><a xlink:href="classCustomize__0__Controller.html#a9a5c64825556b732c13268f61d9893db" target="_top" xlink:title="button 클릭 함수 연결">
<polygon fill="white" stroke="#666666" points="227,-264 0,-264 0,-243 227,-243 227,-264"/>
<text text-anchor="middle" x="113.5" y="-250.4" font-family="Consolas" font-size="12.00">Customize_0_Controller.Start</text>
</a>
</g>
</g>
<!-- Node9&#45;&gt;Node10 -->
<g id="edge9_Node000009_Node000010" class="edge">
<title>Node9&#45;&gt;Node10</title>
<g id="a_edge9_Node000009_Node000010"><a xlink:title=" ">
<path fill="none" stroke="#63b8ff" d="M294.57,-304.74C248.31,-291.58 189.31,-274.79 151.71,-264.09"/>
<polygon fill="#63b8ff" stroke="#63b8ff" points="293.66,-308.12 304.24,-307.49 295.58,-301.39 293.66,-308.12"/>
</a>
</g>
</g>
<!-- Node12 -->
<g id="Node000012" class="node">
<title>Node12</title>
<g id="a_Node000012"><a xlink:href="classCustomizeShipUIHandler.html#a8009ced414a77455de66da8173e46388" target="_top" xlink:title="CustomizeShipUI 활성화 시 아래 작업 수행 : 그리드 생성 및 그리드 저장 오브젝트 활성화 작업하던 설계도 방 호출, 배치 카메라 중앙값 세팅">
<polygon fill="white" stroke="#666666" points="722,-291.5 518,-291.5 518,-257.5 722,-257.5 722,-291.5"/>
<text text-anchor="start" x="526" y="-277.9" font-family="Consolas" font-size="12.00">CustomizeShipUIHandler.On</text>
<text text-anchor="middle" x="620" y="-264.9" font-family="Consolas" font-size="12.00">Enable</text>
</a>
</g>
</g>
<!-- Node11&#45;&gt;Node12 -->
<g id="edge12_Node000011_Node000012" class="edge">
<title>Node11&#45;&gt;Node12</title>
<g id="a_edge12_Node000011_Node000012"><a xlink:title=" ">
<path fill="none" stroke="#63b8ff" d="M844.02,-381.01C791.29,-355.83 704.98,-314.61 656.65,-291.53"/>
<polygon fill="#63b8ff" stroke="#63b8ff" points="842.6,-384.22 853.13,-385.37 845.62,-377.9 842.6,-384.22"/>
</a>
</g>
</g>
<!-- Node14 -->
<g id="Node000014" class="node">
<title>Node14</title>
<g id="a_Node000014"><a xlink:href="classCustomize__1__Controller.html#aeefc317aca4eeac648711932c7eebd11" target="_top" xlink:title="카메라 기본 세팅으로 복구">
<polygon fill="white" stroke="#666666" points="1003.5,-43.5 776.5,-43.5 776.5,-9.5 1003.5,-9.5 1003.5,-43.5"/>
<text text-anchor="start" x="784.5" y="-29.9" font-family="Consolas" font-size="12.00">Customize_1_Controller.Reset</text>
<text text-anchor="middle" x="890" y="-16.9" font-family="Consolas" font-size="12.00">CameraToOriginShip</text>
</a>
</g>
</g>
<!-- Node13&#45;&gt;Node14 -->
<g id="edge14_Node000013_Node000014" class="edge">
<title>Node13&#45;&gt;Node14</title>
<g id="a_edge14_Node000013_Node000014"><a xlink:title=" ">
<path fill="none" stroke="#63b8ff" d="M1062.9,-75.71C1056.12,-73.78 1049.43,-71.71 1043,-69.5 1026.27,-63.75 1023.73,-58.25 1007,-52.5 997.44,-49.21 987.28,-46.23 977.12,-43.56"/>
<polygon fill="#63b8ff" stroke="#63b8ff" points="1062.31,-79.18 1072.88,-78.44 1064.16,-72.42 1062.31,-79.18"/>
</a>
</g>
</g>
<!-- Node16 -->
<g id="Node000016" class="node">
<title>Node16</title>
<g id="a_Node000016"><a xlink:href="classCustomizeShipUIHandler.html#a879fbb6d240f6283df43ef8bb2f7378b" target="_top" xlink:title="카메라 기본 세팅으로 복구">
<polygon fill="white" stroke="#666666" points="1003.5,-95.5 776.5,-95.5 776.5,-61.5 1003.5,-61.5 1003.5,-95.5"/>
<text text-anchor="start" x="784.5" y="-81.9" font-family="Consolas" font-size="12.00">CustomizeShipUIHandler.Reset</text>
<text text-anchor="middle" x="890" y="-68.9" font-family="Consolas" font-size="12.00">CameraToOriginShip</text>
</a>
</g>
</g>
<!-- Node13&#45;&gt;Node16 -->
<g id="edge16_Node000013_Node000016" class="edge">
<title>Node13&#45;&gt;Node16</title>
<g id="a_edge16_Node000013_Node000016"><a xlink:title=" ">
<path fill="none" stroke="#63b8ff" d="M1047.68,-88.44C1033.14,-87.52 1018.24,-86.57 1003.68,-85.65"/>
<polygon fill="#63b8ff" stroke="#63b8ff" points="1047.48,-91.93 1057.68,-89.07 1047.92,-84.95 1047.48,-91.93"/>
</a>
</g>
</g>
<!-- Node15 -->
<g id="Node000015" class="node">
<title>Node15</title>
<g id="a_Node000015"><a xlink:href="classCustomize__1__Controller.html#ad205a3e7f14530fc11520997da42a8eb" target="_top" xlink:title="CustomizeShipUI 비활성화 시 아래 작업 수행 : 그리드 저장 오브젝트 비활성화 설계도 설치한 방 데이터 모두 저장 후 제거">
<polygon fill="white" stroke="#666666" points="722,-43.5 518,-43.5 518,-9.5 722,-9.5 722,-43.5"/>
<text text-anchor="start" x="526" y="-29.9" font-family="Consolas" font-size="12.00">Customize_1_Controller.On</text>
<text text-anchor="middle" x="620" y="-16.9" font-family="Consolas" font-size="12.00">Disable</text>
</a>
</g>
</g>
<!-- Node14&#45;&gt;Node15 -->
<g id="edge15_Node000014_Node000015" class="edge">
<title>Node14&#45;&gt;Node15</title>
<g id="a_edge15_Node000014_Node000015"><a xlink:title=" ">
<path fill="none" stroke="#63b8ff" d="M766.02,-26.5C751.37,-26.5 736.54,-26.5 722.25,-26.5"/>
<polygon fill="#63b8ff" stroke="#63b8ff" points="766.12,-30 776.12,-26.5 766.12,-23 766.12,-30"/>
</a>
</g>
</g>
<!-- Node17 -->
<g id="Node000017" class="node">
<title>Node17</title>
<g id="a_Node000017"><a xlink:href="classCustomizeShipUIHandler.html#a8e6c0d938789d432de979473f3b43ced" target="_top" xlink:title="CustomizeShipUI 비활성화 시 아래 작업 수행 : 그리드 저장 오브젝트 비활성화 설계도 설치한 방 데이터 모두 저장 후 제거">
<polygon fill="white" stroke="#666666" points="722,-95.5 518,-95.5 518,-61.5 722,-61.5 722,-95.5"/>
<text text-anchor="start" x="526" y="-81.9" font-family="Consolas" font-size="12.00">CustomizeShipUIHandler.On</text>
<text text-anchor="middle" x="620" y="-68.9" font-family="Consolas" font-size="12.00">Disable</text>
</a>
</g>
</g>
<!-- Node16&#45;&gt;Node17 -->
<g id="edge17_Node000016_Node000017" class="edge">
<title>Node16&#45;&gt;Node17</title>
<g id="a_edge17_Node000016_Node000017"><a xlink:title=" ">
<path fill="none" stroke="#63b8ff" d="M766.02,-78.5C751.37,-78.5 736.54,-78.5 722.25,-78.5"/>
<polygon fill="#63b8ff" stroke="#63b8ff" points="766.12,-82 776.12,-78.5 766.12,-75 766.12,-82"/>
</a>
</g>
</g>
<!-- Node19 -->
<g id="Node000019" class="node">
<title>Node19</title>
<g id="a_Node000019"><a xlink:href="classCustomize__2__Controller.html#af70f75f637519d654732d526e3bcdcdd" target="_top" xlink:title="BlueprintSaveData 기반으로 blueprintShip 생성">
<polygon fill="white" stroke="#666666" points="999.5,-147.5 780.5,-147.5 780.5,-113.5 999.5,-113.5 999.5,-147.5"/>
<text text-anchor="start" x="788.5" y="-133.9" font-family="Consolas" font-size="12.00">Customize_2_Controller.Make</text>
<text text-anchor="middle" x="890" y="-120.9" font-family="Consolas" font-size="12.00">BPShipWithSaveData</text>
</a>
</g>
</g>
<!-- Node18&#45;&gt;Node19 -->
<g id="edge19_Node000018_Node000019" class="edge">
<title>Node18&#45;&gt;Node19</title>
<g id="a_edge19_Node000018_Node000019"><a xlink:title=" ">
<path fill="none" stroke="#63b8ff" d="M1040.15,-136.62C1026.72,-136.07 1013.07,-135.51 999.77,-134.96"/>
<polygon fill="#63b8ff" stroke="#63b8ff" points="1040.25,-140.13 1050.38,-137.04 1040.53,-133.13 1040.25,-140.13"/>
</a>
</g>
</g>
<!-- Node25 -->
<g id="Node000025" class="node">
<title>Node25</title>
<g id="a_Node000025"><a xlink:href="classBPPreviewArea.html#a6b5d2cb5df9097c71feb974ab80c5eb3" target="_top" xlink:title="도안 preview Area에 띄우기 (미리보기)">
<polygon fill="white" stroke="#666666" points="999.5,-187 780.5,-187 780.5,-166 999.5,-166 999.5,-187"/>
<text text-anchor="middle" x="890" y="-173.4" font-family="Consolas" font-size="12.00">BPPreviewArea.UpdateAndShow</text>
</a>
</g>
</g>
<!-- Node18&#45;&gt;Node25 -->
<g id="edge26_Node000018_Node000025" class="edge">
<title>Node18&#45;&gt;Node25</title>
<g id="a_edge26_Node000018_Node000025"><a xlink:title=" ">
<path fill="none" stroke="#63b8ff" d="M1068.55,-153.31C1037.22,-157.4 1002.32,-161.96 971.81,-165.95"/>
<polygon fill="#63b8ff" stroke="#63b8ff" points="1069.13,-156.77 1078.59,-152 1068.22,-149.83 1069.13,-156.77"/>
</a>
</g>
</g>
<!-- Node20 -->
<g id="Node000020" class="node">
<title>Node20</title>
<g id="a_Node000020"><a xlink:href="classCustomize__0__Controller.html#a574259bae338d10309582b4ec5c4120f" target="_top" xlink:title="슬롯 버튼 클릭">
<polygon fill="white" stroke="#666666" points="722,-199.5 518,-199.5 518,-165.5 722,-165.5 722,-199.5"/>
<text text-anchor="start" x="526" y="-185.9" font-family="Consolas" font-size="12.00">Customize_0_Controller.On</text>
<text text-anchor="middle" x="620" y="-172.9" font-family="Consolas" font-size="12.00">ClickSlot</text>
</a>
</g>
</g>
<!-- Node19&#45;&gt;Node20 -->
<g id="edge20_Node000019_Node000020" class="edge">
<title>Node19&#45;&gt;Node20</title>
<g id="a_edge20_Node000019_Node000020"><a xlink:title=" ">
<path fill="none" stroke="#63b8ff" d="M791.41,-149.43C764.44,-154.67 735.34,-160.31 708.95,-165.44"/>
<polygon fill="#63b8ff" stroke="#63b8ff" points="792.1,-152.87 801.25,-147.53 790.76,-146 792.1,-152.87"/>
</a>
</g>
</g>
<!-- Node24 -->
<g id="Node000024" class="node">
<title>Node24</title>
<g id="a_Node000024"><a xlink:href="classCustomize__2__Controller.html#ad190ea208317fc26a5c88d844be8922a" target="_top" xlink:title="현재 설계도의 가격 지속 갱신 설계도로 함선 교체 가능 조건">
<polygon fill="white" stroke="#666666" points="722,-147.5 518,-147.5 518,-113.5 722,-113.5 722,-147.5"/>
<text text-anchor="start" x="526" y="-133.9" font-family="Consolas" font-size="12.00">Customize_2_Controller.On</text>
<text text-anchor="middle" x="620" y="-120.9" font-family="Consolas" font-size="12.00">Enable</text>
</a>
</g>
</g>
<!-- Node19&#45;&gt;Node24 -->
<g id="edge25_Node000019_Node000024" class="edge">
<title>Node19&#45;&gt;Node24</title>
<g id="a_edge25_Node000019_Node000024"><a xlink:title=" ">
<path fill="none" stroke="#63b8ff" d="M770,-130.5C754.12,-130.5 737.95,-130.5 722.41,-130.5"/>
<polygon fill="#63b8ff" stroke="#63b8ff" points="770.38,-134 780.38,-130.5 770.38,-127 770.38,-134"/>
</a>
</g>
</g>
<!-- Node20&#45;&gt;Node10 -->
<g id="edge24_Node000020_Node000010" class="edge">
<title>Node20&#45;&gt;Node10</title>
<g id="a_edge24_Node000020_Node000010"><a xlink:title=" ">
<path fill="none" stroke="#63b8ff" d="M507.67,-180.39C436.97,-181.03 343.88,-185.52 263,-201.5 217.31,-210.53 166.61,-230.6 137.84,-242.99"/>
<polygon fill="#63b8ff" stroke="#63b8ff" points="507.96,-183.89 517.93,-180.32 507.91,-176.89 507.96,-183.89"/>
</a>
</g>
</g>
<!-- Node21 -->
<g id="Node000021" class="node">
<title>Node21</title>
<g id="a_Node000021"><a xlink:href="classCustomize__1__Controller.html#a6efbdf30cb4fc11fa3f6b1bfbf6eb061" target="_top" xlink:title="customize_0_panel로 복귀">
<polygon fill="white" stroke="#666666" points="467,-154.5 263,-154.5 263,-120.5 467,-120.5 467,-154.5"/>
<text text-anchor="start" x="271" y="-140.9" font-family="Consolas" font-size="12.00">Customize_1_Controller.On</text>
<text text-anchor="middle" x="365" y="-127.9" font-family="Consolas" font-size="12.00">ClickBack</text>
</a>
</g>
</g>
<!-- Node20&#45;&gt;Node21 -->
<g id="edge21_Node000020_Node000021" class="edge">
<title>Node20&#45;&gt;Node21</title>
<g id="a_edge21_Node000020_Node000021"><a xlink:title=" ">
<path fill="none" stroke="#63b8ff" d="M513.35,-163.71C496.25,-160.67 478.63,-157.53 461.78,-154.54"/>
<polygon fill="#63b8ff" stroke="#63b8ff" points="512.89,-167.18 523.35,-165.49 514.12,-160.29 512.89,-167.18"/>
</a>
</g>
</g>
<!-- Node23 -->
<g id="Node000023" class="node">
<title>Node23</title>
<g id="a_Node000023"><a xlink:href="classCustomize__2__Controller.html#a4f017401dbc31501a4109324ccec2bd7" target="_top" xlink:title="&#39;함선 제작&#39; 버튼 클릭 시 호출. 조건 만족 시 기존 함선을 설계도의 함선으로 교체합니다. 이후 방, 문의 연결 유효성 검사 수행 후 만족 여부에 따라 실제 함선으로 교체,...">
<polygon fill="white" stroke="#666666" points="467,-244.5 263,-244.5 263,-210.5 467,-210.5 467,-244.5"/>
<text text-anchor="start" x="271" y="-230.9" font-family="Consolas" font-size="12.00">Customize_2_Controller.On</text>
<text text-anchor="middle" x="365" y="-217.9" font-family="Consolas" font-size="12.00">ClickBuy</text>
</a>
</g>
</g>
<!-- Node20&#45;&gt;Node23 -->
<g id="edge23_Node000020_Node000023" class="edge">
<title>Node20&#45;&gt;Node23</title>
<g id="a_edge23_Node000020_Node000023"><a xlink:title=" ">
<path fill="none" stroke="#63b8ff" d="M513.35,-201.29C496.25,-204.33 478.63,-207.47 461.78,-210.46"/>
<polygon fill="#63b8ff" stroke="#63b8ff" points="514.12,-204.71 523.35,-199.51 512.89,-197.82 514.12,-204.71"/>
</a>
</g>
</g>
<!-- Node22 -->
<g id="Node000022" class="node">
<title>Node22</title>
<g id="a_Node000022"><a xlink:href="classCustomize__1__Controller.html#aec55e07635dd1dfd43176946b3dd6f2b" target="_top" xlink:title="button 클릭 함수 연결">
<polygon fill="white" stroke="#666666" points="227,-148 0,-148 0,-127 227,-127 227,-148"/>
<text text-anchor="middle" x="113.5" y="-134.4" font-family="Consolas" font-size="12.00">Customize_1_Controller.Start</text>
</a>
</g>
</g>
<!-- Node21&#45;&gt;Node22 -->
<g id="edge22_Node000021_Node000022" class="edge">
<title>Node21&#45;&gt;Node22</title>
<g id="a_edge22_Node000021_Node000022"><a xlink:title=" ">
<path fill="none" stroke="#63b8ff" d="M252.63,-137.5C244.18,-137.5 235.65,-137.5 227.19,-137.5"/>
<polygon fill="#63b8ff" stroke="#63b8ff" points="252.88,-141 262.88,-137.5 252.88,-134 252.88,-141"/>
</a>
</g>
</g>
<!-- Node25&#45;&gt;Node20 -->
<g id="edge28_Node000025_Node000020" class="edge">
<title>Node25&#45;&gt;Node20</title>
<g id="a_edge28_Node000025_Node000020"><a xlink:title=" ">
<path fill="none" stroke="#63b8ff" d="M770,-179.16C754.12,-179.52 737.95,-179.88 722.41,-180.23"/>
<polygon fill="#63b8ff" stroke="#63b8ff" points="770.46,-182.65 780.38,-178.93 770.3,-175.66 770.46,-182.65"/>
</a>
</g>
</g>
<!-- Node25&#45;&gt;Node23 -->
<g id="edge27_Node000025_Node000023" class="edge">
<title>Node25&#45;&gt;Node23</title>
<g id="a_edge27_Node000025_Node000023"><a xlink:title=" ">
<path fill="none" stroke="#63b8ff" d="M807.95,-188.86C796.16,-191.13 784.23,-193.68 773,-196.5 756.64,-200.61 753.57,-205.37 737,-208.5 646.85,-225.51 542.33,-229.48 467.25,-229.65"/>
<polygon fill="#63b8ff" stroke="#63b8ff" points="808.6,-192.3 817.79,-187.03 807.32,-185.42 808.6,-192.3"/>
</a>
</g>
</g>
<!-- Node26&#45;&gt;Node19 -->
<g id="edge30_Node000026_Node000019" class="edge">
<title>Node26&#45;&gt;Node19</title>
<g id="a_edge30_Node000026_Node000019"><a xlink:title=" ">
<path fill="none" stroke="#63b8ff" d="M1082.15,-168.34C1069.07,-166.15 1055.64,-163.82 1043,-161.5 1019.82,-157.24 994.73,-152.27 971.74,-147.57"/>
<polygon fill="#63b8ff" stroke="#63b8ff" points="1081.62,-171.8 1092.06,-169.99 1082.77,-164.9 1081.62,-171.8"/>
</a>
</g>
</g>
<!-- Node26&#45;&gt;Node25 -->
<g id="edge31_Node000026_Node000025" class="edge">
<title>Node26&#45;&gt;Node25</title>
<g id="a_edge31_Node000026_Node000025"><a xlink:title=" ">
<path fill="none" stroke="#63b8ff" d="M1032.55,-178.61C1021.56,-178.45 1010.5,-178.28 999.67,-178.12"/>
<polygon fill="#63b8ff" stroke="#63b8ff" points="1032.57,-182.11 1042.62,-178.76 1032.67,-175.11 1032.57,-182.11"/>
</a>
</g>
</g>
<!-- Node27&#45;&gt;Node8 -->
<g id="edge35_Node000027_Node000008" class="edge">
<title>Node27&#45;&gt;Node8</title>
<g id="a_edge35_Node000027_Node000008"><a xlink:title=" ">
<path fill="none" stroke="#63b8ff" d="M1128.9,-289.38C1098.84,-303.47 1050.91,-323.86 1007,-333.5 917.81,-353.09 814.45,-358.64 737.14,-359.53"/>
<polygon fill="#63b8ff" stroke="#63b8ff" points="1130.48,-292.51 1138,-285.05 1127.47,-286.19 1130.48,-292.51"/>
</a>
</g>
</g>
<!-- Node28 -->
<g id="Node000028" class="node">
<title>Node28</title>
<g id="a_Node000028"><a xlink:href="classCustomizeShipUIHandler.html#a0e012f81eef06ab83ffc84e3b5bee0e1" target="_top" xlink:title="기존에 작업중이던 설계도의 모든 방 데이터 호출 및 배치">
<polygon fill="white" stroke="#666666" points="996,-291.5 784,-291.5 784,-257.5 996,-257.5 996,-291.5"/>
<text text-anchor="start" x="792" y="-277.9" font-family="Consolas" font-size="12.00">CustomizeShipUIHandler.Get</text>
<text text-anchor="middle" x="890" y="-264.9" font-family="Consolas" font-size="12.00">SavedBPRooms</text>
</a>
</g>
</g>
<!-- Node27&#45;&gt;Node28 -->
<g id="edge33_Node000027_Node000028" class="edge">
<title>Node27&#45;&gt;Node28</title>
<g id="a_edge33_Node000027_Node000028"><a xlink:title=" ">
<path fill="none" stroke="#63b8ff" d="M1066.15,-274.5C1043.55,-274.5 1019.21,-274.5 996.08,-274.5"/>
<polygon fill="#63b8ff" stroke="#63b8ff" points="1066.4,-278 1076.4,-274.5 1066.4,-271 1066.4,-278"/>
</a>
</g>
</g>
<!-- Node28&#45;&gt;Node12 -->
<g id="edge34_Node000028_Node000012" class="edge">
<title>Node28&#45;&gt;Node12</title>
<g id="a_edge34_Node000028_Node000012"><a xlink:title=" ">
<path fill="none" stroke="#63b8ff" d="M773.82,-274.5C756.7,-274.5 739.15,-274.5 722.34,-274.5"/>
<polygon fill="#63b8ff" stroke="#63b8ff" points="773.85,-278 783.85,-274.5 773.85,-271 773.85,-278"/>
</a>
</g>
</g>
<!-- Node29&#45;&gt;Node8 -->
<g id="edge39_Node000029_Node000008" class="edge">
<title>Node29&#45;&gt;Node8</title>
<g id="a_edge39_Node000029_Node000008"><a xlink:title=" ">
<path fill="none" stroke="#63b8ff" d="M1085.69,-235.93C1070.8,-240.65 1055.8,-246.99 1043,-255.5 1021.67,-269.68 1029.25,-287.82 1007,-300.5 915.75,-352.51 876.88,-317.98 773,-333.5 758.2,-335.71 742.61,-338.1 727.27,-340.49"/>
<polygon fill="#63b8ff" stroke="#63b8ff" points="1086.83,-239.24 1095.43,-233.06 1084.84,-232.53 1086.83,-239.24"/>
</a>
</g>
</g>
<!-- Node30 -->
<g id="Node000030" class="node">
<title>Node30</title>
<g id="a_Node000030"><a xlink:href="classCustomizeShipUIHandler.html#adfa80c7837c984b5a7e8b9af9a1d181a" target="_top" xlink:title="기존에 작업 중이던 설계도의 모든 함선 무기 데이터 호출 및 배치">
<polygon fill="white" stroke="#666666" points="996,-239.5 784,-239.5 784,-205.5 996,-205.5 996,-239.5"/>
<text text-anchor="start" x="792" y="-225.9" font-family="Consolas" font-size="12.00">CustomizeShipUIHandler.Get</text>
<text text-anchor="middle" x="890" y="-212.9" font-family="Consolas" font-size="12.00">SavedWeaponRooms</text>
</a>
</g>
</g>
<!-- Node29&#45;&gt;Node30 -->
<g id="edge37_Node000029_Node000030" class="edge">
<title>Node29&#45;&gt;Node30</title>
<g id="a_edge37_Node000029_Node000030"><a xlink:title=" ">
<path fill="none" stroke="#63b8ff" d="M1058.45,-222.5C1038.13,-222.5 1016.71,-222.5 996.24,-222.5"/>
<polygon fill="#63b8ff" stroke="#63b8ff" points="1058.64,-226 1068.64,-222.5 1058.64,-219 1058.64,-226"/>
</a>
</g>
</g>
<!-- Node30&#45;&gt;Node12 -->
<g id="edge38_Node000030_Node000012" class="edge">
<title>Node30&#45;&gt;Node12</title>
<g id="a_edge38_Node000030_Node000012"><a xlink:title=" ">
<path fill="none" stroke="#63b8ff" d="M791.41,-241.43C764.44,-246.67 735.34,-252.31 708.95,-257.44"/>
<polygon fill="#63b8ff" stroke="#63b8ff" points="792.1,-244.87 801.25,-239.53 790.76,-238 792.1,-244.87"/>
</a>
</g>
</g>
</g>
</svg>
