<?xml version="1.0" encoding="UTF-8" standalone="no"?>
<!DOCTYPE svg PUBLIC "-//W3C//DTD SVG 1.1//EN"
 "http://www.w3.org/Graphics/SVG/1.1/DTD/svg11.dtd">
<!-- Generated by graphviz version 2.43.0 (0)
 -->
<!-- Title: ES3ReferenceMgr Pages: 1 -->
<!--zoomable 1178 -->

<svg id="main" version="1.1" xmlns="http://www.w3.org/2000/svg" xmlns:xlink="http://www.w3.org/1999/xlink" xml:space="preserve" onload="init(evt)">
<style type="text/css"><![CDATA[
.node, .edge {opacity: 0.7;}
.node.selected, .edge.selected {opacity: 1;}
.edge:hover path { stroke: red; }
.edge:hover polygon { stroke: red; fill: red; }
]]></style>

<defs>
  <circle id="rim" cx="0" cy="0" r="7"/>
  <circle id="rim2" cx="0" cy="0" r="3.5"/>
  <g id="zoomPlus">
    <use xlink:href="#rim" fill="#404040"><set attributeName="fill" to="#808080" begin="zoomplus.mouseover" end="zoomplus.mouseout"/></use>
    <path d="M-4,0h8M0,-4v8" fill="none" stroke="white" stroke-width="1.5" pointer-events="none"/>
  </g>
  <g id="zoomMin">
    <use xlink:href="#rim" fill="#404040"><set attributeName="fill" to="#808080" begin="zoomminus.mouseover" end="zoomminus.mouseout"/></use>
    <path d="M-4,0h8" fill="none" stroke="white" stroke-width="1.5" pointer-events="none"/>
  </g>
  <g id="arrowUp" transform="translate(30 24)">
    <use xlink:href="#rim"/>
    <path pointer-events="none" fill="none" stroke="white" stroke-width="1.5" d="M0,-3.0v7 M-2.5,-0.5L0,-3.0L2.5,-0.5"/>
  </g>
  <g id="arrowRight" transform="rotate(90) translate(36 -43)">
    <use xlink:href="#rim"/>
    <path pointer-events="none" fill="none" stroke="white" stroke-width="1.5" d="M0,-3.0v7 M-2.5,-0.5L0,-3.0L2.5,-0.5"/>
  </g>
  <g id="arrowDown" transform="rotate(180) translate(-30 -48)">
    <use xlink:href="#rim"/>
    <path pointer-events="none" fill="none" stroke="white" stroke-width="1.5" d="M0,-3.0v7 M-2.5,-0.5L0,-3.0L2.5,-0.5"/>
  </g>
  <g id="arrowLeft" transform="rotate(270) translate(-36 17)">
    <use xlink:href="#rim"/>
    <path pointer-events="none" fill="none" stroke="white" stroke-width="1.5" d="M0,-3.0v7 M-2.5,-0.5L0,-3.0L2.5,-0.5"/>
  </g>
  <g id="resetDef">
    <use xlink:href="#rim2" fill="#404040"><set attributeName="fill" to="#808080" begin="reset.mouseover" end="reset.mouseout"/></use>
  </g>
</defs>
<script type="application/ecmascript">
var viewWidth = 359;
var viewHeight = 1178;
var sectionId = 'dynsection-0';
</script>
<script type="application/ecmascript" xlink:href="svg.min.js"/>
<svg id="graph" class="graph">
<g id="viewport">
<title>ES3ReferenceMgr</title>
<!-- Node1 -->
<g id="Node000001" class="node">
<title>Node1</title>
<g id="a_Node000001"><a xlink:title=" ">
<polygon fill="#999999" stroke="transparent" points="237,-55 114,-55 114,0 237,0 237,-55"/>
<text text-anchor="start" x="119.5" y="-40.9" font-family="Consolas" font-size="12.00">ES3ReferenceMgr</text>
<text text-anchor="start" x="172" y="-23.9" font-family="Consolas" font-size="12.00"> </text>
<text text-anchor="start" x="172" y="-6.9" font-family="Consolas" font-size="12.00"> </text>
<polygon fill="#666666" stroke="#666666" points="114.5,-35.5 114.5,-35.5 237.5,-35.5 237.5,-35.5 114.5,-35.5"/>
<polygon fill="#666666" stroke="#666666" points="114.5,-18.5 114.5,-18.5 237.5,-18.5 237.5,-18.5 114.5,-18.5"/>
<polygon fill="none" stroke="#666666" points="114,0 114,-55 237,-55 237,0 114,0"/>
</a>
</g>
</g>
<!-- Node2 -->
<g id="Node000002" class="node">
<title>Node2</title>
<g id="a_Node000002"><a xlink:href="classES3Internal_1_1ES3ReferenceMgrBase.html" target="_top" xlink:title=" ">
<polygon fill="white" stroke="transparent" points="351,-1079 0,-1079 0,-91 351,-91 351,-1079"/>
<text text-anchor="start" x="104.5" y="-1065.4" font-family="Consolas" font-size="12.00">ES3ReferenceMgrBase</text>
<text text-anchor="start" x="4.5" y="-1048.4" font-family="Consolas" font-size="12.00">+</text>
<text text-anchor="start" x="16.5" y="-1048.4" font-family="Consolas" font-size="12.00">List&lt; UnityEngine.Object</text>
<text text-anchor="start" x="16.5" y="-1035.4" font-family="Consolas" font-size="12.00"> &gt; excludeObjects</text>
<text text-anchor="start" x="4.5" y="-1018.4" font-family="Consolas" font-size="12.00">+</text>
<text text-anchor="start" x="16.5" y="-1018.4" font-family="Consolas" font-size="12.00">bool openPrefabs</text>
<text text-anchor="start" x="4.5" y="-1001.4" font-family="Consolas" font-size="12.00">+</text>
<text text-anchor="start" x="16.5" y="-1001.4" font-family="Consolas" font-size="12.00">List&lt; ES3Prefab &gt; prefabs</text>
<text text-anchor="start" x="4.5" y="-984.4" font-family="Consolas" font-size="12.00">+</text>
<text text-anchor="start" x="16.5" y="-984.4" font-family="Consolas" font-size="12.00">ES3IdRefDictionary</text>
<text text-anchor="start" x="16.5" y="-971.4" font-family="Consolas" font-size="12.00"> idRef</text>
<text text-anchor="start" x="4.5" y="-954.4" font-family="Consolas" font-size="12.00">+</text>
<text text-anchor="start" x="16.5" y="-954.4" font-family="Consolas" font-size="12.00">const string referencePropertyName</text>
<text text-anchor="start" x="4.5" y="-937.4" font-family="Consolas" font-size="12.00">+</text>
<text text-anchor="start" x="16.5" y="-937.4" font-family="Consolas" font-size="12.00">static ES3ReferenceMgrBase</text>
<text text-anchor="start" x="16.5" y="-924.4" font-family="Consolas" font-size="12.00"> Current</text>
<text text-anchor="start" x="4.5" y="-907.4" font-family="Consolas" font-size="12.00">+</text>
<text text-anchor="start" x="16.5" y="-907.4" font-family="Consolas" font-size="12.00">bool IsInitialised</text>
<text text-anchor="start" x="4.5" y="-890.4" font-family="Consolas" font-size="12.00">+</text>
<text text-anchor="start" x="16.5" y="-890.4" font-family="Consolas" font-size="12.00">ES3RefIdDictionary</text>
<text text-anchor="start" x="16.5" y="-877.4" font-family="Consolas" font-size="12.00"> refId</text>
<text text-anchor="start" x="4.5" y="-860.4" font-family="Consolas" font-size="12.00">+</text>
<text text-anchor="start" x="16.5" y="-860.4" font-family="Consolas" font-size="12.00">ES3GlobalReferences</text>
<text text-anchor="start" x="16.5" y="-847.4" font-family="Consolas" font-size="12.00"> GlobalReferences</text>
<text text-anchor="start" x="4.5" y="-830.4" font-family="Consolas" font-size="12.00">~</text>
<text text-anchor="start" x="16.5" y="-830.4" font-family="Consolas" font-size="12.00">object _lock</text>
<text text-anchor="start" x="4.5" y="-813.4" font-family="Consolas" font-size="12.00">&#45;</text>
<text text-anchor="start" x="16.5" y="-813.4" font-family="Consolas" font-size="12.00">ES3RefIdDictionary</text>
<text text-anchor="start" x="16.5" y="-800.4" font-family="Consolas" font-size="12.00"> _refId</text>
<text text-anchor="start" x="4.5" y="-783.4" font-family="Consolas" font-size="12.00">&#45;</text>
<text text-anchor="start" x="16.5" y="-783.4" font-family="Consolas" font-size="12.00">static ES3ReferenceMgrBase</text>
<text text-anchor="start" x="16.5" y="-770.4" font-family="Consolas" font-size="12.00"> _current</text>
<text text-anchor="start" x="4.5" y="-753.4" font-family="Consolas" font-size="12.00">&#45;</text>
<text text-anchor="start" x="16.5" y="-753.4" font-family="Consolas" font-size="12.00">static HashSet&lt; ES3Reference</text>
<text text-anchor="start" x="16.5" y="-740.4" font-family="Consolas" font-size="12.00">MgrBase &gt; mgrs</text>
<text text-anchor="start" x="4.5" y="-723.4" font-family="Consolas" font-size="12.00">&#45;</text>
<text text-anchor="start" x="16.5" y="-723.4" font-family="Consolas" font-size="12.00">static System.Random rng</text>
<text text-anchor="start" x="4.5" y="-706.4" font-family="Consolas" font-size="12.00">+</text>
<text text-anchor="start" x="16.5" y="-706.4" font-family="Consolas" font-size="12.00">void Merge(ES3ReferenceMgr</text>
<text text-anchor="start" x="16.5" y="-693.4" font-family="Consolas" font-size="12.00">Base otherMgr)</text>
<text text-anchor="start" x="4.5" y="-676.4" font-family="Consolas" font-size="12.00">+</text>
<text text-anchor="start" x="16.5" y="-676.4" font-family="Consolas" font-size="12.00">long Get(UnityEngine.Object obj)</text>
<text text-anchor="start" x="4.5" y="-659.4" font-family="Consolas" font-size="12.00">+</text>
<text text-anchor="start" x="16.5" y="-659.4" font-family="Consolas" font-size="12.00">UnityEngine.Object</text>
<text text-anchor="start" x="16.5" y="-646.4" font-family="Consolas" font-size="12.00"> Get(long id, bool suppress</text>
<text text-anchor="start" x="16.5" y="-633.4" font-family="Consolas" font-size="12.00">Warnings=false)</text>
<text text-anchor="start" x="4.5" y="-616.4" font-family="Consolas" font-size="12.00">+</text>
<text text-anchor="start" x="16.5" y="-616.4" font-family="Consolas" font-size="12.00">ES3Prefab GetPrefab</text>
<text text-anchor="start" x="16.5" y="-603.4" font-family="Consolas" font-size="12.00">(long id, bool suppressWarnings</text>
<text text-anchor="start" x="16.5" y="-590.4" font-family="Consolas" font-size="12.00">=false)</text>
<text text-anchor="start" x="4.5" y="-573.4" font-family="Consolas" font-size="12.00">+</text>
<text text-anchor="start" x="16.5" y="-573.4" font-family="Consolas" font-size="12.00">long GetPrefab(ES3Prefab</text>
<text text-anchor="start" x="16.5" y="-560.4" font-family="Consolas" font-size="12.00"> prefabToFind, bool suppressWarnings=false)</text>
<text text-anchor="start" x="4.5" y="-543.4" font-family="Consolas" font-size="12.00">+</text>
<text text-anchor="start" x="16.5" y="-543.4" font-family="Consolas" font-size="12.00">long Add(UnityEngine.Object obj)</text>
<text text-anchor="start" x="4.5" y="-526.4" font-family="Consolas" font-size="12.00">+</text>
<text text-anchor="start" x="16.5" y="-526.4" font-family="Consolas" font-size="12.00">long Add(UnityEngine.Object</text>
<text text-anchor="start" x="16.5" y="-513.4" font-family="Consolas" font-size="12.00"> obj, long id)</text>
<text text-anchor="start" x="4.5" y="-496.4" font-family="Consolas" font-size="12.00">+</text>
<text text-anchor="start" x="16.5" y="-496.4" font-family="Consolas" font-size="12.00">bool AddPrefab(ES3Prefab</text>
<text text-anchor="start" x="16.5" y="-483.4" font-family="Consolas" font-size="12.00"> prefab)</text>
<text text-anchor="start" x="4.5" y="-466.4" font-family="Consolas" font-size="12.00">+</text>
<text text-anchor="start" x="16.5" y="-466.4" font-family="Consolas" font-size="12.00">void Remove(UnityEngine.</text>
<text text-anchor="start" x="16.5" y="-453.4" font-family="Consolas" font-size="12.00">Object obj)</text>
<text text-anchor="start" x="4.5" y="-436.4" font-family="Consolas" font-size="12.00">+</text>
<text text-anchor="start" x="16.5" y="-436.4" font-family="Consolas" font-size="12.00">void Remove(long referenceID)</text>
<text text-anchor="start" x="4.5" y="-419.4" font-family="Consolas" font-size="12.00">+</text>
<text text-anchor="start" x="16.5" y="-419.4" font-family="Consolas" font-size="12.00">void RemoveNullValues()</text>
<text text-anchor="start" x="4.5" y="-402.4" font-family="Consolas" font-size="12.00">+</text>
<text text-anchor="start" x="16.5" y="-402.4" font-family="Consolas" font-size="12.00">void RemoveNullOrInvalid</text>
<text text-anchor="start" x="16.5" y="-389.4" font-family="Consolas" font-size="12.00">Values()</text>
<text text-anchor="start" x="4.5" y="-372.4" font-family="Consolas" font-size="12.00">+</text>
<text text-anchor="start" x="16.5" y="-372.4" font-family="Consolas" font-size="12.00">void Clear()</text>
<text text-anchor="start" x="4.5" y="-355.4" font-family="Consolas" font-size="12.00">+</text>
<text text-anchor="start" x="16.5" y="-355.4" font-family="Consolas" font-size="12.00">bool Contains(UnityEngine.</text>
<text text-anchor="start" x="16.5" y="-342.4" font-family="Consolas" font-size="12.00">Object obj)</text>
<text text-anchor="start" x="4.5" y="-325.4" font-family="Consolas" font-size="12.00">+</text>
<text text-anchor="start" x="16.5" y="-325.4" font-family="Consolas" font-size="12.00">bool Contains(long</text>
<text text-anchor="start" x="16.5" y="-312.4" font-family="Consolas" font-size="12.00"> referenceID)</text>
<text text-anchor="start" x="4.5" y="-295.4" font-family="Consolas" font-size="12.00">+</text>
<text text-anchor="start" x="16.5" y="-295.4" font-family="Consolas" font-size="12.00">void ChangeId(long</text>
<text text-anchor="start" x="16.5" y="-282.4" font-family="Consolas" font-size="12.00"> oldId, long newId)</text>
<text text-anchor="start" x="4.5" y="-265.4" font-family="Consolas" font-size="12.00">+</text>
<text text-anchor="start" x="16.5" y="-265.4" font-family="Consolas" font-size="12.00">static ES3ReferenceMgrBase</text>
<text text-anchor="start" x="16.5" y="-252.4" font-family="Consolas" font-size="12.00"> GetManagerFromScene(Scene</text>
<text text-anchor="start" x="16.5" y="-239.4" font-family="Consolas" font-size="12.00"> scene, bool getAnyManagerIfNotInScene=true)</text>
<text text-anchor="start" x="4.5" y="-222.4" font-family="Consolas" font-size="12.00">~</text>
<text text-anchor="start" x="16.5" y="-222.4" font-family="Consolas" font-size="12.00">void Awake()</text>
<text text-anchor="start" x="4.5" y="-205.4" font-family="Consolas" font-size="12.00">~</text>
<text text-anchor="start" x="16.5" y="-205.4" font-family="Consolas" font-size="12.00">UnityEngine.Object</text>
<text text-anchor="start" x="16.5" y="-192.4" font-family="Consolas" font-size="12.00"> Get(long id, Type type,</text>
<text text-anchor="start" x="16.5" y="-179.4" font-family="Consolas" font-size="12.00"> bool suppressWarnings=false)</text>
<text text-anchor="start" x="4.5" y="-162.4" font-family="Consolas" font-size="12.00">~</text>
<text text-anchor="start" x="16.5" y="-162.4" font-family="Consolas" font-size="12.00">static long GetNewRefID()</text>
<text text-anchor="start" x="4.5" y="-145.4" font-family="Consolas" font-size="12.00">~</text>
<text text-anchor="start" x="16.5" y="-145.4" font-family="Consolas" font-size="12.00">static bool CanBeSaved</text>
<text text-anchor="start" x="16.5" y="-132.4" font-family="Consolas" font-size="12.00">(UnityEngine.Object obj)</text>
<text text-anchor="start" x="4.5" y="-115.4" font-family="Consolas" font-size="12.00">&#45;</text>
<text text-anchor="start" x="16.5" y="-115.4" font-family="Consolas" font-size="12.00">void OnDestroy()</text>
<text text-anchor="start" x="4.5" y="-98.4" font-family="Consolas" font-size="12.00">&#45;</text>
<text text-anchor="start" x="16.5" y="-98.4" font-family="Consolas" font-size="12.00">static void Init()</text>
<polygon fill="#bfbfbf" stroke="#bfbfbf" points="0.5,-1060 0.5,-1060 351.5,-1060 351.5,-1060 0.5,-1060"/>
<polygon fill="#bfbfbf" stroke="#bfbfbf" points="0.5,-718 0.5,-718 14.5,-718 14.5,-718 0.5,-718"/>
<polygon fill="#bfbfbf" stroke="#bfbfbf" points="14.5,-718 14.5,-718 351.5,-718 351.5,-718 14.5,-718"/>
<polygon fill="none" stroke="#bfbfbf" points="0,-91 0,-1079 351,-1079 351,-91 0,-91"/>
</a>
</g>
</g>
<!-- Node2&#45;&gt;Node1 -->
<g id="edge1_Node000001_Node000002" class="edge">
<title>Node2&#45;&gt;Node1</title>
<g id="a_edge1_Node000001_Node000002"><a xlink:title=" ">
<path fill="none" stroke="#63b8ff" d="M175.5,-80.82C175.5,-71.12 175.5,-62.54 175.5,-55.27"/>
<polygon fill="none" stroke="#63b8ff" points="172,-80.87 175.5,-90.87 179,-80.87 172,-80.87"/>
</a>
</g>
</g>
<!-- Node3 -->
<g id="Node000003" class="node">
<title>Node3</title>
<g id="a_Node000003"><a xlink:title=" ">
<polygon fill="white" stroke="transparent" points="229.5,-1170 121.5,-1170 121.5,-1115 229.5,-1115 229.5,-1170"/>
<text text-anchor="start" x="126.5" y="-1155.9" font-family="Consolas" font-size="12.00">MonoBehaviour</text>
<text text-anchor="start" x="171.5" y="-1138.9" font-family="Consolas" font-size="12.00"> </text>
<text text-anchor="start" x="171.5" y="-1121.9" font-family="Consolas" font-size="12.00"> </text>
<polygon fill="#bfbfbf" stroke="#bfbfbf" points="121.5,-1150.5 121.5,-1150.5 229.5,-1150.5 229.5,-1150.5 121.5,-1150.5"/>
<polygon fill="#bfbfbf" stroke="#bfbfbf" points="121.5,-1133.5 121.5,-1133.5 229.5,-1133.5 229.5,-1133.5 121.5,-1133.5"/>
<polygon fill="none" stroke="#bfbfbf" points="121.5,-1115 121.5,-1170 229.5,-1170 229.5,-1115 121.5,-1115"/>
</a>
</g>
</g>
<!-- Node3&#45;&gt;Node2 -->
<g id="edge2_Node000002_Node000003" class="edge">
<title>Node3&#45;&gt;Node2</title>
<g id="a_edge2_Node000002_Node000003"><a xlink:title=" ">
<path fill="none" stroke="#63b8ff" d="M175.5,-1104.48C175.5,-1097.01 175.5,-1088.57 175.5,-1079.3"/>
<polygon fill="none" stroke="#63b8ff" points="172,-1104.71 175.5,-1114.71 179,-1104.71 172,-1104.71"/>
</a>
</g>
</g>
</g>
</svg>

<g id="navigator" transform="translate(0 0)" fill="#404254">
  <rect fill="#f2f5e9" fill-opacity="0.5" stroke="#606060" stroke-width=".5" x="0" y="0" width="60" height="60"/>
  <use id="zoomplus" xlink:href="#zoomPlus" x="17" y="9" onmousedown="handleZoom(evt,'in')"/>
  <use id="zoomminus" xlink:href="#zoomMin" x="42" y="9" onmousedown="handleZoom(evt,'out')"/>
  <use id="reset" xlink:href="#resetDef" x="30" y="36" onmousedown="handleReset()"/>
   <use id="arrowup" xlink:href="#arrowUp" x="0" y="0" onmousedown="handlePan(0,-1)"/>
  <use id="arrowright" xlink:href="#arrowRight" x="0" y="0" onmousedown="handlePan(1,0)"/>
  <use id="arrowdown" xlink:href="#arrowDown" x="0" y="0" onmousedown="handlePan(0,1)"/>
  <use id="arrowleft" xlink:href="#arrowLeft" x="0" y="0" onmousedown="handlePan(-1,0)"/>
</g>
<svg viewBox="0 0 15 15" width="100%" height="30px" preserveAspectRatio="xMaxYMin meet">
 <g id="arrow_out" transform="scale(0.3 0.3)">
  <a xlink:href="classES3ReferenceMgr__inherit__graph_org.svg" target="_base">
   <rect id="button" ry="5" rx="5" y="6" x="6" height="38" width="38"
        fill="#f2f5e9" fill-opacity="0.5" stroke="#606060" stroke-width="1.0"/>
   <path id="arrow"
     d="M 11.500037,31.436501 C 11.940474,20.09759 22.043105,11.32322 32.158766,21.979434 L 37.068811,17.246167 C 37.068811,17.246167 37.088388,32 37.088388,32 L 22.160133,31.978069 C 22.160133,31.978069 26.997745,27.140456 26.997745,27.140456 C 18.528582,18.264221 13.291696,25.230495 11.500037,31.436501 z"
     style="fill:#404040;"/>
  </a>
 </g>
</svg>

<style type='text/css'>
<![CDATA[
[data-mouse-over-selected='false'] { opacity: 0.7; }
[data-mouse-over-selected='true']  { opacity: 1.0; }
]]>
</style>
<script type="application/ecmascript"><![CDATA[
document.addEventListener('DOMContentLoaded', (event) => {
  highlightEdges();
  highlightAdjacentNodes();
});
]]></script>
</svg>
