<?xml version="1.0" encoding="UTF-8" standalone="no"?>
<!DOCTYPE svg PUBLIC "-//W3C//DTD SVG 1.1//EN"
 "http://www.w3.org/Graphics/SVG/1.1/DTD/svg11.dtd">
<!-- Generated by graphviz version 2.43.0 (0)
 -->
<!-- Title: HitPointSystem Pages: 1 -->
<svg width="246pt" height="372pt"
 viewBox="0.00 0.00 246.00 372.00" xmlns="http://www.w3.org/2000/svg" xmlns:xlink="http://www.w3.org/1999/xlink">
<g id="graph0" class="graph" transform="scale(1 1) rotate(0) translate(4 368)">
<title>HitPointSystem</title>
<!-- Node1 -->
<g id="Node000001" class="node">
<title>Node1</title>
<g id="a_Node000001"><a xlink:title="함선의 체력(Hit Point)을 관리하는 시스템. 체력의 초기화, 변경 및 현재 상태를 조회하는 기능을 담당.">
<polygon fill="#999999" stroke="transparent" points="238,-196 0,-196 0,0 238,0 238,-196"/>
<text text-anchor="start" x="66" y="-182.4" font-family="Consolas" font-size="12.00">HitPointSystem</text>
<text text-anchor="start" x="4" y="-165.4" font-family="Consolas" font-size="12.00">&#45;</text>
<text text-anchor="start" x="16" y="-165.4" font-family="Consolas" font-size="12.00">float currentHitPoint</text>
<text text-anchor="start" x="4" y="-148.4" font-family="Consolas" font-size="12.00">+</text>
<text text-anchor="start" x="16" y="-148.4" font-family="Consolas" font-size="12.00">override void Initialize</text>
<text text-anchor="start" x="16" y="-135.4" font-family="Consolas" font-size="12.00">(Ship ship)</text>
<text text-anchor="start" x="4" y="-118.4" font-family="Consolas" font-size="12.00">+</text>
<text text-anchor="start" x="16" y="-118.4" font-family="Consolas" font-size="12.00">override void Refresh()</text>
<text text-anchor="start" x="4" y="-101.4" font-family="Consolas" font-size="12.00">+</text>
<text text-anchor="start" x="16" y="-101.4" font-family="Consolas" font-size="12.00">void RecalculateHitPoint()</text>
<text text-anchor="start" x="4" y="-84.4" font-family="Consolas" font-size="12.00">+</text>
<text text-anchor="start" x="16" y="-84.4" font-family="Consolas" font-size="12.00">override void Update</text>
<text text-anchor="start" x="16" y="-71.4" font-family="Consolas" font-size="12.00">(float deltaTime)</text>
<text text-anchor="start" x="4" y="-54.4" font-family="Consolas" font-size="12.00">+</text>
<text text-anchor="start" x="16" y="-54.4" font-family="Consolas" font-size="12.00">float GetHitPoint()</text>
<text text-anchor="start" x="4" y="-37.4" font-family="Consolas" font-size="12.00">+</text>
<text text-anchor="start" x="16" y="-37.4" font-family="Consolas" font-size="12.00">float GetHitPointPercentage()</text>
<text text-anchor="start" x="4" y="-20.4" font-family="Consolas" font-size="12.00">+</text>
<text text-anchor="start" x="16" y="-20.4" font-family="Consolas" font-size="12.00">void ChangeHitPoint</text>
<text text-anchor="start" x="16" y="-7.4" font-family="Consolas" font-size="12.00">(float amount)</text>
<polygon fill="#666666" stroke="#666666" points="0,-177 0,-177 238,-177 238,-177 0,-177"/>
<polygon fill="#666666" stroke="#666666" points="0,-160 0,-160 14,-160 14,-160 0,-160"/>
<polygon fill="#666666" stroke="#666666" points="14,-160 14,-160 238,-160 238,-160 14,-160"/>
<polygon fill="none" stroke="#666666" points="0,0 0,-196 238,-196 238,0 0,0"/>
</a>
</g>
</g>
<!-- Node2 -->
<g id="Node000002" class="node">
<title>Node2</title>
<g id="a_Node000002"><a xlink:href="classShipSystem.html" target="_top" xlink:title="모든 함선 시스템의 추상 기반 클래스. 각 시스템은 함선 객체를 기반으로 동작하며, 공통적인 초기화 및 스탯 조회 기능을 제공합니다.">
<polygon fill="white" stroke="transparent" points="234.5,-364 3.5,-364 3.5,-232 234.5,-232 234.5,-364"/>
<text text-anchor="start" x="81.5" y="-350.4" font-family="Consolas" font-size="12.00">ShipSystem</text>
<text text-anchor="start" x="8" y="-333.4" font-family="Consolas" font-size="12.00">#</text>
<text text-anchor="start" x="20" y="-333.4" font-family="Consolas" font-size="12.00">Ship parentShip</text>
<text text-anchor="start" x="8" y="-316.4" font-family="Consolas" font-size="12.00">+</text>
<text text-anchor="start" x="20" y="-316.4" font-family="Consolas" font-size="12.00">virtual void Initialize</text>
<text text-anchor="start" x="20" y="-303.4" font-family="Consolas" font-size="12.00">(Ship ship)</text>
<text text-anchor="start" x="8" y="-286.4" font-family="Consolas" font-size="12.00">+</text>
<text text-anchor="start" x="20" y="-286.4" font-family="Consolas" font-size="12.00">virtual void Refresh()</text>
<text text-anchor="start" x="8" y="-269.4" font-family="Consolas" font-size="12.00">+</text>
<text text-anchor="start" x="20" y="-269.4" font-family="Consolas" font-size="12.00">void Update(float deltaTime)</text>
<text text-anchor="start" x="8" y="-252.4" font-family="Consolas" font-size="12.00">#</text>
<text text-anchor="start" x="20" y="-252.4" font-family="Consolas" font-size="12.00">float GetShipStat(ShipStat</text>
<text text-anchor="start" x="20" y="-239.4" font-family="Consolas" font-size="12.00"> stat)</text>
<polygon fill="#666666" stroke="#666666" points="4,-345 4,-345 235,-345 235,-345 4,-345"/>
<polygon fill="#666666" stroke="#666666" points="4,-328 4,-328 18,-328 18,-328 4,-328"/>
<polygon fill="#666666" stroke="#666666" points="18,-328 18,-328 235,-328 235,-328 18,-328"/>
<polygon fill="none" stroke="#666666" points="3.5,-232 3.5,-364 234.5,-364 234.5,-232 3.5,-232"/>
</a>
</g>
</g>
<!-- Node2&#45;&gt;Node1 -->
<g id="edge1_Node000001_Node000002" class="edge">
<title>Node2&#45;&gt;Node1</title>
<g id="a_edge1_Node000001_Node000002"><a xlink:title=" ">
<path fill="none" stroke="#63b8ff" d="M119,-221.77C119,-213.35 119,-204.69 119,-196.05"/>
<polygon fill="none" stroke="#63b8ff" points="115.5,-221.89 119,-231.89 122.5,-221.89 115.5,-221.89"/>
</a>
</g>
</g>
</g>
</svg>
