<?xml version="1.0" encoding="UTF-8" standalone="no"?>
<!DOCTYPE svg PUBLIC "-//W3C//DTD SVG 1.1//EN"
 "http://www.w3.org/Graphics/SVG/1.1/DTD/svg11.dtd">
<!-- Generated by graphviz version 2.43.0 (0)
 -->
<!-- Title: Storage Pages: 1 -->
<svg width="239pt" height="493pt"
 viewBox="0.00 0.00 239.00 493.00" xmlns="http://www.w3.org/2000/svg" xmlns:xlink="http://www.w3.org/1999/xlink">
<g id="graph0" class="graph" transform="scale(1 1) rotate(0) translate(4 489)">
<title>Storage</title>
<!-- Node1 -->
<g id="Node000001" class="node">
<title>Node1</title>
<g id="a_Node000001"><a xlink:title="Storage는 플레이어가 보유한 무역 아이템을 관리하는 클래스입니다. 아이템은 itemId(int)를 키로 사용하여 TradingItemData,...">
<polygon fill="#999999" stroke="transparent" points="231,-394 0,-394 0,0 231,0 231,-394"/>
<text text-anchor="start" x="89.5" y="-380.4" font-family="Consolas" font-size="12.00">Storage</text>
<text text-anchor="start" x="4.5" y="-363.4" font-family="Consolas" font-size="12.00">+</text>
<text text-anchor="start" x="16.5" y="-363.4" font-family="Consolas" font-size="12.00">static Storage Instance</text>
<text text-anchor="start" x="4.5" y="-346.4" font-family="Consolas" font-size="12.00">&#45;</text>
<text text-anchor="start" x="16.5" y="-346.4" font-family="Consolas" font-size="12.00">Dictionary&lt; int, StoredItem</text>
<text text-anchor="start" x="16.5" y="-333.4" font-family="Consolas" font-size="12.00"> &gt; storedItems</text>
<text text-anchor="start" x="4.5" y="-316.4" font-family="Consolas" font-size="12.00">&#45;</text>
<text text-anchor="start" x="16.5" y="-316.4" font-family="Consolas" font-size="12.00">TradingItemDataBase</text>
<text text-anchor="start" x="16.5" y="-303.4" font-family="Consolas" font-size="12.00"> itemDatabase</text>
<text text-anchor="start" x="4.5" y="-286.4" font-family="Consolas" font-size="12.00">+</text>
<text text-anchor="start" x="16.5" y="-286.4" font-family="Consolas" font-size="12.00">bool CanAddItem(TradingItem</text>
<text text-anchor="start" x="16.5" y="-273.4" font-family="Consolas" font-size="12.00">Data itemData, int quantity)</text>
<text text-anchor="start" x="4.5" y="-256.4" font-family="Consolas" font-size="12.00">+</text>
<text text-anchor="start" x="16.5" y="-256.4" font-family="Consolas" font-size="12.00">bool AddItem(TradingItem</text>
<text text-anchor="start" x="16.5" y="-243.4" font-family="Consolas" font-size="12.00">Data itemData, int quantity)</text>
<text text-anchor="start" x="4.5" y="-226.4" font-family="Consolas" font-size="12.00">+</text>
<text text-anchor="start" x="16.5" y="-226.4" font-family="Consolas" font-size="12.00">bool AddItem(TradingItem</text>
<text text-anchor="start" x="16.5" y="-213.4" font-family="Consolas" font-size="12.00">Data itemData, int quantity,</text>
<text text-anchor="start" x="16.5" y="-200.4" font-family="Consolas" font-size="12.00"> float purchasePrice)</text>
<text text-anchor="start" x="4.5" y="-183.4" font-family="Consolas" font-size="12.00">+</text>
<text text-anchor="start" x="16.5" y="-183.4" font-family="Consolas" font-size="12.00">bool RemoveItem(TradingItem</text>
<text text-anchor="start" x="16.5" y="-170.4" font-family="Consolas" font-size="12.00">Data itemData, int quantity)</text>
<text text-anchor="start" x="4.5" y="-153.4" font-family="Consolas" font-size="12.00">+</text>
<text text-anchor="start" x="16.5" y="-153.4" font-family="Consolas" font-size="12.00">bool HasItem(TradingItem</text>
<text text-anchor="start" x="16.5" y="-140.4" font-family="Consolas" font-size="12.00">Data itemData, int quantity)</text>
<text text-anchor="start" x="4.5" y="-123.4" font-family="Consolas" font-size="12.00">+</text>
<text text-anchor="start" x="16.5" y="-123.4" font-family="Consolas" font-size="12.00">int GetItemQuantity</text>
<text text-anchor="start" x="16.5" y="-110.4" font-family="Consolas" font-size="12.00">(TradingItemData itemData)</text>
<text text-anchor="start" x="4.5" y="-93.4" font-family="Consolas" font-size="12.00">+</text>
<text text-anchor="start" x="16.5" y="-93.4" font-family="Consolas" font-size="12.00">int GetItemQuantityById</text>
<text text-anchor="start" x="16.5" y="-80.4" font-family="Consolas" font-size="12.00">(string targetId)</text>
<text text-anchor="start" x="4.5" y="-63.4" font-family="Consolas" font-size="12.00">+</text>
<text text-anchor="start" x="16.5" y="-63.4" font-family="Consolas" font-size="12.00">List&lt;(TradingItemData</text>
<text text-anchor="start" x="16.5" y="-50.4" font-family="Consolas" font-size="12.00"> itemData, int quantity,</text>
<text text-anchor="start" x="16.5" y="-37.4" font-family="Consolas" font-size="12.00"> float purchasePrice)&gt;</text>
<text text-anchor="start" x="16.5" y="-24.4" font-family="Consolas" font-size="12.00"> GetAllItems()</text>
<text text-anchor="start" x="4.5" y="-7.4" font-family="Consolas" font-size="12.00">&#45;</text>
<text text-anchor="start" x="16.5" y="-7.4" font-family="Consolas" font-size="12.00">void Awake()</text>
<polygon fill="#666666" stroke="#666666" points="0.5,-375 0.5,-375 231.5,-375 231.5,-375 0.5,-375"/>
<polygon fill="#666666" stroke="#666666" points="0.5,-298 0.5,-298 14.5,-298 14.5,-298 0.5,-298"/>
<polygon fill="#666666" stroke="#666666" points="14.5,-298 14.5,-298 231.5,-298 231.5,-298 14.5,-298"/>
<polygon fill="none" stroke="#666666" points="0,0 0,-394 231,-394 231,0 0,0"/>
</a>
</g>
</g>
<!-- Node2 -->
<g id="Node000002" class="node">
<title>Node2</title>
<g id="a_Node000002"><a xlink:title=" ">
<polygon fill="white" stroke="transparent" points="169.5,-485 61.5,-485 61.5,-430 169.5,-430 169.5,-485"/>
<text text-anchor="start" x="66.5" y="-470.9" font-family="Consolas" font-size="12.00">MonoBehaviour</text>
<text text-anchor="start" x="111.5" y="-453.9" font-family="Consolas" font-size="12.00"> </text>
<text text-anchor="start" x="111.5" y="-436.9" font-family="Consolas" font-size="12.00"> </text>
<polygon fill="#bfbfbf" stroke="#bfbfbf" points="61.5,-465.5 61.5,-465.5 169.5,-465.5 169.5,-465.5 61.5,-465.5"/>
<polygon fill="#bfbfbf" stroke="#bfbfbf" points="61.5,-448.5 61.5,-448.5 169.5,-448.5 169.5,-448.5 61.5,-448.5"/>
<polygon fill="none" stroke="#bfbfbf" points="61.5,-430 61.5,-485 169.5,-485 169.5,-430 61.5,-430"/>
</a>
</g>
</g>
<!-- Node2&#45;&gt;Node1 -->
<g id="edge1_Node000001_Node000002" class="edge">
<title>Node2&#45;&gt;Node1</title>
<g id="a_edge1_Node000001_Node000002"><a xlink:title=" ">
<path fill="none" stroke="#63b8ff" d="M115.5,-419.6C115.5,-411.93 115.5,-403.35 115.5,-394.15"/>
<polygon fill="none" stroke="#63b8ff" points="112,-419.81 115.5,-429.81 119,-419.81 112,-419.81"/>
</a>
</g>
</g>
</g>
</svg>
