<?xml version="1.0" encoding="UTF-8" standalone="no"?>
<!DOCTYPE svg PUBLIC "-//W3C//DTD SVG 1.1//EN"
 "http://www.w3.org/Graphics/SVG/1.1/DTD/svg11.dtd">
<!-- Generated by graphviz version 2.43.0 (0)
 -->
<!-- Title: CrewInfoLoader Pages: 1 -->
<!--zoomable 554 -->

<svg id="main" version="1.1" xmlns="http://www.w3.org/2000/svg" xmlns:xlink="http://www.w3.org/1999/xlink" xml:space="preserve" onload="init(evt)">
<style type="text/css"><![CDATA[
.node, .edge {opacity: 0.7;}
.node.selected, .edge.selected {opacity: 1;}
.edge:hover path { stroke: red; }
.edge:hover polygon { stroke: red; fill: red; }
]]></style>

<defs>
  <circle id="rim" cx="0" cy="0" r="7"/>
  <circle id="rim2" cx="0" cy="0" r="3.5"/>
  <g id="zoomPlus">
    <use xlink:href="#rim" fill="#404040"><set attributeName="fill" to="#808080" begin="zoomplus.mouseover" end="zoomplus.mouseout"/></use>
    <path d="M-4,0h8M0,-4v8" fill="none" stroke="white" stroke-width="1.5" pointer-events="none"/>
  </g>
  <g id="zoomMin">
    <use xlink:href="#rim" fill="#404040"><set attributeName="fill" to="#808080" begin="zoomminus.mouseover" end="zoomminus.mouseout"/></use>
    <path d="M-4,0h8" fill="none" stroke="white" stroke-width="1.5" pointer-events="none"/>
  </g>
  <g id="arrowUp" transform="translate(30 24)">
    <use xlink:href="#rim"/>
    <path pointer-events="none" fill="none" stroke="white" stroke-width="1.5" d="M0,-3.0v7 M-2.5,-0.5L0,-3.0L2.5,-0.5"/>
  </g>
  <g id="arrowRight" transform="rotate(90) translate(36 -43)">
    <use xlink:href="#rim"/>
    <path pointer-events="none" fill="none" stroke="white" stroke-width="1.5" d="M0,-3.0v7 M-2.5,-0.5L0,-3.0L2.5,-0.5"/>
  </g>
  <g id="arrowDown" transform="rotate(180) translate(-30 -48)">
    <use xlink:href="#rim"/>
    <path pointer-events="none" fill="none" stroke="white" stroke-width="1.5" d="M0,-3.0v7 M-2.5,-0.5L0,-3.0L2.5,-0.5"/>
  </g>
  <g id="arrowLeft" transform="rotate(270) translate(-36 17)">
    <use xlink:href="#rim"/>
    <path pointer-events="none" fill="none" stroke="white" stroke-width="1.5" d="M0,-3.0v7 M-2.5,-0.5L0,-3.0L2.5,-0.5"/>
  </g>
  <g id="resetDef">
    <use xlink:href="#rim2" fill="#404040"><set attributeName="fill" to="#808080" begin="reset.mouseover" end="reset.mouseout"/></use>
  </g>
</defs>
<script type="application/ecmascript">
var viewWidth = 276;
var viewHeight = 554;
var sectionId = 'dynsection-1';
</script>
<script type="application/ecmascript" xlink:href="svg.min.js"/>
<svg id="graph" class="graph">
<g id="viewport">
<title>CrewInfoLoader</title>
<!-- Node1 -->
<g id="Node000001" class="node">
<title>Node1</title>
<g id="a_Node000001"><a xlink:title="크루원 정보(CrewInfo)를 JSON 파일에서 불러와 정적 변수에 저장하는 로더. JsonUtility를 사용하며, JSON 키의 공백을 제거해 필드명과 매칭시킵니다.">
<polygon fill="#999999" stroke="transparent" points="128,-55 12,-55 12,0 128,0 128,-55"/>
<text text-anchor="start" x="17" y="-40.9" font-family="Consolas" font-size="12.00">CrewInfoLoader</text>
<text text-anchor="start" x="66" y="-23.9" font-family="Consolas" font-size="12.00"> </text>
<text text-anchor="start" x="17" y="-6.9" font-family="Consolas" font-size="12.00">&#45;</text>
<text text-anchor="start" x="30" y="-6.9" font-family="Consolas" font-size="12.00">void Awake()</text>
<polygon fill="#666666" stroke="#666666" points="12,-35.5 12,-35.5 128,-35.5 128,-35.5 12,-35.5"/>
<polygon fill="#666666" stroke="#666666" points="12,-18.5 12,-18.5 128,-18.5 128,-18.5 12,-18.5"/>
<polygon fill="none" stroke="#666666" points="12,0 12,-55 128,-55 128,0 12,0"/>
</a>
</g>
</g>
<!-- Node2 -->
<g id="Node000002" class="node">
<title>Node2</title>
<g id="a_Node000002"><a xlink:title=" ">
<polygon fill="white" stroke="transparent" points="108,-161 0,-161 0,-106 108,-106 108,-161"/>
<text text-anchor="start" x="5" y="-146.9" font-family="Consolas" font-size="12.00">MonoBehaviour</text>
<text text-anchor="start" x="50" y="-129.9" font-family="Consolas" font-size="12.00"> </text>
<text text-anchor="start" x="50" y="-112.9" font-family="Consolas" font-size="12.00"> </text>
<polygon fill="#bfbfbf" stroke="#bfbfbf" points="0,-141.5 0,-141.5 108,-141.5 108,-141.5 0,-141.5"/>
<polygon fill="#bfbfbf" stroke="#bfbfbf" points="0,-124.5 0,-124.5 108,-124.5 108,-124.5 0,-124.5"/>
<polygon fill="none" stroke="#bfbfbf" points="0,-106 0,-161 108,-161 108,-106 0,-106"/>
</a>
</g>
</g>
<!-- Node2&#45;&gt;Node1 -->
<g id="edge1_Node000001_Node000002" class="edge">
<title>Node2&#45;&gt;Node1</title>
<g id="a_edge1_Node000001_Node000002"><a xlink:title=" ">
<path fill="none" stroke="#63b8ff" d="M59.6,-96.09C61.66,-82.68 63.96,-67.74 65.87,-55.33"/>
<polygon fill="none" stroke="#63b8ff" points="56.14,-95.57 58.08,-105.99 63.06,-96.64 56.14,-95.57"/>
</a>
</g>
</g>
<!-- Node3 -->
<g id="Node000003" class="node">
<title>Node3</title>
<g id="a_Node000003"><a xlink:href="classCrewInfoWrapper.html" target="_top" xlink:title="크루 유형별 스탯 데이터를 저장하는 래퍼 클래스. JSON 구조 상 최상단에 위치하며, 각 유형별로 CrewData를 포함합니다.">
<polygon fill="white" stroke="transparent" points="249.5,-161 126.5,-161 126.5,-106 249.5,-106 249.5,-161"/>
<text text-anchor="start" x="132" y="-146.9" font-family="Consolas" font-size="12.00">CrewInfoWrapper</text>
<text text-anchor="start" x="184.5" y="-129.9" font-family="Consolas" font-size="12.00"> </text>
<text text-anchor="start" x="184.5" y="-112.9" font-family="Consolas" font-size="12.00"> </text>
<polygon fill="#666666" stroke="#666666" points="127,-141.5 127,-141.5 250,-141.5 250,-141.5 127,-141.5"/>
<polygon fill="#666666" stroke="#666666" points="127,-124.5 127,-124.5 250,-124.5 250,-124.5 127,-124.5"/>
<polygon fill="none" stroke="#666666" points="126.5,-106 126.5,-161 249.5,-161 249.5,-106 126.5,-106"/>
</a>
</g>
</g>
<!-- Node3&#45;&gt;Node1 -->
<g id="edge2_Node000001_Node000003" class="edge">
<title>Node3&#45;&gt;Node1</title>
<g id="a_edge2_Node000001_Node000003"><a xlink:title=" ">
<path fill="none" stroke="#63b8ff" d="M157.92,-105.99C143.19,-93.01 125.27,-77.21 109.46,-63.28"/>
<polygon fill="none" stroke="#63b8ff" points="109.44,-63.26 102.29,-62.29 100.44,-55.33 107.58,-56.29 109.44,-63.26"/>
</a>
</g>
<text text-anchor="middle" x="177.5" y="-76.8" font-family="Consolas" font-size="14.00" fill="grey"> +crewInfo</text>
</g>
<!-- Node4 -->
<g id="Node000004" class="node">
<title>Node4</title>
<g id="a_Node000004"><a xlink:href="classCrewData.html" target="_top" xlink:title="크루원(승무원)의 능력치 및 숙련도 정보를 담는 데이터 클래스. 저장 및 로드 시 JSON 직렬화에 사용됩니다.">
<polygon fill="white" stroke="transparent" points="258,-546 118,-546 118,-287 258,-287 258,-546"/>
<text text-anchor="start" x="157.5" y="-531.9" font-family="Consolas" font-size="12.00">CrewData</text>
<text text-anchor="start" x="122" y="-514.9" font-family="Consolas" font-size="12.00">+</text>
<text text-anchor="start" x="134" y="-514.9" font-family="Consolas" font-size="12.00">int 공격력</text>
<text text-anchor="start" x="122" y="-497.9" font-family="Consolas" font-size="12.00">+</text>
<text text-anchor="start" x="134" y="-497.9" font-family="Consolas" font-size="12.00">int 방어력</text>
<text text-anchor="start" x="122" y="-480.9" font-family="Consolas" font-size="12.00">+</text>
<text text-anchor="start" x="134" y="-480.9" font-family="Consolas" font-size="12.00">int 체력</text>
<text text-anchor="start" x="122" y="-463.9" font-family="Consolas" font-size="12.00">+</text>
<text text-anchor="start" x="134" y="-463.9" font-family="Consolas" font-size="12.00">float 학습속도</text>
<text text-anchor="start" x="122" y="-446.9" font-family="Consolas" font-size="12.00">+</text>
<text text-anchor="start" x="134" y="-446.9" font-family="Consolas" font-size="12.00">string 산소호흡</text>
<text text-anchor="start" x="122" y="-429.9" font-family="Consolas" font-size="12.00">+</text>
<text text-anchor="start" x="134" y="-429.9" font-family="Consolas" font-size="12.00">int 조종실숙련도</text>
<text text-anchor="start" x="122" y="-412.9" font-family="Consolas" font-size="12.00">+</text>
<text text-anchor="start" x="134" y="-412.9" font-family="Consolas" font-size="12.00">int 엔진실숙련도</text>
<text text-anchor="start" x="122" y="-395.9" font-family="Consolas" font-size="12.00">+</text>
<text text-anchor="start" x="134" y="-395.9" font-family="Consolas" font-size="12.00">int 전력실숙련도</text>
<text text-anchor="start" x="122" y="-378.9" font-family="Consolas" font-size="12.00">+</text>
<text text-anchor="start" x="134" y="-378.9" font-family="Consolas" font-size="12.00">int 배리어실숙련도</text>
<text text-anchor="start" x="122" y="-361.9" font-family="Consolas" font-size="12.00">+</text>
<text text-anchor="start" x="134" y="-361.9" font-family="Consolas" font-size="12.00">int 조준석숙련도</text>
<text text-anchor="start" x="122" y="-344.9" font-family="Consolas" font-size="12.00">+</text>
<text text-anchor="start" x="134" y="-344.9" font-family="Consolas" font-size="12.00">int 탄약고숙련도</text>
<text text-anchor="start" x="122" y="-327.9" font-family="Consolas" font-size="12.00">+</text>
<text text-anchor="start" x="134" y="-327.9" font-family="Consolas" font-size="12.00">int 의무실숙련도</text>
<text text-anchor="start" x="122" y="-310.9" font-family="Consolas" font-size="12.00">+</text>
<text text-anchor="start" x="134" y="-310.9" font-family="Consolas" font-size="12.00">string 수리숙련도</text>
<text text-anchor="start" x="184" y="-293.9" font-family="Consolas" font-size="12.00"> </text>
<polygon fill="#666666" stroke="#666666" points="118,-526.5 118,-526.5 258,-526.5 258,-526.5 118,-526.5"/>
<polygon fill="#666666" stroke="#666666" points="118,-305.5 118,-305.5 132,-305.5 132,-305.5 118,-305.5"/>
<polygon fill="#666666" stroke="#666666" points="132,-305.5 132,-305.5 258,-305.5 258,-305.5 132,-305.5"/>
<polygon fill="none" stroke="#666666" points="118,-287 118,-546 258,-546 258,-287 118,-287"/>
</a>
</g>
</g>
<!-- Node4&#45;&gt;Node3 -->
<g id="edge3_Node000003_Node000004" class="edge">
<title>Node4&#45;&gt;Node3</title>
<g id="a_edge3_Node000003_Node000004"><a xlink:title=" ">
<path fill="none" stroke="#63b8ff" d="M188,-286.92C188,-245.63 188,-202.96 188,-173.31"/>
<polygon fill="none" stroke="#63b8ff" points="188,-173.04 184,-167.04 188,-161.04 192,-167.04 188,-173.04"/>
</a>
</g>
<text text-anchor="middle" x="228" y="-257.8" font-family="Consolas" font-size="14.00" fill="grey"> +곤충형</text>
<text text-anchor="middle" x="228" y="-242.8" font-family="Consolas" font-size="14.00" fill="grey">+돌격기계형</text>
<text text-anchor="middle" x="228" y="-227.8" font-family="Consolas" font-size="14.00" fill="grey">+부정형</text>
<text text-anchor="middle" x="228" y="-212.8" font-family="Consolas" font-size="14.00" fill="grey">+인간형</text>
<text text-anchor="middle" x="228" y="-197.8" font-family="Consolas" font-size="14.00" fill="grey">+지원기계형</text>
<text text-anchor="middle" x="228" y="-182.8" font-family="Consolas" font-size="14.00" fill="grey">+짐승형</text>
</g>
</g>
</svg>

<g id="navigator" transform="translate(0 0)" fill="#404254">
  <rect fill="#f2f5e9" fill-opacity="0.5" stroke="#606060" stroke-width=".5" x="0" y="0" width="60" height="60"/>
  <use id="zoomplus" xlink:href="#zoomPlus" x="17" y="9" onmousedown="handleZoom(evt,'in')"/>
  <use id="zoomminus" xlink:href="#zoomMin" x="42" y="9" onmousedown="handleZoom(evt,'out')"/>
  <use id="reset" xlink:href="#resetDef" x="30" y="36" onmousedown="handleReset()"/>
   <use id="arrowup" xlink:href="#arrowUp" x="0" y="0" onmousedown="handlePan(0,-1)"/>
  <use id="arrowright" xlink:href="#arrowRight" x="0" y="0" onmousedown="handlePan(1,0)"/>
  <use id="arrowdown" xlink:href="#arrowDown" x="0" y="0" onmousedown="handlePan(0,1)"/>
  <use id="arrowleft" xlink:href="#arrowLeft" x="0" y="0" onmousedown="handlePan(-1,0)"/>
</g>
<svg viewBox="0 0 15 15" width="100%" height="30px" preserveAspectRatio="xMaxYMin meet">
 <g id="arrow_out" transform="scale(0.3 0.3)">
  <a xlink:href="classCrewInfoLoader__coll__graph_org.svg" target="_base">
   <rect id="button" ry="5" rx="5" y="6" x="6" height="38" width="38"
        fill="#f2f5e9" fill-opacity="0.5" stroke="#606060" stroke-width="1.0"/>
   <path id="arrow"
     d="M 11.500037,31.436501 C 11.940474,20.09759 22.043105,11.32322 32.158766,21.979434 L 37.068811,17.246167 C 37.068811,17.246167 37.088388,32 37.088388,32 L 22.160133,31.978069 C 22.160133,31.978069 26.997745,27.140456 26.997745,27.140456 C 18.528582,18.264221 13.291696,25.230495 11.500037,31.436501 z"
     style="fill:#404040;"/>
  </a>
 </g>
</svg>

<style type='text/css'>
<![CDATA[
[data-mouse-over-selected='false'] { opacity: 0.7; }
[data-mouse-over-selected='true']  { opacity: 1.0; }
]]>
</style>
<script type="application/ecmascript"><![CDATA[
document.addEventListener('DOMContentLoaded', (event) => {
  highlightEdges();
  highlightAdjacentNodes();
});
]]></script>
</svg>
