<?xml version="1.0" encoding="UTF-8" standalone="no"?>
<!DOCTYPE svg PUBLIC "-//W3C//DTD SVG 1.1//EN"
 "http://www.w3.org/Graphics/SVG/1.1/DTD/svg11.dtd">
<!-- Generated by graphviz version 2.43.0 (0)
 -->
<!-- Title: NonDraggableScrollRect Pages: 1 -->
<svg width="239pt" height="287pt"
 viewBox="0.00 0.00 239.00 287.00" xmlns="http://www.w3.org/2000/svg" xmlns:xlink="http://www.w3.org/1999/xlink">

<svg id="main" version="1.1" xmlns="http://www.w3.org/2000/svg" xmlns:xlink="http://www.w3.org/1999/xlink" xml:space="preserve" onload="init(evt)">
<style type="text/css"><![CDATA[
.node, .edge {opacity: 0.7;}
.node.selected, .edge.selected {opacity: 1;}
.edge:hover path { stroke: red; }
.edge:hover polygon { stroke: red; fill: red; }
]]></style>
<script type="application/ecmascript" xlink:href="svg.min.js"/>
<svg id="graph" class="graph">
<g id="graph0" class="graph" transform="scale(1 1) rotate(0) translate(4 283)">
<title>NonDraggableScrollRect</title>
<!-- Node1 -->
<g id="Node000001" class="node">
<title>Node1</title>
<g id="a_Node000001"><a xlink:title="ScrollRect 기능을 확장하여, 스크롤바 핸들 외의 영역에서는 드래그를 비활성화하는 스크립트. 마우스 휠 스크롤은 정상 작동하며, 수직 스크롤만 허용됩니다.">
<polygon fill="#999999" stroke="transparent" points="231,-188 0,-188 0,0 231,0 231,-188"/>
<text text-anchor="start" x="33" y="-174.4" font-family="Consolas" font-size="12.00">NonDraggableScrollRect</text>
<text text-anchor="start" x="112" y="-157.4" font-family="Consolas" font-size="12.00"> </text>
<text text-anchor="start" x="4.5" y="-140.4" font-family="Consolas" font-size="12.00">+</text>
<text text-anchor="start" x="16.5" y="-140.4" font-family="Consolas" font-size="12.00">override void OnBeginDrag</text>
<text text-anchor="start" x="16.5" y="-127.4" font-family="Consolas" font-size="12.00">(PointerEventData eventData)</text>
<text text-anchor="start" x="4.5" y="-110.4" font-family="Consolas" font-size="12.00">+</text>
<text text-anchor="start" x="16.5" y="-110.4" font-family="Consolas" font-size="12.00">override void OnDrag</text>
<text text-anchor="start" x="16.5" y="-97.4" font-family="Consolas" font-size="12.00">(PointerEventData eventData)</text>
<text text-anchor="start" x="4.5" y="-80.4" font-family="Consolas" font-size="12.00">+</text>
<text text-anchor="start" x="16.5" y="-80.4" font-family="Consolas" font-size="12.00">override void OnEndDrag</text>
<text text-anchor="start" x="16.5" y="-67.4" font-family="Consolas" font-size="12.00">(PointerEventData eventData)</text>
<text text-anchor="start" x="4.5" y="-50.4" font-family="Consolas" font-size="12.00">+</text>
<text text-anchor="start" x="16.5" y="-50.4" font-family="Consolas" font-size="12.00">override void OnScroll</text>
<text text-anchor="start" x="16.5" y="-37.4" font-family="Consolas" font-size="12.00">(PointerEventData data)</text>
<text text-anchor="start" x="4.5" y="-20.4" font-family="Consolas" font-size="12.00">&#45;</text>
<text text-anchor="start" x="16.5" y="-20.4" font-family="Consolas" font-size="12.00">bool IsScrollbarHandle</text>
<text text-anchor="start" x="16.5" y="-7.4" font-family="Consolas" font-size="12.00">(PointerEventData eventData)</text>
<polygon fill="#666666" stroke="#666666" points="0.5,-169 0.5,-169 231.5,-169 231.5,-169 0.5,-169"/>
<polygon fill="#666666" stroke="#666666" points="0.5,-152 0.5,-152 231.5,-152 231.5,-152 0.5,-152"/>
<polygon fill="none" stroke="#666666" points="0,0 0,-188 231,-188 231,0 0,0"/>
</a>
</g>
</g>
<!-- Node2 -->
<g id="Node000002" class="node">
<title>Node2</title>
<g id="a_Node000002"><a xlink:title=" ">
<polygon fill="white" stroke="transparent" points="158.5,-279 72.5,-279 72.5,-224 158.5,-224 158.5,-279"/>
<text text-anchor="start" x="77.5" y="-264.9" font-family="Consolas" font-size="12.00">ScrollRect</text>
<text text-anchor="start" x="111.5" y="-247.9" font-family="Consolas" font-size="12.00"> </text>
<text text-anchor="start" x="111.5" y="-230.9" font-family="Consolas" font-size="12.00"> </text>
<polygon fill="#bfbfbf" stroke="#bfbfbf" points="72.5,-259.5 72.5,-259.5 158.5,-259.5 158.5,-259.5 72.5,-259.5"/>
<polygon fill="#bfbfbf" stroke="#bfbfbf" points="72.5,-242.5 72.5,-242.5 158.5,-242.5 158.5,-242.5 72.5,-242.5"/>
<polygon fill="none" stroke="#bfbfbf" points="72.5,-224 72.5,-279 158.5,-279 158.5,-224 72.5,-224"/>
</a>
</g>
</g>
<!-- Node2&#45;&gt;Node1 -->
<g id="edge1_Node000001_Node000002" class="edge">
<title>Node2&#45;&gt;Node1</title>
<g id="a_edge1_Node000001_Node000002"><a xlink:title=" ">
<path fill="none" stroke="#63b8ff" d="M115.5,-213.59C115.5,-205.74 115.5,-197.11 115.5,-188.2"/>
<polygon fill="none" stroke="#63b8ff" points="112,-213.77 115.5,-223.77 119,-213.77 112,-213.77"/>
</a>
</g>
</g>
</g>
</svg>
</svg>

<style type='text/css'>
<![CDATA[
[data-mouse-over-selected='false'] { opacity: 0.7; }
[data-mouse-over-selected='true']  { opacity: 1.0; }
]]>
</style>
<script type="application/ecmascript"><![CDATA[
document.addEventListener('DOMContentLoaded', (event) => {
  highlightEdges();
  highlightAdjacentNodes();
});
]]></script>
</svg>
