<?xml version="1.0" encoding="UTF-8" standalone="no"?>
<!DOCTYPE svg PUBLIC "-//W3C//DTD SVG 1.1//EN"
 "http://www.w3.org/Graphics/SVG/1.1/DTD/svg11.dtd">
<!-- Generated by graphviz version 2.43.0 (0)
 -->
<!-- Title: ES3Editor.ES3Window Pages: 1 -->
<svg width="347pt" height="666pt"
 viewBox="0.00 0.00 346.50 666.00" xmlns="http://www.w3.org/2000/svg" xmlns:xlink="http://www.w3.org/1999/xlink">
<g id="graph0" class="graph" transform="scale(1 1) rotate(0) translate(4 662)">
<title>ES3Editor.ES3Window</title>
<!-- Node1 -->
<g id="Node000001" class="node">
<title>Node1</title>
<g id="a_Node000001"><a xlink:title=" ">
<polygon fill="#999999" stroke="transparent" points="283,-409 0,-409 0,0 283,0 283,-409"/>
<text text-anchor="start" x="70.5" y="-394.9" font-family="Consolas" font-size="12.00">ES3Editor.ES3Window</text>
<text text-anchor="start" x="138" y="-377.9" font-family="Consolas" font-size="12.00"> </text>
<text text-anchor="start" x="4.5" y="-360.9" font-family="Consolas" font-size="12.00">+</text>
<text text-anchor="start" x="16.5" y="-360.9" font-family="Consolas" font-size="12.00">void InitSubWindows()</text>
<text text-anchor="start" x="4.5" y="-343.9" font-family="Consolas" font-size="12.00">+</text>
<text text-anchor="start" x="16.5" y="-343.9" font-family="Consolas" font-size="12.00">static void Init()</text>
<text text-anchor="start" x="4.5" y="-326.9" font-family="Consolas" font-size="12.00">+</text>
<text text-anchor="start" x="16.5" y="-326.9" font-family="Consolas" font-size="12.00">static void InitAndShowHome()</text>
<text text-anchor="start" x="4.5" y="-309.9" font-family="Consolas" font-size="12.00">+</text>
<text text-anchor="start" x="16.5" y="-309.9" font-family="Consolas" font-size="12.00">static void InitAndShowAuto</text>
<text text-anchor="start" x="16.5" y="-296.9" font-family="Consolas" font-size="12.00">Save()</text>
<text text-anchor="start" x="4.5" y="-279.9" font-family="Consolas" font-size="12.00">+</text>
<text text-anchor="start" x="16.5" y="-279.9" font-family="Consolas" font-size="12.00">static void InitAndShowReferences()</text>
<text text-anchor="start" x="4.5" y="-262.9" font-family="Consolas" font-size="12.00">+</text>
<text text-anchor="start" x="16.5" y="-262.9" font-family="Consolas" font-size="12.00">static void InitAndShowTypes()</text>
<text text-anchor="start" x="4.5" y="-245.9" font-family="Consolas" font-size="12.00">+</text>
<text text-anchor="start" x="16.5" y="-245.9" font-family="Consolas" font-size="12.00">static void InitAndShowTypes</text>
<text text-anchor="start" x="16.5" y="-232.9" font-family="Consolas" font-size="12.00">(System.Type type)</text>
<text text-anchor="start" x="4.5" y="-215.9" font-family="Consolas" font-size="12.00">+</text>
<text text-anchor="start" x="16.5" y="-215.9" font-family="Consolas" font-size="12.00">static void InitAndShowSettings()</text>
<text text-anchor="start" x="4.5" y="-198.9" font-family="Consolas" font-size="12.00">+</text>
<text text-anchor="start" x="16.5" y="-198.9" font-family="Consolas" font-size="12.00">static void InitAndShowTools()</text>
<text text-anchor="start" x="4.5" y="-181.9" font-family="Consolas" font-size="12.00">+</text>
<text text-anchor="start" x="16.5" y="-181.9" font-family="Consolas" font-size="12.00">static void OpenEditorWindow</text>
<text text-anchor="start" x="16.5" y="-168.9" font-family="Consolas" font-size="12.00">OnStart()</text>
<text text-anchor="start" x="4.5" y="-151.9" font-family="Consolas" font-size="12.00">&#45;</text>
<text text-anchor="start" x="16.5" y="-151.9" font-family="Consolas" font-size="12.00">void OnLostFocus()</text>
<text text-anchor="start" x="4.5" y="-134.9" font-family="Consolas" font-size="12.00">&#45;</text>
<text text-anchor="start" x="16.5" y="-134.9" font-family="Consolas" font-size="12.00">void OnFocus()</text>
<text text-anchor="start" x="4.5" y="-117.9" font-family="Consolas" font-size="12.00">&#45;</text>
<text text-anchor="start" x="16.5" y="-117.9" font-family="Consolas" font-size="12.00">void OnDestroy()</text>
<text text-anchor="start" x="4.5" y="-100.9" font-family="Consolas" font-size="12.00">&#45;</text>
<text text-anchor="start" x="16.5" y="-100.9" font-family="Consolas" font-size="12.00">void OnEnable()</text>
<text text-anchor="start" x="4.5" y="-83.9" font-family="Consolas" font-size="12.00">&#45;</text>
<text text-anchor="start" x="16.5" y="-83.9" font-family="Consolas" font-size="12.00">void OnHierarchyChange()</text>
<text text-anchor="start" x="4.5" y="-66.9" font-family="Consolas" font-size="12.00">&#45;</text>
<text text-anchor="start" x="16.5" y="-66.9" font-family="Consolas" font-size="12.00">void OnGUI()</text>
<text text-anchor="start" x="4.5" y="-49.9" font-family="Consolas" font-size="12.00">&#45;</text>
<text text-anchor="start" x="16.5" y="-49.9" font-family="Consolas" font-size="12.00">void SetCurrentWindow</text>
<text text-anchor="start" x="16.5" y="-36.9" font-family="Consolas" font-size="12.00">(SubWindow window)</text>
<text text-anchor="start" x="4.5" y="-19.9" font-family="Consolas" font-size="12.00">&#45;</text>
<text text-anchor="start" x="16.5" y="-19.9" font-family="Consolas" font-size="12.00">SubWindow SetCurrentWindow</text>
<text text-anchor="start" x="16.5" y="-6.9" font-family="Consolas" font-size="12.00">(System.Type type)</text>
<polygon fill="#666666" stroke="#666666" points="0.5,-389.5 0.5,-389.5 283.5,-389.5 283.5,-389.5 0.5,-389.5"/>
<polygon fill="#666666" stroke="#666666" points="0.5,-372.5 0.5,-372.5 283.5,-372.5 283.5,-372.5 0.5,-372.5"/>
<polygon fill="none" stroke="#666666" points="0,0 0,-409 283,-409 283,0 0,0"/>
</a>
</g>
</g>
<!-- Node2 -->
<g id="Node000002" class="node">
<title>Node2</title>
<g id="a_Node000002"><a xlink:title=" ">
<polygon fill="white" stroke="transparent" points="104,-594 3,-594 3,-539 104,-539 104,-594"/>
<text text-anchor="start" x="8.5" y="-579.9" font-family="Consolas" font-size="12.00">EditorWindow</text>
<text text-anchor="start" x="50" y="-562.9" font-family="Consolas" font-size="12.00"> </text>
<text text-anchor="start" x="50" y="-545.9" font-family="Consolas" font-size="12.00"> </text>
<polygon fill="#bfbfbf" stroke="#bfbfbf" points="3.5,-574.5 3.5,-574.5 104.5,-574.5 104.5,-574.5 3.5,-574.5"/>
<polygon fill="#bfbfbf" stroke="#bfbfbf" points="3.5,-557.5 3.5,-557.5 104.5,-557.5 104.5,-557.5 3.5,-557.5"/>
<polygon fill="none" stroke="#bfbfbf" points="3,-539 3,-594 104,-594 104,-539 3,-539"/>
</a>
</g>
</g>
<!-- Node2&#45;&gt;Node1 -->
<g id="edge1_Node000001_Node000002" class="edge">
<title>Node2&#45;&gt;Node1</title>
<g id="a_edge1_Node000001_Node000002"><a xlink:title=" ">
<path fill="none" stroke="#63b8ff" d="M62.44,-528.94C69.64,-499.46 80.4,-455.45 91.68,-409.32"/>
<polygon fill="none" stroke="#63b8ff" points="59.02,-528.19 60.04,-538.74 65.82,-529.85 59.02,-528.19"/>
</a>
</g>
</g>
<!-- Node3 -->
<g id="Node000003" class="node">
<title>Node3</title>
<g id="a_Node000003"><a xlink:href="classES3Editor_1_1SubWindow.html" target="_top" xlink:title=" ">
<polygon fill="white" stroke="transparent" points="338.5,-658 122.5,-658 122.5,-475 338.5,-475 338.5,-658"/>
<text text-anchor="start" x="159" y="-643.9" font-family="Consolas" font-size="12.00">ES3Editor.SubWindow</text>
<text text-anchor="start" x="126.5" y="-626.9" font-family="Consolas" font-size="12.00">+</text>
<text text-anchor="start" x="138.5" y="-626.9" font-family="Consolas" font-size="12.00">string name</text>
<text text-anchor="start" x="126.5" y="-609.9" font-family="Consolas" font-size="12.00">+</text>
<text text-anchor="start" x="138.5" y="-609.9" font-family="Consolas" font-size="12.00">EditorWindow parent</text>
<text text-anchor="start" x="126.5" y="-592.9" font-family="Consolas" font-size="12.00">+</text>
<text text-anchor="start" x="138.5" y="-592.9" font-family="Consolas" font-size="12.00">void OnGUI()</text>
<text text-anchor="start" x="126.5" y="-575.9" font-family="Consolas" font-size="12.00">+</text>
<text text-anchor="start" x="138.5" y="-575.9" font-family="Consolas" font-size="12.00">SubWindow(string name,</text>
<text text-anchor="start" x="138.5" y="-562.9" font-family="Consolas" font-size="12.00"> EditorWindow parent)</text>
<text text-anchor="start" x="126.5" y="-545.9" font-family="Consolas" font-size="12.00">+</text>
<text text-anchor="start" x="138.5" y="-545.9" font-family="Consolas" font-size="12.00">virtual void OnLostFocus()</text>
<text text-anchor="start" x="126.5" y="-528.9" font-family="Consolas" font-size="12.00">+</text>
<text text-anchor="start" x="138.5" y="-528.9" font-family="Consolas" font-size="12.00">virtual void OnFocus()</text>
<text text-anchor="start" x="126.5" y="-511.9" font-family="Consolas" font-size="12.00">+</text>
<text text-anchor="start" x="138.5" y="-511.9" font-family="Consolas" font-size="12.00">virtual void OnDestroy()</text>
<text text-anchor="start" x="126.5" y="-494.9" font-family="Consolas" font-size="12.00">+</text>
<text text-anchor="start" x="138.5" y="-494.9" font-family="Consolas" font-size="12.00">virtual void OnHierarchy</text>
<text text-anchor="start" x="138.5" y="-481.9" font-family="Consolas" font-size="12.00">Change()</text>
<polygon fill="#bfbfbf" stroke="#bfbfbf" points="122.5,-638.5 122.5,-638.5 338.5,-638.5 338.5,-638.5 122.5,-638.5"/>
<polygon fill="#bfbfbf" stroke="#bfbfbf" points="122.5,-604.5 122.5,-604.5 136.5,-604.5 136.5,-604.5 122.5,-604.5"/>
<polygon fill="#bfbfbf" stroke="#bfbfbf" points="136.5,-604.5 136.5,-604.5 338.5,-604.5 338.5,-604.5 136.5,-604.5"/>
<polygon fill="none" stroke="#bfbfbf" points="122.5,-475 122.5,-658 338.5,-658 338.5,-475 122.5,-475"/>
</a>
</g>
</g>
<!-- Node3&#45;&gt;Node1 -->
<g id="edge2_Node000001_Node000003" class="edge">
<title>Node3&#45;&gt;Node1</title>
<g id="a_edge2_Node000001_Node000003"><a xlink:title=" ">
<path fill="none" stroke="#63b8ff" d="M208.04,-474.66C203.88,-457.84 199.38,-439.63 194.75,-420.89"/>
<polygon fill="none" stroke="#63b8ff" points="194.73,-420.81 189.41,-415.95 191.85,-409.16 197.17,-414.03 194.73,-420.81"/>
</a>
</g>
<text text-anchor="middle" x="263.5" y="-445.8" font-family="Consolas" font-size="14.00" fill="grey"> +currentWindow</text>
<text text-anchor="middle" x="263.5" y="-430.8" font-family="Consolas" font-size="14.00" fill="grey">&#45;windows</text>
</g>
</g>
</svg>
