<?xml version="1.0" encoding="UTF-8" standalone="no"?>
<!DOCTYPE svg PUBLIC "-//W3C//DTD SVG 1.1//EN"
 "http://www.w3.org/Graphics/SVG/1.1/DTD/svg11.dtd">
<!-- Generated by graphviz version 2.43.0 (0)
 -->
<!-- Title: NodePlacementMap.OnPlanetClickedFromComponent Pages: 1 -->
<!--zoomable 132 -->

<svg id="main" version="1.1" xmlns="http://www.w3.org/2000/svg" xmlns:xlink="http://www.w3.org/1999/xlink" xml:space="preserve" onload="init(evt)">
<style type="text/css"><![CDATA[
.node, .edge {opacity: 0.7;}
.node.selected, .edge.selected {opacity: 1;}
.edge:hover path { stroke: red; }
.edge:hover polygon { stroke: red; fill: red; }
]]></style>

<defs>
  <circle id="rim" cx="0" cy="0" r="7"/>
  <circle id="rim2" cx="0" cy="0" r="3.5"/>
  <g id="zoomPlus">
    <use xlink:href="#rim" fill="#404040"><set attributeName="fill" to="#808080" begin="zoomplus.mouseover" end="zoomplus.mouseout"/></use>
    <path d="M-4,0h8M0,-4v8" fill="none" stroke="white" stroke-width="1.5" pointer-events="none"/>
  </g>
  <g id="zoomMin">
    <use xlink:href="#rim" fill="#404040"><set attributeName="fill" to="#808080" begin="zoomminus.mouseover" end="zoomminus.mouseout"/></use>
    <path d="M-4,0h8" fill="none" stroke="white" stroke-width="1.5" pointer-events="none"/>
  </g>
  <g id="arrowUp" transform="translate(30 24)">
    <use xlink:href="#rim"/>
    <path pointer-events="none" fill="none" stroke="white" stroke-width="1.5" d="M0,-3.0v7 M-2.5,-0.5L0,-3.0L2.5,-0.5"/>
  </g>
  <g id="arrowRight" transform="rotate(90) translate(36 -43)">
    <use xlink:href="#rim"/>
    <path pointer-events="none" fill="none" stroke="white" stroke-width="1.5" d="M0,-3.0v7 M-2.5,-0.5L0,-3.0L2.5,-0.5"/>
  </g>
  <g id="arrowDown" transform="rotate(180) translate(-30 -48)">
    <use xlink:href="#rim"/>
    <path pointer-events="none" fill="none" stroke="white" stroke-width="1.5" d="M0,-3.0v7 M-2.5,-0.5L0,-3.0L2.5,-0.5"/>
  </g>
  <g id="arrowLeft" transform="rotate(270) translate(-36 17)">
    <use xlink:href="#rim"/>
    <path pointer-events="none" fill="none" stroke="white" stroke-width="1.5" d="M0,-3.0v7 M-2.5,-0.5L0,-3.0L2.5,-0.5"/>
  </g>
  <g id="resetDef">
    <use xlink:href="#rim2" fill="#404040"><set attributeName="fill" to="#808080" begin="reset.mouseover" end="reset.mouseout"/></use>
  </g>
</defs>
<script type="application/ecmascript">
var viewWidth = 1203;
var viewHeight = 132;
var sectionId = 'dynsection-7';
</script>
<script type="application/ecmascript" xlink:href="svg.min.js"/>
<svg id="graph" class="graph">
<g id="viewport">
<title>NodePlacementMap.OnPlanetClickedFromComponent</title>
<!-- Node1 -->
<g id="Node000001" class="node">
<title>Node1</title>
<g id="a_Node000001"><a xlink:title="Planet.cs에서 행성 클릭 시 호출되는 메서드입니다.">
<polygon fill="#999999" stroke="#666666" points="204,-79 0,-79 0,-45 204,-45 204,-79"/>
<text text-anchor="start" x="8" y="-65.4" font-family="Consolas" font-size="12.00">NodePlacementMap.OnPlanet</text>
<text text-anchor="middle" x="102" y="-52.4" font-family="Consolas" font-size="12.00">ClickedFromComponent</text>
</a>
</g>
</g>
<!-- Node2 -->
<g id="Node000002" class="node">
<title>Node2</title>
<g id="a_Node000002"><a xlink:href="classNodePlacementMap.html#ae94d637a1ddb262a24a49688ada93179" target="_top" xlink:title="행성 클릭 시 경로에 추가하고 배치를 종료합니다.">
<polygon fill="white" stroke="#666666" points="444,-79 240,-79 240,-45 444,-45 444,-79"/>
<text text-anchor="start" x="248" y="-65.4" font-family="Consolas" font-size="12.00">NodePlacementMap.OnPlanet</text>
<text text-anchor="middle" x="342" y="-52.4" font-family="Consolas" font-size="12.00">Clicked</text>
</a>
</g>
</g>
<!-- Node1&#45;&gt;Node2 -->
<g id="edge1_Node000001_Node000002" class="edge">
<title>Node1&#45;&gt;Node2</title>
<g id="a_edge1_Node000001_Node000002"><a xlink:title=" ">
<path fill="none" stroke="#63b8ff" d="M204.28,-62C212.64,-62 221.13,-62 229.56,-62"/>
<polygon fill="#63b8ff" stroke="#63b8ff" points="229.81,-65.5 239.81,-62 229.81,-58.5 229.81,-65.5"/>
</a>
</g>
</g>
<!-- Node3 -->
<g id="Node000003" class="node">
<title>Node3</title>
<g id="a_Node000003"><a xlink:href="classNodePlacementMap.html#acc914a4dbcd1626ac29dbc3304bfb04e" target="_top" xlink:title="노드 배치가 완료되었을 때 호출되며, 최종 경로를 생성합니다.">
<polygon fill="white" stroke="#666666" points="695.5,-124 491.5,-124 491.5,-90 695.5,-90 695.5,-124"/>
<text text-anchor="start" x="499.5" y="-110.4" font-family="Consolas" font-size="12.00">NodePlacementMap.Complete</text>
<text text-anchor="middle" x="593.5" y="-97.4" font-family="Consolas" font-size="12.00">PlacementMap</text>
</a>
</g>
</g>
<!-- Node2&#45;&gt;Node3 -->
<g id="edge2_Node000002_Node000003" class="edge">
<title>Node2&#45;&gt;Node3</title>
<g id="a_edge2_Node000002_Node000003"><a xlink:title=" ">
<path fill="none" stroke="#63b8ff" d="M437.33,-79.01C453.94,-82.01 471.31,-85.14 488.18,-88.18"/>
<polygon fill="#63b8ff" stroke="#63b8ff" points="487.58,-91.63 498.04,-89.96 488.82,-84.74 487.58,-91.63"/>
</a>
</g>
</g>
<!-- Node5 -->
<g id="Node000005" class="node">
<title>Node5</title>
<g id="a_Node000005"><a xlink:href="classNodePlacementMap.html#a8b0d850d202d7832b7b8f5da17d2173b" target="_top" xlink:title="주어진 위치가 위험지역 안에 있는지 확인합니다.">
<polygon fill="white" stroke="#666666" points="1195,-101 976,-101 976,-67 1195,-67 1195,-101"/>
<text text-anchor="start" x="984" y="-87.4" font-family="Consolas" font-size="12.00">NodePlacementMap.IsPosition</text>
<text text-anchor="middle" x="1085.5" y="-74.4" font-family="Consolas" font-size="12.00">InDangerZone</text>
</a>
</g>
</g>
<!-- Node2&#45;&gt;Node5 -->
<g id="edge5_Node000002_Node000005" class="edge">
<title>Node2&#45;&gt;Node5</title>
<g id="a_edge5_Node000002_Node000005"><a xlink:title=" ">
<path fill="none" stroke="#63b8ff" d="M444.16,-65C580.1,-69.03 821.3,-76.19 965.71,-80.48"/>
<polygon fill="#63b8ff" stroke="#63b8ff" points="965.84,-83.98 975.94,-80.78 966.05,-76.98 965.84,-83.98"/>
</a>
</g>
</g>
<!-- Node6 -->
<g id="Node000006" class="node">
<title>Node6</title>
<g id="a_Node000006"><a xlink:href="classNodePlacementMap.html#a1ee46cf2ebec4644cfb17ae06e61cafa" target="_top" xlink:title="유효 범위 표시기의 위치를 업데이트합니다.">
<polygon fill="white" stroke="#666666" points="707,-34 480,-34 480,0 707,0 707,-34"/>
<text text-anchor="start" x="488" y="-20.4" font-family="Consolas" font-size="12.00">NodePlacementMap.UpdateValid</text>
<text text-anchor="middle" x="593.5" y="-7.4" font-family="Consolas" font-size="12.00">RangeIndicator</text>
</a>
</g>
</g>
<!-- Node2&#45;&gt;Node6 -->
<g id="edge6_Node000002_Node000006" class="edge">
<title>Node2&#45;&gt;Node6</title>
<g id="a_edge6_Node000002_Node000006"><a xlink:title=" ">
<path fill="none" stroke="#63b8ff" d="M437.33,-44.99C453.94,-41.99 471.31,-38.86 488.18,-35.82"/>
<polygon fill="#63b8ff" stroke="#63b8ff" points="488.82,-39.26 498.04,-34.04 487.58,-32.37 488.82,-39.26"/>
</a>
</g>
</g>
<!-- Node4 -->
<g id="Node000004" class="node">
<title>Node4</title>
<g id="a_Node000004"><a xlink:href="classNodePlacementMap.html#a24c98d5c8f64e4c85c468120fbfd4979" target="_top" xlink:title="현재까지의 배치된 노드 경로를 수집합니다.">
<polygon fill="white" stroke="#666666" points="940,-124 743,-124 743,-90 940,-90 940,-124"/>
<text text-anchor="start" x="751" y="-110.4" font-family="Consolas" font-size="12.00">NodePlacementMap.Collect</text>
<text text-anchor="middle" x="841.5" y="-97.4" font-family="Consolas" font-size="12.00">NodePath</text>
</a>
</g>
</g>
<!-- Node3&#45;&gt;Node4 -->
<g id="edge3_Node000003_Node000004" class="edge">
<title>Node3&#45;&gt;Node4</title>
<g id="a_edge3_Node000003_Node000004"><a xlink:title=" ">
<path fill="none" stroke="#63b8ff" d="M695.62,-107C707.84,-107 720.35,-107 732.66,-107"/>
<polygon fill="#63b8ff" stroke="#63b8ff" points="732.94,-110.5 742.94,-107 732.94,-103.5 732.94,-110.5"/>
</a>
</g>
</g>
<!-- Node4&#45;&gt;Node5 -->
<g id="edge4_Node000004_Node000005" class="edge">
<title>Node4&#45;&gt;Node5</title>
<g id="a_edge4_Node000004_Node000005"><a xlink:title=" ">
<path fill="none" stroke="#63b8ff" d="M940.23,-97.71C948.62,-96.91 957.17,-96.1 965.7,-95.29"/>
<polygon fill="#63b8ff" stroke="#63b8ff" points="966.08,-98.77 975.7,-94.34 965.42,-91.8 966.08,-98.77"/>
</a>
</g>
</g>
</g>
</svg>

<g id="navigator" transform="translate(0 0)" fill="#404254">
  <rect fill="#f2f5e9" fill-opacity="0.5" stroke="#606060" stroke-width=".5" x="0" y="0" width="60" height="60"/>
  <use id="zoomplus" xlink:href="#zoomPlus" x="17" y="9" onmousedown="handleZoom(evt,'in')"/>
  <use id="zoomminus" xlink:href="#zoomMin" x="42" y="9" onmousedown="handleZoom(evt,'out')"/>
  <use id="reset" xlink:href="#resetDef" x="30" y="36" onmousedown="handleReset()"/>
   <use id="arrowup" xlink:href="#arrowUp" x="0" y="0" onmousedown="handlePan(0,-1)"/>
  <use id="arrowright" xlink:href="#arrowRight" x="0" y="0" onmousedown="handlePan(1,0)"/>
  <use id="arrowdown" xlink:href="#arrowDown" x="0" y="0" onmousedown="handlePan(0,1)"/>
  <use id="arrowleft" xlink:href="#arrowLeft" x="0" y="0" onmousedown="handlePan(-1,0)"/>
</g>
<svg viewBox="0 0 15 15" width="100%" height="30px" preserveAspectRatio="xMaxYMin meet">
 <g id="arrow_out" transform="scale(0.3 0.3)">
  <a xlink:href="classNodePlacementMap_a8ef0fbbed3fa506af750b472f6eeff70_cgraph_org.svg" target="_base">
   <rect id="button" ry="5" rx="5" y="6" x="6" height="38" width="38"
        fill="#f2f5e9" fill-opacity="0.5" stroke="#606060" stroke-width="1.0"/>
   <path id="arrow"
     d="M 11.500037,31.436501 C 11.940474,20.09759 22.043105,11.32322 32.158766,21.979434 L 37.068811,17.246167 C 37.068811,17.246167 37.088388,32 37.088388,32 L 22.160133,31.978069 C 22.160133,31.978069 26.997745,27.140456 26.997745,27.140456 C 18.528582,18.264221 13.291696,25.230495 11.500037,31.436501 z"
     style="fill:#404040;"/>
  </a>
 </g>
</svg>

<style type='text/css'>
<![CDATA[
[data-mouse-over-selected='false'] { opacity: 0.7; }
[data-mouse-over-selected='true']  { opacity: 1.0; }
]]>
</style>
<script type="application/ecmascript"><![CDATA[
document.addEventListener('DOMContentLoaded', (event) => {
  highlightEdges();
  highlightAdjacentNodes();
});
]]></script>
</svg>
