<?xml version="1.0" encoding="UTF-8" standalone="no"?>
<!DOCTYPE svg PUBLIC "-//W3C//DTD SVG 1.1//EN"
 "http://www.w3.org/Graphics/SVG/1.1/DTD/svg11.dtd">
<!-- Generated by graphviz version 2.43.0 (0)
 -->
<!-- Title: WeaponInventoryButton.OnBeginDrag Pages: 1 -->
<svg width="730pt" height="121pt"
 viewBox="0.00 0.00 730.00 120.50" xmlns="http://www.w3.org/2000/svg" xmlns:xlink="http://www.w3.org/1999/xlink">
<g id="graph0" class="graph" transform="scale(1 1) rotate(0) translate(4 116.5)">
<title>WeaponInventoryButton.OnBeginDrag</title>
<!-- Node1 -->
<g id="Node000001" class="node">
<title>Node1</title>
<g id="a_Node000001"><a xlink:title="드래그 시작">
<polygon fill="#999999" stroke="#666666" points="197,-80 0,-80 0,-46 197,-46 197,-80"/>
<text text-anchor="start" x="8" y="-66.4" font-family="Consolas" font-size="12.00">WeaponInventoryButton.On</text>
<text text-anchor="middle" x="98.5" y="-53.4" font-family="Consolas" font-size="12.00">BeginDrag</text>
</a>
</g>
</g>
<!-- Node2 -->
<g id="Node000002" class="node">
<title>Node2</title>
<g id="a_Node000002"><a xlink:href="classBlueprintWeaponDragHandler.html#a5834a6e49dd8a0724bb81e6e36ee9642" target="_top" xlink:title="드래그 시작 시 호출됨.">
<polygon fill="white" stroke="#666666" points="452,-80 233,-80 233,-46 452,-46 452,-80"/>
<text text-anchor="start" x="241" y="-66.4" font-family="Consolas" font-size="12.00">BlueprintWeaponDragHandler.</text>
<text text-anchor="middle" x="342.5" y="-53.4" font-family="Consolas" font-size="12.00">StartDragging</text>
</a>
</g>
</g>
<!-- Node1&#45;&gt;Node2 -->
<g id="edge1_Node000001_Node000002" class="edge">
<title>Node1&#45;&gt;Node2</title>
<g id="a_edge1_Node000001_Node000002"><a xlink:title=" ">
<path fill="none" stroke="#63b8ff" d="M197.23,-63C205.53,-63 213.99,-63 222.42,-63"/>
<polygon fill="#63b8ff" stroke="#63b8ff" points="222.7,-66.5 232.7,-63 222.7,-59.5 222.7,-66.5"/>
</a>
</g>
</g>
<!-- Node3 -->
<g id="Node000003" class="node">
<title>Node3</title>
<g id="a_Node000003"><a xlink:href="classRoomSelectionHandler.html#a443092f408ad81ffc678141bc047c0b5" target="_top" xlink:title="선택 해제">
<polygon fill="white" stroke="#666666" points="722,-112.5 488,-112.5 488,-91.5 722,-91.5 722,-112.5"/>
<text text-anchor="middle" x="605" y="-98.9" font-family="Consolas" font-size="12.00">RoomSelectionHandler.Deselect</text>
</a>
</g>
</g>
<!-- Node2&#45;&gt;Node3 -->
<g id="edge2_Node000002_Node000003" class="edge">
<title>Node2&#45;&gt;Node3</title>
<g id="a_edge2_Node000002_Node000003"><a xlink:title=" ">
<path fill="none" stroke="#63b8ff" d="M452.09,-79.26C476.17,-82.86 501.26,-86.62 523.96,-90.02"/>
<polygon fill="#63b8ff" stroke="#63b8ff" points="523.45,-93.48 533.86,-91.5 524.49,-86.56 523.45,-93.48"/>
</a>
</g>
</g>
<!-- Node4 -->
<g id="Node000004" class="node">
<title>Node4</title>
<g id="a_Node000004"><a xlink:href="classBlueprintShip.html#af261ef03f43fb9025372b1ff117489e1" target="_top" xlink:title="현재 함선의 외갑판 레벨 반환">
<polygon fill="white" stroke="#666666" points="711,-73.5 499,-73.5 499,-52.5 711,-52.5 711,-73.5"/>
<text text-anchor="middle" x="605" y="-59.9" font-family="Consolas" font-size="12.00">BlueprintShip.GetHullLevel</text>
</a>
</g>
</g>
<!-- Node2&#45;&gt;Node4 -->
<g id="edge3_Node000002_Node000004" class="edge">
<title>Node2&#45;&gt;Node4</title>
<g id="a_edge3_Node000002_Node000004"><a xlink:title=" ">
<path fill="none" stroke="#63b8ff" d="M452.09,-63C464.2,-63 476.56,-63 488.74,-63"/>
<polygon fill="#63b8ff" stroke="#63b8ff" points="488.93,-66.5 498.93,-63 488.93,-59.5 488.93,-66.5"/>
</a>
</g>
</g>
<!-- Node5 -->
<g id="Node000005" class="node">
<title>Node5</title>
<g id="a_Node000005"><a xlink:href="classBlueprintDragManager.html#ac1d35cd76d846adcbf13bab7b19e241b" target="_top" xlink:title="무기 드래그 시작">
<polygon fill="white" stroke="#666666" points="711,-34 499,-34 499,0 711,0 711,-34"/>
<text text-anchor="start" x="507" y="-20.4" font-family="Consolas" font-size="12.00">BlueprintDragManager.Start</text>
<text text-anchor="middle" x="605" y="-7.4" font-family="Consolas" font-size="12.00">WeaponDrag</text>
</a>
</g>
</g>
<!-- Node2&#45;&gt;Node5 -->
<g id="edge4_Node000002_Node000005" class="edge">
<title>Node2&#45;&gt;Node5</title>
<g id="a_edge4_Node000002_Node000005"><a xlink:title=" ">
<path fill="none" stroke="#63b8ff" d="M440.13,-45.94C458.87,-42.63 478.61,-39.14 497.65,-35.78"/>
<polygon fill="#63b8ff" stroke="#63b8ff" points="498.29,-39.22 507.53,-34.04 497.07,-32.33 498.29,-39.22"/>
</a>
</g>
</g>
</g>
</svg>
