<?xml version="1.0" encoding="UTF-8" standalone="no"?>
<!DOCTYPE svg PUBLIC "-//W3C//DTD SVG 1.1//EN"
 "http://www.w3.org/Graphics/SVG/1.1/DTD/svg11.dtd">
<!-- Generated by graphviz version 2.43.0 (0)
 -->
<!-- Title: CrewInfoLoader Pages: 1 -->
<svg width="276pt" height="554pt"
 viewBox="0.00 0.00 276.00 554.00" xmlns="http://www.w3.org/2000/svg" xmlns:xlink="http://www.w3.org/1999/xlink">
<g id="graph0" class="graph" transform="scale(1 1) rotate(0) translate(4 550)">
<title>CrewInfoLoader</title>
<!-- Node1 -->
<g id="Node000001" class="node">
<title>Node1</title>
<g id="a_Node000001"><a xlink:title="크루원 정보(CrewInfo)를 JSON 파일에서 불러와 정적 변수에 저장하는 로더. JsonUtility를 사용하며, JSON 키의 공백을 제거해 필드명과 매칭시킵니다.">
<polygon fill="#999999" stroke="transparent" points="128,-55 12,-55 12,0 128,0 128,-55"/>
<text text-anchor="start" x="17" y="-40.9" font-family="Consolas" font-size="12.00">CrewInfoLoader</text>
<text text-anchor="start" x="66" y="-23.9" font-family="Consolas" font-size="12.00"> </text>
<text text-anchor="start" x="17" y="-6.9" font-family="Consolas" font-size="12.00">&#45;</text>
<text text-anchor="start" x="30" y="-6.9" font-family="Consolas" font-size="12.00">void Awake()</text>
<polygon fill="#666666" stroke="#666666" points="12,-35.5 12,-35.5 128,-35.5 128,-35.5 12,-35.5"/>
<polygon fill="#666666" stroke="#666666" points="12,-18.5 12,-18.5 128,-18.5 128,-18.5 12,-18.5"/>
<polygon fill="none" stroke="#666666" points="12,0 12,-55 128,-55 128,0 12,0"/>
</a>
</g>
</g>
<!-- Node2 -->
<g id="Node000002" class="node">
<title>Node2</title>
<g id="a_Node000002"><a xlink:title=" ">
<polygon fill="white" stroke="transparent" points="108,-161 0,-161 0,-106 108,-106 108,-161"/>
<text text-anchor="start" x="5" y="-146.9" font-family="Consolas" font-size="12.00">MonoBehaviour</text>
<text text-anchor="start" x="50" y="-129.9" font-family="Consolas" font-size="12.00"> </text>
<text text-anchor="start" x="50" y="-112.9" font-family="Consolas" font-size="12.00"> </text>
<polygon fill="#bfbfbf" stroke="#bfbfbf" points="0,-141.5 0,-141.5 108,-141.5 108,-141.5 0,-141.5"/>
<polygon fill="#bfbfbf" stroke="#bfbfbf" points="0,-124.5 0,-124.5 108,-124.5 108,-124.5 0,-124.5"/>
<polygon fill="none" stroke="#bfbfbf" points="0,-106 0,-161 108,-161 108,-106 0,-106"/>
</a>
</g>
</g>
<!-- Node2&#45;&gt;Node1 -->
<g id="edge1_Node000001_Node000002" class="edge">
<title>Node2&#45;&gt;Node1</title>
<g id="a_edge1_Node000001_Node000002"><a xlink:title=" ">
<path fill="none" stroke="#63b8ff" d="M59.6,-96.09C61.66,-82.68 63.96,-67.74 65.87,-55.33"/>
<polygon fill="none" stroke="#63b8ff" points="56.14,-95.57 58.08,-105.99 63.06,-96.64 56.14,-95.57"/>
</a>
</g>
</g>
<!-- Node3 -->
<g id="Node000003" class="node">
<title>Node3</title>
<g id="a_Node000003"><a xlink:href="classCrewInfoWrapper.html" target="_top" xlink:title="크루 유형별 스탯 데이터를 저장하는 래퍼 클래스. JSON 구조 상 최상단에 위치하며, 각 유형별로 CrewData를 포함합니다.">
<polygon fill="white" stroke="transparent" points="249.5,-161 126.5,-161 126.5,-106 249.5,-106 249.5,-161"/>
<text text-anchor="start" x="132" y="-146.9" font-family="Consolas" font-size="12.00">CrewInfoWrapper</text>
<text text-anchor="start" x="184.5" y="-129.9" font-family="Consolas" font-size="12.00"> </text>
<text text-anchor="start" x="184.5" y="-112.9" font-family="Consolas" font-size="12.00"> </text>
<polygon fill="#666666" stroke="#666666" points="127,-141.5 127,-141.5 250,-141.5 250,-141.5 127,-141.5"/>
<polygon fill="#666666" stroke="#666666" points="127,-124.5 127,-124.5 250,-124.5 250,-124.5 127,-124.5"/>
<polygon fill="none" stroke="#666666" points="126.5,-106 126.5,-161 249.5,-161 249.5,-106 126.5,-106"/>
</a>
</g>
</g>
<!-- Node3&#45;&gt;Node1 -->
<g id="edge2_Node000001_Node000003" class="edge">
<title>Node3&#45;&gt;Node1</title>
<g id="a_edge2_Node000001_Node000003"><a xlink:title=" ">
<path fill="none" stroke="#63b8ff" d="M157.92,-105.99C143.19,-93.01 125.27,-77.21 109.46,-63.28"/>
<polygon fill="none" stroke="#63b8ff" points="109.44,-63.26 102.29,-62.29 100.44,-55.33 107.58,-56.29 109.44,-63.26"/>
</a>
</g>
<text text-anchor="middle" x="177.5" y="-76.8" font-family="Consolas" font-size="14.00" fill="grey"> +crewInfo</text>
</g>
<!-- Node4 -->
<g id="Node000004" class="node">
<title>Node4</title>
<g id="a_Node000004"><a xlink:href="classCrewData.html" target="_top" xlink:title="크루원(승무원)의 능력치 및 숙련도 정보를 담는 데이터 클래스. 저장 및 로드 시 JSON 직렬화에 사용됩니다.">
<polygon fill="white" stroke="transparent" points="258,-546 118,-546 118,-287 258,-287 258,-546"/>
<text text-anchor="start" x="157.5" y="-531.9" font-family="Consolas" font-size="12.00">CrewData</text>
<text text-anchor="start" x="122" y="-514.9" font-family="Consolas" font-size="12.00">+</text>
<text text-anchor="start" x="134" y="-514.9" font-family="Consolas" font-size="12.00">int 공격력</text>
<text text-anchor="start" x="122" y="-497.9" font-family="Consolas" font-size="12.00">+</text>
<text text-anchor="start" x="134" y="-497.9" font-family="Consolas" font-size="12.00">int 방어력</text>
<text text-anchor="start" x="122" y="-480.9" font-family="Consolas" font-size="12.00">+</text>
<text text-anchor="start" x="134" y="-480.9" font-family="Consolas" font-size="12.00">int 체력</text>
<text text-anchor="start" x="122" y="-463.9" font-family="Consolas" font-size="12.00">+</text>
<text text-anchor="start" x="134" y="-463.9" font-family="Consolas" font-size="12.00">float 학습속도</text>
<text text-anchor="start" x="122" y="-446.9" font-family="Consolas" font-size="12.00">+</text>
<text text-anchor="start" x="134" y="-446.9" font-family="Consolas" font-size="12.00">string 산소호흡</text>
<text text-anchor="start" x="122" y="-429.9" font-family="Consolas" font-size="12.00">+</text>
<text text-anchor="start" x="134" y="-429.9" font-family="Consolas" font-size="12.00">int 조종실숙련도</text>
<text text-anchor="start" x="122" y="-412.9" font-family="Consolas" font-size="12.00">+</text>
<text text-anchor="start" x="134" y="-412.9" font-family="Consolas" font-size="12.00">int 엔진실숙련도</text>
<text text-anchor="start" x="122" y="-395.9" font-family="Consolas" font-size="12.00">+</text>
<text text-anchor="start" x="134" y="-395.9" font-family="Consolas" font-size="12.00">int 전력실숙련도</text>
<text text-anchor="start" x="122" y="-378.9" font-family="Consolas" font-size="12.00">+</text>
<text text-anchor="start" x="134" y="-378.9" font-family="Consolas" font-size="12.00">int 배리어실숙련도</text>
<text text-anchor="start" x="122" y="-361.9" font-family="Consolas" font-size="12.00">+</text>
<text text-anchor="start" x="134" y="-361.9" font-family="Consolas" font-size="12.00">int 조준석숙련도</text>
<text text-anchor="start" x="122" y="-344.9" font-family="Consolas" font-size="12.00">+</text>
<text text-anchor="start" x="134" y="-344.9" font-family="Consolas" font-size="12.00">int 탄약고숙련도</text>
<text text-anchor="start" x="122" y="-327.9" font-family="Consolas" font-size="12.00">+</text>
<text text-anchor="start" x="134" y="-327.9" font-family="Consolas" font-size="12.00">int 의무실숙련도</text>
<text text-anchor="start" x="122" y="-310.9" font-family="Consolas" font-size="12.00">+</text>
<text text-anchor="start" x="134" y="-310.9" font-family="Consolas" font-size="12.00">string 수리숙련도</text>
<text text-anchor="start" x="184" y="-293.9" font-family="Consolas" font-size="12.00"> </text>
<polygon fill="#666666" stroke="#666666" points="118,-526.5 118,-526.5 258,-526.5 258,-526.5 118,-526.5"/>
<polygon fill="#666666" stroke="#666666" points="118,-305.5 118,-305.5 132,-305.5 132,-305.5 118,-305.5"/>
<polygon fill="#666666" stroke="#666666" points="132,-305.5 132,-305.5 258,-305.5 258,-305.5 132,-305.5"/>
<polygon fill="none" stroke="#666666" points="118,-287 118,-546 258,-546 258,-287 118,-287"/>
</a>
</g>
</g>
<!-- Node4&#45;&gt;Node3 -->
<g id="edge3_Node000003_Node000004" class="edge">
<title>Node4&#45;&gt;Node3</title>
<g id="a_edge3_Node000003_Node000004"><a xlink:title=" ">
<path fill="none" stroke="#63b8ff" d="M188,-286.92C188,-245.63 188,-202.96 188,-173.31"/>
<polygon fill="none" stroke="#63b8ff" points="188,-173.04 184,-167.04 188,-161.04 192,-167.04 188,-173.04"/>
</a>
</g>
<text text-anchor="middle" x="228" y="-257.8" font-family="Consolas" font-size="14.00" fill="grey"> +곤충형</text>
<text text-anchor="middle" x="228" y="-242.8" font-family="Consolas" font-size="14.00" fill="grey">+돌격기계형</text>
<text text-anchor="middle" x="228" y="-227.8" font-family="Consolas" font-size="14.00" fill="grey">+부정형</text>
<text text-anchor="middle" x="228" y="-212.8" font-family="Consolas" font-size="14.00" fill="grey">+인간형</text>
<text text-anchor="middle" x="228" y="-197.8" font-family="Consolas" font-size="14.00" fill="grey">+지원기계형</text>
<text text-anchor="middle" x="228" y="-182.8" font-family="Consolas" font-size="14.00" fill="grey">+짐승형</text>
</g>
</g>
</svg>
