<?xml version="1.0" encoding="UTF-8" standalone="no"?>
<!DOCTYPE svg PUBLIC "-//W3C//DTD SVG 1.1//EN"
 "http://www.w3.org/Graphics/SVG/1.1/DTD/svg11.dtd">
<!-- Generated by graphviz version 2.43.0 (0)
 -->
<!-- Title: ES3Types.ES3UserType_MedBayRoom Pages: 1 -->
<!--zoomable 1924 -->

<svg id="main" version="1.1" xmlns="http://www.w3.org/2000/svg" xmlns:xlink="http://www.w3.org/1999/xlink" xml:space="preserve" onload="init(evt)">
<style type="text/css"><![CDATA[
.node, .edge {opacity: 0.7;}
.node.selected, .edge.selected {opacity: 1;}
.edge:hover path { stroke: red; }
.edge:hover polygon { stroke: red; fill: red; }
]]></style>

<defs>
  <circle id="rim" cx="0" cy="0" r="7"/>
  <circle id="rim2" cx="0" cy="0" r="3.5"/>
  <g id="zoomPlus">
    <use xlink:href="#rim" fill="#404040"><set attributeName="fill" to="#808080" begin="zoomplus.mouseover" end="zoomplus.mouseout"/></use>
    <path d="M-4,0h8M0,-4v8" fill="none" stroke="white" stroke-width="1.5" pointer-events="none"/>
  </g>
  <g id="zoomMin">
    <use xlink:href="#rim" fill="#404040"><set attributeName="fill" to="#808080" begin="zoomminus.mouseover" end="zoomminus.mouseout"/></use>
    <path d="M-4,0h8" fill="none" stroke="white" stroke-width="1.5" pointer-events="none"/>
  </g>
  <g id="arrowUp" transform="translate(30 24)">
    <use xlink:href="#rim"/>
    <path pointer-events="none" fill="none" stroke="white" stroke-width="1.5" d="M0,-3.0v7 M-2.5,-0.5L0,-3.0L2.5,-0.5"/>
  </g>
  <g id="arrowRight" transform="rotate(90) translate(36 -43)">
    <use xlink:href="#rim"/>
    <path pointer-events="none" fill="none" stroke="white" stroke-width="1.5" d="M0,-3.0v7 M-2.5,-0.5L0,-3.0L2.5,-0.5"/>
  </g>
  <g id="arrowDown" transform="rotate(180) translate(-30 -48)">
    <use xlink:href="#rim"/>
    <path pointer-events="none" fill="none" stroke="white" stroke-width="1.5" d="M0,-3.0v7 M-2.5,-0.5L0,-3.0L2.5,-0.5"/>
  </g>
  <g id="arrowLeft" transform="rotate(270) translate(-36 17)">
    <use xlink:href="#rim"/>
    <path pointer-events="none" fill="none" stroke="white" stroke-width="1.5" d="M0,-3.0v7 M-2.5,-0.5L0,-3.0L2.5,-0.5"/>
  </g>
  <g id="resetDef">
    <use xlink:href="#rim2" fill="#404040"><set attributeName="fill" to="#808080" begin="reset.mouseover" end="reset.mouseout"/></use>
  </g>
</defs>
<script type="application/ecmascript">
var viewWidth = 291;
var viewHeight = 1924;
var sectionId = 'dynsection-0';
</script>
<script type="application/ecmascript" xlink:href="svg.min.js"/>
<svg id="graph" class="graph">
<g id="viewport">
<title>ES3Types.ES3UserType_MedBayRoom</title>
<!-- Node1 -->
<g id="Node000001" class="node">
<title>Node1</title>
<g id="a_Node000001"><a xlink:title=" ">
<polygon fill="#999999" stroke="transparent" points="264.5,-141 18.5,-141 18.5,0 264.5,0 264.5,-141"/>
<text text-anchor="start" x="66" y="-126.9" font-family="Consolas" font-size="12.00">ES3Types.ES3UserType</text>
<text text-anchor="start" x="100" y="-113.9" font-family="Consolas" font-size="12.00">_MedBayRoom</text>
<text text-anchor="start" x="22.5" y="-96.9" font-family="Consolas" font-size="12.00">+</text>
<text text-anchor="start" x="34.5" y="-96.9" font-family="Consolas" font-size="12.00">static ES3Type Instance</text>
<text text-anchor="start" x="22.5" y="-79.9" font-family="Consolas" font-size="12.00">+</text>
<text text-anchor="start" x="34.5" y="-79.9" font-family="Consolas" font-size="12.00">ES3UserType_MedBayRoom()</text>
<text text-anchor="start" x="22.5" y="-62.9" font-family="Consolas" font-size="12.00">#</text>
<text text-anchor="start" x="34.5" y="-62.9" font-family="Consolas" font-size="12.00">override void WriteComponent</text>
<text text-anchor="start" x="34.5" y="-49.9" font-family="Consolas" font-size="12.00">(object obj, ES3Writer writer)</text>
<text text-anchor="start" x="22.5" y="-32.9" font-family="Consolas" font-size="12.00">#</text>
<text text-anchor="start" x="34.5" y="-32.9" font-family="Consolas" font-size="12.00">override void ReadComponent</text>
<text text-anchor="start" x="34.5" y="-19.9" font-family="Consolas" font-size="12.00">&lt; T &gt;(ES3Reader reader,</text>
<text text-anchor="start" x="34.5" y="-6.9" font-family="Consolas" font-size="12.00"> object obj)</text>
<polygon fill="#666666" stroke="#666666" points="18.5,-108.5 18.5,-108.5 264.5,-108.5 264.5,-108.5 18.5,-108.5"/>
<polygon fill="#666666" stroke="#666666" points="18.5,-91.5 18.5,-91.5 32.5,-91.5 32.5,-91.5 18.5,-91.5"/>
<polygon fill="#666666" stroke="#666666" points="32.5,-91.5 32.5,-91.5 264.5,-91.5 264.5,-91.5 32.5,-91.5"/>
<polygon fill="none" stroke="#666666" points="18.5,0 18.5,-141 264.5,-141 264.5,0 18.5,0"/>
</a>
</g>
</g>
<!-- Node2 -->
<g id="Node000002" class="node">
<title>Node2</title>
<g id="a_Node000002"><a xlink:href="classES3Types_1_1ES3ComponentType.html" target="_top" xlink:title=" ">
<polygon fill="white" stroke="transparent" points="283,-537 0,-537 0,-177 283,-177 283,-537"/>
<text text-anchor="start" x="81.5" y="-523.4" font-family="Consolas" font-size="12.00">ES3ComponentType</text>
<text text-anchor="start" x="4.5" y="-506.4" font-family="Consolas" font-size="12.00">#</text>
<text text-anchor="start" x="16.5" y="-506.4" font-family="Consolas" font-size="12.00">const string gameObjectPropertyName</text>
<text text-anchor="start" x="4.5" y="-489.4" font-family="Consolas" font-size="12.00">+</text>
<text text-anchor="start" x="16.5" y="-489.4" font-family="Consolas" font-size="12.00">ES3ComponentType(Type</text>
<text text-anchor="start" x="16.5" y="-476.4" font-family="Consolas" font-size="12.00"> type)</text>
<text text-anchor="start" x="4.5" y="-459.4" font-family="Consolas" font-size="12.00">+</text>
<text text-anchor="start" x="16.5" y="-459.4" font-family="Consolas" font-size="12.00">static Component CreateComponent</text>
<text text-anchor="start" x="16.5" y="-446.4" font-family="Consolas" font-size="12.00">(Type type)</text>
<text text-anchor="start" x="4.5" y="-429.4" font-family="Consolas" font-size="12.00">#</text>
<text text-anchor="start" x="16.5" y="-429.4" font-family="Consolas" font-size="12.00">void WriteComponent</text>
<text text-anchor="start" x="16.5" y="-416.4" font-family="Consolas" font-size="12.00">(object obj, ES3Writer</text>
<text text-anchor="start" x="16.5" y="-403.4" font-family="Consolas" font-size="12.00"> writer)</text>
<text text-anchor="start" x="4.5" y="-386.4" font-family="Consolas" font-size="12.00">#</text>
<text text-anchor="start" x="16.5" y="-386.4" font-family="Consolas" font-size="12.00">void ReadComponent</text>
<text text-anchor="start" x="16.5" y="-373.4" font-family="Consolas" font-size="12.00">&lt; T &gt;(ES3Reader reader,</text>
<text text-anchor="start" x="16.5" y="-360.4" font-family="Consolas" font-size="12.00"> object obj)</text>
<text text-anchor="start" x="4.5" y="-343.4" font-family="Consolas" font-size="12.00">#</text>
<text text-anchor="start" x="16.5" y="-343.4" font-family="Consolas" font-size="12.00">override void WriteUnity</text>
<text text-anchor="start" x="16.5" y="-330.4" font-family="Consolas" font-size="12.00">Object(object obj, ES3Writer</text>
<text text-anchor="start" x="16.5" y="-317.4" font-family="Consolas" font-size="12.00"> writer)</text>
<text text-anchor="start" x="4.5" y="-300.4" font-family="Consolas" font-size="12.00">#</text>
<text text-anchor="start" x="16.5" y="-300.4" font-family="Consolas" font-size="12.00">override void ReadUnityObject</text>
<text text-anchor="start" x="16.5" y="-287.4" font-family="Consolas" font-size="12.00">&lt; T &gt;(ES3Reader reader, object obj)</text>
<text text-anchor="start" x="4.5" y="-270.4" font-family="Consolas" font-size="12.00">#</text>
<text text-anchor="start" x="16.5" y="-270.4" font-family="Consolas" font-size="12.00">override object ReadUnity</text>
<text text-anchor="start" x="16.5" y="-257.4" font-family="Consolas" font-size="12.00">Object&lt; T &gt;(ES3Reader reader)</text>
<text text-anchor="start" x="4.5" y="-240.4" font-family="Consolas" font-size="12.00">#</text>
<text text-anchor="start" x="16.5" y="-240.4" font-family="Consolas" font-size="12.00">override object ReadObject</text>
<text text-anchor="start" x="16.5" y="-227.4" font-family="Consolas" font-size="12.00">&lt; T &gt;(ES3Reader reader)</text>
<text text-anchor="start" x="4.5" y="-210.4" font-family="Consolas" font-size="12.00">&#45;</text>
<text text-anchor="start" x="16.5" y="-210.4" font-family="Consolas" font-size="12.00">static Component GetOrAdd</text>
<text text-anchor="start" x="16.5" y="-197.4" font-family="Consolas" font-size="12.00">Component(GameObject go,</text>
<text text-anchor="start" x="16.5" y="-184.4" font-family="Consolas" font-size="12.00"> Type type)</text>
<polygon fill="#bfbfbf" stroke="#bfbfbf" points="0.5,-518 0.5,-518 283.5,-518 283.5,-518 0.5,-518"/>
<polygon fill="#bfbfbf" stroke="#bfbfbf" points="0.5,-501 0.5,-501 14.5,-501 14.5,-501 0.5,-501"/>
<polygon fill="#bfbfbf" stroke="#bfbfbf" points="14.5,-501 14.5,-501 283.5,-501 283.5,-501 14.5,-501"/>
<polygon fill="none" stroke="#bfbfbf" points="0,-177 0,-537 283,-537 283,-177 0,-177"/>
</a>
</g>
</g>
<!-- Node2&#45;&gt;Node1 -->
<g id="edge1_Node000001_Node000002" class="edge">
<title>Node2&#45;&gt;Node1</title>
<g id="a_edge1_Node000001_Node000002"><a xlink:title=" ">
<path fill="none" stroke="#63b8ff" d="M141.5,-166.62C141.5,-157.86 141.5,-149.36 141.5,-141.28"/>
<polygon fill="none" stroke="#63b8ff" points="138,-166.63 141.5,-176.63 145,-166.63 138,-166.63"/>
</a>
</g>
</g>
<!-- Node3 -->
<g id="Node000003" class="node">
<title>Node3</title>
<g id="a_Node000003"><a xlink:href="classES3Types_1_1ES3UnityObjectType.html" target="_top" xlink:title=" ">
<polygon fill="white" stroke="transparent" points="272,-959 11,-959 11,-573 272,-573 272,-959"/>
<text text-anchor="start" x="74" y="-945.4" font-family="Consolas" font-size="12.00">ES3UnityObjectType</text>
<text text-anchor="start" x="138" y="-928.4" font-family="Consolas" font-size="12.00"> </text>
<text text-anchor="start" x="15.5" y="-911.4" font-family="Consolas" font-size="12.00">+</text>
<text text-anchor="start" x="27.5" y="-911.4" font-family="Consolas" font-size="12.00">ES3UnityObjectType</text>
<text text-anchor="start" x="27.5" y="-898.4" font-family="Consolas" font-size="12.00">(Type type)</text>
<text text-anchor="start" x="15.5" y="-881.4" font-family="Consolas" font-size="12.00">+</text>
<text text-anchor="start" x="27.5" y="-881.4" font-family="Consolas" font-size="12.00">virtual void WriteObject</text>
<text text-anchor="start" x="27.5" y="-868.4" font-family="Consolas" font-size="12.00">(object obj, ES3Writer</text>
<text text-anchor="start" x="27.5" y="-855.4" font-family="Consolas" font-size="12.00"> writer, ES3.ReferenceMode mode)</text>
<text text-anchor="start" x="15.5" y="-838.4" font-family="Consolas" font-size="12.00">#</text>
<text text-anchor="start" x="27.5" y="-838.4" font-family="Consolas" font-size="12.00">void WriteUnityObject</text>
<text text-anchor="start" x="27.5" y="-825.4" font-family="Consolas" font-size="12.00">(object obj, ES3Writer</text>
<text text-anchor="start" x="27.5" y="-812.4" font-family="Consolas" font-size="12.00"> writer)</text>
<text text-anchor="start" x="15.5" y="-795.4" font-family="Consolas" font-size="12.00">#</text>
<text text-anchor="start" x="27.5" y="-795.4" font-family="Consolas" font-size="12.00">void ReadUnityObject</text>
<text text-anchor="start" x="27.5" y="-782.4" font-family="Consolas" font-size="12.00">&lt; T &gt;(ES3Reader reader,</text>
<text text-anchor="start" x="27.5" y="-769.4" font-family="Consolas" font-size="12.00"> object obj)</text>
<text text-anchor="start" x="15.5" y="-752.4" font-family="Consolas" font-size="12.00">#</text>
<text text-anchor="start" x="27.5" y="-752.4" font-family="Consolas" font-size="12.00">object ReadUnityObject</text>
<text text-anchor="start" x="27.5" y="-739.4" font-family="Consolas" font-size="12.00">&lt; T &gt;(ES3Reader reader)</text>
<text text-anchor="start" x="15.5" y="-722.4" font-family="Consolas" font-size="12.00">#</text>
<text text-anchor="start" x="27.5" y="-722.4" font-family="Consolas" font-size="12.00">override void WriteObject</text>
<text text-anchor="start" x="27.5" y="-709.4" font-family="Consolas" font-size="12.00">(object obj, ES3Writer</text>
<text text-anchor="start" x="27.5" y="-696.4" font-family="Consolas" font-size="12.00"> writer)</text>
<text text-anchor="start" x="15.5" y="-679.4" font-family="Consolas" font-size="12.00">#</text>
<text text-anchor="start" x="27.5" y="-679.4" font-family="Consolas" font-size="12.00">override void ReadObject</text>
<text text-anchor="start" x="27.5" y="-666.4" font-family="Consolas" font-size="12.00">&lt; T &gt;(ES3Reader reader,</text>
<text text-anchor="start" x="27.5" y="-653.4" font-family="Consolas" font-size="12.00"> object obj)</text>
<text text-anchor="start" x="15.5" y="-636.4" font-family="Consolas" font-size="12.00">#</text>
<text text-anchor="start" x="27.5" y="-636.4" font-family="Consolas" font-size="12.00">override object ReadObject</text>
<text text-anchor="start" x="27.5" y="-623.4" font-family="Consolas" font-size="12.00">&lt; T &gt;(ES3Reader reader)</text>
<text text-anchor="start" x="15.5" y="-606.4" font-family="Consolas" font-size="12.00">#</text>
<text text-anchor="start" x="27.5" y="-606.4" font-family="Consolas" font-size="12.00">bool WriteUsingDerivedType</text>
<text text-anchor="start" x="27.5" y="-593.4" font-family="Consolas" font-size="12.00">(object obj, ES3Writer writer,</text>
<text text-anchor="start" x="27.5" y="-580.4" font-family="Consolas" font-size="12.00"> ES3.ReferenceMode mode)</text>
<polygon fill="#bfbfbf" stroke="#bfbfbf" points="11.5,-940 11.5,-940 272.5,-940 272.5,-940 11.5,-940"/>
<polygon fill="#bfbfbf" stroke="#bfbfbf" points="11.5,-923 11.5,-923 272.5,-923 272.5,-923 11.5,-923"/>
<polygon fill="none" stroke="#bfbfbf" points="11,-573 11,-959 272,-959 272,-573 11,-573"/>
</a>
</g>
</g>
<!-- Node3&#45;&gt;Node2 -->
<g id="edge2_Node000002_Node000003" class="edge">
<title>Node3&#45;&gt;Node2</title>
<g id="a_edge2_Node000002_Node000003"><a xlink:title=" ">
<path fill="none" stroke="#63b8ff" d="M141.5,-562.74C141.5,-554.15 141.5,-545.55 141.5,-537.02"/>
<polygon fill="none" stroke="#63b8ff" points="138,-562.82 141.5,-572.82 145,-562.82 138,-562.82"/>
</a>
</g>
</g>
<!-- Node4 -->
<g id="Node000004" class="node">
<title>Node4</title>
<g id="a_Node000004"><a xlink:href="classES3Types_1_1ES3ObjectType.html" target="_top" xlink:title=" ">
<polygon fill="white" stroke="transparent" points="238,-1282 45,-1282 45,-995 238,-995 238,-1282"/>
<text text-anchor="start" x="93" y="-1267.9" font-family="Consolas" font-size="12.00">ES3ObjectType</text>
<text text-anchor="start" x="138" y="-1250.9" font-family="Consolas" font-size="12.00"> </text>
<text text-anchor="start" x="49.5" y="-1233.9" font-family="Consolas" font-size="12.00">+</text>
<text text-anchor="start" x="61.5" y="-1233.9" font-family="Consolas" font-size="12.00">ES3ObjectType(Type</text>
<text text-anchor="start" x="61.5" y="-1220.9" font-family="Consolas" font-size="12.00"> type)</text>
<text text-anchor="start" x="49.5" y="-1203.9" font-family="Consolas" font-size="12.00">+</text>
<text text-anchor="start" x="61.5" y="-1203.9" font-family="Consolas" font-size="12.00">override void Write</text>
<text text-anchor="start" x="61.5" y="-1190.9" font-family="Consolas" font-size="12.00">(object obj, ES3Writer</text>
<text text-anchor="start" x="61.5" y="-1177.9" font-family="Consolas" font-size="12.00"> writer)</text>
<text text-anchor="start" x="49.5" y="-1160.9" font-family="Consolas" font-size="12.00">+</text>
<text text-anchor="start" x="61.5" y="-1160.9" font-family="Consolas" font-size="12.00">override object Read</text>
<text text-anchor="start" x="61.5" y="-1147.9" font-family="Consolas" font-size="12.00">&lt; T &gt;(ES3Reader reader)</text>
<text text-anchor="start" x="49.5" y="-1130.9" font-family="Consolas" font-size="12.00">+</text>
<text text-anchor="start" x="61.5" y="-1130.9" font-family="Consolas" font-size="12.00">override void ReadInto</text>
<text text-anchor="start" x="61.5" y="-1117.9" font-family="Consolas" font-size="12.00">&lt; T &gt;(ES3Reader reader,</text>
<text text-anchor="start" x="61.5" y="-1104.9" font-family="Consolas" font-size="12.00"> object obj)</text>
<text text-anchor="start" x="49.5" y="-1087.9" font-family="Consolas" font-size="12.00">#</text>
<text text-anchor="start" x="61.5" y="-1087.9" font-family="Consolas" font-size="12.00">void WriteObject(object</text>
<text text-anchor="start" x="61.5" y="-1074.9" font-family="Consolas" font-size="12.00"> obj, ES3Writer writer)</text>
<text text-anchor="start" x="49.5" y="-1057.9" font-family="Consolas" font-size="12.00">#</text>
<text text-anchor="start" x="61.5" y="-1057.9" font-family="Consolas" font-size="12.00">object ReadObject&lt;</text>
<text text-anchor="start" x="61.5" y="-1044.9" font-family="Consolas" font-size="12.00"> T &gt;(ES3Reader reader)</text>
<text text-anchor="start" x="49.5" y="-1027.9" font-family="Consolas" font-size="12.00">#</text>
<text text-anchor="start" x="61.5" y="-1027.9" font-family="Consolas" font-size="12.00">virtual void ReadObject</text>
<text text-anchor="start" x="61.5" y="-1014.9" font-family="Consolas" font-size="12.00">&lt; T &gt;(ES3Reader reader,</text>
<text text-anchor="start" x="61.5" y="-1001.9" font-family="Consolas" font-size="12.00"> object obj)</text>
<polygon fill="#bfbfbf" stroke="#bfbfbf" points="45.5,-1262.5 45.5,-1262.5 238.5,-1262.5 238.5,-1262.5 45.5,-1262.5"/>
<polygon fill="#bfbfbf" stroke="#bfbfbf" points="45.5,-1245.5 45.5,-1245.5 238.5,-1245.5 238.5,-1245.5 45.5,-1245.5"/>
<polygon fill="none" stroke="#bfbfbf" points="45,-995 45,-1282 238,-1282 238,-995 45,-995"/>
</a>
</g>
</g>
<!-- Node4&#45;&gt;Node3 -->
<g id="edge3_Node000003_Node000004" class="edge">
<title>Node4&#45;&gt;Node3</title>
<g id="a_edge3_Node000003_Node000004"><a xlink:title=" ">
<path fill="none" stroke="#63b8ff" d="M141.5,-984.57C141.5,-976.15 141.5,-967.63 141.5,-959.1"/>
<polygon fill="none" stroke="#63b8ff" points="138,-984.78 141.5,-994.78 145,-984.79 138,-984.78"/>
</a>
</g>
</g>
<!-- Node5 -->
<g id="Node000005" class="node">
<title>Node5</title>
<g id="a_Node000005"><a xlink:href="classES3Types_1_1ES3Type.html" target="_top" xlink:title=" ">
<polygon fill="white" stroke="transparent" points="264.5,-1916 18.5,-1916 18.5,-1318 264.5,-1318 264.5,-1916"/>
<text text-anchor="start" x="115" y="-1902.4" font-family="Consolas" font-size="12.00">ES3Type</text>
<text text-anchor="start" x="22.5" y="-1885.4" font-family="Consolas" font-size="12.00">+</text>
<text text-anchor="start" x="34.5" y="-1885.4" font-family="Consolas" font-size="12.00">ES3Member[] members</text>
<text text-anchor="start" x="22.5" y="-1868.4" font-family="Consolas" font-size="12.00">+</text>
<text text-anchor="start" x="34.5" y="-1868.4" font-family="Consolas" font-size="12.00">Type type</text>
<text text-anchor="start" x="22.5" y="-1851.4" font-family="Consolas" font-size="12.00">+</text>
<text text-anchor="start" x="34.5" y="-1851.4" font-family="Consolas" font-size="12.00">bool isPrimitive</text>
<text text-anchor="start" x="22.5" y="-1834.4" font-family="Consolas" font-size="12.00">+</text>
<text text-anchor="start" x="34.5" y="-1834.4" font-family="Consolas" font-size="12.00">bool isValueType</text>
<text text-anchor="start" x="22.5" y="-1817.4" font-family="Consolas" font-size="12.00">+</text>
<text text-anchor="start" x="34.5" y="-1817.4" font-family="Consolas" font-size="12.00">bool isCollection</text>
<text text-anchor="start" x="22.5" y="-1800.4" font-family="Consolas" font-size="12.00">+</text>
<text text-anchor="start" x="34.5" y="-1800.4" font-family="Consolas" font-size="12.00">bool isDictionary</text>
<text text-anchor="start" x="22.5" y="-1783.4" font-family="Consolas" font-size="12.00">+</text>
<text text-anchor="start" x="34.5" y="-1783.4" font-family="Consolas" font-size="12.00">bool isTuple</text>
<text text-anchor="start" x="22.5" y="-1766.4" font-family="Consolas" font-size="12.00">+</text>
<text text-anchor="start" x="34.5" y="-1766.4" font-family="Consolas" font-size="12.00">bool isEnum</text>
<text text-anchor="start" x="22.5" y="-1749.4" font-family="Consolas" font-size="12.00">+</text>
<text text-anchor="start" x="34.5" y="-1749.4" font-family="Consolas" font-size="12.00">bool isES3TypeUnityObject</text>
<text text-anchor="start" x="22.5" y="-1732.4" font-family="Consolas" font-size="12.00">+</text>
<text text-anchor="start" x="34.5" y="-1732.4" font-family="Consolas" font-size="12.00">bool isReflectedType</text>
<text text-anchor="start" x="22.5" y="-1715.4" font-family="Consolas" font-size="12.00">+</text>
<text text-anchor="start" x="34.5" y="-1715.4" font-family="Consolas" font-size="12.00">bool isUnsupported</text>
<text text-anchor="start" x="22.5" y="-1698.4" font-family="Consolas" font-size="12.00">+</text>
<text text-anchor="start" x="34.5" y="-1698.4" font-family="Consolas" font-size="12.00">int priority</text>
<text text-anchor="start" x="22.5" y="-1681.4" font-family="Consolas" font-size="12.00">+</text>
<text text-anchor="start" x="34.5" y="-1681.4" font-family="Consolas" font-size="12.00">const string typeFieldName</text>
<text text-anchor="start" x="22.5" y="-1664.4" font-family="Consolas" font-size="12.00">+</text>
<text text-anchor="start" x="34.5" y="-1664.4" font-family="Consolas" font-size="12.00">void Write(object obj,</text>
<text text-anchor="start" x="34.5" y="-1651.4" font-family="Consolas" font-size="12.00"> ES3Writer writer)</text>
<text text-anchor="start" x="22.5" y="-1634.4" font-family="Consolas" font-size="12.00">+</text>
<text text-anchor="start" x="34.5" y="-1634.4" font-family="Consolas" font-size="12.00">object Read&lt; T &gt;(ES3Reader</text>
<text text-anchor="start" x="34.5" y="-1621.4" font-family="Consolas" font-size="12.00"> reader)</text>
<text text-anchor="start" x="22.5" y="-1604.4" font-family="Consolas" font-size="12.00">+</text>
<text text-anchor="start" x="34.5" y="-1604.4" font-family="Consolas" font-size="12.00">virtual void ReadInto</text>
<text text-anchor="start" x="34.5" y="-1591.4" font-family="Consolas" font-size="12.00">&lt; T &gt;(ES3Reader reader,</text>
<text text-anchor="start" x="34.5" y="-1578.4" font-family="Consolas" font-size="12.00"> object obj)</text>
<text text-anchor="start" x="22.5" y="-1561.4" font-family="Consolas" font-size="12.00">~</text>
<text text-anchor="start" x="34.5" y="-1561.4" font-family="Consolas" font-size="12.00">string ReadPropertyName</text>
<text text-anchor="start" x="34.5" y="-1548.4" font-family="Consolas" font-size="12.00">(ES3Reader reader)</text>
<text text-anchor="start" x="22.5" y="-1531.4" font-family="Consolas" font-size="12.00">#</text>
<text text-anchor="start" x="34.5" y="-1531.4" font-family="Consolas" font-size="12.00">ES3Type(Type type)</text>
<text text-anchor="start" x="22.5" y="-1514.4" font-family="Consolas" font-size="12.00">#</text>
<text text-anchor="start" x="34.5" y="-1514.4" font-family="Consolas" font-size="12.00">bool WriteUsingDerivedType</text>
<text text-anchor="start" x="34.5" y="-1501.4" font-family="Consolas" font-size="12.00">(object obj, ES3Writer writer)</text>
<text text-anchor="start" x="22.5" y="-1484.4" font-family="Consolas" font-size="12.00">#</text>
<text text-anchor="start" x="34.5" y="-1484.4" font-family="Consolas" font-size="12.00">void ReadUsingDerivedType</text>
<text text-anchor="start" x="34.5" y="-1471.4" font-family="Consolas" font-size="12.00">&lt; T &gt;(ES3Reader reader,</text>
<text text-anchor="start" x="34.5" y="-1458.4" font-family="Consolas" font-size="12.00"> object obj)</text>
<text text-anchor="start" x="22.5" y="-1441.4" font-family="Consolas" font-size="12.00">#</text>
<text text-anchor="start" x="34.5" y="-1441.4" font-family="Consolas" font-size="12.00">void WriteProperties</text>
<text text-anchor="start" x="34.5" y="-1428.4" font-family="Consolas" font-size="12.00">(object obj, ES3Writer</text>
<text text-anchor="start" x="34.5" y="-1415.4" font-family="Consolas" font-size="12.00"> writer)</text>
<text text-anchor="start" x="22.5" y="-1398.4" font-family="Consolas" font-size="12.00">#</text>
<text text-anchor="start" x="34.5" y="-1398.4" font-family="Consolas" font-size="12.00">object ReadProperties</text>
<text text-anchor="start" x="34.5" y="-1385.4" font-family="Consolas" font-size="12.00">(ES3Reader reader, object obj)</text>
<text text-anchor="start" x="22.5" y="-1368.4" font-family="Consolas" font-size="12.00">#</text>
<text text-anchor="start" x="34.5" y="-1368.4" font-family="Consolas" font-size="12.00">void GetMembers(bool</text>
<text text-anchor="start" x="34.5" y="-1355.4" font-family="Consolas" font-size="12.00"> safe)</text>
<text text-anchor="start" x="22.5" y="-1338.4" font-family="Consolas" font-size="12.00">#</text>
<text text-anchor="start" x="34.5" y="-1338.4" font-family="Consolas" font-size="12.00">void GetMembers(bool</text>
<text text-anchor="start" x="34.5" y="-1325.4" font-family="Consolas" font-size="12.00"> safe, string[] memberNames)</text>
<polygon fill="#bfbfbf" stroke="#bfbfbf" points="18.5,-1897 18.5,-1897 264.5,-1897 264.5,-1897 18.5,-1897"/>
<polygon fill="#bfbfbf" stroke="#bfbfbf" points="18.5,-1676 18.5,-1676 32.5,-1676 32.5,-1676 18.5,-1676"/>
<polygon fill="#bfbfbf" stroke="#bfbfbf" points="32.5,-1676 32.5,-1676 264.5,-1676 264.5,-1676 32.5,-1676"/>
<polygon fill="none" stroke="#bfbfbf" points="18.5,-1318 18.5,-1916 264.5,-1916 264.5,-1318 18.5,-1318"/>
</a>
</g>
</g>
<!-- Node5&#45;&gt;Node4 -->
<g id="edge4_Node000004_Node000005" class="edge">
<title>Node5&#45;&gt;Node4</title>
<g id="a_edge4_Node000004_Node000005"><a xlink:title=" ">
<path fill="none" stroke="#63b8ff" d="M141.5,-1307.7C141.5,-1299.02 141.5,-1290.48 141.5,-1282.13"/>
<polygon fill="none" stroke="#63b8ff" points="138,-1307.95 141.5,-1317.95 145,-1307.95 138,-1307.95"/>
</a>
</g>
</g>
</g>
</svg>

<g id="navigator" transform="translate(0 0)" fill="#404254">
  <rect fill="#f2f5e9" fill-opacity="0.5" stroke="#606060" stroke-width=".5" x="0" y="0" width="60" height="60"/>
  <use id="zoomplus" xlink:href="#zoomPlus" x="17" y="9" onmousedown="handleZoom(evt,'in')"/>
  <use id="zoomminus" xlink:href="#zoomMin" x="42" y="9" onmousedown="handleZoom(evt,'out')"/>
  <use id="reset" xlink:href="#resetDef" x="30" y="36" onmousedown="handleReset()"/>
   <use id="arrowup" xlink:href="#arrowUp" x="0" y="0" onmousedown="handlePan(0,-1)"/>
  <use id="arrowright" xlink:href="#arrowRight" x="0" y="0" onmousedown="handlePan(1,0)"/>
  <use id="arrowdown" xlink:href="#arrowDown" x="0" y="0" onmousedown="handlePan(0,1)"/>
  <use id="arrowleft" xlink:href="#arrowLeft" x="0" y="0" onmousedown="handlePan(-1,0)"/>
</g>
<svg viewBox="0 0 15 15" width="100%" height="30px" preserveAspectRatio="xMaxYMin meet">
 <g id="arrow_out" transform="scale(0.3 0.3)">
  <a xlink:href="classES3Types_1_1ES3UserType__MedBayRoom__inherit__graph_org.svg" target="_base">
   <rect id="button" ry="5" rx="5" y="6" x="6" height="38" width="38"
        fill="#f2f5e9" fill-opacity="0.5" stroke="#606060" stroke-width="1.0"/>
   <path id="arrow"
     d="M 11.500037,31.436501 C 11.940474,20.09759 22.043105,11.32322 32.158766,21.979434 L 37.068811,17.246167 C 37.068811,17.246167 37.088388,32 37.088388,32 L 22.160133,31.978069 C 22.160133,31.978069 26.997745,27.140456 26.997745,27.140456 C 18.528582,18.264221 13.291696,25.230495 11.500037,31.436501 z"
     style="fill:#404040;"/>
  </a>
 </g>
</svg>

<style type='text/css'>
<![CDATA[
[data-mouse-over-selected='false'] { opacity: 0.7; }
[data-mouse-over-selected='true']  { opacity: 1.0; }
]]>
</style>
<script type="application/ecmascript"><![CDATA[
document.addEventListener('DOMContentLoaded', (event) => {
  highlightEdges();
  highlightAdjacentNodes();
});
]]></script>
</svg>
