<?xml version="1.0" encoding="UTF-8" standalone="no"?>
<!DOCTYPE svg PUBLIC "-//W3C//DTD SVG 1.1//EN"
 "http://www.w3.org/Graphics/SVG/1.1/DTD/svg11.dtd">
<!-- Generated by graphviz version 2.43.0 (0)
 -->
<!-- Title: Door Pages: 1 -->
<svg width="329pt" height="631pt"
 viewBox="0.00 0.00 329.00 631.00" xmlns="http://www.w3.org/2000/svg" xmlns:xlink="http://www.w3.org/1999/xlink">
<g id="graph0" class="graph" transform="scale(1 1) rotate(0) translate(4 627)">
<title>Door</title>
<!-- Node1 -->
<g id="Node000001" class="node">
<title>Node1</title>
<g id="a_Node000001"><a xlink:title="방에 부착되어 있는 문 객체입니다.">
<polygon fill="#999999" stroke="transparent" points="321,-532 0,-532 0,0 321,0 321,-532"/>
<text text-anchor="start" x="145.5" y="-518.4" font-family="Consolas" font-size="12.00">Door</text>
<text text-anchor="start" x="4.5" y="-501.4" font-family="Consolas" font-size="12.00">+</text>
<text text-anchor="start" x="16.5" y="-501.4" font-family="Consolas" font-size="12.00">DoorDirection Direction</text>
<text text-anchor="start" x="4.5" y="-484.4" font-family="Consolas" font-size="12.00">+</text>
<text text-anchor="start" x="16.5" y="-484.4" font-family="Consolas" font-size="12.00">Vector2Int OriginalGridPosition</text>
<text text-anchor="start" x="4.5" y="-467.4" font-family="Consolas" font-size="12.00">+</text>
<text text-anchor="start" x="16.5" y="-467.4" font-family="Consolas" font-size="12.00">DoorDirection OriginalDirection</text>
<text text-anchor="start" x="4.5" y="-450.4" font-family="Consolas" font-size="12.00">&#45;</text>
<text text-anchor="start" x="16.5" y="-450.4" font-family="Consolas" font-size="12.00">DoorData doorData</text>
<text text-anchor="start" x="4.5" y="-433.4" font-family="Consolas" font-size="12.00">&#45;</text>
<text text-anchor="start" x="16.5" y="-433.4" font-family="Consolas" font-size="12.00">int currentLevel</text>
<text text-anchor="start" x="4.5" y="-416.4" font-family="Consolas" font-size="12.00">&#45;</text>
<text text-anchor="start" x="16.5" y="-416.4" font-family="Consolas" font-size="12.00">DoorDirection direction</text>
<text text-anchor="start" x="4.5" y="-399.4" font-family="Consolas" font-size="12.00">&#45;</text>
<text text-anchor="start" x="16.5" y="-399.4" font-family="Consolas" font-size="12.00">bool isOpen</text>
<text text-anchor="start" x="4.5" y="-382.4" font-family="Consolas" font-size="12.00">&#45;</text>
<text text-anchor="start" x="16.5" y="-382.4" font-family="Consolas" font-size="12.00">Vector2Int originalGridPosition</text>
<text text-anchor="start" x="4.5" y="-365.4" font-family="Consolas" font-size="12.00">&#45;</text>
<text text-anchor="start" x="16.5" y="-365.4" font-family="Consolas" font-size="12.00">DoorDirection originalDirection</text>
<text text-anchor="start" x="4.5" y="-348.4" font-family="Consolas" font-size="12.00">&#45;</text>
<text text-anchor="start" x="16.5" y="-348.4" font-family="Consolas" font-size="12.00">float passTimer</text>
<text text-anchor="start" x="4.5" y="-331.4" font-family="Consolas" font-size="12.00">&#45;</text>
<text text-anchor="start" x="16.5" y="-331.4" font-family="Consolas" font-size="12.00">int currentHitPoint</text>
<text text-anchor="start" x="4.5" y="-314.4" font-family="Consolas" font-size="12.00">&#45;</text>
<text text-anchor="start" x="16.5" y="-314.4" font-family="Consolas" font-size="12.00">SpriteRenderer spriteRenderer</text>
<text text-anchor="start" x="4.5" y="-297.4" font-family="Consolas" font-size="12.00">&#45;</text>
<text text-anchor="start" x="16.5" y="-297.4" font-family="Consolas" font-size="12.00">Animator animator</text>
<text text-anchor="start" x="4.5" y="-280.4" font-family="Consolas" font-size="12.00">&#45;</text>
<text text-anchor="start" x="16.5" y="-280.4" font-family="Consolas" font-size="12.00">AudioSource audioSource</text>
<text text-anchor="start" x="4.5" y="-263.4" font-family="Consolas" font-size="12.00">+</text>
<text text-anchor="start" x="16.5" y="-263.4" font-family="Consolas" font-size="12.00">void Initialize(DoorData</text>
<text text-anchor="start" x="16.5" y="-250.4" font-family="Consolas" font-size="12.00"> doorData, int level, DoorDirection dir)</text>
<text text-anchor="start" x="4.5" y="-233.4" font-family="Consolas" font-size="12.00">+</text>
<text text-anchor="start" x="16.5" y="-233.4" font-family="Consolas" font-size="12.00">void SetDirection(DoorDirection</text>
<text text-anchor="start" x="16.5" y="-220.4" font-family="Consolas" font-size="12.00"> newDirection)</text>
<text text-anchor="start" x="4.5" y="-203.4" font-family="Consolas" font-size="12.00">+</text>
<text text-anchor="start" x="16.5" y="-203.4" font-family="Consolas" font-size="12.00">void RotateDirectionClockwise()</text>
<text text-anchor="start" x="4.5" y="-186.4" font-family="Consolas" font-size="12.00">+</text>
<text text-anchor="start" x="16.5" y="-186.4" font-family="Consolas" font-size="12.00">void SetGridPosition</text>
<text text-anchor="start" x="16.5" y="-173.4" font-family="Consolas" font-size="12.00">(Vector2Int newPosition)</text>
<text text-anchor="start" x="4.5" y="-156.4" font-family="Consolas" font-size="12.00">+</text>
<text text-anchor="start" x="16.5" y="-156.4" font-family="Consolas" font-size="12.00">bool TryOpenDoor(bool</text>
<text text-anchor="start" x="16.5" y="-143.4" font-family="Consolas" font-size="12.00"> bypassCooldown=false)</text>
<text text-anchor="start" x="4.5" y="-126.4" font-family="Consolas" font-size="12.00">+</text>
<text text-anchor="start" x="16.5" y="-126.4" font-family="Consolas" font-size="12.00">void CloseDoor()</text>
<text text-anchor="start" x="4.5" y="-109.4" font-family="Consolas" font-size="12.00">&#45;</text>
<text text-anchor="start" x="16.5" y="-109.4" font-family="Consolas" font-size="12.00">void Awake()</text>
<text text-anchor="start" x="4.5" y="-92.4" font-family="Consolas" font-size="12.00">&#45;</text>
<text text-anchor="start" x="16.5" y="-92.4" font-family="Consolas" font-size="12.00">void Start()</text>
<text text-anchor="start" x="4.5" y="-75.4" font-family="Consolas" font-size="12.00">&#45;</text>
<text text-anchor="start" x="16.5" y="-75.4" font-family="Consolas" font-size="12.00">void Update()</text>
<text text-anchor="start" x="4.5" y="-58.4" font-family="Consolas" font-size="12.00">&#45;</text>
<text text-anchor="start" x="16.5" y="-58.4" font-family="Consolas" font-size="12.00">void InitializeDoor()</text>
<text text-anchor="start" x="4.5" y="-41.4" font-family="Consolas" font-size="12.00">&#45;</text>
<text text-anchor="start" x="16.5" y="-41.4" font-family="Consolas" font-size="12.00">void SetDoorRotation()</text>
<text text-anchor="start" x="4.5" y="-24.4" font-family="Consolas" font-size="12.00">&#45;</text>
<text text-anchor="start" x="16.5" y="-24.4" font-family="Consolas" font-size="12.00">void CheckPowerRequirement()</text>
<text text-anchor="start" x="4.5" y="-7.4" font-family="Consolas" font-size="12.00">&#45;</text>
<text text-anchor="start" x="16.5" y="-7.4" font-family="Consolas" font-size="12.00">bool HasEnoughPower()</text>
<polygon fill="#666666" stroke="#666666" points="0.5,-513 0.5,-513 321.5,-513 321.5,-513 0.5,-513"/>
<polygon fill="#666666" stroke="#666666" points="0.5,-275 0.5,-275 14.5,-275 14.5,-275 0.5,-275"/>
<polygon fill="#666666" stroke="#666666" points="14.5,-275 14.5,-275 321.5,-275 321.5,-275 14.5,-275"/>
<polygon fill="none" stroke="#666666" points="0,0 0,-532 321,-532 321,0 0,0"/>
</a>
</g>
</g>
<!-- Node2 -->
<g id="Node000002" class="node">
<title>Node2</title>
<g id="a_Node000002"><a xlink:title=" ">
<polygon fill="white" stroke="transparent" points="214.5,-623 106.5,-623 106.5,-568 214.5,-568 214.5,-623"/>
<text text-anchor="start" x="111.5" y="-608.9" font-family="Consolas" font-size="12.00">MonoBehaviour</text>
<text text-anchor="start" x="156.5" y="-591.9" font-family="Consolas" font-size="12.00"> </text>
<text text-anchor="start" x="156.5" y="-574.9" font-family="Consolas" font-size="12.00"> </text>
<polygon fill="#bfbfbf" stroke="#bfbfbf" points="106.5,-603.5 106.5,-603.5 214.5,-603.5 214.5,-603.5 106.5,-603.5"/>
<polygon fill="#bfbfbf" stroke="#bfbfbf" points="106.5,-586.5 106.5,-586.5 214.5,-586.5 214.5,-586.5 106.5,-586.5"/>
<polygon fill="none" stroke="#bfbfbf" points="106.5,-568 106.5,-623 214.5,-623 214.5,-568 106.5,-568"/>
</a>
</g>
</g>
<!-- Node2&#45;&gt;Node1 -->
<g id="edge1_Node000001_Node000002" class="edge">
<title>Node2&#45;&gt;Node1</title>
<g id="a_edge1_Node000001_Node000002"><a xlink:title=" ">
<path fill="none" stroke="#63b8ff" d="M160.5,-557.77C160.5,-550.08 160.5,-541.42 160.5,-532.02"/>
<polygon fill="none" stroke="#63b8ff" points="157,-557.98 160.5,-567.98 164,-557.98 157,-557.98"/>
</a>
</g>
</g>
</g>
</svg>
