<?xml version="1.0" encoding="UTF-8" standalone="no"?>
<!DOCTYPE svg PUBLIC "-//W3C//DTD SVG 1.1//EN"
 "http://www.w3.org/Graphics/SVG/1.1/DTD/svg11.dtd">
<!-- Generated by graphviz version 2.43.0 (0)
 -->
<!-- Title: Ship.IsFullHitPoint Pages: 1 -->
<svg width="437pt" height="82pt"
 viewBox="0.00 0.00 437.00 81.50" xmlns="http://www.w3.org/2000/svg" xmlns:xlink="http://www.w3.org/1999/xlink">
<g id="graph0" class="graph" transform="scale(1 1) rotate(0) translate(4 77.5)">
<title>Ship.IsFullHitPoint</title>
<!-- Node1 -->
<g id="Node000001" class="node">
<title>Node1</title>
<g id="a_Node000001"><a xlink:title="현재 함선의 모든 방에 대해 내구도 100인지 여부 반환">
<polygon fill="#999999" stroke="#666666" points="429,-44 270,-44 270,-23 429,-23 429,-44"/>
<text text-anchor="middle" x="349.5" y="-30.4" font-family="Consolas" font-size="12.00">Ship.IsFullHitPoint</text>
</a>
</g>
</g>
<!-- Node2 -->
<g id="Node000002" class="node">
<title>Node2</title>
<g id="a_Node000002"><a xlink:href="classCustomize__2__Controller.html#ad190ea208317fc26a5c88d844be8922a" target="_top" xlink:title="현재 설계도의 가격 지속 갱신 설계도로 함선 교체 가능 조건">
<polygon fill="white" stroke="#666666" points="219,-73.5 15,-73.5 15,-39.5 219,-39.5 219,-73.5"/>
<text text-anchor="start" x="23" y="-59.9" font-family="Consolas" font-size="12.00">Customize_2_Controller.On</text>
<text text-anchor="middle" x="117" y="-46.9" font-family="Consolas" font-size="12.00">Enable</text>
</a>
</g>
</g>
<!-- Node1&#45;&gt;Node2 -->
<g id="edge1_Node000001_Node000002" class="edge">
<title>Node1&#45;&gt;Node2</title>
<g id="a_edge1_Node000001_Node000002"><a xlink:title=" ">
<path fill="none" stroke="#63b8ff" d="M259.76,-42.35C246.47,-43.68 232.68,-45.06 219.15,-46.41"/>
<polygon fill="#63b8ff" stroke="#63b8ff" points="260.22,-45.83 269.82,-41.35 259.52,-38.86 260.22,-45.83"/>
</a>
</g>
</g>
<!-- Node3 -->
<g id="Node000003" class="node">
<title>Node3</title>
<g id="a_Node000003"><a xlink:href="classCustomizeShipUIHandler.html#adde307bcbd691ffa7aef84998ef3f69a" target="_top" xlink:title="현재 설계도의 가격 지속 갱신 설계도로 함선 교체 가능 조건">
<polygon fill="white" stroke="#666666" points="234,-21 0,-21 0,0 234,0 234,-21"/>
<text text-anchor="middle" x="117" y="-7.4" font-family="Consolas" font-size="12.00">CustomizeShipUIHandler.Update</text>
</a>
</g>
</g>
<!-- Node1&#45;&gt;Node3 -->
<g id="edge2_Node000001_Node000003" class="edge">
<title>Node1&#45;&gt;Node3</title>
<g id="a_edge2_Node000001_Node000003"><a xlink:title=" ">
<path fill="none" stroke="#63b8ff" d="M259.86,-24.65C247.87,-23.46 235.47,-22.22 223.23,-21"/>
<polygon fill="#63b8ff" stroke="#63b8ff" points="259.52,-28.14 269.82,-25.65 260.22,-21.17 259.52,-28.14"/>
</a>
</g>
</g>
</g>
</svg>
