<?xml version="1.0" encoding="UTF-8" standalone="no"?>
<!DOCTYPE svg PUBLIC "-//W3C//DTD SVG 1.1//EN"
 "http://www.w3.org/Graphics/SVG/1.1/DTD/svg11.dtd">
<!-- Generated by graphviz version 2.43.0 (0)
 -->
<!-- Title: ES3.RenameFile Pages: 1 -->
<svg width="310pt" height="68pt"
 viewBox="0.00 0.00 310.00 68.00" xmlns="http://www.w3.org/2000/svg" xmlns:xlink="http://www.w3.org/1999/xlink">
<g id="graph0" class="graph" transform="scale(1 1) rotate(0) translate(4 64)">
<title>ES3.RenameFile</title>
<!-- Node1 -->
<g id="Node000001" class="node">
<title>Node1</title>
<g id="a_Node000001"><a xlink:title="Renames a file.">
<polygon fill="#999999" stroke="#666666" points="302,-40 180,-40 180,-19 302,-19 302,-40"/>
<text text-anchor="middle" x="241" y="-26.4" font-family="Consolas" font-size="12.00">ES3.RenameFile</text>
</a>
</g>
</g>
<!-- Node1&#45;&gt;Node1 -->
<g id="edge1_Node000001_Node000001" class="edge">
<title>Node1&#45;&gt;Node1</title>
<g id="a_edge1_Node000001_Node000001"><a xlink:title=" ">
<path fill="none" stroke="#63b8ff" d="M272.12,-49.21C270.08,-54.23 259.71,-58 241,-58 211.8,-58 202.9,-48.81 214.31,-40.02"/>
<polygon fill="#63b8ff" stroke="#63b8ff" points="275.19,-47.51 267.69,-40.02 268.89,-50.55 275.19,-47.51"/>
</a>
</g>
</g>
<!-- Node2 -->
<g id="Node000002" class="node">
<title>Node2</title>
<g id="a_Node000002"><a xlink:href="classES3.html#a6cf64a60a5b805debde982e6a3d3cf2f" target="_top" xlink:title="Renames a file.">
<polygon fill="white" stroke="#666666" points="133,-60 11,-60 11,-39 133,-39 133,-60"/>
<text text-anchor="middle" x="72" y="-46.4" font-family="Consolas" font-size="12.00">ES3.RenameFile</text>
</a>
</g>
</g>
<!-- Node1&#45;&gt;Node2 -->
<g id="edge2_Node000001_Node000002" class="edge">
<title>Node1&#45;&gt;Node2</title>
<g id="a_edge2_Node000001_Node000002"><a xlink:title=" ">
<path fill="none" stroke="#63b8ff" d="M169.64,-37.93C157.52,-39.38 145.02,-40.87 133.2,-42.29"/>
<polygon fill="#63b8ff" stroke="#63b8ff" points="170.2,-41.38 179.71,-36.72 169.36,-34.43 170.2,-41.38"/>
</a>
</g>
</g>
<!-- Node3 -->
<g id="Node000003" class="node">
<title>Node3</title>
<g id="a_Node000003"><a xlink:href="classES3.html#a05d1e47a259d390de967cd0c9bb3374c" target="_top" xlink:title="Restores a backup of a file.">
<polygon fill="white" stroke="#666666" points="144,-21 0,-21 0,0 144,0 144,-21"/>
<text text-anchor="middle" x="72" y="-7.4" font-family="Consolas" font-size="12.00">ES3.RestoreBackup</text>
</a>
</g>
</g>
<!-- Node1&#45;&gt;Node3 -->
<g id="edge3_Node000001_Node000003" class="edge">
<title>Node1&#45;&gt;Node3</title>
<g id="a_edge3_Node000001_Node000003"><a xlink:title=" ">
<path fill="none" stroke="#63b8ff" d="M169.52,-21.48C161.08,-20.52 152.46,-19.54 144,-18.58"/>
<polygon fill="#63b8ff" stroke="#63b8ff" points="169.38,-24.99 179.71,-22.64 170.17,-18.03 169.38,-24.99"/>
</a>
</g>
</g>
</g>
</svg>
