<?xml version="1.0" encoding="UTF-8" standalone="no"?>
<!DOCTYPE svg PUBLIC "-//W3C//DTD SVG 1.1//EN"
 "http://www.w3.org/Graphics/SVG/1.1/DTD/svg11.dtd">
<!-- Generated by graphviz version 2.43.0 (0)
 -->
<!-- Title: PlanetData Pages: 1 -->
<svg width="455pt" height="1661pt"
 viewBox="0.00 0.00 454.50 1661.00" xmlns="http://www.w3.org/2000/svg" xmlns:xlink="http://www.w3.org/1999/xlink">
<g id="graph0" class="graph" transform="scale(1 1) rotate(0) translate(4 1657)">
<title>PlanetData</title>
<!-- Node1 -->
<g id="Node000001" class="node">
<title>Node1</title>
<g id="a_Node000001"><a xlink:title="행성 데이터">
<polygon fill="#999999" stroke="transparent" points="278.5,-1136 2.5,-1136 2.5,0 278.5,0 278.5,-1136"/>
<text text-anchor="start" x="102.5" y="-1122.4" font-family="Consolas" font-size="12.00">PlanetData</text>
<text text-anchor="start" x="6.5" y="-1105.4" font-family="Consolas" font-size="12.00">+</text>
<text text-anchor="start" x="18.5" y="-1105.4" font-family="Consolas" font-size="12.00">int planetId</text>
<text text-anchor="start" x="6.5" y="-1088.4" font-family="Consolas" font-size="12.00">+</text>
<text text-anchor="start" x="18.5" y="-1088.4" font-family="Consolas" font-size="12.00">string planetName</text>
<text text-anchor="start" x="6.5" y="-1071.4" font-family="Consolas" font-size="12.00">+</text>
<text text-anchor="start" x="18.5" y="-1071.4" font-family="Consolas" font-size="12.00">PlanetRace planetRace</text>
<text text-anchor="start" x="6.5" y="-1054.4" font-family="Consolas" font-size="12.00">+</text>
<text text-anchor="start" x="18.5" y="-1054.4" font-family="Consolas" font-size="12.00">ItemPlanet itemPlanet</text>
<text text-anchor="start" x="6.5" y="-1037.4" font-family="Consolas" font-size="12.00">+</text>
<text text-anchor="start" x="18.5" y="-1037.4" font-family="Consolas" font-size="12.00">Sprite currentSprite</text>
<text text-anchor="start" x="6.5" y="-1020.4" font-family="Consolas" font-size="12.00">+</text>
<text text-anchor="start" x="18.5" y="-1020.4" font-family="Consolas" font-size="12.00">List&lt; TradingItemData</text>
<text text-anchor="start" x="18.5" y="-1007.4" font-family="Consolas" font-size="12.00"> &gt; itemsTier1</text>
<text text-anchor="start" x="6.5" y="-990.4" font-family="Consolas" font-size="12.00">+</text>
<text text-anchor="start" x="18.5" y="-990.4" font-family="Consolas" font-size="12.00">List&lt; TradingItemData</text>
<text text-anchor="start" x="18.5" y="-977.4" font-family="Consolas" font-size="12.00"> &gt; itemsTier2</text>
<text text-anchor="start" x="6.5" y="-960.4" font-family="Consolas" font-size="12.00">+</text>
<text text-anchor="start" x="18.5" y="-960.4" font-family="Consolas" font-size="12.00">List&lt; TradingItemData</text>
<text text-anchor="start" x="18.5" y="-947.4" font-family="Consolas" font-size="12.00"> &gt; itemsTier3</text>
<text text-anchor="start" x="6.5" y="-930.4" font-family="Consolas" font-size="12.00">+</text>
<text text-anchor="start" x="18.5" y="-930.4" font-family="Consolas" font-size="12.00">int currentRevenue</text>
<text text-anchor="start" x="6.5" y="-913.4" font-family="Consolas" font-size="12.00">+</text>
<text text-anchor="start" x="18.5" y="-913.4" font-family="Consolas" font-size="12.00">int currentFuelPrice</text>
<text text-anchor="start" x="6.5" y="-896.4" font-family="Consolas" font-size="12.00">+</text>
<text text-anchor="start" x="18.5" y="-896.4" font-family="Consolas" font-size="12.00">int currentMissilePrice</text>
<text text-anchor="start" x="6.5" y="-879.4" font-family="Consolas" font-size="12.00">+</text>
<text text-anchor="start" x="18.5" y="-879.4" font-family="Consolas" font-size="12.00">int currentHypersonicPrice</text>
<text text-anchor="start" x="6.5" y="-862.4" font-family="Consolas" font-size="12.00">+</text>
<text text-anchor="start" x="18.5" y="-862.4" font-family="Consolas" font-size="12.00">List&lt; RandomQuest &gt;</text>
<text text-anchor="start" x="18.5" y="-849.4" font-family="Consolas" font-size="12.00"> questList</text>
<text text-anchor="start" x="6.5" y="-832.4" font-family="Consolas" font-size="12.00">+</text>
<text text-anchor="start" x="18.5" y="-832.4" font-family="Consolas" font-size="12.00">List&lt; PlanetEffect</text>
<text text-anchor="start" x="18.5" y="-819.4" font-family="Consolas" font-size="12.00"> &gt; activeEffects</text>
<text text-anchor="start" x="6.5" y="-802.4" font-family="Consolas" font-size="12.00">+</text>
<text text-anchor="start" x="18.5" y="-802.4" font-family="Consolas" font-size="12.00">Dictionary&lt; ItemCategory,</text>
<text text-anchor="start" x="18.5" y="-789.4" font-family="Consolas" font-size="12.00"> float &gt; categoryPriceModifiers</text>
<text text-anchor="start" x="6.5" y="-772.4" font-family="Consolas" font-size="12.00">+</text>
<text text-anchor="start" x="18.5" y="-772.4" font-family="Consolas" font-size="12.00">Dictionary&lt; int, int</text>
<text text-anchor="start" x="18.5" y="-759.4" font-family="Consolas" font-size="12.00"> &gt; itemPriceDictionary</text>
<text text-anchor="start" x="6.5" y="-742.4" font-family="Consolas" font-size="12.00">+</text>
<text text-anchor="start" x="18.5" y="-742.4" font-family="Consolas" font-size="12.00">bool isHome</text>
<text text-anchor="start" x="6.5" y="-725.4" font-family="Consolas" font-size="12.00">+</text>
<text text-anchor="start" x="18.5" y="-725.4" font-family="Consolas" font-size="12.00">ItemTierLevel CurrentTier</text>
<text text-anchor="start" x="6.5" y="-708.4" font-family="Consolas" font-size="12.00">+</text>
<text text-anchor="start" x="18.5" y="-708.4" font-family="Consolas" font-size="12.00">PlanetRace PlanetRace</text>
<text text-anchor="start" x="6.5" y="-691.4" font-family="Consolas" font-size="12.00">+</text>
<text text-anchor="start" x="18.5" y="-691.4" font-family="Consolas" font-size="12.00">void CreateRandomData()</text>
<text text-anchor="start" x="6.5" y="-674.4" font-family="Consolas" font-size="12.00">+</text>
<text text-anchor="start" x="18.5" y="-674.4" font-family="Consolas" font-size="12.00">void LoadSprites()</text>
<text text-anchor="start" x="6.5" y="-657.4" font-family="Consolas" font-size="12.00">+</text>
<text text-anchor="start" x="18.5" y="-657.4" font-family="Consolas" font-size="12.00">string GetSpeciesPrefix</text>
<text text-anchor="start" x="18.5" y="-644.4" font-family="Consolas" font-size="12.00">(PlanetRace species)</text>
<text text-anchor="start" x="6.5" y="-627.4" font-family="Consolas" font-size="12.00">+</text>
<text text-anchor="start" x="18.5" y="-627.4" font-family="Consolas" font-size="12.00">void SetItems()</text>
<text text-anchor="start" x="6.5" y="-610.4" font-family="Consolas" font-size="12.00">+</text>
<text text-anchor="start" x="18.5" y="-610.4" font-family="Consolas" font-size="12.00">void ChangeItemPrice()</text>
<text text-anchor="start" x="6.5" y="-593.4" font-family="Consolas" font-size="12.00">+</text>
<text text-anchor="start" x="18.5" y="-593.4" font-family="Consolas" font-size="12.00">int GetItemPrice(int</text>
<text text-anchor="start" x="18.5" y="-580.4" font-family="Consolas" font-size="12.00"> itemId)</text>
<text text-anchor="start" x="6.5" y="-563.4" font-family="Consolas" font-size="12.00">+</text>
<text text-anchor="start" x="18.5" y="-563.4" font-family="Consolas" font-size="12.00">int GetItemPrice(Trading</text>
<text text-anchor="start" x="18.5" y="-550.4" font-family="Consolas" font-size="12.00">ItemData item)</text>
<text text-anchor="start" x="6.5" y="-533.4" font-family="Consolas" font-size="12.00">+</text>
<text text-anchor="start" x="18.5" y="-533.4" font-family="Consolas" font-size="12.00">void RegisterPlanetEffect</text>
<text text-anchor="start" x="18.5" y="-520.4" font-family="Consolas" font-size="12.00">(PlanetEffect effectData)</text>
<text text-anchor="start" x="6.5" y="-503.4" font-family="Consolas" font-size="12.00">+</text>
<text text-anchor="start" x="18.5" y="-503.4" font-family="Consolas" font-size="12.00">void CheckPirateQuests()</text>
<text text-anchor="start" x="6.5" y="-486.4" font-family="Consolas" font-size="12.00">+</text>
<text text-anchor="start" x="18.5" y="-486.4" font-family="Consolas" font-size="12.00">void CheckItemQuests</text>
<text text-anchor="start" x="18.5" y="-473.4" font-family="Consolas" font-size="12.00">(int itemId)</text>
<text text-anchor="start" x="6.5" y="-456.4" font-family="Consolas" font-size="12.00">+</text>
<text text-anchor="start" x="18.5" y="-456.4" font-family="Consolas" font-size="12.00">void CheckEventExpirations</text>
<text text-anchor="start" x="18.5" y="-443.4" font-family="Consolas" font-size="12.00">(int currentYear)</text>
<text text-anchor="start" x="6.5" y="-426.4" font-family="Consolas" font-size="12.00">+</text>
<text text-anchor="start" x="18.5" y="-426.4" font-family="Consolas" font-size="12.00">float GetCategoryPriceModifier</text>
<text text-anchor="start" x="18.5" y="-413.4" font-family="Consolas" font-size="12.00">(ItemCategory category)</text>
<text text-anchor="start" x="6.5" y="-396.4" font-family="Consolas" font-size="12.00">+</text>
<text text-anchor="start" x="18.5" y="-396.4" font-family="Consolas" font-size="12.00">void ResetAllEffects()</text>
<text text-anchor="start" x="6.5" y="-379.4" font-family="Consolas" font-size="12.00">+</text>
<text text-anchor="start" x="18.5" y="-379.4" font-family="Consolas" font-size="12.00">int CalculateAdjustedPrice</text>
<text text-anchor="start" x="18.5" y="-366.4" font-family="Consolas" font-size="12.00">(int basePrice, ItemCategory</text>
<text text-anchor="start" x="18.5" y="-353.4" font-family="Consolas" font-size="12.00"> category)</text>
<text text-anchor="start" x="6.5" y="-336.4" font-family="Consolas" font-size="12.00">+</text>
<text text-anchor="start" x="18.5" y="-336.4" font-family="Consolas" font-size="12.00">void PrintAllEffects()</text>
<text text-anchor="start" x="6.5" y="-319.4" font-family="Consolas" font-size="12.00">+</text>
<text text-anchor="start" x="18.5" y="-319.4" font-family="Consolas" font-size="12.00">void CheckQuestExpirations</text>
<text text-anchor="start" x="18.5" y="-306.4" font-family="Consolas" font-size="12.00">(int currentYear)</text>
<text text-anchor="start" x="6.5" y="-289.4" font-family="Consolas" font-size="12.00">+</text>
<text text-anchor="start" x="18.5" y="-289.4" font-family="Consolas" font-size="12.00">void ActivateQuest</text>
<text text-anchor="start" x="18.5" y="-276.4" font-family="Consolas" font-size="12.00">(RandomQuest quest)</text>
<text text-anchor="start" x="6.5" y="-259.4" font-family="Consolas" font-size="12.00">+</text>
<text text-anchor="start" x="18.5" y="-259.4" font-family="Consolas" font-size="12.00">void CompleteQuest</text>
<text text-anchor="start" x="18.5" y="-246.4" font-family="Consolas" font-size="12.00">(RandomQuest quest)</text>
<text text-anchor="start" x="6.5" y="-229.4" font-family="Consolas" font-size="12.00">+</text>
<text text-anchor="start" x="18.5" y="-229.4" font-family="Consolas" font-size="12.00">void FailQuest(RandomQuest</text>
<text text-anchor="start" x="18.5" y="-216.4" font-family="Consolas" font-size="12.00"> quest)</text>
<text text-anchor="start" x="6.5" y="-199.4" font-family="Consolas" font-size="12.00">+</text>
<text text-anchor="start" x="18.5" y="-199.4" font-family="Consolas" font-size="12.00">void TrySpawnQuest()</text>
<text text-anchor="start" x="6.5" y="-182.4" font-family="Consolas" font-size="12.00">+</text>
<text text-anchor="start" x="18.5" y="-182.4" font-family="Consolas" font-size="12.00">void RefreshEquipmentSelling()</text>
<text text-anchor="start" x="6.5" y="-165.4" font-family="Consolas" font-size="12.00">+</text>
<text text-anchor="start" x="18.5" y="-165.4" font-family="Consolas" font-size="12.00">void ChangeFuelPrice()</text>
<text text-anchor="start" x="6.5" y="-148.4" font-family="Consolas" font-size="12.00">+</text>
<text text-anchor="start" x="18.5" y="-148.4" font-family="Consolas" font-size="12.00">void SetPlanetRace</text>
<text text-anchor="start" x="18.5" y="-135.4" font-family="Consolas" font-size="12.00">(PlanetRace planetRace)</text>
<text text-anchor="start" x="6.5" y="-118.4" font-family="Consolas" font-size="12.00">&#45;</text>
<text text-anchor="start" x="18.5" y="-118.4" font-family="Consolas" font-size="12.00">void InitializeCategoryModifiers()</text>
<text text-anchor="start" x="6.5" y="-101.4" font-family="Consolas" font-size="12.00">&#45;</text>
<text text-anchor="start" x="18.5" y="-101.4" font-family="Consolas" font-size="12.00">void SetRandomName()</text>
<text text-anchor="start" x="6.5" y="-84.4" font-family="Consolas" font-size="12.00">&#45;</text>
<text text-anchor="start" x="18.5" y="-84.4" font-family="Consolas" font-size="12.00">void SetRandomPosition()</text>
<text text-anchor="start" x="6.5" y="-67.4" font-family="Consolas" font-size="12.00">&#45;</text>
<text text-anchor="start" x="18.5" y="-67.4" font-family="Consolas" font-size="12.00">void ApplyPlanetEffectValue</text>
<text text-anchor="start" x="18.5" y="-54.4" font-family="Consolas" font-size="12.00">(PlanetEffect effect)</text>
<text text-anchor="start" x="6.5" y="-37.4" font-family="Consolas" font-size="12.00">&#45;</text>
<text text-anchor="start" x="18.5" y="-37.4" font-family="Consolas" font-size="12.00">void RemovePlanetEffectValue</text>
<text text-anchor="start" x="18.5" y="-24.4" font-family="Consolas" font-size="12.00">(PlanetEffect effect)</text>
<text text-anchor="start" x="6.5" y="-7.4" font-family="Consolas" font-size="12.00">&#45;</text>
<text text-anchor="start" x="18.5" y="-7.4" font-family="Consolas" font-size="12.00">void CreateRandomQuest()</text>
<polygon fill="#666666" stroke="#666666" points="2.5,-1117 2.5,-1117 278.5,-1117 278.5,-1117 2.5,-1117"/>
<polygon fill="#666666" stroke="#666666" points="2.5,-703 2.5,-703 16.5,-703 16.5,-703 2.5,-703"/>
<polygon fill="#666666" stroke="#666666" points="16.5,-703 16.5,-703 278.5,-703 278.5,-703 16.5,-703"/>
<polygon fill="none" stroke="#666666" points="2.5,0 2.5,-1136 278.5,-1136 278.5,0 2.5,0"/>
</a>
</g>
</g>
<!-- Node2 -->
<g id="Node000002" class="node">
<title>Node2</title>
<g id="a_Node000002"><a xlink:title=" ">
<polygon fill="white" stroke="transparent" points="93,-1401.5 0,-1401.5 0,-1346.5 93,-1346.5 93,-1401.5"/>
<text text-anchor="start" x="5.5" y="-1387.4" font-family="Consolas" font-size="12.00">UnityEngine</text>
<text text-anchor="start" x="43" y="-1370.4" font-family="Consolas" font-size="12.00"> </text>
<text text-anchor="start" x="43" y="-1353.4" font-family="Consolas" font-size="12.00"> </text>
<polygon fill="#bfbfbf" stroke="#bfbfbf" points="0.5,-1382 0.5,-1382 93.5,-1382 93.5,-1382 0.5,-1382"/>
<polygon fill="#bfbfbf" stroke="#bfbfbf" points="0.5,-1365 0.5,-1365 93.5,-1365 93.5,-1365 0.5,-1365"/>
<polygon fill="none" stroke="#bfbfbf" points="0,-1346.5 0,-1401.5 93,-1401.5 93,-1346.5 0,-1346.5"/>
</a>
</g>
</g>
<!-- Node2&#45;&gt;Node1 -->
<g id="edge1_Node000001_Node000002" class="edge">
<title>Node2&#45;&gt;Node1</title>
<g id="a_edge1_Node000001_Node000002"><a xlink:title=" ">
<path fill="none" stroke="#63b8ff" d="M45.31,-1346.31C43.76,-1305.01 41.88,-1223.16 47.5,-1154 47.66,-1152.07 47.82,-1150.13 47.98,-1148.19"/>
<polygon fill="none" stroke="#63b8ff" points="47.98,-1148.19 44.51,-1141.87 49.01,-1136.23 52.48,-1142.55 47.98,-1148.19"/>
</a>
</g>
<text text-anchor="middle" x="130.5" y="-1157.8" font-family="Consolas" font-size="14.00" fill="grey"> +normalizedPosition</text>
</g>
<!-- Node3 -->
<g id="Node000003" class="node">
<title>Node3</title>
<g id="a_Node000003"><a xlink:href="classEquipmentItem.html" target="_top" xlink:title="각 장비 별 필요한 필드 정리">
<polygon fill="white" stroke="transparent" points="347,-1561 124,-1561 124,-1187 347,-1187 347,-1561"/>
<text text-anchor="start" x="187" y="-1547.4" font-family="Consolas" font-size="12.00">EquipmentItem</text>
<text text-anchor="start" x="128.5" y="-1530.4" font-family="Consolas" font-size="12.00">+</text>
<text text-anchor="start" x="140.5" y="-1530.4" font-family="Consolas" font-size="12.00">int eqId</text>
<text text-anchor="start" x="128.5" y="-1513.4" font-family="Consolas" font-size="12.00">+</text>
<text text-anchor="start" x="140.5" y="-1513.4" font-family="Consolas" font-size="12.00">Sprite eqIcon</text>
<text text-anchor="start" x="128.5" y="-1496.4" font-family="Consolas" font-size="12.00">+</text>
<text text-anchor="start" x="140.5" y="-1496.4" font-family="Consolas" font-size="12.00">string eqName</text>
<text text-anchor="start" x="128.5" y="-1479.4" font-family="Consolas" font-size="12.00">+</text>
<text text-anchor="start" x="140.5" y="-1479.4" font-family="Consolas" font-size="12.00">string eqDescription</text>
<text text-anchor="start" x="128.5" y="-1462.4" font-family="Consolas" font-size="12.00">+</text>
<text text-anchor="start" x="140.5" y="-1462.4" font-family="Consolas" font-size="12.00">EquipmentType eqType</text>
<text text-anchor="start" x="128.5" y="-1445.4" font-family="Consolas" font-size="12.00">+</text>
<text text-anchor="start" x="140.5" y="-1445.4" font-family="Consolas" font-size="12.00">int eqPrice</text>
<text text-anchor="start" x="128.5" y="-1428.4" font-family="Consolas" font-size="12.00">+</text>
<text text-anchor="start" x="140.5" y="-1428.4" font-family="Consolas" font-size="12.00">bool isGlobalEquip</text>
<text text-anchor="start" x="128.5" y="-1411.4" font-family="Consolas" font-size="12.00">+</text>
<text text-anchor="start" x="140.5" y="-1411.4" font-family="Consolas" font-size="12.00">ItemPlanet planet</text>
<text text-anchor="start" x="128.5" y="-1394.4" font-family="Consolas" font-size="12.00">+</text>
<text text-anchor="start" x="140.5" y="-1394.4" font-family="Consolas" font-size="12.00">int eqAttackBonus</text>
<text text-anchor="start" x="128.5" y="-1377.4" font-family="Consolas" font-size="12.00">+</text>
<text text-anchor="start" x="140.5" y="-1377.4" font-family="Consolas" font-size="12.00">int eqDefenseBonus</text>
<text text-anchor="start" x="128.5" y="-1360.4" font-family="Consolas" font-size="12.00">+</text>
<text text-anchor="start" x="140.5" y="-1360.4" font-family="Consolas" font-size="12.00">int eqHealthBonus</text>
<text text-anchor="start" x="128.5" y="-1343.4" font-family="Consolas" font-size="12.00">+</text>
<text text-anchor="start" x="140.5" y="-1343.4" font-family="Consolas" font-size="12.00">int eqAdditionalPilotSkill</text>
<text text-anchor="start" x="128.5" y="-1326.4" font-family="Consolas" font-size="12.00">+</text>
<text text-anchor="start" x="140.5" y="-1326.4" font-family="Consolas" font-size="12.00">int eqAdditionalEngineSkill</text>
<text text-anchor="start" x="128.5" y="-1309.4" font-family="Consolas" font-size="12.00">+</text>
<text text-anchor="start" x="140.5" y="-1309.4" font-family="Consolas" font-size="12.00">int eqAdditionalPowerSkill</text>
<text text-anchor="start" x="128.5" y="-1292.4" font-family="Consolas" font-size="12.00">+</text>
<text text-anchor="start" x="140.5" y="-1292.4" font-family="Consolas" font-size="12.00">int eqAdditionalShieldSkill</text>
<text text-anchor="start" x="128.5" y="-1275.4" font-family="Consolas" font-size="12.00">+</text>
<text text-anchor="start" x="140.5" y="-1275.4" font-family="Consolas" font-size="12.00">int eqAdditionalWeaponSkill</text>
<text text-anchor="start" x="128.5" y="-1258.4" font-family="Consolas" font-size="12.00">+</text>
<text text-anchor="start" x="140.5" y="-1258.4" font-family="Consolas" font-size="12.00">int eqAdditionalAmmunition</text>
<text text-anchor="start" x="140.5" y="-1245.4" font-family="Consolas" font-size="12.00">Skill</text>
<text text-anchor="start" x="128.5" y="-1228.4" font-family="Consolas" font-size="12.00">+</text>
<text text-anchor="start" x="140.5" y="-1228.4" font-family="Consolas" font-size="12.00">int eqAdditionalMedBaySkill</text>
<text text-anchor="start" x="128.5" y="-1211.4" font-family="Consolas" font-size="12.00">+</text>
<text text-anchor="start" x="140.5" y="-1211.4" font-family="Consolas" font-size="12.00">int eqAdditionalRepairSkill</text>
<text text-anchor="start" x="232" y="-1194.4" font-family="Consolas" font-size="12.00"> </text>
<polygon fill="#666666" stroke="#666666" points="124.5,-1542 124.5,-1542 347.5,-1542 347.5,-1542 124.5,-1542"/>
<polygon fill="#666666" stroke="#666666" points="124.5,-1206 124.5,-1206 138.5,-1206 138.5,-1206 124.5,-1206"/>
<polygon fill="#666666" stroke="#666666" points="138.5,-1206 138.5,-1206 347.5,-1206 347.5,-1206 138.5,-1206"/>
<polygon fill="none" stroke="#666666" points="124,-1187 124,-1561 347,-1561 347,-1187 124,-1187"/>
</a>
</g>
</g>
<!-- Node3&#45;&gt;Node1 -->
<g id="edge2_Node000001_Node000003" class="edge">
<title>Node3&#45;&gt;Node1</title>
<g id="a_edge2_Node000001_Node000003"><a xlink:title=" ">
<path fill="none" stroke="#63b8ff" d="M217.11,-1186.88C215.92,-1175.75 214.71,-1164.73 213.5,-1154 213.29,-1152.17 213.09,-1150.34 212.88,-1148.51"/>
<polygon fill="none" stroke="#63b8ff" points="212.86,-1148.29 208.2,-1142.78 211.5,-1136.36 216.15,-1141.87 212.86,-1148.29"/>
</a>
</g>
<text text-anchor="middle" x="330.5" y="-1157.8" font-family="Consolas" font-size="14.00" fill="grey"> +currentRandomEquipmentItem</text>
</g>
<!-- Node4 -->
<g id="Node000004" class="node">
<title>Node4</title>
<g id="a_Node000004"><a xlink:title=" ">
<polygon fill="white" stroke="transparent" points="301,-1653 170,-1653 170,-1598 301,-1598 301,-1653"/>
<text text-anchor="start" x="175.5" y="-1638.9" font-family="Consolas" font-size="12.00">ScriptableObject</text>
<text text-anchor="start" x="232" y="-1621.9" font-family="Consolas" font-size="12.00"> </text>
<text text-anchor="start" x="232" y="-1604.9" font-family="Consolas" font-size="12.00"> </text>
<polygon fill="#bfbfbf" stroke="#bfbfbf" points="170.5,-1633.5 170.5,-1633.5 301.5,-1633.5 301.5,-1633.5 170.5,-1633.5"/>
<polygon fill="#bfbfbf" stroke="#bfbfbf" points="170.5,-1616.5 170.5,-1616.5 301.5,-1616.5 301.5,-1616.5 170.5,-1616.5"/>
<polygon fill="none" stroke="#bfbfbf" points="170,-1598 170,-1653 301,-1653 301,-1598 170,-1598"/>
</a>
</g>
</g>
<!-- Node4&#45;&gt;Node3 -->
<g id="edge3_Node000003_Node000004" class="edge">
<title>Node4&#45;&gt;Node3</title>
<g id="a_edge3_Node000003_Node000004"><a xlink:title=" ">
<path fill="none" stroke="#63b8ff" d="M235.5,-1587.59C235.5,-1579.65 235.5,-1570.74 235.5,-1561.19"/>
<polygon fill="none" stroke="#63b8ff" points="232,-1587.8 235.5,-1597.8 239,-1587.8 232,-1587.8"/>
</a>
</g>
</g>
</g>
</svg>
