<?xml version="1.0" encoding="UTF-8" standalone="no"?>
<!DOCTYPE svg PUBLIC "-//W3C//DTD SVG 1.1//EN"
 "http://www.w3.org/Graphics/SVG/1.1/DTD/svg11.dtd">
<!-- Generated by graphviz version 2.43.0 (0)
 -->
<!-- Title: CrewSystem.AddCrew Pages: 1 -->
<svg width="1188pt" height="598pt"
 viewBox="0.00 0.00 1188.00 598.00" xmlns="http://www.w3.org/2000/svg" xmlns:xlink="http://www.w3.org/1999/xlink">
<g id="graph0" class="graph" transform="scale(1 1) rotate(0) translate(4 594)">
<title>CrewSystem.AddCrew</title>
<!-- Node1 -->
<g id="Node000001" class="node">
<title>Node1</title>
<g id="a_Node000001"><a xlink:title="새로운 크루 멤버를 추가합니다.">
<polygon fill="#999999" stroke="#666666" points="152,-288 0,-288 0,-267 152,-267 152,-288"/>
<text text-anchor="middle" x="76" y="-274.4" font-family="Consolas" font-size="12.00">CrewSystem.AddCrew</text>
</a>
</g>
</g>
<!-- Node2 -->
<g id="Node000002" class="node">
<title>Node2</title>
<g id="a_Node000002"><a xlink:href="classShip.html#a8ced30f0d71c2a5cf333b3de23af48f2" target="_top" xlink:title="모든 룸 정보를 반환합니다.">
<polygon fill="white" stroke="#666666" points="914,-590 777,-590 777,-569 914,-569 914,-590"/>
<text text-anchor="middle" x="845.5" y="-576.4" font-family="Consolas" font-size="12.00">Ship.GetAllRooms</text>
</a>
</g>
</g>
<!-- Node1&#45;&gt;Node2 -->
<g id="edge1_Node000001_Node000002" class="edge">
<title>Node1&#45;&gt;Node2</title>
<g id="a_edge1_Node000001_Node000002"><a xlink:title=" ">
<path fill="none" stroke="#63b8ff" d="M81.58,-288.41C94.32,-317.55 132.87,-398.09 188,-444.5 288.33,-528.95 330.26,-533.83 458,-563.5 562.71,-587.82 687.58,-587.99 766.46,-584.69"/>
<polygon fill="#63b8ff" stroke="#63b8ff" points="766.97,-588.17 776.8,-584.23 766.65,-581.18 766.97,-588.17"/>
</a>
</g>
</g>
<!-- Node3 -->
<g id="Node000003" class="node">
<title>Node3</title>
<g id="a_Node000003"><a xlink:href="classRoom.html#a08dfe5c5a797aacad22c29926b3482e4" target="_top" xlink:title="방의 우선순위 타일에 따른 그리드에서의 위치 반환 (회전각 적용)">
<polygon fill="white" stroke="#666666" points="403.5,-435.5 206.5,-435.5 206.5,-401.5 403.5,-401.5 403.5,-435.5"/>
<text text-anchor="start" x="214.5" y="-421.9" font-family="Consolas" font-size="12.00">Room.GetRotatedCrewEntry</text>
<text text-anchor="middle" x="305" y="-408.9" font-family="Consolas" font-size="12.00">GridPriority</text>
</a>
</g>
</g>
<!-- Node1&#45;&gt;Node3 -->
<g id="edge2_Node000001_Node000003" class="edge">
<title>Node1&#45;&gt;Node3</title>
<g id="a_edge2_Node000001_Node000003"><a xlink:title=" ">
<path fill="none" stroke="#63b8ff" d="M94.06,-288.1C130.83,-310.94 218.22,-365.22 267.88,-396.06"/>
<polygon fill="#63b8ff" stroke="#63b8ff" points="266.05,-399.05 276.4,-401.35 269.75,-393.1 266.05,-399.05"/>
</a>
</g>
</g>
<!-- Node5 -->
<g id="Node000005" class="node">
<title>Node5</title>
<g id="a_Node000005"><a xlink:href="classShipSystem.html#a0c4c206aa7e875dc6810ea122e46b332" target="_top" xlink:title="현재 함선의 특정 스탯 값을 가져옵니다.">
<polygon fill="white" stroke="#666666" points="396,-269 214,-269 214,-248 396,-248 396,-269"/>
<text text-anchor="middle" x="305" y="-255.4" font-family="Consolas" font-size="12.00">ShipSystem.GetShipStat</text>
</a>
</g>
</g>
<!-- Node1&#45;&gt;Node5 -->
<g id="edge4_Node000001_Node000005" class="edge">
<title>Node1&#45;&gt;Node5</title>
<g id="a_edge4_Node000001_Node000005"><a xlink:title=" ">
<path fill="none" stroke="#63b8ff" d="M152.27,-271.2C168.78,-269.82 186.51,-268.33 203.82,-266.89"/>
<polygon fill="#63b8ff" stroke="#63b8ff" points="204.27,-270.36 213.95,-266.04 203.69,-263.38 204.27,-270.36"/>
</a>
</g>
</g>
<!-- Node7 -->
<g id="Node000007" class="node">
<title>Node7</title>
<g id="a_Node000007"><a xlink:href="classShip.html#acc377098e3c61bbd4b8fc53595d09293" target="_top" xlink:title="실제 월드 위치 반환">
<polygon fill="white" stroke="#666666" points="422,-230 188,-230 188,-209 422,-209 422,-230"/>
<text text-anchor="middle" x="305" y="-216.4" font-family="Consolas" font-size="12.00">Ship.GetWorldPositionFromGrid</text>
</a>
</g>
</g>
<!-- Node1&#45;&gt;Node7 -->
<g id="edge6_Node000001_Node000007" class="edge">
<title>Node1&#45;&gt;Node7</title>
<g id="a_edge6_Node000001_Node000007"><a xlink:title=" ">
<path fill="none" stroke="#63b8ff" d="M104,-266.9C126.26,-258.5 158.79,-246.97 188,-239.5 198.95,-236.7 210.58,-234.18 222.09,-231.94"/>
<polygon fill="#63b8ff" stroke="#63b8ff" points="222.97,-235.34 232.15,-230.05 221.68,-228.46 222.97,-235.34"/>
</a>
</g>
</g>
<!-- Node9 -->
<g id="Node000009" class="node">
<title>Node9</title>
<g id="a_Node000009"><a xlink:href="classRoom.html#a577bbc93f6479096f0d4bedd6cefc26e" target="_top" xlink:title="선원이 방에 진입할 때 호출됩니다.">
<polygon fill="white" stroke="#666666" points="373.5,-191 236.5,-191 236.5,-170 373.5,-170 373.5,-191"/>
<text text-anchor="middle" x="305" y="-177.4" font-family="Consolas" font-size="12.00">Room.OnCrewEnter</text>
</a>
</g>
</g>
<!-- Node1&#45;&gt;Node9 -->
<g id="edge8_Node000001_Node000009" class="edge">
<title>Node1&#45;&gt;Node9</title>
<g id="a_edge8_Node000001_Node000009"><a xlink:title=" ">
<path fill="none" stroke="#63b8ff" d="M88.61,-266.81C107.76,-249.83 147.85,-216.94 188,-200.5 200.06,-195.56 213.3,-191.85 226.4,-189.05"/>
<polygon fill="#63b8ff" stroke="#63b8ff" points="227.23,-192.45 236.36,-187.08 225.87,-185.58 227.23,-192.45"/>
</a>
</g>
</g>
<!-- Node10 -->
<g id="Node000010" class="node">
<title>Node10</title>
<g id="a_Node000010"><a xlink:href="classShip.html#a8f3f2bdca106f32f2d4c2b3f892a139f" target="_top" xlink:title="현재 함선의 모든 스탯을 다시 계산합니다. 방, 시스템, 선원의 기여도를 반영합니다.">
<polygon fill="white" stroke="#666666" points="403.5,-308 206.5,-308 206.5,-287 403.5,-287 403.5,-308"/>
<text text-anchor="middle" x="305" y="-294.4" font-family="Consolas" font-size="12.00">Ship.RecalculateAllStats</text>
</a>
</g>
</g>
<!-- Node1&#45;&gt;Node10 -->
<g id="edge9_Node000001_Node000010" class="edge">
<title>Node1&#45;&gt;Node10</title>
<g id="a_edge9_Node000001_Node000010"><a xlink:title=" ">
<path fill="none" stroke="#63b8ff" d="M152.27,-284.13C166.32,-285.37 181.26,-286.69 196.07,-287.99"/>
<polygon fill="#63b8ff" stroke="#63b8ff" points="196.02,-291.5 206.29,-288.89 196.64,-284.53 196.02,-291.5"/>
</a>
</g>
</g>
<!-- Node4 -->
<g id="Node000004" class="node">
<title>Node4</title>
<g id="a_Node000004"><a xlink:href="classRoomData.html#a93ada549c4d197d14917913e944f46c2" target="_top" xlink:title="주어진 레벨에 해당하는 RoomLevel 데이터를 반환합니다. 각 파생 클래스에서 구현해야 합니다.">
<polygon fill="white" stroke="#666666" points="955,-445 736,-445 736,-424 955,-424 955,-445"/>
<text text-anchor="middle" x="845.5" y="-431.4" font-family="Consolas" font-size="12.00">RoomData.GetRoomDataByLevel</text>
</a>
</g>
</g>
<!-- Node3&#45;&gt;Node4 -->
<g id="edge3_Node000003_Node000004" class="edge">
<title>Node3&#45;&gt;Node4</title>
<g id="a_edge3_Node000003_Node000004"><a xlink:title=" ">
<path fill="none" stroke="#63b8ff" d="M341.88,-435.51C372.08,-448.83 416.81,-466.28 458,-473.5 563.94,-492.08 593.38,-487.64 700,-473.5 736.18,-468.7 776.15,-457.43 804.86,-448.23"/>
<polygon fill="#63b8ff" stroke="#63b8ff" points="806.11,-451.51 814.53,-445.08 803.94,-444.86 806.11,-451.51"/>
</a>
</g>
</g>
<!-- Node6 -->
<g id="Node000006" class="node">
<title>Node6</title>
<g id="a_Node000006"><a xlink:href="classShip.html#a080a77bc4aa01fd3e5b2561cb5317eca" target="_top" xlink:title="특정 스탯 값을 반환합니다.">
<polygon fill="white" stroke="#666666" points="632.5,-60 525.5,-60 525.5,-39 632.5,-39 632.5,-60"/>
<text text-anchor="middle" x="579" y="-46.4" font-family="Consolas" font-size="12.00">Ship.GetStat</text>
</a>
</g>
</g>
<!-- Node5&#45;&gt;Node6 -->
<g id="edge5_Node000005_Node000006" class="edge">
<title>Node5&#45;&gt;Node6</title>
<g id="a_edge5_Node000005_Node000006"><a xlink:title=" ">
<path fill="none" stroke="#63b8ff" d="M396.12,-255.08C405.7,-251.56 414.62,-246.55 422,-239.5 477.86,-186.17 402.21,-122.91 458,-69.5 473.21,-54.94 494.77,-48.69 515.43,-46.48"/>
<polygon fill="#63b8ff" stroke="#63b8ff" points="515.77,-49.96 525.47,-45.7 515.22,-42.98 515.77,-49.96"/>
</a>
</g>
</g>
<!-- Node8 -->
<g id="Node000008" class="node">
<title>Node8</title>
<g id="a_Node000008"><a xlink:href="classShip.html#a84f03b9700fea23f4e8a48f1233de137" target="_top" xlink:title="그리드 좌표를 월드 좌표로 변환 ((0, 0) ~ (60, 60) 그리드 내 좌표라 local relative 좌표임)">
<polygon fill="white" stroke="#666666" points="677.5,-21 480.5,-21 480.5,0 677.5,0 677.5,-21"/>
<text text-anchor="middle" x="579" y="-7.4" font-family="Consolas" font-size="12.00">Ship.GridToWorldPosition</text>
</a>
</g>
</g>
<!-- Node7&#45;&gt;Node8 -->
<g id="edge7_Node000007_Node000008" class="edge">
<title>Node7&#45;&gt;Node8</title>
<g id="a_edge7_Node000007_Node000008"><a xlink:title=" ">
<path fill="none" stroke="#63b8ff" d="M410.93,-208.99C414.89,-206.56 418.61,-203.74 422,-200.5 478.14,-146.84 401.71,-83.02 458,-29.5 462.06,-25.64 466.57,-22.38 471.39,-19.63"/>
<polygon fill="#63b8ff" stroke="#63b8ff" points="472.95,-22.76 480.38,-15.21 469.86,-16.48 472.95,-22.76"/>
</a>
</g>
</g>
<!-- Node11 -->
<g id="Node000011" class="node">
<title>Node11</title>
<g id="a_Node000011"><a xlink:href="classMoraleSystem.html#aa5e29aef57bec024e207404bb90894b3" target="_top" xlink:title="현재 함선의 전체 사기 수치를 계산합니다. 생명유지실과 승무원 침실이 기여하며, 승무원 수가 수용 가능 인원을 초과할 경우 패널티가 적용됩니다.">
<polygon fill="white" stroke="#666666" points="692.5,-554.5 465.5,-554.5 465.5,-520.5 692.5,-520.5 692.5,-554.5"/>
<text text-anchor="start" x="473.5" y="-540.9" font-family="Consolas" font-size="12.00">MoraleSystem.CalculateGlobal</text>
<text text-anchor="middle" x="579" y="-527.9" font-family="Consolas" font-size="12.00">Morale</text>
</a>
</g>
</g>
<!-- Node10&#45;&gt;Node11 -->
<g id="edge10_Node000010_Node000011" class="edge">
<title>Node10&#45;&gt;Node11</title>
<g id="a_edge10_Node000010_Node000011"><a xlink:title=" ">
<path fill="none" stroke="#63b8ff" d="M323.5,-308.06C348.29,-323.76 393.75,-355.45 422,-392.5 445.89,-423.83 431.16,-444.66 458,-473.5 475.1,-491.87 498.69,-506.03 520.44,-516.29"/>
<polygon fill="#63b8ff" stroke="#63b8ff" points="519.07,-519.51 529.62,-520.45 521.96,-513.14 519.07,-519.51"/>
</a>
</g>
</g>
<!-- Node14 -->
<g id="Node000014" class="node">
<title>Node14</title>
<g id="a_Node000014"><a xlink:href="classCrewSystem.html#a211d4d37de0e70c08101ad8733367bd7" target="_top" xlink:title="현재 탑승 중인 아군, 적군 포함 모든 크루 객체의 목록을 반환합니다.">
<polygon fill="white" stroke="#666666" points="658.5,-425 499.5,-425 499.5,-404 658.5,-404 658.5,-425"/>
<text text-anchor="middle" x="579" y="-411.4" font-family="Consolas" font-size="12.00">CrewSystem.GetCrews</text>
</a>
</g>
</g>
<!-- Node10&#45;&gt;Node14 -->
<g id="edge14_Node000010_Node000014" class="edge">
<title>Node10&#45;&gt;Node14</title>
<g id="a_edge14_Node000010_Node000014"><a xlink:title=" ">
<path fill="none" stroke="#63b8ff" d="M318.42,-308.14C343.15,-328.69 401.1,-373.77 458,-395.5 467.96,-399.3 478.66,-402.34 489.42,-404.78"/>
<polygon fill="#63b8ff" stroke="#63b8ff" points="488.8,-408.22 499.31,-406.85 490.24,-401.37 488.8,-408.22"/>
</a>
</g>
</g>
<!-- Node15 -->
<g id="Node000015" class="node">
<title>Node15</title>
<g id="a_Node000015"><a xlink:href="classOuterHullData.html#a51ad6d062c547a1cad0fb2c08ff593eb" target="_top" xlink:title="지정한 레벨에 해당하는 외갑판 데이터를 반환합니다.">
<polygon fill="white" stroke="#666666" points="700,-386 458,-386 458,-365 700,-365 700,-386"/>
<text text-anchor="middle" x="579" y="-372.4" font-family="Consolas" font-size="12.00">OuterHullData.GetOuterHullData</text>
</a>
</g>
</g>
<!-- Node10&#45;&gt;Node15 -->
<g id="edge15_Node000010_Node000015" class="edge">
<title>Node10&#45;&gt;Node15</title>
<g id="a_edge15_Node000010_Node000015"><a xlink:title=" ">
<path fill="none" stroke="#63b8ff" d="M328.66,-308.06C357.93,-321.28 410.72,-343.74 458,-356.5 467.07,-358.95 476.61,-361.12 486.19,-363.04"/>
<polygon fill="#63b8ff" stroke="#63b8ff" points="485.69,-366.5 496.17,-364.94 487.01,-359.63 485.69,-366.5"/>
</a>
</g>
</g>
<!-- Node16 -->
<g id="Node000016" class="node">
<title>Node16</title>
<g id="a_Node000016"><a xlink:href="classShip.html#a61cb09945d19adc35f1c2aaf845c39ce" target="_top" xlink:title="현재 함선의 외갑판 레벨을 반환합니다.">
<polygon fill="white" stroke="#666666" points="670,-308 488,-308 488,-287 670,-287 670,-308"/>
<text text-anchor="middle" x="579" y="-294.4" font-family="Consolas" font-size="12.00">Ship.GetOuterHullLevel</text>
</a>
</g>
</g>
<!-- Node10&#45;&gt;Node16 -->
<g id="edge16_Node000010_Node000016" class="edge">
<title>Node10&#45;&gt;Node16</title>
<g id="a_edge16_Node000010_Node000016"><a xlink:title=" ">
<path fill="none" stroke="#63b8ff" d="M403.81,-297.5C427.8,-297.5 453.51,-297.5 477.62,-297.5"/>
<polygon fill="#63b8ff" stroke="#63b8ff" points="477.84,-301 487.84,-297.5 477.84,-294 477.84,-301"/>
</a>
</g>
</g>
<!-- Node18 -->
<g id="Node000018" class="node">
<title>Node18</title>
<g id="a_Node000018"><a xlink:href="classCrewBase.html#a0c35d7b81e7bbda6c1187cd56da46b19" target="_top" xlink:title="선원이 함선 스탯에 기여하는 수치를 반환합니다. 예: 산소 소모량 등.">
<polygon fill="white" stroke="#666666" points="696,-216 462,-216 462,-195 696,-195 696,-216"/>
<text text-anchor="middle" x="579" y="-202.4" font-family="Consolas" font-size="12.00">CrewBase.GetStatContributions</text>
</a>
</g>
</g>
<!-- Node10&#45;&gt;Node18 -->
<g id="edge18_Node000010_Node000018" class="edge">
<title>Node10&#45;&gt;Node18</title>
<g id="a_edge18_Node000010_Node000018"><a xlink:title=" ">
<path fill="none" stroke="#63b8ff" d="M403.5,-287.73C410,-285.22 416.24,-282.18 422,-278.5 446,-263.18 434.02,-240.86 458,-225.5 461.03,-223.56 464.18,-221.79 467.43,-220.18"/>
<polygon fill="#63b8ff" stroke="#63b8ff" points="469.09,-223.27 476.83,-216.03 466.27,-216.87 469.09,-223.27"/>
</a>
</g>
</g>
<!-- Node19 -->
<g id="Node000019" class="node">
<title>Node19</title>
<g id="a_Node000019"><a xlink:href="classRoom.html#a8533094cb230185cce7735d640d950f1" target="_top" xlink:title="방이 함선 스탯에 기여하는 값을 반환합니다.">
<polygon fill="white" stroke="#666666" points="681,-347 477,-347 477,-326 681,-326 681,-347"/>
<text text-anchor="middle" x="579" y="-333.4" font-family="Consolas" font-size="12.00">Room.GetStatContributions</text>
</a>
</g>
</g>
<!-- Node10&#45;&gt;Node19 -->
<g id="edge19_Node000010_Node000019" class="edge">
<title>Node10&#45;&gt;Node19</title>
<g id="a_edge19_Node000010_Node000019"><a xlink:title=" ">
<path fill="none" stroke="#63b8ff" d="M379.25,-308C414.77,-313.1 457.62,-319.24 494.41,-324.52"/>
<polygon fill="#63b8ff" stroke="#63b8ff" points="494.22,-328.02 504.62,-325.98 495.22,-321.09 494.22,-328.02"/>
</a>
</g>
</g>
<!-- Node21 -->
<g id="Node000021" class="node">
<title>Node21</title>
<g id="a_Node000021"><a xlink:href="classShip.html#a7ce33b470844e7f8b04df7741582010a" target="_top" xlink:title="함선의 기본 스탯을 초기화합니다. 모든 ShipStat 값을 0으로 설정하여 이후 계산의 기준을 만듭니다.">
<polygon fill="white" stroke="#666666" points="677.5,-177 480.5,-177 480.5,-156 677.5,-156 677.5,-177"/>
<text text-anchor="middle" x="579" y="-163.4" font-family="Consolas" font-size="12.00">Ship.InitializeBaseStats</text>
</a>
</g>
</g>
<!-- Node10&#45;&gt;Node21 -->
<g id="edge22_Node000010_Node000021" class="edge">
<title>Node10&#45;&gt;Node21</title>
<g id="a_edge22_Node000010_Node000021"><a xlink:title=" ">
<path fill="none" stroke="#63b8ff" d="M403.67,-289.51C410.24,-286.61 416.45,-282.99 422,-278.5 456.14,-250.89 423.9,-214.16 458,-186.5 462.1,-183.18 466.54,-180.31 471.22,-177.84"/>
<polygon fill="#63b8ff" stroke="#63b8ff" points="472.86,-180.94 480.48,-173.58 469.93,-174.58 472.86,-180.94"/>
</a>
</g>
</g>
<!-- Node22 -->
<g id="Node000022" class="node">
<title>Node22</title>
<g id="a_Node000022"><a xlink:href="classShip.html#a4ef99106ff3d8b5e7149f15ff9317769" target="_top" xlink:title="주어진 ShipStat이 가산형(덧셈 방식) 스탯인지 여부를 반환합니다. 예: 쉴드 최대량, 산소 생성량 등은 단순 덧셈으로 누적됩니다.">
<polygon fill="white" stroke="#666666" points="673.5,-138 484.5,-138 484.5,-117 673.5,-117 673.5,-138"/>
<text text-anchor="middle" x="579" y="-124.4" font-family="Consolas" font-size="12.00">Ship.IsAdditiveStatType</text>
</a>
</g>
</g>
<!-- Node10&#45;&gt;Node22 -->
<g id="edge23_Node000010_Node000022" class="edge">
<title>Node10&#45;&gt;Node22</title>
<g id="a_edge23_Node000010_Node000022"><a xlink:title=" ">
<path fill="none" stroke="#63b8ff" d="M403.66,-290.41C410.32,-287.32 416.54,-283.41 422,-278.5 466.89,-238.12 413.16,-187.94 458,-147.5 463.11,-142.89 468.86,-139.13 475.02,-136.08"/>
<polygon fill="#63b8ff" stroke="#63b8ff" points="476.48,-139.26 484.28,-132.1 473.71,-132.83 476.48,-139.26"/>
</a>
</g>
</g>
<!-- Node23 -->
<g id="Node000023" class="node">
<title>Node23</title>
<g id="a_Node000023"><a xlink:href="classShip.html#ae9a8351b5c780010ba90040c511976f6" target="_top" xlink:title="주어진 ShipStat이 배율형(곱셈 방식) 스탯인지 여부를 반환합니다. 예: 회피율 보너스 %, 데미지 증폭 % 등이 해당됩니다. 현재는 정의된 곱셈 스탯이 없습니다.">
<polygon fill="white" stroke="#666666" points="696,-99 462,-99 462,-78 696,-78 696,-99"/>
<text text-anchor="middle" x="579" y="-85.4" font-family="Consolas" font-size="12.00">Ship.IsMultiplicativeStatType</text>
</a>
</g>
</g>
<!-- Node10&#45;&gt;Node23 -->
<g id="edge24_Node000010_Node000023" class="edge">
<title>Node10&#45;&gt;Node23</title>
<g id="a_edge24_Node000010_Node000023"><a xlink:title=" ">
<path fill="none" stroke="#63b8ff" d="M403.72,-290.89C410.4,-287.71 416.61,-283.64 422,-278.5 477.86,-225.17 402.21,-161.91 458,-108.5 459.31,-107.24 460.67,-106.05 462.07,-104.92"/>
<polygon fill="#63b8ff" stroke="#63b8ff" points="464.31,-107.62 470.53,-99.05 460.32,-101.87 464.31,-107.62"/>
</a>
</g>
</g>
<!-- Node24 -->
<g id="Node000024" class="node">
<title>Node24</title>
<g id="a_Node000024"><a xlink:href="classShip.html#ad8f70687934e3a804bf86e704ca18150" target="_top" xlink:title="현재 함선의 스탯과 룸별 스탯 기여도를 콘솔에 출력합니다. 디버깅 모드가 활성화된 경우에만 호출되며, 전체 스탯 상태를 확인할 수 있습니다.">
<polygon fill="white" stroke="#666666" points="673.5,-464 484.5,-464 484.5,-443 673.5,-443 673.5,-464"/>
<text text-anchor="middle" x="579" y="-450.4" font-family="Consolas" font-size="12.00">Ship.PrintDebugStatInfo</text>
</a>
</g>
</g>
<!-- Node10&#45;&gt;Node24 -->
<g id="edge25_Node000010_Node000024" class="edge">
<title>Node10&#45;&gt;Node24</title>
<g id="a_edge25_Node000010_Node000024"><a xlink:title=" ">
<path fill="none" stroke="#63b8ff" d="M320.61,-308.14C343.3,-324.96 387.94,-359.2 422,-392.5 439.58,-409.69 436.54,-422.51 458,-434.5 463.25,-437.43 468.82,-439.95 474.57,-442.1"/>
<polygon fill="#63b8ff" stroke="#63b8ff" points="473.8,-445.54 484.4,-445.4 476.03,-438.9 473.8,-445.54"/>
</a>
</g>
</g>
<!-- Node25 -->
<g id="Node000025" class="node">
<title>Node25</title>
<g id="a_Node000025"><a xlink:href="classMoraleManager.html#af1cb805b49d259cc84441559dd0bb1c6" target="_top" xlink:title="전체 선원 사기 한 번에 할당">
<polygon fill="white" stroke="#666666" points="677.5,-268.5 480.5,-268.5 480.5,-234.5 677.5,-234.5 677.5,-268.5"/>
<text text-anchor="start" x="488.5" y="-254.9" font-family="Consolas" font-size="12.00">MoraleManager.SetAllCrew</text>
<text text-anchor="middle" x="579" y="-241.9" font-family="Consolas" font-size="12.00">Morale</text>
</a>
</g>
</g>
<!-- Node10&#45;&gt;Node25 -->
<g id="edge26_Node000010_Node000025" class="edge">
<title>Node10&#45;&gt;Node25</title>
<g id="a_edge26_Node000010_Node000025"><a xlink:title=" ">
<path fill="none" stroke="#63b8ff" d="M371.05,-286.95C387.67,-284.23 405.5,-281.28 422,-278.5 437.6,-275.87 454.07,-273.06 470.23,-270.28"/>
<polygon fill="#63b8ff" stroke="#63b8ff" points="470.98,-273.71 480.24,-268.56 469.79,-266.81 470.98,-273.71"/>
</a>
</g>
</g>
<!-- Node11&#45;&gt;Node2 -->
<g id="edge11_Node000011_Node000002" class="edge">
<title>Node11&#45;&gt;Node2</title>
<g id="a_edge11_Node000011_Node000002"><a xlink:title=" ">
<path fill="none" stroke="#63b8ff" d="M687.2,-554.52C714.38,-558.84 743.03,-563.39 768.32,-567.4"/>
<polygon fill="#63b8ff" stroke="#63b8ff" points="767.77,-570.86 778.2,-568.97 768.87,-563.95 767.77,-570.86"/>
</a>
</g>
</g>
<!-- Node12 -->
<g id="Node000012" class="node">
<title>Node12</title>
<g id="a_Node000012"><a xlink:href="classShip.html#a89be268214921c4585f6b70038b98c8e" target="_top" xlink:title="현재 탑승 중인 크루 수를 반환합니다.">
<polygon fill="white" stroke="#666666" points="917.5,-548 773.5,-548 773.5,-527 917.5,-527 917.5,-548"/>
<text text-anchor="middle" x="845.5" y="-534.4" font-family="Consolas" font-size="12.00">Ship.GetCrewCount</text>
</a>
</g>
</g>
<!-- Node11&#45;&gt;Node12 -->
<g id="edge12_Node000011_Node000012" class="edge">
<title>Node11&#45;&gt;Node12</title>
<g id="a_edge12_Node000011_Node000012"><a xlink:title=" ">
<path fill="none" stroke="#63b8ff" d="M692.56,-537.5C716.33,-537.5 740.98,-537.5 763.32,-537.5"/>
<polygon fill="#63b8ff" stroke="#63b8ff" points="763.42,-541 773.42,-537.5 763.42,-534 763.42,-541"/>
</a>
</g>
</g>
<!-- Node13 -->
<g id="Node000013" class="node">
<title>Node13</title>
<g id="a_Node000013"><a xlink:href="classCrewSystem.html#ae270e71cdbafb68eb26d6f031758b1f5" target="_top" xlink:title="현재 탑승 중인 크루의 수를 반환합니다.">
<polygon fill="white" stroke="#666666" points="1180,-548 991,-548 991,-527 1180,-527 1180,-548"/>
<text text-anchor="middle" x="1085.5" y="-534.4" font-family="Consolas" font-size="12.00">CrewSystem.GetCrewCount</text>
</a>
</g>
</g>
<!-- Node12&#45;&gt;Node13 -->
<g id="edge13_Node000012_Node000013" class="edge">
<title>Node12&#45;&gt;Node13</title>
<g id="a_edge13_Node000012_Node000013"><a xlink:title=" ">
<path fill="none" stroke="#63b8ff" d="M917.59,-537.5C937.45,-537.5 959.46,-537.5 980.79,-537.5"/>
<polygon fill="#63b8ff" stroke="#63b8ff" points="980.87,-541 990.87,-537.5 980.87,-534 980.87,-541"/>
</a>
</g>
</g>
<!-- Node17 -->
<g id="Node000017" class="node">
<title>Node17</title>
<g id="a_Node000017"><a xlink:href="classOuterHullSystem.html#ab352abfc02989177392c3b60dd28ddc3" target="_top" xlink:title="외부 선체 시스템의 현재 레벨을 반환합니다.">
<polygon fill="white" stroke="#666666" points="944,-310.5 747,-310.5 747,-276.5 944,-276.5 944,-310.5"/>
<text text-anchor="start" x="755" y="-296.9" font-family="Consolas" font-size="12.00">OuterHullSystem.GetOuter</text>
<text text-anchor="middle" x="845.5" y="-283.9" font-family="Consolas" font-size="12.00">HullLevel</text>
</a>
</g>
</g>
<!-- Node16&#45;&gt;Node17 -->
<g id="edge17_Node000016_Node000017" class="edge">
<title>Node16&#45;&gt;Node17</title>
<g id="a_edge17_Node000016_Node000017"><a xlink:title=" ">
<path fill="none" stroke="#63b8ff" d="M670.29,-296.13C691.7,-295.81 714.75,-295.46 736.85,-295.13"/>
<polygon fill="#63b8ff" stroke="#63b8ff" points="736.98,-298.63 746.93,-294.98 736.88,-291.63 736.98,-298.63"/>
</a>
</g>
</g>
<!-- Node19&#45;&gt;Node4 -->
<g id="edge20_Node000019_Node000004" class="edge">
<title>Node19&#45;&gt;Node4</title>
<g id="a_edge20_Node000019_Node000004"><a xlink:title=" ">
<path fill="none" stroke="#63b8ff" d="M664.8,-347.03C676.77,-349.55 688.81,-352.67 700,-356.5 744.83,-371.86 792.36,-400.15 820.18,-418.11"/>
<polygon fill="#63b8ff" stroke="#63b8ff" points="818.55,-421.23 828.83,-423.77 822.38,-415.37 818.55,-421.23"/>
</a>
</g>
</g>
<!-- Node20 -->
<g id="Node000020" class="node">
<title>Node20</title>
<g id="a_Node000020"><a xlink:href="classRoom.html#af15fefedd48a2009da56d461a9084ed8" target="_top" xlink:title="방이 작동 가능한 상태인지 확인합니다.">
<polygon fill="white" stroke="#666666" points="921.5,-350 769.5,-350 769.5,-329 921.5,-329 921.5,-350"/>
<text text-anchor="middle" x="845.5" y="-336.4" font-family="Consolas" font-size="12.00">Room.IsOperational</text>
</a>
</g>
</g>
<!-- Node19&#45;&gt;Node20 -->
<g id="edge21_Node000019_Node000020" class="edge">
<title>Node19&#45;&gt;Node20</title>
<g id="a_edge21_Node000019_Node000020"><a xlink:title=" ">
<path fill="none" stroke="#63b8ff" d="M681.13,-337.65C706.89,-337.94 734.33,-338.25 759.21,-338.53"/>
<polygon fill="#63b8ff" stroke="#63b8ff" points="759.3,-342.03 769.34,-338.65 759.38,-335.03 759.3,-342.03"/>
</a>
</g>
</g>
</g>
</svg>
