<?xml version="1.0" encoding="UTF-8" standalone="no"?>
<!DOCTYPE svg PUBLIC "-//W3C//DTD SVG 1.1//EN"
 "http://www.w3.org/Graphics/SVG/1.1/DTD/svg11.dtd">
<!-- Generated by graphviz version 2.43.0 (0)
 -->
<!-- Title: DamageHitPointPair Pages: 1 -->
<svg width="246pt" height="106pt"
 viewBox="0.00 0.00 246.00 106.00" xmlns="http://www.w3.org/2000/svg" xmlns:xlink="http://www.w3.org/1999/xlink">

<svg id="main" version="1.1" xmlns="http://www.w3.org/2000/svg" xmlns:xlink="http://www.w3.org/1999/xlink" xml:space="preserve" onload="init(evt)">
<style type="text/css"><![CDATA[
.node, .edge {opacity: 0.7;}
.node.selected, .edge.selected {opacity: 1;}
.edge:hover path { stroke: red; }
.edge:hover polygon { stroke: red; fill: red; }
]]></style>
<script type="application/ecmascript" xlink:href="svg.min.js"/>
<svg id="graph" class="graph">
<g id="graph0" class="graph" transform="scale(1 1) rotate(0) translate(4 102)">
<title>DamageHitPointPair</title>
<!-- Node1 -->
<g id="Node000001" class="node">
<title>Node1</title>
<g id="a_Node000001"><a xlink:title=" ">
<polygon fill="#999999" stroke="transparent" points="238,-98 0,-98 0,0 238,0 238,-98"/>
<text text-anchor="start" x="51" y="-84.4" font-family="Consolas" font-size="12.00">DamageHitPointPair</text>
<text text-anchor="start" x="4" y="-67.4" font-family="Consolas" font-size="12.00">+</text>
<text text-anchor="start" x="16" y="-67.4" font-family="Consolas" font-size="12.00">RoomDamageLevel damageLevel</text>
<text text-anchor="start" x="4" y="-50.4" font-family="Consolas" font-size="12.00">+</text>
<text text-anchor="start" x="16" y="-50.4" font-family="Consolas" font-size="12.00">float hitPointRate</text>
<text text-anchor="start" x="4" y="-33.4" font-family="Consolas" font-size="12.00">+</text>
<text text-anchor="start" x="16" y="-33.4" font-family="Consolas" font-size="12.00">DamageHitPointPair</text>
<text text-anchor="start" x="16" y="-20.4" font-family="Consolas" font-size="12.00">(RoomDamageLevel damageLevel,</text>
<text text-anchor="start" x="16" y="-7.4" font-family="Consolas" font-size="12.00"> float hitPointRate)</text>
<polygon fill="#666666" stroke="#666666" points="0,-79 0,-79 238,-79 238,-79 0,-79"/>
<polygon fill="#666666" stroke="#666666" points="0,-45 0,-45 14,-45 14,-45 0,-45"/>
<polygon fill="#666666" stroke="#666666" points="14,-45 14,-45 238,-45 238,-45 14,-45"/>
<polygon fill="none" stroke="#666666" points="0,0 0,-98 238,-98 238,0 0,0"/>
</a>
</g>
</g>
</g>
</svg>
</svg>

<style type='text/css'>
<![CDATA[
[data-mouse-over-selected='false'] { opacity: 0.7; }
[data-mouse-over-selected='true']  { opacity: 1.0; }
]]>
</style>
<script type="application/ecmascript"><![CDATA[
document.addEventListener('DOMContentLoaded', (event) => {
  highlightEdges();
  highlightAdjacentNodes();
});
]]></script>
</svg>
