<?xml version="1.0" encoding="UTF-8" standalone="no"?>
<!DOCTYPE svg PUBLIC "-//W3C//DTD SVG 1.1//EN"
 "http://www.w3.org/Graphics/SVG/1.1/DTD/svg11.dtd">
<!-- Generated by graphviz version 2.43.0 (0)
 -->
<!-- Title: ES3Internal.ES3DefaultSettings Pages: 1 -->
<svg width="244pt" height="184pt"
 viewBox="0.00 0.00 244.00 184.00" xmlns="http://www.w3.org/2000/svg" xmlns:xlink="http://www.w3.org/1999/xlink">

<svg id="main" version="1.1" xmlns="http://www.w3.org/2000/svg" xmlns:xlink="http://www.w3.org/1999/xlink" xml:space="preserve" onload="init(evt)">
<style type="text/css"><![CDATA[
.node, .edge {opacity: 0.7;}
.node.selected, .edge.selected {opacity: 1;}
.edge:hover path { stroke: red; }
.edge:hover polygon { stroke: red; fill: red; }
]]></style>
<script type="application/ecmascript" xlink:href="svg.min.js"/>
<svg id="graph" class="graph">
<g id="graph0" class="graph" transform="scale(1 1) rotate(0) translate(4 180)">
<title>ES3Internal.ES3DefaultSettings</title>
<!-- Node1 -->
<g id="Node000001" class="node">
<title>Node1</title>
<g id="a_Node000001"><a xlink:title=" ">
<polygon fill="#999999" stroke="transparent" points="236,-85 0,-85 0,0 236,0 236,-85"/>
<text text-anchor="start" x="5" y="-70.9" font-family="Consolas" font-size="12.00">ES3Internal.ES3DefaultSettings</text>
<text text-anchor="start" x="11" y="-53.9" font-family="Consolas" font-size="12.00">+</text>
<text text-anchor="start" x="30" y="-53.9" font-family="Consolas" font-size="12.00">ES3SerializableSettings</text>
<text text-anchor="start" x="30" y="-40.9" font-family="Consolas" font-size="12.00"> settings</text>
<text text-anchor="start" x="11" y="-23.9" font-family="Consolas" font-size="12.00">+</text>
<text text-anchor="start" x="30" y="-23.9" font-family="Consolas" font-size="12.00">bool autoUpdateReferences</text>
<text text-anchor="start" x="114" y="-6.9" font-family="Consolas" font-size="12.00"> </text>
<polygon fill="#666666" stroke="#666666" points="0,-65.5 0,-65.5 236,-65.5 236,-65.5 0,-65.5"/>
<polygon fill="#666666" stroke="#666666" points="0,-18.5 0,-18.5 28,-18.5 28,-18.5 0,-18.5"/>
<polygon fill="#666666" stroke="#666666" points="28,-18.5 28,-18.5 236,-18.5 236,-18.5 28,-18.5"/>
<polygon fill="none" stroke="#666666" points="0,0 0,-85 236,-85 236,0 0,0"/>
</a>
</g>
</g>
<!-- Node2 -->
<g id="Node000002" class="node">
<title>Node2</title>
<g id="a_Node000002"><a xlink:title=" ">
<polygon fill="white" stroke="transparent" points="172,-176 64,-176 64,-121 172,-121 172,-176"/>
<text text-anchor="start" x="69" y="-161.9" font-family="Consolas" font-size="12.00">MonoBehaviour</text>
<text text-anchor="start" x="114" y="-144.9" font-family="Consolas" font-size="12.00"> </text>
<text text-anchor="start" x="114" y="-127.9" font-family="Consolas" font-size="12.00"> </text>
<polygon fill="#bfbfbf" stroke="#bfbfbf" points="64,-156.5 64,-156.5 172,-156.5 172,-156.5 64,-156.5"/>
<polygon fill="#bfbfbf" stroke="#bfbfbf" points="64,-139.5 64,-139.5 172,-139.5 172,-139.5 64,-139.5"/>
<polygon fill="none" stroke="#bfbfbf" points="64,-121 64,-176 172,-176 172,-121 64,-121"/>
</a>
</g>
</g>
<!-- Node2&#45;&gt;Node1 -->
<g id="edge1_Node000001_Node000002" class="edge">
<title>Node2&#45;&gt;Node1</title>
<g id="a_edge1_Node000001_Node000002"><a xlink:title=" ">
<path fill="none" stroke="#63b8ff" d="M118,-110.89C118,-102.63 118,-93.79 118,-85.33"/>
<polygon fill="none" stroke="#63b8ff" points="114.5,-110.99 118,-120.99 121.5,-110.99 114.5,-110.99"/>
</a>
</g>
</g>
</g>
</svg>
</svg>

<style type='text/css'>
<![CDATA[
[data-mouse-over-selected='false'] { opacity: 0.7; }
[data-mouse-over-selected='true']  { opacity: 1.0; }
]]>
</style>
<script type="application/ecmascript"><![CDATA[
document.addEventListener('DOMContentLoaded', (event) => {
  highlightEdges();
  highlightAdjacentNodes();
});
]]></script>
</svg>
