<?xml version="1.0" encoding="UTF-8" standalone="no"?>
<!DOCTYPE svg PUBLIC "-//W3C//DTD SVG 1.1//EN"
 "http://www.w3.org/Graphics/SVG/1.1/DTD/svg11.dtd">
<!-- Generated by graphviz version 2.43.0 (0)
 -->
<!-- Title: ItemShape Pages: 1 -->
<svg width="332pt" height="170pt"
 viewBox="0.00 0.00 332.00 170.00" xmlns="http://www.w3.org/2000/svg" xmlns:xlink="http://www.w3.org/1999/xlink">
<g id="graph0" class="graph" transform="scale(1 1) rotate(0) translate(4 166)">
<title>ItemShape</title>
<!-- Node1 -->
<g id="Node000001" class="node">
<title>Node1</title>
<g id="a_Node000001"><a xlink:title=" ">
<polygon fill="#999999" stroke="transparent" points="223,-162 0,-162 0,0 223,0 223,-162"/>
<text text-anchor="start" x="78" y="-148.4" font-family="Consolas" font-size="12.00">ItemShape</text>
<text text-anchor="start" x="4.5" y="-131.4" font-family="Consolas" font-size="12.00">+</text>
<text text-anchor="start" x="16.5" y="-131.4" font-family="Consolas" font-size="12.00">bool[][][][] itemShapes</text>
<text text-anchor="start" x="4.5" y="-114.4" font-family="Consolas" font-size="12.00">+</text>
<text text-anchor="start" x="16.5" y="-114.4" font-family="Consolas" font-size="12.00">static ItemShape Instance</text>
<text text-anchor="start" x="4.5" y="-97.4" font-family="Consolas" font-size="12.00">+</text>
<text text-anchor="start" x="16.5" y="-97.4" font-family="Consolas" font-size="12.00">bool[][] GetItemShape</text>
<text text-anchor="start" x="16.5" y="-84.4" font-family="Consolas" font-size="12.00">(int shapeId, int rotation)</text>
<text text-anchor="start" x="4.5" y="-67.4" font-family="Consolas" font-size="12.00">&#45;</text>
<text text-anchor="start" x="16.5" y="-67.4" font-family="Consolas" font-size="12.00">ItemShape()</text>
<text text-anchor="start" x="4.5" y="-50.4" font-family="Consolas" font-size="12.00">&#45;</text>
<text text-anchor="start" x="16.5" y="-50.4" font-family="Consolas" font-size="12.00">void InitializeShape()</text>
<text text-anchor="start" x="4.5" y="-33.4" font-family="Consolas" font-size="12.00">&#45;</text>
<text text-anchor="start" x="16.5" y="-33.4" font-family="Consolas" font-size="12.00">void SetItemShape(int</text>
<text text-anchor="start" x="16.5" y="-20.4" font-family="Consolas" font-size="12.00"> shapeId, int rotation,</text>
<text text-anchor="start" x="16.5" y="-7.4" font-family="Consolas" font-size="12.00"> bool[][] visualShape)</text>
<polygon fill="#666666" stroke="#666666" points="0.5,-143 0.5,-143 223.5,-143 223.5,-143 0.5,-143"/>
<polygon fill="#666666" stroke="#666666" points="0.5,-109 0.5,-109 14.5,-109 14.5,-109 0.5,-109"/>
<polygon fill="#666666" stroke="#666666" points="14.5,-109 14.5,-109 223.5,-109 223.5,-109 14.5,-109"/>
<polygon fill="none" stroke="#666666" points="0,0 0,-162 223,-162 223,0 0,0"/>
</a>
</g>
</g>
<!-- Node1&#45;&gt;Node1 -->
<g id="edge1_Node000001_Node000001" class="edge">
<title>Node1&#45;&gt;Node1</title>
<g id="a_edge1_Node000001_Node000001"><a xlink:title=" ">
<path fill="none" stroke="#63b8ff" d="M223.39,-105.56C234.17,-100.58 241,-92.39 241,-81 241,-73.88 238.33,-68.01 233.7,-63.4"/>
<polygon fill="none" stroke="#63b8ff" points="233.34,-63.15 226.13,-63.11 223.39,-56.44 230.6,-56.48 233.34,-63.15"/>
</a>
</g>
<text text-anchor="middle" x="282.5" y="-77.3" font-family="Consolas" font-size="14.00" fill="grey"> &#45;instance</text>
</g>
</g>
</svg>
