<?xml version="1.0" encoding="UTF-8" standalone="no"?>
<!DOCTYPE svg PUBLIC "-//W3C//DTD SVG 1.1//EN"
 "http://www.w3.org/Graphics/SVG/1.1/DTD/svg11.dtd">
<!-- Generated by graphviz version 2.43.0 (0)
 -->
<!-- Title: CombatManager Pages: 1 -->
<svg width="224pt" height="453pt"
 viewBox="0.00 0.00 224.00 453.00" xmlns="http://www.w3.org/2000/svg" xmlns:xlink="http://www.w3.org/1999/xlink">
<g id="graph0" class="graph" transform="scale(1 1) rotate(0) translate(4 449)">
<title>CombatManager</title>
<!-- Node1 -->
<g id="Node000001" class="node">
<title>Node1</title>
<g id="a_Node000001"><a xlink:title="전투 전체 흐름을 관리하는 매니저 클래스입니다. 전투 상태를 전환하고, 관련 컨트롤러를 초기화하거나 업데이트합니다.">
<polygon fill="#999999" stroke="transparent" points="216,-354 0,-354 0,0 216,0 216,-354"/>
<text text-anchor="start" x="59" y="-340.4" font-family="Consolas" font-size="12.00">CombatManager</text>
<text text-anchor="start" x="4" y="-323.4" font-family="Consolas" font-size="12.00">+</text>
<text text-anchor="start" x="16" y="-323.4" font-family="Consolas" font-size="12.00">EnemyCamInteraction cam</text>
<text text-anchor="start" x="4" y="-306.4" font-family="Consolas" font-size="12.00">+</text>
<text text-anchor="start" x="16" y="-306.4" font-family="Consolas" font-size="12.00">OuterShipCombatController</text>
<text text-anchor="start" x="16" y="-293.4" font-family="Consolas" font-size="12.00"> outerShipCombatController</text>
<text text-anchor="start" x="4" y="-276.4" font-family="Consolas" font-size="12.00">+</text>
<text text-anchor="start" x="16" y="-276.4" font-family="Consolas" font-size="12.00">GameObject CCTV</text>
<text text-anchor="start" x="4" y="-259.4" font-family="Consolas" font-size="12.00">+</text>
<text text-anchor="start" x="16" y="-259.4" font-family="Consolas" font-size="12.00">GameObject defeatUI</text>
<text text-anchor="start" x="4" y="-242.4" font-family="Consolas" font-size="12.00">+</text>
<text text-anchor="start" x="16" y="-242.4" font-family="Consolas" font-size="12.00">GameObject winUI</text>
<text text-anchor="start" x="4" y="-225.4" font-family="Consolas" font-size="12.00">+</text>
<text text-anchor="start" x="16" y="-225.4" font-family="Consolas" font-size="12.00">static CombatManager</text>
<text text-anchor="start" x="16" y="-212.4" font-family="Consolas" font-size="12.00"> Instance</text>
<text text-anchor="start" x="4" y="-195.4" font-family="Consolas" font-size="12.00">&#45;</text>
<text text-anchor="start" x="16" y="-195.4" font-family="Consolas" font-size="12.00">CombatPhase currentPhase</text>
<text text-anchor="start" x="4" y="-178.4" font-family="Consolas" font-size="12.00">&#45;</text>
<text text-anchor="start" x="16" y="-178.4" font-family="Consolas" font-size="12.00">CombatUIController</text>
<text text-anchor="start" x="16" y="-165.4" font-family="Consolas" font-size="12.00"> uiController</text>
<text text-anchor="start" x="4" y="-148.4" font-family="Consolas" font-size="12.00">&#45;</text>
<text text-anchor="start" x="16" y="-148.4" font-family="Consolas" font-size="12.00">GraphicRaycaster combatUI</text>
<text text-anchor="start" x="4" y="-131.4" font-family="Consolas" font-size="12.00">+</text>
<text text-anchor="start" x="16" y="-131.4" font-family="Consolas" font-size="12.00">void Start()</text>
<text text-anchor="start" x="4" y="-114.4" font-family="Consolas" font-size="12.00">+</text>
<text text-anchor="start" x="16" y="-114.4" font-family="Consolas" font-size="12.00">void CombatEnding(Ship</text>
<text text-anchor="start" x="16" y="-101.4" font-family="Consolas" font-size="12.00"> ship)</text>
<text text-anchor="start" x="4" y="-84.4" font-family="Consolas" font-size="12.00">+</text>
<text text-anchor="start" x="16" y="-84.4" font-family="Consolas" font-size="12.00">void CombatDefeatedAndGo</text>
<text text-anchor="start" x="16" y="-71.4" font-family="Consolas" font-size="12.00">Home(bool isDefeated)</text>
<text text-anchor="start" x="4" y="-54.4" font-family="Consolas" font-size="12.00">+</text>
<text text-anchor="start" x="16" y="-54.4" font-family="Consolas" font-size="12.00">void Exit()</text>
<text text-anchor="start" x="4" y="-37.4" font-family="Consolas" font-size="12.00">&#45;</text>
<text text-anchor="start" x="16" y="-37.4" font-family="Consolas" font-size="12.00">void Awake()</text>
<text text-anchor="start" x="4" y="-20.4" font-family="Consolas" font-size="12.00">&#45;</text>
<text text-anchor="start" x="16" y="-20.4" font-family="Consolas" font-size="12.00">IEnumerator BackToTheHome</text>
<text text-anchor="start" x="16" y="-7.4" font-family="Consolas" font-size="12.00">(bool isDefeated)</text>
<polygon fill="#666666" stroke="#666666" points="0,-335 0,-335 216,-335 216,-335 0,-335"/>
<polygon fill="#666666" stroke="#666666" points="0,-143 0,-143 14,-143 14,-143 0,-143"/>
<polygon fill="#666666" stroke="#666666" points="14,-143 14,-143 216,-143 216,-143 14,-143"/>
<polygon fill="none" stroke="#666666" points="0,0 0,-354 216,-354 216,0 0,0"/>
</a>
</g>
</g>
<!-- Node2 -->
<g id="Node000002" class="node">
<title>Node2</title>
<g id="a_Node000002"><a xlink:title=" ">
<polygon fill="white" stroke="transparent" points="162,-445 54,-445 54,-390 162,-390 162,-445"/>
<text text-anchor="start" x="59" y="-430.9" font-family="Consolas" font-size="12.00">MonoBehaviour</text>
<text text-anchor="start" x="104" y="-413.9" font-family="Consolas" font-size="12.00"> </text>
<text text-anchor="start" x="104" y="-396.9" font-family="Consolas" font-size="12.00"> </text>
<polygon fill="#bfbfbf" stroke="#bfbfbf" points="54,-425.5 54,-425.5 162,-425.5 162,-425.5 54,-425.5"/>
<polygon fill="#bfbfbf" stroke="#bfbfbf" points="54,-408.5 54,-408.5 162,-408.5 162,-408.5 54,-408.5"/>
<polygon fill="none" stroke="#bfbfbf" points="54,-390 54,-445 162,-445 162,-390 54,-390"/>
</a>
</g>
</g>
<!-- Node2&#45;&gt;Node1 -->
<g id="edge1_Node000001_Node000002" class="edge">
<title>Node2&#45;&gt;Node1</title>
<g id="a_edge1_Node000001_Node000002"><a xlink:title=" ">
<path fill="none" stroke="#63b8ff" d="M108,-379.48C108,-371.9 108,-363.44 108,-354.41"/>
<polygon fill="none" stroke="#63b8ff" points="104.5,-379.6 108,-389.6 111.5,-379.6 104.5,-379.6"/>
</a>
</g>
</g>
</g>
</svg>
