<?xml version="1.0" encoding="UTF-8" standalone="no"?>
<!DOCTYPE svg PUBLIC "-//W3C//DTD SVG 1.1//EN"
 "http://www.w3.org/Graphics/SVG/1.1/DTD/svg11.dtd">
<!-- Generated by graphviz version 2.43.0 (0)
 -->
<!-- Title: EnemyCamInteraction Pages: 1 -->
<!--zoomable 487 -->

<svg id="main" version="1.1" xmlns="http://www.w3.org/2000/svg" xmlns:xlink="http://www.w3.org/1999/xlink" xml:space="preserve" onload="init(evt)">
<style type="text/css"><![CDATA[
.node, .edge {opacity: 0.7;}
.node.selected, .edge.selected {opacity: 1;}
.edge:hover path { stroke: red; }
.edge:hover polygon { stroke: red; fill: red; }
]]></style>

<defs>
  <circle id="rim" cx="0" cy="0" r="7"/>
  <circle id="rim2" cx="0" cy="0" r="3.5"/>
  <g id="zoomPlus">
    <use xlink:href="#rim" fill="#404040"><set attributeName="fill" to="#808080" begin="zoomplus.mouseover" end="zoomplus.mouseout"/></use>
    <path d="M-4,0h8M0,-4v8" fill="none" stroke="white" stroke-width="1.5" pointer-events="none"/>
  </g>
  <g id="zoomMin">
    <use xlink:href="#rim" fill="#404040"><set attributeName="fill" to="#808080" begin="zoomminus.mouseover" end="zoomminus.mouseout"/></use>
    <path d="M-4,0h8" fill="none" stroke="white" stroke-width="1.5" pointer-events="none"/>
  </g>
  <g id="arrowUp" transform="translate(30 24)">
    <use xlink:href="#rim"/>
    <path pointer-events="none" fill="none" stroke="white" stroke-width="1.5" d="M0,-3.0v7 M-2.5,-0.5L0,-3.0L2.5,-0.5"/>
  </g>
  <g id="arrowRight" transform="rotate(90) translate(36 -43)">
    <use xlink:href="#rim"/>
    <path pointer-events="none" fill="none" stroke="white" stroke-width="1.5" d="M0,-3.0v7 M-2.5,-0.5L0,-3.0L2.5,-0.5"/>
  </g>
  <g id="arrowDown" transform="rotate(180) translate(-30 -48)">
    <use xlink:href="#rim"/>
    <path pointer-events="none" fill="none" stroke="white" stroke-width="1.5" d="M0,-3.0v7 M-2.5,-0.5L0,-3.0L2.5,-0.5"/>
  </g>
  <g id="arrowLeft" transform="rotate(270) translate(-36 17)">
    <use xlink:href="#rim"/>
    <path pointer-events="none" fill="none" stroke="white" stroke-width="1.5" d="M0,-3.0v7 M-2.5,-0.5L0,-3.0L2.5,-0.5"/>
  </g>
  <g id="resetDef">
    <use xlink:href="#rim2" fill="#404040"><set attributeName="fill" to="#808080" begin="reset.mouseover" end="reset.mouseout"/></use>
  </g>
</defs>
<script type="application/ecmascript">
var viewWidth = 580;
var viewHeight = 487;
var sectionId = 'dynsection-1';
</script>
<script type="application/ecmascript" xlink:href="svg.min.js"/>
<svg id="graph" class="graph">
<g id="viewport">
<title>EnemyCamInteraction</title>
<!-- Node1 -->
<g id="Node000001" class="node">
<title>Node1</title>
<g id="a_Node000001"><a xlink:title=" ">
<polygon fill="#999999" stroke="transparent" points="426.5,-358 143.5,-358 143.5,0 426.5,0 426.5,-358"/>
<text text-anchor="start" x="214" y="-344.4" font-family="Consolas" font-size="12.00">EnemyCamInteraction</text>
<text text-anchor="start" x="148" y="-327.4" font-family="Consolas" font-size="12.00">+</text>
<text text-anchor="start" x="160" y="-327.4" font-family="Consolas" font-size="12.00">Camera enemyCam</text>
<text text-anchor="start" x="148" y="-310.4" font-family="Consolas" font-size="12.00">+</text>
<text text-anchor="start" x="160" y="-310.4" font-family="Consolas" font-size="12.00">RectTransform displayRect</text>
<text text-anchor="start" x="148" y="-293.4" font-family="Consolas" font-size="12.00">+</text>
<text text-anchor="start" x="160" y="-293.4" font-family="Consolas" font-size="12.00">RenderTexture enemyCamTexture</text>
<text text-anchor="start" x="148" y="-276.4" font-family="Consolas" font-size="12.00">+</text>
<text text-anchor="start" x="160" y="-276.4" font-family="Consolas" font-size="12.00">float enemyCamPadding</text>
<text text-anchor="start" x="148" y="-259.4" font-family="Consolas" font-size="12.00">&#45;</text>
<text text-anchor="start" x="160" y="-259.4" font-family="Consolas" font-size="12.00">bool displayOn</text>
<text text-anchor="start" x="148" y="-242.4" font-family="Consolas" font-size="12.00">&#45;</text>
<text text-anchor="start" x="160" y="-242.4" font-family="Consolas" font-size="12.00">Bounds enemyBound</text>
<text text-anchor="start" x="148" y="-225.4" font-family="Consolas" font-size="12.00">+</text>
<text text-anchor="start" x="160" y="-225.4" font-family="Consolas" font-size="12.00">void PanelClicked()</text>
<text text-anchor="start" x="148" y="-208.4" font-family="Consolas" font-size="12.00">+</text>
<text text-anchor="start" x="160" y="-208.4" font-family="Consolas" font-size="12.00">void OnPointerDown</text>
<text text-anchor="start" x="160" y="-195.4" font-family="Consolas" font-size="12.00">(PointerEventData eventData)</text>
<text text-anchor="start" x="148" y="-178.4" font-family="Consolas" font-size="12.00">+</text>
<text text-anchor="start" x="160" y="-178.4" font-family="Consolas" font-size="12.00">void OnPointerUp(Pointer</text>
<text text-anchor="start" x="160" y="-165.4" font-family="Consolas" font-size="12.00">EventData eventData)</text>
<text text-anchor="start" x="148" y="-148.4" font-family="Consolas" font-size="12.00">+</text>
<text text-anchor="start" x="160" y="-148.4" font-family="Consolas" font-size="12.00">void EnemyCamAim()</text>
<text text-anchor="start" x="148" y="-131.4" font-family="Consolas" font-size="12.00">&#45;</text>
<text text-anchor="start" x="160" y="-131.4" font-family="Consolas" font-size="12.00">Vector2 RectPointToUV</text>
<text text-anchor="start" x="160" y="-118.4" font-family="Consolas" font-size="12.00">(Vector2 point, RectTransform rect)</text>
<text text-anchor="start" x="148" y="-101.4" font-family="Consolas" font-size="12.00">&#45;</text>
<text text-anchor="start" x="160" y="-101.4" font-family="Consolas" font-size="12.00">Vector2? MainScreenPoint</text>
<text text-anchor="start" x="160" y="-88.4" font-family="Consolas" font-size="12.00">ToEnemyCamScreenPoint</text>
<text text-anchor="start" x="160" y="-75.4" font-family="Consolas" font-size="12.00">(PointerEventData eventData)</text>
<text text-anchor="start" x="148" y="-58.4" font-family="Consolas" font-size="12.00">&#45;</text>
<text text-anchor="start" x="160" y="-58.4" font-family="Consolas" font-size="12.00">Rect GetWorldRect()</text>
<text text-anchor="start" x="148" y="-41.4" font-family="Consolas" font-size="12.00">&#45;</text>
<text text-anchor="start" x="160" y="-41.4" font-family="Consolas" font-size="12.00">void CalculateBounds()</text>
<text text-anchor="start" x="148" y="-24.4" font-family="Consolas" font-size="12.00">&#45;</text>
<text text-anchor="start" x="160" y="-24.4" font-family="Consolas" font-size="12.00">void Start()</text>
<text text-anchor="start" x="148" y="-7.4" font-family="Consolas" font-size="12.00">&#45;</text>
<text text-anchor="start" x="160" y="-7.4" font-family="Consolas" font-size="12.00">void Update()</text>
<polygon fill="#666666" stroke="#666666" points="144,-339 144,-339 427,-339 427,-339 144,-339"/>
<polygon fill="#666666" stroke="#666666" points="144,-237 144,-237 158,-237 158,-237 144,-237"/>
<polygon fill="#666666" stroke="#666666" points="158,-237 158,-237 427,-237 427,-237 158,-237"/>
<polygon fill="none" stroke="#666666" points="143.5,0 143.5,-358 426.5,-358 426.5,0 143.5,0"/>
</a>
</g>
</g>
<!-- Node2 -->
<g id="Node000002" class="node">
<title>Node2</title>
<g id="a_Node000002"><a xlink:title=" ">
<polygon fill="white" stroke="transparent" points="108,-479 0,-479 0,-424 108,-424 108,-479"/>
<text text-anchor="start" x="5" y="-464.9" font-family="Consolas" font-size="12.00">MonoBehaviour</text>
<text text-anchor="start" x="50" y="-447.9" font-family="Consolas" font-size="12.00"> </text>
<text text-anchor="start" x="50" y="-430.9" font-family="Consolas" font-size="12.00"> </text>
<polygon fill="#bfbfbf" stroke="#bfbfbf" points="0,-459.5 0,-459.5 108,-459.5 108,-459.5 0,-459.5"/>
<polygon fill="#bfbfbf" stroke="#bfbfbf" points="0,-442.5 0,-442.5 108,-442.5 108,-442.5 0,-442.5"/>
<polygon fill="none" stroke="#bfbfbf" points="0,-424 0,-479 108,-479 108,-424 0,-424"/>
</a>
</g>
</g>
<!-- Node2&#45;&gt;Node1 -->
<g id="edge1_Node000001_Node000002" class="edge">
<title>Node2&#45;&gt;Node1</title>
<g id="a_edge1_Node000001_Node000002"><a xlink:title=" ">
<path fill="none" stroke="#63b8ff" d="M83.55,-415.89C99.62,-397.08 120.79,-372.29 143.36,-345.85"/>
<polygon fill="none" stroke="#63b8ff" points="80.83,-413.7 76.99,-423.57 86.15,-418.24 80.83,-413.7"/>
</a>
</g>
</g>
<!-- Node3 -->
<g id="Node000003" class="node">
<title>Node3</title>
<g id="a_Node000003"><a xlink:title=" ">
<polygon fill="white" stroke="transparent" points="279.5,-479 126.5,-479 126.5,-424 279.5,-424 279.5,-479"/>
<text text-anchor="start" x="132" y="-464.9" font-family="Consolas" font-size="12.00">IPointerDownHandler</text>
<text text-anchor="start" x="199.5" y="-447.9" font-family="Consolas" font-size="12.00"> </text>
<text text-anchor="start" x="199.5" y="-430.9" font-family="Consolas" font-size="12.00"> </text>
<polygon fill="#bfbfbf" stroke="#bfbfbf" points="127,-459.5 127,-459.5 280,-459.5 280,-459.5 127,-459.5"/>
<polygon fill="#bfbfbf" stroke="#bfbfbf" points="127,-442.5 127,-442.5 280,-442.5 280,-442.5 127,-442.5"/>
<polygon fill="none" stroke="#bfbfbf" points="126.5,-424 126.5,-479 279.5,-479 279.5,-424 126.5,-424"/>
</a>
</g>
</g>
<!-- Node3&#45;&gt;Node1 -->
<g id="edge2_Node000001_Node000003" class="edge">
<title>Node3&#45;&gt;Node1</title>
<g id="a_edge2_Node000001_Node000003"><a xlink:title=" ">
<path fill="none" stroke="#63b8ff" d="M214.08,-413.94C218.79,-398.4 224.66,-379.05 230.99,-358.17"/>
<polygon fill="none" stroke="#63b8ff" points="210.71,-412.99 211.16,-423.57 217.41,-415.02 210.71,-412.99"/>
</a>
</g>
</g>
<!-- Node4 -->
<g id="Node000004" class="node">
<title>Node4</title>
<g id="a_Node000004"><a xlink:title=" ">
<polygon fill="white" stroke="transparent" points="436,-479 298,-479 298,-424 436,-424 436,-479"/>
<text text-anchor="start" x="303" y="-464.9" font-family="Consolas" font-size="12.00">IPointerUpHandler</text>
<text text-anchor="start" x="363" y="-447.9" font-family="Consolas" font-size="12.00"> </text>
<text text-anchor="start" x="363" y="-430.9" font-family="Consolas" font-size="12.00"> </text>
<polygon fill="#bfbfbf" stroke="#bfbfbf" points="298,-459.5 298,-459.5 436,-459.5 436,-459.5 298,-459.5"/>
<polygon fill="#bfbfbf" stroke="#bfbfbf" points="298,-442.5 298,-442.5 436,-442.5 436,-442.5 298,-442.5"/>
<polygon fill="none" stroke="#bfbfbf" points="298,-424 298,-479 436,-479 436,-424 298,-424"/>
</a>
</g>
</g>
<!-- Node4&#45;&gt;Node1 -->
<g id="edge3_Node000001_Node000004" class="edge">
<title>Node4&#45;&gt;Node1</title>
<g id="a_edge3_Node000001_Node000004"><a xlink:title=" ">
<path fill="none" stroke="#63b8ff" d="M355.92,-413.94C351.21,-398.4 345.34,-379.05 339.01,-358.17"/>
<polygon fill="none" stroke="#63b8ff" points="352.59,-415.02 358.84,-423.57 359.29,-412.99 352.59,-415.02"/>
</a>
</g>
</g>
<!-- Node5 -->
<g id="Node000005" class="node">
<title>Node5</title>
<g id="a_Node000005"><a xlink:title=" ">
<polygon fill="white" stroke="transparent" points="547.5,-479 454.5,-479 454.5,-424 547.5,-424 547.5,-479"/>
<text text-anchor="start" x="460" y="-464.9" font-family="Consolas" font-size="12.00">UnityEngine</text>
<text text-anchor="start" x="497.5" y="-447.9" font-family="Consolas" font-size="12.00"> </text>
<text text-anchor="start" x="497.5" y="-430.9" font-family="Consolas" font-size="12.00"> </text>
<polygon fill="#bfbfbf" stroke="#bfbfbf" points="455,-459.5 455,-459.5 548,-459.5 548,-459.5 455,-459.5"/>
<polygon fill="#bfbfbf" stroke="#bfbfbf" points="455,-442.5 455,-442.5 548,-442.5 548,-442.5 455,-442.5"/>
<polygon fill="none" stroke="#bfbfbf" points="454.5,-424 454.5,-479 547.5,-479 547.5,-424 454.5,-424"/>
</a>
</g>
</g>
<!-- Node5&#45;&gt;Node1 -->
<g id="edge4_Node000001_Node000005" class="edge">
<title>Node5&#45;&gt;Node1</title>
<g id="a_edge4_Node000001_Node000005"><a xlink:title=" ">
<path fill="none" stroke="#63b8ff" d="M479.5,-423.57C467.64,-408.72 451.77,-388.85 434.18,-366.82"/>
<polygon fill="none" stroke="#63b8ff" points="434.03,-366.64 427.17,-364.45 426.55,-357.26 433.42,-359.45 434.03,-366.64"/>
</a>
</g>
<text text-anchor="middle" x="518" y="-394.8" font-family="Consolas" font-size="14.00" fill="grey"> &#45;dragEndPos</text>
<text text-anchor="middle" x="518" y="-379.8" font-family="Consolas" font-size="14.00" fill="grey">&#45;dragStartPos</text>
</g>
</g>
</svg>

<g id="navigator" transform="translate(0 0)" fill="#404254">
  <rect fill="#f2f5e9" fill-opacity="0.5" stroke="#606060" stroke-width=".5" x="0" y="0" width="60" height="60"/>
  <use id="zoomplus" xlink:href="#zoomPlus" x="17" y="9" onmousedown="handleZoom(evt,'in')"/>
  <use id="zoomminus" xlink:href="#zoomMin" x="42" y="9" onmousedown="handleZoom(evt,'out')"/>
  <use id="reset" xlink:href="#resetDef" x="30" y="36" onmousedown="handleReset()"/>
   <use id="arrowup" xlink:href="#arrowUp" x="0" y="0" onmousedown="handlePan(0,-1)"/>
  <use id="arrowright" xlink:href="#arrowRight" x="0" y="0" onmousedown="handlePan(1,0)"/>
  <use id="arrowdown" xlink:href="#arrowDown" x="0" y="0" onmousedown="handlePan(0,1)"/>
  <use id="arrowleft" xlink:href="#arrowLeft" x="0" y="0" onmousedown="handlePan(-1,0)"/>
</g>
<svg viewBox="0 0 15 15" width="100%" height="30px" preserveAspectRatio="xMaxYMin meet">
 <g id="arrow_out" transform="scale(0.3 0.3)">
  <a xlink:href="classEnemyCamInteraction__coll__graph_org.svg" target="_base">
   <rect id="button" ry="5" rx="5" y="6" x="6" height="38" width="38"
        fill="#f2f5e9" fill-opacity="0.5" stroke="#606060" stroke-width="1.0"/>
   <path id="arrow"
     d="M 11.500037,31.436501 C 11.940474,20.09759 22.043105,11.32322 32.158766,21.979434 L 37.068811,17.246167 C 37.068811,17.246167 37.088388,32 37.088388,32 L 22.160133,31.978069 C 22.160133,31.978069 26.997745,27.140456 26.997745,27.140456 C 18.528582,18.264221 13.291696,25.230495 11.500037,31.436501 z"
     style="fill:#404040;"/>
  </a>
 </g>
</svg>

<style type='text/css'>
<![CDATA[
[data-mouse-over-selected='false'] { opacity: 0.7; }
[data-mouse-over-selected='true']  { opacity: 1.0; }
]]>
</style>
<script type="application/ecmascript"><![CDATA[
document.addEventListener('DOMContentLoaded', (event) => {
  highlightEdges();
  highlightAdjacentNodes();
});
]]></script>
</svg>
