<?xml version="1.0" encoding="UTF-8" standalone="no"?>
<!DOCTYPE svg PUBLIC "-//W3C//DTD SVG 1.1//EN"
 "http://www.w3.org/Graphics/SVG/1.1/DTD/svg11.dtd">
<!-- Generated by graphviz version 2.43.0 (0)
 -->
<!-- Title: EquipmentInfoPanel Pages: 1 -->
<svg width="467pt" height="1104pt"
 viewBox="0.00 0.00 466.50 1104.00" xmlns="http://www.w3.org/2000/svg" xmlns:xlink="http://www.w3.org/1999/xlink">
<g id="graph0" class="graph" transform="scale(1 1) rotate(0) translate(4 1100)">
<title>EquipmentInfoPanel</title>
<!-- Node1 -->
<g id="Node000001" class="node">
<title>Node1</title>
<g id="a_Node000001"><a xlink:title=" ">
<polygon fill="#999999" stroke="transparent" points="348.5,-435 65.5,-435 65.5,0 348.5,0 348.5,-435"/>
<text text-anchor="start" x="139.5" y="-420.9" font-family="Consolas" font-size="12.00">EquipmentInfoPanel</text>
<text text-anchor="start" x="70" y="-403.9" font-family="Consolas" font-size="12.00">+</text>
<text text-anchor="start" x="82" y="-403.9" font-family="Consolas" font-size="12.00">Button panelButton</text>
<text text-anchor="start" x="70" y="-386.9" font-family="Consolas" font-size="12.00">+</text>
<text text-anchor="start" x="82" y="-386.9" font-family="Consolas" font-size="12.00">EquipmentItem CurrentEquipmentItem</text>
<text text-anchor="start" x="70" y="-369.9" font-family="Consolas" font-size="12.00">&#45;</text>
<text text-anchor="start" x="82" y="-369.9" font-family="Consolas" font-size="12.00">TextMeshProUGUI equipment</text>
<text text-anchor="start" x="82" y="-356.9" font-family="Consolas" font-size="12.00">NameText</text>
<text text-anchor="start" x="70" y="-339.9" font-family="Consolas" font-size="12.00">&#45;</text>
<text text-anchor="start" x="82" y="-339.9" font-family="Consolas" font-size="12.00">Image iconImage</text>
<text text-anchor="start" x="70" y="-322.9" font-family="Consolas" font-size="12.00">&#45;</text>
<text text-anchor="start" x="82" y="-322.9" font-family="Consolas" font-size="12.00">List&lt; Image &gt; skillIconImages</text>
<text text-anchor="start" x="70" y="-305.9" font-family="Consolas" font-size="12.00">&#45;</text>
<text text-anchor="start" x="82" y="-305.9" font-family="Consolas" font-size="12.00">List&lt; TextMeshProUGUI</text>
<text text-anchor="start" x="82" y="-292.9" font-family="Consolas" font-size="12.00"> &gt; skillEffectTexts</text>
<text text-anchor="start" x="70" y="-275.9" font-family="Consolas" font-size="12.00">&#45;</text>
<text text-anchor="start" x="82" y="-275.9" font-family="Consolas" font-size="12.00">List&lt; SkillSpritePair</text>
<text text-anchor="start" x="82" y="-262.9" font-family="Consolas" font-size="12.00"> &gt; skillIconSprites</text>
<text text-anchor="start" x="70" y="-245.9" font-family="Consolas" font-size="12.00">&#45;</text>
<text text-anchor="start" x="82" y="-245.9" font-family="Consolas" font-size="12.00">Dictionary&lt; SkillType,</text>
<text text-anchor="start" x="82" y="-232.9" font-family="Consolas" font-size="12.00"> Sprite &gt; dict</text>
<text text-anchor="start" x="70" y="-215.9" font-family="Consolas" font-size="12.00">&#45;</text>
<text text-anchor="start" x="82" y="-215.9" font-family="Consolas" font-size="12.00">Sprite attackSprite</text>
<text text-anchor="start" x="70" y="-198.9" font-family="Consolas" font-size="12.00">&#45;</text>
<text text-anchor="start" x="82" y="-198.9" font-family="Consolas" font-size="12.00">Sprite defenseSprite</text>
<text text-anchor="start" x="70" y="-181.9" font-family="Consolas" font-size="12.00">&#45;</text>
<text text-anchor="start" x="82" y="-181.9" font-family="Consolas" font-size="12.00">Sprite hitpointSprite</text>
<text text-anchor="start" x="70" y="-164.9" font-family="Consolas" font-size="12.00">&#45;</text>
<text text-anchor="start" x="82" y="-164.9" font-family="Consolas" font-size="12.00">EquipmentItem currentEquipmentItem</text>
<text text-anchor="start" x="70" y="-147.9" font-family="Consolas" font-size="12.00">&#45;</text>
<text text-anchor="start" x="82" y="-147.9" font-family="Consolas" font-size="12.00">TradeUIController tradeUIController</text>
<text text-anchor="start" x="70" y="-130.9" font-family="Consolas" font-size="12.00">+</text>
<text text-anchor="start" x="82" y="-130.9" font-family="Consolas" font-size="12.00">void Initialize(Equipment</text>
<text text-anchor="start" x="82" y="-117.9" font-family="Consolas" font-size="12.00">Item equipmentItem)</text>
<text text-anchor="start" x="70" y="-100.9" font-family="Consolas" font-size="12.00">+</text>
<text text-anchor="start" x="82" y="-100.9" font-family="Consolas" font-size="12.00">Sprite GetSkillSprite</text>
<text text-anchor="start" x="82" y="-87.9" font-family="Consolas" font-size="12.00">(SkillType skill)</text>
<text text-anchor="start" x="70" y="-70.9" font-family="Consolas" font-size="12.00">+</text>
<text text-anchor="start" x="82" y="-70.9" font-family="Consolas" font-size="12.00">void HideTooltip()</text>
<text text-anchor="start" x="70" y="-53.9" font-family="Consolas" font-size="12.00">#</text>
<text text-anchor="start" x="82" y="-53.9" font-family="Consolas" font-size="12.00">override void SetToolTip</text>
<text text-anchor="start" x="82" y="-40.9" font-family="Consolas" font-size="12.00">Text()</text>
<text text-anchor="start" x="70" y="-23.9" font-family="Consolas" font-size="12.00">&#45;</text>
<text text-anchor="start" x="82" y="-23.9" font-family="Consolas" font-size="12.00">void Awake()</text>
<text text-anchor="start" x="70" y="-6.9" font-family="Consolas" font-size="12.00">&#45;</text>
<text text-anchor="start" x="82" y="-6.9" font-family="Consolas" font-size="12.00">void Start()</text>
<polygon fill="#666666" stroke="#666666" points="66,-415.5 66,-415.5 349,-415.5 349,-415.5 66,-415.5"/>
<polygon fill="#666666" stroke="#666666" points="66,-142.5 66,-142.5 80,-142.5 80,-142.5 66,-142.5"/>
<polygon fill="#666666" stroke="#666666" points="80,-142.5 80,-142.5 349,-142.5 349,-142.5 80,-142.5"/>
<polygon fill="none" stroke="#666666" points="65.5,0 65.5,-435 348.5,-435 348.5,0 65.5,0"/>
</a>
</g>
</g>
<!-- Node2 -->
<g id="Node000002" class="node">
<title>Node2</title>
<g id="a_Node000002"><a xlink:href="classTooltipPanelBase.html" target="_top" xlink:title=" ">
<polygon fill="white" stroke="transparent" points="322.5,-1005 91.5,-1005 91.5,-471 322.5,-471 322.5,-1005"/>
<text text-anchor="start" x="147" y="-991.4" font-family="Consolas" font-size="12.00">TooltipPanelBase</text>
<text text-anchor="start" x="96" y="-974.4" font-family="Consolas" font-size="12.00">#</text>
<text text-anchor="start" x="108" y="-974.4" font-family="Consolas" font-size="12.00">GameObject tooltipPrefab</text>
<text text-anchor="start" x="96" y="-957.4" font-family="Consolas" font-size="12.00">#</text>
<text text-anchor="start" x="108" y="-957.4" font-family="Consolas" font-size="12.00">GameObject currentToolTip</text>
<text text-anchor="start" x="96" y="-940.4" font-family="Consolas" font-size="12.00">#</text>
<text text-anchor="start" x="108" y="-940.4" font-family="Consolas" font-size="12.00">Canvas canvasComponent</text>
<text text-anchor="start" x="96" y="-923.4" font-family="Consolas" font-size="12.00">#</text>
<text text-anchor="start" x="108" y="-923.4" font-family="Consolas" font-size="12.00">RectTransform canvasRect</text>
<text text-anchor="start" x="108" y="-910.4" font-family="Consolas" font-size="12.00">Transform</text>
<text text-anchor="start" x="96" y="-893.4" font-family="Consolas" font-size="12.00">#</text>
<text text-anchor="start" x="108" y="-893.4" font-family="Consolas" font-size="12.00">bool isMouseOver</text>
<text text-anchor="start" x="96" y="-876.4" font-family="Consolas" font-size="12.00">#</text>
<text text-anchor="start" x="108" y="-876.4" font-family="Consolas" font-size="12.00">Coroutine toolTipCoroutine</text>
<text text-anchor="start" x="96" y="-859.4" font-family="Consolas" font-size="12.00">#</text>
<text text-anchor="start" x="108" y="-859.4" font-family="Consolas" font-size="12.00">GameObject tooltipParent</text>
<text text-anchor="start" x="96" y="-842.4" font-family="Consolas" font-size="12.00">#</text>
<text text-anchor="start" x="108" y="-842.4" font-family="Consolas" font-size="12.00">Vector2 lastMousePosition</text>
<text text-anchor="start" x="96" y="-825.4" font-family="Consolas" font-size="12.00">+</text>
<text text-anchor="start" x="108" y="-825.4" font-family="Consolas" font-size="12.00">virtual void OnPointerEnter</text>
<text text-anchor="start" x="108" y="-812.4" font-family="Consolas" font-size="12.00">(PointerEventData eventData)</text>
<text text-anchor="start" x="96" y="-795.4" font-family="Consolas" font-size="12.00">+</text>
<text text-anchor="start" x="108" y="-795.4" font-family="Consolas" font-size="12.00">virtual void OnPointerExit</text>
<text text-anchor="start" x="108" y="-782.4" font-family="Consolas" font-size="12.00">(PointerEventData eventData)</text>
<text text-anchor="start" x="96" y="-765.4" font-family="Consolas" font-size="12.00">#</text>
<text text-anchor="start" x="108" y="-765.4" font-family="Consolas" font-size="12.00">virtual void Start()</text>
<text text-anchor="start" x="96" y="-748.4" font-family="Consolas" font-size="12.00">#</text>
<text text-anchor="start" x="108" y="-748.4" font-family="Consolas" font-size="12.00">virtual void Update()</text>
<text text-anchor="start" x="96" y="-731.4" font-family="Consolas" font-size="12.00">#</text>
<text text-anchor="start" x="108" y="-731.4" font-family="Consolas" font-size="12.00">virtual void CreateTooltip()</text>
<text text-anchor="start" x="96" y="-714.4" font-family="Consolas" font-size="12.00">#</text>
<text text-anchor="start" x="108" y="-714.4" font-family="Consolas" font-size="12.00">virtual void OnMouseEnter</text>
<text text-anchor="start" x="108" y="-701.4" font-family="Consolas" font-size="12.00">(PointerEventData eventData)</text>
<text text-anchor="start" x="96" y="-684.4" font-family="Consolas" font-size="12.00">#</text>
<text text-anchor="start" x="108" y="-684.4" font-family="Consolas" font-size="12.00">virtual void OnMouseExit</text>
<text text-anchor="start" x="108" y="-671.4" font-family="Consolas" font-size="12.00">(PointerEventData eventData)</text>
<text text-anchor="start" x="96" y="-654.4" font-family="Consolas" font-size="12.00">#</text>
<text text-anchor="start" x="108" y="-654.4" font-family="Consolas" font-size="12.00">virtual void UpdateToolTip</text>
<text text-anchor="start" x="108" y="-641.4" font-family="Consolas" font-size="12.00">PositionFromMouse()</text>
<text text-anchor="start" x="96" y="-624.4" font-family="Consolas" font-size="12.00">#</text>
<text text-anchor="start" x="108" y="-624.4" font-family="Consolas" font-size="12.00">virtual void UpdateToolTip</text>
<text text-anchor="start" x="108" y="-611.4" font-family="Consolas" font-size="12.00">Position(PointerEventData</text>
<text text-anchor="start" x="108" y="-598.4" font-family="Consolas" font-size="12.00"> eventData)</text>
<text text-anchor="start" x="96" y="-581.4" font-family="Consolas" font-size="12.00">#</text>
<text text-anchor="start" x="108" y="-581.4" font-family="Consolas" font-size="12.00">virtual void UpdateToolTip</text>
<text text-anchor="start" x="108" y="-568.4" font-family="Consolas" font-size="12.00">PositionInternal(Vector2</text>
<text text-anchor="start" x="108" y="-555.4" font-family="Consolas" font-size="12.00"> mousePosition)</text>
<text text-anchor="start" x="96" y="-538.4" font-family="Consolas" font-size="12.00">#</text>
<text text-anchor="start" x="108" y="-538.4" font-family="Consolas" font-size="12.00">virtual IEnumerator</text>
<text text-anchor="start" x="108" y="-525.4" font-family="Consolas" font-size="12.00"> ShowToolTipWithDelay</text>
<text text-anchor="start" x="108" y="-512.4" font-family="Consolas" font-size="12.00">(PointerEventData eventData)</text>
<text text-anchor="start" x="96" y="-495.4" font-family="Consolas" font-size="12.00">#</text>
<text text-anchor="start" x="108" y="-495.4" font-family="Consolas" font-size="12.00">virtual void OnDestroy()</text>
<text text-anchor="start" x="96" y="-478.4" font-family="Consolas" font-size="12.00">#</text>
<text text-anchor="start" x="108" y="-478.4" font-family="Consolas" font-size="12.00">void SetToolTipText()</text>
<polygon fill="#bfbfbf" stroke="#bfbfbf" points="92,-986 92,-986 323,-986 323,-986 92,-986"/>
<polygon fill="#bfbfbf" stroke="#bfbfbf" points="92,-837 92,-837 106,-837 106,-837 92,-837"/>
<polygon fill="#bfbfbf" stroke="#bfbfbf" points="106,-837 106,-837 323,-837 323,-837 106,-837"/>
<polygon fill="none" stroke="#bfbfbf" points="91.5,-471 91.5,-1005 322.5,-1005 322.5,-471 91.5,-471"/>
</a>
</g>
</g>
<!-- Node2&#45;&gt;Node1 -->
<g id="edge1_Node000001_Node000002" class="edge">
<title>Node2&#45;&gt;Node1</title>
<g id="a_edge1_Node000001_Node000002"><a xlink:title=" ">
<path fill="none" stroke="#63b8ff" d="M207,-460.85C207,-452.29 207,-443.75 207,-435.27"/>
<polygon fill="none" stroke="#63b8ff" points="203.5,-460.91 207,-470.92 210.5,-460.92 203.5,-460.91"/>
</a>
</g>
</g>
<!-- Node3 -->
<g id="Node000003" class="node">
<title>Node3</title>
<g id="a_Node000003"><a xlink:title=" ">
<polygon fill="white" stroke="transparent" points="108,-1096 0,-1096 0,-1041 108,-1041 108,-1096"/>
<text text-anchor="start" x="5" y="-1081.9" font-family="Consolas" font-size="12.00">MonoBehaviour</text>
<text text-anchor="start" x="50" y="-1064.9" font-family="Consolas" font-size="12.00"> </text>
<text text-anchor="start" x="50" y="-1047.9" font-family="Consolas" font-size="12.00"> </text>
<polygon fill="#bfbfbf" stroke="#bfbfbf" points="0,-1076.5 0,-1076.5 108,-1076.5 108,-1076.5 0,-1076.5"/>
<polygon fill="#bfbfbf" stroke="#bfbfbf" points="0,-1059.5 0,-1059.5 108,-1059.5 108,-1059.5 0,-1059.5"/>
<polygon fill="none" stroke="#bfbfbf" points="0,-1041 0,-1096 108,-1096 108,-1041 0,-1041"/>
</a>
</g>
</g>
<!-- Node3&#45;&gt;Node2 -->
<g id="edge2_Node000002_Node000003" class="edge">
<title>Node3&#45;&gt;Node2</title>
<g id="a_edge2_Node000002_Node000003"><a xlink:title=" ">
<path fill="none" stroke="#63b8ff" d="M70.62,-1031.82C76.47,-1019.25 83.58,-1004 91.43,-987.14"/>
<polygon fill="none" stroke="#63b8ff" points="67.44,-1030.35 66.39,-1040.9 73.79,-1033.31 67.44,-1030.35"/>
</a>
</g>
</g>
<!-- Node4 -->
<g id="Node000004" class="node">
<title>Node4</title>
<g id="a_Node000004"><a xlink:title=" ">
<polygon fill="white" stroke="transparent" points="287.5,-1096 126.5,-1096 126.5,-1041 287.5,-1041 287.5,-1096"/>
<text text-anchor="start" x="132" y="-1081.9" font-family="Consolas" font-size="12.00">IPointerEnterHandler</text>
<text text-anchor="start" x="203.5" y="-1064.9" font-family="Consolas" font-size="12.00"> </text>
<text text-anchor="start" x="203.5" y="-1047.9" font-family="Consolas" font-size="12.00"> </text>
<polygon fill="#bfbfbf" stroke="#bfbfbf" points="127,-1076.5 127,-1076.5 288,-1076.5 288,-1076.5 127,-1076.5"/>
<polygon fill="#bfbfbf" stroke="#bfbfbf" points="127,-1059.5 127,-1059.5 288,-1059.5 288,-1059.5 127,-1059.5"/>
<polygon fill="none" stroke="#bfbfbf" points="126.5,-1041 126.5,-1096 287.5,-1096 287.5,-1041 126.5,-1041"/>
</a>
</g>
</g>
<!-- Node4&#45;&gt;Node2 -->
<g id="edge3_Node000002_Node000004" class="edge">
<title>Node4&#45;&gt;Node2</title>
<g id="a_edge3_Node000002_Node000004"><a xlink:title=" ">
<path fill="none" stroke="#63b8ff" d="M207,-1030.74C207,-1023.09 207,-1014.48 207,-1005.15"/>
<polygon fill="none" stroke="#63b8ff" points="203.5,-1030.9 207,-1040.9 210.5,-1030.9 203.5,-1030.9"/>
</a>
</g>
</g>
<!-- Node5 -->
<g id="Node000005" class="node">
<title>Node5</title>
<g id="a_Node000005"><a xlink:title=" ">
<polygon fill="white" stroke="transparent" points="458.5,-1096 305.5,-1096 305.5,-1041 458.5,-1041 458.5,-1096"/>
<text text-anchor="start" x="311" y="-1081.9" font-family="Consolas" font-size="12.00">IPointerExitHandler</text>
<text text-anchor="start" x="378.5" y="-1064.9" font-family="Consolas" font-size="12.00"> </text>
<text text-anchor="start" x="378.5" y="-1047.9" font-family="Consolas" font-size="12.00"> </text>
<polygon fill="#bfbfbf" stroke="#bfbfbf" points="306,-1076.5 306,-1076.5 459,-1076.5 459,-1076.5 306,-1076.5"/>
<polygon fill="#bfbfbf" stroke="#bfbfbf" points="306,-1059.5 306,-1059.5 459,-1059.5 459,-1059.5 306,-1059.5"/>
<polygon fill="none" stroke="#bfbfbf" points="305.5,-1041 305.5,-1096 458.5,-1096 458.5,-1041 305.5,-1041"/>
</a>
</g>
</g>
<!-- Node5&#45;&gt;Node2 -->
<g id="edge4_Node000002_Node000005" class="edge">
<title>Node5&#45;&gt;Node2</title>
<g id="a_edge4_Node000002_Node000005"><a xlink:title=" ">
<path fill="none" stroke="#63b8ff" d="M363.05,-1031.92C352.39,-1011.93 338.12,-985.13 322.51,-955.84"/>
<polygon fill="none" stroke="#63b8ff" points="360.04,-1033.72 367.83,-1040.9 366.21,-1030.42 360.04,-1033.72"/>
</a>
</g>
</g>
</g>
</svg>
