<?xml version="1.0" encoding="UTF-8" standalone="no"?>
<!DOCTYPE svg PUBLIC "-//W3C//DTD SVG 1.1//EN"
 "http://www.w3.org/Graphics/SVG/1.1/DTD/svg11.dtd">
<!-- Generated by graphviz version 2.43.0 (0)
 -->
<!-- Title: SkillSpritePair Pages: 1 -->
<svg width="131pt" height="80pt"
 viewBox="0.00 0.00 131.00 80.00" xmlns="http://www.w3.org/2000/svg" xmlns:xlink="http://www.w3.org/1999/xlink">

<svg id="main" version="1.1" xmlns="http://www.w3.org/2000/svg" xmlns:xlink="http://www.w3.org/1999/xlink" xml:space="preserve" onload="init(evt)">
<style type="text/css"><![CDATA[
.node, .edge {opacity: 0.7;}
.node.selected, .edge.selected {opacity: 1;}
.edge:hover path { stroke: red; }
.edge:hover polygon { stroke: red; fill: red; }
]]></style>
<script type="application/ecmascript" xlink:href="svg.min.js"/>
<svg id="graph" class="graph">
<g id="graph0" class="graph" transform="scale(1 1) rotate(0) translate(4 76)">
<title>SkillSpritePair</title>
<!-- Node1 -->
<g id="Node000001" class="node">
<title>Node1</title>
<g id="a_Node000001"><a xlink:title=" ">
<polygon fill="#999999" stroke="transparent" points="123,-72 0,-72 0,0 123,0 123,-72"/>
<text text-anchor="start" x="5.5" y="-58.4" font-family="Consolas" font-size="12.00">SkillSpritePair</text>
<text text-anchor="start" x="5.5" y="-41.4" font-family="Consolas" font-size="12.00">+</text>
<text text-anchor="start" x="18.5" y="-41.4" font-family="Consolas" font-size="12.00">SkillType key</text>
<text text-anchor="start" x="5.5" y="-24.4" font-family="Consolas" font-size="12.00">+</text>
<text text-anchor="start" x="18.5" y="-24.4" font-family="Consolas" font-size="12.00">Sprite value</text>
<text text-anchor="start" x="58" y="-7.4" font-family="Consolas" font-size="12.00"> </text>
<polygon fill="#666666" stroke="#666666" points="0.5,-53 0.5,-53 123.5,-53 123.5,-53 0.5,-53"/>
<polygon fill="#666666" stroke="#666666" points="0.5,-19 0.5,-19 16.5,-19 16.5,-19 0.5,-19"/>
<polygon fill="#666666" stroke="#666666" points="16.5,-19 16.5,-19 123.5,-19 123.5,-19 16.5,-19"/>
<polygon fill="none" stroke="#666666" points="0,0 0,-72 123,-72 123,0 0,0"/>
</a>
</g>
</g>
</g>
</svg>
</svg>

<style type='text/css'>
<![CDATA[
[data-mouse-over-selected='false'] { opacity: 0.7; }
[data-mouse-over-selected='true']  { opacity: 1.0; }
]]>
</style>
<script type="application/ecmascript"><![CDATA[
document.addEventListener('DOMContentLoaded', (event) => {
  highlightEdges();
  highlightAdjacentNodes();
});
]]></script>
</svg>
