<?xml version="1.0" encoding="UTF-8" standalone="no"?>
<!DOCTYPE svg PUBLIC "-//W3C//DTD SVG 1.1//EN"
 "http://www.w3.org/Graphics/SVG/1.1/DTD/svg11.dtd">
<!-- Generated by graphviz version 2.43.0 (0)
 -->
<!-- Title: RoomFactory.GetRoomData Pages: 1 -->
<svg width="685pt" height="42pt"
 viewBox="0.00 0.00 685.00 42.00" xmlns="http://www.w3.org/2000/svg" xmlns:xlink="http://www.w3.org/1999/xlink">
<g id="graph0" class="graph" transform="scale(1 1) rotate(0) translate(4 38)">
<title>RoomFactory.GetRoomData</title>
<!-- Node1 -->
<g id="Node000001" class="node">
<title>Node1</title>
<g id="a_Node000001"><a xlink:title="방 유형에 따른 데이터 반환">
<polygon fill="#999999" stroke="#666666" points="189,-27.5 0,-27.5 0,-6.5 189,-6.5 189,-27.5"/>
<text text-anchor="middle" x="94.5" y="-13.9" font-family="Consolas" font-size="12.00">RoomFactory.GetRoomData</text>
</a>
</g>
</g>
<!-- Node2 -->
<g id="Node000002" class="node">
<title>Node2</title>
<g id="a_Node000002"><a xlink:href="classRoomDatabase.html#a8c001321f5462b50ba8c013a3b06c93e" target="_top" xlink:title="방 유형에 해당하는 데이터 반환">
<polygon fill="white" stroke="#666666" points="422,-27.5 225,-27.5 225,-6.5 422,-6.5 422,-27.5"/>
<text text-anchor="middle" x="323.5" y="-13.9" font-family="Consolas" font-size="12.00">RoomDatabase.GetRoomData</text>
</a>
</g>
</g>
<!-- Node1&#45;&gt;Node2 -->
<g id="edge1_Node000001_Node000002" class="edge">
<title>Node1&#45;&gt;Node2</title>
<g id="a_edge1_Node000001_Node000002"><a xlink:title=" ">
<path fill="none" stroke="#63b8ff" d="M189.14,-17C197.48,-17 205.96,-17 214.4,-17"/>
<polygon fill="#63b8ff" stroke="#63b8ff" points="214.67,-20.5 224.67,-17 214.67,-13.5 214.67,-20.5"/>
</a>
</g>
</g>
<!-- Node3 -->
<g id="Node000003" class="node">
<title>Node3</title>
<g id="a_Node000003"><a xlink:href="classRoomDatabase.html#a589355934bf8ee35645084a711eba3a3" target="_top" xlink:title="일반 방 데이터 맵 초기화">
<polygon fill="white" stroke="#666666" points="677,-34 458,-34 458,0 677,0 677,-34"/>
<text text-anchor="start" x="466" y="-20.4" font-family="Consolas" font-size="12.00">RoomDatabase.InitializeRoom</text>
<text text-anchor="middle" x="567.5" y="-7.4" font-family="Consolas" font-size="12.00">DataMap</text>
</a>
</g>
</g>
<!-- Node2&#45;&gt;Node3 -->
<g id="edge2_Node000002_Node000003" class="edge">
<title>Node2&#45;&gt;Node3</title>
<g id="a_edge2_Node000002_Node000003"><a xlink:title=" ">
<path fill="none" stroke="#63b8ff" d="M422.23,-17C430.53,-17 438.99,-17 447.42,-17"/>
<polygon fill="#63b8ff" stroke="#63b8ff" points="447.7,-20.5 457.7,-17 447.7,-13.5 447.7,-20.5"/>
</a>
</g>
</g>
</g>
</svg>
