<?xml version="1.0" encoding="UTF-8" standalone="no"?>
<!DOCTYPE svg PUBLIC "-//W3C//DTD SVG 1.1//EN"
 "http://www.w3.org/Graphics/SVG/1.1/DTD/svg11.dtd">
<!-- Generated by graphviz version 2.43.0 (0)
 -->
<!-- Title: EnemyCamInteraction Pages: 1 -->
<!--zoomable 491 -->

<svg id="main" version="1.1" xmlns="http://www.w3.org/2000/svg" xmlns:xlink="http://www.w3.org/1999/xlink" xml:space="preserve" onload="init(evt)">
<style type="text/css"><![CDATA[
.node, .edge {opacity: 0.7;}
.node.selected, .edge.selected {opacity: 1;}
.edge:hover path { stroke: red; }
.edge:hover polygon { stroke: red; fill: red; }
]]></style>

<defs>
  <circle id="rim" cx="0" cy="0" r="7"/>
  <circle id="rim2" cx="0" cy="0" r="3.5"/>
  <g id="zoomPlus">
    <use xlink:href="#rim" fill="#404040"><set attributeName="fill" to="#808080" begin="zoomplus.mouseover" end="zoomplus.mouseout"/></use>
    <path d="M-4,0h8M0,-4v8" fill="none" stroke="white" stroke-width="1.5" pointer-events="none"/>
  </g>
  <g id="zoomMin">
    <use xlink:href="#rim" fill="#404040"><set attributeName="fill" to="#808080" begin="zoomminus.mouseover" end="zoomminus.mouseout"/></use>
    <path d="M-4,0h8" fill="none" stroke="white" stroke-width="1.5" pointer-events="none"/>
  </g>
  <g id="arrowUp" transform="translate(30 24)">
    <use xlink:href="#rim"/>
    <path pointer-events="none" fill="none" stroke="white" stroke-width="1.5" d="M0,-3.0v7 M-2.5,-0.5L0,-3.0L2.5,-0.5"/>
  </g>
  <g id="arrowRight" transform="rotate(90) translate(36 -43)">
    <use xlink:href="#rim"/>
    <path pointer-events="none" fill="none" stroke="white" stroke-width="1.5" d="M0,-3.0v7 M-2.5,-0.5L0,-3.0L2.5,-0.5"/>
  </g>
  <g id="arrowDown" transform="rotate(180) translate(-30 -48)">
    <use xlink:href="#rim"/>
    <path pointer-events="none" fill="none" stroke="white" stroke-width="1.5" d="M0,-3.0v7 M-2.5,-0.5L0,-3.0L2.5,-0.5"/>
  </g>
  <g id="arrowLeft" transform="rotate(270) translate(-36 17)">
    <use xlink:href="#rim"/>
    <path pointer-events="none" fill="none" stroke="white" stroke-width="1.5" d="M0,-3.0v7 M-2.5,-0.5L0,-3.0L2.5,-0.5"/>
  </g>
  <g id="resetDef">
    <use xlink:href="#rim2" fill="#404040"><set attributeName="fill" to="#808080" begin="reset.mouseover" end="reset.mouseout"/></use>
  </g>
</defs>
<script type="application/ecmascript">
var viewWidth = 444;
var viewHeight = 491;
var sectionId = 'dynsection-0';
</script>
<script type="application/ecmascript" xlink:href="svg.min.js"/>
<svg id="graph" class="graph">
<g id="viewport">
<title>EnemyCamInteraction</title>
<!-- Node1 -->
<g id="Node000001" class="node">
<title>Node1</title>
<g id="a_Node000001"><a xlink:title=" ">
<polygon fill="#999999" stroke="transparent" points="344.5,-392 61.5,-392 61.5,0 344.5,0 344.5,-392"/>
<text text-anchor="start" x="132" y="-378.4" font-family="Consolas" font-size="12.00">EnemyCamInteraction</text>
<text text-anchor="start" x="66" y="-361.4" font-family="Consolas" font-size="12.00">+</text>
<text text-anchor="start" x="78" y="-361.4" font-family="Consolas" font-size="12.00">Camera enemyCam</text>
<text text-anchor="start" x="66" y="-344.4" font-family="Consolas" font-size="12.00">+</text>
<text text-anchor="start" x="78" y="-344.4" font-family="Consolas" font-size="12.00">RectTransform displayRect</text>
<text text-anchor="start" x="66" y="-327.4" font-family="Consolas" font-size="12.00">+</text>
<text text-anchor="start" x="78" y="-327.4" font-family="Consolas" font-size="12.00">RenderTexture enemyCamTexture</text>
<text text-anchor="start" x="66" y="-310.4" font-family="Consolas" font-size="12.00">+</text>
<text text-anchor="start" x="78" y="-310.4" font-family="Consolas" font-size="12.00">float enemyCamPadding</text>
<text text-anchor="start" x="66" y="-293.4" font-family="Consolas" font-size="12.00">&#45;</text>
<text text-anchor="start" x="78" y="-293.4" font-family="Consolas" font-size="12.00">bool displayOn</text>
<text text-anchor="start" x="66" y="-276.4" font-family="Consolas" font-size="12.00">&#45;</text>
<text text-anchor="start" x="78" y="-276.4" font-family="Consolas" font-size="12.00">Vector2 dragStartPos</text>
<text text-anchor="start" x="66" y="-259.4" font-family="Consolas" font-size="12.00">&#45;</text>
<text text-anchor="start" x="78" y="-259.4" font-family="Consolas" font-size="12.00">Vector2 dragEndPos</text>
<text text-anchor="start" x="66" y="-242.4" font-family="Consolas" font-size="12.00">&#45;</text>
<text text-anchor="start" x="78" y="-242.4" font-family="Consolas" font-size="12.00">Bounds enemyBound</text>
<text text-anchor="start" x="66" y="-225.4" font-family="Consolas" font-size="12.00">+</text>
<text text-anchor="start" x="78" y="-225.4" font-family="Consolas" font-size="12.00">void PanelClicked()</text>
<text text-anchor="start" x="66" y="-208.4" font-family="Consolas" font-size="12.00">+</text>
<text text-anchor="start" x="78" y="-208.4" font-family="Consolas" font-size="12.00">void OnPointerDown</text>
<text text-anchor="start" x="78" y="-195.4" font-family="Consolas" font-size="12.00">(PointerEventData eventData)</text>
<text text-anchor="start" x="66" y="-178.4" font-family="Consolas" font-size="12.00">+</text>
<text text-anchor="start" x="78" y="-178.4" font-family="Consolas" font-size="12.00">void OnPointerUp(Pointer</text>
<text text-anchor="start" x="78" y="-165.4" font-family="Consolas" font-size="12.00">EventData eventData)</text>
<text text-anchor="start" x="66" y="-148.4" font-family="Consolas" font-size="12.00">+</text>
<text text-anchor="start" x="78" y="-148.4" font-family="Consolas" font-size="12.00">void EnemyCamAim()</text>
<text text-anchor="start" x="66" y="-131.4" font-family="Consolas" font-size="12.00">&#45;</text>
<text text-anchor="start" x="78" y="-131.4" font-family="Consolas" font-size="12.00">Vector2 RectPointToUV</text>
<text text-anchor="start" x="78" y="-118.4" font-family="Consolas" font-size="12.00">(Vector2 point, RectTransform rect)</text>
<text text-anchor="start" x="66" y="-101.4" font-family="Consolas" font-size="12.00">&#45;</text>
<text text-anchor="start" x="78" y="-101.4" font-family="Consolas" font-size="12.00">Vector2? MainScreenPoint</text>
<text text-anchor="start" x="78" y="-88.4" font-family="Consolas" font-size="12.00">ToEnemyCamScreenPoint</text>
<text text-anchor="start" x="78" y="-75.4" font-family="Consolas" font-size="12.00">(PointerEventData eventData)</text>
<text text-anchor="start" x="66" y="-58.4" font-family="Consolas" font-size="12.00">&#45;</text>
<text text-anchor="start" x="78" y="-58.4" font-family="Consolas" font-size="12.00">Rect GetWorldRect()</text>
<text text-anchor="start" x="66" y="-41.4" font-family="Consolas" font-size="12.00">&#45;</text>
<text text-anchor="start" x="78" y="-41.4" font-family="Consolas" font-size="12.00">void CalculateBounds()</text>
<text text-anchor="start" x="66" y="-24.4" font-family="Consolas" font-size="12.00">&#45;</text>
<text text-anchor="start" x="78" y="-24.4" font-family="Consolas" font-size="12.00">void Start()</text>
<text text-anchor="start" x="66" y="-7.4" font-family="Consolas" font-size="12.00">&#45;</text>
<text text-anchor="start" x="78" y="-7.4" font-family="Consolas" font-size="12.00">void Update()</text>
<polygon fill="#666666" stroke="#666666" points="62,-373 62,-373 345,-373 345,-373 62,-373"/>
<polygon fill="#666666" stroke="#666666" points="62,-237 62,-237 76,-237 76,-237 62,-237"/>
<polygon fill="#666666" stroke="#666666" points="76,-237 76,-237 345,-237 345,-237 76,-237"/>
<polygon fill="none" stroke="#666666" points="61.5,0 61.5,-392 344.5,-392 344.5,0 61.5,0"/>
</a>
</g>
</g>
<!-- Node2 -->
<g id="Node000002" class="node">
<title>Node2</title>
<g id="a_Node000002"><a xlink:title=" ">
<polygon fill="white" stroke="transparent" points="108,-483 0,-483 0,-428 108,-428 108,-483"/>
<text text-anchor="start" x="5" y="-468.9" font-family="Consolas" font-size="12.00">MonoBehaviour</text>
<text text-anchor="start" x="50" y="-451.9" font-family="Consolas" font-size="12.00"> </text>
<text text-anchor="start" x="50" y="-434.9" font-family="Consolas" font-size="12.00"> </text>
<polygon fill="#bfbfbf" stroke="#bfbfbf" points="0,-463.5 0,-463.5 108,-463.5 108,-463.5 0,-463.5"/>
<polygon fill="#bfbfbf" stroke="#bfbfbf" points="0,-446.5 0,-446.5 108,-446.5 108,-446.5 0,-446.5"/>
<polygon fill="none" stroke="#bfbfbf" points="0,-428 0,-483 108,-483 108,-428 0,-428"/>
</a>
</g>
</g>
<!-- Node2&#45;&gt;Node1 -->
<g id="edge1_Node000001_Node000002" class="edge">
<title>Node2&#45;&gt;Node1</title>
<g id="a_edge1_Node000001_Node000002"><a xlink:title=" ">
<path fill="none" stroke="#63b8ff" d="M74.4,-419.25C79.08,-411.16 84.38,-402 90.09,-392.13"/>
<polygon fill="none" stroke="#63b8ff" points="71.36,-417.5 69.38,-427.91 77.42,-421.01 71.36,-417.5"/>
</a>
</g>
</g>
<!-- Node3 -->
<g id="Node000003" class="node">
<title>Node3</title>
<g id="a_Node000003"><a xlink:title=" ">
<polygon fill="white" stroke="transparent" points="279.5,-483 126.5,-483 126.5,-428 279.5,-428 279.5,-483"/>
<text text-anchor="start" x="132" y="-468.9" font-family="Consolas" font-size="12.00">IPointerDownHandler</text>
<text text-anchor="start" x="199.5" y="-451.9" font-family="Consolas" font-size="12.00"> </text>
<text text-anchor="start" x="199.5" y="-434.9" font-family="Consolas" font-size="12.00"> </text>
<polygon fill="#bfbfbf" stroke="#bfbfbf" points="127,-463.5 127,-463.5 280,-463.5 280,-463.5 127,-463.5"/>
<polygon fill="#bfbfbf" stroke="#bfbfbf" points="127,-446.5 127,-446.5 280,-446.5 280,-446.5 127,-446.5"/>
<polygon fill="none" stroke="#bfbfbf" points="126.5,-428 126.5,-483 279.5,-483 279.5,-428 126.5,-428"/>
</a>
</g>
</g>
<!-- Node3&#45;&gt;Node1 -->
<g id="edge2_Node000001_Node000003" class="edge">
<title>Node3&#45;&gt;Node1</title>
<g id="a_edge2_Node000001_Node000003"><a xlink:title=" ">
<path fill="none" stroke="#63b8ff" d="M203,-417.67C203,-409.98 203,-401.37 203,-392.13"/>
<polygon fill="none" stroke="#63b8ff" points="199.5,-417.91 203,-427.91 206.5,-417.91 199.5,-417.91"/>
</a>
</g>
</g>
<!-- Node4 -->
<g id="Node000004" class="node">
<title>Node4</title>
<g id="a_Node000004"><a xlink:title=" ">
<polygon fill="white" stroke="transparent" points="436,-483 298,-483 298,-428 436,-428 436,-483"/>
<text text-anchor="start" x="303" y="-468.9" font-family="Consolas" font-size="12.00">IPointerUpHandler</text>
<text text-anchor="start" x="363" y="-451.9" font-family="Consolas" font-size="12.00"> </text>
<text text-anchor="start" x="363" y="-434.9" font-family="Consolas" font-size="12.00"> </text>
<polygon fill="#bfbfbf" stroke="#bfbfbf" points="298,-463.5 298,-463.5 436,-463.5 436,-463.5 298,-463.5"/>
<polygon fill="#bfbfbf" stroke="#bfbfbf" points="298,-446.5 298,-446.5 436,-446.5 436,-446.5 298,-446.5"/>
<polygon fill="none" stroke="#bfbfbf" points="298,-428 298,-483 436,-483 436,-428 298,-428"/>
</a>
</g>
</g>
<!-- Node4&#45;&gt;Node1 -->
<g id="edge3_Node000001_Node000004" class="edge">
<title>Node4&#45;&gt;Node1</title>
<g id="a_edge3_Node000001_Node000004"><a xlink:title=" ">
<path fill="none" stroke="#63b8ff" d="M344.55,-419.25C339.4,-411.16 333.56,-402 327.27,-392.13"/>
<polygon fill="none" stroke="#63b8ff" points="341.74,-421.36 350.07,-427.91 347.65,-417.6 341.74,-421.36"/>
</a>
</g>
</g>
</g>
</svg>

<g id="navigator" transform="translate(0 0)" fill="#404254">
  <rect fill="#f2f5e9" fill-opacity="0.5" stroke="#606060" stroke-width=".5" x="0" y="0" width="60" height="60"/>
  <use id="zoomplus" xlink:href="#zoomPlus" x="17" y="9" onmousedown="handleZoom(evt,'in')"/>
  <use id="zoomminus" xlink:href="#zoomMin" x="42" y="9" onmousedown="handleZoom(evt,'out')"/>
  <use id="reset" xlink:href="#resetDef" x="30" y="36" onmousedown="handleReset()"/>
   <use id="arrowup" xlink:href="#arrowUp" x="0" y="0" onmousedown="handlePan(0,-1)"/>
  <use id="arrowright" xlink:href="#arrowRight" x="0" y="0" onmousedown="handlePan(1,0)"/>
  <use id="arrowdown" xlink:href="#arrowDown" x="0" y="0" onmousedown="handlePan(0,1)"/>
  <use id="arrowleft" xlink:href="#arrowLeft" x="0" y="0" onmousedown="handlePan(-1,0)"/>
</g>
<svg viewBox="0 0 15 15" width="100%" height="30px" preserveAspectRatio="xMaxYMin meet">
 <g id="arrow_out" transform="scale(0.3 0.3)">
  <a xlink:href="classEnemyCamInteraction__inherit__graph_org.svg" target="_base">
   <rect id="button" ry="5" rx="5" y="6" x="6" height="38" width="38"
        fill="#f2f5e9" fill-opacity="0.5" stroke="#606060" stroke-width="1.0"/>
   <path id="arrow"
     d="M 11.500037,31.436501 C 11.940474,20.09759 22.043105,11.32322 32.158766,21.979434 L 37.068811,17.246167 C 37.068811,17.246167 37.088388,32 37.088388,32 L 22.160133,31.978069 C 22.160133,31.978069 26.997745,27.140456 26.997745,27.140456 C 18.528582,18.264221 13.291696,25.230495 11.500037,31.436501 z"
     style="fill:#404040;"/>
  </a>
 </g>
</svg>

<style type='text/css'>
<![CDATA[
[data-mouse-over-selected='false'] { opacity: 0.7; }
[data-mouse-over-selected='true']  { opacity: 1.0; }
]]>
</style>
<script type="application/ecmascript"><![CDATA[
document.addEventListener('DOMContentLoaded', (event) => {
  highlightEdges();
  highlightAdjacentNodes();
});
]]></script>
</svg>
