<?xml version="1.0" encoding="UTF-8" standalone="no"?>
<!DOCTYPE svg PUBLIC "-//W3C//DTD SVG 1.1//EN"
 "http://www.w3.org/Graphics/SVG/1.1/DTD/svg11.dtd">
<!-- Generated by graphviz version 2.43.0 (0)
 -->
<!-- Title: ShipWeapon.GetGridPosition Pages: 1 -->
<!--zoomable 226 -->

<svg id="main" version="1.1" xmlns="http://www.w3.org/2000/svg" xmlns:xlink="http://www.w3.org/1999/xlink" xml:space="preserve" onload="init(evt)">
<style type="text/css"><![CDATA[
.node, .edge {opacity: 0.7;}
.node.selected, .edge.selected {opacity: 1;}
.edge:hover path { stroke: red; }
.edge:hover polygon { stroke: red; fill: red; }
]]></style>

<defs>
  <circle id="rim" cx="0" cy="0" r="7"/>
  <circle id="rim2" cx="0" cy="0" r="3.5"/>
  <g id="zoomPlus">
    <use xlink:href="#rim" fill="#404040"><set attributeName="fill" to="#808080" begin="zoomplus.mouseover" end="zoomplus.mouseout"/></use>
    <path d="M-4,0h8M0,-4v8" fill="none" stroke="white" stroke-width="1.5" pointer-events="none"/>
  </g>
  <g id="zoomMin">
    <use xlink:href="#rim" fill="#404040"><set attributeName="fill" to="#808080" begin="zoomminus.mouseover" end="zoomminus.mouseout"/></use>
    <path d="M-4,0h8" fill="none" stroke="white" stroke-width="1.5" pointer-events="none"/>
  </g>
  <g id="arrowUp" transform="translate(30 24)">
    <use xlink:href="#rim"/>
    <path pointer-events="none" fill="none" stroke="white" stroke-width="1.5" d="M0,-3.0v7 M-2.5,-0.5L0,-3.0L2.5,-0.5"/>
  </g>
  <g id="arrowRight" transform="rotate(90) translate(36 -43)">
    <use xlink:href="#rim"/>
    <path pointer-events="none" fill="none" stroke="white" stroke-width="1.5" d="M0,-3.0v7 M-2.5,-0.5L0,-3.0L2.5,-0.5"/>
  </g>
  <g id="arrowDown" transform="rotate(180) translate(-30 -48)">
    <use xlink:href="#rim"/>
    <path pointer-events="none" fill="none" stroke="white" stroke-width="1.5" d="M0,-3.0v7 M-2.5,-0.5L0,-3.0L2.5,-0.5"/>
  </g>
  <g id="arrowLeft" transform="rotate(270) translate(-36 17)">
    <use xlink:href="#rim"/>
    <path pointer-events="none" fill="none" stroke="white" stroke-width="1.5" d="M0,-3.0v7 M-2.5,-0.5L0,-3.0L2.5,-0.5"/>
  </g>
  <g id="resetDef">
    <use xlink:href="#rim2" fill="#404040"><set attributeName="fill" to="#808080" begin="reset.mouseover" end="reset.mouseout"/></use>
  </g>
</defs>
<script type="application/ecmascript">
var viewWidth = 1278;
var viewHeight = 226;
var sectionId = 'dynsection-11';
</script>
<script type="application/ecmascript" xlink:href="svg.min.js"/>
<svg id="graph" class="graph">
<g id="viewport">
<title>ShipWeapon.GetGridPosition</title>
<!-- Node1 -->
<g id="Node000001" class="node">
<title>Node1</title>
<g id="a_Node000001"><a xlink:title="무기의 그리드 상 위치를 반환합니다.">
<polygon fill="#999999" stroke="#666666" points="1270,-131.5 1058,-131.5 1058,-110.5 1270,-110.5 1270,-131.5"/>
<text text-anchor="middle" x="1164" y="-117.9" font-family="Consolas" font-size="12.00">ShipWeapon.GetGridPosition</text>
</a>
</g>
</g>
<!-- Node2 -->
<g id="Node000002" class="node">
<title>Node2</title>
<g id="a_Node000002"><a xlink:href="classShip.html#a24e7b7011b778b4c8c4aab0a12e90a3d" target="_top" xlink:title="설계도 교체 작업 전, 기존 함선 백업">
<polygon fill="white" stroke="#666666" points="711,-205.5 529,-205.5 529,-184.5 711,-184.5 711,-205.5"/>
<text text-anchor="middle" x="620" y="-191.9" font-family="Consolas" font-size="12.00">Ship.BackupCurrentShip</text>
</a>
</g>
</g>
<!-- Node1&#45;&gt;Node2 -->
<g id="edge1_Node000001_Node000002" class="edge">
<title>Node1&#45;&gt;Node2</title>
<g id="a_edge1_Node000001_Node000002"><a xlink:title=" ">
<path fill="none" stroke="#63b8ff" d="M1141.45,-137.53C1115.01,-156.69 1068,-187.13 1022,-199 905.55,-229.06 763.66,-216.73 683.69,-205.53"/>
<polygon fill="#63b8ff" stroke="#63b8ff" points="1143.64,-140.27 1149.6,-131.52 1139.48,-134.64 1143.64,-140.27"/>
</a>
</g>
</g>
<!-- Node6 -->
<g id="Node000006" class="node">
<title>Node6</title>
<g id="a_Node000006"><a xlink:href="classShipValidationHelper.html#a39d36df3f0a7878f35261c554c7b1574" target="_top" xlink:title="모든 무기가 방과 직접 또는 간접적으로 연결되어 있는지 확인합니다. BFS를 사용하여 무기와 방의 연결성을 검사합니다.">
<polygon fill="white" stroke="#666666" points="1003.5,-190 791.5,-190 791.5,-156 1003.5,-156 1003.5,-190"/>
<text text-anchor="start" x="799.5" y="-176.4" font-family="Consolas" font-size="12.00">ShipValidationHelper.Check</text>
<text text-anchor="middle" x="897.5" y="-163.4" font-family="Consolas" font-size="12.00">WeaponConnectivity</text>
</a>
</g>
</g>
<!-- Node1&#45;&gt;Node6 -->
<g id="edge5_Node000001_Node000006" class="edge">
<title>Node1&#45;&gt;Node6</title>
<g id="a_edge5_Node000001_Node000006"><a xlink:title=" ">
<path fill="none" stroke="#63b8ff" d="M1099.57,-133.47C1065.25,-140.22 1022.35,-148.65 985.01,-155.99"/>
<polygon fill="#63b8ff" stroke="#63b8ff" points="1100.34,-136.89 1109.47,-131.52 1098.99,-130.02 1100.34,-136.89"/>
</a>
</g>
</g>
<!-- Node8 -->
<g id="Node000008" class="node">
<title>Node8</title>
<g id="a_Node000008"><a xlink:href="classCameraZoomController.html#a167bc55b6e4d87ff914de3a838d63f80" target="_top" xlink:title="기존 소유 함선을 이루는 방들의 중심으로 카메라 시작 위치 보정">
<polygon fill="white" stroke="#666666" points="1022,-34 773,-34 773,0 1022,0 1022,-34"/>
<text text-anchor="start" x="781" y="-20.4" font-family="Consolas" font-size="12.00">CameraZoomController.Get</text>
<text text-anchor="middle" x="897.5" y="-7.4" font-family="Consolas" font-size="12.00">CameraStartPositionToOriginShip</text>
</a>
</g>
</g>
<!-- Node1&#45;&gt;Node8 -->
<g id="edge9_Node000001_Node000008" class="edge">
<title>Node1&#45;&gt;Node8</title>
<g id="a_edge9_Node000001_Node000008"><a xlink:title=" ">
<path fill="none" stroke="#63b8ff" d="M1139.21,-104.93C1112,-87.26 1065.58,-59.22 1022,-43 1012.96,-39.64 1003.39,-36.66 993.72,-34.04"/>
<polygon fill="#63b8ff" stroke="#63b8ff" points="1137.39,-107.92 1147.67,-110.5 1141.24,-102.08 1137.39,-107.92"/>
</a>
</g>
</g>
<!-- Node9 -->
<g id="Node000009" class="node">
<title>Node9</title>
<g id="a_Node000009"><a xlink:href="classShipValidationHelper.html#a9111fff29a3ed831923e35aa76ba14be" target="_top" xlink:title="무기의 방향과 방 연결 상태를 검사합니다. 각 무기의 AttachedDirection에 따라 적절한 위치에 방이 있어야 합니다.">
<polygon fill="white" stroke="#666666" points="1014.5,-138 780.5,-138 780.5,-104 1014.5,-104 1014.5,-138"/>
<text text-anchor="start" x="788.5" y="-124.4" font-family="Consolas" font-size="12.00">ShipValidationHelper.Validate</text>
<text text-anchor="middle" x="897.5" y="-111.4" font-family="Consolas" font-size="12.00">WeaponAttachmentDirection</text>
</a>
</g>
</g>
<!-- Node1&#45;&gt;Node9 -->
<g id="edge10_Node000001_Node000009" class="edge">
<title>Node1&#45;&gt;Node9</title>
<g id="a_edge10_Node000001_Node000009"><a xlink:title=" ">
<path fill="none" stroke="#63b8ff" d="M1047.38,-121C1036.55,-121 1025.58,-121 1014.75,-121"/>
<polygon fill="#63b8ff" stroke="#63b8ff" points="1047.7,-124.5 1057.7,-121 1047.7,-117.5 1047.7,-124.5"/>
</a>
</g>
</g>
<!-- Node10 -->
<g id="Node000010" class="node">
<title>Node10</title>
<g id="a_Node000010"><a xlink:href="classShipValidationHelper.html#aae7e4b1ba35c545797689b1f7b4bc9c1" target="_top" xlink:title="무기 설치 위치 유효성 검사 무기 우측(x 증가 방향)에 그리드 끝까지 방이나 다른 무기가 있는지 확인">
<polygon fill="white" stroke="#666666" points="1014.5,-86 780.5,-86 780.5,-52 1014.5,-52 1014.5,-86"/>
<text text-anchor="start" x="788.5" y="-72.4" font-family="Consolas" font-size="12.00">ShipValidationHelper.Validate</text>
<text text-anchor="middle" x="897.5" y="-59.4" font-family="Consolas" font-size="12.00">WeaponPlacement</text>
</a>
</g>
</g>
<!-- Node1&#45;&gt;Node10 -->
<g id="edge12_Node000001_Node000010" class="edge">
<title>Node1&#45;&gt;Node10</title>
<g id="a_edge12_Node000001_Node000010"><a xlink:title=" ">
<path fill="none" stroke="#63b8ff" d="M1099.57,-108.53C1065.25,-101.78 1022.35,-93.35 985.01,-86.01"/>
<polygon fill="#63b8ff" stroke="#63b8ff" points="1098.99,-111.98 1109.47,-110.48 1100.34,-105.11 1098.99,-111.98"/>
</a>
</g>
</g>
<!-- Node3 -->
<g id="Node000003" class="node">
<title>Node3</title>
<g id="a_Node000003"><a xlink:href="classCustomizeShipUIHandler.html#a0a87df1bbf10a142bcfb73c4634a7bd4" target="_top" xlink:title="&#39;함선 제작&#39; 버튼 클릭 시 호출. 조건 만족 시 기존 함선을 설계도의 함선으로 교체합니다. 이후 방, 문의 연결 유효성 검사 수행 후 만족 여부에 따라 실제 함선으로 교체,...">
<polygon fill="white" stroke="#666666" points="467,-212 263,-212 263,-178 467,-178 467,-212"/>
<text text-anchor="start" x="271" y="-198.4" font-family="Consolas" font-size="12.00">CustomizeShipUIHandler.On</text>
<text text-anchor="middle" x="365" y="-185.4" font-family="Consolas" font-size="12.00">ClickBuild</text>
</a>
</g>
</g>
<!-- Node2&#45;&gt;Node3 -->
<g id="edge2_Node000002_Node000003" class="edge">
<title>Node2&#45;&gt;Node3</title>
<g id="a_edge2_Node000002_Node000003"><a xlink:title=" ">
<path fill="none" stroke="#63b8ff" d="M518.38,-195C501.61,-195 484.21,-195 467.42,-195"/>
<polygon fill="#63b8ff" stroke="#63b8ff" points="518.73,-198.5 528.73,-195 518.73,-191.5 518.73,-198.5"/>
</a>
</g>
</g>
<!-- Node4 -->
<g id="Node000004" class="node">
<title>Node4</title>
<g id="a_Node000004"><a xlink:href="classCustomize__1__Controller.html#ac71022868de14f02fffd845270ffb42b" target="_top" xlink:title="도안 저장 버튼 클릭 &#45; 유효성 검사">
<polygon fill="white" stroke="#666666" points="467,-160 263,-160 263,-126 467,-126 467,-160"/>
<text text-anchor="start" x="271" y="-146.4" font-family="Consolas" font-size="12.00">Customize_1_Controller.On</text>
<text text-anchor="middle" x="365" y="-133.4" font-family="Consolas" font-size="12.00">ClickSave</text>
</a>
</g>
</g>
<!-- Node2&#45;&gt;Node4 -->
<g id="edge3_Node000002_Node000004" class="edge">
<title>Node2&#45;&gt;Node4</title>
<g id="a_edge3_Node000002_Node000004"><a xlink:title=" ">
<path fill="none" stroke="#63b8ff" d="M557.93,-182.45C525.24,-175.73 484.51,-167.36 448.99,-160.06"/>
<polygon fill="#63b8ff" stroke="#63b8ff" points="557.3,-185.89 567.8,-184.48 558.71,-179.04 557.3,-185.89"/>
</a>
</g>
</g>
<!-- Node5 -->
<g id="Node000005" class="node">
<title>Node5</title>
<g id="a_Node000005"><a xlink:href="classCustomize__1__Controller.html#aec55e07635dd1dfd43176946b3dd6f2b" target="_top" xlink:title="button 클릭 함수 연결">
<polygon fill="white" stroke="#666666" points="227,-153.5 0,-153.5 0,-132.5 227,-132.5 227,-153.5"/>
<text text-anchor="middle" x="113.5" y="-139.9" font-family="Consolas" font-size="12.00">Customize_1_Controller.Start</text>
</a>
</g>
</g>
<!-- Node4&#45;&gt;Node5 -->
<g id="edge4_Node000004_Node000005" class="edge">
<title>Node4&#45;&gt;Node5</title>
<g id="a_edge4_Node000004_Node000005"><a xlink:title=" ">
<path fill="none" stroke="#63b8ff" d="M252.63,-143C244.18,-143 235.65,-143 227.19,-143"/>
<polygon fill="#63b8ff" stroke="#63b8ff" points="252.88,-146.5 262.88,-143 252.88,-139.5 252.88,-146.5"/>
</a>
</g>
</g>
<!-- Node7 -->
<g id="Node000007" class="node">
<title>Node7</title>
<g id="a_Node000007"><a xlink:href="classShipValidationHelper.html#afe90d1e14396951e3079f4a426ead02d" target="_top" xlink:title="함선 배치의 유효성 검사">
<polygon fill="white" stroke="#666666" points="737,-160 503,-160 503,-126 737,-126 737,-160"/>
<text text-anchor="start" x="511" y="-146.4" font-family="Consolas" font-size="12.00">ShipValidationHelper.Validate</text>
<text text-anchor="middle" x="620" y="-133.4" font-family="Consolas" font-size="12.00">ShipLayout</text>
</a>
</g>
</g>
<!-- Node6&#45;&gt;Node7 -->
<g id="edge6_Node000006_Node000007" class="edge">
<title>Node6&#45;&gt;Node7</title>
<g id="a_edge6_Node000006_Node000007"><a xlink:title=" ">
<path fill="none" stroke="#63b8ff" d="M781.18,-160.44C766.67,-158.86 751.82,-157.25 737.3,-155.66"/>
<polygon fill="#63b8ff" stroke="#63b8ff" points="780.85,-163.93 791.17,-161.53 781.6,-156.97 780.85,-163.93"/>
</a>
</g>
</g>
<!-- Node7&#45;&gt;Node3 -->
<g id="edge7_Node000007_Node000003" class="edge">
<title>Node7&#45;&gt;Node3</title>
<g id="a_edge7_Node000007_Node000003"><a xlink:title=" ">
<path fill="none" stroke="#63b8ff" d="M526.21,-162.07C500.93,-167.27 473.72,-172.86 449.03,-177.94"/>
<polygon fill="#63b8ff" stroke="#63b8ff" points="527.07,-165.47 536.16,-160.03 525.66,-158.61 527.07,-165.47"/>
</a>
</g>
</g>
<!-- Node7&#45;&gt;Node4 -->
<g id="edge8_Node000007_Node000004" class="edge">
<title>Node7&#45;&gt;Node4</title>
<g id="a_edge8_Node000007_Node000004"><a xlink:title=" ">
<path fill="none" stroke="#63b8ff" d="M492.76,-143C484.15,-143 475.53,-143 467.07,-143"/>
<polygon fill="#63b8ff" stroke="#63b8ff" points="492.87,-146.5 502.87,-143 492.87,-139.5 492.87,-146.5"/>
</a>
</g>
</g>
<!-- Node9&#45;&gt;Node7 -->
<g id="edge11_Node000009_Node000007" class="edge">
<title>Node9&#45;&gt;Node7</title>
<g id="a_edge11_Node000009_Node000007"><a xlink:title=" ">
<path fill="none" stroke="#63b8ff" d="M770.39,-131.07C759.38,-131.95 748.27,-132.84 737.35,-133.71"/>
<polygon fill="#63b8ff" stroke="#63b8ff" points="770.77,-134.55 780.46,-130.27 770.21,-127.57 770.77,-134.55"/>
</a>
</g>
</g>
<!-- Node10&#45;&gt;Node7 -->
<g id="edge13_Node000010_Node000007" class="edge">
<title>Node10&#45;&gt;Node7</title>
<g id="a_edge13_Node000010_Node000007"><a xlink:title=" ">
<path fill="none" stroke="#63b8ff" d="M800.2,-88.31C790.98,-90.45 781.79,-92.69 773,-95 738.47,-104.06 700.14,-116.18 670.62,-125.97"/>
<polygon fill="#63b8ff" stroke="#63b8ff" points="801.23,-91.67 810.21,-86.03 799.68,-84.84 801.23,-91.67"/>
</a>
</g>
</g>
</g>
</svg>

<g id="navigator" transform="translate(0 0)" fill="#404254">
  <rect fill="#f2f5e9" fill-opacity="0.5" stroke="#606060" stroke-width=".5" x="0" y="0" width="60" height="60"/>
  <use id="zoomplus" xlink:href="#zoomPlus" x="17" y="9" onmousedown="handleZoom(evt,'in')"/>
  <use id="zoomminus" xlink:href="#zoomMin" x="42" y="9" onmousedown="handleZoom(evt,'out')"/>
  <use id="reset" xlink:href="#resetDef" x="30" y="36" onmousedown="handleReset()"/>
   <use id="arrowup" xlink:href="#arrowUp" x="0" y="0" onmousedown="handlePan(0,-1)"/>
  <use id="arrowright" xlink:href="#arrowRight" x="0" y="0" onmousedown="handlePan(1,0)"/>
  <use id="arrowdown" xlink:href="#arrowDown" x="0" y="0" onmousedown="handlePan(0,1)"/>
  <use id="arrowleft" xlink:href="#arrowLeft" x="0" y="0" onmousedown="handlePan(-1,0)"/>
</g>
<svg viewBox="0 0 15 15" width="100%" height="30px" preserveAspectRatio="xMaxYMin meet">
 <g id="arrow_out" transform="scale(0.3 0.3)">
  <a xlink:href="classShipWeapon_a421526a38a8fbd32127d0063526c9c6a_icgraph_org.svg" target="_base">
   <rect id="button" ry="5" rx="5" y="6" x="6" height="38" width="38"
        fill="#f2f5e9" fill-opacity="0.5" stroke="#606060" stroke-width="1.0"/>
   <path id="arrow"
     d="M 11.500037,31.436501 C 11.940474,20.09759 22.043105,11.32322 32.158766,21.979434 L 37.068811,17.246167 C 37.068811,17.246167 37.088388,32 37.088388,32 L 22.160133,31.978069 C 22.160133,31.978069 26.997745,27.140456 26.997745,27.140456 C 18.528582,18.264221 13.291696,25.230495 11.500037,31.436501 z"
     style="fill:#404040;"/>
  </a>
 </g>
</svg>

<style type='text/css'>
<![CDATA[
[data-mouse-over-selected='false'] { opacity: 0.7; }
[data-mouse-over-selected='true']  { opacity: 1.0; }
]]>
</style>
<script type="application/ecmascript"><![CDATA[
document.addEventListener('DOMContentLoaded', (event) => {
  highlightEdges();
  highlightAdjacentNodes();
});
]]></script>
</svg>
