<?xml version="1.0" encoding="UTF-8" standalone="no"?>
<!DOCTYPE svg PUBLIC "-//W3C//DTD SVG 1.1//EN"
 "http://www.w3.org/Graphics/SVG/1.1/DTD/svg11.dtd">
<!-- Generated by graphviz version 2.43.0 (0)
 -->
<!-- Title: ES3Editor.SettingsWindow Pages: 1 -->
<svg width="231pt" height="470pt"
 viewBox="0.00 0.00 231.00 470.00" xmlns="http://www.w3.org/2000/svg" xmlns:xlink="http://www.w3.org/1999/xlink">
<g id="graph0" class="graph" transform="scale(1 1) rotate(0) translate(4 466)">
<title>ES3Editor.SettingsWindow</title>
<!-- Node1 -->
<g id="Node000001" class="node">
<title>Node1</title>
<g id="a_Node000001"><a xlink:title=" ">
<polygon fill="#999999" stroke="transparent" points="223,-243 0,-243 0,0 223,0 223,-243"/>
<text text-anchor="start" x="21.5" y="-228.9" font-family="Consolas" font-size="12.00">ES3Editor.SettingsWindow</text>
<text text-anchor="start" x="4.5" y="-211.9" font-family="Consolas" font-size="12.00">+</text>
<text text-anchor="start" x="16.5" y="-211.9" font-family="Consolas" font-size="12.00">ES3Defaults editorSettings</text>
<text text-anchor="start" x="4.5" y="-194.9" font-family="Consolas" font-size="12.00">+</text>
<text text-anchor="start" x="16.5" y="-194.9" font-family="Consolas" font-size="12.00">ES3SerializableSettings</text>
<text text-anchor="start" x="16.5" y="-181.9" font-family="Consolas" font-size="12.00"> settings</text>
<text text-anchor="start" x="4.5" y="-164.9" font-family="Consolas" font-size="12.00">+</text>
<text text-anchor="start" x="16.5" y="-164.9" font-family="Consolas" font-size="12.00">SerializedObject so</text>
<text text-anchor="start" x="4.5" y="-147.9" font-family="Consolas" font-size="12.00">+</text>
<text text-anchor="start" x="16.5" y="-147.9" font-family="Consolas" font-size="12.00">SerializedProperty</text>
<text text-anchor="start" x="16.5" y="-134.9" font-family="Consolas" font-size="12.00"> referenceFoldersProperty</text>
<text text-anchor="start" x="4.5" y="-117.9" font-family="Consolas" font-size="12.00">&#45;</text>
<text text-anchor="start" x="16.5" y="-117.9" font-family="Consolas" font-size="12.00">Vector2 scrollPos</text>
<text text-anchor="start" x="4.5" y="-100.9" font-family="Consolas" font-size="12.00">&#45;</text>
<text text-anchor="start" x="16.5" y="-100.9" font-family="Consolas" font-size="12.00">const string disableGlobal</text>
<text text-anchor="start" x="16.5" y="-87.9" font-family="Consolas" font-size="12.00">DefineName</text>
<text text-anchor="start" x="4.5" y="-70.9" font-family="Consolas" font-size="12.00">+</text>
<text text-anchor="start" x="16.5" y="-70.9" font-family="Consolas" font-size="12.00">SettingsWindow(EditorWindow</text>
<text text-anchor="start" x="16.5" y="-57.9" font-family="Consolas" font-size="12.00"> window)</text>
<text text-anchor="start" x="4.5" y="-40.9" font-family="Consolas" font-size="12.00">+</text>
<text text-anchor="start" x="16.5" y="-40.9" font-family="Consolas" font-size="12.00">void OnEnable()</text>
<text text-anchor="start" x="4.5" y="-23.9" font-family="Consolas" font-size="12.00">+</text>
<text text-anchor="start" x="16.5" y="-23.9" font-family="Consolas" font-size="12.00">override void OnGUI()</text>
<text text-anchor="start" x="4.5" y="-6.9" font-family="Consolas" font-size="12.00">+</text>
<text text-anchor="start" x="16.5" y="-6.9" font-family="Consolas" font-size="12.00">void Init()</text>
<polygon fill="#666666" stroke="#666666" points="0.5,-223.5 0.5,-223.5 223.5,-223.5 223.5,-223.5 0.5,-223.5"/>
<polygon fill="#666666" stroke="#666666" points="0.5,-82.5 0.5,-82.5 14.5,-82.5 14.5,-82.5 0.5,-82.5"/>
<polygon fill="#666666" stroke="#666666" points="14.5,-82.5 14.5,-82.5 223.5,-82.5 223.5,-82.5 14.5,-82.5"/>
<polygon fill="none" stroke="#666666" points="0,0 0,-243 223,-243 223,0 0,0"/>
</a>
</g>
</g>
<!-- Node2 -->
<g id="Node000002" class="node">
<title>Node2</title>
<g id="a_Node000002"><a xlink:href="classES3Editor_1_1SubWindow.html" target="_top" xlink:title=" ">
<polygon fill="white" stroke="transparent" points="219.5,-462 3.5,-462 3.5,-279 219.5,-279 219.5,-462"/>
<text text-anchor="start" x="77.5" y="-447.9" font-family="Consolas" font-size="12.00">SubWindow</text>
<text text-anchor="start" x="7.5" y="-430.9" font-family="Consolas" font-size="12.00">+</text>
<text text-anchor="start" x="19.5" y="-430.9" font-family="Consolas" font-size="12.00">string name</text>
<text text-anchor="start" x="7.5" y="-413.9" font-family="Consolas" font-size="12.00">+</text>
<text text-anchor="start" x="19.5" y="-413.9" font-family="Consolas" font-size="12.00">EditorWindow parent</text>
<text text-anchor="start" x="7.5" y="-396.9" font-family="Consolas" font-size="12.00">+</text>
<text text-anchor="start" x="19.5" y="-396.9" font-family="Consolas" font-size="12.00">void OnGUI()</text>
<text text-anchor="start" x="7.5" y="-379.9" font-family="Consolas" font-size="12.00">+</text>
<text text-anchor="start" x="19.5" y="-379.9" font-family="Consolas" font-size="12.00">SubWindow(string name,</text>
<text text-anchor="start" x="19.5" y="-366.9" font-family="Consolas" font-size="12.00"> EditorWindow parent)</text>
<text text-anchor="start" x="7.5" y="-349.9" font-family="Consolas" font-size="12.00">+</text>
<text text-anchor="start" x="19.5" y="-349.9" font-family="Consolas" font-size="12.00">virtual void OnLostFocus()</text>
<text text-anchor="start" x="7.5" y="-332.9" font-family="Consolas" font-size="12.00">+</text>
<text text-anchor="start" x="19.5" y="-332.9" font-family="Consolas" font-size="12.00">virtual void OnFocus()</text>
<text text-anchor="start" x="7.5" y="-315.9" font-family="Consolas" font-size="12.00">+</text>
<text text-anchor="start" x="19.5" y="-315.9" font-family="Consolas" font-size="12.00">virtual void OnDestroy()</text>
<text text-anchor="start" x="7.5" y="-298.9" font-family="Consolas" font-size="12.00">+</text>
<text text-anchor="start" x="19.5" y="-298.9" font-family="Consolas" font-size="12.00">virtual void OnHierarchy</text>
<text text-anchor="start" x="19.5" y="-285.9" font-family="Consolas" font-size="12.00">Change()</text>
<polygon fill="#bfbfbf" stroke="#bfbfbf" points="3.5,-442.5 3.5,-442.5 219.5,-442.5 219.5,-442.5 3.5,-442.5"/>
<polygon fill="#bfbfbf" stroke="#bfbfbf" points="3.5,-408.5 3.5,-408.5 17.5,-408.5 17.5,-408.5 3.5,-408.5"/>
<polygon fill="#bfbfbf" stroke="#bfbfbf" points="17.5,-408.5 17.5,-408.5 219.5,-408.5 219.5,-408.5 17.5,-408.5"/>
<polygon fill="none" stroke="#bfbfbf" points="3.5,-279 3.5,-462 219.5,-462 219.5,-279 3.5,-279"/>
</a>
</g>
</g>
<!-- Node2&#45;&gt;Node1 -->
<g id="edge1_Node000001_Node000002" class="edge">
<title>Node2&#45;&gt;Node1</title>
<g id="a_edge1_Node000001_Node000002"><a xlink:title=" ">
<path fill="none" stroke="#63b8ff" d="M111.5,-268.68C111.5,-260.22 111.5,-251.6 111.5,-243.01"/>
<polygon fill="none" stroke="#63b8ff" points="108,-268.93 111.5,-278.93 115,-268.93 108,-268.93"/>
</a>
</g>
</g>
</g>
</svg>
