<?xml version="1.0" encoding="UTF-8" standalone="no"?>
<!DOCTYPE svg PUBLIC "-//W3C//DTD SVG 1.1//EN"
 "http://www.w3.org/Graphics/SVG/1.1/DTD/svg11.dtd">
<!-- Generated by graphviz version 2.43.0 (0)
 -->
<!-- Title: WorldNode Pages: 1 -->
<svg width="378pt" height="292pt"
 viewBox="0.00 0.00 378.00 292.00" xmlns="http://www.w3.org/2000/svg" xmlns:xlink="http://www.w3.org/1999/xlink">
<g id="graph0" class="graph" transform="scale(1 1) rotate(0) translate(4 288)">
<title>WorldNode</title>
<!-- Node1 -->
<g id="Node000001" class="node">
<title>Node1</title>
<g id="a_Node000001"><a xlink:title=" ">
<polygon fill="#999999" stroke="transparent" points="184.5,-55 13.5,-55 13.5,0 184.5,0 184.5,-55"/>
<text text-anchor="start" x="65.5" y="-40.9" font-family="Consolas" font-size="12.00">WorldNode</text>
<text text-anchor="start" x="18" y="-23.9" font-family="Consolas" font-size="12.00">&#45;</text>
<text text-anchor="start" x="30" y="-23.9" font-family="Consolas" font-size="12.00">Image worldNodeImage</text>
<text text-anchor="start" x="95.5" y="-6.9" font-family="Consolas" font-size="12.00"> </text>
<polygon fill="#666666" stroke="#666666" points="14,-35.5 14,-35.5 185,-35.5 185,-35.5 14,-35.5"/>
<polygon fill="#666666" stroke="#666666" points="14,-18.5 14,-18.5 28,-18.5 28,-18.5 14,-18.5"/>
<polygon fill="#666666" stroke="#666666" points="28,-18.5 28,-18.5 185,-18.5 185,-18.5 28,-18.5"/>
<polygon fill="none" stroke="#666666" points="13.5,0 13.5,-55 184.5,-55 184.5,0 13.5,0"/>
</a>
</g>
</g>
<!-- Node2 -->
<g id="Node000002" class="node">
<title>Node2</title>
<g id="a_Node000002"><a xlink:title=" ">
<polygon fill="white" stroke="transparent" points="108,-169.5 0,-169.5 0,-114.5 108,-114.5 108,-169.5"/>
<text text-anchor="start" x="5" y="-155.4" font-family="Consolas" font-size="12.00">MonoBehaviour</text>
<text text-anchor="start" x="50" y="-138.4" font-family="Consolas" font-size="12.00"> </text>
<text text-anchor="start" x="50" y="-121.4" font-family="Consolas" font-size="12.00"> </text>
<polygon fill="#bfbfbf" stroke="#bfbfbf" points="0,-150 0,-150 108,-150 108,-150 0,-150"/>
<polygon fill="#bfbfbf" stroke="#bfbfbf" points="0,-133 0,-133 108,-133 108,-133 0,-133"/>
<polygon fill="none" stroke="#bfbfbf" points="0,-114.5 0,-169.5 108,-169.5 108,-114.5 0,-114.5"/>
</a>
</g>
</g>
<!-- Node2&#45;&gt;Node1 -->
<g id="edge1_Node000001_Node000002" class="edge">
<title>Node2&#45;&gt;Node1</title>
<g id="a_edge1_Node000001_Node000002"><a xlink:title=" ">
<path fill="none" stroke="#63b8ff" d="M68.51,-104.73C74.93,-88.68 82.35,-70.14 88.26,-55.36"/>
<polygon fill="none" stroke="#63b8ff" points="65.13,-103.75 64.66,-114.34 71.63,-106.35 65.13,-103.75"/>
</a>
</g>
</g>
<!-- Node3 -->
<g id="Node000003" class="node">
<title>Node3</title>
<g id="a_Node000003"><a xlink:href="classWorldNodeData.html" target="_top" xlink:title=" ">
<polygon fill="white" stroke="transparent" points="282,-178 126,-178 126,-106 282,-106 282,-178"/>
<text text-anchor="start" x="155" y="-164.4" font-family="Consolas" font-size="12.00">WorldNodeData</text>
<text text-anchor="start" x="130" y="-147.4" font-family="Consolas" font-size="12.00">+</text>
<text text-anchor="start" x="142" y="-147.4" font-family="Consolas" font-size="12.00">bool isVisited</text>
<text text-anchor="start" x="130" y="-130.4" font-family="Consolas" font-size="12.00">+</text>
<text text-anchor="start" x="142" y="-130.4" font-family="Consolas" font-size="12.00">bool isCurrentNode</text>
<text text-anchor="start" x="200" y="-113.4" font-family="Consolas" font-size="12.00"> </text>
<polygon fill="#bfbfbf" stroke="#bfbfbf" points="126,-159 126,-159 282,-159 282,-159 126,-159"/>
<polygon fill="#bfbfbf" stroke="#bfbfbf" points="126,-125 126,-125 140,-125 140,-125 126,-125"/>
<polygon fill="#bfbfbf" stroke="#bfbfbf" points="140,-125 140,-125 282,-125 282,-125 140,-125"/>
<polygon fill="none" stroke="#bfbfbf" points="126,-106 126,-178 282,-178 282,-106 126,-106"/>
</a>
</g>
</g>
<!-- Node3&#45;&gt;Node1 -->
<g id="edge2_Node000001_Node000003" class="edge">
<title>Node3&#45;&gt;Node1</title>
<g id="a_edge2_Node000001_Node000003"><a xlink:title=" ">
<path fill="none" stroke="#63b8ff" d="M171.07,-105.71C158.65,-92.41 144.54,-77.29 132.11,-63.98"/>
<polygon fill="none" stroke="#63b8ff" points="132.01,-63.86 124.99,-62.21 123.82,-55.09 130.84,-56.75 132.01,-63.86"/>
</a>
</g>
<text text-anchor="middle" x="213" y="-76.8" font-family="Consolas" font-size="14.00" fill="grey"> +worldNodeData</text>
</g>
<!-- Node4 -->
<g id="Node000004" class="node">
<title>Node4</title>
<g id="a_Node000004"><a xlink:title=" ">
<polygon fill="white" stroke="transparent" points="250.5,-284 157.5,-284 157.5,-229 250.5,-229 250.5,-284"/>
<text text-anchor="start" x="163" y="-269.9" font-family="Consolas" font-size="12.00">UnityEngine</text>
<text text-anchor="start" x="200.5" y="-252.9" font-family="Consolas" font-size="12.00"> </text>
<text text-anchor="start" x="200.5" y="-235.9" font-family="Consolas" font-size="12.00"> </text>
<polygon fill="#bfbfbf" stroke="#bfbfbf" points="158,-264.5 158,-264.5 251,-264.5 251,-264.5 158,-264.5"/>
<polygon fill="#bfbfbf" stroke="#bfbfbf" points="158,-247.5 158,-247.5 251,-247.5 251,-247.5 158,-247.5"/>
<polygon fill="none" stroke="#bfbfbf" points="157.5,-229 157.5,-284 250.5,-284 250.5,-229 157.5,-229"/>
</a>
</g>
</g>
<!-- Node4&#45;&gt;Node3 -->
<g id="edge3_Node000003_Node000004" class="edge">
<title>Node4&#45;&gt;Node3</title>
<g id="a_edge3_Node000003_Node000004"><a xlink:title=" ">
<path fill="none" stroke="#63b8ff" d="M204,-228.84C204,-217.42 204,-203.72 204,-190.65"/>
<polygon fill="none" stroke="#63b8ff" points="204,-190.41 200,-184.41 204,-178.41 208,-184.41 204,-190.41"/>
</a>
</g>
<text text-anchor="middle" x="287" y="-199.8" font-family="Consolas" font-size="14.00" fill="grey"> +normalizedPosition</text>
</g>
</g>
</svg>
