<?xml version="1.0" encoding="UTF-8" standalone="no"?>
<!DOCTYPE svg PUBLIC "-//W3C//DTD SVG 1.1//EN"
 "http://www.w3.org/Graphics/SVG/1.1/DTD/svg11.dtd">
<!-- Generated by graphviz version 2.43.0 (0)
 -->
<!-- Title: ES3Editor.AutoSaveWindow Pages: 1 -->
<svg width="261pt" height="478pt"
 viewBox="0.00 0.00 261.00 478.00" xmlns="http://www.w3.org/2000/svg" xmlns:xlink="http://www.w3.org/1999/xlink">
<g id="graph0" class="graph" transform="scale(1 1) rotate(0) translate(4 474)">
<title>ES3Editor.AutoSaveWindow</title>
<!-- Node1 -->
<g id="Node000001" class="node">
<title>Node1</title>
<g id="a_Node000001"><a xlink:title=" ">
<polygon fill="#999999" stroke="transparent" points="253,-251 0,-251 0,0 253,0 253,-251"/>
<text text-anchor="start" x="36.5" y="-236.9" font-family="Consolas" font-size="12.00">ES3Editor.AutoSaveWindow</text>
<text text-anchor="start" x="4.5" y="-219.9" font-family="Consolas" font-size="12.00">+</text>
<text text-anchor="start" x="16.5" y="-219.9" font-family="Consolas" font-size="12.00">bool showAdvancedSettings</text>
<text text-anchor="start" x="4.5" y="-202.9" font-family="Consolas" font-size="12.00">+</text>
<text text-anchor="start" x="16.5" y="-202.9" font-family="Consolas" font-size="12.00">ES3AutoSaveMgr mgr</text>
<text text-anchor="start" x="4.5" y="-185.9" font-family="Consolas" font-size="12.00">+</text>
<text text-anchor="start" x="16.5" y="-185.9" font-family="Consolas" font-size="12.00">HierarchyItem selected</text>
<text text-anchor="start" x="4.5" y="-168.9" font-family="Consolas" font-size="12.00">&#45;</text>
<text text-anchor="start" x="16.5" y="-168.9" font-family="Consolas" font-size="12.00">HierarchyItem[] hierarchy</text>
<text text-anchor="start" x="4.5" y="-151.9" font-family="Consolas" font-size="12.00">&#45;</text>
<text text-anchor="start" x="16.5" y="-151.9" font-family="Consolas" font-size="12.00">Vector2 hierarchyScrollPosition</text>
<text text-anchor="start" x="4.5" y="-134.9" font-family="Consolas" font-size="12.00">&#45;</text>
<text text-anchor="start" x="16.5" y="-134.9" font-family="Consolas" font-size="12.00">bool sceneOpen</text>
<text text-anchor="start" x="4.5" y="-117.9" font-family="Consolas" font-size="12.00">&#45;</text>
<text text-anchor="start" x="16.5" y="-117.9" font-family="Consolas" font-size="12.00">string searchTerm</text>
<text text-anchor="start" x="4.5" y="-100.9" font-family="Consolas" font-size="12.00">+</text>
<text text-anchor="start" x="16.5" y="-100.9" font-family="Consolas" font-size="12.00">AutoSaveWindow(EditorWindow</text>
<text text-anchor="start" x="16.5" y="-87.9" font-family="Consolas" font-size="12.00"> window)</text>
<text text-anchor="start" x="4.5" y="-70.9" font-family="Consolas" font-size="12.00">+</text>
<text text-anchor="start" x="16.5" y="-70.9" font-family="Consolas" font-size="12.00">override void OnGUI()</text>
<text text-anchor="start" x="4.5" y="-53.9" font-family="Consolas" font-size="12.00">+</text>
<text text-anchor="start" x="16.5" y="-53.9" font-family="Consolas" font-size="12.00">void Init()</text>
<text text-anchor="start" x="4.5" y="-36.9" font-family="Consolas" font-size="12.00">+</text>
<text text-anchor="start" x="16.5" y="-36.9" font-family="Consolas" font-size="12.00">override void OnFocus()</text>
<text text-anchor="start" x="4.5" y="-19.9" font-family="Consolas" font-size="12.00">&#45;</text>
<text text-anchor="start" x="16.5" y="-19.9" font-family="Consolas" font-size="12.00">void ChangedActiveScene</text>
<text text-anchor="start" x="16.5" y="-6.9" font-family="Consolas" font-size="12.00">(Scene current, Scene next)</text>
<polygon fill="#666666" stroke="#666666" points="0.5,-231.5 0.5,-231.5 253.5,-231.5 253.5,-231.5 0.5,-231.5"/>
<polygon fill="#666666" stroke="#666666" points="0.5,-112.5 0.5,-112.5 14.5,-112.5 14.5,-112.5 0.5,-112.5"/>
<polygon fill="#666666" stroke="#666666" points="14.5,-112.5 14.5,-112.5 253.5,-112.5 253.5,-112.5 14.5,-112.5"/>
<polygon fill="none" stroke="#666666" points="0,0 0,-251 253,-251 253,0 0,0"/>
</a>
</g>
</g>
<!-- Node2 -->
<g id="Node000002" class="node">
<title>Node2</title>
<g id="a_Node000002"><a xlink:href="classES3Editor_1_1SubWindow.html" target="_top" xlink:title=" ">
<polygon fill="white" stroke="transparent" points="234.5,-470 18.5,-470 18.5,-287 234.5,-287 234.5,-470"/>
<text text-anchor="start" x="92.5" y="-455.9" font-family="Consolas" font-size="12.00">SubWindow</text>
<text text-anchor="start" x="22.5" y="-438.9" font-family="Consolas" font-size="12.00">+</text>
<text text-anchor="start" x="34.5" y="-438.9" font-family="Consolas" font-size="12.00">string name</text>
<text text-anchor="start" x="22.5" y="-421.9" font-family="Consolas" font-size="12.00">+</text>
<text text-anchor="start" x="34.5" y="-421.9" font-family="Consolas" font-size="12.00">EditorWindow parent</text>
<text text-anchor="start" x="22.5" y="-404.9" font-family="Consolas" font-size="12.00">+</text>
<text text-anchor="start" x="34.5" y="-404.9" font-family="Consolas" font-size="12.00">void OnGUI()</text>
<text text-anchor="start" x="22.5" y="-387.9" font-family="Consolas" font-size="12.00">+</text>
<text text-anchor="start" x="34.5" y="-387.9" font-family="Consolas" font-size="12.00">SubWindow(string name,</text>
<text text-anchor="start" x="34.5" y="-374.9" font-family="Consolas" font-size="12.00"> EditorWindow parent)</text>
<text text-anchor="start" x="22.5" y="-357.9" font-family="Consolas" font-size="12.00">+</text>
<text text-anchor="start" x="34.5" y="-357.9" font-family="Consolas" font-size="12.00">virtual void OnLostFocus()</text>
<text text-anchor="start" x="22.5" y="-340.9" font-family="Consolas" font-size="12.00">+</text>
<text text-anchor="start" x="34.5" y="-340.9" font-family="Consolas" font-size="12.00">virtual void OnFocus()</text>
<text text-anchor="start" x="22.5" y="-323.9" font-family="Consolas" font-size="12.00">+</text>
<text text-anchor="start" x="34.5" y="-323.9" font-family="Consolas" font-size="12.00">virtual void OnDestroy()</text>
<text text-anchor="start" x="22.5" y="-306.9" font-family="Consolas" font-size="12.00">+</text>
<text text-anchor="start" x="34.5" y="-306.9" font-family="Consolas" font-size="12.00">virtual void OnHierarchy</text>
<text text-anchor="start" x="34.5" y="-293.9" font-family="Consolas" font-size="12.00">Change()</text>
<polygon fill="#bfbfbf" stroke="#bfbfbf" points="18.5,-450.5 18.5,-450.5 234.5,-450.5 234.5,-450.5 18.5,-450.5"/>
<polygon fill="#bfbfbf" stroke="#bfbfbf" points="18.5,-416.5 18.5,-416.5 32.5,-416.5 32.5,-416.5 18.5,-416.5"/>
<polygon fill="#bfbfbf" stroke="#bfbfbf" points="32.5,-416.5 32.5,-416.5 234.5,-416.5 234.5,-416.5 32.5,-416.5"/>
<polygon fill="none" stroke="#bfbfbf" points="18.5,-287 18.5,-470 234.5,-470 234.5,-287 18.5,-287"/>
</a>
</g>
</g>
<!-- Node2&#45;&gt;Node1 -->
<g id="edge1_Node000001_Node000002" class="edge">
<title>Node2&#45;&gt;Node1</title>
<g id="a_edge1_Node000001_Node000002"><a xlink:title=" ">
<path fill="none" stroke="#63b8ff" d="M126.5,-276.68C126.5,-268.24 126.5,-259.65 126.5,-251.06"/>
<polygon fill="none" stroke="#63b8ff" points="123,-276.88 126.5,-286.88 130,-276.88 123,-276.88"/>
</a>
</g>
</g>
</g>
</svg>
