<?xml version="1.0" encoding="UTF-8" standalone="no"?>
<!DOCTYPE svg PUBLIC "-//W3C//DTD SVG 1.1//EN"
 "http://www.w3.org/Graphics/SVG/1.1/DTD/svg11.dtd">
<!-- Generated by graphviz version 2.43.0 (0)
 -->
<!-- Title: TradingItem.GetBasePrice Pages: 1 -->
<svg width="723pt" height="29pt"
 viewBox="0.00 0.00 723.00 29.00" xmlns="http://www.w3.org/2000/svg" xmlns:xlink="http://www.w3.org/1999/xlink">
<g id="graph0" class="graph" transform="scale(1 1) rotate(0) translate(4 25)">
<title>TradingItem.GetBasePrice</title>
<!-- Node1 -->
<g id="Node000001" class="node">
<title>Node1</title>
<g id="a_Node000001"><a xlink:title="원본 가격(BasePrice)을 반환합니다. 변동폭이나 기타 가격 계산 로직과 무관하게, JSON에 정의된 기본 가격을 그대로 반환합니다. 인벤토리 아이템의 가격을 나타낼 때 사용됩...">
<polygon fill="#999999" stroke="#666666" points="715,-21 518,-21 518,0 715,0 715,-21"/>
<text text-anchor="middle" x="616.5" y="-7.4" font-family="Consolas" font-size="12.00">TradingItem.GetBasePrice</text>
</a>
</g>
</g>
<!-- Node2 -->
<g id="Node000002" class="node">
<title>Node2</title>
<g id="a_Node000002"><a xlink:href="classTradingItem.html#a181c79cc95a0be7d3e7eff9bc88cfe30" target="_top" xlink:title="외부에서 가격을 갱신할 필요가 있을 때 호출합니다. basePrice ± fluctuation 범위 내에서 새로 랜덤으로 가격을 계산합니다. 음수가 되지 않도록 보정합니다.">
<polygon fill="white" stroke="#666666" points="482,-21 255,-21 255,0 482,0 482,-21"/>
<text text-anchor="middle" x="368.5" y="-7.4" font-family="Consolas" font-size="12.00">TradingItem.RecalculatePrice</text>
</a>
</g>
</g>
<!-- Node1&#45;&gt;Node2 -->
<g id="edge1_Node000001_Node000002" class="edge">
<title>Node1&#45;&gt;Node2</title>
<g id="a_edge1_Node000001_Node000002"><a xlink:title=" ">
<path fill="none" stroke="#63b8ff" d="M507.73,-10.5C499.33,-10.5 490.83,-10.5 482.4,-10.5"/>
<polygon fill="#63b8ff" stroke="#63b8ff" points="507.92,-14 517.92,-10.5 507.92,-7 507.92,-14"/>
</a>
</g>
</g>
<!-- Node3 -->
<g id="Node000003" class="node">
<title>Node3</title>
<g id="a_Node000003"><a xlink:href="classTradingItem.html#a4118c5005efe9c3a7336bf269e40387c" target="_top" xlink:title="현재 가격을 반환합니다. 아직 초기화되지 않았다면 RecalculatePrice()를 호출하여 basePrice ± fluctuation 범위에서 랜덤으로 결정한 후,...">
<polygon fill="white" stroke="#666666" points="219,-21 0,-21 0,0 219,0 219,-21"/>
<text text-anchor="middle" x="109.5" y="-7.4" font-family="Consolas" font-size="12.00">TradingItem.GetCurrentPrice</text>
</a>
</g>
</g>
<!-- Node2&#45;&gt;Node3 -->
<g id="edge2_Node000002_Node000003" class="edge">
<title>Node2&#45;&gt;Node3</title>
<g id="a_edge2_Node000002_Node000003"><a xlink:title=" ">
<path fill="none" stroke="#63b8ff" d="M244.73,-10.5C236.15,-10.5 227.53,-10.5 219.04,-10.5"/>
<polygon fill="#63b8ff" stroke="#63b8ff" points="244.78,-14 254.78,-10.5 244.78,-7 244.78,-14"/>
</a>
</g>
</g>
</g>
</svg>
