<?xml version="1.0" encoding="UTF-8" standalone="no"?>
<!DOCTYPE svg PUBLIC "-//W3C//DTD SVG 1.1//EN"
 "http://www.w3.org/Graphics/SVG/1.1/DTD/svg11.dtd">
<!-- Generated by graphviz version 2.43.0 (0)
 -->
<!-- Title: Storage.StoredItem Pages: 1 -->
<!--zoomable 584 -->

<svg id="main" version="1.1" xmlns="http://www.w3.org/2000/svg" xmlns:xlink="http://www.w3.org/1999/xlink" xml:space="preserve" onload="init(evt)">
<style type="text/css"><![CDATA[
.node, .edge {opacity: 0.7;}
.node.selected, .edge.selected {opacity: 1;}
.edge:hover path { stroke: red; }
.edge:hover polygon { stroke: red; fill: red; }
]]></style>

<defs>
  <circle id="rim" cx="0" cy="0" r="7"/>
  <circle id="rim2" cx="0" cy="0" r="3.5"/>
  <g id="zoomPlus">
    <use xlink:href="#rim" fill="#404040"><set attributeName="fill" to="#808080" begin="zoomplus.mouseover" end="zoomplus.mouseout"/></use>
    <path d="M-4,0h8M0,-4v8" fill="none" stroke="white" stroke-width="1.5" pointer-events="none"/>
  </g>
  <g id="zoomMin">
    <use xlink:href="#rim" fill="#404040"><set attributeName="fill" to="#808080" begin="zoomminus.mouseover" end="zoomminus.mouseout"/></use>
    <path d="M-4,0h8" fill="none" stroke="white" stroke-width="1.5" pointer-events="none"/>
  </g>
  <g id="arrowUp" transform="translate(30 24)">
    <use xlink:href="#rim"/>
    <path pointer-events="none" fill="none" stroke="white" stroke-width="1.5" d="M0,-3.0v7 M-2.5,-0.5L0,-3.0L2.5,-0.5"/>
  </g>
  <g id="arrowRight" transform="rotate(90) translate(36 -43)">
    <use xlink:href="#rim"/>
    <path pointer-events="none" fill="none" stroke="white" stroke-width="1.5" d="M0,-3.0v7 M-2.5,-0.5L0,-3.0L2.5,-0.5"/>
  </g>
  <g id="arrowDown" transform="rotate(180) translate(-30 -48)">
    <use xlink:href="#rim"/>
    <path pointer-events="none" fill="none" stroke="white" stroke-width="1.5" d="M0,-3.0v7 M-2.5,-0.5L0,-3.0L2.5,-0.5"/>
  </g>
  <g id="arrowLeft" transform="rotate(270) translate(-36 17)">
    <use xlink:href="#rim"/>
    <path pointer-events="none" fill="none" stroke="white" stroke-width="1.5" d="M0,-3.0v7 M-2.5,-0.5L0,-3.0L2.5,-0.5"/>
  </g>
  <g id="resetDef">
    <use xlink:href="#rim2" fill="#404040"><set attributeName="fill" to="#808080" begin="reset.mouseover" end="reset.mouseout"/></use>
  </g>
</defs>
<script type="application/ecmascript">
var viewWidth = 179;
var viewHeight = 584;
var sectionId = 'dynsection-0';
</script>
<script type="application/ecmascript" xlink:href="svg.min.js"/>
<svg id="graph" class="graph">
<g id="viewport">
<title>Storage.StoredItem</title>
<!-- Node1 -->
<g id="Node000001" class="node">
<title>Node1</title>
<g id="a_Node000001"><a xlink:title="아이템 저장 구조체: 아이템 데이터, 수량, 구매 당시 가격(kg당)">
<polygon fill="#999999" stroke="transparent" points="167,-72 4,-72 4,0 167,0 167,-72"/>
<text text-anchor="start" x="18" y="-58.4" font-family="Consolas" font-size="12.00">Storage.StoredItem</text>
<text text-anchor="start" x="8.5" y="-41.4" font-family="Consolas" font-size="12.00">+</text>
<text text-anchor="start" x="20.5" y="-41.4" font-family="Consolas" font-size="12.00">int quantity</text>
<text text-anchor="start" x="8.5" y="-24.4" font-family="Consolas" font-size="12.00">+</text>
<text text-anchor="start" x="20.5" y="-24.4" font-family="Consolas" font-size="12.00">float purchasePrice</text>
<text text-anchor="start" x="82" y="-7.4" font-family="Consolas" font-size="12.00"> </text>
<polygon fill="#666666" stroke="#666666" points="4.5,-53 4.5,-53 167.5,-53 167.5,-53 4.5,-53"/>
<polygon fill="#666666" stroke="#666666" points="4.5,-19 4.5,-19 18.5,-19 18.5,-19 4.5,-19"/>
<polygon fill="#666666" stroke="#666666" points="18.5,-19 18.5,-19 167.5,-19 167.5,-19 18.5,-19"/>
<polygon fill="none" stroke="#666666" points="4,0 4,-72 167,-72 167,0 4,0"/>
</a>
</g>
</g>
<!-- Node2 -->
<g id="Node000002" class="node">
<title>Node2</title>
<g id="a_Node000002"><a xlink:href="classTradingItemData.html" target="_top" xlink:title=" ">
<polygon fill="white" stroke="transparent" points="171,-484 0,-484 0,-123 171,-123 171,-484"/>
<text text-anchor="start" x="29.5" y="-469.9" font-family="Consolas" font-size="12.00">TradingItemData</text>
<text text-anchor="start" x="4.5" y="-452.9" font-family="Consolas" font-size="12.00">+</text>
<text text-anchor="start" x="16.5" y="-452.9" font-family="Consolas" font-size="12.00">int id</text>
<text text-anchor="start" x="4.5" y="-435.9" font-family="Consolas" font-size="12.00">+</text>
<text text-anchor="start" x="16.5" y="-435.9" font-family="Consolas" font-size="12.00">ItemPlanet planet</text>
<text text-anchor="start" x="4.5" y="-418.9" font-family="Consolas" font-size="12.00">+</text>
<text text-anchor="start" x="16.5" y="-418.9" font-family="Consolas" font-size="12.00">ItemTierLevel tier</text>
<text text-anchor="start" x="4.5" y="-401.9" font-family="Consolas" font-size="12.00">+</text>
<text text-anchor="start" x="16.5" y="-401.9" font-family="Consolas" font-size="12.00">ItemState itemState</text>
<text text-anchor="start" x="4.5" y="-384.9" font-family="Consolas" font-size="12.00">+</text>
<text text-anchor="start" x="16.5" y="-384.9" font-family="Consolas" font-size="12.00">string itemName</text>
<text text-anchor="start" x="4.5" y="-367.9" font-family="Consolas" font-size="12.00">+</text>
<text text-anchor="start" x="16.5" y="-367.9" font-family="Consolas" font-size="12.00">string debugName</text>
<text text-anchor="start" x="4.5" y="-350.9" font-family="Consolas" font-size="12.00">+</text>
<text text-anchor="start" x="16.5" y="-350.9" font-family="Consolas" font-size="12.00">ItemCategory type</text>
<text text-anchor="start" x="4.5" y="-333.9" font-family="Consolas" font-size="12.00">+</text>
<text text-anchor="start" x="16.5" y="-333.9" font-family="Consolas" font-size="12.00">float temperatureMin</text>
<text text-anchor="start" x="4.5" y="-316.9" font-family="Consolas" font-size="12.00">+</text>
<text text-anchor="start" x="16.5" y="-316.9" font-family="Consolas" font-size="12.00">float temperatureMax</text>
<text text-anchor="start" x="4.5" y="-299.9" font-family="Consolas" font-size="12.00">+</text>
<text text-anchor="start" x="16.5" y="-299.9" font-family="Consolas" font-size="12.00">int shape</text>
<text text-anchor="start" x="4.5" y="-282.9" font-family="Consolas" font-size="12.00">+</text>
<text text-anchor="start" x="16.5" y="-282.9" font-family="Consolas" font-size="12.00">int costBase</text>
<text text-anchor="start" x="4.5" y="-265.9" font-family="Consolas" font-size="12.00">+</text>
<text text-anchor="start" x="16.5" y="-265.9" font-family="Consolas" font-size="12.00">int capacity</text>
<text text-anchor="start" x="4.5" y="-248.9" font-family="Consolas" font-size="12.00">+</text>
<text text-anchor="start" x="16.5" y="-248.9" font-family="Consolas" font-size="12.00">int costMin</text>
<text text-anchor="start" x="4.5" y="-231.9" font-family="Consolas" font-size="12.00">+</text>
<text text-anchor="start" x="16.5" y="-231.9" font-family="Consolas" font-size="12.00">float costChangerate</text>
<text text-anchor="start" x="4.5" y="-214.9" font-family="Consolas" font-size="12.00">+</text>
<text text-anchor="start" x="16.5" y="-214.9" font-family="Consolas" font-size="12.00">int costMax</text>
<text text-anchor="start" x="4.5" y="-197.9" font-family="Consolas" font-size="12.00">+</text>
<text text-anchor="start" x="16.5" y="-197.9" font-family="Consolas" font-size="12.00">string description</text>
<text text-anchor="start" x="4.5" y="-180.9" font-family="Consolas" font-size="12.00">+</text>
<text text-anchor="start" x="16.5" y="-180.9" font-family="Consolas" font-size="12.00">Sprite itemSprite</text>
<text text-anchor="start" x="4.5" y="-163.9" font-family="Consolas" font-size="12.00">+</text>
<text text-anchor="start" x="16.5" y="-163.9" font-family="Consolas" font-size="12.00">int amount</text>
<text text-anchor="start" x="4.5" y="-146.9" font-family="Consolas" font-size="12.00">+</text>
<text text-anchor="start" x="16.5" y="-146.9" font-family="Consolas" font-size="12.00">int boughtCost</text>
<text text-anchor="start" x="82" y="-129.9" font-family="Consolas" font-size="12.00"> </text>
<polygon fill="#bfbfbf" stroke="#bfbfbf" points="0.5,-464.5 0.5,-464.5 171.5,-464.5 171.5,-464.5 0.5,-464.5"/>
<polygon fill="#bfbfbf" stroke="#bfbfbf" points="0.5,-141.5 0.5,-141.5 14.5,-141.5 14.5,-141.5 0.5,-141.5"/>
<polygon fill="#bfbfbf" stroke="#bfbfbf" points="14.5,-141.5 14.5,-141.5 171.5,-141.5 171.5,-141.5 14.5,-141.5"/>
<polygon fill="none" stroke="#bfbfbf" points="0,-123 0,-484 171,-484 171,-123 0,-123"/>
</a>
</g>
</g>
<!-- Node2&#45;&gt;Node1 -->
<g id="edge1_Node000001_Node000002" class="edge">
<title>Node2&#45;&gt;Node1</title>
<g id="a_edge1_Node000001_Node000002"><a xlink:title=" ">
<path fill="none" stroke="#63b8ff" d="M85.5,-122.83C85.5,-109.08 85.5,-96.09 85.5,-84.59"/>
<polygon fill="none" stroke="#63b8ff" points="85.5,-84.26 81.5,-78.26 85.5,-72.26 89.5,-78.26 85.5,-84.26"/>
</a>
</g>
<text text-anchor="middle" x="127" y="-93.8" font-family="Consolas" font-size="14.00" fill="grey"> +itemData</text>
</g>
<!-- Node3 -->
<g id="Node000003" class="node">
<title>Node3</title>
<g id="a_Node000003"><a xlink:title=" ">
<polygon fill="white" stroke="transparent" points="151,-576 20,-576 20,-521 151,-521 151,-576"/>
<text text-anchor="start" x="25.5" y="-561.9" font-family="Consolas" font-size="12.00">ScriptableObject</text>
<text text-anchor="start" x="82" y="-544.9" font-family="Consolas" font-size="12.00"> </text>
<text text-anchor="start" x="82" y="-527.9" font-family="Consolas" font-size="12.00"> </text>
<polygon fill="#bfbfbf" stroke="#bfbfbf" points="20.5,-556.5 20.5,-556.5 151.5,-556.5 151.5,-556.5 20.5,-556.5"/>
<polygon fill="#bfbfbf" stroke="#bfbfbf" points="20.5,-539.5 20.5,-539.5 151.5,-539.5 151.5,-539.5 20.5,-539.5"/>
<polygon fill="none" stroke="#bfbfbf" points="20,-521 20,-576 151,-576 151,-521 20,-521"/>
</a>
</g>
</g>
<!-- Node3&#45;&gt;Node2 -->
<g id="edge2_Node000002_Node000003" class="edge">
<title>Node3&#45;&gt;Node2</title>
<g id="a_edge2_Node000002_Node000003"><a xlink:title=" ">
<path fill="none" stroke="#63b8ff" d="M85.5,-510.36C85.5,-502.42 85.5,-493.53 85.5,-484.02"/>
<polygon fill="none" stroke="#63b8ff" points="82,-510.57 85.5,-520.57 89,-510.57 82,-510.57"/>
</a>
</g>
</g>
</g>
</svg>

<g id="navigator" transform="translate(0 0)" fill="#404254">
  <rect fill="#f2f5e9" fill-opacity="0.5" stroke="#606060" stroke-width=".5" x="0" y="0" width="60" height="60"/>
  <use id="zoomplus" xlink:href="#zoomPlus" x="17" y="9" onmousedown="handleZoom(evt,'in')"/>
  <use id="zoomminus" xlink:href="#zoomMin" x="42" y="9" onmousedown="handleZoom(evt,'out')"/>
  <use id="reset" xlink:href="#resetDef" x="30" y="36" onmousedown="handleReset()"/>
   <use id="arrowup" xlink:href="#arrowUp" x="0" y="0" onmousedown="handlePan(0,-1)"/>
  <use id="arrowright" xlink:href="#arrowRight" x="0" y="0" onmousedown="handlePan(1,0)"/>
  <use id="arrowdown" xlink:href="#arrowDown" x="0" y="0" onmousedown="handlePan(0,1)"/>
  <use id="arrowleft" xlink:href="#arrowLeft" x="0" y="0" onmousedown="handlePan(-1,0)"/>
</g>
<svg viewBox="0 0 15 15" width="100%" height="30px" preserveAspectRatio="xMaxYMin meet">
 <g id="arrow_out" transform="scale(0.3 0.3)">
  <a xlink:href="classStorage_1_1StoredItem__coll__graph_org.svg" target="_base">
   <rect id="button" ry="5" rx="5" y="6" x="6" height="38" width="38"
        fill="#f2f5e9" fill-opacity="0.5" stroke="#606060" stroke-width="1.0"/>
   <path id="arrow"
     d="M 11.500037,31.436501 C 11.940474,20.09759 22.043105,11.32322 32.158766,21.979434 L 37.068811,17.246167 C 37.068811,17.246167 37.088388,32 37.088388,32 L 22.160133,31.978069 C 22.160133,31.978069 26.997745,27.140456 26.997745,27.140456 C 18.528582,18.264221 13.291696,25.230495 11.500037,31.436501 z"
     style="fill:#404040;"/>
  </a>
 </g>
</svg>

<style type='text/css'>
<![CDATA[
[data-mouse-over-selected='false'] { opacity: 0.7; }
[data-mouse-over-selected='true']  { opacity: 1.0; }
]]>
</style>
<script type="application/ecmascript"><![CDATA[
document.addEventListener('DOMContentLoaded', (event) => {
  highlightEdges();
  highlightAdjacentNodes();
});
]]></script>
</svg>
