<?xml version="1.0" encoding="UTF-8" standalone="no"?>
<!DOCTYPE svg PUBLIC "-//W3C//DTD SVG 1.1//EN"
 "http://www.w3.org/Graphics/SVG/1.1/DTD/svg11.dtd">
<!-- Generated by graphviz version 2.43.0 (0)
 -->
<!-- Title: MenuUIManager.SlideMenu Pages: 1 -->
<svg width="926pt" height="146pt"
 viewBox="0.00 0.00 926.00 146.00" xmlns="http://www.w3.org/2000/svg" xmlns:xlink="http://www.w3.org/1999/xlink">
<g id="graph0" class="graph" transform="scale(1 1) rotate(0) translate(4 142)">
<title>MenuUIManager.SlideMenu</title>
<!-- Node1 -->
<g id="Node000001" class="node">
<title>Node1</title>
<g id="a_Node000001"><a xlink:title="Menu UI 클릭 시 UI가 애니메이션 형태로 우에서 좌로 Slide되어 나타납니다.">
<polygon fill="#999999" stroke="#666666" points="918,-59.5 729,-59.5 729,-38.5 918,-38.5 918,-59.5"/>
<text text-anchor="middle" x="823.5" y="-45.9" font-family="Consolas" font-size="12.00">MenuUIManager.SlideMenu</text>
</a>
</g>
</g>
<!-- Node2 -->
<g id="Node000002" class="node">
<title>Node2</title>
<g id="a_Node000002"><a xlink:href="classMenuUIManager.html#affd2caca9dab596142221936b495824c" target="_top" xlink:title="열려있는 Menu UI를 강제로 닫습니다.">
<polygon fill="white" stroke="#666666" points="693,-79.5 466,-79.5 466,-58.5 693,-58.5 693,-79.5"/>
<text text-anchor="middle" x="579.5" y="-65.9" font-family="Consolas" font-size="12.00">MenuUIManager.ForceCloseMenu</text>
</a>
</g>
</g>
<!-- Node1&#45;&gt;Node2 -->
<g id="edge1_Node000001_Node000002" class="edge">
<title>Node1&#45;&gt;Node2</title>
<g id="a_edge1_Node000001_Node000002"><a xlink:title=" ">
<path fill="none" stroke="#63b8ff" d="M718.71,-57.58C710.27,-58.28 701.71,-58.98 693.21,-59.69"/>
<polygon fill="#63b8ff" stroke="#63b8ff" points="719.26,-61.04 728.94,-56.73 718.68,-54.07 719.26,-61.04"/>
</a>
</g>
</g>
<!-- Node7 -->
<g id="Node000007" class="node">
<title>Node7</title>
<g id="a_Node000007"><a xlink:href="classMenuUIManager.html#a2d2f64f338d49ff806f92131a82167f7" target="_top" xlink:title="Menu UI를 토글형식으로 열었다가 닫을 수 있습니다.">
<polygon fill="white" stroke="#666666" points="678,-40.5 481,-40.5 481,-19.5 678,-19.5 678,-40.5"/>
<text text-anchor="middle" x="579.5" y="-26.9" font-family="Consolas" font-size="12.00">MenuUIManager.ToggleMenu</text>
</a>
</g>
</g>
<!-- Node1&#45;&gt;Node7 -->
<g id="edge6_Node000001_Node000007" class="edge">
<title>Node1&#45;&gt;Node7</title>
<g id="a_edge6_Node000001_Node000007"><a xlink:title=" ">
<path fill="none" stroke="#63b8ff" d="M718.73,-40.85C705.29,-39.8 691.56,-38.72 678.22,-37.67"/>
<polygon fill="#63b8ff" stroke="#63b8ff" points="718.69,-44.36 728.94,-41.65 719.24,-37.38 718.69,-44.36"/>
</a>
</g>
</g>
<!-- Node3 -->
<g id="Node000003" class="node">
<title>Node3</title>
<g id="a_Node000003"><a xlink:href="classCrewUIHandler.html#ad6d30e28e6b12254a7284d840395058b" target="_top" xlink:title="인자로 받은 UI 활성화">
<polygon fill="white" stroke="#666666" points="430,-79.5 263,-79.5 263,-58.5 430,-58.5 430,-79.5"/>
<text text-anchor="middle" x="346.5" y="-65.9" font-family="Consolas" font-size="12.00">CrewUIHandler.ShowUI</text>
</a>
</g>
</g>
<!-- Node2&#45;&gt;Node3 -->
<g id="edge2_Node000002_Node000003" class="edge">
<title>Node2&#45;&gt;Node3</title>
<g id="a_edge2_Node000002_Node000003"><a xlink:title=" ">
<path fill="none" stroke="#63b8ff" d="M455.56,-69C446.93,-69 438.36,-69 430.04,-69"/>
<polygon fill="#63b8ff" stroke="#63b8ff" points="455.71,-72.5 465.71,-69 455.71,-65.5 455.71,-72.5"/>
</a>
</g>
</g>
<!-- Node4 -->
<g id="Node000004" class="node">
<title>Node4</title>
<g id="a_Node000004"><a xlink:href="classCrewUIHandler.html#adc64cd9fb9c94d6cd30dfea9b8ef5c81" target="_top" xlink:title="장비 구매 UI로의 이동 버튼 클릭 시 호출">
<polygon fill="white" stroke="#666666" points="227,-138 0,-138 0,-104 227,-104 227,-138"/>
<text text-anchor="start" x="8" y="-124.4" font-family="Consolas" font-size="12.00">CrewUIHandler.OnAddEquipment</text>
<text text-anchor="middle" x="113.5" y="-111.4" font-family="Consolas" font-size="12.00">ButtonClicked</text>
</a>
</g>
</g>
<!-- Node3&#45;&gt;Node4 -->
<g id="edge3_Node000003_Node000004" class="edge">
<title>Node3&#45;&gt;Node4</title>
<g id="a_edge3_Node000003_Node000004"><a xlink:title=" ">
<path fill="none" stroke="#63b8ff" d="M288.97,-81.73C259.26,-88.41 222.43,-96.7 190.28,-103.94"/>
<polygon fill="#63b8ff" stroke="#63b8ff" points="289.77,-85.13 298.75,-79.52 288.23,-78.3 289.77,-85.13"/>
</a>
</g>
</g>
<!-- Node5 -->
<g id="Node000005" class="node">
<title>Node5</title>
<g id="a_Node000005"><a xlink:href="classCrewUIHandler.html#a25fe54aa5427f0bcdc856b95714bfd34" target="_top" xlink:title="선원 추가를 위한 UI로 이동 버튼 클릭 시 호출">
<polygon fill="white" stroke="#666666" points="227,-86 0,-86 0,-52 227,-52 227,-86"/>
<text text-anchor="start" x="8" y="-72.4" font-family="Consolas" font-size="12.00">CrewUIHandler.OnCreateButton</text>
<text text-anchor="middle" x="113.5" y="-59.4" font-family="Consolas" font-size="12.00">Clicked</text>
</a>
</g>
</g>
<!-- Node3&#45;&gt;Node5 -->
<g id="edge4_Node000003_Node000005" class="edge">
<title>Node3&#45;&gt;Node5</title>
<g id="a_edge4_Node000003_Node000005"><a xlink:title=" ">
<path fill="none" stroke="#63b8ff" d="M252.66,-69C244.3,-69 235.78,-69 227.28,-69"/>
<polygon fill="#63b8ff" stroke="#63b8ff" points="252.76,-72.5 262.76,-69 252.76,-65.5 252.76,-72.5"/>
</a>
</g>
</g>
<!-- Node6 -->
<g id="Node000006" class="node">
<title>Node6</title>
<g id="a_Node000006"><a xlink:href="classCrewUIHandler.html#a45a753651a66f7896431a39f5d7f76ed" target="_top" xlink:title="함선 커스터마이즈를 위한 버튼 클릭 시 호출">
<polygon fill="white" stroke="#666666" points="215.5,-34 11.5,-34 11.5,0 215.5,0 215.5,-34"/>
<text text-anchor="start" x="19.5" y="-20.4" font-family="Consolas" font-size="12.00">CrewUIHandler.OnCustomize</text>
<text text-anchor="middle" x="113.5" y="-7.4" font-family="Consolas" font-size="12.00">ButtonClicked</text>
</a>
</g>
</g>
<!-- Node3&#45;&gt;Node6 -->
<g id="edge5_Node000003_Node000006" class="edge">
<title>Node3&#45;&gt;Node6</title>
<g id="a_edge5_Node000003_Node000006"><a xlink:title=" ">
<path fill="none" stroke="#63b8ff" d="M288.97,-56.27C259.26,-49.59 222.43,-41.3 190.28,-34.06"/>
<polygon fill="#63b8ff" stroke="#63b8ff" points="288.23,-59.7 298.75,-58.48 289.77,-52.87 288.23,-59.7"/>
</a>
</g>
</g>
<!-- Node8 -->
<g id="Node000008" class="node">
<title>Node8</title>
<g id="a_Node000008"><a xlink:href="classMenuUIManager.html#ad0abf825ac112cf14db5b755405e64d4" target="_top" xlink:title="메뉴 UI의 초기 설정을 하고, 메뉴 버튼에 클릭 이벤트를 추가합니다.">
<polygon fill="white" stroke="#666666" points="426,-40.5 267,-40.5 267,-19.5 426,-19.5 426,-40.5"/>
<text text-anchor="middle" x="346.5" y="-26.9" font-family="Consolas" font-size="12.00">MenuUIManager.Start</text>
</a>
</g>
</g>
<!-- Node7&#45;&gt;Node8 -->
<g id="edge7_Node000007_Node000008" class="edge">
<title>Node7&#45;&gt;Node8</title>
<g id="a_edge7_Node000007_Node000008"><a xlink:title=" ">
<path fill="none" stroke="#63b8ff" d="M470.57,-30C455.63,-30 440.52,-30 426.25,-30"/>
<polygon fill="#63b8ff" stroke="#63b8ff" points="470.87,-33.5 480.87,-30 470.87,-26.5 470.87,-33.5"/>
</a>
</g>
</g>
</g>
</svg>
