<?xml version="1.0" encoding="UTF-8" standalone="no"?>
<!DOCTYPE svg PUBLIC "-//W3C//DTD SVG 1.1//EN"
 "http://www.w3.org/Graphics/SVG/1.1/DTD/svg11.dtd">
<!-- Generated by graphviz version 2.43.0 (0)
 -->
<!-- Title: CrewMember.CombatRoutine Pages: 1 -->
<!--zoomable 126 -->

<svg id="main" version="1.1" xmlns="http://www.w3.org/2000/svg" xmlns:xlink="http://www.w3.org/1999/xlink" xml:space="preserve" onload="init(evt)">
<style type="text/css"><![CDATA[
.node, .edge {opacity: 0.7;}
.node.selected, .edge.selected {opacity: 1;}
.edge:hover path { stroke: red; }
.edge:hover polygon { stroke: red; fill: red; }
]]></style>

<defs>
  <circle id="rim" cx="0" cy="0" r="7"/>
  <circle id="rim2" cx="0" cy="0" r="3.5"/>
  <g id="zoomPlus">
    <use xlink:href="#rim" fill="#404040"><set attributeName="fill" to="#808080" begin="zoomplus.mouseover" end="zoomplus.mouseout"/></use>
    <path d="M-4,0h8M0,-4v8" fill="none" stroke="white" stroke-width="1.5" pointer-events="none"/>
  </g>
  <g id="zoomMin">
    <use xlink:href="#rim" fill="#404040"><set attributeName="fill" to="#808080" begin="zoomminus.mouseover" end="zoomminus.mouseout"/></use>
    <path d="M-4,0h8" fill="none" stroke="white" stroke-width="1.5" pointer-events="none"/>
  </g>
  <g id="arrowUp" transform="translate(30 24)">
    <use xlink:href="#rim"/>
    <path pointer-events="none" fill="none" stroke="white" stroke-width="1.5" d="M0,-3.0v7 M-2.5,-0.5L0,-3.0L2.5,-0.5"/>
  </g>
  <g id="arrowRight" transform="rotate(90) translate(36 -43)">
    <use xlink:href="#rim"/>
    <path pointer-events="none" fill="none" stroke="white" stroke-width="1.5" d="M0,-3.0v7 M-2.5,-0.5L0,-3.0L2.5,-0.5"/>
  </g>
  <g id="arrowDown" transform="rotate(180) translate(-30 -48)">
    <use xlink:href="#rim"/>
    <path pointer-events="none" fill="none" stroke="white" stroke-width="1.5" d="M0,-3.0v7 M-2.5,-0.5L0,-3.0L2.5,-0.5"/>
  </g>
  <g id="arrowLeft" transform="rotate(270) translate(-36 17)">
    <use xlink:href="#rim"/>
    <path pointer-events="none" fill="none" stroke="white" stroke-width="1.5" d="M0,-3.0v7 M-2.5,-0.5L0,-3.0L2.5,-0.5"/>
  </g>
  <g id="resetDef">
    <use xlink:href="#rim2" fill="#404040"><set attributeName="fill" to="#808080" begin="reset.mouseover" end="reset.mouseout"/></use>
  </g>
</defs>
<script type="application/ecmascript">
var viewWidth = 746;
var viewHeight = 126;
var sectionId = 'dynsection-6';
</script>
<script type="application/ecmascript" xlink:href="svg.min.js"/>
<svg id="graph" class="graph">
<g id="viewport">
<title>CrewMember.CombatRoutine</title>
<!-- Node1 -->
<g id="Node000001" class="node">
<title>Node1</title>
<g id="a_Node000001"><a xlink:title="전투 진입 코루틴 (타겟 설정 후 전투 시작, 타겟이 없고 적 함선일 경우 방 부수기 돌입)">
<polygon fill="#999999" stroke="#666666" points="738,-60 541,-60 541,-39 738,-39 738,-60"/>
<text text-anchor="middle" x="639.5" y="-46.4" font-family="Consolas" font-size="12.00">CrewMember.CombatRoutine</text>
</a>
</g>
</g>
<!-- Node1&#45;&gt;Node1 -->
<g id="edge1_Node000001_Node000001" class="edge">
<title>Node1&#45;&gt;Node1</title>
<g id="a_edge1_Node000001_Node000001"><a xlink:title=" ">
<path fill="none" stroke="#63b8ff" d="M687.1,-66.93C687.79,-73.05 671.92,-78 639.5,-78 595.35,-78 581.89,-68.81 599.14,-60.02"/>
<polygon fill="#63b8ff" stroke="#63b8ff" points="689.51,-64.39 679.86,-60.02 684.68,-69.46 689.51,-64.39"/>
</a>
</g>
</g>
<!-- Node2 -->
<g id="Node000002" class="node">
<title>Node2</title>
<g id="a_Node000002"><a xlink:href="classCrewMember.html#ae46abe81a744b6abd13f285a25455404" target="_top" xlink:title="경로를 따라 이동하는 코루틴">
<polygon fill="white" stroke="#666666" points="505,-99 263,-99 263,-78 505,-78 505,-99"/>
<text text-anchor="middle" x="384" y="-85.4" font-family="Consolas" font-size="12.00">CrewMember.FollowPathCoroutine</text>
</a>
</g>
</g>
<!-- Node1&#45;&gt;Node2 -->
<g id="edge2_Node000001_Node000002" class="edge">
<title>Node1&#45;&gt;Node2</title>
<g id="a_edge2_Node000001_Node000002"><a xlink:title=" ">
<path fill="none" stroke="#63b8ff" d="M560.28,-61.53C526.1,-66.79 486.37,-72.9 453.39,-77.98"/>
<polygon fill="#63b8ff" stroke="#63b8ff" points="560.88,-64.98 570.23,-60 559.82,-58.06 560.88,-64.98"/>
</a>
</g>
</g>
<!-- Node5 -->
<g id="Node000005" class="node">
<title>Node5</title>
<g id="a_Node000005"><a xlink:href="classCrewMember.html#a333520785e710bfa87327f3f15f03734" target="_top" xlink:title="CombatRoutine()은 1회 공격 &#45;&gt; 반복해라">
<polygon fill="white" stroke="#666666" points="505,-60 263,-60 263,-39 505,-39 505,-60"/>
<text text-anchor="middle" x="384" y="-46.4" font-family="Consolas" font-size="12.00">CrewMember.RepeatCombatRoutine</text>
</a>
</g>
</g>
<!-- Node1&#45;&gt;Node5 -->
<g id="edge5_Node000001_Node000005" class="edge">
<title>Node1&#45;&gt;Node5</title>
<g id="a_edge5_Node000001_Node000005"><a xlink:title=" ">
<path fill="none" stroke="#63b8ff" d="M530.62,-49.5C522.17,-49.5 513.61,-49.5 505.08,-49.5"/>
<polygon fill="#63b8ff" stroke="#63b8ff" points="530.85,-53 540.85,-49.5 530.85,-46 530.85,-53"/>
</a>
</g>
</g>
<!-- Node6 -->
<g id="Node000006" class="node">
<title>Node6</title>
<g id="a_Node000006"><a xlink:href="classEnemyController.html#a41090510cff98622fe675d1f6e3ecd82" target="_top" xlink:title=" ">
<polygon fill="white" stroke="#666666" points="475,-21 293,-21 293,0 475,0 475,-21"/>
<text text-anchor="middle" x="384" y="-7.4" font-family="Consolas" font-size="12.00">EnemyController.Update</text>
</a>
</g>
</g>
<!-- Node1&#45;&gt;Node6 -->
<g id="edge6_Node000001_Node000006" class="edge">
<title>Node1&#45;&gt;Node6</title>
<g id="a_edge6_Node000001_Node000006"><a xlink:title=" ">
<path fill="none" stroke="#63b8ff" d="M560.28,-37.47C526.1,-32.21 486.37,-26.1 453.39,-21.02"/>
<polygon fill="#63b8ff" stroke="#63b8ff" points="559.82,-40.94 570.23,-39 560.88,-34.02 559.82,-40.94"/>
</a>
</g>
</g>
<!-- Node3 -->
<g id="Node000003" class="node">
<title>Node3</title>
<g id="a_Node000003"><a xlink:href="classCrewMember.html#a66e77fbffb949a64534ac03233d3fc65" target="_top" xlink:title="이동 경로를 명시하고 이동 시작 이동 시작 시 기존 점유 타일 해제, 새로운 목적지 타일 점유 등록">
<polygon fill="white" stroke="#666666" points="227,-118 0,-118 0,-97 227,-97 227,-118"/>
<text text-anchor="middle" x="113.5" y="-104.4" font-family="Consolas" font-size="12.00">CrewMember.AssignPathAndMove</text>
</a>
</g>
</g>
<!-- Node2&#45;&gt;Node3 -->
<g id="edge3_Node000002_Node000003" class="edge">
<title>Node2&#45;&gt;Node3</title>
<g id="a_edge3_Node000002_Node000003"><a xlink:title=" ">
<path fill="none" stroke="#63b8ff" d="M252.84,-97.71C244.28,-98.32 235.68,-98.92 227.21,-99.52"/>
<polygon fill="#63b8ff" stroke="#63b8ff" points="253.16,-101.2 262.89,-97 252.66,-94.21 253.16,-101.2"/>
</a>
</g>
</g>
<!-- Node4 -->
<g id="Node000004" class="node">
<title>Node4</title>
<g id="a_Node000004"><a xlink:href="classCrewMember.html#a2472a8d09a844b219190039393a6a601" target="_top" xlink:title="이동 중 새로운 이동 명령 수신 시 이전 목적지 타일 점유 해제 (체력바 follow)">
<polygon fill="white" stroke="#666666" points="227,-79 0,-79 0,-58 227,-58 227,-79"/>
<text text-anchor="middle" x="113.5" y="-65.4" font-family="Consolas" font-size="12.00">CrewMember.CancelAndRedirect</text>
</a>
</g>
</g>
<!-- Node2&#45;&gt;Node4 -->
<g id="edge4_Node000002_Node000004" class="edge">
<title>Node2&#45;&gt;Node4</title>
<g id="a_edge4_Node000002_Node000004"><a xlink:title=" ">
<path fill="none" stroke="#63b8ff" d="M252.84,-78.81C244.28,-78.17 235.68,-77.53 227.21,-76.9"/>
<polygon fill="#63b8ff" stroke="#63b8ff" points="252.65,-82.3 262.89,-79.55 253.17,-75.32 252.65,-82.3"/>
</a>
</g>
</g>
</g>
</svg>

<g id="navigator" transform="translate(0 0)" fill="#404254">
  <rect fill="#f2f5e9" fill-opacity="0.5" stroke="#606060" stroke-width=".5" x="0" y="0" width="60" height="60"/>
  <use id="zoomplus" xlink:href="#zoomPlus" x="17" y="9" onmousedown="handleZoom(evt,'in')"/>
  <use id="zoomminus" xlink:href="#zoomMin" x="42" y="9" onmousedown="handleZoom(evt,'out')"/>
  <use id="reset" xlink:href="#resetDef" x="30" y="36" onmousedown="handleReset()"/>
   <use id="arrowup" xlink:href="#arrowUp" x="0" y="0" onmousedown="handlePan(0,-1)"/>
  <use id="arrowright" xlink:href="#arrowRight" x="0" y="0" onmousedown="handlePan(1,0)"/>
  <use id="arrowdown" xlink:href="#arrowDown" x="0" y="0" onmousedown="handlePan(0,1)"/>
  <use id="arrowleft" xlink:href="#arrowLeft" x="0" y="0" onmousedown="handlePan(-1,0)"/>
</g>
<svg viewBox="0 0 15 15" width="100%" height="30px" preserveAspectRatio="xMaxYMin meet">
 <g id="arrow_out" transform="scale(0.3 0.3)">
  <a xlink:href="classCrewMember_a7e33e888e4ee988873045be9c623b09c_icgraph_org.svg" target="_base">
   <rect id="button" ry="5" rx="5" y="6" x="6" height="38" width="38"
        fill="#f2f5e9" fill-opacity="0.5" stroke="#606060" stroke-width="1.0"/>
   <path id="arrow"
     d="M 11.500037,31.436501 C 11.940474,20.09759 22.043105,11.32322 32.158766,21.979434 L 37.068811,17.246167 C 37.068811,17.246167 37.088388,32 37.088388,32 L 22.160133,31.978069 C 22.160133,31.978069 26.997745,27.140456 26.997745,27.140456 C 18.528582,18.264221 13.291696,25.230495 11.500037,31.436501 z"
     style="fill:#404040;"/>
  </a>
 </g>
</svg>

<style type='text/css'>
<![CDATA[
[data-mouse-over-selected='false'] { opacity: 0.7; }
[data-mouse-over-selected='true']  { opacity: 1.0; }
]]>
</style>
<script type="application/ecmascript"><![CDATA[
document.addEventListener('DOMContentLoaded', (event) => {
  highlightEdges();
  highlightAdjacentNodes();
});
]]></script>
</svg>
