<?xml version="1.0" encoding="UTF-8" standalone="no"?>
<!DOCTYPE svg PUBLIC "-//W3C//DTD SVG 1.1//EN"
 "http://www.w3.org/Graphics/SVG/1.1/DTD/svg11.dtd">
<!-- Generated by graphviz version 2.43.0 (0)
 -->
<!-- Title: EquipmentApplyHandler.OnEquipmentIconSelected Pages: 1 -->
<svg width="716pt" height="42pt"
 viewBox="0.00 0.00 716.00 42.00" xmlns="http://www.w3.org/2000/svg" xmlns:xlink="http://www.w3.org/1999/xlink">
<g id="graph0" class="graph" transform="scale(1 1) rotate(0) translate(4 38)">
<title>EquipmentApplyHandler.OnEquipmentIconSelected</title>
<!-- Node1 -->
<g id="Node000001" class="node">
<title>Node1</title>
<g id="a_Node000001"><a xlink:title="장비 선택됨 (장비 착용, 미착용 등 스텟 비교)">
<polygon fill="#999999" stroke="#666666" points="708,-34 511,-34 511,0 708,0 708,-34"/>
<text text-anchor="start" x="519" y="-20.4" font-family="Consolas" font-size="12.00">EquipmentApplyHandler.On</text>
<text text-anchor="middle" x="609.5" y="-7.4" font-family="Consolas" font-size="12.00">EquipmentIconSelected</text>
</a>
</g>
</g>
<!-- Node2 -->
<g id="Node000002" class="node">
<title>Node2</title>
<g id="a_Node000002"><a xlink:href="classEquipmentApplyHandler.html#a30971b246563208e707c97fd25646dc4" target="_top" xlink:title="보유 중인 전체 장비 리스트 갱신">
<polygon fill="white" stroke="#666666" points="475,-34 233,-34 233,0 475,0 475,-34"/>
<text text-anchor="start" x="241" y="-20.4" font-family="Consolas" font-size="12.00">EquipmentApplyHandler.Populate</text>
<text text-anchor="middle" x="354" y="-7.4" font-family="Consolas" font-size="12.00">EquipmentIcons</text>
</a>
</g>
</g>
<!-- Node1&#45;&gt;Node2 -->
<g id="edge1_Node000001_Node000002" class="edge">
<title>Node1&#45;&gt;Node2</title>
<g id="a_edge1_Node000001_Node000002"><a xlink:title=" ">
<path fill="none" stroke="#63b8ff" d="M500.62,-17C492.17,-17 483.61,-17 475.08,-17"/>
<polygon fill="#63b8ff" stroke="#63b8ff" points="500.85,-20.5 510.85,-17 500.85,-13.5 500.85,-20.5"/>
</a>
</g>
</g>
<!-- Node3 -->
<g id="Node000003" class="node">
<title>Node3</title>
<g id="a_Node000003"><a xlink:href="classEquipmentApplyHandler.html#aa78bfaf762e0ef65f070c6aea9f16112" target="_top" xlink:title="ok 버튼 눌러 장비를 선원에게 직접 적용 / 해제">
<polygon fill="white" stroke="#666666" points="197,-34 0,-34 0,0 197,0 197,-34"/>
<text text-anchor="start" x="8" y="-20.4" font-family="Consolas" font-size="12.00">EquipmentApplyHandler.On</text>
<text text-anchor="middle" x="98.5" y="-7.4" font-family="Consolas" font-size="12.00">ClickStatApplyButton</text>
</a>
</g>
</g>
<!-- Node2&#45;&gt;Node3 -->
<g id="edge2_Node000002_Node000003" class="edge">
<title>Node2&#45;&gt;Node3</title>
<g id="a_edge2_Node000002_Node000003"><a xlink:title=" ">
<path fill="none" stroke="#63b8ff" d="M222.77,-17C214.12,-17 205.49,-17 197.04,-17"/>
<polygon fill="#63b8ff" stroke="#63b8ff" points="222.93,-20.5 232.93,-17 222.93,-13.5 222.93,-20.5"/>
</a>
</g>
</g>
</g>
</svg>
