<?xml version="1.0" encoding="UTF-8" standalone="no"?>
<!DOCTYPE svg PUBLIC "-//W3C//DTD SVG 1.1//EN"
 "http://www.w3.org/Graphics/SVG/1.1/DTD/svg11.dtd">
<!-- Generated by graphviz version 2.43.0 (0)
 -->
<!-- Title: Ship.RemoveRoom Pages: 1 -->
<svg width="1353pt" height="486pt"
 viewBox="0.00 0.00 1353.00 485.50" xmlns="http://www.w3.org/2000/svg" xmlns:xlink="http://www.w3.org/1999/xlink">
<g id="graph0" class="graph" transform="scale(1 1) rotate(0) translate(4 481.5)">
<title>Ship.RemoveRoom</title>
<!-- Node1 -->
<g id="Node000001" class="node">
<title>Node1</title>
<g id="a_Node000001"><a xlink:title="지정한 룸을 함선에서 제거합니다.">
<polygon fill="#999999" stroke="#666666" points="129,-287.5 0,-287.5 0,-266.5 129,-266.5 129,-287.5"/>
<text text-anchor="middle" x="64.5" y="-273.9" font-family="Consolas" font-size="12.00">Ship.RemoveRoom</text>
</a>
</g>
</g>
<!-- Node2 -->
<g id="Node000002" class="node">
<title>Node2</title>
<g id="a_Node000002"><a xlink:href="classRoom.html#a20cd0655c331d88c7e1825abc51e9941" target="_top" xlink:title="방의 크기를 반환합니다.">
<polygon fill="white" stroke="#666666" points="542,-443.5 435,-443.5 435,-422.5 542,-422.5 542,-443.5"/>
<text text-anchor="middle" x="488.5" y="-429.9" font-family="Consolas" font-size="12.00">Room.GetSize</text>
</a>
</g>
</g>
<!-- Node1&#45;&gt;Node2 -->
<g id="edge1_Node000001_Node000002" class="edge">
<title>Node1&#45;&gt;Node2</title>
<g id="a_edge1_Node000001_Node000002"><a xlink:title=" ">
<path fill="none" stroke="#63b8ff" d="M94.17,-287.6C168.24,-314.98 365.98,-388.08 449.47,-418.94"/>
<polygon fill="#63b8ff" stroke="#63b8ff" points="448.47,-422.3 459.06,-422.49 450.9,-415.74 448.47,-422.3"/>
</a>
</g>
</g>
<!-- Node4 -->
<g id="Node000004" class="node">
<title>Node4</title>
<g id="a_Node000004"><a xlink:href="classShip.html#abd0fbb87b6fcf445e853c751d134cf50" target="_top" xlink:title="룸의 상태가 변경되었을 때 호출되는 콜백 함수입니다. 디버그 로그를 출력하고 전체 스탯을 다시 계산합니다.">
<polygon fill="white" stroke="#666666" points="354,-248.5 165,-248.5 165,-227.5 354,-227.5 354,-248.5"/>
<text text-anchor="middle" x="259.5" y="-234.9" font-family="Consolas" font-size="12.00">Ship.OnRoomStateChanged</text>
</a>
</g>
</g>
<!-- Node1&#45;&gt;Node4 -->
<g id="edge3_Node000001_Node000004" class="edge">
<title>Node1&#45;&gt;Node4</title>
<g id="a_edge3_Node000001_Node000004"><a xlink:title=" ">
<path fill="none" stroke="#63b8ff" d="M117.47,-266.5C141.82,-261.58 171.01,-255.68 196.5,-250.53"/>
<polygon fill="#63b8ff" stroke="#63b8ff" points="197.32,-253.93 206.43,-248.52 195.94,-247.07 197.32,-253.93"/>
</a>
</g>
</g>
<!-- Node5 -->
<g id="Node000005" class="node">
<title>Node5</title>
<g id="a_Node000005"><a xlink:href="classShip.html#a8f3f2bdca106f32f2d4c2b3f892a139f" target="_top" xlink:title="현재 함선의 모든 스탯을 다시 계산합니다. 방, 시스템, 선원의 기여도를 반영합니다.">
<polygon fill="white" stroke="#666666" points="587,-248.5 390,-248.5 390,-227.5 587,-227.5 587,-248.5"/>
<text text-anchor="middle" x="488.5" y="-234.9" font-family="Consolas" font-size="12.00">Ship.RecalculateAllStats</text>
</a>
</g>
</g>
<!-- Node1&#45;&gt;Node5 -->
<g id="edge22_Node000001_Node000005" class="edge">
<title>Node1&#45;&gt;Node5</title>
<g id="a_edge22_Node000001_Node000005"><a xlink:title=" ">
<path fill="none" stroke="#63b8ff" d="M129.21,-273.91C187.75,-270.75 276.86,-265.15 354,-257 372.27,-255.07 391.88,-252.54 410.3,-249.95"/>
<polygon fill="#63b8ff" stroke="#63b8ff" points="410.98,-253.39 420.39,-248.52 409.99,-246.46 410.98,-253.39"/>
</a>
</g>
</g>
<!-- Node3 -->
<g id="Node000003" class="node">
<title>Node3</title>
<g id="a_Node000003"><a xlink:href="classRoomData.html#a93ada549c4d197d14917913e944f46c2" target="_top" xlink:title="주어진 레벨에 해당하는 RoomLevel 데이터를 반환합니다. 각 파생 클래스에서 구현해야 합니다.">
<polygon fill="white" stroke="#666666" points="1120,-477.5 901,-477.5 901,-456.5 1120,-456.5 1120,-477.5"/>
<text text-anchor="middle" x="1010.5" y="-463.9" font-family="Consolas" font-size="12.00">RoomData.GetRoomDataByLevel</text>
</a>
</g>
</g>
<!-- Node2&#45;&gt;Node3 -->
<g id="edge2_Node000002_Node000003" class="edge">
<title>Node2&#45;&gt;Node3</title>
<g id="a_edge2_Node000002_Node000003"><a xlink:title=" ">
<path fill="none" stroke="#63b8ff" d="M542.07,-439.16C566.63,-441.87 596.28,-444.91 623,-447 712.59,-454.01 814.06,-459.15 890.55,-462.47"/>
<polygon fill="#63b8ff" stroke="#63b8ff" points="890.56,-465.97 900.7,-462.9 890.86,-458.98 890.56,-465.97"/>
</a>
</g>
</g>
<!-- Node4&#45;&gt;Node5 -->
<g id="edge4_Node000004_Node000005" class="edge">
<title>Node4&#45;&gt;Node5</title>
<g id="a_edge4_Node000004_Node000005"><a xlink:title=" ">
<path fill="none" stroke="#63b8ff" d="M354.14,-238C362.48,-238 370.96,-238 379.4,-238"/>
<polygon fill="#63b8ff" stroke="#63b8ff" points="379.67,-241.5 389.67,-238 379.67,-234.5 379.67,-241.5"/>
</a>
</g>
</g>
<!-- Node6 -->
<g id="Node000006" class="node">
<title>Node6</title>
<g id="a_Node000006"><a xlink:href="classMoraleSystem.html#aa5e29aef57bec024e207404bb90894b3" target="_top" xlink:title="현재 함선의 전체 사기 수치를 계산합니다. 생명유지실과 승무원 침실이 기여하며, 승무원 수가 수용 가능 인원을 초과할 경우 패널티가 적용됩니다.">
<polygon fill="white" stroke="#666666" points="857.5,-399 630.5,-399 630.5,-365 857.5,-365 857.5,-399"/>
<text text-anchor="start" x="638.5" y="-385.4" font-family="Consolas" font-size="12.00">MoraleSystem.CalculateGlobal</text>
<text text-anchor="middle" x="744" y="-372.4" font-family="Consolas" font-size="12.00">Morale</text>
</a>
</g>
</g>
<!-- Node5&#45;&gt;Node6 -->
<g id="edge5_Node000005_Node000006" class="edge">
<title>Node5&#45;&gt;Node6</title>
<g id="a_edge5_Node000005_Node000006"><a xlink:title=" ">
<path fill="none" stroke="#63b8ff" d="M498.28,-248.68C517.99,-271.92 568.33,-327.2 623,-355 627.58,-357.33 632.36,-359.46 637.26,-361.41"/>
<polygon fill="#63b8ff" stroke="#63b8ff" points="636.23,-364.76 646.82,-364.93 638.65,-358.19 636.23,-364.76"/>
</a>
</g>
</g>
<!-- Node10 -->
<g id="Node000010" class="node">
<title>Node10</title>
<g id="a_Node000010"><a xlink:href="classCrewSystem.html#a211d4d37de0e70c08101ad8733367bd7" target="_top" xlink:title="현재 탑승 중인 아군, 적군 포함 모든 크루 객체의 목록을 반환합니다.">
<polygon fill="white" stroke="#666666" points="823.5,-346.5 664.5,-346.5 664.5,-325.5 823.5,-325.5 823.5,-346.5"/>
<text text-anchor="middle" x="744" y="-332.9" font-family="Consolas" font-size="12.00">CrewSystem.GetCrews</text>
</a>
</g>
</g>
<!-- Node5&#45;&gt;Node10 -->
<g id="edge9_Node000005_Node000010" class="edge">
<title>Node5&#45;&gt;Node10</title>
<g id="a_edge9_Node000005_Node000010"><a xlink:title=" ">
<path fill="none" stroke="#63b8ff" d="M503.83,-248.77C527.38,-265.9 576.3,-299.11 623,-316 633.04,-319.63 643.79,-322.6 654.58,-325.04"/>
<polygon fill="#63b8ff" stroke="#63b8ff" points="653.97,-328.49 664.48,-327.14 655.42,-321.64 653.97,-328.49"/>
</a>
</g>
</g>
<!-- Node11 -->
<g id="Node000011" class="node">
<title>Node11</title>
<g id="a_Node000011"><a xlink:href="classOuterHullData.html#a51ad6d062c547a1cad0fb2c08ff593eb" target="_top" xlink:title="지정한 레벨에 해당하는 외갑판 데이터를 반환합니다.">
<polygon fill="white" stroke="#666666" points="865,-307.5 623,-307.5 623,-286.5 865,-286.5 865,-307.5"/>
<text text-anchor="middle" x="744" y="-293.9" font-family="Consolas" font-size="12.00">OuterHullData.GetOuterHullData</text>
</a>
</g>
</g>
<!-- Node5&#45;&gt;Node11 -->
<g id="edge10_Node000005_Node000011" class="edge">
<title>Node5&#45;&gt;Node11</title>
<g id="a_edge10_Node000005_Node000011"><a xlink:title=" ">
<path fill="none" stroke="#63b8ff" d="M521.59,-248.54C548.46,-257.09 587.93,-268.98 623,-277 635.27,-279.8 648.32,-282.39 661.14,-284.7"/>
<polygon fill="#63b8ff" stroke="#63b8ff" points="660.89,-288.21 671.34,-286.49 662.1,-281.31 660.89,-288.21"/>
</a>
</g>
</g>
<!-- Node12 -->
<g id="Node000012" class="node">
<title>Node12</title>
<g id="a_Node000012"><a xlink:href="classShip.html#a61cb09945d19adc35f1c2aaf845c39ce" target="_top" xlink:title="현재 함선의 외갑판 레벨을 반환합니다.">
<polygon fill="white" stroke="#666666" points="835,-268.5 653,-268.5 653,-247.5 835,-247.5 835,-268.5"/>
<text text-anchor="middle" x="744" y="-254.9" font-family="Consolas" font-size="12.00">Ship.GetOuterHullLevel</text>
</a>
</g>
</g>
<!-- Node5&#45;&gt;Node12 -->
<g id="edge11_Node000005_Node000012" class="edge">
<title>Node5&#45;&gt;Node12</title>
<g id="a_edge11_Node000005_Node000012"><a xlink:title=" ">
<path fill="none" stroke="#63b8ff" d="M587.15,-245.7C605.39,-247.14 624.48,-248.65 642.8,-250.09"/>
<polygon fill="#63b8ff" stroke="#63b8ff" points="642.64,-253.59 652.88,-250.89 643.19,-246.61 642.64,-253.59"/>
</a>
</g>
</g>
<!-- Node14 -->
<g id="Node000014" class="node">
<title>Node14</title>
<g id="a_Node000014"><a xlink:href="classCrewBase.html#a0c35d7b81e7bbda6c1187cd56da46b19" target="_top" xlink:title="선원이 함선 스탯에 기여하는 수치를 반환합니다. 예: 산소 소모량 등.">
<polygon fill="white" stroke="#666666" points="861,-229.5 627,-229.5 627,-208.5 861,-208.5 861,-229.5"/>
<text text-anchor="middle" x="744" y="-215.9" font-family="Consolas" font-size="12.00">CrewBase.GetStatContributions</text>
</a>
</g>
</g>
<!-- Node5&#45;&gt;Node14 -->
<g id="edge13_Node000005_Node000014" class="edge">
<title>Node5&#45;&gt;Node14</title>
<g id="a_edge13_Node000005_Node000014"><a xlink:title=" ">
<path fill="none" stroke="#63b8ff" d="M587.15,-230.68C596.77,-229.96 606.64,-229.22 616.5,-228.48"/>
<polygon fill="#63b8ff" stroke="#63b8ff" points="617.06,-231.95 626.77,-227.71 616.53,-224.97 617.06,-231.95"/>
</a>
</g>
</g>
<!-- Node15 -->
<g id="Node000015" class="node">
<title>Node15</title>
<g id="a_Node000015"><a xlink:href="classRoom.html#a8533094cb230185cce7735d640d950f1" target="_top" xlink:title="방이 함선 스탯에 기여하는 값을 반환합니다.">
<polygon fill="white" stroke="#666666" points="846,-438.5 642,-438.5 642,-417.5 846,-417.5 846,-438.5"/>
<text text-anchor="middle" x="744" y="-424.9" font-family="Consolas" font-size="12.00">Room.GetStatContributions</text>
</a>
</g>
</g>
<!-- Node5&#45;&gt;Node15 -->
<g id="edge14_Node000005_Node000015" class="edge">
<title>Node5&#45;&gt;Node15</title>
<g id="a_edge14_Node000005_Node000015"><a xlink:title=" ">
<path fill="none" stroke="#63b8ff" d="M494.32,-248.6C508.8,-279.16 555.21,-367.81 623,-408 626.48,-410.06 630.11,-411.93 633.84,-413.61"/>
<polygon fill="#63b8ff" stroke="#63b8ff" points="632.75,-416.95 643.33,-417.45 635.37,-410.46 632.75,-416.95"/>
</a>
</g>
</g>
<!-- Node17 -->
<g id="Node000017" class="node">
<title>Node17</title>
<g id="a_Node000017"><a xlink:href="classShip.html#a7ce33b470844e7f8b04df7741582010a" target="_top" xlink:title="함선의 기본 스탯을 초기화합니다. 모든 ShipStat 값을 0으로 설정하여 이후 계산의 기준을 만듭니다.">
<polygon fill="white" stroke="#666666" points="842.5,-190.5 645.5,-190.5 645.5,-169.5 842.5,-169.5 842.5,-190.5"/>
<text text-anchor="middle" x="744" y="-176.9" font-family="Consolas" font-size="12.00">Ship.InitializeBaseStats</text>
</a>
</g>
</g>
<!-- Node5&#45;&gt;Node17 -->
<g id="edge17_Node000005_Node000017" class="edge">
<title>Node5&#45;&gt;Node17</title>
<g id="a_edge17_Node000005_Node000017"><a xlink:title=" ">
<path fill="none" stroke="#63b8ff" d="M521.3,-227.47C548.16,-218.87 587.78,-206.9 623,-199 633.98,-196.54 645.6,-194.27 657.12,-192.24"/>
<polygon fill="#63b8ff" stroke="#63b8ff" points="657.92,-195.65 667.19,-190.5 656.74,-188.75 657.92,-195.65"/>
</a>
</g>
</g>
<!-- Node18 -->
<g id="Node000018" class="node">
<title>Node18</title>
<g id="a_Node000018"><a xlink:href="classShip.html#a4ef99106ff3d8b5e7149f15ff9317769" target="_top" xlink:title="주어진 ShipStat이 가산형(덧셈 방식) 스탯인지 여부를 반환합니다. 예: 쉴드 최대량, 산소 생성량 등은 단순 덧셈으로 누적됩니다.">
<polygon fill="white" stroke="#666666" points="838.5,-151.5 649.5,-151.5 649.5,-130.5 838.5,-130.5 838.5,-151.5"/>
<text text-anchor="middle" x="744" y="-137.9" font-family="Consolas" font-size="12.00">Ship.IsAdditiveStatType</text>
</a>
</g>
</g>
<!-- Node5&#45;&gt;Node18 -->
<g id="edge18_Node000005_Node000018" class="edge">
<title>Node5&#45;&gt;Node18</title>
<g id="a_edge18_Node000005_Node000018"><a xlink:title=" ">
<path fill="none" stroke="#63b8ff" d="M503.44,-227.46C526.81,-210.36 575.98,-176.79 623,-160 629.41,-157.71 636.1,-155.7 642.92,-153.93"/>
<polygon fill="#63b8ff" stroke="#63b8ff" points="644.06,-157.25 652.96,-151.5 642.42,-150.45 644.06,-157.25"/>
</a>
</g>
</g>
<!-- Node19 -->
<g id="Node000019" class="node">
<title>Node19</title>
<g id="a_Node000019"><a xlink:href="classShip.html#ae9a8351b5c780010ba90040c511976f6" target="_top" xlink:title="주어진 ShipStat이 배율형(곱셈 방식) 스탯인지 여부를 반환합니다. 예: 회피율 보너스 %, 데미지 증폭 % 등이 해당됩니다. 현재는 정의된 곱셈 스탯이 없습니다.">
<polygon fill="white" stroke="#666666" points="861,-112.5 627,-112.5 627,-91.5 861,-91.5 861,-112.5"/>
<text text-anchor="middle" x="744" y="-98.9" font-family="Consolas" font-size="12.00">Ship.IsMultiplicativeStatType</text>
</a>
</g>
</g>
<!-- Node5&#45;&gt;Node19 -->
<g id="edge19_Node000005_Node000019" class="edge">
<title>Node5&#45;&gt;Node19</title>
<g id="a_edge19_Node000005_Node000019"><a xlink:title=" ">
<path fill="none" stroke="#63b8ff" d="M497.86,-227.41C517.1,-203.86 567.19,-147.16 623,-121 627.14,-119.06 631.44,-117.31 635.84,-115.74"/>
<polygon fill="#63b8ff" stroke="#63b8ff" points="637.19,-118.98 645.62,-112.56 635.03,-112.32 637.19,-118.98"/>
</a>
</g>
</g>
<!-- Node20 -->
<g id="Node000020" class="node">
<title>Node20</title>
<g id="a_Node000020"><a xlink:href="classShip.html#ad8f70687934e3a804bf86e704ca18150" target="_top" xlink:title="현재 함선의 스탯과 룸별 스탯 기여도를 콘솔에 출력합니다. 디버깅 모드가 활성화된 경우에만 호출되며, 전체 스탯 상태를 확인할 수 있습니다.">
<polygon fill="white" stroke="#666666" points="838.5,-73.5 649.5,-73.5 649.5,-52.5 838.5,-52.5 838.5,-73.5"/>
<text text-anchor="middle" x="744" y="-59.9" font-family="Consolas" font-size="12.00">Ship.PrintDebugStatInfo</text>
</a>
</g>
</g>
<!-- Node5&#45;&gt;Node20 -->
<g id="edge20_Node000005_Node000020" class="edge">
<title>Node5&#45;&gt;Node20</title>
<g id="a_edge20_Node000005_Node000020"><a xlink:title=" ">
<path fill="none" stroke="#63b8ff" d="M495,-227.42C510.6,-198.56 558.29,-118.2 623,-82 628.25,-79.06 633.82,-76.55 639.57,-74.39"/>
<polygon fill="#63b8ff" stroke="#63b8ff" points="641.02,-77.59 649.39,-71.09 638.8,-70.96 641.02,-77.59"/>
</a>
</g>
</g>
<!-- Node21 -->
<g id="Node000021" class="node">
<title>Node21</title>
<g id="a_Node000021"><a xlink:href="classMoraleManager.html#af1cb805b49d259cc84441559dd0bb1c6" target="_top" xlink:title="전체 선원 사기 한 번에 할당">
<polygon fill="white" stroke="#666666" points="842.5,-34 645.5,-34 645.5,0 842.5,0 842.5,-34"/>
<text text-anchor="start" x="653.5" y="-20.4" font-family="Consolas" font-size="12.00">MoraleManager.SetAllCrew</text>
<text text-anchor="middle" x="744" y="-7.4" font-family="Consolas" font-size="12.00">Morale</text>
</a>
</g>
</g>
<!-- Node5&#45;&gt;Node21 -->
<g id="edge21_Node000005_Node000021" class="edge">
<title>Node5&#45;&gt;Node21</title>
<g id="a_edge21_Node000005_Node000021"><a xlink:title=" ">
<path fill="none" stroke="#63b8ff" d="M493.4,-227.47C506.22,-194.37 550.48,-91.76 623,-43 627.1,-40.25 631.43,-37.78 635.93,-35.56"/>
<polygon fill="#63b8ff" stroke="#63b8ff" points="637.66,-38.63 645.38,-31.37 634.82,-32.23 637.66,-38.63"/>
</a>
</g>
</g>
<!-- Node7 -->
<g id="Node000007" class="node">
<title>Node7</title>
<g id="a_Node000007"><a xlink:href="classShip.html#a8ced30f0d71c2a5cf333b3de23af48f2" target="_top" xlink:title="모든 룸 정보를 반환합니다.">
<polygon fill="white" stroke="#666666" points="1079,-395.5 942,-395.5 942,-374.5 1079,-374.5 1079,-395.5"/>
<text text-anchor="middle" x="1010.5" y="-381.9" font-family="Consolas" font-size="12.00">Ship.GetAllRooms</text>
</a>
</g>
</g>
<!-- Node6&#45;&gt;Node7 -->
<g id="edge6_Node000006_Node000007" class="edge">
<title>Node6&#45;&gt;Node7</title>
<g id="a_edge6_Node000006_Node000007"><a xlink:title=" ">
<path fill="none" stroke="#63b8ff" d="M857.56,-383.28C882.54,-383.56 908.49,-383.85 931.72,-384.12"/>
<polygon fill="#63b8ff" stroke="#63b8ff" points="931.8,-387.62 941.84,-384.23 931.88,-380.62 931.8,-387.62"/>
</a>
</g>
</g>
<!-- Node8 -->
<g id="Node000008" class="node">
<title>Node8</title>
<g id="a_Node000008"><a xlink:href="classShip.html#a89be268214921c4585f6b70038b98c8e" target="_top" xlink:title="현재 탑승 중인 크루 수를 반환합니다.">
<polygon fill="white" stroke="#666666" points="1082.5,-356.5 938.5,-356.5 938.5,-335.5 1082.5,-335.5 1082.5,-356.5"/>
<text text-anchor="middle" x="1010.5" y="-342.9" font-family="Consolas" font-size="12.00">Ship.GetCrewCount</text>
</a>
</g>
</g>
<!-- Node6&#45;&gt;Node8 -->
<g id="edge7_Node000006_Node000008" class="edge">
<title>Node6&#45;&gt;Node8</title>
<g id="a_edge7_Node000006_Node000008"><a xlink:title=" ">
<path fill="none" stroke="#63b8ff" d="M857.56,-366.68C881.33,-363.44 905.98,-360.09 928.32,-357.05"/>
<polygon fill="#63b8ff" stroke="#63b8ff" points="928.98,-360.49 938.42,-355.67 928.04,-353.56 928.98,-360.49"/>
</a>
</g>
</g>
<!-- Node9 -->
<g id="Node000009" class="node">
<title>Node9</title>
<g id="a_Node000009"><a xlink:href="classCrewSystem.html#ae270e71cdbafb68eb26d6f031758b1f5" target="_top" xlink:title="현재 탑승 중인 크루의 수를 반환합니다.">
<polygon fill="white" stroke="#666666" points="1345,-356.5 1156,-356.5 1156,-335.5 1345,-335.5 1345,-356.5"/>
<text text-anchor="middle" x="1250.5" y="-342.9" font-family="Consolas" font-size="12.00">CrewSystem.GetCrewCount</text>
</a>
</g>
</g>
<!-- Node8&#45;&gt;Node9 -->
<g id="edge8_Node000008_Node000009" class="edge">
<title>Node8&#45;&gt;Node9</title>
<g id="a_edge8_Node000008_Node000009"><a xlink:title=" ">
<path fill="none" stroke="#63b8ff" d="M1082.59,-346C1102.45,-346 1124.46,-346 1145.79,-346"/>
<polygon fill="#63b8ff" stroke="#63b8ff" points="1145.87,-349.5 1155.87,-346 1145.87,-342.5 1145.87,-349.5"/>
</a>
</g>
</g>
<!-- Node13 -->
<g id="Node000013" class="node">
<title>Node13</title>
<g id="a_Node000013"><a xlink:href="classOuterHullSystem.html#ab352abfc02989177392c3b60dd28ddc3" target="_top" xlink:title="외부 선체 시스템의 현재 레벨을 반환합니다.">
<polygon fill="white" stroke="#666666" points="1109,-275 912,-275 912,-241 1109,-241 1109,-275"/>
<text text-anchor="start" x="920" y="-261.4" font-family="Consolas" font-size="12.00">OuterHullSystem.GetOuter</text>
<text text-anchor="middle" x="1010.5" y="-248.4" font-family="Consolas" font-size="12.00">HullLevel</text>
</a>
</g>
</g>
<!-- Node12&#45;&gt;Node13 -->
<g id="edge12_Node000012_Node000013" class="edge">
<title>Node12&#45;&gt;Node13</title>
<g id="a_edge12_Node000012_Node000013"><a xlink:title=" ">
<path fill="none" stroke="#63b8ff" d="M835.29,-258C856.7,-258 879.75,-258 901.85,-258"/>
<polygon fill="#63b8ff" stroke="#63b8ff" points="901.93,-261.5 911.93,-258 901.93,-254.5 901.93,-261.5"/>
</a>
</g>
</g>
<!-- Node15&#45;&gt;Node3 -->
<g id="edge15_Node000015_Node000003" class="edge">
<title>Node15&#45;&gt;Node3</title>
<g id="a_edge15_Node000015_Node000003"><a xlink:title=" ">
<path fill="none" stroke="#63b8ff" d="M816.23,-438.5C850.77,-443.6 892.43,-449.74 928.22,-455.02"/>
<polygon fill="#63b8ff" stroke="#63b8ff" points="927.74,-458.48 938.14,-456.48 928.76,-451.56 927.74,-458.48"/>
</a>
</g>
</g>
<!-- Node16 -->
<g id="Node000016" class="node">
<title>Node16</title>
<g id="a_Node000016"><a xlink:href="classRoom.html#af15fefedd48a2009da56d461a9084ed8" target="_top" xlink:title="방이 작동 가능한 상태인지 확인합니다.">
<polygon fill="white" stroke="#666666" points="1086.5,-438.5 934.5,-438.5 934.5,-417.5 1086.5,-417.5 1086.5,-438.5"/>
<text text-anchor="middle" x="1010.5" y="-424.9" font-family="Consolas" font-size="12.00">Room.IsOperational</text>
</a>
</g>
</g>
<!-- Node15&#45;&gt;Node16 -->
<g id="edge16_Node000015_Node000016" class="edge">
<title>Node15&#45;&gt;Node16</title>
<g id="a_edge16_Node000015_Node000016"><a xlink:title=" ">
<path fill="none" stroke="#63b8ff" d="M846.13,-428C871.89,-428 899.33,-428 924.21,-428"/>
<polygon fill="#63b8ff" stroke="#63b8ff" points="924.34,-431.5 934.34,-428 924.34,-424.5 924.34,-431.5"/>
</a>
</g>
</g>
</g>
</svg>
