<?xml version="1.0" encoding="UTF-8" standalone="no"?>
<!DOCTYPE svg PUBLIC "-//W3C//DTD SVG 1.1//EN"
 "http://www.w3.org/Graphics/SVG/1.1/DTD/svg11.dtd">
<!-- Generated by graphviz version 2.43.0 (0)
 -->
<!-- Title: EndingInfoDisplay Pages: 1 -->
<!--zoomable 1170 -->

<svg id="main" version="1.1" xmlns="http://www.w3.org/2000/svg" xmlns:xlink="http://www.w3.org/1999/xlink" xml:space="preserve" onload="init(evt)">
<style type="text/css"><![CDATA[
.node, .edge {opacity: 0.7;}
.node.selected, .edge.selected {opacity: 1;}
.edge:hover path { stroke: red; }
.edge:hover polygon { stroke: red; fill: red; }
]]></style>

<defs>
  <circle id="rim" cx="0" cy="0" r="7"/>
  <circle id="rim2" cx="0" cy="0" r="3.5"/>
  <g id="zoomPlus">
    <use xlink:href="#rim" fill="#404040"><set attributeName="fill" to="#808080" begin="zoomplus.mouseover" end="zoomplus.mouseout"/></use>
    <path d="M-4,0h8M0,-4v8" fill="none" stroke="white" stroke-width="1.5" pointer-events="none"/>
  </g>
  <g id="zoomMin">
    <use xlink:href="#rim" fill="#404040"><set attributeName="fill" to="#808080" begin="zoomminus.mouseover" end="zoomminus.mouseout"/></use>
    <path d="M-4,0h8" fill="none" stroke="white" stroke-width="1.5" pointer-events="none"/>
  </g>
  <g id="arrowUp" transform="translate(30 24)">
    <use xlink:href="#rim"/>
    <path pointer-events="none" fill="none" stroke="white" stroke-width="1.5" d="M0,-3.0v7 M-2.5,-0.5L0,-3.0L2.5,-0.5"/>
  </g>
  <g id="arrowRight" transform="rotate(90) translate(36 -43)">
    <use xlink:href="#rim"/>
    <path pointer-events="none" fill="none" stroke="white" stroke-width="1.5" d="M0,-3.0v7 M-2.5,-0.5L0,-3.0L2.5,-0.5"/>
  </g>
  <g id="arrowDown" transform="rotate(180) translate(-30 -48)">
    <use xlink:href="#rim"/>
    <path pointer-events="none" fill="none" stroke="white" stroke-width="1.5" d="M0,-3.0v7 M-2.5,-0.5L0,-3.0L2.5,-0.5"/>
  </g>
  <g id="arrowLeft" transform="rotate(270) translate(-36 17)">
    <use xlink:href="#rim"/>
    <path pointer-events="none" fill="none" stroke="white" stroke-width="1.5" d="M0,-3.0v7 M-2.5,-0.5L0,-3.0L2.5,-0.5"/>
  </g>
  <g id="resetDef">
    <use xlink:href="#rim2" fill="#404040"><set attributeName="fill" to="#808080" begin="reset.mouseover" end="reset.mouseout"/></use>
  </g>
</defs>
<script type="application/ecmascript">
var viewWidth = 430;
var viewHeight = 1170;
var sectionId = 'dynsection-1';
</script>
<script type="application/ecmascript" xlink:href="svg.min.js"/>
<svg id="graph" class="graph">
<g id="viewport">
<title>EndingInfoDisplay</title>
<!-- Node1 -->
<g id="Node000001" class="node">
<title>Node1</title>
<g id="a_Node000001"><a xlink:title="엔딩 씬에서 플레이 정보를 화면에 출력하는 클래스.">
<polygon fill="#999999" stroke="transparent" points="253,-306 0,-306 0,0 253,0 253,-306"/>
<text text-anchor="start" x="63" y="-292.4" font-family="Consolas" font-size="12.00">EndingInfoDisplay</text>
<text text-anchor="start" x="4.5" y="-275.4" font-family="Consolas" font-size="12.00">&#45;</text>
<text text-anchor="start" x="16.5" y="-275.4" font-family="Consolas" font-size="12.00">GameObject firstEndingCanvas</text>
<text text-anchor="start" x="4.5" y="-258.4" font-family="Consolas" font-size="12.00">&#45;</text>
<text text-anchor="start" x="16.5" y="-258.4" font-family="Consolas" font-size="12.00">GameObject secondEndingCanvas</text>
<text text-anchor="start" x="4.5" y="-241.4" font-family="Consolas" font-size="12.00">&#45;</text>
<text text-anchor="start" x="16.5" y="-241.4" font-family="Consolas" font-size="12.00">TextMeshProUGUI endingText</text>
<text text-anchor="start" x="4.5" y="-224.4" font-family="Consolas" font-size="12.00">&#45;</text>
<text text-anchor="start" x="16.5" y="-224.4" font-family="Consolas" font-size="12.00">float lineDelay</text>
<text text-anchor="start" x="4.5" y="-207.4" font-family="Consolas" font-size="12.00">&#45;</text>
<text text-anchor="start" x="16.5" y="-207.4" font-family="Consolas" font-size="12.00">float charDelay</text>
<text text-anchor="start" x="4.5" y="-190.4" font-family="Consolas" font-size="12.00">&#45;</text>
<text text-anchor="start" x="16.5" y="-190.4" font-family="Consolas" font-size="12.00">GameObject noTouchPanel</text>
<text text-anchor="start" x="4.5" y="-173.4" font-family="Consolas" font-size="12.00">&#45;</text>
<text text-anchor="start" x="16.5" y="-173.4" font-family="Consolas" font-size="12.00">bool isFinished</text>
<text text-anchor="start" x="4.5" y="-156.4" font-family="Consolas" font-size="12.00">&#45;</text>
<text text-anchor="start" x="16.5" y="-156.4" font-family="Consolas" font-size="12.00">bool hasSceneSwitched</text>
<text text-anchor="start" x="4.5" y="-139.4" font-family="Consolas" font-size="12.00">&#45;</text>
<text text-anchor="start" x="16.5" y="-139.4" font-family="Consolas" font-size="12.00">float lastClickTime</text>
<text text-anchor="start" x="4.5" y="-122.4" font-family="Consolas" font-size="12.00">&#45;</text>
<text text-anchor="start" x="16.5" y="-122.4" font-family="Consolas" font-size="12.00">float doubleClickThreshold</text>
<text text-anchor="start" x="4.5" y="-105.4" font-family="Consolas" font-size="12.00">&#45;</text>
<text text-anchor="start" x="16.5" y="-105.4" font-family="Consolas" font-size="12.00">void Start()</text>
<text text-anchor="start" x="4.5" y="-88.4" font-family="Consolas" font-size="12.00">&#45;</text>
<text text-anchor="start" x="16.5" y="-88.4" font-family="Consolas" font-size="12.00">void Update()</text>
<text text-anchor="start" x="4.5" y="-71.4" font-family="Consolas" font-size="12.00">&#45;</text>
<text text-anchor="start" x="16.5" y="-71.4" font-family="Consolas" font-size="12.00">IEnumerator ShowPlayerSummary()</text>
<text text-anchor="start" x="4.5" y="-54.4" font-family="Consolas" font-size="12.00">&#45;</text>
<text text-anchor="start" x="16.5" y="-54.4" font-family="Consolas" font-size="12.00">IEnumerator TypeLine</text>
<text text-anchor="start" x="16.5" y="-41.4" font-family="Consolas" font-size="12.00">(string line)</text>
<text text-anchor="start" x="4.5" y="-24.4" font-family="Consolas" font-size="12.00">&#45;</text>
<text text-anchor="start" x="16.5" y="-24.4" font-family="Consolas" font-size="12.00">void GoToNextScene()</text>
<text text-anchor="start" x="4.5" y="-7.4" font-family="Consolas" font-size="12.00">&#45;</text>
<text text-anchor="start" x="16.5" y="-7.4" font-family="Consolas" font-size="12.00">void SwitchCanvas()</text>
<polygon fill="#666666" stroke="#666666" points="0.5,-287 0.5,-287 253.5,-287 253.5,-287 0.5,-287"/>
<polygon fill="#666666" stroke="#666666" points="0.5,-117 0.5,-117 14.5,-117 14.5,-117 0.5,-117"/>
<polygon fill="#666666" stroke="#666666" points="14.5,-117 14.5,-117 253.5,-117 253.5,-117 14.5,-117"/>
<polygon fill="none" stroke="#666666" points="0,0 0,-306 253,-306 253,0 0,0"/>
</a>
</g>
</g>
<!-- Node2 -->
<g id="Node000002" class="node">
<title>Node2</title>
<g id="a_Node000002"><a xlink:title=" ">
<polygon fill="white" stroke="transparent" points="176.5,-1162 68.5,-1162 68.5,-1107 176.5,-1107 176.5,-1162"/>
<text text-anchor="start" x="73.5" y="-1147.9" font-family="Consolas" font-size="12.00">MonoBehaviour</text>
<text text-anchor="start" x="118.5" y="-1130.9" font-family="Consolas" font-size="12.00"> </text>
<text text-anchor="start" x="118.5" y="-1113.9" font-family="Consolas" font-size="12.00"> </text>
<polygon fill="#bfbfbf" stroke="#bfbfbf" points="68.5,-1142.5 68.5,-1142.5 176.5,-1142.5 176.5,-1142.5 68.5,-1142.5"/>
<polygon fill="#bfbfbf" stroke="#bfbfbf" points="68.5,-1125.5 68.5,-1125.5 176.5,-1125.5 176.5,-1125.5 68.5,-1125.5"/>
<polygon fill="none" stroke="#bfbfbf" points="68.5,-1107 68.5,-1162 176.5,-1162 176.5,-1107 68.5,-1107"/>
</a>
</g>
</g>
<!-- Node2&#45;&gt;Node1 -->
<g id="edge1_Node000001_Node000002" class="edge">
<title>Node2&#45;&gt;Node1</title>
<g id="a_edge1_Node000001_Node000002"><a xlink:title=" ">
<path fill="none" stroke="#63b8ff" d="M122.65,-1096.73C123.17,-968.84 124.93,-538.54 125.88,-306.07"/>
<polygon fill="none" stroke="#63b8ff" points="119.15,-1096.78 122.61,-1106.79 126.15,-1096.81 119.15,-1096.78"/>
</a>
</g>
</g>
<!-- Node3 -->
<g id="Node000003" class="node">
<title>Node3</title>
<g id="a_Node000003"><a xlink:href="classEndingResultDisplay.html" target="_top" xlink:title="엔딩 평가 항목 4개를 등급 이름 + 설명 + 스프라이트로 출력하는 클래스. Sprite 리스트는 인덱스 0 = 최하, 5 = 최상 으로 정렬되어 있어야 함.">
<polygon fill="white" stroke="transparent" points="422,-1070 139,-1070 139,-357 422,-357 422,-1070"/>
<text text-anchor="start" x="209.5" y="-1055.9" font-family="Consolas" font-size="12.00">EndingResultDisplay</text>
<text text-anchor="start" x="143.5" y="-1038.9" font-family="Consolas" font-size="12.00">&#45;</text>
<text text-anchor="start" x="155.5" y="-1038.9" font-family="Consolas" font-size="12.00">Image endingImage1</text>
<text text-anchor="start" x="143.5" y="-1021.9" font-family="Consolas" font-size="12.00">&#45;</text>
<text text-anchor="start" x="155.5" y="-1021.9" font-family="Consolas" font-size="12.00">Image endingImage2</text>
<text text-anchor="start" x="143.5" y="-1004.9" font-family="Consolas" font-size="12.00">&#45;</text>
<text text-anchor="start" x="155.5" y="-1004.9" font-family="Consolas" font-size="12.00">Image endingImage3</text>
<text text-anchor="start" x="143.5" y="-987.9" font-family="Consolas" font-size="12.00">&#45;</text>
<text text-anchor="start" x="155.5" y="-987.9" font-family="Consolas" font-size="12.00">Image endingImage4</text>
<text text-anchor="start" x="143.5" y="-970.9" font-family="Consolas" font-size="12.00">&#45;</text>
<text text-anchor="start" x="155.5" y="-970.9" font-family="Consolas" font-size="12.00">TextMeshProUGUI endingText1</text>
<text text-anchor="start" x="143.5" y="-953.9" font-family="Consolas" font-size="12.00">&#45;</text>
<text text-anchor="start" x="155.5" y="-953.9" font-family="Consolas" font-size="12.00">TextMeshProUGUI endingText2</text>
<text text-anchor="start" x="143.5" y="-936.9" font-family="Consolas" font-size="12.00">&#45;</text>
<text text-anchor="start" x="155.5" y="-936.9" font-family="Consolas" font-size="12.00">TextMeshProUGUI endingText3</text>
<text text-anchor="start" x="143.5" y="-919.9" font-family="Consolas" font-size="12.00">&#45;</text>
<text text-anchor="start" x="155.5" y="-919.9" font-family="Consolas" font-size="12.00">TextMeshProUGUI endingText4</text>
<text text-anchor="start" x="143.5" y="-902.9" font-family="Consolas" font-size="12.00">&#45;</text>
<text text-anchor="start" x="155.5" y="-902.9" font-family="Consolas" font-size="12.00">List&lt; Sprite &gt; comaRankSprites</text>
<text text-anchor="start" x="143.5" y="-885.9" font-family="Consolas" font-size="12.00">&#45;</text>
<text text-anchor="start" x="155.5" y="-885.9" font-family="Consolas" font-size="12.00">List&lt; Sprite &gt; pirateRank</text>
<text text-anchor="start" x="155.5" y="-872.9" font-family="Consolas" font-size="12.00">Sprites</text>
<text text-anchor="start" x="143.5" y="-855.9" font-family="Consolas" font-size="12.00">&#45;</text>
<text text-anchor="start" x="155.5" y="-855.9" font-family="Consolas" font-size="12.00">List&lt; Sprite &gt; questRank</text>
<text text-anchor="start" x="155.5" y="-842.9" font-family="Consolas" font-size="12.00">Sprites</text>
<text text-anchor="start" x="143.5" y="-825.9" font-family="Consolas" font-size="12.00">&#45;</text>
<text text-anchor="start" x="155.5" y="-825.9" font-family="Consolas" font-size="12.00">List&lt; Sprite &gt; mysteryRank</text>
<text text-anchor="start" x="155.5" y="-812.9" font-family="Consolas" font-size="12.00">Sprites</text>
<text text-anchor="start" x="143.5" y="-795.9" font-family="Consolas" font-size="12.00">&#45;</text>
<text text-anchor="start" x="155.5" y="-795.9" font-family="Consolas" font-size="12.00">GameObject noTouchPanel</text>
<text text-anchor="start" x="143.5" y="-778.9" font-family="Consolas" font-size="12.00">&#45;</text>
<text text-anchor="start" x="155.5" y="-778.9" font-family="Consolas" font-size="12.00">bool canClickToFinish</text>
<text text-anchor="start" x="143.5" y="-761.9" font-family="Consolas" font-size="12.00">&#45;</text>
<text text-anchor="start" x="155.5" y="-761.9" font-family="Consolas" font-size="12.00">readonly string[] comaDescriptions</text>
<text text-anchor="start" x="143.5" y="-744.9" font-family="Consolas" font-size="12.00">&#45;</text>
<text text-anchor="start" x="155.5" y="-744.9" font-family="Consolas" font-size="12.00">readonly string[] pirate</text>
<text text-anchor="start" x="155.5" y="-731.9" font-family="Consolas" font-size="12.00">Descriptions</text>
<text text-anchor="start" x="143.5" y="-714.9" font-family="Consolas" font-size="12.00">&#45;</text>
<text text-anchor="start" x="155.5" y="-714.9" font-family="Consolas" font-size="12.00">readonly string[] questDescriptions</text>
<text text-anchor="start" x="143.5" y="-697.9" font-family="Consolas" font-size="12.00">&#45;</text>
<text text-anchor="start" x="155.5" y="-697.9" font-family="Consolas" font-size="12.00">readonly string[] mystery</text>
<text text-anchor="start" x="155.5" y="-684.9" font-family="Consolas" font-size="12.00">Descriptions</text>
<text text-anchor="start" x="143.5" y="-667.9" font-family="Consolas" font-size="12.00">+</text>
<text text-anchor="start" x="155.5" y="-667.9" font-family="Consolas" font-size="12.00">void ShowEndingResult()</text>
<text text-anchor="start" x="143.5" y="-650.9" font-family="Consolas" font-size="12.00">&#45;</text>
<text text-anchor="start" x="155.5" y="-650.9" font-family="Consolas" font-size="12.00">IEnumerator AllowClickAfter</text>
<text text-anchor="start" x="155.5" y="-637.9" font-family="Consolas" font-size="12.00">Seconds(float seconds)</text>
<text text-anchor="start" x="143.5" y="-620.9" font-family="Consolas" font-size="12.00">&#45;</text>
<text text-anchor="start" x="155.5" y="-620.9" font-family="Consolas" font-size="12.00">void Update()</text>
<text text-anchor="start" x="143.5" y="-603.9" font-family="Consolas" font-size="12.00">&#45;</text>
<text text-anchor="start" x="155.5" y="-603.9" font-family="Consolas" font-size="12.00">void DisplayResults()</text>
<text text-anchor="start" x="143.5" y="-586.9" font-family="Consolas" font-size="12.00">&#45;</text>
<text text-anchor="start" x="155.5" y="-586.9" font-family="Consolas" font-size="12.00">int GetCOMARankIndex</text>
<text text-anchor="start" x="155.5" y="-573.9" font-family="Consolas" font-size="12.00">(int amount)</text>
<text text-anchor="start" x="143.5" y="-556.9" font-family="Consolas" font-size="12.00">&#45;</text>
<text text-anchor="start" x="155.5" y="-556.9" font-family="Consolas" font-size="12.00">int GetPirateRankIndex</text>
<text text-anchor="start" x="155.5" y="-543.9" font-family="Consolas" font-size="12.00">(int count)</text>
<text text-anchor="start" x="143.5" y="-526.9" font-family="Consolas" font-size="12.00">&#45;</text>
<text text-anchor="start" x="155.5" y="-526.9" font-family="Consolas" font-size="12.00">int GetQuestRankIndex</text>
<text text-anchor="start" x="155.5" y="-513.9" font-family="Consolas" font-size="12.00">(int count)</text>
<text text-anchor="start" x="143.5" y="-496.9" font-family="Consolas" font-size="12.00">&#45;</text>
<text text-anchor="start" x="155.5" y="-496.9" font-family="Consolas" font-size="12.00">int GetMysteryRankIndex</text>
<text text-anchor="start" x="155.5" y="-483.9" font-family="Consolas" font-size="12.00">(int count)</text>
<text text-anchor="start" x="143.5" y="-466.9" font-family="Consolas" font-size="12.00">&#45;</text>
<text text-anchor="start" x="155.5" y="-466.9" font-family="Consolas" font-size="12.00">string GetCOMARankName</text>
<text text-anchor="start" x="155.5" y="-453.9" font-family="Consolas" font-size="12.00">(int index)</text>
<text text-anchor="start" x="143.5" y="-436.9" font-family="Consolas" font-size="12.00">&#45;</text>
<text text-anchor="start" x="155.5" y="-436.9" font-family="Consolas" font-size="12.00">string GetPirateRankName</text>
<text text-anchor="start" x="155.5" y="-423.9" font-family="Consolas" font-size="12.00">(int index)</text>
<text text-anchor="start" x="143.5" y="-406.9" font-family="Consolas" font-size="12.00">&#45;</text>
<text text-anchor="start" x="155.5" y="-406.9" font-family="Consolas" font-size="12.00">string GetQuestRankName</text>
<text text-anchor="start" x="155.5" y="-393.9" font-family="Consolas" font-size="12.00">(int index)</text>
<text text-anchor="start" x="143.5" y="-376.9" font-family="Consolas" font-size="12.00">&#45;</text>
<text text-anchor="start" x="155.5" y="-376.9" font-family="Consolas" font-size="12.00">string GetMysteryRankName</text>
<text text-anchor="start" x="155.5" y="-363.9" font-family="Consolas" font-size="12.00">(int index)</text>
<polygon fill="#666666" stroke="#666666" points="139.5,-1050.5 139.5,-1050.5 422.5,-1050.5 422.5,-1050.5 139.5,-1050.5"/>
<polygon fill="#666666" stroke="#666666" points="139.5,-679.5 139.5,-679.5 153.5,-679.5 153.5,-679.5 139.5,-679.5"/>
<polygon fill="#666666" stroke="#666666" points="153.5,-679.5 153.5,-679.5 422.5,-679.5 422.5,-679.5 153.5,-679.5"/>
<polygon fill="none" stroke="#666666" points="139,-357 139,-1070 422,-1070 422,-357 139,-357"/>
</a>
</g>
</g>
<!-- Node2&#45;&gt;Node3 -->
<g id="edge3_Node000003_Node000002" class="edge">
<title>Node2&#45;&gt;Node3</title>
<g id="a_edge3_Node000003_Node000002"><a xlink:title=" ">
<path fill="none" stroke="#63b8ff" d="M136.09,-1097.45C139.11,-1089.45 142.55,-1080.33 146.32,-1070.33"/>
<polygon fill="none" stroke="#63b8ff" points="132.76,-1096.38 132.5,-1106.97 139.31,-1098.85 132.76,-1096.38"/>
</a>
</g>
</g>
<!-- Node3&#45;&gt;Node1 -->
<g id="edge2_Node000001_Node000003" class="edge">
<title>Node3&#45;&gt;Node1</title>
<g id="a_edge2_Node000001_Node000003"><a xlink:title=" ">
<path fill="none" stroke="#63b8ff" d="M182.42,-356.82C178.79,-343.63 175.22,-330.69 171.76,-318.13"/>
<polygon fill="none" stroke="#63b8ff" points="171.66,-317.78 166.21,-313.05 168.47,-306.21 173.92,-310.93 171.66,-317.78"/>
</a>
</g>
<text text-anchor="middle" x="262.5" y="-327.8" font-family="Consolas" font-size="14.00" fill="grey"> &#45;endingResultDisplay</text>
</g>
</g>
</svg>

<g id="navigator" transform="translate(0 0)" fill="#404254">
  <rect fill="#f2f5e9" fill-opacity="0.5" stroke="#606060" stroke-width=".5" x="0" y="0" width="60" height="60"/>
  <use id="zoomplus" xlink:href="#zoomPlus" x="17" y="9" onmousedown="handleZoom(evt,'in')"/>
  <use id="zoomminus" xlink:href="#zoomMin" x="42" y="9" onmousedown="handleZoom(evt,'out')"/>
  <use id="reset" xlink:href="#resetDef" x="30" y="36" onmousedown="handleReset()"/>
   <use id="arrowup" xlink:href="#arrowUp" x="0" y="0" onmousedown="handlePan(0,-1)"/>
  <use id="arrowright" xlink:href="#arrowRight" x="0" y="0" onmousedown="handlePan(1,0)"/>
  <use id="arrowdown" xlink:href="#arrowDown" x="0" y="0" onmousedown="handlePan(0,1)"/>
  <use id="arrowleft" xlink:href="#arrowLeft" x="0" y="0" onmousedown="handlePan(-1,0)"/>
</g>
<svg viewBox="0 0 15 15" width="100%" height="30px" preserveAspectRatio="xMaxYMin meet">
 <g id="arrow_out" transform="scale(0.3 0.3)">
  <a xlink:href="classEndingInfoDisplay__coll__graph_org.svg" target="_base">
   <rect id="button" ry="5" rx="5" y="6" x="6" height="38" width="38"
        fill="#f2f5e9" fill-opacity="0.5" stroke="#606060" stroke-width="1.0"/>
   <path id="arrow"
     d="M 11.500037,31.436501 C 11.940474,20.09759 22.043105,11.32322 32.158766,21.979434 L 37.068811,17.246167 C 37.068811,17.246167 37.088388,32 37.088388,32 L 22.160133,31.978069 C 22.160133,31.978069 26.997745,27.140456 26.997745,27.140456 C 18.528582,18.264221 13.291696,25.230495 11.500037,31.436501 z"
     style="fill:#404040;"/>
  </a>
 </g>
</svg>

<style type='text/css'>
<![CDATA[
[data-mouse-over-selected='false'] { opacity: 0.7; }
[data-mouse-over-selected='true']  { opacity: 1.0; }
]]>
</style>
<script type="application/ecmascript"><![CDATA[
document.addEventListener('DOMContentLoaded', (event) => {
  highlightEdges();
  highlightAdjacentNodes();
});
]]></script>
</svg>
