<?xml version="1.0" encoding="UTF-8" standalone="no"?>
<!DOCTYPE svg PUBLIC "-//W3C//DTD SVG 1.1//EN"
 "http://www.w3.org/Graphics/SVG/1.1/DTD/svg11.dtd">
<!-- Generated by graphviz version 2.43.0 (0)
 -->
<!-- Title: OxygenRoomData Pages: 1 -->
<svg width="524pt" height="1117pt"
 viewBox="0.00 0.00 524.00 1117.00" xmlns="http://www.w3.org/2000/svg" xmlns:xlink="http://www.w3.org/1999/xlink">
<g id="graph0" class="graph" transform="scale(1 1) rotate(0) translate(4 1113)">
<title>OxygenRoomData</title>
<!-- Node1 -->
<g id="Node000001" class="node">
<title>Node1</title>
<g id="a_Node000001"><a xlink:title="산소실의 레벨별 데이터를 저장하는 ScriptableObject. 레벨에 따라 산소 공급량과 전력 소비량 등이 달라집니다.">
<polygon fill="#999999" stroke="transparent" points="268.5,-68 67.5,-68 67.5,0 268.5,0 268.5,-68"/>
<text text-anchor="start" x="115.5" y="-54.4" font-family="Consolas" font-size="12.00">OxygenRoomData</text>
<text text-anchor="start" x="164.5" y="-37.4" font-family="Consolas" font-size="12.00"> </text>
<text text-anchor="start" x="72" y="-20.4" font-family="Consolas" font-size="12.00">#</text>
<text text-anchor="start" x="84" y="-20.4" font-family="Consolas" font-size="12.00">override void Initialize</text>
<text text-anchor="start" x="84" y="-7.4" font-family="Consolas" font-size="12.00">DefaultLevels()</text>
<polygon fill="#666666" stroke="#666666" points="68,-49 68,-49 269,-49 269,-49 68,-49"/>
<polygon fill="#666666" stroke="#666666" points="68,-32 68,-32 269,-32 269,-32 68,-32"/>
<polygon fill="none" stroke="#666666" points="67.5,0 67.5,-68 268.5,-68 268.5,0 67.5,0"/>
</a>
</g>
</g>
<!-- Node2 -->
<g id="Node000002" class="node">
<title>Node2</title>
<g id="a_Node000002"><a xlink:href="classRoomData.html" target="_top" xlink:title=" ">
<polygon fill="white" stroke="transparent" points="336,-542 0,-542 0,-105 336,-105 336,-542"/>
<text text-anchor="start" x="74" y="-527.9" font-family="Consolas" font-size="12.00">RoomData&lt; OxygenRoomData.</text>
<text text-anchor="start" x="119" y="-514.9" font-family="Consolas" font-size="12.00">OxygenLevel &gt;</text>
<text text-anchor="start" x="4" y="-497.9" font-family="Consolas" font-size="12.00">+</text>
<text text-anchor="start" x="16" y="-497.9" font-family="Consolas" font-size="12.00">List&lt; T &gt; RoomLevels</text>
<text text-anchor="start" x="4" y="-480.9" font-family="Consolas" font-size="12.00">+</text>
<text text-anchor="start" x="16" y="-480.9" font-family="Consolas" font-size="12.00">List&lt; RoomLevel &gt; GetAll</text>
<text text-anchor="start" x="16" y="-467.9" font-family="Consolas" font-size="12.00">Levels()</text>
<text text-anchor="start" x="4" y="-450.9" font-family="Consolas" font-size="12.00">+</text>
<text text-anchor="start" x="16" y="-450.9" font-family="Consolas" font-size="12.00">override List&lt; RoomLevel</text>
<text text-anchor="start" x="16" y="-437.9" font-family="Consolas" font-size="12.00"> &gt; GetAllLevels()</text>
<text text-anchor="start" x="4" y="-420.9" font-family="Consolas" font-size="12.00">+</text>
<text text-anchor="start" x="16" y="-420.9" font-family="Consolas" font-size="12.00">RoomLevel GetRoomDataByLevel</text>
<text text-anchor="start" x="16" y="-407.9" font-family="Consolas" font-size="12.00">(int level)</text>
<text text-anchor="start" x="4" y="-390.9" font-family="Consolas" font-size="12.00">+</text>
<text text-anchor="start" x="16" y="-390.9" font-family="Consolas" font-size="12.00">override RoomLevel</text>
<text text-anchor="start" x="16" y="-377.9" font-family="Consolas" font-size="12.00"> GetRoomDataByLevel</text>
<text text-anchor="start" x="16" y="-364.9" font-family="Consolas" font-size="12.00">(int level)</text>
<text text-anchor="start" x="4" y="-347.9" font-family="Consolas" font-size="12.00">+</text>
<text text-anchor="start" x="16" y="-347.9" font-family="Consolas" font-size="12.00">RoomType GetRoomType()</text>
<text text-anchor="start" x="4" y="-330.9" font-family="Consolas" font-size="12.00">+</text>
<text text-anchor="start" x="16" y="-330.9" font-family="Consolas" font-size="12.00">List&lt; DoorPosition</text>
<text text-anchor="start" x="16" y="-317.9" font-family="Consolas" font-size="12.00"> &gt; GetDoorPositionsWithDirection</text>
<text text-anchor="start" x="16" y="-304.9" font-family="Consolas" font-size="12.00">(int levelIndex, Vector2Int</text>
<text text-anchor="start" x="16" y="-291.9" font-family="Consolas" font-size="12.00"> originalPos, Constants.Rotations.Rotation</text>
<text text-anchor="start" x="16" y="-278.9" font-family="Consolas" font-size="12.00"> rotation)</text>
<text text-anchor="start" x="4" y="-261.9" font-family="Consolas" font-size="12.00">+</text>
<text text-anchor="start" x="16" y="-261.9" font-family="Consolas" font-size="12.00">T GetTypedRoomData</text>
<text text-anchor="start" x="16" y="-248.9" font-family="Consolas" font-size="12.00">(int level)</text>
<text text-anchor="start" x="4" y="-231.9" font-family="Consolas" font-size="12.00">#</text>
<text text-anchor="start" x="16" y="-231.9" font-family="Consolas" font-size="12.00">void InitializeDefaultLevels()</text>
<text text-anchor="start" x="4" y="-214.9" font-family="Consolas" font-size="12.00">#</text>
<text text-anchor="start" x="16" y="-214.9" font-family="Consolas" font-size="12.00">virtual void OnEnable()</text>
<text text-anchor="start" x="4" y="-197.9" font-family="Consolas" font-size="12.00">#</text>
<text text-anchor="start" x="16" y="-197.9" font-family="Consolas" font-size="12.00">bool CheckIfNeedsInitialization()</text>
<text text-anchor="start" x="4" y="-180.9" font-family="Consolas" font-size="12.00">#</text>
<text text-anchor="start" x="16" y="-180.9" font-family="Consolas" font-size="12.00">override bool CheckIfNeeds</text>
<text text-anchor="start" x="16" y="-167.9" font-family="Consolas" font-size="12.00">Initialization()</text>
<text text-anchor="start" x="4" y="-150.9" font-family="Consolas" font-size="12.00">&#45;</text>
<text text-anchor="start" x="16" y="-150.9" font-family="Consolas" font-size="12.00">DoorDirection LocalDirTo</text>
<text text-anchor="start" x="16" y="-137.9" font-family="Consolas" font-size="12.00">WorldDir(DoorDirection</text>
<text text-anchor="start" x="16" y="-124.9" font-family="Consolas" font-size="12.00"> localDir, Constants.Rotations.</text>
<text text-anchor="start" x="16" y="-111.9" font-family="Consolas" font-size="12.00">Rotation rotation)</text>
<polygon fill="#666666" stroke="#666666" points="0,-509.5 0,-509.5 336,-509.5 336,-509.5 0,-509.5"/>
<polygon fill="#666666" stroke="#666666" points="0,-492.5 0,-492.5 14,-492.5 14,-492.5 0,-492.5"/>
<polygon fill="#666666" stroke="#666666" points="14,-492.5 14,-492.5 336,-492.5 336,-492.5 14,-492.5"/>
<polygon fill="none" stroke="#666666" points="0,-105 0,-542 336,-542 336,-105 0,-105"/>
</a>
</g>
</g>
<!-- Node2&#45;&gt;Node1 -->
<g id="edge1_Node000001_Node000002" class="edge">
<title>Node2&#45;&gt;Node1</title>
<g id="a_edge1_Node000001_Node000002"><a xlink:title=" ">
<path fill="none" stroke="#63b8ff" d="M168,-94.94C168,-85.16 168,-76.18 168,-68.31"/>
<polygon fill="none" stroke="#63b8ff" points="164.5,-94.96 168,-104.96 171.5,-94.96 164.5,-94.96"/>
</a>
</g>
</g>
<!-- Node3 -->
<g id="Node000003" class="node">
<title>Node3</title>
<g id="a_Node000003"><a xlink:title=" ">
<polygon fill="white" stroke="transparent" points="229.5,-1109 98.5,-1109 98.5,-1054 229.5,-1054 229.5,-1109"/>
<text text-anchor="start" x="104" y="-1094.9" font-family="Consolas" font-size="12.00">ScriptableObject</text>
<text text-anchor="start" x="160.5" y="-1077.9" font-family="Consolas" font-size="12.00"> </text>
<text text-anchor="start" x="160.5" y="-1060.9" font-family="Consolas" font-size="12.00"> </text>
<polygon fill="#bfbfbf" stroke="#bfbfbf" points="99,-1089.5 99,-1089.5 230,-1089.5 230,-1089.5 99,-1089.5"/>
<polygon fill="#bfbfbf" stroke="#bfbfbf" points="99,-1072.5 99,-1072.5 230,-1072.5 230,-1072.5 99,-1072.5"/>
<polygon fill="none" stroke="#bfbfbf" points="98.5,-1054 98.5,-1109 229.5,-1109 229.5,-1054 98.5,-1054"/>
</a>
</g>
</g>
<!-- Node3&#45;&gt;Node2 -->
<g id="edge2_Node000002_Node000003" class="edge">
<title>Node3&#45;&gt;Node2</title>
<g id="a_edge2_Node000002_Node000003"><a xlink:title=" ">
<path fill="none" stroke="#63b8ff" d="M164.2,-1043.38C164.67,-953.62 165.91,-719.2 166.85,-542.27"/>
<polygon fill="none" stroke="#63b8ff" points="160.7,-1043.58 164.14,-1053.59 167.7,-1043.61 160.7,-1043.58"/>
</a>
</g>
</g>
<!-- Node4 -->
<g id="Node000004" class="node">
<title>Node4</title>
<g id="a_Node000004"><a xlink:href="classRoomData.html" target="_top" xlink:title="모든 방 유형의 기본 데이터를 정의하는 추상 ScriptableObject. 방의 레벨별 속성, 체력, 크기, 요구 자원 등을 설정합니다.">
<polygon fill="white" stroke="transparent" points="516,-1017 180,-1017 180,-593 516,-593 516,-1017"/>
<text text-anchor="start" x="299" y="-1003.4" font-family="Consolas" font-size="12.00">RoomData&lt; T &gt;</text>
<text text-anchor="start" x="184" y="-986.4" font-family="Consolas" font-size="12.00">+</text>
<text text-anchor="start" x="196" y="-986.4" font-family="Consolas" font-size="12.00">List&lt; T &gt; RoomLevels</text>
<text text-anchor="start" x="184" y="-969.4" font-family="Consolas" font-size="12.00">+</text>
<text text-anchor="start" x="196" y="-969.4" font-family="Consolas" font-size="12.00">List&lt; RoomLevel &gt; GetAll</text>
<text text-anchor="start" x="196" y="-956.4" font-family="Consolas" font-size="12.00">Levels()</text>
<text text-anchor="start" x="184" y="-939.4" font-family="Consolas" font-size="12.00">+</text>
<text text-anchor="start" x="196" y="-939.4" font-family="Consolas" font-size="12.00">RoomLevel GetRoomDataByLevel</text>
<text text-anchor="start" x="196" y="-926.4" font-family="Consolas" font-size="12.00">(int level)</text>
<text text-anchor="start" x="184" y="-909.4" font-family="Consolas" font-size="12.00">+</text>
<text text-anchor="start" x="196" y="-909.4" font-family="Consolas" font-size="12.00">RoomType GetRoomType()</text>
<text text-anchor="start" x="184" y="-892.4" font-family="Consolas" font-size="12.00">+</text>
<text text-anchor="start" x="196" y="-892.4" font-family="Consolas" font-size="12.00">List&lt; DoorPosition</text>
<text text-anchor="start" x="196" y="-879.4" font-family="Consolas" font-size="12.00"> &gt; GetDoorPositionsWithDirection</text>
<text text-anchor="start" x="196" y="-866.4" font-family="Consolas" font-size="12.00">(int levelIndex, Vector2Int</text>
<text text-anchor="start" x="196" y="-853.4" font-family="Consolas" font-size="12.00"> originalPos, Constants.Rotations.Rotation</text>
<text text-anchor="start" x="196" y="-840.4" font-family="Consolas" font-size="12.00"> rotation)</text>
<text text-anchor="start" x="184" y="-823.4" font-family="Consolas" font-size="12.00">+</text>
<text text-anchor="start" x="196" y="-823.4" font-family="Consolas" font-size="12.00">override List&lt; RoomLevel</text>
<text text-anchor="start" x="196" y="-810.4" font-family="Consolas" font-size="12.00"> &gt; GetAllLevels()</text>
<text text-anchor="start" x="184" y="-793.4" font-family="Consolas" font-size="12.00">+</text>
<text text-anchor="start" x="196" y="-793.4" font-family="Consolas" font-size="12.00">override RoomLevel</text>
<text text-anchor="start" x="196" y="-780.4" font-family="Consolas" font-size="12.00"> GetRoomDataByLevel</text>
<text text-anchor="start" x="196" y="-767.4" font-family="Consolas" font-size="12.00">(int level)</text>
<text text-anchor="start" x="184" y="-750.4" font-family="Consolas" font-size="12.00">+</text>
<text text-anchor="start" x="196" y="-750.4" font-family="Consolas" font-size="12.00">T GetTypedRoomData</text>
<text text-anchor="start" x="196" y="-737.4" font-family="Consolas" font-size="12.00">(int level)</text>
<text text-anchor="start" x="184" y="-720.4" font-family="Consolas" font-size="12.00">#</text>
<text text-anchor="start" x="196" y="-720.4" font-family="Consolas" font-size="12.00">void InitializeDefaultLevels()</text>
<text text-anchor="start" x="184" y="-703.4" font-family="Consolas" font-size="12.00">#</text>
<text text-anchor="start" x="196" y="-703.4" font-family="Consolas" font-size="12.00">virtual void OnEnable()</text>
<text text-anchor="start" x="184" y="-686.4" font-family="Consolas" font-size="12.00">#</text>
<text text-anchor="start" x="196" y="-686.4" font-family="Consolas" font-size="12.00">bool CheckIfNeedsInitialization()</text>
<text text-anchor="start" x="184" y="-669.4" font-family="Consolas" font-size="12.00">#</text>
<text text-anchor="start" x="196" y="-669.4" font-family="Consolas" font-size="12.00">override bool CheckIfNeeds</text>
<text text-anchor="start" x="196" y="-656.4" font-family="Consolas" font-size="12.00">Initialization()</text>
<text text-anchor="start" x="184" y="-639.4" font-family="Consolas" font-size="12.00">&#45;</text>
<text text-anchor="start" x="196" y="-639.4" font-family="Consolas" font-size="12.00">DoorDirection LocalDirTo</text>
<text text-anchor="start" x="196" y="-626.4" font-family="Consolas" font-size="12.00">WorldDir(DoorDirection</text>
<text text-anchor="start" x="196" y="-613.4" font-family="Consolas" font-size="12.00"> localDir, Constants.Rotations.</text>
<text text-anchor="start" x="196" y="-600.4" font-family="Consolas" font-size="12.00">Rotation rotation)</text>
<polygon fill="#666666" stroke="#666666" points="180,-998 180,-998 516,-998 516,-998 180,-998"/>
<polygon fill="#666666" stroke="#666666" points="180,-981 180,-981 194,-981 194,-981 180,-981"/>
<polygon fill="#666666" stroke="#666666" points="194,-981 194,-981 516,-981 516,-981 194,-981"/>
<polygon fill="none" stroke="#666666" points="180,-593 180,-1017 516,-1017 516,-593 180,-593"/>
</a>
</g>
</g>
<!-- Node3&#45;&gt;Node4 -->
<g id="edge4_Node000004_Node000003" class="edge">
<title>Node3&#45;&gt;Node4</title>
<g id="a_edge4_Node000004_Node000003"><a xlink:title=" ">
<path fill="none" stroke="#63b8ff" d="M187.7,-1045.14C193.27,-1036.84 199.59,-1027.4 206.44,-1017.18"/>
<polygon fill="none" stroke="#63b8ff" points="184.64,-1043.42 181.98,-1053.68 190.45,-1047.32 184.64,-1043.42"/>
</a>
</g>
</g>
<!-- Node4&#45;&gt;Node2 -->
<g id="edge3_Node000002_Node000004" class="edge">
<title>Node4&#45;&gt;Node2</title>
<g id="a_edge3_Node000002_Node000004"><a xlink:title=" ">
<path fill="none" stroke="orange" d="M265.23,-583.5C260.07,-569.77 254.89,-555.96 249.74,-542.25"/>
<polygon fill="orange" stroke="orange" points="262,-584.85 268.79,-592.99 268.55,-582.39 262,-584.85"/>
</a>
</g>
<text text-anchor="middle" x="386" y="-563.8" font-family="Consolas" font-size="14.00" fill="grey"> &lt; OxygenRoomData.OxygenLevel &gt;</text>
</g>
</g>
</svg>
