<?xml version="1.0" encoding="UTF-8" standalone="no"?>
<!DOCTYPE svg PUBLIC "-//W3C//DTD SVG 1.1//EN"
 "http://www.w3.org/Graphics/SVG/1.1/DTD/svg11.dtd">
<!-- Generated by graphviz version 2.43.0 (0)
 -->
<!-- Title: BuyItemInfoPanel Pages: 1 -->
<!--zoomable 1155 -->

<svg id="main" version="1.1" xmlns="http://www.w3.org/2000/svg" xmlns:xlink="http://www.w3.org/1999/xlink" xml:space="preserve" onload="init(evt)">
<style type="text/css"><![CDATA[
.node, .edge {opacity: 0.7;}
.node.selected, .edge.selected {opacity: 1;}
.edge:hover path { stroke: red; }
.edge:hover polygon { stroke: red; fill: red; }
]]></style>

<defs>
  <circle id="rim" cx="0" cy="0" r="7"/>
  <circle id="rim2" cx="0" cy="0" r="3.5"/>
  <g id="zoomPlus">
    <use xlink:href="#rim" fill="#404040"><set attributeName="fill" to="#808080" begin="zoomplus.mouseover" end="zoomplus.mouseout"/></use>
    <path d="M-4,0h8M0,-4v8" fill="none" stroke="white" stroke-width="1.5" pointer-events="none"/>
  </g>
  <g id="zoomMin">
    <use xlink:href="#rim" fill="#404040"><set attributeName="fill" to="#808080" begin="zoomminus.mouseover" end="zoomminus.mouseout"/></use>
    <path d="M-4,0h8" fill="none" stroke="white" stroke-width="1.5" pointer-events="none"/>
  </g>
  <g id="arrowUp" transform="translate(30 24)">
    <use xlink:href="#rim"/>
    <path pointer-events="none" fill="none" stroke="white" stroke-width="1.5" d="M0,-3.0v7 M-2.5,-0.5L0,-3.0L2.5,-0.5"/>
  </g>
  <g id="arrowRight" transform="rotate(90) translate(36 -43)">
    <use xlink:href="#rim"/>
    <path pointer-events="none" fill="none" stroke="white" stroke-width="1.5" d="M0,-3.0v7 M-2.5,-0.5L0,-3.0L2.5,-0.5"/>
  </g>
  <g id="arrowDown" transform="rotate(180) translate(-30 -48)">
    <use xlink:href="#rim"/>
    <path pointer-events="none" fill="none" stroke="white" stroke-width="1.5" d="M0,-3.0v7 M-2.5,-0.5L0,-3.0L2.5,-0.5"/>
  </g>
  <g id="arrowLeft" transform="rotate(270) translate(-36 17)">
    <use xlink:href="#rim"/>
    <path pointer-events="none" fill="none" stroke="white" stroke-width="1.5" d="M0,-3.0v7 M-2.5,-0.5L0,-3.0L2.5,-0.5"/>
  </g>
  <g id="resetDef">
    <use xlink:href="#rim2" fill="#404040"><set attributeName="fill" to="#808080" begin="reset.mouseover" end="reset.mouseout"/></use>
  </g>
</defs>
<script type="application/ecmascript">
var viewWidth = 510;
var viewHeight = 1155;
var sectionId = 'dynsection-0';
</script>
<script type="application/ecmascript" xlink:href="svg.min.js"/>
<svg id="graph" class="graph">
<g id="viewport">
<title>BuyItemInfoPanel</title>
<!-- Node1 -->
<g id="Node000001" class="node">
<title>Node1</title>
<g id="a_Node000001"><a xlink:title=" ">
<polygon fill="#999999" stroke="transparent" points="455.5,-486 172.5,-486 172.5,0 455.5,0 455.5,-486"/>
<text text-anchor="start" x="254" y="-472.4" font-family="Consolas" font-size="12.00">BuyItemInfoPanel</text>
<text text-anchor="start" x="177" y="-455.4" font-family="Consolas" font-size="12.00">+</text>
<text text-anchor="start" x="189" y="-455.4" font-family="Consolas" font-size="12.00">TradingItemData CurrentItem</text>
<text text-anchor="start" x="177" y="-438.4" font-family="Consolas" font-size="12.00">&#45;</text>
<text text-anchor="start" x="189" y="-438.4" font-family="Consolas" font-size="12.00">Button panelButton</text>
<text text-anchor="start" x="177" y="-421.4" font-family="Consolas" font-size="12.00">&#45;</text>
<text text-anchor="start" x="189" y="-421.4" font-family="Consolas" font-size="12.00">Image panelBackground</text>
<text text-anchor="start" x="177" y="-404.4" font-family="Consolas" font-size="12.00">&#45;</text>
<text text-anchor="start" x="189" y="-404.4" font-family="Consolas" font-size="12.00">Image itemShape</text>
<text text-anchor="start" x="177" y="-387.4" font-family="Consolas" font-size="12.00">&#45;</text>
<text text-anchor="start" x="189" y="-387.4" font-family="Consolas" font-size="12.00">List&lt; Sprite &gt; itemShape</text>
<text text-anchor="start" x="189" y="-374.4" font-family="Consolas" font-size="12.00">Sprites</text>
<text text-anchor="start" x="177" y="-357.4" font-family="Consolas" font-size="12.00">&#45;</text>
<text text-anchor="start" x="189" y="-357.4" font-family="Consolas" font-size="12.00">Image itemImage</text>
<text text-anchor="start" x="177" y="-340.4" font-family="Consolas" font-size="12.00">&#45;</text>
<text text-anchor="start" x="189" y="-340.4" font-family="Consolas" font-size="12.00">TextMeshProUGUI itemName</text>
<text text-anchor="start" x="177" y="-323.4" font-family="Consolas" font-size="12.00">&#45;</text>
<text text-anchor="start" x="189" y="-323.4" font-family="Consolas" font-size="12.00">TextMeshProUGUI itemCategory</text>
<text text-anchor="start" x="177" y="-306.4" font-family="Consolas" font-size="12.00">&#45;</text>
<text text-anchor="start" x="189" y="-306.4" font-family="Consolas" font-size="12.00">TextMeshProUGUI itemAmount</text>
<text text-anchor="start" x="177" y="-289.4" font-family="Consolas" font-size="12.00">&#45;</text>
<text text-anchor="start" x="189" y="-289.4" font-family="Consolas" font-size="12.00">TextMeshProUGUI itemPrice</text>
<text text-anchor="start" x="177" y="-272.4" font-family="Consolas" font-size="12.00">&#45;</text>
<text text-anchor="start" x="189" y="-272.4" font-family="Consolas" font-size="12.00">Color originalColor</text>
<text text-anchor="start" x="177" y="-255.4" font-family="Consolas" font-size="12.00">&#45;</text>
<text text-anchor="start" x="189" y="-255.4" font-family="Consolas" font-size="12.00">float hightlightAlpha</text>
<text text-anchor="start" x="177" y="-238.4" font-family="Consolas" font-size="12.00">&#45;</text>
<text text-anchor="start" x="189" y="-238.4" font-family="Consolas" font-size="12.00">Color selectedBackground</text>
<text text-anchor="start" x="189" y="-225.4" font-family="Consolas" font-size="12.00">Color</text>
<text text-anchor="start" x="177" y="-208.4" font-family="Consolas" font-size="12.00">&#45;</text>
<text text-anchor="start" x="189" y="-208.4" font-family="Consolas" font-size="12.00">TradingItemData currentItem</text>
<text text-anchor="start" x="177" y="-191.4" font-family="Consolas" font-size="12.00">&#45;</text>
<text text-anchor="start" x="189" y="-191.4" font-family="Consolas" font-size="12.00">TradeUIController tradeUIController</text>
<text text-anchor="start" x="177" y="-174.4" font-family="Consolas" font-size="12.00">&#45;</text>
<text text-anchor="start" x="189" y="-174.4" font-family="Consolas" font-size="12.00">bool isSelected</text>
<text text-anchor="start" x="177" y="-157.4" font-family="Consolas" font-size="12.00">+</text>
<text text-anchor="start" x="189" y="-157.4" font-family="Consolas" font-size="12.00">void Initialize(TradingItem</text>
<text text-anchor="start" x="189" y="-144.4" font-family="Consolas" font-size="12.00">Data item)</text>
<text text-anchor="start" x="177" y="-127.4" font-family="Consolas" font-size="12.00">+</text>
<text text-anchor="start" x="189" y="-127.4" font-family="Consolas" font-size="12.00">void OnPointerClick</text>
<text text-anchor="start" x="189" y="-114.4" font-family="Consolas" font-size="12.00">(PointerEventData eventData)</text>
<text text-anchor="start" x="177" y="-97.4" font-family="Consolas" font-size="12.00">#</text>
<text text-anchor="start" x="189" y="-97.4" font-family="Consolas" font-size="12.00">override void Start()</text>
<text text-anchor="start" x="177" y="-80.4" font-family="Consolas" font-size="12.00">#</text>
<text text-anchor="start" x="189" y="-80.4" font-family="Consolas" font-size="12.00">override void OnMouseEnter</text>
<text text-anchor="start" x="189" y="-67.4" font-family="Consolas" font-size="12.00">(PointerEventData eventData)</text>
<text text-anchor="start" x="177" y="-50.4" font-family="Consolas" font-size="12.00">#</text>
<text text-anchor="start" x="189" y="-50.4" font-family="Consolas" font-size="12.00">override void OnMouseExit</text>
<text text-anchor="start" x="189" y="-37.4" font-family="Consolas" font-size="12.00">(PointerEventData eventData)</text>
<text text-anchor="start" x="177" y="-20.4" font-family="Consolas" font-size="12.00">#</text>
<text text-anchor="start" x="189" y="-20.4" font-family="Consolas" font-size="12.00">override void SetToolTip</text>
<text text-anchor="start" x="189" y="-7.4" font-family="Consolas" font-size="12.00">Text()</text>
<polygon fill="#666666" stroke="#666666" points="173,-467 173,-467 456,-467 456,-467 173,-467"/>
<polygon fill="#666666" stroke="#666666" points="173,-169 173,-169 187,-169 187,-169 173,-169"/>
<polygon fill="#666666" stroke="#666666" points="187,-169 187,-169 456,-169 456,-169 187,-169"/>
<polygon fill="none" stroke="#666666" points="172.5,0 172.5,-486 455.5,-486 455.5,0 172.5,0"/>
</a>
</g>
</g>
<!-- Node2 -->
<g id="Node000002" class="node">
<title>Node2</title>
<g id="a_Node000002"><a xlink:href="classTooltipPanelBase.html" target="_top" xlink:title=" ">
<polygon fill="white" stroke="transparent" points="322.5,-1056 91.5,-1056 91.5,-522 322.5,-522 322.5,-1056"/>
<text text-anchor="start" x="147" y="-1042.4" font-family="Consolas" font-size="12.00">TooltipPanelBase</text>
<text text-anchor="start" x="96" y="-1025.4" font-family="Consolas" font-size="12.00">#</text>
<text text-anchor="start" x="108" y="-1025.4" font-family="Consolas" font-size="12.00">GameObject tooltipPrefab</text>
<text text-anchor="start" x="96" y="-1008.4" font-family="Consolas" font-size="12.00">#</text>
<text text-anchor="start" x="108" y="-1008.4" font-family="Consolas" font-size="12.00">GameObject currentToolTip</text>
<text text-anchor="start" x="96" y="-991.4" font-family="Consolas" font-size="12.00">#</text>
<text text-anchor="start" x="108" y="-991.4" font-family="Consolas" font-size="12.00">Canvas canvasComponent</text>
<text text-anchor="start" x="96" y="-974.4" font-family="Consolas" font-size="12.00">#</text>
<text text-anchor="start" x="108" y="-974.4" font-family="Consolas" font-size="12.00">RectTransform canvasRect</text>
<text text-anchor="start" x="108" y="-961.4" font-family="Consolas" font-size="12.00">Transform</text>
<text text-anchor="start" x="96" y="-944.4" font-family="Consolas" font-size="12.00">#</text>
<text text-anchor="start" x="108" y="-944.4" font-family="Consolas" font-size="12.00">bool isMouseOver</text>
<text text-anchor="start" x="96" y="-927.4" font-family="Consolas" font-size="12.00">#</text>
<text text-anchor="start" x="108" y="-927.4" font-family="Consolas" font-size="12.00">Coroutine toolTipCoroutine</text>
<text text-anchor="start" x="96" y="-910.4" font-family="Consolas" font-size="12.00">#</text>
<text text-anchor="start" x="108" y="-910.4" font-family="Consolas" font-size="12.00">GameObject tooltipParent</text>
<text text-anchor="start" x="96" y="-893.4" font-family="Consolas" font-size="12.00">#</text>
<text text-anchor="start" x="108" y="-893.4" font-family="Consolas" font-size="12.00">Vector2 lastMousePosition</text>
<text text-anchor="start" x="96" y="-876.4" font-family="Consolas" font-size="12.00">+</text>
<text text-anchor="start" x="108" y="-876.4" font-family="Consolas" font-size="12.00">virtual void OnPointerEnter</text>
<text text-anchor="start" x="108" y="-863.4" font-family="Consolas" font-size="12.00">(PointerEventData eventData)</text>
<text text-anchor="start" x="96" y="-846.4" font-family="Consolas" font-size="12.00">+</text>
<text text-anchor="start" x="108" y="-846.4" font-family="Consolas" font-size="12.00">virtual void OnPointerExit</text>
<text text-anchor="start" x="108" y="-833.4" font-family="Consolas" font-size="12.00">(PointerEventData eventData)</text>
<text text-anchor="start" x="96" y="-816.4" font-family="Consolas" font-size="12.00">#</text>
<text text-anchor="start" x="108" y="-816.4" font-family="Consolas" font-size="12.00">virtual void Start()</text>
<text text-anchor="start" x="96" y="-799.4" font-family="Consolas" font-size="12.00">#</text>
<text text-anchor="start" x="108" y="-799.4" font-family="Consolas" font-size="12.00">virtual void Update()</text>
<text text-anchor="start" x="96" y="-782.4" font-family="Consolas" font-size="12.00">#</text>
<text text-anchor="start" x="108" y="-782.4" font-family="Consolas" font-size="12.00">virtual void CreateTooltip()</text>
<text text-anchor="start" x="96" y="-765.4" font-family="Consolas" font-size="12.00">#</text>
<text text-anchor="start" x="108" y="-765.4" font-family="Consolas" font-size="12.00">virtual void OnMouseEnter</text>
<text text-anchor="start" x="108" y="-752.4" font-family="Consolas" font-size="12.00">(PointerEventData eventData)</text>
<text text-anchor="start" x="96" y="-735.4" font-family="Consolas" font-size="12.00">#</text>
<text text-anchor="start" x="108" y="-735.4" font-family="Consolas" font-size="12.00">virtual void OnMouseExit</text>
<text text-anchor="start" x="108" y="-722.4" font-family="Consolas" font-size="12.00">(PointerEventData eventData)</text>
<text text-anchor="start" x="96" y="-705.4" font-family="Consolas" font-size="12.00">#</text>
<text text-anchor="start" x="108" y="-705.4" font-family="Consolas" font-size="12.00">virtual void UpdateToolTip</text>
<text text-anchor="start" x="108" y="-692.4" font-family="Consolas" font-size="12.00">PositionFromMouse()</text>
<text text-anchor="start" x="96" y="-675.4" font-family="Consolas" font-size="12.00">#</text>
<text text-anchor="start" x="108" y="-675.4" font-family="Consolas" font-size="12.00">virtual void UpdateToolTip</text>
<text text-anchor="start" x="108" y="-662.4" font-family="Consolas" font-size="12.00">Position(PointerEventData</text>
<text text-anchor="start" x="108" y="-649.4" font-family="Consolas" font-size="12.00"> eventData)</text>
<text text-anchor="start" x="96" y="-632.4" font-family="Consolas" font-size="12.00">#</text>
<text text-anchor="start" x="108" y="-632.4" font-family="Consolas" font-size="12.00">virtual void UpdateToolTip</text>
<text text-anchor="start" x="108" y="-619.4" font-family="Consolas" font-size="12.00">PositionInternal(Vector2</text>
<text text-anchor="start" x="108" y="-606.4" font-family="Consolas" font-size="12.00"> mousePosition)</text>
<text text-anchor="start" x="96" y="-589.4" font-family="Consolas" font-size="12.00">#</text>
<text text-anchor="start" x="108" y="-589.4" font-family="Consolas" font-size="12.00">virtual IEnumerator</text>
<text text-anchor="start" x="108" y="-576.4" font-family="Consolas" font-size="12.00"> ShowToolTipWithDelay</text>
<text text-anchor="start" x="108" y="-563.4" font-family="Consolas" font-size="12.00">(PointerEventData eventData)</text>
<text text-anchor="start" x="96" y="-546.4" font-family="Consolas" font-size="12.00">#</text>
<text text-anchor="start" x="108" y="-546.4" font-family="Consolas" font-size="12.00">virtual void OnDestroy()</text>
<text text-anchor="start" x="96" y="-529.4" font-family="Consolas" font-size="12.00">#</text>
<text text-anchor="start" x="108" y="-529.4" font-family="Consolas" font-size="12.00">void SetToolTipText()</text>
<polygon fill="#bfbfbf" stroke="#bfbfbf" points="92,-1037 92,-1037 323,-1037 323,-1037 92,-1037"/>
<polygon fill="#bfbfbf" stroke="#bfbfbf" points="92,-888 92,-888 106,-888 106,-888 92,-888"/>
<polygon fill="#bfbfbf" stroke="#bfbfbf" points="106,-888 106,-888 323,-888 323,-888 106,-888"/>
<polygon fill="none" stroke="#bfbfbf" points="91.5,-522 91.5,-1056 322.5,-1056 322.5,-522 91.5,-522"/>
</a>
</g>
</g>
<!-- Node2&#45;&gt;Node1 -->
<g id="edge1_Node000001_Node000002" class="edge">
<title>Node2&#45;&gt;Node1</title>
<g id="a_edge1_Node000001_Node000002"><a xlink:title=" ">
<path fill="none" stroke="#63b8ff" d="M261.26,-512.14C262.97,-503.43 264.69,-494.72 266.39,-486.05"/>
<polygon fill="none" stroke="#63b8ff" points="257.82,-511.49 259.32,-521.98 264.69,-512.84 257.82,-511.49"/>
</a>
</g>
</g>
<!-- Node3 -->
<g id="Node000003" class="node">
<title>Node3</title>
<g id="a_Node000003"><a xlink:title=" ">
<polygon fill="white" stroke="transparent" points="108,-1147 0,-1147 0,-1092 108,-1092 108,-1147"/>
<text text-anchor="start" x="5" y="-1132.9" font-family="Consolas" font-size="12.00">MonoBehaviour</text>
<text text-anchor="start" x="50" y="-1115.9" font-family="Consolas" font-size="12.00"> </text>
<text text-anchor="start" x="50" y="-1098.9" font-family="Consolas" font-size="12.00"> </text>
<polygon fill="#bfbfbf" stroke="#bfbfbf" points="0,-1127.5 0,-1127.5 108,-1127.5 108,-1127.5 0,-1127.5"/>
<polygon fill="#bfbfbf" stroke="#bfbfbf" points="0,-1110.5 0,-1110.5 108,-1110.5 108,-1110.5 0,-1110.5"/>
<polygon fill="none" stroke="#bfbfbf" points="0,-1092 0,-1147 108,-1147 108,-1092 0,-1092"/>
</a>
</g>
</g>
<!-- Node3&#45;&gt;Node2 -->
<g id="edge2_Node000002_Node000003" class="edge">
<title>Node3&#45;&gt;Node2</title>
<g id="a_edge2_Node000002_Node000003"><a xlink:title=" ">
<path fill="none" stroke="#63b8ff" d="M70.62,-1082.82C76.47,-1070.25 83.58,-1055 91.43,-1038.14"/>
<polygon fill="none" stroke="#63b8ff" points="67.44,-1081.35 66.39,-1091.9 73.79,-1084.31 67.44,-1081.35"/>
</a>
</g>
</g>
<!-- Node4 -->
<g id="Node000004" class="node">
<title>Node4</title>
<g id="a_Node000004"><a xlink:title=" ">
<polygon fill="white" stroke="transparent" points="287.5,-1147 126.5,-1147 126.5,-1092 287.5,-1092 287.5,-1147"/>
<text text-anchor="start" x="132" y="-1132.9" font-family="Consolas" font-size="12.00">IPointerEnterHandler</text>
<text text-anchor="start" x="203.5" y="-1115.9" font-family="Consolas" font-size="12.00"> </text>
<text text-anchor="start" x="203.5" y="-1098.9" font-family="Consolas" font-size="12.00"> </text>
<polygon fill="#bfbfbf" stroke="#bfbfbf" points="127,-1127.5 127,-1127.5 288,-1127.5 288,-1127.5 127,-1127.5"/>
<polygon fill="#bfbfbf" stroke="#bfbfbf" points="127,-1110.5 127,-1110.5 288,-1110.5 288,-1110.5 127,-1110.5"/>
<polygon fill="none" stroke="#bfbfbf" points="126.5,-1092 126.5,-1147 287.5,-1147 287.5,-1092 126.5,-1092"/>
</a>
</g>
</g>
<!-- Node4&#45;&gt;Node2 -->
<g id="edge3_Node000002_Node000004" class="edge">
<title>Node4&#45;&gt;Node2</title>
<g id="a_edge3_Node000002_Node000004"><a xlink:title=" ">
<path fill="none" stroke="#63b8ff" d="M207,-1081.74C207,-1074.09 207,-1065.48 207,-1056.15"/>
<polygon fill="none" stroke="#63b8ff" points="203.5,-1081.9 207,-1091.9 210.5,-1081.9 203.5,-1081.9"/>
</a>
</g>
</g>
<!-- Node5 -->
<g id="Node000005" class="node">
<title>Node5</title>
<g id="a_Node000005"><a xlink:title=" ">
<polygon fill="white" stroke="transparent" points="458.5,-1147 305.5,-1147 305.5,-1092 458.5,-1092 458.5,-1147"/>
<text text-anchor="start" x="311" y="-1132.9" font-family="Consolas" font-size="12.00">IPointerExitHandler</text>
<text text-anchor="start" x="378.5" y="-1115.9" font-family="Consolas" font-size="12.00"> </text>
<text text-anchor="start" x="378.5" y="-1098.9" font-family="Consolas" font-size="12.00"> </text>
<polygon fill="#bfbfbf" stroke="#bfbfbf" points="306,-1127.5 306,-1127.5 459,-1127.5 459,-1127.5 306,-1127.5"/>
<polygon fill="#bfbfbf" stroke="#bfbfbf" points="306,-1110.5 306,-1110.5 459,-1110.5 459,-1110.5 306,-1110.5"/>
<polygon fill="none" stroke="#bfbfbf" points="305.5,-1092 305.5,-1147 458.5,-1147 458.5,-1092 305.5,-1092"/>
</a>
</g>
</g>
<!-- Node5&#45;&gt;Node2 -->
<g id="edge4_Node000002_Node000005" class="edge">
<title>Node5&#45;&gt;Node2</title>
<g id="a_edge4_Node000002_Node000005"><a xlink:title=" ">
<path fill="none" stroke="#63b8ff" d="M352.03,-1084C345.03,-1075.17 337.91,-1065.48 332,-1056 328.83,-1050.91 325.69,-1045.73 322.58,-1040.47"/>
<polygon fill="none" stroke="#63b8ff" points="349.37,-1086.28 358.39,-1091.84 354.81,-1081.87 349.37,-1086.28"/>
</a>
</g>
</g>
<!-- Node6 -->
<g id="Node000006" class="node">
<title>Node6</title>
<g id="a_Node000006"><a xlink:title=" ">
<polygon fill="white" stroke="transparent" points="501.5,-816.5 340.5,-816.5 340.5,-761.5 501.5,-761.5 501.5,-816.5"/>
<text text-anchor="start" x="346" y="-802.4" font-family="Consolas" font-size="12.00">IPointerClickHandler</text>
<text text-anchor="start" x="417.5" y="-785.4" font-family="Consolas" font-size="12.00"> </text>
<text text-anchor="start" x="417.5" y="-768.4" font-family="Consolas" font-size="12.00"> </text>
<polygon fill="#bfbfbf" stroke="#bfbfbf" points="341,-797 341,-797 502,-797 502,-797 341,-797"/>
<polygon fill="#bfbfbf" stroke="#bfbfbf" points="341,-780 341,-780 502,-780 502,-780 341,-780"/>
<polygon fill="none" stroke="#bfbfbf" points="340.5,-761.5 340.5,-816.5 501.5,-816.5 501.5,-761.5 340.5,-761.5"/>
</a>
</g>
</g>
<!-- Node6&#45;&gt;Node1 -->
<g id="edge5_Node000001_Node000006" class="edge">
<title>Node6&#45;&gt;Node1</title>
<g id="a_edge5_Node000001_Node000006"><a xlink:title=" ">
<path fill="none" stroke="#63b8ff" d="M413.82,-751.48C403.04,-696.68 381.79,-588.66 361.66,-486.32"/>
<polygon fill="none" stroke="#63b8ff" points="410.4,-752.26 415.77,-761.39 417.27,-750.91 410.4,-752.26"/>
</a>
</g>
</g>
</g>
</svg>

<g id="navigator" transform="translate(0 0)" fill="#404254">
  <rect fill="#f2f5e9" fill-opacity="0.5" stroke="#606060" stroke-width=".5" x="0" y="0" width="60" height="60"/>
  <use id="zoomplus" xlink:href="#zoomPlus" x="17" y="9" onmousedown="handleZoom(evt,'in')"/>
  <use id="zoomminus" xlink:href="#zoomMin" x="42" y="9" onmousedown="handleZoom(evt,'out')"/>
  <use id="reset" xlink:href="#resetDef" x="30" y="36" onmousedown="handleReset()"/>
   <use id="arrowup" xlink:href="#arrowUp" x="0" y="0" onmousedown="handlePan(0,-1)"/>
  <use id="arrowright" xlink:href="#arrowRight" x="0" y="0" onmousedown="handlePan(1,0)"/>
  <use id="arrowdown" xlink:href="#arrowDown" x="0" y="0" onmousedown="handlePan(0,1)"/>
  <use id="arrowleft" xlink:href="#arrowLeft" x="0" y="0" onmousedown="handlePan(-1,0)"/>
</g>
<svg viewBox="0 0 15 15" width="100%" height="30px" preserveAspectRatio="xMaxYMin meet">
 <g id="arrow_out" transform="scale(0.3 0.3)">
  <a xlink:href="classBuyItemInfoPanel__inherit__graph_org.svg" target="_base">
   <rect id="button" ry="5" rx="5" y="6" x="6" height="38" width="38"
        fill="#f2f5e9" fill-opacity="0.5" stroke="#606060" stroke-width="1.0"/>
   <path id="arrow"
     d="M 11.500037,31.436501 C 11.940474,20.09759 22.043105,11.32322 32.158766,21.979434 L 37.068811,17.246167 C 37.068811,17.246167 37.088388,32 37.088388,32 L 22.160133,31.978069 C 22.160133,31.978069 26.997745,27.140456 26.997745,27.140456 C 18.528582,18.264221 13.291696,25.230495 11.500037,31.436501 z"
     style="fill:#404040;"/>
  </a>
 </g>
</svg>

<style type='text/css'>
<![CDATA[
[data-mouse-over-selected='false'] { opacity: 0.7; }
[data-mouse-over-selected='true']  { opacity: 1.0; }
]]>
</style>
<script type="application/ecmascript"><![CDATA[
document.addEventListener('DOMContentLoaded', (event) => {
  highlightEdges();
  highlightAdjacentNodes();
});
]]></script>
</svg>
