<?xml version="1.0" encoding="UTF-8" standalone="no"?>
<!DOCTYPE svg PUBLIC "-//W3C//DTD SVG 1.1//EN"
 "http://www.w3.org/Graphics/SVG/1.1/DTD/svg11.dtd">
<!-- Generated by graphviz version 2.43.0 (0)
 -->
<!-- Title: OuterHull Pages: 1 -->
<svg width="388pt" height="526pt"
 viewBox="0.00 0.00 387.50 526.00" xmlns="http://www.w3.org/2000/svg" xmlns:xlink="http://www.w3.org/1999/xlink">
<g id="graph0" class="graph" transform="scale(1 1) rotate(0) translate(4 522)">
<title>OuterHull</title>
<!-- Node1 -->
<g id="Node000001" class="node">
<title>Node1</title>
<g id="a_Node000001"><a xlink:title="외갑판 업그레이드를 나타내는 클래스. 방처럼 배치되지는 않지만, 전체 함선 스탯에 영향을 주는 구성 요소입니다.">
<polygon fill="#999999" stroke="transparent" points="279.5,-414 26.5,-414 26.5,0 279.5,0 279.5,-414"/>
<text text-anchor="start" x="119.5" y="-400.4" font-family="Consolas" font-size="12.00">OuterHull</text>
<text text-anchor="start" x="31" y="-383.4" font-family="Consolas" font-size="12.00">+</text>
<text text-anchor="start" x="43" y="-383.4" font-family="Consolas" font-size="12.00">Vector2Int gridPosition</text>
<text text-anchor="start" x="31" y="-366.4" font-family="Consolas" font-size="12.00">+</text>
<text text-anchor="start" x="43" y="-366.4" font-family="Consolas" font-size="12.00">int direction</text>
<text text-anchor="start" x="31" y="-349.4" font-family="Consolas" font-size="12.00">&#45;</text>
<text text-anchor="start" x="43" y="-349.4" font-family="Consolas" font-size="12.00">OuterHullData outerHullData</text>
<text text-anchor="start" x="31" y="-332.4" font-family="Consolas" font-size="12.00">&#45;</text>
<text text-anchor="start" x="43" y="-332.4" font-family="Consolas" font-size="12.00">int currentLevel</text>
<text text-anchor="start" x="31" y="-315.4" font-family="Consolas" font-size="12.00">&#45;</text>
<text text-anchor="start" x="43" y="-315.4" font-family="Consolas" font-size="12.00">OuterHullData.OuterHullLevel</text>
<text text-anchor="start" x="43" y="-302.4" font-family="Consolas" font-size="12.00"> currentLevelData</text>
<text text-anchor="start" x="31" y="-285.4" font-family="Consolas" font-size="12.00">&#45;</text>
<text text-anchor="start" x="43" y="-285.4" font-family="Consolas" font-size="12.00">SpriteRenderer spriteRenderer</text>
<text text-anchor="start" x="31" y="-268.4" font-family="Consolas" font-size="12.00">&#45;</text>
<text text-anchor="start" x="43" y="-268.4" font-family="Consolas" font-size="12.00">Ship parentShip</text>
<text text-anchor="start" x="31" y="-251.4" font-family="Consolas" font-size="12.00">+</text>
<text text-anchor="start" x="43" y="-251.4" font-family="Consolas" font-size="12.00">void Initialize()</text>
<text text-anchor="start" x="31" y="-234.4" font-family="Consolas" font-size="12.00">+</text>
<text text-anchor="start" x="43" y="-234.4" font-family="Consolas" font-size="12.00">void Initialize(Vector2Int</text>
<text text-anchor="start" x="43" y="-221.4" font-family="Consolas" font-size="12.00"> position, int level, int</text>
<text text-anchor="start" x="43" y="-208.4" font-family="Consolas" font-size="12.00"> dir, Sprite sprite, Ship ship)</text>
<text text-anchor="start" x="31" y="-191.4" font-family="Consolas" font-size="12.00">+</text>
<text text-anchor="start" x="43" y="-191.4" font-family="Consolas" font-size="12.00">void SetOuterHullData</text>
<text text-anchor="start" x="43" y="-178.4" font-family="Consolas" font-size="12.00">(OuterHullData data)</text>
<text text-anchor="start" x="31" y="-161.4" font-family="Consolas" font-size="12.00">+</text>
<text text-anchor="start" x="43" y="-161.4" font-family="Consolas" font-size="12.00">void UpdateSprite(Sprite</text>
<text text-anchor="start" x="43" y="-148.4" font-family="Consolas" font-size="12.00"> sprite)</text>
<text text-anchor="start" x="31" y="-131.4" font-family="Consolas" font-size="12.00">+</text>
<text text-anchor="start" x="43" y="-131.4" font-family="Consolas" font-size="12.00">void UpdateSpriteByLevel</text>
<text text-anchor="start" x="43" y="-118.4" font-family="Consolas" font-size="12.00">AndDirection(int level,</text>
<text text-anchor="start" x="43" y="-105.4" font-family="Consolas" font-size="12.00"> int directionIndex)</text>
<text text-anchor="start" x="31" y="-88.4" font-family="Consolas" font-size="12.00">+</text>
<text text-anchor="start" x="43" y="-88.4" font-family="Consolas" font-size="12.00">Dictionary&lt; ShipStat,</text>
<text text-anchor="start" x="43" y="-75.4" font-family="Consolas" font-size="12.00"> float &gt; GetStatContributions()</text>
<text text-anchor="start" x="31" y="-58.4" font-family="Consolas" font-size="12.00">+</text>
<text text-anchor="start" x="43" y="-58.4" font-family="Consolas" font-size="12.00">bool Upgrade()</text>
<text text-anchor="start" x="31" y="-41.4" font-family="Consolas" font-size="12.00">+</text>
<text text-anchor="start" x="43" y="-41.4" font-family="Consolas" font-size="12.00">int GetCurrentLevel()</text>
<text text-anchor="start" x="31" y="-24.4" font-family="Consolas" font-size="12.00">+</text>
<text text-anchor="start" x="43" y="-24.4" font-family="Consolas" font-size="12.00">void SetLevel(int level)</text>
<text text-anchor="start" x="31" y="-7.4" font-family="Consolas" font-size="12.00">&#45;</text>
<text text-anchor="start" x="43" y="-7.4" font-family="Consolas" font-size="12.00">void Awake()</text>
<polygon fill="#666666" stroke="#666666" points="27,-395 27,-395 280,-395 280,-395 27,-395"/>
<polygon fill="#666666" stroke="#666666" points="27,-263 27,-263 41,-263 41,-263 27,-263"/>
<polygon fill="#666666" stroke="#666666" points="41,-263 41,-263 280,-263 280,-263 41,-263"/>
<polygon fill="none" stroke="#666666" points="26.5,0 26.5,-414 279.5,-414 279.5,0 26.5,0"/>
</a>
</g>
</g>
<!-- Node2 -->
<g id="Node000002" class="node">
<title>Node2</title>
<g id="a_Node000002"><a xlink:title=" ">
<polygon fill="white" stroke="transparent" points="108,-511.5 0,-511.5 0,-456.5 108,-456.5 108,-511.5"/>
<text text-anchor="start" x="5" y="-497.4" font-family="Consolas" font-size="12.00">MonoBehaviour</text>
<text text-anchor="start" x="50" y="-480.4" font-family="Consolas" font-size="12.00"> </text>
<text text-anchor="start" x="50" y="-463.4" font-family="Consolas" font-size="12.00"> </text>
<polygon fill="#bfbfbf" stroke="#bfbfbf" points="0,-492 0,-492 108,-492 108,-492 0,-492"/>
<polygon fill="#bfbfbf" stroke="#bfbfbf" points="0,-475 0,-475 108,-475 108,-475 0,-475"/>
<polygon fill="none" stroke="#bfbfbf" points="0,-456.5 0,-511.5 108,-511.5 108,-456.5 0,-456.5"/>
</a>
</g>
</g>
<!-- Node2&#45;&gt;Node1 -->
<g id="edge1_Node000001_Node000002" class="edge">
<title>Node2&#45;&gt;Node1</title>
<g id="a_edge1_Node000001_Node000002"><a xlink:title=" ">
<path fill="none" stroke="#63b8ff" d="M66.98,-446.94C70.44,-437.33 74.43,-426.25 78.76,-414.21"/>
<polygon fill="none" stroke="#63b8ff" points="63.68,-445.79 63.58,-456.38 70.26,-448.16 63.68,-445.79"/>
</a>
</g>
</g>
<!-- Node3 -->
<g id="Node000003" class="node">
<title>Node3</title>
<g id="a_Node000003"><a xlink:href="interfaceIShipStatContributor.html" target="_top" xlink:title="함선의 ShipStat에 영향을 주는 객체 인터페이스. 방(Room)과 선원(Crew)은 모두 이 인터페이스를 통해 스탯에 기여합니다.">
<polygon fill="white" stroke="transparent" points="379.5,-518 126.5,-518 126.5,-450 379.5,-450 379.5,-518"/>
<text text-anchor="start" x="178" y="-504.4" font-family="Consolas" font-size="12.00">IShipStatContributor</text>
<text text-anchor="start" x="249.5" y="-487.4" font-family="Consolas" font-size="12.00"> </text>
<text text-anchor="start" x="131" y="-470.4" font-family="Consolas" font-size="12.00">+</text>
<text text-anchor="start" x="143" y="-470.4" font-family="Consolas" font-size="12.00">Dictionary&lt; ShipStat,</text>
<text text-anchor="start" x="143" y="-457.4" font-family="Consolas" font-size="12.00"> float &gt; GetStatContributions()</text>
<polygon fill="#666666" stroke="#666666" points="127,-499 127,-499 380,-499 380,-499 127,-499"/>
<polygon fill="#666666" stroke="#666666" points="127,-482 127,-482 380,-482 380,-482 127,-482"/>
<polygon fill="none" stroke="#666666" points="126.5,-450 126.5,-518 379.5,-518 379.5,-450 126.5,-450"/>
</a>
</g>
</g>
<!-- Node3&#45;&gt;Node1 -->
<g id="edge2_Node000001_Node000003" class="edge">
<title>Node3&#45;&gt;Node1</title>
<g id="a_edge2_Node000001_Node000003"><a xlink:title=" ">
<path fill="none" stroke="#63b8ff" d="M237.43,-440.19C234.53,-432.21 231.33,-423.41 227.92,-414.04"/>
<polygon fill="none" stroke="#63b8ff" points="234.23,-441.63 240.94,-449.83 240.81,-439.23 234.23,-441.63"/>
</a>
</g>
</g>
</g>
</svg>
