<?xml version="1.0" encoding="UTF-8" standalone="no"?>
<!DOCTYPE svg PUBLIC "-//W3C//DTD SVG 1.1//EN"
 "http://www.w3.org/Graphics/SVG/1.1/DTD/svg11.dtd">
<!-- Generated by graphviz version 2.43.0 (0)
 -->
<!-- Title: ResourceManager Pages: 1 -->
<svg width="246pt" height="620pt"
 viewBox="0.00 0.00 246.00 620.00" xmlns="http://www.w3.org/2000/svg" xmlns:xlink="http://www.w3.org/1999/xlink">
<g id="graph0" class="graph" transform="scale(1 1) rotate(0) translate(4 616)">
<title>ResourceManager</title>
<!-- Node1 -->
<g id="Node000001" class="node">
<title>Node1</title>
<g id="a_Node000001"><a xlink:title="자원을 관리하는 매니저 클래스. 자원의 초기화, 변경, 조회 및 고갈 시 처리까지 담당합니다.">
<polygon fill="#999999" stroke="transparent" points="238,-521 0,-521 0,0 238,0 238,-521"/>
<text text-anchor="start" x="62.5" y="-506.9" font-family="Consolas" font-size="12.00">ResourceManager</text>
<text text-anchor="start" x="4" y="-489.9" font-family="Consolas" font-size="12.00">+</text>
<text text-anchor="start" x="16" y="-489.9" font-family="Consolas" font-size="12.00">List&lt; ResourcesData</text>
<text text-anchor="start" x="16" y="-476.9" font-family="Consolas" font-size="12.00"> &gt; resources</text>
<text text-anchor="start" x="4" y="-459.9" font-family="Consolas" font-size="12.00">+</text>
<text text-anchor="start" x="16" y="-459.9" font-family="Consolas" font-size="12.00">static ResourceManager</text>
<text text-anchor="start" x="16" y="-446.9" font-family="Consolas" font-size="12.00"> Instance</text>
<text text-anchor="start" x="4" y="-429.9" font-family="Consolas" font-size="12.00">+</text>
<text text-anchor="start" x="16" y="-429.9" font-family="Consolas" font-size="12.00">int COMA</text>
<text text-anchor="start" x="4" y="-412.9" font-family="Consolas" font-size="12.00">+</text>
<text text-anchor="start" x="16" y="-412.9" font-family="Consolas" font-size="12.00">float Fuel</text>
<text text-anchor="start" x="4" y="-395.9" font-family="Consolas" font-size="12.00">+</text>
<text text-anchor="start" x="16" y="-395.9" font-family="Consolas" font-size="12.00">int Missile</text>
<text text-anchor="start" x="4" y="-378.9" font-family="Consolas" font-size="12.00">+</text>
<text text-anchor="start" x="16" y="-378.9" font-family="Consolas" font-size="12.00">int Hypersonic</text>
<text text-anchor="start" x="4" y="-361.9" font-family="Consolas" font-size="12.00">+</text>
<text text-anchor="start" x="16" y="-361.9" font-family="Consolas" font-size="12.00">int Missle</text>
<text text-anchor="start" x="4" y="-344.9" font-family="Consolas" font-size="12.00">+</text>
<text text-anchor="start" x="16" y="-344.9" font-family="Consolas" font-size="12.00">delegate void ResourceChanged</text>
<text text-anchor="start" x="16" y="-331.9" font-family="Consolas" font-size="12.00">Handler(ResourceType type,</text>
<text text-anchor="start" x="16" y="-318.9" font-family="Consolas" font-size="12.00"> float newAmount)</text>
<text text-anchor="start" x="4" y="-301.9" font-family="Consolas" font-size="12.00">+</text>
<text text-anchor="start" x="16" y="-301.9" font-family="Consolas" font-size="12.00">void ChangeResource</text>
<text text-anchor="start" x="16" y="-288.9" font-family="Consolas" font-size="12.00">(ResourceType type,</text>
<text text-anchor="start" x="16" y="-275.9" font-family="Consolas" font-size="12.00"> float amount)</text>
<text text-anchor="start" x="4" y="-258.9" font-family="Consolas" font-size="12.00">+</text>
<text text-anchor="start" x="16" y="-258.9" font-family="Consolas" font-size="12.00">void SetResource(Resource</text>
<text text-anchor="start" x="16" y="-245.9" font-family="Consolas" font-size="12.00">Type type, float newValue)</text>
<text text-anchor="start" x="4" y="-228.9" font-family="Consolas" font-size="12.00">+</text>
<text text-anchor="start" x="16" y="-228.9" font-family="Consolas" font-size="12.00">void ResetResources()</text>
<text text-anchor="start" x="4" y="-211.9" font-family="Consolas" font-size="12.00">&#45;</text>
<text text-anchor="start" x="16" y="-211.9" font-family="Consolas" font-size="12.00">void Awake()</text>
<text text-anchor="start" x="4" y="-194.9" font-family="Consolas" font-size="12.00">&#45;</text>
<text text-anchor="start" x="16" y="-194.9" font-family="Consolas" font-size="12.00">void InitializeResources()</text>
<text text-anchor="start" x="4" y="-177.9" font-family="Consolas" font-size="12.00">&#45;</text>
<text text-anchor="start" x="16" y="-177.9" font-family="Consolas" font-size="12.00">int GetCOMA()</text>
<text text-anchor="start" x="4" y="-160.9" font-family="Consolas" font-size="12.00">&#45;</text>
<text text-anchor="start" x="16" y="-160.9" font-family="Consolas" font-size="12.00">float GetFuel()</text>
<text text-anchor="start" x="4" y="-143.9" font-family="Consolas" font-size="12.00">&#45;</text>
<text text-anchor="start" x="16" y="-143.9" font-family="Consolas" font-size="12.00">int GetMissle()</text>
<text text-anchor="start" x="4" y="-126.9" font-family="Consolas" font-size="12.00">&#45;</text>
<text text-anchor="start" x="16" y="-126.9" font-family="Consolas" font-size="12.00">int GetHypersonic()</text>
<text text-anchor="start" x="4" y="-109.9" font-family="Consolas" font-size="12.00">&#45;</text>
<text text-anchor="start" x="16" y="-109.9" font-family="Consolas" font-size="12.00">float GetDefaultAmount</text>
<text text-anchor="start" x="16" y="-96.9" font-family="Consolas" font-size="12.00">(ResourceType type)</text>
<text text-anchor="start" x="4" y="-79.9" font-family="Consolas" font-size="12.00">&#45;</text>
<text text-anchor="start" x="16" y="-79.9" font-family="Consolas" font-size="12.00">float GetMaxAmount</text>
<text text-anchor="start" x="16" y="-66.9" font-family="Consolas" font-size="12.00">(ResourceType type)</text>
<text text-anchor="start" x="4" y="-49.9" font-family="Consolas" font-size="12.00">&#45;</text>
<text text-anchor="start" x="16" y="-49.9" font-family="Consolas" font-size="12.00">ResourceValueType GetValue</text>
<text text-anchor="start" x="16" y="-36.9" font-family="Consolas" font-size="12.00">Type(ResourceType type)</text>
<text text-anchor="start" x="4" y="-19.9" font-family="Consolas" font-size="12.00">&#45;</text>
<text text-anchor="start" x="16" y="-19.9" font-family="Consolas" font-size="12.00">void HandleResourceDepletion</text>
<text text-anchor="start" x="16" y="-6.9" font-family="Consolas" font-size="12.00">(ResourceType type)</text>
<polygon fill="#666666" stroke="#666666" points="0,-501.5 0,-501.5 238,-501.5 238,-501.5 0,-501.5"/>
<polygon fill="#666666" stroke="#666666" points="0,-356.5 0,-356.5 14,-356.5 14,-356.5 0,-356.5"/>
<polygon fill="#666666" stroke="#666666" points="14,-356.5 14,-356.5 238,-356.5 238,-356.5 14,-356.5"/>
<polygon fill="none" stroke="#666666" points="0,0 0,-521 238,-521 238,0 0,0"/>
</a>
</g>
</g>
<!-- Node2 -->
<g id="Node000002" class="node">
<title>Node2</title>
<g id="a_Node000002"><a xlink:title=" ">
<polygon fill="white" stroke="transparent" points="173,-612 65,-612 65,-557 173,-557 173,-612"/>
<text text-anchor="start" x="70" y="-597.9" font-family="Consolas" font-size="12.00">MonoBehaviour</text>
<text text-anchor="start" x="115" y="-580.9" font-family="Consolas" font-size="12.00"> </text>
<text text-anchor="start" x="115" y="-563.9" font-family="Consolas" font-size="12.00"> </text>
<polygon fill="#bfbfbf" stroke="#bfbfbf" points="65,-592.5 65,-592.5 173,-592.5 173,-592.5 65,-592.5"/>
<polygon fill="#bfbfbf" stroke="#bfbfbf" points="65,-575.5 65,-575.5 173,-575.5 173,-575.5 65,-575.5"/>
<polygon fill="none" stroke="#bfbfbf" points="65,-557 65,-612 173,-612 173,-557 65,-557"/>
</a>
</g>
</g>
<!-- Node2&#45;&gt;Node1 -->
<g id="edge1_Node000001_Node000002" class="edge">
<title>Node2&#45;&gt;Node1</title>
<g id="a_edge1_Node000001_Node000002"><a xlink:title=" ">
<path fill="none" stroke="#63b8ff" d="M119,-546.71C119,-539.04 119,-530.43 119,-521.09"/>
<polygon fill="none" stroke="#63b8ff" points="115.5,-546.88 119,-556.88 122.5,-546.88 115.5,-546.88"/>
</a>
</g>
</g>
</g>
</svg>
