<?xml version="1.0" encoding="UTF-8" standalone="no"?>
<!DOCTYPE svg PUBLIC "-//W3C//DTD SVG 1.1//EN"
 "http://www.w3.org/Graphics/SVG/1.1/DTD/svg11.dtd">
<!-- Generated by graphviz version 2.43.0 (0)
 -->
<!-- Title: ES3Internal.ES3RefIdDictionary Pages: 1 -->
<svg width="454pt" height="732pt"
 viewBox="0.00 0.00 453.50 732.00" xmlns="http://www.w3.org/2000/svg" xmlns:xlink="http://www.w3.org/1999/xlink">
<g id="graph0" class="graph" transform="scale(1 1) rotate(0) translate(4 728)">
<title>ES3Internal.ES3RefIdDictionary</title>
<!-- Node1 -->
<g id="Node000001" class="node">
<title>Node1</title>
<g id="a_Node000001"><a xlink:title=" ">
<polygon fill="#999999" stroke="transparent" points="353,-111 70,-111 70,0 353,0 353,-111"/>
<text text-anchor="start" x="99" y="-96.9" font-family="Consolas" font-size="12.00">ES3Internal.ES3RefIdDictionary</text>
<text text-anchor="start" x="208" y="-79.9" font-family="Consolas" font-size="12.00"> </text>
<text text-anchor="start" x="74.5" y="-62.9" font-family="Consolas" font-size="12.00">#</text>
<text text-anchor="start" x="86.5" y="-62.9" font-family="Consolas" font-size="12.00">override bool KeysAreEqual</text>
<text text-anchor="start" x="86.5" y="-49.9" font-family="Consolas" font-size="12.00">(UnityEngine.Object a, UnityEngine.</text>
<text text-anchor="start" x="86.5" y="-36.9" font-family="Consolas" font-size="12.00">Object b)</text>
<text text-anchor="start" x="74.5" y="-19.9" font-family="Consolas" font-size="12.00">#</text>
<text text-anchor="start" x="86.5" y="-19.9" font-family="Consolas" font-size="12.00">override bool ValuesAreEqual</text>
<text text-anchor="start" x="86.5" y="-6.9" font-family="Consolas" font-size="12.00">(long a, long b)</text>
<polygon fill="#666666" stroke="#666666" points="70.5,-91.5 70.5,-91.5 353.5,-91.5 353.5,-91.5 70.5,-91.5"/>
<polygon fill="#666666" stroke="#666666" points="70.5,-74.5 70.5,-74.5 353.5,-74.5 353.5,-74.5 70.5,-74.5"/>
<polygon fill="none" stroke="#666666" points="70,0 70,-111 353,-111 353,0 70,0"/>
</a>
</g>
</g>
<!-- Node2 -->
<g id="Node000002" class="node">
<title>Node2</title>
<g id="a_Node000002"><a xlink:href="classES3Internal_1_1ES3SerializableDictionary.html" target="_top" xlink:title=" ">
<polygon fill="white" stroke="transparent" points="322,-357 101,-357 101,-148 322,-148 322,-357"/>
<text text-anchor="start" x="106.5" y="-342.9" font-family="Consolas" font-size="12.00">ES3SerializableDictionary</text>
<text text-anchor="start" x="106.5" y="-329.9" font-family="Consolas" font-size="12.00">&lt; UnityEngine.Object, long &gt;</text>
<text text-anchor="start" x="108.5" y="-312.9" font-family="Consolas" font-size="12.00">&#45;</text>
<text text-anchor="start" x="123.5" y="-312.9" font-family="Consolas" font-size="12.00">List&lt; TKey &gt; _Keys</text>
<text text-anchor="start" x="108.5" y="-295.9" font-family="Consolas" font-size="12.00">&#45;</text>
<text text-anchor="start" x="123.5" y="-295.9" font-family="Consolas" font-size="12.00">List&lt; TVal &gt; _Values</text>
<text text-anchor="start" x="108.5" y="-278.9" font-family="Consolas" font-size="12.00">+</text>
<text text-anchor="start" x="123.5" y="-278.9" font-family="Consolas" font-size="12.00">void OnBeforeSerialize()</text>
<text text-anchor="start" x="108.5" y="-261.9" font-family="Consolas" font-size="12.00">+</text>
<text text-anchor="start" x="123.5" y="-261.9" font-family="Consolas" font-size="12.00">void OnAfterDeserialize()</text>
<text text-anchor="start" x="108.5" y="-244.9" font-family="Consolas" font-size="12.00">+</text>
<text text-anchor="start" x="123.5" y="-244.9" font-family="Consolas" font-size="12.00">int RemoveNullValues()</text>
<text text-anchor="start" x="108.5" y="-227.9" font-family="Consolas" font-size="12.00">+</text>
<text text-anchor="start" x="123.5" y="-227.9" font-family="Consolas" font-size="12.00">bool ChangeKey(TKey</text>
<text text-anchor="start" x="123.5" y="-214.9" font-family="Consolas" font-size="12.00"> oldKey, TKey newKey)</text>
<text text-anchor="start" x="108.5" y="-197.9" font-family="Consolas" font-size="12.00">#</text>
<text text-anchor="start" x="123.5" y="-197.9" font-family="Consolas" font-size="12.00">bool KeysAreEqual(TKey</text>
<text text-anchor="start" x="123.5" y="-184.9" font-family="Consolas" font-size="12.00"> a, TKey b)</text>
<text text-anchor="start" x="108.5" y="-167.9" font-family="Consolas" font-size="12.00">#</text>
<text text-anchor="start" x="123.5" y="-167.9" font-family="Consolas" font-size="12.00">bool ValuesAreEqual</text>
<text text-anchor="start" x="123.5" y="-154.9" font-family="Consolas" font-size="12.00">(TVal a, TVal b)</text>
<polygon fill="#bfbfbf" stroke="#bfbfbf" points="101.5,-324.5 101.5,-324.5 322.5,-324.5 322.5,-324.5 101.5,-324.5"/>
<polygon fill="#bfbfbf" stroke="#bfbfbf" points="101.5,-290.5 101.5,-290.5 121.5,-290.5 121.5,-290.5 101.5,-290.5"/>
<polygon fill="#bfbfbf" stroke="#bfbfbf" points="121.5,-290.5 121.5,-290.5 322.5,-290.5 322.5,-290.5 121.5,-290.5"/>
<polygon fill="none" stroke="#bfbfbf" points="101,-148 101,-357 322,-357 322,-148 101,-148"/>
</a>
</g>
</g>
<!-- Node2&#45;&gt;Node1 -->
<g id="edge1_Node000001_Node000002" class="edge">
<title>Node2&#45;&gt;Node1</title>
<g id="a_edge1_Node000001_Node000002"><a xlink:title=" ">
<path fill="none" stroke="#63b8ff" d="M211.5,-137.47C211.5,-128.45 211.5,-119.63 211.5,-111.32"/>
<polygon fill="none" stroke="#63b8ff" points="208,-137.72 211.5,-147.72 215,-137.72 208,-137.72"/>
</a>
</g>
</g>
<!-- Node3 -->
<g id="Node000003" class="node">
<title>Node3</title>
<g id="a_Node000003"><a xlink:href="classES3Internal_1_1ES3SerializableDictionary.html" target="_top" xlink:title=" ">
<polygon fill="white" stroke="transparent" points="318,-632 105,-632 105,-423 318,-423 318,-632"/>
<text text-anchor="start" x="110.5" y="-617.9" font-family="Consolas" font-size="12.00">ES3Internal.ES3Serializable</text>
<text text-anchor="start" x="121.5" y="-604.9" font-family="Consolas" font-size="12.00">Dictionary&lt; TKey, TVal &gt;</text>
<text text-anchor="start" x="110.5" y="-587.9" font-family="Consolas" font-size="12.00">&#45;</text>
<text text-anchor="start" x="123.5" y="-587.9" font-family="Consolas" font-size="12.00">List&lt; TKey &gt; _Keys</text>
<text text-anchor="start" x="110.5" y="-570.9" font-family="Consolas" font-size="12.00">&#45;</text>
<text text-anchor="start" x="123.5" y="-570.9" font-family="Consolas" font-size="12.00">List&lt; TVal &gt; _Values</text>
<text text-anchor="start" x="110.5" y="-553.9" font-family="Consolas" font-size="12.00">+</text>
<text text-anchor="start" x="123.5" y="-553.9" font-family="Consolas" font-size="12.00">void OnBeforeSerialize()</text>
<text text-anchor="start" x="110.5" y="-536.9" font-family="Consolas" font-size="12.00">+</text>
<text text-anchor="start" x="123.5" y="-536.9" font-family="Consolas" font-size="12.00">void OnAfterDeserialize()</text>
<text text-anchor="start" x="110.5" y="-519.9" font-family="Consolas" font-size="12.00">+</text>
<text text-anchor="start" x="123.5" y="-519.9" font-family="Consolas" font-size="12.00">int RemoveNullValues()</text>
<text text-anchor="start" x="110.5" y="-502.9" font-family="Consolas" font-size="12.00">+</text>
<text text-anchor="start" x="123.5" y="-502.9" font-family="Consolas" font-size="12.00">bool ChangeKey(TKey</text>
<text text-anchor="start" x="123.5" y="-489.9" font-family="Consolas" font-size="12.00"> oldKey, TKey newKey)</text>
<text text-anchor="start" x="110.5" y="-472.9" font-family="Consolas" font-size="12.00">#</text>
<text text-anchor="start" x="123.5" y="-472.9" font-family="Consolas" font-size="12.00">bool KeysAreEqual(TKey</text>
<text text-anchor="start" x="123.5" y="-459.9" font-family="Consolas" font-size="12.00"> a, TKey b)</text>
<text text-anchor="start" x="110.5" y="-442.9" font-family="Consolas" font-size="12.00">#</text>
<text text-anchor="start" x="123.5" y="-442.9" font-family="Consolas" font-size="12.00">bool ValuesAreEqual</text>
<text text-anchor="start" x="123.5" y="-429.9" font-family="Consolas" font-size="12.00">(TVal a, TVal b)</text>
<polygon fill="#bfbfbf" stroke="#bfbfbf" points="105.5,-599.5 105.5,-599.5 318.5,-599.5 318.5,-599.5 105.5,-599.5"/>
<polygon fill="#bfbfbf" stroke="#bfbfbf" points="105.5,-565.5 105.5,-565.5 121.5,-565.5 121.5,-565.5 105.5,-565.5"/>
<polygon fill="#bfbfbf" stroke="#bfbfbf" points="121.5,-565.5 121.5,-565.5 318.5,-565.5 318.5,-565.5 121.5,-565.5"/>
<polygon fill="none" stroke="#bfbfbf" points="105,-423 105,-632 318,-632 318,-423 105,-423"/>
</a>
</g>
</g>
<!-- Node3&#45;&gt;Node2 -->
<g id="edge2_Node000002_Node000003" class="edge">
<title>Node3&#45;&gt;Node2</title>
<g id="a_edge2_Node000002_Node000003"><a xlink:title=" ">
<path fill="none" stroke="orange" d="M211.5,-412.71C211.5,-394.25 211.5,-375.23 211.5,-357.03"/>
<polygon fill="orange" stroke="orange" points="208,-412.9 211.5,-422.9 215,-412.9 208,-412.9"/>
</a>
</g>
<text text-anchor="start" x="211.5" y="-393.8" font-family="Consolas" font-size="14.00" fill="grey"> &lt; UnityEngine.Object,</text>
<text text-anchor="middle" x="302.5" y="-378.8" font-family="Consolas" font-size="14.00" fill="grey"> long &gt;</text>
</g>
<!-- Node4 -->
<g id="Node000004" class="node">
<title>Node4</title>
<g id="a_Node000004"><a xlink:title=" ">
<polygon fill="white" stroke="transparent" points="191,-724 0,-724 0,-669 191,-669 191,-724"/>
<text text-anchor="start" x="5.5" y="-709.9" font-family="Consolas" font-size="12.00">Dictionary&lt; TKey, TVal &gt;</text>
<text text-anchor="start" x="92" y="-692.9" font-family="Consolas" font-size="12.00"> </text>
<text text-anchor="start" x="92" y="-675.9" font-family="Consolas" font-size="12.00"> </text>
<polygon fill="#bfbfbf" stroke="#bfbfbf" points="0.5,-704.5 0.5,-704.5 191.5,-704.5 191.5,-704.5 0.5,-704.5"/>
<polygon fill="#bfbfbf" stroke="#bfbfbf" points="0.5,-687.5 0.5,-687.5 191.5,-687.5 191.5,-687.5 0.5,-687.5"/>
<polygon fill="none" stroke="#bfbfbf" points="0,-669 0,-724 191,-724 191,-669 0,-669"/>
</a>
</g>
</g>
<!-- Node4&#45;&gt;Node3 -->
<g id="edge3_Node000003_Node000004" class="edge">
<title>Node4&#45;&gt;Node3</title>
<g id="a_edge3_Node000003_Node000004"><a xlink:title=" ">
<path fill="none" stroke="#63b8ff" d="M120.03,-660.19C125.94,-651.68 132.56,-642.15 139.46,-632.22"/>
<polygon fill="none" stroke="#63b8ff" points="116.97,-658.46 114.14,-668.67 122.72,-662.45 116.97,-658.46"/>
</a>
</g>
</g>
<!-- Node5 -->
<g id="Node000005" class="node">
<title>Node5</title>
<g id="a_Node000005"><a xlink:title=" ">
<polygon fill="white" stroke="transparent" points="445.5,-724 209.5,-724 209.5,-669 445.5,-669 445.5,-724"/>
<text text-anchor="start" x="214.5" y="-709.9" font-family="Consolas" font-size="12.00">ISerializationCallbackReceiver</text>
<text text-anchor="start" x="323.5" y="-692.9" font-family="Consolas" font-size="12.00"> </text>
<text text-anchor="start" x="323.5" y="-675.9" font-family="Consolas" font-size="12.00"> </text>
<polygon fill="#bfbfbf" stroke="#bfbfbf" points="209.5,-704.5 209.5,-704.5 445.5,-704.5 445.5,-704.5 209.5,-704.5"/>
<polygon fill="#bfbfbf" stroke="#bfbfbf" points="209.5,-687.5 209.5,-687.5 445.5,-687.5 445.5,-687.5 209.5,-687.5"/>
<polygon fill="none" stroke="#bfbfbf" points="209.5,-669 209.5,-724 445.5,-724 445.5,-669 209.5,-669"/>
</a>
</g>
</g>
<!-- Node5&#45;&gt;Node3 -->
<g id="edge4_Node000003_Node000005" class="edge">
<title>Node5&#45;&gt;Node3</title>
<g id="a_edge4_Node000003_Node000005"><a xlink:title=" ">
<path fill="none" stroke="#63b8ff" d="M302.97,-660.19C297.06,-651.68 290.44,-642.15 283.54,-632.22"/>
<polygon fill="none" stroke="#63b8ff" points="300.28,-662.45 308.86,-668.67 306.03,-658.46 300.28,-662.45"/>
</a>
</g>
</g>
</g>
</svg>
