<?xml version="1.0" encoding="UTF-8" standalone="no"?>
<!DOCTYPE svg PUBLIC "-//W3C//DTD SVG 1.1//EN"
 "http://www.w3.org/Graphics/SVG/1.1/DTD/svg11.dtd">
<!-- Generated by graphviz version 2.43.0 (0)
 -->
<!-- Title: ES3Editor.SettingsWindow Pages: 1 -->
<!--zoomable 470 -->

<svg id="main" version="1.1" xmlns="http://www.w3.org/2000/svg" xmlns:xlink="http://www.w3.org/1999/xlink" xml:space="preserve" onload="init(evt)">
<style type="text/css"><![CDATA[
.node, .edge {opacity: 0.7;}
.node.selected, .edge.selected {opacity: 1;}
.edge:hover path { stroke: red; }
.edge:hover polygon { stroke: red; fill: red; }
]]></style>

<defs>
  <circle id="rim" cx="0" cy="0" r="7"/>
  <circle id="rim2" cx="0" cy="0" r="3.5"/>
  <g id="zoomPlus">
    <use xlink:href="#rim" fill="#404040"><set attributeName="fill" to="#808080" begin="zoomplus.mouseover" end="zoomplus.mouseout"/></use>
    <path d="M-4,0h8M0,-4v8" fill="none" stroke="white" stroke-width="1.5" pointer-events="none"/>
  </g>
  <g id="zoomMin">
    <use xlink:href="#rim" fill="#404040"><set attributeName="fill" to="#808080" begin="zoomminus.mouseover" end="zoomminus.mouseout"/></use>
    <path d="M-4,0h8" fill="none" stroke="white" stroke-width="1.5" pointer-events="none"/>
  </g>
  <g id="arrowUp" transform="translate(30 24)">
    <use xlink:href="#rim"/>
    <path pointer-events="none" fill="none" stroke="white" stroke-width="1.5" d="M0,-3.0v7 M-2.5,-0.5L0,-3.0L2.5,-0.5"/>
  </g>
  <g id="arrowRight" transform="rotate(90) translate(36 -43)">
    <use xlink:href="#rim"/>
    <path pointer-events="none" fill="none" stroke="white" stroke-width="1.5" d="M0,-3.0v7 M-2.5,-0.5L0,-3.0L2.5,-0.5"/>
  </g>
  <g id="arrowDown" transform="rotate(180) translate(-30 -48)">
    <use xlink:href="#rim"/>
    <path pointer-events="none" fill="none" stroke="white" stroke-width="1.5" d="M0,-3.0v7 M-2.5,-0.5L0,-3.0L2.5,-0.5"/>
  </g>
  <g id="arrowLeft" transform="rotate(270) translate(-36 17)">
    <use xlink:href="#rim"/>
    <path pointer-events="none" fill="none" stroke="white" stroke-width="1.5" d="M0,-3.0v7 M-2.5,-0.5L0,-3.0L2.5,-0.5"/>
  </g>
  <g id="resetDef">
    <use xlink:href="#rim2" fill="#404040"><set attributeName="fill" to="#808080" begin="reset.mouseover" end="reset.mouseout"/></use>
  </g>
</defs>
<script type="application/ecmascript">
var viewWidth = 231;
var viewHeight = 470;
var sectionId = 'dynsection-0';
</script>
<script type="application/ecmascript" xlink:href="svg.min.js"/>
<svg id="graph" class="graph">
<g id="viewport">
<title>ES3Editor.SettingsWindow</title>
<!-- Node1 -->
<g id="Node000001" class="node">
<title>Node1</title>
<g id="a_Node000001"><a xlink:title=" ">
<polygon fill="#999999" stroke="transparent" points="223,-243 0,-243 0,0 223,0 223,-243"/>
<text text-anchor="start" x="21.5" y="-228.9" font-family="Consolas" font-size="12.00">ES3Editor.SettingsWindow</text>
<text text-anchor="start" x="4.5" y="-211.9" font-family="Consolas" font-size="12.00">+</text>
<text text-anchor="start" x="16.5" y="-211.9" font-family="Consolas" font-size="12.00">ES3Defaults editorSettings</text>
<text text-anchor="start" x="4.5" y="-194.9" font-family="Consolas" font-size="12.00">+</text>
<text text-anchor="start" x="16.5" y="-194.9" font-family="Consolas" font-size="12.00">ES3SerializableSettings</text>
<text text-anchor="start" x="16.5" y="-181.9" font-family="Consolas" font-size="12.00"> settings</text>
<text text-anchor="start" x="4.5" y="-164.9" font-family="Consolas" font-size="12.00">+</text>
<text text-anchor="start" x="16.5" y="-164.9" font-family="Consolas" font-size="12.00">SerializedObject so</text>
<text text-anchor="start" x="4.5" y="-147.9" font-family="Consolas" font-size="12.00">+</text>
<text text-anchor="start" x="16.5" y="-147.9" font-family="Consolas" font-size="12.00">SerializedProperty</text>
<text text-anchor="start" x="16.5" y="-134.9" font-family="Consolas" font-size="12.00"> referenceFoldersProperty</text>
<text text-anchor="start" x="4.5" y="-117.9" font-family="Consolas" font-size="12.00">&#45;</text>
<text text-anchor="start" x="16.5" y="-117.9" font-family="Consolas" font-size="12.00">Vector2 scrollPos</text>
<text text-anchor="start" x="4.5" y="-100.9" font-family="Consolas" font-size="12.00">&#45;</text>
<text text-anchor="start" x="16.5" y="-100.9" font-family="Consolas" font-size="12.00">const string disableGlobal</text>
<text text-anchor="start" x="16.5" y="-87.9" font-family="Consolas" font-size="12.00">DefineName</text>
<text text-anchor="start" x="4.5" y="-70.9" font-family="Consolas" font-size="12.00">+</text>
<text text-anchor="start" x="16.5" y="-70.9" font-family="Consolas" font-size="12.00">SettingsWindow(EditorWindow</text>
<text text-anchor="start" x="16.5" y="-57.9" font-family="Consolas" font-size="12.00"> window)</text>
<text text-anchor="start" x="4.5" y="-40.9" font-family="Consolas" font-size="12.00">+</text>
<text text-anchor="start" x="16.5" y="-40.9" font-family="Consolas" font-size="12.00">void OnEnable()</text>
<text text-anchor="start" x="4.5" y="-23.9" font-family="Consolas" font-size="12.00">+</text>
<text text-anchor="start" x="16.5" y="-23.9" font-family="Consolas" font-size="12.00">override void OnGUI()</text>
<text text-anchor="start" x="4.5" y="-6.9" font-family="Consolas" font-size="12.00">+</text>
<text text-anchor="start" x="16.5" y="-6.9" font-family="Consolas" font-size="12.00">void Init()</text>
<polygon fill="#666666" stroke="#666666" points="0.5,-223.5 0.5,-223.5 223.5,-223.5 223.5,-223.5 0.5,-223.5"/>
<polygon fill="#666666" stroke="#666666" points="0.5,-82.5 0.5,-82.5 14.5,-82.5 14.5,-82.5 0.5,-82.5"/>
<polygon fill="#666666" stroke="#666666" points="14.5,-82.5 14.5,-82.5 223.5,-82.5 223.5,-82.5 14.5,-82.5"/>
<polygon fill="none" stroke="#666666" points="0,0 0,-243 223,-243 223,0 0,0"/>
</a>
</g>
</g>
<!-- Node2 -->
<g id="Node000002" class="node">
<title>Node2</title>
<g id="a_Node000002"><a xlink:href="classES3Editor_1_1SubWindow.html" target="_top" xlink:title=" ">
<polygon fill="white" stroke="transparent" points="219.5,-462 3.5,-462 3.5,-279 219.5,-279 219.5,-462"/>
<text text-anchor="start" x="77.5" y="-447.9" font-family="Consolas" font-size="12.00">SubWindow</text>
<text text-anchor="start" x="7.5" y="-430.9" font-family="Consolas" font-size="12.00">+</text>
<text text-anchor="start" x="19.5" y="-430.9" font-family="Consolas" font-size="12.00">string name</text>
<text text-anchor="start" x="7.5" y="-413.9" font-family="Consolas" font-size="12.00">+</text>
<text text-anchor="start" x="19.5" y="-413.9" font-family="Consolas" font-size="12.00">EditorWindow parent</text>
<text text-anchor="start" x="7.5" y="-396.9" font-family="Consolas" font-size="12.00">+</text>
<text text-anchor="start" x="19.5" y="-396.9" font-family="Consolas" font-size="12.00">void OnGUI()</text>
<text text-anchor="start" x="7.5" y="-379.9" font-family="Consolas" font-size="12.00">+</text>
<text text-anchor="start" x="19.5" y="-379.9" font-family="Consolas" font-size="12.00">SubWindow(string name,</text>
<text text-anchor="start" x="19.5" y="-366.9" font-family="Consolas" font-size="12.00"> EditorWindow parent)</text>
<text text-anchor="start" x="7.5" y="-349.9" font-family="Consolas" font-size="12.00">+</text>
<text text-anchor="start" x="19.5" y="-349.9" font-family="Consolas" font-size="12.00">virtual void OnLostFocus()</text>
<text text-anchor="start" x="7.5" y="-332.9" font-family="Consolas" font-size="12.00">+</text>
<text text-anchor="start" x="19.5" y="-332.9" font-family="Consolas" font-size="12.00">virtual void OnFocus()</text>
<text text-anchor="start" x="7.5" y="-315.9" font-family="Consolas" font-size="12.00">+</text>
<text text-anchor="start" x="19.5" y="-315.9" font-family="Consolas" font-size="12.00">virtual void OnDestroy()</text>
<text text-anchor="start" x="7.5" y="-298.9" font-family="Consolas" font-size="12.00">+</text>
<text text-anchor="start" x="19.5" y="-298.9" font-family="Consolas" font-size="12.00">virtual void OnHierarchy</text>
<text text-anchor="start" x="19.5" y="-285.9" font-family="Consolas" font-size="12.00">Change()</text>
<polygon fill="#bfbfbf" stroke="#bfbfbf" points="3.5,-442.5 3.5,-442.5 219.5,-442.5 219.5,-442.5 3.5,-442.5"/>
<polygon fill="#bfbfbf" stroke="#bfbfbf" points="3.5,-408.5 3.5,-408.5 17.5,-408.5 17.5,-408.5 3.5,-408.5"/>
<polygon fill="#bfbfbf" stroke="#bfbfbf" points="17.5,-408.5 17.5,-408.5 219.5,-408.5 219.5,-408.5 17.5,-408.5"/>
<polygon fill="none" stroke="#bfbfbf" points="3.5,-279 3.5,-462 219.5,-462 219.5,-279 3.5,-279"/>
</a>
</g>
</g>
<!-- Node2&#45;&gt;Node1 -->
<g id="edge1_Node000001_Node000002" class="edge">
<title>Node2&#45;&gt;Node1</title>
<g id="a_edge1_Node000001_Node000002"><a xlink:title=" ">
<path fill="none" stroke="#63b8ff" d="M111.5,-268.68C111.5,-260.22 111.5,-251.6 111.5,-243.01"/>
<polygon fill="none" stroke="#63b8ff" points="108,-268.93 111.5,-278.93 115,-268.93 108,-268.93"/>
</a>
</g>
</g>
</g>
</svg>

<g id="navigator" transform="translate(0 0)" fill="#404254">
  <rect fill="#f2f5e9" fill-opacity="0.5" stroke="#606060" stroke-width=".5" x="0" y="0" width="60" height="60"/>
  <use id="zoomplus" xlink:href="#zoomPlus" x="17" y="9" onmousedown="handleZoom(evt,'in')"/>
  <use id="zoomminus" xlink:href="#zoomMin" x="42" y="9" onmousedown="handleZoom(evt,'out')"/>
  <use id="reset" xlink:href="#resetDef" x="30" y="36" onmousedown="handleReset()"/>
   <use id="arrowup" xlink:href="#arrowUp" x="0" y="0" onmousedown="handlePan(0,-1)"/>
  <use id="arrowright" xlink:href="#arrowRight" x="0" y="0" onmousedown="handlePan(1,0)"/>
  <use id="arrowdown" xlink:href="#arrowDown" x="0" y="0" onmousedown="handlePan(0,1)"/>
  <use id="arrowleft" xlink:href="#arrowLeft" x="0" y="0" onmousedown="handlePan(-1,0)"/>
</g>
<svg viewBox="0 0 15 15" width="100%" height="30px" preserveAspectRatio="xMaxYMin meet">
 <g id="arrow_out" transform="scale(0.3 0.3)">
  <a xlink:href="classES3Editor_1_1SettingsWindow__inherit__graph_org.svg" target="_base">
   <rect id="button" ry="5" rx="5" y="6" x="6" height="38" width="38"
        fill="#f2f5e9" fill-opacity="0.5" stroke="#606060" stroke-width="1.0"/>
   <path id="arrow"
     d="M 11.500037,31.436501 C 11.940474,20.09759 22.043105,11.32322 32.158766,21.979434 L 37.068811,17.246167 C 37.068811,17.246167 37.088388,32 37.088388,32 L 22.160133,31.978069 C 22.160133,31.978069 26.997745,27.140456 26.997745,27.140456 C 18.528582,18.264221 13.291696,25.230495 11.500037,31.436501 z"
     style="fill:#404040;"/>
  </a>
 </g>
</svg>

<style type='text/css'>
<![CDATA[
[data-mouse-over-selected='false'] { opacity: 0.7; }
[data-mouse-over-selected='true']  { opacity: 1.0; }
]]>
</style>
<script type="application/ecmascript"><![CDATA[
document.addEventListener('DOMContentLoaded', (event) => {
  highlightEdges();
  highlightAdjacentNodes();
});
]]></script>
</svg>
