<?xml version="1.0" encoding="UTF-8" standalone="no"?>
<!DOCTYPE svg PUBLIC "-//W3C//DTD SVG 1.1//EN"
 "http://www.w3.org/Graphics/SVG/1.1/DTD/svg11.dtd">
<!-- Generated by graphviz version 2.43.0 (0)
 -->
<!-- Title: ES3.LoadRawString Pages: 1 -->
<svg width="332pt" height="47pt"
 viewBox="0.00 0.00 332.00 47.00" xmlns="http://www.w3.org/2000/svg" xmlns:xlink="http://www.w3.org/1999/xlink">
<g id="graph0" class="graph" transform="scale(1 1) rotate(0) translate(4 43)">
<title>ES3.LoadRawString</title>
<!-- Node1 -->
<g id="Node000001" class="node">
<title>Node1</title>
<g id="a_Node000001"><a xlink:title="Loads a file as a byte array.">
<polygon fill="#999999" stroke="#666666" points="144,-21 0,-21 0,0 144,0 144,-21"/>
<text text-anchor="middle" x="72" y="-7.4" font-family="Consolas" font-size="12.00">ES3.LoadRawString</text>
</a>
</g>
</g>
<!-- Node2 -->
<g id="Node000002" class="node">
<title>Node2</title>
<g id="a_Node000002"><a xlink:href="classES3.html#a7f1480b5c018edb381218a51b2a8644c" target="_top" xlink:title="Loads the default file as a byte array.">
<polygon fill="white" stroke="#666666" points="324,-21 180,-21 180,0 324,0 324,-21"/>
<text text-anchor="middle" x="252" y="-7.4" font-family="Consolas" font-size="12.00">ES3.LoadRawString</text>
</a>
</g>
</g>
<!-- Node1&#45;&gt;Node2 -->
<g id="edge1_Node000001_Node000002" class="edge">
<title>Node1&#45;&gt;Node2</title>
<g id="a_edge1_Node000001_Node000002"><a xlink:title=" ">
<path fill="none" stroke="#63b8ff" d="M144.12,-10.5C152.61,-10.5 161.33,-10.5 169.94,-10.5"/>
<polygon fill="#63b8ff" stroke="#63b8ff" points="170,-14 180,-10.5 170,-7 170,-14"/>
</a>
</g>
</g>
<!-- Node2&#45;&gt;Node2 -->
<g id="edge2_Node000002_Node000002" class="edge">
<title>Node2&#45;&gt;Node2</title>
<g id="a_edge2_Node000002_Node000002"><a xlink:title=" ">
<path fill="none" stroke="#63b8ff" d="M223.4,-21.02C211.18,-29.81 220.71,-39 252,-39 272.53,-39 283.7,-35.04 285.49,-29.84"/>
<polygon fill="#63b8ff" stroke="#63b8ff" points="288.51,-28.07 280.6,-21.02 282.39,-31.47 288.51,-28.07"/>
</a>
</g>
</g>
</g>
</svg>
