<?xml version="1.0" encoding="UTF-8" standalone="no"?>
<!DOCTYPE svg PUBLIC "-//W3C//DTD SVG 1.1//EN"
 "http://www.w3.org/Graphics/SVG/1.1/DTD/svg11.dtd">
<!-- Generated by graphviz version 2.43.0 (0)
 -->
<!-- Title: EngineRoomData.EngineRoomLevel Pages: 1 -->
<svg width="206pt" height="218pt"
 viewBox="0.00 0.00 206.00 218.00" xmlns="http://www.w3.org/2000/svg" xmlns:xlink="http://www.w3.org/1999/xlink">
<g id="graph0" class="graph" transform="scale(1 1) rotate(0) translate(4 214)">
<title>EngineRoomData.EngineRoomLevel</title>
<!-- Node1 -->
<g id="Node000001" class="node">
<title>Node1</title>
<g id="a_Node000001"><a xlink:title="엔진실의 레벨별 데이터 구조.">
<polygon fill="#999999" stroke="transparent" points="198,-119 0,-119 0,0 198,0 198,-119"/>
<text text-anchor="start" x="5" y="-104.9" font-family="Consolas" font-size="12.00">EngineRoomData.EngineRoom</text>
<text text-anchor="start" x="80" y="-91.9" font-family="Consolas" font-size="12.00">Level</text>
<text text-anchor="start" x="9" y="-74.9" font-family="Consolas" font-size="12.00">+</text>
<text text-anchor="start" x="26" y="-74.9" font-family="Consolas" font-size="12.00">float fuelStoreLiter</text>
<text text-anchor="start" x="9" y="-57.9" font-family="Consolas" font-size="12.00">+</text>
<text text-anchor="start" x="26" y="-57.9" font-family="Consolas" font-size="12.00">float fuelConsumption</text>
<text text-anchor="start" x="9" y="-40.9" font-family="Consolas" font-size="12.00">+</text>
<text text-anchor="start" x="26" y="-40.9" font-family="Consolas" font-size="12.00">float fuelEfficiency</text>
<text text-anchor="start" x="9" y="-23.9" font-family="Consolas" font-size="12.00">+</text>
<text text-anchor="start" x="26" y="-23.9" font-family="Consolas" font-size="12.00">float avoidEfficiency</text>
<text text-anchor="start" x="95" y="-6.9" font-family="Consolas" font-size="12.00"> </text>
<polygon fill="#666666" stroke="#666666" points="0,-86.5 0,-86.5 198,-86.5 198,-86.5 0,-86.5"/>
<polygon fill="#666666" stroke="#666666" points="0,-18.5 0,-18.5 24,-18.5 24,-18.5 0,-18.5"/>
<polygon fill="#666666" stroke="#666666" points="24,-18.5 24,-18.5 198,-18.5 198,-18.5 24,-18.5"/>
<polygon fill="none" stroke="#666666" points="0,0 0,-119 198,-119 198,0 0,0"/>
</a>
</g>
</g>
<!-- Node2 -->
<g id="Node000002" class="node">
<title>Node2</title>
<g id="a_Node000002"><a xlink:title=" ">
<polygon fill="white" stroke="transparent" points="138,-210 60,-210 60,-155 138,-155 138,-210"/>
<text text-anchor="start" x="65" y="-195.9" font-family="Consolas" font-size="12.00">RoomLevel</text>
<text text-anchor="start" x="95" y="-178.9" font-family="Consolas" font-size="12.00"> </text>
<text text-anchor="start" x="95" y="-161.9" font-family="Consolas" font-size="12.00"> </text>
<polygon fill="#bfbfbf" stroke="#bfbfbf" points="60,-190.5 60,-190.5 138,-190.5 138,-190.5 60,-190.5"/>
<polygon fill="#bfbfbf" stroke="#bfbfbf" points="60,-173.5 60,-173.5 138,-173.5 138,-173.5 60,-173.5"/>
<polygon fill="none" stroke="#bfbfbf" points="60,-155 60,-210 138,-210 138,-155 60,-155"/>
</a>
</g>
</g>
<!-- Node2&#45;&gt;Node1 -->
<g id="edge1_Node000001_Node000002" class="edge">
<title>Node2&#45;&gt;Node1</title>
<g id="a_edge1_Node000001_Node000002"><a xlink:title=" ">
<path fill="none" stroke="#63b8ff" d="M99,-144.77C99,-136.69 99,-127.94 99,-119.23"/>
<polygon fill="none" stroke="#63b8ff" points="95.5,-144.95 99,-154.95 102.5,-144.95 95.5,-144.95"/>
</a>
</g>
</g>
</g>
</svg>
