<?xml version="1.0" encoding="UTF-8" standalone="no"?>
<!DOCTYPE svg PUBLIC "-//W3C//DTD SVG 1.1//EN"
 "http://www.w3.org/Graphics/SVG/1.1/DTD/svg11.dtd">
<!-- Generated by graphviz version 2.43.0 (0)
 -->
<!-- Title: CrewMovementValidator Pages: 1 -->
<!--zoomable 519 -->

<svg id="main" version="1.1" xmlns="http://www.w3.org/2000/svg" xmlns:xlink="http://www.w3.org/1999/xlink" xml:space="preserve" onload="init(evt)">
<style type="text/css"><![CDATA[
.node, .edge {opacity: 0.7;}
.node.selected, .edge.selected {opacity: 1;}
.edge:hover path { stroke: red; }
.edge:hover polygon { stroke: red; fill: red; }
]]></style>

<defs>
  <circle id="rim" cx="0" cy="0" r="7"/>
  <circle id="rim2" cx="0" cy="0" r="3.5"/>
  <g id="zoomPlus">
    <use xlink:href="#rim" fill="#404040"><set attributeName="fill" to="#808080" begin="zoomplus.mouseover" end="zoomplus.mouseout"/></use>
    <path d="M-4,0h8M0,-4v8" fill="none" stroke="white" stroke-width="1.5" pointer-events="none"/>
  </g>
  <g id="zoomMin">
    <use xlink:href="#rim" fill="#404040"><set attributeName="fill" to="#808080" begin="zoomminus.mouseover" end="zoomminus.mouseout"/></use>
    <path d="M-4,0h8" fill="none" stroke="white" stroke-width="1.5" pointer-events="none"/>
  </g>
  <g id="arrowUp" transform="translate(30 24)">
    <use xlink:href="#rim"/>
    <path pointer-events="none" fill="none" stroke="white" stroke-width="1.5" d="M0,-3.0v7 M-2.5,-0.5L0,-3.0L2.5,-0.5"/>
  </g>
  <g id="arrowRight" transform="rotate(90) translate(36 -43)">
    <use xlink:href="#rim"/>
    <path pointer-events="none" fill="none" stroke="white" stroke-width="1.5" d="M0,-3.0v7 M-2.5,-0.5L0,-3.0L2.5,-0.5"/>
  </g>
  <g id="arrowDown" transform="rotate(180) translate(-30 -48)">
    <use xlink:href="#rim"/>
    <path pointer-events="none" fill="none" stroke="white" stroke-width="1.5" d="M0,-3.0v7 M-2.5,-0.5L0,-3.0L2.5,-0.5"/>
  </g>
  <g id="arrowLeft" transform="rotate(270) translate(-36 17)">
    <use xlink:href="#rim"/>
    <path pointer-events="none" fill="none" stroke="white" stroke-width="1.5" d="M0,-3.0v7 M-2.5,-0.5L0,-3.0L2.5,-0.5"/>
  </g>
  <g id="resetDef">
    <use xlink:href="#rim2" fill="#404040"><set attributeName="fill" to="#808080" begin="reset.mouseover" end="reset.mouseout"/></use>
  </g>
</defs>
<script type="application/ecmascript">
var viewWidth = 269;
var viewHeight = 519;
var sectionId = 'dynsection-0';
</script>
<script type="application/ecmascript" xlink:href="svg.min.js"/>
<svg id="graph" class="graph">
<g id="viewport">
<title>CrewMovementValidator</title>
<!-- Node1 -->
<g id="Node000001" class="node">
<title>Node1</title>
<g id="a_Node000001"><a xlink:title="선원 이동 시 경로 유효성 검사 담당 방/복도 타일 이동 허용, 방&#45;방 이동 시 문 방향, 위치 검사">
<polygon fill="#999999" stroke="transparent" points="261,-420 0,-420 0,0 261,0 261,-420"/>
<text text-anchor="start" x="52" y="-406.4" font-family="Consolas" font-size="12.00">CrewMovementValidator</text>
<text text-anchor="start" x="4.5" y="-389.4" font-family="Consolas" font-size="12.00">+</text>
<text text-anchor="start" x="16.5" y="-389.4" font-family="Consolas" font-size="12.00">List&lt; Vector2Int &gt;</text>
<text text-anchor="start" x="16.5" y="-376.4" font-family="Consolas" font-size="12.00"> inspectorWalkable</text>
<text text-anchor="start" x="4.5" y="-359.4" font-family="Consolas" font-size="12.00">&#45;</text>
<text text-anchor="start" x="16.5" y="-359.4" font-family="Consolas" font-size="12.00">HashSet&lt; Vector2Int</text>
<text text-anchor="start" x="16.5" y="-346.4" font-family="Consolas" font-size="12.00"> &gt; walkableTiles</text>
<text text-anchor="start" x="4.5" y="-329.4" font-family="Consolas" font-size="12.00">&#45;</text>
<text text-anchor="start" x="16.5" y="-329.4" font-family="Consolas" font-size="12.00">List&lt; Room &gt; rooms</text>
<text text-anchor="start" x="4.5" y="-312.4" font-family="Consolas" font-size="12.00">+</text>
<text text-anchor="start" x="16.5" y="-312.4" font-family="Consolas" font-size="12.00">void Initialize(List</text>
<text text-anchor="start" x="16.5" y="-299.4" font-family="Consolas" font-size="12.00">&lt; Room &gt; allRooms)</text>
<text text-anchor="start" x="4.5" y="-282.4" font-family="Consolas" font-size="12.00">+</text>
<text text-anchor="start" x="16.5" y="-282.4" font-family="Consolas" font-size="12.00">bool IsTileWalkable</text>
<text text-anchor="start" x="16.5" y="-269.4" font-family="Consolas" font-size="12.00">(Vector2Int tile)</text>
<text text-anchor="start" x="4.5" y="-252.4" font-family="Consolas" font-size="12.00">+</text>
<text text-anchor="start" x="16.5" y="-252.4" font-family="Consolas" font-size="12.00">bool AreTilesConnected</text>
<text text-anchor="start" x="16.5" y="-239.4" font-family="Consolas" font-size="12.00">(Vector2Int from, Vector2Int to)</text>
<text text-anchor="start" x="4.5" y="-222.4" font-family="Consolas" font-size="12.00">&#45;</text>
<text text-anchor="start" x="16.5" y="-222.4" font-family="Consolas" font-size="12.00">Room GetRoomAtTile</text>
<text text-anchor="start" x="16.5" y="-209.4" font-family="Consolas" font-size="12.00">(Vector2Int tile)</text>
<text text-anchor="start" x="4.5" y="-192.4" font-family="Consolas" font-size="12.00">&#45;</text>
<text text-anchor="start" x="16.5" y="-192.4" font-family="Consolas" font-size="12.00">bool CorridorRoomConnection</text>
<text text-anchor="start" x="16.5" y="-179.4" font-family="Consolas" font-size="12.00">Valid(Room roomA, Room roomB,</text>
<text text-anchor="start" x="16.5" y="-166.4" font-family="Consolas" font-size="12.00"> Vector2Int from, Vector2Int to)</text>
<text text-anchor="start" x="4.5" y="-149.4" font-family="Consolas" font-size="12.00">&#45;</text>
<text text-anchor="start" x="16.5" y="-149.4" font-family="Consolas" font-size="12.00">bool AreRoomsConnectedThrough</text>
<text text-anchor="start" x="16.5" y="-136.4" font-family="Consolas" font-size="12.00">Doors(Room roomA, Room roomB,</text>
<text text-anchor="start" x="16.5" y="-123.4" font-family="Consolas" font-size="12.00"> Vector2Int from, Vector2Int to)</text>
<text text-anchor="start" x="4.5" y="-106.4" font-family="Consolas" font-size="12.00">&#45;</text>
<text text-anchor="start" x="16.5" y="-106.4" font-family="Consolas" font-size="12.00">bool DoorPositionMatch</text>
<text text-anchor="start" x="16.5" y="-93.4" font-family="Consolas" font-size="12.00">(Vector2Int doorPosA,</text>
<text text-anchor="start" x="16.5" y="-80.4" font-family="Consolas" font-size="12.00"> DoorDirection dirA, Vector2Int</text>
<text text-anchor="start" x="16.5" y="-67.4" font-family="Consolas" font-size="12.00"> doorPosB, DoorDirection dirB)</text>
<text text-anchor="start" x="4.5" y="-50.4" font-family="Consolas" font-size="12.00">&#45;</text>
<text text-anchor="start" x="16.5" y="-50.4" font-family="Consolas" font-size="12.00">Vector2Int GetDirectionOffset</text>
<text text-anchor="start" x="16.5" y="-37.4" font-family="Consolas" font-size="12.00">(DoorDirection dir)</text>
<text text-anchor="start" x="4.5" y="-20.4" font-family="Consolas" font-size="12.00">&#45;</text>
<text text-anchor="start" x="16.5" y="-20.4" font-family="Consolas" font-size="12.00">DoorDirection GetOpposite</text>
<text text-anchor="start" x="16.5" y="-7.4" font-family="Consolas" font-size="12.00">DoorDirection(DoorDirection dir)</text>
<polygon fill="#666666" stroke="#666666" points="0.5,-401 0.5,-401 261.5,-401 261.5,-401 0.5,-401"/>
<polygon fill="#666666" stroke="#666666" points="0.5,-324 0.5,-324 14.5,-324 14.5,-324 0.5,-324"/>
<polygon fill="#666666" stroke="#666666" points="14.5,-324 14.5,-324 261.5,-324 261.5,-324 14.5,-324"/>
<polygon fill="none" stroke="#666666" points="0,0 0,-420 261,-420 261,0 0,0"/>
</a>
</g>
</g>
<!-- Node2 -->
<g id="Node000002" class="node">
<title>Node2</title>
<g id="a_Node000002"><a xlink:title=" ">
<polygon fill="white" stroke="transparent" points="184.5,-511 76.5,-511 76.5,-456 184.5,-456 184.5,-511"/>
<text text-anchor="start" x="81.5" y="-496.9" font-family="Consolas" font-size="12.00">MonoBehaviour</text>
<text text-anchor="start" x="126.5" y="-479.9" font-family="Consolas" font-size="12.00"> </text>
<text text-anchor="start" x="126.5" y="-462.9" font-family="Consolas" font-size="12.00"> </text>
<polygon fill="#bfbfbf" stroke="#bfbfbf" points="76.5,-491.5 76.5,-491.5 184.5,-491.5 184.5,-491.5 76.5,-491.5"/>
<polygon fill="#bfbfbf" stroke="#bfbfbf" points="76.5,-474.5 76.5,-474.5 184.5,-474.5 184.5,-474.5 76.5,-474.5"/>
<polygon fill="none" stroke="#bfbfbf" points="76.5,-456 76.5,-511 184.5,-511 184.5,-456 76.5,-456"/>
</a>
</g>
</g>
<!-- Node2&#45;&gt;Node1 -->
<g id="edge1_Node000001_Node000002" class="edge">
<title>Node2&#45;&gt;Node1</title>
<g id="a_edge1_Node000001_Node000002"><a xlink:title=" ">
<path fill="none" stroke="#63b8ff" d="M130.5,-445.74C130.5,-438.05 130.5,-429.43 130.5,-420.15"/>
<polygon fill="none" stroke="#63b8ff" points="127,-445.97 130.5,-455.97 134,-445.97 127,-445.97"/>
</a>
</g>
</g>
</g>
</svg>

<g id="navigator" transform="translate(0 0)" fill="#404254">
  <rect fill="#f2f5e9" fill-opacity="0.5" stroke="#606060" stroke-width=".5" x="0" y="0" width="60" height="60"/>
  <use id="zoomplus" xlink:href="#zoomPlus" x="17" y="9" onmousedown="handleZoom(evt,'in')"/>
  <use id="zoomminus" xlink:href="#zoomMin" x="42" y="9" onmousedown="handleZoom(evt,'out')"/>
  <use id="reset" xlink:href="#resetDef" x="30" y="36" onmousedown="handleReset()"/>
   <use id="arrowup" xlink:href="#arrowUp" x="0" y="0" onmousedown="handlePan(0,-1)"/>
  <use id="arrowright" xlink:href="#arrowRight" x="0" y="0" onmousedown="handlePan(1,0)"/>
  <use id="arrowdown" xlink:href="#arrowDown" x="0" y="0" onmousedown="handlePan(0,1)"/>
  <use id="arrowleft" xlink:href="#arrowLeft" x="0" y="0" onmousedown="handlePan(-1,0)"/>
</g>
<svg viewBox="0 0 15 15" width="100%" height="30px" preserveAspectRatio="xMaxYMin meet">
 <g id="arrow_out" transform="scale(0.3 0.3)">
  <a xlink:href="classCrewMovementValidator__inherit__graph_org.svg" target="_base">
   <rect id="button" ry="5" rx="5" y="6" x="6" height="38" width="38"
        fill="#f2f5e9" fill-opacity="0.5" stroke="#606060" stroke-width="1.0"/>
   <path id="arrow"
     d="M 11.500037,31.436501 C 11.940474,20.09759 22.043105,11.32322 32.158766,21.979434 L 37.068811,17.246167 C 37.068811,17.246167 37.088388,32 37.088388,32 L 22.160133,31.978069 C 22.160133,31.978069 26.997745,27.140456 26.997745,27.140456 C 18.528582,18.264221 13.291696,25.230495 11.500037,31.436501 z"
     style="fill:#404040;"/>
  </a>
 </g>
</svg>

<style type='text/css'>
<![CDATA[
[data-mouse-over-selected='false'] { opacity: 0.7; }
[data-mouse-over-selected='true']  { opacity: 1.0; }
]]>
</style>
<script type="application/ecmascript"><![CDATA[
document.addEventListener('DOMContentLoaded', (event) => {
  highlightEdges();
  highlightAdjacentNodes();
});
]]></script>
</svg>
