<?xml version="1.0" encoding="UTF-8" standalone="no"?>
<!DOCTYPE svg PUBLIC "-//W3C//DTD SVG 1.1//EN"
 "http://www.w3.org/Graphics/SVG/1.1/DTD/svg11.dtd">
<!-- Generated by graphviz version 2.43.0 (0)
 -->
<!-- Title: BlueprintSlotManager.GetOccupiedTiles Pages: 1 -->
<svg width="978pt" height="94pt"
 viewBox="0.00 0.00 978.00 94.00" xmlns="http://www.w3.org/2000/svg" xmlns:xlink="http://www.w3.org/1999/xlink">
<g id="graph0" class="graph" transform="scale(1 1) rotate(0) translate(4 90)">
<title>BlueprintSlotManager.GetOccupiedTiles</title>
<!-- Node1 -->
<g id="Node000001" class="node">
<title>Node1</title>
<g id="a_Node000001"><a xlink:title="도안의 점유 타일 호출">
<polygon fill="#999999" stroke="#666666" points="970,-60 773,-60 773,-26 970,-26 970,-60"/>
<text text-anchor="start" x="781" y="-46.4" font-family="Consolas" font-size="12.00">BlueprintSlotManager.Get</text>
<text text-anchor="middle" x="871.5" y="-33.4" font-family="Consolas" font-size="12.00">OccupiedTiles</text>
</a>
</g>
</g>
<!-- Node2 -->
<g id="Node000002" class="node">
<title>Node2</title>
<g id="a_Node000002"><a xlink:href="classCustomize__1__Controller.html#a765b5d6af2c3ccd94e113c0d3bc1a6fa" target="_top" xlink:title="클릭한 슬롯 도안 호출">
<polygon fill="white" stroke="#666666" points="737,-60 503,-60 503,-26 737,-26 737,-60"/>
<text text-anchor="start" x="511" y="-46.4" font-family="Consolas" font-size="12.00">Customize_1_Controller.Reload</text>
<text text-anchor="middle" x="620" y="-33.4" font-family="Consolas" font-size="12.00">BlueprintFromSlot</text>
</a>
</g>
</g>
<!-- Node1&#45;&gt;Node2 -->
<g id="edge1_Node000001_Node000002" class="edge">
<title>Node1&#45;&gt;Node2</title>
<g id="a_edge1_Node000001_Node000002"><a xlink:title=" ">
<path fill="none" stroke="#63b8ff" d="M762.7,-43C754.23,-43 745.65,-43 737.13,-43"/>
<polygon fill="#63b8ff" stroke="#63b8ff" points="762.96,-46.5 772.96,-43 762.96,-39.5 762.96,-46.5"/>
</a>
</g>
</g>
<!-- Node3 -->
<g id="Node000003" class="node">
<title>Node3</title>
<g id="a_Node000003"><a xlink:href="classCustomize__0__Controller.html#aa717dd688aeccaaa6ea9db66d5b85cda" target="_top" xlink:title="도안 편집">
<polygon fill="white" stroke="#666666" points="467,-86 263,-86 263,-52 467,-52 467,-86"/>
<text text-anchor="start" x="271" y="-72.4" font-family="Consolas" font-size="12.00">Customize_0_Controller.On</text>
<text text-anchor="middle" x="365" y="-59.4" font-family="Consolas" font-size="12.00">ClickEdit</text>
</a>
</g>
</g>
<!-- Node2&#45;&gt;Node3 -->
<g id="edge2_Node000002_Node000003" class="edge">
<title>Node2&#45;&gt;Node3</title>
<g id="a_edge2_Node000002_Node000003"><a xlink:title=" ">
<path fill="none" stroke="#63b8ff" d="M492.76,-55.97C484.15,-56.86 475.53,-57.74 467.07,-58.61"/>
<polygon fill="#63b8ff" stroke="#63b8ff" points="493.28,-59.44 502.87,-54.93 492.56,-52.48 493.28,-59.44"/>
</a>
</g>
</g>
<!-- Node5 -->
<g id="Node000005" class="node">
<title>Node5</title>
<g id="a_Node000005"><a xlink:href="classCustomize__1__Controller.html#aa35f4f305d8242a209520c05d6c3a2d9" target="_top" xlink:title="CustomizeShipUI 활성화 시 아래 작업 수행 : 그리드 생성 및 그리드 저장 오브젝트 활성화 작업하던 설계도 방 호출, 배치 카메라 중앙값 세팅">
<polygon fill="white" stroke="#666666" points="467,-34 263,-34 263,0 467,0 467,-34"/>
<text text-anchor="start" x="271" y="-20.4" font-family="Consolas" font-size="12.00">Customize_1_Controller.On</text>
<text text-anchor="middle" x="365" y="-7.4" font-family="Consolas" font-size="12.00">Enable</text>
</a>
</g>
</g>
<!-- Node2&#45;&gt;Node5 -->
<g id="edge4_Node000002_Node000005" class="edge">
<title>Node2&#45;&gt;Node5</title>
<g id="a_edge4_Node000002_Node000005"><a xlink:title=" ">
<path fill="none" stroke="#63b8ff" d="M492.76,-30.03C484.15,-29.14 475.53,-28.26 467.07,-27.39"/>
<polygon fill="#63b8ff" stroke="#63b8ff" points="492.56,-33.52 502.87,-31.07 493.28,-26.56 492.56,-33.52"/>
</a>
</g>
</g>
<!-- Node4 -->
<g id="Node000004" class="node">
<title>Node4</title>
<g id="a_Node000004"><a xlink:href="classCustomize__0__Controller.html#a9a5c64825556b732c13268f61d9893db" target="_top" xlink:title="button 클릭 함수 연결">
<polygon fill="white" stroke="#666666" points="227,-79.5 0,-79.5 0,-58.5 227,-58.5 227,-79.5"/>
<text text-anchor="middle" x="113.5" y="-65.9" font-family="Consolas" font-size="12.00">Customize_0_Controller.Start</text>
</a>
</g>
</g>
<!-- Node3&#45;&gt;Node4 -->
<g id="edge3_Node000003_Node000004" class="edge">
<title>Node3&#45;&gt;Node4</title>
<g id="a_edge3_Node000003_Node000004"><a xlink:title=" ">
<path fill="none" stroke="#63b8ff" d="M252.63,-69C244.18,-69 235.65,-69 227.19,-69"/>
<polygon fill="#63b8ff" stroke="#63b8ff" points="252.88,-72.5 262.88,-69 252.88,-65.5 252.88,-72.5"/>
</a>
</g>
</g>
</g>
</svg>
