<?xml version="1.0" encoding="UTF-8" standalone="no"?>
<!DOCTYPE svg PUBLIC "-//W3C//DTD SVG 1.1//EN"
 "http://www.w3.org/Graphics/SVG/1.1/DTD/svg11.dtd">
<!-- Generated by graphviz version 2.43.0 (0)
 -->
<!-- Title: EnemyShipFactory Pages: 1 -->
<svg width="276pt" height="455pt"
 viewBox="0.00 0.00 276.00 455.00" xmlns="http://www.w3.org/2000/svg" xmlns:xlink="http://www.w3.org/1999/xlink">
<g id="graph0" class="graph" transform="scale(1 1) rotate(0) translate(4 451)">
<title>EnemyShipFactory</title>
<!-- Node1 -->
<g id="Node000001" class="node">
<title>Node1</title>
<g id="a_Node000001"><a xlink:title="템플릿을 기반으로 해적선을 생성하는 유틸리티 클래스">
<polygon fill="#999999" stroke="transparent" points="268,-356 0,-356 0,0 268,0 268,-356"/>
<text text-anchor="start" x="73.5" y="-342.4" font-family="Consolas" font-size="12.00">EnemyShipFactory</text>
<text text-anchor="start" x="4" y="-325.4" font-family="Consolas" font-size="12.00">&#45;</text>
<text text-anchor="start" x="16" y="-325.4" font-family="Consolas" font-size="12.00">EnemyShipDatabase shipDatabase</text>
<text text-anchor="start" x="4" y="-308.4" font-family="Consolas" font-size="12.00">+</text>
<text text-anchor="start" x="16" y="-308.4" font-family="Consolas" font-size="12.00">Ship SpawnPirateShip</text>
<text text-anchor="start" x="16" y="-295.4" font-family="Consolas" font-size="12.00">(string templateName,</text>
<text text-anchor="start" x="16" y="-282.4" font-family="Consolas" font-size="12.00"> Vector2Int position=new())</text>
<text text-anchor="start" x="4" y="-265.4" font-family="Consolas" font-size="12.00">&#45;</text>
<text text-anchor="start" x="16" y="-265.4" font-family="Consolas" font-size="12.00">Ship FindShipByName</text>
<text text-anchor="start" x="16" y="-252.4" font-family="Consolas" font-size="12.00">(string shipName)</text>
<text text-anchor="start" x="4" y="-235.4" font-family="Consolas" font-size="12.00">&#45;</text>
<text text-anchor="start" x="16" y="-235.4" font-family="Consolas" font-size="12.00">Ship CreateDefaultShip</text>
<text text-anchor="start" x="16" y="-222.4" font-family="Consolas" font-size="12.00">(EnemyShipTemplate template,</text>
<text text-anchor="start" x="16" y="-209.4" font-family="Consolas" font-size="12.00"> Vector2Int position)</text>
<text text-anchor="start" x="4" y="-192.4" font-family="Consolas" font-size="12.00">&#45;</text>
<text text-anchor="start" x="16" y="-192.4" font-family="Consolas" font-size="12.00">void ApplyDefaultShipSettings</text>
<text text-anchor="start" x="16" y="-179.4" font-family="Consolas" font-size="12.00">(Ship ship)</text>
<text text-anchor="start" x="4" y="-162.4" font-family="Consolas" font-size="12.00">&#45;</text>
<text text-anchor="start" x="16" y="-162.4" font-family="Consolas" font-size="12.00">static void GeneratePirate</text>
<text text-anchor="start" x="16" y="-149.4" font-family="Consolas" font-size="12.00">Crew(Ship ship, EnemyShipTemplate</text>
<text text-anchor="start" x="16" y="-136.4" font-family="Consolas" font-size="12.00"> template)</text>
<text text-anchor="start" x="4" y="-119.4" font-family="Consolas" font-size="12.00">&#45;</text>
<text text-anchor="start" x="16" y="-119.4" font-family="Consolas" font-size="12.00">static CrewRace SelectRace</text>
<text text-anchor="start" x="16" y="-106.4" font-family="Consolas" font-size="12.00">(List&lt; CrewRaceOption &gt;</text>
<text text-anchor="start" x="16" y="-93.4" font-family="Consolas" font-size="12.00"> options, List&lt; CrewRace</text>
<text text-anchor="start" x="16" y="-80.4" font-family="Consolas" font-size="12.00"> &gt; usedRaces)</text>
<text text-anchor="start" x="4" y="-63.4" font-family="Consolas" font-size="12.00">&#45;</text>
<text text-anchor="start" x="16" y="-63.4" font-family="Consolas" font-size="12.00">static CrewRace Weighted</text>
<text text-anchor="start" x="16" y="-50.4" font-family="Consolas" font-size="12.00">RandomRace(List&lt; CrewRaceOption</text>
<text text-anchor="start" x="16" y="-37.4" font-family="Consolas" font-size="12.00"> &gt; options)</text>
<text text-anchor="start" x="4" y="-20.4" font-family="Consolas" font-size="12.00">&#45;</text>
<text text-anchor="start" x="16" y="-20.4" font-family="Consolas" font-size="12.00">static string GeneratePirate</text>
<text text-anchor="start" x="16" y="-7.4" font-family="Consolas" font-size="12.00">Name(CrewRace race)</text>
<polygon fill="#666666" stroke="#666666" points="0,-337 0,-337 268,-337 268,-337 0,-337"/>
<polygon fill="#666666" stroke="#666666" points="0,-320 0,-320 14,-320 14,-320 0,-320"/>
<polygon fill="#666666" stroke="#666666" points="14,-320 14,-320 268,-320 268,-320 14,-320"/>
<polygon fill="none" stroke="#666666" points="0,0 0,-356 268,-356 268,0 0,0"/>
</a>
</g>
</g>
<!-- Node2 -->
<g id="Node000002" class="node">
<title>Node2</title>
<g id="a_Node000002"><a xlink:title=" ">
<polygon fill="white" stroke="transparent" points="188,-447 80,-447 80,-392 188,-392 188,-447"/>
<text text-anchor="start" x="85" y="-432.9" font-family="Consolas" font-size="12.00">MonoBehaviour</text>
<text text-anchor="start" x="130" y="-415.9" font-family="Consolas" font-size="12.00"> </text>
<text text-anchor="start" x="130" y="-398.9" font-family="Consolas" font-size="12.00"> </text>
<polygon fill="#bfbfbf" stroke="#bfbfbf" points="80,-427.5 80,-427.5 188,-427.5 188,-427.5 80,-427.5"/>
<polygon fill="#bfbfbf" stroke="#bfbfbf" points="80,-410.5 80,-410.5 188,-410.5 188,-410.5 80,-410.5"/>
<polygon fill="none" stroke="#bfbfbf" points="80,-392 80,-447 188,-447 188,-392 80,-392"/>
</a>
</g>
</g>
<!-- Node2&#45;&gt;Node1 -->
<g id="edge1_Node000001_Node000002" class="edge">
<title>Node2&#45;&gt;Node1</title>
<g id="a_edge1_Node000001_Node000002"><a xlink:title=" ">
<path fill="none" stroke="#63b8ff" d="M134,-381.69C134,-373.99 134,-365.38 134,-356.18"/>
<polygon fill="none" stroke="#63b8ff" points="130.5,-381.95 134,-391.95 137.5,-381.95 130.5,-381.95"/>
</a>
</g>
</g>
</g>
</svg>
