<?xml version="1.0" encoding="UTF-8" standalone="no"?>
<!DOCTYPE svg PUBLIC "-//W3C//DTD SVG 1.1//EN"
 "http://www.w3.org/Graphics/SVG/1.1/DTD/svg11.dtd">
<!-- Generated by graphviz version 2.43.0 (0)
 -->
<!-- Title: HitPointSystem.ChangeHitPoint Pages: 1 -->
<svg width="566pt" height="42pt"
 viewBox="0.00 0.00 566.00 42.00" xmlns="http://www.w3.org/2000/svg" xmlns:xlink="http://www.w3.org/1999/xlink">
<g id="graph0" class="graph" transform="scale(1 1) rotate(0) translate(4 38)">
<title>HitPointSystem.ChangeHitPoint</title>
<!-- Node1 -->
<g id="Node000001" class="node">
<title>Node1</title>
<g id="a_Node000001"><a xlink:title="체력을 변경합니다. 양수이면 회복, 음수이면 피해를 의미합니다. 최대 체력을 초과하지 않으며, 0 아래로 내려가지 않습니다.">
<polygon fill="#999999" stroke="#666666" points="197,-34 0,-34 0,0 197,0 197,-34"/>
<text text-anchor="start" x="8" y="-20.4" font-family="Consolas" font-size="12.00">HitPointSystem.ChangeHit</text>
<text text-anchor="middle" x="98.5" y="-7.4" font-family="Consolas" font-size="12.00">Point</text>
</a>
</g>
</g>
<!-- Node2 -->
<g id="Node000002" class="node">
<title>Node2</title>
<g id="a_Node000002"><a xlink:href="classShipSystem.html#a0c4c206aa7e875dc6810ea122e46b332" target="_top" xlink:title="현재 함선의 특정 스탯 값을 가져옵니다.">
<polygon fill="white" stroke="#666666" points="415,-27.5 233,-27.5 233,-6.5 415,-6.5 415,-27.5"/>
<text text-anchor="middle" x="324" y="-13.9" font-family="Consolas" font-size="12.00">ShipSystem.GetShipStat</text>
</a>
</g>
</g>
<!-- Node1&#45;&gt;Node2 -->
<g id="edge1_Node000001_Node000002" class="edge">
<title>Node1&#45;&gt;Node2</title>
<g id="a_edge1_Node000001_Node000002"><a xlink:title=" ">
<path fill="none" stroke="#63b8ff" d="M197.21,-17C205.64,-17 214.18,-17 222.64,-17"/>
<polygon fill="#63b8ff" stroke="#63b8ff" points="222.89,-20.5 232.89,-17 222.89,-13.5 222.89,-20.5"/>
</a>
</g>
</g>
<!-- Node3 -->
<g id="Node000003" class="node">
<title>Node3</title>
<g id="a_Node000003"><a xlink:href="classShip.html#a080a77bc4aa01fd3e5b2561cb5317eca" target="_top" xlink:title="특정 스탯 값을 반환합니다.">
<polygon fill="white" stroke="#666666" points="558,-27.5 451,-27.5 451,-6.5 558,-6.5 558,-27.5"/>
<text text-anchor="middle" x="504.5" y="-13.9" font-family="Consolas" font-size="12.00">Ship.GetStat</text>
</a>
</g>
</g>
<!-- Node2&#45;&gt;Node3 -->
<g id="edge2_Node000002_Node000003" class="edge">
<title>Node2&#45;&gt;Node3</title>
<g id="a_edge2_Node000002_Node000003"><a xlink:title=" ">
<path fill="none" stroke="#63b8ff" d="M415.03,-17C423.78,-17 432.52,-17 440.91,-17"/>
<polygon fill="#63b8ff" stroke="#63b8ff" points="440.95,-20.5 450.95,-17 440.95,-13.5 440.95,-20.5"/>
</a>
</g>
</g>
</g>
</svg>
