<?xml version="1.0" encoding="UTF-8" standalone="no"?>
<!DOCTYPE svg PUBLIC "-//W3C//DTD SVG 1.1//EN"
 "http://www.w3.org/Graphics/SVG/1.1/DTD/svg11.dtd">
<!-- Generated by graphviz version 2.43.0 (0)
 -->
<!-- Title: QuestListItem Pages: 1 -->
<!--zoomable 469 -->

<svg id="main" version="1.1" xmlns="http://www.w3.org/2000/svg" xmlns:xlink="http://www.w3.org/1999/xlink" xml:space="preserve" onload="init(evt)">
<style type="text/css"><![CDATA[
.node, .edge {opacity: 0.7;}
.node.selected, .edge.selected {opacity: 1;}
.edge:hover path { stroke: red; }
.edge:hover polygon { stroke: red; fill: red; }
]]></style>

<defs>
  <circle id="rim" cx="0" cy="0" r="7"/>
  <circle id="rim2" cx="0" cy="0" r="3.5"/>
  <g id="zoomPlus">
    <use xlink:href="#rim" fill="#404040"><set attributeName="fill" to="#808080" begin="zoomplus.mouseover" end="zoomplus.mouseout"/></use>
    <path d="M-4,0h8M0,-4v8" fill="none" stroke="white" stroke-width="1.5" pointer-events="none"/>
  </g>
  <g id="zoomMin">
    <use xlink:href="#rim" fill="#404040"><set attributeName="fill" to="#808080" begin="zoomminus.mouseover" end="zoomminus.mouseout"/></use>
    <path d="M-4,0h8" fill="none" stroke="white" stroke-width="1.5" pointer-events="none"/>
  </g>
  <g id="arrowUp" transform="translate(30 24)">
    <use xlink:href="#rim"/>
    <path pointer-events="none" fill="none" stroke="white" stroke-width="1.5" d="M0,-3.0v7 M-2.5,-0.5L0,-3.0L2.5,-0.5"/>
  </g>
  <g id="arrowRight" transform="rotate(90) translate(36 -43)">
    <use xlink:href="#rim"/>
    <path pointer-events="none" fill="none" stroke="white" stroke-width="1.5" d="M0,-3.0v7 M-2.5,-0.5L0,-3.0L2.5,-0.5"/>
  </g>
  <g id="arrowDown" transform="rotate(180) translate(-30 -48)">
    <use xlink:href="#rim"/>
    <path pointer-events="none" fill="none" stroke="white" stroke-width="1.5" d="M0,-3.0v7 M-2.5,-0.5L0,-3.0L2.5,-0.5"/>
  </g>
  <g id="arrowLeft" transform="rotate(270) translate(-36 17)">
    <use xlink:href="#rim"/>
    <path pointer-events="none" fill="none" stroke="white" stroke-width="1.5" d="M0,-3.0v7 M-2.5,-0.5L0,-3.0L2.5,-0.5"/>
  </g>
  <g id="resetDef">
    <use xlink:href="#rim2" fill="#404040"><set attributeName="fill" to="#808080" begin="reset.mouseover" end="reset.mouseout"/></use>
  </g>
</defs>
<script type="application/ecmascript">
var viewWidth = 254;
var viewHeight = 469;
var sectionId = 'dynsection-0';
</script>
<script type="application/ecmascript" xlink:href="svg.min.js"/>
<svg id="graph" class="graph">
<g id="viewport">
<title>QuestListItem</title>
<!-- Node1 -->
<g id="Node000001" class="node">
<title>Node1</title>
<g id="a_Node000001"><a xlink:title=" ">
<polygon fill="#999999" stroke="transparent" points="246,-370 0,-370 0,0 246,0 246,-370"/>
<text text-anchor="start" x="74" y="-356.4" font-family="Consolas" font-size="12.00">QuestListItem</text>
<text text-anchor="start" x="4" y="-339.4" font-family="Consolas" font-size="12.00">+</text>
<text text-anchor="start" x="16" y="-339.4" font-family="Consolas" font-size="12.00">RandomQuest questInfo</text>
<text text-anchor="start" x="4" y="-322.4" font-family="Consolas" font-size="12.00">+</text>
<text text-anchor="start" x="16" y="-322.4" font-family="Consolas" font-size="12.00">QuestList questList</text>
<text text-anchor="start" x="4" y="-305.4" font-family="Consolas" font-size="12.00">+</text>
<text text-anchor="start" x="16" y="-305.4" font-family="Consolas" font-size="12.00">TextMeshProUGUI title</text>
<text text-anchor="start" x="4" y="-288.4" font-family="Consolas" font-size="12.00">+</text>
<text text-anchor="start" x="16" y="-288.4" font-family="Consolas" font-size="12.00">Image planetImage</text>
<text text-anchor="start" x="4" y="-271.4" font-family="Consolas" font-size="12.00">+</text>
<text text-anchor="start" x="16" y="-271.4" font-family="Consolas" font-size="12.00">TextMeshProUGUI description</text>
<text text-anchor="start" x="4" y="-254.4" font-family="Consolas" font-size="12.00">+</text>
<text text-anchor="start" x="16" y="-254.4" font-family="Consolas" font-size="12.00">TextMeshProUGUI destination</text>
<text text-anchor="start" x="4" y="-237.4" font-family="Consolas" font-size="12.00">+</text>
<text text-anchor="start" x="16" y="-237.4" font-family="Consolas" font-size="12.00">TextMeshProUGUI reward</text>
<text text-anchor="start" x="4" y="-220.4" font-family="Consolas" font-size="12.00">&#45;</text>
<text text-anchor="start" x="16" y="-220.4" font-family="Consolas" font-size="12.00">Image backPanel</text>
<text text-anchor="start" x="4" y="-203.4" font-family="Consolas" font-size="12.00">&#45;</text>
<text text-anchor="start" x="16" y="-203.4" font-family="Consolas" font-size="12.00">Button buttonAccpet</text>
<text text-anchor="start" x="4" y="-186.4" font-family="Consolas" font-size="12.00">&#45;</text>
<text text-anchor="start" x="16" y="-186.4" font-family="Consolas" font-size="12.00">Button buttonComplete</text>
<text text-anchor="start" x="4" y="-169.4" font-family="Consolas" font-size="12.00">&#45;</text>
<text text-anchor="start" x="16" y="-169.4" font-family="Consolas" font-size="12.00">Button buttonDecline</text>
<text text-anchor="start" x="4" y="-152.4" font-family="Consolas" font-size="12.00">&#45;</text>
<text text-anchor="start" x="16" y="-152.4" font-family="Consolas" font-size="12.00">PlanetData currentPlanet</text>
<text text-anchor="start" x="4" y="-135.4" font-family="Consolas" font-size="12.00">+</text>
<text text-anchor="start" x="16" y="-135.4" font-family="Consolas" font-size="12.00">void OnAcceptButtonClicked()</text>
<text text-anchor="start" x="4" y="-118.4" font-family="Consolas" font-size="12.00">+</text>
<text text-anchor="start" x="16" y="-118.4" font-family="Consolas" font-size="12.00">void OnCompleteButtonClicked()</text>
<text text-anchor="start" x="4" y="-101.4" font-family="Consolas" font-size="12.00">+</text>
<text text-anchor="start" x="16" y="-101.4" font-family="Consolas" font-size="12.00">void OnDeclineButtonClicked()</text>
<text text-anchor="start" x="4" y="-84.4" font-family="Consolas" font-size="12.00">+</text>
<text text-anchor="start" x="16" y="-84.4" font-family="Consolas" font-size="12.00">void UpdateItem()</text>
<text text-anchor="start" x="4" y="-67.4" font-family="Consolas" font-size="12.00">&#45;</text>
<text text-anchor="start" x="16" y="-67.4" font-family="Consolas" font-size="12.00">void Start()</text>
<text text-anchor="start" x="4" y="-50.4" font-family="Consolas" font-size="12.00">&#45;</text>
<text text-anchor="start" x="16" y="-50.4" font-family="Consolas" font-size="12.00">IEnumerator CheckItemQuests</text>
<text text-anchor="start" x="16" y="-37.4" font-family="Consolas" font-size="12.00">Delayed()</text>
<text text-anchor="start" x="4" y="-20.4" font-family="Consolas" font-size="12.00">&#45;</text>
<text text-anchor="start" x="16" y="-20.4" font-family="Consolas" font-size="12.00">void ButtonActivate</text>
<text text-anchor="start" x="16" y="-7.4" font-family="Consolas" font-size="12.00">(Button whichButton)</text>
<polygon fill="#666666" stroke="#666666" points="0,-351 0,-351 246,-351 246,-351 0,-351"/>
<polygon fill="#666666" stroke="#666666" points="0,-147 0,-147 14,-147 14,-147 0,-147"/>
<polygon fill="#666666" stroke="#666666" points="14,-147 14,-147 246,-147 246,-147 14,-147"/>
<polygon fill="none" stroke="#666666" points="0,0 0,-370 246,-370 246,0 0,0"/>
</a>
</g>
</g>
<!-- Node2 -->
<g id="Node000002" class="node">
<title>Node2</title>
<g id="a_Node000002"><a xlink:title=" ">
<polygon fill="white" stroke="transparent" points="177,-461 69,-461 69,-406 177,-406 177,-461"/>
<text text-anchor="start" x="74" y="-446.9" font-family="Consolas" font-size="12.00">MonoBehaviour</text>
<text text-anchor="start" x="119" y="-429.9" font-family="Consolas" font-size="12.00"> </text>
<text text-anchor="start" x="119" y="-412.9" font-family="Consolas" font-size="12.00"> </text>
<polygon fill="#bfbfbf" stroke="#bfbfbf" points="69,-441.5 69,-441.5 177,-441.5 177,-441.5 69,-441.5"/>
<polygon fill="#bfbfbf" stroke="#bfbfbf" points="69,-424.5 69,-424.5 177,-424.5 177,-424.5 69,-424.5"/>
<polygon fill="none" stroke="#bfbfbf" points="69,-406 69,-461 177,-461 177,-406 69,-406"/>
</a>
</g>
</g>
<!-- Node2&#45;&gt;Node1 -->
<g id="edge1_Node000001_Node000002" class="edge">
<title>Node2&#45;&gt;Node1</title>
<g id="a_edge1_Node000001_Node000002"><a xlink:title=" ">
<path fill="none" stroke="#63b8ff" d="M123,-395.47C123,-387.82 123,-379.3 123,-370.17"/>
<polygon fill="none" stroke="#63b8ff" points="119.5,-395.65 123,-405.65 126.5,-395.65 119.5,-395.65"/>
</a>
</g>
</g>
</g>
</svg>

<g id="navigator" transform="translate(0 0)" fill="#404254">
  <rect fill="#f2f5e9" fill-opacity="0.5" stroke="#606060" stroke-width=".5" x="0" y="0" width="60" height="60"/>
  <use id="zoomplus" xlink:href="#zoomPlus" x="17" y="9" onmousedown="handleZoom(evt,'in')"/>
  <use id="zoomminus" xlink:href="#zoomMin" x="42" y="9" onmousedown="handleZoom(evt,'out')"/>
  <use id="reset" xlink:href="#resetDef" x="30" y="36" onmousedown="handleReset()"/>
   <use id="arrowup" xlink:href="#arrowUp" x="0" y="0" onmousedown="handlePan(0,-1)"/>
  <use id="arrowright" xlink:href="#arrowRight" x="0" y="0" onmousedown="handlePan(1,0)"/>
  <use id="arrowdown" xlink:href="#arrowDown" x="0" y="0" onmousedown="handlePan(0,1)"/>
  <use id="arrowleft" xlink:href="#arrowLeft" x="0" y="0" onmousedown="handlePan(-1,0)"/>
</g>
<svg viewBox="0 0 15 15" width="100%" height="30px" preserveAspectRatio="xMaxYMin meet">
 <g id="arrow_out" transform="scale(0.3 0.3)">
  <a xlink:href="classQuestListItem__inherit__graph_org.svg" target="_base">
   <rect id="button" ry="5" rx="5" y="6" x="6" height="38" width="38"
        fill="#f2f5e9" fill-opacity="0.5" stroke="#606060" stroke-width="1.0"/>
   <path id="arrow"
     d="M 11.500037,31.436501 C 11.940474,20.09759 22.043105,11.32322 32.158766,21.979434 L 37.068811,17.246167 C 37.068811,17.246167 37.088388,32 37.088388,32 L 22.160133,31.978069 C 22.160133,31.978069 26.997745,27.140456 26.997745,27.140456 C 18.528582,18.264221 13.291696,25.230495 11.500037,31.436501 z"
     style="fill:#404040;"/>
  </a>
 </g>
</svg>

<style type='text/css'>
<![CDATA[
[data-mouse-over-selected='false'] { opacity: 0.7; }
[data-mouse-over-selected='true']  { opacity: 1.0; }
]]>
</style>
<script type="application/ecmascript"><![CDATA[
document.addEventListener('DOMContentLoaded', (event) => {
  highlightEdges();
  highlightAdjacentNodes();
});
]]></script>
</svg>
