<?xml version="1.0" encoding="UTF-8" standalone="no"?>
<!DOCTYPE svg PUBLIC "-//W3C//DTD SVG 1.1//EN"
 "http://www.w3.org/Graphics/SVG/1.1/DTD/svg11.dtd">
<!-- Generated by graphviz version 2.43.0 (0)
 -->
<!-- Title: BlueprintRoom.SetGridPlacer Pages: 1 -->
<svg width="1203pt" height="146pt"
 viewBox="0.00 0.00 1203.00 146.00" xmlns="http://www.w3.org/2000/svg" xmlns:xlink="http://www.w3.org/1999/xlink">
<g id="graph0" class="graph" transform="scale(1 1) rotate(0) translate(4 142)">
<title>BlueprintRoom.SetGridPlacer</title>
<!-- Node1 -->
<g id="Node000001" class="node">
<title>Node1</title>
<g id="a_Node000001"><a xlink:title="그리드 배치 담당 오브젝트 세팅">
<polygon fill="#999999" stroke="#666666" points="1195,-105.5 976,-105.5 976,-84.5 1195,-84.5 1195,-105.5"/>
<text text-anchor="middle" x="1085.5" y="-91.9" font-family="Consolas" font-size="12.00">BlueprintRoom.SetGridPlacer</text>
</a>
</g>
</g>
<!-- Node2 -->
<g id="Node000002" class="node">
<title>Node2</title>
<g id="a_Node000002"><a xlink:href="classGridPlacer.html#a2392673a4205e76f004e252a493286b5" target="_top" xlink:title="실제 방을 해당 위치에 배치함">
<polygon fill="white" stroke="#666666" points="940,-105.5 773,-105.5 773,-84.5 940,-84.5 940,-105.5"/>
<text text-anchor="middle" x="856.5" y="-91.9" font-family="Consolas" font-size="12.00">GridPlacer.PlaceRoom</text>
</a>
</g>
</g>
<!-- Node1&#45;&gt;Node2 -->
<g id="edge1_Node000001_Node000002" class="edge">
<title>Node1&#45;&gt;Node2</title>
<g id="a_edge1_Node000001_Node000002"><a xlink:title=" ">
<path fill="none" stroke="#63b8ff" d="M965.79,-95C957.1,-95 948.46,-95 940.06,-95"/>
<polygon fill="#63b8ff" stroke="#63b8ff" points="965.99,-98.5 975.99,-95 965.99,-91.5 965.99,-98.5"/>
</a>
</g>
</g>
<!-- Node3 -->
<g id="Node000003" class="node">
<title>Node3</title>
<g id="a_Node000003"><a xlink:href="classCustomizeShipUIHandler.html#a0e012f81eef06ab83ffc84e3b5bee0e1" target="_top" xlink:title="기존에 작업중이던 설계도의 모든 방 데이터 호출 및 배치">
<polygon fill="white" stroke="#666666" points="726,-138 514,-138 514,-104 726,-104 726,-138"/>
<text text-anchor="start" x="522" y="-124.4" font-family="Consolas" font-size="12.00">CustomizeShipUIHandler.Get</text>
<text text-anchor="middle" x="620" y="-111.4" font-family="Consolas" font-size="12.00">SavedBPRooms</text>
</a>
</g>
</g>
<!-- Node2&#45;&gt;Node3 -->
<g id="edge2_Node000002_Node000003" class="edge">
<title>Node2&#45;&gt;Node3</title>
<g id="a_edge2_Node000002_Node000003"><a xlink:title=" ">
<path fill="none" stroke="#63b8ff" d="M762.85,-105.27C750.86,-106.6 738.52,-107.97 726.34,-109.32"/>
<polygon fill="#63b8ff" stroke="#63b8ff" points="763.27,-108.75 772.82,-104.17 762.5,-101.79 763.27,-108.75"/>
</a>
</g>
</g>
<!-- Node5 -->
<g id="Node000005" class="node">
<title>Node5</title>
<g id="a_Node000005"><a xlink:href="classCustomize__1__Controller.html#a765b5d6af2c3ccd94e113c0d3bc1a6fa" target="_top" xlink:title="클릭한 슬롯 도안 호출">
<polygon fill="white" stroke="#666666" points="737,-86 503,-86 503,-52 737,-52 737,-86"/>
<text text-anchor="start" x="511" y="-72.4" font-family="Consolas" font-size="12.00">Customize_1_Controller.Reload</text>
<text text-anchor="middle" x="620" y="-59.4" font-family="Consolas" font-size="12.00">BlueprintFromSlot</text>
</a>
</g>
</g>
<!-- Node2&#45;&gt;Node5 -->
<g id="edge4_Node000002_Node000005" class="edge">
<title>Node2&#45;&gt;Node5</title>
<g id="a_edge4_Node000002_Node000005"><a xlink:title=" ">
<path fill="none" stroke="#63b8ff" d="M762.65,-84.71C754.23,-83.77 745.63,-82.82 737.04,-81.87"/>
<polygon fill="#63b8ff" stroke="#63b8ff" points="762.5,-88.21 772.82,-85.83 763.27,-81.25 762.5,-88.21"/>
</a>
</g>
</g>
<!-- Node4 -->
<g id="Node000004" class="node">
<title>Node4</title>
<g id="a_Node000004"><a xlink:href="classCustomizeShipUIHandler.html#a8009ced414a77455de66da8173e46388" target="_top" xlink:title="CustomizeShipUI 활성화 시 아래 작업 수행 : 그리드 생성 및 그리드 저장 오브젝트 활성화 작업하던 설계도 방 호출, 배치 카메라 중앙값 세팅">
<polygon fill="white" stroke="#666666" points="467,-138 263,-138 263,-104 467,-104 467,-138"/>
<text text-anchor="start" x="271" y="-124.4" font-family="Consolas" font-size="12.00">CustomizeShipUIHandler.On</text>
<text text-anchor="middle" x="365" y="-111.4" font-family="Consolas" font-size="12.00">Enable</text>
</a>
</g>
</g>
<!-- Node3&#45;&gt;Node4 -->
<g id="edge3_Node000003_Node000004" class="edge">
<title>Node3&#45;&gt;Node4</title>
<g id="a_edge3_Node000003_Node000004"><a xlink:title=" ">
<path fill="none" stroke="#63b8ff" d="M503.69,-121C491.49,-121 479.14,-121 467.11,-121"/>
<polygon fill="#63b8ff" stroke="#63b8ff" points="503.9,-124.5 513.9,-121 503.9,-117.5 503.9,-124.5"/>
</a>
</g>
</g>
<!-- Node6 -->
<g id="Node000006" class="node">
<title>Node6</title>
<g id="a_Node000006"><a xlink:href="classCustomize__0__Controller.html#aa717dd688aeccaaa6ea9db66d5b85cda" target="_top" xlink:title="도안 편집">
<polygon fill="white" stroke="#666666" points="467,-86 263,-86 263,-52 467,-52 467,-86"/>
<text text-anchor="start" x="271" y="-72.4" font-family="Consolas" font-size="12.00">Customize_0_Controller.On</text>
<text text-anchor="middle" x="365" y="-59.4" font-family="Consolas" font-size="12.00">ClickEdit</text>
</a>
</g>
</g>
<!-- Node5&#45;&gt;Node6 -->
<g id="edge5_Node000005_Node000006" class="edge">
<title>Node5&#45;&gt;Node6</title>
<g id="a_edge5_Node000005_Node000006"><a xlink:title=" ">
<path fill="none" stroke="#63b8ff" d="M492.76,-69C484.15,-69 475.53,-69 467.07,-69"/>
<polygon fill="#63b8ff" stroke="#63b8ff" points="492.87,-72.5 502.87,-69 492.87,-65.5 492.87,-72.5"/>
</a>
</g>
</g>
<!-- Node8 -->
<g id="Node000008" class="node">
<title>Node8</title>
<g id="a_Node000008"><a xlink:href="classCustomize__1__Controller.html#aa35f4f305d8242a209520c05d6c3a2d9" target="_top" xlink:title="CustomizeShipUI 활성화 시 아래 작업 수행 : 그리드 생성 및 그리드 저장 오브젝트 활성화 작업하던 설계도 방 호출, 배치 카메라 중앙값 세팅">
<polygon fill="white" stroke="#666666" points="467,-34 263,-34 263,0 467,0 467,-34"/>
<text text-anchor="start" x="271" y="-20.4" font-family="Consolas" font-size="12.00">Customize_1_Controller.On</text>
<text text-anchor="middle" x="365" y="-7.4" font-family="Consolas" font-size="12.00">Enable</text>
</a>
</g>
</g>
<!-- Node5&#45;&gt;Node8 -->
<g id="edge7_Node000005_Node000008" class="edge">
<title>Node5&#45;&gt;Node8</title>
<g id="a_edge7_Node000005_Node000008"><a xlink:title=" ">
<path fill="none" stroke="#63b8ff" d="M526.21,-49.93C500.93,-44.73 473.72,-39.14 449.03,-34.06"/>
<polygon fill="#63b8ff" stroke="#63b8ff" points="525.66,-53.39 536.16,-51.97 527.07,-46.53 525.66,-53.39"/>
</a>
</g>
</g>
<!-- Node7 -->
<g id="Node000007" class="node">
<title>Node7</title>
<g id="a_Node000007"><a xlink:href="classCustomize__0__Controller.html#a9a5c64825556b732c13268f61d9893db" target="_top" xlink:title="button 클릭 함수 연결">
<polygon fill="white" stroke="#666666" points="227,-79.5 0,-79.5 0,-58.5 227,-58.5 227,-79.5"/>
<text text-anchor="middle" x="113.5" y="-65.9" font-family="Consolas" font-size="12.00">Customize_0_Controller.Start</text>
</a>
</g>
</g>
<!-- Node6&#45;&gt;Node7 -->
<g id="edge6_Node000006_Node000007" class="edge">
<title>Node6&#45;&gt;Node7</title>
<g id="a_edge6_Node000006_Node000007"><a xlink:title=" ">
<path fill="none" stroke="#63b8ff" d="M252.63,-69C244.18,-69 235.65,-69 227.19,-69"/>
<polygon fill="#63b8ff" stroke="#63b8ff" points="252.88,-72.5 262.88,-69 252.88,-65.5 252.88,-72.5"/>
</a>
</g>
</g>
</g>
</svg>
