<?xml version="1.0" encoding="UTF-8" standalone="no"?>
<!DOCTYPE svg PUBLIC "-//W3C//DTD SVG 1.1//EN"
 "http://www.w3.org/Graphics/SVG/1.1/DTD/svg11.dtd">
<!-- Generated by graphviz version 2.43.0 (0)
 -->
<!-- Title: EventTestTrigger Pages: 1 -->
<svg width="239pt" height="662pt"
 viewBox="0.00 0.00 239.00 662.00" xmlns="http://www.w3.org/2000/svg" xmlns:xlink="http://www.w3.org/1999/xlink">
<g id="graph0" class="graph" transform="scale(1 1) rotate(0) translate(4 658)">
<title>EventTestTrigger</title>
<!-- Node1 -->
<g id="Node000001" class="node">
<title>Node1</title>
<g id="a_Node000001"><a xlink:title="테스트용 버튼 입력 시 이벤트를 랜덤으로 발생시키는 트리거입니다.">
<polygon fill="#999999" stroke="transparent" points="231,-563 0,-563 0,0 231,0 231,-563"/>
<text text-anchor="start" x="55.5" y="-548.9" font-family="Consolas" font-size="12.00">EventTestTrigger</text>
<text text-anchor="start" x="4.5" y="-531.9" font-family="Consolas" font-size="12.00">&#45;</text>
<text text-anchor="start" x="16.5" y="-531.9" font-family="Consolas" font-size="12.00">EventManager eventManager</text>
<text text-anchor="start" x="4.5" y="-514.9" font-family="Consolas" font-size="12.00">&#45;</text>
<text text-anchor="start" x="16.5" y="-514.9" font-family="Consolas" font-size="12.00">int testYear</text>
<text text-anchor="start" x="4.5" y="-497.9" font-family="Consolas" font-size="12.00">&#45;</text>
<text text-anchor="start" x="16.5" y="-497.9" font-family="Consolas" font-size="12.00">int testCOMA</text>
<text text-anchor="start" x="4.5" y="-480.9" font-family="Consolas" font-size="12.00">&#45;</text>
<text text-anchor="start" x="16.5" y="-480.9" font-family="Consolas" font-size="12.00">float testFuel</text>
<text text-anchor="start" x="4.5" y="-463.9" font-family="Consolas" font-size="12.00">&#45;</text>
<text text-anchor="start" x="16.5" y="-463.9" font-family="Consolas" font-size="12.00">bool useRealGameState</text>
<text text-anchor="start" x="4.5" y="-446.9" font-family="Consolas" font-size="12.00">&#45;</text>
<text text-anchor="start" x="16.5" y="-446.9" font-family="Consolas" font-size="12.00">bool logEventDetails</text>
<text text-anchor="start" x="4.5" y="-429.9" font-family="Consolas" font-size="12.00">&#45;</text>
<text text-anchor="start" x="16.5" y="-429.9" font-family="Consolas" font-size="12.00">int specificEventId</text>
<text text-anchor="start" x="4.5" y="-412.9" font-family="Consolas" font-size="12.00">&#45;</text>
<text text-anchor="start" x="16.5" y="-412.9" font-family="Consolas" font-size="12.00">string exportFilePath</text>
<text text-anchor="start" x="4.5" y="-395.9" font-family="Consolas" font-size="12.00">&#45;</text>
<text text-anchor="start" x="16.5" y="-395.9" font-family="Consolas" font-size="12.00">bool appendDateToFileName</text>
<text text-anchor="start" x="4.5" y="-378.9" font-family="Consolas" font-size="12.00">&#45;</text>
<text text-anchor="start" x="16.5" y="-378.9" font-family="Consolas" font-size="12.00">bool exportAsCSV</text>
<text text-anchor="start" x="4.5" y="-361.9" font-family="Consolas" font-size="12.00">+</text>
<text text-anchor="start" x="16.5" y="-361.9" font-family="Consolas" font-size="12.00">void TriggerShipEvent()</text>
<text text-anchor="start" x="4.5" y="-344.9" font-family="Consolas" font-size="12.00">+</text>
<text text-anchor="start" x="16.5" y="-344.9" font-family="Consolas" font-size="12.00">void TriggerPlanetEvent()</text>
<text text-anchor="start" x="4.5" y="-327.9" font-family="Consolas" font-size="12.00">+</text>
<text text-anchor="start" x="16.5" y="-327.9" font-family="Consolas" font-size="12.00">void TriggerCosmicEvent()</text>
<text text-anchor="start" x="4.5" y="-310.9" font-family="Consolas" font-size="12.00">+</text>
<text text-anchor="start" x="16.5" y="-310.9" font-family="Consolas" font-size="12.00">void TriggerRandomEvent()</text>
<text text-anchor="start" x="4.5" y="-293.9" font-family="Consolas" font-size="12.00">+</text>
<text text-anchor="start" x="16.5" y="-293.9" font-family="Consolas" font-size="12.00">void PrintAllEvents()</text>
<text text-anchor="start" x="4.5" y="-276.9" font-family="Consolas" font-size="12.00">+</text>
<text text-anchor="start" x="16.5" y="-276.9" font-family="Consolas" font-size="12.00">void PrintAvailableEvents()</text>
<text text-anchor="start" x="4.5" y="-259.9" font-family="Consolas" font-size="12.00">+</text>
<text text-anchor="start" x="16.5" y="-259.9" font-family="Consolas" font-size="12.00">void ExportAllEventTexts()</text>
<text text-anchor="start" x="4.5" y="-242.9" font-family="Consolas" font-size="12.00">+</text>
<text text-anchor="start" x="16.5" y="-242.9" font-family="Consolas" font-size="12.00">void FindEventsByTextKey</text>
<text text-anchor="start" x="16.5" y="-229.9" font-family="Consolas" font-size="12.00">Prefix(string prefix)</text>
<text text-anchor="start" x="4.5" y="-212.9" font-family="Consolas" font-size="12.00">+</text>
<text text-anchor="start" x="16.5" y="-212.9" font-family="Consolas" font-size="12.00">void ValidateAllEventText</text>
<text text-anchor="start" x="16.5" y="-199.9" font-family="Consolas" font-size="12.00">Keys()</text>
<text text-anchor="start" x="4.5" y="-182.9" font-family="Consolas" font-size="12.00">&#45;</text>
<text text-anchor="start" x="16.5" y="-182.9" font-family="Consolas" font-size="12.00">void Start()</text>
<text text-anchor="start" x="4.5" y="-165.9" font-family="Consolas" font-size="12.00">&#45;</text>
<text text-anchor="start" x="16.5" y="-165.9" font-family="Consolas" font-size="12.00">RandomEvent SelectTestEvent</text>
<text text-anchor="start" x="16.5" y="-152.9" font-family="Consolas" font-size="12.00">(EventType type)</text>
<text text-anchor="start" x="4.5" y="-135.9" font-family="Consolas" font-size="12.00">&#45;</text>
<text text-anchor="start" x="16.5" y="-135.9" font-family="Consolas" font-size="12.00">void LogEventDetails</text>
<text text-anchor="start" x="16.5" y="-122.9" font-family="Consolas" font-size="12.00">(RandomEvent evt)</text>
<text text-anchor="start" x="4.5" y="-105.9" font-family="Consolas" font-size="12.00">&#45;</text>
<text text-anchor="start" x="16.5" y="-105.9" font-family="Consolas" font-size="12.00">void ExportEventTextsAsCSV</text>
<text text-anchor="start" x="16.5" y="-92.9" font-family="Consolas" font-size="12.00">(List&lt; RandomEvent &gt; events,</text>
<text text-anchor="start" x="16.5" y="-79.9" font-family="Consolas" font-size="12.00"> string filePath)</text>
<text text-anchor="start" x="4.5" y="-62.9" font-family="Consolas" font-size="12.00">&#45;</text>
<text text-anchor="start" x="16.5" y="-62.9" font-family="Consolas" font-size="12.00">string EscapeCSVField</text>
<text text-anchor="start" x="16.5" y="-49.9" font-family="Consolas" font-size="12.00">(string field)</text>
<text text-anchor="start" x="4.5" y="-32.9" font-family="Consolas" font-size="12.00">&#45;</text>
<text text-anchor="start" x="16.5" y="-32.9" font-family="Consolas" font-size="12.00">void ExportEventTextsAsTXT</text>
<text text-anchor="start" x="16.5" y="-19.9" font-family="Consolas" font-size="12.00">(List&lt; RandomEvent &gt; events,</text>
<text text-anchor="start" x="16.5" y="-6.9" font-family="Consolas" font-size="12.00"> string filePath)</text>
<polygon fill="#666666" stroke="#666666" points="0.5,-543.5 0.5,-543.5 231.5,-543.5 231.5,-543.5 0.5,-543.5"/>
<polygon fill="#666666" stroke="#666666" points="0.5,-373.5 0.5,-373.5 14.5,-373.5 14.5,-373.5 0.5,-373.5"/>
<polygon fill="#666666" stroke="#666666" points="14.5,-373.5 14.5,-373.5 231.5,-373.5 231.5,-373.5 14.5,-373.5"/>
<polygon fill="none" stroke="#666666" points="0,0 0,-563 231,-563 231,0 0,0"/>
</a>
</g>
</g>
<!-- Node2 -->
<g id="Node000002" class="node">
<title>Node2</title>
<g id="a_Node000002"><a xlink:title=" ">
<polygon fill="white" stroke="transparent" points="169.5,-654 61.5,-654 61.5,-599 169.5,-599 169.5,-654"/>
<text text-anchor="start" x="66.5" y="-639.9" font-family="Consolas" font-size="12.00">MonoBehaviour</text>
<text text-anchor="start" x="111.5" y="-622.9" font-family="Consolas" font-size="12.00"> </text>
<text text-anchor="start" x="111.5" y="-605.9" font-family="Consolas" font-size="12.00"> </text>
<polygon fill="#bfbfbf" stroke="#bfbfbf" points="61.5,-634.5 61.5,-634.5 169.5,-634.5 169.5,-634.5 61.5,-634.5"/>
<polygon fill="#bfbfbf" stroke="#bfbfbf" points="61.5,-617.5 61.5,-617.5 169.5,-617.5 169.5,-617.5 61.5,-617.5"/>
<polygon fill="none" stroke="#bfbfbf" points="61.5,-599 61.5,-654 169.5,-654 169.5,-599 61.5,-599"/>
</a>
</g>
</g>
<!-- Node2&#45;&gt;Node1 -->
<g id="edge1_Node000001_Node000002" class="edge">
<title>Node2&#45;&gt;Node1</title>
<g id="a_edge1_Node000001_Node000002"><a xlink:title=" ">
<path fill="none" stroke="#63b8ff" d="M115.5,-588.73C115.5,-581.09 115.5,-572.48 115.5,-563.13"/>
<polygon fill="none" stroke="#63b8ff" points="112,-588.87 115.5,-598.87 119,-588.87 112,-588.87"/>
</a>
</g>
</g>
</g>
</svg>
