<?xml version="1.0" encoding="UTF-8" standalone="no"?>
<!DOCTYPE svg PUBLIC "-//W3C//DTD SVG 1.1//EN"
 "http://www.w3.org/Graphics/SVG/1.1/DTD/svg11.dtd">
<!-- Generated by graphviz version 2.43.0 (0)
 -->
<!-- Title: Ship.GetAllCrew Pages: 1 -->
<svg width="2525pt" height="471pt"
 viewBox="0.00 0.00 2525.00 470.50" xmlns="http://www.w3.org/2000/svg" xmlns:xlink="http://www.w3.org/1999/xlink">
<g id="graph0" class="graph" transform="scale(1 1) rotate(0) translate(4 466.5)">
<title>Ship.GetAllCrew</title>
<!-- Node1 -->
<g id="Node000001" class="node">
<title>Node1</title>
<g id="a_Node000001"><a xlink:title="현재 함선에 탑승 중인 모든 크루를 반환합니다.">
<polygon fill="#999999" stroke="#666666" points="2517,-145 2388,-145 2388,-124 2517,-124 2517,-145"/>
<text text-anchor="middle" x="2452.5" y="-131.4" font-family="Consolas" font-size="12.00">Ship.GetAllCrew</text>
</a>
</g>
</g>
<!-- Node2 -->
<g id="Node000002" class="node">
<title>Node2</title>
<g id="a_Node000002"><a xlink:href="classEventCrewEffectHandler.html#a1c6a865eb331d25525e8ff555a722e75" target="_top" xlink:title="이벤트로 전달된 CrewEffect 리스트를 전체 선원에게 적용합니다.">
<polygon fill="white" stroke="#666666" points="2352,-293.5 2125,-293.5 2125,-259.5 2352,-259.5 2352,-293.5"/>
<text text-anchor="start" x="2133" y="-279.9" font-family="Consolas" font-size="12.00">EventCrewEffectHandler.Apply</text>
<text text-anchor="middle" x="2238.5" y="-266.9" font-family="Consolas" font-size="12.00">Effects</text>
</a>
</g>
</g>
<!-- Node1&#45;&gt;Node2 -->
<g id="edge1_Node000001_Node000002" class="edge">
<title>Node1&#45;&gt;Node2</title>
<g id="a_edge1_Node000001_Node000002"><a xlink:title=" ">
<path fill="none" stroke="#63b8ff" d="M2439.39,-153.78C2422.75,-178.7 2390.44,-221.7 2352,-245.5 2342.96,-251.1 2332.89,-255.71 2322.6,-259.49"/>
<polygon fill="#63b8ff" stroke="#63b8ff" points="2442.46,-155.48 2444.99,-145.19 2436.6,-151.66 2442.46,-155.48"/>
</a>
</g>
</g>
<!-- Node19 -->
<g id="Node000019" class="node">
<title>Node19</title>
<g id="a_Node000019"><a xlink:href="classEventManager.html#adf518cb4f0e15d1da51dcfdbcf1fc3ac" target="_top" xlink:title="현재 보유 중인 선원 종족 목록을 가져옵니다.">
<polygon fill="white" stroke="#666666" points="2340.5,-203.5 2136.5,-203.5 2136.5,-169.5 2340.5,-169.5 2340.5,-203.5"/>
<text text-anchor="start" x="2144.5" y="-189.9" font-family="Consolas" font-size="12.00">EventManager.GetAvailable</text>
<text text-anchor="middle" x="2238.5" y="-176.9" font-family="Consolas" font-size="12.00">CrewRaces</text>
</a>
</g>
</g>
<!-- Node1&#45;&gt;Node19 -->
<g id="edge18_Node000001_Node000019" class="edge">
<title>Node1&#45;&gt;Node19</title>
<g id="a_edge18_Node000001_Node000019"><a xlink:title=" ">
<path fill="none" stroke="#63b8ff" d="M2402.6,-147.57C2386.51,-151.8 2368.51,-156.44 2352,-160.5 2339.93,-163.47 2327.11,-166.53 2314.61,-169.45"/>
<polygon fill="#63b8ff" stroke="#63b8ff" points="2403.56,-150.94 2412.34,-145.01 2401.78,-144.17 2403.56,-150.94"/>
</a>
</g>
</g>
<!-- Node21 -->
<g id="Node000021" class="node">
<title>Node21</title>
<g id="a_Node000021"><a xlink:href="classEquipmentManager.html#ac4e3818c3b6daa9db63cd7a78f07bfdf" target="_top" xlink:title="전 크루에게 적용되는 전역 장비 구매 및 장착 처리.">
<polygon fill="white" stroke="#666666" points="2340.5,-151.5 2136.5,-151.5 2136.5,-117.5 2340.5,-117.5 2340.5,-151.5"/>
<text text-anchor="start" x="2144.5" y="-137.9" font-family="Consolas" font-size="12.00">EquipmentManager.Purchase</text>
<text text-anchor="middle" x="2238.5" y="-124.9" font-family="Consolas" font-size="12.00">AndEquipGlobal</text>
</a>
</g>
</g>
<!-- Node1&#45;&gt;Node21 -->
<g id="edge20_Node000001_Node000021" class="edge">
<title>Node1&#45;&gt;Node21</title>
<g id="a_edge20_Node000001_Node000021"><a xlink:title=" ">
<path fill="none" stroke="#63b8ff" d="M2377.59,-134.5C2365.67,-134.5 2353.16,-134.5 2340.73,-134.5"/>
<polygon fill="#63b8ff" stroke="#63b8ff" points="2377.89,-138 2387.89,-134.5 2377.89,-131 2377.89,-138"/>
</a>
</g>
</g>
<!-- Node23 -->
<g id="Node000023" class="node">
<title>Node23</title>
<g id="a_Node000023"><a xlink:href="classEventTestTrigger.html#a502b35fcfe1d6860a3284fd340e4ddc5" target="_top" xlink:title="테스트를 위한 이벤트 선택 도우미 메서드">
<polygon fill="white" stroke="#666666" points="489,-248.5 270,-248.5 270,-214.5 489,-214.5 489,-248.5"/>
<text text-anchor="start" x="278" y="-234.9" font-family="Consolas" font-size="12.00">EventTestTrigger.SelectTest</text>
<text text-anchor="middle" x="379.5" y="-221.9" font-family="Consolas" font-size="12.00">Event</text>
</a>
</g>
</g>
<!-- Node1&#45;&gt;Node23 -->
<g id="edge22_Node000001_Node000023" class="edge">
<title>Node1&#45;&gt;Node23</title>
<g id="a_edge22_Node000001_Node000023"><a xlink:title=" ">
<path fill="none" stroke="#63b8ff" d="M2435.42,-152.43C2417.27,-171.27 2385.83,-199.87 2352,-212.5 2192.33,-272.09 2139.43,-231.5 1969,-231.5 1969,-231.5 1969,-231.5 859,-231.5 732.11,-231.5 586.28,-231.5 489.3,-231.5"/>
<polygon fill="#63b8ff" stroke="#63b8ff" points="2438.07,-154.72 2442.35,-145.03 2432.96,-149.94 2438.07,-154.72"/>
</a>
</g>
</g>
<!-- Node24 -->
<g id="Node000024" class="node">
<title>Node24</title>
<g id="a_Node000024"><a xlink:href="classOxygenSystem.html#a82e6211ee26cf9357f35825709431420" target="_top" xlink:title="매 프레임마다 호출되어 산소 수치를 갱신합니다. 산소 생성량과 소비량을 계산하여 변화량을 적용합니다.">
<polygon fill="white" stroke="#666666" points="2318,-99 2159,-99 2159,-78 2318,-78 2318,-99"/>
<text text-anchor="middle" x="2238.5" y="-85.4" font-family="Consolas" font-size="12.00">OxygenSystem.Update</text>
</a>
</g>
</g>
<!-- Node1&#45;&gt;Node24 -->
<g id="edge27_Node000001_Node000024" class="edge">
<title>Node1&#45;&gt;Node24</title>
<g id="a_edge27_Node000001_Node000024"><a xlink:title=" ">
<path fill="none" stroke="#63b8ff" d="M2403.97,-121.26C2387.57,-116.91 2369.04,-112.24 2352,-108.5 2336.5,-105.1 2319.7,-101.88 2303.93,-99.04"/>
<polygon fill="#63b8ff" stroke="#63b8ff" points="2403.31,-124.7 2413.87,-123.91 2405.12,-117.94 2403.31,-124.7"/>
</a>
</g>
</g>
<!-- Node26 -->
<g id="Node000026" class="node">
<title>Node26</title>
<g id="a_Node000026"><a xlink:href="classShip.html#aaaed627f80f6c8db92ff829fb966c575" target="_top" xlink:title="유저의 선원 리스트 업데이트">
<polygon fill="white" stroke="#666666" points="2318,-60 2159,-60 2159,-39 2318,-39 2318,-60"/>
<text text-anchor="middle" x="2238.5" y="-46.4" font-family="Consolas" font-size="12.00">Ship.UpdateCrewList</text>
</a>
</g>
</g>
<!-- Node1&#45;&gt;Node26 -->
<g id="edge29_Node000001_Node000026" class="edge">
<title>Node1&#45;&gt;Node26</title>
<g id="a_edge29_Node000001_Node000026"><a xlink:title=" ">
<path fill="none" stroke="#63b8ff" d="M2430.9,-117.45C2411.69,-102.45 2381.61,-81.23 2352,-69.5 2341.3,-65.26 2329.68,-61.92 2318.1,-59.28"/>
<polygon fill="#63b8ff" stroke="#63b8ff" points="2428.93,-120.35 2438.93,-123.84 2433.29,-114.87 2428.93,-120.35"/>
</a>
</g>
</g>
<!-- Node33 -->
<g id="Node000033" class="node">
<title>Node33</title>
<g id="a_Node000033"><a xlink:href="classEnemyController.html#a6bc58726a9f2578687ec2385d3773271" target="_top" xlink:title="모든 방으로 가라">
<polygon fill="white" stroke="#666666" points="2340.5,-21 2136.5,-21 2136.5,0 2340.5,0 2340.5,-21"/>
<text text-anchor="middle" x="2238.5" y="-7.4" font-family="Consolas" font-size="12.00">EnemyController.WhereToGo</text>
</a>
</g>
</g>
<!-- Node1&#45;&gt;Node33 -->
<g id="edge37_Node000001_Node000033" class="edge">
<title>Node1&#45;&gt;Node33</title>
<g id="a_edge37_Node000001_Node000033"><a xlink:title=" ">
<path fill="none" stroke="#63b8ff" d="M2439.15,-115.56C2422.45,-91.6 2390.28,-51 2352,-30.5 2344.92,-26.71 2337.26,-23.61 2329.39,-21.09"/>
<polygon fill="#63b8ff" stroke="#63b8ff" points="2436.27,-117.54 2444.78,-123.85 2442.06,-113.61 2436.27,-117.54"/>
</a>
</g>
</g>
<!-- Node3 -->
<g id="Node000003" class="node">
<title>Node3</title>
<g id="a_Node000003"><a xlink:href="classEventManager.html#a355c69c40c2d9bb101476692466ac9ac" target="_top" xlink:title="결과 효과를 적용합니다.">
<polygon fill="white" stroke="#666666" points="2070,-336.5 1866,-336.5 1866,-302.5 2070,-302.5 2070,-336.5"/>
<text text-anchor="start" x="1874" y="-322.9" font-family="Consolas" font-size="12.00">EventManager.ApplyOutcome</text>
<text text-anchor="middle" x="1968" y="-309.9" font-family="Consolas" font-size="12.00">Effects</text>
</a>
</g>
</g>
<!-- Node2&#45;&gt;Node3 -->
<g id="edge2_Node000002_Node000003" class="edge">
<title>Node2&#45;&gt;Node3</title>
<g id="a_edge2_Node000002_Node000003"><a xlink:title=" ">
<path fill="none" stroke="#63b8ff" d="M2121.06,-295.15C2104.1,-297.86 2086.75,-300.64 2070.13,-303.3"/>
<polygon fill="#63b8ff" stroke="#63b8ff" points="2121.68,-298.59 2131,-293.56 2120.57,-291.68 2121.68,-298.59"/>
</a>
</g>
</g>
<!-- Node18 -->
<g id="Node000018" class="node">
<title>Node18</title>
<g id="a_Node000018"><a xlink:href="classEventCrewEffectHandler.html#a7b4b7f5adb731fdbc71f399da0512001" target="_top" xlink:title="단일 승무원 효과를 리스트로 감싸서 처리합니다.">
<polygon fill="white" stroke="#666666" points="2085,-284 1851,-284 1851,-263 2085,-263 2085,-284"/>
<text text-anchor="middle" x="1968" y="-270.4" font-family="Consolas" font-size="12.00">EventCrewEffectHandler.Handle</text>
</a>
</g>
</g>
<!-- Node2&#45;&gt;Node18 -->
<g id="edge17_Node000002_Node000018" class="edge">
<title>Node2&#45;&gt;Node18</title>
<g id="a_edge17_Node000002_Node000018"><a xlink:title=" ">
<path fill="none" stroke="#63b8ff" d="M2114.65,-275.13C2104.88,-275.02 2095.02,-274.91 2085.29,-274.8"/>
<polygon fill="#63b8ff" stroke="#63b8ff" points="2114.76,-278.63 2124.8,-275.24 2114.84,-271.63 2114.76,-278.63"/>
</a>
</g>
</g>
<!-- Node4 -->
<g id="Node000004" class="node">
<title>Node4</title>
<g id="a_Node000004"><a xlink:href="classEventManager.html#a3350e756672d0a7b9b4d035df7e55867" target="_top" xlink:title="선택지 선택 시 처리합니다.">
<polygon fill="white" stroke="#666666" points="1811,-330 1599,-330 1599,-309 1811,-309 1811,-330"/>
<text text-anchor="middle" x="1705" y="-316.4" font-family="Consolas" font-size="12.00">EventManager.ProcessChoice</text>
</a>
</g>
</g>
<!-- Node3&#45;&gt;Node4 -->
<g id="edge3_Node000003_Node000004" class="edge">
<title>Node3&#45;&gt;Node4</title>
<g id="a_edge3_Node000003_Node000004"><a xlink:title=" ">
<path fill="none" stroke="#63b8ff" d="M1855.57,-319.5C1840.82,-319.5 1825.74,-319.5 1811.11,-319.5"/>
<polygon fill="#63b8ff" stroke="#63b8ff" points="1855.72,-323 1865.72,-319.5 1855.72,-316 1855.72,-323"/>
</a>
</g>
</g>
<!-- Node5 -->
<g id="Node000005" class="node">
<title>Node5</title>
<g id="a_Node000005"><a xlink:href="classEventPanelController.html#a271c99a2e6e6fc874fc06f14222ec7a4" target="_top" xlink:title="선택지 선택 처리">
<polygon fill="white" stroke="#666666" points="1544,-336.5 1310,-336.5 1310,-302.5 1544,-302.5 1544,-336.5"/>
<text text-anchor="start" x="1318" y="-322.9" font-family="Consolas" font-size="12.00">EventPanelController.OnChoice</text>
<text text-anchor="middle" x="1427" y="-309.9" font-family="Consolas" font-size="12.00">Selected</text>
</a>
</g>
</g>
<!-- Node4&#45;&gt;Node5 -->
<g id="edge4_Node000004_Node000005" class="edge">
<title>Node4&#45;&gt;Node5</title>
<g id="a_edge4_Node000004_Node000005"><a xlink:title=" ">
<path fill="none" stroke="#63b8ff" d="M1588.77,-319.5C1574.09,-319.5 1559.05,-319.5 1544.35,-319.5"/>
<polygon fill="#63b8ff" stroke="#63b8ff" points="1588.87,-323 1598.87,-319.5 1588.87,-316 1588.87,-323"/>
</a>
</g>
</g>
<!-- Node6 -->
<g id="Node000006" class="node">
<title>Node6</title>
<g id="a_Node000006"><a xlink:href="classEventPanelController.html#ac29f72183116559cc77456e0e86c279c" target="_top" xlink:title="선택지 버튼 설정">
<polygon fill="white" stroke="#666666" points="1232.5,-336.5 1020.5,-336.5 1020.5,-302.5 1232.5,-302.5 1232.5,-336.5"/>
<text text-anchor="start" x="1028.5" y="-322.9" font-family="Consolas" font-size="12.00">EventPanelController.Setup</text>
<text text-anchor="middle" x="1126.5" y="-309.9" font-family="Consolas" font-size="12.00">ChoiceButtons</text>
</a>
</g>
</g>
<!-- Node5&#45;&gt;Node6 -->
<g id="edge5_Node000005_Node000006" class="edge">
<title>Node5&#45;&gt;Node6</title>
<g id="a_edge5_Node000005_Node000006"><a xlink:title=" ">
<path fill="none" stroke="#63b8ff" d="M1299.56,-319.5C1277.3,-319.5 1254.34,-319.5 1232.74,-319.5"/>
<polygon fill="#63b8ff" stroke="#63b8ff" points="1299.74,-323 1309.74,-319.5 1299.74,-316 1299.74,-323"/>
</a>
</g>
</g>
<!-- Node7 -->
<g id="Node000007" class="node">
<title>Node7</title>
<g id="a_Node000007"><a xlink:href="classEventPanelController.html#a8049a10f186fafea43108f3da5c48d64" target="_top" xlink:title="이벤트 표시 &#45; UIManager에서 호출">
<polygon fill="white" stroke="#666666" points="962,-336.5 758,-336.5 758,-302.5 962,-302.5 962,-336.5"/>
<text text-anchor="start" x="766" y="-322.9" font-family="Consolas" font-size="12.00">EventPanelController.Show</text>
<text text-anchor="middle" x="860" y="-309.9" font-family="Consolas" font-size="12.00">Event</text>
</a>
</g>
</g>
<!-- Node6&#45;&gt;Node7 -->
<g id="edge6_Node000006_Node000007" class="edge">
<title>Node6&#45;&gt;Node7</title>
<g id="a_edge6_Node000006_Node000007"><a xlink:title=" ">
<path fill="none" stroke="#63b8ff" d="M1009.81,-319.5C993.9,-319.5 977.67,-319.5 962.06,-319.5"/>
<polygon fill="#63b8ff" stroke="#63b8ff" points="1010.2,-323 1020.2,-319.5 1010.2,-316 1010.2,-323"/>
</a>
</g>
</g>
<!-- Node8 -->
<g id="Node000008" class="node">
<title>Node8</title>
<g id="a_Node000008"><a xlink:href="classEventManager.html#abf444ded5ae99dfeeaf9d80294f9395e" target="_top" xlink:title="큐에서 다음 이벤트를 처리합니다.">
<polygon fill="white" stroke="#666666" points="722,-336.5 525,-336.5 525,-302.5 722,-302.5 722,-336.5"/>
<text text-anchor="start" x="533" y="-322.9" font-family="Consolas" font-size="12.00">EventManager.ProcessNext</text>
<text text-anchor="middle" x="623.5" y="-309.9" font-family="Consolas" font-size="12.00">Event</text>
</a>
</g>
</g>
<!-- Node7&#45;&gt;Node8 -->
<g id="edge7_Node000007_Node000008" class="edge">
<title>Node7&#45;&gt;Node8</title>
<g id="a_edge7_Node000007_Node000008"><a xlink:title=" ">
<path fill="none" stroke="#63b8ff" d="M747.59,-319.5C739.16,-319.5 730.69,-319.5 722.35,-319.5"/>
<polygon fill="#63b8ff" stroke="#63b8ff" points="747.85,-323 757.85,-319.5 747.85,-316 747.85,-323"/>
</a>
</g>
</g>
<!-- Node9 -->
<g id="Node000009" class="node">
<title>Node9</title>
<g id="a_Node000009"><a xlink:href="classEventManager.html#ace430478ab6a938b8d572fc109da95ae" target="_top" xlink:title="이벤트 종료 처리를 수행합니다.">
<polygon fill="white" stroke="#666666" points="466.5,-403 292.5,-403 292.5,-382 466.5,-382 466.5,-403"/>
<text text-anchor="middle" x="379.5" y="-389.4" font-family="Consolas" font-size="12.00">EventManager.EndEvent</text>
</a>
</g>
</g>
<!-- Node8&#45;&gt;Node9 -->
<g id="edge8_Node000008_Node000009" class="edge">
<title>Node8&#45;&gt;Node9</title>
<g id="a_edge8_Node000008_Node000009"><a xlink:title=" ">
<path fill="none" stroke="#63b8ff" d="M556.29,-339.47C510.86,-353.18 452.36,-370.82 415.63,-381.9"/>
<polygon fill="#63b8ff" stroke="#63b8ff" points="557.5,-342.76 566.07,-336.52 555.48,-336.06 557.5,-342.76"/>
</a>
</g>
</g>
<!-- Node11 -->
<g id="Node000011" class="node">
<title>Node11</title>
<g id="a_Node000011"><a xlink:href="classEventManager.html#a17513adf1ec99ebc11f951688629d826" target="_top" xlink:title="이벤트를 트리거합니다. 이미 진행 중인 이벤트가 있다면 큐에 추가합니다.">
<polygon fill="white" stroke="#666666" points="481.5,-312 277.5,-312 277.5,-291 481.5,-291 481.5,-312"/>
<text text-anchor="middle" x="379.5" y="-298.4" font-family="Consolas" font-size="12.00">EventManager.TriggerEvent</text>
</a>
</g>
</g>
<!-- Node8&#45;&gt;Node11 -->
<g id="edge10_Node000008_Node000011" class="edge">
<title>Node8&#45;&gt;Node11</title>
<g id="a_edge10_Node000008_Node000011"><a xlink:title=" ">
<path fill="none" stroke="#63b8ff" d="M514.74,-311.49C503.77,-310.67 492.65,-309.84 481.75,-309.03"/>
<polygon fill="#63b8ff" stroke="#63b8ff" points="514.53,-314.98 524.77,-312.23 515.05,-308 514.53,-314.98"/>
</a>
</g>
</g>
<!-- Node10 -->
<g id="Node000010" class="node">
<title>Node10</title>
<g id="a_Node000010"><a xlink:href="classEventPanelController.html#a5f3beaeae04628621757ee3c484a02d8" target="_top" xlink:title="이벤트 패널 닫기">
<polygon fill="white" stroke="#666666" points="223,-462.5 11,-462.5 11,-428.5 223,-428.5 223,-462.5"/>
<text text-anchor="start" x="19" y="-448.9" font-family="Consolas" font-size="12.00">EventPanelController.Close</text>
<text text-anchor="middle" x="117" y="-435.9" font-family="Consolas" font-size="12.00">EventPanel</text>
</a>
</g>
</g>
<!-- Node9&#45;&gt;Node10 -->
<g id="edge9_Node000009_Node000010" class="edge">
<title>Node9&#45;&gt;Node10</title>
<g id="a_edge9_Node000009_Node000010"><a xlink:title=" ">
<path fill="none" stroke="#63b8ff" d="M316.81,-405.05C282.43,-412.05 239.13,-420.86 201.72,-428.47"/>
<polygon fill="#63b8ff" stroke="#63b8ff" points="317.62,-408.46 326.72,-403.03 316.23,-401.6 317.62,-408.46"/>
</a>
</g>
</g>
<!-- Node12 -->
<g id="Node000012" class="node">
<title>Node12</title>
<g id="a_Node000012"><a xlink:href="classEventNextEventEffectHandler.html#a59234ff1c4bf8e5d64844139e9c764b1" target="_top" xlink:title="outcome에 연결된 nextEvent가 존재하면 즉시 실행합니다.">
<polygon fill="white" stroke="#666666" points="230.5,-370.5 3.5,-370.5 3.5,-336.5 230.5,-336.5 230.5,-370.5"/>
<text text-anchor="start" x="11.5" y="-356.9" font-family="Consolas" font-size="12.00">EventNextEventEffectHandler.</text>
<text text-anchor="middle" x="117" y="-343.9" font-family="Consolas" font-size="12.00">HandleEffect</text>
</a>
</g>
</g>
<!-- Node11&#45;&gt;Node12 -->
<g id="edge11_Node000011_Node000012" class="edge">
<title>Node11&#45;&gt;Node12</title>
<g id="a_edge11_Node000011_Node000012"><a xlink:title=" ">
<path fill="none" stroke="#63b8ff" d="M315.6,-314.06C281.87,-320.79 239.82,-329.18 203.2,-336.49"/>
<polygon fill="#63b8ff" stroke="#63b8ff" points="316.66,-317.41 325.78,-312.02 315.29,-310.55 316.66,-317.41"/>
</a>
</g>
</g>
<!-- Node13 -->
<g id="Node000013" class="node">
<title>Node13</title>
<g id="a_Node000013"><a xlink:href="classEventTestTrigger.html#a662dfee544e3da94174b981952a7b36f" target="_top" xlink:title="CosmicEvent 버튼 클릭 시: 미스터리 이벤트 중 랜덤 1개 실행">
<polygon fill="white" stroke="#666666" points="215.5,-318.5 18.5,-318.5 18.5,-284.5 215.5,-284.5 215.5,-318.5"/>
<text text-anchor="start" x="26.5" y="-304.9" font-family="Consolas" font-size="12.00">EventTestTrigger.Trigger</text>
<text text-anchor="middle" x="117" y="-291.9" font-family="Consolas" font-size="12.00">CosmicEvent</text>
</a>
</g>
</g>
<!-- Node11&#45;&gt;Node13 -->
<g id="edge12_Node000011_Node000013" class="edge">
<title>Node11&#45;&gt;Node13</title>
<g id="a_edge12_Node000011_Node000013"><a xlink:title=" ">
<path fill="none" stroke="#63b8ff" d="M267.34,-301.5C250.14,-301.5 232.49,-301.5 215.61,-301.5"/>
<polygon fill="#63b8ff" stroke="#63b8ff" points="267.41,-305 277.41,-301.5 267.41,-298 267.41,-305"/>
</a>
</g>
</g>
<!-- Node14 -->
<g id="Node000014" class="node">
<title>Node14</title>
<g id="a_Node000014"><a xlink:href="classEventManager.html#aae84388e618a8f8b18efd9f0b4b0761d" target="_top" xlink:title="특정 ID의 이벤트를 강제로 실행합니다.">
<polygon fill="white" stroke="#666666" points="234,-410 0,-410 0,-389 234,-389 234,-410"/>
<text text-anchor="middle" x="117" y="-396.4" font-family="Consolas" font-size="12.00">EventManager.TriggerEventById</text>
</a>
</g>
</g>
<!-- Node11&#45;&gt;Node14 -->
<g id="edge13_Node000011_Node000014" class="edge">
<title>Node11&#45;&gt;Node14</title>
<g id="a_edge13_Node000011_Node000014"><a xlink:title=" ">
<path fill="none" stroke="#63b8ff" d="M354.17,-317.84C326.33,-335.76 278.78,-364.02 234,-379.5 222.89,-383.34 210.93,-386.46 199.04,-389"/>
<polygon fill="#63b8ff" stroke="#63b8ff" points="356.36,-320.59 362.82,-312.19 352.54,-314.73 356.36,-320.59"/>
</a>
</g>
</g>
<!-- Node15 -->
<g id="Node000015" class="node">
<title>Node15</title>
<g id="a_Node000015"><a xlink:href="classEventTestTrigger.html#ac191c74d0af20292899091252f7177dc" target="_top" xlink:title="PlanetEvent 버튼 클릭 시: 행성 도착 시 발생 가능한 이벤트 중 랜덤 1개 실행">
<polygon fill="white" stroke="#666666" points="215.5,-266.5 18.5,-266.5 18.5,-232.5 215.5,-232.5 215.5,-266.5"/>
<text text-anchor="start" x="26.5" y="-252.9" font-family="Consolas" font-size="12.00">EventTestTrigger.Trigger</text>
<text text-anchor="middle" x="117" y="-239.9" font-family="Consolas" font-size="12.00">PlanetEvent</text>
</a>
</g>
</g>
<!-- Node11&#45;&gt;Node15 -->
<g id="edge14_Node000011_Node000015" class="edge">
<title>Node11&#45;&gt;Node15</title>
<g id="a_edge14_Node000011_Node000015"><a xlink:title=" ">
<path fill="none" stroke="#63b8ff" d="M315.6,-288.94C281.87,-282.21 239.82,-273.82 203.2,-266.51"/>
<polygon fill="#63b8ff" stroke="#63b8ff" points="315.29,-292.45 325.78,-290.98 316.66,-285.59 315.29,-292.45"/>
</a>
</g>
</g>
<!-- Node16 -->
<g id="Node000016" class="node">
<title>Node16</title>
<g id="a_Node000016"><a xlink:href="classEventTestTrigger.html#ae75c9fd44bc364c4929905f46ac22364" target="_top" xlink:title="모든 이벤트 중 랜덤으로 하나 선택하여 실행합니다.">
<polygon fill="white" stroke="#666666" points="215.5,-214.5 18.5,-214.5 18.5,-180.5 215.5,-180.5 215.5,-214.5"/>
<text text-anchor="start" x="26.5" y="-200.9" font-family="Consolas" font-size="12.00">EventTestTrigger.Trigger</text>
<text text-anchor="middle" x="117" y="-187.9" font-family="Consolas" font-size="12.00">RandomEvent</text>
</a>
</g>
</g>
<!-- Node11&#45;&gt;Node16 -->
<g id="edge15_Node000011_Node000016" class="edge">
<title>Node11&#45;&gt;Node16</title>
<g id="a_edge15_Node000011_Node000016"><a xlink:title=" ">
<path fill="none" stroke="#63b8ff" d="M333.54,-287.52C313.27,-280.17 289.55,-270.06 270,-257.5 251.48,-245.6 253.43,-233.83 234,-223.5 227.62,-220.11 220.82,-217.16 213.83,-214.59"/>
<polygon fill="#63b8ff" stroke="#63b8ff" points="332.58,-290.9 343.18,-290.91 334.9,-284.29 332.58,-290.9"/>
</a>
</g>
</g>
<!-- Node17 -->
<g id="Node000017" class="node">
<title>Node17</title>
<g id="a_Node000017"><a xlink:href="classEventTestTrigger.html#a630e4878fa514c8e08fe06fec55da366" target="_top" xlink:title="ShipEvent 버튼 클릭 시: 항해 중 발생 가능한 이벤트 중 랜덤 1개 실행">
<polygon fill="white" stroke="#666666" points="215.5,-162.5 18.5,-162.5 18.5,-128.5 215.5,-128.5 215.5,-162.5"/>
<text text-anchor="start" x="26.5" y="-148.9" font-family="Consolas" font-size="12.00">EventTestTrigger.Trigger</text>
<text text-anchor="middle" x="117" y="-135.9" font-family="Consolas" font-size="12.00">ShipEvent</text>
</a>
</g>
</g>
<!-- Node11&#45;&gt;Node17 -->
<g id="edge16_Node000011_Node000017" class="edge">
<title>Node11&#45;&gt;Node17</title>
<g id="a_edge16_Node000011_Node000017"><a xlink:title=" ">
<path fill="none" stroke="#63b8ff" d="M320.7,-287.54C302.67,-280.88 283.9,-271.25 270,-257.5 240.54,-228.36 265.76,-198.11 234,-171.5 228.46,-166.86 222.27,-163 215.71,-159.8"/>
<polygon fill="#63b8ff" stroke="#63b8ff" points="320,-291 330.59,-290.94 322.28,-284.38 320,-291"/>
</a>
</g>
</g>
<!-- Node20 -->
<g id="Node000020" class="node">
<title>Node20</title>
<g id="a_Node000020"><a xlink:href="classEventManager.html#ad79051eea6480da5f430711585c1baae" target="_top" xlink:title="현재 게임 상태에 적합한 이벤트를 선택합니다.">
<polygon fill="white" stroke="#666666" points="2089,-203.5 1847,-203.5 1847,-169.5 2089,-169.5 2089,-203.5"/>
<text text-anchor="start" x="1855" y="-189.9" font-family="Consolas" font-size="12.00">EventManager.SelectAppropriate</text>
<text text-anchor="middle" x="1968" y="-176.9" font-family="Consolas" font-size="12.00">Event</text>
</a>
</g>
</g>
<!-- Node19&#45;&gt;Node20 -->
<g id="edge19_Node000019_Node000020" class="edge">
<title>Node19&#45;&gt;Node20</title>
<g id="a_edge19_Node000019_Node000020"><a xlink:title=" ">
<path fill="none" stroke="#63b8ff" d="M2126.15,-186.5C2113.89,-186.5 2101.37,-186.5 2089.01,-186.5"/>
<polygon fill="#63b8ff" stroke="#63b8ff" points="2126.37,-190 2136.37,-186.5 2126.37,-183 2126.37,-190"/>
</a>
</g>
</g>
<!-- Node22 -->
<g id="Node000022" class="node">
<title>Node22</title>
<g id="a_Node000022"><a xlink:href="classEquipmentUIHandler.html#a36609bab2603d9760f69e61c2ff4dbde" target="_top" xlink:title="구매 버튼 클릭 시 호출됩니다. 재화를 차감하고, 장비 효과를 적용하며, 버튼 색상도 변경됩니다.">
<polygon fill="white" stroke="#666666" points="2085,-145 1851,-145 1851,-124 2085,-124 2085,-145"/>
<text text-anchor="middle" x="1968" y="-131.4" font-family="Consolas" font-size="12.00">EquipmentUIHandler.OnClickBuy</text>
</a>
</g>
</g>
<!-- Node21&#45;&gt;Node22 -->
<g id="edge21_Node000021_Node000022" class="edge">
<title>Node21&#45;&gt;Node22</title>
<g id="a_edge21_Node000021_Node000022"><a xlink:title=" ">
<path fill="none" stroke="#63b8ff" d="M2126.15,-134.5C2112.68,-134.5 2098.9,-134.5 2085.36,-134.5"/>
<polygon fill="#63b8ff" stroke="#63b8ff" points="2126.37,-138 2136.37,-134.5 2126.37,-131 2126.37,-138"/>
</a>
</g>
</g>
<!-- Node23&#45;&gt;Node13 -->
<g id="edge23_Node000023_Node000013" class="edge">
<title>Node23&#45;&gt;Node13</title>
<g id="a_edge23_Node000023_Node000013"><a xlink:title=" ">
<path fill="none" stroke="#63b8ff" d="M316.07,-251.63C290.73,-259.51 261.09,-268.35 234,-275.5 222.33,-278.58 209.93,-281.61 197.75,-284.45"/>
<polygon fill="#63b8ff" stroke="#63b8ff" points="317.43,-254.87 325.93,-248.55 315.34,-248.19 317.43,-254.87"/>
</a>
</g>
</g>
<!-- Node23&#45;&gt;Node15 -->
<g id="edge24_Node000023_Node000015" class="edge">
<title>Node23&#45;&gt;Node15</title>
<g id="a_edge24_Node000023_Node000015"><a xlink:title=" ">
<path fill="none" stroke="#63b8ff" d="M259.73,-239.71C244.97,-240.73 230,-241.76 215.61,-242.76"/>
<polygon fill="#63b8ff" stroke="#63b8ff" points="260.18,-243.18 269.91,-239 259.69,-236.2 260.18,-243.18"/>
</a>
</g>
</g>
<!-- Node23&#45;&gt;Node16 -->
<g id="edge25_Node000023_Node000016" class="edge">
<title>Node23&#45;&gt;Node16</title>
<g id="a_edge25_Node000023_Node000016"><a xlink:title=" ">
<path fill="none" stroke="#63b8ff" d="M259.73,-216C244.97,-214.07 230,-212.12 215.61,-210.24"/>
<polygon fill="#63b8ff" stroke="#63b8ff" points="259.54,-219.5 269.91,-217.33 260.45,-212.56 259.54,-219.5"/>
</a>
</g>
</g>
<!-- Node23&#45;&gt;Node17 -->
<g id="edge26_Node000023_Node000017" class="edge">
<title>Node23&#45;&gt;Node17</title>
<g id="a_edge26_Node000023_Node000017"><a xlink:title=" ">
<path fill="none" stroke="#63b8ff" d="M333.16,-210.3C305.06,-197.75 267.96,-182.27 234,-171.5 223.77,-168.26 212.91,-165.26 202.1,-162.54"/>
<polygon fill="#63b8ff" stroke="#63b8ff" points="331.77,-213.51 342.33,-214.43 334.65,-207.13 331.77,-213.51"/>
</a>
</g>
</g>
<!-- Node25 -->
<g id="Node000025" class="node">
<title>Node25</title>
<g id="a_Node000025"><a xlink:href="classShip.html#a6ab0aaf28782b38d9c80bf19e652f46c" target="_top" xlink:title="게임 시작 시 호출되며, 테스트 룸 배치 및 시스템 초기화를 수행합니다.">
<polygon fill="white" stroke="#666666" points="2017.5,-99 1918.5,-99 1918.5,-78 2017.5,-78 2017.5,-99"/>
<text text-anchor="middle" x="1968" y="-85.4" font-family="Consolas" font-size="12.00">Ship.Update</text>
</a>
</g>
</g>
<!-- Node24&#45;&gt;Node25 -->
<g id="edge28_Node000024_Node000025" class="edge">
<title>Node24&#45;&gt;Node25</title>
<g id="a_edge28_Node000024_Node000025"><a xlink:title=" ">
<path fill="none" stroke="#63b8ff" d="M2148.71,-88.5C2105.1,-88.5 2054.23,-88.5 2017.76,-88.5"/>
<polygon fill="#63b8ff" stroke="#63b8ff" points="2148.76,-92 2158.76,-88.5 2148.76,-85 2148.76,-92"/>
</a>
</g>
</g>
<!-- Node27 -->
<g id="Node000027" class="node">
<title>Node27</title>
<g id="a_Node000027"><a xlink:href="classShip.html#aca592f0f628091689784e9b796f665db" target="_top" xlink:title="모든 선원 제거">
<polygon fill="white" stroke="#666666" points="2047.5,-60 1888.5,-60 1888.5,-39 2047.5,-39 2047.5,-60"/>
<text text-anchor="middle" x="1968" y="-46.4" font-family="Consolas" font-size="12.00">Ship.RemoveAllCrews</text>
</a>
</g>
</g>
<!-- Node26&#45;&gt;Node27 -->
<g id="edge30_Node000026_Node000027" class="edge">
<title>Node26&#45;&gt;Node27</title>
<g id="a_edge30_Node000026_Node000027"><a xlink:title=" ">
<path fill="none" stroke="#63b8ff" d="M2148.35,-49.5C2115.82,-49.5 2079.3,-49.5 2047.74,-49.5"/>
<polygon fill="#63b8ff" stroke="#63b8ff" points="2148.76,-53 2158.76,-49.5 2148.76,-46 2148.76,-53"/>
</a>
</g>
</g>
<!-- Node28 -->
<g id="Node000028" class="node">
<title>Node28</title>
<g id="a_Node000028"><a xlink:href="classEnemyShipFactory.html#ac2dece8b7383ba255abb0d67fb29fcb8" target="_top" xlink:title="템플릿 설정을 기반으로 해적선에 대한 무작위 선원을 생성합니다">
<polygon fill="white" stroke="#666666" points="1807,-92.5 1603,-92.5 1603,-58.5 1807,-58.5 1807,-92.5"/>
<text text-anchor="start" x="1611" y="-78.9" font-family="Consolas" font-size="12.00">EnemyShipFactory.Generate</text>
<text text-anchor="middle" x="1705" y="-65.9" font-family="Consolas" font-size="12.00">PirateCrew</text>
</a>
</g>
</g>
<!-- Node27&#45;&gt;Node28 -->
<g id="edge31_Node000027_Node000028" class="edge">
<title>Node27&#45;&gt;Node28</title>
<g id="a_edge31_Node000027_Node000028"><a xlink:title=" ">
<path fill="none" stroke="#63b8ff" d="M1878.32,-58.33C1855.46,-60.61 1830.68,-63.08 1807.23,-65.42"/>
<polygon fill="#63b8ff" stroke="#63b8ff" points="1878.73,-61.81 1888.34,-57.34 1878.04,-54.84 1878.73,-61.81"/>
</a>
</g>
</g>
<!-- Node31 -->
<g id="Node000031" class="node">
<title>Node31</title>
<g id="a_Node000031"><a xlink:href="classCustomize__0__Controller.html#a2294748cb08dacbc43bf243c146e258f" target="_top" xlink:title="Planet scene으로 전환">
<polygon fill="white" stroke="#666666" points="1807,-40.5 1603,-40.5 1603,-6.5 1807,-6.5 1807,-40.5"/>
<text text-anchor="start" x="1611" y="-26.9" font-family="Consolas" font-size="12.00">Customize_0_Controller.On</text>
<text text-anchor="middle" x="1705" y="-13.9" font-family="Consolas" font-size="12.00">ClickExit</text>
</a>
</g>
</g>
<!-- Node27&#45;&gt;Node31 -->
<g id="edge35_Node000027_Node000031" class="edge">
<title>Node27&#45;&gt;Node31</title>
<g id="a_edge35_Node000027_Node000031"><a xlink:title=" ">
<path fill="none" stroke="#63b8ff" d="M1878.32,-40.67C1855.46,-38.39 1830.68,-35.92 1807.23,-33.58"/>
<polygon fill="#63b8ff" stroke="#63b8ff" points="1878.04,-44.16 1888.34,-41.66 1878.73,-37.19 1878.04,-44.16"/>
</a>
</g>
</g>
<!-- Node29 -->
<g id="Node000029" class="node">
<title>Node29</title>
<g id="a_Node000029"><a xlink:href="classEnemyShipFactory.html#af2143f183e56385b0a94b5ad9d6bf1b7" target="_top" xlink:title="기본 배를 수동으로 생성합니다">
<polygon fill="white" stroke="#666666" points="1563,-80 1291,-80 1291,-59 1563,-59 1563,-80"/>
<text text-anchor="middle" x="1427" y="-66.4" font-family="Consolas" font-size="12.00">EnemyShipFactory.CreateDefaultShip</text>
</a>
</g>
</g>
<!-- Node28&#45;&gt;Node29 -->
<g id="edge32_Node000028_Node000029" class="edge">
<title>Node28&#45;&gt;Node29</title>
<g id="a_edge32_Node000028_Node000029"><a xlink:title=" ">
<path fill="none" stroke="#63b8ff" d="M1592.72,-73.08C1582.97,-72.87 1573.04,-72.65 1563.13,-72.44"/>
<polygon fill="#63b8ff" stroke="#63b8ff" points="1592.72,-76.58 1602.79,-73.3 1592.87,-69.58 1592.72,-76.58"/>
</a>
</g>
</g>
<!-- Node30 -->
<g id="Node000030" class="node">
<title>Node30</title>
<g id="a_Node000030"><a xlink:href="classEnemyShipFactory.html#adf438c0292d675acffceb7b7bd4ac129" target="_top" xlink:title="제공된 템플릿 이름을 기반으로 해적선을 생성합니다">
<polygon fill="white" stroke="#666666" points="1255,-100 998,-100 998,-79 1255,-79 1255,-100"/>
<text text-anchor="middle" x="1126.5" y="-86.4" font-family="Consolas" font-size="12.00">EnemyShipFactory.SpawnPirateShip</text>
</a>
</g>
</g>
<!-- Node28&#45;&gt;Node30 -->
<g id="edge34_Node000028_Node000030" class="edge">
<title>Node28&#45;&gt;Node30</title>
<g id="a_edge34_Node000028_Node000030"><a xlink:title=" ">
<path fill="none" stroke="#63b8ff" d="M1592.76,-87.58C1582.71,-88.36 1572.67,-89.02 1563,-89.5 1459.54,-94.62 1342.09,-94.26 1255.26,-92.82"/>
<polygon fill="#63b8ff" stroke="#63b8ff" points="1593.13,-91.06 1602.81,-86.76 1592.56,-84.08 1593.13,-91.06"/>
</a>
</g>
</g>
<!-- Node29&#45;&gt;Node30 -->
<g id="edge33_Node000029_Node000030" class="edge">
<title>Node29&#45;&gt;Node30</title>
<g id="a_edge33_Node000029_Node000030"><a xlink:title=" ">
<path fill="none" stroke="#63b8ff" d="M1280.68,-79.24C1272.11,-79.81 1263.53,-80.39 1255.04,-80.95"/>
<polygon fill="#63b8ff" stroke="#63b8ff" points="1280.98,-82.72 1290.72,-78.56 1280.51,-75.74 1280.98,-82.72"/>
</a>
</g>
</g>
<!-- Node32 -->
<g id="Node000032" class="node">
<title>Node32</title>
<g id="a_Node000032"><a xlink:href="classCustomize__0__Controller.html#a9a5c64825556b732c13268f61d9893db" target="_top" xlink:title="button 클릭 함수 연결">
<polygon fill="white" stroke="#666666" points="1540.5,-34 1313.5,-34 1313.5,-13 1540.5,-13 1540.5,-34"/>
<text text-anchor="middle" x="1427" y="-20.4" font-family="Consolas" font-size="12.00">Customize_0_Controller.Start</text>
</a>
</g>
</g>
<!-- Node31&#45;&gt;Node32 -->
<g id="edge36_Node000031_Node000032" class="edge">
<title>Node31&#45;&gt;Node32</title>
<g id="a_edge36_Node000031_Node000032"><a xlink:title=" ">
<path fill="none" stroke="#63b8ff" d="M1592.79,-23.5C1575.68,-23.5 1557.99,-23.5 1540.84,-23.5"/>
<polygon fill="#63b8ff" stroke="#63b8ff" points="1592.8,-27 1602.79,-23.5 1592.79,-20 1592.8,-27"/>
</a>
</g>
</g>
<!-- Node34 -->
<g id="Node000034" class="node">
<title>Node34</title>
<g id="a_Node000034"><a xlink:href="classEnemyController.html#a41090510cff98622fe675d1f6e3ecd82" target="_top" xlink:title=" ">
<polygon fill="white" stroke="#666666" points="2059,-21 1877,-21 1877,0 2059,0 2059,-21"/>
<text text-anchor="middle" x="1968" y="-7.4" font-family="Consolas" font-size="12.00">EnemyController.Update</text>
</a>
</g>
</g>
<!-- Node33&#45;&gt;Node34 -->
<g id="edge38_Node000033_Node000034" class="edge">
<title>Node33&#45;&gt;Node34</title>
<g id="a_edge38_Node000033_Node000034"><a xlink:title=" ">
<path fill="none" stroke="#63b8ff" d="M2126.17,-10.5C2103.79,-10.5 2080.55,-10.5 2059.01,-10.5"/>
<polygon fill="#63b8ff" stroke="#63b8ff" points="2126.37,-14 2136.37,-10.5 2126.37,-7 2126.37,-14"/>
</a>
</g>
</g>
</g>
</svg>
