<?xml version="1.0" encoding="UTF-8" standalone="no"?>
<!DOCTYPE svg PUBLIC "-//W3C//DTD SVG 1.1//EN"
 "http://www.w3.org/Graphics/SVG/1.1/DTD/svg11.dtd">
<!-- Generated by graphviz version 2.43.0 (0)
 -->
<!-- Title: ES3GameObject Pages: 1 -->
<svg width="239pt" height="154pt"
 viewBox="0.00 0.00 239.00 154.00" xmlns="http://www.w3.org/2000/svg" xmlns:xlink="http://www.w3.org/1999/xlink">
<g id="graph0" class="graph" transform="scale(1 1) rotate(0) translate(4 150)">
<title>ES3GameObject</title>
<!-- Node1 -->
<g id="Node000001" class="node">
<title>Node1</title>
<g id="a_Node000001"><a xlink:title=" ">
<polygon fill="#999999" stroke="transparent" points="231,-55 0,-55 0,0 231,0 231,-55"/>
<text text-anchor="start" x="67" y="-40.9" font-family="Consolas" font-size="12.00">ES3GameObject</text>
<text text-anchor="start" x="4.5" y="-23.9" font-family="Consolas" font-size="12.00">+</text>
<text text-anchor="start" x="16.5" y="-23.9" font-family="Consolas" font-size="12.00">List&lt; Component &gt; components</text>
<text text-anchor="start" x="4.5" y="-6.9" font-family="Consolas" font-size="12.00">&#45;</text>
<text text-anchor="start" x="16.5" y="-6.9" font-family="Consolas" font-size="12.00">void Update()</text>
<polygon fill="#666666" stroke="#666666" points="0.5,-35.5 0.5,-35.5 231.5,-35.5 231.5,-35.5 0.5,-35.5"/>
<polygon fill="#666666" stroke="#666666" points="0.5,-18.5 0.5,-18.5 14.5,-18.5 14.5,-18.5 0.5,-18.5"/>
<polygon fill="#666666" stroke="#666666" points="14.5,-18.5 14.5,-18.5 231.5,-18.5 231.5,-18.5 14.5,-18.5"/>
<polygon fill="none" stroke="#666666" points="0,0 0,-55 231,-55 231,0 0,0"/>
</a>
</g>
</g>
<!-- Node2 -->
<g id="Node000002" class="node">
<title>Node2</title>
<g id="a_Node000002"><a xlink:title=" ">
<polygon fill="white" stroke="transparent" points="169.5,-146 61.5,-146 61.5,-91 169.5,-91 169.5,-146"/>
<text text-anchor="start" x="66.5" y="-131.9" font-family="Consolas" font-size="12.00">MonoBehaviour</text>
<text text-anchor="start" x="111.5" y="-114.9" font-family="Consolas" font-size="12.00"> </text>
<text text-anchor="start" x="111.5" y="-97.9" font-family="Consolas" font-size="12.00"> </text>
<polygon fill="#bfbfbf" stroke="#bfbfbf" points="61.5,-126.5 61.5,-126.5 169.5,-126.5 169.5,-126.5 61.5,-126.5"/>
<polygon fill="#bfbfbf" stroke="#bfbfbf" points="61.5,-109.5 61.5,-109.5 169.5,-109.5 169.5,-109.5 61.5,-109.5"/>
<polygon fill="none" stroke="#bfbfbf" points="61.5,-91 61.5,-146 169.5,-146 169.5,-91 61.5,-91"/>
</a>
</g>
</g>
<!-- Node2&#45;&gt;Node1 -->
<g id="edge1_Node000001_Node000002" class="edge">
<title>Node2&#45;&gt;Node1</title>
<g id="a_edge1_Node000001_Node000002"><a xlink:title=" ">
<path fill="none" stroke="#63b8ff" d="M115.5,-80.66C115.5,-72.12 115.5,-63.19 115.5,-55.18"/>
<polygon fill="none" stroke="#63b8ff" points="112,-80.8 115.5,-90.8 119,-80.8 112,-80.8"/>
</a>
</g>
</g>
</g>
</svg>
