<?xml version="1.0" encoding="UTF-8" standalone="no"?>
<!DOCTYPE svg PUBLIC "-//W3C//DTD SVG 1.1//EN"
 "http://www.w3.org/Graphics/SVG/1.1/DTD/svg11.dtd">
<!-- Generated by graphviz version 2.43.0 (0)
 -->
<!-- Title: LocalizedText Pages: 1 -->
<svg width="282pt" height="297pt"
 viewBox="0.00 0.00 281.50 297.00" xmlns="http://www.w3.org/2000/svg" xmlns:xlink="http://www.w3.org/1999/xlink">

<svg id="main" version="1.1" xmlns="http://www.w3.org/2000/svg" xmlns:xlink="http://www.w3.org/1999/xlink" xml:space="preserve" onload="init(evt)">
<style type="text/css"><![CDATA[
.node, .edge {opacity: 0.7;}
.node.selected, .edge.selected {opacity: 1;}
.edge:hover path { stroke: red; }
.edge:hover polygon { stroke: red; fill: red; }
]]></style>
<script type="application/ecmascript" xlink:href="svg.min.js"/>
<svg id="graph" class="graph">
<g id="graph0" class="graph" transform="scale(1 1) rotate(0) translate(4 293)">
<title>LocalizedText</title>
<!-- Node1 -->
<g id="Node000001" class="node">
<title>Node1</title>
<g id="a_Node000001"><a xlink:title=" ">
<polygon fill="#999999" stroke="transparent" points="231,-183 0,-183 0,0 231,0 231,-183"/>
<text text-anchor="start" x="67" y="-168.9" font-family="Consolas" font-size="12.00">LocalizedText</text>
<text text-anchor="start" x="4.5" y="-151.9" font-family="Consolas" font-size="12.00">&#45;</text>
<text text-anchor="start" x="16.5" y="-151.9" font-family="Consolas" font-size="12.00">string localizationKey</text>
<text text-anchor="start" x="4.5" y="-134.9" font-family="Consolas" font-size="12.00">&#45;</text>
<text text-anchor="start" x="16.5" y="-134.9" font-family="Consolas" font-size="12.00">TextMeshProUGUI tmpComponent</text>
<text text-anchor="start" x="4.5" y="-117.9" font-family="Consolas" font-size="12.00">+</text>
<text text-anchor="start" x="16.5" y="-117.9" font-family="Consolas" font-size="12.00">void SetKey(string key)</text>
<text text-anchor="start" x="4.5" y="-100.9" font-family="Consolas" font-size="12.00">&#45;</text>
<text text-anchor="start" x="16.5" y="-100.9" font-family="Consolas" font-size="12.00">void Awake()</text>
<text text-anchor="start" x="4.5" y="-83.9" font-family="Consolas" font-size="12.00">&#45;</text>
<text text-anchor="start" x="16.5" y="-83.9" font-family="Consolas" font-size="12.00">void OnDestroy()</text>
<text text-anchor="start" x="4.5" y="-66.9" font-family="Consolas" font-size="12.00">&#45;</text>
<text text-anchor="start" x="16.5" y="-66.9" font-family="Consolas" font-size="12.00">void OnLanguageChanged</text>
<text text-anchor="start" x="16.5" y="-53.9" font-family="Consolas" font-size="12.00">(SystemLanguage newLanguage)</text>
<text text-anchor="start" x="4.5" y="-36.9" font-family="Consolas" font-size="12.00">&#45;</text>
<text text-anchor="start" x="16.5" y="-36.9" font-family="Consolas" font-size="12.00">void UpdateText()</text>
<text text-anchor="start" x="4.5" y="-19.9" font-family="Consolas" font-size="12.00">&#45;</text>
<text text-anchor="start" x="16.5" y="-19.9" font-family="Consolas" font-size="12.00">void OnLocalizationManager</text>
<text text-anchor="start" x="16.5" y="-6.9" font-family="Consolas" font-size="12.00">Initialized()</text>
<polygon fill="#666666" stroke="#666666" points="0.5,-163.5 0.5,-163.5 231.5,-163.5 231.5,-163.5 0.5,-163.5"/>
<polygon fill="#666666" stroke="#666666" points="0.5,-129.5 0.5,-129.5 14.5,-129.5 14.5,-129.5 0.5,-129.5"/>
<polygon fill="#666666" stroke="#666666" points="14.5,-129.5 14.5,-129.5 231.5,-129.5 231.5,-129.5 14.5,-129.5"/>
<polygon fill="none" stroke="#666666" points="0,0 0,-183 231,-183 231,0 0,0"/>
</a>
</g>
</g>
<!-- Node2 -->
<g id="Node000002" class="node">
<title>Node2</title>
<g id="a_Node000002"><a xlink:title=" ">
<polygon fill="white" stroke="transparent" points="123.5,-289 15.5,-289 15.5,-234 123.5,-234 123.5,-289"/>
<text text-anchor="start" x="20.5" y="-274.9" font-family="Consolas" font-size="12.00">MonoBehaviour</text>
<text text-anchor="start" x="65.5" y="-257.9" font-family="Consolas" font-size="12.00"> </text>
<text text-anchor="start" x="65.5" y="-240.9" font-family="Consolas" font-size="12.00"> </text>
<polygon fill="#bfbfbf" stroke="#bfbfbf" points="15.5,-269.5 15.5,-269.5 123.5,-269.5 123.5,-269.5 15.5,-269.5"/>
<polygon fill="#bfbfbf" stroke="#bfbfbf" points="15.5,-252.5 15.5,-252.5 123.5,-252.5 123.5,-252.5 15.5,-252.5"/>
<polygon fill="none" stroke="#bfbfbf" points="15.5,-234 15.5,-289 123.5,-289 123.5,-234 15.5,-234"/>
</a>
</g>
</g>
<!-- Node2&#45;&gt;Node1 -->
<g id="edge1_Node000001_Node000002" class="edge">
<title>Node2&#45;&gt;Node1</title>
<g id="a_edge1_Node000001_Node000002"><a xlink:title=" ">
<path fill="none" stroke="#63b8ff" d="M79.47,-224.1C82.82,-211.84 86.73,-197.57 90.71,-183.04"/>
<polygon fill="none" stroke="#63b8ff" points="76.05,-223.31 76.79,-233.88 82.81,-225.16 76.05,-223.31"/>
</a>
</g>
</g>
<!-- Node3 -->
<g id="Node000003" class="node">
<title>Node3</title>
<g id="a_Node000003"><a xlink:title=" ">
<polygon fill="white" stroke="transparent" points="183,-289 142,-289 142,-234 183,-234 183,-289"/>
<text text-anchor="start" x="147.5" y="-274.9" font-family="Consolas" font-size="12.00">Text</text>
<text text-anchor="start" x="159" y="-257.9" font-family="Consolas" font-size="12.00"> </text>
<text text-anchor="start" x="159" y="-240.9" font-family="Consolas" font-size="12.00"> </text>
<polygon fill="#bfbfbf" stroke="#bfbfbf" points="142.5,-269.5 142.5,-269.5 183.5,-269.5 183.5,-269.5 142.5,-269.5"/>
<polygon fill="#bfbfbf" stroke="#bfbfbf" points="142.5,-252.5 142.5,-252.5 183.5,-252.5 183.5,-252.5 142.5,-252.5"/>
<polygon fill="none" stroke="#bfbfbf" points="142,-234 142,-289 183,-289 183,-234 142,-234"/>
</a>
</g>
</g>
<!-- Node3&#45;&gt;Node1 -->
<g id="edge2_Node000001_Node000003" class="edge">
<title>Node3&#45;&gt;Node1</title>
<g id="a_edge2_Node000001_Node000003"><a xlink:title=" ">
<path fill="none" stroke="#63b8ff" d="M155.05,-233.88C151.95,-222.78 148.13,-209.13 144.1,-194.72"/>
<polygon fill="none" stroke="#63b8ff" points="144.06,-194.59 138.59,-189.89 140.83,-183.04 146.3,-187.74 144.06,-194.59"/>
</a>
</g>
<text text-anchor="middle" x="211.5" y="-204.8" font-family="Consolas" font-size="14.00" fill="grey"> &#45;textComponent</text>
</g>
</g>
</svg>
</svg>

<style type='text/css'>
<![CDATA[
[data-mouse-over-selected='false'] { opacity: 0.7; }
[data-mouse-over-selected='true']  { opacity: 1.0; }
]]>
</style>
<script type="application/ecmascript"><![CDATA[
document.addEventListener('DOMContentLoaded', (event) => {
  highlightEdges();
  highlightAdjacentNodes();
});
]]></script>
</svg>
