<?xml version="1.0" encoding="UTF-8" standalone="no"?>
<!DOCTYPE svg PUBLIC "-//W3C//DTD SVG 1.1//EN"
 "http://www.w3.org/Graphics/SVG/1.1/DTD/svg11.dtd">
<!-- Generated by graphviz version 2.43.0 (0)
 -->
<!-- Title: ShipWeaponFactory Pages: 1 -->
<svg width="423pt" height="660pt"
 viewBox="0.00 0.00 423.00 660.00" xmlns="http://www.w3.org/2000/svg" xmlns:xlink="http://www.w3.org/1999/xlink">
<g id="graph0" class="graph" transform="scale(1 1) rotate(0) translate(4 656)">
<title>ShipWeaponFactory</title>
<!-- Node1 -->
<g id="Node000001" class="node">
<title>Node1</title>
<g id="a_Node000001"><a xlink:title="함선 무기 관리 시스템 무기 데이터 접근 및 무기 인스턴스 생성을 담당합니다.">
<polygon fill="#999999" stroke="transparent" points="268,-278 0,-278 0,0 268,0 268,-278"/>
<text text-anchor="start" x="70" y="-264.4" font-family="Consolas" font-size="12.00">ShipWeaponFactory</text>
<text text-anchor="start" x="4" y="-247.4" font-family="Consolas" font-size="12.00">&#45;</text>
<text text-anchor="start" x="16" y="-247.4" font-family="Consolas" font-size="12.00">GameObject weaponPrefab</text>
<text text-anchor="start" x="4" y="-230.4" font-family="Consolas" font-size="12.00">+</text>
<text text-anchor="start" x="16" y="-230.4" font-family="Consolas" font-size="12.00">ShipWeaponData GetWeapon</text>
<text text-anchor="start" x="16" y="-217.4" font-family="Consolas" font-size="12.00">Data(int id)</text>
<text text-anchor="start" x="4" y="-200.4" font-family="Consolas" font-size="12.00">+</text>
<text text-anchor="start" x="16" y="-200.4" font-family="Consolas" font-size="12.00">ShipWeapon CreateWeaponInstance</text>
<text text-anchor="start" x="16" y="-187.4" font-family="Consolas" font-size="12.00">(int weaponId)</text>
<text text-anchor="start" x="4" y="-170.4" font-family="Consolas" font-size="12.00">+</text>
<text text-anchor="start" x="16" y="-170.4" font-family="Consolas" font-size="12.00">ShipWeapon CreateWeaponObject</text>
<text text-anchor="start" x="16" y="-157.4" font-family="Consolas" font-size="12.00">(ShipWeapon shipWeapon)</text>
<text text-anchor="start" x="4" y="-140.4" font-family="Consolas" font-size="12.00">+</text>
<text text-anchor="start" x="16" y="-140.4" font-family="Consolas" font-size="12.00">List&lt; ShipWeaponData</text>
<text text-anchor="start" x="16" y="-127.4" font-family="Consolas" font-size="12.00"> &gt; GetAllWeaponData()</text>
<text text-anchor="start" x="4" y="-110.4" font-family="Consolas" font-size="12.00">+</text>
<text text-anchor="start" x="16" y="-110.4" font-family="Consolas" font-size="12.00">List&lt; ShipWeaponData</text>
<text text-anchor="start" x="16" y="-97.4" font-family="Consolas" font-size="12.00"> &gt; GetWeaponsByType(ShipWeapon</text>
<text text-anchor="start" x="16" y="-84.4" font-family="Consolas" font-size="12.00">Type type)</text>
<text text-anchor="start" x="4" y="-67.4" font-family="Consolas" font-size="12.00">+</text>
<text text-anchor="start" x="16" y="-67.4" font-family="Consolas" font-size="12.00">List&lt; ShipWeaponData</text>
<text text-anchor="start" x="16" y="-54.4" font-family="Consolas" font-size="12.00"> &gt; GetWeaponsByEffectType</text>
<text text-anchor="start" x="16" y="-41.4" font-family="Consolas" font-size="12.00">(ShipWeaponEffectType effectType)</text>
<text text-anchor="start" x="4" y="-24.4" font-family="Consolas" font-size="12.00">&#45;</text>
<text text-anchor="start" x="16" y="-24.4" font-family="Consolas" font-size="12.00">void Awake()</text>
<text text-anchor="start" x="4" y="-7.4" font-family="Consolas" font-size="12.00">&#45;</text>
<text text-anchor="start" x="16" y="-7.4" font-family="Consolas" font-size="12.00">void InitializeWeaponDatabase()</text>
<polygon fill="#666666" stroke="#666666" points="0,-259 0,-259 268,-259 268,-259 0,-259"/>
<polygon fill="#666666" stroke="#666666" points="0,-242 0,-242 14,-242 14,-242 0,-242"/>
<polygon fill="#666666" stroke="#666666" points="14,-242 14,-242 268,-242 268,-242 14,-242"/>
<polygon fill="none" stroke="#666666" points="0,0 0,-278 268,-278 268,0 0,0"/>
</a>
</g>
</g>
<!-- Node2 -->
<g id="Node000002" class="node">
<title>Node2</title>
<g id="a_Node000002"><a xlink:title=" ">
<polygon fill="white" stroke="transparent" points="129,-472 21,-472 21,-417 129,-417 129,-472"/>
<text text-anchor="start" x="26" y="-457.9" font-family="Consolas" font-size="12.00">MonoBehaviour</text>
<text text-anchor="start" x="71" y="-440.9" font-family="Consolas" font-size="12.00"> </text>
<text text-anchor="start" x="71" y="-423.9" font-family="Consolas" font-size="12.00"> </text>
<polygon fill="#bfbfbf" stroke="#bfbfbf" points="21,-452.5 21,-452.5 129,-452.5 129,-452.5 21,-452.5"/>
<polygon fill="#bfbfbf" stroke="#bfbfbf" points="21,-435.5 21,-435.5 129,-435.5 129,-435.5 21,-435.5"/>
<polygon fill="none" stroke="#bfbfbf" points="21,-417 21,-472 129,-472 129,-417 21,-417"/>
</a>
</g>
</g>
<!-- Node2&#45;&gt;Node1 -->
<g id="edge1_Node000001_Node000002" class="edge">
<title>Node2&#45;&gt;Node1</title>
<g id="a_edge1_Node000001_Node000002"><a xlink:title=" ">
<path fill="none" stroke="#63b8ff" d="M82.1,-406.97C88.37,-374.71 97.93,-325.56 107.14,-278.18"/>
<polygon fill="none" stroke="#63b8ff" points="78.66,-406.35 80.18,-416.83 85.53,-407.68 78.66,-406.35"/>
</a>
</g>
</g>
<!-- Node3 -->
<g id="Node000003" class="node">
<title>Node3</title>
<g id="a_Node000003"><a xlink:href="classShipWeaponDatabase.html" target="_top" xlink:title="함선 무기 데이터베이스 모든 무기 데이터와 효과 데이터를 관리합니다.">
<polygon fill="white" stroke="transparent" points="415,-560 147,-560 147,-329 415,-329 415,-560"/>
<text text-anchor="start" x="213" y="-545.9" font-family="Consolas" font-size="12.00">ShipWeaponDatabase</text>
<text text-anchor="start" x="151" y="-528.9" font-family="Consolas" font-size="12.00">+</text>
<text text-anchor="start" x="163" y="-528.9" font-family="Consolas" font-size="12.00">List&lt; ShipWeaponData</text>
<text text-anchor="start" x="163" y="-515.9" font-family="Consolas" font-size="12.00"> &gt; allWeapons</text>
<text text-anchor="start" x="151" y="-498.9" font-family="Consolas" font-size="12.00">&#45;</text>
<text text-anchor="start" x="163" y="-498.9" font-family="Consolas" font-size="12.00">Dictionary&lt; int, ShipWeapon</text>
<text text-anchor="start" x="163" y="-485.9" font-family="Consolas" font-size="12.00">Data &gt; weaponDictionary</text>
<text text-anchor="start" x="151" y="-468.9" font-family="Consolas" font-size="12.00">+</text>
<text text-anchor="start" x="163" y="-468.9" font-family="Consolas" font-size="12.00">void Initialize()</text>
<text text-anchor="start" x="151" y="-451.9" font-family="Consolas" font-size="12.00">+</text>
<text text-anchor="start" x="163" y="-451.9" font-family="Consolas" font-size="12.00">ShipWeaponData GetWeapon</text>
<text text-anchor="start" x="163" y="-438.9" font-family="Consolas" font-size="12.00">Data(int id)</text>
<text text-anchor="start" x="151" y="-421.9" font-family="Consolas" font-size="12.00">+</text>
<text text-anchor="start" x="163" y="-421.9" font-family="Consolas" font-size="12.00">List&lt; ShipWeaponData</text>
<text text-anchor="start" x="163" y="-408.9" font-family="Consolas" font-size="12.00"> &gt; GetWeaponsByType(ShipWeapon</text>
<text text-anchor="start" x="163" y="-395.9" font-family="Consolas" font-size="12.00">Type type)</text>
<text text-anchor="start" x="151" y="-378.9" font-family="Consolas" font-size="12.00">+</text>
<text text-anchor="start" x="163" y="-378.9" font-family="Consolas" font-size="12.00">List&lt; ShipWeaponData</text>
<text text-anchor="start" x="163" y="-365.9" font-family="Consolas" font-size="12.00"> &gt; GetWeaponsByEffectType</text>
<text text-anchor="start" x="163" y="-352.9" font-family="Consolas" font-size="12.00">(ShipWeaponEffectType effectType)</text>
<text text-anchor="start" x="151" y="-335.9" font-family="Consolas" font-size="12.00">&#45;</text>
<text text-anchor="start" x="163" y="-335.9" font-family="Consolas" font-size="12.00">void InitializeWeaponDictionary()</text>
<polygon fill="#666666" stroke="#666666" points="147,-540.5 147,-540.5 415,-540.5 415,-540.5 147,-540.5"/>
<polygon fill="#666666" stroke="#666666" points="147,-480.5 147,-480.5 161,-480.5 161,-480.5 147,-480.5"/>
<polygon fill="#666666" stroke="#666666" points="161,-480.5 161,-480.5 415,-480.5 415,-480.5 161,-480.5"/>
<polygon fill="none" stroke="#666666" points="147,-329 147,-560 415,-560 415,-329 147,-329"/>
</a>
</g>
</g>
<!-- Node3&#45;&gt;Node1 -->
<g id="edge2_Node000001_Node000003" class="edge">
<title>Node3&#45;&gt;Node1</title>
<g id="a_edge2_Node000001_Node000003"><a xlink:title=" ">
<path fill="none" stroke="#63b8ff" d="M225.43,-328.76C219.17,-315.84 212.73,-302.54 206.3,-289.27"/>
<polygon fill="none" stroke="#63b8ff" points="206.14,-288.94 199.92,-285.28 200.91,-278.14 207.12,-281.79 206.14,-288.94"/>
</a>
</g>
<text text-anchor="middle" x="282.5" y="-299.8" font-family="Consolas" font-size="14.00" fill="grey"> &#45;weaponDatabase</text>
</g>
<!-- Node4 -->
<g id="Node000004" class="node">
<title>Node4</title>
<g id="a_Node000004"><a xlink:title=" ">
<polygon fill="white" stroke="transparent" points="346.5,-652 215.5,-652 215.5,-597 346.5,-597 346.5,-652"/>
<text text-anchor="start" x="221" y="-637.9" font-family="Consolas" font-size="12.00">ScriptableObject</text>
<text text-anchor="start" x="277.5" y="-620.9" font-family="Consolas" font-size="12.00"> </text>
<text text-anchor="start" x="277.5" y="-603.9" font-family="Consolas" font-size="12.00"> </text>
<polygon fill="#bfbfbf" stroke="#bfbfbf" points="216,-632.5 216,-632.5 347,-632.5 347,-632.5 216,-632.5"/>
<polygon fill="#bfbfbf" stroke="#bfbfbf" points="216,-615.5 216,-615.5 347,-615.5 347,-615.5 216,-615.5"/>
<polygon fill="none" stroke="#bfbfbf" points="215.5,-597 215.5,-652 346.5,-652 346.5,-597 215.5,-597"/>
</a>
</g>
</g>
<!-- Node4&#45;&gt;Node3 -->
<g id="edge3_Node000003_Node000004" class="edge">
<title>Node4&#45;&gt;Node3</title>
<g id="a_edge3_Node000003_Node000004"><a xlink:title=" ">
<path fill="none" stroke="#63b8ff" d="M281,-586.77C281,-578.68 281,-569.7 281,-560.3"/>
<polygon fill="none" stroke="#63b8ff" points="277.5,-586.85 281,-596.85 284.5,-586.85 277.5,-586.85"/>
</a>
</g>
</g>
</g>
</svg>
