<?xml version="1.0" encoding="UTF-8" standalone="no"?>
<!DOCTYPE svg PUBLIC "-//W3C//DTD SVG 1.1//EN"
 "http://www.w3.org/Graphics/SVG/1.1/DTD/svg11.dtd">
<!-- Generated by graphviz version 2.43.0 (0)
 -->
<!-- Title: QuestObjective Pages: 1 -->
<svg width="194pt" height="178pt"
 viewBox="0.00 0.00 194.00 178.00" xmlns="http://www.w3.org/2000/svg" xmlns:xlink="http://www.w3.org/1999/xlink">
<g id="graph0" class="graph" transform="scale(1 1) rotate(0) translate(4 174)">
<title>QuestObjective</title>
<!-- Node1 -->
<g id="Node000001" class="node">
<title>Node1</title>
<g id="a_Node000001"><a xlink:title="퀘스트 목표를 정의하는 내부 클래스입니다.">
<polygon fill="#999999" stroke="transparent" points="186,-170 0,-170 0,0 186,0 186,-170"/>
<text text-anchor="start" x="40" y="-156.4" font-family="Consolas" font-size="12.00">QuestObjective</text>
<text text-anchor="start" x="4" y="-139.4" font-family="Consolas" font-size="12.00">+</text>
<text text-anchor="start" x="16" y="-139.4" font-family="Consolas" font-size="12.00">QuestObjectiveType</text>
<text text-anchor="start" x="16" y="-126.4" font-family="Consolas" font-size="12.00"> objectiveType</text>
<text text-anchor="start" x="4" y="-109.4" font-family="Consolas" font-size="12.00">+</text>
<text text-anchor="start" x="16" y="-109.4" font-family="Consolas" font-size="12.00">string description</text>
<text text-anchor="start" x="4" y="-92.4" font-family="Consolas" font-size="12.00">+</text>
<text text-anchor="start" x="16" y="-92.4" font-family="Consolas" font-size="12.00">int targetId</text>
<text text-anchor="start" x="4" y="-75.4" font-family="Consolas" font-size="12.00">+</text>
<text text-anchor="start" x="16" y="-75.4" font-family="Consolas" font-size="12.00">int amount</text>
<text text-anchor="start" x="4" y="-58.4" font-family="Consolas" font-size="12.00">+</text>
<text text-anchor="start" x="16" y="-58.4" font-family="Consolas" font-size="12.00">int currentAmount</text>
<text text-anchor="start" x="4" y="-41.4" font-family="Consolas" font-size="12.00">+</text>
<text text-anchor="start" x="16" y="-41.4" font-family="Consolas" font-size="12.00">int targetPlanetDataId</text>
<text text-anchor="start" x="4" y="-24.4" font-family="Consolas" font-size="12.00">+</text>
<text text-anchor="start" x="16" y="-24.4" font-family="Consolas" font-size="12.00">bool canComplete</text>
<text text-anchor="start" x="89" y="-7.4" font-family="Consolas" font-size="12.00"> </text>
<polygon fill="#666666" stroke="#666666" points="0,-151 0,-151 186,-151 186,-151 0,-151"/>
<polygon fill="#666666" stroke="#666666" points="0,-19 0,-19 14,-19 14,-19 0,-19"/>
<polygon fill="#666666" stroke="#666666" points="14,-19 14,-19 186,-19 186,-19 14,-19"/>
<polygon fill="none" stroke="#666666" points="0,0 0,-170 186,-170 186,0 0,0"/>
</a>
</g>
</g>
</g>
</svg>
