<?xml version="1.0" encoding="UTF-8" standalone="no"?>
<!DOCTYPE svg PUBLIC "-//W3C//DTD SVG 1.1//EN"
 "http://www.w3.org/Graphics/SVG/1.1/DTD/svg11.dtd">
<!-- Generated by graphviz version 2.43.0 (0)
 -->
<!-- Title: RoomInventoryButton Pages: 1 -->
<svg width="705pt" height="445pt"
 viewBox="0.00 0.00 704.50 445.00" xmlns="http://www.w3.org/2000/svg" xmlns:xlink="http://www.w3.org/1999/xlink">
<g id="graph0" class="graph" transform="scale(1 1) rotate(0) translate(4 441)">
<title>RoomInventoryButton</title>
<!-- Node1 -->
<g id="Node000001" class="node">
<title>Node1</title>
<g id="a_Node000001"><a xlink:title="각 룸 항목에 대한 UI 버튼.">
<polygon fill="#999999" stroke="transparent" points="535,-346 199,-346 199,0 535,0 535,-346"/>
<text text-anchor="start" x="295.5" y="-332.4" font-family="Consolas" font-size="12.00">RoomInventoryButton</text>
<text text-anchor="start" x="203" y="-315.4" font-family="Consolas" font-size="12.00">+</text>
<text text-anchor="start" x="215" y="-315.4" font-family="Consolas" font-size="12.00">Image icon</text>
<text text-anchor="start" x="203" y="-298.4" font-family="Consolas" font-size="12.00">+</text>
<text text-anchor="start" x="215" y="-298.4" font-family="Consolas" font-size="12.00">TMP_Text label</text>
<text text-anchor="start" x="203" y="-281.4" font-family="Consolas" font-size="12.00">&#45;</text>
<text text-anchor="start" x="215" y="-281.4" font-family="Consolas" font-size="12.00">RoomData roomData</text>
<text text-anchor="start" x="203" y="-264.4" font-family="Consolas" font-size="12.00">&#45;</text>
<text text-anchor="start" x="215" y="-264.4" font-family="Consolas" font-size="12.00">int level</text>
<text text-anchor="start" x="203" y="-247.4" font-family="Consolas" font-size="12.00">&#45;</text>
<text text-anchor="start" x="215" y="-247.4" font-family="Consolas" font-size="12.00">BlueprintRoomDragHandler</text>
<text text-anchor="start" x="215" y="-234.4" font-family="Consolas" font-size="12.00"> dragHandler</text>
<text text-anchor="start" x="203" y="-217.4" font-family="Consolas" font-size="12.00">&#45;</text>
<text text-anchor="start" x="215" y="-217.4" font-family="Consolas" font-size="12.00">bool isDragging</text>
<text text-anchor="start" x="203" y="-200.4" font-family="Consolas" font-size="12.00">&#45;</text>
<text text-anchor="start" x="215" y="-200.4" font-family="Consolas" font-size="12.00">float baseWidth</text>
<text text-anchor="start" x="203" y="-183.4" font-family="Consolas" font-size="12.00">&#45;</text>
<text text-anchor="start" x="215" y="-183.4" font-family="Consolas" font-size="12.00">float baseHeight</text>
<text text-anchor="start" x="203" y="-166.4" font-family="Consolas" font-size="12.00">+</text>
<text text-anchor="start" x="215" y="-166.4" font-family="Consolas" font-size="12.00">void Initialize(RoomData</text>
<text text-anchor="start" x="215" y="-153.4" font-family="Consolas" font-size="12.00"> data, int lvl, RoomData.RoomLevel</text>
<text text-anchor="start" x="215" y="-140.4" font-family="Consolas" font-size="12.00"> levelData, int levelsCount, BlueprintRoom</text>
<text text-anchor="start" x="215" y="-127.4" font-family="Consolas" font-size="12.00">DragHandler handler)</text>
<text text-anchor="start" x="203" y="-110.4" font-family="Consolas" font-size="12.00">+</text>
<text text-anchor="start" x="215" y="-110.4" font-family="Consolas" font-size="12.00">void OnPointerDown</text>
<text text-anchor="start" x="215" y="-97.4" font-family="Consolas" font-size="12.00">(PointerEventData eventData)</text>
<text text-anchor="start" x="203" y="-80.4" font-family="Consolas" font-size="12.00">+</text>
<text text-anchor="start" x="215" y="-80.4" font-family="Consolas" font-size="12.00">void OnBeginDrag(Pointer</text>
<text text-anchor="start" x="215" y="-67.4" font-family="Consolas" font-size="12.00">EventData eventData)</text>
<text text-anchor="start" x="203" y="-50.4" font-family="Consolas" font-size="12.00">+</text>
<text text-anchor="start" x="215" y="-50.4" font-family="Consolas" font-size="12.00">void OnDrag(PointerEvent</text>
<text text-anchor="start" x="215" y="-37.4" font-family="Consolas" font-size="12.00">Data eventData)</text>
<text text-anchor="start" x="203" y="-20.4" font-family="Consolas" font-size="12.00">+</text>
<text text-anchor="start" x="215" y="-20.4" font-family="Consolas" font-size="12.00">void OnEndDrag(PointerEvent</text>
<text text-anchor="start" x="215" y="-7.4" font-family="Consolas" font-size="12.00">Data eventData)</text>
<polygon fill="#666666" stroke="#666666" points="199,-327 199,-327 535,-327 535,-327 199,-327"/>
<polygon fill="#666666" stroke="#666666" points="199,-178 199,-178 213,-178 213,-178 199,-178"/>
<polygon fill="#666666" stroke="#666666" points="213,-178 213,-178 535,-178 535,-178 213,-178"/>
<polygon fill="none" stroke="#666666" points="199,0 199,-346 535,-346 535,0 199,0"/>
</a>
</g>
</g>
<!-- Node2 -->
<g id="Node000002" class="node">
<title>Node2</title>
<g id="a_Node000002"><a xlink:title=" ">
<polygon fill="white" stroke="transparent" points="108,-437 0,-437 0,-382 108,-382 108,-437"/>
<text text-anchor="start" x="5" y="-422.9" font-family="Consolas" font-size="12.00">MonoBehaviour</text>
<text text-anchor="start" x="50" y="-405.9" font-family="Consolas" font-size="12.00"> </text>
<text text-anchor="start" x="50" y="-388.9" font-family="Consolas" font-size="12.00"> </text>
<polygon fill="#bfbfbf" stroke="#bfbfbf" points="0,-417.5 0,-417.5 108,-417.5 108,-417.5 0,-417.5"/>
<polygon fill="#bfbfbf" stroke="#bfbfbf" points="0,-400.5 0,-400.5 108,-400.5 108,-400.5 0,-400.5"/>
<polygon fill="none" stroke="#bfbfbf" points="0,-382 0,-437 108,-437 108,-382 0,-382"/>
</a>
</g>
</g>
<!-- Node2&#45;&gt;Node1 -->
<g id="edge1_Node000001_Node000002" class="edge">
<title>Node2&#45;&gt;Node1</title>
<g id="a_edge1_Node000001_Node000002"><a xlink:title=" ">
<path fill="none" stroke="#63b8ff" d="M97.68,-375.78C124.73,-355.51 161.39,-328.04 198.94,-299.91"/>
<polygon fill="none" stroke="#63b8ff" points="95.5,-373.03 89.6,-381.83 99.7,-378.63 95.5,-373.03"/>
</a>
</g>
</g>
<!-- Node3 -->
<g id="Node000003" class="node">
<title>Node3</title>
<g id="a_Node000003"><a xlink:title=" ">
<polygon fill="white" stroke="transparent" points="279.5,-437 126.5,-437 126.5,-382 279.5,-382 279.5,-437"/>
<text text-anchor="start" x="132" y="-422.9" font-family="Consolas" font-size="12.00">IPointerDownHandler</text>
<text text-anchor="start" x="199.5" y="-405.9" font-family="Consolas" font-size="12.00"> </text>
<text text-anchor="start" x="199.5" y="-388.9" font-family="Consolas" font-size="12.00"> </text>
<polygon fill="#bfbfbf" stroke="#bfbfbf" points="127,-417.5 127,-417.5 280,-417.5 280,-417.5 127,-417.5"/>
<polygon fill="#bfbfbf" stroke="#bfbfbf" points="127,-400.5 127,-400.5 280,-400.5 280,-400.5 127,-400.5"/>
<polygon fill="none" stroke="#bfbfbf" points="126.5,-382 126.5,-437 279.5,-437 279.5,-382 126.5,-382"/>
</a>
</g>
</g>
<!-- Node3&#45;&gt;Node1 -->
<g id="edge2_Node000001_Node000003" class="edge">
<title>Node3&#45;&gt;Node1</title>
<g id="a_edge2_Node000001_Node000003"><a xlink:title=" ">
<path fill="none" stroke="#63b8ff" d="M227.62,-373.3C233.24,-365.26 239.59,-356.19 246.39,-346.46"/>
<polygon fill="none" stroke="#63b8ff" points="224.68,-371.4 221.81,-381.6 230.41,-375.41 224.68,-371.4"/>
</a>
</g>
</g>
<!-- Node4 -->
<g id="Node000004" class="node">
<title>Node4</title>
<g id="a_Node000004"><a xlink:title=" ">
<polygon fill="white" stroke="transparent" points="436,-437 298,-437 298,-382 436,-382 436,-437"/>
<text text-anchor="start" x="303" y="-422.9" font-family="Consolas" font-size="12.00">IBeginDragHandler</text>
<text text-anchor="start" x="363" y="-405.9" font-family="Consolas" font-size="12.00"> </text>
<text text-anchor="start" x="363" y="-388.9" font-family="Consolas" font-size="12.00"> </text>
<polygon fill="#bfbfbf" stroke="#bfbfbf" points="298,-417.5 298,-417.5 436,-417.5 436,-417.5 298,-417.5"/>
<polygon fill="#bfbfbf" stroke="#bfbfbf" points="298,-400.5 298,-400.5 436,-400.5 436,-400.5 298,-400.5"/>
<polygon fill="none" stroke="#bfbfbf" points="298,-382 298,-437 436,-437 436,-382 298,-382"/>
</a>
</g>
</g>
<!-- Node4&#45;&gt;Node1 -->
<g id="edge3_Node000001_Node000004" class="edge">
<title>Node4&#45;&gt;Node1</title>
<g id="a_edge3_Node000001_Node000004"><a xlink:title=" ">
<path fill="none" stroke="#63b8ff" d="M367,-371.48C367,-363.9 367,-355.46 367,-346.46"/>
<polygon fill="none" stroke="#63b8ff" points="363.5,-371.6 367,-381.6 370.5,-371.6 363.5,-371.6"/>
</a>
</g>
</g>
<!-- Node5 -->
<g id="Node000005" class="node">
<title>Node5</title>
<g id="a_Node000005"><a xlink:title=" ">
<polygon fill="white" stroke="transparent" points="555.5,-437 454.5,-437 454.5,-382 555.5,-382 555.5,-437"/>
<text text-anchor="start" x="460" y="-422.9" font-family="Consolas" font-size="12.00">IDragHandler</text>
<text text-anchor="start" x="501.5" y="-405.9" font-family="Consolas" font-size="12.00"> </text>
<text text-anchor="start" x="501.5" y="-388.9" font-family="Consolas" font-size="12.00"> </text>
<polygon fill="#bfbfbf" stroke="#bfbfbf" points="455,-417.5 455,-417.5 556,-417.5 556,-417.5 455,-417.5"/>
<polygon fill="#bfbfbf" stroke="#bfbfbf" points="455,-400.5 455,-400.5 556,-400.5 556,-400.5 455,-400.5"/>
<polygon fill="none" stroke="#bfbfbf" points="454.5,-382 454.5,-437 555.5,-437 555.5,-382 454.5,-382"/>
</a>
</g>
</g>
<!-- Node5&#45;&gt;Node1 -->
<g id="edge4_Node000001_Node000005" class="edge">
<title>Node5&#45;&gt;Node1</title>
<g id="a_edge4_Node000001_Node000005"><a xlink:title=" ">
<path fill="none" stroke="#63b8ff" d="M483.98,-372.78C479.33,-364.87 474.09,-355.98 468.49,-346.46"/>
<polygon fill="none" stroke="#63b8ff" points="481.08,-374.76 489.17,-381.6 487.11,-371.21 481.08,-374.76"/>
</a>
</g>
</g>
<!-- Node6 -->
<g id="Node000006" class="node">
<title>Node6</title>
<g id="a_Node000006"><a xlink:title=" ">
<polygon fill="white" stroke="transparent" points="696.5,-437 573.5,-437 573.5,-382 696.5,-382 696.5,-437"/>
<text text-anchor="start" x="579" y="-422.9" font-family="Consolas" font-size="12.00">IEndDragHandler</text>
<text text-anchor="start" x="631.5" y="-405.9" font-family="Consolas" font-size="12.00"> </text>
<text text-anchor="start" x="631.5" y="-388.9" font-family="Consolas" font-size="12.00"> </text>
<polygon fill="#bfbfbf" stroke="#bfbfbf" points="574,-417.5 574,-417.5 697,-417.5 697,-417.5 574,-417.5"/>
<polygon fill="#bfbfbf" stroke="#bfbfbf" points="574,-400.5 574,-400.5 697,-400.5 697,-400.5 574,-400.5"/>
<polygon fill="none" stroke="#bfbfbf" points="573.5,-382 573.5,-437 696.5,-437 696.5,-382 573.5,-382"/>
</a>
</g>
</g>
<!-- Node6&#45;&gt;Node1 -->
<g id="edge5_Node000001_Node000006" class="edge">
<title>Node6&#45;&gt;Node1</title>
<g id="a_edge5_Node000001_Node000006"><a xlink:title=" ">
<path fill="none" stroke="#63b8ff" d="M596.94,-375.2C579.75,-360.16 558.13,-341.24 535.07,-321.06"/>
<polygon fill="none" stroke="#63b8ff" points="594.69,-377.88 604.52,-381.83 599.3,-372.61 594.69,-377.88"/>
</a>
</g>
</g>
</g>
</svg>
