<?xml version="1.0" encoding="UTF-8" standalone="no"?>
<!DOCTYPE svg PUBLIC "-//W3C//DTD SVG 1.1//EN"
 "http://www.w3.org/Graphics/SVG/1.1/DTD/svg11.dtd">
<!-- Generated by graphviz version 2.43.0 (0)
 -->
<!-- Title: TradeUIController.SlideToPosition Pages: 1 -->
<svg width="1217pt" height="173pt"
 viewBox="0.00 0.00 1217.00 172.50" xmlns="http://www.w3.org/2000/svg" xmlns:xlink="http://www.w3.org/1999/xlink">
<g id="graph0" class="graph" transform="scale(1 1) rotate(0) translate(4 168.5)">
<title>TradeUIController.SlideToPosition</title>
<!-- Node1 -->
<g id="Node000001" class="node">
<title>Node1</title>
<g id="a_Node000001"><a xlink:title="패널을 원하는 위치로 슬라이드(개폐)하는 함수">
<polygon fill="#999999" stroke="#666666" points="1209,-89.5 1005,-89.5 1005,-55.5 1209,-55.5 1209,-89.5"/>
<text text-anchor="start" x="1013" y="-75.9" font-family="Consolas" font-size="12.00">TradeUIController.SlideTo</text>
<text text-anchor="middle" x="1107" y="-62.9" font-family="Consolas" font-size="12.00">Position</text>
</a>
</g>
</g>
<!-- Node2 -->
<g id="Node000002" class="node">
<title>Node2</title>
<g id="a_Node000002"><a xlink:href="classTradeUIController.html#ab7f766a6559b670b902437ba52052561" target="_top" xlink:title="구매 패널을 닫는 함수">
<polygon fill="white" stroke="#666666" points="950.5,-164.5 738.5,-164.5 738.5,-130.5 950.5,-130.5 950.5,-164.5"/>
<text text-anchor="start" x="746.5" y="-150.9" font-family="Consolas" font-size="12.00">TradeUIController.SlideBuy</text>
<text text-anchor="middle" x="844.5" y="-137.9" font-family="Consolas" font-size="12.00">Close</text>
</a>
</g>
</g>
<!-- Node1&#45;&gt;Node2 -->
<g id="edge1_Node000001_Node000002" class="edge">
<title>Node1&#45;&gt;Node2</title>
<g id="a_edge1_Node000001_Node000002"><a xlink:title=" ">
<path fill="none" stroke="#63b8ff" d="M1053.59,-93.14C1028.29,-102.61 997.34,-113.49 969,-121.5 957.61,-124.72 945.54,-127.74 933.57,-130.49"/>
<polygon fill="#63b8ff" stroke="#63b8ff" points="1054.87,-96.39 1062.99,-89.58 1052.4,-89.84 1054.87,-96.39"/>
</a>
</g>
</g>
<!-- Node4 -->
<g id="Node000004" class="node">
<title>Node4</title>
<g id="a_Node000004"><a xlink:href="classTradeUIController.html#a7483e0e20da732a05cdec70cc8b057af" target="_top" xlink:title="구매 패널을 여는 함수.">
<polygon fill="white" stroke="#666666" points="965.5,-60 723.5,-60 723.5,-39 965.5,-39 965.5,-60"/>
<text text-anchor="middle" x="844.5" y="-46.4" font-family="Consolas" font-size="12.00">TradeUIController.SlideBuyOpen</text>
</a>
</g>
</g>
<!-- Node1&#45;&gt;Node4 -->
<g id="edge3_Node000001_Node000004" class="edge">
<title>Node1&#45;&gt;Node4</title>
<g id="a_edge3_Node000001_Node000004"><a xlink:title=" ">
<path fill="none" stroke="#63b8ff" d="M994.66,-62.67C984.76,-61.8 974.72,-60.91 964.76,-60.03"/>
<polygon fill="#63b8ff" stroke="#63b8ff" points="994.64,-66.18 1004.91,-63.57 995.26,-59.21 994.64,-66.18"/>
</a>
</g>
</g>
<!-- Node8 -->
<g id="Node000008" class="node">
<title>Node8</title>
<g id="a_Node000008"><a xlink:href="classTradeUIController.html#a2d19d47f91ab9022a7b4da9df5fd5b87" target="_top" xlink:title="판매 패널을 닫는 함수">
<polygon fill="white" stroke="#666666" points="954,-112.5 735,-112.5 735,-78.5 954,-78.5 954,-112.5"/>
<text text-anchor="start" x="743" y="-98.9" font-family="Consolas" font-size="12.00">TradeUIController.SlideSell</text>
<text text-anchor="middle" x="844.5" y="-85.9" font-family="Consolas" font-size="12.00">Close</text>
</a>
</g>
</g>
<!-- Node1&#45;&gt;Node8 -->
<g id="edge7_Node000001_Node000008" class="edge">
<title>Node1&#45;&gt;Node8</title>
<g id="a_edge7_Node000001_Node000008"><a xlink:title=" ">
<path fill="none" stroke="#63b8ff" d="M994.73,-82.32C981.33,-83.51 967.66,-84.71 954.3,-85.89"/>
<polygon fill="#63b8ff" stroke="#63b8ff" points="995.26,-85.79 1004.91,-81.43 994.64,-78.82 995.26,-85.79"/>
</a>
</g>
</g>
<!-- Node9 -->
<g id="Node000009" class="node">
<title>Node9</title>
<g id="a_Node000009"><a xlink:href="classTradeUIController.html#a5c875bb20e5e2139d6cc474db8a6a6e0" target="_top" xlink:title="판매 패널을 여는 함수">
<polygon fill="white" stroke="#666666" points="969,-21 720,-21 720,0 969,0 969,-21"/>
<text text-anchor="middle" x="844.5" y="-7.4" font-family="Consolas" font-size="12.00">TradeUIController.SlideSellOpen</text>
</a>
</g>
</g>
<!-- Node1&#45;&gt;Node9 -->
<g id="edge9_Node000001_Node000009" class="edge">
<title>Node1&#45;&gt;Node9</title>
<g id="a_edge9_Node000001_Node000009"><a xlink:title=" ">
<path fill="none" stroke="#63b8ff" d="M1048.24,-52.23C1023.99,-44.29 995.36,-35.63 969,-29.5 955.05,-26.26 940.09,-23.43 925.56,-21.01"/>
<polygon fill="#63b8ff" stroke="#63b8ff" points="1047.4,-55.64 1057.99,-55.47 1049.6,-49 1047.4,-55.64"/>
</a>
</g>
</g>
<!-- Node3 -->
<g id="Node000003" class="node">
<title>Node3</title>
<g id="a_Node000003"><a xlink:href="classTradeUIController.html#aad67e025a575de219cdf8c935e18ebbb" target="_top" xlink:title="패널 외 다른 부분을 클릭하는지 검사하고, 클릭했다면 패널을 닫는다.">
<polygon fill="white" stroke="#666666" points="680.5,-115 483.5,-115 483.5,-94 680.5,-94 680.5,-115"/>
<text text-anchor="middle" x="582" y="-101.4" font-family="Consolas" font-size="12.00">TradeUIController.Update</text>
</a>
</g>
</g>
<!-- Node2&#45;&gt;Node3 -->
<g id="edge2_Node000002_Node000003" class="edge">
<title>Node2&#45;&gt;Node3</title>
<g id="a_edge2_Node000002_Node000003"><a xlink:title=" ">
<path fill="none" stroke="#63b8ff" d="M730.13,-128.79C701.58,-124.07 671.93,-119.18 646.8,-115.03"/>
<polygon fill="#63b8ff" stroke="#63b8ff" points="729.73,-132.27 740.17,-130.44 730.87,-125.36 729.73,-132.27"/>
</a>
</g>
</g>
<!-- Node5 -->
<g id="Node000005" class="node">
<title>Node5</title>
<g id="a_Node000005"><a xlink:href="classTradeUIController.html#aff3c940d97319c3b077a05e81da7c86b" target="_top" xlink:title="각 패널을 여는 버튼들의 기능.">
<polygon fill="white" stroke="#666666" points="684,-56.5 480,-56.5 480,-22.5 684,-22.5 684,-56.5"/>
<text text-anchor="start" x="488" y="-42.9" font-family="Consolas" font-size="12.00">TradeUIController.OnPanel</text>
<text text-anchor="middle" x="582" y="-29.9" font-family="Consolas" font-size="12.00">ButtonClicked</text>
</a>
</g>
</g>
<!-- Node4&#45;&gt;Node5 -->
<g id="edge4_Node000004_Node000005" class="edge">
<title>Node4&#45;&gt;Node5</title>
<g id="a_edge4_Node000004_Node000005"><a xlink:title=" ">
<path fill="none" stroke="#63b8ff" d="M713.04,-44.49C703.32,-44.12 693.6,-43.75 684.1,-43.38"/>
<polygon fill="#63b8ff" stroke="#63b8ff" points="713.04,-47.99 723.16,-44.88 713.3,-41 713.04,-47.99"/>
</a>
</g>
</g>
<!-- Node6 -->
<g id="Node000006" class="node">
<title>Node6</title>
<g id="a_Node000006"><a xlink:href="classTradeUIController.html#a0ad09e20ec7537479e49d4099b65506a" target="_top" xlink:title="각 패널을 여는 버튼들에 Listners 추가.">
<polygon fill="white" stroke="#666666" points="444,-56.5 225,-56.5 225,-22.5 444,-22.5 444,-56.5"/>
<text text-anchor="start" x="233" y="-42.9" font-family="Consolas" font-size="12.00">TradeUIController.AddButton</text>
<text text-anchor="middle" x="334.5" y="-29.9" font-family="Consolas" font-size="12.00">Listeners</text>
</a>
</g>
</g>
<!-- Node5&#45;&gt;Node6 -->
<g id="edge5_Node000005_Node000006" class="edge">
<title>Node5&#45;&gt;Node6</title>
<g id="a_edge5_Node000005_Node000006"><a xlink:title=" ">
<path fill="none" stroke="#63b8ff" d="M469.48,-39.5C461.04,-39.5 452.52,-39.5 444.1,-39.5"/>
<polygon fill="#63b8ff" stroke="#63b8ff" points="469.73,-43 479.73,-39.5 469.73,-36 469.73,-43"/>
</a>
</g>
</g>
<!-- Node7 -->
<g id="Node000007" class="node">
<title>Node7</title>
<g id="a_Node000007"><a xlink:href="classTradeUIController.html#a83d3fa6bc6d31230c7a925bce8d62b91" target="_top" xlink:title="거래용 임시 배 및 창고를 초기화하고 각종 UI들의 위치 관계와 버튼의 Listener를 추가함.">
<polygon fill="white" stroke="#666666" points="189,-50 0,-50 0,-29 189,-29 189,-50"/>
<text text-anchor="middle" x="94.5" y="-36.4" font-family="Consolas" font-size="12.00">TradeUIController.Start</text>
</a>
</g>
</g>
<!-- Node6&#45;&gt;Node7 -->
<g id="edge6_Node000006_Node000007" class="edge">
<title>Node6&#45;&gt;Node7</title>
<g id="a_edge6_Node000006_Node000007"><a xlink:title=" ">
<path fill="none" stroke="#63b8ff" d="M214.89,-39.5C206.31,-39.5 197.73,-39.5 189.33,-39.5"/>
<polygon fill="#63b8ff" stroke="#63b8ff" points="214.95,-43 224.95,-39.5 214.95,-36 214.95,-43"/>
</a>
</g>
</g>
<!-- Node8&#45;&gt;Node3 -->
<g id="edge8_Node000008_Node000003" class="edge">
<title>Node8&#45;&gt;Node3</title>
<g id="a_edge8_Node000008_Node000003"><a xlink:title=" ">
<path fill="none" stroke="#63b8ff" d="M724.73,-99.6C709.97,-100.11 695,-100.63 680.61,-101.13"/>
<polygon fill="#63b8ff" stroke="#63b8ff" points="725.04,-103.09 734.91,-99.25 724.8,-96.1 725.04,-103.09"/>
</a>
</g>
</g>
<!-- Node9&#45;&gt;Node5 -->
<g id="edge10_Node000009_Node000005" class="edge">
<title>Node9&#45;&gt;Node5</title>
<g id="a_edge10_Node000009_Node000005"><a xlink:title=" ">
<path fill="none" stroke="#63b8ff" d="M739.1,-22.12C720.98,-24.14 702.16,-26.23 684.12,-28.24"/>
<polygon fill="#63b8ff" stroke="#63b8ff" points="739.53,-25.6 749.09,-21.01 738.76,-18.64 739.53,-25.6"/>
</a>
</g>
</g>
</g>
</svg>
