<?xml version="1.0" encoding="UTF-8" standalone="no"?>
<!DOCTYPE svg PUBLIC "-//W3C//DTD SVG 1.1//EN"
 "http://www.w3.org/Graphics/SVG/1.1/DTD/svg11.dtd">
<!-- Generated by graphviz version 2.43.0 (0)
 -->
<!-- Title: ItemFactory Pages: 1 -->
<svg width="254pt" height="334pt"
 viewBox="0.00 0.00 254.00 334.00" xmlns="http://www.w3.org/2000/svg" xmlns:xlink="http://www.w3.org/1999/xlink">
<g id="graph0" class="graph" transform="scale(1 1) rotate(0) translate(4 330)">
<title>ItemFactory</title>
<!-- Node1 -->
<g id="Node000001" class="node">
<title>Node1</title>
<g id="a_Node000001"><a xlink:title=" ">
<polygon fill="#999999" stroke="transparent" points="246,-235 0,-235 0,0 246,0 246,-235"/>
<text text-anchor="start" x="81.5" y="-220.9" font-family="Consolas" font-size="12.00">ItemFactory</text>
<text text-anchor="start" x="4" y="-203.9" font-family="Consolas" font-size="12.00">+</text>
<text text-anchor="start" x="16" y="-203.9" font-family="Consolas" font-size="12.00">TradingItemDataBase</text>
<text text-anchor="start" x="16" y="-190.9" font-family="Consolas" font-size="12.00"> itemDataBase</text>
<text text-anchor="start" x="4" y="-173.9" font-family="Consolas" font-size="12.00">+</text>
<text text-anchor="start" x="16" y="-173.9" font-family="Consolas" font-size="12.00">GameObject ItemPrefabShape</text>
<text text-anchor="start" x="4" y="-156.9" font-family="Consolas" font-size="12.00">+</text>
<text text-anchor="start" x="16" y="-156.9" font-family="Consolas" font-size="12.00">TradingItemData GetItemData</text>
<text text-anchor="start" x="16" y="-143.9" font-family="Consolas" font-size="12.00">(int id)</text>
<text text-anchor="start" x="4" y="-126.9" font-family="Consolas" font-size="12.00">+</text>
<text text-anchor="start" x="16" y="-126.9" font-family="Consolas" font-size="12.00">GameObject CreateItemObject</text>
<text text-anchor="start" x="16" y="-113.9" font-family="Consolas" font-size="12.00">(int itemId, int quantity,</text>
<text text-anchor="start" x="16" y="-100.9" font-family="Consolas" font-size="12.00"> Vector2Int position=new())</text>
<text text-anchor="start" x="4" y="-83.9" font-family="Consolas" font-size="12.00">+</text>
<text text-anchor="start" x="16" y="-83.9" font-family="Consolas" font-size="12.00">TradingItem CreateItemObject</text>
<text text-anchor="start" x="16" y="-70.9" font-family="Consolas" font-size="12.00">(TradingItem item)</text>
<text text-anchor="start" x="4" y="-53.9" font-family="Consolas" font-size="12.00">+</text>
<text text-anchor="start" x="16" y="-53.9" font-family="Consolas" font-size="12.00">TradingItem CreateItemInstance</text>
<text text-anchor="start" x="16" y="-40.9" font-family="Consolas" font-size="12.00">(int itemId, int quantity)</text>
<text text-anchor="start" x="4" y="-23.9" font-family="Consolas" font-size="12.00">&#45;</text>
<text text-anchor="start" x="16" y="-23.9" font-family="Consolas" font-size="12.00">void Awake()</text>
<text text-anchor="start" x="4" y="-6.9" font-family="Consolas" font-size="12.00">&#45;</text>
<text text-anchor="start" x="16" y="-6.9" font-family="Consolas" font-size="12.00">void InitializeDatabase()</text>
<polygon fill="#666666" stroke="#666666" points="0,-215.5 0,-215.5 246,-215.5 246,-215.5 0,-215.5"/>
<polygon fill="#666666" stroke="#666666" points="0,-168.5 0,-168.5 14,-168.5 14,-168.5 0,-168.5"/>
<polygon fill="#666666" stroke="#666666" points="14,-168.5 14,-168.5 246,-168.5 246,-168.5 14,-168.5"/>
<polygon fill="none" stroke="#666666" points="0,0 0,-235 246,-235 246,0 0,0"/>
</a>
</g>
</g>
<!-- Node2 -->
<g id="Node000002" class="node">
<title>Node2</title>
<g id="a_Node000002"><a xlink:title=" ">
<polygon fill="white" stroke="transparent" points="177,-326 69,-326 69,-271 177,-271 177,-326"/>
<text text-anchor="start" x="74" y="-311.9" font-family="Consolas" font-size="12.00">MonoBehaviour</text>
<text text-anchor="start" x="119" y="-294.9" font-family="Consolas" font-size="12.00"> </text>
<text text-anchor="start" x="119" y="-277.9" font-family="Consolas" font-size="12.00"> </text>
<polygon fill="#bfbfbf" stroke="#bfbfbf" points="69,-306.5 69,-306.5 177,-306.5 177,-306.5 69,-306.5"/>
<polygon fill="#bfbfbf" stroke="#bfbfbf" points="69,-289.5 69,-289.5 177,-289.5 177,-289.5 69,-289.5"/>
<polygon fill="none" stroke="#bfbfbf" points="69,-271 69,-326 177,-326 177,-271 69,-271"/>
</a>
</g>
</g>
<!-- Node2&#45;&gt;Node1 -->
<g id="edge1_Node000001_Node000002" class="edge">
<title>Node2&#45;&gt;Node1</title>
<g id="a_edge1_Node000001_Node000002"><a xlink:title=" ">
<path fill="none" stroke="#63b8ff" d="M123,-260.6C123,-252.79 123,-244.14 123,-235.09"/>
<polygon fill="none" stroke="#63b8ff" points="119.5,-260.7 123,-270.7 126.5,-260.7 119.5,-260.7"/>
</a>
</g>
</g>
</g>
</svg>
