<?xml version="1.0" encoding="UTF-8" standalone="no"?>
<!DOCTYPE svg PUBLIC "-//W3C//DTD SVG 1.1//EN"
 "http://www.w3.org/Graphics/SVG/1.1/DTD/svg11.dtd">
<!-- Generated by graphviz version 2.43.0 (0)
 -->
<!-- Title: ES3Internal.SetReferenceID Pages: 1 -->
<svg width="246pt" height="233pt"
 viewBox="0.00 0.00 246.00 233.00" xmlns="http://www.w3.org/2000/svg" xmlns:xlink="http://www.w3.org/1999/xlink">
<g id="graph0" class="graph" transform="scale(1 1) rotate(0) translate(4 229)">
<title>ES3Internal.SetReferenceID</title>
<!-- Node1 -->
<g id="Node000001" class="node">
<title>Node1</title>
<g id="a_Node000001"><a xlink:title=" ">
<polygon fill="#999999" stroke="transparent" points="238,-119 0,-119 0,0 238,0 238,-119"/>
<text text-anchor="start" x="21" y="-104.9" font-family="Consolas" font-size="12.00">ES3Internal.SetReferenceID</text>
<text text-anchor="start" x="4" y="-87.9" font-family="Consolas" font-size="12.00">&#45;</text>
<text text-anchor="start" x="16" y="-87.9" font-family="Consolas" font-size="12.00">long id</text>
<text text-anchor="start" x="4" y="-70.9" font-family="Consolas" font-size="12.00">+</text>
<text text-anchor="start" x="16" y="-70.9" font-family="Consolas" font-size="12.00">static void ShowWindow()</text>
<text text-anchor="start" x="4" y="-53.9" font-family="Consolas" font-size="12.00">+</text>
<text text-anchor="start" x="16" y="-53.9" font-family="Consolas" font-size="12.00">static void ShowWindowContext</text>
<text text-anchor="start" x="16" y="-40.9" font-family="Consolas" font-size="12.00">(MenuCommand command)</text>
<text text-anchor="start" x="4" y="-23.9" font-family="Consolas" font-size="12.00">&#45;</text>
<text text-anchor="start" x="16" y="-23.9" font-family="Consolas" font-size="12.00">void OnGUI()</text>
<text text-anchor="start" x="4" y="-6.9" font-family="Consolas" font-size="12.00">&#45;</text>
<text text-anchor="start" x="16" y="-6.9" font-family="Consolas" font-size="12.00">static bool CanSetReference()</text>
<polygon fill="#666666" stroke="#666666" points="0,-99.5 0,-99.5 238,-99.5 238,-99.5 0,-99.5"/>
<polygon fill="#666666" stroke="#666666" points="0,-82.5 0,-82.5 14,-82.5 14,-82.5 0,-82.5"/>
<polygon fill="#666666" stroke="#666666" points="14,-82.5 14,-82.5 238,-82.5 238,-82.5 14,-82.5"/>
<polygon fill="none" stroke="#666666" points="0,0 0,-119 238,-119 238,0 0,0"/>
</a>
</g>
</g>
<!-- Node2 -->
<g id="Node000002" class="node">
<title>Node2</title>
<g id="a_Node000002"><a xlink:title=" ">
<polygon fill="white" stroke="transparent" points="112.5,-225 11.5,-225 11.5,-170 112.5,-170 112.5,-225"/>
<text text-anchor="start" x="17" y="-210.9" font-family="Consolas" font-size="12.00">EditorWindow</text>
<text text-anchor="start" x="58.5" y="-193.9" font-family="Consolas" font-size="12.00"> </text>
<text text-anchor="start" x="58.5" y="-176.9" font-family="Consolas" font-size="12.00"> </text>
<polygon fill="#bfbfbf" stroke="#bfbfbf" points="12,-205.5 12,-205.5 113,-205.5 113,-205.5 12,-205.5"/>
<polygon fill="#bfbfbf" stroke="#bfbfbf" points="12,-188.5 12,-188.5 113,-188.5 113,-188.5 12,-188.5"/>
<polygon fill="none" stroke="#bfbfbf" points="11.5,-170 11.5,-225 112.5,-225 112.5,-170 11.5,-170"/>
</a>
</g>
</g>
<!-- Node2&#45;&gt;Node1 -->
<g id="edge1_Node000001_Node000002" class="edge">
<title>Node2&#45;&gt;Node1</title>
<g id="a_edge1_Node000001_Node000002"><a xlink:title=" ">
<path fill="none" stroke="#63b8ff" d="M77.03,-160.64C82.37,-147.89 88.53,-133.2 94.46,-119.06"/>
<polygon fill="none" stroke="#63b8ff" points="73.76,-159.38 73.13,-169.95 80.22,-162.09 73.76,-159.38"/>
</a>
</g>
</g>
<!-- Node3 -->
<g id="Node000003" class="node">
<title>Node3</title>
<g id="a_Node000003"><a xlink:title=" ">
<polygon fill="white" stroke="transparent" points="223.5,-225 130.5,-225 130.5,-170 223.5,-170 223.5,-225"/>
<text text-anchor="start" x="136" y="-210.9" font-family="Consolas" font-size="12.00">UnityEngine</text>
<text text-anchor="start" x="173.5" y="-193.9" font-family="Consolas" font-size="12.00"> </text>
<text text-anchor="start" x="173.5" y="-176.9" font-family="Consolas" font-size="12.00"> </text>
<polygon fill="#bfbfbf" stroke="#bfbfbf" points="131,-205.5 131,-205.5 224,-205.5 224,-205.5 131,-205.5"/>
<polygon fill="#bfbfbf" stroke="#bfbfbf" points="131,-188.5 131,-188.5 224,-188.5 224,-188.5 131,-188.5"/>
<polygon fill="none" stroke="#bfbfbf" points="130.5,-170 130.5,-225 223.5,-225 223.5,-170 130.5,-170"/>
</a>
</g>
</g>
<!-- Node3&#45;&gt;Node1 -->
<g id="edge2_Node000001_Node000003" class="edge">
<title>Node3&#45;&gt;Node1</title>
<g id="a_edge2_Node000001_Node000003"><a xlink:title=" ">
<path fill="none" stroke="#63b8ff" d="M165.68,-169.95C160.79,-158.49 154.81,-144.48 148.79,-130.36"/>
<polygon fill="none" stroke="#63b8ff" points="148.68,-130.1 142.65,-126.15 143.97,-119.06 150.01,-123.01 148.68,-130.1"/>
</a>
</g>
<text text-anchor="middle" x="177" y="-140.8" font-family="Consolas" font-size="14.00" fill="grey"> +obj</text>
</g>
</g>
</svg>
