<?xml version="1.0" encoding="UTF-8" standalone="no"?>
<!DOCTYPE svg PUBLIC "-//W3C//DTD SVG 1.1//EN"
 "http://www.w3.org/Graphics/SVG/1.1/DTD/svg11.dtd">
<!-- Generated by graphviz version 2.43.0 (0)
 -->
<!-- Title: BlueprintSlotManager Pages: 1 -->
<!--zoomable 582 -->

<svg id="main" version="1.1" xmlns="http://www.w3.org/2000/svg" xmlns:xlink="http://www.w3.org/1999/xlink" xml:space="preserve" onload="init(evt)">
<style type="text/css"><![CDATA[
.node, .edge {opacity: 0.7;}
.node.selected, .edge.selected {opacity: 1;}
.edge:hover path { stroke: red; }
.edge:hover polygon { stroke: red; fill: red; }
]]></style>

<defs>
  <circle id="rim" cx="0" cy="0" r="7"/>
  <circle id="rim2" cx="0" cy="0" r="3.5"/>
  <g id="zoomPlus">
    <use xlink:href="#rim" fill="#404040"><set attributeName="fill" to="#808080" begin="zoomplus.mouseover" end="zoomplus.mouseout"/></use>
    <path d="M-4,0h8M0,-4v8" fill="none" stroke="white" stroke-width="1.5" pointer-events="none"/>
  </g>
  <g id="zoomMin">
    <use xlink:href="#rim" fill="#404040"><set attributeName="fill" to="#808080" begin="zoomminus.mouseover" end="zoomminus.mouseout"/></use>
    <path d="M-4,0h8" fill="none" stroke="white" stroke-width="1.5" pointer-events="none"/>
  </g>
  <g id="arrowUp" transform="translate(30 24)">
    <use xlink:href="#rim"/>
    <path pointer-events="none" fill="none" stroke="white" stroke-width="1.5" d="M0,-3.0v7 M-2.5,-0.5L0,-3.0L2.5,-0.5"/>
  </g>
  <g id="arrowRight" transform="rotate(90) translate(36 -43)">
    <use xlink:href="#rim"/>
    <path pointer-events="none" fill="none" stroke="white" stroke-width="1.5" d="M0,-3.0v7 M-2.5,-0.5L0,-3.0L2.5,-0.5"/>
  </g>
  <g id="arrowDown" transform="rotate(180) translate(-30 -48)">
    <use xlink:href="#rim"/>
    <path pointer-events="none" fill="none" stroke="white" stroke-width="1.5" d="M0,-3.0v7 M-2.5,-0.5L0,-3.0L2.5,-0.5"/>
  </g>
  <g id="arrowLeft" transform="rotate(270) translate(-36 17)">
    <use xlink:href="#rim"/>
    <path pointer-events="none" fill="none" stroke="white" stroke-width="1.5" d="M0,-3.0v7 M-2.5,-0.5L0,-3.0L2.5,-0.5"/>
  </g>
  <g id="resetDef">
    <use xlink:href="#rim2" fill="#404040"><set attributeName="fill" to="#808080" begin="reset.mouseover" end="reset.mouseout"/></use>
  </g>
</defs>
<script type="application/ecmascript">
var viewWidth = 276;
var viewHeight = 582;
var sectionId = 'dynsection-0';
</script>
<script type="application/ecmascript" xlink:href="svg.min.js"/>
<svg id="graph" class="graph">
<g id="viewport">
<title>BlueprintSlotManager</title>
<!-- Node1 -->
<g id="Node000001" class="node">
<title>Node1</title>
<g id="a_Node000001"><a xlink:title="도안 슬롯 저장소 (최대 4개). Scene 전역에서 접근 가능">
<polygon fill="#999999" stroke="transparent" points="268,-483 0,-483 0,0 268,0 268,-483"/>
<text text-anchor="start" x="58.5" y="-468.9" font-family="Consolas" font-size="12.00">BlueprintSlotManager</text>
<text text-anchor="start" x="4" y="-451.9" font-family="Consolas" font-size="12.00">+</text>
<text text-anchor="start" x="16" y="-451.9" font-family="Consolas" font-size="12.00">int currentSlotIndex</text>
<text text-anchor="start" x="4" y="-434.9" font-family="Consolas" font-size="12.00">+</text>
<text text-anchor="start" x="16" y="-434.9" font-family="Consolas" font-size="12.00">int appliedSlotIndex</text>
<text text-anchor="start" x="4" y="-417.9" font-family="Consolas" font-size="12.00">+</text>
<text text-anchor="start" x="16" y="-417.9" font-family="Consolas" font-size="12.00">List&lt; BlueprintSaveData</text>
<text text-anchor="start" x="16" y="-404.9" font-family="Consolas" font-size="12.00"> &gt; blueprintSlots</text>
<text text-anchor="start" x="4" y="-387.9" font-family="Consolas" font-size="12.00">+</text>
<text text-anchor="start" x="16" y="-387.9" font-family="Consolas" font-size="12.00">List&lt; HashSet&lt; Vector2Int</text>
<text text-anchor="start" x="16" y="-374.9" font-family="Consolas" font-size="12.00"> &gt; &gt; occupiedTilesPerSlot</text>
<text text-anchor="start" x="4" y="-357.9" font-family="Consolas" font-size="12.00">+</text>
<text text-anchor="start" x="16" y="-357.9" font-family="Consolas" font-size="12.00">List&lt; bool &gt; isValidBP</text>
<text text-anchor="start" x="4" y="-340.9" font-family="Consolas" font-size="12.00">+</text>
<text text-anchor="start" x="16" y="-340.9" font-family="Consolas" font-size="12.00">static BlueprintSlotManager</text>
<text text-anchor="start" x="16" y="-327.9" font-family="Consolas" font-size="12.00"> Instance</text>
<text text-anchor="start" x="4" y="-310.9" font-family="Consolas" font-size="12.00">&#45;</text>
<text text-anchor="start" x="16" y="-310.9" font-family="Consolas" font-size="12.00">GameObject customize0Panel</text>
<text text-anchor="start" x="4" y="-293.9" font-family="Consolas" font-size="12.00">+</text>
<text text-anchor="start" x="16" y="-293.9" font-family="Consolas" font-size="12.00">void RegisterCustomizePanel</text>
<text text-anchor="start" x="16" y="-280.9" font-family="Consolas" font-size="12.00">(GameObject panel)</text>
<text text-anchor="start" x="4" y="-263.9" font-family="Consolas" font-size="12.00">+</text>
<text text-anchor="start" x="16" y="-263.9" font-family="Consolas" font-size="12.00">void SaveBlueprintToCurrent</text>
<text text-anchor="start" x="16" y="-250.9" font-family="Consolas" font-size="12.00">Slot(BlueprintSaveData data)</text>
<text text-anchor="start" x="4" y="-233.9" font-family="Consolas" font-size="12.00">+</text>
<text text-anchor="start" x="16" y="-233.9" font-family="Consolas" font-size="12.00">BlueprintSaveData GetBlueprint</text>
<text text-anchor="start" x="16" y="-220.9" font-family="Consolas" font-size="12.00">At(int index)</text>
<text text-anchor="start" x="4" y="-203.9" font-family="Consolas" font-size="12.00">+</text>
<text text-anchor="start" x="16" y="-203.9" font-family="Consolas" font-size="12.00">void SaveOccupiedTilesTo</text>
<text text-anchor="start" x="16" y="-190.9" font-family="Consolas" font-size="12.00">CurrentSlot(HashSet&lt; Vector2</text>
<text text-anchor="start" x="16" y="-177.9" font-family="Consolas" font-size="12.00">Int &gt; occupied)</text>
<text text-anchor="start" x="4" y="-160.9" font-family="Consolas" font-size="12.00">+</text>
<text text-anchor="start" x="16" y="-160.9" font-family="Consolas" font-size="12.00">HashSet&lt; Vector2Int</text>
<text text-anchor="start" x="16" y="-147.9" font-family="Consolas" font-size="12.00"> &gt; GetOccupiedTiles</text>
<text text-anchor="start" x="16" y="-134.9" font-family="Consolas" font-size="12.00">(int index)</text>
<text text-anchor="start" x="4" y="-117.9" font-family="Consolas" font-size="12.00">+</text>
<text text-anchor="start" x="16" y="-117.9" font-family="Consolas" font-size="12.00">void SaveAllBlueprints()</text>
<text text-anchor="start" x="4" y="-100.9" font-family="Consolas" font-size="12.00">+</text>
<text text-anchor="start" x="16" y="-100.9" font-family="Consolas" font-size="12.00">void LoadAllBlueprints()</text>
<text text-anchor="start" x="4" y="-83.9" font-family="Consolas" font-size="12.00">&#45;</text>
<text text-anchor="start" x="16" y="-83.9" font-family="Consolas" font-size="12.00">void Awake()</text>
<text text-anchor="start" x="4" y="-66.9" font-family="Consolas" font-size="12.00">&#45;</text>
<text text-anchor="start" x="16" y="-66.9" font-family="Consolas" font-size="12.00">void OnDestroy()</text>
<text text-anchor="start" x="4" y="-49.9" font-family="Consolas" font-size="12.00">&#45;</text>
<text text-anchor="start" x="16" y="-49.9" font-family="Consolas" font-size="12.00">void OnSceneLoaded</text>
<text text-anchor="start" x="16" y="-36.9" font-family="Consolas" font-size="12.00">(Scene scene, LoadSceneMode mode)</text>
<text text-anchor="start" x="4" y="-19.9" font-family="Consolas" font-size="12.00">&#45;</text>
<text text-anchor="start" x="16" y="-19.9" font-family="Consolas" font-size="12.00">void InitializeSlotButton</text>
<text text-anchor="start" x="16" y="-6.9" font-family="Consolas" font-size="12.00">Color()</text>
<polygon fill="#666666" stroke="#666666" points="0,-463.5 0,-463.5 268,-463.5 268,-463.5 0,-463.5"/>
<polygon fill="#666666" stroke="#666666" points="0,-305.5 0,-305.5 14,-305.5 14,-305.5 0,-305.5"/>
<polygon fill="#666666" stroke="#666666" points="14,-305.5 14,-305.5 268,-305.5 268,-305.5 14,-305.5"/>
<polygon fill="none" stroke="#666666" points="0,0 0,-483 268,-483 268,0 0,0"/>
</a>
</g>
</g>
<!-- Node2 -->
<g id="Node000002" class="node">
<title>Node2</title>
<g id="a_Node000002"><a xlink:title=" ">
<polygon fill="white" stroke="transparent" points="188,-574 80,-574 80,-519 188,-519 188,-574"/>
<text text-anchor="start" x="85" y="-559.9" font-family="Consolas" font-size="12.00">MonoBehaviour</text>
<text text-anchor="start" x="130" y="-542.9" font-family="Consolas" font-size="12.00"> </text>
<text text-anchor="start" x="130" y="-525.9" font-family="Consolas" font-size="12.00"> </text>
<polygon fill="#bfbfbf" stroke="#bfbfbf" points="80,-554.5 80,-554.5 188,-554.5 188,-554.5 80,-554.5"/>
<polygon fill="#bfbfbf" stroke="#bfbfbf" points="80,-537.5 80,-537.5 188,-537.5 188,-537.5 80,-537.5"/>
<polygon fill="none" stroke="#bfbfbf" points="80,-519 80,-574 188,-574 188,-519 80,-519"/>
</a>
</g>
</g>
<!-- Node2&#45;&gt;Node1 -->
<g id="edge1_Node000001_Node000002" class="edge">
<title>Node2&#45;&gt;Node1</title>
<g id="a_edge1_Node000001_Node000002"><a xlink:title=" ">
<path fill="none" stroke="#63b8ff" d="M134,-508.69C134,-501.02 134,-492.4 134,-483.09"/>
<polygon fill="none" stroke="#63b8ff" points="130.5,-508.88 134,-518.88 137.5,-508.88 130.5,-508.88"/>
</a>
</g>
</g>
</g>
</svg>

<g id="navigator" transform="translate(0 0)" fill="#404254">
  <rect fill="#f2f5e9" fill-opacity="0.5" stroke="#606060" stroke-width=".5" x="0" y="0" width="60" height="60"/>
  <use id="zoomplus" xlink:href="#zoomPlus" x="17" y="9" onmousedown="handleZoom(evt,'in')"/>
  <use id="zoomminus" xlink:href="#zoomMin" x="42" y="9" onmousedown="handleZoom(evt,'out')"/>
  <use id="reset" xlink:href="#resetDef" x="30" y="36" onmousedown="handleReset()"/>
   <use id="arrowup" xlink:href="#arrowUp" x="0" y="0" onmousedown="handlePan(0,-1)"/>
  <use id="arrowright" xlink:href="#arrowRight" x="0" y="0" onmousedown="handlePan(1,0)"/>
  <use id="arrowdown" xlink:href="#arrowDown" x="0" y="0" onmousedown="handlePan(0,1)"/>
  <use id="arrowleft" xlink:href="#arrowLeft" x="0" y="0" onmousedown="handlePan(-1,0)"/>
</g>
<svg viewBox="0 0 15 15" width="100%" height="30px" preserveAspectRatio="xMaxYMin meet">
 <g id="arrow_out" transform="scale(0.3 0.3)">
  <a xlink:href="classBlueprintSlotManager__inherit__graph_org.svg" target="_base">
   <rect id="button" ry="5" rx="5" y="6" x="6" height="38" width="38"
        fill="#f2f5e9" fill-opacity="0.5" stroke="#606060" stroke-width="1.0"/>
   <path id="arrow"
     d="M 11.500037,31.436501 C 11.940474,20.09759 22.043105,11.32322 32.158766,21.979434 L 37.068811,17.246167 C 37.068811,17.246167 37.088388,32 37.088388,32 L 22.160133,31.978069 C 22.160133,31.978069 26.997745,27.140456 26.997745,27.140456 C 18.528582,18.264221 13.291696,25.230495 11.500037,31.436501 z"
     style="fill:#404040;"/>
  </a>
 </g>
</svg>

<style type='text/css'>
<![CDATA[
[data-mouse-over-selected='false'] { opacity: 0.7; }
[data-mouse-over-selected='true']  { opacity: 1.0; }
]]>
</style>
<script type="application/ecmascript"><![CDATA[
document.addEventListener('DOMContentLoaded', (event) => {
  highlightEdges();
  highlightAdjacentNodes();
});
]]></script>
</svg>
