<?xml version="1.0" encoding="UTF-8" standalone="no"?>
<!DOCTYPE svg PUBLIC "-//W3C//DTD SVG 1.1//EN"
 "http://www.w3.org/Graphics/SVG/1.1/DTD/svg11.dtd">
<!-- Generated by graphviz version 2.43.0 (0)
 -->
<!-- Title: ES3Types.ES3Type_Font Pages: 1 -->
<!--zoomable 1545 -->

<svg id="main" version="1.1" xmlns="http://www.w3.org/2000/svg" xmlns:xlink="http://www.w3.org/1999/xlink" xml:space="preserve" onload="init(evt)">
<style type="text/css"><![CDATA[
.node, .edge {opacity: 0.7;}
.node.selected, .edge.selected {opacity: 1;}
.edge:hover path { stroke: red; }
.edge:hover polygon { stroke: red; fill: red; }
]]></style>

<defs>
  <circle id="rim" cx="0" cy="0" r="7"/>
  <circle id="rim2" cx="0" cy="0" r="3.5"/>
  <g id="zoomPlus">
    <use xlink:href="#rim" fill="#404040"><set attributeName="fill" to="#808080" begin="zoomplus.mouseover" end="zoomplus.mouseout"/></use>
    <path d="M-4,0h8M0,-4v8" fill="none" stroke="white" stroke-width="1.5" pointer-events="none"/>
  </g>
  <g id="zoomMin">
    <use xlink:href="#rim" fill="#404040"><set attributeName="fill" to="#808080" begin="zoomminus.mouseover" end="zoomminus.mouseout"/></use>
    <path d="M-4,0h8" fill="none" stroke="white" stroke-width="1.5" pointer-events="none"/>
  </g>
  <g id="arrowUp" transform="translate(30 24)">
    <use xlink:href="#rim"/>
    <path pointer-events="none" fill="none" stroke="white" stroke-width="1.5" d="M0,-3.0v7 M-2.5,-0.5L0,-3.0L2.5,-0.5"/>
  </g>
  <g id="arrowRight" transform="rotate(90) translate(36 -43)">
    <use xlink:href="#rim"/>
    <path pointer-events="none" fill="none" stroke="white" stroke-width="1.5" d="M0,-3.0v7 M-2.5,-0.5L0,-3.0L2.5,-0.5"/>
  </g>
  <g id="arrowDown" transform="rotate(180) translate(-30 -48)">
    <use xlink:href="#rim"/>
    <path pointer-events="none" fill="none" stroke="white" stroke-width="1.5" d="M0,-3.0v7 M-2.5,-0.5L0,-3.0L2.5,-0.5"/>
  </g>
  <g id="arrowLeft" transform="rotate(270) translate(-36 17)">
    <use xlink:href="#rim"/>
    <path pointer-events="none" fill="none" stroke="white" stroke-width="1.5" d="M0,-3.0v7 M-2.5,-0.5L0,-3.0L2.5,-0.5"/>
  </g>
  <g id="resetDef">
    <use xlink:href="#rim2" fill="#404040"><set attributeName="fill" to="#808080" begin="reset.mouseover" end="reset.mouseout"/></use>
  </g>
</defs>
<script type="application/ecmascript">
var viewWidth = 291;
var viewHeight = 1545;
var sectionId = 'dynsection-0';
</script>
<script type="application/ecmascript" xlink:href="svg.min.js"/>
<svg id="graph" class="graph">
<g id="viewport">
<title>ES3Types.ES3Type_Font</title>
<!-- Node1 -->
<g id="Node000001" class="node">
<title>Node1</title>
<g id="a_Node000001"><a xlink:title=" ">
<polygon fill="#999999" stroke="transparent" points="283,-158 0,-158 0,0 283,0 283,-158"/>
<text text-anchor="start" x="63" y="-144.4" font-family="Consolas" font-size="12.00">ES3Types.ES3Type_Font</text>
<text text-anchor="start" x="4.5" y="-127.4" font-family="Consolas" font-size="12.00">+</text>
<text text-anchor="start" x="16.5" y="-127.4" font-family="Consolas" font-size="12.00">static ES3Type Instance</text>
<text text-anchor="start" x="4.5" y="-110.4" font-family="Consolas" font-size="12.00">+</text>
<text text-anchor="start" x="16.5" y="-110.4" font-family="Consolas" font-size="12.00">ES3Type_Font()</text>
<text text-anchor="start" x="4.5" y="-93.4" font-family="Consolas" font-size="12.00">#</text>
<text text-anchor="start" x="16.5" y="-93.4" font-family="Consolas" font-size="12.00">override void WriteUnity</text>
<text text-anchor="start" x="16.5" y="-80.4" font-family="Consolas" font-size="12.00">Object(object obj, ES3Writer</text>
<text text-anchor="start" x="16.5" y="-67.4" font-family="Consolas" font-size="12.00"> writer)</text>
<text text-anchor="start" x="4.5" y="-50.4" font-family="Consolas" font-size="12.00">#</text>
<text text-anchor="start" x="16.5" y="-50.4" font-family="Consolas" font-size="12.00">override void ReadUnityObject</text>
<text text-anchor="start" x="16.5" y="-37.4" font-family="Consolas" font-size="12.00">&lt; T &gt;(ES3Reader reader, object obj)</text>
<text text-anchor="start" x="4.5" y="-20.4" font-family="Consolas" font-size="12.00">#</text>
<text text-anchor="start" x="16.5" y="-20.4" font-family="Consolas" font-size="12.00">override object ReadUnity</text>
<text text-anchor="start" x="16.5" y="-7.4" font-family="Consolas" font-size="12.00">Object&lt; T &gt;(ES3Reader reader)</text>
<polygon fill="#666666" stroke="#666666" points="0.5,-139 0.5,-139 283.5,-139 283.5,-139 0.5,-139"/>
<polygon fill="#666666" stroke="#666666" points="0.5,-122 0.5,-122 14.5,-122 14.5,-122 0.5,-122"/>
<polygon fill="#666666" stroke="#666666" points="14.5,-122 14.5,-122 283.5,-122 283.5,-122 14.5,-122"/>
<polygon fill="none" stroke="#666666" points="0,0 0,-158 283,-158 283,0 0,0"/>
</a>
</g>
</g>
<!-- Node2 -->
<g id="Node000002" class="node">
<title>Node2</title>
<g id="a_Node000002"><a xlink:href="classES3Types_1_1ES3UnityObjectType.html" target="_top" xlink:title=" ">
<polygon fill="white" stroke="transparent" points="272,-580 11,-580 11,-194 272,-194 272,-580"/>
<text text-anchor="start" x="74" y="-566.4" font-family="Consolas" font-size="12.00">ES3UnityObjectType</text>
<text text-anchor="start" x="138" y="-549.4" font-family="Consolas" font-size="12.00"> </text>
<text text-anchor="start" x="15.5" y="-532.4" font-family="Consolas" font-size="12.00">+</text>
<text text-anchor="start" x="27.5" y="-532.4" font-family="Consolas" font-size="12.00">ES3UnityObjectType</text>
<text text-anchor="start" x="27.5" y="-519.4" font-family="Consolas" font-size="12.00">(Type type)</text>
<text text-anchor="start" x="15.5" y="-502.4" font-family="Consolas" font-size="12.00">+</text>
<text text-anchor="start" x="27.5" y="-502.4" font-family="Consolas" font-size="12.00">virtual void WriteObject</text>
<text text-anchor="start" x="27.5" y="-489.4" font-family="Consolas" font-size="12.00">(object obj, ES3Writer</text>
<text text-anchor="start" x="27.5" y="-476.4" font-family="Consolas" font-size="12.00"> writer, ES3.ReferenceMode mode)</text>
<text text-anchor="start" x="15.5" y="-459.4" font-family="Consolas" font-size="12.00">#</text>
<text text-anchor="start" x="27.5" y="-459.4" font-family="Consolas" font-size="12.00">void WriteUnityObject</text>
<text text-anchor="start" x="27.5" y="-446.4" font-family="Consolas" font-size="12.00">(object obj, ES3Writer</text>
<text text-anchor="start" x="27.5" y="-433.4" font-family="Consolas" font-size="12.00"> writer)</text>
<text text-anchor="start" x="15.5" y="-416.4" font-family="Consolas" font-size="12.00">#</text>
<text text-anchor="start" x="27.5" y="-416.4" font-family="Consolas" font-size="12.00">void ReadUnityObject</text>
<text text-anchor="start" x="27.5" y="-403.4" font-family="Consolas" font-size="12.00">&lt; T &gt;(ES3Reader reader,</text>
<text text-anchor="start" x="27.5" y="-390.4" font-family="Consolas" font-size="12.00"> object obj)</text>
<text text-anchor="start" x="15.5" y="-373.4" font-family="Consolas" font-size="12.00">#</text>
<text text-anchor="start" x="27.5" y="-373.4" font-family="Consolas" font-size="12.00">object ReadUnityObject</text>
<text text-anchor="start" x="27.5" y="-360.4" font-family="Consolas" font-size="12.00">&lt; T &gt;(ES3Reader reader)</text>
<text text-anchor="start" x="15.5" y="-343.4" font-family="Consolas" font-size="12.00">#</text>
<text text-anchor="start" x="27.5" y="-343.4" font-family="Consolas" font-size="12.00">override void WriteObject</text>
<text text-anchor="start" x="27.5" y="-330.4" font-family="Consolas" font-size="12.00">(object obj, ES3Writer</text>
<text text-anchor="start" x="27.5" y="-317.4" font-family="Consolas" font-size="12.00"> writer)</text>
<text text-anchor="start" x="15.5" y="-300.4" font-family="Consolas" font-size="12.00">#</text>
<text text-anchor="start" x="27.5" y="-300.4" font-family="Consolas" font-size="12.00">override void ReadObject</text>
<text text-anchor="start" x="27.5" y="-287.4" font-family="Consolas" font-size="12.00">&lt; T &gt;(ES3Reader reader,</text>
<text text-anchor="start" x="27.5" y="-274.4" font-family="Consolas" font-size="12.00"> object obj)</text>
<text text-anchor="start" x="15.5" y="-257.4" font-family="Consolas" font-size="12.00">#</text>
<text text-anchor="start" x="27.5" y="-257.4" font-family="Consolas" font-size="12.00">override object ReadObject</text>
<text text-anchor="start" x="27.5" y="-244.4" font-family="Consolas" font-size="12.00">&lt; T &gt;(ES3Reader reader)</text>
<text text-anchor="start" x="15.5" y="-227.4" font-family="Consolas" font-size="12.00">#</text>
<text text-anchor="start" x="27.5" y="-227.4" font-family="Consolas" font-size="12.00">bool WriteUsingDerivedType</text>
<text text-anchor="start" x="27.5" y="-214.4" font-family="Consolas" font-size="12.00">(object obj, ES3Writer writer,</text>
<text text-anchor="start" x="27.5" y="-201.4" font-family="Consolas" font-size="12.00"> ES3.ReferenceMode mode)</text>
<polygon fill="#bfbfbf" stroke="#bfbfbf" points="11.5,-561 11.5,-561 272.5,-561 272.5,-561 11.5,-561"/>
<polygon fill="#bfbfbf" stroke="#bfbfbf" points="11.5,-544 11.5,-544 272.5,-544 272.5,-544 11.5,-544"/>
<polygon fill="none" stroke="#bfbfbf" points="11,-194 11,-580 272,-580 272,-194 11,-194"/>
</a>
</g>
</g>
<!-- Node2&#45;&gt;Node1 -->
<g id="edge1_Node000001_Node000002" class="edge">
<title>Node2&#45;&gt;Node1</title>
<g id="a_edge1_Node000001_Node000002"><a xlink:title=" ">
<path fill="none" stroke="#63b8ff" d="M141.5,-183.89C141.5,-175.06 141.5,-166.49 141.5,-158.29"/>
<polygon fill="none" stroke="#63b8ff" points="138,-183.94 141.5,-193.94 145,-183.94 138,-183.94"/>
</a>
</g>
</g>
<!-- Node3 -->
<g id="Node000003" class="node">
<title>Node3</title>
<g id="a_Node000003"><a xlink:href="classES3Types_1_1ES3ObjectType.html" target="_top" xlink:title=" ">
<polygon fill="white" stroke="transparent" points="238,-903 45,-903 45,-616 238,-616 238,-903"/>
<text text-anchor="start" x="93" y="-888.9" font-family="Consolas" font-size="12.00">ES3ObjectType</text>
<text text-anchor="start" x="138" y="-871.9" font-family="Consolas" font-size="12.00"> </text>
<text text-anchor="start" x="49.5" y="-854.9" font-family="Consolas" font-size="12.00">+</text>
<text text-anchor="start" x="61.5" y="-854.9" font-family="Consolas" font-size="12.00">ES3ObjectType(Type</text>
<text text-anchor="start" x="61.5" y="-841.9" font-family="Consolas" font-size="12.00"> type)</text>
<text text-anchor="start" x="49.5" y="-824.9" font-family="Consolas" font-size="12.00">+</text>
<text text-anchor="start" x="61.5" y="-824.9" font-family="Consolas" font-size="12.00">override void Write</text>
<text text-anchor="start" x="61.5" y="-811.9" font-family="Consolas" font-size="12.00">(object obj, ES3Writer</text>
<text text-anchor="start" x="61.5" y="-798.9" font-family="Consolas" font-size="12.00"> writer)</text>
<text text-anchor="start" x="49.5" y="-781.9" font-family="Consolas" font-size="12.00">+</text>
<text text-anchor="start" x="61.5" y="-781.9" font-family="Consolas" font-size="12.00">override object Read</text>
<text text-anchor="start" x="61.5" y="-768.9" font-family="Consolas" font-size="12.00">&lt; T &gt;(ES3Reader reader)</text>
<text text-anchor="start" x="49.5" y="-751.9" font-family="Consolas" font-size="12.00">+</text>
<text text-anchor="start" x="61.5" y="-751.9" font-family="Consolas" font-size="12.00">override void ReadInto</text>
<text text-anchor="start" x="61.5" y="-738.9" font-family="Consolas" font-size="12.00">&lt; T &gt;(ES3Reader reader,</text>
<text text-anchor="start" x="61.5" y="-725.9" font-family="Consolas" font-size="12.00"> object obj)</text>
<text text-anchor="start" x="49.5" y="-708.9" font-family="Consolas" font-size="12.00">#</text>
<text text-anchor="start" x="61.5" y="-708.9" font-family="Consolas" font-size="12.00">void WriteObject(object</text>
<text text-anchor="start" x="61.5" y="-695.9" font-family="Consolas" font-size="12.00"> obj, ES3Writer writer)</text>
<text text-anchor="start" x="49.5" y="-678.9" font-family="Consolas" font-size="12.00">#</text>
<text text-anchor="start" x="61.5" y="-678.9" font-family="Consolas" font-size="12.00">object ReadObject&lt;</text>
<text text-anchor="start" x="61.5" y="-665.9" font-family="Consolas" font-size="12.00"> T &gt;(ES3Reader reader)</text>
<text text-anchor="start" x="49.5" y="-648.9" font-family="Consolas" font-size="12.00">#</text>
<text text-anchor="start" x="61.5" y="-648.9" font-family="Consolas" font-size="12.00">virtual void ReadObject</text>
<text text-anchor="start" x="61.5" y="-635.9" font-family="Consolas" font-size="12.00">&lt; T &gt;(ES3Reader reader,</text>
<text text-anchor="start" x="61.5" y="-622.9" font-family="Consolas" font-size="12.00"> object obj)</text>
<polygon fill="#bfbfbf" stroke="#bfbfbf" points="45.5,-883.5 45.5,-883.5 238.5,-883.5 238.5,-883.5 45.5,-883.5"/>
<polygon fill="#bfbfbf" stroke="#bfbfbf" points="45.5,-866.5 45.5,-866.5 238.5,-866.5 238.5,-866.5 45.5,-866.5"/>
<polygon fill="none" stroke="#bfbfbf" points="45,-616 45,-903 238,-903 238,-616 45,-616"/>
</a>
</g>
</g>
<!-- Node3&#45;&gt;Node2 -->
<g id="edge2_Node000002_Node000003" class="edge">
<title>Node3&#45;&gt;Node2</title>
<g id="a_edge2_Node000002_Node000003"><a xlink:title=" ">
<path fill="none" stroke="#63b8ff" d="M141.5,-605.57C141.5,-597.15 141.5,-588.63 141.5,-580.1"/>
<polygon fill="none" stroke="#63b8ff" points="138,-605.78 141.5,-615.78 145,-605.79 138,-605.78"/>
</a>
</g>
</g>
<!-- Node4 -->
<g id="Node000004" class="node">
<title>Node4</title>
<g id="a_Node000004"><a xlink:href="classES3Types_1_1ES3Type.html" target="_top" xlink:title=" ">
<polygon fill="white" stroke="transparent" points="264.5,-1537 18.5,-1537 18.5,-939 264.5,-939 264.5,-1537"/>
<text text-anchor="start" x="115" y="-1523.4" font-family="Consolas" font-size="12.00">ES3Type</text>
<text text-anchor="start" x="22.5" y="-1506.4" font-family="Consolas" font-size="12.00">+</text>
<text text-anchor="start" x="34.5" y="-1506.4" font-family="Consolas" font-size="12.00">ES3Member[] members</text>
<text text-anchor="start" x="22.5" y="-1489.4" font-family="Consolas" font-size="12.00">+</text>
<text text-anchor="start" x="34.5" y="-1489.4" font-family="Consolas" font-size="12.00">Type type</text>
<text text-anchor="start" x="22.5" y="-1472.4" font-family="Consolas" font-size="12.00">+</text>
<text text-anchor="start" x="34.5" y="-1472.4" font-family="Consolas" font-size="12.00">bool isPrimitive</text>
<text text-anchor="start" x="22.5" y="-1455.4" font-family="Consolas" font-size="12.00">+</text>
<text text-anchor="start" x="34.5" y="-1455.4" font-family="Consolas" font-size="12.00">bool isValueType</text>
<text text-anchor="start" x="22.5" y="-1438.4" font-family="Consolas" font-size="12.00">+</text>
<text text-anchor="start" x="34.5" y="-1438.4" font-family="Consolas" font-size="12.00">bool isCollection</text>
<text text-anchor="start" x="22.5" y="-1421.4" font-family="Consolas" font-size="12.00">+</text>
<text text-anchor="start" x="34.5" y="-1421.4" font-family="Consolas" font-size="12.00">bool isDictionary</text>
<text text-anchor="start" x="22.5" y="-1404.4" font-family="Consolas" font-size="12.00">+</text>
<text text-anchor="start" x="34.5" y="-1404.4" font-family="Consolas" font-size="12.00">bool isTuple</text>
<text text-anchor="start" x="22.5" y="-1387.4" font-family="Consolas" font-size="12.00">+</text>
<text text-anchor="start" x="34.5" y="-1387.4" font-family="Consolas" font-size="12.00">bool isEnum</text>
<text text-anchor="start" x="22.5" y="-1370.4" font-family="Consolas" font-size="12.00">+</text>
<text text-anchor="start" x="34.5" y="-1370.4" font-family="Consolas" font-size="12.00">bool isES3TypeUnityObject</text>
<text text-anchor="start" x="22.5" y="-1353.4" font-family="Consolas" font-size="12.00">+</text>
<text text-anchor="start" x="34.5" y="-1353.4" font-family="Consolas" font-size="12.00">bool isReflectedType</text>
<text text-anchor="start" x="22.5" y="-1336.4" font-family="Consolas" font-size="12.00">+</text>
<text text-anchor="start" x="34.5" y="-1336.4" font-family="Consolas" font-size="12.00">bool isUnsupported</text>
<text text-anchor="start" x="22.5" y="-1319.4" font-family="Consolas" font-size="12.00">+</text>
<text text-anchor="start" x="34.5" y="-1319.4" font-family="Consolas" font-size="12.00">int priority</text>
<text text-anchor="start" x="22.5" y="-1302.4" font-family="Consolas" font-size="12.00">+</text>
<text text-anchor="start" x="34.5" y="-1302.4" font-family="Consolas" font-size="12.00">const string typeFieldName</text>
<text text-anchor="start" x="22.5" y="-1285.4" font-family="Consolas" font-size="12.00">+</text>
<text text-anchor="start" x="34.5" y="-1285.4" font-family="Consolas" font-size="12.00">void Write(object obj,</text>
<text text-anchor="start" x="34.5" y="-1272.4" font-family="Consolas" font-size="12.00"> ES3Writer writer)</text>
<text text-anchor="start" x="22.5" y="-1255.4" font-family="Consolas" font-size="12.00">+</text>
<text text-anchor="start" x="34.5" y="-1255.4" font-family="Consolas" font-size="12.00">object Read&lt; T &gt;(ES3Reader</text>
<text text-anchor="start" x="34.5" y="-1242.4" font-family="Consolas" font-size="12.00"> reader)</text>
<text text-anchor="start" x="22.5" y="-1225.4" font-family="Consolas" font-size="12.00">+</text>
<text text-anchor="start" x="34.5" y="-1225.4" font-family="Consolas" font-size="12.00">virtual void ReadInto</text>
<text text-anchor="start" x="34.5" y="-1212.4" font-family="Consolas" font-size="12.00">&lt; T &gt;(ES3Reader reader,</text>
<text text-anchor="start" x="34.5" y="-1199.4" font-family="Consolas" font-size="12.00"> object obj)</text>
<text text-anchor="start" x="22.5" y="-1182.4" font-family="Consolas" font-size="12.00">~</text>
<text text-anchor="start" x="34.5" y="-1182.4" font-family="Consolas" font-size="12.00">string ReadPropertyName</text>
<text text-anchor="start" x="34.5" y="-1169.4" font-family="Consolas" font-size="12.00">(ES3Reader reader)</text>
<text text-anchor="start" x="22.5" y="-1152.4" font-family="Consolas" font-size="12.00">#</text>
<text text-anchor="start" x="34.5" y="-1152.4" font-family="Consolas" font-size="12.00">ES3Type(Type type)</text>
<text text-anchor="start" x="22.5" y="-1135.4" font-family="Consolas" font-size="12.00">#</text>
<text text-anchor="start" x="34.5" y="-1135.4" font-family="Consolas" font-size="12.00">bool WriteUsingDerivedType</text>
<text text-anchor="start" x="34.5" y="-1122.4" font-family="Consolas" font-size="12.00">(object obj, ES3Writer writer)</text>
<text text-anchor="start" x="22.5" y="-1105.4" font-family="Consolas" font-size="12.00">#</text>
<text text-anchor="start" x="34.5" y="-1105.4" font-family="Consolas" font-size="12.00">void ReadUsingDerivedType</text>
<text text-anchor="start" x="34.5" y="-1092.4" font-family="Consolas" font-size="12.00">&lt; T &gt;(ES3Reader reader,</text>
<text text-anchor="start" x="34.5" y="-1079.4" font-family="Consolas" font-size="12.00"> object obj)</text>
<text text-anchor="start" x="22.5" y="-1062.4" font-family="Consolas" font-size="12.00">#</text>
<text text-anchor="start" x="34.5" y="-1062.4" font-family="Consolas" font-size="12.00">void WriteProperties</text>
<text text-anchor="start" x="34.5" y="-1049.4" font-family="Consolas" font-size="12.00">(object obj, ES3Writer</text>
<text text-anchor="start" x="34.5" y="-1036.4" font-family="Consolas" font-size="12.00"> writer)</text>
<text text-anchor="start" x="22.5" y="-1019.4" font-family="Consolas" font-size="12.00">#</text>
<text text-anchor="start" x="34.5" y="-1019.4" font-family="Consolas" font-size="12.00">object ReadProperties</text>
<text text-anchor="start" x="34.5" y="-1006.4" font-family="Consolas" font-size="12.00">(ES3Reader reader, object obj)</text>
<text text-anchor="start" x="22.5" y="-989.4" font-family="Consolas" font-size="12.00">#</text>
<text text-anchor="start" x="34.5" y="-989.4" font-family="Consolas" font-size="12.00">void GetMembers(bool</text>
<text text-anchor="start" x="34.5" y="-976.4" font-family="Consolas" font-size="12.00"> safe)</text>
<text text-anchor="start" x="22.5" y="-959.4" font-family="Consolas" font-size="12.00">#</text>
<text text-anchor="start" x="34.5" y="-959.4" font-family="Consolas" font-size="12.00">void GetMembers(bool</text>
<text text-anchor="start" x="34.5" y="-946.4" font-family="Consolas" font-size="12.00"> safe, string[] memberNames)</text>
<polygon fill="#bfbfbf" stroke="#bfbfbf" points="18.5,-1518 18.5,-1518 264.5,-1518 264.5,-1518 18.5,-1518"/>
<polygon fill="#bfbfbf" stroke="#bfbfbf" points="18.5,-1297 18.5,-1297 32.5,-1297 32.5,-1297 18.5,-1297"/>
<polygon fill="#bfbfbf" stroke="#bfbfbf" points="32.5,-1297 32.5,-1297 264.5,-1297 264.5,-1297 32.5,-1297"/>
<polygon fill="none" stroke="#bfbfbf" points="18.5,-939 18.5,-1537 264.5,-1537 264.5,-939 18.5,-939"/>
</a>
</g>
</g>
<!-- Node4&#45;&gt;Node3 -->
<g id="edge3_Node000003_Node000004" class="edge">
<title>Node4&#45;&gt;Node3</title>
<g id="a_edge3_Node000003_Node000004"><a xlink:title=" ">
<path fill="none" stroke="#63b8ff" d="M141.5,-928.7C141.5,-920.02 141.5,-911.48 141.5,-903.13"/>
<polygon fill="none" stroke="#63b8ff" points="138,-928.95 141.5,-938.95 145,-928.95 138,-928.95"/>
</a>
</g>
</g>
</g>
</svg>

<g id="navigator" transform="translate(0 0)" fill="#404254">
  <rect fill="#f2f5e9" fill-opacity="0.5" stroke="#606060" stroke-width=".5" x="0" y="0" width="60" height="60"/>
  <use id="zoomplus" xlink:href="#zoomPlus" x="17" y="9" onmousedown="handleZoom(evt,'in')"/>
  <use id="zoomminus" xlink:href="#zoomMin" x="42" y="9" onmousedown="handleZoom(evt,'out')"/>
  <use id="reset" xlink:href="#resetDef" x="30" y="36" onmousedown="handleReset()"/>
   <use id="arrowup" xlink:href="#arrowUp" x="0" y="0" onmousedown="handlePan(0,-1)"/>
  <use id="arrowright" xlink:href="#arrowRight" x="0" y="0" onmousedown="handlePan(1,0)"/>
  <use id="arrowdown" xlink:href="#arrowDown" x="0" y="0" onmousedown="handlePan(0,1)"/>
  <use id="arrowleft" xlink:href="#arrowLeft" x="0" y="0" onmousedown="handlePan(-1,0)"/>
</g>
<svg viewBox="0 0 15 15" width="100%" height="30px" preserveAspectRatio="xMaxYMin meet">
 <g id="arrow_out" transform="scale(0.3 0.3)">
  <a xlink:href="classES3Types_1_1ES3Type__Font__inherit__graph_org.svg" target="_base">
   <rect id="button" ry="5" rx="5" y="6" x="6" height="38" width="38"
        fill="#f2f5e9" fill-opacity="0.5" stroke="#606060" stroke-width="1.0"/>
   <path id="arrow"
     d="M 11.500037,31.436501 C 11.940474,20.09759 22.043105,11.32322 32.158766,21.979434 L 37.068811,17.246167 C 37.068811,17.246167 37.088388,32 37.088388,32 L 22.160133,31.978069 C 22.160133,31.978069 26.997745,27.140456 26.997745,27.140456 C 18.528582,18.264221 13.291696,25.230495 11.500037,31.436501 z"
     style="fill:#404040;"/>
  </a>
 </g>
</svg>

<style type='text/css'>
<![CDATA[
[data-mouse-over-selected='false'] { opacity: 0.7; }
[data-mouse-over-selected='true']  { opacity: 1.0; }
]]>
</style>
<script type="application/ecmascript"><![CDATA[
document.addEventListener('DOMContentLoaded', (event) => {
  highlightEdges();
  highlightAdjacentNodes();
});
]]></script>
</svg>
