<?xml version="1.0" encoding="UTF-8" standalone="no"?>
<!DOCTYPE svg PUBLIC "-//W3C//DTD SVG 1.1//EN"
 "http://www.w3.org/Graphics/SVG/1.1/DTD/svg11.dtd">
<!-- Generated by graphviz version 2.43.0 (0)
 -->
<!-- Title: ES3.Save&lt; T &gt; Pages: 1 -->
<svg width="295pt" height="47pt"
 viewBox="0.00 0.00 295.00 47.00" xmlns="http://www.w3.org/2000/svg" xmlns:xlink="http://www.w3.org/1999/xlink">
<g id="graph0" class="graph" transform="scale(1 1) rotate(0) translate(4 43)">
<title>ES3.Save&lt; T &gt;</title>
<!-- Node1 -->
<g id="Node000001" class="node">
<title>Node1</title>
<g id="a_Node000001"><a xlink:title="Saves the value to a file with the given key.">
<polygon fill="#999999" stroke="#666666" points="114,-21 0,-21 0,0 114,0 114,-21"/>
<text text-anchor="middle" x="57" y="-7.4" font-family="Consolas" font-size="12.00">ES3.Save&lt; T &gt;</text>
</a>
</g>
</g>
<!-- Node2 -->
<g id="Node000002" class="node">
<title>Node2</title>
<g id="a_Node000002"><a xlink:href="classES3Writer.html#a8495b421b8cac2ede59e236066b2cea5" target="_top" xlink:title="Creates a new ES3Writer.">
<polygon fill="white" stroke="#666666" points="287,-21 150,-21 150,0 287,0 287,-21"/>
<text text-anchor="middle" x="218.5" y="-7.4" font-family="Consolas" font-size="12.00">ES3Writer.Create</text>
</a>
</g>
</g>
<!-- Node1&#45;&gt;Node2 -->
<g id="edge1_Node000001_Node000002" class="edge">
<title>Node1&#45;&gt;Node2</title>
<g id="a_edge1_Node000001_Node000002"><a xlink:title=" ">
<path fill="none" stroke="#63b8ff" d="M114.23,-10.5C122.49,-10.5 131.11,-10.5 139.7,-10.5"/>
<polygon fill="#63b8ff" stroke="#63b8ff" points="139.74,-14 149.74,-10.5 139.74,-7 139.74,-14"/>
</a>
</g>
</g>
<!-- Node2&#45;&gt;Node2 -->
<g id="edge2_Node000002_Node000002" class="edge">
<title>Node2&#45;&gt;Node2</title>
<g id="a_edge2_Node000002_Node000002"><a xlink:title=" ">
<path fill="none" stroke="#63b8ff" d="M193.08,-21.02C182.21,-29.81 190.69,-39 218.5,-39 236.32,-39 246.2,-35.23 248.14,-30.21"/>
<polygon fill="#63b8ff" stroke="#63b8ff" points="251.28,-28.65 243.92,-21.02 244.92,-31.57 251.28,-28.65"/>
</a>
</g>
</g>
</g>
</svg>
