<?xml version="1.0" encoding="UTF-8" standalone="no"?>
<!DOCTYPE svg PUBLIC "-//W3C//DTD SVG 1.1//EN"
 "http://www.w3.org/Graphics/SVG/1.1/DTD/svg11.dtd">
<!-- Generated by graphviz version 2.43.0 (0)
 -->
<!-- Title: MenuUIManager Pages: 1 -->
<svg width="301pt" height="344pt"
 viewBox="0.00 0.00 301.00 344.00" xmlns="http://www.w3.org/2000/svg" xmlns:xlink="http://www.w3.org/1999/xlink">
<g id="graph0" class="graph" transform="scale(1 1) rotate(0) translate(4 340)">
<title>MenuUIManager</title>
<!-- Node1 -->
<g id="Node000001" class="node">
<title>Node1</title>
<g id="a_Node000001"><a xlink:title="모든 오브젝트 및 UI 중 가장 상위에서 관리되어 언제나 유저에게 보이는 MenuUI를 관리하는 Manager">
<polygon fill="#999999" stroke="transparent" points="213.5,-200 12.5,-200 12.5,0 213.5,0 213.5,-200"/>
<text text-anchor="start" x="64.5" y="-186.4" font-family="Consolas" font-size="12.00">MenuUIManager</text>
<text text-anchor="start" x="17" y="-169.4" font-family="Consolas" font-size="12.00">+</text>
<text text-anchor="start" x="29" y="-169.4" font-family="Consolas" font-size="12.00">RectTransform mainUI</text>
<text text-anchor="start" x="17" y="-152.4" font-family="Consolas" font-size="12.00">+</text>
<text text-anchor="start" x="29" y="-152.4" font-family="Consolas" font-size="12.00">float slideSpeed</text>
<text text-anchor="start" x="17" y="-135.4" font-family="Consolas" font-size="12.00">+</text>
<text text-anchor="start" x="29" y="-135.4" font-family="Consolas" font-size="12.00">static MenuUIManager</text>
<text text-anchor="start" x="29" y="-122.4" font-family="Consolas" font-size="12.00"> Instance</text>
<text text-anchor="start" x="17" y="-105.4" font-family="Consolas" font-size="12.00">&#45;</text>
<text text-anchor="start" x="29" y="-105.4" font-family="Consolas" font-size="12.00">bool isMenuOpen</text>
<text text-anchor="start" x="17" y="-88.4" font-family="Consolas" font-size="12.00">&#45;</text>
<text text-anchor="start" x="29" y="-88.4" font-family="Consolas" font-size="12.00">Coroutine slideCoroutine</text>
<text text-anchor="start" x="17" y="-71.4" font-family="Consolas" font-size="12.00">+</text>
<text text-anchor="start" x="29" y="-71.4" font-family="Consolas" font-size="12.00">void ForceCloseMenu()</text>
<text text-anchor="start" x="17" y="-54.4" font-family="Consolas" font-size="12.00">+</text>
<text text-anchor="start" x="29" y="-54.4" font-family="Consolas" font-size="12.00">void ToggleMenu()</text>
<text text-anchor="start" x="17" y="-37.4" font-family="Consolas" font-size="12.00">&#45;</text>
<text text-anchor="start" x="29" y="-37.4" font-family="Consolas" font-size="12.00">void Start()</text>
<text text-anchor="start" x="17" y="-20.4" font-family="Consolas" font-size="12.00">&#45;</text>
<text text-anchor="start" x="29" y="-20.4" font-family="Consolas" font-size="12.00">IEnumerator SlideMenu</text>
<text text-anchor="start" x="29" y="-7.4" font-family="Consolas" font-size="12.00">(Vector2 targetPosition)</text>
<polygon fill="#666666" stroke="#666666" points="13,-181 13,-181 214,-181 214,-181 13,-181"/>
<polygon fill="#666666" stroke="#666666" points="13,-83 13,-83 27,-83 27,-83 13,-83"/>
<polygon fill="#666666" stroke="#666666" points="27,-83 27,-83 214,-83 214,-83 27,-83"/>
<polygon fill="none" stroke="#666666" points="12.5,0 12.5,-200 213.5,-200 213.5,0 12.5,0"/>
</a>
</g>
</g>
<!-- Node2 -->
<g id="Node000002" class="node">
<title>Node2</title>
<g id="a_Node000002"><a xlink:title=" ">
<polygon fill="white" stroke="transparent" points="108,-336 0,-336 0,-281 108,-281 108,-336"/>
<text text-anchor="start" x="5" y="-321.9" font-family="Consolas" font-size="12.00">MonoBehaviour</text>
<text text-anchor="start" x="50" y="-304.9" font-family="Consolas" font-size="12.00"> </text>
<text text-anchor="start" x="50" y="-287.9" font-family="Consolas" font-size="12.00"> </text>
<polygon fill="#bfbfbf" stroke="#bfbfbf" points="0,-316.5 0,-316.5 108,-316.5 108,-316.5 0,-316.5"/>
<polygon fill="#bfbfbf" stroke="#bfbfbf" points="0,-299.5 0,-299.5 108,-299.5 108,-299.5 0,-299.5"/>
<polygon fill="none" stroke="#bfbfbf" points="0,-281 0,-336 108,-336 108,-281 0,-281"/>
</a>
</g>
</g>
<!-- Node2&#45;&gt;Node1 -->
<g id="edge1_Node000001_Node000002" class="edge">
<title>Node2&#45;&gt;Node1</title>
<g id="a_edge1_Node000001_Node000002"><a xlink:title=" ">
<path fill="none" stroke="#63b8ff" d="M64.39,-271.12C70.06,-251.3 77.37,-225.71 84.59,-200.42"/>
<polygon fill="none" stroke="#63b8ff" points="60.97,-270.35 61.59,-280.93 67.71,-272.27 60.97,-270.35"/>
</a>
</g>
</g>
<!-- Node3 -->
<g id="Node000003" class="node">
<title>Node3</title>
<g id="a_Node000003"><a xlink:title=" ">
<polygon fill="white" stroke="transparent" points="219.5,-336 126.5,-336 126.5,-281 219.5,-281 219.5,-336"/>
<text text-anchor="start" x="132" y="-321.9" font-family="Consolas" font-size="12.00">UnityEngine</text>
<text text-anchor="start" x="169.5" y="-304.9" font-family="Consolas" font-size="12.00"> </text>
<text text-anchor="start" x="169.5" y="-287.9" font-family="Consolas" font-size="12.00"> </text>
<polygon fill="#bfbfbf" stroke="#bfbfbf" points="127,-316.5 127,-316.5 220,-316.5 220,-316.5 127,-316.5"/>
<polygon fill="#bfbfbf" stroke="#bfbfbf" points="127,-299.5 127,-299.5 220,-299.5 220,-299.5 127,-299.5"/>
<polygon fill="none" stroke="#bfbfbf" points="126.5,-281 126.5,-336 219.5,-336 219.5,-281 126.5,-281"/>
</a>
</g>
</g>
<!-- Node3&#45;&gt;Node1 -->
<g id="edge2_Node000001_Node000003" class="edge">
<title>Node3&#45;&gt;Node1</title>
<g id="a_edge2_Node000001_Node000003"><a xlink:title=" ">
<path fill="none" stroke="#63b8ff" d="M165.28,-280.93C160.06,-262.98 152.79,-237.95 145.33,-212.25"/>
<polygon fill="none" stroke="#63b8ff" points="145.24,-211.95 139.72,-207.3 141.89,-200.42 147.4,-205.07 145.24,-211.95"/>
</a>
</g>
<text text-anchor="middle" x="226.5" y="-251.8" font-family="Consolas" font-size="14.00" fill="grey"> +menuButton</text>
<text text-anchor="middle" x="226.5" y="-236.8" font-family="Consolas" font-size="14.00" fill="grey">&#45;hiddenPosition</text>
<text text-anchor="middle" x="226.5" y="-221.8" font-family="Consolas" font-size="14.00" fill="grey">&#45;visiblePosition</text>
</g>
</g>
</svg>
