<?xml version="1.0" encoding="UTF-8" standalone="no"?>
<!DOCTYPE svg PUBLIC "-//W3C//DTD SVG 1.1//EN"
 "http://www.w3.org/Graphics/SVG/1.1/DTD/svg11.dtd">
<!-- Generated by graphviz version 2.43.0 (0)
 -->
<!-- Title: Customize_1_Controller.ReloadBlueprintFromSlot Pages: 1 -->
<svg width="1345pt" height="692pt"
 viewBox="0.00 0.00 1345.00 692.43" xmlns="http://www.w3.org/2000/svg" xmlns:xlink="http://www.w3.org/1999/xlink">
<g id="graph0" class="graph" transform="scale(1 1) rotate(0) translate(4 688.43)">
<title>Customize_1_Controller.ReloadBlueprintFromSlot</title>
<!-- Node1 -->
<g id="Node000001" class="node">
<title>Node1</title>
<g id="a_Node000001"><a xlink:title="클릭한 슬롯 도안 호출">
<polygon fill="#999999" stroke="#666666" points="234,-344.5 0,-344.5 0,-310.5 234,-310.5 234,-344.5"/>
<text text-anchor="start" x="8" y="-330.9" font-family="Consolas" font-size="12.00">Customize_1_Controller.Reload</text>
<text text-anchor="middle" x="117" y="-317.9" font-family="Consolas" font-size="12.00">BlueprintFromSlot</text>
</a>
</g>
</g>
<!-- Node2 -->
<g id="Node000002" class="node">
<title>Node2</title>
<g id="a_Node000002"><a xlink:href="classCustomize__1__Controller.html#a1e3252edf847a5240e2adf246a7c16d0" target="_top" xlink:title="설계도 UI 호출 시 카메라 중앙값 보정">
<polygon fill="white" stroke="#666666" points="504,-344.5 270,-344.5 270,-310.5 504,-310.5 504,-344.5"/>
<text text-anchor="start" x="278" y="-330.9" font-family="Consolas" font-size="12.00">Customize_1_Controller.Center</text>
<text text-anchor="middle" x="387" y="-317.9" font-family="Consolas" font-size="12.00">CameraToBP</text>
</a>
</g>
</g>
<!-- Node1&#45;&gt;Node2 -->
<g id="edge1_Node000001_Node000002" class="edge">
<title>Node1&#45;&gt;Node2</title>
<g id="a_edge1_Node000001_Node000002"><a xlink:title=" ">
<path fill="none" stroke="#63b8ff" d="M234.38,-327.5C242.71,-327.5 251.14,-327.5 259.53,-327.5"/>
<polygon fill="#63b8ff" stroke="#63b8ff" points="259.74,-331 269.74,-327.5 259.74,-324 259.74,-331"/>
</a>
</g>
</g>
<!-- Node7 -->
<g id="Node000007" class="node">
<title>Node7</title>
<g id="a_Node000007"><a xlink:href="classBlueprintShip.html#a0b1c462bd0416b30a0c2af3095eee278" target="_top" xlink:title="설계도 초기화">
<polygon fill="white" stroke="#666666" points="485.5,-488 288.5,-488 288.5,-467 485.5,-467 485.5,-488"/>
<text text-anchor="middle" x="387" y="-474.4" font-family="Consolas" font-size="12.00">BlueprintShip.ClearRooms</text>
</a>
</g>
</g>
<!-- Node1&#45;&gt;Node7 -->
<g id="edge6_Node000001_Node000007" class="edge">
<title>Node1&#45;&gt;Node7</title>
<g id="a_edge6_Node000001_Node000007"><a xlink:title=" ">
<path fill="none" stroke="#63b8ff" d="M132.37,-344.72C157.21,-373.25 211.23,-429.89 270,-457.5 275.09,-459.89 280.42,-462 285.89,-463.85"/>
<polygon fill="#63b8ff" stroke="#63b8ff" points="285.26,-467.32 295.85,-466.93 287.33,-460.64 285.26,-467.32"/>
</a>
</g>
</g>
<!-- Node8 -->
<g id="Node000008" class="node">
<title>Node8</title>
<g id="a_Node000008"><a xlink:href="classBlueprintSlotManager.html#a8f95d39b4fc489c0612da7ab97c782f4" target="_top" xlink:title="해당 슬롯의 도안을 반환">
<polygon fill="white" stroke="#666666" points="485.5,-448.5 288.5,-448.5 288.5,-414.5 485.5,-414.5 485.5,-448.5"/>
<text text-anchor="start" x="296.5" y="-434.9" font-family="Consolas" font-size="12.00">BlueprintSlotManager.Get</text>
<text text-anchor="middle" x="387" y="-421.9" font-family="Consolas" font-size="12.00">BlueprintAt</text>
</a>
</g>
</g>
<!-- Node1&#45;&gt;Node8 -->
<g id="edge7_Node000001_Node000008" class="edge">
<title>Node1&#45;&gt;Node8</title>
<g id="a_edge7_Node000001_Node000008"><a xlink:title=" ">
<path fill="none" stroke="#63b8ff" d="M145.88,-344.55C175.65,-362.09 224.68,-389.09 270,-405.5 276.19,-407.74 282.65,-409.83 289.2,-411.76"/>
<polygon fill="#63b8ff" stroke="#63b8ff" points="288.27,-415.14 298.84,-414.49 290.17,-408.4 288.27,-415.14"/>
</a>
</g>
</g>
<!-- Node9 -->
<g id="Node000009" class="node">
<title>Node9</title>
<g id="a_Node000009"><a xlink:href="classBlueprintSlotManager.html#aae39bb566bdc961647cdc31a0e9ae4bf" target="_top" xlink:title="도안의 점유 타일 호출">
<polygon fill="white" stroke="#666666" points="485.5,-396.5 288.5,-396.5 288.5,-362.5 485.5,-362.5 485.5,-396.5"/>
<text text-anchor="start" x="296.5" y="-382.9" font-family="Consolas" font-size="12.00">BlueprintSlotManager.Get</text>
<text text-anchor="middle" x="387" y="-369.9" font-family="Consolas" font-size="12.00">OccupiedTiles</text>
</a>
</g>
</g>
<!-- Node1&#45;&gt;Node9 -->
<g id="edge8_Node000001_Node000009" class="edge">
<title>Node1&#45;&gt;Node9</title>
<g id="a_edge8_Node000001_Node000009"><a xlink:title=" ">
<path fill="none" stroke="#63b8ff" d="M205.75,-344.53C232.13,-349.64 261.23,-355.29 288.21,-360.53"/>
<polygon fill="#63b8ff" stroke="#63b8ff" points="287.57,-363.97 298.05,-362.44 288.9,-357.09 287.57,-363.97"/>
</a>
</g>
</g>
<!-- Node10 -->
<g id="Node000010" class="node">
<title>Node10</title>
<g id="a_Node000010"><a xlink:href="classGridPlacer.html#a2392673a4205e76f004e252a493286b5" target="_top" xlink:title="실제 방을 해당 위치에 배치함">
<polygon fill="white" stroke="#666666" points="470.5,-556 303.5,-556 303.5,-535 470.5,-535 470.5,-556"/>
<text text-anchor="middle" x="387" y="-542.4" font-family="Consolas" font-size="12.00">GridPlacer.PlaceRoom</text>
</a>
</g>
</g>
<!-- Node1&#45;&gt;Node10 -->
<g id="edge9_Node000001_Node000010" class="edge">
<title>Node1&#45;&gt;Node10</title>
<g id="a_edge9_Node000001_Node000010"><a xlink:title=" ">
<path fill="none" stroke="#63b8ff" d="M129.23,-344.51C152.08,-377.97 207.18,-452.96 270,-497.5 290.99,-512.38 317.28,-523.74 339.52,-531.67"/>
<polygon fill="#63b8ff" stroke="#63b8ff" points="338.51,-535.02 349.1,-534.96 340.79,-528.4 338.51,-535.02"/>
</a>
</g>
</g>
<!-- Node17 -->
<g id="Node000017" class="node">
<title>Node17</title>
<g id="a_Node000017"><a xlink:href="classGridPlacer.html#a60364dec18d1d693cef75d517e768de6" target="_top" xlink:title="실제 무기를 해당 위치에 배치함">
<polygon fill="white" stroke="#666666" points="478,-292 296,-292 296,-271 478,-271 478,-292"/>
<text text-anchor="middle" x="387" y="-278.4" font-family="Consolas" font-size="12.00">GridPlacer.PlaceWeapon</text>
</a>
</g>
</g>
<!-- Node1&#45;&gt;Node17 -->
<g id="edge19_Node000001_Node000017" class="edge">
<title>Node1&#45;&gt;Node17</title>
<g id="a_edge19_Node000001_Node000017"><a xlink:title=" ">
<path fill="none" stroke="#63b8ff" d="M217.41,-310.44C249.67,-304.9 284.79,-298.87 314.59,-293.76"/>
<polygon fill="#63b8ff" stroke="#63b8ff" points="315.22,-297.2 324.48,-292.06 314.03,-290.3 315.22,-297.2"/>
</a>
</g>
</g>
<!-- Node22 -->
<g id="Node000022" class="node">
<title>Node22</title>
<g id="a_Node000022"><a xlink:href="classBlueprintWeapon.html#ab44eb8d7287bbcaa5504a8629a4bbf4f" target="_top" xlink:title="함선 외갑판 레벨 설정 (내부적으로만 캐싱)">
<polygon fill="white" stroke="#666666" points="1048,-175 821,-175 821,-154 1048,-154 1048,-175"/>
<text text-anchor="middle" x="934.5" y="-161.4" font-family="Consolas" font-size="12.00">BlueprintWeapon.SetHullLevel</text>
</a>
</g>
</g>
<!-- Node1&#45;&gt;Node22 -->
<g id="edge35_Node000001_Node000022" class="edge">
<title>Node1&#45;&gt;Node22</title>
<g id="a_edge35_Node000001_Node000022"><a xlink:title=" ">
<path fill="none" stroke="#63b8ff" d="M147.37,-310.22C214.23,-272 384.12,-181.29 540,-150.5 651.52,-128.47 784.18,-140.97 863.48,-152.43"/>
<polygon fill="#63b8ff" stroke="#63b8ff" points="863.42,-155.96 873.83,-153.97 864.45,-149.04 863.42,-155.96"/>
</a>
</g>
</g>
<!-- Node24 -->
<g id="Node000024" class="node">
<title>Node24</title>
<g id="a_Node000024"><a xlink:href="classBlueprintShip.html#a41ae0821d0cb0ee7a80425161e129732" target="_top" xlink:title="현재 함선의 외갑판 레벨 설정 &#45; 모든 무기에 적용">
<polygon fill="white" stroke="#666666" points="493,-99 281,-99 281,-78 493,-78 493,-99"/>
<text text-anchor="middle" x="387" y="-85.4" font-family="Consolas" font-size="12.00">BlueprintShip.SetHullLevel</text>
</a>
</g>
</g>
<!-- Node1&#45;&gt;Node24 -->
<g id="edge33_Node000001_Node000024" class="edge">
<title>Node1&#45;&gt;Node24</title>
<g id="a_edge33_Node000001_Node000024"><a xlink:title=" ">
<path fill="none" stroke="#63b8ff" d="M124.92,-310.33C142.44,-269.14 192.76,-164.41 270,-113.5 276.73,-109.07 284.1,-105.4 291.78,-102.38"/>
<polygon fill="#63b8ff" stroke="#63b8ff" points="293.01,-105.66 301.26,-99 290.66,-99.06 293.01,-105.66"/>
</a>
</g>
</g>
<!-- Node25 -->
<g id="Node000025" class="node">
<title>Node25</title>
<g id="a_Node000025"><a xlink:href="classShip.html#a95b253ed7fe39430905f5963090479c1" target="_top" xlink:title="함선 내 모든 오브젝트 활성화 / 비활성화">
<polygon fill="white" stroke="#666666" points="493,-60 281,-60 281,-39 493,-39 493,-60"/>
<text text-anchor="middle" x="387" y="-46.4" font-family="Consolas" font-size="12.00">Ship.SetShipContentsActive</text>
</a>
</g>
</g>
<!-- Node1&#45;&gt;Node25 -->
<g id="edge36_Node000001_Node000025" class="edge">
<title>Node1&#45;&gt;Node25</title>
<g id="a_edge36_Node000001_Node000025"><a xlink:title=" ">
<path fill="none" stroke="#63b8ff" d="M122.5,-310.41C135.91,-263.12 180.36,-129.99 270,-68.5 271.95,-67.16 273.96,-65.91 276.02,-64.73"/>
<polygon fill="#63b8ff" stroke="#63b8ff" points="277.98,-67.66 285.36,-60.05 274.85,-61.4 277.98,-67.66"/>
</a>
</g>
</g>
<!-- Node3 -->
<g id="Node000003" class="node">
<title>Node3</title>
<g id="a_Node000003"><a xlink:href="classGridPlacer.html#a256d47f047aeee7f201c3375ab82f131" target="_top" xlink:title="설게도 화면에서 camera의 시작 위치 보정 설계도에 방이 없을 시 그리드 중앙 시작 설계도에 방이 있을 경우 방 들의 중앙 위치에서 시작">
<polygon fill="white" stroke="#666666" points="759,-419.5 555,-419.5 555,-385.5 759,-385.5 759,-419.5"/>
<text text-anchor="start" x="563" y="-405.9" font-family="Consolas" font-size="12.00">GridPlacer.GetCameraStart</text>
<text text-anchor="middle" x="657" y="-392.9" font-family="Consolas" font-size="12.00">PositionToBP</text>
</a>
</g>
</g>
<!-- Node2&#45;&gt;Node3 -->
<g id="edge2_Node000002_Node000003" class="edge">
<title>Node2&#45;&gt;Node3</title>
<g id="a_edge2_Node000002_Node000003"><a xlink:title=" ">
<path fill="none" stroke="#63b8ff" d="M474.81,-344.52C484.76,-347.19 494.67,-350.18 504,-353.5 520.85,-359.5 523.27,-365.16 540,-371.5 550.63,-375.53 561.99,-379.25 573.29,-382.61"/>
<polygon fill="#63b8ff" stroke="#63b8ff" points="572.61,-386.05 583.19,-385.46 574.56,-379.33 572.61,-386.05"/>
</a>
</g>
</g>
<!-- Node4 -->
<g id="Node000004" class="node">
<title>Node4</title>
<g id="a_Node000004"><a xlink:href="interfaceIBlueprintPlaceable.html#a018a87125833cd2bc8f09d7b0433bc33" target="_top" xlink:title="점유하고 있는 타일 목록 반환">
<polygon fill="white" stroke="#666666" points="1059,-465.5 810,-465.5 810,-431.5 1059,-431.5 1059,-465.5"/>
<text text-anchor="start" x="818" y="-451.9" font-family="Consolas" font-size="12.00">IBlueprintPlaceable.GetOccupied</text>
<text text-anchor="middle" x="934.5" y="-438.9" font-family="Consolas" font-size="12.00">Tiles</text>
</a>
</g>
</g>
<!-- Node3&#45;&gt;Node4 -->
<g id="edge3_Node000003_Node000004" class="edge">
<title>Node3&#45;&gt;Node4</title>
<g id="a_edge3_Node000003_Node000004"><a xlink:title=" ">
<path fill="none" stroke="#63b8ff" d="M759.02,-419.37C779.35,-422.76 800.82,-426.35 821.49,-429.8"/>
<polygon fill="#63b8ff" stroke="#63b8ff" points="821.13,-433.29 831.57,-431.48 822.28,-426.38 821.13,-433.29"/>
</a>
</g>
</g>
<!-- Node5 -->
<g id="Node000005" class="node">
<title>Node5</title>
<g id="a_Node000005"><a xlink:href="classGridPlacer.html#a67a8b7577950ee0bbbed35781a1e984b" target="_top" xlink:title="실제 월드 위치 반환">
<polygon fill="white" stroke="#666666" points="1044,-413.5 825,-413.5 825,-379.5 1044,-379.5 1044,-413.5"/>
<text text-anchor="start" x="833" y="-399.9" font-family="Consolas" font-size="12.00">GridPlacer.GetWorldPosition</text>
<text text-anchor="middle" x="934.5" y="-386.9" font-family="Consolas" font-size="12.00">FromGrid</text>
</a>
</g>
</g>
<!-- Node3&#45;&gt;Node5 -->
<g id="edge4_Node000003_Node000005" class="edge">
<title>Node3&#45;&gt;Node5</title>
<g id="a_edge4_Node000003_Node000005"><a xlink:title=" ">
<path fill="none" stroke="#63b8ff" d="M759.02,-400.3C777.03,-399.91 795.95,-399.5 814.41,-399.09"/>
<polygon fill="#63b8ff" stroke="#63b8ff" points="814.68,-402.59 824.61,-398.87 814.53,-395.59 814.68,-402.59"/>
</a>
</g>
</g>
<!-- Node6 -->
<g id="Node000006" class="node">
<title>Node6</title>
<g id="a_Node000006"><a xlink:href="classGridPlacer.html#a9afa06495a3d3c0f1c50aec2ca0166a5" target="_top" xlink:title="그리드 좌표를 월드 좌표로 변환합니다.">
<polygon fill="white" stroke="#666666" points="1337,-407 1095,-407 1095,-386 1337,-386 1337,-407"/>
<text text-anchor="middle" x="1216" y="-393.4" font-family="Consolas" font-size="12.00">GridPlacer.GridToWorldPosition</text>
</a>
</g>
</g>
<!-- Node5&#45;&gt;Node6 -->
<g id="edge5_Node000005_Node000006" class="edge">
<title>Node5&#45;&gt;Node6</title>
<g id="a_edge5_Node000005_Node000006"><a xlink:title=" ">
<path fill="none" stroke="#63b8ff" d="M1044.36,-396.5C1057.55,-396.5 1071.13,-396.5 1084.59,-396.5"/>
<polygon fill="#63b8ff" stroke="#63b8ff" points="1084.86,-400 1094.86,-396.5 1084.86,-393 1084.86,-400"/>
</a>
</g>
</g>
<!-- Node10&#45;&gt;Node5 -->
<g id="edge12_Node000010_Node000005" class="edge">
<title>Node10&#45;&gt;Node5</title>
<g id="a_edge12_Node000010_Node000005"><a xlink:title=" ">
<path fill="none" stroke="#63b8ff" d="M462.87,-556C561.15,-568.08 726.71,-582.01 774,-546.5 819.89,-512.04 767.93,-461.53 810,-422.5 811.97,-420.67 814.03,-418.96 816.17,-417.36"/>
<polygon fill="#63b8ff" stroke="#63b8ff" points="818.36,-420.11 824.81,-411.71 814.53,-414.26 818.36,-420.11"/>
</a>
</g>
</g>
<!-- Node11 -->
<g id="Node000011" class="node">
<title>Node11</title>
<g id="a_Node000011"><a xlink:href="classBlueprintShip.html#ab8c6bef407ee2520f0ee47c39089196b" target="_top" xlink:title="설계도에 오브젝트를 추가하고 가격을 갱신합니다.">
<polygon fill="white" stroke="#666666" points="763,-498 551,-498 551,-477 763,-477 763,-498"/>
<text text-anchor="middle" x="657" y="-484.4" font-family="Consolas" font-size="12.00">BlueprintShip.AddPlaceable</text>
</a>
</g>
</g>
<!-- Node10&#45;&gt;Node11 -->
<g id="edge10_Node000010_Node000011" class="edge">
<title>Node10&#45;&gt;Node11</title>
<g id="a_edge10_Node000010_Node000011"><a xlink:title=" ">
<path fill="none" stroke="#63b8ff" d="M426.87,-534.94C457.47,-526.83 501.27,-515.67 540,-507.5 552.83,-504.79 566.51,-502.19 579.81,-499.8"/>
<polygon fill="#63b8ff" stroke="#63b8ff" points="580.65,-503.21 589.89,-498.02 579.44,-496.32 580.65,-503.21"/>
</a>
</g>
</g>
<!-- Node12 -->
<g id="Node000012" class="node">
<title>Node12</title>
<g id="a_Node000012"><a xlink:href="classRoomData.html#a93ada549c4d197d14917913e944f46c2" target="_top" xlink:title="주어진 레벨에 해당하는 RoomLevel 데이터를 반환합니다. 각 파생 클래스에서 구현해야 합니다.">
<polygon fill="white" stroke="#666666" points="1044,-654 825,-654 825,-633 1044,-633 1044,-654"/>
<text text-anchor="middle" x="934.5" y="-640.4" font-family="Consolas" font-size="12.00">RoomData.GetRoomDataByLevel</text>
</a>
</g>
</g>
<!-- Node10&#45;&gt;Node12 -->
<g id="edge11_Node000010_Node000012" class="edge">
<title>Node10&#45;&gt;Node12</title>
<g id="a_edge11_Node000010_Node000012"><a xlink:title=" ">
<path fill="none" stroke="#63b8ff" d="M396.91,-556.12C418.43,-580.8 476.16,-641.63 540,-663.5 659.9,-704.58 812.37,-675.72 887.46,-656.64"/>
<polygon fill="#63b8ff" stroke="#63b8ff" points="888.73,-659.92 897.53,-654.02 886.97,-653.15 888.73,-659.92"/>
</a>
</g>
</g>
<!-- Node13 -->
<g id="Node000013" class="node">
<title>Node13</title>
<g id="a_Node000013"><a xlink:href="classBlueprintRoom.html#ae76607d6bcaeffa74b78b54acc1b0128" target="_top" xlink:title="설치 시 초기화">
<polygon fill="white" stroke="#666666" points="755.5,-615 558.5,-615 558.5,-594 755.5,-594 755.5,-615"/>
<text text-anchor="middle" x="657" y="-601.4" font-family="Consolas" font-size="12.00">BlueprintRoom.Initialize</text>
</a>
</g>
</g>
<!-- Node10&#45;&gt;Node13 -->
<g id="edge13_Node000010_Node000013" class="edge">
<title>Node10&#45;&gt;Node13</title>
<g id="a_edge13_Node000010_Node000013"><a xlink:title=" ">
<path fill="none" stroke="#63b8ff" d="M434.55,-556.01C464.62,-562.78 504.61,-571.73 540,-579.5 558.42,-583.55 578.5,-587.89 596.7,-591.81"/>
<polygon fill="#63b8ff" stroke="#63b8ff" points="596.08,-595.26 606.59,-593.94 597.55,-588.42 596.08,-595.26"/>
</a>
</g>
</g>
<!-- Node14 -->
<g id="Node000014" class="node">
<title>Node14</title>
<g id="a_Node000014"><a xlink:href="classGridPlacer.html#a922df24240435582d5d98a30d0f56ccc" target="_top" xlink:title="해당 오브젝트가 점유하고 있는 모든 타일을 전체 점유 목록에 추가">
<polygon fill="white" stroke="#666666" points="774,-459 540,-459 540,-438 774,-438 774,-459"/>
<text text-anchor="middle" x="657" y="-445.4" font-family="Consolas" font-size="12.00">GridPlacer.MarkObjectOccupied</text>
</a>
</g>
</g>
<!-- Node10&#45;&gt;Node14 -->
<g id="edge15_Node000010_Node000014" class="edge">
<title>Node10&#45;&gt;Node14</title>
<g id="a_edge15_Node000010_Node000014"><a xlink:title=" ">
<path fill="none" stroke="#63b8ff" d="M420.18,-534.99C444.14,-526.51 477.19,-513.4 504,-497.5 521.67,-487.02 521.28,-476.96 540,-468.5 545.43,-466.05 551.12,-463.89 556.96,-462"/>
<polygon fill="#63b8ff" stroke="#63b8ff" points="558.28,-465.26 566.88,-459.06 556.3,-458.55 558.28,-465.26"/>
</a>
</g>
</g>
<!-- Node15 -->
<g id="Node000015" class="node">
<title>Node15</title>
<g id="a_Node000015"><a xlink:href="classBlueprintRoom.html#a206cee30827d88a027ef567ac9963929" target="_top" xlink:title="설계도 함선 할당">
<polygon fill="white" stroke="#666666" points="763,-537 551,-537 551,-516 763,-516 763,-537"/>
<text text-anchor="middle" x="657" y="-523.4" font-family="Consolas" font-size="12.00">BlueprintRoom.SetBlueprint</text>
</a>
</g>
</g>
<!-- Node10&#45;&gt;Node15 -->
<g id="edge17_Node000010_Node000015" class="edge">
<title>Node10&#45;&gt;Node15</title>
<g id="a_edge17_Node000010_Node000015"><a xlink:title=" ">
<path fill="none" stroke="#63b8ff" d="M470.6,-539.64C492.8,-538.07 517.22,-536.34 540.85,-534.66"/>
<polygon fill="#63b8ff" stroke="#63b8ff" points="541.19,-538.15 550.92,-533.95 540.7,-531.17 541.19,-538.15"/>
</a>
</g>
</g>
<!-- Node16 -->
<g id="Node000016" class="node">
<title>Node16</title>
<g id="a_Node000016"><a xlink:href="classBlueprintRoom.html#a5a8b6723ac5f7a9e099dee6c0c795540" target="_top" xlink:title="그리드 배치 담당 오브젝트 세팅">
<polygon fill="white" stroke="#666666" points="766.5,-654 547.5,-654 547.5,-633 766.5,-633 766.5,-654"/>
<text text-anchor="middle" x="657" y="-640.4" font-family="Consolas" font-size="12.00">BlueprintRoom.SetGridPlacer</text>
</a>
</g>
</g>
<!-- Node10&#45;&gt;Node16 -->
<g id="edge18_Node000010_Node000016" class="edge">
<title>Node10&#45;&gt;Node16</title>
<g id="a_edge18_Node000010_Node000016"><a xlink:title=" ">
<path fill="none" stroke="#63b8ff" d="M404.1,-556.08C431.05,-573.26 487.51,-607.06 540,-624.5 547.07,-626.85 554.48,-628.91 561.99,-630.73"/>
<polygon fill="#63b8ff" stroke="#63b8ff" points="561.38,-634.18 571.91,-632.97 562.93,-627.35 561.38,-634.18"/>
</a>
</g>
</g>
<!-- Node13&#45;&gt;Node12 -->
<g id="edge14_Node000013_Node000012" class="edge">
<title>Node13&#45;&gt;Node12</title>
<g id="a_edge14_Node000013_Node000012"><a xlink:title=" ">
<path fill="none" stroke="#63b8ff" d="M732.19,-615C768.17,-620.1 811.57,-626.24 848.84,-631.52"/>
<polygon fill="#63b8ff" stroke="#63b8ff" points="848.78,-635.04 859.18,-632.98 849.77,-628.11 848.78,-635.04"/>
</a>
</g>
</g>
<!-- Node14&#45;&gt;Node4 -->
<g id="edge16_Node000014_Node000004" class="edge">
<title>Node14&#45;&gt;Node4</title>
<g id="a_edge16_Node000014_Node000004"><a xlink:title=" ">
<path fill="none" stroke="#63b8ff" d="M774.04,-448.5C782.49,-448.5 791.06,-448.5 799.61,-448.5"/>
<polygon fill="#63b8ff" stroke="#63b8ff" points="799.63,-452 809.63,-448.5 799.63,-445 799.63,-452"/>
</a>
</g>
</g>
<!-- Node17&#45;&gt;Node5 -->
<g id="edge22_Node000017_Node000005" class="edge">
<title>Node17&#45;&gt;Node5</title>
<g id="a_edge22_Node000017_Node000005"><a xlink:title=" ">
<path fill="none" stroke="#63b8ff" d="M454.11,-292.02C470.46,-294.87 487.9,-298.11 504,-301.5 520.14,-304.9 523.94,-306.74 540,-310.5 643.33,-334.7 762.43,-360.43 842.3,-377.37"/>
<polygon fill="#63b8ff" stroke="#63b8ff" points="841.82,-380.85 852.33,-379.5 843.27,-374 841.82,-380.85"/>
</a>
</g>
</g>
<!-- Node17&#45;&gt;Node11 -->
<g id="edge20_Node000017_Node000011" class="edge">
<title>Node17&#45;&gt;Node11</title>
<g id="a_edge20_Node000017_Node000011"><a xlink:title=" ">
<path fill="none" stroke="#63b8ff" d="M478.13,-285.77C487.71,-289.35 496.63,-294.43 504,-301.5 558.79,-354.06 484.99,-416.17 540,-468.5 540.96,-469.41 541.94,-470.29 542.94,-471.13"/>
<polygon fill="#63b8ff" stroke="#63b8ff" points="540.93,-473.99 551.09,-476.97 545.01,-468.3 540.93,-473.99"/>
</a>
</g>
</g>
<!-- Node17&#45;&gt;Node14 -->
<g id="edge25_Node000017_Node000014" class="edge">
<title>Node17&#45;&gt;Node14</title>
<g id="a_edge25_Node000017_Node000014"><a xlink:title=" ">
<path fill="none" stroke="#63b8ff" d="M478.28,-286.45C487.71,-289.94 496.56,-294.8 504,-301.5 547.61,-340.74 496.39,-389.26 540,-428.5 541.54,-429.88 543.14,-431.19 544.79,-432.42"/>
<polygon fill="#63b8ff" stroke="#63b8ff" points="543.14,-435.52 553.45,-437.98 546.92,-429.63 543.14,-435.52"/>
</a>
</g>
</g>
<!-- Node18 -->
<g id="Node000018" class="node">
<title>Node18</title>
<g id="a_Node000018"><a xlink:href="classBlueprintShip.html#af261ef03f43fb9025372b1ff117489e1" target="_top" xlink:title="현재 함선의 외갑판 레벨 반환">
<polygon fill="white" stroke="#666666" points="1040.5,-263 828.5,-263 828.5,-242 1040.5,-242 1040.5,-263"/>
<text text-anchor="middle" x="934.5" y="-249.4" font-family="Consolas" font-size="12.00">BlueprintShip.GetHullLevel</text>
</a>
</g>
</g>
<!-- Node17&#45;&gt;Node18 -->
<g id="edge21_Node000017_Node000018" class="edge">
<title>Node17&#45;&gt;Node18</title>
<g id="a_edge21_Node000017_Node000018"><a xlink:title=" ">
<path fill="none" stroke="#63b8ff" d="M478.09,-276.95C556.32,-272.97 672.65,-266.98 774,-261.5 788.29,-260.73 803.3,-259.9 818.15,-259.07"/>
<polygon fill="#63b8ff" stroke="#63b8ff" points="818.61,-262.55 828.4,-258.5 818.22,-255.56 818.61,-262.55"/>
</a>
</g>
</g>
<!-- Node19 -->
<g id="Node000019" class="node">
<title>Node19</title>
<g id="a_Node000019"><a xlink:href="classBlueprintWeapon.html#a56914dbc72da61c2e31524b9fdabe257" target="_top" xlink:title="설치 시 초기화">
<polygon fill="white" stroke="#666666" points="1040.5,-321 828.5,-321 828.5,-300 1040.5,-300 1040.5,-321"/>
<text text-anchor="middle" x="934.5" y="-307.4" font-family="Consolas" font-size="12.00">BlueprintWeapon.Initialize</text>
</a>
</g>
</g>
<!-- Node17&#45;&gt;Node19 -->
<g id="edge23_Node000017_Node000019" class="edge">
<title>Node17&#45;&gt;Node19</title>
<g id="a_edge23_Node000017_Node000019"><a xlink:title=" ">
<path fill="none" stroke="#63b8ff" d="M478.08,-286.29C571.11,-291.23 716.63,-298.97 818.05,-304.36"/>
<polygon fill="#63b8ff" stroke="#63b8ff" points="818.17,-307.87 828.34,-304.91 818.54,-300.88 818.17,-307.87"/>
</a>
</g>
</g>
<!-- Node21 -->
<g id="Node000021" class="node">
<title>Node21</title>
<g id="a_Node000021"><a xlink:href="classBlueprintWeapon.html#a484e24eaf4ebb1994f8c9817dcbb2f6f" target="_top" xlink:title="설계도 함선 할당">
<polygon fill="white" stroke="#666666" points="770.5,-214 543.5,-214 543.5,-193 770.5,-193 770.5,-214"/>
<text text-anchor="middle" x="657" y="-200.4" font-family="Consolas" font-size="12.00">BlueprintWeapon.SetBlueprint</text>
</a>
</g>
</g>
<!-- Node17&#45;&gt;Node21 -->
<g id="edge26_Node000017_Node000021" class="edge">
<title>Node17&#45;&gt;Node21</title>
<g id="a_edge26_Node000017_Node000021"><a xlink:title=" ">
<path fill="none" stroke="#63b8ff" d="M410.67,-270.98C439.95,-257.8 492.75,-235.39 540,-222.5 548.99,-220.05 558.46,-217.87 567.95,-215.94"/>
<polygon fill="#63b8ff" stroke="#63b8ff" points="568.69,-219.36 577.84,-214.02 567.35,-212.49 568.69,-219.36"/>
</a>
</g>
</g>
<!-- Node17&#45;&gt;Node22 -->
<g id="edge32_Node000017_Node000022" class="edge">
<title>Node17&#45;&gt;Node22</title>
<g id="a_edge32_Node000017_Node000022"><a xlink:title=" ">
<path fill="none" stroke="#63b8ff" d="M399.48,-270.97C423.43,-249.76 481.4,-202.3 540,-183.5 627.59,-155.4 731.76,-151.58 810.91,-154.29"/>
<polygon fill="#63b8ff" stroke="#63b8ff" points="810.8,-157.78 820.93,-154.67 811.07,-150.79 810.8,-157.78"/>
</a>
</g>
</g>
<!-- Node23 -->
<g id="Node000023" class="node">
<title>Node23</title>
<g id="a_Node000023"><a xlink:href="classBlueprintWeapon.html#aea22c0e321f64c39c6f6a56d020af717" target="_top" xlink:title="그리드 배치 담당 오브젝트 세팅">
<polygon fill="white" stroke="#666666" points="774,-253 540,-253 540,-232 774,-232 774,-253"/>
<text text-anchor="middle" x="657" y="-239.4" font-family="Consolas" font-size="12.00">BlueprintWeapon.SetGridPlacer</text>
</a>
</g>
</g>
<!-- Node17&#45;&gt;Node23 -->
<g id="edge31_Node000017_Node000023" class="edge">
<title>Node17&#45;&gt;Node23</title>
<g id="a_edge31_Node000017_Node000023"><a xlink:title=" ">
<path fill="none" stroke="#63b8ff" d="M460.17,-271C495.17,-265.9 537.39,-259.76 573.64,-254.48"/>
<polygon fill="#63b8ff" stroke="#63b8ff" points="574.31,-257.93 583.7,-253.02 573.3,-251 574.31,-257.93"/>
</a>
</g>
</g>
<!-- Node20 -->
<g id="Node000020" class="node">
<title>Node20</title>
<g id="a_Node000020"><a xlink:href="classBlueprintWeapon.html#a60094977796de28499b592ef408f5a5b" target="_top" xlink:title="현재 부착 방향과 외갑판 레벨에 맞는 스프라이트 적용">
<polygon fill="white" stroke="#666666" points="1333,-220.5 1099,-220.5 1099,-186.5 1333,-186.5 1333,-220.5"/>
<text text-anchor="start" x="1107" y="-206.9" font-family="Consolas" font-size="12.00">BlueprintWeapon.ApplyAttached</text>
<text text-anchor="middle" x="1216" y="-193.9" font-family="Consolas" font-size="12.00">DirectionSprite</text>
</a>
</g>
</g>
<!-- Node19&#45;&gt;Node20 -->
<g id="edge24_Node000019_Node000020" class="edge">
<title>Node19&#45;&gt;Node20</title>
<g id="a_edge24_Node000019_Node000020"><a xlink:title=" ">
<path fill="none" stroke="#63b8ff" d="M972.32,-299.98C997.06,-292.64 1030.26,-282.27 1059,-271.5 1096.86,-257.32 1138.82,-238.87 1169.68,-224.76"/>
<polygon fill="#63b8ff" stroke="#63b8ff" points="1171.25,-227.89 1178.88,-220.54 1168.33,-221.53 1171.25,-227.89"/>
</a>
</g>
</g>
<!-- Node21&#45;&gt;Node18 -->
<g id="edge28_Node000021_Node000018" class="edge">
<title>Node21&#45;&gt;Node18</title>
<g id="a_edge28_Node000021_Node000018"><a xlink:title=" ">
<path fill="none" stroke="#63b8ff" d="M723.99,-214.03C740.35,-216.72 757.82,-219.65 774,-222.5 805.4,-228.02 840.21,-234.53 869.27,-240.06"/>
<polygon fill="#63b8ff" stroke="#63b8ff" points="868.82,-243.54 879.3,-241.98 870.13,-236.66 868.82,-243.54"/>
</a>
</g>
</g>
<!-- Node21&#45;&gt;Node20 -->
<g id="edge27_Node000021_Node000020" class="edge">
<title>Node21&#45;&gt;Node20</title>
<g id="a_edge27_Node000021_Node000020"><a xlink:title=" ">
<path fill="none" stroke="#63b8ff" d="M770.72,-203.5C862.82,-203.5 992.97,-203.5 1088.6,-203.5"/>
<polygon fill="#63b8ff" stroke="#63b8ff" points="1088.62,-207 1098.62,-203.5 1088.62,-200 1088.62,-207"/>
</a>
</g>
</g>
<!-- Node21&#45;&gt;Node22 -->
<g id="edge29_Node000021_Node000022" class="edge">
<title>Node21&#45;&gt;Node22</title>
<g id="a_edge29_Node000021_Node000022"><a xlink:title=" ">
<path fill="none" stroke="#63b8ff" d="M732.19,-193C768.17,-187.9 811.57,-181.76 848.84,-176.48"/>
<polygon fill="#63b8ff" stroke="#63b8ff" points="849.77,-179.89 859.18,-175.02 848.78,-172.96 849.77,-179.89"/>
</a>
</g>
</g>
<!-- Node22&#45;&gt;Node20 -->
<g id="edge30_Node000022_Node000020" class="edge">
<title>Node22&#45;&gt;Node20</title>
<g id="a_edge30_Node000022_Node000020"><a xlink:title=" ">
<path fill="none" stroke="#63b8ff" d="M1010.77,-175C1034.78,-178.35 1062.05,-182.16 1088.66,-185.87"/>
<polygon fill="#63b8ff" stroke="#63b8ff" points="1088.44,-189.37 1098.82,-187.29 1089.4,-182.44 1088.44,-189.37"/>
</a>
</g>
</g>
<!-- Node24&#45;&gt;Node22 -->
<g id="edge34_Node000024_Node000022" class="edge">
<title>Node24&#45;&gt;Node22</title>
<g id="a_edge34_Node000024_Node000022"><a xlink:title=" ">
<path fill="none" stroke="#63b8ff" d="M493.34,-87.9C571.44,-89.17 680.18,-94.59 774,-112.5 818.08,-120.91 866.87,-138.03 898.74,-150.33"/>
<polygon fill="#63b8ff" stroke="#63b8ff" points="897.47,-153.6 908.06,-153.98 900.02,-147.08 897.47,-153.6"/>
</a>
</g>
</g>
<!-- Node26 -->
<g id="Node000026" class="node">
<title>Node26</title>
<g id="a_Node000026"><a xlink:href="classShip.html#a8ced30f0d71c2a5cf333b3de23af48f2" target="_top" xlink:title="모든 룸 정보를 반환합니다.">
<polygon fill="white" stroke="#666666" points="725.5,-60 588.5,-60 588.5,-39 725.5,-39 725.5,-60"/>
<text text-anchor="middle" x="657" y="-46.4" font-family="Consolas" font-size="12.00">Ship.GetAllRooms</text>
</a>
</g>
</g>
<!-- Node25&#45;&gt;Node26 -->
<g id="edge37_Node000025_Node000026" class="edge">
<title>Node25&#45;&gt;Node26</title>
<g id="a_edge37_Node000025_Node000026"><a xlink:title=" ">
<path fill="none" stroke="#63b8ff" d="M493.15,-49.5C521.37,-49.5 551.39,-49.5 577.86,-49.5"/>
<polygon fill="#63b8ff" stroke="#63b8ff" points="578.2,-53 588.2,-49.5 578.2,-46 578.2,-53"/>
</a>
</g>
</g>
<!-- Node27 -->
<g id="Node000027" class="node">
<title>Node27</title>
<g id="a_Node000027"><a xlink:href="classShip.html#a058800cd1cdc9601aeb176ac45fd91d4" target="_top" xlink:title="현재 탑재 중인 모든 무기를 반환합니다.">
<polygon fill="white" stroke="#666666" points="733,-21 581,-21 581,0 733,0 733,-21"/>
<text text-anchor="middle" x="657" y="-7.4" font-family="Consolas" font-size="12.00">Ship.GetAllWeapons</text>
</a>
</g>
</g>
<!-- Node25&#45;&gt;Node27 -->
<g id="edge38_Node000025_Node000027" class="edge">
<title>Node25&#45;&gt;Node27</title>
<g id="a_edge38_Node000025_Node000027"><a xlink:title=" ">
<path fill="none" stroke="#63b8ff" d="M460.17,-39C495.17,-33.9 537.39,-27.76 573.64,-22.48"/>
<polygon fill="#63b8ff" stroke="#63b8ff" points="574.31,-25.93 583.7,-21.02 573.3,-19 574.31,-25.93"/>
</a>
</g>
</g>
</g>
</svg>
