<?xml version="1.0" encoding="UTF-8" standalone="no"?>
<!DOCTYPE svg PUBLIC "-//W3C//DTD SVG 1.1//EN"
 "http://www.w3.org/Graphics/SVG/1.1/DTD/svg11.dtd">
<!-- Generated by graphviz version 2.43.0 (0)
 -->
<!-- Title: QuestListItem Pages: 1 -->
<svg width="254pt" height="469pt"
 viewBox="0.00 0.00 254.00 469.00" xmlns="http://www.w3.org/2000/svg" xmlns:xlink="http://www.w3.org/1999/xlink">
<g id="graph0" class="graph" transform="scale(1 1) rotate(0) translate(4 465)">
<title>QuestListItem</title>
<!-- Node1 -->
<g id="Node000001" class="node">
<title>Node1</title>
<g id="a_Node000001"><a xlink:title=" ">
<polygon fill="#999999" stroke="transparent" points="246,-370 0,-370 0,0 246,0 246,-370"/>
<text text-anchor="start" x="74" y="-356.4" font-family="Consolas" font-size="12.00">QuestListItem</text>
<text text-anchor="start" x="4" y="-339.4" font-family="Consolas" font-size="12.00">+</text>
<text text-anchor="start" x="16" y="-339.4" font-family="Consolas" font-size="12.00">RandomQuest questInfo</text>
<text text-anchor="start" x="4" y="-322.4" font-family="Consolas" font-size="12.00">+</text>
<text text-anchor="start" x="16" y="-322.4" font-family="Consolas" font-size="12.00">QuestList questList</text>
<text text-anchor="start" x="4" y="-305.4" font-family="Consolas" font-size="12.00">+</text>
<text text-anchor="start" x="16" y="-305.4" font-family="Consolas" font-size="12.00">TextMeshProUGUI title</text>
<text text-anchor="start" x="4" y="-288.4" font-family="Consolas" font-size="12.00">+</text>
<text text-anchor="start" x="16" y="-288.4" font-family="Consolas" font-size="12.00">Image planetImage</text>
<text text-anchor="start" x="4" y="-271.4" font-family="Consolas" font-size="12.00">+</text>
<text text-anchor="start" x="16" y="-271.4" font-family="Consolas" font-size="12.00">TextMeshProUGUI description</text>
<text text-anchor="start" x="4" y="-254.4" font-family="Consolas" font-size="12.00">+</text>
<text text-anchor="start" x="16" y="-254.4" font-family="Consolas" font-size="12.00">TextMeshProUGUI destination</text>
<text text-anchor="start" x="4" y="-237.4" font-family="Consolas" font-size="12.00">+</text>
<text text-anchor="start" x="16" y="-237.4" font-family="Consolas" font-size="12.00">TextMeshProUGUI reward</text>
<text text-anchor="start" x="4" y="-220.4" font-family="Consolas" font-size="12.00">&#45;</text>
<text text-anchor="start" x="16" y="-220.4" font-family="Consolas" font-size="12.00">Image backPanel</text>
<text text-anchor="start" x="4" y="-203.4" font-family="Consolas" font-size="12.00">&#45;</text>
<text text-anchor="start" x="16" y="-203.4" font-family="Consolas" font-size="12.00">Button buttonAccpet</text>
<text text-anchor="start" x="4" y="-186.4" font-family="Consolas" font-size="12.00">&#45;</text>
<text text-anchor="start" x="16" y="-186.4" font-family="Consolas" font-size="12.00">Button buttonComplete</text>
<text text-anchor="start" x="4" y="-169.4" font-family="Consolas" font-size="12.00">&#45;</text>
<text text-anchor="start" x="16" y="-169.4" font-family="Consolas" font-size="12.00">Button buttonDecline</text>
<text text-anchor="start" x="4" y="-152.4" font-family="Consolas" font-size="12.00">&#45;</text>
<text text-anchor="start" x="16" y="-152.4" font-family="Consolas" font-size="12.00">PlanetData currentPlanet</text>
<text text-anchor="start" x="4" y="-135.4" font-family="Consolas" font-size="12.00">+</text>
<text text-anchor="start" x="16" y="-135.4" font-family="Consolas" font-size="12.00">void OnAcceptButtonClicked()</text>
<text text-anchor="start" x="4" y="-118.4" font-family="Consolas" font-size="12.00">+</text>
<text text-anchor="start" x="16" y="-118.4" font-family="Consolas" font-size="12.00">void OnCompleteButtonClicked()</text>
<text text-anchor="start" x="4" y="-101.4" font-family="Consolas" font-size="12.00">+</text>
<text text-anchor="start" x="16" y="-101.4" font-family="Consolas" font-size="12.00">void OnDeclineButtonClicked()</text>
<text text-anchor="start" x="4" y="-84.4" font-family="Consolas" font-size="12.00">+</text>
<text text-anchor="start" x="16" y="-84.4" font-family="Consolas" font-size="12.00">void UpdateItem()</text>
<text text-anchor="start" x="4" y="-67.4" font-family="Consolas" font-size="12.00">&#45;</text>
<text text-anchor="start" x="16" y="-67.4" font-family="Consolas" font-size="12.00">void Start()</text>
<text text-anchor="start" x="4" y="-50.4" font-family="Consolas" font-size="12.00">&#45;</text>
<text text-anchor="start" x="16" y="-50.4" font-family="Consolas" font-size="12.00">IEnumerator CheckItemQuests</text>
<text text-anchor="start" x="16" y="-37.4" font-family="Consolas" font-size="12.00">Delayed()</text>
<text text-anchor="start" x="4" y="-20.4" font-family="Consolas" font-size="12.00">&#45;</text>
<text text-anchor="start" x="16" y="-20.4" font-family="Consolas" font-size="12.00">void ButtonActivate</text>
<text text-anchor="start" x="16" y="-7.4" font-family="Consolas" font-size="12.00">(Button whichButton)</text>
<polygon fill="#666666" stroke="#666666" points="0,-351 0,-351 246,-351 246,-351 0,-351"/>
<polygon fill="#666666" stroke="#666666" points="0,-147 0,-147 14,-147 14,-147 0,-147"/>
<polygon fill="#666666" stroke="#666666" points="14,-147 14,-147 246,-147 246,-147 14,-147"/>
<polygon fill="none" stroke="#666666" points="0,0 0,-370 246,-370 246,0 0,0"/>
</a>
</g>
</g>
<!-- Node2 -->
<g id="Node000002" class="node">
<title>Node2</title>
<g id="a_Node000002"><a xlink:title=" ">
<polygon fill="white" stroke="transparent" points="177,-461 69,-461 69,-406 177,-406 177,-461"/>
<text text-anchor="start" x="74" y="-446.9" font-family="Consolas" font-size="12.00">MonoBehaviour</text>
<text text-anchor="start" x="119" y="-429.9" font-family="Consolas" font-size="12.00"> </text>
<text text-anchor="start" x="119" y="-412.9" font-family="Consolas" font-size="12.00"> </text>
<polygon fill="#bfbfbf" stroke="#bfbfbf" points="69,-441.5 69,-441.5 177,-441.5 177,-441.5 69,-441.5"/>
<polygon fill="#bfbfbf" stroke="#bfbfbf" points="69,-424.5 69,-424.5 177,-424.5 177,-424.5 69,-424.5"/>
<polygon fill="none" stroke="#bfbfbf" points="69,-406 69,-461 177,-461 177,-406 69,-406"/>
</a>
</g>
</g>
<!-- Node2&#45;&gt;Node1 -->
<g id="edge1_Node000001_Node000002" class="edge">
<title>Node2&#45;&gt;Node1</title>
<g id="a_edge1_Node000001_Node000002"><a xlink:title=" ">
<path fill="none" stroke="#63b8ff" d="M123,-395.47C123,-387.82 123,-379.3 123,-370.17"/>
<polygon fill="none" stroke="#63b8ff" points="119.5,-395.65 123,-405.65 126.5,-395.65 119.5,-395.65"/>
</a>
</g>
</g>
</g>
</svg>
