<?xml version="1.0" encoding="UTF-8" standalone="no"?>
<!DOCTYPE svg PUBLIC "-//W3C//DTD SVG 1.1//EN"
 "http://www.w3.org/Graphics/SVG/1.1/DTD/svg11.dtd">
<!-- Generated by graphviz version 2.43.0 (0)
 -->
<!-- Title: ES3Editor.TypesWindow.TypeListItem Pages: 1 -->
<svg width="239pt" height="200pt"
 viewBox="0.00 0.00 239.00 200.00" xmlns="http://www.w3.org/2000/svg" xmlns:xlink="http://www.w3.org/1999/xlink">
<g id="graph0" class="graph" transform="scale(1 1) rotate(0) translate(4 196)">
<title>ES3Editor.TypesWindow.TypeListItem</title>
<!-- Node1 -->
<g id="Node000001" class="node">
<title>Node1</title>
<g id="a_Node000001"><a xlink:title=" ">
<polygon fill="#999999" stroke="transparent" points="231,-192 0,-192 0,0 231,0 231,-192"/>
<text text-anchor="start" x="18" y="-178.4" font-family="Consolas" font-size="12.00">ES3Editor.TypesWindow.Type</text>
<text text-anchor="start" x="85.5" y="-165.4" font-family="Consolas" font-size="12.00">ListItem</text>
<text text-anchor="start" x="4.5" y="-148.4" font-family="Consolas" font-size="12.00">+</text>
<text text-anchor="start" x="16.5" y="-148.4" font-family="Consolas" font-size="12.00">string name</text>
<text text-anchor="start" x="4.5" y="-131.4" font-family="Consolas" font-size="12.00">+</text>
<text text-anchor="start" x="16.5" y="-131.4" font-family="Consolas" font-size="12.00">string lowercaseName</text>
<text text-anchor="start" x="4.5" y="-114.4" font-family="Consolas" font-size="12.00">+</text>
<text text-anchor="start" x="16.5" y="-114.4" font-family="Consolas" font-size="12.00">string namespaceName</text>
<text text-anchor="start" x="4.5" y="-97.4" font-family="Consolas" font-size="12.00">+</text>
<text text-anchor="start" x="16.5" y="-97.4" font-family="Consolas" font-size="12.00">Type type</text>
<text text-anchor="start" x="4.5" y="-80.4" font-family="Consolas" font-size="12.00">+</text>
<text text-anchor="start" x="16.5" y="-80.4" font-family="Consolas" font-size="12.00">bool showInList</text>
<text text-anchor="start" x="4.5" y="-63.4" font-family="Consolas" font-size="12.00">+</text>
<text text-anchor="start" x="16.5" y="-63.4" font-family="Consolas" font-size="12.00">bool hasExplicitES3Type</text>
<text text-anchor="start" x="4.5" y="-46.4" font-family="Consolas" font-size="12.00">+</text>
<text text-anchor="start" x="16.5" y="-46.4" font-family="Consolas" font-size="12.00">TypeListItem(string</text>
<text text-anchor="start" x="16.5" y="-33.4" font-family="Consolas" font-size="12.00"> name, string namespaceName,</text>
<text text-anchor="start" x="16.5" y="-20.4" font-family="Consolas" font-size="12.00"> Type type, bool showInList,</text>
<text text-anchor="start" x="16.5" y="-7.4" font-family="Consolas" font-size="12.00"> bool hasExplicitES3Type)</text>
<polygon fill="#666666" stroke="#666666" points="0.5,-160 0.5,-160 231.5,-160 231.5,-160 0.5,-160"/>
<polygon fill="#666666" stroke="#666666" points="0.5,-58 0.5,-58 14.5,-58 14.5,-58 0.5,-58"/>
<polygon fill="#666666" stroke="#666666" points="14.5,-58 14.5,-58 231.5,-58 231.5,-58 14.5,-58"/>
<polygon fill="none" stroke="#666666" points="0,0 0,-192 231,-192 231,0 0,0"/>
</a>
</g>
</g>
</g>
</svg>
