<?xml version="1.0" encoding="UTF-8" standalone="no"?>
<!DOCTYPE svg PUBLIC "-//W3C//DTD SVG 1.1//EN"
 "http://www.w3.org/Graphics/SVG/1.1/DTD/svg11.dtd">
<!-- Generated by graphviz version 2.43.0 (0)
 -->
<!-- Title: Door Pages: 1 -->
<svg width="430pt" height="768pt"
 viewBox="0.00 0.00 429.50 768.00" xmlns="http://www.w3.org/2000/svg" xmlns:xlink="http://www.w3.org/1999/xlink">
<g id="graph0" class="graph" transform="scale(1 1) rotate(0) translate(4 764)">
<title>Door</title>
<!-- Node1 -->
<g id="Node000001" class="node">
<title>Node1</title>
<g id="a_Node000001"><a xlink:title="방에 부착되어 있는 문 객체입니다.">
<polygon fill="#999999" stroke="transparent" points="321,-515 0,-515 0,0 321,0 321,-515"/>
<text text-anchor="start" x="145.5" y="-500.9" font-family="Consolas" font-size="12.00">Door</text>
<text text-anchor="start" x="4.5" y="-483.9" font-family="Consolas" font-size="12.00">+</text>
<text text-anchor="start" x="16.5" y="-483.9" font-family="Consolas" font-size="12.00">DoorDirection Direction</text>
<text text-anchor="start" x="4.5" y="-466.9" font-family="Consolas" font-size="12.00">+</text>
<text text-anchor="start" x="16.5" y="-466.9" font-family="Consolas" font-size="12.00">Vector2Int OriginalGridPosition</text>
<text text-anchor="start" x="4.5" y="-449.9" font-family="Consolas" font-size="12.00">+</text>
<text text-anchor="start" x="16.5" y="-449.9" font-family="Consolas" font-size="12.00">DoorDirection OriginalDirection</text>
<text text-anchor="start" x="4.5" y="-432.9" font-family="Consolas" font-size="12.00">&#45;</text>
<text text-anchor="start" x="16.5" y="-432.9" font-family="Consolas" font-size="12.00">int currentLevel</text>
<text text-anchor="start" x="4.5" y="-415.9" font-family="Consolas" font-size="12.00">&#45;</text>
<text text-anchor="start" x="16.5" y="-415.9" font-family="Consolas" font-size="12.00">DoorDirection direction</text>
<text text-anchor="start" x="4.5" y="-398.9" font-family="Consolas" font-size="12.00">&#45;</text>
<text text-anchor="start" x="16.5" y="-398.9" font-family="Consolas" font-size="12.00">bool isOpen</text>
<text text-anchor="start" x="4.5" y="-381.9" font-family="Consolas" font-size="12.00">&#45;</text>
<text text-anchor="start" x="16.5" y="-381.9" font-family="Consolas" font-size="12.00">Vector2Int originalGridPosition</text>
<text text-anchor="start" x="4.5" y="-364.9" font-family="Consolas" font-size="12.00">&#45;</text>
<text text-anchor="start" x="16.5" y="-364.9" font-family="Consolas" font-size="12.00">DoorDirection originalDirection</text>
<text text-anchor="start" x="4.5" y="-347.9" font-family="Consolas" font-size="12.00">&#45;</text>
<text text-anchor="start" x="16.5" y="-347.9" font-family="Consolas" font-size="12.00">float passTimer</text>
<text text-anchor="start" x="4.5" y="-330.9" font-family="Consolas" font-size="12.00">&#45;</text>
<text text-anchor="start" x="16.5" y="-330.9" font-family="Consolas" font-size="12.00">int currentHitPoint</text>
<text text-anchor="start" x="4.5" y="-313.9" font-family="Consolas" font-size="12.00">&#45;</text>
<text text-anchor="start" x="16.5" y="-313.9" font-family="Consolas" font-size="12.00">SpriteRenderer spriteRenderer</text>
<text text-anchor="start" x="4.5" y="-296.9" font-family="Consolas" font-size="12.00">&#45;</text>
<text text-anchor="start" x="16.5" y="-296.9" font-family="Consolas" font-size="12.00">Animator animator</text>
<text text-anchor="start" x="4.5" y="-279.9" font-family="Consolas" font-size="12.00">&#45;</text>
<text text-anchor="start" x="16.5" y="-279.9" font-family="Consolas" font-size="12.00">AudioSource audioSource</text>
<text text-anchor="start" x="4.5" y="-262.9" font-family="Consolas" font-size="12.00">+</text>
<text text-anchor="start" x="16.5" y="-262.9" font-family="Consolas" font-size="12.00">void Initialize(DoorData</text>
<text text-anchor="start" x="16.5" y="-249.9" font-family="Consolas" font-size="12.00"> doorData, int level, DoorDirection dir)</text>
<text text-anchor="start" x="4.5" y="-232.9" font-family="Consolas" font-size="12.00">+</text>
<text text-anchor="start" x="16.5" y="-232.9" font-family="Consolas" font-size="12.00">void SetDirection(DoorDirection</text>
<text text-anchor="start" x="16.5" y="-219.9" font-family="Consolas" font-size="12.00"> newDirection)</text>
<text text-anchor="start" x="4.5" y="-202.9" font-family="Consolas" font-size="12.00">+</text>
<text text-anchor="start" x="16.5" y="-202.9" font-family="Consolas" font-size="12.00">void RotateDirectionClockwise()</text>
<text text-anchor="start" x="4.5" y="-185.9" font-family="Consolas" font-size="12.00">+</text>
<text text-anchor="start" x="16.5" y="-185.9" font-family="Consolas" font-size="12.00">void SetGridPosition</text>
<text text-anchor="start" x="16.5" y="-172.9" font-family="Consolas" font-size="12.00">(Vector2Int newPosition)</text>
<text text-anchor="start" x="4.5" y="-155.9" font-family="Consolas" font-size="12.00">+</text>
<text text-anchor="start" x="16.5" y="-155.9" font-family="Consolas" font-size="12.00">bool TryOpenDoor(bool</text>
<text text-anchor="start" x="16.5" y="-142.9" font-family="Consolas" font-size="12.00"> bypassCooldown=false)</text>
<text text-anchor="start" x="4.5" y="-125.9" font-family="Consolas" font-size="12.00">+</text>
<text text-anchor="start" x="16.5" y="-125.9" font-family="Consolas" font-size="12.00">void CloseDoor()</text>
<text text-anchor="start" x="4.5" y="-108.9" font-family="Consolas" font-size="12.00">&#45;</text>
<text text-anchor="start" x="16.5" y="-108.9" font-family="Consolas" font-size="12.00">void Awake()</text>
<text text-anchor="start" x="4.5" y="-91.9" font-family="Consolas" font-size="12.00">&#45;</text>
<text text-anchor="start" x="16.5" y="-91.9" font-family="Consolas" font-size="12.00">void Start()</text>
<text text-anchor="start" x="4.5" y="-74.9" font-family="Consolas" font-size="12.00">&#45;</text>
<text text-anchor="start" x="16.5" y="-74.9" font-family="Consolas" font-size="12.00">void Update()</text>
<text text-anchor="start" x="4.5" y="-57.9" font-family="Consolas" font-size="12.00">&#45;</text>
<text text-anchor="start" x="16.5" y="-57.9" font-family="Consolas" font-size="12.00">void InitializeDoor()</text>
<text text-anchor="start" x="4.5" y="-40.9" font-family="Consolas" font-size="12.00">&#45;</text>
<text text-anchor="start" x="16.5" y="-40.9" font-family="Consolas" font-size="12.00">void SetDoorRotation()</text>
<text text-anchor="start" x="4.5" y="-23.9" font-family="Consolas" font-size="12.00">&#45;</text>
<text text-anchor="start" x="16.5" y="-23.9" font-family="Consolas" font-size="12.00">void CheckPowerRequirement()</text>
<text text-anchor="start" x="4.5" y="-6.9" font-family="Consolas" font-size="12.00">&#45;</text>
<text text-anchor="start" x="16.5" y="-6.9" font-family="Consolas" font-size="12.00">bool HasEnoughPower()</text>
<polygon fill="#666666" stroke="#666666" points="0.5,-495.5 0.5,-495.5 321.5,-495.5 321.5,-495.5 0.5,-495.5"/>
<polygon fill="#666666" stroke="#666666" points="0.5,-274.5 0.5,-274.5 14.5,-274.5 14.5,-274.5 0.5,-274.5"/>
<polygon fill="#666666" stroke="#666666" points="14.5,-274.5 14.5,-274.5 321.5,-274.5 321.5,-274.5 14.5,-274.5"/>
<polygon fill="none" stroke="#666666" points="0,0 0,-515 321,-515 321,0 0,0"/>
</a>
</g>
</g>
<!-- Node2 -->
<g id="Node000002" class="node">
<title>Node2</title>
<g id="a_Node000002"><a xlink:title=" ">
<polygon fill="white" stroke="transparent" points="157.5,-644.5 49.5,-644.5 49.5,-589.5 157.5,-589.5 157.5,-644.5"/>
<text text-anchor="start" x="54.5" y="-630.4" font-family="Consolas" font-size="12.00">MonoBehaviour</text>
<text text-anchor="start" x="99.5" y="-613.4" font-family="Consolas" font-size="12.00"> </text>
<text text-anchor="start" x="99.5" y="-596.4" font-family="Consolas" font-size="12.00"> </text>
<polygon fill="#bfbfbf" stroke="#bfbfbf" points="49.5,-625 49.5,-625 157.5,-625 157.5,-625 49.5,-625"/>
<polygon fill="#bfbfbf" stroke="#bfbfbf" points="49.5,-608 49.5,-608 157.5,-608 157.5,-608 49.5,-608"/>
<polygon fill="none" stroke="#bfbfbf" points="49.5,-589.5 49.5,-644.5 157.5,-644.5 157.5,-589.5 49.5,-589.5"/>
</a>
</g>
</g>
<!-- Node2&#45;&gt;Node1 -->
<g id="edge1_Node000001_Node000002" class="edge">
<title>Node2&#45;&gt;Node1</title>
<g id="a_edge1_Node000001_Node000002"><a xlink:title=" ">
<path fill="none" stroke="#63b8ff" d="M109.34,-579.35C112.09,-562.11 115.63,-539.92 119.56,-515.26"/>
<polygon fill="none" stroke="#63b8ff" points="105.86,-579 107.74,-589.42 112.77,-580.1 105.86,-579"/>
</a>
</g>
</g>
<!-- Node3 -->
<g id="Node000003" class="node">
<title>Node3</title>
<g id="a_Node000003"><a xlink:href="classDoorData.html" target="_top" xlink:title="문의 기본 데이터를 정의하는 ScriptableObject">
<polygon fill="white" stroke="transparent" points="421.5,-668 175.5,-668 175.5,-566 421.5,-566 421.5,-668"/>
<text text-anchor="start" x="268" y="-654.4" font-family="Consolas" font-size="12.00">DoorData</text>
<text text-anchor="start" x="179.5" y="-637.4" font-family="Consolas" font-size="12.00">&#45;</text>
<text text-anchor="start" x="191.5" y="-637.4" font-family="Consolas" font-size="12.00">List&lt; DoorLevel &gt; doorLevels</text>
<text text-anchor="start" x="179.5" y="-620.4" font-family="Consolas" font-size="12.00">+</text>
<text text-anchor="start" x="191.5" y="-620.4" font-family="Consolas" font-size="12.00">DoorLevel GetDoorData</text>
<text text-anchor="start" x="191.5" y="-607.4" font-family="Consolas" font-size="12.00">(int level)</text>
<text text-anchor="start" x="179.5" y="-590.4" font-family="Consolas" font-size="12.00">&#45;</text>
<text text-anchor="start" x="191.5" y="-590.4" font-family="Consolas" font-size="12.00">void OnEnable()</text>
<text text-anchor="start" x="179.5" y="-573.4" font-family="Consolas" font-size="12.00">&#45;</text>
<text text-anchor="start" x="191.5" y="-573.4" font-family="Consolas" font-size="12.00">void InitializeDefaultLevels()</text>
<polygon fill="#666666" stroke="#666666" points="175.5,-649 175.5,-649 421.5,-649 421.5,-649 175.5,-649"/>
<polygon fill="#666666" stroke="#666666" points="175.5,-632 175.5,-632 189.5,-632 189.5,-632 175.5,-632"/>
<polygon fill="#666666" stroke="#666666" points="189.5,-632 189.5,-632 421.5,-632 421.5,-632 189.5,-632"/>
<polygon fill="none" stroke="#666666" points="175.5,-566 175.5,-668 421.5,-668 421.5,-566 175.5,-566"/>
</a>
</g>
</g>
<!-- Node3&#45;&gt;Node1 -->
<g id="edge2_Node000001_Node000003" class="edge">
<title>Node3&#45;&gt;Node1</title>
<g id="a_edge2_Node000001_Node000003"><a xlink:title=" ">
<path fill="none" stroke="#63b8ff" d="M279.17,-565.91C274.61,-554.12 269.45,-540.74 263.88,-526.32"/>
<polygon fill="none" stroke="#63b8ff" points="263.87,-526.3 257.98,-522.14 259.55,-515.1 265.45,-519.26 263.87,-526.3"/>
</a>
</g>
<text text-anchor="middle" x="313" y="-536.8" font-family="Consolas" font-size="14.00" fill="grey"> &#45;doorData</text>
</g>
<!-- Node4 -->
<g id="Node000004" class="node">
<title>Node4</title>
<g id="a_Node000004"><a xlink:title=" ">
<polygon fill="white" stroke="transparent" points="364,-760 233,-760 233,-705 364,-705 364,-760"/>
<text text-anchor="start" x="238.5" y="-745.9" font-family="Consolas" font-size="12.00">ScriptableObject</text>
<text text-anchor="start" x="295" y="-728.9" font-family="Consolas" font-size="12.00"> </text>
<text text-anchor="start" x="295" y="-711.9" font-family="Consolas" font-size="12.00"> </text>
<polygon fill="#bfbfbf" stroke="#bfbfbf" points="233.5,-740.5 233.5,-740.5 364.5,-740.5 364.5,-740.5 233.5,-740.5"/>
<polygon fill="#bfbfbf" stroke="#bfbfbf" points="233.5,-723.5 233.5,-723.5 364.5,-723.5 364.5,-723.5 233.5,-723.5"/>
<polygon fill="none" stroke="#bfbfbf" points="233,-705 233,-760 364,-760 364,-705 233,-705"/>
</a>
</g>
</g>
<!-- Node4&#45;&gt;Node3 -->
<g id="edge3_Node000003_Node000004" class="edge">
<title>Node4&#45;&gt;Node3</title>
<g id="a_edge3_Node000003_Node000004"><a xlink:title=" ">
<path fill="none" stroke="#63b8ff" d="M298.5,-694.87C298.5,-686.32 298.5,-677.08 298.5,-668.06"/>
<polygon fill="none" stroke="#63b8ff" points="295,-694.89 298.5,-704.89 302,-694.89 295,-694.89"/>
</a>
</g>
</g>
</g>
</svg>
