<?xml version="1.0" encoding="UTF-8" standalone="no"?>
<!DOCTYPE svg PUBLIC "-//W3C//DTD SVG 1.1//EN"
 "http://www.w3.org/Graphics/SVG/1.1/DTD/svg11.dtd">
<!-- Generated by graphviz version 2.43.0 (0)
 -->
<!-- Title: TradeUIManager Pages: 1 -->
<svg width="269pt" height="772pt"
 viewBox="0.00 0.00 269.00 772.00" xmlns="http://www.w3.org/2000/svg" xmlns:xlink="http://www.w3.org/1999/xlink">
<g id="graph0" class="graph" transform="scale(1 1) rotate(0) translate(4 768)">
<title>TradeUIManager</title>
<!-- Node1 -->
<g id="Node000001" class="node">
<title>Node1</title>
<g id="a_Node000001"><a xlink:title="무역 UI를 관리하는 매니저입니다. 메인 패널(TradeTestPanel)과 구매/판매 오버레이 패널을 슬라이드 애니메이션으로 제어하며, 각창의 서브 패널 전환(아이템 선택,...">
<polygon fill="#999999" stroke="transparent" points="261,-673 0,-673 0,0 261,0 261,-673"/>
<text text-anchor="start" x="78" y="-658.9" font-family="Consolas" font-size="12.00">TradeUIManager</text>
<text text-anchor="start" x="4.5" y="-641.9" font-family="Consolas" font-size="12.00">+</text>
<text text-anchor="start" x="16.5" y="-641.9" font-family="Consolas" font-size="12.00">RectTransform tradeTestPanel</text>
<text text-anchor="start" x="4.5" y="-624.9" font-family="Consolas" font-size="12.00">+</text>
<text text-anchor="start" x="16.5" y="-624.9" font-family="Consolas" font-size="12.00">RectTransform tradeSellPanel</text>
<text text-anchor="start" x="4.5" y="-607.9" font-family="Consolas" font-size="12.00">+</text>
<text text-anchor="start" x="16.5" y="-607.9" font-family="Consolas" font-size="12.00">RectTransform tradeBuyPanel</text>
<text text-anchor="start" x="4.5" y="-590.9" font-family="Consolas" font-size="12.00">+</text>
<text text-anchor="start" x="16.5" y="-590.9" font-family="Consolas" font-size="12.00">Button sellButton</text>
<text text-anchor="start" x="4.5" y="-573.9" font-family="Consolas" font-size="12.00">+</text>
<text text-anchor="start" x="16.5" y="-573.9" font-family="Consolas" font-size="12.00">Button buyButton</text>
<text text-anchor="start" x="4.5" y="-556.9" font-family="Consolas" font-size="12.00">+</text>
<text text-anchor="start" x="16.5" y="-556.9" font-family="Consolas" font-size="12.00">float slideSpeed</text>
<text text-anchor="start" x="4.5" y="-539.9" font-family="Consolas" font-size="12.00">+</text>
<text text-anchor="start" x="16.5" y="-539.9" font-family="Consolas" font-size="12.00">GameObject planetItemPanel</text>
<text text-anchor="start" x="4.5" y="-522.9" font-family="Consolas" font-size="12.00">+</text>
<text text-anchor="start" x="16.5" y="-522.9" font-family="Consolas" font-size="12.00">GameObject buyMiddlePanel</text>
<text text-anchor="start" x="4.5" y="-505.9" font-family="Consolas" font-size="12.00">+</text>
<text text-anchor="start" x="16.5" y="-505.9" font-family="Consolas" font-size="12.00">GameObject storagePanel</text>
<text text-anchor="start" x="4.5" y="-488.9" font-family="Consolas" font-size="12.00">+</text>
<text text-anchor="start" x="16.5" y="-488.9" font-family="Consolas" font-size="12.00">Button buyBackButton</text>
<text text-anchor="start" x="4.5" y="-471.9" font-family="Consolas" font-size="12.00">+</text>
<text text-anchor="start" x="16.5" y="-471.9" font-family="Consolas" font-size="12.00">GameObject inventoryPanel</text>
<text text-anchor="start" x="4.5" y="-454.9" font-family="Consolas" font-size="12.00">+</text>
<text text-anchor="start" x="16.5" y="-454.9" font-family="Consolas" font-size="12.00">GameObject sellMiddlePanel</text>
<text text-anchor="start" x="4.5" y="-437.9" font-family="Consolas" font-size="12.00">+</text>
<text text-anchor="start" x="16.5" y="-437.9" font-family="Consolas" font-size="12.00">Button sellBackButton</text>
<text text-anchor="start" x="4.5" y="-420.9" font-family="Consolas" font-size="12.00">+</text>
<text text-anchor="start" x="16.5" y="-420.9" font-family="Consolas" font-size="12.00">static TradeUIManager</text>
<text text-anchor="start" x="16.5" y="-407.9" font-family="Consolas" font-size="12.00"> Instance</text>
<text text-anchor="start" x="4.5" y="-390.9" font-family="Consolas" font-size="12.00">&#45;</text>
<text text-anchor="start" x="16.5" y="-390.9" font-family="Consolas" font-size="12.00">Transform inventoryPanel</text>
<text text-anchor="start" x="16.5" y="-377.9" font-family="Consolas" font-size="12.00">Content</text>
<text text-anchor="start" x="4.5" y="-360.9" font-family="Consolas" font-size="12.00">&#45;</text>
<text text-anchor="start" x="16.5" y="-360.9" font-family="Consolas" font-size="12.00">InventoryUI sellInventoryUI</text>
<text text-anchor="start" x="4.5" y="-343.9" font-family="Consolas" font-size="12.00">&#45;</text>
<text text-anchor="start" x="16.5" y="-343.9" font-family="Consolas" font-size="12.00">StorageHighlightManager</text>
<text text-anchor="start" x="16.5" y="-330.9" font-family="Consolas" font-size="12.00"> highlighter</text>
<text text-anchor="start" x="4.5" y="-313.9" font-family="Consolas" font-size="12.00">&#45;</text>
<text text-anchor="start" x="16.5" y="-313.9" font-family="Consolas" font-size="12.00">Vector2 sellPanelHiddenPosition</text>
<text text-anchor="start" x="4.5" y="-296.9" font-family="Consolas" font-size="12.00">&#45;</text>
<text text-anchor="start" x="16.5" y="-296.9" font-family="Consolas" font-size="12.00">Vector2 sellPanelVisible</text>
<text text-anchor="start" x="16.5" y="-283.9" font-family="Consolas" font-size="12.00">Position</text>
<text text-anchor="start" x="4.5" y="-266.9" font-family="Consolas" font-size="12.00">&#45;</text>
<text text-anchor="start" x="16.5" y="-266.9" font-family="Consolas" font-size="12.00">Vector2 buyPanelHiddenPosition</text>
<text text-anchor="start" x="4.5" y="-249.9" font-family="Consolas" font-size="12.00">&#45;</text>
<text text-anchor="start" x="16.5" y="-249.9" font-family="Consolas" font-size="12.00">Vector2 buyPanelVisiblePosition</text>
<text text-anchor="start" x="4.5" y="-232.9" font-family="Consolas" font-size="12.00">&#45;</text>
<text text-anchor="start" x="16.5" y="-232.9" font-family="Consolas" font-size="12.00">Coroutine sellSlideCoroutine</text>
<text text-anchor="start" x="4.5" y="-215.9" font-family="Consolas" font-size="12.00">&#45;</text>
<text text-anchor="start" x="16.5" y="-215.9" font-family="Consolas" font-size="12.00">Coroutine buySlideCoroutine</text>
<text text-anchor="start" x="4.5" y="-198.9" font-family="Consolas" font-size="12.00">+</text>
<text text-anchor="start" x="16.5" y="-198.9" font-family="Consolas" font-size="12.00">void OnBuyItemSelected()</text>
<text text-anchor="start" x="4.5" y="-181.9" font-family="Consolas" font-size="12.00">+</text>
<text text-anchor="start" x="16.5" y="-181.9" font-family="Consolas" font-size="12.00">void OnSellItemSelected()</text>
<text text-anchor="start" x="4.5" y="-164.9" font-family="Consolas" font-size="12.00">+</text>
<text text-anchor="start" x="16.5" y="-164.9" font-family="Consolas" font-size="12.00">void OpenSellPanel()</text>
<text text-anchor="start" x="4.5" y="-147.9" font-family="Consolas" font-size="12.00">+</text>
<text text-anchor="start" x="16.5" y="-147.9" font-family="Consolas" font-size="12.00">void OpenBuyPanel()</text>
<text text-anchor="start" x="4.5" y="-130.9" font-family="Consolas" font-size="12.00">+</text>
<text text-anchor="start" x="16.5" y="-130.9" font-family="Consolas" font-size="12.00">void CloseOverlayPanels()</text>
<text text-anchor="start" x="4.5" y="-113.9" font-family="Consolas" font-size="12.00">&#45;</text>
<text text-anchor="start" x="16.5" y="-113.9" font-family="Consolas" font-size="12.00">void Awake()</text>
<text text-anchor="start" x="4.5" y="-96.9" font-family="Consolas" font-size="12.00">&#45;</text>
<text text-anchor="start" x="16.5" y="-96.9" font-family="Consolas" font-size="12.00">void Start()</text>
<text text-anchor="start" x="4.5" y="-79.9" font-family="Consolas" font-size="12.00">&#45;</text>
<text text-anchor="start" x="16.5" y="-79.9" font-family="Consolas" font-size="12.00">void OnBackPressed()</text>
<text text-anchor="start" x="4.5" y="-62.9" font-family="Consolas" font-size="12.00">&#45;</text>
<text text-anchor="start" x="16.5" y="-62.9" font-family="Consolas" font-size="12.00">IEnumerator ReenableMain</text>
<text text-anchor="start" x="16.5" y="-49.9" font-family="Consolas" font-size="12.00">PanelAfterClosing()</text>
<text text-anchor="start" x="4.5" y="-32.9" font-family="Consolas" font-size="12.00">&#45;</text>
<text text-anchor="start" x="16.5" y="-32.9" font-family="Consolas" font-size="12.00">IEnumerator SlidePanel</text>
<text text-anchor="start" x="16.5" y="-19.9" font-family="Consolas" font-size="12.00">(RectTransform panel,</text>
<text text-anchor="start" x="16.5" y="-6.9" font-family="Consolas" font-size="12.00"> Vector2 fromPos, Vector2 toPos)</text>
<polygon fill="#666666" stroke="#666666" points="0.5,-653.5 0.5,-653.5 261.5,-653.5 261.5,-653.5 0.5,-653.5"/>
<polygon fill="#666666" stroke="#666666" points="0.5,-210.5 0.5,-210.5 14.5,-210.5 14.5,-210.5 0.5,-210.5"/>
<polygon fill="#666666" stroke="#666666" points="14.5,-210.5 14.5,-210.5 261.5,-210.5 261.5,-210.5 14.5,-210.5"/>
<polygon fill="none" stroke="#666666" points="0,0 0,-673 261,-673 261,0 0,0"/>
</a>
</g>
</g>
<!-- Node2 -->
<g id="Node000002" class="node">
<title>Node2</title>
<g id="a_Node000002"><a xlink:title=" ">
<polygon fill="white" stroke="transparent" points="184.5,-764 76.5,-764 76.5,-709 184.5,-709 184.5,-764"/>
<text text-anchor="start" x="81.5" y="-749.9" font-family="Consolas" font-size="12.00">MonoBehaviour</text>
<text text-anchor="start" x="126.5" y="-732.9" font-family="Consolas" font-size="12.00"> </text>
<text text-anchor="start" x="126.5" y="-715.9" font-family="Consolas" font-size="12.00"> </text>
<polygon fill="#bfbfbf" stroke="#bfbfbf" points="76.5,-744.5 76.5,-744.5 184.5,-744.5 184.5,-744.5 76.5,-744.5"/>
<polygon fill="#bfbfbf" stroke="#bfbfbf" points="76.5,-727.5 76.5,-727.5 184.5,-727.5 184.5,-727.5 76.5,-727.5"/>
<polygon fill="none" stroke="#bfbfbf" points="76.5,-709 76.5,-764 184.5,-764 184.5,-709 76.5,-709"/>
</a>
</g>
</g>
<!-- Node2&#45;&gt;Node1 -->
<g id="edge1_Node000001_Node000002" class="edge">
<title>Node2&#45;&gt;Node1</title>
<g id="a_edge1_Node000001_Node000002"><a xlink:title=" ">
<path fill="none" stroke="#63b8ff" d="M130.5,-698.7C130.5,-691.1 130.5,-682.54 130.5,-673.19"/>
<polygon fill="none" stroke="#63b8ff" points="127,-698.77 130.5,-708.77 134,-698.77 127,-698.77"/>
</a>
</g>
</g>
</g>
</svg>
