<?xml version="1.0" encoding="UTF-8" standalone="no"?>
<!DOCTYPE svg PUBLIC "-//W3C//DTD SVG 1.1//EN"
 "http://www.w3.org/Graphics/SVG/1.1/DTD/svg11.dtd">
<!-- Generated by graphviz version 2.43.0 (0)
 -->
<!-- Title: IdleHUDController Pages: 1 -->
<!--zoomable 507 -->

<svg id="main" version="1.1" xmlns="http://www.w3.org/2000/svg" xmlns:xlink="http://www.w3.org/1999/xlink" xml:space="preserve" onload="init(evt)">
<style type="text/css"><![CDATA[
.node, .edge {opacity: 0.7;}
.node.selected, .edge.selected {opacity: 1;}
.edge:hover path { stroke: red; }
.edge:hover polygon { stroke: red; fill: red; }
]]></style>

<defs>
  <circle id="rim" cx="0" cy="0" r="7"/>
  <circle id="rim2" cx="0" cy="0" r="3.5"/>
  <g id="zoomPlus">
    <use xlink:href="#rim" fill="#404040"><set attributeName="fill" to="#808080" begin="zoomplus.mouseover" end="zoomplus.mouseout"/></use>
    <path d="M-4,0h8M0,-4v8" fill="none" stroke="white" stroke-width="1.5" pointer-events="none"/>
  </g>
  <g id="zoomMin">
    <use xlink:href="#rim" fill="#404040"><set attributeName="fill" to="#808080" begin="zoomminus.mouseover" end="zoomminus.mouseout"/></use>
    <path d="M-4,0h8" fill="none" stroke="white" stroke-width="1.5" pointer-events="none"/>
  </g>
  <g id="arrowUp" transform="translate(30 24)">
    <use xlink:href="#rim"/>
    <path pointer-events="none" fill="none" stroke="white" stroke-width="1.5" d="M0,-3.0v7 M-2.5,-0.5L0,-3.0L2.5,-0.5"/>
  </g>
  <g id="arrowRight" transform="rotate(90) translate(36 -43)">
    <use xlink:href="#rim"/>
    <path pointer-events="none" fill="none" stroke="white" stroke-width="1.5" d="M0,-3.0v7 M-2.5,-0.5L0,-3.0L2.5,-0.5"/>
  </g>
  <g id="arrowDown" transform="rotate(180) translate(-30 -48)">
    <use xlink:href="#rim"/>
    <path pointer-events="none" fill="none" stroke="white" stroke-width="1.5" d="M0,-3.0v7 M-2.5,-0.5L0,-3.0L2.5,-0.5"/>
  </g>
  <g id="arrowLeft" transform="rotate(270) translate(-36 17)">
    <use xlink:href="#rim"/>
    <path pointer-events="none" fill="none" stroke="white" stroke-width="1.5" d="M0,-3.0v7 M-2.5,-0.5L0,-3.0L2.5,-0.5"/>
  </g>
  <g id="resetDef">
    <use xlink:href="#rim2" fill="#404040"><set attributeName="fill" to="#808080" begin="reset.mouseover" end="reset.mouseout"/></use>
  </g>
</defs>
<script type="application/ecmascript">
var viewWidth = 254;
var viewHeight = 507;
var sectionId = 'dynsection-0';
</script>
<script type="application/ecmascript" xlink:href="svg.min.js"/>
<svg id="graph" class="graph">
<g id="viewport">
<title>IdleHUDController</title>
<!-- Node1 -->
<g id="Node000001" class="node">
<title>Node1</title>
<g id="a_Node000001"><a xlink:title=" ">
<polygon fill="#999999" stroke="transparent" points="246,-408 0,-408 0,0 246,0 246,-408"/>
<text text-anchor="start" x="59" y="-394.4" font-family="Consolas" font-size="12.00">IdleHUDController</text>
<text text-anchor="start" x="4" y="-377.4" font-family="Consolas" font-size="12.00">+</text>
<text text-anchor="start" x="16" y="-377.4" font-family="Consolas" font-size="12.00">float CurrentHitpoints</text>
<text text-anchor="start" x="4" y="-360.4" font-family="Consolas" font-size="12.00">+</text>
<text text-anchor="start" x="16" y="-360.4" font-family="Consolas" font-size="12.00">float MaxHitpoints</text>
<text text-anchor="start" x="4" y="-343.4" font-family="Consolas" font-size="12.00">+</text>
<text text-anchor="start" x="16" y="-343.4" font-family="Consolas" font-size="12.00">float CurrentCOMA</text>
<text text-anchor="start" x="4" y="-326.4" font-family="Consolas" font-size="12.00">+</text>
<text text-anchor="start" x="16" y="-326.4" font-family="Consolas" font-size="12.00">float CurrentFuel</text>
<text text-anchor="start" x="4" y="-309.4" font-family="Consolas" font-size="12.00">+</text>
<text text-anchor="start" x="16" y="-309.4" font-family="Consolas" font-size="12.00">float CurrentOxygen</text>
<text text-anchor="start" x="4" y="-292.4" font-family="Consolas" font-size="12.00">+</text>
<text text-anchor="start" x="16" y="-292.4" font-family="Consolas" font-size="12.00">int CurrentMissle</text>
<text text-anchor="start" x="4" y="-275.4" font-family="Consolas" font-size="12.00">+</text>
<text text-anchor="start" x="16" y="-275.4" font-family="Consolas" font-size="12.00">int CurrentHypersonic</text>
<text text-anchor="start" x="4" y="-258.4" font-family="Consolas" font-size="12.00">&#45;</text>
<text text-anchor="start" x="16" y="-258.4" font-family="Consolas" font-size="12.00">TextMeshProUGUI shipStatusText</text>
<text text-anchor="start" x="4" y="-241.4" font-family="Consolas" font-size="12.00">&#45;</text>
<text text-anchor="start" x="16" y="-241.4" font-family="Consolas" font-size="12.00">TextMeshProUGUI COMAText</text>
<text text-anchor="start" x="4" y="-224.4" font-family="Consolas" font-size="12.00">&#45;</text>
<text text-anchor="start" x="16" y="-224.4" font-family="Consolas" font-size="12.00">TextMeshProUGUI fuelText</text>
<text text-anchor="start" x="4" y="-207.4" font-family="Consolas" font-size="12.00">&#45;</text>
<text text-anchor="start" x="16" y="-207.4" font-family="Consolas" font-size="12.00">TextMeshProUGUI missileText</text>
<text text-anchor="start" x="4" y="-190.4" font-family="Consolas" font-size="12.00">&#45;</text>
<text text-anchor="start" x="16" y="-190.4" font-family="Consolas" font-size="12.00">TextMeshProUGUI hypersonicText</text>
<text text-anchor="start" x="4" y="-173.4" font-family="Consolas" font-size="12.00">&#45;</text>
<text text-anchor="start" x="16" y="-173.4" font-family="Consolas" font-size="12.00">Image shipHealthBarFill</text>
<text text-anchor="start" x="4" y="-156.4" font-family="Consolas" font-size="12.00">&#45;</text>
<text text-anchor="start" x="16" y="-156.4" font-family="Consolas" font-size="12.00">GameObject buttonEnding</text>
<text text-anchor="start" x="4" y="-139.4" font-family="Consolas" font-size="12.00">+</text>
<text text-anchor="start" x="16" y="-139.4" font-family="Consolas" font-size="12.00">void SetShipStatusText()</text>
<text text-anchor="start" x="4" y="-122.4" font-family="Consolas" font-size="12.00">+</text>
<text text-anchor="start" x="16" y="-122.4" font-family="Consolas" font-size="12.00">void SetResourcesText()</text>
<text text-anchor="start" x="4" y="-105.4" font-family="Consolas" font-size="12.00">+</text>
<text text-anchor="start" x="16" y="-105.4" font-family="Consolas" font-size="12.00">void CheckShowEnding</text>
<text text-anchor="start" x="16" y="-92.4" font-family="Consolas" font-size="12.00">(int year)</text>
<text text-anchor="start" x="4" y="-75.4" font-family="Consolas" font-size="12.00">&#45;</text>
<text text-anchor="start" x="16" y="-75.4" font-family="Consolas" font-size="12.00">void Awake()</text>
<text text-anchor="start" x="4" y="-58.4" font-family="Consolas" font-size="12.00">&#45;</text>
<text text-anchor="start" x="16" y="-58.4" font-family="Consolas" font-size="12.00">void Start()</text>
<text text-anchor="start" x="4" y="-41.4" font-family="Consolas" font-size="12.00">&#45;</text>
<text text-anchor="start" x="16" y="-41.4" font-family="Consolas" font-size="12.00">void Update()</text>
<text text-anchor="start" x="4" y="-24.4" font-family="Consolas" font-size="12.00">&#45;</text>
<text text-anchor="start" x="16" y="-24.4" font-family="Consolas" font-size="12.00">void UpdateHealthBar()</text>
<text text-anchor="start" x="4" y="-7.4" font-family="Consolas" font-size="12.00">&#45;</text>
<text text-anchor="start" x="16" y="-7.4" font-family="Consolas" font-size="12.00">void OnClickEndingButton()</text>
<polygon fill="#666666" stroke="#666666" points="0,-389 0,-389 246,-389 246,-389 0,-389"/>
<polygon fill="#666666" stroke="#666666" points="0,-151 0,-151 14,-151 14,-151 0,-151"/>
<polygon fill="#666666" stroke="#666666" points="14,-151 14,-151 246,-151 246,-151 14,-151"/>
<polygon fill="none" stroke="#666666" points="0,0 0,-408 246,-408 246,0 0,0"/>
</a>
</g>
</g>
<!-- Node2 -->
<g id="Node000002" class="node">
<title>Node2</title>
<g id="a_Node000002"><a xlink:title=" ">
<polygon fill="white" stroke="transparent" points="177,-499 69,-499 69,-444 177,-444 177,-499"/>
<text text-anchor="start" x="74" y="-484.9" font-family="Consolas" font-size="12.00">MonoBehaviour</text>
<text text-anchor="start" x="119" y="-467.9" font-family="Consolas" font-size="12.00"> </text>
<text text-anchor="start" x="119" y="-450.9" font-family="Consolas" font-size="12.00"> </text>
<polygon fill="#bfbfbf" stroke="#bfbfbf" points="69,-479.5 69,-479.5 177,-479.5 177,-479.5 69,-479.5"/>
<polygon fill="#bfbfbf" stroke="#bfbfbf" points="69,-462.5 69,-462.5 177,-462.5 177,-462.5 69,-462.5"/>
<polygon fill="none" stroke="#bfbfbf" points="69,-444 69,-499 177,-499 177,-444 69,-444"/>
</a>
</g>
</g>
<!-- Node2&#45;&gt;Node1 -->
<g id="edge1_Node000001_Node000002" class="edge">
<title>Node2&#45;&gt;Node1</title>
<g id="a_edge1_Node000001_Node000002"><a xlink:title=" ">
<path fill="none" stroke="#63b8ff" d="M123,-433.42C123,-425.8 123,-417.27 123,-408.11"/>
<polygon fill="none" stroke="#63b8ff" points="119.5,-433.58 123,-443.58 126.5,-433.58 119.5,-433.58"/>
</a>
</g>
</g>
</g>
</svg>

<g id="navigator" transform="translate(0 0)" fill="#404254">
  <rect fill="#f2f5e9" fill-opacity="0.5" stroke="#606060" stroke-width=".5" x="0" y="0" width="60" height="60"/>
  <use id="zoomplus" xlink:href="#zoomPlus" x="17" y="9" onmousedown="handleZoom(evt,'in')"/>
  <use id="zoomminus" xlink:href="#zoomMin" x="42" y="9" onmousedown="handleZoom(evt,'out')"/>
  <use id="reset" xlink:href="#resetDef" x="30" y="36" onmousedown="handleReset()"/>
   <use id="arrowup" xlink:href="#arrowUp" x="0" y="0" onmousedown="handlePan(0,-1)"/>
  <use id="arrowright" xlink:href="#arrowRight" x="0" y="0" onmousedown="handlePan(1,0)"/>
  <use id="arrowdown" xlink:href="#arrowDown" x="0" y="0" onmousedown="handlePan(0,1)"/>
  <use id="arrowleft" xlink:href="#arrowLeft" x="0" y="0" onmousedown="handlePan(-1,0)"/>
</g>
<svg viewBox="0 0 15 15" width="100%" height="30px" preserveAspectRatio="xMaxYMin meet">
 <g id="arrow_out" transform="scale(0.3 0.3)">
  <a xlink:href="classIdleHUDController__inherit__graph_org.svg" target="_base">
   <rect id="button" ry="5" rx="5" y="6" x="6" height="38" width="38"
        fill="#f2f5e9" fill-opacity="0.5" stroke="#606060" stroke-width="1.0"/>
   <path id="arrow"
     d="M 11.500037,31.436501 C 11.940474,20.09759 22.043105,11.32322 32.158766,21.979434 L 37.068811,17.246167 C 37.068811,17.246167 37.088388,32 37.088388,32 L 22.160133,31.978069 C 22.160133,31.978069 26.997745,27.140456 26.997745,27.140456 C 18.528582,18.264221 13.291696,25.230495 11.500037,31.436501 z"
     style="fill:#404040;"/>
  </a>
 </g>
</svg>

<style type='text/css'>
<![CDATA[
[data-mouse-over-selected='false'] { opacity: 0.7; }
[data-mouse-over-selected='true']  { opacity: 1.0; }
]]>
</style>
<script type="application/ecmascript"><![CDATA[
document.addEventListener('DOMContentLoaded', (event) => {
  highlightEdges();
  highlightAdjacentNodes();
});
]]></script>
</svg>
