<?xml version="1.0" encoding="UTF-8" standalone="no"?>
<!DOCTYPE svg PUBLIC "-//W3C//DTD SVG 1.1//EN"
 "http://www.w3.org/Graphics/SVG/1.1/DTD/svg11.dtd">
<!-- Generated by graphviz version 2.43.0 (0)
 -->
<!-- Title: RTSSelectionManager.SetOutline Pages: 1 -->
<svg width="1031pt" height="143pt"
 viewBox="0.00 0.00 1031.00 142.50" xmlns="http://www.w3.org/2000/svg" xmlns:xlink="http://www.w3.org/1999/xlink">
<g id="graph0" class="graph" transform="scale(1 1) rotate(0) translate(4 138.5)">
<title>RTSSelectionManager.SetOutline</title>
<!-- Node1 -->
<g id="Node000001" class="node">
<title>Node1</title>
<g id="a_Node000001"><a xlink:title="crew의 스프라이트 렌더러에 onoff값에 따라 Material을 변경하며 외곽선 효과를 준다.">
<polygon fill="#999999" stroke="#666666" points="1023,-91.5 781,-91.5 781,-70.5 1023,-70.5 1023,-91.5"/>
<text text-anchor="middle" x="902" y="-77.9" font-family="Consolas" font-size="12.00">RTSSelectionManager.SetOutline</text>
</a>
</g>
</g>
<!-- Node2 -->
<g id="Node000002" class="node">
<title>Node2</title>
<g id="a_Node000002"><a xlink:href="classRTSSelectionManager.html#a82a95c14e8d3815dc062bf909a30c7e8" target="_top" xlink:title="선택한 선원 모두 해제">
<polygon fill="white" stroke="#666666" points="745,-111.5 496,-111.5 496,-90.5 745,-90.5 745,-111.5"/>
<text text-anchor="middle" x="620.5" y="-97.9" font-family="Consolas" font-size="12.00">RTSSelectionManager.DeselectAll</text>
</a>
</g>
</g>
<!-- Node1&#45;&gt;Node2 -->
<g id="edge1_Node000001_Node000002" class="edge">
<title>Node1&#45;&gt;Node2</title>
<g id="a_edge1_Node000001_Node000002"><a xlink:title=" ">
<path fill="none" stroke="#63b8ff" d="M770.82,-90.32C762.25,-90.93 753.64,-91.54 745.11,-92.15"/>
<polygon fill="#63b8ff" stroke="#63b8ff" points="771.12,-93.8 780.84,-89.6 770.62,-86.82 771.12,-93.8"/>
</a>
</g>
</g>
<!-- Node3 -->
<g id="Node000003" class="node">
<title>Node3</title>
<g id="a_Node000003"><a xlink:href="classRTSSelectionManager.html#a1b4a2ba4cb9ea7b2957e937a683ca02f" target="_top" xlink:title="선원 리스트 UI에서 선원 선택">
<polygon fill="white" stroke="#666666" points="460,-134.5 248,-134.5 248,-113.5 460,-113.5 460,-134.5"/>
<text text-anchor="middle" x="354" y="-120.9" font-family="Consolas" font-size="12.00">RTSSelectionManager.Select</text>
</a>
</g>
</g>
<!-- Node1&#45;&gt;Node3 -->
<g id="edge5_Node000001_Node000003" class="edge">
<title>Node1&#45;&gt;Node3</title>
<g id="a_edge5_Node000001_Node000003"><a xlink:title=" ">
<path fill="none" stroke="#63b8ff" d="M859.54,-94.57C828.41,-104.04 784.53,-115.86 745,-121 649.15,-133.47 538.93,-132.96 460.17,-130.08"/>
<polygon fill="#63b8ff" stroke="#63b8ff" points="860.66,-97.89 869.18,-91.59 858.59,-91.2 860.66,-97.89"/>
</a>
</g>
</g>
<!-- Node4 -->
<g id="Node000004" class="node">
<title>Node4</title>
<g id="a_Node000004"><a xlink:href="classRTSSelectionManager.html#aa9ac0a8b0fd62fdd5bfb2a36589ccb16" target="_top" xlink:title="단일 선원 선택">
<polygon fill="white" stroke="#666666" points="460,-79 248,-79 248,-45 460,-45 460,-79"/>
<text text-anchor="start" x="256" y="-65.4" font-family="Consolas" font-size="12.00">RTSSelectionManager.Select</text>
<text text-anchor="middle" x="354" y="-52.4" font-family="Consolas" font-size="12.00">SingleCrew</text>
</a>
</g>
</g>
<!-- Node1&#45;&gt;Node4 -->
<g id="edge8_Node000001_Node000004" class="edge">
<title>Node1&#45;&gt;Node4</title>
<g id="a_edge8_Node000001_Node000004"><a xlink:title=" ">
<path fill="none" stroke="#63b8ff" d="M770.59,-76.46C675.61,-73.16 548.63,-68.74 460.12,-65.66"/>
<polygon fill="#63b8ff" stroke="#63b8ff" points="770.72,-79.97 780.84,-76.82 770.97,-72.97 770.72,-79.97"/>
</a>
</g>
</g>
<!-- Node6 -->
<g id="Node000006" class="node">
<title>Node6</title>
<g id="a_Node000006"><a xlink:href="classRTSSelectionManager.html#a8f7107c278338d7cb2abbe4d1a6ebfba" target="_top" xlink:title="영역 내 선원 다중 선택">
<polygon fill="white" stroke="#666666" points="726.5,-34 514.5,-34 514.5,0 726.5,0 726.5,-34"/>
<text text-anchor="start" x="522.5" y="-20.4" font-family="Consolas" font-size="12.00">RTSSelectionManager.Select</text>
<text text-anchor="middle" x="620.5" y="-7.4" font-family="Consolas" font-size="12.00">MultipleCrew</text>
</a>
</g>
</g>
<!-- Node1&#45;&gt;Node6 -->
<g id="edge6_Node000001_Node000006" class="edge">
<title>Node1&#45;&gt;Node6</title>
<g id="a_edge6_Node000001_Node000006"><a xlink:title=" ">
<path fill="none" stroke="#63b8ff" d="M844.88,-68.15C802.06,-58.34 742.67,-44.75 695.89,-34.03"/>
<polygon fill="#63b8ff" stroke="#63b8ff" points="844.32,-71.61 854.85,-70.43 845.88,-64.79 844.32,-71.61"/>
</a>
</g>
</g>
<!-- Node2&#45;&gt;Node3 -->
<g id="edge2_Node000002_Node000003" class="edge">
<title>Node2&#45;&gt;Node3</title>
<g id="a_edge2_Node000002_Node000003"><a xlink:title=" ">
<path fill="none" stroke="#63b8ff" d="M488.26,-112.41C478.84,-113.23 469.42,-114.05 460.17,-114.85"/>
<polygon fill="#63b8ff" stroke="#63b8ff" points="488.81,-115.88 498.47,-111.52 488.21,-108.9 488.81,-115.88"/>
</a>
</g>
</g>
<!-- Node2&#45;&gt;Node4 -->
<g id="edge3_Node000002_Node000004" class="edge">
<title>Node2&#45;&gt;Node4</title>
<g id="a_edge3_Node000002_Node000004"><a xlink:title=" ">
<path fill="none" stroke="#63b8ff" d="M538.25,-89.02C513.6,-85.38 486.15,-81.34 460.16,-77.51"/>
<polygon fill="#63b8ff" stroke="#63b8ff" points="537.87,-92.5 548.27,-90.5 538.89,-85.58 537.87,-92.5"/>
</a>
</g>
</g>
<!-- Node5 -->
<g id="Node000005" class="node">
<title>Node5</title>
<g id="a_Node000005"><a xlink:href="classRTSSelectionManager.html#abe94780370a9af6878c66cf3cc98732a" target="_top" xlink:title="좌클릭 감지 &#45; 다중 선택 시 영역 표시 우클릭 감지 &#45; 선택한 선원 이동 명령">
<polygon fill="white" stroke="#666666" points="212,-49.5 0,-49.5 0,-28.5 212,-28.5 212,-49.5"/>
<text text-anchor="middle" x="106" y="-35.9" font-family="Consolas" font-size="12.00">RTSSelectionManager.Update</text>
</a>
</g>
</g>
<!-- Node4&#45;&gt;Node5 -->
<g id="edge4_Node000004_Node000005" class="edge">
<title>Node4&#45;&gt;Node5</title>
<g id="a_edge4_Node000004_Node000005"><a xlink:title=" ">
<path fill="none" stroke="#63b8ff" d="M237.89,-51.24C229.28,-50.43 220.62,-49.62 212.08,-48.82"/>
<polygon fill="#63b8ff" stroke="#63b8ff" points="237.68,-54.73 247.96,-52.18 238.33,-47.76 237.68,-54.73"/>
</a>
</g>
</g>
<!-- Node6&#45;&gt;Node5 -->
<g id="edge7_Node000006_Node000005" class="edge">
<title>Node6&#45;&gt;Node5</title>
<g id="a_edge7_Node000006_Node000005"><a xlink:title=" ">
<path fill="none" stroke="#63b8ff" d="M503.99,-21.96C416.41,-25.72 297.04,-30.84 212.12,-34.49"/>
<polygon fill="#63b8ff" stroke="#63b8ff" points="504.4,-25.44 514.24,-21.52 504.1,-18.45 504.4,-25.44"/>
</a>
</g>
</g>
</g>
</svg>
