<?xml version="1.0" encoding="UTF-8" standalone="no"?>
<!DOCTYPE svg PUBLIC "-//W3C//DTD SVG 1.1//EN"
 "http://www.w3.org/Graphics/SVG/1.1/DTD/svg11.dtd">
<!-- Generated by graphviz version 2.43.0 (0)
 -->
<!-- Title: QuestManager Pages: 1 -->
<!--zoomable 934 -->

<svg id="main" version="1.1" xmlns="http://www.w3.org/2000/svg" xmlns:xlink="http://www.w3.org/1999/xlink" xml:space="preserve" onload="init(evt)">
<style type="text/css"><![CDATA[
.node, .edge {opacity: 0.7;}
.node.selected, .edge.selected {opacity: 1;}
.edge:hover path { stroke: red; }
.edge:hover polygon { stroke: red; fill: red; }
]]></style>

<defs>
  <circle id="rim" cx="0" cy="0" r="7"/>
  <circle id="rim2" cx="0" cy="0" r="3.5"/>
  <g id="zoomPlus">
    <use xlink:href="#rim" fill="#404040"><set attributeName="fill" to="#808080" begin="zoomplus.mouseover" end="zoomplus.mouseout"/></use>
    <path d="M-4,0h8M0,-4v8" fill="none" stroke="white" stroke-width="1.5" pointer-events="none"/>
  </g>
  <g id="zoomMin">
    <use xlink:href="#rim" fill="#404040"><set attributeName="fill" to="#808080" begin="zoomminus.mouseover" end="zoomminus.mouseout"/></use>
    <path d="M-4,0h8" fill="none" stroke="white" stroke-width="1.5" pointer-events="none"/>
  </g>
  <g id="arrowUp" transform="translate(30 24)">
    <use xlink:href="#rim"/>
    <path pointer-events="none" fill="none" stroke="white" stroke-width="1.5" d="M0,-3.0v7 M-2.5,-0.5L0,-3.0L2.5,-0.5"/>
  </g>
  <g id="arrowRight" transform="rotate(90) translate(36 -43)">
    <use xlink:href="#rim"/>
    <path pointer-events="none" fill="none" stroke="white" stroke-width="1.5" d="M0,-3.0v7 M-2.5,-0.5L0,-3.0L2.5,-0.5"/>
  </g>
  <g id="arrowDown" transform="rotate(180) translate(-30 -48)">
    <use xlink:href="#rim"/>
    <path pointer-events="none" fill="none" stroke="white" stroke-width="1.5" d="M0,-3.0v7 M-2.5,-0.5L0,-3.0L2.5,-0.5"/>
  </g>
  <g id="arrowLeft" transform="rotate(270) translate(-36 17)">
    <use xlink:href="#rim"/>
    <path pointer-events="none" fill="none" stroke="white" stroke-width="1.5" d="M0,-3.0v7 M-2.5,-0.5L0,-3.0L2.5,-0.5"/>
  </g>
  <g id="resetDef">
    <use xlink:href="#rim2" fill="#404040"><set attributeName="fill" to="#808080" begin="reset.mouseover" end="reset.mouseout"/></use>
  </g>
</defs>
<script type="application/ecmascript">
var viewWidth = 485;
var viewHeight = 934;
var sectionId = 'dynsection-1';
</script>
<script type="application/ecmascript" xlink:href="svg.min.js"/>
<svg id="graph" class="graph">
<g id="viewport">
<title>QuestManager</title>
<!-- Node1 -->
<g id="Node000001" class="node">
<title>Node1</title>
<g id="a_Node000001"><a xlink:title="퀘스트의 등록, 진행도 갱신, 완료 처리 등을 담당하는 퀘스트 매니저. Singleton 방식으로 동작하며 퀘스트 변경 이벤트도 제공합니다.">
<polygon fill="#999999" stroke="transparent" points="246,-552 0,-552 0,0 246,0 246,-552"/>
<text text-anchor="start" x="77.5" y="-538.4" font-family="Consolas" font-size="12.00">QuestManager</text>
<text text-anchor="start" x="4" y="-521.4" font-family="Consolas" font-size="12.00">+</text>
<text text-anchor="start" x="16" y="-521.4" font-family="Consolas" font-size="12.00">static QuestManager</text>
<text text-anchor="start" x="16" y="-508.4" font-family="Consolas" font-size="12.00"> Instance</text>
<text text-anchor="start" x="4" y="-491.4" font-family="Consolas" font-size="12.00">&#45;</text>
<text text-anchor="start" x="16" y="-491.4" font-family="Consolas" font-size="12.00">List&lt; RandomQuest &gt;</text>
<text text-anchor="start" x="16" y="-478.4" font-family="Consolas" font-size="12.00"> activeQuests</text>
<text text-anchor="start" x="4" y="-461.4" font-family="Consolas" font-size="12.00">&#45;</text>
<text text-anchor="start" x="16" y="-461.4" font-family="Consolas" font-size="12.00">List&lt; RandomQuest &gt;</text>
<text text-anchor="start" x="16" y="-448.4" font-family="Consolas" font-size="12.00"> completedQuests</text>
<text text-anchor="start" x="4" y="-431.4" font-family="Consolas" font-size="12.00">+</text>
<text text-anchor="start" x="16" y="-431.4" font-family="Consolas" font-size="12.00">delegate void QuestChanged</text>
<text text-anchor="start" x="16" y="-418.4" font-family="Consolas" font-size="12.00">Handler(RandomQuest quest)</text>
<text text-anchor="start" x="4" y="-401.4" font-family="Consolas" font-size="12.00">+</text>
<text text-anchor="start" x="16" y="-401.4" font-family="Consolas" font-size="12.00">void AddQuest(RandomQuest</text>
<text text-anchor="start" x="16" y="-388.4" font-family="Consolas" font-size="12.00"> quest)</text>
<text text-anchor="start" x="4" y="-371.4" font-family="Consolas" font-size="12.00">+</text>
<text text-anchor="start" x="16" y="-371.4" font-family="Consolas" font-size="12.00">void TriggerQuestCompleted</text>
<text text-anchor="start" x="16" y="-358.4" font-family="Consolas" font-size="12.00">(RandomQuest quest)</text>
<text text-anchor="start" x="4" y="-341.4" font-family="Consolas" font-size="12.00">+</text>
<text text-anchor="start" x="16" y="-341.4" font-family="Consolas" font-size="12.00">void UpdateQuestObjective</text>
<text text-anchor="start" x="16" y="-328.4" font-family="Consolas" font-size="12.00">(string questId, int objective</text>
<text text-anchor="start" x="16" y="-315.4" font-family="Consolas" font-size="12.00">Index, int amount)</text>
<text text-anchor="start" x="4" y="-298.4" font-family="Consolas" font-size="12.00">+</text>
<text text-anchor="start" x="16" y="-298.4" font-family="Consolas" font-size="12.00">void CompleteQuest</text>
<text text-anchor="start" x="16" y="-285.4" font-family="Consolas" font-size="12.00">(RandomQuest quest)</text>
<text text-anchor="start" x="4" y="-268.4" font-family="Consolas" font-size="12.00">+</text>
<text text-anchor="start" x="16" y="-268.4" font-family="Consolas" font-size="12.00">void GrantRewardForQuest</text>
<text text-anchor="start" x="16" y="-255.4" font-family="Consolas" font-size="12.00">(RandomQuest quest)</text>
<text text-anchor="start" x="4" y="-238.4" font-family="Consolas" font-size="12.00">+</text>
<text text-anchor="start" x="16" y="-238.4" font-family="Consolas" font-size="12.00">void RequestFailQuest</text>
<text text-anchor="start" x="16" y="-225.4" font-family="Consolas" font-size="12.00">(RandomQuest quest)</text>
<text text-anchor="start" x="4" y="-208.4" font-family="Consolas" font-size="12.00">+</text>
<text text-anchor="start" x="16" y="-208.4" font-family="Consolas" font-size="12.00">List&lt; RandomQuest &gt;</text>
<text text-anchor="start" x="16" y="-195.4" font-family="Consolas" font-size="12.00"> GetActiveQuests()</text>
<text text-anchor="start" x="4" y="-178.4" font-family="Consolas" font-size="12.00">+</text>
<text text-anchor="start" x="16" y="-178.4" font-family="Consolas" font-size="12.00">List&lt; RandomQuest &gt;</text>
<text text-anchor="start" x="16" y="-165.4" font-family="Consolas" font-size="12.00"> GetCompletedQuests()</text>
<text text-anchor="start" x="4" y="-148.4" font-family="Consolas" font-size="12.00">&#45;</text>
<text text-anchor="start" x="16" y="-148.4" font-family="Consolas" font-size="12.00">void Awake()</text>
<text text-anchor="start" x="4" y="-131.4" font-family="Consolas" font-size="12.00">&#45;</text>
<text text-anchor="start" x="16" y="-131.4" font-family="Consolas" font-size="12.00">void OnEnable()</text>
<text text-anchor="start" x="4" y="-114.4" font-family="Consolas" font-size="12.00">&#45;</text>
<text text-anchor="start" x="16" y="-114.4" font-family="Consolas" font-size="12.00">void OnDisable()</text>
<text text-anchor="start" x="4" y="-97.4" font-family="Consolas" font-size="12.00">&#45;</text>
<text text-anchor="start" x="16" y="-97.4" font-family="Consolas" font-size="12.00">void CheckQuestExpiration</text>
<text text-anchor="start" x="16" y="-84.4" font-family="Consolas" font-size="12.00">(int currentYear)</text>
<text text-anchor="start" x="4" y="-67.4" font-family="Consolas" font-size="12.00">&#45;</text>
<text text-anchor="start" x="16" y="-67.4" font-family="Consolas" font-size="12.00">void TrySpawnQuest</text>
<text text-anchor="start" x="16" y="-54.4" font-family="Consolas" font-size="12.00">(int year)</text>
<text text-anchor="start" x="4" y="-37.4" font-family="Consolas" font-size="12.00">&#45;</text>
<text text-anchor="start" x="16" y="-37.4" font-family="Consolas" font-size="12.00">void CreateRandomQuest()</text>
<text text-anchor="start" x="4" y="-20.4" font-family="Consolas" font-size="12.00">&#45;</text>
<text text-anchor="start" x="16" y="-20.4" font-family="Consolas" font-size="12.00">void FailQuest(RandomQuest</text>
<text text-anchor="start" x="16" y="-7.4" font-family="Consolas" font-size="12.00"> quest)</text>
<polygon fill="#666666" stroke="#666666" points="0,-533 0,-533 246,-533 246,-533 0,-533"/>
<polygon fill="#666666" stroke="#666666" points="0,-443 0,-443 14,-443 14,-443 0,-443"/>
<polygon fill="#666666" stroke="#666666" points="14,-443 14,-443 246,-443 246,-443 14,-443"/>
<polygon fill="none" stroke="#666666" points="0,0 0,-552 246,-552 246,0 0,0"/>
</a>
</g>
</g>
<!-- Node2 -->
<g id="Node000002" class="node">
<title>Node2</title>
<g id="a_Node000002"><a xlink:title=" ">
<polygon fill="white" stroke="transparent" points="161,-746 53,-746 53,-691 161,-691 161,-746"/>
<text text-anchor="start" x="58" y="-731.9" font-family="Consolas" font-size="12.00">MonoBehaviour</text>
<text text-anchor="start" x="103" y="-714.9" font-family="Consolas" font-size="12.00"> </text>
<text text-anchor="start" x="103" y="-697.9" font-family="Consolas" font-size="12.00"> </text>
<polygon fill="#bfbfbf" stroke="#bfbfbf" points="53,-726.5 53,-726.5 161,-726.5 161,-726.5 53,-726.5"/>
<polygon fill="#bfbfbf" stroke="#bfbfbf" points="53,-709.5 53,-709.5 161,-709.5 161,-709.5 53,-709.5"/>
<polygon fill="none" stroke="#bfbfbf" points="53,-691 53,-746 161,-746 161,-691 53,-691"/>
</a>
</g>
</g>
<!-- Node2&#45;&gt;Node1 -->
<g id="edge1_Node000001_Node000002" class="edge">
<title>Node2&#45;&gt;Node1</title>
<g id="a_edge1_Node000001_Node000002"><a xlink:title=" ">
<path fill="none" stroke="#63b8ff" d="M108.33,-680.78C109.45,-650.09 111.15,-603.25 113,-552.2"/>
<polygon fill="none" stroke="#63b8ff" points="104.83,-680.82 107.96,-690.94 111.83,-681.07 104.83,-680.82"/>
</a>
</g>
</g>
<!-- Node3 -->
<g id="Node000003" class="node">
<title>Node3</title>
<g id="a_Node000003"><a xlink:href="classTradingItemDataBase.html" target="_top" xlink:title=" ">
<polygon fill="white" stroke="transparent" points="477,-834 179,-834 179,-603 477,-603 477,-834"/>
<text text-anchor="start" x="256.5" y="-819.9" font-family="Consolas" font-size="12.00">TradingItemDataBase</text>
<text text-anchor="start" x="183" y="-802.9" font-family="Consolas" font-size="12.00">+</text>
<text text-anchor="start" x="195" y="-802.9" font-family="Consolas" font-size="12.00">List&lt; TradingItemData</text>
<text text-anchor="start" x="195" y="-789.9" font-family="Consolas" font-size="12.00"> &gt; allItems</text>
<text text-anchor="start" x="183" y="-772.9" font-family="Consolas" font-size="12.00">&#45;</text>
<text text-anchor="start" x="195" y="-772.9" font-family="Consolas" font-size="12.00">Dictionary&lt; int, Trading</text>
<text text-anchor="start" x="195" y="-759.9" font-family="Consolas" font-size="12.00">ItemData &gt; itemDictionary</text>
<text text-anchor="start" x="183" y="-742.9" font-family="Consolas" font-size="12.00">+</text>
<text text-anchor="start" x="195" y="-742.9" font-family="Consolas" font-size="12.00">void InitializeDictionary()</text>
<text text-anchor="start" x="183" y="-725.9" font-family="Consolas" font-size="12.00">+</text>
<text text-anchor="start" x="195" y="-725.9" font-family="Consolas" font-size="12.00">TradingItemData GetItemData</text>
<text text-anchor="start" x="195" y="-712.9" font-family="Consolas" font-size="12.00">(int id)</text>
<text text-anchor="start" x="183" y="-695.9" font-family="Consolas" font-size="12.00">+</text>
<text text-anchor="start" x="195" y="-695.9" font-family="Consolas" font-size="12.00">List&lt; TradingItemData</text>
<text text-anchor="start" x="195" y="-682.9" font-family="Consolas" font-size="12.00"> &gt; GetItemsByPlanet(ItemPlanet</text>
<text text-anchor="start" x="195" y="-669.9" font-family="Consolas" font-size="12.00"> planetName)</text>
<text text-anchor="start" x="183" y="-652.9" font-family="Consolas" font-size="12.00">+</text>
<text text-anchor="start" x="195" y="-652.9" font-family="Consolas" font-size="12.00">List&lt; TradingItemData</text>
<text text-anchor="start" x="195" y="-639.9" font-family="Consolas" font-size="12.00"> &gt; GetItemsByTier(ItemTierLevel tier)</text>
<text text-anchor="start" x="183" y="-622.9" font-family="Consolas" font-size="12.00">+</text>
<text text-anchor="start" x="195" y="-622.9" font-family="Consolas" font-size="12.00">TradingItemData GetRandom</text>
<text text-anchor="start" x="195" y="-609.9" font-family="Consolas" font-size="12.00">Item()</text>
<polygon fill="#bfbfbf" stroke="#bfbfbf" points="179,-814.5 179,-814.5 477,-814.5 477,-814.5 179,-814.5"/>
<polygon fill="#bfbfbf" stroke="#bfbfbf" points="179,-754.5 179,-754.5 193,-754.5 193,-754.5 179,-754.5"/>
<polygon fill="#bfbfbf" stroke="#bfbfbf" points="193,-754.5 193,-754.5 477,-754.5 477,-754.5 193,-754.5"/>
<polygon fill="none" stroke="#bfbfbf" points="179,-603 179,-834 477,-834 477,-603 179,-603"/>
</a>
</g>
</g>
<!-- Node3&#45;&gt;Node1 -->
<g id="edge2_Node000001_Node000003" class="edge">
<title>Node3&#45;&gt;Node1</title>
<g id="a_edge2_Node000001_Node000003"><a xlink:title=" ">
<path fill="none" stroke="#63b8ff" d="M274.67,-602.91C267.21,-586.87 259.28,-569.85 251.13,-552.32"/>
<polygon fill="none" stroke="#63b8ff" points="251.09,-552.23 244.93,-548.48 246.03,-541.36 252.18,-545.11 251.09,-552.23"/>
</a>
</g>
<text text-anchor="middle" x="319" y="-573.8" font-family="Consolas" font-size="14.00" fill="grey"> +itemDatabase</text>
</g>
<!-- Node4 -->
<g id="Node000004" class="node">
<title>Node4</title>
<g id="a_Node000004"><a xlink:title=" ">
<polygon fill="white" stroke="transparent" points="393.5,-926 262.5,-926 262.5,-871 393.5,-871 393.5,-926"/>
<text text-anchor="start" x="268" y="-911.9" font-family="Consolas" font-size="12.00">ScriptableObject</text>
<text text-anchor="start" x="324.5" y="-894.9" font-family="Consolas" font-size="12.00"> </text>
<text text-anchor="start" x="324.5" y="-877.9" font-family="Consolas" font-size="12.00"> </text>
<polygon fill="#bfbfbf" stroke="#bfbfbf" points="263,-906.5 263,-906.5 394,-906.5 394,-906.5 263,-906.5"/>
<polygon fill="#bfbfbf" stroke="#bfbfbf" points="263,-889.5 263,-889.5 394,-889.5 394,-889.5 263,-889.5"/>
<polygon fill="none" stroke="#bfbfbf" points="262.5,-871 262.5,-926 393.5,-926 393.5,-871 262.5,-871"/>
</a>
</g>
</g>
<!-- Node4&#45;&gt;Node3 -->
<g id="edge3_Node000003_Node000004" class="edge">
<title>Node4&#45;&gt;Node3</title>
<g id="a_edge3_Node000003_Node000004"><a xlink:title=" ">
<path fill="none" stroke="#63b8ff" d="M328,-860.77C328,-852.68 328,-843.7 328,-834.3"/>
<polygon fill="none" stroke="#63b8ff" points="324.5,-860.85 328,-870.85 331.5,-860.85 324.5,-860.85"/>
</a>
</g>
</g>
</g>
</svg>

<g id="navigator" transform="translate(0 0)" fill="#404254">
  <rect fill="#f2f5e9" fill-opacity="0.5" stroke="#606060" stroke-width=".5" x="0" y="0" width="60" height="60"/>
  <use id="zoomplus" xlink:href="#zoomPlus" x="17" y="9" onmousedown="handleZoom(evt,'in')"/>
  <use id="zoomminus" xlink:href="#zoomMin" x="42" y="9" onmousedown="handleZoom(evt,'out')"/>
  <use id="reset" xlink:href="#resetDef" x="30" y="36" onmousedown="handleReset()"/>
   <use id="arrowup" xlink:href="#arrowUp" x="0" y="0" onmousedown="handlePan(0,-1)"/>
  <use id="arrowright" xlink:href="#arrowRight" x="0" y="0" onmousedown="handlePan(1,0)"/>
  <use id="arrowdown" xlink:href="#arrowDown" x="0" y="0" onmousedown="handlePan(0,1)"/>
  <use id="arrowleft" xlink:href="#arrowLeft" x="0" y="0" onmousedown="handlePan(-1,0)"/>
</g>
<svg viewBox="0 0 15 15" width="100%" height="30px" preserveAspectRatio="xMaxYMin meet">
 <g id="arrow_out" transform="scale(0.3 0.3)">
  <a xlink:href="classQuestManager__coll__graph_org.svg" target="_base">
   <rect id="button" ry="5" rx="5" y="6" x="6" height="38" width="38"
        fill="#f2f5e9" fill-opacity="0.5" stroke="#606060" stroke-width="1.0"/>
   <path id="arrow"
     d="M 11.500037,31.436501 C 11.940474,20.09759 22.043105,11.32322 32.158766,21.979434 L 37.068811,17.246167 C 37.068811,17.246167 37.088388,32 37.088388,32 L 22.160133,31.978069 C 22.160133,31.978069 26.997745,27.140456 26.997745,27.140456 C 18.528582,18.264221 13.291696,25.230495 11.500037,31.436501 z"
     style="fill:#404040;"/>
  </a>
 </g>
</svg>

<style type='text/css'>
<![CDATA[
[data-mouse-over-selected='false'] { opacity: 0.7; }
[data-mouse-over-selected='true']  { opacity: 1.0; }
]]>
</style>
<script type="application/ecmascript"><![CDATA[
document.addEventListener('DOMContentLoaded', (event) => {
  highlightEdges();
  highlightAdjacentNodes();
});
]]></script>
</svg>
