<?xml version="1.0" encoding="UTF-8" standalone="no"?>
<!DOCTYPE svg PUBLIC "-//W3C//DTD SVG 1.1//EN"
 "http://www.w3.org/Graphics/SVG/1.1/DTD/svg11.dtd">
<!-- Generated by graphviz version 2.43.0 (0)
 -->
<!-- Title: ES3Internal.ES3FileStream Pages: 1 -->
<svg width="261pt" height="313pt"
 viewBox="0.00 0.00 261.00 313.00" xmlns="http://www.w3.org/2000/svg" xmlns:xlink="http://www.w3.org/1999/xlink">
<g id="graph0" class="graph" transform="scale(1 1) rotate(0) translate(4 309)">
<title>ES3Internal.ES3FileStream</title>
<!-- Node1 -->
<g id="Node000001" class="node">
<title>Node1</title>
<g id="a_Node000001"><a xlink:title=" ">
<polygon fill="#999999" stroke="transparent" points="253,-214 0,-214 0,0 253,0 253,-214"/>
<text text-anchor="start" x="33" y="-200.4" font-family="Consolas" font-size="12.00">ES3Internal.ES3FileStream</text>
<text text-anchor="start" x="4.5" y="-183.4" font-family="Consolas" font-size="12.00">&#45;</text>
<text text-anchor="start" x="16.5" y="-183.4" font-family="Consolas" font-size="12.00">bool isDisposed</text>
<text text-anchor="start" x="4.5" y="-166.4" font-family="Consolas" font-size="12.00">+</text>
<text text-anchor="start" x="16.5" y="-166.4" font-family="Consolas" font-size="12.00">ES3FileStream(string</text>
<text text-anchor="start" x="16.5" y="-153.4" font-family="Consolas" font-size="12.00"> path, ES3FileMode fileMode,</text>
<text text-anchor="start" x="16.5" y="-140.4" font-family="Consolas" font-size="12.00"> int bufferSize, bool useAsync)</text>
<text text-anchor="start" x="4.5" y="-123.4" font-family="Consolas" font-size="12.00">#</text>
<text text-anchor="start" x="16.5" y="-123.4" font-family="Consolas" font-size="12.00">override void Dispose</text>
<text text-anchor="start" x="16.5" y="-110.4" font-family="Consolas" font-size="12.00">(bool disposing)</text>
<text text-anchor="start" x="4.5" y="-93.4" font-family="Consolas" font-size="12.00">#</text>
<text text-anchor="start" x="16.5" y="-93.4" font-family="Consolas" font-size="12.00">static string GetPath</text>
<text text-anchor="start" x="16.5" y="-80.4" font-family="Consolas" font-size="12.00">(string path, ES3FileMode</text>
<text text-anchor="start" x="16.5" y="-67.4" font-family="Consolas" font-size="12.00"> fileMode)</text>
<text text-anchor="start" x="4.5" y="-50.4" font-family="Consolas" font-size="12.00">#</text>
<text text-anchor="start" x="16.5" y="-50.4" font-family="Consolas" font-size="12.00">static FileMode GetFileMode</text>
<text text-anchor="start" x="16.5" y="-37.4" font-family="Consolas" font-size="12.00">(ES3FileMode fileMode)</text>
<text text-anchor="start" x="4.5" y="-20.4" font-family="Consolas" font-size="12.00">#</text>
<text text-anchor="start" x="16.5" y="-20.4" font-family="Consolas" font-size="12.00">static FileAccess GetFile</text>
<text text-anchor="start" x="16.5" y="-7.4" font-family="Consolas" font-size="12.00">Access(ES3FileMode fileMode)</text>
<polygon fill="#666666" stroke="#666666" points="0.5,-195 0.5,-195 253.5,-195 253.5,-195 0.5,-195"/>
<polygon fill="#666666" stroke="#666666" points="0.5,-178 0.5,-178 14.5,-178 14.5,-178 0.5,-178"/>
<polygon fill="#666666" stroke="#666666" points="14.5,-178 14.5,-178 253.5,-178 253.5,-178 14.5,-178"/>
<polygon fill="none" stroke="#666666" points="0,0 0,-214 253,-214 253,0 0,0"/>
</a>
</g>
</g>
<!-- Node2 -->
<g id="Node000002" class="node">
<title>Node2</title>
<g id="a_Node000002"><a xlink:title=" ">
<polygon fill="white" stroke="transparent" points="169.5,-305 83.5,-305 83.5,-250 169.5,-250 169.5,-305"/>
<text text-anchor="start" x="88.5" y="-290.9" font-family="Consolas" font-size="12.00">FileStream</text>
<text text-anchor="start" x="122.5" y="-273.9" font-family="Consolas" font-size="12.00"> </text>
<text text-anchor="start" x="122.5" y="-256.9" font-family="Consolas" font-size="12.00"> </text>
<polygon fill="#bfbfbf" stroke="#bfbfbf" points="83.5,-285.5 83.5,-285.5 169.5,-285.5 169.5,-285.5 83.5,-285.5"/>
<polygon fill="#bfbfbf" stroke="#bfbfbf" points="83.5,-268.5 83.5,-268.5 169.5,-268.5 169.5,-268.5 83.5,-268.5"/>
<polygon fill="none" stroke="#bfbfbf" points="83.5,-250 83.5,-305 169.5,-305 169.5,-250 83.5,-250"/>
</a>
</g>
</g>
<!-- Node2&#45;&gt;Node1 -->
<g id="edge1_Node000001_Node000002" class="edge">
<title>Node2&#45;&gt;Node1</title>
<g id="a_edge1_Node000001_Node000002"><a xlink:title=" ">
<path fill="none" stroke="#63b8ff" d="M126.5,-239.64C126.5,-231.79 126.5,-223.12 126.5,-214.1"/>
<polygon fill="none" stroke="#63b8ff" points="123,-239.8 126.5,-249.8 130,-239.8 123,-239.8"/>
</a>
</g>
</g>
</g>
</svg>
