<?xml version="1.0" encoding="UTF-8" standalone="no"?>
<!DOCTYPE svg PUBLIC "-//W3C//DTD SVG 1.1//EN"
 "http://www.w3.org/Graphics/SVG/1.1/DTD/svg11.dtd">
<!-- Generated by graphviz version 2.43.0 (0)
 -->
<!-- Title: ES3.DeleteKey Pages: 1 -->
<svg width="302pt" height="143pt"
 viewBox="0.00 0.00 302.00 143.00" xmlns="http://www.w3.org/2000/svg" xmlns:xlink="http://www.w3.org/1999/xlink">

<svg id="main" version="1.1" xmlns="http://www.w3.org/2000/svg" xmlns:xlink="http://www.w3.org/1999/xlink" xml:space="preserve" onload="init(evt)">
<style type="text/css"><![CDATA[
.node, .edge {opacity: 0.7;}
.node.selected, .edge.selected {opacity: 1;}
.edge:hover path { stroke: red; }
.edge:hover polygon { stroke: red; fill: red; }
]]></style>
<script type="application/ecmascript" xlink:href="svg.min.js"/>
<svg id="graph" class="graph">
<g id="graph0" class="graph" transform="scale(1 1) rotate(0) translate(4 139)">
<title>ES3.DeleteKey</title>
<!-- Node1 -->
<g id="Node000001" class="node">
<title>Node1</title>
<g id="a_Node000001"><a xlink:title="Deletes a key in the file specified by the ES3Settings object.">
<polygon fill="#999999" stroke="#666666" points="114,-78 0,-78 0,-57 114,-57 114,-78"/>
<text text-anchor="middle" x="57" y="-64.4" font-family="Consolas" font-size="12.00">ES3.DeleteKey</text>
</a>
</g>
</g>
<!-- Node2 -->
<g id="Node000002" class="node">
<title>Node2</title>
<g id="a_Node000002"><a xlink:href="classES3Writer.html#a8495b421b8cac2ede59e236066b2cea5" target="_top" xlink:title="Creates a new ES3Writer.">
<polygon fill="white" stroke="#666666" points="290.5,-117 153.5,-117 153.5,-96 290.5,-96 290.5,-117"/>
<text text-anchor="middle" x="222" y="-103.4" font-family="Consolas" font-size="12.00">ES3Writer.Create</text>
</a>
</g>
</g>
<!-- Node1&#45;&gt;Node2 -->
<g id="edge1_Node000001_Node000002" class="edge">
<title>Node1&#45;&gt;Node2</title>
<g id="a_edge1_Node000001_Node000002"><a xlink:title=" ">
<path fill="none" stroke="#63b8ff" d="M102.11,-78.05C122.13,-82.84 146,-88.56 167.08,-93.6"/>
<polygon fill="#63b8ff" stroke="#63b8ff" points="166.31,-97.01 176.85,-95.94 167.94,-90.21 166.31,-97.01"/>
</a>
</g>
</g>
<!-- Node3 -->
<g id="Node000003" class="node">
<title>Node3</title>
<g id="a_Node000003"><a xlink:href="classES3File.html#a8d5731b0f43d409a43841ff8b4896b9b" target="_top" xlink:title="Deletes a key from this ES3File.">
<polygon fill="white" stroke="#666666" points="294,-78 150,-78 150,-57 294,-57 294,-78"/>
<text text-anchor="middle" x="222" y="-64.4" font-family="Consolas" font-size="12.00">ES3File.DeleteKey</text>
</a>
</g>
</g>
<!-- Node1&#45;&gt;Node3 -->
<g id="edge3_Node000001_Node000003" class="edge">
<title>Node1&#45;&gt;Node3</title>
<g id="a_edge3_Node000001_Node000003"><a xlink:title=" ">
<path fill="none" stroke="#63b8ff" d="M114.1,-67.5C122.37,-67.5 131.03,-67.5 139.69,-67.5"/>
<polygon fill="#63b8ff" stroke="#63b8ff" points="139.83,-71 149.83,-67.5 139.83,-64 139.83,-71"/>
</a>
</g>
</g>
<!-- Node4 -->
<g id="Node000004" class="node">
<title>Node4</title>
<g id="a_Node000004"><a xlink:href="classES3.html#a248c68f2b255ae21a240540630889142" target="_top" xlink:title="Checks whether the default file exists.">
<polygon fill="white" stroke="#666666" points="283,-21 161,-21 161,0 283,0 283,-21"/>
<text text-anchor="middle" x="222" y="-7.4" font-family="Consolas" font-size="12.00">ES3.FileExists</text>
</a>
</g>
</g>
<!-- Node1&#45;&gt;Node4 -->
<g id="edge4_Node000001_Node000004" class="edge">
<title>Node1&#45;&gt;Node4</title>
<g id="a_edge4_Node000001_Node000004"><a xlink:title=" ">
<path fill="none" stroke="#63b8ff" d="M88.28,-56.91C114.47,-47.75 152.52,-34.45 181.18,-24.43"/>
<polygon fill="#63b8ff" stroke="#63b8ff" points="182.6,-27.64 190.89,-21.03 180.29,-21.03 182.6,-27.64"/>
</a>
</g>
</g>
<!-- Node2&#45;&gt;Node2 -->
<g id="edge2_Node000002_Node000002" class="edge">
<title>Node2&#45;&gt;Node2</title>
<g id="a_edge2_Node000002_Node000002"><a xlink:title=" ">
<path fill="none" stroke="#63b8ff" d="M195.94,-117.02C184.81,-125.81 193.49,-135 222,-135 240.26,-135 250.39,-131.23 252.38,-126.21"/>
<polygon fill="#63b8ff" stroke="#63b8ff" points="255.48,-124.58 248.06,-117.02 249.15,-127.56 255.48,-124.58"/>
</a>
</g>
</g>
<!-- Node4&#45;&gt;Node4 -->
<g id="edge5_Node000004_Node000004" class="edge">
<title>Node4&#45;&gt;Node4</title>
<g id="a_edge5_Node000004_Node000004"><a xlink:title=" ">
<path fill="none" stroke="#63b8ff" d="M195.94,-21.02C184.81,-29.81 193.49,-39 222,-39 240.26,-39 250.39,-35.23 252.38,-30.21"/>
<polygon fill="#63b8ff" stroke="#63b8ff" points="255.48,-28.58 248.06,-21.02 249.15,-31.56 255.48,-28.58"/>
</a>
</g>
</g>
</g>
</svg>
</svg>

<style type='text/css'>
<![CDATA[
[data-mouse-over-selected='false'] { opacity: 0.7; }
[data-mouse-over-selected='true']  { opacity: 1.0; }
]]>
</style>
<script type="application/ecmascript"><![CDATA[
document.addEventListener('DOMContentLoaded', (event) => {
  highlightEdges();
  highlightAdjacentNodes();
});
]]></script>
</svg>
