<?xml version="1.0" encoding="UTF-8" standalone="no"?>
<!DOCTYPE svg PUBLIC "-//W3C//DTD SVG 1.1//EN"
 "http://www.w3.org/Graphics/SVG/1.1/DTD/svg11.dtd">
<!-- Generated by graphviz version 2.43.0 (0)
 -->
<!-- Title: WarheadTypeData Pages: 1 -->
<svg width="201pt" height="222pt"
 viewBox="0.00 0.00 201.00 222.00" xmlns="http://www.w3.org/2000/svg" xmlns:xlink="http://www.w3.org/1999/xlink">

<svg id="main" version="1.1" xmlns="http://www.w3.org/2000/svg" xmlns:xlink="http://www.w3.org/1999/xlink" xml:space="preserve" onload="init(evt)">
<style type="text/css"><![CDATA[
.node, .edge {opacity: 0.7;}
.node.selected, .edge.selected {opacity: 1;}
.edge:hover path { stroke: red; }
.edge:hover polygon { stroke: red; fill: red; }
]]></style>
<script type="application/ecmascript" xlink:href="svg.min.js"/>
<svg id="graph" class="graph">
<g id="graph0" class="graph" transform="scale(1 1) rotate(0) translate(4 218)">
<title>WarheadTypeData</title>
<!-- Node1 -->
<g id="Node000001" class="node">
<title>Node1</title>
<g id="a_Node000001"><a xlink:title="탄두 타입 데이터 클래스">
<polygon fill="#999999" stroke="transparent" points="193,-123 0,-123 0,0 193,0 193,-123"/>
<text text-anchor="start" x="40.5" y="-108.9" font-family="Consolas" font-size="12.00">WarheadTypeData</text>
<text text-anchor="start" x="4.5" y="-91.9" font-family="Consolas" font-size="12.00">+</text>
<text text-anchor="start" x="16.5" y="-91.9" font-family="Consolas" font-size="12.00">int id</text>
<text text-anchor="start" x="4.5" y="-74.9" font-family="Consolas" font-size="12.00">+</text>
<text text-anchor="start" x="16.5" y="-74.9" font-family="Consolas" font-size="12.00">string warheadName</text>
<text text-anchor="start" x="4.5" y="-57.9" font-family="Consolas" font-size="12.00">+</text>
<text text-anchor="start" x="16.5" y="-57.9" font-family="Consolas" font-size="12.00">string description</text>
<text text-anchor="start" x="4.5" y="-40.9" font-family="Consolas" font-size="12.00">+</text>
<text text-anchor="start" x="16.5" y="-40.9" font-family="Consolas" font-size="12.00">WarheadType warheadType</text>
<text text-anchor="start" x="4.5" y="-23.9" font-family="Consolas" font-size="12.00">+</text>
<text text-anchor="start" x="16.5" y="-23.9" font-family="Consolas" font-size="12.00">Sprite icon</text>
<text text-anchor="start" x="93" y="-6.9" font-family="Consolas" font-size="12.00"> </text>
<polygon fill="#666666" stroke="#666666" points="0.5,-103.5 0.5,-103.5 193.5,-103.5 193.5,-103.5 0.5,-103.5"/>
<polygon fill="#666666" stroke="#666666" points="0.5,-18.5 0.5,-18.5 14.5,-18.5 14.5,-18.5 0.5,-18.5"/>
<polygon fill="#666666" stroke="#666666" points="14.5,-18.5 14.5,-18.5 193.5,-18.5 193.5,-18.5 14.5,-18.5"/>
<polygon fill="none" stroke="#666666" points="0,0 0,-123 193,-123 193,0 0,0"/>
</a>
</g>
</g>
<!-- Node2 -->
<g id="Node000002" class="node">
<title>Node2</title>
<g id="a_Node000002"><a xlink:title=" ">
<polygon fill="white" stroke="transparent" points="162,-214 31,-214 31,-159 162,-159 162,-214"/>
<text text-anchor="start" x="36.5" y="-199.9" font-family="Consolas" font-size="12.00">ScriptableObject</text>
<text text-anchor="start" x="93" y="-182.9" font-family="Consolas" font-size="12.00"> </text>
<text text-anchor="start" x="93" y="-165.9" font-family="Consolas" font-size="12.00"> </text>
<polygon fill="#bfbfbf" stroke="#bfbfbf" points="31.5,-194.5 31.5,-194.5 162.5,-194.5 162.5,-194.5 31.5,-194.5"/>
<polygon fill="#bfbfbf" stroke="#bfbfbf" points="31.5,-177.5 31.5,-177.5 162.5,-177.5 162.5,-177.5 31.5,-177.5"/>
<polygon fill="none" stroke="#bfbfbf" points="31,-159 31,-214 162,-214 162,-159 31,-159"/>
</a>
</g>
</g>
<!-- Node2&#45;&gt;Node1 -->
<g id="edge1_Node000001_Node000002" class="edge">
<title>Node2&#45;&gt;Node1</title>
<g id="a_edge1_Node000001_Node000002"><a xlink:title=" ">
<path fill="none" stroke="#63b8ff" d="M96.5,-148.68C96.5,-140.64 96.5,-131.91 96.5,-123.21"/>
<polygon fill="none" stroke="#63b8ff" points="93,-148.81 96.5,-158.81 100,-148.81 93,-148.81"/>
</a>
</g>
</g>
</g>
</svg>
</svg>

<style type='text/css'>
<![CDATA[
[data-mouse-over-selected='false'] { opacity: 0.7; }
[data-mouse-over-selected='true']  { opacity: 1.0; }
]]>
</style>
<script type="application/ecmascript"><![CDATA[
document.addEventListener('DOMContentLoaded', (event) => {
  highlightEdges();
  highlightAdjacentNodes();
});
]]></script>
</svg>
