<?xml version="1.0" encoding="UTF-8" standalone="no"?>
<!DOCTYPE svg PUBLIC "-//W3C//DTD SVG 1.1//EN"
 "http://www.w3.org/Graphics/SVG/1.1/DTD/svg11.dtd">
<!-- Generated by graphviz version 2.43.0 (0)
 -->
<!-- Title: RoomDamageEffectHandler Pages: 1 -->
<svg width="254pt" height="253pt"
 viewBox="0.00 0.00 254.00 253.00" xmlns="http://www.w3.org/2000/svg" xmlns:xlink="http://www.w3.org/1999/xlink">

<svg id="main" version="1.1" xmlns="http://www.w3.org/2000/svg" xmlns:xlink="http://www.w3.org/1999/xlink" xml:space="preserve" onload="init(evt)">
<style type="text/css"><![CDATA[
.node, .edge {opacity: 0.7;}
.node.selected, .edge.selected {opacity: 1;}
.edge:hover path { stroke: red; }
.edge:hover polygon { stroke: red; fill: red; }
]]></style>
<script type="application/ecmascript" xlink:href="svg.min.js"/>
<svg id="graph" class="graph">
<g id="graph0" class="graph" transform="scale(1 1) rotate(0) translate(4 249)">
<title>RoomDamageEffectHandler</title>
<!-- Node1 -->
<g id="Node000001" class="node">
<title>Node1</title>
<g id="a_Node000001"><a xlink:title=" ">
<polygon fill="#999999" stroke="transparent" points="246,-141 0,-141 0,0 246,0 246,-141"/>
<text text-anchor="start" x="36.5" y="-126.9" font-family="Consolas" font-size="12.00">RoomDamageEffectHandler</text>
<text text-anchor="start" x="119" y="-109.9" font-family="Consolas" font-size="12.00"> </text>
<text text-anchor="start" x="4" y="-92.9" font-family="Consolas" font-size="12.00">+</text>
<text text-anchor="start" x="16" y="-92.9" font-family="Consolas" font-size="12.00">void HandleEffect(EventOutcome</text>
<text text-anchor="start" x="16" y="-79.9" font-family="Consolas" font-size="12.00"> outcome)</text>
<text text-anchor="start" x="4" y="-62.9" font-family="Consolas" font-size="12.00">+</text>
<text text-anchor="start" x="16" y="-62.9" font-family="Consolas" font-size="12.00">void ApplyRandomRoomDamage</text>
<text text-anchor="start" x="16" y="-49.9" font-family="Consolas" font-size="12.00">(EventOutcome outcome)</text>
<text text-anchor="start" x="4" y="-32.9" font-family="Consolas" font-size="12.00">+</text>
<text text-anchor="start" x="16" y="-32.9" font-family="Consolas" font-size="12.00">void ApplyRoomDamage</text>
<text text-anchor="start" x="16" y="-19.9" font-family="Consolas" font-size="12.00">(EventOutcome outcome,</text>
<text text-anchor="start" x="16" y="-6.9" font-family="Consolas" font-size="12.00"> Room targetRoom)</text>
<polygon fill="#666666" stroke="#666666" points="0,-121.5 0,-121.5 246,-121.5 246,-121.5 0,-121.5"/>
<polygon fill="#666666" stroke="#666666" points="0,-104.5 0,-104.5 246,-104.5 246,-104.5 0,-104.5"/>
<polygon fill="none" stroke="#666666" points="0,0 0,-141 246,-141 246,0 0,0"/>
</a>
</g>
</g>
<!-- Node2 -->
<g id="Node000002" class="node">
<title>Node2</title>
<g id="a_Node000002"><a xlink:href="interfaceISpecialEffectHandler.html" target="_top" xlink:title=" ">
<polygon fill="white" stroke="transparent" points="246,-245 0,-245 0,-177 246,-177 246,-245"/>
<text text-anchor="start" x="44" y="-231.4" font-family="Consolas" font-size="12.00">ISpecialEffectHandler</text>
<text text-anchor="start" x="119" y="-214.4" font-family="Consolas" font-size="12.00"> </text>
<text text-anchor="start" x="4" y="-197.4" font-family="Consolas" font-size="12.00">+</text>
<text text-anchor="start" x="16" y="-197.4" font-family="Consolas" font-size="12.00">void HandleEffect(EventOutcome</text>
<text text-anchor="start" x="16" y="-184.4" font-family="Consolas" font-size="12.00"> outcome)</text>
<polygon fill="#bfbfbf" stroke="#bfbfbf" points="0,-226 0,-226 246,-226 246,-226 0,-226"/>
<polygon fill="#bfbfbf" stroke="#bfbfbf" points="0,-209 0,-209 246,-209 246,-209 0,-209"/>
<polygon fill="none" stroke="#bfbfbf" points="0,-177 0,-245 246,-245 246,-177 0,-177"/>
</a>
</g>
</g>
<!-- Node2&#45;&gt;Node1 -->
<g id="edge1_Node000001_Node000002" class="edge">
<title>Node2&#45;&gt;Node1</title>
<g id="a_edge1_Node000001_Node000002"><a xlink:title=" ">
<path fill="none" stroke="#63b8ff" d="M123,-166.82C123,-158.64 123,-149.9 123,-141.15"/>
<polygon fill="none" stroke="#63b8ff" points="119.5,-166.83 123,-176.83 126.5,-166.83 119.5,-166.83"/>
</a>
</g>
</g>
</g>
</svg>
</svg>

<style type='text/css'>
<![CDATA[
[data-mouse-over-selected='false'] { opacity: 0.7; }
[data-mouse-over-selected='true']  { opacity: 1.0; }
]]>
</style>
<script type="application/ecmascript"><![CDATA[
document.addEventListener('DOMContentLoaded', (event) => {
  highlightEdges();
  highlightAdjacentNodes();
});
]]></script>
</svg>
