<?xml version="1.0" encoding="UTF-8" standalone="no"?>
<!DOCTYPE svg PUBLIC "-//W3C//DTD SVG 1.1//EN"
 "http://www.w3.org/Graphics/SVG/1.1/DTD/svg11.dtd">
<!-- Generated by graphviz version 2.43.0 (0)
 -->
<!-- Title: ES3ReferenceMgrEditor Pages: 1 -->
<svg width="269pt" height="445pt"
 viewBox="0.00 0.00 269.00 445.00" xmlns="http://www.w3.org/2000/svg" xmlns:xlink="http://www.w3.org/1999/xlink">
<g id="graph0" class="graph" transform="scale(1 1) rotate(0) translate(4 441)">
<title>ES3ReferenceMgrEditor</title>
<!-- Node1 -->
<g id="Node000001" class="node">
<title>Node1</title>
<g id="a_Node000001"><a xlink:title=" ">
<polygon fill="#999999" stroke="transparent" points="261,-346 0,-346 0,0 261,0 261,-346"/>
<text text-anchor="start" x="52" y="-332.4" font-family="Consolas" font-size="12.00">ES3ReferenceMgrEditor</text>
<text text-anchor="start" x="4.5" y="-315.4" font-family="Consolas" font-size="12.00">+</text>
<text text-anchor="start" x="16.5" y="-315.4" font-family="Consolas" font-size="12.00">ES3ReferenceMgr mgr</text>
<text text-anchor="start" x="4.5" y="-298.4" font-family="Consolas" font-size="12.00">&#45;</text>
<text text-anchor="start" x="16.5" y="-298.4" font-family="Consolas" font-size="12.00">bool isDraggingOver</text>
<text text-anchor="start" x="4.5" y="-281.4" font-family="Consolas" font-size="12.00">&#45;</text>
<text text-anchor="start" x="16.5" y="-281.4" font-family="Consolas" font-size="12.00">bool openReferences</text>
<text text-anchor="start" x="4.5" y="-264.4" font-family="Consolas" font-size="12.00">&#45;</text>
<text text-anchor="start" x="16.5" y="-264.4" font-family="Consolas" font-size="12.00">ES3ReferenceMgr _mgr</text>
<text text-anchor="start" x="4.5" y="-247.4" font-family="Consolas" font-size="12.00">+</text>
<text text-anchor="start" x="16.5" y="-247.4" font-family="Consolas" font-size="12.00">override void OnInspector</text>
<text text-anchor="start" x="16.5" y="-234.4" font-family="Consolas" font-size="12.00">GUI()</text>
<text text-anchor="start" x="4.5" y="-217.4" font-family="Consolas" font-size="12.00">+</text>
<text text-anchor="start" x="16.5" y="-217.4" font-family="Consolas" font-size="12.00">static void AddDependencies</text>
<text text-anchor="start" x="16.5" y="-204.4" font-family="Consolas" font-size="12.00">ToManager()</text>
<text text-anchor="start" x="4.5" y="-187.4" font-family="Consolas" font-size="12.00">+</text>
<text text-anchor="start" x="16.5" y="-187.4" font-family="Consolas" font-size="12.00">static void AddReferences</text>
<text text-anchor="start" x="16.5" y="-174.4" font-family="Consolas" font-size="12.00">ToManager()</text>
<text text-anchor="start" x="4.5" y="-157.4" font-family="Consolas" font-size="12.00">+</text>
<text text-anchor="start" x="16.5" y="-157.4" font-family="Consolas" font-size="12.00">static void ExcludeReference</text>
<text text-anchor="start" x="16.5" y="-144.4" font-family="Consolas" font-size="12.00">FromManager()</text>
<text text-anchor="start" x="4.5" y="-127.4" font-family="Consolas" font-size="12.00">+</text>
<text text-anchor="start" x="16.5" y="-127.4" font-family="Consolas" font-size="12.00">static void ExcludeDependencies</text>
<text text-anchor="start" x="16.5" y="-114.4" font-family="Consolas" font-size="12.00">FromManager()</text>
<text text-anchor="start" x="4.5" y="-97.4" font-family="Consolas" font-size="12.00">+</text>
<text text-anchor="start" x="16.5" y="-97.4" font-family="Consolas" font-size="12.00">static void EnableForScene()</text>
<text text-anchor="start" x="4.5" y="-80.4" font-family="Consolas" font-size="12.00">&#45;</text>
<text text-anchor="start" x="16.5" y="-80.4" font-family="Consolas" font-size="12.00">static bool CanAddReference</text>
<text text-anchor="start" x="16.5" y="-67.4" font-family="Consolas" font-size="12.00">ToManager()</text>
<text text-anchor="start" x="4.5" y="-50.4" font-family="Consolas" font-size="12.00">&#45;</text>
<text text-anchor="start" x="16.5" y="-50.4" font-family="Consolas" font-size="12.00">static bool CanExcludeReferences</text>
<text text-anchor="start" x="16.5" y="-37.4" font-family="Consolas" font-size="12.00">FromManager()</text>
<text text-anchor="start" x="4.5" y="-20.4" font-family="Consolas" font-size="12.00">&#45;</text>
<text text-anchor="start" x="16.5" y="-20.4" font-family="Consolas" font-size="12.00">static bool CanEnableFor</text>
<text text-anchor="start" x="16.5" y="-7.4" font-family="Consolas" font-size="12.00">Scene()</text>
<polygon fill="#666666" stroke="#666666" points="0.5,-327 0.5,-327 261.5,-327 261.5,-327 0.5,-327"/>
<polygon fill="#666666" stroke="#666666" points="0.5,-259 0.5,-259 14.5,-259 14.5,-259 0.5,-259"/>
<polygon fill="#666666" stroke="#666666" points="14.5,-259 14.5,-259 261.5,-259 261.5,-259 14.5,-259"/>
<polygon fill="none" stroke="#666666" points="0,0 0,-346 261,-346 261,0 0,0"/>
</a>
</g>
</g>
<!-- Node2 -->
<g id="Node000002" class="node">
<title>Node2</title>
<g id="a_Node000002"><a xlink:title=" ">
<polygon fill="white" stroke="transparent" points="207,-437 54,-437 54,-382 207,-382 207,-437"/>
<text text-anchor="start" x="59.5" y="-422.9" font-family="Consolas" font-size="12.00">UnityEditor::Editor</text>
<text text-anchor="start" x="127" y="-405.9" font-family="Consolas" font-size="12.00"> </text>
<text text-anchor="start" x="127" y="-388.9" font-family="Consolas" font-size="12.00"> </text>
<polygon fill="#bfbfbf" stroke="#bfbfbf" points="54.5,-417.5 54.5,-417.5 207.5,-417.5 207.5,-417.5 54.5,-417.5"/>
<polygon fill="#bfbfbf" stroke="#bfbfbf" points="54.5,-400.5 54.5,-400.5 207.5,-400.5 207.5,-400.5 54.5,-400.5"/>
<polygon fill="none" stroke="#bfbfbf" points="54,-382 54,-437 207,-437 207,-382 54,-382"/>
</a>
</g>
</g>
<!-- Node2&#45;&gt;Node1 -->
<g id="edge1_Node000001_Node000002" class="edge">
<title>Node2&#45;&gt;Node1</title>
<g id="a_edge1_Node000001_Node000002"><a xlink:title=" ">
<path fill="none" stroke="#63b8ff" d="M130.5,-371.48C130.5,-363.9 130.5,-355.46 130.5,-346.46"/>
<polygon fill="none" stroke="#63b8ff" points="127,-371.6 130.5,-381.6 134,-371.6 127,-371.6"/>
</a>
</g>
</g>
</g>
</svg>
