<?xml version="1.0" encoding="UTF-8" standalone="no"?>
<!DOCTYPE svg PUBLIC "-//W3C//DTD SVG 1.1//EN"
 "http://www.w3.org/Graphics/SVG/1.1/DTD/svg11.dtd">
<!-- Generated by graphviz version 2.43.0 (0)
 -->
<!-- Title: TradeUIController.OnPanelButtonClicked Pages: 1 -->
<svg width="692pt" height="42pt"
 viewBox="0.00 0.00 692.00 42.00" xmlns="http://www.w3.org/2000/svg" xmlns:xlink="http://www.w3.org/1999/xlink">
<g id="graph0" class="graph" transform="scale(1 1) rotate(0) translate(4 38)">
<title>TradeUIController.OnPanelButtonClicked</title>
<!-- Node1 -->
<g id="Node000001" class="node">
<title>Node1</title>
<g id="a_Node000001"><a xlink:title="각 패널을 여는 버튼들의 기능.">
<polygon fill="#999999" stroke="#666666" points="684,-34 480,-34 480,0 684,0 684,-34"/>
<text text-anchor="start" x="488" y="-20.4" font-family="Consolas" font-size="12.00">TradeUIController.OnPanel</text>
<text text-anchor="middle" x="582" y="-7.4" font-family="Consolas" font-size="12.00">ButtonClicked</text>
</a>
</g>
</g>
<!-- Node2 -->
<g id="Node000002" class="node">
<title>Node2</title>
<g id="a_Node000002"><a xlink:href="classTradeUIController.html#a0ad09e20ec7537479e49d4099b65506a" target="_top" xlink:title="각 패널을 여는 버튼들에 Listners 추가.">
<polygon fill="white" stroke="#666666" points="444,-34 225,-34 225,0 444,0 444,-34"/>
<text text-anchor="start" x="233" y="-20.4" font-family="Consolas" font-size="12.00">TradeUIController.AddButton</text>
<text text-anchor="middle" x="334.5" y="-7.4" font-family="Consolas" font-size="12.00">Listeners</text>
</a>
</g>
</g>
<!-- Node1&#45;&gt;Node2 -->
<g id="edge1_Node000001_Node000002" class="edge">
<title>Node1&#45;&gt;Node2</title>
<g id="a_edge1_Node000001_Node000002"><a xlink:title=" ">
<path fill="none" stroke="#63b8ff" d="M469.48,-17C461.04,-17 452.52,-17 444.1,-17"/>
<polygon fill="#63b8ff" stroke="#63b8ff" points="469.73,-20.5 479.73,-17 469.73,-13.5 469.73,-20.5"/>
</a>
</g>
</g>
<!-- Node3 -->
<g id="Node000003" class="node">
<title>Node3</title>
<g id="a_Node000003"><a xlink:href="classTradeUIController.html#a83d3fa6bc6d31230c7a925bce8d62b91" target="_top" xlink:title="거래용 임시 배 및 창고를 초기화하고 각종 UI들의 위치 관계와 버튼의 Listener를 추가함.">
<polygon fill="white" stroke="#666666" points="189,-27.5 0,-27.5 0,-6.5 189,-6.5 189,-27.5"/>
<text text-anchor="middle" x="94.5" y="-13.9" font-family="Consolas" font-size="12.00">TradeUIController.Start</text>
</a>
</g>
</g>
<!-- Node2&#45;&gt;Node3 -->
<g id="edge2_Node000002_Node000003" class="edge">
<title>Node2&#45;&gt;Node3</title>
<g id="a_edge2_Node000002_Node000003"><a xlink:title=" ">
<path fill="none" stroke="#63b8ff" d="M214.89,-17C206.31,-17 197.73,-17 189.33,-17"/>
<polygon fill="#63b8ff" stroke="#63b8ff" points="214.95,-20.5 224.95,-17 214.95,-13.5 214.95,-20.5"/>
</a>
</g>
</g>
</g>
</svg>
