<?xml version="1.0" encoding="UTF-8" standalone="no"?>
<!DOCTYPE svg PUBLIC "-//W3C//DTD SVG 1.1//EN"
 "http://www.w3.org/Graphics/SVG/1.1/DTD/svg11.dtd">
<!-- Generated by graphviz version 2.43.0 (0)
 -->
<!-- Title: BlueprintWeapon Pages: 1 -->
<svg width="366pt" height="1188pt"
 viewBox="0.00 0.00 365.50 1188.00" xmlns="http://www.w3.org/2000/svg" xmlns:xlink="http://www.w3.org/1999/xlink">
<g id="graph0" class="graph" transform="scale(1 1) rotate(0) translate(4 1184)">
<title>BlueprintWeapon</title>
<!-- Node1 -->
<g id="Node000001" class="node">
<title>Node1</title>
<g id="a_Node000001"><a xlink:title="설계도에 배치된 무기 정보.">
<polygon fill="#999999" stroke="transparent" points="271,-875 25,-875 25,0 271,0 271,-875"/>
<text text-anchor="start" x="91.5" y="-860.9" font-family="Consolas" font-size="12.00">BlueprintWeapon</text>
<text text-anchor="start" x="29" y="-843.9" font-family="Consolas" font-size="12.00">+</text>
<text text-anchor="start" x="41" y="-843.9" font-family="Consolas" font-size="12.00">ShipWeaponData bpWeaponData</text>
<text text-anchor="start" x="29" y="-826.9" font-family="Consolas" font-size="12.00">+</text>
<text text-anchor="start" x="41" y="-826.9" font-family="Consolas" font-size="12.00">ShipWeaponAttachedDirection</text>
<text text-anchor="start" x="41" y="-813.9" font-family="Consolas" font-size="12.00"> bpAttachedDirection</text>
<text text-anchor="start" x="29" y="-796.9" font-family="Consolas" font-size="12.00">+</text>
<text text-anchor="start" x="41" y="-796.9" font-family="Consolas" font-size="12.00">Vector2Int bpPosition</text>
<text text-anchor="start" x="29" y="-779.9" font-family="Consolas" font-size="12.00">+</text>
<text text-anchor="start" x="41" y="-779.9" font-family="Consolas" font-size="12.00">int bpWeaponCost</text>
<text text-anchor="start" x="29" y="-762.9" font-family="Consolas" font-size="12.00">+</text>
<text text-anchor="start" x="41" y="-762.9" font-family="Consolas" font-size="12.00">Vector2Int bpWeaponSize</text>
<text text-anchor="start" x="29" y="-745.9" font-family="Consolas" font-size="12.00">+</text>
<text text-anchor="start" x="41" y="-745.9" font-family="Consolas" font-size="12.00">Constants.Rotations.Rotation</text>
<text text-anchor="start" x="41" y="-732.9" font-family="Consolas" font-size="12.00"> bpRotation</text>
<text text-anchor="start" x="29" y="-715.9" font-family="Consolas" font-size="12.00">+</text>
<text text-anchor="start" x="41" y="-715.9" font-family="Consolas" font-size="12.00">List&lt; Vector2Int &gt;</text>
<text text-anchor="start" x="41" y="-702.9" font-family="Consolas" font-size="12.00"> occupiedTiles</text>
<text text-anchor="start" x="29" y="-685.9" font-family="Consolas" font-size="12.00">&#45;</text>
<text text-anchor="start" x="41" y="-685.9" font-family="Consolas" font-size="12.00">BlueprintShip blueprintShip</text>
<text text-anchor="start" x="29" y="-668.9" font-family="Consolas" font-size="12.00">&#45;</text>
<text text-anchor="start" x="41" y="-668.9" font-family="Consolas" font-size="12.00">bool isDragging</text>
<text text-anchor="start" x="29" y="-651.9" font-family="Consolas" font-size="12.00">&#45;</text>
<text text-anchor="start" x="41" y="-651.9" font-family="Consolas" font-size="12.00">SpriteRenderer sr</text>
<text text-anchor="start" x="29" y="-634.9" font-family="Consolas" font-size="12.00">&#45;</text>
<text text-anchor="start" x="41" y="-634.9" font-family="Consolas" font-size="12.00">Color validColor</text>
<text text-anchor="start" x="29" y="-617.9" font-family="Consolas" font-size="12.00">&#45;</text>
<text text-anchor="start" x="41" y="-617.9" font-family="Consolas" font-size="12.00">Color invalidColor</text>
<text text-anchor="start" x="29" y="-600.9" font-family="Consolas" font-size="12.00">&#45;</text>
<text text-anchor="start" x="41" y="-600.9" font-family="Consolas" font-size="12.00">Vector2Int originalPos</text>
<text text-anchor="start" x="29" y="-583.9" font-family="Consolas" font-size="12.00">&#45;</text>
<text text-anchor="start" x="41" y="-583.9" font-family="Consolas" font-size="12.00">ShipWeaponAttachedDirection</text>
<text text-anchor="start" x="41" y="-570.9" font-family="Consolas" font-size="12.00"> originalDirection</text>
<text text-anchor="start" x="29" y="-553.9" font-family="Consolas" font-size="12.00">&#45;</text>
<text text-anchor="start" x="41" y="-553.9" font-family="Consolas" font-size="12.00">GridPlacer gridPlacer</text>
<text text-anchor="start" x="29" y="-536.9" font-family="Consolas" font-size="12.00">&#45;</text>
<text text-anchor="start" x="41" y="-536.9" font-family="Consolas" font-size="12.00">GameObject mouseDownTarget</text>
<text text-anchor="start" x="29" y="-519.9" font-family="Consolas" font-size="12.00">&#45;</text>
<text text-anchor="start" x="41" y="-519.9" font-family="Consolas" font-size="12.00">int hullLevel</text>
<text text-anchor="start" x="29" y="-502.9" font-family="Consolas" font-size="12.00">+</text>
<text text-anchor="start" x="41" y="-502.9" font-family="Consolas" font-size="12.00">void Initialize(ShipWeapon</text>
<text text-anchor="start" x="41" y="-489.9" font-family="Consolas" font-size="12.00">Data data, Vector2Int pos,</text>
<text text-anchor="start" x="41" y="-476.9" font-family="Consolas" font-size="12.00"> ShipWeaponAttachedDirection</text>
<text text-anchor="start" x="41" y="-463.9" font-family="Consolas" font-size="12.00"> direction)</text>
<text text-anchor="start" x="29" y="-446.9" font-family="Consolas" font-size="12.00">+</text>
<text text-anchor="start" x="41" y="-446.9" font-family="Consolas" font-size="12.00">void SetDragMode(bool</text>
<text text-anchor="start" x="41" y="-433.9" font-family="Consolas" font-size="12.00"> isDragging)</text>
<text text-anchor="start" x="29" y="-416.9" font-family="Consolas" font-size="12.00">+</text>
<text text-anchor="start" x="41" y="-416.9" font-family="Consolas" font-size="12.00">void RotateAttachedDirection()</text>
<text text-anchor="start" x="29" y="-399.9" font-family="Consolas" font-size="12.00">+</text>
<text text-anchor="start" x="41" y="-399.9" font-family="Consolas" font-size="12.00">object GetRotation()</text>
<text text-anchor="start" x="29" y="-382.9" font-family="Consolas" font-size="12.00">+</text>
<text text-anchor="start" x="41" y="-382.9" font-family="Consolas" font-size="12.00">Vector2Int GetGridPosition()</text>
<text text-anchor="start" x="29" y="-365.9" font-family="Consolas" font-size="12.00">+</text>
<text text-anchor="start" x="41" y="-365.9" font-family="Consolas" font-size="12.00">void SetGridPosition</text>
<text text-anchor="start" x="41" y="-352.9" font-family="Consolas" font-size="12.00">(Vector2Int position)</text>
<text text-anchor="start" x="29" y="-335.9" font-family="Consolas" font-size="12.00">+</text>
<text text-anchor="start" x="41" y="-335.9" font-family="Consolas" font-size="12.00">void SetBlueprint(Blueprint</text>
<text text-anchor="start" x="41" y="-322.9" font-family="Consolas" font-size="12.00">Ship bpShip)</text>
<text text-anchor="start" x="29" y="-305.9" font-family="Consolas" font-size="12.00">+</text>
<text text-anchor="start" x="41" y="-305.9" font-family="Consolas" font-size="12.00">BlueprintShip GetBlueprint</text>
<text text-anchor="start" x="41" y="-292.9" font-family="Consolas" font-size="12.00">Ship()</text>
<text text-anchor="start" x="29" y="-275.9" font-family="Consolas" font-size="12.00">+</text>
<text text-anchor="start" x="41" y="-275.9" font-family="Consolas" font-size="12.00">void SetGridPlacer</text>
<text text-anchor="start" x="41" y="-262.9" font-family="Consolas" font-size="12.00">(GridPlacer placer)</text>
<text text-anchor="start" x="29" y="-245.9" font-family="Consolas" font-size="12.00">+</text>
<text text-anchor="start" x="41" y="-245.9" font-family="Consolas" font-size="12.00">void ApplyAttachedDirection</text>
<text text-anchor="start" x="41" y="-232.9" font-family="Consolas" font-size="12.00">Sprite()</text>
<text text-anchor="start" x="29" y="-215.9" font-family="Consolas" font-size="12.00">+</text>
<text text-anchor="start" x="41" y="-215.9" font-family="Consolas" font-size="12.00">int GetCost()</text>
<text text-anchor="start" x="29" y="-198.9" font-family="Consolas" font-size="12.00">+</text>
<text text-anchor="start" x="41" y="-198.9" font-family="Consolas" font-size="12.00">void SetHullLevel(int</text>
<text text-anchor="start" x="41" y="-185.9" font-family="Consolas" font-size="12.00"> level)</text>
<text text-anchor="start" x="29" y="-168.9" font-family="Consolas" font-size="12.00">+</text>
<text text-anchor="start" x="41" y="-168.9" font-family="Consolas" font-size="12.00">int GetHullLevel()</text>
<text text-anchor="start" x="29" y="-151.9" font-family="Consolas" font-size="12.00">+</text>
<text text-anchor="start" x="41" y="-151.9" font-family="Consolas" font-size="12.00">List&lt; Vector2Int &gt;</text>
<text text-anchor="start" x="41" y="-138.9" font-family="Consolas" font-size="12.00"> GetOccupiedTiles()</text>
<text text-anchor="start" x="29" y="-121.9" font-family="Consolas" font-size="12.00">+</text>
<text text-anchor="start" x="41" y="-121.9" font-family="Consolas" font-size="12.00">void UpdateOccupiedTiles()</text>
<text text-anchor="start" x="29" y="-104.9" font-family="Consolas" font-size="12.00">&#45;</text>
<text text-anchor="start" x="41" y="-104.9" font-family="Consolas" font-size="12.00">void Start()</text>
<text text-anchor="start" x="29" y="-87.9" font-family="Consolas" font-size="12.00">&#45;</text>
<text text-anchor="start" x="41" y="-87.9" font-family="Consolas" font-size="12.00">void Update()</text>
<text text-anchor="start" x="29" y="-70.9" font-family="Consolas" font-size="12.00">&#45;</text>
<text text-anchor="start" x="41" y="-70.9" font-family="Consolas" font-size="12.00">void LateUpdate()</text>
<text text-anchor="start" x="29" y="-53.9" font-family="Consolas" font-size="12.00">&#45;</text>
<text text-anchor="start" x="41" y="-53.9" font-family="Consolas" font-size="12.00">bool BlockBPMovement()</text>
<text text-anchor="start" x="29" y="-36.9" font-family="Consolas" font-size="12.00">&#45;</text>
<text text-anchor="start" x="41" y="-36.9" font-family="Consolas" font-size="12.00">bool IsPointerOverBlockingUI()</text>
<text text-anchor="start" x="29" y="-19.9" font-family="Consolas" font-size="12.00">&#45;</text>
<text text-anchor="start" x="41" y="-19.9" font-family="Consolas" font-size="12.00">bool IsPointerOverUIObject</text>
<text text-anchor="start" x="41" y="-6.9" font-family="Consolas" font-size="12.00">(GameObject rootUI)</text>
<polygon fill="#666666" stroke="#666666" points="25,-855.5 25,-855.5 271,-855.5 271,-855.5 25,-855.5"/>
<polygon fill="#666666" stroke="#666666" points="25,-514.5 25,-514.5 39,-514.5 39,-514.5 25,-514.5"/>
<polygon fill="#666666" stroke="#666666" points="39,-514.5 39,-514.5 271,-514.5 271,-514.5 39,-514.5"/>
<polygon fill="none" stroke="#666666" points="25,0 25,-875 271,-875 271,0 25,0"/>
</a>
</g>
</g>
<!-- Node2 -->
<g id="Node000002" class="node">
<title>Node2</title>
<g id="a_Node000002"><a xlink:title=" ">
<polygon fill="white" stroke="transparent" points="108,-1073 0,-1073 0,-1018 108,-1018 108,-1073"/>
<text text-anchor="start" x="5" y="-1058.9" font-family="Consolas" font-size="12.00">MonoBehaviour</text>
<text text-anchor="start" x="50" y="-1041.9" font-family="Consolas" font-size="12.00"> </text>
<text text-anchor="start" x="50" y="-1024.9" font-family="Consolas" font-size="12.00"> </text>
<polygon fill="#bfbfbf" stroke="#bfbfbf" points="0,-1053.5 0,-1053.5 108,-1053.5 108,-1053.5 0,-1053.5"/>
<polygon fill="#bfbfbf" stroke="#bfbfbf" points="0,-1036.5 0,-1036.5 108,-1036.5 108,-1036.5 0,-1036.5"/>
<polygon fill="none" stroke="#bfbfbf" points="0,-1018 0,-1073 108,-1073 108,-1018 0,-1018"/>
</a>
</g>
</g>
<!-- Node2&#45;&gt;Node1 -->
<g id="edge1_Node000001_Node000002" class="edge">
<title>Node2&#45;&gt;Node1</title>
<g id="a_edge1_Node000001_Node000002"><a xlink:title=" ">
<path fill="none" stroke="#63b8ff" d="M59.73,-1007.55C64.48,-976.92 71.81,-929.69 80.25,-875.25"/>
<polygon fill="none" stroke="#63b8ff" points="56.23,-1007.26 58.16,-1017.68 63.15,-1008.33 56.23,-1007.26"/>
</a>
</g>
</g>
<!-- Node3 -->
<g id="Node000003" class="node">
<title>Node3</title>
<g id="a_Node000003"><a xlink:href="interfaceIBlueprintPlaceable.html" target="_top" xlink:title="함선 설계도에 배치 가능한 모든 오브젝트가 구현해야 하는 인터페이스. 방, 무기 등 모든 배치 가능 오브젝트의 공통 기능을 정의합니다.">
<polygon fill="white" stroke="transparent" points="357.5,-1180 126.5,-1180 126.5,-911 357.5,-911 357.5,-1180"/>
<text text-anchor="start" x="171" y="-1165.9" font-family="Consolas" font-size="12.00">IBlueprintPlaceable</text>
<text text-anchor="start" x="238.5" y="-1148.9" font-family="Consolas" font-size="12.00"> </text>
<text text-anchor="start" x="131" y="-1131.9" font-family="Consolas" font-size="12.00">+</text>
<text text-anchor="start" x="143" y="-1131.9" font-family="Consolas" font-size="12.00">object GetRotation()</text>
<text text-anchor="start" x="131" y="-1114.9" font-family="Consolas" font-size="12.00">+</text>
<text text-anchor="start" x="143" y="-1114.9" font-family="Consolas" font-size="12.00">Vector2Int GetGridPosition()</text>
<text text-anchor="start" x="131" y="-1097.9" font-family="Consolas" font-size="12.00">+</text>
<text text-anchor="start" x="143" y="-1097.9" font-family="Consolas" font-size="12.00">void SetGridPosition</text>
<text text-anchor="start" x="143" y="-1084.9" font-family="Consolas" font-size="12.00">(Vector2Int position)</text>
<text text-anchor="start" x="131" y="-1067.9" font-family="Consolas" font-size="12.00">+</text>
<text text-anchor="start" x="143" y="-1067.9" font-family="Consolas" font-size="12.00">List&lt; Vector2Int &gt;</text>
<text text-anchor="start" x="143" y="-1054.9" font-family="Consolas" font-size="12.00"> GetOccupiedTiles()</text>
<text text-anchor="start" x="131" y="-1037.9" font-family="Consolas" font-size="12.00">+</text>
<text text-anchor="start" x="143" y="-1037.9" font-family="Consolas" font-size="12.00">void SetGridPlacer</text>
<text text-anchor="start" x="143" y="-1024.9" font-family="Consolas" font-size="12.00">(GridPlacer placer)</text>
<text text-anchor="start" x="131" y="-1007.9" font-family="Consolas" font-size="12.00">+</text>
<text text-anchor="start" x="143" y="-1007.9" font-family="Consolas" font-size="12.00">void SetBlueprint(Blueprint</text>
<text text-anchor="start" x="143" y="-994.9" font-family="Consolas" font-size="12.00">Ship bpShip)</text>
<text text-anchor="start" x="131" y="-977.9" font-family="Consolas" font-size="12.00">+</text>
<text text-anchor="start" x="143" y="-977.9" font-family="Consolas" font-size="12.00">BlueprintShip GetBlueprint</text>
<text text-anchor="start" x="143" y="-964.9" font-family="Consolas" font-size="12.00">Ship()</text>
<text text-anchor="start" x="131" y="-947.9" font-family="Consolas" font-size="12.00">+</text>
<text text-anchor="start" x="143" y="-947.9" font-family="Consolas" font-size="12.00">int GetCost()</text>
<text text-anchor="start" x="131" y="-930.9" font-family="Consolas" font-size="12.00">+</text>
<text text-anchor="start" x="143" y="-930.9" font-family="Consolas" font-size="12.00">void SetDragMode(bool</text>
<text text-anchor="start" x="143" y="-917.9" font-family="Consolas" font-size="12.00"> isDragging)</text>
<polygon fill="#666666" stroke="#666666" points="127,-1160.5 127,-1160.5 358,-1160.5 358,-1160.5 127,-1160.5"/>
<polygon fill="#666666" stroke="#666666" points="127,-1143.5 127,-1143.5 358,-1143.5 358,-1143.5 127,-1143.5"/>
<polygon fill="none" stroke="#666666" points="126.5,-911 126.5,-1180 357.5,-1180 357.5,-911 126.5,-911"/>
</a>
</g>
</g>
<!-- Node3&#45;&gt;Node1 -->
<g id="edge2_Node000001_Node000003" class="edge">
<title>Node3&#45;&gt;Node1</title>
<g id="a_edge2_Node000001_Node000003"><a xlink:title=" ">
<path fill="none" stroke="#63b8ff" d="M219.7,-900.75C218.41,-892.44 217.09,-883.92 215.74,-875.21"/>
<polygon fill="none" stroke="#63b8ff" points="216.26,-901.42 221.25,-910.76 223.18,-900.34 216.26,-901.42"/>
</a>
</g>
</g>
</g>
</svg>
