<?xml version="1.0" encoding="UTF-8" standalone="no"?>
<!DOCTYPE svg PUBLIC "-//W3C//DTD SVG 1.1//EN"
 "http://www.w3.org/Graphics/SVG/1.1/DTD/svg11.dtd">
<!-- Generated by graphviz version 2.43.0 (0)
 -->
<!-- Title: CustomPointer Pages: 1 -->
<svg width="355pt" height="432pt"
 viewBox="0.00 0.00 355.00 432.00" xmlns="http://www.w3.org/2000/svg" xmlns:xlink="http://www.w3.org/1999/xlink">
<g id="graph0" class="graph" transform="scale(1 1) rotate(0) translate(4 428)">
<title>CustomPointer</title>
<!-- Node1 -->
<g id="Node000001" class="node">
<title>Node1</title>
<g id="a_Node000001"><a xlink:title=" ">
<polygon fill="#999999" stroke="transparent" points="246,-332 0,-332 0,0 246,0 246,-332"/>
<text text-anchor="start" x="74" y="-318.4" font-family="Consolas" font-size="12.00">CustomPointer</text>
<text text-anchor="start" x="4" y="-301.4" font-family="Consolas" font-size="12.00">+</text>
<text text-anchor="start" x="16" y="-301.4" font-family="Consolas" font-size="12.00">Texture pointerTexture</text>
<text text-anchor="start" x="4" y="-284.4" font-family="Consolas" font-size="12.00">+</text>
<text text-anchor="start" x="16" y="-284.4" font-family="Consolas" font-size="12.00">bool use_mouse_input</text>
<text text-anchor="start" x="4" y="-267.4" font-family="Consolas" font-size="12.00">+</text>
<text text-anchor="start" x="16" y="-267.4" font-family="Consolas" font-size="12.00">bool use_gamepad_input</text>
<text text-anchor="start" x="4" y="-250.4" font-family="Consolas" font-size="12.00">+</text>
<text text-anchor="start" x="16" y="-250.4" font-family="Consolas" font-size="12.00">bool pointer_returns</text>
<text text-anchor="start" x="16" y="-237.4" font-family="Consolas" font-size="12.00">_to_center</text>
<text text-anchor="start" x="4" y="-220.4" font-family="Consolas" font-size="12.00">+</text>
<text text-anchor="start" x="16" y="-220.4" font-family="Consolas" font-size="12.00">bool instant_snapping</text>
<text text-anchor="start" x="4" y="-203.4" font-family="Consolas" font-size="12.00">+</text>
<text text-anchor="start" x="16" y="-203.4" font-family="Consolas" font-size="12.00">float center_speed</text>
<text text-anchor="start" x="4" y="-186.4" font-family="Consolas" font-size="12.00">+</text>
<text text-anchor="start" x="16" y="-186.4" font-family="Consolas" font-size="12.00">bool invert_y_axis</text>
<text text-anchor="start" x="4" y="-169.4" font-family="Consolas" font-size="12.00">+</text>
<text text-anchor="start" x="16" y="-169.4" font-family="Consolas" font-size="12.00">float deadzone_radius</text>
<text text-anchor="start" x="4" y="-152.4" font-family="Consolas" font-size="12.00">+</text>
<text text-anchor="start" x="16" y="-152.4" font-family="Consolas" font-size="12.00">float thumbstick_speed</text>
<text text-anchor="start" x="16" y="-139.4" font-family="Consolas" font-size="12.00">_modifier</text>
<text text-anchor="start" x="4" y="-122.4" font-family="Consolas" font-size="12.00">+</text>
<text text-anchor="start" x="16" y="-122.4" font-family="Consolas" font-size="12.00">float mouse_sensitivity</text>
<text text-anchor="start" x="16" y="-109.4" font-family="Consolas" font-size="12.00">_modifier</text>
<text text-anchor="start" x="4" y="-92.4" font-family="Consolas" font-size="12.00">+</text>
<text text-anchor="start" x="16" y="-92.4" font-family="Consolas" font-size="12.00">Rect deadzone_rect</text>
<text text-anchor="start" x="4" y="-75.4" font-family="Consolas" font-size="12.00">+</text>
<text text-anchor="start" x="16" y="-75.4" font-family="Consolas" font-size="12.00">static Vector2 pointerPosition</text>
<text text-anchor="start" x="4" y="-58.4" font-family="Consolas" font-size="12.00">&#45;</text>
<text text-anchor="start" x="16" y="-58.4" font-family="Consolas" font-size="12.00">void Awake()</text>
<text text-anchor="start" x="4" y="-41.4" font-family="Consolas" font-size="12.00">&#45;</text>
<text text-anchor="start" x="16" y="-41.4" font-family="Consolas" font-size="12.00">void Start()</text>
<text text-anchor="start" x="4" y="-24.4" font-family="Consolas" font-size="12.00">&#45;</text>
<text text-anchor="start" x="16" y="-24.4" font-family="Consolas" font-size="12.00">void Update()</text>
<text text-anchor="start" x="4" y="-7.4" font-family="Consolas" font-size="12.00">&#45;</text>
<text text-anchor="start" x="16" y="-7.4" font-family="Consolas" font-size="12.00">void OnGUI()</text>
<polygon fill="#666666" stroke="#666666" points="0,-313 0,-313 246,-313 246,-313 0,-313"/>
<polygon fill="#666666" stroke="#666666" points="0,-70 0,-70 14,-70 14,-70 0,-70"/>
<polygon fill="#666666" stroke="#666666" points="14,-70 14,-70 246,-70 246,-70 14,-70"/>
<polygon fill="none" stroke="#666666" points="0,0 0,-332 246,-332 246,0 0,0"/>
</a>
</g>
</g>
<!-- Node1&#45;&gt;Node1 -->
<g id="edge2_Node000001_Node000001" class="edge">
<title>Node1&#45;&gt;Node1</title>
<g id="a_edge2_Node000001_Node000001"><a xlink:title=" ">
<path fill="none" stroke="#63b8ff" d="M246.27,-193.17C257.17,-187.46 264,-178.4 264,-166 264,-158.06 261.2,-151.49 256.32,-146.29"/>
<polygon fill="none" stroke="#63b8ff" points="255.91,-145.98 248.71,-145.62 246.27,-138.83 253.48,-139.19 255.91,-145.98"/>
</a>
</g>
<text text-anchor="middle" x="305.5" y="-162.3" font-family="Consolas" font-size="14.00" fill="grey"> +instance</text>
</g>
<!-- Node2 -->
<g id="Node000002" class="node">
<title>Node2</title>
<g id="a_Node000002"><a xlink:title=" ">
<polygon fill="white" stroke="transparent" points="177,-424 69,-424 69,-369 177,-369 177,-424"/>
<text text-anchor="start" x="74" y="-409.9" font-family="Consolas" font-size="12.00">MonoBehaviour</text>
<text text-anchor="start" x="119" y="-392.9" font-family="Consolas" font-size="12.00"> </text>
<text text-anchor="start" x="119" y="-375.9" font-family="Consolas" font-size="12.00"> </text>
<polygon fill="#bfbfbf" stroke="#bfbfbf" points="69,-404.5 69,-404.5 177,-404.5 177,-404.5 69,-404.5"/>
<polygon fill="#bfbfbf" stroke="#bfbfbf" points="69,-387.5 69,-387.5 177,-387.5 177,-387.5 69,-387.5"/>
<polygon fill="none" stroke="#bfbfbf" points="69,-369 69,-424 177,-424 177,-369 69,-369"/>
</a>
</g>
</g>
<!-- Node2&#45;&gt;Node1 -->
<g id="edge1_Node000001_Node000002" class="edge">
<title>Node2&#45;&gt;Node1</title>
<g id="a_edge1_Node000001_Node000002"><a xlink:title=" ">
<path fill="none" stroke="#63b8ff" d="M123,-358.58C123,-350.61 123,-341.68 123,-332.17"/>
<polygon fill="none" stroke="#63b8ff" points="119.5,-358.84 123,-368.84 126.5,-358.84 119.5,-358.84"/>
</a>
</g>
</g>
</g>
</svg>
