<?xml version="1.0" encoding="UTF-8" standalone="no"?>
<!DOCTYPE svg PUBLIC "-//W3C//DTD SVG 1.1//EN"
 "http://www.w3.org/Graphics/SVG/1.1/DTD/svg11.dtd">
<!-- Generated by graphviz version 2.43.0 (0)
 -->
<!-- Title: CrewCardUI Pages: 1 -->
<svg width="201pt" height="167pt"
 viewBox="0.00 0.00 201.00 167.00" xmlns="http://www.w3.org/2000/svg" xmlns:xlink="http://www.w3.org/1999/xlink">
<g id="graph0" class="graph" transform="scale(1 1) rotate(0) translate(4 163)">
<title>CrewCardUI</title>
<!-- Node1 -->
<g id="Node000001" class="node">
<title>Node1</title>
<g id="a_Node000001"><a xlink:title=" ">
<polygon fill="#999999" stroke="transparent" points="193,-68 0,-68 0,0 193,0 193,-68"/>
<text text-anchor="start" x="59" y="-54.4" font-family="Consolas" font-size="12.00">CrewCardUI</text>
<text text-anchor="start" x="4.5" y="-37.4" font-family="Consolas" font-size="12.00">+</text>
<text text-anchor="start" x="16.5" y="-37.4" font-family="Consolas" font-size="12.00">TMP_Text crewNameText</text>
<text text-anchor="start" x="4.5" y="-20.4" font-family="Consolas" font-size="12.00">+</text>
<text text-anchor="start" x="16.5" y="-20.4" font-family="Consolas" font-size="12.00">void SetCrewName(string</text>
<text text-anchor="start" x="16.5" y="-7.4" font-family="Consolas" font-size="12.00"> name)</text>
<polygon fill="#666666" stroke="#666666" points="0.5,-49 0.5,-49 193.5,-49 193.5,-49 0.5,-49"/>
<polygon fill="#666666" stroke="#666666" points="0.5,-32 0.5,-32 14.5,-32 14.5,-32 0.5,-32"/>
<polygon fill="#666666" stroke="#666666" points="14.5,-32 14.5,-32 193.5,-32 193.5,-32 14.5,-32"/>
<polygon fill="none" stroke="#666666" points="0,0 0,-68 193,-68 193,0 0,0"/>
</a>
</g>
</g>
<!-- Node2 -->
<g id="Node000002" class="node">
<title>Node2</title>
<g id="a_Node000002"><a xlink:title=" ">
<polygon fill="white" stroke="transparent" points="150.5,-159 42.5,-159 42.5,-104 150.5,-104 150.5,-159"/>
<text text-anchor="start" x="47.5" y="-144.9" font-family="Consolas" font-size="12.00">MonoBehaviour</text>
<text text-anchor="start" x="92.5" y="-127.9" font-family="Consolas" font-size="12.00"> </text>
<text text-anchor="start" x="92.5" y="-110.9" font-family="Consolas" font-size="12.00"> </text>
<polygon fill="#bfbfbf" stroke="#bfbfbf" points="42.5,-139.5 42.5,-139.5 150.5,-139.5 150.5,-139.5 42.5,-139.5"/>
<polygon fill="#bfbfbf" stroke="#bfbfbf" points="42.5,-122.5 42.5,-122.5 150.5,-122.5 150.5,-122.5 42.5,-122.5"/>
<polygon fill="none" stroke="#bfbfbf" points="42.5,-104 42.5,-159 150.5,-159 150.5,-104 42.5,-104"/>
</a>
</g>
</g>
<!-- Node2&#45;&gt;Node1 -->
<g id="edge1_Node000001_Node000002" class="edge">
<title>Node2&#45;&gt;Node1</title>
<g id="a_edge1_Node000001_Node000002"><a xlink:title=" ">
<path fill="none" stroke="#63b8ff" d="M96.5,-93.65C96.5,-85.3 96.5,-76.47 96.5,-68.28"/>
<polygon fill="none" stroke="#63b8ff" points="93,-93.9 96.5,-103.9 100,-93.9 93,-93.9"/>
</a>
</g>
</g>
</g>
</svg>
