<?xml version="1.0" encoding="UTF-8" standalone="no"?>
<!DOCTYPE svg PUBLIC "-//W3C//DTD SVG 1.1//EN"
 "http://www.w3.org/Graphics/SVG/1.1/DTD/svg11.dtd">
<!-- Generated by graphviz version 2.43.0 (0)
 -->
<!-- Title: OxygenRoom.GetStatContributions Pages: 1 -->
<svg width="512pt" height="94pt"
 viewBox="0.00 0.00 512.00 94.00" xmlns="http://www.w3.org/2000/svg" xmlns:xlink="http://www.w3.org/1999/xlink">
<g id="graph0" class="graph" transform="scale(1 1) rotate(0) translate(4 90)">
<title>OxygenRoom.GetStatContributions</title>
<!-- Node1 -->
<g id="Node000001" class="node">
<title>Node1</title>
<g id="a_Node000001"><a xlink:title="이 방이 함선 스탯에 기여하는 값을 계산합니다. 작동 여부 및 손상 상태에 따라 산소 생성량과 전력 소비량이 조정됩니다.">
<polygon fill="#999999" stroke="#666666" points="249,-60 0,-60 0,-39 249,-39 249,-60"/>
<text text-anchor="middle" x="124.5" y="-46.4" font-family="Consolas" font-size="12.00">OxygenRoom.GetStatContributions</text>
</a>
</g>
</g>
<!-- Node2 -->
<g id="Node000002" class="node">
<title>Node2</title>
<g id="a_Node000002"><a xlink:href="classRoomData.html#ac5eea85482100577e37c421191d087aa" target="_top" xlink:title="제네릭 타입으로 명확하게 캐스팅된 RoomLevel 데이터를 반환합니다.">
<polygon fill="white" stroke="#666666" points="496.5,-86 292.5,-86 292.5,-65 496.5,-65 496.5,-86"/>
<text text-anchor="middle" x="394.5" y="-72.4" font-family="Consolas" font-size="12.00">RoomData.GetTypedRoomData</text>
</a>
</g>
</g>
<!-- Node1&#45;&gt;Node2 -->
<g id="edge1_Node000001_Node000002" class="edge">
<title>Node1&#45;&gt;Node2</title>
<g id="a_edge1_Node000001_Node000002"><a xlink:title=" ">
<path fill="none" stroke="#63b8ff" d="M233.73,-60C249.58,-61.54 265.93,-63.12 281.85,-64.67"/>
<polygon fill="#63b8ff" stroke="#63b8ff" points="281.94,-68.19 292.24,-65.68 282.62,-61.23 281.94,-68.19"/>
</a>
</g>
</g>
<!-- Node3 -->
<g id="Node000003" class="node">
<title>Node3</title>
<g id="a_Node000003"><a xlink:href="classRoom.html#af15fefedd48a2009da56d461a9084ed8" target="_top" xlink:title="방이 작동 가능한 상태인지 확인합니다.">
<polygon fill="white" stroke="#666666" points="504,-47 285,-47 285,0 504,0 504,-47"/>
<text text-anchor="start" x="293" y="-33.4" font-family="Consolas" font-size="12.00">Room&lt; OxygenRoomData,</text>
<text text-anchor="start" x="293" y="-20.4" font-family="Consolas" font-size="12.00"> OxygenRoomData.OxygenLevel</text>
<text text-anchor="middle" x="394.5" y="-7.4" font-family="Consolas" font-size="12.00"> &gt;::IsOperational</text>
</a>
</g>
</g>
<!-- Node1&#45;&gt;Node3 -->
<g id="edge2_Node000001_Node000003" class="edge">
<title>Node1&#45;&gt;Node3</title>
<g id="a_edge2_Node000001_Node000003"><a xlink:title=" ">
<path fill="none" stroke="#63b8ff" d="M233.73,-39C247.16,-37.7 260.95,-36.36 274.53,-35.04"/>
<polygon fill="#63b8ff" stroke="#63b8ff" points="275.25,-38.49 284.86,-34.04 274.57,-31.52 275.25,-38.49"/>
</a>
</g>
</g>
</g>
</svg>
