<?xml version="1.0" encoding="UTF-8" standalone="no"?>
<!DOCTYPE svg PUBLIC "-//W3C//DTD SVG 1.1//EN"
 "http://www.w3.org/Graphics/SVG/1.1/DTD/svg11.dtd">
<!-- Generated by graphviz version 2.43.0 (0)
 -->
<!-- Title: CameraZoomController.GetCameraStartPositionToOriginShip Pages: 1 -->
<svg width="782pt" height="185pt"
 viewBox="0.00 0.00 782.00 185.00" xmlns="http://www.w3.org/2000/svg" xmlns:xlink="http://www.w3.org/1999/xlink">
<g id="graph0" class="graph" transform="scale(1 1) rotate(0) translate(4 181)">
<title>CameraZoomController.GetCameraStartPositionToOriginShip</title>
<!-- Node1 -->
<g id="Node000001" class="node">
<title>Node1</title>
<g id="a_Node000001"><a xlink:title="기존 소유 함선을 이루는 방들의 중심으로 카메라 시작 위치 보정">
<polygon fill="#999999" stroke="#666666" points="249,-105.5 0,-105.5 0,-71.5 249,-71.5 249,-105.5"/>
<text text-anchor="start" x="8" y="-91.9" font-family="Consolas" font-size="12.00">CameraZoomController.Get</text>
<text text-anchor="middle" x="124.5" y="-78.9" font-family="Consolas" font-size="12.00">CameraStartPositionToOriginShip</text>
</a>
</g>
</g>
<!-- Node2 -->
<g id="Node000002" class="node">
<title>Node2</title>
<g id="a_Node000002"><a xlink:href="classShip.html#a8ced30f0d71c2a5cf333b3de23af48f2" target="_top" xlink:title="모든 룸 정보를 반환합니다.">
<polygon fill="white" stroke="#666666" points="470.5,-177 333.5,-177 333.5,-156 470.5,-156 470.5,-177"/>
<text text-anchor="middle" x="402" y="-163.4" font-family="Consolas" font-size="12.00">Ship.GetAllRooms</text>
</a>
</g>
</g>
<!-- Node1&#45;&gt;Node2 -->
<g id="edge1_Node000001_Node000002" class="edge">
<title>Node1&#45;&gt;Node2</title>
<g id="a_edge1_Node000001_Node000002"><a xlink:title=" ">
<path fill="none" stroke="#63b8ff" d="M165.13,-105.58C196.99,-118.73 243.18,-136.45 285,-147.5 297.22,-150.73 310.32,-153.51 323.15,-155.87"/>
<polygon fill="#63b8ff" stroke="#63b8ff" points="322.91,-159.38 333.37,-157.67 324.13,-152.48 322.91,-159.38"/>
</a>
</g>
</g>
<!-- Node3 -->
<g id="Node000003" class="node">
<title>Node3</title>
<g id="a_Node000003"><a xlink:href="classShip.html#a058800cd1cdc9601aeb176ac45fd91d4" target="_top" xlink:title="현재 탑재 중인 모든 무기를 반환합니다.">
<polygon fill="white" stroke="#666666" points="478,-138 326,-138 326,-117 478,-117 478,-138"/>
<text text-anchor="middle" x="402" y="-124.4" font-family="Consolas" font-size="12.00">Ship.GetAllWeapons</text>
</a>
</g>
</g>
<!-- Node1&#45;&gt;Node3 -->
<g id="edge2_Node000001_Node000003" class="edge">
<title>Node1&#45;&gt;Node3</title>
<g id="a_edge2_Node000001_Node000003"><a xlink:title=" ">
<path fill="none" stroke="#63b8ff" d="M245.94,-105.55C269.79,-108.93 294.35,-112.4 316.7,-115.57"/>
<polygon fill="#63b8ff" stroke="#63b8ff" points="316.4,-119.06 326.79,-117 317.38,-112.13 316.4,-119.06"/>
</a>
</g>
</g>
<!-- Node4 -->
<g id="Node000004" class="node">
<title>Node4</title>
<g id="a_Node000004"><a xlink:href="classShipWeapon.html#a421526a38a8fbd32127d0063526c9c6a" target="_top" xlink:title="무기의 그리드 상 위치를 반환합니다.">
<polygon fill="white" stroke="#666666" points="508,-99 296,-99 296,-78 508,-78 508,-99"/>
<text text-anchor="middle" x="402" y="-85.4" font-family="Consolas" font-size="12.00">ShipWeapon.GetGridPosition</text>
</a>
</g>
</g>
<!-- Node1&#45;&gt;Node4 -->
<g id="edge3_Node000001_Node000004" class="edge">
<title>Node1&#45;&gt;Node4</title>
<g id="a_edge3_Node000001_Node000004"><a xlink:title=" ">
<path fill="none" stroke="#63b8ff" d="M249.15,-88.5C261.33,-88.5 273.66,-88.5 285.75,-88.5"/>
<polygon fill="#63b8ff" stroke="#63b8ff" points="285.84,-92 295.84,-88.5 285.84,-85 285.84,-92"/>
</a>
</g>
</g>
<!-- Node5 -->
<g id="Node000005" class="node">
<title>Node5</title>
<g id="a_Node000005"><a xlink:href="classRoom.html#a18ac2f2af25dbf2e6181db75eab061ae" target="_top" xlink:title="회전각을 고려하여 방의 점유 타일 반환">
<polygon fill="white" stroke="#666666" points="489,-60 315,-60 315,-39 489,-39 489,-60"/>
<text text-anchor="middle" x="402" y="-46.4" font-family="Consolas" font-size="12.00">Room.GetOccupiedTiles</text>
</a>
</g>
</g>
<!-- Node1&#45;&gt;Node5 -->
<g id="edge4_Node000001_Node000005" class="edge">
<title>Node1&#45;&gt;Node5</title>
<g id="a_edge4_Node000001_Node000005"><a xlink:title=" ">
<path fill="none" stroke="#63b8ff" d="M245.94,-71.45C269.79,-68.07 294.35,-64.6 316.7,-61.43"/>
<polygon fill="#63b8ff" stroke="#63b8ff" points="317.38,-64.87 326.79,-60 316.4,-57.94 317.38,-64.87"/>
</a>
</g>
</g>
<!-- Node8 -->
<g id="Node000008" class="node">
<title>Node8</title>
<g id="a_Node000008"><a xlink:href="classShip.html#acc377098e3c61bbd4b8fc53595d09293" target="_top" xlink:title="실제 월드 위치 반환">
<polygon fill="white" stroke="#666666" points="519,-21 285,-21 285,0 519,0 519,-21"/>
<text text-anchor="middle" x="402" y="-7.4" font-family="Consolas" font-size="12.00">Ship.GetWorldPositionFromGrid</text>
</a>
</g>
</g>
<!-- Node1&#45;&gt;Node8 -->
<g id="edge7_Node000001_Node000008" class="edge">
<title>Node1&#45;&gt;Node8</title>
<g id="a_edge7_Node000001_Node000008"><a xlink:title=" ">
<path fill="none" stroke="#63b8ff" d="M166.17,-71.43C198.02,-58.62 243.71,-41.47 285,-30.5 295.69,-27.66 307.05,-25.12 318.32,-22.89"/>
<polygon fill="#63b8ff" stroke="#63b8ff" points="319,-26.33 328.17,-21.01 317.69,-19.45 319,-26.33"/>
</a>
</g>
</g>
<!-- Node6 -->
<g id="Node000006" class="node">
<title>Node6</title>
<g id="a_Node000006"><a xlink:href="classRoom.html#ae14b08f3ba19cce81b077d6fefcb1fd5" target="_top" xlink:title="현재 업그레이드 레벨을 반환합니다.">
<polygon fill="white" stroke="#666666" points="748,-99 581,-99 581,-78 748,-78 748,-99"/>
<text text-anchor="middle" x="664.5" y="-85.4" font-family="Consolas" font-size="12.00">Room.GetCurrentLevel</text>
</a>
</g>
</g>
<!-- Node5&#45;&gt;Node6 -->
<g id="edge5_Node000005_Node000006" class="edge">
<title>Node5&#45;&gt;Node6</title>
<g id="a_edge5_Node000005_Node000006"><a xlink:title=" ">
<path fill="none" stroke="#63b8ff" d="M473.15,-60C507.03,-65.07 547.85,-71.19 582.99,-76.45"/>
<polygon fill="#63b8ff" stroke="#63b8ff" points="582.81,-79.96 593.22,-77.98 583.85,-73.04 582.81,-79.96"/>
</a>
</g>
</g>
<!-- Node7 -->
<g id="Node000007" class="node">
<title>Node7</title>
<g id="a_Node000007"><a xlink:href="classRoomData.html#a93ada549c4d197d14917913e944f46c2" target="_top" xlink:title="주어진 레벨에 해당하는 RoomLevel 데이터를 반환합니다. 각 파생 클래스에서 구현해야 합니다.">
<polygon fill="white" stroke="#666666" points="774,-60 555,-60 555,-39 774,-39 774,-60"/>
<text text-anchor="middle" x="664.5" y="-46.4" font-family="Consolas" font-size="12.00">RoomData.GetRoomDataByLevel</text>
</a>
</g>
</g>
<!-- Node5&#45;&gt;Node7 -->
<g id="edge6_Node000005_Node000007" class="edge">
<title>Node5&#45;&gt;Node7</title>
<g id="a_edge6_Node000005_Node000007"><a xlink:title=" ">
<path fill="none" stroke="#63b8ff" d="M489.02,-49.5C506.86,-49.5 525.95,-49.5 544.73,-49.5"/>
<polygon fill="#63b8ff" stroke="#63b8ff" points="544.81,-53 554.81,-49.5 544.81,-46 544.81,-53"/>
</a>
</g>
</g>
<!-- Node9 -->
<g id="Node000009" class="node">
<title>Node9</title>
<g id="a_Node000009"><a xlink:href="classShip.html#a84f03b9700fea23f4e8a48f1233de137" target="_top" xlink:title="그리드 좌표를 월드 좌표로 변환 ((0, 0) ~ (60, 60) 그리드 내 좌표라 local relative 좌표임)">
<polygon fill="white" stroke="#666666" points="763,-21 566,-21 566,0 763,0 763,-21"/>
<text text-anchor="middle" x="664.5" y="-7.4" font-family="Consolas" font-size="12.00">Ship.GridToWorldPosition</text>
</a>
</g>
</g>
<!-- Node8&#45;&gt;Node9 -->
<g id="edge8_Node000008_Node000009" class="edge">
<title>Node8&#45;&gt;Node9</title>
<g id="a_edge8_Node000008_Node000009"><a xlink:title=" ">
<path fill="none" stroke="#63b8ff" d="M519.16,-10.5C531.35,-10.5 543.7,-10.5 555.79,-10.5"/>
<polygon fill="#63b8ff" stroke="#63b8ff" points="555.87,-14 565.87,-10.5 555.87,-7 555.87,-14"/>
</a>
</g>
</g>
</g>
</svg>
