<?xml version="1.0" encoding="UTF-8" standalone="no"?>
<!DOCTYPE svg PUBLIC "-//W3C//DTD SVG 1.1//EN"
 "http://www.w3.org/Graphics/SVG/1.1/DTD/svg11.dtd">
<!-- Generated by graphviz version 2.43.0 (0)
 -->
<!-- Title: PSDestroy Pages: 1 -->
<svg width="126pt" height="171pt"
 viewBox="0.00 0.00 126.00 171.00" xmlns="http://www.w3.org/2000/svg" xmlns:xlink="http://www.w3.org/1999/xlink">

<svg id="main" version="1.1" xmlns="http://www.w3.org/2000/svg" xmlns:xlink="http://www.w3.org/1999/xlink" xml:space="preserve" onload="init(evt)">
<style type="text/css"><![CDATA[
.node, .edge {opacity: 0.7;}
.node.selected, .edge.selected {opacity: 1;}
.edge:hover path { stroke: red; }
.edge:hover polygon { stroke: red; fill: red; }
]]></style>
<script type="application/ecmascript" xlink:href="svg.min.js"/>
<svg id="graph" class="graph">
<g id="graph0" class="graph" transform="scale(1 1) rotate(0) translate(4 167)">
<title>PSDestroy</title>
<!-- Node1 -->
<g id="Node000001" class="node">
<title>Node1</title>
<g id="a_Node000001"><a xlink:title=" ">
<polygon fill="#999999" stroke="transparent" points="118,-72 0,-72 0,0 118,0 118,-72"/>
<text text-anchor="start" x="25" y="-58.4" font-family="Consolas" font-size="12.00">PSDestroy</text>
<text text-anchor="start" x="55" y="-41.4" font-family="Consolas" font-size="12.00"> </text>
<text text-anchor="start" x="4" y="-24.4" font-family="Consolas" font-size="12.00">&#45;</text>
<text text-anchor="start" x="16" y="-24.4" font-family="Consolas" font-size="12.00">void Start()</text>
<text text-anchor="start" x="4" y="-7.4" font-family="Consolas" font-size="12.00">&#45;</text>
<text text-anchor="start" x="16" y="-7.4" font-family="Consolas" font-size="12.00">void Update()</text>
<polygon fill="#666666" stroke="#666666" points="0,-53 0,-53 118,-53 118,-53 0,-53"/>
<polygon fill="#666666" stroke="#666666" points="0,-36 0,-36 118,-36 118,-36 0,-36"/>
<polygon fill="none" stroke="#666666" points="0,0 0,-72 118,-72 118,0 0,0"/>
</a>
</g>
</g>
<!-- Node2 -->
<g id="Node000002" class="node">
<title>Node2</title>
<g id="a_Node000002"><a xlink:title=" ">
<polygon fill="white" stroke="transparent" points="113,-163 5,-163 5,-108 113,-108 113,-163"/>
<text text-anchor="start" x="10" y="-148.9" font-family="Consolas" font-size="12.00">MonoBehaviour</text>
<text text-anchor="start" x="55" y="-131.9" font-family="Consolas" font-size="12.00"> </text>
<text text-anchor="start" x="55" y="-114.9" font-family="Consolas" font-size="12.00"> </text>
<polygon fill="#bfbfbf" stroke="#bfbfbf" points="5,-143.5 5,-143.5 113,-143.5 113,-143.5 5,-143.5"/>
<polygon fill="#bfbfbf" stroke="#bfbfbf" points="5,-126.5 5,-126.5 113,-126.5 113,-126.5 5,-126.5"/>
<polygon fill="none" stroke="#bfbfbf" points="5,-108 5,-163 113,-163 113,-108 5,-108"/>
</a>
</g>
</g>
<!-- Node2&#45;&gt;Node1 -->
<g id="edge1_Node000001_Node000002" class="edge">
<title>Node2&#45;&gt;Node1</title>
<g id="a_edge1_Node000001_Node000002"><a xlink:title=" ">
<path fill="none" stroke="#63b8ff" d="M59,-97.59C59,-89.21 59,-80.33 59,-72.03"/>
<polygon fill="none" stroke="#63b8ff" points="55.5,-97.86 59,-107.86 62.5,-97.86 55.5,-97.86"/>
</a>
</g>
</g>
</g>
</svg>
</svg>

<style type='text/css'>
<![CDATA[
[data-mouse-over-selected='false'] { opacity: 0.7; }
[data-mouse-over-selected='true']  { opacity: 1.0; }
]]>
</style>
<script type="application/ecmascript"><![CDATA[
document.addEventListener('DOMContentLoaded', (event) => {
  highlightEdges();
  highlightAdjacentNodes();
});
]]></script>
</svg>
