<?xml version="1.0" encoding="UTF-8" standalone="no"?>
<!DOCTYPE svg PUBLIC "-//W3C//DTD SVG 1.1//EN"
 "http://www.w3.org/Graphics/SVG/1.1/DTD/svg11.dtd">
<!-- Generated by graphviz version 2.43.0 (0)
 -->
<!-- Title: ES3Types.ES3GenericType Pages: 1 -->
<!--zoomable 740 -->

<svg id="main" version="1.1" xmlns="http://www.w3.org/2000/svg" xmlns:xlink="http://www.w3.org/1999/xlink" xml:space="preserve" onload="init(evt)">
<style type="text/css"><![CDATA[
.node, .edge {opacity: 0.7;}
.node.selected, .edge.selected {opacity: 1;}
.edge:hover path { stroke: red; }
.edge:hover polygon { stroke: red; fill: red; }
]]></style>

<defs>
  <circle id="rim" cx="0" cy="0" r="7"/>
  <circle id="rim2" cx="0" cy="0" r="3.5"/>
  <g id="zoomPlus">
    <use xlink:href="#rim" fill="#404040"><set attributeName="fill" to="#808080" begin="zoomplus.mouseover" end="zoomplus.mouseout"/></use>
    <path d="M-4,0h8M0,-4v8" fill="none" stroke="white" stroke-width="1.5" pointer-events="none"/>
  </g>
  <g id="zoomMin">
    <use xlink:href="#rim" fill="#404040"><set attributeName="fill" to="#808080" begin="zoomminus.mouseover" end="zoomminus.mouseout"/></use>
    <path d="M-4,0h8" fill="none" stroke="white" stroke-width="1.5" pointer-events="none"/>
  </g>
  <g id="arrowUp" transform="translate(30 24)">
    <use xlink:href="#rim"/>
    <path pointer-events="none" fill="none" stroke="white" stroke-width="1.5" d="M0,-3.0v7 M-2.5,-0.5L0,-3.0L2.5,-0.5"/>
  </g>
  <g id="arrowRight" transform="rotate(90) translate(36 -43)">
    <use xlink:href="#rim"/>
    <path pointer-events="none" fill="none" stroke="white" stroke-width="1.5" d="M0,-3.0v7 M-2.5,-0.5L0,-3.0L2.5,-0.5"/>
  </g>
  <g id="arrowDown" transform="rotate(180) translate(-30 -48)">
    <use xlink:href="#rim"/>
    <path pointer-events="none" fill="none" stroke="white" stroke-width="1.5" d="M0,-3.0v7 M-2.5,-0.5L0,-3.0L2.5,-0.5"/>
  </g>
  <g id="arrowLeft" transform="rotate(270) translate(-36 17)">
    <use xlink:href="#rim"/>
    <path pointer-events="none" fill="none" stroke="white" stroke-width="1.5" d="M0,-3.0v7 M-2.5,-0.5L0,-3.0L2.5,-0.5"/>
  </g>
  <g id="resetDef">
    <use xlink:href="#rim2" fill="#404040"><set attributeName="fill" to="#808080" begin="reset.mouseover" end="reset.mouseout"/></use>
  </g>
</defs>
<script type="application/ecmascript">
var viewWidth = 254;
var viewHeight = 740;
var sectionId = 'dynsection-0';
</script>
<script type="application/ecmascript" xlink:href="svg.min.js"/>
<svg id="graph" class="graph">
<g id="viewport">
<title>ES3Types.ES3GenericType</title>
<!-- Node1 -->
<g id="Node000001" class="node">
<title>Node1</title>
<g id="a_Node000001"><a xlink:title=" ">
<polygon fill="#999999" stroke="transparent" points="227,-98 19,-98 19,0 227,0 227,-98"/>
<text text-anchor="start" x="36.5" y="-84.4" font-family="Consolas" font-size="12.00">ES3Types.ES3GenericType</text>
<text text-anchor="start" x="23" y="-67.4" font-family="Consolas" font-size="12.00">+</text>
<text text-anchor="start" x="35" y="-67.4" font-family="Consolas" font-size="12.00">Type[] genericArguments</text>
<text text-anchor="start" x="23" y="-50.4" font-family="Consolas" font-size="12.00">+</text>
<text text-anchor="start" x="35" y="-50.4" font-family="Consolas" font-size="12.00">ES3Type[] genericArgument</text>
<text text-anchor="start" x="35" y="-37.4" font-family="Consolas" font-size="12.00">ES3Types</text>
<text text-anchor="start" x="23" y="-20.4" font-family="Consolas" font-size="12.00">+</text>
<text text-anchor="start" x="35" y="-20.4" font-family="Consolas" font-size="12.00">ES3GenericType(Type</text>
<text text-anchor="start" x="35" y="-7.4" font-family="Consolas" font-size="12.00"> type)</text>
<polygon fill="#666666" stroke="#666666" points="19,-79 19,-79 227,-79 227,-79 19,-79"/>
<polygon fill="#666666" stroke="#666666" points="19,-32 19,-32 33,-32 33,-32 19,-32"/>
<polygon fill="#666666" stroke="#666666" points="33,-32 33,-32 227,-32 227,-32 33,-32"/>
<polygon fill="none" stroke="#666666" points="19,0 19,-98 227,-98 227,0 19,0"/>
</a>
</g>
</g>
<!-- Node2 -->
<g id="Node000002" class="node">
<title>Node2</title>
<g id="a_Node000002"><a xlink:href="classES3Types_1_1ES3Type.html" target="_top" xlink:title=" ">
<polygon fill="white" stroke="transparent" points="246,-732 0,-732 0,-134 246,-134 246,-732"/>
<text text-anchor="start" x="96.5" y="-718.4" font-family="Consolas" font-size="12.00">ES3Type</text>
<text text-anchor="start" x="4" y="-701.4" font-family="Consolas" font-size="12.00">+</text>
<text text-anchor="start" x="16" y="-701.4" font-family="Consolas" font-size="12.00">ES3Member[] members</text>
<text text-anchor="start" x="4" y="-684.4" font-family="Consolas" font-size="12.00">+</text>
<text text-anchor="start" x="16" y="-684.4" font-family="Consolas" font-size="12.00">Type type</text>
<text text-anchor="start" x="4" y="-667.4" font-family="Consolas" font-size="12.00">+</text>
<text text-anchor="start" x="16" y="-667.4" font-family="Consolas" font-size="12.00">bool isPrimitive</text>
<text text-anchor="start" x="4" y="-650.4" font-family="Consolas" font-size="12.00">+</text>
<text text-anchor="start" x="16" y="-650.4" font-family="Consolas" font-size="12.00">bool isValueType</text>
<text text-anchor="start" x="4" y="-633.4" font-family="Consolas" font-size="12.00">+</text>
<text text-anchor="start" x="16" y="-633.4" font-family="Consolas" font-size="12.00">bool isCollection</text>
<text text-anchor="start" x="4" y="-616.4" font-family="Consolas" font-size="12.00">+</text>
<text text-anchor="start" x="16" y="-616.4" font-family="Consolas" font-size="12.00">bool isDictionary</text>
<text text-anchor="start" x="4" y="-599.4" font-family="Consolas" font-size="12.00">+</text>
<text text-anchor="start" x="16" y="-599.4" font-family="Consolas" font-size="12.00">bool isTuple</text>
<text text-anchor="start" x="4" y="-582.4" font-family="Consolas" font-size="12.00">+</text>
<text text-anchor="start" x="16" y="-582.4" font-family="Consolas" font-size="12.00">bool isEnum</text>
<text text-anchor="start" x="4" y="-565.4" font-family="Consolas" font-size="12.00">+</text>
<text text-anchor="start" x="16" y="-565.4" font-family="Consolas" font-size="12.00">bool isES3TypeUnityObject</text>
<text text-anchor="start" x="4" y="-548.4" font-family="Consolas" font-size="12.00">+</text>
<text text-anchor="start" x="16" y="-548.4" font-family="Consolas" font-size="12.00">bool isReflectedType</text>
<text text-anchor="start" x="4" y="-531.4" font-family="Consolas" font-size="12.00">+</text>
<text text-anchor="start" x="16" y="-531.4" font-family="Consolas" font-size="12.00">bool isUnsupported</text>
<text text-anchor="start" x="4" y="-514.4" font-family="Consolas" font-size="12.00">+</text>
<text text-anchor="start" x="16" y="-514.4" font-family="Consolas" font-size="12.00">int priority</text>
<text text-anchor="start" x="4" y="-497.4" font-family="Consolas" font-size="12.00">+</text>
<text text-anchor="start" x="16" y="-497.4" font-family="Consolas" font-size="12.00">const string typeFieldName</text>
<text text-anchor="start" x="4" y="-480.4" font-family="Consolas" font-size="12.00">+</text>
<text text-anchor="start" x="16" y="-480.4" font-family="Consolas" font-size="12.00">void Write(object obj,</text>
<text text-anchor="start" x="16" y="-467.4" font-family="Consolas" font-size="12.00"> ES3Writer writer)</text>
<text text-anchor="start" x="4" y="-450.4" font-family="Consolas" font-size="12.00">+</text>
<text text-anchor="start" x="16" y="-450.4" font-family="Consolas" font-size="12.00">object Read&lt; T &gt;(ES3Reader</text>
<text text-anchor="start" x="16" y="-437.4" font-family="Consolas" font-size="12.00"> reader)</text>
<text text-anchor="start" x="4" y="-420.4" font-family="Consolas" font-size="12.00">+</text>
<text text-anchor="start" x="16" y="-420.4" font-family="Consolas" font-size="12.00">virtual void ReadInto</text>
<text text-anchor="start" x="16" y="-407.4" font-family="Consolas" font-size="12.00">&lt; T &gt;(ES3Reader reader,</text>
<text text-anchor="start" x="16" y="-394.4" font-family="Consolas" font-size="12.00"> object obj)</text>
<text text-anchor="start" x="4" y="-377.4" font-family="Consolas" font-size="12.00">~</text>
<text text-anchor="start" x="16" y="-377.4" font-family="Consolas" font-size="12.00">string ReadPropertyName</text>
<text text-anchor="start" x="16" y="-364.4" font-family="Consolas" font-size="12.00">(ES3Reader reader)</text>
<text text-anchor="start" x="4" y="-347.4" font-family="Consolas" font-size="12.00">#</text>
<text text-anchor="start" x="16" y="-347.4" font-family="Consolas" font-size="12.00">ES3Type(Type type)</text>
<text text-anchor="start" x="4" y="-330.4" font-family="Consolas" font-size="12.00">#</text>
<text text-anchor="start" x="16" y="-330.4" font-family="Consolas" font-size="12.00">bool WriteUsingDerivedType</text>
<text text-anchor="start" x="16" y="-317.4" font-family="Consolas" font-size="12.00">(object obj, ES3Writer writer)</text>
<text text-anchor="start" x="4" y="-300.4" font-family="Consolas" font-size="12.00">#</text>
<text text-anchor="start" x="16" y="-300.4" font-family="Consolas" font-size="12.00">void ReadUsingDerivedType</text>
<text text-anchor="start" x="16" y="-287.4" font-family="Consolas" font-size="12.00">&lt; T &gt;(ES3Reader reader,</text>
<text text-anchor="start" x="16" y="-274.4" font-family="Consolas" font-size="12.00"> object obj)</text>
<text text-anchor="start" x="4" y="-257.4" font-family="Consolas" font-size="12.00">#</text>
<text text-anchor="start" x="16" y="-257.4" font-family="Consolas" font-size="12.00">void WriteProperties</text>
<text text-anchor="start" x="16" y="-244.4" font-family="Consolas" font-size="12.00">(object obj, ES3Writer</text>
<text text-anchor="start" x="16" y="-231.4" font-family="Consolas" font-size="12.00"> writer)</text>
<text text-anchor="start" x="4" y="-214.4" font-family="Consolas" font-size="12.00">#</text>
<text text-anchor="start" x="16" y="-214.4" font-family="Consolas" font-size="12.00">object ReadProperties</text>
<text text-anchor="start" x="16" y="-201.4" font-family="Consolas" font-size="12.00">(ES3Reader reader, object obj)</text>
<text text-anchor="start" x="4" y="-184.4" font-family="Consolas" font-size="12.00">#</text>
<text text-anchor="start" x="16" y="-184.4" font-family="Consolas" font-size="12.00">void GetMembers(bool</text>
<text text-anchor="start" x="16" y="-171.4" font-family="Consolas" font-size="12.00"> safe)</text>
<text text-anchor="start" x="4" y="-154.4" font-family="Consolas" font-size="12.00">#</text>
<text text-anchor="start" x="16" y="-154.4" font-family="Consolas" font-size="12.00">void GetMembers(bool</text>
<text text-anchor="start" x="16" y="-141.4" font-family="Consolas" font-size="12.00"> safe, string[] memberNames)</text>
<polygon fill="#bfbfbf" stroke="#bfbfbf" points="0,-713 0,-713 246,-713 246,-713 0,-713"/>
<polygon fill="#bfbfbf" stroke="#bfbfbf" points="0,-492 0,-492 14,-492 14,-492 0,-492"/>
<polygon fill="#bfbfbf" stroke="#bfbfbf" points="14,-492 14,-492 246,-492 246,-492 14,-492"/>
<polygon fill="none" stroke="#bfbfbf" points="0,-134 0,-732 246,-732 246,-134 0,-134"/>
</a>
</g>
</g>
<!-- Node2&#45;&gt;Node1 -->
<g id="edge1_Node000001_Node000002" class="edge">
<title>Node2&#45;&gt;Node1</title>
<g id="a_edge1_Node000001_Node000002"><a xlink:title=" ">
<path fill="none" stroke="#63b8ff" d="M123,-123.71C123,-114.59 123,-106.05 123,-98.25"/>
<polygon fill="none" stroke="#63b8ff" points="119.5,-123.83 123,-133.83 126.5,-123.83 119.5,-123.83"/>
</a>
</g>
</g>
</g>
</svg>

<g id="navigator" transform="translate(0 0)" fill="#404254">
  <rect fill="#f2f5e9" fill-opacity="0.5" stroke="#606060" stroke-width=".5" x="0" y="0" width="60" height="60"/>
  <use id="zoomplus" xlink:href="#zoomPlus" x="17" y="9" onmousedown="handleZoom(evt,'in')"/>
  <use id="zoomminus" xlink:href="#zoomMin" x="42" y="9" onmousedown="handleZoom(evt,'out')"/>
  <use id="reset" xlink:href="#resetDef" x="30" y="36" onmousedown="handleReset()"/>
   <use id="arrowup" xlink:href="#arrowUp" x="0" y="0" onmousedown="handlePan(0,-1)"/>
  <use id="arrowright" xlink:href="#arrowRight" x="0" y="0" onmousedown="handlePan(1,0)"/>
  <use id="arrowdown" xlink:href="#arrowDown" x="0" y="0" onmousedown="handlePan(0,1)"/>
  <use id="arrowleft" xlink:href="#arrowLeft" x="0" y="0" onmousedown="handlePan(-1,0)"/>
</g>
<svg viewBox="0 0 15 15" width="100%" height="30px" preserveAspectRatio="xMaxYMin meet">
 <g id="arrow_out" transform="scale(0.3 0.3)">
  <a xlink:href="classES3Types_1_1ES3GenericType__inherit__graph_org.svg" target="_base">
   <rect id="button" ry="5" rx="5" y="6" x="6" height="38" width="38"
        fill="#f2f5e9" fill-opacity="0.5" stroke="#606060" stroke-width="1.0"/>
   <path id="arrow"
     d="M 11.500037,31.436501 C 11.940474,20.09759 22.043105,11.32322 32.158766,21.979434 L 37.068811,17.246167 C 37.068811,17.246167 37.088388,32 37.088388,32 L 22.160133,31.978069 C 22.160133,31.978069 26.997745,27.140456 26.997745,27.140456 C 18.528582,18.264221 13.291696,25.230495 11.500037,31.436501 z"
     style="fill:#404040;"/>
  </a>
 </g>
</svg>

<style type='text/css'>
<![CDATA[
[data-mouse-over-selected='false'] { opacity: 0.7; }
[data-mouse-over-selected='true']  { opacity: 1.0; }
]]>
</style>
<script type="application/ecmascript"><![CDATA[
document.addEventListener('DOMContentLoaded', (event) => {
  highlightEdges();
  highlightAdjacentNodes();
});
]]></script>
</svg>
