<?xml version="1.0" encoding="UTF-8" standalone="no"?>
<!DOCTYPE svg PUBLIC "-//W3C//DTD SVG 1.1//EN"
 "http://www.w3.org/Graphics/SVG/1.1/DTD/svg11.dtd">
<!-- Generated by graphviz version 2.43.0 (0)
 -->
<!-- Title: ES3Types.ES3TupleType Pages: 1 -->
<svg width="269pt" height="903pt"
 viewBox="0.00 0.00 269.00 903.00" xmlns="http://www.w3.org/2000/svg" xmlns:xlink="http://www.w3.org/1999/xlink">
<g id="graph0" class="graph" transform="scale(1 1) rotate(0) translate(4 899)">
<title>ES3Types.ES3TupleType</title>
<!-- Node1 -->
<g id="Node000001" class="node">
<title>Node1</title>
<g id="a_Node000001"><a xlink:title=" ">
<polygon fill="#999999" stroke="transparent" points="261,-261 0,-261 0,0 261,0 261,-261"/>
<text text-anchor="start" x="52" y="-246.9" font-family="Consolas" font-size="12.00">ES3Types.ES3TupleType</text>
<text text-anchor="start" x="4.5" y="-229.9" font-family="Consolas" font-size="12.00">+</text>
<text text-anchor="start" x="16.5" y="-229.9" font-family="Consolas" font-size="12.00">ES3Type[] es3Types</text>
<text text-anchor="start" x="4.5" y="-212.9" font-family="Consolas" font-size="12.00">+</text>
<text text-anchor="start" x="16.5" y="-212.9" font-family="Consolas" font-size="12.00">Type[] types</text>
<text text-anchor="start" x="4.5" y="-195.9" font-family="Consolas" font-size="12.00">#</text>
<text text-anchor="start" x="16.5" y="-195.9" font-family="Consolas" font-size="12.00">ES3Reflection.ES3Reflected</text>
<text text-anchor="start" x="16.5" y="-182.9" font-family="Consolas" font-size="12.00">Method readMethod</text>
<text text-anchor="start" x="4.5" y="-165.9" font-family="Consolas" font-size="12.00">#</text>
<text text-anchor="start" x="16.5" y="-165.9" font-family="Consolas" font-size="12.00">ES3Reflection.ES3Reflected</text>
<text text-anchor="start" x="16.5" y="-152.9" font-family="Consolas" font-size="12.00">Method readIntoMethod</text>
<text text-anchor="start" x="4.5" y="-135.9" font-family="Consolas" font-size="12.00">+</text>
<text text-anchor="start" x="16.5" y="-135.9" font-family="Consolas" font-size="12.00">ES3TupleType(Type</text>
<text text-anchor="start" x="16.5" y="-122.9" font-family="Consolas" font-size="12.00"> type)</text>
<text text-anchor="start" x="4.5" y="-105.9" font-family="Consolas" font-size="12.00">+</text>
<text text-anchor="start" x="16.5" y="-105.9" font-family="Consolas" font-size="12.00">override void Write</text>
<text text-anchor="start" x="16.5" y="-92.9" font-family="Consolas" font-size="12.00">(object obj, ES3Writer</text>
<text text-anchor="start" x="16.5" y="-79.9" font-family="Consolas" font-size="12.00"> writer)</text>
<text text-anchor="start" x="4.5" y="-62.9" font-family="Consolas" font-size="12.00">+</text>
<text text-anchor="start" x="16.5" y="-62.9" font-family="Consolas" font-size="12.00">void Write(object obj,</text>
<text text-anchor="start" x="16.5" y="-49.9" font-family="Consolas" font-size="12.00"> ES3Writer writer, ES3.Reference</text>
<text text-anchor="start" x="16.5" y="-36.9" font-family="Consolas" font-size="12.00">Mode memberReferenceMode)</text>
<text text-anchor="start" x="4.5" y="-19.9" font-family="Consolas" font-size="12.00">+</text>
<text text-anchor="start" x="16.5" y="-19.9" font-family="Consolas" font-size="12.00">override object Read</text>
<text text-anchor="start" x="16.5" y="-6.9" font-family="Consolas" font-size="12.00">&lt; T &gt;(ES3Reader reader)</text>
<polygon fill="#666666" stroke="#666666" points="0.5,-241.5 0.5,-241.5 261.5,-241.5 261.5,-241.5 0.5,-241.5"/>
<polygon fill="#666666" stroke="#666666" points="0.5,-147.5 0.5,-147.5 14.5,-147.5 14.5,-147.5 0.5,-147.5"/>
<polygon fill="#666666" stroke="#666666" points="14.5,-147.5 14.5,-147.5 261.5,-147.5 261.5,-147.5 14.5,-147.5"/>
<polygon fill="none" stroke="#666666" points="0,0 0,-261 261,-261 261,0 0,0"/>
</a>
</g>
</g>
<!-- Node2 -->
<g id="Node000002" class="node">
<title>Node2</title>
<g id="a_Node000002"><a xlink:href="classES3Types_1_1ES3Type.html" target="_top" xlink:title=" ">
<polygon fill="white" stroke="transparent" points="253.5,-895 7.5,-895 7.5,-297 253.5,-297 253.5,-895"/>
<text text-anchor="start" x="104" y="-881.4" font-family="Consolas" font-size="12.00">ES3Type</text>
<text text-anchor="start" x="11.5" y="-864.4" font-family="Consolas" font-size="12.00">+</text>
<text text-anchor="start" x="23.5" y="-864.4" font-family="Consolas" font-size="12.00">ES3Member[] members</text>
<text text-anchor="start" x="11.5" y="-847.4" font-family="Consolas" font-size="12.00">+</text>
<text text-anchor="start" x="23.5" y="-847.4" font-family="Consolas" font-size="12.00">Type type</text>
<text text-anchor="start" x="11.5" y="-830.4" font-family="Consolas" font-size="12.00">+</text>
<text text-anchor="start" x="23.5" y="-830.4" font-family="Consolas" font-size="12.00">bool isPrimitive</text>
<text text-anchor="start" x="11.5" y="-813.4" font-family="Consolas" font-size="12.00">+</text>
<text text-anchor="start" x="23.5" y="-813.4" font-family="Consolas" font-size="12.00">bool isValueType</text>
<text text-anchor="start" x="11.5" y="-796.4" font-family="Consolas" font-size="12.00">+</text>
<text text-anchor="start" x="23.5" y="-796.4" font-family="Consolas" font-size="12.00">bool isCollection</text>
<text text-anchor="start" x="11.5" y="-779.4" font-family="Consolas" font-size="12.00">+</text>
<text text-anchor="start" x="23.5" y="-779.4" font-family="Consolas" font-size="12.00">bool isDictionary</text>
<text text-anchor="start" x="11.5" y="-762.4" font-family="Consolas" font-size="12.00">+</text>
<text text-anchor="start" x="23.5" y="-762.4" font-family="Consolas" font-size="12.00">bool isTuple</text>
<text text-anchor="start" x="11.5" y="-745.4" font-family="Consolas" font-size="12.00">+</text>
<text text-anchor="start" x="23.5" y="-745.4" font-family="Consolas" font-size="12.00">bool isEnum</text>
<text text-anchor="start" x="11.5" y="-728.4" font-family="Consolas" font-size="12.00">+</text>
<text text-anchor="start" x="23.5" y="-728.4" font-family="Consolas" font-size="12.00">bool isES3TypeUnityObject</text>
<text text-anchor="start" x="11.5" y="-711.4" font-family="Consolas" font-size="12.00">+</text>
<text text-anchor="start" x="23.5" y="-711.4" font-family="Consolas" font-size="12.00">bool isReflectedType</text>
<text text-anchor="start" x="11.5" y="-694.4" font-family="Consolas" font-size="12.00">+</text>
<text text-anchor="start" x="23.5" y="-694.4" font-family="Consolas" font-size="12.00">bool isUnsupported</text>
<text text-anchor="start" x="11.5" y="-677.4" font-family="Consolas" font-size="12.00">+</text>
<text text-anchor="start" x="23.5" y="-677.4" font-family="Consolas" font-size="12.00">int priority</text>
<text text-anchor="start" x="11.5" y="-660.4" font-family="Consolas" font-size="12.00">+</text>
<text text-anchor="start" x="23.5" y="-660.4" font-family="Consolas" font-size="12.00">const string typeFieldName</text>
<text text-anchor="start" x="11.5" y="-643.4" font-family="Consolas" font-size="12.00">+</text>
<text text-anchor="start" x="23.5" y="-643.4" font-family="Consolas" font-size="12.00">void Write(object obj,</text>
<text text-anchor="start" x="23.5" y="-630.4" font-family="Consolas" font-size="12.00"> ES3Writer writer)</text>
<text text-anchor="start" x="11.5" y="-613.4" font-family="Consolas" font-size="12.00">+</text>
<text text-anchor="start" x="23.5" y="-613.4" font-family="Consolas" font-size="12.00">object Read&lt; T &gt;(ES3Reader</text>
<text text-anchor="start" x="23.5" y="-600.4" font-family="Consolas" font-size="12.00"> reader)</text>
<text text-anchor="start" x="11.5" y="-583.4" font-family="Consolas" font-size="12.00">+</text>
<text text-anchor="start" x="23.5" y="-583.4" font-family="Consolas" font-size="12.00">virtual void ReadInto</text>
<text text-anchor="start" x="23.5" y="-570.4" font-family="Consolas" font-size="12.00">&lt; T &gt;(ES3Reader reader,</text>
<text text-anchor="start" x="23.5" y="-557.4" font-family="Consolas" font-size="12.00"> object obj)</text>
<text text-anchor="start" x="11.5" y="-540.4" font-family="Consolas" font-size="12.00">~</text>
<text text-anchor="start" x="23.5" y="-540.4" font-family="Consolas" font-size="12.00">string ReadPropertyName</text>
<text text-anchor="start" x="23.5" y="-527.4" font-family="Consolas" font-size="12.00">(ES3Reader reader)</text>
<text text-anchor="start" x="11.5" y="-510.4" font-family="Consolas" font-size="12.00">#</text>
<text text-anchor="start" x="23.5" y="-510.4" font-family="Consolas" font-size="12.00">ES3Type(Type type)</text>
<text text-anchor="start" x="11.5" y="-493.4" font-family="Consolas" font-size="12.00">#</text>
<text text-anchor="start" x="23.5" y="-493.4" font-family="Consolas" font-size="12.00">bool WriteUsingDerivedType</text>
<text text-anchor="start" x="23.5" y="-480.4" font-family="Consolas" font-size="12.00">(object obj, ES3Writer writer)</text>
<text text-anchor="start" x="11.5" y="-463.4" font-family="Consolas" font-size="12.00">#</text>
<text text-anchor="start" x="23.5" y="-463.4" font-family="Consolas" font-size="12.00">void ReadUsingDerivedType</text>
<text text-anchor="start" x="23.5" y="-450.4" font-family="Consolas" font-size="12.00">&lt; T &gt;(ES3Reader reader,</text>
<text text-anchor="start" x="23.5" y="-437.4" font-family="Consolas" font-size="12.00"> object obj)</text>
<text text-anchor="start" x="11.5" y="-420.4" font-family="Consolas" font-size="12.00">#</text>
<text text-anchor="start" x="23.5" y="-420.4" font-family="Consolas" font-size="12.00">void WriteProperties</text>
<text text-anchor="start" x="23.5" y="-407.4" font-family="Consolas" font-size="12.00">(object obj, ES3Writer</text>
<text text-anchor="start" x="23.5" y="-394.4" font-family="Consolas" font-size="12.00"> writer)</text>
<text text-anchor="start" x="11.5" y="-377.4" font-family="Consolas" font-size="12.00">#</text>
<text text-anchor="start" x="23.5" y="-377.4" font-family="Consolas" font-size="12.00">object ReadProperties</text>
<text text-anchor="start" x="23.5" y="-364.4" font-family="Consolas" font-size="12.00">(ES3Reader reader, object obj)</text>
<text text-anchor="start" x="11.5" y="-347.4" font-family="Consolas" font-size="12.00">#</text>
<text text-anchor="start" x="23.5" y="-347.4" font-family="Consolas" font-size="12.00">void GetMembers(bool</text>
<text text-anchor="start" x="23.5" y="-334.4" font-family="Consolas" font-size="12.00"> safe)</text>
<text text-anchor="start" x="11.5" y="-317.4" font-family="Consolas" font-size="12.00">#</text>
<text text-anchor="start" x="23.5" y="-317.4" font-family="Consolas" font-size="12.00">void GetMembers(bool</text>
<text text-anchor="start" x="23.5" y="-304.4" font-family="Consolas" font-size="12.00"> safe, string[] memberNames)</text>
<polygon fill="#bfbfbf" stroke="#bfbfbf" points="7.5,-876 7.5,-876 253.5,-876 253.5,-876 7.5,-876"/>
<polygon fill="#bfbfbf" stroke="#bfbfbf" points="7.5,-655 7.5,-655 21.5,-655 21.5,-655 7.5,-655"/>
<polygon fill="#bfbfbf" stroke="#bfbfbf" points="21.5,-655 21.5,-655 253.5,-655 253.5,-655 21.5,-655"/>
<polygon fill="none" stroke="#bfbfbf" points="7.5,-297 7.5,-895 253.5,-895 253.5,-297 7.5,-297"/>
</a>
</g>
</g>
<!-- Node2&#45;&gt;Node1 -->
<g id="edge1_Node000001_Node000002" class="edge">
<title>Node2&#45;&gt;Node1</title>
<g id="a_edge1_Node000001_Node000002"><a xlink:title=" ">
<path fill="none" stroke="#63b8ff" d="M130.5,-286.71C130.5,-278.11 130.5,-269.67 130.5,-261.44"/>
<polygon fill="none" stroke="#63b8ff" points="127,-286.87 130.5,-296.87 134,-286.87 127,-286.87"/>
</a>
</g>
</g>
</g>
</svg>
