<?xml version="1.0" encoding="UTF-8" standalone="no"?>
<!DOCTYPE svg PUBLIC "-//W3C//DTD SVG 1.1//EN"
 "http://www.w3.org/Graphics/SVG/1.1/DTD/svg11.dtd">
<!-- Generated by graphviz version 2.43.0 (0)
 -->
<!-- Title: Room.FullRepair Pages: 1 -->
<svg width="872pt" height="146pt"
 viewBox="0.00 0.00 872.00 146.00" xmlns="http://www.w3.org/2000/svg" xmlns:xlink="http://www.w3.org/1999/xlink">
<g id="graph0" class="graph" transform="scale(1 1) rotate(0) translate(4 142)">
<title>Room.FullRepair</title>
<!-- Node1 -->
<g id="Node000001" class="node">
<title>Node1</title>
<g id="a_Node000001"><a xlink:title="100% 수리">
<polygon fill="#999999" stroke="#666666" points="129,-79 0,-79 0,-58 129,-58 129,-79"/>
<text text-anchor="middle" x="64.5" y="-65.4" font-family="Consolas" font-size="12.00">Room.FullRepair</text>
</a>
</g>
</g>
<!-- Node2 -->
<g id="Node000002" class="node">
<title>Node2</title>
<g id="a_Node000002"><a xlink:href="classRoom.html#ae5b8e019f27766e7e2537bb65f0d5f2e" target="_top" xlink:title="현재 레벨의 시각적 요소 (스프라이트 등)를 갱신합니다.">
<polygon fill="white" stroke="#666666" points="339,-79 165,-79 165,-58 339,-58 339,-79"/>
<text text-anchor="middle" x="252" y="-65.4" font-family="Consolas" font-size="12.00">Room.UpdateRoomVisual</text>
</a>
</g>
</g>
<!-- Node1&#45;&gt;Node2 -->
<g id="edge1_Node000001_Node000002" class="edge">
<title>Node1&#45;&gt;Node2</title>
<g id="a_edge1_Node000001_Node000002"><a xlink:title=" ">
<path fill="none" stroke="#63b8ff" d="M129.08,-68.5C137.37,-68.5 146.01,-68.5 154.69,-68.5"/>
<polygon fill="#63b8ff" stroke="#63b8ff" points="154.88,-72 164.88,-68.5 154.88,-65 154.88,-72"/>
</a>
</g>
</g>
<!-- Node3 -->
<g id="Node000003" class="node">
<title>Node3</title>
<g id="a_Node000003"><a xlink:href="classRoom.html#a18ac2f2af25dbf2e6181db75eab061ae" target="_top" xlink:title="회전각을 고려하여 방의 점유 타일 반환">
<polygon fill="white" stroke="#666666" points="579,-138 405,-138 405,-117 579,-117 579,-138"/>
<text text-anchor="middle" x="492" y="-124.4" font-family="Consolas" font-size="12.00">Room.GetOccupiedTiles</text>
</a>
</g>
</g>
<!-- Node2&#45;&gt;Node3 -->
<g id="edge2_Node000002_Node000003" class="edge">
<title>Node2&#45;&gt;Node3</title>
<g id="a_edge2_Node000002_Node000003"><a xlink:title=" ">
<path fill="none" stroke="#63b8ff" d="M288.62,-79.03C312.87,-86.05 345.75,-95.28 375,-102.5 392.39,-106.79 411.34,-111.05 428.8,-114.81"/>
<polygon fill="#63b8ff" stroke="#63b8ff" points="428.37,-118.29 438.88,-116.96 429.83,-111.45 428.37,-118.29"/>
</a>
</g>
</g>
<!-- Node5 -->
<g id="Node000005" class="node">
<title>Node5</title>
<g id="a_Node000005"><a xlink:href="classRoomData.html#a93ada549c4d197d14917913e944f46c2" target="_top" xlink:title="주어진 레벨에 해당하는 RoomLevel 데이터를 반환합니다. 각 파생 클래스에서 구현해야 합니다.">
<polygon fill="white" stroke="#666666" points="864,-99 645,-99 645,-78 864,-78 864,-99"/>
<text text-anchor="middle" x="754.5" y="-85.4" font-family="Consolas" font-size="12.00">RoomData.GetRoomDataByLevel</text>
</a>
</g>
</g>
<!-- Node2&#45;&gt;Node5 -->
<g id="edge5_Node000002_Node000005" class="edge">
<title>Node2&#45;&gt;Node5</title>
<g id="a_edge5_Node000002_Node000005"><a xlink:title=" ">
<path fill="none" stroke="#63b8ff" d="M339.04,-71.94C420.53,-75.19 543.62,-80.11 634.5,-83.74"/>
<polygon fill="#63b8ff" stroke="#63b8ff" points="634.45,-87.25 644.58,-84.15 634.72,-80.25 634.45,-87.25"/>
</a>
</g>
</g>
<!-- Node6 -->
<g id="Node000006" class="node">
<title>Node6</title>
<g id="a_Node000006"><a xlink:href="classShip.html#acc377098e3c61bbd4b8fc53595d09293" target="_top" xlink:title="실제 월드 위치 반환">
<polygon fill="white" stroke="#666666" points="609,-60 375,-60 375,-39 609,-39 609,-60"/>
<text text-anchor="middle" x="492" y="-46.4" font-family="Consolas" font-size="12.00">Ship.GetWorldPositionFromGrid</text>
</a>
</g>
</g>
<!-- Node2&#45;&gt;Node6 -->
<g id="edge6_Node000002_Node000006" class="edge">
<title>Node2&#45;&gt;Node6</title>
<g id="a_edge6_Node000002_Node000006"><a xlink:title=" ">
<path fill="none" stroke="#63b8ff" d="M339.26,-61.61C347.58,-60.95 356.13,-60.27 364.73,-59.58"/>
<polygon fill="#63b8ff" stroke="#63b8ff" points="365.15,-63.06 374.84,-58.77 364.59,-56.08 365.15,-63.06"/>
</a>
</g>
</g>
<!-- Node8 -->
<g id="Node000008" class="node">
<title>Node8</title>
<g id="a_Node000008"><a xlink:href="classRoom.html#af15fefedd48a2009da56d461a9084ed8" target="_top" xlink:title="방이 작동 가능한 상태인지 확인합니다.">
<polygon fill="white" stroke="#666666" points="568,-21 416,-21 416,0 568,0 568,-21"/>
<text text-anchor="middle" x="492" y="-7.4" font-family="Consolas" font-size="12.00">Room.IsOperational</text>
</a>
</g>
</g>
<!-- Node2&#45;&gt;Node8 -->
<g id="edge8_Node000002_Node000008" class="edge">
<title>Node2&#45;&gt;Node8</title>
<g id="a_edge8_Node000002_Node000008"><a xlink:title=" ">
<path fill="none" stroke="#63b8ff" d="M281.75,-57.99C306.26,-49.34 342.57,-37.29 375,-29.5 385.07,-27.08 395.72,-24.87 406.3,-22.89"/>
<polygon fill="#63b8ff" stroke="#63b8ff" points="407.2,-26.28 416.42,-21.05 405.95,-19.39 407.2,-26.28"/>
</a>
</g>
</g>
<!-- Node4 -->
<g id="Node000004" class="node">
<title>Node4</title>
<g id="a_Node000004"><a xlink:href="classRoom.html#ae14b08f3ba19cce81b077d6fefcb1fd5" target="_top" xlink:title="현재 업그레이드 레벨을 반환합니다.">
<polygon fill="white" stroke="#666666" points="838,-138 671,-138 671,-117 838,-117 838,-138"/>
<text text-anchor="middle" x="754.5" y="-124.4" font-family="Consolas" font-size="12.00">Room.GetCurrentLevel</text>
</a>
</g>
</g>
<!-- Node3&#45;&gt;Node4 -->
<g id="edge3_Node000003_Node000004" class="edge">
<title>Node3&#45;&gt;Node4</title>
<g id="a_edge3_Node000003_Node000004"><a xlink:title=" ">
<path fill="none" stroke="#63b8ff" d="M579.02,-127.5C605.17,-127.5 634.02,-127.5 660.6,-127.5"/>
<polygon fill="#63b8ff" stroke="#63b8ff" points="660.67,-131 670.67,-127.5 660.67,-124 660.67,-131"/>
</a>
</g>
</g>
<!-- Node3&#45;&gt;Node5 -->
<g id="edge4_Node000003_Node000005" class="edge">
<title>Node3&#45;&gt;Node5</title>
<g id="a_edge4_Node000003_Node000005"><a xlink:title=" ">
<path fill="none" stroke="#63b8ff" d="M563.15,-117C597.03,-111.93 637.85,-105.81 672.99,-100.55"/>
<polygon fill="#63b8ff" stroke="#63b8ff" points="673.85,-103.96 683.22,-99.02 672.81,-97.04 673.85,-103.96"/>
</a>
</g>
</g>
<!-- Node7 -->
<g id="Node000007" class="node">
<title>Node7</title>
<g id="a_Node000007"><a xlink:href="classShip.html#a84f03b9700fea23f4e8a48f1233de137" target="_top" xlink:title="그리드 좌표를 월드 좌표로 변환 ((0, 0) ~ (60, 60) 그리드 내 좌표라 local relative 좌표임)">
<polygon fill="white" stroke="#666666" points="853,-60 656,-60 656,-39 853,-39 853,-60"/>
<text text-anchor="middle" x="754.5" y="-46.4" font-family="Consolas" font-size="12.00">Ship.GridToWorldPosition</text>
</a>
</g>
</g>
<!-- Node6&#45;&gt;Node7 -->
<g id="edge7_Node000006_Node000007" class="edge">
<title>Node6&#45;&gt;Node7</title>
<g id="a_edge7_Node000006_Node000007"><a xlink:title=" ">
<path fill="none" stroke="#63b8ff" d="M609.16,-49.5C621.35,-49.5 633.7,-49.5 645.79,-49.5"/>
<polygon fill="#63b8ff" stroke="#63b8ff" points="645.87,-53 655.87,-49.5 645.87,-46 645.87,-53"/>
</a>
</g>
</g>
</g>
</svg>
