<?xml version="1.0" encoding="UTF-8" standalone="no"?>
<!DOCTYPE svg PUBLIC "-//W3C//DTD SVG 1.1//EN"
 "http://www.w3.org/Graphics/SVG/1.1/DTD/svg11.dtd">
<!-- Generated by graphviz version 2.43.0 (0)
 -->
<!-- Title: SpecialEffectHandlerFactory Pages: 1 -->
<svg width="291pt" height="205pt"
 viewBox="0.00 0.00 291.00 205.00" xmlns="http://www.w3.org/2000/svg" xmlns:xlink="http://www.w3.org/1999/xlink">
<g id="graph0" class="graph" transform="scale(1 1) rotate(0) translate(4 201)">
<title>SpecialEffectHandlerFactory</title>
<!-- Node1 -->
<g id="Node000001" class="node">
<title>Node1</title>
<g id="a_Node000001"><a xlink:title="SpecialEffectType에 대응되는 핸들러를 생성하고 제공하는 팩토리 클래스입니다.">
<polygon fill="#999999" stroke="transparent" points="283,-197 0,-197 0,0 283,0 283,-197"/>
<text text-anchor="start" x="40.5" y="-182.9" font-family="Consolas" font-size="12.00">SpecialEffectHandlerFactory</text>
<text text-anchor="start" x="4.5" y="-165.9" font-family="Consolas" font-size="12.00">&#45;</text>
<text text-anchor="start" x="16.5" y="-165.9" font-family="Consolas" font-size="12.00">readonly Dictionary</text>
<text text-anchor="start" x="16.5" y="-152.9" font-family="Consolas" font-size="12.00">&lt; SpecialEffectType,</text>
<text text-anchor="start" x="16.5" y="-139.9" font-family="Consolas" font-size="12.00"> ISpecialEffectHandler</text>
<text text-anchor="start" x="16.5" y="-126.9" font-family="Consolas" font-size="12.00"> &gt; handlers</text>
<text text-anchor="start" x="4.5" y="-109.9" font-family="Consolas" font-size="12.00">+</text>
<text text-anchor="start" x="16.5" y="-109.9" font-family="Consolas" font-size="12.00">SpecialEffectHandlerFactory()</text>
<text text-anchor="start" x="4.5" y="-92.9" font-family="Consolas" font-size="12.00">+</text>
<text text-anchor="start" x="16.5" y="-92.9" font-family="Consolas" font-size="12.00">ISpecialEffectHandler</text>
<text text-anchor="start" x="16.5" y="-79.9" font-family="Consolas" font-size="12.00"> GetHandler(SpecialEffectType type)</text>
<text text-anchor="start" x="4.5" y="-62.9" font-family="Consolas" font-size="12.00">&#45;</text>
<text text-anchor="start" x="16.5" y="-62.9" font-family="Consolas" font-size="12.00">void RegisterAllDefaultHandlers()</text>
<text text-anchor="start" x="4.5" y="-45.9" font-family="Consolas" font-size="12.00">&#45;</text>
<text text-anchor="start" x="16.5" y="-45.9" font-family="Consolas" font-size="12.00">void RegisterHandler</text>
<text text-anchor="start" x="16.5" y="-32.9" font-family="Consolas" font-size="12.00">(SpecialEffectType type,</text>
<text text-anchor="start" x="16.5" y="-19.9" font-family="Consolas" font-size="12.00"> ISpecialEffectHandler</text>
<text text-anchor="start" x="16.5" y="-6.9" font-family="Consolas" font-size="12.00"> handler)</text>
<polygon fill="#666666" stroke="#666666" points="0.5,-177.5 0.5,-177.5 283.5,-177.5 283.5,-177.5 0.5,-177.5"/>
<polygon fill="#666666" stroke="#666666" points="0.5,-121.5 0.5,-121.5 14.5,-121.5 14.5,-121.5 0.5,-121.5"/>
<polygon fill="#666666" stroke="#666666" points="14.5,-121.5 14.5,-121.5 283.5,-121.5 283.5,-121.5 14.5,-121.5"/>
<polygon fill="none" stroke="#666666" points="0,0 0,-197 283,-197 283,0 0,0"/>
</a>
</g>
</g>
</g>
</svg>
