<?xml version="1.0" encoding="UTF-8" standalone="no"?>
<!DOCTYPE svg PUBLIC "-//W3C//DTD SVG 1.1//EN"
 "http://www.w3.org/Graphics/SVG/1.1/DTD/svg11.dtd">
<!-- Generated by graphviz version 2.43.0 (0)
 -->
<!-- Title: CrewMember.GetCombinedStats Pages: 1 -->
<!--zoomable 263 -->

<svg id="main" version="1.1" xmlns="http://www.w3.org/2000/svg" xmlns:xlink="http://www.w3.org/1999/xlink" xml:space="preserve" onload="init(evt)">
<style type="text/css"><![CDATA[
.node, .edge {opacity: 0.7;}
.node.selected, .edge.selected {opacity: 1;}
.edge:hover path { stroke: red; }
.edge:hover polygon { stroke: red; fill: red; }
]]></style>

<defs>
  <circle id="rim" cx="0" cy="0" r="7"/>
  <circle id="rim2" cx="0" cy="0" r="3.5"/>
  <g id="zoomPlus">
    <use xlink:href="#rim" fill="#404040"><set attributeName="fill" to="#808080" begin="zoomplus.mouseover" end="zoomplus.mouseout"/></use>
    <path d="M-4,0h8M0,-4v8" fill="none" stroke="white" stroke-width="1.5" pointer-events="none"/>
  </g>
  <g id="zoomMin">
    <use xlink:href="#rim" fill="#404040"><set attributeName="fill" to="#808080" begin="zoomminus.mouseover" end="zoomminus.mouseout"/></use>
    <path d="M-4,0h8" fill="none" stroke="white" stroke-width="1.5" pointer-events="none"/>
  </g>
  <g id="arrowUp" transform="translate(30 24)">
    <use xlink:href="#rim"/>
    <path pointer-events="none" fill="none" stroke="white" stroke-width="1.5" d="M0,-3.0v7 M-2.5,-0.5L0,-3.0L2.5,-0.5"/>
  </g>
  <g id="arrowRight" transform="rotate(90) translate(36 -43)">
    <use xlink:href="#rim"/>
    <path pointer-events="none" fill="none" stroke="white" stroke-width="1.5" d="M0,-3.0v7 M-2.5,-0.5L0,-3.0L2.5,-0.5"/>
  </g>
  <g id="arrowDown" transform="rotate(180) translate(-30 -48)">
    <use xlink:href="#rim"/>
    <path pointer-events="none" fill="none" stroke="white" stroke-width="1.5" d="M0,-3.0v7 M-2.5,-0.5L0,-3.0L2.5,-0.5"/>
  </g>
  <g id="arrowLeft" transform="rotate(270) translate(-36 17)">
    <use xlink:href="#rim"/>
    <path pointer-events="none" fill="none" stroke="white" stroke-width="1.5" d="M0,-3.0v7 M-2.5,-0.5L0,-3.0L2.5,-0.5"/>
  </g>
  <g id="resetDef">
    <use xlink:href="#rim2" fill="#404040"><set attributeName="fill" to="#808080" begin="reset.mouseover" end="reset.mouseout"/></use>
  </g>
</defs>
<script type="application/ecmascript">
var viewWidth = 1323;
var viewHeight = 263;
var sectionId = 'dynsection-9';
</script>
<script type="application/ecmascript" xlink:href="svg.min.js"/>
<svg id="graph" class="graph">
<g id="viewport">
<title>CrewMember.GetCombinedStats</title>
<!-- Node1 -->
<g id="Node000001" class="node">
<title>Node1</title>
<g id="a_Node000001"><a xlink:title="현재 선원의 스텟 반환">
<polygon fill="#999999" stroke="#666666" points="1315,-150.5 1096,-150.5 1096,-129.5 1315,-129.5 1315,-150.5"/>
<text text-anchor="middle" x="1205.5" y="-136.9" font-family="Consolas" font-size="12.00">CrewMember.GetCombinedStats</text>
</a>
</g>
</g>
<!-- Node2 -->
<g id="Node000002" class="node">
<title>Node2</title>
<g id="a_Node000002"><a xlink:href="classCrewMember.html#ab51adc771fd75a9ee2d1f53e218e77c8" target="_top" xlink:title="새로운 장비 착용 시뮬레이션">
<polygon fill="white" stroke="#666666" points="1060,-150.5 826,-150.5 826,-129.5 1060,-129.5 1060,-150.5"/>
<text text-anchor="middle" x="943" y="-136.9" font-family="Consolas" font-size="12.00">CrewMember.GetStatsIfEquipped</text>
</a>
</g>
</g>
<!-- Node1&#45;&gt;Node2 -->
<g id="edge1_Node000001_Node000002" class="edge">
<title>Node1&#45;&gt;Node2</title>
<g id="a_edge1_Node000001_Node000002"><a xlink:title=" ">
<path fill="none" stroke="#63b8ff" d="M1085.69,-140C1077.28,-140 1068.8,-140 1060.4,-140"/>
<polygon fill="#63b8ff" stroke="#63b8ff" points="1085.91,-143.5 1095.91,-140 1085.91,-136.5 1085.91,-143.5"/>
</a>
</g>
</g>
<!-- Node3 -->
<g id="Node000003" class="node">
<title>Node3</title>
<g id="a_Node000003"><a xlink:href="classEquipmentApplyHandler.html#abd424807c871bb5f37f1b82c9bd008db" target="_top" xlink:title="장비 해제 예비 작업">
<polygon fill="white" stroke="#666666" points="767.5,-235 570.5,-235 570.5,-201 767.5,-201 767.5,-235"/>
<text text-anchor="start" x="578.5" y="-221.4" font-family="Consolas" font-size="12.00">EquipmentApplyHandler.On</text>
<text text-anchor="middle" x="669" y="-208.4" font-family="Consolas" font-size="12.00">ClickPendingUnEquip</text>
</a>
</g>
</g>
<!-- Node1&#45;&gt;Node3 -->
<g id="edge11_Node000001_Node000003" class="edge">
<title>Node1&#45;&gt;Node3</title>
<g id="a_edge11_Node000001_Node000003"><a xlink:title=" ">
<path fill="none" stroke="#63b8ff" d="M1159.2,-153.41C1130.91,-161.34 1093.6,-170.97 1060,-177 961.16,-194.75 846.75,-205.66 767.52,-211.71"/>
<polygon fill="#63b8ff" stroke="#63b8ff" points="1160.52,-156.68 1169.19,-150.58 1158.61,-149.94 1160.52,-156.68"/>
</a>
</g>
</g>
<!-- Node4 -->
<g id="Node000004" class="node">
<title>Node4</title>
<g id="a_Node000004"><a xlink:href="classEquipmentUIHandler.html#a6185fb10654f2cfbd33acf4ef73126a2" target="_top" xlink:title="장비 해제 예비 작업">
<polygon fill="white" stroke="#666666" points="775,-183 563,-183 563,-149 775,-149 775,-183"/>
<text text-anchor="start" x="571" y="-169.4" font-family="Consolas" font-size="12.00">EquipmentUIHandler.OnClick</text>
<text text-anchor="middle" x="669" y="-156.4" font-family="Consolas" font-size="12.00">PendingUnEquip</text>
</a>
</g>
</g>
<!-- Node1&#45;&gt;Node4 -->
<g id="edge12_Node000001_Node000004" class="edge">
<title>Node1&#45;&gt;Node4</title>
<g id="a_edge12_Node000001_Node000004"><a xlink:title=" ">
<path fill="none" stroke="#63b8ff" d="M1130.47,-152.02C1107.91,-155.2 1082.99,-158.24 1060,-160 963.79,-167.37 853.84,-168.39 775.27,-167.85"/>
<polygon fill="#63b8ff" stroke="#63b8ff" points="1131.26,-155.44 1140.66,-150.55 1130.26,-148.51 1131.26,-155.44"/>
</a>
</g>
</g>
<!-- Node5 -->
<g id="Node000005" class="node">
<title>Node5</title>
<g id="a_Node000005"><a xlink:href="classEquipmentApplyHandler.html#a64517bd171a33f2cd6025797d945f473" target="_top" xlink:title="장비 선택됨 (장비 착용, 미착용 등 스텟 비교)">
<polygon fill="white" stroke="#666666" points="767.5,-131 570.5,-131 570.5,-97 767.5,-97 767.5,-131"/>
<text text-anchor="start" x="578.5" y="-117.4" font-family="Consolas" font-size="12.00">EquipmentApplyHandler.On</text>
<text text-anchor="middle" x="669" y="-104.4" font-family="Consolas" font-size="12.00">EquipmentIconSelected</text>
</a>
</g>
</g>
<!-- Node1&#45;&gt;Node5 -->
<g id="edge13_Node000001_Node000005" class="edge">
<title>Node1&#45;&gt;Node5</title>
<g id="a_edge13_Node000001_Node000005"><a xlink:title=" ">
<path fill="none" stroke="#63b8ff" d="M1126.6,-128.12C1105.07,-125.28 1081.67,-122.61 1060,-121 960.56,-113.59 846.48,-112.39 767.51,-112.71"/>
<polygon fill="#63b8ff" stroke="#63b8ff" points="1126.29,-131.61 1136.67,-129.48 1127.22,-124.67 1126.29,-131.61"/>
</a>
</g>
</g>
<!-- Node8 -->
<g id="Node000008" class="node">
<title>Node8</title>
<g id="a_Node000008"><a xlink:href="classEquipmentUIHandler.html#a5a49da089005a57f7f0930868f56c239" target="_top" xlink:title="장비 선택됨 (장비 착용, 미착용 등 스텟 비교)">
<polygon fill="white" stroke="#666666" points="790,-79 548,-79 548,-45 790,-45 790,-79"/>
<text text-anchor="start" x="556" y="-65.4" font-family="Consolas" font-size="12.00">EquipmentUIHandler.OnEquipment</text>
<text text-anchor="middle" x="669" y="-52.4" font-family="Consolas" font-size="12.00">IconSelected</text>
</a>
</g>
</g>
<!-- Node1&#45;&gt;Node8 -->
<g id="edge14_Node000001_Node000008" class="edge">
<title>Node1&#45;&gt;Node8</title>
<g id="a_edge14_Node000001_Node000008"><a xlink:title=" ">
<path fill="none" stroke="#63b8ff" d="M1152.59,-127.18C1125.18,-120.75 1090.91,-113.23 1060,-108 970.09,-92.78 867.67,-80.91 790.36,-73.04"/>
<polygon fill="#63b8ff" stroke="#63b8ff" points="1151.82,-130.59 1162.36,-129.49 1153.43,-123.78 1151.82,-130.59"/>
</a>
</g>
</g>
<!-- Node12 -->
<g id="Node000012" class="node">
<title>Node12</title>
<g id="a_Node000012"><a xlink:href="classEquipmentUIHandler.html#a10dc6e7062787956eba5849e1f5ba46a" target="_top" xlink:title="선원 개인 디테일 패널 정보 갱신">
<polygon fill="white" stroke="#666666" points="1049,-34 837,-34 837,0 1049,0 1049,-34"/>
<text text-anchor="start" x="845" y="-20.4" font-family="Consolas" font-size="12.00">EquipmentUIHandler.Refresh</text>
<text text-anchor="middle" x="943" y="-7.4" font-family="Consolas" font-size="12.00">CrewDetailPanel</text>
</a>
</g>
</g>
<!-- Node1&#45;&gt;Node12 -->
<g id="edge15_Node000001_Node000012" class="edge">
<title>Node1&#45;&gt;Node12</title>
<g id="a_edge15_Node000001_Node000012"><a xlink:title=" ">
<path fill="none" stroke="#63b8ff" d="M1182.9,-123.23C1155.65,-102.81 1106.68,-68.51 1060,-48 1047.69,-42.59 1034.22,-37.94 1020.96,-34.01"/>
<polygon fill="#63b8ff" stroke="#63b8ff" points="1180.87,-126.09 1190.95,-129.34 1185.1,-120.51 1180.87,-126.09"/>
</a>
</g>
</g>
<!-- Node13 -->
<g id="Node000013" class="node">
<title>Node13</title>
<g id="a_Node000013"><a xlink:href="classEquipmentApplyHandler.html#a9ad0b321e092e78256b121de2cc406da" target="_top" xlink:title="선원 개인 디테일 패널 정보 갱신">
<polygon fill="white" stroke="#666666" points="508,-255 274,-255 274,-221 508,-221 508,-255"/>
<text text-anchor="start" x="282" y="-241.4" font-family="Consolas" font-size="12.00">EquipmentApplyHandler.Refresh</text>
<text text-anchor="middle" x="391" y="-228.4" font-family="Consolas" font-size="12.00">CrewDetailPanel</text>
</a>
</g>
</g>
<!-- Node1&#45;&gt;Node13 -->
<g id="edge17_Node000001_Node000013" class="edge">
<title>Node1&#45;&gt;Node13</title>
<g id="a_edge17_Node000001_Node000013"><a xlink:title=" ">
<path fill="none" stroke="#63b8ff" d="M1176.57,-155.4C1148.1,-170.41 1102.24,-192.71 1060,-205 872.69,-259.49 643.54,-256.67 508.14,-248.3"/>
<polygon fill="#63b8ff" stroke="#63b8ff" points="1178.35,-158.42 1185.52,-150.62 1175.06,-152.24 1178.35,-158.42"/>
</a>
</g>
</g>
<!-- Node2&#45;&gt;Node3 -->
<g id="edge2_Node000002_Node000003" class="edge">
<title>Node2&#45;&gt;Node3</title>
<g id="a_edge2_Node000002_Node000003"><a xlink:title=" ">
<path fill="none" stroke="#63b8ff" d="M904.89,-154.05C874.35,-165.28 829.76,-180.93 790,-192 778.6,-195.17 766.51,-198.19 754.55,-200.97"/>
<polygon fill="#63b8ff" stroke="#63b8ff" points="906.13,-157.32 914.29,-150.57 903.7,-150.76 906.13,-157.32"/>
</a>
</g>
</g>
<!-- Node2&#45;&gt;Node4 -->
<g id="edge3_Node000002_Node000004" class="edge">
<title>Node2&#45;&gt;Node4</title>
<g id="a_edge3_Node000002_Node000004"><a xlink:title=" ">
<path fill="none" stroke="#63b8ff" d="M822,-151.47C806.48,-152.95 790.67,-154.47 775.41,-155.92"/>
<polygon fill="#63b8ff" stroke="#63b8ff" points="822.53,-154.94 832.15,-150.5 821.86,-147.97 822.53,-154.94"/>
</a>
</g>
</g>
<!-- Node2&#45;&gt;Node5 -->
<g id="edge4_Node000002_Node000005" class="edge">
<title>Node2&#45;&gt;Node5</title>
<g id="a_edge4_Node000002_Node000005"><a xlink:title=" ">
<path fill="none" stroke="#63b8ff" d="M822.07,-128.54C803.84,-126.79 785.22,-125.01 767.55,-123.32"/>
<polygon fill="#63b8ff" stroke="#63b8ff" points="821.86,-132.03 832.15,-129.5 822.53,-125.06 821.86,-132.03"/>
</a>
</g>
</g>
<!-- Node2&#45;&gt;Node8 -->
<g id="edge7_Node000002_Node000008" class="edge">
<title>Node2&#45;&gt;Node8</title>
<g id="a_edge7_Node000002_Node000008"><a xlink:title=" ">
<path fill="none" stroke="#63b8ff" d="M904.89,-125.95C874.35,-114.72 829.76,-99.07 790,-88 778.6,-84.83 766.51,-81.81 754.55,-79.03"/>
<polygon fill="#63b8ff" stroke="#63b8ff" points="903.7,-129.24 914.29,-129.43 906.13,-122.68 903.7,-129.24"/>
</a>
</g>
</g>
<!-- Node6 -->
<g id="Node000006" class="node">
<title>Node6</title>
<g id="a_Node000006"><a xlink:href="classEquipmentApplyHandler.html#a30971b246563208e707c97fd25646dc4" target="_top" xlink:title="보유 중인 전체 장비 리스트 갱신">
<polygon fill="white" stroke="#666666" points="512,-179 270,-179 270,-145 512,-145 512,-179"/>
<text text-anchor="start" x="278" y="-165.4" font-family="Consolas" font-size="12.00">EquipmentApplyHandler.Populate</text>
<text text-anchor="middle" x="391" y="-152.4" font-family="Consolas" font-size="12.00">EquipmentIcons</text>
</a>
</g>
</g>
<!-- Node5&#45;&gt;Node6 -->
<g id="edge5_Node000005_Node000006" class="edge">
<title>Node5&#45;&gt;Node6</title>
<g id="a_edge5_Node000005_Node000006"><a xlink:title=" ">
<path fill="none" stroke="#63b8ff" d="M560.44,-132.71C537.25,-136.74 512.84,-140.98 490.03,-144.95"/>
<polygon fill="#63b8ff" stroke="#63b8ff" points="561.05,-136.15 570.3,-130.99 559.85,-129.26 561.05,-136.15"/>
</a>
</g>
</g>
<!-- Node7 -->
<g id="Node000007" class="node">
<title>Node7</title>
<g id="a_Node000007"><a xlink:href="classEquipmentApplyHandler.html#aa78bfaf762e0ef65f070c6aea9f16112" target="_top" xlink:title="ok 버튼 눌러 장비를 선원에게 직접 적용 / 해제">
<polygon fill="white" stroke="#666666" points="215.5,-217 18.5,-217 18.5,-183 215.5,-183 215.5,-217"/>
<text text-anchor="start" x="26.5" y="-203.4" font-family="Consolas" font-size="12.00">EquipmentApplyHandler.On</text>
<text text-anchor="middle" x="117" y="-190.4" font-family="Consolas" font-size="12.00">ClickStatApplyButton</text>
</a>
</g>
</g>
<!-- Node6&#45;&gt;Node7 -->
<g id="edge6_Node000006_Node000007" class="edge">
<title>Node6&#45;&gt;Node7</title>
<g id="a_edge6_Node000006_Node000007"><a xlink:title=" ">
<path fill="none" stroke="#63b8ff" d="M259.71,-180.2C244.94,-182.27 230.09,-184.34 215.84,-186.33"/>
<polygon fill="#63b8ff" stroke="#63b8ff" points="260.49,-183.63 269.91,-178.78 259.52,-176.7 260.49,-183.63"/>
</a>
</g>
</g>
<!-- Node9 -->
<g id="Node000009" class="node">
<title>Node9</title>
<g id="a_Node000009"><a xlink:href="classEquipmentUIHandler.html#a46440b8dbb74f6457d2e63d8ecc8ace3" target="_top" xlink:title="보유 중인 전체 장비 리스트 갱신">
<polygon fill="white" stroke="#666666" points="500.5,-79 281.5,-79 281.5,-45 500.5,-45 500.5,-79"/>
<text text-anchor="start" x="289.5" y="-65.4" font-family="Consolas" font-size="12.00">EquipmentUIHandler.Populate</text>
<text text-anchor="middle" x="391" y="-52.4" font-family="Consolas" font-size="12.00">EquipmentIcons</text>
</a>
</g>
</g>
<!-- Node8&#45;&gt;Node9 -->
<g id="edge8_Node000008_Node000009" class="edge">
<title>Node8&#45;&gt;Node9</title>
<g id="a_edge8_Node000008_Node000009"><a xlink:title=" ">
<path fill="none" stroke="#63b8ff" d="M537.41,-62C525.08,-62 512.67,-62 500.57,-62"/>
<polygon fill="#63b8ff" stroke="#63b8ff" points="537.75,-65.5 547.75,-62 537.75,-58.5 537.75,-65.5"/>
</a>
</g>
</g>
<!-- Node10 -->
<g id="Node000010" class="node">
<title>Node10</title>
<g id="a_Node000010"><a xlink:href="classEquipmentUIHandler.html#a36609bab2603d9760f69e61c2ff4dbde" target="_top" xlink:title="구매 버튼 클릭 시 호출됩니다. 재화를 차감하고, 장비 효과를 적용하며, 버튼 색상도 변경됩니다.">
<polygon fill="white" stroke="#666666" points="234,-73.5 0,-73.5 0,-52.5 234,-52.5 234,-73.5"/>
<text text-anchor="middle" x="117" y="-59.9" font-family="Consolas" font-size="12.00">EquipmentUIHandler.OnClickBuy</text>
</a>
</g>
</g>
<!-- Node9&#45;&gt;Node10 -->
<g id="edge9_Node000009_Node000010" class="edge">
<title>Node9&#45;&gt;Node10</title>
<g id="a_edge9_Node000009_Node000010"><a xlink:title=" ">
<path fill="none" stroke="#63b8ff" d="M271.07,-62.44C258.79,-62.48 246.33,-62.53 234.08,-62.57"/>
<polygon fill="#63b8ff" stroke="#63b8ff" points="271.34,-65.94 281.33,-62.4 271.31,-58.94 271.34,-65.94"/>
</a>
</g>
</g>
<!-- Node11 -->
<g id="Node000011" class="node">
<title>Node11</title>
<g id="a_Node000011"><a xlink:href="classEquipmentUIHandler.html#a64413f18f8e2e2448bdde4a42834a9df" target="_top" xlink:title="ok 버튼 눌러 장비를 선원에게 직접 적용 / 해제">
<polygon fill="white" stroke="#666666" points="223,-34 11,-34 11,0 223,0 223,-34"/>
<text text-anchor="start" x="19" y="-20.4" font-family="Consolas" font-size="12.00">EquipmentUIHandler.OnClick</text>
<text text-anchor="middle" x="117" y="-7.4" font-family="Consolas" font-size="12.00">StatApplyButton</text>
</a>
</g>
</g>
<!-- Node9&#45;&gt;Node11 -->
<g id="edge10_Node000009_Node000011" class="edge">
<title>Node9&#45;&gt;Node11</title>
<g id="a_edge10_Node000009_Node000011"><a xlink:title=" ">
<path fill="none" stroke="#63b8ff" d="M277.19,-43.34C258.57,-40.26 239.34,-37.08 220.98,-34.04"/>
<polygon fill="#63b8ff" stroke="#63b8ff" points="276.73,-46.81 287.17,-44.99 277.87,-39.9 276.73,-46.81"/>
</a>
</g>
</g>
<!-- Node12&#45;&gt;Node11 -->
<g id="edge16_Node000012_Node000011" class="edge">
<title>Node12&#45;&gt;Node11</title>
<g id="a_edge16_Node000012_Node000011"><a xlink:title=" ">
<path fill="none" stroke="#63b8ff" d="M826.42,-17C665.95,-17 377.98,-17 223.22,-17"/>
<polygon fill="#63b8ff" stroke="#63b8ff" points="826.8,-20.5 836.8,-17 826.8,-13.5 826.8,-20.5"/>
</a>
</g>
</g>
<!-- Node13&#45;&gt;Node7 -->
<g id="edge18_Node000013_Node000007" class="edge">
<title>Node13&#45;&gt;Node7</title>
<g id="a_edge18_Node000013_Node000007"><a xlink:title=" ">
<path fill="none" stroke="#63b8ff" d="M263.84,-220.37C247.7,-218.12 231.38,-215.84 215.78,-213.66"/>
<polygon fill="#63b8ff" stroke="#63b8ff" points="263.47,-223.86 273.86,-221.77 264.44,-216.92 263.47,-223.86"/>
</a>
</g>
</g>
</g>
</svg>

<g id="navigator" transform="translate(0 0)" fill="#404254">
  <rect fill="#f2f5e9" fill-opacity="0.5" stroke="#606060" stroke-width=".5" x="0" y="0" width="60" height="60"/>
  <use id="zoomplus" xlink:href="#zoomPlus" x="17" y="9" onmousedown="handleZoom(evt,'in')"/>
  <use id="zoomminus" xlink:href="#zoomMin" x="42" y="9" onmousedown="handleZoom(evt,'out')"/>
  <use id="reset" xlink:href="#resetDef" x="30" y="36" onmousedown="handleReset()"/>
   <use id="arrowup" xlink:href="#arrowUp" x="0" y="0" onmousedown="handlePan(0,-1)"/>
  <use id="arrowright" xlink:href="#arrowRight" x="0" y="0" onmousedown="handlePan(1,0)"/>
  <use id="arrowdown" xlink:href="#arrowDown" x="0" y="0" onmousedown="handlePan(0,1)"/>
  <use id="arrowleft" xlink:href="#arrowLeft" x="0" y="0" onmousedown="handlePan(-1,0)"/>
</g>
<svg viewBox="0 0 15 15" width="100%" height="30px" preserveAspectRatio="xMaxYMin meet">
 <g id="arrow_out" transform="scale(0.3 0.3)">
  <a xlink:href="classCrewMember_a4eba19a797d1f5b3bcaa0c36b695f245_icgraph_org.svg" target="_base">
   <rect id="button" ry="5" rx="5" y="6" x="6" height="38" width="38"
        fill="#f2f5e9" fill-opacity="0.5" stroke="#606060" stroke-width="1.0"/>
   <path id="arrow"
     d="M 11.500037,31.436501 C 11.940474,20.09759 22.043105,11.32322 32.158766,21.979434 L 37.068811,17.246167 C 37.068811,17.246167 37.088388,32 37.088388,32 L 22.160133,31.978069 C 22.160133,31.978069 26.997745,27.140456 26.997745,27.140456 C 18.528582,18.264221 13.291696,25.230495 11.500037,31.436501 z"
     style="fill:#404040;"/>
  </a>
 </g>
</svg>

<style type='text/css'>
<![CDATA[
[data-mouse-over-selected='false'] { opacity: 0.7; }
[data-mouse-over-selected='true']  { opacity: 1.0; }
]]>
</style>
<script type="application/ecmascript"><![CDATA[
document.addEventListener('DOMContentLoaded', (event) => {
  highlightEdges();
  highlightAdjacentNodes();
});
]]></script>
</svg>
