<?xml version="1.0" encoding="UTF-8" standalone="no"?>
<!DOCTYPE svg PUBLIC "-//W3C//DTD SVG 1.1//EN"
 "http://www.w3.org/Graphics/SVG/1.1/DTD/svg11.dtd">
<!-- Generated by graphviz version 2.43.0 (0)
 -->
<!-- Title: BlueprintInventoryUI.FilterByCategory Pages: 1 -->
<!--zoomable 342 -->

<svg id="main" version="1.1" xmlns="http://www.w3.org/2000/svg" xmlns:xlink="http://www.w3.org/1999/xlink" xml:space="preserve" onload="init(evt)">
<style type="text/css"><![CDATA[
.node, .edge {opacity: 0.7;}
.node.selected, .edge.selected {opacity: 1;}
.edge:hover path { stroke: red; }
.edge:hover polygon { stroke: red; fill: red; }
]]></style>

<defs>
  <circle id="rim" cx="0" cy="0" r="7"/>
  <circle id="rim2" cx="0" cy="0" r="3.5"/>
  <g id="zoomPlus">
    <use xlink:href="#rim" fill="#404040"><set attributeName="fill" to="#808080" begin="zoomplus.mouseover" end="zoomplus.mouseout"/></use>
    <path d="M-4,0h8M0,-4v8" fill="none" stroke="white" stroke-width="1.5" pointer-events="none"/>
  </g>
  <g id="zoomMin">
    <use xlink:href="#rim" fill="#404040"><set attributeName="fill" to="#808080" begin="zoomminus.mouseover" end="zoomminus.mouseout"/></use>
    <path d="M-4,0h8" fill="none" stroke="white" stroke-width="1.5" pointer-events="none"/>
  </g>
  <g id="arrowUp" transform="translate(30 24)">
    <use xlink:href="#rim"/>
    <path pointer-events="none" fill="none" stroke="white" stroke-width="1.5" d="M0,-3.0v7 M-2.5,-0.5L0,-3.0L2.5,-0.5"/>
  </g>
  <g id="arrowRight" transform="rotate(90) translate(36 -43)">
    <use xlink:href="#rim"/>
    <path pointer-events="none" fill="none" stroke="white" stroke-width="1.5" d="M0,-3.0v7 M-2.5,-0.5L0,-3.0L2.5,-0.5"/>
  </g>
  <g id="arrowDown" transform="rotate(180) translate(-30 -48)">
    <use xlink:href="#rim"/>
    <path pointer-events="none" fill="none" stroke="white" stroke-width="1.5" d="M0,-3.0v7 M-2.5,-0.5L0,-3.0L2.5,-0.5"/>
  </g>
  <g id="arrowLeft" transform="rotate(270) translate(-36 17)">
    <use xlink:href="#rim"/>
    <path pointer-events="none" fill="none" stroke="white" stroke-width="1.5" d="M0,-3.0v7 M-2.5,-0.5L0,-3.0L2.5,-0.5"/>
  </g>
  <g id="resetDef">
    <use xlink:href="#rim2" fill="#404040"><set attributeName="fill" to="#808080" begin="reset.mouseover" end="reset.mouseout"/></use>
  </g>
</defs>
<script type="application/ecmascript">
var viewWidth = 775;
var viewHeight = 342;
var sectionId = 'dynsection-3';
</script>
<script type="application/ecmascript" xlink:href="svg.min.js"/>
<svg id="graph" class="graph">
<g id="viewport">
<title>BlueprintInventoryUI.FilterByCategory</title>
<!-- Node1 -->
<g id="Node000001" class="node">
<title>Node1</title>
<g id="a_Node000001"><a xlink:title="카테고리 별 분류 후 인벤토리에 방 호출">
<polygon fill="#999999" stroke="#666666" points="767,-177.5 548,-177.5 548,-143.5 767,-143.5 767,-177.5"/>
<text text-anchor="start" x="556" y="-163.9" font-family="Consolas" font-size="12.00">BlueprintInventoryUI.Filter</text>
<text text-anchor="middle" x="657.5" y="-150.9" font-family="Consolas" font-size="12.00">ByCategory</text>
</a>
</g>
</g>
<!-- Node2 -->
<g id="Node000002" class="node">
<title>Node2</title>
<g id="a_Node000002"><a xlink:href="classCustomize__1__Controller.html#aa35f4f305d8242a209520c05d6c3a2d9" target="_top" xlink:title="CustomizeShipUI 활성화 시 아래 작업 수행 : 그리드 생성 및 그리드 저장 오브젝트 활성화 작업하던 설계도 방 호출, 배치 카메라 중앙값 세팅">
<polygon fill="white" stroke="#666666" points="489.5,-333.5 285.5,-333.5 285.5,-299.5 489.5,-299.5 489.5,-333.5"/>
<text text-anchor="start" x="293.5" y="-319.9" font-family="Consolas" font-size="12.00">Customize_1_Controller.On</text>
<text text-anchor="middle" x="387.5" y="-306.9" font-family="Consolas" font-size="12.00">Enable</text>
</a>
</g>
</g>
<!-- Node1&#45;&gt;Node2 -->
<g id="edge1_Node000001_Node000002" class="edge">
<title>Node1&#45;&gt;Node2</title>
<g id="a_edge1_Node000001_Node000002"><a xlink:title=" ">
<path fill="none" stroke="#63b8ff" d="M636.27,-185.37C610.6,-215.18 563.42,-264.37 512,-290.5 504.97,-294.07 497.47,-297.15 489.78,-299.81"/>
<polygon fill="#63b8ff" stroke="#63b8ff" points="639.13,-187.4 642.93,-177.51 633.79,-182.88 639.13,-187.4"/>
</a>
</g>
</g>
<!-- Node3 -->
<g id="Node000003" class="node">
<title>Node3</title>
<g id="a_Node000003"><a xlink:href="classBlueprintCategoryButtonHandler.html#a026fcdc9661beb2781142152ac7ad9c6" target="_top" xlink:title="보조 시설 &#45; 인벤토리에 호출">
<polygon fill="white" stroke="#666666" points="512,-281.5 263,-281.5 263,-247.5 512,-247.5 512,-281.5"/>
<text text-anchor="start" x="271" y="-267.9" font-family="Consolas" font-size="12.00">BlueprintCategoryButtonHandler.</text>
<text text-anchor="middle" x="387.5" y="-254.9" font-family="Consolas" font-size="12.00">ShowAuxiliary</text>
</a>
</g>
</g>
<!-- Node1&#45;&gt;Node3 -->
<g id="edge2_Node000001_Node000003" class="edge">
<title>Node1&#45;&gt;Node3</title>
<g id="a_edge2_Node000001_Node000003"><a xlink:title=" ">
<path fill="none" stroke="#63b8ff" d="M621.67,-183.01C593.2,-200.48 551.37,-224.07 512,-238.5 502.84,-241.85 493.14,-244.83 483.36,-247.45"/>
<polygon fill="#63b8ff" stroke="#63b8ff" points="623.77,-185.82 630.42,-177.57 620.08,-179.88 623.77,-185.82"/>
</a>
</g>
</g>
<!-- Node5 -->
<g id="Node000005" class="node">
<title>Node5</title>
<g id="a_Node000005"><a xlink:href="classBlueprintCategoryButtonHandler.html#af99bd86d6d0bd98c7cab019b0bd50838" target="_top" xlink:title="필수 시설 &#45; 인벤토리에 호출">
<polygon fill="white" stroke="#666666" points="512,-229.5 263,-229.5 263,-195.5 512,-195.5 512,-229.5"/>
<text text-anchor="start" x="271" y="-215.9" font-family="Consolas" font-size="12.00">BlueprintCategoryButtonHandler.</text>
<text text-anchor="middle" x="387.5" y="-202.9" font-family="Consolas" font-size="12.00">ShowEssential</text>
</a>
</g>
</g>
<!-- Node1&#45;&gt;Node5 -->
<g id="edge4_Node000001_Node000005" class="edge">
<title>Node1&#45;&gt;Node5</title>
<g id="a_edge4_Node000001_Node000005"><a xlink:title=" ">
<path fill="none" stroke="#63b8ff" d="M558.91,-179.43C531.94,-184.67 502.84,-190.31 476.45,-195.44"/>
<polygon fill="#63b8ff" stroke="#63b8ff" points="559.6,-182.87 568.75,-177.53 558.26,-176 559.6,-182.87"/>
</a>
</g>
</g>
<!-- Node6 -->
<g id="Node000006" class="node">
<title>Node6</title>
<g id="a_Node000006"><a xlink:href="classBlueprintCategoryButtonHandler.html#aec39fe0caf4357a68597c4014c7cbcec" target="_top" xlink:title="복도 &#45; 인벤토리에 호출">
<polygon fill="white" stroke="#666666" points="512,-177.5 263,-177.5 263,-143.5 512,-143.5 512,-177.5"/>
<text text-anchor="start" x="271" y="-163.9" font-family="Consolas" font-size="12.00">BlueprintCategoryButtonHandler.</text>
<text text-anchor="middle" x="387.5" y="-150.9" font-family="Consolas" font-size="12.00">ShowEtc</text>
</a>
</g>
</g>
<!-- Node1&#45;&gt;Node6 -->
<g id="edge6_Node000001_Node000006" class="edge">
<title>Node1&#45;&gt;Node6</title>
<g id="a_edge6_Node000001_Node000006"><a xlink:title=" ">
<path fill="none" stroke="#63b8ff" d="M537.63,-160.5C529.19,-160.5 520.66,-160.5 512.19,-160.5"/>
<polygon fill="#63b8ff" stroke="#63b8ff" points="537.88,-164 547.88,-160.5 537.88,-157 537.88,-164"/>
</a>
</g>
</g>
<!-- Node7 -->
<g id="Node000007" class="node">
<title>Node7</title>
<g id="a_Node000007"><a xlink:href="classBlueprintCategoryButtonHandler.html#ae30670a8337edc32e4fdea3d22c9feb2" target="_top" xlink:title="생활활 시설 &#45; 인벤토리에 호출">
<polygon fill="white" stroke="#666666" points="512,-125.5 263,-125.5 263,-91.5 512,-91.5 512,-125.5"/>
<text text-anchor="start" x="271" y="-111.9" font-family="Consolas" font-size="12.00">BlueprintCategoryButtonHandler.</text>
<text text-anchor="middle" x="387.5" y="-98.9" font-family="Consolas" font-size="12.00">ShowLiving</text>
</a>
</g>
</g>
<!-- Node1&#45;&gt;Node7 -->
<g id="edge8_Node000001_Node000007" class="edge">
<title>Node1&#45;&gt;Node7</title>
<g id="a_edge8_Node000001_Node000007"><a xlink:title=" ">
<path fill="none" stroke="#63b8ff" d="M558.91,-141.57C531.94,-136.33 502.84,-130.69 476.45,-125.56"/>
<polygon fill="#63b8ff" stroke="#63b8ff" points="558.26,-145 568.75,-143.47 559.6,-138.13 558.26,-145"/>
</a>
</g>
</g>
<!-- Node8 -->
<g id="Node000008" class="node">
<title>Node8</title>
<g id="a_Node000008"><a xlink:href="classBlueprintCategoryButtonHandler.html#a5473325806b25140ff1d614804c16b3c" target="_top" xlink:title="저장고 &#45; 인벤토리에 호출">
<polygon fill="white" stroke="#666666" points="512,-73.5 263,-73.5 263,-39.5 512,-39.5 512,-73.5"/>
<text text-anchor="start" x="271" y="-59.9" font-family="Consolas" font-size="12.00">BlueprintCategoryButtonHandler.</text>
<text text-anchor="middle" x="387.5" y="-46.9" font-family="Consolas" font-size="12.00">ShowStorage</text>
</a>
</g>
</g>
<!-- Node1&#45;&gt;Node8 -->
<g id="edge10_Node000001_Node000008" class="edge">
<title>Node1&#45;&gt;Node8</title>
<g id="a_edge10_Node000001_Node000008"><a xlink:title=" ">
<path fill="none" stroke="#63b8ff" d="M621.67,-137.99C593.2,-120.52 551.37,-96.93 512,-82.5 502.84,-79.15 493.14,-76.17 483.36,-73.55"/>
<polygon fill="#63b8ff" stroke="#63b8ff" points="620.08,-141.12 630.42,-143.43 623.77,-135.18 620.08,-141.12"/>
</a>
</g>
</g>
<!-- Node9 -->
<g id="Node000009" class="node">
<title>Node9</title>
<g id="a_Node000009"><a xlink:href="classBlueprintInventoryUI.html#a8252cd8e83d16cf5a87770ee86c16c46" target="_top" xlink:title="방 UI에 대해 항상 Essential 카테고리로 초기화">
<polygon fill="white" stroke="#666666" points="493.5,-21 281.5,-21 281.5,0 493.5,0 493.5,-21"/>
<text text-anchor="middle" x="387.5" y="-7.4" font-family="Consolas" font-size="12.00">BlueprintInventoryUI.Start</text>
</a>
</g>
</g>
<!-- Node1&#45;&gt;Node9 -->
<g id="edge12_Node000001_Node000009" class="edge">
<title>Node1&#45;&gt;Node9</title>
<g id="a_edge12_Node000001_Node000009"><a xlink:title=" ">
<path fill="none" stroke="#63b8ff" d="M636.47,-135.23C611,-105.01 564.02,-55.41 512,-30.5 504.07,-26.7 495.55,-23.6 486.84,-21.08"/>
<polygon fill="#63b8ff" stroke="#63b8ff" points="634,-137.73 643.07,-143.2 639.39,-133.26 634,-137.73"/>
</a>
</g>
</g>
<!-- Node4 -->
<g id="Node000004" class="node">
<title>Node4</title>
<g id="a_Node000004"><a xlink:href="classCustomize__1__Controller.html#aec55e07635dd1dfd43176946b3dd6f2b" target="_top" xlink:title="button 클릭 함수 연결">
<polygon fill="white" stroke="#666666" points="227,-171 0,-171 0,-150 227,-150 227,-171"/>
<text text-anchor="middle" x="113.5" y="-157.4" font-family="Consolas" font-size="12.00">Customize_1_Controller.Start</text>
</a>
</g>
</g>
<!-- Node3&#45;&gt;Node4 -->
<g id="edge3_Node000003_Node000004" class="edge">
<title>Node3&#45;&gt;Node4</title>
<g id="a_edge3_Node000003_Node000004"><a xlink:title=" ">
<path fill="none" stroke="#63b8ff" d="M282.3,-244.74C275.72,-242.82 269.23,-240.74 263,-238.5 212.58,-220.35 157.93,-188 131.17,-171.23"/>
<polygon fill="#63b8ff" stroke="#63b8ff" points="281.44,-248.13 292.01,-247.43 283.31,-241.39 281.44,-248.13"/>
</a>
</g>
</g>
<!-- Node5&#45;&gt;Node4 -->
<g id="edge5_Node000005_Node000004" class="edge">
<title>Node5&#45;&gt;Node4</title>
<g id="a_edge5_Node000005_Node000004"><a xlink:title=" ">
<path fill="none" stroke="#63b8ff" d="M287.44,-193.56C247.71,-185.97 203.43,-177.5 169.63,-171.04"/>
<polygon fill="#63b8ff" stroke="#63b8ff" points="286.96,-197.03 297.44,-195.47 288.27,-190.16 286.96,-197.03"/>
</a>
</g>
</g>
<!-- Node6&#45;&gt;Node4 -->
<g id="edge7_Node000006_Node000004" class="edge">
<title>Node6&#45;&gt;Node4</title>
<g id="a_edge7_Node000006_Node000004"><a xlink:title=" ">
<path fill="none" stroke="#63b8ff" d="M252.75,-160.5C244.15,-160.5 235.53,-160.5 227.04,-160.5"/>
<polygon fill="#63b8ff" stroke="#63b8ff" points="252.84,-164 262.84,-160.5 252.84,-157 252.84,-164"/>
</a>
</g>
</g>
<!-- Node7&#45;&gt;Node4 -->
<g id="edge9_Node000007_Node000004" class="edge">
<title>Node7&#45;&gt;Node4</title>
<g id="a_edge9_Node000007_Node000004"><a xlink:title=" ">
<path fill="none" stroke="#63b8ff" d="M287.44,-127.44C247.71,-135.03 203.43,-143.5 169.63,-149.96"/>
<polygon fill="#63b8ff" stroke="#63b8ff" points="288.27,-130.84 297.44,-125.53 286.96,-123.97 288.27,-130.84"/>
</a>
</g>
</g>
<!-- Node8&#45;&gt;Node4 -->
<g id="edge11_Node000008_Node000004" class="edge">
<title>Node8&#45;&gt;Node4</title>
<g id="a_edge11_Node000008_Node000004"><a xlink:title=" ">
<path fill="none" stroke="#63b8ff" d="M282.3,-76.26C275.72,-78.18 269.23,-80.26 263,-82.5 212.58,-100.65 157.93,-133 131.17,-149.77"/>
<polygon fill="#63b8ff" stroke="#63b8ff" points="283.31,-79.61 292.01,-73.57 281.44,-72.87 283.31,-79.61"/>
</a>
</g>
</g>
</g>
</svg>

<g id="navigator" transform="translate(0 0)" fill="#404254">
  <rect fill="#f2f5e9" fill-opacity="0.5" stroke="#606060" stroke-width=".5" x="0" y="0" width="60" height="60"/>
  <use id="zoomplus" xlink:href="#zoomPlus" x="17" y="9" onmousedown="handleZoom(evt,'in')"/>
  <use id="zoomminus" xlink:href="#zoomMin" x="42" y="9" onmousedown="handleZoom(evt,'out')"/>
  <use id="reset" xlink:href="#resetDef" x="30" y="36" onmousedown="handleReset()"/>
   <use id="arrowup" xlink:href="#arrowUp" x="0" y="0" onmousedown="handlePan(0,-1)"/>
  <use id="arrowright" xlink:href="#arrowRight" x="0" y="0" onmousedown="handlePan(1,0)"/>
  <use id="arrowdown" xlink:href="#arrowDown" x="0" y="0" onmousedown="handlePan(0,1)"/>
  <use id="arrowleft" xlink:href="#arrowLeft" x="0" y="0" onmousedown="handlePan(-1,0)"/>
</g>
<svg viewBox="0 0 15 15" width="100%" height="30px" preserveAspectRatio="xMaxYMin meet">
 <g id="arrow_out" transform="scale(0.3 0.3)">
  <a xlink:href="classBlueprintInventoryUI_ab12fd348917c304198c6bd0c519dea3b_icgraph_org.svg" target="_base">
   <rect id="button" ry="5" rx="5" y="6" x="6" height="38" width="38"
        fill="#f2f5e9" fill-opacity="0.5" stroke="#606060" stroke-width="1.0"/>
   <path id="arrow"
     d="M 11.500037,31.436501 C 11.940474,20.09759 22.043105,11.32322 32.158766,21.979434 L 37.068811,17.246167 C 37.068811,17.246167 37.088388,32 37.088388,32 L 22.160133,31.978069 C 22.160133,31.978069 26.997745,27.140456 26.997745,27.140456 C 18.528582,18.264221 13.291696,25.230495 11.500037,31.436501 z"
     style="fill:#404040;"/>
  </a>
 </g>
</svg>

<style type='text/css'>
<![CDATA[
[data-mouse-over-selected='false'] { opacity: 0.7; }
[data-mouse-over-selected='true']  { opacity: 1.0; }
]]>
</style>
<script type="application/ecmascript"><![CDATA[
document.addEventListener('DOMContentLoaded', (event) => {
  highlightEdges();
  highlightAdjacentNodes();
});
]]></script>
</svg>
