<?xml version="1.0" encoding="UTF-8" standalone="no"?>
<!DOCTYPE svg PUBLIC "-//W3C//DTD SVG 1.1//EN"
 "http://www.w3.org/Graphics/SVG/1.1/DTD/svg11.dtd">
<!-- Generated by graphviz version 2.43.0 (0)
 -->
<!-- Title: EventDatabase.GetEventsByOutcomeType Pages: 1 -->
<svg width="678pt" height="146pt"
 viewBox="0.00 0.00 678.00 146.00" xmlns="http://www.w3.org/2000/svg" xmlns:xlink="http://www.w3.org/1999/xlink">
<g id="graph0" class="graph" transform="scale(1 1) rotate(0) translate(4 142)">
<title>EventDatabase.GetEventsByOutcomeType</title>
<!-- Node1 -->
<g id="Node000001" class="node">
<title>Node1</title>
<g id="a_Node000001"><a xlink:title="특정 결과 타입의 모든 이벤트를 반환합니다.">
<polygon fill="#999999" stroke="#666666" points="204,-86 0,-86 0,-52 204,-52 204,-86"/>
<text text-anchor="start" x="8" y="-72.4" font-family="Consolas" font-size="12.00">EventDatabase.GetEventsBy</text>
<text text-anchor="middle" x="102" y="-59.4" font-family="Consolas" font-size="12.00">OutcomeType</text>
</a>
</g>
</g>
<!-- Node2 -->
<g id="Node000002" class="node">
<title>Node2</title>
<g id="a_Node000002"><a xlink:href="classEventDatabase.html#a6a25f9ced39cd40779d77589c6a5d5e3" target="_top" xlink:title="데이터베이스를 초기화합니다.">
<polygon fill="white" stroke="#666666" points="437,-79.5 240,-79.5 240,-58.5 437,-58.5 437,-79.5"/>
<text text-anchor="middle" x="338.5" y="-65.9" font-family="Consolas" font-size="12.00">EventDatabase.Initialize</text>
</a>
</g>
</g>
<!-- Node1&#45;&gt;Node2 -->
<g id="edge1_Node000001_Node000002" class="edge">
<title>Node1&#45;&gt;Node2</title>
<g id="a_edge1_Node000001_Node000002"><a xlink:title=" ">
<path fill="none" stroke="#63b8ff" d="M204.15,-69C212.52,-69 221.01,-69 229.43,-69"/>
<polygon fill="#63b8ff" stroke="#63b8ff" points="229.65,-72.5 239.65,-69 229.65,-65.5 229.65,-72.5"/>
</a>
</g>
</g>
<!-- Node3 -->
<g id="Node000003" class="node">
<title>Node3</title>
<g id="a_Node000003"><a xlink:href="classEventDatabase.html#a58bddc2d05739d0be281c28dafb89f47" target="_top" xlink:title="이벤트 ID 기반 딕셔너리를 초기화합니다.">
<polygon fill="white" stroke="#666666" points="670,-138 473,-138 473,-104 670,-104 670,-138"/>
<text text-anchor="start" x="481" y="-124.4" font-family="Consolas" font-size="12.00">EventDatabase.Initialize</text>
<text text-anchor="middle" x="571.5" y="-111.4" font-family="Consolas" font-size="12.00">EventDictionary</text>
</a>
</g>
</g>
<!-- Node2&#45;&gt;Node3 -->
<g id="edge2_Node000002_Node000003" class="edge">
<title>Node2&#45;&gt;Node3</title>
<g id="a_edge2_Node000002_Node000003"><a xlink:title=" ">
<path fill="none" stroke="#63b8ff" d="M386.25,-79.52C414.56,-85.9 451.55,-94.22 484.95,-101.74"/>
<polygon fill="#63b8ff" stroke="#63b8ff" points="484.2,-105.16 494.72,-103.94 485.73,-98.33 484.2,-105.16"/>
</a>
</g>
</g>
<!-- Node4 -->
<g id="Node000004" class="node">
<title>Node4</title>
<g id="a_Node000004"><a xlink:href="classEventDatabase.html#a21e1b9ef9fe4f79101721d749f153219" target="_top" xlink:title="이벤트 결과 타입별 목록을 초기화합니다.">
<polygon fill="white" stroke="#666666" points="670,-86 473,-86 473,-52 670,-52 670,-86"/>
<text text-anchor="start" x="481" y="-72.4" font-family="Consolas" font-size="12.00">EventDatabase.Initialize</text>
<text text-anchor="middle" x="571.5" y="-59.4" font-family="Consolas" font-size="12.00">EventsByOutcomeType</text>
</a>
</g>
</g>
<!-- Node2&#45;&gt;Node4 -->
<g id="edge3_Node000002_Node000004" class="edge">
<title>Node2&#45;&gt;Node4</title>
<g id="a_edge3_Node000002_Node000004"><a xlink:title=" ">
<path fill="none" stroke="#63b8ff" d="M437.13,-69C445.63,-69 454.25,-69 462.83,-69"/>
<polygon fill="#63b8ff" stroke="#63b8ff" points="462.85,-72.5 472.85,-69 462.85,-65.5 462.85,-72.5"/>
</a>
</g>
</g>
<!-- Node5 -->
<g id="Node000005" class="node">
<title>Node5</title>
<g id="a_Node000005"><a xlink:href="classEventDatabase.html#abb40e101396951c3a9638e7f8422c468" target="_top" xlink:title="이벤트 타입별 목록을 초기화합니다.">
<polygon fill="white" stroke="#666666" points="670,-34 473,-34 473,0 670,0 670,-34"/>
<text text-anchor="start" x="481" y="-20.4" font-family="Consolas" font-size="12.00">EventDatabase.Initialize</text>
<text text-anchor="middle" x="571.5" y="-7.4" font-family="Consolas" font-size="12.00">EventsByType</text>
</a>
</g>
</g>
<!-- Node2&#45;&gt;Node5 -->
<g id="edge4_Node000002_Node000005" class="edge">
<title>Node2&#45;&gt;Node5</title>
<g id="a_edge4_Node000002_Node000005"><a xlink:title=" ">
<path fill="none" stroke="#63b8ff" d="M386.25,-58.48C414.56,-52.1 451.55,-43.78 484.95,-36.26"/>
<polygon fill="#63b8ff" stroke="#63b8ff" points="485.73,-39.67 494.72,-34.06 484.2,-32.84 485.73,-39.67"/>
</a>
</g>
</g>
</g>
</svg>
