<?xml version="1.0" encoding="UTF-8" standalone="no"?>
<!DOCTYPE svg PUBLIC "-//W3C//DTD SVG 1.1//EN"
 "http://www.w3.org/Graphics/SVG/1.1/DTD/svg11.dtd">
<!-- Generated by graphviz version 2.43.0 (0)
 -->
<!-- Title: GameStateManager Pages: 1 -->
<svg width="347pt" height="280pt"
 viewBox="0.00 0.00 347.00 280.00" xmlns="http://www.w3.org/2000/svg" xmlns:xlink="http://www.w3.org/1999/xlink">
<g id="graph0" class="graph" transform="scale(1 1) rotate(0) translate(4 276)">
<title>GameStateManager</title>
<!-- Node1 -->
<g id="Node000001" class="node">
<title>Node1</title>
<g id="a_Node000001"><a xlink:title="게임의 상태 머신을 관리하는 매니저. 상태 전환 및 현재 상태의 업데이트/종료/진입 흐름을 제어합니다.">
<polygon fill="#999999" stroke="transparent" points="235.5,-132 12.5,-132 12.5,0 235.5,0 235.5,-132"/>
<text text-anchor="start" x="64" y="-118.4" font-family="Consolas" font-size="12.00">GameStateManager</text>
<text text-anchor="start" x="17" y="-101.4" font-family="Consolas" font-size="12.00">+</text>
<text text-anchor="start" x="29" y="-101.4" font-family="Consolas" font-size="12.00">static GameStateManager</text>
<text text-anchor="start" x="29" y="-88.4" font-family="Consolas" font-size="12.00"> Instance</text>
<text text-anchor="start" x="17" y="-71.4" font-family="Consolas" font-size="12.00">+</text>
<text text-anchor="start" x="29" y="-71.4" font-family="Consolas" font-size="12.00">void ChangeState(IGameState</text>
<text text-anchor="start" x="29" y="-58.4" font-family="Consolas" font-size="12.00">Machine newStateMachine)</text>
<text text-anchor="start" x="17" y="-41.4" font-family="Consolas" font-size="12.00">&#45;</text>
<text text-anchor="start" x="29" y="-41.4" font-family="Consolas" font-size="12.00">void Awake()</text>
<text text-anchor="start" x="17" y="-24.4" font-family="Consolas" font-size="12.00">&#45;</text>
<text text-anchor="start" x="29" y="-24.4" font-family="Consolas" font-size="12.00">void Start()</text>
<text text-anchor="start" x="17" y="-7.4" font-family="Consolas" font-size="12.00">&#45;</text>
<text text-anchor="start" x="29" y="-7.4" font-family="Consolas" font-size="12.00">void Update()</text>
<polygon fill="#666666" stroke="#666666" points="13,-113 13,-113 236,-113 236,-113 13,-113"/>
<polygon fill="#666666" stroke="#666666" points="13,-83 13,-83 27,-83 27,-83 13,-83"/>
<polygon fill="#666666" stroke="#666666" points="27,-83 27,-83 236,-83 236,-83 27,-83"/>
<polygon fill="none" stroke="#666666" points="12.5,0 12.5,-132 235.5,-132 235.5,0 12.5,0"/>
</a>
</g>
</g>
<!-- Node2 -->
<g id="Node000002" class="node">
<title>Node2</title>
<g id="a_Node000002"><a xlink:title=" ">
<polygon fill="white" stroke="transparent" points="108,-255 0,-255 0,-200 108,-200 108,-255"/>
<text text-anchor="start" x="5" y="-240.9" font-family="Consolas" font-size="12.00">MonoBehaviour</text>
<text text-anchor="start" x="50" y="-223.9" font-family="Consolas" font-size="12.00"> </text>
<text text-anchor="start" x="50" y="-206.9" font-family="Consolas" font-size="12.00"> </text>
<polygon fill="#bfbfbf" stroke="#bfbfbf" points="0,-235.5 0,-235.5 108,-235.5 108,-235.5 0,-235.5"/>
<polygon fill="#bfbfbf" stroke="#bfbfbf" points="0,-218.5 0,-218.5 108,-218.5 108,-218.5 0,-218.5"/>
<polygon fill="none" stroke="#bfbfbf" points="0,-200 0,-255 108,-255 108,-200 0,-200"/>
</a>
</g>
</g>
<!-- Node2&#45;&gt;Node1 -->
<g id="edge1_Node000001_Node000002" class="edge">
<title>Node2&#45;&gt;Node1</title>
<g id="a_edge1_Node000001_Node000002"><a xlink:title=" ">
<path fill="none" stroke="#63b8ff" d="M69.74,-190.64C77.33,-173.33 86.68,-152.03 95.47,-132.01"/>
<polygon fill="none" stroke="#63b8ff" points="66.53,-189.24 65.72,-199.8 72.94,-192.05 66.53,-189.24"/>
</a>
</g>
</g>
<!-- Node3 -->
<g id="Node000003" class="node">
<title>Node3</title>
<g id="a_Node000003"><a xlink:href="interfaceIGameStateMachine.html" target="_top" xlink:title="게임 상태 머신을 구현하는 인터페이스입니다. 각 상태에서 진입, 업데이트, 종료 시 호출되는 메서드를 정의합니다.">
<polygon fill="white" stroke="transparent" points="264,-272 126,-272 126,-183 264,-183 264,-272"/>
<text text-anchor="start" x="131" y="-257.9" font-family="Consolas" font-size="12.00">IGameStateMachine</text>
<text text-anchor="start" x="191" y="-240.9" font-family="Consolas" font-size="12.00"> </text>
<text text-anchor="start" x="135" y="-223.9" font-family="Consolas" font-size="12.00">+</text>
<text text-anchor="start" x="152" y="-223.9" font-family="Consolas" font-size="12.00">void Enter()</text>
<text text-anchor="start" x="135" y="-206.9" font-family="Consolas" font-size="12.00">+</text>
<text text-anchor="start" x="152" y="-206.9" font-family="Consolas" font-size="12.00">void Update()</text>
<text text-anchor="start" x="135" y="-189.9" font-family="Consolas" font-size="12.00">+</text>
<text text-anchor="start" x="152" y="-189.9" font-family="Consolas" font-size="12.00">void Exit()</text>
<polygon fill="#666666" stroke="#666666" points="126,-252.5 126,-252.5 264,-252.5 264,-252.5 126,-252.5"/>
<polygon fill="#666666" stroke="#666666" points="126,-235.5 126,-235.5 264,-235.5 264,-235.5 126,-235.5"/>
<polygon fill="none" stroke="#666666" points="126,-183 126,-272 264,-272 264,-183 126,-183"/>
</a>
</g>
</g>
<!-- Node3&#45;&gt;Node1 -->
<g id="edge2_Node000001_Node000003" class="edge">
<title>Node3&#45;&gt;Node1</title>
<g id="a_edge2_Node000001_Node000003"><a xlink:title=" ">
<path fill="none" stroke="#63b8ff" d="M175.6,-182.92C170.15,-170.67 164.05,-156.97 158.01,-143.41"/>
<polygon fill="none" stroke="#63b8ff" points="157.85,-143.04 151.75,-139.18 152.97,-132.08 159.06,-135.93 157.85,-143.04"/>
</a>
</g>
<text text-anchor="middle" x="252" y="-153.8" font-family="Consolas" font-size="14.00" fill="grey"> &#45;currentStateMachine</text>
</g>
</g>
</svg>
