<?xml version="1.0" encoding="UTF-8" standalone="no"?>
<!DOCTYPE svg PUBLIC "-//W3C//DTD SVG 1.1//EN"
 "http://www.w3.org/Graphics/SVG/1.1/DTD/svg11.dtd">
<!-- Generated by graphviz version 2.43.0 (0)
 -->
<!-- Title: Ship.GetTotalShipValue Pages: 1 -->
<svg width="460pt" height="186pt"
 viewBox="0.00 0.00 460.00 185.50" xmlns="http://www.w3.org/2000/svg" xmlns:xlink="http://www.w3.org/1999/xlink">

<svg id="main" version="1.1" xmlns="http://www.w3.org/2000/svg" xmlns:xlink="http://www.w3.org/1999/xlink" xml:space="preserve" onload="init(evt)">
<style type="text/css"><![CDATA[
.node, .edge {opacity: 0.7;}
.node.selected, .edge.selected {opacity: 1;}
.edge:hover path { stroke: red; }
.edge:hover polygon { stroke: red; fill: red; }
]]></style>
<script type="application/ecmascript" xlink:href="svg.min.js"/>
<svg id="graph" class="graph">
<g id="graph0" class="graph" transform="scale(1 1) rotate(0) translate(4 181.5)">
<title>Ship.GetTotalShipValue</title>
<!-- Node1 -->
<g id="Node000001" class="node">
<title>Node1</title>
<g id="a_Node000001"><a xlink:title="현재 함선에 포함된 모든 방의 가격 합을 반환">
<polygon fill="#999999" stroke="#666666" points="452,-93 270,-93 270,-72 452,-72 452,-93"/>
<text text-anchor="middle" x="361" y="-79.4" font-family="Consolas" font-size="12.00">Ship.GetTotalShipValue</text>
</a>
</g>
</g>
<!-- Node2 -->
<g id="Node000002" class="node">
<title>Node2</title>
<g id="a_Node000002"><a xlink:href="classCustomizeShipUIHandler.html#a0a87df1bbf10a142bcfb73c4634a7bd4" target="_top" xlink:title="&#39;함선 제작&#39; 버튼 클릭 시 호출. 조건 만족 시 기존 함선을 설계도의 함선으로 교체합니다. 이후 방, 문의 연결 유효성 검사 수행 후 만족 여부에 따라 실제 함선으로 교체,...">
<polygon fill="white" stroke="#666666" points="219,-177.5 15,-177.5 15,-143.5 219,-143.5 219,-177.5"/>
<text text-anchor="start" x="23" y="-163.9" font-family="Consolas" font-size="12.00">CustomizeShipUIHandler.On</text>
<text text-anchor="middle" x="117" y="-150.9" font-family="Consolas" font-size="12.00">ClickBuild</text>
</a>
</g>
</g>
<!-- Node1&#45;&gt;Node2 -->
<g id="edge1_Node000001_Node000002" class="edge">
<title>Node1&#45;&gt;Node2</title>
<g id="a_edge1_Node000001_Node000002"><a xlink:title=" ">
<path fill="none" stroke="#63b8ff" d="M328.28,-97.37C303.13,-108.71 266.87,-124.12 234,-134.5 223.77,-137.73 212.9,-140.72 202.09,-143.44"/>
<polygon fill="#63b8ff" stroke="#63b8ff" points="330.02,-100.42 337.67,-93.08 327.12,-94.05 330.02,-100.42"/>
</a>
</g>
</g>
<!-- Node3 -->
<g id="Node000003" class="node">
<title>Node3</title>
<g id="a_Node000003"><a xlink:href="classCustomize__2__Controller.html#a4f017401dbc31501a4109324ccec2bd7" target="_top" xlink:title="&#39;함선 제작&#39; 버튼 클릭 시 호출. 조건 만족 시 기존 함선을 설계도의 함선으로 교체합니다. 이후 방, 문의 연결 유효성 검사 수행 후 만족 여부에 따라 실제 함선으로 교체,...">
<polygon fill="white" stroke="#666666" points="219,-125.5 15,-125.5 15,-91.5 219,-91.5 219,-125.5"/>
<text text-anchor="start" x="23" y="-111.9" font-family="Consolas" font-size="12.00">Customize_2_Controller.On</text>
<text text-anchor="middle" x="117" y="-98.9" font-family="Consolas" font-size="12.00">ClickBuy</text>
</a>
</g>
</g>
<!-- Node1&#45;&gt;Node3 -->
<g id="edge2_Node000001_Node000003" class="edge">
<title>Node1&#45;&gt;Node3</title>
<g id="a_edge2_Node000001_Node000003"><a xlink:title=" ">
<path fill="none" stroke="#63b8ff" d="M259.73,-93.27C246.33,-94.71 232.59,-96.19 219.18,-97.63"/>
<polygon fill="#63b8ff" stroke="#63b8ff" points="260.32,-96.73 269.89,-92.18 259.57,-89.77 260.32,-96.73"/>
</a>
</g>
</g>
<!-- Node4 -->
<g id="Node000004" class="node">
<title>Node4</title>
<g id="a_Node000004"><a xlink:href="classCustomize__2__Controller.html#ad190ea208317fc26a5c88d844be8922a" target="_top" xlink:title="현재 설계도의 가격 지속 갱신 설계도로 함선 교체 가능 조건">
<polygon fill="white" stroke="#666666" points="219,-73.5 15,-73.5 15,-39.5 219,-39.5 219,-73.5"/>
<text text-anchor="start" x="23" y="-59.9" font-family="Consolas" font-size="12.00">Customize_2_Controller.On</text>
<text text-anchor="middle" x="117" y="-46.9" font-family="Consolas" font-size="12.00">Enable</text>
</a>
</g>
</g>
<!-- Node1&#45;&gt;Node4 -->
<g id="edge3_Node000001_Node000004" class="edge">
<title>Node1&#45;&gt;Node4</title>
<g id="a_edge3_Node000001_Node000004"><a xlink:title=" ">
<path fill="none" stroke="#63b8ff" d="M259.73,-71.73C246.33,-70.29 232.59,-68.81 219.18,-67.37"/>
<polygon fill="#63b8ff" stroke="#63b8ff" points="259.57,-75.23 269.89,-72.82 260.32,-68.27 259.57,-75.23"/>
</a>
</g>
</g>
<!-- Node5 -->
<g id="Node000005" class="node">
<title>Node5</title>
<g id="a_Node000005"><a xlink:href="classCustomizeShipUIHandler.html#adde307bcbd691ffa7aef84998ef3f69a" target="_top" xlink:title="현재 설계도의 가격 지속 갱신 설계도로 함선 교체 가능 조건">
<polygon fill="white" stroke="#666666" points="234,-21 0,-21 0,0 234,0 234,-21"/>
<text text-anchor="middle" x="117" y="-7.4" font-family="Consolas" font-size="12.00">CustomizeShipUIHandler.Update</text>
</a>
</g>
</g>
<!-- Node1&#45;&gt;Node5 -->
<g id="edge4_Node000001_Node000005" class="edge">
<title>Node1&#45;&gt;Node5</title>
<g id="a_edge4_Node000001_Node000005"><a xlink:title=" ">
<path fill="none" stroke="#63b8ff" d="M329.32,-67.6C304.22,-55.95 267.52,-40.18 234,-30.5 221.04,-26.76 207.05,-23.62 193.43,-21.01"/>
<polygon fill="#63b8ff" stroke="#63b8ff" points="328.13,-70.9 338.67,-71.99 331.11,-64.57 328.13,-70.9"/>
</a>
</g>
</g>
</g>
</svg>
</svg>

<style type='text/css'>
<![CDATA[
[data-mouse-over-selected='false'] { opacity: 0.7; }
[data-mouse-over-selected='true']  { opacity: 1.0; }
]]>
</style>
<script type="application/ecmascript"><![CDATA[
document.addEventListener('DOMContentLoaded', (event) => {
  highlightEdges();
  highlightAdjacentNodes();
});
]]></script>
</svg>
