<?xml version="1.0" encoding="UTF-8" standalone="no"?>
<!DOCTYPE svg PUBLIC "-//W3C//DTD SVG 1.1//EN"
 "http://www.w3.org/Graphics/SVG/1.1/DTD/svg11.dtd">
<!-- Generated by graphviz version 2.43.0 (0)
 -->
<!-- Title: Ship.OnRoomStateChanged Pages: 1 -->
<svg width="1188pt" height="459pt"
 viewBox="0.00 0.00 1188.00 458.50" xmlns="http://www.w3.org/2000/svg" xmlns:xlink="http://www.w3.org/1999/xlink">
<g id="graph0" class="graph" transform="scale(1 1) rotate(0) translate(4 454.5)">
<title>Ship.OnRoomStateChanged</title>
<!-- Node1 -->
<g id="Node000001" class="node">
<title>Node1</title>
<g id="a_Node000001"><a xlink:title="룸의 상태가 변경되었을 때 호출되는 콜백 함수입니다. 디버그 로그를 출력하고 전체 스탯을 다시 계산합니다.">
<polygon fill="#999999" stroke="#666666" points="189,-229.5 0,-229.5 0,-208.5 189,-208.5 189,-229.5"/>
<text text-anchor="middle" x="94.5" y="-215.9" font-family="Consolas" font-size="12.00">Ship.OnRoomStateChanged</text>
</a>
</g>
</g>
<!-- Node2 -->
<g id="Node000002" class="node">
<title>Node2</title>
<g id="a_Node000002"><a xlink:href="classShip.html#a8f3f2bdca106f32f2d4c2b3f892a139f" target="_top" xlink:title="현재 함선의 모든 스탯을 다시 계산합니다. 방, 시스템, 선원의 기여도를 반영합니다.">
<polygon fill="white" stroke="#666666" points="422,-229.5 225,-229.5 225,-208.5 422,-208.5 422,-229.5"/>
<text text-anchor="middle" x="323.5" y="-215.9" font-family="Consolas" font-size="12.00">Ship.RecalculateAllStats</text>
</a>
</g>
</g>
<!-- Node1&#45;&gt;Node2 -->
<g id="edge1_Node000001_Node000002" class="edge">
<title>Node1&#45;&gt;Node2</title>
<g id="a_edge1_Node000001_Node000002"><a xlink:title=" ">
<path fill="none" stroke="#63b8ff" d="M189.14,-219C197.48,-219 205.96,-219 214.4,-219"/>
<polygon fill="#63b8ff" stroke="#63b8ff" points="214.67,-222.5 224.67,-219 214.67,-215.5 214.67,-222.5"/>
</a>
</g>
</g>
<!-- Node3 -->
<g id="Node000003" class="node">
<title>Node3</title>
<g id="a_Node000003"><a xlink:href="classMoraleSystem.html#aa5e29aef57bec024e207404bb90894b3" target="_top" xlink:title="현재 함선의 전체 사기 수치를 계산합니다. 생명유지실과 승무원 침실이 기여하며, 승무원 수가 수용 가능 인원을 초과할 경우 패널티가 적용됩니다.">
<polygon fill="white" stroke="#666666" points="692.5,-438 465.5,-438 465.5,-404 692.5,-404 692.5,-438"/>
<text text-anchor="start" x="473.5" y="-424.4" font-family="Consolas" font-size="12.00">MoraleSystem.CalculateGlobal</text>
<text text-anchor="middle" x="579" y="-411.4" font-family="Consolas" font-size="12.00">Morale</text>
</a>
</g>
</g>
<!-- Node2&#45;&gt;Node3 -->
<g id="edge2_Node000002_Node000003" class="edge">
<title>Node2&#45;&gt;Node3</title>
<g id="a_edge2_Node000002_Node000003"><a xlink:title=" ">
<path fill="none" stroke="#63b8ff" d="M329.3,-229.81C343.76,-261.01 390.09,-351.7 458,-395 460.49,-396.58 463.05,-398.07 465.69,-399.47"/>
<polygon fill="#63b8ff" stroke="#63b8ff" points="464.34,-402.71 474.87,-403.9 467.37,-396.4 464.34,-402.71"/>
</a>
</g>
</g>
<!-- Node7 -->
<g id="Node000007" class="node">
<title>Node7</title>
<g id="a_Node000007"><a xlink:href="classCrewSystem.html#a211d4d37de0e70c08101ad8733367bd7" target="_top" xlink:title="현재 탑승 중인 아군, 적군 포함 모든 크루 객체의 목록을 반환합니다.">
<polygon fill="white" stroke="#666666" points="658.5,-385.5 499.5,-385.5 499.5,-364.5 658.5,-364.5 658.5,-385.5"/>
<text text-anchor="middle" x="579" y="-371.9" font-family="Consolas" font-size="12.00">CrewSystem.GetCrews</text>
</a>
</g>
</g>
<!-- Node2&#45;&gt;Node7 -->
<g id="edge6_Node000002_Node000007" class="edge">
<title>Node2&#45;&gt;Node7</title>
<g id="a_edge6_Node000002_Node000007"><a xlink:title=" ">
<path fill="none" stroke="#63b8ff" d="M331.34,-229.81C348.78,-256.35 397.84,-324.85 458,-356 467.68,-361.01 478.34,-364.77 489.2,-367.59"/>
<polygon fill="#63b8ff" stroke="#63b8ff" points="488.66,-371.06 499.19,-369.91 490.25,-364.24 488.66,-371.06"/>
</a>
</g>
</g>
<!-- Node8 -->
<g id="Node000008" class="node">
<title>Node8</title>
<g id="a_Node000008"><a xlink:href="classOuterHullData.html#a51ad6d062c547a1cad0fb2c08ff593eb" target="_top" xlink:title="지정한 레벨에 해당하는 외갑판 데이터를 반환합니다.">
<polygon fill="white" stroke="#666666" points="700,-346.5 458,-346.5 458,-325.5 700,-325.5 700,-346.5"/>
<text text-anchor="middle" x="579" y="-332.9" font-family="Consolas" font-size="12.00">OuterHullData.GetOuterHullData</text>
</a>
</g>
</g>
<!-- Node2&#45;&gt;Node8 -->
<g id="edge7_Node000002_Node000008" class="edge">
<title>Node2&#45;&gt;Node8</title>
<g id="a_edge7_Node000002_Node000008"><a xlink:title=" ">
<path fill="none" stroke="#63b8ff" d="M335.18,-229.53C356.5,-249.89 406.74,-294.52 458,-316 464.15,-318.58 470.61,-320.82 477.21,-322.78"/>
<polygon fill="#63b8ff" stroke="#63b8ff" points="476.39,-326.18 486.96,-325.44 478.23,-319.43 476.39,-326.18"/>
</a>
</g>
</g>
<!-- Node9 -->
<g id="Node000009" class="node">
<title>Node9</title>
<g id="a_Node000009"><a xlink:href="classShip.html#a61cb09945d19adc35f1c2aaf845c39ce" target="_top" xlink:title="현재 함선의 외갑판 레벨을 반환합니다.">
<polygon fill="white" stroke="#666666" points="670,-307.5 488,-307.5 488,-286.5 670,-286.5 670,-307.5"/>
<text text-anchor="middle" x="579" y="-293.9" font-family="Consolas" font-size="12.00">Ship.GetOuterHullLevel</text>
</a>
</g>
</g>
<!-- Node2&#45;&gt;Node9 -->
<g id="edge8_Node000002_Node000009" class="edge">
<title>Node2&#45;&gt;Node9</title>
<g id="a_edge8_Node000002_Node000009"><a xlink:title=" ">
<path fill="none" stroke="#63b8ff" d="M344.73,-229.66C370.38,-242.73 416.32,-264.68 458,-277 467.67,-279.86 477.91,-282.35 488.16,-284.5"/>
<polygon fill="#63b8ff" stroke="#63b8ff" points="487.49,-287.94 497.98,-286.47 488.86,-281.08 487.49,-287.94"/>
</a>
</g>
</g>
<!-- Node11 -->
<g id="Node000011" class="node">
<title>Node11</title>
<g id="a_Node000011"><a xlink:href="classCrewBase.html#a0c35d7b81e7bbda6c1187cd56da46b19" target="_top" xlink:title="선원이 함선 스탯에 기여하는 수치를 반환합니다. 예: 산소 소모량 등.">
<polygon fill="white" stroke="#666666" points="696,-268.5 462,-268.5 462,-247.5 696,-247.5 696,-268.5"/>
<text text-anchor="middle" x="579" y="-254.9" font-family="Consolas" font-size="12.00">CrewBase.GetStatContributions</text>
</a>
</g>
</g>
<!-- Node2&#45;&gt;Node11 -->
<g id="edge10_Node000002_Node000011" class="edge">
<title>Node2&#45;&gt;Node11</title>
<g id="a_edge10_Node000002_Node000011"><a xlink:title=" ">
<path fill="none" stroke="#63b8ff" d="M392.77,-229.5C425.73,-234.57 465.46,-240.69 499.66,-245.95"/>
<polygon fill="#63b8ff" stroke="#63b8ff" points="499.2,-249.42 509.61,-247.48 500.26,-242.5 499.2,-249.42"/>
</a>
</g>
</g>
<!-- Node12 -->
<g id="Node000012" class="node">
<title>Node12</title>
<g id="a_Node000012"><a xlink:href="classRoom.html#a8533094cb230185cce7735d640d950f1" target="_top" xlink:title="방이 함선 스탯에 기여하는 값을 반환합니다.">
<polygon fill="white" stroke="#666666" points="681,-229.5 477,-229.5 477,-208.5 681,-208.5 681,-229.5"/>
<text text-anchor="middle" x="579" y="-215.9" font-family="Consolas" font-size="12.00">Room.GetStatContributions</text>
</a>
</g>
</g>
<!-- Node2&#45;&gt;Node12 -->
<g id="edge11_Node000002_Node000012" class="edge">
<title>Node2&#45;&gt;Node12</title>
<g id="a_edge11_Node000002_Node000012"><a xlink:title=" ">
<path fill="none" stroke="#63b8ff" d="M422.15,-219C436.65,-219 451.7,-219 466.46,-219"/>
<polygon fill="#63b8ff" stroke="#63b8ff" points="466.63,-222.5 476.63,-219 466.63,-215.5 466.63,-222.5"/>
</a>
</g>
</g>
<!-- Node15 -->
<g id="Node000015" class="node">
<title>Node15</title>
<g id="a_Node000015"><a xlink:href="classShip.html#a7ce33b470844e7f8b04df7741582010a" target="_top" xlink:title="함선의 기본 스탯을 초기화합니다. 모든 ShipStat 값을 0으로 설정하여 이후 계산의 기준을 만듭니다.">
<polygon fill="white" stroke="#666666" points="677.5,-190.5 480.5,-190.5 480.5,-169.5 677.5,-169.5 677.5,-190.5"/>
<text text-anchor="middle" x="579" y="-176.9" font-family="Consolas" font-size="12.00">Ship.InitializeBaseStats</text>
</a>
</g>
</g>
<!-- Node2&#45;&gt;Node15 -->
<g id="edge14_Node000002_Node000015" class="edge">
<title>Node2&#45;&gt;Node15</title>
<g id="a_edge14_Node000002_Node000015"><a xlink:title=" ">
<path fill="none" stroke="#63b8ff" d="M392.77,-208.5C425.73,-203.43 465.46,-197.31 499.66,-192.05"/>
<polygon fill="#63b8ff" stroke="#63b8ff" points="500.26,-195.5 509.61,-190.52 499.2,-188.58 500.26,-195.5"/>
</a>
</g>
</g>
<!-- Node16 -->
<g id="Node000016" class="node">
<title>Node16</title>
<g id="a_Node000016"><a xlink:href="classShip.html#a4ef99106ff3d8b5e7149f15ff9317769" target="_top" xlink:title="주어진 ShipStat이 가산형(덧셈 방식) 스탯인지 여부를 반환합니다. 예: 쉴드 최대량, 산소 생성량 등은 단순 덧셈으로 누적됩니다.">
<polygon fill="white" stroke="#666666" points="673.5,-151.5 484.5,-151.5 484.5,-130.5 673.5,-130.5 673.5,-151.5"/>
<text text-anchor="middle" x="579" y="-137.9" font-family="Consolas" font-size="12.00">Ship.IsAdditiveStatType</text>
</a>
</g>
</g>
<!-- Node2&#45;&gt;Node16 -->
<g id="edge15_Node000002_Node000016" class="edge">
<title>Node2&#45;&gt;Node16</title>
<g id="a_edge15_Node000002_Node000016"><a xlink:title=" ">
<path fill="none" stroke="#63b8ff" d="M344.24,-208.32C369.77,-194.98 415.95,-172.39 458,-160 466.23,-157.57 474.88,-155.44 483.6,-153.56"/>
<polygon fill="#63b8ff" stroke="#63b8ff" points="484.36,-156.98 493.46,-151.56 482.96,-150.12 484.36,-156.98"/>
</a>
</g>
</g>
<!-- Node17 -->
<g id="Node000017" class="node">
<title>Node17</title>
<g id="a_Node000017"><a xlink:href="classShip.html#ae9a8351b5c780010ba90040c511976f6" target="_top" xlink:title="주어진 ShipStat이 배율형(곱셈 방식) 스탯인지 여부를 반환합니다. 예: 회피율 보너스 %, 데미지 증폭 % 등이 해당됩니다. 현재는 정의된 곱셈 스탯이 없습니다.">
<polygon fill="white" stroke="#666666" points="696,-112.5 462,-112.5 462,-91.5 696,-91.5 696,-112.5"/>
<text text-anchor="middle" x="579" y="-98.9" font-family="Consolas" font-size="12.00">Ship.IsMultiplicativeStatType</text>
</a>
</g>
</g>
<!-- Node2&#45;&gt;Node17 -->
<g id="edge16_Node000002_Node000017" class="edge">
<title>Node2&#45;&gt;Node17</title>
<g id="a_edge16_Node000002_Node000017"><a xlink:title=" ">
<path fill="none" stroke="#63b8ff" d="M335.14,-208.32C356.4,-187.68 406.52,-142.47 458,-121 463.05,-118.89 468.31,-117.02 473.68,-115.35"/>
<polygon fill="#63b8ff" stroke="#63b8ff" points="474.8,-118.67 483.45,-112.57 472.88,-111.94 474.8,-118.67"/>
</a>
</g>
</g>
<!-- Node18 -->
<g id="Node000018" class="node">
<title>Node18</title>
<g id="a_Node000018"><a xlink:href="classShip.html#ad8f70687934e3a804bf86e704ca18150" target="_top" xlink:title="현재 함선의 스탯과 룸별 스탯 기여도를 콘솔에 출력합니다. 디버깅 모드가 활성화된 경우에만 호출되며, 전체 스탯 상태를 확인할 수 있습니다.">
<polygon fill="white" stroke="#666666" points="673.5,-73.5 484.5,-73.5 484.5,-52.5 673.5,-52.5 673.5,-73.5"/>
<text text-anchor="middle" x="579" y="-59.9" font-family="Consolas" font-size="12.00">Ship.PrintDebugStatInfo</text>
</a>
</g>
</g>
<!-- Node2&#45;&gt;Node18 -->
<g id="edge17_Node000002_Node000018" class="edge">
<title>Node2&#45;&gt;Node18</title>
<g id="a_edge17_Node000002_Node000018"><a xlink:title=" ">
<path fill="none" stroke="#63b8ff" d="M331.34,-208.19C348.78,-181.65 397.84,-113.15 458,-82 463.28,-79.27 468.85,-76.9 474.59,-74.87"/>
<polygon fill="#63b8ff" stroke="#63b8ff" points="475.92,-78.12 484.37,-71.73 473.78,-71.45 475.92,-78.12"/>
</a>
</g>
</g>
<!-- Node19 -->
<g id="Node000019" class="node">
<title>Node19</title>
<g id="a_Node000019"><a xlink:href="classMoraleManager.html#af1cb805b49d259cc84441559dd0bb1c6" target="_top" xlink:title="전체 선원 사기 한 번에 할당">
<polygon fill="white" stroke="#666666" points="677.5,-34 480.5,-34 480.5,0 677.5,0 677.5,-34"/>
<text text-anchor="start" x="488.5" y="-20.4" font-family="Consolas" font-size="12.00">MoraleManager.SetAllCrew</text>
<text text-anchor="middle" x="579" y="-7.4" font-family="Consolas" font-size="12.00">Morale</text>
</a>
</g>
</g>
<!-- Node2&#45;&gt;Node19 -->
<g id="edge18_Node000002_Node000019" class="edge">
<title>Node2&#45;&gt;Node19</title>
<g id="a_edge18_Node000002_Node000019"><a xlink:title=" ">
<path fill="none" stroke="#63b8ff" d="M329.3,-208.19C343.76,-176.99 390.09,-86.3 458,-43 462.11,-40.38 466.44,-38.02 470.92,-35.9"/>
<polygon fill="#63b8ff" stroke="#63b8ff" points="472.51,-39.02 480.31,-31.86 469.74,-32.59 472.51,-39.02"/>
</a>
</g>
</g>
<!-- Node4 -->
<g id="Node000004" class="node">
<title>Node4</title>
<g id="a_Node000004"><a xlink:href="classShip.html#a8ced30f0d71c2a5cf333b3de23af48f2" target="_top" xlink:title="모든 룸 정보를 반환합니다.">
<polygon fill="white" stroke="#666666" points="914,-450.5 777,-450.5 777,-429.5 914,-429.5 914,-450.5"/>
<text text-anchor="middle" x="845.5" y="-436.9" font-family="Consolas" font-size="12.00">Ship.GetAllRooms</text>
</a>
</g>
</g>
<!-- Node3&#45;&gt;Node4 -->
<g id="edge3_Node000003_Node000004" class="edge">
<title>Node3&#45;&gt;Node4</title>
<g id="a_edge3_Node000003_Node000004"><a xlink:title=" ">
<path fill="none" stroke="#63b8ff" d="M692.56,-429.09C717.54,-430.88 743.49,-432.74 766.72,-434.41"/>
<polygon fill="#63b8ff" stroke="#63b8ff" points="766.61,-437.91 776.84,-435.14 767.11,-430.93 766.61,-437.91"/>
</a>
</g>
</g>
<!-- Node5 -->
<g id="Node000005" class="node">
<title>Node5</title>
<g id="a_Node000005"><a xlink:href="classShip.html#a89be268214921c4585f6b70038b98c8e" target="_top" xlink:title="현재 탑승 중인 크루 수를 반환합니다.">
<polygon fill="white" stroke="#666666" points="917.5,-411.5 773.5,-411.5 773.5,-390.5 917.5,-390.5 917.5,-411.5"/>
<text text-anchor="middle" x="845.5" y="-397.9" font-family="Consolas" font-size="12.00">Ship.GetCrewCount</text>
</a>
</g>
</g>
<!-- Node3&#45;&gt;Node5 -->
<g id="edge4_Node000003_Node000005" class="edge">
<title>Node3&#45;&gt;Node5</title>
<g id="a_edge4_Node000003_Node000005"><a xlink:title=" ">
<path fill="none" stroke="#63b8ff" d="M692.56,-412.49C716.33,-410.69 740.98,-408.83 763.32,-407.14"/>
<polygon fill="#63b8ff" stroke="#63b8ff" points="763.71,-410.62 773.42,-406.37 763.18,-403.64 763.71,-410.62"/>
</a>
</g>
</g>
<!-- Node6 -->
<g id="Node000006" class="node">
<title>Node6</title>
<g id="a_Node000006"><a xlink:href="classCrewSystem.html#ae270e71cdbafb68eb26d6f031758b1f5" target="_top" xlink:title="현재 탑승 중인 크루의 수를 반환합니다.">
<polygon fill="white" stroke="#666666" points="1180,-411.5 991,-411.5 991,-390.5 1180,-390.5 1180,-411.5"/>
<text text-anchor="middle" x="1085.5" y="-397.9" font-family="Consolas" font-size="12.00">CrewSystem.GetCrewCount</text>
</a>
</g>
</g>
<!-- Node5&#45;&gt;Node6 -->
<g id="edge5_Node000005_Node000006" class="edge">
<title>Node5&#45;&gt;Node6</title>
<g id="a_edge5_Node000005_Node000006"><a xlink:title=" ">
<path fill="none" stroke="#63b8ff" d="M917.59,-401C937.45,-401 959.46,-401 980.79,-401"/>
<polygon fill="#63b8ff" stroke="#63b8ff" points="980.87,-404.5 990.87,-401 980.87,-397.5 980.87,-404.5"/>
</a>
</g>
</g>
<!-- Node10 -->
<g id="Node000010" class="node">
<title>Node10</title>
<g id="a_Node000010"><a xlink:href="classOuterHullSystem.html#ab352abfc02989177392c3b60dd28ddc3" target="_top" xlink:title="외부 선체 시스템의 현재 레벨을 반환합니다.">
<polygon fill="white" stroke="#666666" points="944,-314 747,-314 747,-280 944,-280 944,-314"/>
<text text-anchor="start" x="755" y="-300.4" font-family="Consolas" font-size="12.00">OuterHullSystem.GetOuter</text>
<text text-anchor="middle" x="845.5" y="-287.4" font-family="Consolas" font-size="12.00">HullLevel</text>
</a>
</g>
</g>
<!-- Node9&#45;&gt;Node10 -->
<g id="edge9_Node000009_Node000010" class="edge">
<title>Node9&#45;&gt;Node10</title>
<g id="a_edge9_Node000009_Node000010"><a xlink:title=" ">
<path fill="none" stroke="#63b8ff" d="M670.29,-297C691.7,-297 714.75,-297 736.85,-297"/>
<polygon fill="#63b8ff" stroke="#63b8ff" points="736.93,-300.5 746.93,-297 736.93,-293.5 736.93,-300.5"/>
</a>
</g>
</g>
<!-- Node13 -->
<g id="Node000013" class="node">
<title>Node13</title>
<g id="a_Node000013"><a xlink:href="classRoomData.html#a93ada549c4d197d14917913e944f46c2" target="_top" xlink:title="주어진 레벨에 해당하는 RoomLevel 데이터를 반환합니다. 각 파생 클래스에서 구현해야 합니다.">
<polygon fill="white" stroke="#666666" points="955,-245.5 736,-245.5 736,-224.5 955,-224.5 955,-245.5"/>
<text text-anchor="middle" x="845.5" y="-231.9" font-family="Consolas" font-size="12.00">RoomData.GetRoomDataByLevel</text>
</a>
</g>
</g>
<!-- Node12&#45;&gt;Node13 -->
<g id="edge12_Node000012_Node000013" class="edge">
<title>Node12&#45;&gt;Node13</title>
<g id="a_edge12_Node000012_Node000013"><a xlink:title=" ">
<path fill="none" stroke="#63b8ff" d="M681.13,-225.12C695.7,-226 710.81,-226.91 725.69,-227.81"/>
<polygon fill="#63b8ff" stroke="#63b8ff" points="725.75,-231.32 735.95,-228.43 726.18,-224.34 725.75,-231.32"/>
</a>
</g>
</g>
<!-- Node14 -->
<g id="Node000014" class="node">
<title>Node14</title>
<g id="a_Node000014"><a xlink:href="classRoom.html#af15fefedd48a2009da56d461a9084ed8" target="_top" xlink:title="방이 작동 가능한 상태인지 확인합니다.">
<polygon fill="white" stroke="#666666" points="921.5,-206.5 769.5,-206.5 769.5,-185.5 921.5,-185.5 921.5,-206.5"/>
<text text-anchor="middle" x="845.5" y="-192.9" font-family="Consolas" font-size="12.00">Room.IsOperational</text>
</a>
</g>
</g>
<!-- Node12&#45;&gt;Node14 -->
<g id="edge13_Node000012_Node000014" class="edge">
<title>Node12&#45;&gt;Node14</title>
<g id="a_edge13_Node000012_Node000014"><a xlink:title=" ">
<path fill="none" stroke="#63b8ff" d="M681.13,-210.21C706.89,-207.97 734.33,-205.58 759.21,-203.42"/>
<polygon fill="#63b8ff" stroke="#63b8ff" points="759.68,-206.89 769.34,-202.54 759.08,-199.92 759.68,-206.89"/>
</a>
</g>
</g>
</g>
</svg>
