<?xml version="1.0" encoding="UTF-8" standalone="no"?>
<!DOCTYPE svg PUBLIC "-//W3C//DTD SVG 1.1//EN"
 "http://www.w3.org/Graphics/SVG/1.1/DTD/svg11.dtd">
<!-- Generated by graphviz version 2.43.0 (0)
 -->
<!-- Title: PriorityQueue&lt; T &gt; Pages: 1 -->
<svg width="231pt" height="123pt"
 viewBox="0.00 0.00 231.00 123.00" xmlns="http://www.w3.org/2000/svg" xmlns:xlink="http://www.w3.org/1999/xlink">

<svg id="main" version="1.1" xmlns="http://www.w3.org/2000/svg" xmlns:xlink="http://www.w3.org/1999/xlink" xml:space="preserve" onload="init(evt)">
<style type="text/css"><![CDATA[
.node, .edge {opacity: 0.7;}
.node.selected, .edge.selected {opacity: 1;}
.edge:hover path { stroke: red; }
.edge:hover polygon { stroke: red; fill: red; }
]]></style>
<script type="application/ecmascript" xlink:href="svg.min.js"/>
<svg id="graph" class="graph">
<g id="graph0" class="graph" transform="scale(1 1) rotate(0) translate(4 119)">
<title>PriorityQueue&lt; T &gt;</title>
<!-- Node1 -->
<g id="Node000001" class="node">
<title>Node1</title>
<g id="a_Node000001"><a xlink:title="간단한 우선순위 큐 구현 (A*에서 사용)">
<polygon fill="#999999" stroke="transparent" points="223,-115 0,-115 0,0 223,0 223,-115"/>
<text text-anchor="start" x="44" y="-100.9" font-family="Consolas" font-size="12.00">PriorityQueue&lt; T &gt;</text>
<text text-anchor="start" x="4.5" y="-83.9" font-family="Consolas" font-size="12.00">+</text>
<text text-anchor="start" x="16.5" y="-83.9" font-family="Consolas" font-size="12.00">int Count</text>
<text text-anchor="start" x="4.5" y="-66.9" font-family="Consolas" font-size="12.00">&#45;</text>
<text text-anchor="start" x="16.5" y="-66.9" font-family="Consolas" font-size="12.00">List&lt;(T item, int priority)</text>
<text text-anchor="start" x="16.5" y="-53.9" font-family="Consolas" font-size="12.00">&gt; elements</text>
<text text-anchor="start" x="4.5" y="-36.9" font-family="Consolas" font-size="12.00">+</text>
<text text-anchor="start" x="16.5" y="-36.9" font-family="Consolas" font-size="12.00">void Enqueue(T item,</text>
<text text-anchor="start" x="16.5" y="-23.9" font-family="Consolas" font-size="12.00"> int priority)</text>
<text text-anchor="start" x="4.5" y="-6.9" font-family="Consolas" font-size="12.00">+</text>
<text text-anchor="start" x="16.5" y="-6.9" font-family="Consolas" font-size="12.00">T Dequeue()</text>
<polygon fill="#666666" stroke="#666666" points="0.5,-95.5 0.5,-95.5 223.5,-95.5 223.5,-95.5 0.5,-95.5"/>
<polygon fill="#666666" stroke="#666666" points="0.5,-48.5 0.5,-48.5 14.5,-48.5 14.5,-48.5 0.5,-48.5"/>
<polygon fill="#666666" stroke="#666666" points="14.5,-48.5 14.5,-48.5 223.5,-48.5 223.5,-48.5 14.5,-48.5"/>
<polygon fill="none" stroke="#666666" points="0,0 0,-115 223,-115 223,0 0,0"/>
</a>
</g>
</g>
</g>
</svg>
</svg>

<style type='text/css'>
<![CDATA[
[data-mouse-over-selected='false'] { opacity: 0.7; }
[data-mouse-over-selected='true']  { opacity: 1.0; }
]]>
</style>
<script type="application/ecmascript"><![CDATA[
document.addEventListener('DOMContentLoaded', (event) => {
  highlightEdges();
  highlightAdjacentNodes();
});
]]></script>
</svg>
