<?xml version="1.0" encoding="UTF-8" standalone="no"?>
<!DOCTYPE svg PUBLIC "-//W3C//DTD SVG 1.1//EN"
 "http://www.w3.org/Graphics/SVG/1.1/DTD/svg11.dtd">
<!-- Generated by graphviz version 2.43.0 (0)
 -->
<!-- Title: PlanetData.RegisterPlanetEffect Pages: 1 -->
<svg width="482pt" height="94pt"
 viewBox="0.00 0.00 482.00 94.00" xmlns="http://www.w3.org/2000/svg" xmlns:xlink="http://www.w3.org/1999/xlink">
<g id="graph0" class="graph" transform="scale(1 1) rotate(0) translate(4 90)">
<title>PlanetData.RegisterPlanetEffect</title>
<!-- Node1 -->
<g id="Node000001" class="node">
<title>Node1</title>
<g id="a_Node000001"><a xlink:title="새로운 행성 효과 등록">
<polygon fill="#999999" stroke="#666666" points="204,-60 0,-60 0,-26 204,-26 204,-60"/>
<text text-anchor="start" x="8" y="-46.4" font-family="Consolas" font-size="12.00">PlanetData.RegisterPlanet</text>
<text text-anchor="middle" x="102" y="-33.4" font-family="Consolas" font-size="12.00">Effect</text>
</a>
</g>
</g>
<!-- Node2 -->
<g id="Node000002" class="node">
<title>Node2</title>
<g id="a_Node000002"><a xlink:href="classPlanetData.html#adf582f41dc06c58cd73ae7670d560bc4" target="_top" xlink:title="행성 효과 값 적용">
<polygon fill="white" stroke="#666666" points="470.5,-86 243.5,-86 243.5,-52 470.5,-52 470.5,-86"/>
<text text-anchor="start" x="251.5" y="-72.4" font-family="Consolas" font-size="12.00">PlanetData.ApplyPlanetEffect</text>
<text text-anchor="middle" x="357" y="-59.4" font-family="Consolas" font-size="12.00">Value</text>
</a>
</g>
</g>
<!-- Node1&#45;&gt;Node2 -->
<g id="edge1_Node000001_Node000002" class="edge">
<title>Node1&#45;&gt;Node2</title>
<g id="a_edge1_Node000001_Node000002"><a xlink:title=" ">
<path fill="none" stroke="#63b8ff" d="M204.08,-53.39C213.69,-54.37 223.49,-55.38 233.27,-56.39"/>
<polygon fill="#63b8ff" stroke="#63b8ff" points="233.13,-59.89 243.43,-57.43 233.84,-52.93 233.13,-59.89"/>
</a>
</g>
</g>
<!-- Node3 -->
<g id="Node000003" class="node">
<title>Node3</title>
<g id="a_Node000003"><a xlink:href="classPlanetData.html#a2b51baed6fe28ee988ceb69e4a7e8209" target="_top" xlink:title="행성 효과 값 제거">
<polygon fill="white" stroke="#666666" points="474,-34 240,-34 240,0 474,0 474,-34"/>
<text text-anchor="start" x="248" y="-20.4" font-family="Consolas" font-size="12.00">PlanetData.RemovePlanetEffect</text>
<text text-anchor="middle" x="357" y="-7.4" font-family="Consolas" font-size="12.00">Value</text>
</a>
</g>
</g>
<!-- Node1&#45;&gt;Node3 -->
<g id="edge2_Node000001_Node000003" class="edge">
<title>Node1&#45;&gt;Node3</title>
<g id="a_edge2_Node000001_Node000003"><a xlink:title=" ">
<path fill="none" stroke="#63b8ff" d="M204.08,-32.61C212.49,-31.75 221.06,-30.87 229.62,-29.99"/>
<polygon fill="#63b8ff" stroke="#63b8ff" points="230.08,-33.46 239.67,-28.96 229.36,-26.5 230.08,-33.46"/>
</a>
</g>
</g>
</g>
</svg>
