<?xml version="1.0" encoding="UTF-8" standalone="no"?>
<!DOCTYPE svg PUBLIC "-//W3C//DTD SVG 1.1//EN"
 "http://www.w3.org/Graphics/SVG/1.1/DTD/svg11.dtd">
<!-- Generated by graphviz version 2.43.0 (0)
 -->
<!-- Title: ShipValidationHelper.CheckWeaponConnectivity Pages: 1 -->
<!--zoomable 290 -->

<svg id="main" version="1.1" xmlns="http://www.w3.org/2000/svg" xmlns:xlink="http://www.w3.org/1999/xlink" xml:space="preserve" onload="init(evt)">
<style type="text/css"><![CDATA[
.node, .edge {opacity: 0.7;}
.node.selected, .edge.selected {opacity: 1;}
.edge:hover path { stroke: red; }
.edge:hover polygon { stroke: red; fill: red; }
]]></style>

<defs>
  <circle id="rim" cx="0" cy="0" r="7"/>
  <circle id="rim2" cx="0" cy="0" r="3.5"/>
  <g id="zoomPlus">
    <use xlink:href="#rim" fill="#404040"><set attributeName="fill" to="#808080" begin="zoomplus.mouseover" end="zoomplus.mouseout"/></use>
    <path d="M-4,0h8M0,-4v8" fill="none" stroke="white" stroke-width="1.5" pointer-events="none"/>
  </g>
  <g id="zoomMin">
    <use xlink:href="#rim" fill="#404040"><set attributeName="fill" to="#808080" begin="zoomminus.mouseover" end="zoomminus.mouseout"/></use>
    <path d="M-4,0h8" fill="none" stroke="white" stroke-width="1.5" pointer-events="none"/>
  </g>
  <g id="arrowUp" transform="translate(30 24)">
    <use xlink:href="#rim"/>
    <path pointer-events="none" fill="none" stroke="white" stroke-width="1.5" d="M0,-3.0v7 M-2.5,-0.5L0,-3.0L2.5,-0.5"/>
  </g>
  <g id="arrowRight" transform="rotate(90) translate(36 -43)">
    <use xlink:href="#rim"/>
    <path pointer-events="none" fill="none" stroke="white" stroke-width="1.5" d="M0,-3.0v7 M-2.5,-0.5L0,-3.0L2.5,-0.5"/>
  </g>
  <g id="arrowDown" transform="rotate(180) translate(-30 -48)">
    <use xlink:href="#rim"/>
    <path pointer-events="none" fill="none" stroke="white" stroke-width="1.5" d="M0,-3.0v7 M-2.5,-0.5L0,-3.0L2.5,-0.5"/>
  </g>
  <g id="arrowLeft" transform="rotate(270) translate(-36 17)">
    <use xlink:href="#rim"/>
    <path pointer-events="none" fill="none" stroke="white" stroke-width="1.5" d="M0,-3.0v7 M-2.5,-0.5L0,-3.0L2.5,-0.5"/>
  </g>
  <g id="resetDef">
    <use xlink:href="#rim2" fill="#404040"><set attributeName="fill" to="#808080" begin="reset.mouseover" end="reset.mouseout"/></use>
  </g>
</defs>
<script type="application/ecmascript">
var viewWidth = 760;
var viewHeight = 290;
var sectionId = 'dynsection-5';
</script>
<script type="application/ecmascript" xlink:href="svg.min.js"/>
<svg id="graph" class="graph">
<g id="viewport">
<title>ShipValidationHelper.CheckWeaponConnectivity</title>
<!-- Node1 -->
<g id="Node000001" class="node">
<title>Node1</title>
<g id="a_Node000001"><a xlink:title="모든 무기가 방과 직접 또는 간접적으로 연결되어 있는지 확인합니다. BFS를 사용하여 무기와 방의 연결성을 검사합니다.">
<polygon fill="#999999" stroke="#666666" points="212,-158 0,-158 0,-124 212,-124 212,-158"/>
<text text-anchor="start" x="8" y="-144.4" font-family="Consolas" font-size="12.00">ShipValidationHelper.Check</text>
<text text-anchor="middle" x="106" y="-131.4" font-family="Consolas" font-size="12.00">WeaponConnectivity</text>
</a>
</g>
</g>
<!-- Node2 -->
<g id="Node000002" class="node">
<title>Node2</title>
<g id="a_Node000002"><a xlink:href="classShipValidationHelper.html#ac9c0c29fd6e7688a8be3cd98b7bfcf31" target="_top" xlink:title="두 위치가 서로 인접해 있는지 확인합니다.">
<polygon fill="white" stroke="#666666" points="471,-282 274,-282 274,-248 471,-248 471,-282"/>
<text text-anchor="start" x="282" y="-268.4" font-family="Consolas" font-size="12.00">ShipValidationHelper.Are</text>
<text text-anchor="middle" x="372.5" y="-255.4" font-family="Consolas" font-size="12.00">Adjacent</text>
</a>
</g>
</g>
<!-- Node1&#45;&gt;Node2 -->
<g id="edge1_Node000001_Node000002" class="edge">
<title>Node1&#45;&gt;Node2</title>
<g id="a_edge1_Node000001_Node000002"><a xlink:title=" ">
<path fill="none" stroke="#63b8ff" d="M126.03,-158.02C151.8,-180.12 200.1,-218.33 248,-239 253.28,-241.28 258.78,-243.37 264.4,-245.27"/>
<polygon fill="#63b8ff" stroke="#63b8ff" points="263.35,-248.61 273.94,-248.32 265.48,-241.95 263.35,-248.61"/>
</a>
</g>
</g>
<!-- Node3 -->
<g id="Node000003" class="node">
<title>Node3</title>
<g id="a_Node000003"><a xlink:href="classShip.html#a8ced30f0d71c2a5cf333b3de23af48f2" target="_top" xlink:title="모든 룸 정보를 반환합니다.">
<polygon fill="white" stroke="#666666" points="441,-229.5 304,-229.5 304,-208.5 441,-208.5 441,-229.5"/>
<text text-anchor="middle" x="372.5" y="-215.9" font-family="Consolas" font-size="12.00">Ship.GetAllRooms</text>
</a>
</g>
</g>
<!-- Node1&#45;&gt;Node3 -->
<g id="edge2_Node000001_Node000003" class="edge">
<title>Node1&#45;&gt;Node3</title>
<g id="a_edge2_Node000001_Node000003"><a xlink:title=" ">
<path fill="none" stroke="#63b8ff" d="M141.21,-158.09C169.26,-171.42 210.32,-189.39 248,-200 262.65,-204.12 278.54,-207.41 293.89,-210.02"/>
<polygon fill="#63b8ff" stroke="#63b8ff" points="293.45,-213.49 303.88,-211.63 294.57,-206.58 293.45,-213.49"/>
</a>
</g>
</g>
<!-- Node4 -->
<g id="Node000004" class="node">
<title>Node4</title>
<g id="a_Node000004"><a xlink:href="classShip.html#a058800cd1cdc9601aeb176ac45fd91d4" target="_top" xlink:title="현재 탑재 중인 모든 무기를 반환합니다.">
<polygon fill="white" stroke="#666666" points="448.5,-190.5 296.5,-190.5 296.5,-169.5 448.5,-169.5 448.5,-190.5"/>
<text text-anchor="middle" x="372.5" y="-176.9" font-family="Consolas" font-size="12.00">Ship.GetAllWeapons</text>
</a>
</g>
</g>
<!-- Node1&#45;&gt;Node4 -->
<g id="edge3_Node000001_Node000004" class="edge">
<title>Node1&#45;&gt;Node4</title>
<g id="a_edge3_Node000001_Node000004"><a xlink:title=" ">
<path fill="none" stroke="#63b8ff" d="M212.3,-156.53C238.25,-160.35 265.66,-164.39 290.27,-168.02"/>
<polygon fill="#63b8ff" stroke="#63b8ff" points="289.88,-171.5 300.28,-169.5 290.9,-164.58 289.88,-171.5"/>
</a>
</g>
</g>
<!-- Node5 -->
<g id="Node000005" class="node">
<title>Node5</title>
<g id="a_Node000005"><a xlink:href="classShipWeapon.html#a421526a38a8fbd32127d0063526c9c6a" target="_top" xlink:title="무기의 그리드 상 위치를 반환합니다.">
<polygon fill="white" stroke="#666666" points="478.5,-151.5 266.5,-151.5 266.5,-130.5 478.5,-130.5 478.5,-151.5"/>
<text text-anchor="middle" x="372.5" y="-137.9" font-family="Consolas" font-size="12.00">ShipWeapon.GetGridPosition</text>
</a>
</g>
</g>
<!-- Node1&#45;&gt;Node5 -->
<g id="edge4_Node000001_Node000005" class="edge">
<title>Node1&#45;&gt;Node5</title>
<g id="a_edge4_Node000001_Node000005"><a xlink:title=" ">
<path fill="none" stroke="#63b8ff" d="M212.3,-141C226.69,-141 241.54,-141 256.1,-141"/>
<polygon fill="#63b8ff" stroke="#63b8ff" points="256.13,-144.5 266.13,-141 256.13,-137.5 256.13,-144.5"/>
</a>
</g>
</g>
<!-- Node6 -->
<g id="Node000006" class="node">
<title>Node6</title>
<g id="a_Node000006"><a xlink:href="classRoom.html#a18ac2f2af25dbf2e6181db75eab061ae" target="_top" xlink:title="회전각을 고려하여 방의 점유 타일 반환">
<polygon fill="white" stroke="#666666" points="459.5,-112.5 285.5,-112.5 285.5,-91.5 459.5,-91.5 459.5,-112.5"/>
<text text-anchor="middle" x="372.5" y="-98.9" font-family="Consolas" font-size="12.00">Room.GetOccupiedTiles</text>
</a>
</g>
</g>
<!-- Node1&#45;&gt;Node6 -->
<g id="edge5_Node000001_Node000006" class="edge">
<title>Node1&#45;&gt;Node6</title>
<g id="a_edge5_Node000001_Node000006"><a xlink:title=" ">
<path fill="none" stroke="#63b8ff" d="M212.3,-125.47C238.25,-121.65 265.66,-117.61 290.27,-113.98"/>
<polygon fill="#63b8ff" stroke="#63b8ff" points="290.9,-117.42 300.28,-112.5 289.88,-110.5 290.9,-117.42"/>
</a>
</g>
</g>
<!-- Node9 -->
<g id="Node000009" class="node">
<title>Node9</title>
<g id="a_Node000009"><a xlink:href="classRoom.html#a20cd0655c331d88c7e1825abc51e9941" target="_top" xlink:title="방의 크기를 반환합니다.">
<polygon fill="white" stroke="#666666" points="426,-73.5 319,-73.5 319,-52.5 426,-52.5 426,-73.5"/>
<text text-anchor="middle" x="372.5" y="-59.9" font-family="Consolas" font-size="12.00">Room.GetSize</text>
</a>
</g>
</g>
<!-- Node1&#45;&gt;Node9 -->
<g id="edge8_Node000001_Node000009" class="edge">
<title>Node1&#45;&gt;Node9</title>
<g id="a_edge8_Node000001_Node000009"><a xlink:title=" ">
<path fill="none" stroke="#63b8ff" d="M141.21,-123.91C169.26,-110.58 210.32,-92.61 248,-82 267.47,-76.52 289.14,-72.51 308.83,-69.63"/>
<polygon fill="#63b8ff" stroke="#63b8ff" points="309.5,-73.07 318.92,-68.22 308.53,-66.13 309.5,-73.07"/>
</a>
</g>
</g>
<!-- Node10 -->
<g id="Node000010" class="node">
<title>Node10</title>
<g id="a_Node000010"><a xlink:href="classShipValidationHelper.html#aad98d691b3393602f52c39afaa2bb80f" target="_top" xlink:title="위치가 방 타일에 인접해 있는지 확인합니다.">
<polygon fill="white" stroke="#666666" points="497,-34 248,-34 248,0 497,0 497,-34"/>
<text text-anchor="start" x="256" y="-20.4" font-family="Consolas" font-size="12.00">ShipValidationHelper.IsAdjacent</text>
<text text-anchor="middle" x="372.5" y="-7.4" font-family="Consolas" font-size="12.00">ToRoomTiles</text>
</a>
</g>
</g>
<!-- Node1&#45;&gt;Node10 -->
<g id="edge10_Node000001_Node000010" class="edge">
<title>Node1&#45;&gt;Node10</title>
<g id="a_edge10_Node000001_Node000010"><a xlink:title=" ">
<path fill="none" stroke="#63b8ff" d="M126.03,-123.98C151.8,-101.88 200.1,-63.67 248,-43 252.78,-40.94 257.74,-39.03 262.8,-37.28"/>
<polygon fill="#63b8ff" stroke="#63b8ff" points="264.21,-40.5 272.64,-34.07 262.05,-33.84 264.21,-40.5"/>
</a>
</g>
</g>
<!-- Node7 -->
<g id="Node000007" class="node">
<title>Node7</title>
<g id="a_Node000007"><a xlink:href="classRoom.html#ae14b08f3ba19cce81b077d6fefcb1fd5" target="_top" xlink:title="현재 업그레이드 레벨을 반환합니다.">
<polygon fill="white" stroke="#666666" points="726,-112.5 559,-112.5 559,-91.5 726,-91.5 726,-112.5"/>
<text text-anchor="middle" x="642.5" y="-98.9" font-family="Consolas" font-size="12.00">Room.GetCurrentLevel</text>
</a>
</g>
</g>
<!-- Node6&#45;&gt;Node7 -->
<g id="edge6_Node000006_Node000007" class="edge">
<title>Node6&#45;&gt;Node7</title>
<g id="a_edge6_Node000006_Node000007"><a xlink:title=" ">
<path fill="none" stroke="#63b8ff" d="M459.77,-102C488.11,-102 519.71,-102 548.52,-102"/>
<polygon fill="#63b8ff" stroke="#63b8ff" points="548.59,-105.5 558.59,-102 548.59,-98.5 548.59,-105.5"/>
</a>
</g>
</g>
<!-- Node8 -->
<g id="Node000008" class="node">
<title>Node8</title>
<g id="a_Node000008"><a xlink:href="classRoomData.html#a93ada549c4d197d14917913e944f46c2" target="_top" xlink:title="주어진 레벨에 해당하는 RoomLevel 데이터를 반환합니다. 각 파생 클래스에서 구현해야 합니다.">
<polygon fill="white" stroke="#666666" points="752,-73.5 533,-73.5 533,-52.5 752,-52.5 752,-73.5"/>
<text text-anchor="middle" x="642.5" y="-59.9" font-family="Consolas" font-size="12.00">RoomData.GetRoomDataByLevel</text>
</a>
</g>
</g>
<!-- Node6&#45;&gt;Node8 -->
<g id="edge7_Node000006_Node000008" class="edge">
<title>Node6&#45;&gt;Node8</title>
<g id="a_edge7_Node000006_Node000008"><a xlink:title=" ">
<path fill="none" stroke="#63b8ff" d="M445.67,-91.5C480.67,-86.4 522.89,-80.26 559.14,-74.98"/>
<polygon fill="#63b8ff" stroke="#63b8ff" points="559.81,-78.43 569.2,-73.52 558.8,-71.5 559.81,-78.43"/>
</a>
</g>
</g>
<!-- Node9&#45;&gt;Node8 -->
<g id="edge9_Node000009_Node000008" class="edge">
<title>Node9&#45;&gt;Node8</title>
<g id="a_edge9_Node000009_Node000008"><a xlink:title=" ">
<path fill="none" stroke="#63b8ff" d="M426.13,-63C453.69,-63 488.64,-63 522.33,-63"/>
<polygon fill="#63b8ff" stroke="#63b8ff" points="522.73,-66.5 532.73,-63 522.73,-59.5 522.73,-66.5"/>
</a>
</g>
</g>
</g>
</svg>

<g id="navigator" transform="translate(0 0)" fill="#404254">
  <rect fill="#f2f5e9" fill-opacity="0.5" stroke="#606060" stroke-width=".5" x="0" y="0" width="60" height="60"/>
  <use id="zoomplus" xlink:href="#zoomPlus" x="17" y="9" onmousedown="handleZoom(evt,'in')"/>
  <use id="zoomminus" xlink:href="#zoomMin" x="42" y="9" onmousedown="handleZoom(evt,'out')"/>
  <use id="reset" xlink:href="#resetDef" x="30" y="36" onmousedown="handleReset()"/>
   <use id="arrowup" xlink:href="#arrowUp" x="0" y="0" onmousedown="handlePan(0,-1)"/>
  <use id="arrowright" xlink:href="#arrowRight" x="0" y="0" onmousedown="handlePan(1,0)"/>
  <use id="arrowdown" xlink:href="#arrowDown" x="0" y="0" onmousedown="handlePan(0,1)"/>
  <use id="arrowleft" xlink:href="#arrowLeft" x="0" y="0" onmousedown="handlePan(-1,0)"/>
</g>
<svg viewBox="0 0 15 15" width="100%" height="30px" preserveAspectRatio="xMaxYMin meet">
 <g id="arrow_out" transform="scale(0.3 0.3)">
  <a xlink:href="classShipValidationHelper_a39d36df3f0a7878f35261c554c7b1574_cgraph_org.svg" target="_base">
   <rect id="button" ry="5" rx="5" y="6" x="6" height="38" width="38"
        fill="#f2f5e9" fill-opacity="0.5" stroke="#606060" stroke-width="1.0"/>
   <path id="arrow"
     d="M 11.500037,31.436501 C 11.940474,20.09759 22.043105,11.32322 32.158766,21.979434 L 37.068811,17.246167 C 37.068811,17.246167 37.088388,32 37.088388,32 L 22.160133,31.978069 C 22.160133,31.978069 26.997745,27.140456 26.997745,27.140456 C 18.528582,18.264221 13.291696,25.230495 11.500037,31.436501 z"
     style="fill:#404040;"/>
  </a>
 </g>
</svg>

<style type='text/css'>
<![CDATA[
[data-mouse-over-selected='false'] { opacity: 0.7; }
[data-mouse-over-selected='true']  { opacity: 1.0; }
]]>
</style>
<script type="application/ecmascript"><![CDATA[
document.addEventListener('DOMContentLoaded', (event) => {
  highlightEdges();
  highlightAdjacentNodes();
});
]]></script>
</svg>
