<?xml version="1.0" encoding="UTF-8" standalone="no"?>
<!DOCTYPE svg PUBLIC "-//W3C//DTD SVG 1.1//EN"
 "http://www.w3.org/Graphics/SVG/1.1/DTD/svg11.dtd">
<!-- Generated by graphviz version 2.43.0 (0)
 -->
<!-- Title: QuestInfoPanel Pages: 1 -->
<svg width="467pt" height="1001pt"
 viewBox="0.00 0.00 466.50 1001.00" xmlns="http://www.w3.org/2000/svg" xmlns:xlink="http://www.w3.org/1999/xlink">
<g id="graph0" class="graph" transform="scale(1 1) rotate(0) translate(4 997)">
<title>QuestInfoPanel</title>
<!-- Node1 -->
<g id="Node000001" class="node">
<title>Node1</title>
<g id="a_Node000001"><a xlink:title=" ">
<polygon fill="#999999" stroke="transparent" points="341,-332 73,-332 73,0 341,0 341,-332"/>
<text text-anchor="start" x="154" y="-318.4" font-family="Consolas" font-size="12.00">QuestInfoPanel</text>
<text text-anchor="start" x="77" y="-301.4" font-family="Consolas" font-size="12.00">+</text>
<text text-anchor="start" x="89" y="-301.4" font-family="Consolas" font-size="12.00">RandomQuest currentQuest</text>
<text text-anchor="start" x="77" y="-284.4" font-family="Consolas" font-size="12.00">&#45;</text>
<text text-anchor="start" x="89" y="-284.4" font-family="Consolas" font-size="12.00">Image panelSprite</text>
<text text-anchor="start" x="77" y="-267.4" font-family="Consolas" font-size="12.00">&#45;</text>
<text text-anchor="start" x="89" y="-267.4" font-family="Consolas" font-size="12.00">Sprite panelSpriteCompleted</text>
<text text-anchor="start" x="77" y="-250.4" font-family="Consolas" font-size="12.00">&#45;</text>
<text text-anchor="start" x="89" y="-250.4" font-family="Consolas" font-size="12.00">Sprite panelSpriteOngoing</text>
<text text-anchor="start" x="77" y="-233.4" font-family="Consolas" font-size="12.00">&#45;</text>
<text text-anchor="start" x="89" y="-233.4" font-family="Consolas" font-size="12.00">Image targetPlanetImage</text>
<text text-anchor="start" x="77" y="-216.4" font-family="Consolas" font-size="12.00">&#45;</text>
<text text-anchor="start" x="89" y="-216.4" font-family="Consolas" font-size="12.00">TextMeshProUGUI targetPlanetName</text>
<text text-anchor="start" x="77" y="-199.4" font-family="Consolas" font-size="12.00">&#45;</text>
<text text-anchor="start" x="89" y="-199.4" font-family="Consolas" font-size="12.00">TextMeshProUGUI questName</text>
<text text-anchor="start" x="77" y="-182.4" font-family="Consolas" font-size="12.00">&#45;</text>
<text text-anchor="start" x="89" y="-182.4" font-family="Consolas" font-size="12.00">TextMeshProUGUI questDescription</text>
<text text-anchor="start" x="77" y="-165.4" font-family="Consolas" font-size="12.00">&#45;</text>
<text text-anchor="start" x="89" y="-165.4" font-family="Consolas" font-size="12.00">TextMeshProUGUI questRewards</text>
<text text-anchor="start" x="77" y="-148.4" font-family="Consolas" font-size="12.00">&#45;</text>
<text text-anchor="start" x="89" y="-148.4" font-family="Consolas" font-size="12.00">TextMeshProUGUI questDurationLeft</text>
<text text-anchor="start" x="77" y="-131.4" font-family="Consolas" font-size="12.00">&#45;</text>
<text text-anchor="start" x="89" y="-131.4" font-family="Consolas" font-size="12.00">Button buttonCancel</text>
<text text-anchor="start" x="77" y="-114.4" font-family="Consolas" font-size="12.00">&#45;</text>
<text text-anchor="start" x="89" y="-114.4" font-family="Consolas" font-size="12.00">SlidePanelController</text>
<text text-anchor="start" x="89" y="-101.4" font-family="Consolas" font-size="12.00"> slidePanelController</text>
<text text-anchor="start" x="77" y="-84.4" font-family="Consolas" font-size="12.00">+</text>
<text text-anchor="start" x="89" y="-84.4" font-family="Consolas" font-size="12.00">void Initialize(RandomQuest</text>
<text text-anchor="start" x="89" y="-71.4" font-family="Consolas" font-size="12.00"> quest)</text>
<text text-anchor="start" x="77" y="-54.4" font-family="Consolas" font-size="12.00">+</text>
<text text-anchor="start" x="89" y="-54.4" font-family="Consolas" font-size="12.00">void OnQuestCancelButton()</text>
<text text-anchor="start" x="77" y="-37.4" font-family="Consolas" font-size="12.00">#</text>
<text text-anchor="start" x="89" y="-37.4" font-family="Consolas" font-size="12.00">override void Start()</text>
<text text-anchor="start" x="77" y="-20.4" font-family="Consolas" font-size="12.00">#</text>
<text text-anchor="start" x="89" y="-20.4" font-family="Consolas" font-size="12.00">override void SetToolTip</text>
<text text-anchor="start" x="89" y="-7.4" font-family="Consolas" font-size="12.00">Text()</text>
<polygon fill="#666666" stroke="#666666" points="73,-313 73,-313 341,-313 341,-313 73,-313"/>
<polygon fill="#666666" stroke="#666666" points="73,-96 73,-96 87,-96 87,-96 73,-96"/>
<polygon fill="#666666" stroke="#666666" points="87,-96 87,-96 341,-96 341,-96 87,-96"/>
<polygon fill="none" stroke="#666666" points="73,0 73,-332 341,-332 341,0 73,0"/>
</a>
</g>
</g>
<!-- Node2 -->
<g id="Node000002" class="node">
<title>Node2</title>
<g id="a_Node000002"><a xlink:href="classTooltipPanelBase.html" target="_top" xlink:title=" ">
<polygon fill="white" stroke="transparent" points="322.5,-902 91.5,-902 91.5,-368 322.5,-368 322.5,-902"/>
<text text-anchor="start" x="147" y="-888.4" font-family="Consolas" font-size="12.00">TooltipPanelBase</text>
<text text-anchor="start" x="96" y="-871.4" font-family="Consolas" font-size="12.00">#</text>
<text text-anchor="start" x="108" y="-871.4" font-family="Consolas" font-size="12.00">GameObject tooltipPrefab</text>
<text text-anchor="start" x="96" y="-854.4" font-family="Consolas" font-size="12.00">#</text>
<text text-anchor="start" x="108" y="-854.4" font-family="Consolas" font-size="12.00">GameObject currentToolTip</text>
<text text-anchor="start" x="96" y="-837.4" font-family="Consolas" font-size="12.00">#</text>
<text text-anchor="start" x="108" y="-837.4" font-family="Consolas" font-size="12.00">Canvas canvasComponent</text>
<text text-anchor="start" x="96" y="-820.4" font-family="Consolas" font-size="12.00">#</text>
<text text-anchor="start" x="108" y="-820.4" font-family="Consolas" font-size="12.00">RectTransform canvasRect</text>
<text text-anchor="start" x="108" y="-807.4" font-family="Consolas" font-size="12.00">Transform</text>
<text text-anchor="start" x="96" y="-790.4" font-family="Consolas" font-size="12.00">#</text>
<text text-anchor="start" x="108" y="-790.4" font-family="Consolas" font-size="12.00">bool isMouseOver</text>
<text text-anchor="start" x="96" y="-773.4" font-family="Consolas" font-size="12.00">#</text>
<text text-anchor="start" x="108" y="-773.4" font-family="Consolas" font-size="12.00">Coroutine toolTipCoroutine</text>
<text text-anchor="start" x="96" y="-756.4" font-family="Consolas" font-size="12.00">#</text>
<text text-anchor="start" x="108" y="-756.4" font-family="Consolas" font-size="12.00">GameObject tooltipParent</text>
<text text-anchor="start" x="96" y="-739.4" font-family="Consolas" font-size="12.00">#</text>
<text text-anchor="start" x="108" y="-739.4" font-family="Consolas" font-size="12.00">Vector2 lastMousePosition</text>
<text text-anchor="start" x="96" y="-722.4" font-family="Consolas" font-size="12.00">+</text>
<text text-anchor="start" x="108" y="-722.4" font-family="Consolas" font-size="12.00">virtual void OnPointerEnter</text>
<text text-anchor="start" x="108" y="-709.4" font-family="Consolas" font-size="12.00">(PointerEventData eventData)</text>
<text text-anchor="start" x="96" y="-692.4" font-family="Consolas" font-size="12.00">+</text>
<text text-anchor="start" x="108" y="-692.4" font-family="Consolas" font-size="12.00">virtual void OnPointerExit</text>
<text text-anchor="start" x="108" y="-679.4" font-family="Consolas" font-size="12.00">(PointerEventData eventData)</text>
<text text-anchor="start" x="96" y="-662.4" font-family="Consolas" font-size="12.00">#</text>
<text text-anchor="start" x="108" y="-662.4" font-family="Consolas" font-size="12.00">virtual void Start()</text>
<text text-anchor="start" x="96" y="-645.4" font-family="Consolas" font-size="12.00">#</text>
<text text-anchor="start" x="108" y="-645.4" font-family="Consolas" font-size="12.00">virtual void Update()</text>
<text text-anchor="start" x="96" y="-628.4" font-family="Consolas" font-size="12.00">#</text>
<text text-anchor="start" x="108" y="-628.4" font-family="Consolas" font-size="12.00">virtual void CreateTooltip()</text>
<text text-anchor="start" x="96" y="-611.4" font-family="Consolas" font-size="12.00">#</text>
<text text-anchor="start" x="108" y="-611.4" font-family="Consolas" font-size="12.00">virtual void OnMouseEnter</text>
<text text-anchor="start" x="108" y="-598.4" font-family="Consolas" font-size="12.00">(PointerEventData eventData)</text>
<text text-anchor="start" x="96" y="-581.4" font-family="Consolas" font-size="12.00">#</text>
<text text-anchor="start" x="108" y="-581.4" font-family="Consolas" font-size="12.00">virtual void OnMouseExit</text>
<text text-anchor="start" x="108" y="-568.4" font-family="Consolas" font-size="12.00">(PointerEventData eventData)</text>
<text text-anchor="start" x="96" y="-551.4" font-family="Consolas" font-size="12.00">#</text>
<text text-anchor="start" x="108" y="-551.4" font-family="Consolas" font-size="12.00">virtual void UpdateToolTip</text>
<text text-anchor="start" x="108" y="-538.4" font-family="Consolas" font-size="12.00">PositionFromMouse()</text>
<text text-anchor="start" x="96" y="-521.4" font-family="Consolas" font-size="12.00">#</text>
<text text-anchor="start" x="108" y="-521.4" font-family="Consolas" font-size="12.00">virtual void UpdateToolTip</text>
<text text-anchor="start" x="108" y="-508.4" font-family="Consolas" font-size="12.00">Position(PointerEventData</text>
<text text-anchor="start" x="108" y="-495.4" font-family="Consolas" font-size="12.00"> eventData)</text>
<text text-anchor="start" x="96" y="-478.4" font-family="Consolas" font-size="12.00">#</text>
<text text-anchor="start" x="108" y="-478.4" font-family="Consolas" font-size="12.00">virtual void UpdateToolTip</text>
<text text-anchor="start" x="108" y="-465.4" font-family="Consolas" font-size="12.00">PositionInternal(Vector2</text>
<text text-anchor="start" x="108" y="-452.4" font-family="Consolas" font-size="12.00"> mousePosition)</text>
<text text-anchor="start" x="96" y="-435.4" font-family="Consolas" font-size="12.00">#</text>
<text text-anchor="start" x="108" y="-435.4" font-family="Consolas" font-size="12.00">virtual IEnumerator</text>
<text text-anchor="start" x="108" y="-422.4" font-family="Consolas" font-size="12.00"> ShowToolTipWithDelay</text>
<text text-anchor="start" x="108" y="-409.4" font-family="Consolas" font-size="12.00">(PointerEventData eventData)</text>
<text text-anchor="start" x="96" y="-392.4" font-family="Consolas" font-size="12.00">#</text>
<text text-anchor="start" x="108" y="-392.4" font-family="Consolas" font-size="12.00">virtual void OnDestroy()</text>
<text text-anchor="start" x="96" y="-375.4" font-family="Consolas" font-size="12.00">#</text>
<text text-anchor="start" x="108" y="-375.4" font-family="Consolas" font-size="12.00">void SetToolTipText()</text>
<polygon fill="#bfbfbf" stroke="#bfbfbf" points="92,-883 92,-883 323,-883 323,-883 92,-883"/>
<polygon fill="#bfbfbf" stroke="#bfbfbf" points="92,-734 92,-734 106,-734 106,-734 92,-734"/>
<polygon fill="#bfbfbf" stroke="#bfbfbf" points="106,-734 106,-734 323,-734 323,-734 106,-734"/>
<polygon fill="none" stroke="#bfbfbf" points="91.5,-368 91.5,-902 322.5,-902 322.5,-368 91.5,-368"/>
</a>
</g>
</g>
<!-- Node2&#45;&gt;Node1 -->
<g id="edge1_Node000001_Node000002" class="edge">
<title>Node2&#45;&gt;Node1</title>
<g id="a_edge1_Node000001_Node000002"><a xlink:title=" ">
<path fill="none" stroke="#63b8ff" d="M207,-357.68C207,-349.12 207,-340.64 207,-332.29"/>
<polygon fill="none" stroke="#63b8ff" points="203.5,-357.76 207,-367.76 210.5,-357.76 203.5,-357.76"/>
</a>
</g>
</g>
<!-- Node3 -->
<g id="Node000003" class="node">
<title>Node3</title>
<g id="a_Node000003"><a xlink:title=" ">
<polygon fill="white" stroke="transparent" points="108,-993 0,-993 0,-938 108,-938 108,-993"/>
<text text-anchor="start" x="5" y="-978.9" font-family="Consolas" font-size="12.00">MonoBehaviour</text>
<text text-anchor="start" x="50" y="-961.9" font-family="Consolas" font-size="12.00"> </text>
<text text-anchor="start" x="50" y="-944.9" font-family="Consolas" font-size="12.00"> </text>
<polygon fill="#bfbfbf" stroke="#bfbfbf" points="0,-973.5 0,-973.5 108,-973.5 108,-973.5 0,-973.5"/>
<polygon fill="#bfbfbf" stroke="#bfbfbf" points="0,-956.5 0,-956.5 108,-956.5 108,-956.5 0,-956.5"/>
<polygon fill="none" stroke="#bfbfbf" points="0,-938 0,-993 108,-993 108,-938 0,-938"/>
</a>
</g>
</g>
<!-- Node3&#45;&gt;Node2 -->
<g id="edge2_Node000002_Node000003" class="edge">
<title>Node3&#45;&gt;Node2</title>
<g id="a_edge2_Node000002_Node000003"><a xlink:title=" ">
<path fill="none" stroke="#63b8ff" d="M70.62,-928.82C76.47,-916.25 83.58,-901 91.43,-884.14"/>
<polygon fill="none" stroke="#63b8ff" points="67.44,-927.35 66.39,-937.9 73.79,-930.31 67.44,-927.35"/>
</a>
</g>
</g>
<!-- Node4 -->
<g id="Node000004" class="node">
<title>Node4</title>
<g id="a_Node000004"><a xlink:title=" ">
<polygon fill="white" stroke="transparent" points="287.5,-993 126.5,-993 126.5,-938 287.5,-938 287.5,-993"/>
<text text-anchor="start" x="132" y="-978.9" font-family="Consolas" font-size="12.00">IPointerEnterHandler</text>
<text text-anchor="start" x="203.5" y="-961.9" font-family="Consolas" font-size="12.00"> </text>
<text text-anchor="start" x="203.5" y="-944.9" font-family="Consolas" font-size="12.00"> </text>
<polygon fill="#bfbfbf" stroke="#bfbfbf" points="127,-973.5 127,-973.5 288,-973.5 288,-973.5 127,-973.5"/>
<polygon fill="#bfbfbf" stroke="#bfbfbf" points="127,-956.5 127,-956.5 288,-956.5 288,-956.5 127,-956.5"/>
<polygon fill="none" stroke="#bfbfbf" points="126.5,-938 126.5,-993 287.5,-993 287.5,-938 126.5,-938"/>
</a>
</g>
</g>
<!-- Node4&#45;&gt;Node2 -->
<g id="edge3_Node000002_Node000004" class="edge">
<title>Node4&#45;&gt;Node2</title>
<g id="a_edge3_Node000002_Node000004"><a xlink:title=" ">
<path fill="none" stroke="#63b8ff" d="M207,-927.74C207,-920.09 207,-911.48 207,-902.15"/>
<polygon fill="none" stroke="#63b8ff" points="203.5,-927.9 207,-937.9 210.5,-927.9 203.5,-927.9"/>
</a>
</g>
</g>
<!-- Node5 -->
<g id="Node000005" class="node">
<title>Node5</title>
<g id="a_Node000005"><a xlink:title=" ">
<polygon fill="white" stroke="transparent" points="458.5,-993 305.5,-993 305.5,-938 458.5,-938 458.5,-993"/>
<text text-anchor="start" x="311" y="-978.9" font-family="Consolas" font-size="12.00">IPointerExitHandler</text>
<text text-anchor="start" x="378.5" y="-961.9" font-family="Consolas" font-size="12.00"> </text>
<text text-anchor="start" x="378.5" y="-944.9" font-family="Consolas" font-size="12.00"> </text>
<polygon fill="#bfbfbf" stroke="#bfbfbf" points="306,-973.5 306,-973.5 459,-973.5 459,-973.5 306,-973.5"/>
<polygon fill="#bfbfbf" stroke="#bfbfbf" points="306,-956.5 306,-956.5 459,-956.5 459,-956.5 306,-956.5"/>
<polygon fill="none" stroke="#bfbfbf" points="305.5,-938 305.5,-993 458.5,-993 458.5,-938 305.5,-938"/>
</a>
</g>
</g>
<!-- Node5&#45;&gt;Node2 -->
<g id="edge4_Node000002_Node000005" class="edge">
<title>Node5&#45;&gt;Node2</title>
<g id="a_edge4_Node000002_Node000005"><a xlink:title=" ">
<path fill="none" stroke="#63b8ff" d="M363.05,-928.92C352.39,-908.93 338.12,-882.13 322.51,-852.84"/>
<polygon fill="none" stroke="#63b8ff" points="360.04,-930.72 367.83,-937.9 366.21,-927.42 360.04,-930.72"/>
</a>
</g>
</g>
</g>
</svg>
