<?xml version="1.0" encoding="UTF-8" standalone="no"?>
<!DOCTYPE svg PUBLIC "-//W3C//DTD SVG 1.1//EN"
 "http://www.w3.org/Graphics/SVG/1.1/DTD/svg11.dtd">
<!-- Generated by graphviz version 2.43.0 (0)
 -->
<!-- Title: RoomFactory.CreateStorageRoomInstance Pages: 1 -->
<svg width="1068pt" height="172pt"
 viewBox="0.00 0.00 1068.00 172.00" xmlns="http://www.w3.org/2000/svg" xmlns:xlink="http://www.w3.org/1999/xlink">
<g id="graph0" class="graph" transform="scale(1 1) rotate(0) translate(4 168)">
<title>RoomFactory.CreateStorageRoomInstance</title>
<!-- Node1 -->
<g id="Node000001" class="node">
<title>Node1</title>
<g id="a_Node000001"><a xlink:title="창고 인스턴스 생성">
<polygon fill="#999999" stroke="#666666" points="204,-118 0,-118 0,-84 204,-84 204,-118"/>
<text text-anchor="start" x="8" y="-104.4" font-family="Consolas" font-size="12.00">RoomFactory.CreateStorage</text>
<text text-anchor="middle" x="102" y="-91.4" font-family="Consolas" font-size="12.00">RoomInstance</text>
</a>
</g>
</g>
<!-- Node2 -->
<g id="Node000002" class="node">
<title>Node2</title>
<g id="a_Node000002"><a xlink:href="classRoomFactory.html#a443f648ae7680fe8175fc4078421b21c" target="_top" xlink:title="창고 유형에 따라 적절한 컴포넌트 부착">
<polygon fill="white" stroke="#666666" points="463,-164 259,-164 259,-130 463,-130 463,-164"/>
<text text-anchor="start" x="267" y="-150.4" font-family="Consolas" font-size="12.00">RoomFactory.AttachStorage</text>
<text text-anchor="middle" x="361" y="-137.4" font-family="Consolas" font-size="12.00">RoomComponent</text>
</a>
</g>
</g>
<!-- Node1&#45;&gt;Node2 -->
<g id="edge1_Node000001_Node000002" class="edge">
<title>Node1&#45;&gt;Node2</title>
<g id="a_edge1_Node000001_Node000002"><a xlink:title=" ">
<path fill="none" stroke="#63b8ff" d="M198.33,-118.06C216.74,-121.36 236.12,-124.83 254.82,-128.17"/>
<polygon fill="#63b8ff" stroke="#63b8ff" points="254.36,-131.65 264.82,-129.96 255.6,-124.76 254.36,-131.65"/>
</a>
</g>
</g>
<!-- Node3 -->
<g id="Node000003" class="node">
<title>Node3</title>
<g id="a_Node000003"><a xlink:href="classRoomFactory.html#a10fd996249d083cfb066722da981f6c3" target="_top" xlink:title="창고 데이터 반환">
<polygon fill="white" stroke="#666666" points="482,-111.5 240,-111.5 240,-90.5 482,-90.5 482,-111.5"/>
<text text-anchor="middle" x="361" y="-97.9" font-family="Consolas" font-size="12.00">RoomFactory.GetStorageRoomData</text>
</a>
</g>
</g>
<!-- Node1&#45;&gt;Node3 -->
<g id="edge2_Node000001_Node000003" class="edge">
<title>Node1&#45;&gt;Node3</title>
<g id="a_edge2_Node000001_Node000003"><a xlink:title=" ">
<path fill="none" stroke="#63b8ff" d="M204.2,-101C212.58,-101 221.13,-101 229.68,-101"/>
<polygon fill="#63b8ff" stroke="#63b8ff" points="229.71,-104.5 239.71,-101 229.71,-97.5 229.71,-104.5"/>
</a>
</g>
</g>
<!-- Node6 -->
<g id="Node000006" class="node">
<title>Node6</title>
<g id="a_Node000006"><a xlink:href="classStorageRoomBase.html#ad434cfbd52fdf361866908f89e1a5cd9" target="_top" xlink:title="방을 초기화합니다.">
<polygon fill="white" stroke="#666666" points="467,-72.5 255,-72.5 255,-51.5 467,-51.5 467,-72.5"/>
<text text-anchor="middle" x="361" y="-58.9" font-family="Consolas" font-size="12.00">StorageRoomBase.Initialize</text>
</a>
</g>
</g>
<!-- Node1&#45;&gt;Node6 -->
<g id="edge5_Node000001_Node000006" class="edge">
<title>Node1&#45;&gt;Node6</title>
<g id="a_edge5_Node000001_Node000006"><a xlink:title=" ">
<path fill="none" stroke="#63b8ff" d="M204.2,-85.64C229.52,-81.8 256.32,-77.73 280.43,-74.08"/>
<polygon fill="#63b8ff" stroke="#63b8ff" points="281.22,-77.5 290.58,-72.53 280.17,-70.57 281.22,-77.5"/>
</a>
</g>
</g>
<!-- Node4 -->
<g id="Node000004" class="node">
<title>Node4</title>
<g id="a_Node000004"><a xlink:href="classRoomDatabase.html#acf4163d9ce9df6f0046ae5b601a5f970" target="_top" xlink:title="창고 데이터 반환">
<polygon fill="white" stroke="#666666" points="767,-111.5 518,-111.5 518,-90.5 767,-90.5 767,-111.5"/>
<text text-anchor="middle" x="642.5" y="-97.9" font-family="Consolas" font-size="12.00">RoomDatabase.GetStorageRoomData</text>
</a>
</g>
</g>
<!-- Node3&#45;&gt;Node4 -->
<g id="edge3_Node000003_Node000004" class="edge">
<title>Node3&#45;&gt;Node4</title>
<g id="a_edge3_Node000003_Node000004"><a xlink:title=" ">
<path fill="none" stroke="#63b8ff" d="M482.16,-101C490.66,-101 499.27,-101 507.84,-101"/>
<polygon fill="#63b8ff" stroke="#63b8ff" points="507.89,-104.5 517.89,-101 507.89,-97.5 507.89,-104.5"/>
</a>
</g>
</g>
<!-- Node5 -->
<g id="Node000005" class="node">
<title>Node5</title>
<g id="a_Node000005"><a xlink:href="classRoomDatabase.html#af2eac7cb375a09fbaf1caa38af0a287e" target="_top" xlink:title="창고 데이터 맵 초기화">
<polygon fill="white" stroke="#666666" points="1052.5,-118 810.5,-118 810.5,-84 1052.5,-84 1052.5,-118"/>
<text text-anchor="start" x="818.5" y="-104.4" font-family="Consolas" font-size="12.00">RoomDatabase.InitializeStorage</text>
<text text-anchor="middle" x="931.5" y="-91.4" font-family="Consolas" font-size="12.00">DataMap</text>
</a>
</g>
</g>
<!-- Node4&#45;&gt;Node5 -->
<g id="edge4_Node000004_Node000005" class="edge">
<title>Node4&#45;&gt;Node5</title>
<g id="a_edge4_Node000004_Node000005"><a xlink:title=" ">
<path fill="none" stroke="#63b8ff" d="M767.3,-101C778.21,-101 789.29,-101 800.26,-101"/>
<polygon fill="#63b8ff" stroke="#63b8ff" points="800.29,-104.5 810.29,-101 800.29,-97.5 800.29,-104.5"/>
</a>
</g>
</g>
<!-- Node7 -->
<g id="Node000007" class="node">
<title>Node7</title>
<g id="a_Node000007"><a xlink:href="classRoom.html#a20cd0655c331d88c7e1825abc51e9941" target="_top" xlink:title="방의 크기를 반환합니다.">
<polygon fill="white" stroke="#666666" points="1060,-53.5 803,-53.5 803,-6.5 1060,-6.5 1060,-53.5"/>
<text text-anchor="start" x="811" y="-39.9" font-family="Consolas" font-size="12.00">Room&lt; StorageRoomBaseData,</text>
<text text-anchor="start" x="811" y="-26.9" font-family="Consolas" font-size="12.00"> StorageRoomBaseData.StorageRoom</text>
<text text-anchor="middle" x="931.5" y="-13.9" font-family="Consolas" font-size="12.00">BaseLevel &gt;::GetSize</text>
</a>
</g>
</g>
<!-- Node6&#45;&gt;Node7 -->
<g id="edge6_Node000006_Node000007" class="edge">
<title>Node6&#45;&gt;Node7</title>
<g id="a_edge6_Node000006_Node000007"><a xlink:title=" ">
<path fill="none" stroke="#63b8ff" d="M467.37,-57.99C549.14,-54.66 665.31,-49.43 767,-43 775.37,-42.47 783.99,-41.89 792.67,-41.28"/>
<polygon fill="#63b8ff" stroke="#63b8ff" points="793.17,-44.75 802.89,-40.55 792.67,-37.77 793.17,-44.75"/>
</a>
</g>
</g>
<!-- Node8 -->
<g id="Node000008" class="node">
<title>Node8</title>
<g id="a_Node000008"><a xlink:href="classStorageRoomBase.html#abda411b0f2b8935e9d79f6bfa5761a68" target="_top" xlink:title="창고 영역을 위한 콜라이더 초기화">
<polygon fill="white" stroke="#666666" points="748.5,-34 536.5,-34 536.5,0 748.5,0 748.5,-34"/>
<text text-anchor="start" x="544.5" y="-20.4" font-family="Consolas" font-size="12.00">StorageRoomBase.Initialize</text>
<text text-anchor="middle" x="642.5" y="-7.4" font-family="Consolas" font-size="12.00">Collider</text>
</a>
</g>
</g>
<!-- Node6&#45;&gt;Node8 -->
<g id="edge7_Node000006_Node000008" class="edge">
<title>Node6&#45;&gt;Node8</title>
<g id="a_edge7_Node000006_Node000008"><a xlink:title=" ">
<path fill="none" stroke="#63b8ff" d="M427.53,-51.45C457.05,-46.7 492.79,-40.94 526.54,-35.51"/>
<polygon fill="#63b8ff" stroke="#63b8ff" points="527.15,-38.96 536.47,-33.91 526.04,-32.04 527.15,-38.96"/>
</a>
</g>
</g>
<!-- Node8&#45;&gt;Node7 -->
<g id="edge8_Node000008_Node000007" class="edge">
<title>Node8&#45;&gt;Node7</title>
<g id="a_edge8_Node000008_Node000007"><a xlink:title=" ">
<path fill="none" stroke="#63b8ff" d="M748.74,-21.77C763.04,-22.41 777.88,-23.09 792.65,-23.76"/>
<polygon fill="#63b8ff" stroke="#63b8ff" points="792.7,-27.26 802.85,-24.22 793.02,-20.27 792.7,-27.26"/>
</a>
</g>
</g>
</g>
</svg>
