<?xml version="1.0" encoding="UTF-8" standalone="no"?>
<!DOCTYPE svg PUBLIC "-//W3C//DTD SVG 1.1//EN"
 "http://www.w3.org/Graphics/SVG/1.1/DTD/svg11.dtd">
<!-- Generated by graphviz version 2.43.0 (0)
 -->
<!-- Title: ES3Types.ES3UserType_CrewQuartersRoomLevel Pages: 1 -->
<svg width="254pt" height="1162pt"
 viewBox="0.00 0.00 254.00 1162.00" xmlns="http://www.w3.org/2000/svg" xmlns:xlink="http://www.w3.org/1999/xlink">
<g id="graph0" class="graph" transform="scale(1 1) rotate(0) translate(4 1158)">
<title>ES3Types.ES3UserType_CrewQuartersRoomLevel</title>
<!-- Node1 -->
<g id="Node000001" class="node">
<title>Node1</title>
<g id="a_Node000001"><a xlink:title=" ">
<polygon fill="#999999" stroke="transparent" points="231,-197 15,-197 15,0 231,0 231,-197"/>
<text text-anchor="start" x="40" y="-182.9" font-family="Consolas" font-size="12.00">ES3Types.ES3UserType</text>
<text text-anchor="start" x="40" y="-169.9" font-family="Consolas" font-size="12.00">_CrewQuartersRoomLevel</text>
<text text-anchor="start" x="19" y="-152.9" font-family="Consolas" font-size="12.00">+</text>
<text text-anchor="start" x="31" y="-152.9" font-family="Consolas" font-size="12.00">static ES3Type Instance</text>
<text text-anchor="start" x="19" y="-135.9" font-family="Consolas" font-size="12.00">+</text>
<text text-anchor="start" x="31" y="-135.9" font-family="Consolas" font-size="12.00">ES3UserType_CrewQuarters</text>
<text text-anchor="start" x="31" y="-122.9" font-family="Consolas" font-size="12.00">RoomLevel()</text>
<text text-anchor="start" x="19" y="-105.9" font-family="Consolas" font-size="12.00">#</text>
<text text-anchor="start" x="31" y="-105.9" font-family="Consolas" font-size="12.00">override void WriteObject</text>
<text text-anchor="start" x="31" y="-92.9" font-family="Consolas" font-size="12.00">(object obj, ES3Writer</text>
<text text-anchor="start" x="31" y="-79.9" font-family="Consolas" font-size="12.00"> writer)</text>
<text text-anchor="start" x="19" y="-62.9" font-family="Consolas" font-size="12.00">#</text>
<text text-anchor="start" x="31" y="-62.9" font-family="Consolas" font-size="12.00">override void ReadObject</text>
<text text-anchor="start" x="31" y="-49.9" font-family="Consolas" font-size="12.00">&lt; T &gt;(ES3Reader reader,</text>
<text text-anchor="start" x="31" y="-36.9" font-family="Consolas" font-size="12.00"> object obj)</text>
<text text-anchor="start" x="19" y="-19.9" font-family="Consolas" font-size="12.00">#</text>
<text text-anchor="start" x="31" y="-19.9" font-family="Consolas" font-size="12.00">override object ReadObject</text>
<text text-anchor="start" x="31" y="-6.9" font-family="Consolas" font-size="12.00">&lt; T &gt;(ES3Reader reader)</text>
<polygon fill="#666666" stroke="#666666" points="15,-164.5 15,-164.5 231,-164.5 231,-164.5 15,-164.5"/>
<polygon fill="#666666" stroke="#666666" points="15,-147.5 15,-147.5 29,-147.5 29,-147.5 15,-147.5"/>
<polygon fill="#666666" stroke="#666666" points="29,-147.5 29,-147.5 231,-147.5 231,-147.5 29,-147.5"/>
<polygon fill="none" stroke="#666666" points="15,0 15,-197 231,-197 231,0 15,0"/>
</a>
</g>
</g>
<!-- Node2 -->
<g id="Node000002" class="node">
<title>Node2</title>
<g id="a_Node000002"><a xlink:href="classES3Types_1_1ES3ObjectType.html" target="_top" xlink:title=" ">
<polygon fill="white" stroke="transparent" points="219.5,-520 26.5,-520 26.5,-233 219.5,-233 219.5,-520"/>
<text text-anchor="start" x="74.5" y="-505.9" font-family="Consolas" font-size="12.00">ES3ObjectType</text>
<text text-anchor="start" x="119.5" y="-488.9" font-family="Consolas" font-size="12.00"> </text>
<text text-anchor="start" x="31" y="-471.9" font-family="Consolas" font-size="12.00">+</text>
<text text-anchor="start" x="43" y="-471.9" font-family="Consolas" font-size="12.00">ES3ObjectType(Type</text>
<text text-anchor="start" x="43" y="-458.9" font-family="Consolas" font-size="12.00"> type)</text>
<text text-anchor="start" x="31" y="-441.9" font-family="Consolas" font-size="12.00">+</text>
<text text-anchor="start" x="43" y="-441.9" font-family="Consolas" font-size="12.00">override void Write</text>
<text text-anchor="start" x="43" y="-428.9" font-family="Consolas" font-size="12.00">(object obj, ES3Writer</text>
<text text-anchor="start" x="43" y="-415.9" font-family="Consolas" font-size="12.00"> writer)</text>
<text text-anchor="start" x="31" y="-398.9" font-family="Consolas" font-size="12.00">+</text>
<text text-anchor="start" x="43" y="-398.9" font-family="Consolas" font-size="12.00">override object Read</text>
<text text-anchor="start" x="43" y="-385.9" font-family="Consolas" font-size="12.00">&lt; T &gt;(ES3Reader reader)</text>
<text text-anchor="start" x="31" y="-368.9" font-family="Consolas" font-size="12.00">+</text>
<text text-anchor="start" x="43" y="-368.9" font-family="Consolas" font-size="12.00">override void ReadInto</text>
<text text-anchor="start" x="43" y="-355.9" font-family="Consolas" font-size="12.00">&lt; T &gt;(ES3Reader reader,</text>
<text text-anchor="start" x="43" y="-342.9" font-family="Consolas" font-size="12.00"> object obj)</text>
<text text-anchor="start" x="31" y="-325.9" font-family="Consolas" font-size="12.00">#</text>
<text text-anchor="start" x="43" y="-325.9" font-family="Consolas" font-size="12.00">void WriteObject(object</text>
<text text-anchor="start" x="43" y="-312.9" font-family="Consolas" font-size="12.00"> obj, ES3Writer writer)</text>
<text text-anchor="start" x="31" y="-295.9" font-family="Consolas" font-size="12.00">#</text>
<text text-anchor="start" x="43" y="-295.9" font-family="Consolas" font-size="12.00">object ReadObject&lt;</text>
<text text-anchor="start" x="43" y="-282.9" font-family="Consolas" font-size="12.00"> T &gt;(ES3Reader reader)</text>
<text text-anchor="start" x="31" y="-265.9" font-family="Consolas" font-size="12.00">#</text>
<text text-anchor="start" x="43" y="-265.9" font-family="Consolas" font-size="12.00">virtual void ReadObject</text>
<text text-anchor="start" x="43" y="-252.9" font-family="Consolas" font-size="12.00">&lt; T &gt;(ES3Reader reader,</text>
<text text-anchor="start" x="43" y="-239.9" font-family="Consolas" font-size="12.00"> object obj)</text>
<polygon fill="#bfbfbf" stroke="#bfbfbf" points="27,-500.5 27,-500.5 220,-500.5 220,-500.5 27,-500.5"/>
<polygon fill="#bfbfbf" stroke="#bfbfbf" points="27,-483.5 27,-483.5 220,-483.5 220,-483.5 27,-483.5"/>
<polygon fill="none" stroke="#bfbfbf" points="26.5,-233 26.5,-520 219.5,-520 219.5,-233 26.5,-233"/>
</a>
</g>
</g>
<!-- Node2&#45;&gt;Node1 -->
<g id="edge1_Node000001_Node000002" class="edge">
<title>Node2&#45;&gt;Node1</title>
<g id="a_edge1_Node000001_Node000002"><a xlink:title=" ">
<path fill="none" stroke="#63b8ff" d="M123,-222.57C123,-214.01 123,-205.52 123,-197.25"/>
<polygon fill="none" stroke="#63b8ff" points="119.5,-222.65 123,-232.65 126.5,-222.65 119.5,-222.65"/>
</a>
</g>
</g>
<!-- Node3 -->
<g id="Node000003" class="node">
<title>Node3</title>
<g id="a_Node000003"><a xlink:href="classES3Types_1_1ES3Type.html" target="_top" xlink:title=" ">
<polygon fill="white" stroke="transparent" points="246,-1154 0,-1154 0,-556 246,-556 246,-1154"/>
<text text-anchor="start" x="96.5" y="-1140.4" font-family="Consolas" font-size="12.00">ES3Type</text>
<text text-anchor="start" x="4" y="-1123.4" font-family="Consolas" font-size="12.00">+</text>
<text text-anchor="start" x="16" y="-1123.4" font-family="Consolas" font-size="12.00">ES3Member[] members</text>
<text text-anchor="start" x="4" y="-1106.4" font-family="Consolas" font-size="12.00">+</text>
<text text-anchor="start" x="16" y="-1106.4" font-family="Consolas" font-size="12.00">Type type</text>
<text text-anchor="start" x="4" y="-1089.4" font-family="Consolas" font-size="12.00">+</text>
<text text-anchor="start" x="16" y="-1089.4" font-family="Consolas" font-size="12.00">bool isPrimitive</text>
<text text-anchor="start" x="4" y="-1072.4" font-family="Consolas" font-size="12.00">+</text>
<text text-anchor="start" x="16" y="-1072.4" font-family="Consolas" font-size="12.00">bool isValueType</text>
<text text-anchor="start" x="4" y="-1055.4" font-family="Consolas" font-size="12.00">+</text>
<text text-anchor="start" x="16" y="-1055.4" font-family="Consolas" font-size="12.00">bool isCollection</text>
<text text-anchor="start" x="4" y="-1038.4" font-family="Consolas" font-size="12.00">+</text>
<text text-anchor="start" x="16" y="-1038.4" font-family="Consolas" font-size="12.00">bool isDictionary</text>
<text text-anchor="start" x="4" y="-1021.4" font-family="Consolas" font-size="12.00">+</text>
<text text-anchor="start" x="16" y="-1021.4" font-family="Consolas" font-size="12.00">bool isTuple</text>
<text text-anchor="start" x="4" y="-1004.4" font-family="Consolas" font-size="12.00">+</text>
<text text-anchor="start" x="16" y="-1004.4" font-family="Consolas" font-size="12.00">bool isEnum</text>
<text text-anchor="start" x="4" y="-987.4" font-family="Consolas" font-size="12.00">+</text>
<text text-anchor="start" x="16" y="-987.4" font-family="Consolas" font-size="12.00">bool isES3TypeUnityObject</text>
<text text-anchor="start" x="4" y="-970.4" font-family="Consolas" font-size="12.00">+</text>
<text text-anchor="start" x="16" y="-970.4" font-family="Consolas" font-size="12.00">bool isReflectedType</text>
<text text-anchor="start" x="4" y="-953.4" font-family="Consolas" font-size="12.00">+</text>
<text text-anchor="start" x="16" y="-953.4" font-family="Consolas" font-size="12.00">bool isUnsupported</text>
<text text-anchor="start" x="4" y="-936.4" font-family="Consolas" font-size="12.00">+</text>
<text text-anchor="start" x="16" y="-936.4" font-family="Consolas" font-size="12.00">int priority</text>
<text text-anchor="start" x="4" y="-919.4" font-family="Consolas" font-size="12.00">+</text>
<text text-anchor="start" x="16" y="-919.4" font-family="Consolas" font-size="12.00">const string typeFieldName</text>
<text text-anchor="start" x="4" y="-902.4" font-family="Consolas" font-size="12.00">+</text>
<text text-anchor="start" x="16" y="-902.4" font-family="Consolas" font-size="12.00">void Write(object obj,</text>
<text text-anchor="start" x="16" y="-889.4" font-family="Consolas" font-size="12.00"> ES3Writer writer)</text>
<text text-anchor="start" x="4" y="-872.4" font-family="Consolas" font-size="12.00">+</text>
<text text-anchor="start" x="16" y="-872.4" font-family="Consolas" font-size="12.00">object Read&lt; T &gt;(ES3Reader</text>
<text text-anchor="start" x="16" y="-859.4" font-family="Consolas" font-size="12.00"> reader)</text>
<text text-anchor="start" x="4" y="-842.4" font-family="Consolas" font-size="12.00">+</text>
<text text-anchor="start" x="16" y="-842.4" font-family="Consolas" font-size="12.00">virtual void ReadInto</text>
<text text-anchor="start" x="16" y="-829.4" font-family="Consolas" font-size="12.00">&lt; T &gt;(ES3Reader reader,</text>
<text text-anchor="start" x="16" y="-816.4" font-family="Consolas" font-size="12.00"> object obj)</text>
<text text-anchor="start" x="4" y="-799.4" font-family="Consolas" font-size="12.00">~</text>
<text text-anchor="start" x="16" y="-799.4" font-family="Consolas" font-size="12.00">string ReadPropertyName</text>
<text text-anchor="start" x="16" y="-786.4" font-family="Consolas" font-size="12.00">(ES3Reader reader)</text>
<text text-anchor="start" x="4" y="-769.4" font-family="Consolas" font-size="12.00">#</text>
<text text-anchor="start" x="16" y="-769.4" font-family="Consolas" font-size="12.00">ES3Type(Type type)</text>
<text text-anchor="start" x="4" y="-752.4" font-family="Consolas" font-size="12.00">#</text>
<text text-anchor="start" x="16" y="-752.4" font-family="Consolas" font-size="12.00">bool WriteUsingDerivedType</text>
<text text-anchor="start" x="16" y="-739.4" font-family="Consolas" font-size="12.00">(object obj, ES3Writer writer)</text>
<text text-anchor="start" x="4" y="-722.4" font-family="Consolas" font-size="12.00">#</text>
<text text-anchor="start" x="16" y="-722.4" font-family="Consolas" font-size="12.00">void ReadUsingDerivedType</text>
<text text-anchor="start" x="16" y="-709.4" font-family="Consolas" font-size="12.00">&lt; T &gt;(ES3Reader reader,</text>
<text text-anchor="start" x="16" y="-696.4" font-family="Consolas" font-size="12.00"> object obj)</text>
<text text-anchor="start" x="4" y="-679.4" font-family="Consolas" font-size="12.00">#</text>
<text text-anchor="start" x="16" y="-679.4" font-family="Consolas" font-size="12.00">void WriteProperties</text>
<text text-anchor="start" x="16" y="-666.4" font-family="Consolas" font-size="12.00">(object obj, ES3Writer</text>
<text text-anchor="start" x="16" y="-653.4" font-family="Consolas" font-size="12.00"> writer)</text>
<text text-anchor="start" x="4" y="-636.4" font-family="Consolas" font-size="12.00">#</text>
<text text-anchor="start" x="16" y="-636.4" font-family="Consolas" font-size="12.00">object ReadProperties</text>
<text text-anchor="start" x="16" y="-623.4" font-family="Consolas" font-size="12.00">(ES3Reader reader, object obj)</text>
<text text-anchor="start" x="4" y="-606.4" font-family="Consolas" font-size="12.00">#</text>
<text text-anchor="start" x="16" y="-606.4" font-family="Consolas" font-size="12.00">void GetMembers(bool</text>
<text text-anchor="start" x="16" y="-593.4" font-family="Consolas" font-size="12.00"> safe)</text>
<text text-anchor="start" x="4" y="-576.4" font-family="Consolas" font-size="12.00">#</text>
<text text-anchor="start" x="16" y="-576.4" font-family="Consolas" font-size="12.00">void GetMembers(bool</text>
<text text-anchor="start" x="16" y="-563.4" font-family="Consolas" font-size="12.00"> safe, string[] memberNames)</text>
<polygon fill="#bfbfbf" stroke="#bfbfbf" points="0,-1135 0,-1135 246,-1135 246,-1135 0,-1135"/>
<polygon fill="#bfbfbf" stroke="#bfbfbf" points="0,-914 0,-914 14,-914 14,-914 0,-914"/>
<polygon fill="#bfbfbf" stroke="#bfbfbf" points="14,-914 14,-914 246,-914 246,-914 14,-914"/>
<polygon fill="none" stroke="#bfbfbf" points="0,-556 0,-1154 246,-1154 246,-556 0,-556"/>
</a>
</g>
</g>
<!-- Node3&#45;&gt;Node2 -->
<g id="edge2_Node000002_Node000003" class="edge">
<title>Node3&#45;&gt;Node2</title>
<g id="a_edge2_Node000002_Node000003"><a xlink:title=" ">
<path fill="none" stroke="#63b8ff" d="M123,-545.7C123,-537.02 123,-528.48 123,-520.13"/>
<polygon fill="none" stroke="#63b8ff" points="119.5,-545.95 123,-555.95 126.5,-545.95 119.5,-545.95"/>
</a>
</g>
</g>
</g>
</svg>
