<?xml version="1.0" encoding="UTF-8" standalone="no"?>
<!DOCTYPE svg PUBLIC "-//W3C//DTD SVG 1.1//EN"
 "http://www.w3.org/Graphics/SVG/1.1/DTD/svg11.dtd">
<!-- Generated by graphviz version 2.43.0 (0)
 -->
<!-- Title: MenuUI Pages: 1 -->
<!--zoomable 1920 -->

<svg id="main" version="1.1" xmlns="http://www.w3.org/2000/svg" xmlns:xlink="http://www.w3.org/1999/xlink" xml:space="preserve" onload="init(evt)">
<style type="text/css"><![CDATA[
.node, .edge {opacity: 0.7;}
.node.selected, .edge.selected {opacity: 1;}
.edge:hover path { stroke: red; }
.edge:hover polygon { stroke: red; fill: red; }
]]></style>

<defs>
  <circle id="rim" cx="0" cy="0" r="7"/>
  <circle id="rim2" cx="0" cy="0" r="3.5"/>
  <g id="zoomPlus">
    <use xlink:href="#rim" fill="#404040"><set attributeName="fill" to="#808080" begin="zoomplus.mouseover" end="zoomplus.mouseout"/></use>
    <path d="M-4,0h8M0,-4v8" fill="none" stroke="white" stroke-width="1.5" pointer-events="none"/>
  </g>
  <g id="zoomMin">
    <use xlink:href="#rim" fill="#404040"><set attributeName="fill" to="#808080" begin="zoomminus.mouseover" end="zoomminus.mouseout"/></use>
    <path d="M-4,0h8" fill="none" stroke="white" stroke-width="1.5" pointer-events="none"/>
  </g>
  <g id="arrowUp" transform="translate(30 24)">
    <use xlink:href="#rim"/>
    <path pointer-events="none" fill="none" stroke="white" stroke-width="1.5" d="M0,-3.0v7 M-2.5,-0.5L0,-3.0L2.5,-0.5"/>
  </g>
  <g id="arrowRight" transform="rotate(90) translate(36 -43)">
    <use xlink:href="#rim"/>
    <path pointer-events="none" fill="none" stroke="white" stroke-width="1.5" d="M0,-3.0v7 M-2.5,-0.5L0,-3.0L2.5,-0.5"/>
  </g>
  <g id="arrowDown" transform="rotate(180) translate(-30 -48)">
    <use xlink:href="#rim"/>
    <path pointer-events="none" fill="none" stroke="white" stroke-width="1.5" d="M0,-3.0v7 M-2.5,-0.5L0,-3.0L2.5,-0.5"/>
  </g>
  <g id="arrowLeft" transform="rotate(270) translate(-36 17)">
    <use xlink:href="#rim"/>
    <path pointer-events="none" fill="none" stroke="white" stroke-width="1.5" d="M0,-3.0v7 M-2.5,-0.5L0,-3.0L2.5,-0.5"/>
  </g>
  <g id="resetDef">
    <use xlink:href="#rim2" fill="#404040"><set attributeName="fill" to="#808080" begin="reset.mouseover" end="reset.mouseout"/></use>
  </g>
</defs>
<script type="application/ecmascript">
var viewWidth = 594;
var viewHeight = 1920;
var sectionId = 'dynsection-1';
</script>
<script type="application/ecmascript" xlink:href="svg.min.js"/>
<svg id="graph" class="graph">
<g id="viewport">
<title>MenuUI</title>
<!-- Node1 -->
<g id="Node000001" class="node">
<title>Node1</title>
<g id="a_Node000001"><a xlink:title=" ">
<polygon fill="#999999" stroke="transparent" points="261,-208 0,-208 0,0 261,0 261,-208"/>
<text text-anchor="start" x="108" y="-194.4" font-family="Consolas" font-size="12.00">MenuUI</text>
<text text-anchor="start" x="4.5" y="-177.4" font-family="Consolas" font-size="12.00">+</text>
<text text-anchor="start" x="16.5" y="-177.4" font-family="Consolas" font-size="12.00">int moveCost</text>
<text text-anchor="start" x="4.5" y="-160.4" font-family="Consolas" font-size="12.00">&#45;</text>
<text text-anchor="start" x="16.5" y="-160.4" font-family="Consolas" font-size="12.00">GameObject storageButton</text>
<text text-anchor="start" x="4.5" y="-143.4" font-family="Consolas" font-size="12.00">&#45;</text>
<text text-anchor="start" x="16.5" y="-143.4" font-family="Consolas" font-size="12.00">GameObject moveButton</text>
<text text-anchor="start" x="4.5" y="-126.4" font-family="Consolas" font-size="12.00">+</text>
<text text-anchor="start" x="16.5" y="-126.4" font-family="Consolas" font-size="12.00">void OnTradeButtonClicked()</text>
<text text-anchor="start" x="4.5" y="-109.4" font-family="Consolas" font-size="12.00">+</text>
<text text-anchor="start" x="16.5" y="-109.4" font-family="Consolas" font-size="12.00">void OnBlueprintButtonClicked()</text>
<text text-anchor="start" x="4.5" y="-92.4" font-family="Consolas" font-size="12.00">+</text>
<text text-anchor="start" x="16.5" y="-92.4" font-family="Consolas" font-size="12.00">void OnEmployButtonClicked()</text>
<text text-anchor="start" x="4.5" y="-75.4" font-family="Consolas" font-size="12.00">+</text>
<text text-anchor="start" x="16.5" y="-75.4" font-family="Consolas" font-size="12.00">void OnMoveAcceptButtonClicked()</text>
<text text-anchor="start" x="4.5" y="-58.4" font-family="Consolas" font-size="12.00">+</text>
<text text-anchor="start" x="16.5" y="-58.4" font-family="Consolas" font-size="12.00">void OnMoveCancelButtonClicked()</text>
<text text-anchor="start" x="4.5" y="-41.4" font-family="Consolas" font-size="12.00">+</text>
<text text-anchor="start" x="16.5" y="-41.4" font-family="Consolas" font-size="12.00">void OnNoCOMAClicked()</text>
<text text-anchor="start" x="4.5" y="-24.4" font-family="Consolas" font-size="12.00">&#45;</text>
<text text-anchor="start" x="16.5" y="-24.4" font-family="Consolas" font-size="12.00">void Start()</text>
<text text-anchor="start" x="4.5" y="-7.4" font-family="Consolas" font-size="12.00">&#45;</text>
<text text-anchor="start" x="16.5" y="-7.4" font-family="Consolas" font-size="12.00">void IsHome()</text>
<polygon fill="#666666" stroke="#666666" points="0.5,-189 0.5,-189 261.5,-189 261.5,-189 0.5,-189"/>
<polygon fill="#666666" stroke="#666666" points="0.5,-138 0.5,-138 14.5,-138 14.5,-138 0.5,-138"/>
<polygon fill="#666666" stroke="#666666" points="14.5,-138 14.5,-138 261.5,-138 261.5,-138 14.5,-138"/>
<polygon fill="none" stroke="#666666" points="0,0 0,-208 261,-208 261,0 0,0"/>
</a>
</g>
</g>
<!-- Node2 -->
<g id="Node000002" class="node">
<title>Node2</title>
<g id="a_Node000002"><a xlink:title=" ">
<polygon fill="white" stroke="transparent" points="124.5,-854.5 16.5,-854.5 16.5,-799.5 124.5,-799.5 124.5,-854.5"/>
<text text-anchor="start" x="21.5" y="-840.4" font-family="Consolas" font-size="12.00">MonoBehaviour</text>
<text text-anchor="start" x="66.5" y="-823.4" font-family="Consolas" font-size="12.00"> </text>
<text text-anchor="start" x="66.5" y="-806.4" font-family="Consolas" font-size="12.00"> </text>
<polygon fill="#bfbfbf" stroke="#bfbfbf" points="16.5,-835 16.5,-835 124.5,-835 124.5,-835 16.5,-835"/>
<polygon fill="#bfbfbf" stroke="#bfbfbf" points="16.5,-818 16.5,-818 124.5,-818 124.5,-818 16.5,-818"/>
<polygon fill="none" stroke="#bfbfbf" points="16.5,-799.5 16.5,-854.5 124.5,-854.5 124.5,-799.5 16.5,-799.5"/>
</a>
</g>
</g>
<!-- Node2&#45;&gt;Node1 -->
<g id="edge1_Node000001_Node000002" class="edge">
<title>Node2&#45;&gt;Node1</title>
<g id="a_edge1_Node000001_Node000002"><a xlink:title=" ">
<path fill="none" stroke="#63b8ff" d="M73.56,-789.26C82.41,-682.85 108.31,-371.64 121.92,-208.11"/>
<polygon fill="none" stroke="#63b8ff" points="70.05,-789.23 72.71,-799.48 77.02,-789.81 70.05,-789.23"/>
</a>
</g>
</g>
<!-- Node3 -->
<g id="Node000003" class="node">
<title>Node3</title>
<g id="a_Node000003"><a xlink:href="classPlanetData.html" target="_top" xlink:title="행성 데이터">
<polygon fill="white" stroke="transparent" points="418.5,-1395 142.5,-1395 142.5,-259 418.5,-259 418.5,-1395"/>
<text text-anchor="start" x="242.5" y="-1381.4" font-family="Consolas" font-size="12.00">PlanetData</text>
<text text-anchor="start" x="146.5" y="-1364.4" font-family="Consolas" font-size="12.00">+</text>
<text text-anchor="start" x="158.5" y="-1364.4" font-family="Consolas" font-size="12.00">int planetId</text>
<text text-anchor="start" x="146.5" y="-1347.4" font-family="Consolas" font-size="12.00">+</text>
<text text-anchor="start" x="158.5" y="-1347.4" font-family="Consolas" font-size="12.00">string planetName</text>
<text text-anchor="start" x="146.5" y="-1330.4" font-family="Consolas" font-size="12.00">+</text>
<text text-anchor="start" x="158.5" y="-1330.4" font-family="Consolas" font-size="12.00">PlanetRace planetRace</text>
<text text-anchor="start" x="146.5" y="-1313.4" font-family="Consolas" font-size="12.00">+</text>
<text text-anchor="start" x="158.5" y="-1313.4" font-family="Consolas" font-size="12.00">ItemPlanet itemPlanet</text>
<text text-anchor="start" x="146.5" y="-1296.4" font-family="Consolas" font-size="12.00">+</text>
<text text-anchor="start" x="158.5" y="-1296.4" font-family="Consolas" font-size="12.00">Sprite currentSprite</text>
<text text-anchor="start" x="146.5" y="-1279.4" font-family="Consolas" font-size="12.00">+</text>
<text text-anchor="start" x="158.5" y="-1279.4" font-family="Consolas" font-size="12.00">List&lt; TradingItemData</text>
<text text-anchor="start" x="158.5" y="-1266.4" font-family="Consolas" font-size="12.00"> &gt; itemsTier1</text>
<text text-anchor="start" x="146.5" y="-1249.4" font-family="Consolas" font-size="12.00">+</text>
<text text-anchor="start" x="158.5" y="-1249.4" font-family="Consolas" font-size="12.00">List&lt; TradingItemData</text>
<text text-anchor="start" x="158.5" y="-1236.4" font-family="Consolas" font-size="12.00"> &gt; itemsTier2</text>
<text text-anchor="start" x="146.5" y="-1219.4" font-family="Consolas" font-size="12.00">+</text>
<text text-anchor="start" x="158.5" y="-1219.4" font-family="Consolas" font-size="12.00">List&lt; TradingItemData</text>
<text text-anchor="start" x="158.5" y="-1206.4" font-family="Consolas" font-size="12.00"> &gt; itemsTier3</text>
<text text-anchor="start" x="146.5" y="-1189.4" font-family="Consolas" font-size="12.00">+</text>
<text text-anchor="start" x="158.5" y="-1189.4" font-family="Consolas" font-size="12.00">int currentRevenue</text>
<text text-anchor="start" x="146.5" y="-1172.4" font-family="Consolas" font-size="12.00">+</text>
<text text-anchor="start" x="158.5" y="-1172.4" font-family="Consolas" font-size="12.00">int currentFuelPrice</text>
<text text-anchor="start" x="146.5" y="-1155.4" font-family="Consolas" font-size="12.00">+</text>
<text text-anchor="start" x="158.5" y="-1155.4" font-family="Consolas" font-size="12.00">int currentMissilePrice</text>
<text text-anchor="start" x="146.5" y="-1138.4" font-family="Consolas" font-size="12.00">+</text>
<text text-anchor="start" x="158.5" y="-1138.4" font-family="Consolas" font-size="12.00">int currentHypersonicPrice</text>
<text text-anchor="start" x="146.5" y="-1121.4" font-family="Consolas" font-size="12.00">+</text>
<text text-anchor="start" x="158.5" y="-1121.4" font-family="Consolas" font-size="12.00">List&lt; RandomQuest &gt;</text>
<text text-anchor="start" x="158.5" y="-1108.4" font-family="Consolas" font-size="12.00"> questList</text>
<text text-anchor="start" x="146.5" y="-1091.4" font-family="Consolas" font-size="12.00">+</text>
<text text-anchor="start" x="158.5" y="-1091.4" font-family="Consolas" font-size="12.00">List&lt; PlanetEffect</text>
<text text-anchor="start" x="158.5" y="-1078.4" font-family="Consolas" font-size="12.00"> &gt; activeEffects</text>
<text text-anchor="start" x="146.5" y="-1061.4" font-family="Consolas" font-size="12.00">+</text>
<text text-anchor="start" x="158.5" y="-1061.4" font-family="Consolas" font-size="12.00">Dictionary&lt; ItemCategory,</text>
<text text-anchor="start" x="158.5" y="-1048.4" font-family="Consolas" font-size="12.00"> float &gt; categoryPriceModifiers</text>
<text text-anchor="start" x="146.5" y="-1031.4" font-family="Consolas" font-size="12.00">+</text>
<text text-anchor="start" x="158.5" y="-1031.4" font-family="Consolas" font-size="12.00">Dictionary&lt; int, int</text>
<text text-anchor="start" x="158.5" y="-1018.4" font-family="Consolas" font-size="12.00"> &gt; itemPriceDictionary</text>
<text text-anchor="start" x="146.5" y="-1001.4" font-family="Consolas" font-size="12.00">+</text>
<text text-anchor="start" x="158.5" y="-1001.4" font-family="Consolas" font-size="12.00">bool isHome</text>
<text text-anchor="start" x="146.5" y="-984.4" font-family="Consolas" font-size="12.00">+</text>
<text text-anchor="start" x="158.5" y="-984.4" font-family="Consolas" font-size="12.00">ItemTierLevel CurrentTier</text>
<text text-anchor="start" x="146.5" y="-967.4" font-family="Consolas" font-size="12.00">+</text>
<text text-anchor="start" x="158.5" y="-967.4" font-family="Consolas" font-size="12.00">PlanetRace PlanetRace</text>
<text text-anchor="start" x="146.5" y="-950.4" font-family="Consolas" font-size="12.00">+</text>
<text text-anchor="start" x="158.5" y="-950.4" font-family="Consolas" font-size="12.00">void CreateRandomData()</text>
<text text-anchor="start" x="146.5" y="-933.4" font-family="Consolas" font-size="12.00">+</text>
<text text-anchor="start" x="158.5" y="-933.4" font-family="Consolas" font-size="12.00">void LoadSprites()</text>
<text text-anchor="start" x="146.5" y="-916.4" font-family="Consolas" font-size="12.00">+</text>
<text text-anchor="start" x="158.5" y="-916.4" font-family="Consolas" font-size="12.00">string GetSpeciesPrefix</text>
<text text-anchor="start" x="158.5" y="-903.4" font-family="Consolas" font-size="12.00">(PlanetRace species)</text>
<text text-anchor="start" x="146.5" y="-886.4" font-family="Consolas" font-size="12.00">+</text>
<text text-anchor="start" x="158.5" y="-886.4" font-family="Consolas" font-size="12.00">void SetItems()</text>
<text text-anchor="start" x="146.5" y="-869.4" font-family="Consolas" font-size="12.00">+</text>
<text text-anchor="start" x="158.5" y="-869.4" font-family="Consolas" font-size="12.00">void ChangeItemPrice()</text>
<text text-anchor="start" x="146.5" y="-852.4" font-family="Consolas" font-size="12.00">+</text>
<text text-anchor="start" x="158.5" y="-852.4" font-family="Consolas" font-size="12.00">int GetItemPrice(int</text>
<text text-anchor="start" x="158.5" y="-839.4" font-family="Consolas" font-size="12.00"> itemId)</text>
<text text-anchor="start" x="146.5" y="-822.4" font-family="Consolas" font-size="12.00">+</text>
<text text-anchor="start" x="158.5" y="-822.4" font-family="Consolas" font-size="12.00">int GetItemPrice(Trading</text>
<text text-anchor="start" x="158.5" y="-809.4" font-family="Consolas" font-size="12.00">ItemData item)</text>
<text text-anchor="start" x="146.5" y="-792.4" font-family="Consolas" font-size="12.00">+</text>
<text text-anchor="start" x="158.5" y="-792.4" font-family="Consolas" font-size="12.00">void RegisterPlanetEffect</text>
<text text-anchor="start" x="158.5" y="-779.4" font-family="Consolas" font-size="12.00">(PlanetEffect effectData)</text>
<text text-anchor="start" x="146.5" y="-762.4" font-family="Consolas" font-size="12.00">+</text>
<text text-anchor="start" x="158.5" y="-762.4" font-family="Consolas" font-size="12.00">void CheckPirateQuests()</text>
<text text-anchor="start" x="146.5" y="-745.4" font-family="Consolas" font-size="12.00">+</text>
<text text-anchor="start" x="158.5" y="-745.4" font-family="Consolas" font-size="12.00">void CheckItemQuests</text>
<text text-anchor="start" x="158.5" y="-732.4" font-family="Consolas" font-size="12.00">(int itemId)</text>
<text text-anchor="start" x="146.5" y="-715.4" font-family="Consolas" font-size="12.00">+</text>
<text text-anchor="start" x="158.5" y="-715.4" font-family="Consolas" font-size="12.00">void CheckEventExpirations</text>
<text text-anchor="start" x="158.5" y="-702.4" font-family="Consolas" font-size="12.00">(int currentYear)</text>
<text text-anchor="start" x="146.5" y="-685.4" font-family="Consolas" font-size="12.00">+</text>
<text text-anchor="start" x="158.5" y="-685.4" font-family="Consolas" font-size="12.00">float GetCategoryPriceModifier</text>
<text text-anchor="start" x="158.5" y="-672.4" font-family="Consolas" font-size="12.00">(ItemCategory category)</text>
<text text-anchor="start" x="146.5" y="-655.4" font-family="Consolas" font-size="12.00">+</text>
<text text-anchor="start" x="158.5" y="-655.4" font-family="Consolas" font-size="12.00">void ResetAllEffects()</text>
<text text-anchor="start" x="146.5" y="-638.4" font-family="Consolas" font-size="12.00">+</text>
<text text-anchor="start" x="158.5" y="-638.4" font-family="Consolas" font-size="12.00">int CalculateAdjustedPrice</text>
<text text-anchor="start" x="158.5" y="-625.4" font-family="Consolas" font-size="12.00">(int basePrice, ItemCategory</text>
<text text-anchor="start" x="158.5" y="-612.4" font-family="Consolas" font-size="12.00"> category)</text>
<text text-anchor="start" x="146.5" y="-595.4" font-family="Consolas" font-size="12.00">+</text>
<text text-anchor="start" x="158.5" y="-595.4" font-family="Consolas" font-size="12.00">void PrintAllEffects()</text>
<text text-anchor="start" x="146.5" y="-578.4" font-family="Consolas" font-size="12.00">+</text>
<text text-anchor="start" x="158.5" y="-578.4" font-family="Consolas" font-size="12.00">void CheckQuestExpirations</text>
<text text-anchor="start" x="158.5" y="-565.4" font-family="Consolas" font-size="12.00">(int currentYear)</text>
<text text-anchor="start" x="146.5" y="-548.4" font-family="Consolas" font-size="12.00">+</text>
<text text-anchor="start" x="158.5" y="-548.4" font-family="Consolas" font-size="12.00">void ActivateQuest</text>
<text text-anchor="start" x="158.5" y="-535.4" font-family="Consolas" font-size="12.00">(RandomQuest quest)</text>
<text text-anchor="start" x="146.5" y="-518.4" font-family="Consolas" font-size="12.00">+</text>
<text text-anchor="start" x="158.5" y="-518.4" font-family="Consolas" font-size="12.00">void CompleteQuest</text>
<text text-anchor="start" x="158.5" y="-505.4" font-family="Consolas" font-size="12.00">(RandomQuest quest)</text>
<text text-anchor="start" x="146.5" y="-488.4" font-family="Consolas" font-size="12.00">+</text>
<text text-anchor="start" x="158.5" y="-488.4" font-family="Consolas" font-size="12.00">void FailQuest(RandomQuest</text>
<text text-anchor="start" x="158.5" y="-475.4" font-family="Consolas" font-size="12.00"> quest)</text>
<text text-anchor="start" x="146.5" y="-458.4" font-family="Consolas" font-size="12.00">+</text>
<text text-anchor="start" x="158.5" y="-458.4" font-family="Consolas" font-size="12.00">void TrySpawnQuest()</text>
<text text-anchor="start" x="146.5" y="-441.4" font-family="Consolas" font-size="12.00">+</text>
<text text-anchor="start" x="158.5" y="-441.4" font-family="Consolas" font-size="12.00">void RefreshEquipmentSelling()</text>
<text text-anchor="start" x="146.5" y="-424.4" font-family="Consolas" font-size="12.00">+</text>
<text text-anchor="start" x="158.5" y="-424.4" font-family="Consolas" font-size="12.00">void ChangeFuelPrice()</text>
<text text-anchor="start" x="146.5" y="-407.4" font-family="Consolas" font-size="12.00">+</text>
<text text-anchor="start" x="158.5" y="-407.4" font-family="Consolas" font-size="12.00">void SetPlanetRace</text>
<text text-anchor="start" x="158.5" y="-394.4" font-family="Consolas" font-size="12.00">(PlanetRace planetRace)</text>
<text text-anchor="start" x="146.5" y="-377.4" font-family="Consolas" font-size="12.00">&#45;</text>
<text text-anchor="start" x="158.5" y="-377.4" font-family="Consolas" font-size="12.00">void InitializeCategoryModifiers()</text>
<text text-anchor="start" x="146.5" y="-360.4" font-family="Consolas" font-size="12.00">&#45;</text>
<text text-anchor="start" x="158.5" y="-360.4" font-family="Consolas" font-size="12.00">void SetRandomName()</text>
<text text-anchor="start" x="146.5" y="-343.4" font-family="Consolas" font-size="12.00">&#45;</text>
<text text-anchor="start" x="158.5" y="-343.4" font-family="Consolas" font-size="12.00">void SetRandomPosition()</text>
<text text-anchor="start" x="146.5" y="-326.4" font-family="Consolas" font-size="12.00">&#45;</text>
<text text-anchor="start" x="158.5" y="-326.4" font-family="Consolas" font-size="12.00">void ApplyPlanetEffectValue</text>
<text text-anchor="start" x="158.5" y="-313.4" font-family="Consolas" font-size="12.00">(PlanetEffect effect)</text>
<text text-anchor="start" x="146.5" y="-296.4" font-family="Consolas" font-size="12.00">&#45;</text>
<text text-anchor="start" x="158.5" y="-296.4" font-family="Consolas" font-size="12.00">void RemovePlanetEffectValue</text>
<text text-anchor="start" x="158.5" y="-283.4" font-family="Consolas" font-size="12.00">(PlanetEffect effect)</text>
<text text-anchor="start" x="146.5" y="-266.4" font-family="Consolas" font-size="12.00">&#45;</text>
<text text-anchor="start" x="158.5" y="-266.4" font-family="Consolas" font-size="12.00">void CreateRandomQuest()</text>
<polygon fill="#666666" stroke="#666666" points="142.5,-1376 142.5,-1376 418.5,-1376 418.5,-1376 142.5,-1376"/>
<polygon fill="#666666" stroke="#666666" points="142.5,-962 142.5,-962 156.5,-962 156.5,-962 142.5,-962"/>
<polygon fill="#666666" stroke="#666666" points="156.5,-962 156.5,-962 418.5,-962 418.5,-962 156.5,-962"/>
<polygon fill="none" stroke="#666666" points="142.5,-259 142.5,-1395 418.5,-1395 418.5,-259 142.5,-259"/>
</a>
</g>
</g>
<!-- Node3&#45;&gt;Node1 -->
<g id="edge2_Node000001_Node000003" class="edge">
<title>Node3&#45;&gt;Node1</title>
<g id="a_edge2_Node000001_Node000003"><a xlink:title=" ">
<path fill="none" stroke="#63b8ff" d="M162.49,-258.79C159.68,-245.24 156.98,-232.27 154.43,-220.03"/>
<polygon fill="none" stroke="#63b8ff" points="154.38,-219.78 149.24,-214.72 151.93,-208.03 157.07,-213.09 154.38,-219.78"/>
</a>
</g>
<text text-anchor="middle" x="207.5" y="-229.8" font-family="Consolas" font-size="14.00" fill="grey"> &#45;planetData</text>
</g>
<!-- Node4 -->
<g id="Node000004" class="node">
<title>Node4</title>
<g id="a_Node000004"><a xlink:title=" ">
<polygon fill="white" stroke="transparent" points="232,-1660.5 139,-1660.5 139,-1605.5 232,-1605.5 232,-1660.5"/>
<text text-anchor="start" x="144.5" y="-1646.4" font-family="Consolas" font-size="12.00">UnityEngine</text>
<text text-anchor="start" x="182" y="-1629.4" font-family="Consolas" font-size="12.00"> </text>
<text text-anchor="start" x="182" y="-1612.4" font-family="Consolas" font-size="12.00"> </text>
<polygon fill="#bfbfbf" stroke="#bfbfbf" points="139.5,-1641 139.5,-1641 232.5,-1641 232.5,-1641 139.5,-1641"/>
<polygon fill="#bfbfbf" stroke="#bfbfbf" points="139.5,-1624 139.5,-1624 232.5,-1624 232.5,-1624 139.5,-1624"/>
<polygon fill="none" stroke="#bfbfbf" points="139,-1605.5 139,-1660.5 232,-1660.5 232,-1605.5 139,-1605.5"/>
</a>
</g>
</g>
<!-- Node4&#45;&gt;Node3 -->
<g id="edge3_Node000003_Node000004" class="edge">
<title>Node4&#45;&gt;Node3</title>
<g id="a_edge3_Node000003_Node000004"><a xlink:title=" ">
<path fill="none" stroke="#63b8ff" d="M184.98,-1605.27C184.25,-1566.29 182.97,-1491.58 182.5,-1428 182.45,-1421.15 182.46,-1414.27 182.54,-1407.35"/>
<polygon fill="none" stroke="#63b8ff" points="182.54,-1407.28 178.64,-1401.22 182.74,-1395.28 186.64,-1401.35 182.54,-1407.28"/>
</a>
</g>
<text text-anchor="middle" x="265.5" y="-1416.8" font-family="Consolas" font-size="14.00" fill="grey"> +normalizedPosition</text>
</g>
<!-- Node5 -->
<g id="Node000005" class="node">
<title>Node5</title>
<g id="a_Node000005"><a xlink:href="classEquipmentItem.html" target="_top" xlink:title="각 장비 별 필요한 필드 정리">
<polygon fill="white" stroke="transparent" points="486,-1820 263,-1820 263,-1446 486,-1446 486,-1820"/>
<text text-anchor="start" x="326" y="-1806.4" font-family="Consolas" font-size="12.00">EquipmentItem</text>
<text text-anchor="start" x="267.5" y="-1789.4" font-family="Consolas" font-size="12.00">+</text>
<text text-anchor="start" x="279.5" y="-1789.4" font-family="Consolas" font-size="12.00">int eqId</text>
<text text-anchor="start" x="267.5" y="-1772.4" font-family="Consolas" font-size="12.00">+</text>
<text text-anchor="start" x="279.5" y="-1772.4" font-family="Consolas" font-size="12.00">Sprite eqIcon</text>
<text text-anchor="start" x="267.5" y="-1755.4" font-family="Consolas" font-size="12.00">+</text>
<text text-anchor="start" x="279.5" y="-1755.4" font-family="Consolas" font-size="12.00">string eqName</text>
<text text-anchor="start" x="267.5" y="-1738.4" font-family="Consolas" font-size="12.00">+</text>
<text text-anchor="start" x="279.5" y="-1738.4" font-family="Consolas" font-size="12.00">string eqDescription</text>
<text text-anchor="start" x="267.5" y="-1721.4" font-family="Consolas" font-size="12.00">+</text>
<text text-anchor="start" x="279.5" y="-1721.4" font-family="Consolas" font-size="12.00">EquipmentType eqType</text>
<text text-anchor="start" x="267.5" y="-1704.4" font-family="Consolas" font-size="12.00">+</text>
<text text-anchor="start" x="279.5" y="-1704.4" font-family="Consolas" font-size="12.00">int eqPrice</text>
<text text-anchor="start" x="267.5" y="-1687.4" font-family="Consolas" font-size="12.00">+</text>
<text text-anchor="start" x="279.5" y="-1687.4" font-family="Consolas" font-size="12.00">bool isGlobalEquip</text>
<text text-anchor="start" x="267.5" y="-1670.4" font-family="Consolas" font-size="12.00">+</text>
<text text-anchor="start" x="279.5" y="-1670.4" font-family="Consolas" font-size="12.00">ItemPlanet planet</text>
<text text-anchor="start" x="267.5" y="-1653.4" font-family="Consolas" font-size="12.00">+</text>
<text text-anchor="start" x="279.5" y="-1653.4" font-family="Consolas" font-size="12.00">int eqAttackBonus</text>
<text text-anchor="start" x="267.5" y="-1636.4" font-family="Consolas" font-size="12.00">+</text>
<text text-anchor="start" x="279.5" y="-1636.4" font-family="Consolas" font-size="12.00">int eqDefenseBonus</text>
<text text-anchor="start" x="267.5" y="-1619.4" font-family="Consolas" font-size="12.00">+</text>
<text text-anchor="start" x="279.5" y="-1619.4" font-family="Consolas" font-size="12.00">int eqHealthBonus</text>
<text text-anchor="start" x="267.5" y="-1602.4" font-family="Consolas" font-size="12.00">+</text>
<text text-anchor="start" x="279.5" y="-1602.4" font-family="Consolas" font-size="12.00">int eqAdditionalPilotSkill</text>
<text text-anchor="start" x="267.5" y="-1585.4" font-family="Consolas" font-size="12.00">+</text>
<text text-anchor="start" x="279.5" y="-1585.4" font-family="Consolas" font-size="12.00">int eqAdditionalEngineSkill</text>
<text text-anchor="start" x="267.5" y="-1568.4" font-family="Consolas" font-size="12.00">+</text>
<text text-anchor="start" x="279.5" y="-1568.4" font-family="Consolas" font-size="12.00">int eqAdditionalPowerSkill</text>
<text text-anchor="start" x="267.5" y="-1551.4" font-family="Consolas" font-size="12.00">+</text>
<text text-anchor="start" x="279.5" y="-1551.4" font-family="Consolas" font-size="12.00">int eqAdditionalShieldSkill</text>
<text text-anchor="start" x="267.5" y="-1534.4" font-family="Consolas" font-size="12.00">+</text>
<text text-anchor="start" x="279.5" y="-1534.4" font-family="Consolas" font-size="12.00">int eqAdditionalWeaponSkill</text>
<text text-anchor="start" x="267.5" y="-1517.4" font-family="Consolas" font-size="12.00">+</text>
<text text-anchor="start" x="279.5" y="-1517.4" font-family="Consolas" font-size="12.00">int eqAdditionalAmmunition</text>
<text text-anchor="start" x="279.5" y="-1504.4" font-family="Consolas" font-size="12.00">Skill</text>
<text text-anchor="start" x="267.5" y="-1487.4" font-family="Consolas" font-size="12.00">+</text>
<text text-anchor="start" x="279.5" y="-1487.4" font-family="Consolas" font-size="12.00">int eqAdditionalMedBaySkill</text>
<text text-anchor="start" x="267.5" y="-1470.4" font-family="Consolas" font-size="12.00">+</text>
<text text-anchor="start" x="279.5" y="-1470.4" font-family="Consolas" font-size="12.00">int eqAdditionalRepairSkill</text>
<text text-anchor="start" x="371" y="-1453.4" font-family="Consolas" font-size="12.00"> </text>
<polygon fill="#666666" stroke="#666666" points="263.5,-1801 263.5,-1801 486.5,-1801 486.5,-1801 263.5,-1801"/>
<polygon fill="#666666" stroke="#666666" points="263.5,-1465 263.5,-1465 277.5,-1465 277.5,-1465 263.5,-1465"/>
<polygon fill="#666666" stroke="#666666" points="277.5,-1465 277.5,-1465 486.5,-1465 486.5,-1465 277.5,-1465"/>
<polygon fill="none" stroke="#666666" points="263,-1446 263,-1820 486,-1820 486,-1446 263,-1446"/>
</a>
</g>
</g>
<!-- Node5&#45;&gt;Node3 -->
<g id="edge4_Node000003_Node000005" class="edge">
<title>Node5&#45;&gt;Node3</title>
<g id="a_edge4_Node000003_Node000005"><a xlink:title=" ">
<path fill="none" stroke="#63b8ff" d="M356.09,-1445.89C354.9,-1434.76 353.7,-1423.73 352.5,-1413 352.3,-1411.17 352.09,-1409.34 351.89,-1407.51"/>
<polygon fill="none" stroke="#63b8ff" points="351.86,-1407.29 347.22,-1401.77 350.52,-1395.36 355.16,-1400.88 351.86,-1407.29"/>
</a>
</g>
<text text-anchor="middle" x="469.5" y="-1416.8" font-family="Consolas" font-size="14.00" fill="grey"> +currentRandomEquipmentItem</text>
</g>
<!-- Node6 -->
<g id="Node000006" class="node">
<title>Node6</title>
<g id="a_Node000006"><a xlink:title=" ">
<polygon fill="white" stroke="transparent" points="440,-1912 309,-1912 309,-1857 440,-1857 440,-1912"/>
<text text-anchor="start" x="314.5" y="-1897.9" font-family="Consolas" font-size="12.00">ScriptableObject</text>
<text text-anchor="start" x="371" y="-1880.9" font-family="Consolas" font-size="12.00"> </text>
<text text-anchor="start" x="371" y="-1863.9" font-family="Consolas" font-size="12.00"> </text>
<polygon fill="#bfbfbf" stroke="#bfbfbf" points="309.5,-1892.5 309.5,-1892.5 440.5,-1892.5 440.5,-1892.5 309.5,-1892.5"/>
<polygon fill="#bfbfbf" stroke="#bfbfbf" points="309.5,-1875.5 309.5,-1875.5 440.5,-1875.5 440.5,-1875.5 309.5,-1875.5"/>
<polygon fill="none" stroke="#bfbfbf" points="309,-1857 309,-1912 440,-1912 440,-1857 309,-1857"/>
</a>
</g>
</g>
<!-- Node6&#45;&gt;Node5 -->
<g id="edge5_Node000005_Node000006" class="edge">
<title>Node6&#45;&gt;Node5</title>
<g id="a_edge5_Node000005_Node000006"><a xlink:title=" ">
<path fill="none" stroke="#63b8ff" d="M374.5,-1846.59C374.5,-1838.65 374.5,-1829.74 374.5,-1820.19"/>
<polygon fill="none" stroke="#63b8ff" points="371,-1846.8 374.5,-1856.8 378,-1846.8 371,-1846.8"/>
</a>
</g>
</g>
</g>
</svg>

<g id="navigator" transform="translate(0 0)" fill="#404254">
  <rect fill="#f2f5e9" fill-opacity="0.5" stroke="#606060" stroke-width=".5" x="0" y="0" width="60" height="60"/>
  <use id="zoomplus" xlink:href="#zoomPlus" x="17" y="9" onmousedown="handleZoom(evt,'in')"/>
  <use id="zoomminus" xlink:href="#zoomMin" x="42" y="9" onmousedown="handleZoom(evt,'out')"/>
  <use id="reset" xlink:href="#resetDef" x="30" y="36" onmousedown="handleReset()"/>
   <use id="arrowup" xlink:href="#arrowUp" x="0" y="0" onmousedown="handlePan(0,-1)"/>
  <use id="arrowright" xlink:href="#arrowRight" x="0" y="0" onmousedown="handlePan(1,0)"/>
  <use id="arrowdown" xlink:href="#arrowDown" x="0" y="0" onmousedown="handlePan(0,1)"/>
  <use id="arrowleft" xlink:href="#arrowLeft" x="0" y="0" onmousedown="handlePan(-1,0)"/>
</g>
<svg viewBox="0 0 15 15" width="100%" height="30px" preserveAspectRatio="xMaxYMin meet">
 <g id="arrow_out" transform="scale(0.3 0.3)">
  <a xlink:href="classMenuUI__coll__graph_org.svg" target="_base">
   <rect id="button" ry="5" rx="5" y="6" x="6" height="38" width="38"
        fill="#f2f5e9" fill-opacity="0.5" stroke="#606060" stroke-width="1.0"/>
   <path id="arrow"
     d="M 11.500037,31.436501 C 11.940474,20.09759 22.043105,11.32322 32.158766,21.979434 L 37.068811,17.246167 C 37.068811,17.246167 37.088388,32 37.088388,32 L 22.160133,31.978069 C 22.160133,31.978069 26.997745,27.140456 26.997745,27.140456 C 18.528582,18.264221 13.291696,25.230495 11.500037,31.436501 z"
     style="fill:#404040;"/>
  </a>
 </g>
</svg>

<style type='text/css'>
<![CDATA[
[data-mouse-over-selected='false'] { opacity: 0.7; }
[data-mouse-over-selected='true']  { opacity: 1.0; }
]]>
</style>
<script type="application/ecmascript"><![CDATA[
document.addEventListener('DOMContentLoaded', (event) => {
  highlightEdges();
  highlightAdjacentNodes();
});
]]></script>
</svg>
