<?xml version="1.0" encoding="UTF-8" standalone="no"?>
<!DOCTYPE svg PUBLIC "-//W3C//DTD SVG 1.1//EN"
 "http://www.w3.org/Graphics/SVG/1.1/DTD/svg11.dtd">
<!-- Generated by graphviz version 2.43.0 (0)
 -->
<!-- Title: ES3Types.ES3Type_SubEmittersModule Pages: 1 -->
<svg width="254pt" height="826pt"
 viewBox="0.00 0.00 254.00 826.00" xmlns="http://www.w3.org/2000/svg" xmlns:xlink="http://www.w3.org/1999/xlink">
<g id="graph0" class="graph" transform="scale(1 1) rotate(0) translate(4 822)">
<title>ES3Types.ES3Type_SubEmittersModule</title>
<!-- Node1 -->
<g id="Node000001" class="node">
<title>Node1</title>
<g id="a_Node000001"><a xlink:title=" ">
<polygon fill="#999999" stroke="transparent" points="234.5,-184 11.5,-184 11.5,0 234.5,0 234.5,-184"/>
<text text-anchor="start" x="18" y="-170.4" font-family="Consolas" font-size="12.00">ES3Types.ES3Type_SubEmitters</text>
<text text-anchor="start" x="100.5" y="-157.4" font-family="Consolas" font-size="12.00">Module</text>
<text text-anchor="start" x="16" y="-140.4" font-family="Consolas" font-size="12.00">+</text>
<text text-anchor="start" x="28" y="-140.4" font-family="Consolas" font-size="12.00">static ES3Type Instance</text>
<text text-anchor="start" x="16" y="-123.4" font-family="Consolas" font-size="12.00">+</text>
<text text-anchor="start" x="28" y="-123.4" font-family="Consolas" font-size="12.00">ES3Type_SubEmittersModule()</text>
<text text-anchor="start" x="16" y="-106.4" font-family="Consolas" font-size="12.00">+</text>
<text text-anchor="start" x="28" y="-106.4" font-family="Consolas" font-size="12.00">override void Write</text>
<text text-anchor="start" x="28" y="-93.4" font-family="Consolas" font-size="12.00">(object obj, ES3Writer</text>
<text text-anchor="start" x="28" y="-80.4" font-family="Consolas" font-size="12.00"> writer)</text>
<text text-anchor="start" x="16" y="-63.4" font-family="Consolas" font-size="12.00">+</text>
<text text-anchor="start" x="28" y="-63.4" font-family="Consolas" font-size="12.00">override object Read</text>
<text text-anchor="start" x="28" y="-50.4" font-family="Consolas" font-size="12.00">&lt; T &gt;(ES3Reader reader)</text>
<text text-anchor="start" x="16" y="-33.4" font-family="Consolas" font-size="12.00">+</text>
<text text-anchor="start" x="28" y="-33.4" font-family="Consolas" font-size="12.00">override void ReadInto</text>
<text text-anchor="start" x="28" y="-20.4" font-family="Consolas" font-size="12.00">&lt; T &gt;(ES3Reader reader,</text>
<text text-anchor="start" x="28" y="-7.4" font-family="Consolas" font-size="12.00"> object obj)</text>
<polygon fill="#666666" stroke="#666666" points="12,-152 12,-152 235,-152 235,-152 12,-152"/>
<polygon fill="#666666" stroke="#666666" points="12,-135 12,-135 26,-135 26,-135 12,-135"/>
<polygon fill="#666666" stroke="#666666" points="26,-135 26,-135 235,-135 235,-135 26,-135"/>
<polygon fill="none" stroke="#666666" points="11.5,0 11.5,-184 234.5,-184 234.5,0 11.5,0"/>
</a>
</g>
</g>
<!-- Node2 -->
<g id="Node000002" class="node">
<title>Node2</title>
<g id="a_Node000002"><a xlink:href="classES3Types_1_1ES3Type.html" target="_top" xlink:title=" ">
<polygon fill="white" stroke="transparent" points="246,-818 0,-818 0,-220 246,-220 246,-818"/>
<text text-anchor="start" x="96.5" y="-804.4" font-family="Consolas" font-size="12.00">ES3Type</text>
<text text-anchor="start" x="4" y="-787.4" font-family="Consolas" font-size="12.00">+</text>
<text text-anchor="start" x="16" y="-787.4" font-family="Consolas" font-size="12.00">ES3Member[] members</text>
<text text-anchor="start" x="4" y="-770.4" font-family="Consolas" font-size="12.00">+</text>
<text text-anchor="start" x="16" y="-770.4" font-family="Consolas" font-size="12.00">Type type</text>
<text text-anchor="start" x="4" y="-753.4" font-family="Consolas" font-size="12.00">+</text>
<text text-anchor="start" x="16" y="-753.4" font-family="Consolas" font-size="12.00">bool isPrimitive</text>
<text text-anchor="start" x="4" y="-736.4" font-family="Consolas" font-size="12.00">+</text>
<text text-anchor="start" x="16" y="-736.4" font-family="Consolas" font-size="12.00">bool isValueType</text>
<text text-anchor="start" x="4" y="-719.4" font-family="Consolas" font-size="12.00">+</text>
<text text-anchor="start" x="16" y="-719.4" font-family="Consolas" font-size="12.00">bool isCollection</text>
<text text-anchor="start" x="4" y="-702.4" font-family="Consolas" font-size="12.00">+</text>
<text text-anchor="start" x="16" y="-702.4" font-family="Consolas" font-size="12.00">bool isDictionary</text>
<text text-anchor="start" x="4" y="-685.4" font-family="Consolas" font-size="12.00">+</text>
<text text-anchor="start" x="16" y="-685.4" font-family="Consolas" font-size="12.00">bool isTuple</text>
<text text-anchor="start" x="4" y="-668.4" font-family="Consolas" font-size="12.00">+</text>
<text text-anchor="start" x="16" y="-668.4" font-family="Consolas" font-size="12.00">bool isEnum</text>
<text text-anchor="start" x="4" y="-651.4" font-family="Consolas" font-size="12.00">+</text>
<text text-anchor="start" x="16" y="-651.4" font-family="Consolas" font-size="12.00">bool isES3TypeUnityObject</text>
<text text-anchor="start" x="4" y="-634.4" font-family="Consolas" font-size="12.00">+</text>
<text text-anchor="start" x="16" y="-634.4" font-family="Consolas" font-size="12.00">bool isReflectedType</text>
<text text-anchor="start" x="4" y="-617.4" font-family="Consolas" font-size="12.00">+</text>
<text text-anchor="start" x="16" y="-617.4" font-family="Consolas" font-size="12.00">bool isUnsupported</text>
<text text-anchor="start" x="4" y="-600.4" font-family="Consolas" font-size="12.00">+</text>
<text text-anchor="start" x="16" y="-600.4" font-family="Consolas" font-size="12.00">int priority</text>
<text text-anchor="start" x="4" y="-583.4" font-family="Consolas" font-size="12.00">+</text>
<text text-anchor="start" x="16" y="-583.4" font-family="Consolas" font-size="12.00">const string typeFieldName</text>
<text text-anchor="start" x="4" y="-566.4" font-family="Consolas" font-size="12.00">+</text>
<text text-anchor="start" x="16" y="-566.4" font-family="Consolas" font-size="12.00">void Write(object obj,</text>
<text text-anchor="start" x="16" y="-553.4" font-family="Consolas" font-size="12.00"> ES3Writer writer)</text>
<text text-anchor="start" x="4" y="-536.4" font-family="Consolas" font-size="12.00">+</text>
<text text-anchor="start" x="16" y="-536.4" font-family="Consolas" font-size="12.00">object Read&lt; T &gt;(ES3Reader</text>
<text text-anchor="start" x="16" y="-523.4" font-family="Consolas" font-size="12.00"> reader)</text>
<text text-anchor="start" x="4" y="-506.4" font-family="Consolas" font-size="12.00">+</text>
<text text-anchor="start" x="16" y="-506.4" font-family="Consolas" font-size="12.00">virtual void ReadInto</text>
<text text-anchor="start" x="16" y="-493.4" font-family="Consolas" font-size="12.00">&lt; T &gt;(ES3Reader reader,</text>
<text text-anchor="start" x="16" y="-480.4" font-family="Consolas" font-size="12.00"> object obj)</text>
<text text-anchor="start" x="4" y="-463.4" font-family="Consolas" font-size="12.00">~</text>
<text text-anchor="start" x="16" y="-463.4" font-family="Consolas" font-size="12.00">string ReadPropertyName</text>
<text text-anchor="start" x="16" y="-450.4" font-family="Consolas" font-size="12.00">(ES3Reader reader)</text>
<text text-anchor="start" x="4" y="-433.4" font-family="Consolas" font-size="12.00">#</text>
<text text-anchor="start" x="16" y="-433.4" font-family="Consolas" font-size="12.00">ES3Type(Type type)</text>
<text text-anchor="start" x="4" y="-416.4" font-family="Consolas" font-size="12.00">#</text>
<text text-anchor="start" x="16" y="-416.4" font-family="Consolas" font-size="12.00">bool WriteUsingDerivedType</text>
<text text-anchor="start" x="16" y="-403.4" font-family="Consolas" font-size="12.00">(object obj, ES3Writer writer)</text>
<text text-anchor="start" x="4" y="-386.4" font-family="Consolas" font-size="12.00">#</text>
<text text-anchor="start" x="16" y="-386.4" font-family="Consolas" font-size="12.00">void ReadUsingDerivedType</text>
<text text-anchor="start" x="16" y="-373.4" font-family="Consolas" font-size="12.00">&lt; T &gt;(ES3Reader reader,</text>
<text text-anchor="start" x="16" y="-360.4" font-family="Consolas" font-size="12.00"> object obj)</text>
<text text-anchor="start" x="4" y="-343.4" font-family="Consolas" font-size="12.00">#</text>
<text text-anchor="start" x="16" y="-343.4" font-family="Consolas" font-size="12.00">void WriteProperties</text>
<text text-anchor="start" x="16" y="-330.4" font-family="Consolas" font-size="12.00">(object obj, ES3Writer</text>
<text text-anchor="start" x="16" y="-317.4" font-family="Consolas" font-size="12.00"> writer)</text>
<text text-anchor="start" x="4" y="-300.4" font-family="Consolas" font-size="12.00">#</text>
<text text-anchor="start" x="16" y="-300.4" font-family="Consolas" font-size="12.00">object ReadProperties</text>
<text text-anchor="start" x="16" y="-287.4" font-family="Consolas" font-size="12.00">(ES3Reader reader, object obj)</text>
<text text-anchor="start" x="4" y="-270.4" font-family="Consolas" font-size="12.00">#</text>
<text text-anchor="start" x="16" y="-270.4" font-family="Consolas" font-size="12.00">void GetMembers(bool</text>
<text text-anchor="start" x="16" y="-257.4" font-family="Consolas" font-size="12.00"> safe)</text>
<text text-anchor="start" x="4" y="-240.4" font-family="Consolas" font-size="12.00">#</text>
<text text-anchor="start" x="16" y="-240.4" font-family="Consolas" font-size="12.00">void GetMembers(bool</text>
<text text-anchor="start" x="16" y="-227.4" font-family="Consolas" font-size="12.00"> safe, string[] memberNames)</text>
<polygon fill="#bfbfbf" stroke="#bfbfbf" points="0,-799 0,-799 246,-799 246,-799 0,-799"/>
<polygon fill="#bfbfbf" stroke="#bfbfbf" points="0,-578 0,-578 14,-578 14,-578 0,-578"/>
<polygon fill="#bfbfbf" stroke="#bfbfbf" points="14,-578 14,-578 246,-578 246,-578 14,-578"/>
<polygon fill="none" stroke="#bfbfbf" points="0,-220 0,-818 246,-818 246,-220 0,-220"/>
</a>
</g>
</g>
<!-- Node2&#45;&gt;Node1 -->
<g id="edge1_Node000001_Node000002" class="edge">
<title>Node2&#45;&gt;Node1</title>
<g id="a_edge1_Node000001_Node000002"><a xlink:title=" ">
<path fill="none" stroke="#63b8ff" d="M123,-209.79C123,-200.9 123,-192.3 123,-184.06"/>
<polygon fill="none" stroke="#63b8ff" points="119.5,-209.94 123,-219.94 126.5,-209.94 119.5,-209.94"/>
</a>
</g>
</g>
</g>
</svg>
