<?xml version="1.0" encoding="UTF-8" standalone="no"?>
<!DOCTYPE svg PUBLIC "-//W3C//DTD SVG 1.1//EN"
 "http://www.w3.org/Graphics/SVG/1.1/DTD/svg11.dtd">
<!-- Generated by graphviz version 2.43.0 (0)
 -->
<!-- Title: ES3Cloud.DownloadFile Pages: 1 -->
<svg width="392pt" height="47pt"
 viewBox="0.00 0.00 392.00 47.00" xmlns="http://www.w3.org/2000/svg" xmlns:xlink="http://www.w3.org/1999/xlink">
<g id="graph0" class="graph" transform="scale(1 1) rotate(0) translate(4 43)">
<title>ES3Cloud.DownloadFile</title>
<!-- Node1 -->
<g id="Node000001" class="node">
<title>Node1</title>
<g id="a_Node000001"><a xlink:title="Downloads a file from the server and saves it locally, overwriting any existing local file....">
<polygon fill="#999999" stroke="#666666" points="174,-21 0,-21 0,0 174,0 174,-21"/>
<text text-anchor="middle" x="87" y="-7.4" font-family="Consolas" font-size="12.00">ES3Cloud.DownloadFile</text>
</a>
</g>
</g>
<!-- Node2 -->
<g id="Node000002" class="node">
<title>Node2</title>
<g id="a_Node000002"><a xlink:href="classES3Cloud.html#ab0f7872560f0c81a8b065b7a251e41c5" target="_top" xlink:title="Downloads the default file from the server and saves it locally, overwriting the existing local defau...">
<polygon fill="white" stroke="#666666" points="384,-21 210,-21 210,0 384,0 384,-21"/>
<text text-anchor="middle" x="297" y="-7.4" font-family="Consolas" font-size="12.00">ES3Cloud.DownloadFile</text>
</a>
</g>
</g>
<!-- Node1&#45;&gt;Node2 -->
<g id="edge1_Node000001_Node000002" class="edge">
<title>Node1&#45;&gt;Node2</title>
<g id="a_edge1_Node000001_Node000002"><a xlink:title=" ">
<path fill="none" stroke="#63b8ff" d="M174.1,-10.5C182.62,-10.5 191.3,-10.5 199.91,-10.5"/>
<polygon fill="#63b8ff" stroke="#63b8ff" points="199.96,-14 209.96,-10.5 199.96,-7 199.96,-14"/>
</a>
</g>
</g>
<!-- Node2&#45;&gt;Node2 -->
<g id="edge2_Node000002_Node000002" class="edge">
<title>Node2&#45;&gt;Node2</title>
<g id="a_edge2_Node000002_Node000002"><a xlink:title=" ">
<path fill="none" stroke="#63b8ff" d="M263.63,-21.02C249.37,-29.81 260.5,-39 297,-39 322.1,-39 335.2,-34.66 336.3,-29.09"/>
<polygon fill="#63b8ff" stroke="#63b8ff" points="339.11,-27 330.37,-21.02 333.47,-31.15 339.11,-27"/>
</a>
</g>
</g>
</g>
</svg>
