<?xml version="1.0" encoding="UTF-8" standalone="no"?>
<!DOCTYPE svg PUBLIC "-//W3C//DTD SVG 1.1//EN"
 "http://www.w3.org/Graphics/SVG/1.1/DTD/svg11.dtd">
<!-- Generated by graphviz version 2.43.0 (0)
 -->
<!-- Title: WeaponSystem Pages: 1 -->
<!--zoomable 887 -->

<svg id="main" version="1.1" xmlns="http://www.w3.org/2000/svg" xmlns:xlink="http://www.w3.org/1999/xlink" xml:space="preserve" onload="init(evt)">
<style type="text/css"><![CDATA[
.node, .edge {opacity: 0.7;}
.node.selected, .edge.selected {opacity: 1;}
.edge:hover path { stroke: red; }
.edge:hover polygon { stroke: red; fill: red; }
]]></style>

<defs>
  <circle id="rim" cx="0" cy="0" r="7"/>
  <circle id="rim2" cx="0" cy="0" r="3.5"/>
  <g id="zoomPlus">
    <use xlink:href="#rim" fill="#404040"><set attributeName="fill" to="#808080" begin="zoomplus.mouseover" end="zoomplus.mouseout"/></use>
    <path d="M-4,0h8M0,-4v8" fill="none" stroke="white" stroke-width="1.5" pointer-events="none"/>
  </g>
  <g id="zoomMin">
    <use xlink:href="#rim" fill="#404040"><set attributeName="fill" to="#808080" begin="zoomminus.mouseover" end="zoomminus.mouseout"/></use>
    <path d="M-4,0h8" fill="none" stroke="white" stroke-width="1.5" pointer-events="none"/>
  </g>
  <g id="arrowUp" transform="translate(30 24)">
    <use xlink:href="#rim"/>
    <path pointer-events="none" fill="none" stroke="white" stroke-width="1.5" d="M0,-3.0v7 M-2.5,-0.5L0,-3.0L2.5,-0.5"/>
  </g>
  <g id="arrowRight" transform="rotate(90) translate(36 -43)">
    <use xlink:href="#rim"/>
    <path pointer-events="none" fill="none" stroke="white" stroke-width="1.5" d="M0,-3.0v7 M-2.5,-0.5L0,-3.0L2.5,-0.5"/>
  </g>
  <g id="arrowDown" transform="rotate(180) translate(-30 -48)">
    <use xlink:href="#rim"/>
    <path pointer-events="none" fill="none" stroke="white" stroke-width="1.5" d="M0,-3.0v7 M-2.5,-0.5L0,-3.0L2.5,-0.5"/>
  </g>
  <g id="arrowLeft" transform="rotate(270) translate(-36 17)">
    <use xlink:href="#rim"/>
    <path pointer-events="none" fill="none" stroke="white" stroke-width="1.5" d="M0,-3.0v7 M-2.5,-0.5L0,-3.0L2.5,-0.5"/>
  </g>
  <g id="resetDef">
    <use xlink:href="#rim2" fill="#404040"><set attributeName="fill" to="#808080" begin="reset.mouseover" end="reset.mouseout"/></use>
  </g>
</defs>
<script type="application/ecmascript">
var viewWidth = 299;
var viewHeight = 887;
var sectionId = 'dynsection-0';
</script>
<script type="application/ecmascript" xlink:href="svg.min.js"/>
<svg id="graph" class="graph">
<g id="viewport">
<title>WeaponSystem</title>
<!-- Node1 -->
<g id="Node000001" class="node">
<title>Node1</title>
<g id="a_Node000001"><a xlink:title="함선의 무기 시스템. 무기의 추가/제거, 발사, 쿨다운 관리 및 스탯 보정을 적용한 데미지/쿨타임 계산을 담당합니다.">
<polygon fill="#999999" stroke="transparent" points="291,-711 0,-711 0,0 291,0 291,-711"/>
<text text-anchor="start" x="100.5" y="-696.9" font-family="Consolas" font-size="12.00">WeaponSystem</text>
<text text-anchor="start" x="4.5" y="-679.9" font-family="Consolas" font-size="12.00">&#45;</text>
<text text-anchor="start" x="16.5" y="-679.9" font-family="Consolas" font-size="12.00">bool autoFireEnabled</text>
<text text-anchor="start" x="4.5" y="-662.9" font-family="Consolas" font-size="12.00">+</text>
<text text-anchor="start" x="16.5" y="-662.9" font-family="Consolas" font-size="12.00">override void Update</text>
<text text-anchor="start" x="16.5" y="-649.9" font-family="Consolas" font-size="12.00">(float deltaTime)</text>
<text text-anchor="start" x="4.5" y="-632.9" font-family="Consolas" font-size="12.00">+</text>
<text text-anchor="start" x="16.5" y="-632.9" font-family="Consolas" font-size="12.00">void SetAutoFireEnabled</text>
<text text-anchor="start" x="16.5" y="-619.9" font-family="Consolas" font-size="12.00">(bool enabled)</text>
<text text-anchor="start" x="4.5" y="-602.9" font-family="Consolas" font-size="12.00">+</text>
<text text-anchor="start" x="16.5" y="-602.9" font-family="Consolas" font-size="12.00">bool IsAutoFireEnabled()</text>
<text text-anchor="start" x="4.5" y="-585.9" font-family="Consolas" font-size="12.00">+</text>
<text text-anchor="start" x="16.5" y="-585.9" font-family="Consolas" font-size="12.00">int FireWeapon(int</text>
<text text-anchor="start" x="16.5" y="-572.9" font-family="Consolas" font-size="12.00"> weaponIndex=&#45;1)</text>
<text text-anchor="start" x="4.5" y="-555.9" font-family="Consolas" font-size="12.00">+</text>
<text text-anchor="start" x="16.5" y="-555.9" font-family="Consolas" font-size="12.00">int FireAllReadyWeapons()</text>
<text text-anchor="start" x="4.5" y="-538.9" font-family="Consolas" font-size="12.00">+</text>
<text text-anchor="start" x="16.5" y="-538.9" font-family="Consolas" font-size="12.00">int FireWeaponsByType</text>
<text text-anchor="start" x="16.5" y="-525.9" font-family="Consolas" font-size="12.00">(ShipWeaponType weaponType)</text>
<text text-anchor="start" x="4.5" y="-508.9" font-family="Consolas" font-size="12.00">+</text>
<text text-anchor="start" x="16.5" y="-508.9" font-family="Consolas" font-size="12.00">ShipWeapon AddWeapon</text>
<text text-anchor="start" x="16.5" y="-495.9" font-family="Consolas" font-size="12.00">(int weaponId, Vector2Int</text>
<text text-anchor="start" x="16.5" y="-482.9" font-family="Consolas" font-size="12.00"> gridPosition, ShipWeaponAttached</text>
<text text-anchor="start" x="16.5" y="-469.9" font-family="Consolas" font-size="12.00">Direction direction)</text>
<text text-anchor="start" x="4.5" y="-452.9" font-family="Consolas" font-size="12.00">+</text>
<text text-anchor="start" x="16.5" y="-452.9" font-family="Consolas" font-size="12.00">ShipWeapon AddWeapon</text>
<text text-anchor="start" x="16.5" y="-439.9" font-family="Consolas" font-size="12.00">(ShipWeapon shipWeapon)</text>
<text text-anchor="start" x="4.5" y="-422.9" font-family="Consolas" font-size="12.00">+</text>
<text text-anchor="start" x="16.5" y="-422.9" font-family="Consolas" font-size="12.00">bool RemoveWeapon(ShipWeapon</text>
<text text-anchor="start" x="16.5" y="-409.9" font-family="Consolas" font-size="12.00"> weapon)</text>
<text text-anchor="start" x="4.5" y="-392.9" font-family="Consolas" font-size="12.00">+</text>
<text text-anchor="start" x="16.5" y="-392.9" font-family="Consolas" font-size="12.00">float GetActualCooldown</text>
<text text-anchor="start" x="16.5" y="-379.9" font-family="Consolas" font-size="12.00">(float baseCooldown)</text>
<text text-anchor="start" x="4.5" y="-362.9" font-family="Consolas" font-size="12.00">+</text>
<text text-anchor="start" x="16.5" y="-362.9" font-family="Consolas" font-size="12.00">float GetActualDamage</text>
<text text-anchor="start" x="16.5" y="-349.9" font-family="Consolas" font-size="12.00">(float damage)</text>
<text text-anchor="start" x="4.5" y="-332.9" font-family="Consolas" font-size="12.00">+</text>
<text text-anchor="start" x="16.5" y="-332.9" font-family="Consolas" font-size="12.00">List&lt; ShipWeapon &gt;</text>
<text text-anchor="start" x="16.5" y="-319.9" font-family="Consolas" font-size="12.00"> GetWeapons()</text>
<text text-anchor="start" x="4.5" y="-302.9" font-family="Consolas" font-size="12.00">+</text>
<text text-anchor="start" x="16.5" y="-302.9" font-family="Consolas" font-size="12.00">int GetWeaponCount()</text>
<text text-anchor="start" x="4.5" y="-285.9" font-family="Consolas" font-size="12.00">+</text>
<text text-anchor="start" x="16.5" y="-285.9" font-family="Consolas" font-size="12.00">void RemoveAllWeapons()</text>
<text text-anchor="start" x="4.5" y="-268.9" font-family="Consolas" font-size="12.00">+</text>
<text text-anchor="start" x="16.5" y="-268.9" font-family="Consolas" font-size="12.00">ShipWeapon GetWeaponByIndex</text>
<text text-anchor="start" x="16.5" y="-255.9" font-family="Consolas" font-size="12.00">(int index)</text>
<text text-anchor="start" x="4.5" y="-238.9" font-family="Consolas" font-size="12.00">+</text>
<text text-anchor="start" x="16.5" y="-238.9" font-family="Consolas" font-size="12.00">bool IsEveryWeaponReady()</text>
<text text-anchor="start" x="4.5" y="-221.9" font-family="Consolas" font-size="12.00">+</text>
<text text-anchor="start" x="16.5" y="-221.9" font-family="Consolas" font-size="12.00">void UpdateWeaponCooldowns</text>
<text text-anchor="start" x="16.5" y="-208.9" font-family="Consolas" font-size="12.00">(float deltaTime)</text>
<text text-anchor="start" x="4.5" y="-191.9" font-family="Consolas" font-size="12.00">+</text>
<text text-anchor="start" x="16.5" y="-191.9" font-family="Consolas" font-size="12.00">List&lt; ShipWeapon &gt;</text>
<text text-anchor="start" x="16.5" y="-178.9" font-family="Consolas" font-size="12.00"> GetWeaponsByType(ShipWeapon</text>
<text text-anchor="start" x="16.5" y="-165.9" font-family="Consolas" font-size="12.00">Type type)</text>
<text text-anchor="start" x="4.5" y="-148.9" font-family="Consolas" font-size="12.00">+</text>
<text text-anchor="start" x="16.5" y="-148.9" font-family="Consolas" font-size="12.00">void ResetAllWeaponStats()</text>
<text text-anchor="start" x="4.5" y="-131.9" font-family="Consolas" font-size="12.00">+</text>
<text text-anchor="start" x="16.5" y="-131.9" font-family="Consolas" font-size="12.00">List&lt; ShipWeapon &gt;</text>
<text text-anchor="start" x="16.5" y="-118.9" font-family="Consolas" font-size="12.00"> GetWeaponsByWarheadType</text>
<text text-anchor="start" x="16.5" y="-105.9" font-family="Consolas" font-size="12.00">(WarheadType warheadType)</text>
<text text-anchor="start" x="4.5" y="-88.9" font-family="Consolas" font-size="12.00">+</text>
<text text-anchor="start" x="16.5" y="-88.9" font-family="Consolas" font-size="12.00">List&lt; ShipWeapon &gt;</text>
<text text-anchor="start" x="16.5" y="-75.9" font-family="Consolas" font-size="12.00"> GetWeaponsByEffect</text>
<text text-anchor="start" x="16.5" y="-62.9" font-family="Consolas" font-size="12.00">(ShipWeaponEffectType</text>
<text text-anchor="start" x="16.5" y="-49.9" font-family="Consolas" font-size="12.00"> effectType)</text>
<text text-anchor="start" x="4.5" y="-32.9" font-family="Consolas" font-size="12.00">&#45;</text>
<text text-anchor="start" x="16.5" y="-32.9" font-family="Consolas" font-size="12.00">void UpdateWeaponCooldown</text>
<text text-anchor="start" x="16.5" y="-19.9" font-family="Consolas" font-size="12.00">WithBonus(ShipWeapon weapon,</text>
<text text-anchor="start" x="16.5" y="-6.9" font-family="Consolas" font-size="12.00"> float deltaTime, float reloadBonus)</text>
<polygon fill="#666666" stroke="#666666" points="0.5,-691.5 0.5,-691.5 291.5,-691.5 291.5,-691.5 0.5,-691.5"/>
<polygon fill="#666666" stroke="#666666" points="0.5,-674.5 0.5,-674.5 14.5,-674.5 14.5,-674.5 0.5,-674.5"/>
<polygon fill="#666666" stroke="#666666" points="14.5,-674.5 14.5,-674.5 291.5,-674.5 291.5,-674.5 14.5,-674.5"/>
<polygon fill="none" stroke="#666666" points="0,0 0,-711 291,-711 291,0 0,0"/>
</a>
</g>
</g>
<!-- Node2 -->
<g id="Node000002" class="node">
<title>Node2</title>
<g id="a_Node000002"><a xlink:href="classShipSystem.html" target="_top" xlink:title="모든 함선 시스템의 추상 기반 클래스. 각 시스템은 함선 객체를 기반으로 동작하며, 공통적인 초기화 및 스탯 조회 기능을 제공합니다.">
<polygon fill="white" stroke="transparent" points="261,-879 30,-879 30,-747 261,-747 261,-879"/>
<text text-anchor="start" x="108" y="-865.4" font-family="Consolas" font-size="12.00">ShipSystem</text>
<text text-anchor="start" x="34.5" y="-848.4" font-family="Consolas" font-size="12.00">#</text>
<text text-anchor="start" x="46.5" y="-848.4" font-family="Consolas" font-size="12.00">Ship parentShip</text>
<text text-anchor="start" x="34.5" y="-831.4" font-family="Consolas" font-size="12.00">+</text>
<text text-anchor="start" x="46.5" y="-831.4" font-family="Consolas" font-size="12.00">virtual void Initialize</text>
<text text-anchor="start" x="46.5" y="-818.4" font-family="Consolas" font-size="12.00">(Ship ship)</text>
<text text-anchor="start" x="34.5" y="-801.4" font-family="Consolas" font-size="12.00">+</text>
<text text-anchor="start" x="46.5" y="-801.4" font-family="Consolas" font-size="12.00">virtual void Refresh()</text>
<text text-anchor="start" x="34.5" y="-784.4" font-family="Consolas" font-size="12.00">+</text>
<text text-anchor="start" x="46.5" y="-784.4" font-family="Consolas" font-size="12.00">void Update(float deltaTime)</text>
<text text-anchor="start" x="34.5" y="-767.4" font-family="Consolas" font-size="12.00">#</text>
<text text-anchor="start" x="46.5" y="-767.4" font-family="Consolas" font-size="12.00">float GetShipStat(ShipStat</text>
<text text-anchor="start" x="46.5" y="-754.4" font-family="Consolas" font-size="12.00"> stat)</text>
<polygon fill="#666666" stroke="#666666" points="30.5,-860 30.5,-860 261.5,-860 261.5,-860 30.5,-860"/>
<polygon fill="#666666" stroke="#666666" points="30.5,-843 30.5,-843 44.5,-843 44.5,-843 30.5,-843"/>
<polygon fill="#666666" stroke="#666666" points="44.5,-843 44.5,-843 261.5,-843 261.5,-843 44.5,-843"/>
<polygon fill="none" stroke="#666666" points="30,-747 30,-879 261,-879 261,-747 30,-747"/>
</a>
</g>
</g>
<!-- Node2&#45;&gt;Node1 -->
<g id="edge1_Node000001_Node000002" class="edge">
<title>Node2&#45;&gt;Node1</title>
<g id="a_edge1_Node000001_Node000002"><a xlink:title=" ">
<path fill="none" stroke="#63b8ff" d="M145.5,-736.72C145.5,-728.6 145.5,-720.01 145.5,-711.03"/>
<polygon fill="none" stroke="#63b8ff" points="142,-736.74 145.5,-746.74 149,-736.74 142,-736.74"/>
</a>
</g>
</g>
</g>
</svg>

<g id="navigator" transform="translate(0 0)" fill="#404254">
  <rect fill="#f2f5e9" fill-opacity="0.5" stroke="#606060" stroke-width=".5" x="0" y="0" width="60" height="60"/>
  <use id="zoomplus" xlink:href="#zoomPlus" x="17" y="9" onmousedown="handleZoom(evt,'in')"/>
  <use id="zoomminus" xlink:href="#zoomMin" x="42" y="9" onmousedown="handleZoom(evt,'out')"/>
  <use id="reset" xlink:href="#resetDef" x="30" y="36" onmousedown="handleReset()"/>
   <use id="arrowup" xlink:href="#arrowUp" x="0" y="0" onmousedown="handlePan(0,-1)"/>
  <use id="arrowright" xlink:href="#arrowRight" x="0" y="0" onmousedown="handlePan(1,0)"/>
  <use id="arrowdown" xlink:href="#arrowDown" x="0" y="0" onmousedown="handlePan(0,1)"/>
  <use id="arrowleft" xlink:href="#arrowLeft" x="0" y="0" onmousedown="handlePan(-1,0)"/>
</g>
<svg viewBox="0 0 15 15" width="100%" height="30px" preserveAspectRatio="xMaxYMin meet">
 <g id="arrow_out" transform="scale(0.3 0.3)">
  <a xlink:href="classWeaponSystem__inherit__graph_org.svg" target="_base">
   <rect id="button" ry="5" rx="5" y="6" x="6" height="38" width="38"
        fill="#f2f5e9" fill-opacity="0.5" stroke="#606060" stroke-width="1.0"/>
   <path id="arrow"
     d="M 11.500037,31.436501 C 11.940474,20.09759 22.043105,11.32322 32.158766,21.979434 L 37.068811,17.246167 C 37.068811,17.246167 37.088388,32 37.088388,32 L 22.160133,31.978069 C 22.160133,31.978069 26.997745,27.140456 26.997745,27.140456 C 18.528582,18.264221 13.291696,25.230495 11.500037,31.436501 z"
     style="fill:#404040;"/>
  </a>
 </g>
</svg>

<style type='text/css'>
<![CDATA[
[data-mouse-over-selected='false'] { opacity: 0.7; }
[data-mouse-over-selected='true']  { opacity: 1.0; }
]]>
</style>
<script type="application/ecmascript"><![CDATA[
document.addEventListener('DOMContentLoaded', (event) => {
  highlightEdges();
  highlightAdjacentNodes();
});
]]></script>
</svg>
