<?xml version="1.0" encoding="UTF-8" standalone="no"?>
<!DOCTYPE svg PUBLIC "-//W3C//DTD SVG 1.1//EN"
 "http://www.w3.org/Graphics/SVG/1.1/DTD/svg11.dtd">
<!-- Generated by graphviz version 2.43.0 (0)
 -->
<!-- Title: Customize_1_Controller Pages: 1 -->
<svg width="276pt" height="806pt"
 viewBox="0.00 0.00 276.00 806.00" xmlns="http://www.w3.org/2000/svg" xmlns:xlink="http://www.w3.org/1999/xlink">
<g id="graph0" class="graph" transform="scale(1 1) rotate(0) translate(4 802)">
<title>Customize_1_Controller</title>
<!-- Node1 -->
<g id="Node000001" class="node">
<title>Node1</title>
<g id="a_Node000001"><a xlink:title="함선 커스터마이징 UI를 제어하는 핸들러. UI 전환, 모듈 배치, 저장 및 취소 기능을 관리합니다.">
<polygon fill="#999999" stroke="transparent" points="268,-707 0,-707 0,0 268,0 268,-707"/>
<text text-anchor="start" x="51" y="-692.9" font-family="Consolas" font-size="12.00">Customize_1_Controller</text>
<text text-anchor="start" x="4" y="-675.9" font-family="Consolas" font-size="12.00">+</text>
<text text-anchor="start" x="16" y="-675.9" font-family="Consolas" font-size="12.00">GameObject customize0Panel</text>
<text text-anchor="start" x="4" y="-658.9" font-family="Consolas" font-size="12.00">+</text>
<text text-anchor="start" x="16" y="-658.9" font-family="Consolas" font-size="12.00">GameObject customize1Panel</text>
<text text-anchor="start" x="4" y="-641.9" font-family="Consolas" font-size="12.00">+</text>
<text text-anchor="start" x="16" y="-641.9" font-family="Consolas" font-size="12.00">GameObject customize2Panel</text>
<text text-anchor="start" x="4" y="-624.9" font-family="Consolas" font-size="12.00">+</text>
<text text-anchor="start" x="16" y="-624.9" font-family="Consolas" font-size="12.00">GameObject gridTiles</text>
<text text-anchor="start" x="4" y="-607.9" font-family="Consolas" font-size="12.00">+</text>
<text text-anchor="start" x="16" y="-607.9" font-family="Consolas" font-size="12.00">TMP_Text bpCostText</text>
<text text-anchor="start" x="4" y="-590.9" font-family="Consolas" font-size="12.00">+</text>
<text text-anchor="start" x="16" y="-590.9" font-family="Consolas" font-size="12.00">TMP_Text feedbackText</text>
<text text-anchor="start" x="4" y="-573.9" font-family="Consolas" font-size="12.00">+</text>
<text text-anchor="start" x="16" y="-573.9" font-family="Consolas" font-size="12.00">GridPlacer gridPlacer</text>
<text text-anchor="start" x="4" y="-556.9" font-family="Consolas" font-size="12.00">+</text>
<text text-anchor="start" x="16" y="-556.9" font-family="Consolas" font-size="12.00">Ship playerShip</text>
<text text-anchor="start" x="4" y="-539.9" font-family="Consolas" font-size="12.00">+</text>
<text text-anchor="start" x="16" y="-539.9" font-family="Consolas" font-size="12.00">BlueprintShip targetBlueprintShip</text>
<text text-anchor="start" x="4" y="-522.9" font-family="Consolas" font-size="12.00">&#45;</text>
<text text-anchor="start" x="16" y="-522.9" font-family="Consolas" font-size="12.00">BlueprintCategoryButtonHandler</text>
<text text-anchor="start" x="16" y="-509.9" font-family="Consolas" font-size="12.00"> bcbHandler</text>
<text text-anchor="start" x="4" y="-492.9" font-family="Consolas" font-size="12.00">&#45;</text>
<text text-anchor="start" x="16" y="-492.9" font-family="Consolas" font-size="12.00">Button backButton</text>
<text text-anchor="start" x="4" y="-475.9" font-family="Consolas" font-size="12.00">&#45;</text>
<text text-anchor="start" x="16" y="-475.9" font-family="Consolas" font-size="12.00">Button clearButton</text>
<text text-anchor="start" x="4" y="-458.9" font-family="Consolas" font-size="12.00">&#45;</text>
<text text-anchor="start" x="16" y="-458.9" font-family="Consolas" font-size="12.00">Button saveButton</text>
<text text-anchor="start" x="4" y="-441.9" font-family="Consolas" font-size="12.00">&#45;</text>
<text text-anchor="start" x="16" y="-441.9" font-family="Consolas" font-size="12.00">Button essentialButton</text>
<text text-anchor="start" x="4" y="-424.9" font-family="Consolas" font-size="12.00">&#45;</text>
<text text-anchor="start" x="16" y="-424.9" font-family="Consolas" font-size="12.00">Button auxiliaryButton</text>
<text text-anchor="start" x="4" y="-407.9" font-family="Consolas" font-size="12.00">&#45;</text>
<text text-anchor="start" x="16" y="-407.9" font-family="Consolas" font-size="12.00">Button livingButton</text>
<text text-anchor="start" x="4" y="-390.9" font-family="Consolas" font-size="12.00">&#45;</text>
<text text-anchor="start" x="16" y="-390.9" font-family="Consolas" font-size="12.00">Button storageButton</text>
<text text-anchor="start" x="4" y="-373.9" font-family="Consolas" font-size="12.00">&#45;</text>
<text text-anchor="start" x="16" y="-373.9" font-family="Consolas" font-size="12.00">Button corridorButton</text>
<text text-anchor="start" x="4" y="-356.9" font-family="Consolas" font-size="12.00">&#45;</text>
<text text-anchor="start" x="16" y="-356.9" font-family="Consolas" font-size="12.00">Button weaponButton</text>
<text text-anchor="start" x="4" y="-339.9" font-family="Consolas" font-size="12.00">&#45;</text>
<text text-anchor="start" x="16" y="-339.9" font-family="Consolas" font-size="12.00">ValidationResult validation</text>
<text text-anchor="start" x="16" y="-326.9" font-family="Consolas" font-size="12.00">Result</text>
<text text-anchor="start" x="4" y="-309.9" font-family="Consolas" font-size="12.00">&#45;</text>
<text text-anchor="start" x="16" y="-309.9" font-family="Consolas" font-size="12.00">int totalBPCost</text>
<text text-anchor="start" x="4" y="-292.9" font-family="Consolas" font-size="12.00">&#45;</text>
<text text-anchor="start" x="16" y="-292.9" font-family="Consolas" font-size="12.00">Coroutine flashCoroutine</text>
<text text-anchor="start" x="4" y="-275.9" font-family="Consolas" font-size="12.00">&#45;</text>
<text text-anchor="start" x="16" y="-275.9" font-family="Consolas" font-size="12.00">Color? originButtonColor</text>
<text text-anchor="start" x="4" y="-258.9" font-family="Consolas" font-size="12.00">&#45;</text>
<text text-anchor="start" x="16" y="-258.9" font-family="Consolas" font-size="12.00">BlueprintInventoryUI</text>
<text text-anchor="start" x="16" y="-245.9" font-family="Consolas" font-size="12.00"> blueprintInventoryUI</text>
<text text-anchor="start" x="4" y="-228.9" font-family="Consolas" font-size="12.00">+</text>
<text text-anchor="start" x="16" y="-228.9" font-family="Consolas" font-size="12.00">void ReloadBlueprintFrom</text>
<text text-anchor="start" x="16" y="-215.9" font-family="Consolas" font-size="12.00">Slot(int slotIndex)</text>
<text text-anchor="start" x="4" y="-198.9" font-family="Consolas" font-size="12.00">+</text>
<text text-anchor="start" x="16" y="-198.9" font-family="Consolas" font-size="12.00">void OnClickSave()</text>
<text text-anchor="start" x="4" y="-181.9" font-family="Consolas" font-size="12.00">+</text>
<text text-anchor="start" x="16" y="-181.9" font-family="Consolas" font-size="12.00">void OnClickBack()</text>
<text text-anchor="start" x="4" y="-164.9" font-family="Consolas" font-size="12.00">+</text>
<text text-anchor="start" x="16" y="-164.9" font-family="Consolas" font-size="12.00">void OnClickClear()</text>
<text text-anchor="start" x="4" y="-147.9" font-family="Consolas" font-size="12.00">&#45;</text>
<text text-anchor="start" x="16" y="-147.9" font-family="Consolas" font-size="12.00">void Start()</text>
<text text-anchor="start" x="4" y="-130.9" font-family="Consolas" font-size="12.00">&#45;</text>
<text text-anchor="start" x="16" y="-130.9" font-family="Consolas" font-size="12.00">void Update()</text>
<text text-anchor="start" x="4" y="-113.9" font-family="Consolas" font-size="12.00">&#45;</text>
<text text-anchor="start" x="16" y="-113.9" font-family="Consolas" font-size="12.00">void OnEnable()</text>
<text text-anchor="start" x="4" y="-96.9" font-family="Consolas" font-size="12.00">&#45;</text>
<text text-anchor="start" x="16" y="-96.9" font-family="Consolas" font-size="12.00">void OnDisable()</text>
<text text-anchor="start" x="4" y="-79.9" font-family="Consolas" font-size="12.00">&#45;</text>
<text text-anchor="start" x="16" y="-79.9" font-family="Consolas" font-size="12.00">void CenterCameraToBP()</text>
<text text-anchor="start" x="4" y="-62.9" font-family="Consolas" font-size="12.00">&#45;</text>
<text text-anchor="start" x="16" y="-62.9" font-family="Consolas" font-size="12.00">void ResetCameraToOrigin</text>
<text text-anchor="start" x="16" y="-49.9" font-family="Consolas" font-size="12.00">Ship()</text>
<text text-anchor="start" x="4" y="-32.9" font-family="Consolas" font-size="12.00">&#45;</text>
<text text-anchor="start" x="16" y="-32.9" font-family="Consolas" font-size="12.00">IEnumerator FlashSaveButton</text>
<text text-anchor="start" x="16" y="-19.9" font-family="Consolas" font-size="12.00">Color(Color flashColor,</text>
<text text-anchor="start" x="16" y="-6.9" font-family="Consolas" font-size="12.00"> float duration)</text>
<polygon fill="#666666" stroke="#666666" points="0,-687.5 0,-687.5 268,-687.5 268,-687.5 0,-687.5"/>
<polygon fill="#666666" stroke="#666666" points="0,-240.5 0,-240.5 14,-240.5 14,-240.5 0,-240.5"/>
<polygon fill="#666666" stroke="#666666" points="14,-240.5 14,-240.5 268,-240.5 268,-240.5 14,-240.5"/>
<polygon fill="none" stroke="#666666" points="0,0 0,-707 268,-707 268,0 0,0"/>
</a>
</g>
</g>
<!-- Node2 -->
<g id="Node000002" class="node">
<title>Node2</title>
<g id="a_Node000002"><a xlink:title=" ">
<polygon fill="white" stroke="transparent" points="188,-798 80,-798 80,-743 188,-743 188,-798"/>
<text text-anchor="start" x="85" y="-783.9" font-family="Consolas" font-size="12.00">MonoBehaviour</text>
<text text-anchor="start" x="130" y="-766.9" font-family="Consolas" font-size="12.00"> </text>
<text text-anchor="start" x="130" y="-749.9" font-family="Consolas" font-size="12.00"> </text>
<polygon fill="#bfbfbf" stroke="#bfbfbf" points="80,-778.5 80,-778.5 188,-778.5 188,-778.5 80,-778.5"/>
<polygon fill="#bfbfbf" stroke="#bfbfbf" points="80,-761.5 80,-761.5 188,-761.5 188,-761.5 80,-761.5"/>
<polygon fill="none" stroke="#bfbfbf" points="80,-743 80,-798 188,-798 188,-743 80,-743"/>
</a>
</g>
</g>
<!-- Node2&#45;&gt;Node1 -->
<g id="edge1_Node000001_Node000002" class="edge">
<title>Node2&#45;&gt;Node1</title>
<g id="a_edge1_Node000001_Node000002"><a xlink:title=" ">
<path fill="none" stroke="#63b8ff" d="M134,-732.84C134,-725.25 134,-716.66 134,-707.29"/>
<polygon fill="none" stroke="#63b8ff" points="130.5,-732.91 134,-742.91 137.5,-732.91 130.5,-732.91"/>
</a>
</g>
</g>
</g>
</svg>
