<?xml version="1.0" encoding="UTF-8" standalone="no"?>
<!DOCTYPE svg PUBLIC "-//W3C//DTD SVG 1.1//EN"
 "http://www.w3.org/Graphics/SVG/1.1/DTD/svg11.dtd">
<!-- Generated by graphviz version 2.43.0 (0)
 -->
<!-- Title: Ship.AddCrew Pages: 1 -->
<svg width="979pt" height="186pt"
 viewBox="0.00 0.00 979.00 186.00" xmlns="http://www.w3.org/2000/svg" xmlns:xlink="http://www.w3.org/1999/xlink">
<g id="graph0" class="graph" transform="scale(1 1) rotate(0) translate(4 182)">
<title>Ship.AddCrew</title>
<!-- Node1 -->
<g id="Node000001" class="node">
<title>Node1</title>
<g id="a_Node000001"><a xlink:title="새로운 승무원을 함선에 추가합니다.">
<polygon fill="#999999" stroke="#666666" points="971,-96.5 864,-96.5 864,-75.5 971,-75.5 971,-96.5"/>
<text text-anchor="middle" x="917.5" y="-82.9" font-family="Consolas" font-size="12.00">Ship.AddCrew</text>
</a>
</g>
</g>
<!-- Node2 -->
<g id="Node000002" class="node">
<title>Node2</title>
<g id="a_Node000002"><a xlink:href="classShipFactory.html#a3c26f8bde8633e87fe1d7eaf140bc253" target="_top" xlink:title="템플릿을 기반으로 함선 생성">
<polygon fill="white" stroke="#666666" points="820.5,-178 608.5,-178 608.5,-144 820.5,-144 820.5,-178"/>
<text text-anchor="start" x="616.5" y="-164.4" font-family="Consolas" font-size="12.00">ShipFactory.CreateShipFrom</text>
<text text-anchor="middle" x="714.5" y="-151.4" font-family="Consolas" font-size="12.00">Template</text>
</a>
</g>
</g>
<!-- Node1&#45;&gt;Node2 -->
<g id="edge1_Node000001_Node000002" class="edge">
<title>Node1&#45;&gt;Node2</title>
<g id="a_edge1_Node000001_Node000002"><a xlink:title=" ">
<path fill="none" stroke="#63b8ff" d="M891.67,-102.21C874.41,-112.85 850.55,-126.35 828,-135 819.3,-138.34 810.04,-141.32 800.73,-143.97"/>
<polygon fill="#63b8ff" stroke="#63b8ff" points="893.93,-104.93 900.53,-96.64 890.2,-99 893.93,-104.93"/>
</a>
</g>
</g>
<!-- Node3 -->
<g id="Node000003" class="node">
<title>Node3</title>
<g id="a_Node000003"><a xlink:href="classEnemyShipFactory.html#ac2dece8b7383ba255abb0d67fb29fcb8" target="_top" xlink:title="템플릿 설정을 기반으로 해적선에 대한 무작위 선원을 생성합니다">
<polygon fill="white" stroke="#666666" points="816.5,-126 612.5,-126 612.5,-92 816.5,-92 816.5,-126"/>
<text text-anchor="start" x="620.5" y="-112.4" font-family="Consolas" font-size="12.00">EnemyShipFactory.Generate</text>
<text text-anchor="middle" x="714.5" y="-99.4" font-family="Consolas" font-size="12.00">PirateCrew</text>
</a>
</g>
</g>
<!-- Node1&#45;&gt;Node3 -->
<g id="edge2_Node000001_Node000003" class="edge">
<title>Node1&#45;&gt;Node3</title>
<g id="a_edge2_Node000001_Node000003"><a xlink:title=" ">
<path fill="none" stroke="#63b8ff" d="M853.82,-93.17C842.03,-94.52 829.43,-95.96 816.81,-97.41"/>
<polygon fill="#63b8ff" stroke="#63b8ff" points="854.41,-96.63 863.95,-92.01 853.62,-89.67 854.41,-96.63"/>
</a>
</g>
</g>
<!-- Node6 -->
<g id="Node000006" class="node">
<title>Node6</title>
<g id="a_Node000006"><a xlink:href="classEmployController.html#aae8334ca67a3e43c06aaadef71c74313" target="_top" xlink:title="선원 고용 확정">
<polygon fill="white" stroke="#666666" points="824,-73.5 605,-73.5 605,-52.5 824,-52.5 824,-73.5"/>
<text text-anchor="middle" x="714.5" y="-59.9" font-family="Consolas" font-size="12.00">EmployController.OnClickBuy</text>
</a>
</g>
</g>
<!-- Node1&#45;&gt;Node6 -->
<g id="edge6_Node000001_Node000006" class="edge">
<title>Node1&#45;&gt;Node6</title>
<g id="a_edge6_Node000001_Node000006"><a xlink:title=" ">
<path fill="none" stroke="#63b8ff" d="M853.96,-78.84C839.2,-77.16 823.17,-75.32 807.42,-73.52"/>
<polygon fill="#63b8ff" stroke="#63b8ff" points="853.62,-82.33 863.95,-79.99 854.41,-75.37 853.62,-82.33"/>
</a>
</g>
</g>
<!-- Node7 -->
<g id="Node000007" class="node">
<title>Node7</title>
<g id="a_Node000007"><a xlink:href="classCrewUIHandler.html#a22bad1caab3c0a3183de081a6257d08b" target="_top" xlink:title="선원 정보 입력 후 실제 생성하는 버튼 클릭 시 호출">
<polygon fill="white" stroke="#666666" points="828,-34 601,-34 601,0 828,0 828,-34"/>
<text text-anchor="start" x="609" y="-20.4" font-family="Consolas" font-size="12.00">CrewUIHandler.OnSubmitButton</text>
<text text-anchor="middle" x="714.5" y="-7.4" font-family="Consolas" font-size="12.00">Clicked</text>
</a>
</g>
</g>
<!-- Node1&#45;&gt;Node7 -->
<g id="edge7_Node000001_Node000007" class="edge">
<title>Node1&#45;&gt;Node7</title>
<g id="a_edge7_Node000001_Node000007"><a xlink:title=" ">
<path fill="none" stroke="#63b8ff" d="M888.81,-70.54C871.7,-61.5 849.06,-50.44 828,-43 818.64,-39.69 808.7,-36.69 798.75,-34.01"/>
<polygon fill="#63b8ff" stroke="#63b8ff" points="887.24,-73.67 897.7,-75.32 890.55,-67.5 887.24,-73.67"/>
</a>
</g>
</g>
<!-- Node4 -->
<g id="Node000004" class="node">
<title>Node4</title>
<g id="a_Node000004"><a xlink:href="classEnemyShipFactory.html#af2143f183e56385b0a94b5ad9d6bf1b7" target="_top" xlink:title="기본 배를 수동으로 생성합니다">
<polygon fill="white" stroke="#666666" points="565,-138.5 293,-138.5 293,-117.5 565,-117.5 565,-138.5"/>
<text text-anchor="middle" x="429" y="-124.9" font-family="Consolas" font-size="12.00">EnemyShipFactory.CreateDefaultShip</text>
</a>
</g>
</g>
<!-- Node3&#45;&gt;Node4 -->
<g id="edge3_Node000003_Node000004" class="edge">
<title>Node3&#45;&gt;Node4</title>
<g id="a_edge3_Node000003_Node000004"><a xlink:title=" ">
<path fill="none" stroke="#63b8ff" d="M602.24,-116.46C590.11,-117.27 577.67,-118.1 565.29,-118.93"/>
<polygon fill="#63b8ff" stroke="#63b8ff" points="602.61,-119.94 612.35,-115.78 602.14,-112.96 602.61,-119.94"/>
</a>
</g>
</g>
<!-- Node5 -->
<g id="Node000005" class="node">
<title>Node5</title>
<g id="a_Node000005"><a xlink:href="classEnemyShipFactory.html#adf438c0292d675acffceb7b7bd4ac129" target="_top" xlink:title="제공된 템플릿 이름을 기반으로 해적선을 생성합니다">
<polygon fill="white" stroke="#666666" points="257,-118.5 0,-118.5 0,-97.5 257,-97.5 257,-118.5"/>
<text text-anchor="middle" x="128.5" y="-104.9" font-family="Consolas" font-size="12.00">EnemyShipFactory.SpawnPirateShip</text>
</a>
</g>
</g>
<!-- Node3&#45;&gt;Node5 -->
<g id="edge5_Node000003_Node000005" class="edge">
<title>Node3&#45;&gt;Node5</title>
<g id="a_edge5_Node000003_Node000005"><a xlink:title=" ">
<path fill="none" stroke="#63b8ff" d="M602.37,-108.17C589.76,-108.1 577.1,-108.04 565,-108 461.42,-107.65 343.98,-107.68 257.18,-107.77"/>
<polygon fill="#63b8ff" stroke="#63b8ff" points="602.43,-111.67 612.45,-108.23 602.47,-104.67 602.43,-111.67"/>
</a>
</g>
</g>
<!-- Node4&#45;&gt;Node5 -->
<g id="edge4_Node000004_Node000005" class="edge">
<title>Node4&#45;&gt;Node5</title>
<g id="a_edge4_Node000004_Node000005"><a xlink:title=" ">
<path fill="none" stroke="#63b8ff" d="M282.68,-118.26C274.11,-117.69 265.53,-117.11 257.04,-116.55"/>
<polygon fill="#63b8ff" stroke="#63b8ff" points="282.51,-121.76 292.72,-118.94 282.98,-114.78 282.51,-121.76"/>
</a>
</g>
</g>
</g>
</svg>
