<?xml version="1.0" encoding="UTF-8" standalone="no"?>
<!DOCTYPE svg PUBLIC "-//W3C//DTD SVG 1.1//EN"
 "http://www.w3.org/Graphics/SVG/1.1/DTD/svg11.dtd">
<!-- Generated by graphviz version 2.43.0 (0)
 -->
<!-- Title: ES3Writer.WriteProperty&lt; T &gt; Pages: 1 -->
<svg width="460pt" height="47pt"
 viewBox="0.00 0.00 460.00 47.00" xmlns="http://www.w3.org/2000/svg" xmlns:xlink="http://www.w3.org/1999/xlink">
<g id="graph0" class="graph" transform="scale(1 1) rotate(0) translate(4 43)">
<title>ES3Writer.WriteProperty&lt; T &gt;</title>
<!-- Node1 -->
<g id="Node000001" class="node">
<title>Node1</title>
<g id="a_Node000001"><a xlink:title="Writes a field or property to the writer. Note that this should only be called within an ES3Type.">
<polygon fill="#999999" stroke="#666666" points="227,-21 0,-21 0,0 227,0 227,-21"/>
<text text-anchor="middle" x="113.5" y="-7.4" font-family="Consolas" font-size="12.00">ES3Writer.WriteProperty&lt; T &gt;</text>
</a>
</g>
</g>
<!-- Node2 -->
<g id="Node000002" class="node">
<title>Node2</title>
<g id="a_Node000002"><a xlink:href="classES3Writer.html#a2642a32d02eee5be1927b37008f2107d" target="_top" xlink:title="Writes a field or property to the writer. Note that this should only be called within an ES3Type.">
<polygon fill="white" stroke="#666666" points="452,-21 263,-21 263,0 452,0 452,-21"/>
<text text-anchor="middle" x="357.5" y="-7.4" font-family="Consolas" font-size="12.00">ES3Writer.WriteProperty</text>
</a>
</g>
</g>
<!-- Node1&#45;&gt;Node2 -->
<g id="edge1_Node000001_Node000002" class="edge">
<title>Node1&#45;&gt;Node2</title>
<g id="a_edge1_Node000001_Node000002"><a xlink:title=" ">
<path fill="none" stroke="#63b8ff" d="M227.35,-10.5C235.76,-10.5 244.22,-10.5 252.58,-10.5"/>
<polygon fill="#63b8ff" stroke="#63b8ff" points="252.7,-14 262.7,-10.5 252.7,-7 252.7,-14"/>
</a>
</g>
</g>
<!-- Node2&#45;&gt;Node2 -->
<g id="edge2_Node000002_Node000002" class="edge">
<title>Node2&#45;&gt;Node2</title>
<g id="a_edge2_Node000002_Node000002"><a xlink:title=" ">
<path fill="none" stroke="#63b8ff" d="M318.73,-21.02C302.16,-29.81 315.09,-39 357.5,-39 387.99,-39 403.24,-34.25 403.25,-28.32"/>
<polygon fill="#63b8ff" stroke="#63b8ff" points="405.71,-25.83 396.27,-21.02 400.65,-30.67 405.71,-25.83"/>
</a>
</g>
</g>
</g>
</svg>
