<?xml version="1.0" encoding="UTF-8" standalone="no"?>
<!DOCTYPE svg PUBLIC "-//W3C//DTD SVG 1.1//EN"
 "http://www.w3.org/Graphics/SVG/1.1/DTD/svg11.dtd">
<!-- Generated by graphviz version 2.43.0 (0)
 -->
<!-- Title: MoraleManager Pages: 1 -->
<svg width="276pt" height="872pt"
 viewBox="0.00 0.00 276.00 872.00" xmlns="http://www.w3.org/2000/svg" xmlns:xlink="http://www.w3.org/1999/xlink">
<g id="graph0" class="graph" transform="scale(1 1) rotate(0) translate(4 868)">
<title>MoraleManager</title>
<!-- Node1 -->
<g id="Node000001" class="node">
<title>Node1</title>
<g id="a_Node000001"><a xlink:title="사기 관련 이벤트 생성에 따른 사기 효과 적용 관리 Manager.">
<polygon fill="#999999" stroke="transparent" points="268,-773 0,-773 0,0 268,0 268,-773"/>
<text text-anchor="start" x="85" y="-758.9" font-family="Consolas" font-size="12.00">MoraleManager</text>
<text text-anchor="start" x="4" y="-741.9" font-family="Consolas" font-size="12.00">+</text>
<text text-anchor="start" x="16" y="-741.9" font-family="Consolas" font-size="12.00">List&lt; MoraleEffectData</text>
<text text-anchor="start" x="16" y="-728.9" font-family="Consolas" font-size="12.00"> &gt; activeEffects</text>
<text text-anchor="start" x="4" y="-711.9" font-family="Consolas" font-size="12.00">+</text>
<text text-anchor="start" x="16" y="-711.9" font-family="Consolas" font-size="12.00">float humanMorale</text>
<text text-anchor="start" x="4" y="-694.9" font-family="Consolas" font-size="12.00">+</text>
<text text-anchor="start" x="16" y="-694.9" font-family="Consolas" font-size="12.00">float amorphousMorale</text>
<text text-anchor="start" x="4" y="-677.9" font-family="Consolas" font-size="12.00">+</text>
<text text-anchor="start" x="16" y="-677.9" font-family="Consolas" font-size="12.00">float mechanicTankMorale</text>
<text text-anchor="start" x="4" y="-660.9" font-family="Consolas" font-size="12.00">+</text>
<text text-anchor="start" x="16" y="-660.9" font-family="Consolas" font-size="12.00">float mechanicSupMorale</text>
<text text-anchor="start" x="4" y="-643.9" font-family="Consolas" font-size="12.00">+</text>
<text text-anchor="start" x="16" y="-643.9" font-family="Consolas" font-size="12.00">float beastMorale</text>
<text text-anchor="start" x="4" y="-626.9" font-family="Consolas" font-size="12.00">+</text>
<text text-anchor="start" x="16" y="-626.9" font-family="Consolas" font-size="12.00">float insectMorale</text>
<text text-anchor="start" x="4" y="-609.9" font-family="Consolas" font-size="12.00">+</text>
<text text-anchor="start" x="16" y="-609.9" font-family="Consolas" font-size="12.00">float globalMorale</text>
<text text-anchor="start" x="4" y="-592.9" font-family="Consolas" font-size="12.00">+</text>
<text text-anchor="start" x="16" y="-592.9" font-family="Consolas" font-size="12.00">static MoraleManager</text>
<text text-anchor="start" x="16" y="-579.9" font-family="Consolas" font-size="12.00"> Instance</text>
<text text-anchor="start" x="4" y="-562.9" font-family="Consolas" font-size="12.00">&#45;</text>
<text text-anchor="start" x="16" y="-562.9" font-family="Consolas" font-size="12.00">GameObject moraleIconPrefab</text>
<text text-anchor="start" x="4" y="-545.9" font-family="Consolas" font-size="12.00">&#45;</text>
<text text-anchor="start" x="16" y="-545.9" font-family="Consolas" font-size="12.00">RectTransform moraleStatus</text>
<text text-anchor="start" x="16" y="-532.9" font-family="Consolas" font-size="12.00">Panel</text>
<text text-anchor="start" x="4" y="-515.9" font-family="Consolas" font-size="12.00">&#45;</text>
<text text-anchor="start" x="16" y="-515.9" font-family="Consolas" font-size="12.00">Dictionary&lt; CrewRace,</text>
<text text-anchor="start" x="16" y="-502.9" font-family="Consolas" font-size="12.00"> MoraleIcon &gt; raceIcons</text>
<text text-anchor="start" x="4" y="-485.9" font-family="Consolas" font-size="12.00">+</text>
<text text-anchor="start" x="16" y="-485.9" font-family="Consolas" font-size="12.00">float GetRaceMorale</text>
<text text-anchor="start" x="16" y="-472.9" font-family="Consolas" font-size="12.00">(CrewRace race)</text>
<text text-anchor="start" x="4" y="-455.9" font-family="Consolas" font-size="12.00">+</text>
<text text-anchor="start" x="16" y="-455.9" font-family="Consolas" font-size="12.00">float GetTotalMoraleBonus</text>
<text text-anchor="start" x="16" y="-442.9" font-family="Consolas" font-size="12.00">(CrewMember crew)</text>
<text text-anchor="start" x="4" y="-425.9" font-family="Consolas" font-size="12.00">+</text>
<text text-anchor="start" x="16" y="-425.9" font-family="Consolas" font-size="12.00">void SetRaceMorale</text>
<text text-anchor="start" x="16" y="-412.9" font-family="Consolas" font-size="12.00">(CrewRace race, float</text>
<text text-anchor="start" x="16" y="-399.9" font-family="Consolas" font-size="12.00"> value)</text>
<text text-anchor="start" x="4" y="-382.9" font-family="Consolas" font-size="12.00">+</text>
<text text-anchor="start" x="16" y="-382.9" font-family="Consolas" font-size="12.00">void SetAllCrewMorale</text>
<text text-anchor="start" x="16" y="-369.9" font-family="Consolas" font-size="12.00">(float value)</text>
<text text-anchor="start" x="4" y="-352.9" font-family="Consolas" font-size="12.00">+</text>
<text text-anchor="start" x="16" y="-352.9" font-family="Consolas" font-size="12.00">void ResetAllMorale()</text>
<text text-anchor="start" x="4" y="-335.9" font-family="Consolas" font-size="12.00">+</text>
<text text-anchor="start" x="16" y="-335.9" font-family="Consolas" font-size="12.00">void RegisterMoraleEffect</text>
<text text-anchor="start" x="16" y="-322.9" font-family="Consolas" font-size="12.00">(MoraleEffectData effectData)</text>
<text text-anchor="start" x="4" y="-305.9" font-family="Consolas" font-size="12.00">+</text>
<text text-anchor="start" x="16" y="-305.9" font-family="Consolas" font-size="12.00">void RegisterMoraleEffect</text>
<text text-anchor="start" x="16" y="-292.9" font-family="Consolas" font-size="12.00">(CrewEffect crewEffect)</text>
<text text-anchor="start" x="4" y="-275.9" font-family="Consolas" font-size="12.00">+</text>
<text text-anchor="start" x="16" y="-275.9" font-family="Consolas" font-size="12.00">void ReapplyLoadedEffects()</text>
<text text-anchor="start" x="4" y="-258.9" font-family="Consolas" font-size="12.00">+</text>
<text text-anchor="start" x="16" y="-258.9" font-family="Consolas" font-size="12.00">void CheckEventExpirations</text>
<text text-anchor="start" x="16" y="-245.9" font-family="Consolas" font-size="12.00">(int currentYear)</text>
<text text-anchor="start" x="4" y="-228.9" font-family="Consolas" font-size="12.00">+</text>
<text text-anchor="start" x="16" y="-228.9" font-family="Consolas" font-size="12.00">void PrintAllMorale()</text>
<text text-anchor="start" x="4" y="-211.9" font-family="Consolas" font-size="12.00">&#45;</text>
<text text-anchor="start" x="16" y="-211.9" font-family="Consolas" font-size="12.00">void Awake()</text>
<text text-anchor="start" x="4" y="-194.9" font-family="Consolas" font-size="12.00">&#45;</text>
<text text-anchor="start" x="16" y="-194.9" font-family="Consolas" font-size="12.00">void Start()</text>
<text text-anchor="start" x="4" y="-177.9" font-family="Consolas" font-size="12.00">&#45;</text>
<text text-anchor="start" x="16" y="-177.9" font-family="Consolas" font-size="12.00">void OnEnable()</text>
<text text-anchor="start" x="4" y="-160.9" font-family="Consolas" font-size="12.00">&#45;</text>
<text text-anchor="start" x="16" y="-160.9" font-family="Consolas" font-size="12.00">void OnDisable()</text>
<text text-anchor="start" x="4" y="-143.9" font-family="Consolas" font-size="12.00">&#45;</text>
<text text-anchor="start" x="16" y="-143.9" font-family="Consolas" font-size="12.00">void OnSceneLoaded</text>
<text text-anchor="start" x="16" y="-130.9" font-family="Consolas" font-size="12.00">(Scene scene, LoadSceneMode mode)</text>
<text text-anchor="start" x="4" y="-113.9" font-family="Consolas" font-size="12.00">&#45;</text>
<text text-anchor="start" x="16" y="-113.9" font-family="Consolas" font-size="12.00">void CreateRaceIcons()</text>
<text text-anchor="start" x="4" y="-96.9" font-family="Consolas" font-size="12.00">&#45;</text>
<text text-anchor="start" x="16" y="-96.9" font-family="Consolas" font-size="12.00">void ApplyMoraleEffectValue</text>
<text text-anchor="start" x="16" y="-83.9" font-family="Consolas" font-size="12.00">(MoraleEffectData effect)</text>
<text text-anchor="start" x="4" y="-66.9" font-family="Consolas" font-size="12.00">&#45;</text>
<text text-anchor="start" x="16" y="-66.9" font-family="Consolas" font-size="12.00">void RemoveMoraleEffectValue</text>
<text text-anchor="start" x="16" y="-53.9" font-family="Consolas" font-size="12.00">(MoraleEffectData effect)</text>
<text text-anchor="start" x="4" y="-36.9" font-family="Consolas" font-size="12.00">&#45;</text>
<text text-anchor="start" x="16" y="-36.9" font-family="Consolas" font-size="12.00">void UpdateRaceIcon</text>
<text text-anchor="start" x="16" y="-23.9" font-family="Consolas" font-size="12.00">(CrewRace race)</text>
<text text-anchor="start" x="4" y="-6.9" font-family="Consolas" font-size="12.00">&#45;</text>
<text text-anchor="start" x="16" y="-6.9" font-family="Consolas" font-size="12.00">void UpdateAllRaceIcons()</text>
<polygon fill="#666666" stroke="#666666" points="0,-753.5 0,-753.5 268,-753.5 268,-753.5 0,-753.5"/>
<polygon fill="#666666" stroke="#666666" points="0,-497.5 0,-497.5 14,-497.5 14,-497.5 0,-497.5"/>
<polygon fill="#666666" stroke="#666666" points="14,-497.5 14,-497.5 268,-497.5 268,-497.5 14,-497.5"/>
<polygon fill="none" stroke="#666666" points="0,0 0,-773 268,-773 268,0 0,0"/>
</a>
</g>
</g>
<!-- Node2 -->
<g id="Node000002" class="node">
<title>Node2</title>
<g id="a_Node000002"><a xlink:title=" ">
<polygon fill="white" stroke="transparent" points="188,-864 80,-864 80,-809 188,-809 188,-864"/>
<text text-anchor="start" x="85" y="-849.9" font-family="Consolas" font-size="12.00">MonoBehaviour</text>
<text text-anchor="start" x="130" y="-832.9" font-family="Consolas" font-size="12.00"> </text>
<text text-anchor="start" x="130" y="-815.9" font-family="Consolas" font-size="12.00"> </text>
<polygon fill="#bfbfbf" stroke="#bfbfbf" points="80,-844.5 80,-844.5 188,-844.5 188,-844.5 80,-844.5"/>
<polygon fill="#bfbfbf" stroke="#bfbfbf" points="80,-827.5 80,-827.5 188,-827.5 188,-827.5 80,-827.5"/>
<polygon fill="none" stroke="#bfbfbf" points="80,-809 80,-864 188,-864 188,-809 80,-809"/>
</a>
</g>
</g>
<!-- Node2&#45;&gt;Node1 -->
<g id="edge1_Node000001_Node000002" class="edge">
<title>Node2&#45;&gt;Node1</title>
<g id="a_edge1_Node000001_Node000002"><a xlink:title=" ">
<path fill="none" stroke="#63b8ff" d="M134,-798.8C134,-791.24 134,-782.7 134,-773.34"/>
<polygon fill="none" stroke="#63b8ff" points="130.5,-798.82 134,-808.82 137.5,-798.82 130.5,-798.82"/>
</a>
</g>
</g>
</g>
</svg>
