<?xml version="1.0" encoding="UTF-8" standalone="no"?>
<!DOCTYPE svg PUBLIC "-//W3C//DTD SVG 1.1//EN"
 "http://www.w3.org/Graphics/SVG/1.1/DTD/svg11.dtd">
<!-- Generated by graphviz version 2.43.0 (0)
 -->
<!-- Title: ShipTemplateSaver.ShowFeedback Pages: 1 -->
<!--zoomable 172 -->

<svg id="main" version="1.1" xmlns="http://www.w3.org/2000/svg" xmlns:xlink="http://www.w3.org/1999/xlink" xml:space="preserve" onload="init(evt)">
<style type="text/css"><![CDATA[
.node, .edge {opacity: 0.7;}
.node.selected, .edge.selected {opacity: 1;}
.edge:hover path { stroke: red; }
.edge:hover polygon { stroke: red; fill: red; }
]]></style>

<defs>
  <circle id="rim" cx="0" cy="0" r="7"/>
  <circle id="rim2" cx="0" cy="0" r="3.5"/>
  <g id="zoomPlus">
    <use xlink:href="#rim" fill="#404040"><set attributeName="fill" to="#808080" begin="zoomplus.mouseover" end="zoomplus.mouseout"/></use>
    <path d="M-4,0h8M0,-4v8" fill="none" stroke="white" stroke-width="1.5" pointer-events="none"/>
  </g>
  <g id="zoomMin">
    <use xlink:href="#rim" fill="#404040"><set attributeName="fill" to="#808080" begin="zoomminus.mouseover" end="zoomminus.mouseout"/></use>
    <path d="M-4,0h8" fill="none" stroke="white" stroke-width="1.5" pointer-events="none"/>
  </g>
  <g id="arrowUp" transform="translate(30 24)">
    <use xlink:href="#rim"/>
    <path pointer-events="none" fill="none" stroke="white" stroke-width="1.5" d="M0,-3.0v7 M-2.5,-0.5L0,-3.0L2.5,-0.5"/>
  </g>
  <g id="arrowRight" transform="rotate(90) translate(36 -43)">
    <use xlink:href="#rim"/>
    <path pointer-events="none" fill="none" stroke="white" stroke-width="1.5" d="M0,-3.0v7 M-2.5,-0.5L0,-3.0L2.5,-0.5"/>
  </g>
  <g id="arrowDown" transform="rotate(180) translate(-30 -48)">
    <use xlink:href="#rim"/>
    <path pointer-events="none" fill="none" stroke="white" stroke-width="1.5" d="M0,-3.0v7 M-2.5,-0.5L0,-3.0L2.5,-0.5"/>
  </g>
  <g id="arrowLeft" transform="rotate(270) translate(-36 17)">
    <use xlink:href="#rim"/>
    <path pointer-events="none" fill="none" stroke="white" stroke-width="1.5" d="M0,-3.0v7 M-2.5,-0.5L0,-3.0L2.5,-0.5"/>
  </g>
  <g id="resetDef">
    <use xlink:href="#rim2" fill="#404040"><set attributeName="fill" to="#808080" begin="reset.mouseover" end="reset.mouseout"/></use>
  </g>
</defs>
<script type="application/ecmascript">
var viewWidth = 1601;
var viewHeight = 172;
var sectionId = 'dynsection-9';
</script>
<script type="application/ecmascript" xlink:href="svg.min.js"/>
<svg id="graph" class="graph">
<g id="viewport">
<title>ShipTemplateSaver.ShowFeedback</title>
<!-- Node1 -->
<g id="Node000001" class="node">
<title>Node1</title>
<g id="a_Node000001"><a xlink:title="피드백 메시지 표시">
<polygon fill="#999999" stroke="#666666" points="1593,-94.5 1351,-94.5 1351,-73.5 1593,-73.5 1593,-94.5"/>
<text text-anchor="middle" x="1472" y="-80.9" font-family="Consolas" font-size="12.00">ShipTemplateSaver.ShowFeedback</text>
</a>
</g>
</g>
<!-- Node2 -->
<g id="Node000002" class="node">
<title>Node2</title>
<g id="a_Node000002"><a xlink:href="classShipTemplateSaver.html#af690a1bdcb85a92ad60fc5b58a24c7e0" target="_top" xlink:title="템플릿 삭제">
<polygon fill="white" stroke="#666666" points="1292.5,-124 1095.5,-124 1095.5,-90 1292.5,-90 1292.5,-124"/>
<text text-anchor="start" x="1103.5" y="-110.4" font-family="Consolas" font-size="12.00">ShipTemplateSaver.Delete</text>
<text text-anchor="middle" x="1194" y="-97.4" font-family="Consolas" font-size="12.00">Template</text>
</a>
</g>
</g>
<!-- Node1&#45;&gt;Node2 -->
<g id="edge1_Node000001_Node000002" class="edge">
<title>Node1&#45;&gt;Node2</title>
<g id="a_edge1_Node000001_Node000002"><a xlink:title=" ">
<path fill="none" stroke="#63b8ff" d="M1340.75,-94.85C1324.65,-96.2 1308.42,-97.55 1292.92,-98.84"/>
<polygon fill="#63b8ff" stroke="#63b8ff" points="1341.07,-98.34 1350.75,-94.02 1340.49,-91.36 1341.07,-98.34"/>
</a>
</g>
</g>
<!-- Node4 -->
<g id="Node000004" class="node">
<title>Node4</title>
<g id="a_Node000004"><a xlink:href="classShipTemplateSaver.html#a7ef3c42f57f55899bc89f716dd2ddd00" target="_top" xlink:title="템플릿 목록 새로고침">
<polygon fill="white" stroke="#666666" points="737,-115 533,-115 533,-81 737,-81 737,-115"/>
<text text-anchor="start" x="541" y="-101.4" font-family="Consolas" font-size="12.00">ShipTemplateSaver.Refresh</text>
<text text-anchor="middle" x="635" y="-88.4" font-family="Consolas" font-size="12.00">TemplateList</text>
</a>
</g>
</g>
<!-- Node1&#45;&gt;Node4 -->
<g id="edge10_Node000001_Node000004" class="edge">
<title>Node1&#45;&gt;Node4</title>
<g id="a_edge10_Node000001_Node000004"><a xlink:title=" ">
<path fill="none" stroke="#63b8ff" d="M1340.69,-81.31C1332,-81.19 1323.37,-81.08 1315,-81 1207.45,-79.97 1180.54,-78.91 1073,-81 957.8,-83.24 825.63,-88.8 737.08,-92.95"/>
<polygon fill="#63b8ff" stroke="#63b8ff" points="1340.86,-84.81 1350.92,-81.46 1340.97,-77.81 1340.86,-84.81"/>
</a>
</g>
</g>
<!-- Node7 -->
<g id="Node000007" class="node">
<title>Node7</title>
<g id="a_Node000007"><a xlink:href="classShipTemplateSaver.html#a358776f0395184e3d2426a8d001e6b0d" target="_top" xlink:title="템플릿 로드하여 함선에 적용">
<polygon fill="white" stroke="#666666" points="1315,-163.5 1073,-163.5 1073,-142.5 1315,-142.5 1315,-163.5"/>
<text text-anchor="middle" x="1194" y="-149.9" font-family="Consolas" font-size="12.00">ShipTemplateSaver.LoadTemplate</text>
</a>
</g>
</g>
<!-- Node1&#45;&gt;Node7 -->
<g id="edge8_Node000001_Node000007" class="edge">
<title>Node1&#45;&gt;Node7</title>
<g id="a_edge8_Node000001_Node000007"><a xlink:title=" ">
<path fill="none" stroke="#63b8ff" d="M1432.08,-97.89C1400.77,-108.65 1355.48,-123.32 1315,-133 1300,-136.59 1283.8,-139.75 1268.3,-142.45"/>
<polygon fill="#63b8ff" stroke="#63b8ff" points="1433.43,-101.12 1441.73,-94.54 1431.13,-94.51 1433.43,-101.12"/>
</a>
</g>
</g>
<!-- Node8 -->
<g id="Node000008" class="node">
<title>Node8</title>
<g id="a_Node000008"><a xlink:href="classShipTemplateSaver.html#a60eaa44e4b337e8589cdac750c4c7006" target="_top" xlink:title="함선 템플릿 저장">
<polygon fill="white" stroke="#666666" points="1011,-34 799,-34 799,0 1011,0 1011,-34"/>
<text text-anchor="start" x="807" y="-20.4" font-family="Consolas" font-size="12.00">ShipTemplateSaver.SaveShip</text>
<text text-anchor="middle" x="905" y="-7.4" font-family="Consolas" font-size="12.00">Template</text>
</a>
</g>
</g>
<!-- Node1&#45;&gt;Node8 -->
<g id="edge11_Node000001_Node000008" class="edge">
<title>Node1&#45;&gt;Node8</title>
<g id="a_edge11_Node000001_Node000008"><a xlink:title=" ">
<path fill="none" stroke="#63b8ff" d="M1422.86,-70.91C1392.21,-63.06 1351.54,-53.57 1315,-48 1212.4,-32.36 1094.05,-24.48 1011.14,-20.6"/>
<polygon fill="#63b8ff" stroke="#63b8ff" points="1422.29,-74.37 1432.85,-73.49 1424.04,-67.6 1422.29,-74.37"/>
</a>
</g>
</g>
<!-- Node3 -->
<g id="Node000003" class="node">
<title>Node3</title>
<g id="a_Node000003"><a xlink:href="classShipTemplateSaver.html#a6c6e9dd017c3169597bbf314593d6fd6" target="_top" xlink:title="템플릿 목록 아이템 추가">
<polygon fill="white" stroke="#666666" points="1037,-149.5 773,-149.5 773,-128.5 1037,-128.5 1037,-149.5"/>
<text text-anchor="middle" x="905" y="-135.9" font-family="Consolas" font-size="12.00">ShipTemplateSaver.AddTemplateItem</text>
</a>
</g>
</g>
<!-- Node2&#45;&gt;Node3 -->
<g id="edge2_Node000002_Node000003" class="edge">
<title>Node2&#45;&gt;Node3</title>
<g id="a_edge2_Node000002_Node000003"><a xlink:title=" ">
<path fill="none" stroke="#63b8ff" d="M1085.25,-119.01C1057.36,-122.12 1027.54,-125.45 1000.38,-128.48"/>
<polygon fill="#63b8ff" stroke="#63b8ff" points="1085.88,-122.47 1095.43,-117.88 1085.11,-115.51 1085.88,-122.47"/>
</a>
</g>
</g>
<!-- Node3&#45;&gt;Node4 -->
<g id="edge3_Node000003_Node000004" class="edge">
<title>Node3&#45;&gt;Node4</title>
<g id="a_edge3_Node000003_Node000004"><a xlink:title=" ">
<path fill="none" stroke="#63b8ff" d="M825.34,-126.97C797.73,-122.74 766.31,-117.94 737.11,-113.47"/>
<polygon fill="#63b8ff" stroke="#63b8ff" points="824.92,-130.44 835.33,-128.49 825.98,-123.52 824.92,-130.44"/>
</a>
</g>
</g>
<!-- Node4&#45;&gt;Node2 -->
<g id="edge4_Node000004_Node000002" class="edge">
<title>Node4&#45;&gt;Node2</title>
<g id="a_edge4_Node000004_Node000002"><a xlink:title=" ">
<path fill="none" stroke="#63b8ff" d="M747.32,-99.8C849.08,-101.44 998.11,-103.85 1095.34,-105.42"/>
<polygon fill="#63b8ff" stroke="#63b8ff" points="747.37,-96.3 737.32,-99.64 747.26,-103.3 747.37,-96.3"/>
</a>
</g>
</g>
<!-- Node5 -->
<g id="Node000005" class="node">
<title>Node5</title>
<g id="a_Node000005"><a xlink:href="classShipTemplateSaver.html#aeeb52bd9da7cf308ada9e400f7ed18e5" target="_top" xlink:title="템플릿 목록 표시">
<polygon fill="white" stroke="#666666" points="497,-108.5 225,-108.5 225,-87.5 497,-87.5 497,-108.5"/>
<text text-anchor="middle" x="361" y="-94.9" font-family="Consolas" font-size="12.00">ShipTemplateSaver.ShowTemplateList</text>
</a>
</g>
</g>
<!-- Node4&#45;&gt;Node5 -->
<g id="edge5_Node000004_Node000005" class="edge">
<title>Node4&#45;&gt;Node5</title>
<g id="a_edge5_Node000004_Node000005"><a xlink:title=" ">
<path fill="none" stroke="#63b8ff" d="M522.55,-98C514.15,-98 505.63,-98 497.11,-98"/>
<polygon fill="#63b8ff" stroke="#63b8ff" points="522.72,-101.5 532.72,-98 522.72,-94.5 522.72,-101.5"/>
</a>
</g>
</g>
<!-- Node6 -->
<g id="Node000006" class="node">
<title>Node6</title>
<g id="a_Node000006"><a xlink:href="classShipTemplateSaver.html#ac21a9409eb9263a08102e63c84238ee4" target="_top" xlink:title="초기화">
<polygon fill="white" stroke="#666666" points="189,-69.5 0,-69.5 0,-48.5 189,-48.5 189,-69.5"/>
<text text-anchor="middle" x="94.5" y="-55.9" font-family="Consolas" font-size="12.00">ShipTemplateSaver.Start</text>
</a>
</g>
</g>
<!-- Node4&#45;&gt;Node6 -->
<g id="edge7_Node000004_Node000006" class="edge">
<title>Node4&#45;&gt;Node6</title>
<g id="a_edge7_Node000004_Node000006"><a xlink:title=" ">
<path fill="none" stroke="#63b8ff" d="M522.59,-81.72C513.94,-80.71 505.33,-79.78 497,-79 391.9,-69.11 270.84,-63.93 189.37,-61.34"/>
<polygon fill="#63b8ff" stroke="#63b8ff" points="522.4,-85.22 532.74,-82.94 523.23,-78.27 522.4,-85.22"/>
</a>
</g>
</g>
<!-- Node5&#45;&gt;Node6 -->
<g id="edge6_Node000005_Node000006" class="edge">
<title>Node5&#45;&gt;Node6</title>
<g id="a_edge6_Node000005_Node000006"><a xlink:title=" ">
<path fill="none" stroke="#63b8ff" d="M278.85,-86.03C243.08,-80.76 201.42,-74.62 166.86,-69.52"/>
<polygon fill="#63b8ff" stroke="#63b8ff" points="278.37,-89.5 288.77,-87.5 279.39,-82.58 278.37,-89.5"/>
</a>
</g>
</g>
<!-- Node7&#45;&gt;Node3 -->
<g id="edge9_Node000007_Node000003" class="edge">
<title>Node7&#45;&gt;Node3</title>
<g id="a_edge9_Node000007_Node000003"><a xlink:title=" ">
<path fill="none" stroke="#63b8ff" d="M1062.93,-146.65C1054.35,-146.24 1045.72,-145.82 1037.14,-145.4"/>
<polygon fill="#63b8ff" stroke="#63b8ff" points="1062.79,-150.15 1072.95,-147.14 1063.13,-143.16 1062.79,-150.15"/>
</a>
</g>
</g>
<!-- Node8&#45;&gt;Node6 -->
<g id="edge12_Node000008_Node000006" class="edge">
<title>Node8&#45;&gt;Node6</title>
<g id="a_edge12_Node000008_Node000006"><a xlink:title=" ">
<path fill="none" stroke="#63b8ff" d="M788.28,-23.01C626.97,-31.39 337.63,-46.42 189.1,-54.14"/>
<polygon fill="#63b8ff" stroke="#63b8ff" points="788.91,-26.48 798.72,-22.47 788.55,-19.49 788.91,-26.48"/>
</a>
</g>
</g>
</g>
</svg>

<g id="navigator" transform="translate(0 0)" fill="#404254">
  <rect fill="#f2f5e9" fill-opacity="0.5" stroke="#606060" stroke-width=".5" x="0" y="0" width="60" height="60"/>
  <use id="zoomplus" xlink:href="#zoomPlus" x="17" y="9" onmousedown="handleZoom(evt,'in')"/>
  <use id="zoomminus" xlink:href="#zoomMin" x="42" y="9" onmousedown="handleZoom(evt,'out')"/>
  <use id="reset" xlink:href="#resetDef" x="30" y="36" onmousedown="handleReset()"/>
   <use id="arrowup" xlink:href="#arrowUp" x="0" y="0" onmousedown="handlePan(0,-1)"/>
  <use id="arrowright" xlink:href="#arrowRight" x="0" y="0" onmousedown="handlePan(1,0)"/>
  <use id="arrowdown" xlink:href="#arrowDown" x="0" y="0" onmousedown="handlePan(0,1)"/>
  <use id="arrowleft" xlink:href="#arrowLeft" x="0" y="0" onmousedown="handlePan(-1,0)"/>
</g>
<svg viewBox="0 0 15 15" width="100%" height="30px" preserveAspectRatio="xMaxYMin meet">
 <g id="arrow_out" transform="scale(0.3 0.3)">
  <a xlink:href="classShipTemplateSaver_a398c37a1800d6cb43edc09c03c181f7a_icgraph_org.svg" target="_base">
   <rect id="button" ry="5" rx="5" y="6" x="6" height="38" width="38"
        fill="#f2f5e9" fill-opacity="0.5" stroke="#606060" stroke-width="1.0"/>
   <path id="arrow"
     d="M 11.500037,31.436501 C 11.940474,20.09759 22.043105,11.32322 32.158766,21.979434 L 37.068811,17.246167 C 37.068811,17.246167 37.088388,32 37.088388,32 L 22.160133,31.978069 C 22.160133,31.978069 26.997745,27.140456 26.997745,27.140456 C 18.528582,18.264221 13.291696,25.230495 11.500037,31.436501 z"
     style="fill:#404040;"/>
  </a>
 </g>
</svg>

<style type='text/css'>
<![CDATA[
[data-mouse-over-selected='false'] { opacity: 0.7; }
[data-mouse-over-selected='true']  { opacity: 1.0; }
]]>
</style>
<script type="application/ecmascript"><![CDATA[
document.addEventListener('DOMContentLoaded', (event) => {
  highlightEdges();
  highlightAdjacentNodes();
});
]]></script>
</svg>
