<?xml version="1.0" encoding="UTF-8" standalone="no"?>
<!DOCTYPE svg PUBLIC "-//W3C//DTD SVG 1.1//EN"
 "http://www.w3.org/Graphics/SVG/1.1/DTD/svg11.dtd">
<!-- Generated by graphviz version 2.43.0 (0)
 -->
<!-- Title: OuterShipCombatController.WeaponFire Pages: 1 -->
<!--zoomable 224 -->

<svg id="main" version="1.1" xmlns="http://www.w3.org/2000/svg" xmlns:xlink="http://www.w3.org/1999/xlink" xml:space="preserve" onload="init(evt)">
<style type="text/css"><![CDATA[
.node, .edge {opacity: 0.7;}
.node.selected, .edge.selected {opacity: 1;}
.edge:hover path { stroke: red; }
.edge:hover polygon { stroke: red; fill: red; }
]]></style>

<defs>
  <circle id="rim" cx="0" cy="0" r="7"/>
  <circle id="rim2" cx="0" cy="0" r="3.5"/>
  <g id="zoomPlus">
    <use xlink:href="#rim" fill="#404040"><set attributeName="fill" to="#808080" begin="zoomplus.mouseover" end="zoomplus.mouseout"/></use>
    <path d="M-4,0h8M0,-4v8" fill="none" stroke="white" stroke-width="1.5" pointer-events="none"/>
  </g>
  <g id="zoomMin">
    <use xlink:href="#rim" fill="#404040"><set attributeName="fill" to="#808080" begin="zoomminus.mouseover" end="zoomminus.mouseout"/></use>
    <path d="M-4,0h8" fill="none" stroke="white" stroke-width="1.5" pointer-events="none"/>
  </g>
  <g id="arrowUp" transform="translate(30 24)">
    <use xlink:href="#rim"/>
    <path pointer-events="none" fill="none" stroke="white" stroke-width="1.5" d="M0,-3.0v7 M-2.5,-0.5L0,-3.0L2.5,-0.5"/>
  </g>
  <g id="arrowRight" transform="rotate(90) translate(36 -43)">
    <use xlink:href="#rim"/>
    <path pointer-events="none" fill="none" stroke="white" stroke-width="1.5" d="M0,-3.0v7 M-2.5,-0.5L0,-3.0L2.5,-0.5"/>
  </g>
  <g id="arrowDown" transform="rotate(180) translate(-30 -48)">
    <use xlink:href="#rim"/>
    <path pointer-events="none" fill="none" stroke="white" stroke-width="1.5" d="M0,-3.0v7 M-2.5,-0.5L0,-3.0L2.5,-0.5"/>
  </g>
  <g id="arrowLeft" transform="rotate(270) translate(-36 17)">
    <use xlink:href="#rim"/>
    <path pointer-events="none" fill="none" stroke="white" stroke-width="1.5" d="M0,-3.0v7 M-2.5,-0.5L0,-3.0L2.5,-0.5"/>
  </g>
  <g id="resetDef">
    <use xlink:href="#rim2" fill="#404040"><set attributeName="fill" to="#808080" begin="reset.mouseover" end="reset.mouseout"/></use>
  </g>
</defs>
<script type="application/ecmascript">
var viewWidth = 1166;
var viewHeight = 224;
var sectionId = 'dynsection-3';
</script>
<script type="application/ecmascript" xlink:href="svg.min.js"/>
<svg id="graph" class="graph">
<g id="viewport">
<title>OuterShipCombatController.WeaponFire</title>
<!-- Node1 -->
<g id="Node000001" class="node">
<title>Node1</title>
<g id="a_Node000001"><a xlink:title="지정된 함선이 무기를 발사하도록 시도합니다. 무기가 준비되지 않았거나 대상이 없으면 실패합니다.">
<polygon fill="#999999" stroke="#666666" points="212,-124.5 0,-124.5 0,-90.5 212,-90.5 212,-124.5"/>
<text text-anchor="start" x="8" y="-110.9" font-family="Consolas" font-size="12.00">OuterShipCombatController.</text>
<text text-anchor="middle" x="106" y="-97.9" font-family="Consolas" font-size="12.00">WeaponFire</text>
</a>
</g>
</g>
<!-- Node2 -->
<g id="Node000002" class="node">
<title>Node2</title>
<g id="a_Node000002"><a xlink:href="classShip.html#aaeb3c2fae57814b8bfd366f887e2c39f" target="_top" xlink:title="무기 시스템 수정자를 적용한 후의 실제 피해량을 계산합니다.">
<polygon fill="white" stroke="#666666" points="456,-216 289,-216 289,-195 456,-195 456,-216"/>
<text text-anchor="middle" x="372.5" y="-202.4" font-family="Consolas" font-size="12.00">Ship.GetActualDamage</text>
</a>
</g>
</g>
<!-- Node1&#45;&gt;Node2 -->
<g id="edge1_Node000001_Node000002" class="edge">
<title>Node1&#45;&gt;Node2</title>
<g id="a_edge1_Node000001_Node000002"><a xlink:title=" ">
<path fill="none" stroke="#63b8ff" d="M131.19,-124.64C158.3,-142.96 204.23,-171.42 248,-186.5 257.79,-189.87 268.23,-192.65 278.73,-194.93"/>
<polygon fill="#63b8ff" stroke="#63b8ff" points="278.29,-198.42 288.79,-196.97 279.69,-191.56 278.29,-198.42"/>
</a>
</g>
</g>
<!-- Node6 -->
<g id="Node000006" class="node">
<title>Node6</title>
<g id="a_Node000006"><a xlink:href="classGameManager.html#acb45f12416a7b021433ac7706ec5f95c" target="_top" xlink:title="현재 적 함선을 반환합니다.">
<polygon fill="white" stroke="#666666" points="497,-177 248,-177 248,-156 497,-156 497,-177"/>
<text text-anchor="middle" x="372.5" y="-163.4" font-family="Consolas" font-size="12.00">GameManager.GetCurrentEnemyShip</text>
</a>
</g>
</g>
<!-- Node1&#45;&gt;Node6 -->
<g id="edge5_Node000001_Node000006" class="edge">
<title>Node1&#45;&gt;Node6</title>
<g id="a_edge5_Node000001_Node000006"><a xlink:title=" ">
<path fill="none" stroke="#63b8ff" d="M161.17,-124.57C187.23,-132.34 219.04,-141.19 248,-147.5 259.43,-149.99 271.52,-152.27 283.48,-154.33"/>
<polygon fill="#63b8ff" stroke="#63b8ff" points="283.05,-157.8 293.49,-156 284.2,-150.9 283.05,-157.8"/>
</a>
</g>
</g>
<!-- Node7 -->
<g id="Node000007" class="node">
<title>Node7</title>
<g id="a_Node000007"><a xlink:href="classShipWeapon.html#a5d0c8b9cb45cd7470fb3868d9feb826d" target="_top" xlink:title="무기의 피해량을 반환합니다.">
<polygon fill="white" stroke="#666666" points="456,-138 289,-138 289,-117 456,-117 456,-138"/>
<text text-anchor="middle" x="372.5" y="-124.4" font-family="Consolas" font-size="12.00">ShipWeapon.GetDamage</text>
</a>
</g>
</g>
<!-- Node1&#45;&gt;Node7 -->
<g id="edge6_Node000001_Node000007" class="edge">
<title>Node1&#45;&gt;Node7</title>
<g id="a_edge6_Node000001_Node000007"><a xlink:title=" ">
<path fill="none" stroke="#63b8ff" d="M212.3,-115.46C234.31,-117.13 257.36,-118.87 278.88,-120.5"/>
<polygon fill="#63b8ff" stroke="#63b8ff" points="278.74,-124 288.97,-121.26 279.26,-117.02 278.74,-124"/>
</a>
</g>
</g>
<!-- Node9 -->
<g id="Node000009" class="node">
<title>Node9</title>
<g id="a_Node000009"><a xlink:href="classShip.html#a73217557e08511f1436830db223bfc4e" target="_top" xlink:title="무작위로 타겟팅 가능한 방의 위치를 반환합니다. 방이 없는 경우 (모두 파괴되었거나 타겟 불가) Vector2Int.zero를 반환합니다.">
<polygon fill="white" stroke="#666666" points="486,-99 259,-99 259,-78 486,-78 486,-99"/>
<text text-anchor="middle" x="372.5" y="-85.4" font-family="Consolas" font-size="12.00">Ship.GetRandomTargetPosition</text>
</a>
</g>
</g>
<!-- Node1&#45;&gt;Node9 -->
<g id="edge8_Node000001_Node000009" class="edge">
<title>Node1&#45;&gt;Node9</title>
<g id="a_edge8_Node000001_Node000009"><a xlink:title=" ">
<path fill="none" stroke="#63b8ff" d="M212.3,-99.94C224.23,-99.08 236.46,-98.2 248.59,-97.33"/>
<polygon fill="#63b8ff" stroke="#63b8ff" points="249.03,-100.81 258.75,-96.6 248.52,-93.82 249.03,-100.81"/>
</a>
</g>
</g>
<!-- Node13 -->
<g id="Node000013" class="node">
<title>Node13</title>
<g id="a_Node000013"><a xlink:href="classShip.html#acc377098e3c61bbd4b8fc53595d09293" target="_top" xlink:title="실제 월드 위치 반환">
<polygon fill="white" stroke="#666666" points="489.5,-60 255.5,-60 255.5,-39 489.5,-39 489.5,-60"/>
<text text-anchor="middle" x="372.5" y="-46.4" font-family="Consolas" font-size="12.00">Ship.GetWorldPositionFromGrid</text>
</a>
</g>
</g>
<!-- Node1&#45;&gt;Node13 -->
<g id="edge12_Node000001_Node000013" class="edge">
<title>Node1&#45;&gt;Node13</title>
<g id="a_edge12_Node000001_Node000013"><a xlink:title=" ">
<path fill="none" stroke="#63b8ff" d="M162.89,-90.42C188.63,-82.97 219.69,-74.57 248,-68.5 259.52,-66.03 271.7,-63.75 283.76,-61.7"/>
<polygon fill="#63b8ff" stroke="#63b8ff" points="284.54,-65.12 293.84,-60.03 283.4,-58.21 284.54,-65.12"/>
</a>
</g>
</g>
<!-- Node15 -->
<g id="Node000015" class="node">
<title>Node15</title>
<g id="a_Node000015"><a xlink:href="classShipWeapon.html#a72518cf9b3021beca098c19c438dbc5f" target="_top" xlink:title="무기가 발사 가능한 상태인지 확인합니다.">
<polygon fill="white" stroke="#666666" points="448.5,-21 296.5,-21 296.5,0 448.5,0 448.5,-21"/>
<text text-anchor="middle" x="372.5" y="-7.4" font-family="Consolas" font-size="12.00">ShipWeapon.IsReady</text>
</a>
</g>
</g>
<!-- Node1&#45;&gt;Node15 -->
<g id="edge14_Node000001_Node000015" class="edge">
<title>Node1&#45;&gt;Node15</title>
<g id="a_edge14_Node000001_Node000015"><a xlink:title=" ">
<path fill="none" stroke="#63b8ff" d="M131.72,-90.26C158.93,-72.16 204.58,-44.32 248,-29.5 260.19,-25.34 273.36,-22.09 286.42,-19.54"/>
<polygon fill="#63b8ff" stroke="#63b8ff" points="287.14,-22.97 296.35,-17.74 285.89,-16.08 287.14,-22.97"/>
</a>
</g>
</g>
<!-- Node3 -->
<g id="Node000003" class="node">
<title>Node3</title>
<g id="a_Node000003"><a xlink:href="classWeaponSystem.html#a76fad11c0e7c6d587a635081322f4b4f" target="_top" xlink:title="실제 적용될 데미지를 계산합니다. 데미지 보너스를 적용하여 최종 데미지를 산출합니다.">
<polygon fill="white" stroke="#666666" points="760,-216 533,-216 533,-195 760,-195 760,-216"/>
<text text-anchor="middle" x="646.5" y="-202.4" font-family="Consolas" font-size="12.00">WeaponSystem.GetActualDamage</text>
</a>
</g>
</g>
<!-- Node2&#45;&gt;Node3 -->
<g id="edge2_Node000002_Node000003" class="edge">
<title>Node2&#45;&gt;Node3</title>
<g id="a_edge2_Node000002_Node000003"><a xlink:title=" ">
<path fill="none" stroke="#63b8ff" d="M456.22,-205.5C477.09,-205.5 499.95,-205.5 522.34,-205.5"/>
<polygon fill="#63b8ff" stroke="#63b8ff" points="522.59,-209 532.59,-205.5 522.59,-202 522.59,-209"/>
</a>
</g>
</g>
<!-- Node4 -->
<g id="Node000004" class="node">
<title>Node4</title>
<g id="a_Node000004"><a xlink:href="classShipSystem.html#a0c4c206aa7e875dc6810ea122e46b332" target="_top" xlink:title="현재 함선의 특정 스탯 값을 가져옵니다.">
<polygon fill="white" stroke="#666666" points="996.5,-216 814.5,-216 814.5,-195 996.5,-195 996.5,-216"/>
<text text-anchor="middle" x="905.5" y="-202.4" font-family="Consolas" font-size="12.00">ShipSystem.GetShipStat</text>
</a>
</g>
</g>
<!-- Node3&#45;&gt;Node4 -->
<g id="edge3_Node000003_Node000004" class="edge">
<title>Node3&#45;&gt;Node4</title>
<g id="a_edge3_Node000003_Node000004"><a xlink:title=" ">
<path fill="none" stroke="#63b8ff" d="M760.22,-205.5C774.77,-205.5 789.58,-205.5 803.91,-205.5"/>
<polygon fill="#63b8ff" stroke="#63b8ff" points="804.25,-209 814.25,-205.5 804.25,-202 804.25,-209"/>
</a>
</g>
</g>
<!-- Node5 -->
<g id="Node000005" class="node">
<title>Node5</title>
<g id="a_Node000005"><a xlink:href="classShip.html#a080a77bc4aa01fd3e5b2561cb5317eca" target="_top" xlink:title="특정 스탯 값을 반환합니다.">
<polygon fill="white" stroke="#666666" points="1158,-216 1051,-216 1051,-195 1158,-195 1158,-216"/>
<text text-anchor="middle" x="1104.5" y="-202.4" font-family="Consolas" font-size="12.00">Ship.GetStat</text>
</a>
</g>
</g>
<!-- Node4&#45;&gt;Node5 -->
<g id="edge4_Node000004_Node000005" class="edge">
<title>Node4&#45;&gt;Node5</title>
<g id="a_edge4_Node000004_Node000005"><a xlink:title=" ">
<path fill="none" stroke="#63b8ff" d="M996.64,-205.5C1011.56,-205.5 1026.74,-205.5 1040.79,-205.5"/>
<polygon fill="#63b8ff" stroke="#63b8ff" points="1040.8,-209 1050.8,-205.5 1040.8,-202 1040.8,-209"/>
</a>
</g>
</g>
<!-- Node8 -->
<g id="Node000008" class="node">
<title>Node8</title>
<g id="a_Node000008"><a xlink:href="classShipWeaponData.html#ae20f1d78d88a9f90560976fe90b09509" target="_top" xlink:title="무기의 데미지를 반환합니다.">
<polygon fill="white" stroke="#666666" points="745,-138 548,-138 548,-117 745,-117 745,-138"/>
<text text-anchor="middle" x="646.5" y="-124.4" font-family="Consolas" font-size="12.00">ShipWeaponData.GetDamage</text>
</a>
</g>
</g>
<!-- Node7&#45;&gt;Node8 -->
<g id="edge7_Node000007_Node000008" class="edge">
<title>Node7&#45;&gt;Node8</title>
<g id="a_edge7_Node000007_Node000008"><a xlink:title=" ">
<path fill="none" stroke="#63b8ff" d="M456.22,-127.5C481.86,-127.5 510.5,-127.5 537.58,-127.5"/>
<polygon fill="#63b8ff" stroke="#63b8ff" points="537.88,-131 547.88,-127.5 537.88,-124 537.88,-131"/>
</a>
</g>
</g>
<!-- Node10 -->
<g id="Node000010" class="node">
<title>Node10</title>
<g id="a_Node000010"><a xlink:href="classRoom.html#a18ac2f2af25dbf2e6181db75eab061ae" target="_top" xlink:title="회전각을 고려하여 방의 점유 타일 반환">
<polygon fill="white" stroke="#666666" points="733.5,-99 559.5,-99 559.5,-78 733.5,-78 733.5,-99"/>
<text text-anchor="middle" x="646.5" y="-85.4" font-family="Consolas" font-size="12.00">Room.GetOccupiedTiles</text>
</a>
</g>
</g>
<!-- Node9&#45;&gt;Node10 -->
<g id="edge9_Node000009_Node000010" class="edge">
<title>Node9&#45;&gt;Node10</title>
<g id="a_edge9_Node000009_Node000010"><a xlink:title=" ">
<path fill="none" stroke="#63b8ff" d="M486.1,-88.5C506.98,-88.5 528.61,-88.5 548.96,-88.5"/>
<polygon fill="#63b8ff" stroke="#63b8ff" points="549.16,-92 559.16,-88.5 549.16,-85 549.16,-92"/>
</a>
</g>
</g>
<!-- Node11 -->
<g id="Node000011" class="node">
<title>Node11</title>
<g id="a_Node000011"><a xlink:href="classRoom.html#ae14b08f3ba19cce81b077d6fefcb1fd5" target="_top" xlink:title="현재 업그레이드 레벨을 반환합니다.">
<polygon fill="white" stroke="#666666" points="989,-119 822,-119 822,-98 989,-98 989,-119"/>
<text text-anchor="middle" x="905.5" y="-105.4" font-family="Consolas" font-size="12.00">Room.GetCurrentLevel</text>
</a>
</g>
</g>
<!-- Node10&#45;&gt;Node11 -->
<g id="edge10_Node000010_Node000011" class="edge">
<title>Node10&#45;&gt;Node11</title>
<g id="a_edge10_Node000010_Node000011"><a xlink:title=" ">
<path fill="none" stroke="#63b8ff" d="M733.79,-95.22C758.9,-97.17 786.42,-99.31 811.89,-101.29"/>
<polygon fill="#63b8ff" stroke="#63b8ff" points="811.68,-104.79 821.92,-102.07 812.22,-97.81 811.68,-104.79"/>
</a>
</g>
</g>
<!-- Node12 -->
<g id="Node000012" class="node">
<title>Node12</title>
<g id="a_Node000012"><a xlink:href="classRoomData.html#a93ada549c4d197d14917913e944f46c2" target="_top" xlink:title="주어진 레벨에 해당하는 RoomLevel 데이터를 반환합니다. 각 파생 클래스에서 구현해야 합니다.">
<polygon fill="white" stroke="#666666" points="1015,-80 796,-80 796,-59 1015,-59 1015,-80"/>
<text text-anchor="middle" x="905.5" y="-66.4" font-family="Consolas" font-size="12.00">RoomData.GetRoomDataByLevel</text>
</a>
</g>
</g>
<!-- Node10&#45;&gt;Node12 -->
<g id="edge11_Node000010_Node000012" class="edge">
<title>Node10&#45;&gt;Node12</title>
<g id="a_edge11_Node000010_Node000012"><a xlink:title=" ">
<path fill="none" stroke="#63b8ff" d="M733.79,-82.12C750.37,-80.89 768,-79.59 785.4,-78.3"/>
<polygon fill="#63b8ff" stroke="#63b8ff" points="785.9,-81.78 795.61,-77.55 785.38,-74.8 785.9,-81.78"/>
</a>
</g>
</g>
<!-- Node14 -->
<g id="Node000014" class="node">
<title>Node14</title>
<g id="a_Node000014"><a xlink:href="classShip.html#a84f03b9700fea23f4e8a48f1233de137" target="_top" xlink:title="그리드 좌표를 월드 좌표로 변환 ((0, 0) ~ (60, 60) 그리드 내 좌표라 local relative 좌표임)">
<polygon fill="white" stroke="#666666" points="745,-60 548,-60 548,-39 745,-39 745,-60"/>
<text text-anchor="middle" x="646.5" y="-46.4" font-family="Consolas" font-size="12.00">Ship.GridToWorldPosition</text>
</a>
</g>
</g>
<!-- Node13&#45;&gt;Node14 -->
<g id="edge13_Node000013_Node000014" class="edge">
<title>Node13&#45;&gt;Node14</title>
<g id="a_edge13_Node000013_Node000014"><a xlink:title=" ">
<path fill="none" stroke="#63b8ff" d="M489.64,-49.5C505.51,-49.5 521.75,-49.5 537.47,-49.5"/>
<polygon fill="#63b8ff" stroke="#63b8ff" points="537.72,-53 547.72,-49.5 537.72,-46 537.72,-53"/>
</a>
</g>
</g>
</g>
</svg>

<g id="navigator" transform="translate(0 0)" fill="#404254">
  <rect fill="#f2f5e9" fill-opacity="0.5" stroke="#606060" stroke-width=".5" x="0" y="0" width="60" height="60"/>
  <use id="zoomplus" xlink:href="#zoomPlus" x="17" y="9" onmousedown="handleZoom(evt,'in')"/>
  <use id="zoomminus" xlink:href="#zoomMin" x="42" y="9" onmousedown="handleZoom(evt,'out')"/>
  <use id="reset" xlink:href="#resetDef" x="30" y="36" onmousedown="handleReset()"/>
   <use id="arrowup" xlink:href="#arrowUp" x="0" y="0" onmousedown="handlePan(0,-1)"/>
  <use id="arrowright" xlink:href="#arrowRight" x="0" y="0" onmousedown="handlePan(1,0)"/>
  <use id="arrowdown" xlink:href="#arrowDown" x="0" y="0" onmousedown="handlePan(0,1)"/>
  <use id="arrowleft" xlink:href="#arrowLeft" x="0" y="0" onmousedown="handlePan(-1,0)"/>
</g>
<svg viewBox="0 0 15 15" width="100%" height="30px" preserveAspectRatio="xMaxYMin meet">
 <g id="arrow_out" transform="scale(0.3 0.3)">
  <a xlink:href="classOuterShipCombatController_a11ae7e43fcd5261ae159ccffb975dba9_cgraph_org.svg" target="_base">
   <rect id="button" ry="5" rx="5" y="6" x="6" height="38" width="38"
        fill="#f2f5e9" fill-opacity="0.5" stroke="#606060" stroke-width="1.0"/>
   <path id="arrow"
     d="M 11.500037,31.436501 C 11.940474,20.09759 22.043105,11.32322 32.158766,21.979434 L 37.068811,17.246167 C 37.068811,17.246167 37.088388,32 37.088388,32 L 22.160133,31.978069 C 22.160133,31.978069 26.997745,27.140456 26.997745,27.140456 C 18.528582,18.264221 13.291696,25.230495 11.500037,31.436501 z"
     style="fill:#404040;"/>
  </a>
 </g>
</svg>

<style type='text/css'>
<![CDATA[
[data-mouse-over-selected='false'] { opacity: 0.7; }
[data-mouse-over-selected='true']  { opacity: 1.0; }
]]>
</style>
<script type="application/ecmascript"><![CDATA[
document.addEventListener('DOMContentLoaded', (event) => {
  highlightEdges();
  highlightAdjacentNodes();
});
]]></script>
</svg>
