<?xml version="1.0" encoding="UTF-8" standalone="no"?>
<!DOCTYPE svg PUBLIC "-//W3C//DTD SVG 1.1//EN"
 "http://www.w3.org/Graphics/SVG/1.1/DTD/svg11.dtd">
<!-- Generated by graphviz version 2.43.0 (0)
 -->
<!-- Title: ItemFactory Pages: 1 -->
<svg width="485pt" height="587pt"
 viewBox="0.00 0.00 485.00 587.00" xmlns="http://www.w3.org/2000/svg" xmlns:xlink="http://www.w3.org/1999/xlink">
<g id="graph0" class="graph" transform="scale(1 1) rotate(0) translate(4 583)">
<title>ItemFactory</title>
<!-- Node1 -->
<g id="Node000001" class="node">
<title>Node1</title>
<g id="a_Node000001"><a xlink:title=" ">
<polygon fill="#999999" stroke="transparent" points="246,-205 0,-205 0,0 246,0 246,-205"/>
<text text-anchor="start" x="81.5" y="-190.9" font-family="Consolas" font-size="12.00">ItemFactory</text>
<text text-anchor="start" x="4" y="-173.9" font-family="Consolas" font-size="12.00">+</text>
<text text-anchor="start" x="16" y="-173.9" font-family="Consolas" font-size="12.00">GameObject ItemPrefabShape</text>
<text text-anchor="start" x="4" y="-156.9" font-family="Consolas" font-size="12.00">+</text>
<text text-anchor="start" x="16" y="-156.9" font-family="Consolas" font-size="12.00">TradingItemData GetItemData</text>
<text text-anchor="start" x="16" y="-143.9" font-family="Consolas" font-size="12.00">(int id)</text>
<text text-anchor="start" x="4" y="-126.9" font-family="Consolas" font-size="12.00">+</text>
<text text-anchor="start" x="16" y="-126.9" font-family="Consolas" font-size="12.00">GameObject CreateItemObject</text>
<text text-anchor="start" x="16" y="-113.9" font-family="Consolas" font-size="12.00">(int itemId, int quantity,</text>
<text text-anchor="start" x="16" y="-100.9" font-family="Consolas" font-size="12.00"> Vector2Int position=new())</text>
<text text-anchor="start" x="4" y="-83.9" font-family="Consolas" font-size="12.00">+</text>
<text text-anchor="start" x="16" y="-83.9" font-family="Consolas" font-size="12.00">TradingItem CreateItemObject</text>
<text text-anchor="start" x="16" y="-70.9" font-family="Consolas" font-size="12.00">(TradingItem item)</text>
<text text-anchor="start" x="4" y="-53.9" font-family="Consolas" font-size="12.00">+</text>
<text text-anchor="start" x="16" y="-53.9" font-family="Consolas" font-size="12.00">TradingItem CreateItemInstance</text>
<text text-anchor="start" x="16" y="-40.9" font-family="Consolas" font-size="12.00">(int itemId, int quantity)</text>
<text text-anchor="start" x="4" y="-23.9" font-family="Consolas" font-size="12.00">&#45;</text>
<text text-anchor="start" x="16" y="-23.9" font-family="Consolas" font-size="12.00">void Awake()</text>
<text text-anchor="start" x="4" y="-6.9" font-family="Consolas" font-size="12.00">&#45;</text>
<text text-anchor="start" x="16" y="-6.9" font-family="Consolas" font-size="12.00">void InitializeDatabase()</text>
<polygon fill="#666666" stroke="#666666" points="0,-185.5 0,-185.5 246,-185.5 246,-185.5 0,-185.5"/>
<polygon fill="#666666" stroke="#666666" points="0,-168.5 0,-168.5 14,-168.5 14,-168.5 0,-168.5"/>
<polygon fill="#666666" stroke="#666666" points="14,-168.5 14,-168.5 246,-168.5 246,-168.5 14,-168.5"/>
<polygon fill="none" stroke="#666666" points="0,0 0,-205 246,-205 246,0 0,0"/>
</a>
</g>
</g>
<!-- Node2 -->
<g id="Node000002" class="node">
<title>Node2</title>
<g id="a_Node000002"><a xlink:title=" ">
<polygon fill="white" stroke="transparent" points="161,-399 53,-399 53,-344 161,-344 161,-399"/>
<text text-anchor="start" x="58" y="-384.9" font-family="Consolas" font-size="12.00">MonoBehaviour</text>
<text text-anchor="start" x="103" y="-367.9" font-family="Consolas" font-size="12.00"> </text>
<text text-anchor="start" x="103" y="-350.9" font-family="Consolas" font-size="12.00"> </text>
<polygon fill="#bfbfbf" stroke="#bfbfbf" points="53,-379.5 53,-379.5 161,-379.5 161,-379.5 53,-379.5"/>
<polygon fill="#bfbfbf" stroke="#bfbfbf" points="53,-362.5 53,-362.5 161,-362.5 161,-362.5 53,-362.5"/>
<polygon fill="none" stroke="#bfbfbf" points="53,-344 53,-399 161,-399 161,-344 53,-344"/>
</a>
</g>
</g>
<!-- Node2&#45;&gt;Node1 -->
<g id="edge1_Node000001_Node000002" class="edge">
<title>Node2&#45;&gt;Node1</title>
<g id="a_edge1_Node000001_Node000002"><a xlink:title=" ">
<path fill="none" stroke="#63b8ff" d="M109.2,-333.79C111.19,-300.64 114.2,-250.28 116.91,-205.09"/>
<polygon fill="none" stroke="#63b8ff" points="105.7,-333.73 108.59,-343.92 112.68,-334.15 105.7,-333.73"/>
</a>
</g>
</g>
<!-- Node3 -->
<g id="Node000003" class="node">
<title>Node3</title>
<g id="a_Node000003"><a xlink:href="classTradingItemDataBase.html" target="_top" xlink:title=" ">
<polygon fill="white" stroke="transparent" points="477,-487 179,-487 179,-256 477,-256 477,-487"/>
<text text-anchor="start" x="256.5" y="-472.9" font-family="Consolas" font-size="12.00">TradingItemDataBase</text>
<text text-anchor="start" x="183" y="-455.9" font-family="Consolas" font-size="12.00">+</text>
<text text-anchor="start" x="195" y="-455.9" font-family="Consolas" font-size="12.00">List&lt; TradingItemData</text>
<text text-anchor="start" x="195" y="-442.9" font-family="Consolas" font-size="12.00"> &gt; allItems</text>
<text text-anchor="start" x="183" y="-425.9" font-family="Consolas" font-size="12.00">&#45;</text>
<text text-anchor="start" x="195" y="-425.9" font-family="Consolas" font-size="12.00">Dictionary&lt; int, Trading</text>
<text text-anchor="start" x="195" y="-412.9" font-family="Consolas" font-size="12.00">ItemData &gt; itemDictionary</text>
<text text-anchor="start" x="183" y="-395.9" font-family="Consolas" font-size="12.00">+</text>
<text text-anchor="start" x="195" y="-395.9" font-family="Consolas" font-size="12.00">void InitializeDictionary()</text>
<text text-anchor="start" x="183" y="-378.9" font-family="Consolas" font-size="12.00">+</text>
<text text-anchor="start" x="195" y="-378.9" font-family="Consolas" font-size="12.00">TradingItemData GetItemData</text>
<text text-anchor="start" x="195" y="-365.9" font-family="Consolas" font-size="12.00">(int id)</text>
<text text-anchor="start" x="183" y="-348.9" font-family="Consolas" font-size="12.00">+</text>
<text text-anchor="start" x="195" y="-348.9" font-family="Consolas" font-size="12.00">List&lt; TradingItemData</text>
<text text-anchor="start" x="195" y="-335.9" font-family="Consolas" font-size="12.00"> &gt; GetItemsByPlanet(ItemPlanet</text>
<text text-anchor="start" x="195" y="-322.9" font-family="Consolas" font-size="12.00"> planetName)</text>
<text text-anchor="start" x="183" y="-305.9" font-family="Consolas" font-size="12.00">+</text>
<text text-anchor="start" x="195" y="-305.9" font-family="Consolas" font-size="12.00">List&lt; TradingItemData</text>
<text text-anchor="start" x="195" y="-292.9" font-family="Consolas" font-size="12.00"> &gt; GetItemsByTier(ItemTierLevel tier)</text>
<text text-anchor="start" x="183" y="-275.9" font-family="Consolas" font-size="12.00">+</text>
<text text-anchor="start" x="195" y="-275.9" font-family="Consolas" font-size="12.00">TradingItemData GetRandom</text>
<text text-anchor="start" x="195" y="-262.9" font-family="Consolas" font-size="12.00">Item()</text>
<polygon fill="#bfbfbf" stroke="#bfbfbf" points="179,-467.5 179,-467.5 477,-467.5 477,-467.5 179,-467.5"/>
<polygon fill="#bfbfbf" stroke="#bfbfbf" points="179,-407.5 179,-407.5 193,-407.5 193,-407.5 179,-407.5"/>
<polygon fill="#bfbfbf" stroke="#bfbfbf" points="193,-407.5 193,-407.5 477,-407.5 477,-407.5 193,-407.5"/>
<polygon fill="none" stroke="#bfbfbf" points="179,-256 179,-487 477,-487 477,-256 179,-256"/>
</a>
</g>
</g>
<!-- Node3&#45;&gt;Node1 -->
<g id="edge2_Node000001_Node000003" class="edge">
<title>Node3&#45;&gt;Node1</title>
<g id="a_edge2_Node000001_Node000003"><a xlink:title=" ">
<path fill="none" stroke="#63b8ff" d="M239.87,-255.72C229.48,-242.18 218.89,-228.39 208.53,-214.9"/>
<polygon fill="none" stroke="#63b8ff" points="208.35,-214.66 201.52,-212.34 201.04,-205.14 207.87,-207.47 208.35,-214.66"/>
</a>
</g>
<text text-anchor="middle" x="283" y="-226.8" font-family="Consolas" font-size="14.00" fill="grey"> +itemDataBase</text>
</g>
<!-- Node4 -->
<g id="Node000004" class="node">
<title>Node4</title>
<g id="a_Node000004"><a xlink:title=" ">
<polygon fill="white" stroke="transparent" points="393.5,-579 262.5,-579 262.5,-524 393.5,-524 393.5,-579"/>
<text text-anchor="start" x="268" y="-564.9" font-family="Consolas" font-size="12.00">ScriptableObject</text>
<text text-anchor="start" x="324.5" y="-547.9" font-family="Consolas" font-size="12.00"> </text>
<text text-anchor="start" x="324.5" y="-530.9" font-family="Consolas" font-size="12.00"> </text>
<polygon fill="#bfbfbf" stroke="#bfbfbf" points="263,-559.5 263,-559.5 394,-559.5 394,-559.5 263,-559.5"/>
<polygon fill="#bfbfbf" stroke="#bfbfbf" points="263,-542.5 263,-542.5 394,-542.5 394,-542.5 263,-542.5"/>
<polygon fill="none" stroke="#bfbfbf" points="262.5,-524 262.5,-579 393.5,-579 393.5,-524 262.5,-524"/>
</a>
</g>
</g>
<!-- Node4&#45;&gt;Node3 -->
<g id="edge3_Node000003_Node000004" class="edge">
<title>Node4&#45;&gt;Node3</title>
<g id="a_edge3_Node000003_Node000004"><a xlink:title=" ">
<path fill="none" stroke="#63b8ff" d="M328,-513.77C328,-505.68 328,-496.7 328,-487.3"/>
<polygon fill="none" stroke="#63b8ff" points="324.5,-513.85 328,-523.85 331.5,-513.85 324.5,-513.85"/>
</a>
</g>
</g>
</g>
</svg>
