<?xml version="1.0" encoding="UTF-8" standalone="no"?>
<!DOCTYPE svg PUBLIC "-//W3C//DTD SVG 1.1//EN"
 "http://www.w3.org/Graphics/SVG/1.1/DTD/svg11.dtd">
<!-- Generated by graphviz version 2.43.0 (0)
 -->
<!-- Title: Assets/Scripts/UI Pages: 1 -->
<!--zoomable 115 -->

<svg id="main" version="1.1" xmlns="http://www.w3.org/2000/svg" xmlns:xlink="http://www.w3.org/1999/xlink" xml:space="preserve" onload="init(evt)">
<style type="text/css"><![CDATA[
.node, .edge {opacity: 0.7;}
.node.selected, .edge.selected {opacity: 1;}
.edge:hover path { stroke: red; }
.edge:hover polygon { stroke: red; fill: red; }
]]></style>

<defs>
  <circle id="rim" cx="0" cy="0" r="7"/>
  <circle id="rim2" cx="0" cy="0" r="3.5"/>
  <g id="zoomPlus">
    <use xlink:href="#rim" fill="#404040"><set attributeName="fill" to="#808080" begin="zoomplus.mouseover" end="zoomplus.mouseout"/></use>
    <path d="M-4,0h8M0,-4v8" fill="none" stroke="white" stroke-width="1.5" pointer-events="none"/>
  </g>
  <g id="zoomMin">
    <use xlink:href="#rim" fill="#404040"><set attributeName="fill" to="#808080" begin="zoomminus.mouseover" end="zoomminus.mouseout"/></use>
    <path d="M-4,0h8" fill="none" stroke="white" stroke-width="1.5" pointer-events="none"/>
  </g>
  <g id="arrowUp" transform="translate(30 24)">
    <use xlink:href="#rim"/>
    <path pointer-events="none" fill="none" stroke="white" stroke-width="1.5" d="M0,-3.0v7 M-2.5,-0.5L0,-3.0L2.5,-0.5"/>
  </g>
  <g id="arrowRight" transform="rotate(90) translate(36 -43)">
    <use xlink:href="#rim"/>
    <path pointer-events="none" fill="none" stroke="white" stroke-width="1.5" d="M0,-3.0v7 M-2.5,-0.5L0,-3.0L2.5,-0.5"/>
  </g>
  <g id="arrowDown" transform="rotate(180) translate(-30 -48)">
    <use xlink:href="#rim"/>
    <path pointer-events="none" fill="none" stroke="white" stroke-width="1.5" d="M0,-3.0v7 M-2.5,-0.5L0,-3.0L2.5,-0.5"/>
  </g>
  <g id="arrowLeft" transform="rotate(270) translate(-36 17)">
    <use xlink:href="#rim"/>
    <path pointer-events="none" fill="none" stroke="white" stroke-width="1.5" d="M0,-3.0v7 M-2.5,-0.5L0,-3.0L2.5,-0.5"/>
  </g>
  <g id="resetDef">
    <use xlink:href="#rim2" fill="#404040"><set attributeName="fill" to="#808080" begin="reset.mouseover" end="reset.mouseout"/></use>
  </g>
</defs>
<script type="application/ecmascript">
var viewWidth = 692;
var viewHeight = 115;
var sectionId = 'dynsection-0';
</script>
<script type="application/ecmascript" xlink:href="svg.min.js"/>
<svg id="graph" class="graph">
<g id="viewport">
<title>Assets/Scripts/UI</title>
<g id="clust1" class="cluster">
<title>clusterdir_f13b41af88cf68434578284aaf699e39</title>
<g id="a_clust1"><a xlink:href="dir_f13b41af88cf68434578284aaf699e39.html" target="_top" xlink:title="Scripts">
<polygon fill="#edf0f7" stroke="#7f7f7f" stroke-dasharray="5,2" points="8,-8 8,-99 676,-99 676,-8 8,-8"/>
<text text-anchor="middle" x="342" y="-83.8" font-family="Times,serif" font-size="14.00">Scripts</text>
</a>
</g>
</g>
<g id="clust2" class="cluster">
<title>clusterdir_4ae35e2d0d203079e26c83ccaec95743</title>
<g id="a_clust2"><a xlink:href="dir_4ae35e2d0d203079e26c83ccaec95743.html" target="_top">
<polygon fill="#edf0f7" stroke="#404040" stroke-width="2" points="16,-16 16,-68 668,-68 668,-16 16,-16"/>
</a>
</g>
</g>
<!-- dir_4ae35e2d0d203079e26c83ccaec95743 -->
<g id="node1" class="node">
<title>dir_4ae35e2d0d203079e26c83ccaec95743</title>
<text text-anchor="middle" x="633" y="-38.9" font-family="Consolas" font-size="12.00">UI</text>
</g>
<!-- dir_2038f477207866d36b8014fb6bbb829c -->
<g id="node2" class="node">
<title>dir_2038f477207866d36b8014fb6bbb829c</title>
<g id="a_node2"><a xlink:href="dir_2038f477207866d36b8014fb6bbb829c.html" target="_top" xlink:title="Combat">
<polygon fill="#a2b4d6" stroke="#404040" points="588,-60 526,-60 526,-24 588,-24 588,-60"/>
<text text-anchor="middle" x="557" y="-38.9" font-family="Consolas" font-size="12.00">Combat</text>
</a>
</g>
</g>
<!-- dir_933d4968b8b0d231f3dfb3bbd6ee5057 -->
<g id="node3" class="node">
<title>dir_933d4968b8b0d231f3dfb3bbd6ee5057</title>
<g id="a_node3"><a xlink:href="dir_933d4968b8b0d231f3dfb3bbd6ee5057.html" target="_top" xlink:title="Employ">
<polygon fill="#a2b4d6" stroke="#404040" points="508,-60 446,-60 446,-24 508,-24 508,-60"/>
<text text-anchor="middle" x="477" y="-38.9" font-family="Consolas" font-size="12.00">Employ</text>
</a>
</g>
</g>
<!-- dir_2a146ad727a4cbac893968500d18ae53 -->
<g id="node4" class="node">
<title>dir_2a146ad727a4cbac893968500d18ae53</title>
<g id="a_node4"><a xlink:href="dir_2a146ad727a4cbac893968500d18ae53.html" target="_top" xlink:title="MapPanel">
<polygon fill="#a2b4d6" stroke="#404040" points="427.5,-60 350.5,-60 350.5,-24 427.5,-24 427.5,-60"/>
<text text-anchor="middle" x="389" y="-38.9" font-family="Consolas" font-size="12.00">MapPanel</text>
</a>
</g>
</g>
<!-- dir_7a9da42d5e37a471352046448fdeca56 -->
<g id="node5" class="node">
<title>dir_7a9da42d5e37a471352046448fdeca56</title>
<g id="a_node5"><a xlink:href="dir_7a9da42d5e37a471352046448fdeca56.html" target="_top" xlink:title="Planet">
<polygon fill="#a2b4d6" stroke="#404040" points="332,-60 270,-60 270,-24 332,-24 332,-60"/>
<text text-anchor="middle" x="301" y="-38.9" font-family="Consolas" font-size="12.00">Planet</text>
</a>
</g>
</g>
<!-- dir_fb9fa1d6d280dd3026a58ef6a8f7d5b5 -->
<g id="node6" class="node">
<title>dir_fb9fa1d6d280dd3026a58ef6a8f7d5b5</title>
<g id="a_node6"><a xlink:href="dir_fb9fa1d6d280dd3026a58ef6a8f7d5b5.html" target="_top" xlink:title="Power">
<polygon fill="#a2b4d6" stroke="#404040" points="252,-60 198,-60 198,-24 252,-24 252,-60"/>
<text text-anchor="middle" x="225" y="-38.9" font-family="Consolas" font-size="12.00">Power</text>
</a>
</g>
</g>
<!-- dir_276ba4f64d318d2cff33c7971dda7df5 -->
<g id="node7" class="node">
<title>dir_276ba4f64d318d2cff33c7971dda7df5</title>
<g id="a_node7"><a xlink:href="dir_276ba4f64d318d2cff33c7971dda7df5.html" target="_top" xlink:title="SidePanel">
<polygon fill="#a2b4d6" stroke="#404040" points="180,-60 96,-60 96,-24 180,-24 180,-60"/>
<text text-anchor="middle" x="138" y="-38.9" font-family="Consolas" font-size="12.00">SidePanel</text>
</a>
</g>
</g>
<!-- dir_bddf67a8c87229c034eb111e9913714b -->
<g id="node8" class="node">
<title>dir_bddf67a8c87229c034eb111e9913714b</title>
<g id="a_node8"><a xlink:href="dir_bddf67a8c87229c034eb111e9913714b.html" target="_top" xlink:title="Trade">
<polygon fill="#a2b4d6" stroke="#404040" points="78,-60 24,-60 24,-24 78,-24 78,-60"/>
<text text-anchor="middle" x="51" y="-38.9" font-family="Consolas" font-size="12.00">Trade</text>
</a>
</g>
</g>
</g>
</svg>

<g id="navigator" transform="translate(0 0)" fill="#404254">
  <rect fill="#f2f5e9" fill-opacity="0.5" stroke="#606060" stroke-width=".5" x="0" y="0" width="60" height="60"/>
  <use id="zoomplus" xlink:href="#zoomPlus" x="17" y="9" onmousedown="handleZoom(evt,'in')"/>
  <use id="zoomminus" xlink:href="#zoomMin" x="42" y="9" onmousedown="handleZoom(evt,'out')"/>
  <use id="reset" xlink:href="#resetDef" x="30" y="36" onmousedown="handleReset()"/>
   <use id="arrowup" xlink:href="#arrowUp" x="0" y="0" onmousedown="handlePan(0,-1)"/>
  <use id="arrowright" xlink:href="#arrowRight" x="0" y="0" onmousedown="handlePan(1,0)"/>
  <use id="arrowdown" xlink:href="#arrowDown" x="0" y="0" onmousedown="handlePan(0,1)"/>
  <use id="arrowleft" xlink:href="#arrowLeft" x="0" y="0" onmousedown="handlePan(-1,0)"/>
</g>
<svg viewBox="0 0 15 15" width="100%" height="30px" preserveAspectRatio="xMaxYMin meet">
 <g id="arrow_out" transform="scale(0.3 0.3)">
  <a xlink:href="dir_4ae35e2d0d203079e26c83ccaec95743_dep_org.svg" target="_base">
   <rect id="button" ry="5" rx="5" y="6" x="6" height="38" width="38"
        fill="#f2f5e9" fill-opacity="0.5" stroke="#606060" stroke-width="1.0"/>
   <path id="arrow"
     d="M 11.500037,31.436501 C 11.940474,20.09759 22.043105,11.32322 32.158766,21.979434 L 37.068811,17.246167 C 37.068811,17.246167 37.088388,32 37.088388,32 L 22.160133,31.978069 C 22.160133,31.978069 26.997745,27.140456 26.997745,27.140456 C 18.528582,18.264221 13.291696,25.230495 11.500037,31.436501 z"
     style="fill:#404040;"/>
  </a>
 </g>
</svg>

<style type='text/css'>
<![CDATA[
[data-mouse-over-selected='false'] { opacity: 0.7; }
[data-mouse-over-selected='true']  { opacity: 1.0; }
]]>
</style>
<script type="application/ecmascript"><![CDATA[
document.addEventListener('DOMContentLoaded', (event) => {
  highlightEdges();
  highlightAdjacentNodes();
});
]]></script>
</svg>
