<?xml version="1.0" encoding="UTF-8" standalone="no"?>
<!DOCTYPE svg PUBLIC "-//W3C//DTD SVG 1.1//EN"
 "http://www.w3.org/Graphics/SVG/1.1/DTD/svg11.dtd">
<!-- Generated by graphviz version 2.43.0 (0)
 -->
<!-- Title: Assets/Scripts/Ship Pages: 1 -->
<!--zoomable 115 -->

<svg id="main" version="1.1" xmlns="http://www.w3.org/2000/svg" xmlns:xlink="http://www.w3.org/1999/xlink" xml:space="preserve" onload="init(evt)">
<style type="text/css"><![CDATA[
.node, .edge {opacity: 0.7;}
.node.selected, .edge.selected {opacity: 1;}
.edge:hover path { stroke: red; }
.edge:hover polygon { stroke: red; fill: red; }
]]></style>

<defs>
  <circle id="rim" cx="0" cy="0" r="7"/>
  <circle id="rim2" cx="0" cy="0" r="3.5"/>
  <g id="zoomPlus">
    <use xlink:href="#rim" fill="#404040"><set attributeName="fill" to="#808080" begin="zoomplus.mouseover" end="zoomplus.mouseout"/></use>
    <path d="M-4,0h8M0,-4v8" fill="none" stroke="white" stroke-width="1.5" pointer-events="none"/>
  </g>
  <g id="zoomMin">
    <use xlink:href="#rim" fill="#404040"><set attributeName="fill" to="#808080" begin="zoomminus.mouseover" end="zoomminus.mouseout"/></use>
    <path d="M-4,0h8" fill="none" stroke="white" stroke-width="1.5" pointer-events="none"/>
  </g>
  <g id="arrowUp" transform="translate(30 24)">
    <use xlink:href="#rim"/>
    <path pointer-events="none" fill="none" stroke="white" stroke-width="1.5" d="M0,-3.0v7 M-2.5,-0.5L0,-3.0L2.5,-0.5"/>
  </g>
  <g id="arrowRight" transform="rotate(90) translate(36 -43)">
    <use xlink:href="#rim"/>
    <path pointer-events="none" fill="none" stroke="white" stroke-width="1.5" d="M0,-3.0v7 M-2.5,-0.5L0,-3.0L2.5,-0.5"/>
  </g>
  <g id="arrowDown" transform="rotate(180) translate(-30 -48)">
    <use xlink:href="#rim"/>
    <path pointer-events="none" fill="none" stroke="white" stroke-width="1.5" d="M0,-3.0v7 M-2.5,-0.5L0,-3.0L2.5,-0.5"/>
  </g>
  <g id="arrowLeft" transform="rotate(270) translate(-36 17)">
    <use xlink:href="#rim"/>
    <path pointer-events="none" fill="none" stroke="white" stroke-width="1.5" d="M0,-3.0v7 M-2.5,-0.5L0,-3.0L2.5,-0.5"/>
  </g>
  <g id="resetDef">
    <use xlink:href="#rim2" fill="#404040"><set attributeName="fill" to="#808080" begin="reset.mouseover" end="reset.mouseout"/></use>
  </g>
</defs>
<script type="application/ecmascript">
var viewWidth = 761;
var viewHeight = 115;
var sectionId = 'dynsection-0';
</script>
<script type="application/ecmascript" xlink:href="svg.min.js"/>
<svg id="graph" class="graph">
<g id="viewport">
<title>Assets/Scripts/Ship</title>
<g id="clust1" class="cluster">
<title>clusterdir_f13b41af88cf68434578284aaf699e39</title>
<g id="a_clust1"><a xlink:href="dir_f13b41af88cf68434578284aaf699e39.html" target="_top" xlink:title="Scripts">
<polygon fill="#edf0f7" stroke="#7f7f7f" stroke-dasharray="5,2" points="8,-8 8,-99 745,-99 745,-8 8,-8"/>
<text text-anchor="middle" x="376.5" y="-83.8" font-family="Times,serif" font-size="14.00">Scripts</text>
</a>
</g>
</g>
<g id="clust2" class="cluster">
<title>clusterdir_d8937bdc0a6431a49912daee23bb6ec4</title>
<g id="a_clust2"><a xlink:href="dir_d8937bdc0a6431a49912daee23bb6ec4.html" target="_top">
<polygon fill="#edf0f7" stroke="#404040" stroke-width="2" points="16,-16 16,-68 737,-68 737,-16 16,-16"/>
</a>
</g>
</g>
<!-- dir_d8937bdc0a6431a49912daee23bb6ec4 -->
<g id="node1" class="node">
<title>dir_d8937bdc0a6431a49912daee23bb6ec4</title>
<text text-anchor="middle" x="702" y="-38.9" font-family="Consolas" font-size="12.00">Ship</text>
</g>
<!-- dir_3aa54af654171326d2a0e0685446e757 -->
<g id="node2" class="node">
<title>dir_3aa54af654171326d2a0e0685446e757</title>
<g id="a_node2"><a xlink:href="dir_3aa54af654171326d2a0e0685446e757.html" target="_top" xlink:title="Doors">
<polygon fill="#a2b4d6" stroke="#404040" points="657,-60 603,-60 603,-24 657,-24 657,-60"/>
<text text-anchor="middle" x="630" y="-38.9" font-family="Consolas" font-size="12.00">Doors</text>
</a>
</g>
</g>
<!-- dir_a529025ea757274504fc567e115d1528 -->
<g id="node3" class="node">
<title>dir_a529025ea757274504fc567e115d1528</title>
<g id="a_node3"><a xlink:href="dir_a529025ea757274504fc567e115d1528.html" target="_top" xlink:title="Rooms">
<polygon fill="#a2b4d6" stroke="#404040" points="585,-60 531,-60 531,-24 585,-24 585,-60"/>
<text text-anchor="middle" x="558" y="-38.9" font-family="Consolas" font-size="12.00">Rooms</text>
</a>
</g>
</g>
<!-- dir_fc91d0c2d866ac5f70ef9abba813a4e7 -->
<g id="node4" class="node">
<title>dir_fc91d0c2d866ac5f70ef9abba813a4e7</title>
<g id="a_node4"><a xlink:href="dir_fc91d0c2d866ac5f70ef9abba813a4e7.html" target="_top" xlink:title="Serializing">
<polygon fill="#a2b4d6" stroke="#404040" points="512.5,-60 413.5,-60 413.5,-24 512.5,-24 512.5,-60"/>
<text text-anchor="middle" x="463" y="-38.9" font-family="Consolas" font-size="12.00">Serializing</text>
</a>
</g>
</g>
<!-- dir_1493e73c18d23df035a16c8b97829aa4 -->
<g id="node5" class="node">
<title>dir_1493e73c18d23df035a16c8b97829aa4</title>
<g id="a_node5"><a xlink:href="dir_1493e73c18d23df035a16c8b97829aa4.html" target="_top" xlink:title="ShipSystems">
<polygon fill="#a2b4d6" stroke="#404040" points="395.5,-60 296.5,-60 296.5,-24 395.5,-24 395.5,-60"/>
<text text-anchor="middle" x="346" y="-38.9" font-family="Consolas" font-size="12.00">ShipSystems</text>
</a>
</g>
</g>
<!-- dir_1ed14421e488629d8d93e1937cf4f224 -->
<g id="node6" class="node">
<title>dir_1ed14421e488629d8d93e1937cf4f224</title>
<g id="a_node6"><a xlink:href="dir_1ed14421e488629d8d93e1937cf4f224.html" target="_top" xlink:title="ShipValidationHelper">
<polygon fill="#a2b4d6" stroke="#404040" points="278.5,-60 111.5,-60 111.5,-24 278.5,-24 278.5,-60"/>
<text text-anchor="middle" x="195" y="-38.9" font-family="Consolas" font-size="12.00">ShipValidationHelper</text>
</a>
</g>
</g>
<!-- dir_bb5bb809dbaa93c83d1fd20891dbc23f -->
<g id="node7" class="node">
<title>dir_bb5bb809dbaa93c83d1fd20891dbc23f</title>
<g id="a_node7"><a xlink:href="dir_bb5bb809dbaa93c83d1fd20891dbc23f.html" target="_top" xlink:title="Weapons">
<polygon fill="#a2b4d6" stroke="#404040" points="93.5,-60 24.5,-60 24.5,-24 93.5,-24 93.5,-60"/>
<text text-anchor="middle" x="59" y="-38.9" font-family="Consolas" font-size="12.00">Weapons</text>
</a>
</g>
</g>
</g>
</svg>

<g id="navigator" transform="translate(0 0)" fill="#404254">
  <rect fill="#f2f5e9" fill-opacity="0.5" stroke="#606060" stroke-width=".5" x="0" y="0" width="60" height="60"/>
  <use id="zoomplus" xlink:href="#zoomPlus" x="17" y="9" onmousedown="handleZoom(evt,'in')"/>
  <use id="zoomminus" xlink:href="#zoomMin" x="42" y="9" onmousedown="handleZoom(evt,'out')"/>
  <use id="reset" xlink:href="#resetDef" x="30" y="36" onmousedown="handleReset()"/>
   <use id="arrowup" xlink:href="#arrowUp" x="0" y="0" onmousedown="handlePan(0,-1)"/>
  <use id="arrowright" xlink:href="#arrowRight" x="0" y="0" onmousedown="handlePan(1,0)"/>
  <use id="arrowdown" xlink:href="#arrowDown" x="0" y="0" onmousedown="handlePan(0,1)"/>
  <use id="arrowleft" xlink:href="#arrowLeft" x="0" y="0" onmousedown="handlePan(-1,0)"/>
</g>
<svg viewBox="0 0 15 15" width="100%" height="30px" preserveAspectRatio="xMaxYMin meet">
 <g id="arrow_out" transform="scale(0.3 0.3)">
  <a xlink:href="dir_d8937bdc0a6431a49912daee23bb6ec4_dep_org.svg" target="_base">
   <rect id="button" ry="5" rx="5" y="6" x="6" height="38" width="38"
        fill="#f2f5e9" fill-opacity="0.5" stroke="#606060" stroke-width="1.0"/>
   <path id="arrow"
     d="M 11.500037,31.436501 C 11.940474,20.09759 22.043105,11.32322 32.158766,21.979434 L 37.068811,17.246167 C 37.068811,17.246167 37.088388,32 37.088388,32 L 22.160133,31.978069 C 22.160133,31.978069 26.997745,27.140456 26.997745,27.140456 C 18.528582,18.264221 13.291696,25.230495 11.500037,31.436501 z"
     style="fill:#404040;"/>
  </a>
 </g>
</svg>

<style type='text/css'>
<![CDATA[
[data-mouse-over-selected='false'] { opacity: 0.7; }
[data-mouse-over-selected='true']  { opacity: 1.0; }
]]>
</style>
<script type="application/ecmascript"><![CDATA[
document.addEventListener('DOMContentLoaded', (event) => {
  highlightEdges();
  highlightAdjacentNodes();
});
]]></script>
</svg>
