<?xml version="1.0" encoding="UTF-8" standalone="no"?>
<!DOCTYPE svg PUBLIC "-//W3C//DTD SVG 1.1//EN"
 "http://www.w3.org/Graphics/SVG/1.1/DTD/svg11.dtd">
<!-- Generated by graphviz version 2.43.0 (0)
 -->
<!-- Title: Assets/Scripts/UI/SidePanel Pages: 1 -->
<!--zoomable 115 -->

<svg id="main" version="1.1" xmlns="http://www.w3.org/2000/svg" xmlns:xlink="http://www.w3.org/1999/xlink" xml:space="preserve" onload="init(evt)">
<style type="text/css"><![CDATA[
.node, .edge {opacity: 0.7;}
.node.selected, .edge.selected {opacity: 1;}
.edge:hover path { stroke: red; }
.edge:hover polygon { stroke: red; fill: red; }
]]></style>

<defs>
  <circle id="rim" cx="0" cy="0" r="7"/>
  <circle id="rim2" cx="0" cy="0" r="3.5"/>
  <g id="zoomPlus">
    <use xlink:href="#rim" fill="#404040"><set attributeName="fill" to="#808080" begin="zoomplus.mouseover" end="zoomplus.mouseout"/></use>
    <path d="M-4,0h8M0,-4v8" fill="none" stroke="white" stroke-width="1.5" pointer-events="none"/>
  </g>
  <g id="zoomMin">
    <use xlink:href="#rim" fill="#404040"><set attributeName="fill" to="#808080" begin="zoomminus.mouseover" end="zoomminus.mouseout"/></use>
    <path d="M-4,0h8" fill="none" stroke="white" stroke-width="1.5" pointer-events="none"/>
  </g>
  <g id="arrowUp" transform="translate(30 24)">
    <use xlink:href="#rim"/>
    <path pointer-events="none" fill="none" stroke="white" stroke-width="1.5" d="M0,-3.0v7 M-2.5,-0.5L0,-3.0L2.5,-0.5"/>
  </g>
  <g id="arrowRight" transform="rotate(90) translate(36 -43)">
    <use xlink:href="#rim"/>
    <path pointer-events="none" fill="none" stroke="white" stroke-width="1.5" d="M0,-3.0v7 M-2.5,-0.5L0,-3.0L2.5,-0.5"/>
  </g>
  <g id="arrowDown" transform="rotate(180) translate(-30 -48)">
    <use xlink:href="#rim"/>
    <path pointer-events="none" fill="none" stroke="white" stroke-width="1.5" d="M0,-3.0v7 M-2.5,-0.5L0,-3.0L2.5,-0.5"/>
  </g>
  <g id="arrowLeft" transform="rotate(270) translate(-36 17)">
    <use xlink:href="#rim"/>
    <path pointer-events="none" fill="none" stroke="white" stroke-width="1.5" d="M0,-3.0v7 M-2.5,-0.5L0,-3.0L2.5,-0.5"/>
  </g>
  <g id="resetDef">
    <use xlink:href="#rim2" fill="#404040"><set attributeName="fill" to="#808080" begin="reset.mouseover" end="reset.mouseout"/></use>
  </g>
</defs>
<script type="application/ecmascript">
var viewWidth = 610;
var viewHeight = 115;
var sectionId = 'dynsection-0';
</script>
<script type="application/ecmascript" xlink:href="svg.min.js"/>
<svg id="graph" class="graph">
<g id="viewport">
<title>Assets/Scripts/UI/SidePanel</title>
<g id="clust1" class="cluster">
<title>clusterdir_4ae35e2d0d203079e26c83ccaec95743</title>
<g id="a_clust1"><a xlink:href="dir_4ae35e2d0d203079e26c83ccaec95743.html" target="_top" xlink:title="UI">
<polygon fill="#edf0f7" stroke="#7f7f7f" stroke-dasharray="5,2" points="8,-8 8,-99 594,-99 594,-8 8,-8"/>
<text text-anchor="middle" x="301" y="-83.8" font-family="Times,serif" font-size="14.00">UI</text>
</a>
</g>
</g>
<g id="clust2" class="cluster">
<title>clusterdir_276ba4f64d318d2cff33c7971dda7df5</title>
<g id="a_clust2"><a xlink:href="dir_276ba4f64d318d2cff33c7971dda7df5.html" target="_top">
<polygon fill="#edf0f7" stroke="#404040" stroke-width="2" points="16,-16 16,-68 586,-68 586,-16 16,-16"/>
</a>
</g>
</g>
<!-- dir_276ba4f64d318d2cff33c7971dda7df5 -->
<g id="node1" class="node">
<title>dir_276ba4f64d318d2cff33c7971dda7df5</title>
<text text-anchor="middle" x="536" y="-38.9" font-family="Consolas" font-size="12.00">SidePanel</text>
</g>
<!-- dir_23ab93609b146876996c8b6da90495a3 -->
<g id="node2" class="node">
<title>dir_23ab93609b146876996c8b6da90495a3</title>
<g id="a_node2"><a xlink:href="dir_23ab93609b146876996c8b6da90495a3.html" target="_top" xlink:title="Crew Panel">
<polygon fill="#a2b4d6" stroke="#404040" points="476,-60 384,-60 384,-24 476,-24 476,-60"/>
<text text-anchor="middle" x="430" y="-38.9" font-family="Consolas" font-size="12.00">Crew Panel</text>
</a>
</g>
</g>
<!-- dir_6a14edecbb0074877d4c288d408db045 -->
<g id="node3" class="node">
<title>dir_6a14edecbb0074877d4c288d408db045</title>
<g id="a_node3"><a xlink:href="dir_6a14edecbb0074877d4c288d408db045.html" target="_top" xlink:title="Quest Panel">
<polygon fill="#a2b4d6" stroke="#404040" points="365.5,-60 266.5,-60 266.5,-24 365.5,-24 365.5,-60"/>
<text text-anchor="middle" x="316" y="-38.9" font-family="Consolas" font-size="12.00">Quest Panel</text>
</a>
</g>
</g>
<!-- dir_e8893ce178228c80188e4e6081582e6e -->
<g id="node4" class="node">
<title>dir_e8893ce178228c80188e4e6081582e6e</title>
<g id="a_node4"><a xlink:href="dir_e8893ce178228c80188e4e6081582e6e.html" target="_top" xlink:title="Ship Panel">
<polygon fill="#a2b4d6" stroke="#404040" points="248,-60 156,-60 156,-24 248,-24 248,-60"/>
<text text-anchor="middle" x="202" y="-38.9" font-family="Consolas" font-size="12.00">Ship Panel</text>
</a>
</g>
</g>
<!-- dir_1ebd4ce390e05f5ad1635c9f8b021cb8 -->
<g id="node5" class="node">
<title>dir_1ebd4ce390e05f5ad1635c9f8b021cb8</title>
<g id="a_node5"><a xlink:href="dir_1ebd4ce390e05f5ad1635c9f8b021cb8.html" target="_top" xlink:title="Storage Panel">
<polygon fill="#a2b4d6" stroke="#404040" points="138,-60 24,-60 24,-24 138,-24 138,-60"/>
<text text-anchor="middle" x="81" y="-38.9" font-family="Consolas" font-size="12.00">Storage Panel</text>
</a>
</g>
</g>
</g>
</svg>

<g id="navigator" transform="translate(0 0)" fill="#404254">
  <rect fill="#f2f5e9" fill-opacity="0.5" stroke="#606060" stroke-width=".5" x="0" y="0" width="60" height="60"/>
  <use id="zoomplus" xlink:href="#zoomPlus" x="17" y="9" onmousedown="handleZoom(evt,'in')"/>
  <use id="zoomminus" xlink:href="#zoomMin" x="42" y="9" onmousedown="handleZoom(evt,'out')"/>
  <use id="reset" xlink:href="#resetDef" x="30" y="36" onmousedown="handleReset()"/>
   <use id="arrowup" xlink:href="#arrowUp" x="0" y="0" onmousedown="handlePan(0,-1)"/>
  <use id="arrowright" xlink:href="#arrowRight" x="0" y="0" onmousedown="handlePan(1,0)"/>
  <use id="arrowdown" xlink:href="#arrowDown" x="0" y="0" onmousedown="handlePan(0,1)"/>
  <use id="arrowleft" xlink:href="#arrowLeft" x="0" y="0" onmousedown="handlePan(-1,0)"/>
</g>
<svg viewBox="0 0 15 15" width="100%" height="30px" preserveAspectRatio="xMaxYMin meet">
 <g id="arrow_out" transform="scale(0.3 0.3)">
  <a xlink:href="dir_276ba4f64d318d2cff33c7971dda7df5_dep_org.svg" target="_base">
   <rect id="button" ry="5" rx="5" y="6" x="6" height="38" width="38"
        fill="#f2f5e9" fill-opacity="0.5" stroke="#606060" stroke-width="1.0"/>
   <path id="arrow"
     d="M 11.500037,31.436501 C 11.940474,20.09759 22.043105,11.32322 32.158766,21.979434 L 37.068811,17.246167 C 37.068811,17.246167 37.088388,32 37.088388,32 L 22.160133,31.978069 C 22.160133,31.978069 26.997745,27.140456 26.997745,27.140456 C 18.528582,18.264221 13.291696,25.230495 11.500037,31.436501 z"
     style="fill:#404040;"/>
  </a>
 </g>
</svg>

<style type='text/css'>
<![CDATA[
[data-mouse-over-selected='false'] { opacity: 0.7; }
[data-mouse-over-selected='true']  { opacity: 1.0; }
]]>
</style>
<script type="application/ecmascript"><![CDATA[
document.addEventListener('DOMContentLoaded', (event) => {
  highlightEdges();
  highlightAdjacentNodes();
});
]]></script>
</svg>
