<?xml version="1.0" encoding="UTF-8" standalone="no"?>
<!DOCTYPE svg PUBLIC "-//W3C//DTD SVG 1.1//EN"
 "http://www.w3.org/Graphics/SVG/1.1/DTD/svg11.dtd">
<!-- Generated by graphviz version 2.43.0 (0)
 -->
<!-- Title: Graph Legend Pages: 1 -->
<svg width="672pt" height="203pt"
 viewBox="0.00 0.00 672.00 203.00" xmlns="http://www.w3.org/2000/svg" xmlns:xlink="http://www.w3.org/1999/xlink">
<g id="graph0" class="graph" transform="scale(1 1) rotate(0) translate(4 199)">
<title>Graph Legend</title>
<!-- Node9 -->
<g id="Node000009" class="node">
<title>Node9</title>
<g id="a_Node000009"><a xlink:title=" ">
<polygon fill="#999999" stroke="#666666" points="394,-21 310,-21 310,0 394,0 394,-21"/>
<text text-anchor="middle" x="352" y="-7.4" font-family="Consolas" font-size="12.00">Inherited</text>
</a>
</g>
</g>
<!-- Node10 -->
<g id="Node000010" class="node">
<title>Node10</title>
<g id="a_Node000010"><a xlink:title=" ">
<polygon fill="white" stroke="#666666" points="92,-100.5 0,-100.5 0,-79.5 92,-79.5 92,-100.5"/>
<text text-anchor="middle" x="46" y="-86.9" font-family="Consolas" font-size="12.00">PublicBase</text>
</a>
</g>
</g>
<!-- Node10&#45;&gt;Node9 -->
<g id="edge1" class="edge">
<title>Node10&#45;&gt;Node9</title>
<g id="a_edge1"><a xlink:title=" ">
<path fill="none" stroke="#63b8ff" d="M85.45,-76.48C90.66,-74.92 95.95,-73.39 101,-72 173.83,-51.99 259.53,-32.11 309.6,-20.86"/>
<polygon fill="#63b8ff" stroke="#63b8ff" points="84.13,-73.22 75.58,-79.48 86.17,-79.92 84.13,-73.22"/>
</a>
</g>
</g>
<!-- Node11 -->
<g id="Node000011" class="node">
<title>Node11</title>
<g id="a_Node000011"><a xlink:title=" ">
<polygon fill="#fff0f0" stroke="red" points="88,-187.5 4,-187.5 4,-166.5 88,-166.5 88,-187.5"/>
<text text-anchor="middle" x="46" y="-173.9" font-family="Consolas" font-size="12.00">Truncated</text>
</a>
</g>
</g>
<!-- Node11&#45;&gt;Node10 -->
<g id="edge2" class="edge">
<title>Node11&#45;&gt;Node10</title>
<g id="a_edge2"><a xlink:title=" ">
<path fill="none" stroke="#63b8ff" d="M46,-156C46,-138.57 46,-114.02 46,-100.64"/>
<polygon fill="#63b8ff" stroke="#63b8ff" points="42.5,-156.25 46,-166.25 49.5,-156.25 42.5,-156.25"/>
</a>
</g>
</g>
<!-- Node13 -->
<g id="node4" class="node">
<title>Node13</title>
<g id="a_node4"><a xlink:title=" ">
<polygon fill="white" stroke="#666666" points="224,-108 110,-108 110,-72 224,-72 224,-108"/>
<text text-anchor="middle" x="167" y="-86.9" font-family="Consolas" font-size="12.00">ProtectedBase</text>
</a>
</g>
</g>
<!-- Node13&#45;&gt;Node9 -->
<g id="edge3" class="edge">
<title>Node13&#45;&gt;Node9</title>
<g id="a_edge3"><a xlink:title=" ">
<path fill="none" stroke="darkgreen" d="M217.1,-68.01C253.63,-52.71 301.43,-32.69 329.22,-21.04"/>
<polygon fill="darkgreen" stroke="darkgreen" points="215.47,-64.9 207.6,-71.99 218.17,-71.36 215.47,-64.9"/>
</a>
</g>
</g>
<!-- Node14 -->
<g id="node5" class="node">
<title>Node14</title>
<g id="a_node5"><a xlink:title=" ">
<polygon fill="white" stroke="#666666" points="341.5,-108 242.5,-108 242.5,-72 341.5,-72 341.5,-108"/>
<text text-anchor="middle" x="292" y="-86.9" font-family="Consolas" font-size="12.00">PrivateBase</text>
</a>
</g>
</g>
<!-- Node14&#45;&gt;Node9 -->
<g id="edge4" class="edge">
<title>Node14&#45;&gt;Node9</title>
<g id="a_edge4"><a xlink:title=" ">
<path fill="none" stroke="#8b1a1a" d="M311.6,-63.69C322.79,-49.23 336.19,-31.92 344.4,-21.32"/>
<polygon fill="#8b1a1a" stroke="#8b1a1a" points="308.67,-61.75 305.32,-71.8 314.21,-66.04 308.67,-61.75"/>
</a>
</g>
</g>
<!-- Node15 -->
<g id="Node000015" class="node">
<title>Node15</title>
<g id="a_Node000015"><a xlink:title=" ">
<polygon fill="#e0e0e0" stroke="#999999" points="466.5,-100.5 359.5,-100.5 359.5,-79.5 466.5,-79.5 466.5,-100.5"/>
<text text-anchor="middle" x="413" y="-86.9" font-family="Consolas" font-size="12.00">Undocumented</text>
</a>
</g>
</g>
<!-- Node15&#45;&gt;Node9 -->
<g id="edge5" class="edge">
<title>Node15&#45;&gt;Node9</title>
<g id="a_edge5"><a xlink:title=" ">
<path fill="none" stroke="#63b8ff" d="M399.32,-71.62C387.04,-56.01 369.45,-33.67 359.54,-21.08"/>
<polygon fill="#63b8ff" stroke="#63b8ff" points="396.58,-73.8 405.52,-79.5 402.09,-69.47 396.58,-73.8"/>
</a>
</g>
</g>
<!-- Node16 -->
<g id="node7" class="node">
<title>Node16</title>
<g id="a_node7"><a xlink:title=" ">
<polygon fill="white" stroke="#666666" points="591.5,-108 484.5,-108 484.5,-72 591.5,-72 591.5,-108"/>
<text text-anchor="middle" x="538" y="-86.9" font-family="Consolas" font-size="12.00">Templ&lt; int &gt;</text>
</a>
</g>
</g>
<!-- Node16&#45;&gt;Node9 -->
<g id="edge6" class="edge">
<title>Node16&#45;&gt;Node9</title>
<g id="a_edge6"><a xlink:title=" ">
<path fill="none" stroke="#63b8ff" d="M487.63,-68.01C450.9,-52.71 402.85,-32.69 374.9,-21.04"/>
<polygon fill="#63b8ff" stroke="#63b8ff" points="486.6,-71.38 497.18,-71.99 489.3,-64.92 486.6,-71.38"/>
</a>
</g>
</g>
<!-- Node17 -->
<g id="node8" class="node">
<title>Node17</title>
<g id="a_node8"><a xlink:title=" ">
<polygon fill="white" stroke="#666666" points="584,-195 492,-195 492,-159 584,-159 584,-195"/>
<text text-anchor="middle" x="538" y="-173.9" font-family="Consolas" font-size="12.00">Templ&lt; T &gt;</text>
</a>
</g>
</g>
<!-- Node17&#45;&gt;Node16 -->
<g id="edge7" class="edge">
<title>Node17&#45;&gt;Node16</title>
<g id="a_edge7"><a xlink:title=" ">
<path fill="none" stroke="orange" stroke-dasharray="5,2" d="M538,-148.73C538,-135.42 538,-119.81 538,-108.18"/>
<polygon fill="orange" stroke="orange" points="534.5,-148.8 538,-158.8 541.5,-148.8 534.5,-148.8"/>
</a>
</g>
<text text-anchor="middle" x="567" y="-129.8" font-family="Consolas" font-size="14.00" fill="grey">&lt; int &gt;</text>
</g>
<!-- Node18 -->
<g id="node9" class="node">
<title>Node18</title>
<g id="a_node9"><a xlink:title=" ">
<polygon fill="white" stroke="#666666" points="664,-108 610,-108 610,-72 664,-72 664,-108"/>
<text text-anchor="middle" x="637" y="-86.9" font-family="Consolas" font-size="12.00">Used</text>
</a>
</g>
</g>
<!-- Node18&#45;&gt;Node9 -->
<g id="edge8" class="edge">
<title>Node18&#45;&gt;Node9</title>
<g id="a_edge8"><a xlink:title=" ">
<path fill="none" stroke="#9a32cd" stroke-dasharray="5,2" d="M599.9,-71.97C523.14,-45.45 442.25,-28.21 394.17,-19.03"/>
<polygon fill="#9a32cd" stroke="#9a32cd" points="599.13,-75.41 609.72,-75.42 601.45,-68.8 599.13,-75.41"/>
</a>
</g>
<text text-anchor="middle" x="585.5" y="-42.8" font-family="Consolas" font-size="14.00" fill="grey">m_usedClass</text>
</g>
</g>
</svg>
