<?xml version="1.0" encoding="UTF-8" standalone="no"?>
<!DOCTYPE svg PUBLIC "-//W3C//DTD SVG 1.1//EN"
 "http://www.w3.org/Graphics/SVG/1.1/DTD/svg11.dtd">
<!-- Generated by graphviz version 2.43.0 (0)
 -->
<!-- Title: Graphical Class Hierarchy Pages: 1 -->
<svg width="632pt" height="107pt"
 viewBox="0.00 0.00 632.00 107.00" xmlns="http://www.w3.org/2000/svg" xmlns:xlink="http://www.w3.org/1999/xlink">
<g id="graph0" class="graph" transform="scale(1 1) rotate(0) translate(4 103)">
<title>Graphical Class Hierarchy</title>
<!-- Node0 -->
<g id="Node000000" class="node">
<title>Node0</title>
<g id="a_Node000000"><a xlink:title=" ">
<polygon fill="#e0e0e0" stroke="#999999" points="170.5,-60 18.5,-60 18.5,-39 170.5,-39 170.5,-60"/>
<text text-anchor="middle" x="94.5" y="-46.4" font-family="Consolas" font-size="12.00">System.IDisposable</text>
</a>
</g>
</g>
<!-- Node1 -->
<g id="Node000001" class="node">
<title>Node1</title>
<g id="a_Node000001"><a xlink:href="classES3Reader.html" target="_top" xlink:title=" ">
<polygon fill="white" stroke="#666666" points="346.5,-99 262.5,-99 262.5,-78 346.5,-78 346.5,-99"/>
<text text-anchor="middle" x="304.5" y="-85.4" font-family="Consolas" font-size="12.00">ES3Reader</text>
</a>
</g>
</g>
<!-- Node0&#45;&gt;Node1 -->
<g id="edge660_Node000000_Node000001" class="edge">
<title>Node0&#45;&gt;Node1</title>
<g id="a_edge660_Node000000_Node000001"><a xlink:title=" ">
<path fill="none" stroke="#63b8ff" d="M161.55,-61.89C194.57,-68.08 233.51,-75.38 262.24,-80.76"/>
<polygon fill="#63b8ff" stroke="#63b8ff" points="161.99,-58.41 151.51,-60 160.7,-65.29 161.99,-58.41"/>
</a>
</g>
</g>
<!-- Node3 -->
<g id="Node000003" class="node">
<title>Node3</title>
<g id="a_Node000003"><a xlink:href="classES3Writer.html" target="_top" xlink:title=" ">
<polygon fill="white" stroke="#666666" points="346.5,-60 262.5,-60 262.5,-39 346.5,-39 346.5,-60"/>
<text text-anchor="middle" x="304.5" y="-46.4" font-family="Consolas" font-size="12.00">ES3Writer</text>
</a>
</g>
</g>
<!-- Node0&#45;&gt;Node3 -->
<g id="edge662_Node000000_Node000003" class="edge">
<title>Node0&#45;&gt;Node3</title>
<g id="a_edge662_Node000000_Node000003"><a xlink:title=" ">
<path fill="none" stroke="#63b8ff" d="M180.87,-49.5C209.03,-49.5 239.07,-49.5 262.37,-49.5"/>
<polygon fill="#63b8ff" stroke="#63b8ff" points="180.59,-46 170.59,-49.5 180.59,-53 180.59,-46"/>
</a>
</g>
</g>
<!-- Node4 -->
<g id="Node000004" class="node">
<title>Node4</title>
<g id="a_Node000004"><a xlink:href="classInputSystem__Actions.html" target="_top" xlink:title="Provides programmatic access to InputActionAsset, InputActionMap, InputAction and InputControlScheme ...">
<polygon fill="white" stroke="#666666" points="384,-21 225,-21 225,0 384,0 384,-21"/>
<text text-anchor="middle" x="304.5" y="-7.4" font-family="Consolas" font-size="12.00">InputSystem_Actions</text>
</a>
</g>
</g>
<!-- Node0&#45;&gt;Node4 -->
<g id="edge663_Node000000_Node000004" class="edge">
<title>Node0&#45;&gt;Node4</title>
<g id="a_edge663_Node000000_Node000004"><a xlink:title=" ">
<path fill="none" stroke="#63b8ff" d="M161.49,-37.13C189.12,-31.95 220.9,-25.99 247.39,-21.02"/>
<polygon fill="#63b8ff" stroke="#63b8ff" points="160.7,-33.71 151.51,-39 161.99,-40.59 160.7,-33.71"/>
</a>
</g>
</g>
<!-- Node2 -->
<g id="Node000002" class="node">
<title>Node2</title>
<g id="a_Node000002"><a xlink:href="classES3Internal_1_1ES3JSONReader.html" target="_top" xlink:title=" ">
<polygon fill="white" stroke="#666666" points="624,-99 420,-99 420,-78 624,-78 624,-99"/>
<text text-anchor="middle" x="522" y="-85.4" font-family="Consolas" font-size="12.00">ES3Internal.ES3JSONReader</text>
</a>
</g>
</g>
<!-- Node1&#45;&gt;Node2 -->
<g id="edge661_Node000001_Node000002" class="edge">
<title>Node1&#45;&gt;Node2</title>
<g id="a_edge661_Node000001_Node000002"><a xlink:title=" ">
<path fill="none" stroke="#63b8ff" d="M356.71,-88.5C375.66,-88.5 397.86,-88.5 419.71,-88.5"/>
<polygon fill="#63b8ff" stroke="#63b8ff" points="356.54,-85 346.54,-88.5 356.54,-92 356.54,-85"/>
</a>
</g>
</g>
<!-- Node5 -->
<g id="Node000005" class="node">
<title>Node5</title>
<g id="a_Node000005"><a xlink:title=" ">
<polygon fill="#e0e0e0" stroke="#999999" points="189,-21 0,-21 0,0 189,0 189,-21"/>
<text text-anchor="middle" x="94.5" y="-7.4" font-family="Consolas" font-size="12.00">IInputActionCollection2</text>
</a>
</g>
</g>
<!-- Node5&#45;&gt;Node4 -->
<g id="edge664_Node000005_Node000004" class="edge">
<title>Node5&#45;&gt;Node4</title>
<g id="a_edge664_Node000005_Node000004"><a xlink:title=" ">
<path fill="none" stroke="#63b8ff" d="M199.28,-10.5C207.93,-10.5 216.57,-10.5 224.97,-10.5"/>
<polygon fill="#63b8ff" stroke="#63b8ff" points="199.16,-7 189.16,-10.5 199.16,-14 199.16,-7"/>
</a>
</g>
</g>
</g>
</svg>
