<?xml version="1.0" encoding="UTF-8" standalone="no"?>
<!DOCTYPE svg PUBLIC "-//W3C//DTD SVG 1.1//EN"
 "http://www.w3.org/Graphics/SVG/1.1/DTD/svg11.dtd">
<!-- Generated by graphviz version 2.43.0 (0)
 -->
<!-- Title: IDraggableSystem Pages: 1 -->
<svg width="231pt" height="187pt"
 viewBox="0.00 0.00 231.00 187.00" xmlns="http://www.w3.org/2000/svg" xmlns:xlink="http://www.w3.org/1999/xlink">
<g id="graph0" class="graph" transform="scale(1 1) rotate(0) translate(4 183)">
<title>IDraggableSystem</title>
<!-- Node1 -->
<g id="Node000001" class="node">
<title>Node1</title>
<g id="a_Node000001"><a xlink:title="드래그 가능한 요소 관리를 위한 공통 인터페이스">
<polygon fill="#999999" stroke="transparent" points="223,-179 0,-179 0,0 223,0 223,-179"/>
<text text-anchor="start" x="51.5" y="-164.9" font-family="Consolas" font-size="12.00">IDraggableSystem</text>
<text text-anchor="start" x="4.5" y="-147.9" font-family="Consolas" font-size="12.00">+</text>
<text text-anchor="start" x="16.5" y="-147.9" font-family="Consolas" font-size="12.00">bool IsDragging</text>
<text text-anchor="start" x="4.5" y="-130.9" font-family="Consolas" font-size="12.00">+</text>
<text text-anchor="start" x="16.5" y="-130.9" font-family="Consolas" font-size="12.00">int CurrentRotation</text>
<text text-anchor="start" x="4.5" y="-113.9" font-family="Consolas" font-size="12.00">+</text>
<text text-anchor="start" x="16.5" y="-113.9" font-family="Consolas" font-size="12.00">void StartDragging</text>
<text text-anchor="start" x="16.5" y="-100.9" font-family="Consolas" font-size="12.00">(Vector2 mousePosition)</text>
<text text-anchor="start" x="4.5" y="-83.9" font-family="Consolas" font-size="12.00">+</text>
<text text-anchor="start" x="16.5" y="-83.9" font-family="Consolas" font-size="12.00">bool CanPlace(Vector2Int</text>
<text text-anchor="start" x="16.5" y="-70.9" font-family="Consolas" font-size="12.00"> position, int rotation)</text>
<text text-anchor="start" x="4.5" y="-53.9" font-family="Consolas" font-size="12.00">+</text>
<text text-anchor="start" x="16.5" y="-53.9" font-family="Consolas" font-size="12.00">bool PlaceObject(Vector2</text>
<text text-anchor="start" x="16.5" y="-40.9" font-family="Consolas" font-size="12.00">Int position, int rotation)</text>
<text text-anchor="start" x="4.5" y="-23.9" font-family="Consolas" font-size="12.00">+</text>
<text text-anchor="start" x="16.5" y="-23.9" font-family="Consolas" font-size="12.00">void CancelDragging()</text>
<text text-anchor="start" x="4.5" y="-6.9" font-family="Consolas" font-size="12.00">+</text>
<text text-anchor="start" x="16.5" y="-6.9" font-family="Consolas" font-size="12.00">void RotatePreview()</text>
<polygon fill="#666666" stroke="#666666" points="0.5,-159.5 0.5,-159.5 223.5,-159.5 223.5,-159.5 0.5,-159.5"/>
<polygon fill="#666666" stroke="#666666" points="0.5,-125.5 0.5,-125.5 14.5,-125.5 14.5,-125.5 0.5,-125.5"/>
<polygon fill="#666666" stroke="#666666" points="14.5,-125.5 14.5,-125.5 223.5,-125.5 223.5,-125.5 14.5,-125.5"/>
<polygon fill="none" stroke="#666666" points="0,0 0,-179 223,-179 223,0 0,0"/>
</a>
</g>
</g>
</g>
</svg>
