<?xml version="1.0" encoding="UTF-8" standalone="no"?>
<!DOCTYPE svg PUBLIC "-//W3C//DTD SVG 1.1//EN"
 "http://www.w3.org/Graphics/SVG/1.1/DTD/svg11.dtd">
<!-- Generated by graphviz version 2.43.0 (0)
 -->
<!-- Title: InputSystem_Actions.IUIActions.OnCancel Pages: 1 -->
<!--zoomable 94 -->

<svg id="main" version="1.1" xmlns="http://www.w3.org/2000/svg" xmlns:xlink="http://www.w3.org/1999/xlink" xml:space="preserve" onload="init(evt)">
<style type="text/css"><![CDATA[
.node, .edge {opacity: 0.7;}
.node.selected, .edge.selected {opacity: 1;}
.edge:hover path { stroke: red; }
.edge:hover polygon { stroke: red; fill: red; }
]]></style>

<defs>
  <circle id="rim" cx="0" cy="0" r="7"/>
  <circle id="rim2" cx="0" cy="0" r="3.5"/>
  <g id="zoomPlus">
    <use xlink:href="#rim" fill="#404040"><set attributeName="fill" to="#808080" begin="zoomplus.mouseover" end="zoomplus.mouseout"/></use>
    <path d="M-4,0h8M0,-4v8" fill="none" stroke="white" stroke-width="1.5" pointer-events="none"/>
  </g>
  <g id="zoomMin">
    <use xlink:href="#rim" fill="#404040"><set attributeName="fill" to="#808080" begin="zoomminus.mouseover" end="zoomminus.mouseout"/></use>
    <path d="M-4,0h8" fill="none" stroke="white" stroke-width="1.5" pointer-events="none"/>
  </g>
  <g id="arrowUp" transform="translate(30 24)">
    <use xlink:href="#rim"/>
    <path pointer-events="none" fill="none" stroke="white" stroke-width="1.5" d="M0,-3.0v7 M-2.5,-0.5L0,-3.0L2.5,-0.5"/>
  </g>
  <g id="arrowRight" transform="rotate(90) translate(36 -43)">
    <use xlink:href="#rim"/>
    <path pointer-events="none" fill="none" stroke="white" stroke-width="1.5" d="M0,-3.0v7 M-2.5,-0.5L0,-3.0L2.5,-0.5"/>
  </g>
  <g id="arrowDown" transform="rotate(180) translate(-30 -48)">
    <use xlink:href="#rim"/>
    <path pointer-events="none" fill="none" stroke="white" stroke-width="1.5" d="M0,-3.0v7 M-2.5,-0.5L0,-3.0L2.5,-0.5"/>
  </g>
  <g id="arrowLeft" transform="rotate(270) translate(-36 17)">
    <use xlink:href="#rim"/>
    <path pointer-events="none" fill="none" stroke="white" stroke-width="1.5" d="M0,-3.0v7 M-2.5,-0.5L0,-3.0L2.5,-0.5"/>
  </g>
  <g id="resetDef">
    <use xlink:href="#rim2" fill="#404040"><set attributeName="fill" to="#808080" begin="reset.mouseover" end="reset.mouseout"/></use>
  </g>
</defs>
<script type="application/ecmascript">
var viewWidth = 813;
var viewHeight = 94;
var sectionId = 'dynsection-1';
</script>
<script type="application/ecmascript" xlink:href="svg.min.js"/>
<svg id="graph" class="graph">
<g id="viewport">
<title>InputSystem_Actions.IUIActions.OnCancel</title>
<!-- Node1 -->
<g id="Node000001" class="node">
<title>Node1</title>
<g id="a_Node000001"><a xlink:title="Method invoked when associated input action &quot;Cancel&quot; is either UnityEngine.InputSystem....">
<polygon fill="#999999" stroke="#666666" points="805,-60 556,-60 556,-26 805,-26 805,-60"/>
<text text-anchor="start" x="564" y="-46.4" font-family="Consolas" font-size="12.00">InputSystem_Actions.IUIActions.</text>
<text text-anchor="middle" x="680.5" y="-33.4" font-family="Consolas" font-size="12.00">OnCancel</text>
</a>
</g>
</g>
<!-- Node2 -->
<g id="Node000002" class="node">
<title>Node2</title>
<g id="a_Node000002"><a xlink:href="structInputSystem__Actions_1_1UIActions.html#a116611ffabbf5ed2fbb356127a409b0e" target="_top" xlink:title="Adds InputAction.started, InputAction.performed and InputAction.canceled callbacks provided via &#160;on a...">
<polygon fill="white" stroke="#666666" points="520,-86 278,-86 278,-52 520,-52 520,-86"/>
<text text-anchor="start" x="286" y="-72.4" font-family="Consolas" font-size="12.00">InputSystem_Actions.UIActions.</text>
<text text-anchor="middle" x="399" y="-59.4" font-family="Consolas" font-size="12.00">AddCallbacks</text>
</a>
</g>
</g>
<!-- Node1&#45;&gt;Node2 -->
<g id="edge1_Node000001_Node000002" class="edge">
<title>Node1&#45;&gt;Node2</title>
<g id="a_edge1_Node000001_Node000002"><a xlink:title=" ">
<path fill="none" stroke="#63b8ff" d="M545.68,-55.45C537.13,-56.24 528.56,-57.04 520.09,-57.83"/>
<polygon fill="#63b8ff" stroke="#63b8ff" points="546.05,-58.93 555.69,-54.52 545.41,-51.96 546.05,-58.93"/>
</a>
</g>
</g>
<!-- Node4 -->
<g id="Node000004" class="node">
<title>Node4</title>
<g id="a_Node000004"><a xlink:href="structInputSystem__Actions_1_1UIActions.html#a6d31b90e80f7d5792ee21911a7ceb10c" target="_top" xlink:title="Removes InputAction.started, InputAction.performed and InputAction.canceled callbacks provided via &#160;o...">
<polygon fill="white" stroke="#666666" points="520,-34 278,-34 278,0 520,0 520,-34"/>
<text text-anchor="start" x="286" y="-20.4" font-family="Consolas" font-size="12.00">InputSystem_Actions.UIActions.</text>
<text text-anchor="middle" x="399" y="-7.4" font-family="Consolas" font-size="12.00">UnregisterCallbacks</text>
</a>
</g>
</g>
<!-- Node1&#45;&gt;Node4 -->
<g id="edge3_Node000001_Node000004" class="edge">
<title>Node1&#45;&gt;Node4</title>
<g id="a_edge3_Node000001_Node000004"><a xlink:title=" ">
<path fill="none" stroke="#63b8ff" d="M545.68,-30.55C537.13,-29.76 528.56,-28.96 520.09,-28.17"/>
<polygon fill="#63b8ff" stroke="#63b8ff" points="545.41,-34.04 555.69,-31.48 546.05,-27.07 545.41,-34.04"/>
</a>
</g>
</g>
<!-- Node3 -->
<g id="Node000003" class="node">
<title>Node3</title>
<g id="a_Node000003"><a xlink:href="structInputSystem__Actions_1_1UIActions.html#a3c1c598b95c89cc9a40d79aa41e19876" target="_top" xlink:title="Replaces all existing callback instances and previously registered input action callbacks associated ...">
<polygon fill="white" stroke="#666666" points="242,-86 0,-86 0,-52 242,-52 242,-86"/>
<text text-anchor="start" x="8" y="-72.4" font-family="Consolas" font-size="12.00">InputSystem_Actions.UIActions.</text>
<text text-anchor="middle" x="121" y="-59.4" font-family="Consolas" font-size="12.00">SetCallbacks</text>
</a>
</g>
</g>
<!-- Node2&#45;&gt;Node3 -->
<g id="edge2_Node000002_Node000003" class="edge">
<title>Node2&#45;&gt;Node3</title>
<g id="a_edge2_Node000002_Node000003"><a xlink:title=" ">
<path fill="none" stroke="#63b8ff" d="M267.51,-69C259.09,-69 250.64,-69 242.27,-69"/>
<polygon fill="#63b8ff" stroke="#63b8ff" points="267.75,-72.5 277.75,-69 267.75,-65.5 267.75,-72.5"/>
</a>
</g>
</g>
<!-- Node4&#45;&gt;Node3 -->
<g id="edge5_Node000004_Node000003" class="edge">
<title>Node4&#45;&gt;Node3</title>
<g id="a_edge5_Node000004_Node000003"><a xlink:title=" ">
<path fill="none" stroke="#63b8ff" d="M297.5,-35.93C269.72,-41.17 239.75,-46.81 212.58,-51.94"/>
<polygon fill="#63b8ff" stroke="#63b8ff" points="298.45,-39.32 307.63,-34.03 297.15,-32.44 298.45,-39.32"/>
</a>
</g>
</g>
<!-- Node5 -->
<g id="Node000005" class="node">
<title>Node5</title>
<g id="a_Node000005"><a xlink:href="structInputSystem__Actions_1_1UIActions.html#ab9b01702cb63557009b54e8cd1f4ad69" target="_top" xlink:title="Unregisters &#160;and unregisters all input action callbacks via UIActions.UnregisterCallbacks(IUIActions)...">
<polygon fill="white" stroke="#666666" points="242,-34 0,-34 0,0 242,0 242,-34"/>
<text text-anchor="start" x="8" y="-20.4" font-family="Consolas" font-size="12.00">InputSystem_Actions.UIActions.</text>
<text text-anchor="middle" x="121" y="-7.4" font-family="Consolas" font-size="12.00">RemoveCallbacks</text>
</a>
</g>
</g>
<!-- Node4&#45;&gt;Node5 -->
<g id="edge4_Node000004_Node000005" class="edge">
<title>Node4&#45;&gt;Node5</title>
<g id="a_edge4_Node000004_Node000005"><a xlink:title=" ">
<path fill="none" stroke="#63b8ff" d="M267.51,-17C259.09,-17 250.64,-17 242.27,-17"/>
<polygon fill="#63b8ff" stroke="#63b8ff" points="267.75,-20.5 277.75,-17 267.75,-13.5 267.75,-20.5"/>
</a>
</g>
</g>
</g>
</svg>

<g id="navigator" transform="translate(0 0)" fill="#404254">
  <rect fill="#f2f5e9" fill-opacity="0.5" stroke="#606060" stroke-width=".5" x="0" y="0" width="60" height="60"/>
  <use id="zoomplus" xlink:href="#zoomPlus" x="17" y="9" onmousedown="handleZoom(evt,'in')"/>
  <use id="zoomminus" xlink:href="#zoomMin" x="42" y="9" onmousedown="handleZoom(evt,'out')"/>
  <use id="reset" xlink:href="#resetDef" x="30" y="36" onmousedown="handleReset()"/>
   <use id="arrowup" xlink:href="#arrowUp" x="0" y="0" onmousedown="handlePan(0,-1)"/>
  <use id="arrowright" xlink:href="#arrowRight" x="0" y="0" onmousedown="handlePan(1,0)"/>
  <use id="arrowdown" xlink:href="#arrowDown" x="0" y="0" onmousedown="handlePan(0,1)"/>
  <use id="arrowleft" xlink:href="#arrowLeft" x="0" y="0" onmousedown="handlePan(-1,0)"/>
</g>
<svg viewBox="0 0 15 15" width="100%" height="30px" preserveAspectRatio="xMaxYMin meet">
 <g id="arrow_out" transform="scale(0.3 0.3)">
  <a xlink:href="interfaceInputSystem__Actions_1_1IUIActions_af8352258056e7a4e739423da913d2af7_icgraph_org.svg" target="_base">
   <rect id="button" ry="5" rx="5" y="6" x="6" height="38" width="38"
        fill="#f2f5e9" fill-opacity="0.5" stroke="#606060" stroke-width="1.0"/>
   <path id="arrow"
     d="M 11.500037,31.436501 C 11.940474,20.09759 22.043105,11.32322 32.158766,21.979434 L 37.068811,17.246167 C 37.068811,17.246167 37.088388,32 37.088388,32 L 22.160133,31.978069 C 22.160133,31.978069 26.997745,27.140456 26.997745,27.140456 C 18.528582,18.264221 13.291696,25.230495 11.500037,31.436501 z"
     style="fill:#404040;"/>
  </a>
 </g>
</svg>

<style type='text/css'>
<![CDATA[
[data-mouse-over-selected='false'] { opacity: 0.7; }
[data-mouse-over-selected='true']  { opacity: 1.0; }
]]>
</style>
<script type="application/ecmascript"><![CDATA[
document.addEventListener('DOMContentLoaded', (event) => {
  highlightEdges();
  highlightAdjacentNodes();
});
]]></script>
</svg>
