<?xml version="1.0" encoding="UTF-8" standalone="no"?>
<!DOCTYPE svg PUBLIC "-//W3C//DTD SVG 1.1//EN"
 "http://www.w3.org/Graphics/SVG/1.1/DTD/svg11.dtd">
<!-- Generated by graphviz version 2.43.0 (0)
 -->
<!-- Title: ISpecialEffectHandler Pages: 1 -->
<svg width="1310pt" height="253pt"
 viewBox="0.00 0.00 1310.00 253.00" xmlns="http://www.w3.org/2000/svg" xmlns:xlink="http://www.w3.org/1999/xlink">
<g id="graph0" class="graph" transform="scale(1 1) rotate(0) translate(4 249)">
<title>ISpecialEffectHandler</title>
<!-- Node1 -->
<g id="Node000001" class="node">
<title>Node1</title>
<g id="a_Node000001"><a xlink:title=" ">
<polygon fill="#999999" stroke="transparent" points="774,-245 528,-245 528,-177 774,-177 774,-245"/>
<text text-anchor="start" x="572" y="-231.4" font-family="Consolas" font-size="12.00">ISpecialEffectHandler</text>
<text text-anchor="start" x="647" y="-214.4" font-family="Consolas" font-size="12.00"> </text>
<text text-anchor="start" x="532" y="-197.4" font-family="Consolas" font-size="12.00">+</text>
<text text-anchor="start" x="544" y="-197.4" font-family="Consolas" font-size="12.00">void HandleEffect(EventOutcome</text>
<text text-anchor="start" x="544" y="-184.4" font-family="Consolas" font-size="12.00"> outcome)</text>
<polygon fill="#666666" stroke="#666666" points="528,-226 528,-226 774,-226 774,-226 528,-226"/>
<polygon fill="#666666" stroke="#666666" points="528,-209 528,-209 774,-209 774,-209 528,-209"/>
<polygon fill="none" stroke="#666666" points="528,-177 528,-245 774,-245 774,-177 528,-177"/>
</a>
</g>
</g>
<!-- Node2 -->
<g id="Node000002" class="node">
<title>Node2</title>
<g id="a_Node000002"><a xlink:href="classAddQuestEffectHandler.html" target="_top" xlink:title="이벤트 결과로 퀘스트를 추가하는 특수 효과 핸들러입니다.">
<polygon fill="white" stroke="transparent" points="246,-104.5 0,-104.5 0,-36.5 246,-36.5 246,-104.5"/>
<text text-anchor="start" x="44" y="-90.9" font-family="Consolas" font-size="12.00">AddQuestEffectHandler</text>
<text text-anchor="start" x="119" y="-73.9" font-family="Consolas" font-size="12.00"> </text>
<text text-anchor="start" x="4" y="-56.9" font-family="Consolas" font-size="12.00">+</text>
<text text-anchor="start" x="16" y="-56.9" font-family="Consolas" font-size="12.00">void HandleEffect(EventOutcome</text>
<text text-anchor="start" x="16" y="-43.9" font-family="Consolas" font-size="12.00"> outcome)</text>
<polygon fill="#666666" stroke="#666666" points="0,-85.5 0,-85.5 246,-85.5 246,-85.5 0,-85.5"/>
<polygon fill="#666666" stroke="#666666" points="0,-68.5 0,-68.5 246,-68.5 246,-68.5 0,-68.5"/>
<polygon fill="none" stroke="#666666" points="0,-36.5 0,-104.5 246,-104.5 246,-36.5 0,-36.5"/>
</a>
</g>
</g>
<!-- Node1&#45;&gt;Node2 -->
<g id="edge1_Node000001_Node000002" class="edge">
<title>Node1&#45;&gt;Node2</title>
<g id="a_edge1_Node000001_Node000002"><a xlink:title=" ">
<path fill="none" stroke="#63b8ff" d="M517.29,-197.23C439.29,-187.2 339.87,-169.93 255,-141 228.04,-131.81 199.87,-117.68 176.52,-104.56"/>
<polygon fill="none" stroke="#63b8ff" points="517.3,-200.76 527.66,-198.54 518.18,-193.82 517.3,-200.76"/>
</a>
</g>
</g>
<!-- Node3 -->
<g id="Node000003" class="node">
<title>Node3</title>
<g id="a_Node000003"><a xlink:href="classBattleEffectHandler.html" target="_top" xlink:title=" ">
<polygon fill="white" stroke="transparent" points="510,-104.5 264,-104.5 264,-36.5 510,-36.5 510,-104.5"/>
<text text-anchor="start" x="315.5" y="-90.9" font-family="Consolas" font-size="12.00">BattleEffectHandler</text>
<text text-anchor="start" x="383" y="-73.9" font-family="Consolas" font-size="12.00"> </text>
<text text-anchor="start" x="268" y="-56.9" font-family="Consolas" font-size="12.00">+</text>
<text text-anchor="start" x="280" y="-56.9" font-family="Consolas" font-size="12.00">void HandleEffect(EventOutcome</text>
<text text-anchor="start" x="280" y="-43.9" font-family="Consolas" font-size="12.00"> outcome)</text>
<polygon fill="#bfbfbf" stroke="#bfbfbf" points="264,-85.5 264,-85.5 510,-85.5 510,-85.5 264,-85.5"/>
<polygon fill="#bfbfbf" stroke="#bfbfbf" points="264,-68.5 264,-68.5 510,-68.5 510,-68.5 264,-68.5"/>
<polygon fill="none" stroke="#bfbfbf" points="264,-36.5 264,-104.5 510,-104.5 510,-36.5 264,-36.5"/>
</a>
</g>
</g>
<!-- Node1&#45;&gt;Node3 -->
<g id="edge2_Node000001_Node000003" class="edge">
<title>Node1&#45;&gt;Node3</title>
<g id="a_edge2_Node000001_Node000003"><a xlink:title=" ">
<path fill="none" stroke="#63b8ff" d="M578.48,-172.14C559.14,-162.03 538.27,-151.11 519,-141 496.41,-129.15 471.66,-116.13 449.76,-104.59"/>
<polygon fill="none" stroke="#63b8ff" points="577.05,-175.34 587.53,-176.87 580.29,-169.14 577.05,-175.34"/>
</a>
</g>
</g>
<!-- Node4 -->
<g id="Node000004" class="node">
<title>Node4</title>
<g id="a_Node000004"><a xlink:href="classEventNextEventEffectHandler.html" target="_top" xlink:title="다음 이벤트를 트리거하는 특수 효과 핸들러입니다.">
<polygon fill="white" stroke="transparent" points="774,-104.5 528,-104.5 528,-36.5 774,-36.5 774,-104.5"/>
<text text-anchor="start" x="549.5" y="-90.9" font-family="Consolas" font-size="12.00">EventNextEventEffectHandler</text>
<text text-anchor="start" x="647" y="-73.9" font-family="Consolas" font-size="12.00"> </text>
<text text-anchor="start" x="532" y="-56.9" font-family="Consolas" font-size="12.00">+</text>
<text text-anchor="start" x="544" y="-56.9" font-family="Consolas" font-size="12.00">void HandleEffect(EventOutcome</text>
<text text-anchor="start" x="544" y="-43.9" font-family="Consolas" font-size="12.00"> outcome)</text>
<polygon fill="#666666" stroke="#666666" points="528,-85.5 528,-85.5 774,-85.5 774,-85.5 528,-85.5"/>
<polygon fill="#666666" stroke="#666666" points="528,-68.5 528,-68.5 774,-68.5 774,-68.5 528,-68.5"/>
<polygon fill="none" stroke="#666666" points="528,-36.5 528,-104.5 774,-104.5 774,-36.5 528,-36.5"/>
</a>
</g>
</g>
<!-- Node1&#45;&gt;Node4 -->
<g id="edge3_Node000001_Node000004" class="edge">
<title>Node1&#45;&gt;Node4</title>
<g id="a_edge3_Node000001_Node000004"><a xlink:title=" ">
<path fill="none" stroke="#63b8ff" d="M651,-166.74C651,-146.78 651,-123.46 651,-104.88"/>
<polygon fill="none" stroke="#63b8ff" points="647.5,-166.83 651,-176.83 654.5,-166.83 647.5,-166.83"/>
</a>
</g>
</g>
<!-- Node5 -->
<g id="Node000005" class="node">
<title>Node5</title>
<g id="a_Node000005"><a xlink:href="classRoomDamageEffectHandler.html" target="_top" xlink:title=" ">
<polygon fill="white" stroke="transparent" points="1038,-141 792,-141 792,0 1038,0 1038,-141"/>
<text text-anchor="start" x="828.5" y="-126.9" font-family="Consolas" font-size="12.00">RoomDamageEffectHandler</text>
<text text-anchor="start" x="911" y="-109.9" font-family="Consolas" font-size="12.00"> </text>
<text text-anchor="start" x="796" y="-92.9" font-family="Consolas" font-size="12.00">+</text>
<text text-anchor="start" x="808" y="-92.9" font-family="Consolas" font-size="12.00">void HandleEffect(EventOutcome</text>
<text text-anchor="start" x="808" y="-79.9" font-family="Consolas" font-size="12.00"> outcome)</text>
<text text-anchor="start" x="796" y="-62.9" font-family="Consolas" font-size="12.00">+</text>
<text text-anchor="start" x="808" y="-62.9" font-family="Consolas" font-size="12.00">void ApplyRandomRoomDamage</text>
<text text-anchor="start" x="808" y="-49.9" font-family="Consolas" font-size="12.00">(EventOutcome outcome)</text>
<text text-anchor="start" x="796" y="-32.9" font-family="Consolas" font-size="12.00">+</text>
<text text-anchor="start" x="808" y="-32.9" font-family="Consolas" font-size="12.00">void ApplyRoomDamage</text>
<text text-anchor="start" x="808" y="-19.9" font-family="Consolas" font-size="12.00">(EventOutcome outcome,</text>
<text text-anchor="start" x="808" y="-6.9" font-family="Consolas" font-size="12.00"> Room targetRoom)</text>
<polygon fill="#bfbfbf" stroke="#bfbfbf" points="792,-121.5 792,-121.5 1038,-121.5 1038,-121.5 792,-121.5"/>
<polygon fill="#bfbfbf" stroke="#bfbfbf" points="792,-104.5 792,-104.5 1038,-104.5 1038,-104.5 792,-104.5"/>
<polygon fill="none" stroke="#bfbfbf" points="792,0 792,-141 1038,-141 1038,0 792,0"/>
</a>
</g>
</g>
<!-- Node1&#45;&gt;Node5 -->
<g id="edge4_Node000001_Node000005" class="edge">
<title>Node1&#45;&gt;Node5</title>
<g id="a_edge4_Node000001_Node000005"><a xlink:title=" ">
<path fill="none" stroke="#63b8ff" d="M723.52,-172.14C742.86,-162.03 763.73,-151.11 783,-141 785.87,-139.5 788.77,-137.97 791.69,-136.44"/>
<polygon fill="none" stroke="#63b8ff" points="721.71,-169.14 714.47,-176.87 724.95,-175.34 721.71,-169.14"/>
</a>
</g>
</g>
<!-- Node6 -->
<g id="Node000006" class="node">
<title>Node6</title>
<g id="a_Node000006"><a xlink:href="classTeleportEffectHandler.html" target="_top" xlink:title=" ">
<polygon fill="white" stroke="transparent" points="1302,-104.5 1056,-104.5 1056,-36.5 1302,-36.5 1302,-104.5"/>
<text text-anchor="start" x="1100" y="-90.9" font-family="Consolas" font-size="12.00">TeleportEffectHandler</text>
<text text-anchor="start" x="1175" y="-73.9" font-family="Consolas" font-size="12.00"> </text>
<text text-anchor="start" x="1060" y="-56.9" font-family="Consolas" font-size="12.00">+</text>
<text text-anchor="start" x="1072" y="-56.9" font-family="Consolas" font-size="12.00">void HandleEffect(EventOutcome</text>
<text text-anchor="start" x="1072" y="-43.9" font-family="Consolas" font-size="12.00"> outcome)</text>
<polygon fill="#bfbfbf" stroke="#bfbfbf" points="1056,-85.5 1056,-85.5 1302,-85.5 1302,-85.5 1056,-85.5"/>
<polygon fill="#bfbfbf" stroke="#bfbfbf" points="1056,-68.5 1056,-68.5 1302,-68.5 1302,-68.5 1056,-68.5"/>
<polygon fill="none" stroke="#bfbfbf" points="1056,-36.5 1056,-104.5 1302,-104.5 1302,-36.5 1056,-36.5"/>
</a>
</g>
</g>
<!-- Node1&#45;&gt;Node6 -->
<g id="edge5_Node000001_Node000006" class="edge">
<title>Node1&#45;&gt;Node6</title>
<g id="a_edge5_Node000001_Node000006"><a xlink:title=" ">
<path fill="none" stroke="#63b8ff" d="M784.71,-197.23C862.71,-187.2 962.13,-169.93 1047,-141 1073.96,-131.81 1102.13,-117.68 1125.48,-104.56"/>
<polygon fill="none" stroke="#63b8ff" points="783.82,-193.82 774.34,-198.54 784.7,-200.76 783.82,-193.82"/>
</a>
</g>
</g>
</g>
</svg>
