<?xml version="1.0" encoding="UTF-8" standalone="no"?>
<!DOCTYPE svg PUBLIC "-//W3C//DTD SVG 1.1//EN"
 "http://www.w3.org/Graphics/SVG/1.1/DTD/svg11.dtd">
<!-- Generated by graphviz version 2.43.0 (0)
 -->
<!-- Title: InputSystem_Actions.PlayerActions.AddCallbacks Pages: 1 -->
<!--zoomable 458 -->

<svg id="main" version="1.1" xmlns="http://www.w3.org/2000/svg" xmlns:xlink="http://www.w3.org/1999/xlink" xml:space="preserve" onload="init(evt)">
<style type="text/css"><![CDATA[
.node, .edge {opacity: 0.7;}
.node.selected, .edge.selected {opacity: 1;}
.edge:hover path { stroke: red; }
.edge:hover polygon { stroke: red; fill: red; }
]]></style>

<defs>
  <circle id="rim" cx="0" cy="0" r="7"/>
  <circle id="rim2" cx="0" cy="0" r="3.5"/>
  <g id="zoomPlus">
    <use xlink:href="#rim" fill="#404040"><set attributeName="fill" to="#808080" begin="zoomplus.mouseover" end="zoomplus.mouseout"/></use>
    <path d="M-4,0h8M0,-4v8" fill="none" stroke="white" stroke-width="1.5" pointer-events="none"/>
  </g>
  <g id="zoomMin">
    <use xlink:href="#rim" fill="#404040"><set attributeName="fill" to="#808080" begin="zoomminus.mouseover" end="zoomminus.mouseout"/></use>
    <path d="M-4,0h8" fill="none" stroke="white" stroke-width="1.5" pointer-events="none"/>
  </g>
  <g id="arrowUp" transform="translate(30 24)">
    <use xlink:href="#rim"/>
    <path pointer-events="none" fill="none" stroke="white" stroke-width="1.5" d="M0,-3.0v7 M-2.5,-0.5L0,-3.0L2.5,-0.5"/>
  </g>
  <g id="arrowRight" transform="rotate(90) translate(36 -43)">
    <use xlink:href="#rim"/>
    <path pointer-events="none" fill="none" stroke="white" stroke-width="1.5" d="M0,-3.0v7 M-2.5,-0.5L0,-3.0L2.5,-0.5"/>
  </g>
  <g id="arrowDown" transform="rotate(180) translate(-30 -48)">
    <use xlink:href="#rim"/>
    <path pointer-events="none" fill="none" stroke="white" stroke-width="1.5" d="M0,-3.0v7 M-2.5,-0.5L0,-3.0L2.5,-0.5"/>
  </g>
  <g id="arrowLeft" transform="rotate(270) translate(-36 17)">
    <use xlink:href="#rim"/>
    <path pointer-events="none" fill="none" stroke="white" stroke-width="1.5" d="M0,-3.0v7 M-2.5,-0.5L0,-3.0L2.5,-0.5"/>
  </g>
  <g id="resetDef">
    <use xlink:href="#rim2" fill="#404040"><set attributeName="fill" to="#808080" begin="reset.mouseover" end="reset.mouseout"/></use>
  </g>
</defs>
<script type="application/ecmascript">
var viewWidth = 475;
var viewHeight = 458;
var sectionId = 'dynsection-1';
</script>
<script type="application/ecmascript" xlink:href="svg.min.js"/>
<svg id="graph" class="graph">
<g id="viewport">
<title>InputSystem_Actions.PlayerActions.AddCallbacks</title>
<!-- Node1 -->
<g id="Node000001" class="node">
<title>Node1</title>
<g id="a_Node000001"><a xlink:title="Adds InputAction.started, InputAction.performed and InputAction.canceled callbacks provided via &#160;on a...">
<polygon fill="#999999" stroke="#666666" points="212,-242 0,-242 0,-208 212,-208 212,-242"/>
<text text-anchor="start" x="8" y="-228.4" font-family="Consolas" font-size="12.00">InputSystem_Actions.Player</text>
<text text-anchor="middle" x="106" y="-215.4" font-family="Consolas" font-size="12.00">Actions.AddCallbacks</text>
</a>
</g>
</g>
<!-- Node2 -->
<g id="Node000002" class="node">
<title>Node2</title>
<g id="a_Node000002"><a xlink:href="interfaceInputSystem__Actions_1_1IPlayerActions.html#a39b0cb0611d50c6896516dfd238e8b6b" target="_top" xlink:title="Method invoked when associated input action &quot;Attack&quot; is either UnityEngine.InputSystem....">
<polygon fill="white" stroke="#666666" points="467,-450 248,-450 248,-416 467,-416 467,-450"/>
<text text-anchor="start" x="256" y="-436.4" font-family="Consolas" font-size="12.00">InputSystem_Actions.IPlayer</text>
<text text-anchor="middle" x="357.5" y="-423.4" font-family="Consolas" font-size="12.00">Actions.OnAttack</text>
</a>
</g>
</g>
<!-- Node1&#45;&gt;Node2 -->
<g id="edge1_Node000001_Node000002" class="edge">
<title>Node1&#45;&gt;Node2</title>
<g id="a_edge1_Node000001_Node000002"><a xlink:title=" ">
<path fill="none" stroke="#63b8ff" d="M115.2,-242.18C133.53,-278.67 181.52,-364.06 248,-407 250.48,-408.6 253.05,-410.1 255.68,-411.51"/>
<polygon fill="#63b8ff" stroke="#63b8ff" points="254.37,-414.76 264.89,-415.96 257.41,-408.46 254.37,-414.76"/>
</a>
</g>
</g>
<!-- Node3 -->
<g id="Node000003" class="node">
<title>Node3</title>
<g id="a_Node000003"><a xlink:href="interfaceInputSystem__Actions_1_1IPlayerActions.html#ae8238612e5c81988fe9cbd574b250d94" target="_top" xlink:title="Method invoked when associated input action &quot;Crouch&quot; is either UnityEngine.InputSystem....">
<polygon fill="white" stroke="#666666" points="467,-398 248,-398 248,-364 467,-364 467,-398"/>
<text text-anchor="start" x="256" y="-384.4" font-family="Consolas" font-size="12.00">InputSystem_Actions.IPlayer</text>
<text text-anchor="middle" x="357.5" y="-371.4" font-family="Consolas" font-size="12.00">Actions.OnCrouch</text>
</a>
</g>
</g>
<!-- Node1&#45;&gt;Node3 -->
<g id="edge2_Node000001_Node000003" class="edge">
<title>Node1&#45;&gt;Node3</title>
<g id="a_edge2_Node000001_Node000003"><a xlink:title=" ">
<path fill="none" stroke="#63b8ff" d="M120.61,-242.31C143.68,-270.43 193.36,-325.85 248,-355 251.5,-356.87 255.14,-358.61 258.87,-360.22"/>
<polygon fill="#63b8ff" stroke="#63b8ff" points="257.72,-363.53 268.31,-363.98 260.32,-357.03 257.72,-363.53"/>
</a>
</g>
</g>
<!-- Node4 -->
<g id="Node000004" class="node">
<title>Node4</title>
<g id="a_Node000004"><a xlink:href="interfaceInputSystem__Actions_1_1IPlayerActions.html#a7f0b3c53ea842fce0b16f0602cb7dd95" target="_top" xlink:title="Method invoked when associated input action &quot;Interact&quot; is either UnityEngine.InputSystem....">
<polygon fill="white" stroke="#666666" points="467,-346 248,-346 248,-312 467,-312 467,-346"/>
<text text-anchor="start" x="256" y="-332.4" font-family="Consolas" font-size="12.00">InputSystem_Actions.IPlayer</text>
<text text-anchor="middle" x="357.5" y="-319.4" font-family="Consolas" font-size="12.00">Actions.OnInteract</text>
</a>
</g>
</g>
<!-- Node1&#45;&gt;Node4 -->
<g id="edge3_Node000001_Node000004" class="edge">
<title>Node1&#45;&gt;Node4</title>
<g id="a_edge3_Node000001_Node000004"><a xlink:title=" ">
<path fill="none" stroke="#63b8ff" d="M132.73,-242.03C160.23,-259.56 205.62,-286.55 248,-303 253.49,-305.13 259.22,-307.13 265.03,-308.98"/>
<polygon fill="#63b8ff" stroke="#63b8ff" points="264.3,-312.42 274.89,-311.98 266.34,-305.72 264.3,-312.42"/>
</a>
</g>
</g>
<!-- Node5 -->
<g id="Node000005" class="node">
<title>Node5</title>
<g id="a_Node000005"><a xlink:href="interfaceInputSystem__Actions_1_1IPlayerActions.html#a8c02484fcb73d1dbd5dc10448dc9e2e8" target="_top" xlink:title="Method invoked when associated input action &quot;Jump&quot; is either UnityEngine.InputSystem....">
<polygon fill="white" stroke="#666666" points="467,-294 248,-294 248,-260 467,-260 467,-294"/>
<text text-anchor="start" x="256" y="-280.4" font-family="Consolas" font-size="12.00">InputSystem_Actions.IPlayer</text>
<text text-anchor="middle" x="357.5" y="-267.4" font-family="Consolas" font-size="12.00">Actions.OnJump</text>
</a>
</g>
</g>
<!-- Node1&#45;&gt;Node5 -->
<g id="edge4_Node000001_Node000005" class="edge">
<title>Node1&#45;&gt;Node5</title>
<g id="a_edge4_Node000001_Node000005"><a xlink:title=" ">
<path fill="none" stroke="#63b8ff" d="M188.7,-242.03C213.04,-247.1 239.87,-252.69 264.8,-257.89"/>
<polygon fill="#63b8ff" stroke="#63b8ff" points="264.12,-261.32 274.62,-259.94 265.55,-254.47 264.12,-261.32"/>
</a>
</g>
</g>
<!-- Node6 -->
<g id="Node000006" class="node">
<title>Node6</title>
<g id="a_Node000006"><a xlink:href="interfaceInputSystem__Actions_1_1IPlayerActions.html#a5828287711e7c7b683c048dbb62bb349" target="_top" xlink:title="Method invoked when associated input action &quot;Look&quot; is either UnityEngine.InputSystem....">
<polygon fill="white" stroke="#666666" points="467,-242 248,-242 248,-208 467,-208 467,-242"/>
<text text-anchor="start" x="256" y="-228.4" font-family="Consolas" font-size="12.00">InputSystem_Actions.IPlayer</text>
<text text-anchor="middle" x="357.5" y="-215.4" font-family="Consolas" font-size="12.00">Actions.OnLook</text>
</a>
</g>
</g>
<!-- Node1&#45;&gt;Node6 -->
<g id="edge5_Node000001_Node000006" class="edge">
<title>Node1&#45;&gt;Node6</title>
<g id="a_edge5_Node000001_Node000006"><a xlink:title=" ">
<path fill="none" stroke="#63b8ff" d="M212.09,-225C220.61,-225 229.25,-225 237.86,-225"/>
<polygon fill="#63b8ff" stroke="#63b8ff" points="237.93,-228.5 247.93,-225 237.93,-221.5 237.93,-228.5"/>
</a>
</g>
</g>
<!-- Node7 -->
<g id="Node000007" class="node">
<title>Node7</title>
<g id="a_Node000007"><a xlink:href="interfaceInputSystem__Actions_1_1IPlayerActions.html#ab3366dfc3e68c0bf3ea3ceacd9c3a3d4" target="_top" xlink:title="Method invoked when associated input action &quot;Move&quot; is either UnityEngine.InputSystem....">
<polygon fill="white" stroke="#666666" points="467,-190 248,-190 248,-156 467,-156 467,-190"/>
<text text-anchor="start" x="256" y="-176.4" font-family="Consolas" font-size="12.00">InputSystem_Actions.IPlayer</text>
<text text-anchor="middle" x="357.5" y="-163.4" font-family="Consolas" font-size="12.00">Actions.OnMove</text>
</a>
</g>
</g>
<!-- Node1&#45;&gt;Node7 -->
<g id="edge6_Node000001_Node000007" class="edge">
<title>Node1&#45;&gt;Node7</title>
<g id="a_edge6_Node000001_Node000007"><a xlink:title=" ">
<path fill="none" stroke="#63b8ff" d="M188.7,-207.97C213.04,-202.9 239.87,-197.31 264.8,-192.11"/>
<polygon fill="#63b8ff" stroke="#63b8ff" points="265.55,-195.53 274.62,-190.06 264.12,-188.68 265.55,-195.53"/>
</a>
</g>
</g>
<!-- Node8 -->
<g id="Node000008" class="node">
<title>Node8</title>
<g id="a_Node000008"><a xlink:href="interfaceInputSystem__Actions_1_1IPlayerActions.html#a9948265572e31aaf0f0ae94949cbb07a" target="_top" xlink:title="Method invoked when associated input action &quot;Next&quot; is either UnityEngine.InputSystem....">
<polygon fill="white" stroke="#666666" points="467,-138 248,-138 248,-104 467,-104 467,-138"/>
<text text-anchor="start" x="256" y="-124.4" font-family="Consolas" font-size="12.00">InputSystem_Actions.IPlayer</text>
<text text-anchor="middle" x="357.5" y="-111.4" font-family="Consolas" font-size="12.00">Actions.OnNext</text>
</a>
</g>
</g>
<!-- Node1&#45;&gt;Node8 -->
<g id="edge7_Node000001_Node000008" class="edge">
<title>Node1&#45;&gt;Node8</title>
<g id="a_edge7_Node000001_Node000008"><a xlink:title=" ">
<path fill="none" stroke="#63b8ff" d="M132.73,-207.97C160.23,-190.44 205.62,-163.45 248,-147 253.49,-144.87 259.22,-142.87 265.03,-141.02"/>
<polygon fill="#63b8ff" stroke="#63b8ff" points="266.34,-144.28 274.89,-138.02 264.3,-137.58 266.34,-144.28"/>
</a>
</g>
</g>
<!-- Node9 -->
<g id="Node000009" class="node">
<title>Node9</title>
<g id="a_Node000009"><a xlink:href="interfaceInputSystem__Actions_1_1IPlayerActions.html#a2600ce746566d91acb2e1f182860966e" target="_top" xlink:title="Method invoked when associated input action &quot;Previous&quot; is either UnityEngine.InputSystem....">
<polygon fill="white" stroke="#666666" points="467,-86 248,-86 248,-52 467,-52 467,-86"/>
<text text-anchor="start" x="256" y="-72.4" font-family="Consolas" font-size="12.00">InputSystem_Actions.IPlayer</text>
<text text-anchor="middle" x="357.5" y="-59.4" font-family="Consolas" font-size="12.00">Actions.OnPrevious</text>
</a>
</g>
</g>
<!-- Node1&#45;&gt;Node9 -->
<g id="edge8_Node000001_Node000009" class="edge">
<title>Node1&#45;&gt;Node9</title>
<g id="a_edge8_Node000001_Node000009"><a xlink:title=" ">
<path fill="none" stroke="#63b8ff" d="M120.61,-207.69C143.68,-179.57 193.36,-124.15 248,-95 251.5,-93.13 255.14,-91.39 258.87,-89.78"/>
<polygon fill="#63b8ff" stroke="#63b8ff" points="260.32,-92.97 268.31,-86.02 257.72,-86.47 260.32,-92.97"/>
</a>
</g>
</g>
<!-- Node10 -->
<g id="Node000010" class="node">
<title>Node10</title>
<g id="a_Node000010"><a xlink:href="interfaceInputSystem__Actions_1_1IPlayerActions.html#a769fd450b41670da338dc68f7b02b1ec" target="_top" xlink:title="Method invoked when associated input action &quot;Sprint&quot; is either UnityEngine.InputSystem....">
<polygon fill="white" stroke="#666666" points="467,-34 248,-34 248,0 467,0 467,-34"/>
<text text-anchor="start" x="256" y="-20.4" font-family="Consolas" font-size="12.00">InputSystem_Actions.IPlayer</text>
<text text-anchor="middle" x="357.5" y="-7.4" font-family="Consolas" font-size="12.00">Actions.OnSprint</text>
</a>
</g>
</g>
<!-- Node1&#45;&gt;Node10 -->
<g id="edge9_Node000001_Node000010" class="edge">
<title>Node1&#45;&gt;Node10</title>
<g id="a_edge9_Node000001_Node000010"><a xlink:title=" ">
<path fill="none" stroke="#63b8ff" d="M115.2,-207.82C133.53,-171.33 181.52,-85.94 248,-43 250.48,-41.4 253.05,-39.9 255.68,-38.49"/>
<polygon fill="#63b8ff" stroke="#63b8ff" points="257.41,-41.54 264.89,-34.04 254.37,-35.24 257.41,-41.54"/>
</a>
</g>
</g>
</g>
</svg>

<g id="navigator" transform="translate(0 0)" fill="#404254">
  <rect fill="#f2f5e9" fill-opacity="0.5" stroke="#606060" stroke-width=".5" x="0" y="0" width="60" height="60"/>
  <use id="zoomplus" xlink:href="#zoomPlus" x="17" y="9" onmousedown="handleZoom(evt,'in')"/>
  <use id="zoomminus" xlink:href="#zoomMin" x="42" y="9" onmousedown="handleZoom(evt,'out')"/>
  <use id="reset" xlink:href="#resetDef" x="30" y="36" onmousedown="handleReset()"/>
   <use id="arrowup" xlink:href="#arrowUp" x="0" y="0" onmousedown="handlePan(0,-1)"/>
  <use id="arrowright" xlink:href="#arrowRight" x="0" y="0" onmousedown="handlePan(1,0)"/>
  <use id="arrowdown" xlink:href="#arrowDown" x="0" y="0" onmousedown="handlePan(0,1)"/>
  <use id="arrowleft" xlink:href="#arrowLeft" x="0" y="0" onmousedown="handlePan(-1,0)"/>
</g>
<svg viewBox="0 0 15 15" width="100%" height="30px" preserveAspectRatio="xMaxYMin meet">
 <g id="arrow_out" transform="scale(0.3 0.3)">
  <a xlink:href="structInputSystem__Actions_1_1PlayerActions_a59ea99548b2f7daf3e3e4343446bff3b_cgraph_org.svg" target="_base">
   <rect id="button" ry="5" rx="5" y="6" x="6" height="38" width="38"
        fill="#f2f5e9" fill-opacity="0.5" stroke="#606060" stroke-width="1.0"/>
   <path id="arrow"
     d="M 11.500037,31.436501 C 11.940474,20.09759 22.043105,11.32322 32.158766,21.979434 L 37.068811,17.246167 C 37.068811,17.246167 37.088388,32 37.088388,32 L 22.160133,31.978069 C 22.160133,31.978069 26.997745,27.140456 26.997745,27.140456 C 18.528582,18.264221 13.291696,25.230495 11.500037,31.436501 z"
     style="fill:#404040;"/>
  </a>
 </g>
</svg>

<style type='text/css'>
<![CDATA[
[data-mouse-over-selected='false'] { opacity: 0.7; }
[data-mouse-over-selected='true']  { opacity: 1.0; }
]]>
</style>
<script type="application/ecmascript"><![CDATA[
document.addEventListener('DOMContentLoaded', (event) => {
  highlightEdges();
  highlightAdjacentNodes();
});
]]></script>
</svg>
