<?xml version="1.0" encoding="UTF-8" standalone="no"?>
<!DOCTYPE svg PUBLIC "-//W3C//DTD SVG 1.1//EN"
 "http://www.w3.org/Graphics/SVG/1.1/DTD/svg11.dtd">
<!-- Generated by graphviz version 2.43.0 (0)
 -->
<!-- Title: InputSystem_Actions.PlayerActions Pages: 1 -->
<!--zoomable 1981 -->

<svg id="main" version="1.1" xmlns="http://www.w3.org/2000/svg" xmlns:xlink="http://www.w3.org/1999/xlink" xml:space="preserve" onload="init(evt)">
<style type="text/css"><![CDATA[
.node, .edge {opacity: 0.7;}
.node.selected, .edge.selected {opacity: 1;}
.edge:hover path { stroke: red; }
.edge:hover polygon { stroke: red; fill: red; }
]]></style>

<defs>
  <circle id="rim" cx="0" cy="0" r="7"/>
  <circle id="rim2" cx="0" cy="0" r="3.5"/>
  <g id="zoomPlus">
    <use xlink:href="#rim" fill="#404040"><set attributeName="fill" to="#808080" begin="zoomplus.mouseover" end="zoomplus.mouseout"/></use>
    <path d="M-4,0h8M0,-4v8" fill="none" stroke="white" stroke-width="1.5" pointer-events="none"/>
  </g>
  <g id="zoomMin">
    <use xlink:href="#rim" fill="#404040"><set attributeName="fill" to="#808080" begin="zoomminus.mouseover" end="zoomminus.mouseout"/></use>
    <path d="M-4,0h8" fill="none" stroke="white" stroke-width="1.5" pointer-events="none"/>
  </g>
  <g id="arrowUp" transform="translate(30 24)">
    <use xlink:href="#rim"/>
    <path pointer-events="none" fill="none" stroke="white" stroke-width="1.5" d="M0,-3.0v7 M-2.5,-0.5L0,-3.0L2.5,-0.5"/>
  </g>
  <g id="arrowRight" transform="rotate(90) translate(36 -43)">
    <use xlink:href="#rim"/>
    <path pointer-events="none" fill="none" stroke="white" stroke-width="1.5" d="M0,-3.0v7 M-2.5,-0.5L0,-3.0L2.5,-0.5"/>
  </g>
  <g id="arrowDown" transform="rotate(180) translate(-30 -48)">
    <use xlink:href="#rim"/>
    <path pointer-events="none" fill="none" stroke="white" stroke-width="1.5" d="M0,-3.0v7 M-2.5,-0.5L0,-3.0L2.5,-0.5"/>
  </g>
  <g id="arrowLeft" transform="rotate(270) translate(-36 17)">
    <use xlink:href="#rim"/>
    <path pointer-events="none" fill="none" stroke="white" stroke-width="1.5" d="M0,-3.0v7 M-2.5,-0.5L0,-3.0L2.5,-0.5"/>
  </g>
  <g id="resetDef">
    <use xlink:href="#rim2" fill="#404040"><set attributeName="fill" to="#808080" begin="reset.mouseover" end="reset.mouseout"/></use>
  </g>
</defs>
<script type="application/ecmascript">
var viewWidth = 323;
var viewHeight = 1981;
var sectionId = 'dynsection-0';
</script>
<script type="application/ecmascript" xlink:href="svg.min.js"/>
<svg id="graph" class="graph">
<g id="viewport">
<title>InputSystem_Actions.PlayerActions</title>
<!-- Node1 -->
<g id="Node000001" class="node">
<title>Node1</title>
<g id="a_Node000001"><a xlink:title="Provides access to input actions defined in input action map &quot;Player&quot;.">
<polygon fill="#999999" stroke="transparent" points="307.5,-435 31.5,-435 31.5,0 307.5,0 307.5,-435"/>
<text text-anchor="start" x="71.5" y="-420.9" font-family="Consolas" font-size="12.00">InputSystem_Actions.Player</text>
<text text-anchor="start" x="143" y="-407.9" font-family="Consolas" font-size="12.00">Actions</text>
<text text-anchor="start" x="35.5" y="-390.9" font-family="Consolas" font-size="12.00">+</text>
<text text-anchor="start" x="47.5" y="-390.9" font-family="Consolas" font-size="12.00">InputAction Move</text>
<text text-anchor="start" x="35.5" y="-373.9" font-family="Consolas" font-size="12.00">+</text>
<text text-anchor="start" x="47.5" y="-373.9" font-family="Consolas" font-size="12.00">InputAction Look</text>
<text text-anchor="start" x="35.5" y="-356.9" font-family="Consolas" font-size="12.00">+</text>
<text text-anchor="start" x="47.5" y="-356.9" font-family="Consolas" font-size="12.00">InputAction Attack</text>
<text text-anchor="start" x="35.5" y="-339.9" font-family="Consolas" font-size="12.00">+</text>
<text text-anchor="start" x="47.5" y="-339.9" font-family="Consolas" font-size="12.00">InputAction Interact</text>
<text text-anchor="start" x="35.5" y="-322.9" font-family="Consolas" font-size="12.00">+</text>
<text text-anchor="start" x="47.5" y="-322.9" font-family="Consolas" font-size="12.00">InputAction Crouch</text>
<text text-anchor="start" x="35.5" y="-305.9" font-family="Consolas" font-size="12.00">+</text>
<text text-anchor="start" x="47.5" y="-305.9" font-family="Consolas" font-size="12.00">InputAction Jump</text>
<text text-anchor="start" x="35.5" y="-288.9" font-family="Consolas" font-size="12.00">+</text>
<text text-anchor="start" x="47.5" y="-288.9" font-family="Consolas" font-size="12.00">InputAction Previous</text>
<text text-anchor="start" x="35.5" y="-271.9" font-family="Consolas" font-size="12.00">+</text>
<text text-anchor="start" x="47.5" y="-271.9" font-family="Consolas" font-size="12.00">InputAction Next</text>
<text text-anchor="start" x="35.5" y="-254.9" font-family="Consolas" font-size="12.00">+</text>
<text text-anchor="start" x="47.5" y="-254.9" font-family="Consolas" font-size="12.00">InputAction Sprint</text>
<text text-anchor="start" x="35.5" y="-237.9" font-family="Consolas" font-size="12.00">+</text>
<text text-anchor="start" x="47.5" y="-237.9" font-family="Consolas" font-size="12.00">bool enabled</text>
<text text-anchor="start" x="35.5" y="-220.9" font-family="Consolas" font-size="12.00">+</text>
<text text-anchor="start" x="47.5" y="-220.9" font-family="Consolas" font-size="12.00">PlayerActions(@InputSystem</text>
<text text-anchor="start" x="47.5" y="-207.9" font-family="Consolas" font-size="12.00">_Actions wrapper)</text>
<text text-anchor="start" x="35.5" y="-190.9" font-family="Consolas" font-size="12.00">+</text>
<text text-anchor="start" x="47.5" y="-190.9" font-family="Consolas" font-size="12.00">InputActionMap Get()</text>
<text text-anchor="start" x="35.5" y="-173.9" font-family="Consolas" font-size="12.00">+</text>
<text text-anchor="start" x="47.5" y="-173.9" font-family="Consolas" font-size="12.00">void Enable()</text>
<text text-anchor="start" x="35.5" y="-156.9" font-family="Consolas" font-size="12.00">+</text>
<text text-anchor="start" x="47.5" y="-156.9" font-family="Consolas" font-size="12.00">void Disable()</text>
<text text-anchor="start" x="35.5" y="-139.9" font-family="Consolas" font-size="12.00">+</text>
<text text-anchor="start" x="47.5" y="-139.9" font-family="Consolas" font-size="12.00">void AddCallbacks(IPlayer</text>
<text text-anchor="start" x="47.5" y="-126.9" font-family="Consolas" font-size="12.00">Actions instance)</text>
<text text-anchor="start" x="35.5" y="-109.9" font-family="Consolas" font-size="12.00">+</text>
<text text-anchor="start" x="47.5" y="-109.9" font-family="Consolas" font-size="12.00">void RemoveCallbacks</text>
<text text-anchor="start" x="47.5" y="-96.9" font-family="Consolas" font-size="12.00">(IPlayerActions instance)</text>
<text text-anchor="start" x="35.5" y="-79.9" font-family="Consolas" font-size="12.00">+</text>
<text text-anchor="start" x="47.5" y="-79.9" font-family="Consolas" font-size="12.00">void SetCallbacks(IPlayer</text>
<text text-anchor="start" x="47.5" y="-66.9" font-family="Consolas" font-size="12.00">Actions instance)</text>
<text text-anchor="start" x="35.5" y="-49.9" font-family="Consolas" font-size="12.00">+</text>
<text text-anchor="start" x="47.5" y="-49.9" font-family="Consolas" font-size="12.00">static implicit operator</text>
<text text-anchor="start" x="47.5" y="-36.9" font-family="Consolas" font-size="12.00"> InputActionMap(PlayerActions set)</text>
<text text-anchor="start" x="35.5" y="-19.9" font-family="Consolas" font-size="12.00">&#45;</text>
<text text-anchor="start" x="47.5" y="-19.9" font-family="Consolas" font-size="12.00">void UnregisterCallbacks</text>
<text text-anchor="start" x="47.5" y="-6.9" font-family="Consolas" font-size="12.00">(IPlayerActions instance)</text>
<polygon fill="#666666" stroke="#666666" points="31.5,-402.5 31.5,-402.5 307.5,-402.5 307.5,-402.5 31.5,-402.5"/>
<polygon fill="#666666" stroke="#666666" points="31.5,-232.5 31.5,-232.5 45.5,-232.5 45.5,-232.5 31.5,-232.5"/>
<polygon fill="#666666" stroke="#666666" points="45.5,-232.5 45.5,-232.5 307.5,-232.5 307.5,-232.5 45.5,-232.5"/>
<polygon fill="none" stroke="#666666" points="31.5,0 31.5,-435 307.5,-435 307.5,0 31.5,0"/>
</a>
</g>
</g>
<!-- Node2 -->
<g id="Node000002" class="node">
<title>Node2</title>
<g id="a_Node000002"><a xlink:href="classInputSystem__Actions.html" target="_top" xlink:title="Provides programmatic access to InputActionAsset, InputActionMap, InputAction and InputControlScheme ...">
<polygon fill="white" stroke="transparent" points="315,-1881 24,-1881 24,-486 315,-486 315,-1881"/>
<text text-anchor="start" x="98.5" y="-1866.9" font-family="Consolas" font-size="12.00">InputSystem_Actions</text>
<text text-anchor="start" x="28.5" y="-1849.9" font-family="Consolas" font-size="12.00">+</text>
<text text-anchor="start" x="40.5" y="-1849.9" font-family="Consolas" font-size="12.00">InputActionAsset asset</text>
<text text-anchor="start" x="28.5" y="-1832.9" font-family="Consolas" font-size="12.00">+</text>
<text text-anchor="start" x="40.5" y="-1832.9" font-family="Consolas" font-size="12.00">InputBinding? bindingMask</text>
<text text-anchor="start" x="28.5" y="-1815.9" font-family="Consolas" font-size="12.00">+</text>
<text text-anchor="start" x="40.5" y="-1815.9" font-family="Consolas" font-size="12.00">ReadOnlyArray&lt; InputDevice</text>
<text text-anchor="start" x="40.5" y="-1802.9" font-family="Consolas" font-size="12.00"> &gt;? devices</text>
<text text-anchor="start" x="28.5" y="-1785.9" font-family="Consolas" font-size="12.00">+</text>
<text text-anchor="start" x="40.5" y="-1785.9" font-family="Consolas" font-size="12.00">ReadOnlyArray&lt; InputControl</text>
<text text-anchor="start" x="40.5" y="-1772.9" font-family="Consolas" font-size="12.00">Scheme &gt; controlSchemes</text>
<text text-anchor="start" x="28.5" y="-1755.9" font-family="Consolas" font-size="12.00">+</text>
<text text-anchor="start" x="40.5" y="-1755.9" font-family="Consolas" font-size="12.00">IEnumerable&lt; InputBinding</text>
<text text-anchor="start" x="40.5" y="-1742.9" font-family="Consolas" font-size="12.00"> &gt; bindings</text>
<text text-anchor="start" x="28.5" y="-1725.9" font-family="Consolas" font-size="12.00">+</text>
<text text-anchor="start" x="40.5" y="-1725.9" font-family="Consolas" font-size="12.00">PlayerActions Player</text>
<text text-anchor="start" x="28.5" y="-1708.9" font-family="Consolas" font-size="12.00">+</text>
<text text-anchor="start" x="40.5" y="-1708.9" font-family="Consolas" font-size="12.00">UIActions UI</text>
<text text-anchor="start" x="28.5" y="-1691.9" font-family="Consolas" font-size="12.00">+</text>
<text text-anchor="start" x="40.5" y="-1691.9" font-family="Consolas" font-size="12.00">InputControlScheme</text>
<text text-anchor="start" x="40.5" y="-1678.9" font-family="Consolas" font-size="12.00"> KeyboardMouseScheme</text>
<text text-anchor="start" x="28.5" y="-1661.9" font-family="Consolas" font-size="12.00">+</text>
<text text-anchor="start" x="40.5" y="-1661.9" font-family="Consolas" font-size="12.00">InputControlScheme</text>
<text text-anchor="start" x="40.5" y="-1648.9" font-family="Consolas" font-size="12.00"> GamepadScheme</text>
<text text-anchor="start" x="28.5" y="-1631.9" font-family="Consolas" font-size="12.00">+</text>
<text text-anchor="start" x="40.5" y="-1631.9" font-family="Consolas" font-size="12.00">InputControlScheme</text>
<text text-anchor="start" x="40.5" y="-1618.9" font-family="Consolas" font-size="12.00"> TouchScheme</text>
<text text-anchor="start" x="28.5" y="-1601.9" font-family="Consolas" font-size="12.00">+</text>
<text text-anchor="start" x="40.5" y="-1601.9" font-family="Consolas" font-size="12.00">InputControlScheme</text>
<text text-anchor="start" x="40.5" y="-1588.9" font-family="Consolas" font-size="12.00"> JoystickScheme</text>
<text text-anchor="start" x="28.5" y="-1571.9" font-family="Consolas" font-size="12.00">+</text>
<text text-anchor="start" x="40.5" y="-1571.9" font-family="Consolas" font-size="12.00">InputControlScheme</text>
<text text-anchor="start" x="40.5" y="-1558.9" font-family="Consolas" font-size="12.00"> XRScheme</text>
<text text-anchor="start" x="28.5" y="-1541.9" font-family="Consolas" font-size="12.00">&#45;</text>
<text text-anchor="start" x="40.5" y="-1541.9" font-family="Consolas" font-size="12.00">readonly InputActionMap</text>
<text text-anchor="start" x="40.5" y="-1528.9" font-family="Consolas" font-size="12.00"> m_Player</text>
<text text-anchor="start" x="28.5" y="-1511.9" font-family="Consolas" font-size="12.00">&#45;</text>
<text text-anchor="start" x="40.5" y="-1511.9" font-family="Consolas" font-size="12.00">List&lt; IPlayerActions</text>
<text text-anchor="start" x="40.5" y="-1498.9" font-family="Consolas" font-size="12.00"> &gt; m_PlayerActionsCallbackInterfaces</text>
<text text-anchor="start" x="28.5" y="-1481.9" font-family="Consolas" font-size="12.00">&#45;</text>
<text text-anchor="start" x="40.5" y="-1481.9" font-family="Consolas" font-size="12.00">readonly InputAction</text>
<text text-anchor="start" x="40.5" y="-1468.9" font-family="Consolas" font-size="12.00"> m_Player_Move</text>
<text text-anchor="start" x="28.5" y="-1451.9" font-family="Consolas" font-size="12.00">&#45;</text>
<text text-anchor="start" x="40.5" y="-1451.9" font-family="Consolas" font-size="12.00">readonly InputAction</text>
<text text-anchor="start" x="40.5" y="-1438.9" font-family="Consolas" font-size="12.00"> m_Player_Look</text>
<text text-anchor="start" x="28.5" y="-1421.9" font-family="Consolas" font-size="12.00">&#45;</text>
<text text-anchor="start" x="40.5" y="-1421.9" font-family="Consolas" font-size="12.00">readonly InputAction</text>
<text text-anchor="start" x="40.5" y="-1408.9" font-family="Consolas" font-size="12.00"> m_Player_Attack</text>
<text text-anchor="start" x="28.5" y="-1391.9" font-family="Consolas" font-size="12.00">&#45;</text>
<text text-anchor="start" x="40.5" y="-1391.9" font-family="Consolas" font-size="12.00">readonly InputAction</text>
<text text-anchor="start" x="40.5" y="-1378.9" font-family="Consolas" font-size="12.00"> m_Player_Interact</text>
<text text-anchor="start" x="28.5" y="-1361.9" font-family="Consolas" font-size="12.00">&#45;</text>
<text text-anchor="start" x="40.5" y="-1361.9" font-family="Consolas" font-size="12.00">readonly InputAction</text>
<text text-anchor="start" x="40.5" y="-1348.9" font-family="Consolas" font-size="12.00"> m_Player_Crouch</text>
<text text-anchor="start" x="28.5" y="-1331.9" font-family="Consolas" font-size="12.00">&#45;</text>
<text text-anchor="start" x="40.5" y="-1331.9" font-family="Consolas" font-size="12.00">readonly InputAction</text>
<text text-anchor="start" x="40.5" y="-1318.9" font-family="Consolas" font-size="12.00"> m_Player_Jump</text>
<text text-anchor="start" x="28.5" y="-1301.9" font-family="Consolas" font-size="12.00">&#45;</text>
<text text-anchor="start" x="40.5" y="-1301.9" font-family="Consolas" font-size="12.00">readonly InputAction</text>
<text text-anchor="start" x="40.5" y="-1288.9" font-family="Consolas" font-size="12.00"> m_Player_Previous</text>
<text text-anchor="start" x="28.5" y="-1271.9" font-family="Consolas" font-size="12.00">&#45;</text>
<text text-anchor="start" x="40.5" y="-1271.9" font-family="Consolas" font-size="12.00">readonly InputAction</text>
<text text-anchor="start" x="40.5" y="-1258.9" font-family="Consolas" font-size="12.00"> m_Player_Next</text>
<text text-anchor="start" x="28.5" y="-1241.9" font-family="Consolas" font-size="12.00">&#45;</text>
<text text-anchor="start" x="40.5" y="-1241.9" font-family="Consolas" font-size="12.00">readonly InputAction</text>
<text text-anchor="start" x="40.5" y="-1228.9" font-family="Consolas" font-size="12.00"> m_Player_Sprint</text>
<text text-anchor="start" x="28.5" y="-1211.9" font-family="Consolas" font-size="12.00">&#45;</text>
<text text-anchor="start" x="40.5" y="-1211.9" font-family="Consolas" font-size="12.00">readonly InputActionMap m_UI</text>
<text text-anchor="start" x="28.5" y="-1194.9" font-family="Consolas" font-size="12.00">&#45;</text>
<text text-anchor="start" x="40.5" y="-1194.9" font-family="Consolas" font-size="12.00">List&lt; IUIActions &gt;</text>
<text text-anchor="start" x="40.5" y="-1181.9" font-family="Consolas" font-size="12.00"> m_UIActionsCallbackInterfaces</text>
<text text-anchor="start" x="28.5" y="-1164.9" font-family="Consolas" font-size="12.00">&#45;</text>
<text text-anchor="start" x="40.5" y="-1164.9" font-family="Consolas" font-size="12.00">readonly InputAction</text>
<text text-anchor="start" x="40.5" y="-1151.9" font-family="Consolas" font-size="12.00"> m_UI_Navigate</text>
<text text-anchor="start" x="28.5" y="-1134.9" font-family="Consolas" font-size="12.00">&#45;</text>
<text text-anchor="start" x="40.5" y="-1134.9" font-family="Consolas" font-size="12.00">readonly InputAction</text>
<text text-anchor="start" x="40.5" y="-1121.9" font-family="Consolas" font-size="12.00"> m_UI_Submit</text>
<text text-anchor="start" x="28.5" y="-1104.9" font-family="Consolas" font-size="12.00">&#45;</text>
<text text-anchor="start" x="40.5" y="-1104.9" font-family="Consolas" font-size="12.00">readonly InputAction</text>
<text text-anchor="start" x="40.5" y="-1091.9" font-family="Consolas" font-size="12.00"> m_UI_Cancel</text>
<text text-anchor="start" x="28.5" y="-1074.9" font-family="Consolas" font-size="12.00">&#45;</text>
<text text-anchor="start" x="40.5" y="-1074.9" font-family="Consolas" font-size="12.00">readonly InputAction</text>
<text text-anchor="start" x="40.5" y="-1061.9" font-family="Consolas" font-size="12.00"> m_UI_Point</text>
<text text-anchor="start" x="28.5" y="-1044.9" font-family="Consolas" font-size="12.00">&#45;</text>
<text text-anchor="start" x="40.5" y="-1044.9" font-family="Consolas" font-size="12.00">readonly InputAction</text>
<text text-anchor="start" x="40.5" y="-1031.9" font-family="Consolas" font-size="12.00"> m_UI_Click</text>
<text text-anchor="start" x="28.5" y="-1014.9" font-family="Consolas" font-size="12.00">&#45;</text>
<text text-anchor="start" x="40.5" y="-1014.9" font-family="Consolas" font-size="12.00">readonly InputAction</text>
<text text-anchor="start" x="40.5" y="-1001.9" font-family="Consolas" font-size="12.00"> m_UI_RightClick</text>
<text text-anchor="start" x="28.5" y="-984.9" font-family="Consolas" font-size="12.00">&#45;</text>
<text text-anchor="start" x="40.5" y="-984.9" font-family="Consolas" font-size="12.00">readonly InputAction</text>
<text text-anchor="start" x="40.5" y="-971.9" font-family="Consolas" font-size="12.00"> m_UI_MiddleClick</text>
<text text-anchor="start" x="28.5" y="-954.9" font-family="Consolas" font-size="12.00">&#45;</text>
<text text-anchor="start" x="40.5" y="-954.9" font-family="Consolas" font-size="12.00">readonly InputAction</text>
<text text-anchor="start" x="40.5" y="-941.9" font-family="Consolas" font-size="12.00"> m_UI_ScrollWheel</text>
<text text-anchor="start" x="28.5" y="-924.9" font-family="Consolas" font-size="12.00">&#45;</text>
<text text-anchor="start" x="40.5" y="-924.9" font-family="Consolas" font-size="12.00">readonly InputAction</text>
<text text-anchor="start" x="40.5" y="-911.9" font-family="Consolas" font-size="12.00"> m_UI_TrackedDevicePosition</text>
<text text-anchor="start" x="28.5" y="-894.9" font-family="Consolas" font-size="12.00">&#45;</text>
<text text-anchor="start" x="40.5" y="-894.9" font-family="Consolas" font-size="12.00">readonly InputAction</text>
<text text-anchor="start" x="40.5" y="-881.9" font-family="Consolas" font-size="12.00"> m_UI_TrackedDeviceOrientation</text>
<text text-anchor="start" x="28.5" y="-864.9" font-family="Consolas" font-size="12.00">&#45;</text>
<text text-anchor="start" x="40.5" y="-864.9" font-family="Consolas" font-size="12.00">readonly InputAction</text>
<text text-anchor="start" x="40.5" y="-851.9" font-family="Consolas" font-size="12.00"> m_UI_OpenQuestList</text>
<text text-anchor="start" x="28.5" y="-834.9" font-family="Consolas" font-size="12.00">&#45;</text>
<text text-anchor="start" x="40.5" y="-834.9" font-family="Consolas" font-size="12.00">int m_KeyboardMouseScheme</text>
<text text-anchor="start" x="40.5" y="-821.9" font-family="Consolas" font-size="12.00">Index</text>
<text text-anchor="start" x="28.5" y="-804.9" font-family="Consolas" font-size="12.00">&#45;</text>
<text text-anchor="start" x="40.5" y="-804.9" font-family="Consolas" font-size="12.00">int m_GamepadSchemeIndex</text>
<text text-anchor="start" x="28.5" y="-787.9" font-family="Consolas" font-size="12.00">&#45;</text>
<text text-anchor="start" x="40.5" y="-787.9" font-family="Consolas" font-size="12.00">int m_TouchSchemeIndex</text>
<text text-anchor="start" x="28.5" y="-770.9" font-family="Consolas" font-size="12.00">&#45;</text>
<text text-anchor="start" x="40.5" y="-770.9" font-family="Consolas" font-size="12.00">int m_JoystickSchemeIndex</text>
<text text-anchor="start" x="28.5" y="-753.9" font-family="Consolas" font-size="12.00">&#45;</text>
<text text-anchor="start" x="40.5" y="-753.9" font-family="Consolas" font-size="12.00">int m_XRSchemeIndex</text>
<text text-anchor="start" x="28.5" y="-736.9" font-family="Consolas" font-size="12.00">+</text>
<text text-anchor="start" x="40.5" y="-736.9" font-family="Consolas" font-size="12.00">InputSystem_Actions()</text>
<text text-anchor="start" x="28.5" y="-719.9" font-family="Consolas" font-size="12.00">+</text>
<text text-anchor="start" x="40.5" y="-719.9" font-family="Consolas" font-size="12.00">void Dispose()</text>
<text text-anchor="start" x="28.5" y="-702.9" font-family="Consolas" font-size="12.00">+</text>
<text text-anchor="start" x="40.5" y="-702.9" font-family="Consolas" font-size="12.00">bool Contains(InputAction</text>
<text text-anchor="start" x="40.5" y="-689.9" font-family="Consolas" font-size="12.00"> action)</text>
<text text-anchor="start" x="28.5" y="-672.9" font-family="Consolas" font-size="12.00">+</text>
<text text-anchor="start" x="40.5" y="-672.9" font-family="Consolas" font-size="12.00">IEnumerator&lt; InputAction</text>
<text text-anchor="start" x="40.5" y="-659.9" font-family="Consolas" font-size="12.00"> &gt; GetEnumerator()</text>
<text text-anchor="start" x="28.5" y="-642.9" font-family="Consolas" font-size="12.00">+</text>
<text text-anchor="start" x="40.5" y="-642.9" font-family="Consolas" font-size="12.00">void Enable()</text>
<text text-anchor="start" x="28.5" y="-625.9" font-family="Consolas" font-size="12.00">+</text>
<text text-anchor="start" x="40.5" y="-625.9" font-family="Consolas" font-size="12.00">void Disable()</text>
<text text-anchor="start" x="28.5" y="-608.9" font-family="Consolas" font-size="12.00">+</text>
<text text-anchor="start" x="40.5" y="-608.9" font-family="Consolas" font-size="12.00">InputAction FindAction</text>
<text text-anchor="start" x="40.5" y="-595.9" font-family="Consolas" font-size="12.00">(string actionNameOrId,</text>
<text text-anchor="start" x="40.5" y="-582.9" font-family="Consolas" font-size="12.00"> bool throwIfNotFound=false)</text>
<text text-anchor="start" x="28.5" y="-565.9" font-family="Consolas" font-size="12.00">+</text>
<text text-anchor="start" x="40.5" y="-565.9" font-family="Consolas" font-size="12.00">int FindBinding(InputBinding</text>
<text text-anchor="start" x="40.5" y="-552.9" font-family="Consolas" font-size="12.00"> bindingMask, out InputAction</text>
<text text-anchor="start" x="40.5" y="-539.9" font-family="Consolas" font-size="12.00"> action)</text>
<text text-anchor="start" x="28.5" y="-522.9" font-family="Consolas" font-size="12.00">&#45;</text>
<text text-anchor="start" x="40.5" y="-522.9" font-family="Consolas" font-size="12.00">InputSystem_Actions()</text>
<text text-anchor="start" x="28.5" y="-505.9" font-family="Consolas" font-size="12.00">&#45;</text>
<text text-anchor="start" x="40.5" y="-505.9" font-family="Consolas" font-size="12.00">IEnumerator IEnumerable.</text>
<text text-anchor="start" x="40.5" y="-492.9" font-family="Consolas" font-size="12.00"> GetEnumerator()</text>
<polygon fill="#666666" stroke="#666666" points="24.5,-1861.5 24.5,-1861.5 315.5,-1861.5 315.5,-1861.5 24.5,-1861.5"/>
<polygon fill="#666666" stroke="#666666" points="24.5,-748.5 24.5,-748.5 38.5,-748.5 38.5,-748.5 24.5,-748.5"/>
<polygon fill="#666666" stroke="#666666" points="38.5,-748.5 38.5,-748.5 315.5,-748.5 315.5,-748.5 38.5,-748.5"/>
<polygon fill="none" stroke="#666666" points="24,-486 24,-1881 315,-1881 315,-486 24,-486"/>
</a>
</g>
</g>
<!-- Node2&#45;&gt;Node1 -->
<g id="edge1_Node000001_Node000002" class="edge">
<title>Node2&#45;&gt;Node1</title>
<g id="a_edge1_Node000001_Node000002"><a xlink:title=" ">
<path fill="none" stroke="#63b8ff" d="M169.5,-485.75C169.5,-472.77 169.5,-460.06 169.5,-447.66"/>
<polygon fill="none" stroke="#63b8ff" points="169.5,-447.37 165.5,-441.37 169.5,-435.37 173.5,-441.37 169.5,-447.37"/>
</a>
</g>
<text text-anchor="middle" x="215" y="-456.8" font-family="Consolas" font-size="14.00" fill="grey"> &#45;m_Wrapper</text>
</g>
<!-- Node3 -->
<g id="Node000003" class="node">
<title>Node3</title>
<g id="a_Node000003"><a xlink:title=" ">
<polygon fill="white" stroke="transparent" points="183,-1973 0,-1973 0,-1918 183,-1918 183,-1973"/>
<text text-anchor="start" x="5.5" y="-1958.9" font-family="Consolas" font-size="12.00">IInputActionCollection2</text>
<text text-anchor="start" x="88" y="-1941.9" font-family="Consolas" font-size="12.00"> </text>
<text text-anchor="start" x="88" y="-1924.9" font-family="Consolas" font-size="12.00"> </text>
<polygon fill="#bfbfbf" stroke="#bfbfbf" points="0.5,-1953.5 0.5,-1953.5 183.5,-1953.5 183.5,-1953.5 0.5,-1953.5"/>
<polygon fill="#bfbfbf" stroke="#bfbfbf" points="0.5,-1936.5 0.5,-1936.5 183.5,-1936.5 183.5,-1936.5 0.5,-1936.5"/>
<polygon fill="none" stroke="#bfbfbf" points="0,-1918 0,-1973 183,-1973 183,-1918 0,-1918"/>
</a>
</g>
</g>
<!-- Node3&#45;&gt;Node2 -->
<g id="edge2_Node000002_Node000003" class="edge">
<title>Node3&#45;&gt;Node2</title>
<g id="a_edge2_Node000002_Node000003"><a xlink:title=" ">
<path fill="none" stroke="#63b8ff" d="M95.25,-1907.94C96.05,-1900.13 96.97,-1891.2 97.99,-1881.28"/>
<polygon fill="none" stroke="#63b8ff" points="91.77,-1907.59 94.23,-1917.9 98.73,-1908.31 91.77,-1907.59"/>
</a>
</g>
</g>
<!-- Node4 -->
<g id="Node000004" class="node">
<title>Node4</title>
<g id="a_Node000004"><a xlink:title=" ">
<polygon fill="white" stroke="transparent" points="294,-1973 201,-1973 201,-1918 294,-1918 294,-1973"/>
<text text-anchor="start" x="206.5" y="-1958.9" font-family="Consolas" font-size="12.00">IDisposable</text>
<text text-anchor="start" x="244" y="-1941.9" font-family="Consolas" font-size="12.00"> </text>
<text text-anchor="start" x="244" y="-1924.9" font-family="Consolas" font-size="12.00"> </text>
<polygon fill="#bfbfbf" stroke="#bfbfbf" points="201.5,-1953.5 201.5,-1953.5 294.5,-1953.5 294.5,-1953.5 201.5,-1953.5"/>
<polygon fill="#bfbfbf" stroke="#bfbfbf" points="201.5,-1936.5 201.5,-1936.5 294.5,-1936.5 294.5,-1936.5 201.5,-1936.5"/>
<polygon fill="none" stroke="#bfbfbf" points="201,-1918 201,-1973 294,-1973 294,-1918 201,-1918"/>
</a>
</g>
</g>
<!-- Node4&#45;&gt;Node2 -->
<g id="edge3_Node000002_Node000004" class="edge">
<title>Node4&#45;&gt;Node2</title>
<g id="a_edge3_Node000002_Node000004"><a xlink:title=" ">
<path fill="none" stroke="#63b8ff" d="M243.75,-1907.94C242.95,-1900.13 242.03,-1891.2 241.01,-1881.28"/>
<polygon fill="none" stroke="#63b8ff" points="240.27,-1908.31 244.77,-1917.9 247.23,-1907.59 240.27,-1908.31"/>
</a>
</g>
</g>
</g>
</svg>

<g id="navigator" transform="translate(0 0)" fill="#404254">
  <rect fill="#f2f5e9" fill-opacity="0.5" stroke="#606060" stroke-width=".5" x="0" y="0" width="60" height="60"/>
  <use id="zoomplus" xlink:href="#zoomPlus" x="17" y="9" onmousedown="handleZoom(evt,'in')"/>
  <use id="zoomminus" xlink:href="#zoomMin" x="42" y="9" onmousedown="handleZoom(evt,'out')"/>
  <use id="reset" xlink:href="#resetDef" x="30" y="36" onmousedown="handleReset()"/>
   <use id="arrowup" xlink:href="#arrowUp" x="0" y="0" onmousedown="handlePan(0,-1)"/>
  <use id="arrowright" xlink:href="#arrowRight" x="0" y="0" onmousedown="handlePan(1,0)"/>
  <use id="arrowdown" xlink:href="#arrowDown" x="0" y="0" onmousedown="handlePan(0,1)"/>
  <use id="arrowleft" xlink:href="#arrowLeft" x="0" y="0" onmousedown="handlePan(-1,0)"/>
</g>
<svg viewBox="0 0 15 15" width="100%" height="30px" preserveAspectRatio="xMaxYMin meet">
 <g id="arrow_out" transform="scale(0.3 0.3)">
  <a xlink:href="structInputSystem__Actions_1_1PlayerActions__coll__graph_org.svg" target="_base">
   <rect id="button" ry="5" rx="5" y="6" x="6" height="38" width="38"
        fill="#f2f5e9" fill-opacity="0.5" stroke="#606060" stroke-width="1.0"/>
   <path id="arrow"
     d="M 11.500037,31.436501 C 11.940474,20.09759 22.043105,11.32322 32.158766,21.979434 L 37.068811,17.246167 C 37.068811,17.246167 37.088388,32 37.088388,32 L 22.160133,31.978069 C 22.160133,31.978069 26.997745,27.140456 26.997745,27.140456 C 18.528582,18.264221 13.291696,25.230495 11.500037,31.436501 z"
     style="fill:#404040;"/>
  </a>
 </g>
</svg>

<style type='text/css'>
<![CDATA[
[data-mouse-over-selected='false'] { opacity: 0.7; }
[data-mouse-over-selected='true']  { opacity: 1.0; }
]]>
</style>
<script type="application/ecmascript"><![CDATA[
document.addEventListener('DOMContentLoaded', (event) => {
  highlightEdges();
  highlightAdjacentNodes();
});
]]></script>
</svg>
