<?xml version="1.0" encoding="UTF-8" standalone="no"?>
<!DOCTYPE svg PUBLIC "-//W3C//DTD SVG 1.1//EN"
 "http://www.w3.org/Graphics/SVG/1.1/DTD/svg11.dtd">
<!-- Generated by graphviz version 2.43.0 (0)
 -->
<!-- Title: InputSystem_Actions.PlayerActions.SetCallbacks Pages: 1 -->
<svg width="730pt" height="458pt"
 viewBox="0.00 0.00 730.00 458.00" xmlns="http://www.w3.org/2000/svg" xmlns:xlink="http://www.w3.org/1999/xlink">
<g id="graph0" class="graph" transform="scale(1 1) rotate(0) translate(4 454)">
<title>InputSystem_Actions.PlayerActions.SetCallbacks</title>
<!-- Node1 -->
<g id="Node000001" class="node">
<title>Node1</title>
<g id="a_Node000001"><a xlink:title="Replaces all existing callback instances and previously registered input action callbacks associated ...">
<polygon fill="#999999" stroke="#666666" points="212,-242 0,-242 0,-208 212,-208 212,-242"/>
<text text-anchor="start" x="8" y="-228.4" font-family="Consolas" font-size="12.00">InputSystem_Actions.Player</text>
<text text-anchor="middle" x="106" y="-215.4" font-family="Consolas" font-size="12.00">Actions.SetCallbacks</text>
</a>
</g>
</g>
<!-- Node2 -->
<g id="Node000002" class="node">
<title>Node2</title>
<g id="a_Node000002"><a xlink:href="structInputSystem__Actions_1_1PlayerActions.html#a59ea99548b2f7daf3e3e4343446bff3b" target="_top" xlink:title="Adds InputAction.started, InputAction.performed and InputAction.canceled callbacks provided via &#160;on a...">
<polygon fill="white" stroke="#666666" points="463.5,-268 251.5,-268 251.5,-234 463.5,-234 463.5,-268"/>
<text text-anchor="start" x="259.5" y="-254.4" font-family="Consolas" font-size="12.00">InputSystem_Actions.Player</text>
<text text-anchor="middle" x="357.5" y="-241.4" font-family="Consolas" font-size="12.00">Actions.AddCallbacks</text>
</a>
</g>
</g>
<!-- Node1&#45;&gt;Node2 -->
<g id="edge1_Node000001_Node000002" class="edge">
<title>Node1&#45;&gt;Node2</title>
<g id="a_edge1_Node000001_Node000002"><a xlink:title=" ">
<path fill="none" stroke="#63b8ff" d="M212.09,-235.95C221.68,-236.95 231.42,-237.97 241.09,-238.97"/>
<polygon fill="#63b8ff" stroke="#63b8ff" points="240.83,-242.46 251.13,-240.02 241.55,-235.5 240.83,-242.46"/>
</a>
</g>
</g>
<!-- Node12 -->
<g id="Node000012" class="node">
<title>Node12</title>
<g id="a_Node000012"><a xlink:href="structInputSystem__Actions_1_1PlayerActions.html#ac71abf848f73c76c04a4d8c710ad31c4" target="_top" xlink:title="Removes InputAction.started, InputAction.performed and InputAction.canceled callbacks provided via &#160;o...">
<polygon fill="white" stroke="#666666" points="467,-216 248,-216 248,-182 467,-182 467,-216"/>
<text text-anchor="start" x="256" y="-202.4" font-family="Consolas" font-size="12.00">InputSystem_Actions.Player</text>
<text text-anchor="middle" x="357.5" y="-189.4" font-family="Consolas" font-size="12.00">Actions.UnregisterCallbacks</text>
</a>
</g>
</g>
<!-- Node1&#45;&gt;Node12 -->
<g id="edge11_Node000001_Node000012" class="edge">
<title>Node1&#45;&gt;Node12</title>
<g id="a_edge11_Node000001_Node000012"><a xlink:title=" ">
<path fill="none" stroke="#63b8ff" d="M212.09,-214.05C220.61,-213.16 229.25,-212.26 237.86,-211.36"/>
<polygon fill="#63b8ff" stroke="#63b8ff" points="238.35,-214.83 247.93,-210.31 237.62,-207.87 238.35,-214.83"/>
</a>
</g>
</g>
<!-- Node3 -->
<g id="Node000003" class="node">
<title>Node3</title>
<g id="a_Node000003"><a xlink:href="interfaceInputSystem__Actions_1_1IPlayerActions.html#a39b0cb0611d50c6896516dfd238e8b6b" target="_top" xlink:title="Method invoked when associated input action &quot;Attack&quot; is either UnityEngine.InputSystem....">
<polygon fill="white" stroke="#666666" points="722,-138 503,-138 503,-104 722,-104 722,-138"/>
<text text-anchor="start" x="511" y="-124.4" font-family="Consolas" font-size="12.00">InputSystem_Actions.IPlayer</text>
<text text-anchor="middle" x="612.5" y="-111.4" font-family="Consolas" font-size="12.00">Actions.OnAttack</text>
</a>
</g>
</g>
<!-- Node2&#45;&gt;Node3 -->
<g id="edge2_Node000002_Node000003" class="edge">
<title>Node2&#45;&gt;Node3</title>
<g id="a_edge2_Node000002_Node000003"><a xlink:title=" ">
<path fill="none" stroke="#63b8ff" d="M453.67,-233.91C458.39,-231.33 462.88,-228.38 467,-225 496.52,-200.79 473.48,-171.21 503,-147 504.54,-145.73 506.14,-144.53 507.78,-143.38"/>
<polygon fill="#63b8ff" stroke="#63b8ff" points="509.67,-146.33 516.33,-138.09 505.99,-140.37 509.67,-146.33"/>
</a>
</g>
</g>
<!-- Node4 -->
<g id="Node000004" class="node">
<title>Node4</title>
<g id="a_Node000004"><a xlink:href="interfaceInputSystem__Actions_1_1IPlayerActions.html#ae8238612e5c81988fe9cbd574b250d94" target="_top" xlink:title="Method invoked when associated input action &quot;Crouch&quot; is either UnityEngine.InputSystem....">
<polygon fill="white" stroke="#666666" points="722,-86 503,-86 503,-52 722,-52 722,-86"/>
<text text-anchor="start" x="511" y="-72.4" font-family="Consolas" font-size="12.00">InputSystem_Actions.IPlayer</text>
<text text-anchor="middle" x="612.5" y="-59.4" font-family="Consolas" font-size="12.00">Actions.OnCrouch</text>
</a>
</g>
</g>
<!-- Node2&#45;&gt;Node4 -->
<g id="edge3_Node000002_Node000004" class="edge">
<title>Node2&#45;&gt;Node4</title>
<g id="a_edge3_Node000002_Node000004"><a xlink:title=" ">
<path fill="none" stroke="#63b8ff" d="M455.59,-233.91C459.68,-231.32 463.52,-228.36 467,-225 510.13,-183.35 459.87,-136.65 503,-95 503.98,-94.05 504.99,-93.14 506.02,-92.26"/>
<polygon fill="#63b8ff" stroke="#63b8ff" points="508.43,-94.83 514.41,-86.09 504.28,-89.19 508.43,-94.83"/>
</a>
</g>
</g>
<!-- Node5 -->
<g id="Node000005" class="node">
<title>Node5</title>
<g id="a_Node000005"><a xlink:href="interfaceInputSystem__Actions_1_1IPlayerActions.html#a7f0b3c53ea842fce0b16f0602cb7dd95" target="_top" xlink:title="Method invoked when associated input action &quot;Interact&quot; is either UnityEngine.InputSystem....">
<polygon fill="white" stroke="#666666" points="722,-34 503,-34 503,0 722,0 722,-34"/>
<text text-anchor="start" x="511" y="-20.4" font-family="Consolas" font-size="12.00">InputSystem_Actions.IPlayer</text>
<text text-anchor="middle" x="612.5" y="-7.4" font-family="Consolas" font-size="12.00">Actions.OnInteract</text>
</a>
</g>
</g>
<!-- Node2&#45;&gt;Node5 -->
<g id="edge4_Node000002_Node000005" class="edge">
<title>Node2&#45;&gt;Node5</title>
<g id="a_edge4_Node000002_Node000005"><a xlink:title=" ">
<path fill="none" stroke="#63b8ff" d="M456.38,-233.9C460.21,-231.3 463.78,-228.35 467,-225 524.13,-165.54 445.87,-102.46 503,-43 503.81,-42.16 504.63,-41.35 505.48,-40.56"/>
<polygon fill="#63b8ff" stroke="#63b8ff" points="507.96,-43.06 513.62,-34.1 503.61,-37.58 507.96,-43.06"/>
</a>
</g>
</g>
<!-- Node6 -->
<g id="Node000006" class="node">
<title>Node6</title>
<g id="a_Node000006"><a xlink:href="interfaceInputSystem__Actions_1_1IPlayerActions.html#a8c02484fcb73d1dbd5dc10448dc9e2e8" target="_top" xlink:title="Method invoked when associated input action &quot;Jump&quot; is either UnityEngine.InputSystem....">
<polygon fill="white" stroke="#666666" points="722,-450 503,-450 503,-416 722,-416 722,-450"/>
<text text-anchor="start" x="511" y="-436.4" font-family="Consolas" font-size="12.00">InputSystem_Actions.IPlayer</text>
<text text-anchor="middle" x="612.5" y="-423.4" font-family="Consolas" font-size="12.00">Actions.OnJump</text>
</a>
</g>
</g>
<!-- Node2&#45;&gt;Node6 -->
<g id="edge5_Node000002_Node000006" class="edge">
<title>Node2&#45;&gt;Node6</title>
<g id="a_edge5_Node000002_Node000006"><a xlink:title=" ">
<path fill="none" stroke="#63b8ff" d="M369.27,-268.16C390.6,-300.62 441.5,-371.02 503,-407 506.02,-408.77 509.15,-410.41 512.36,-411.95"/>
<polygon fill="#63b8ff" stroke="#63b8ff" points="511.05,-415.19 521.61,-415.98 513.85,-408.77 511.05,-415.19"/>
</a>
</g>
</g>
<!-- Node7 -->
<g id="Node000007" class="node">
<title>Node7</title>
<g id="a_Node000007"><a xlink:href="interfaceInputSystem__Actions_1_1IPlayerActions.html#a5828287711e7c7b683c048dbb62bb349" target="_top" xlink:title="Method invoked when associated input action &quot;Look&quot; is either UnityEngine.InputSystem....">
<polygon fill="white" stroke="#666666" points="722,-398 503,-398 503,-364 722,-364 722,-398"/>
<text text-anchor="start" x="511" y="-384.4" font-family="Consolas" font-size="12.00">InputSystem_Actions.IPlayer</text>
<text text-anchor="middle" x="612.5" y="-371.4" font-family="Consolas" font-size="12.00">Actions.OnLook</text>
</a>
</g>
</g>
<!-- Node2&#45;&gt;Node7 -->
<g id="edge6_Node000002_Node000007" class="edge">
<title>Node2&#45;&gt;Node7</title>
<g id="a_edge6_Node000002_Node000007"><a xlink:title=" ">
<path fill="none" stroke="#63b8ff" d="M377.08,-268.09C403.22,-291.22 453.26,-332.22 503,-355 507.39,-357.01 511.96,-358.88 516.62,-360.61"/>
<polygon fill="#63b8ff" stroke="#63b8ff" points="515.71,-364 526.31,-363.97 518.01,-357.39 515.71,-364"/>
</a>
</g>
</g>
<!-- Node8 -->
<g id="Node000008" class="node">
<title>Node8</title>
<g id="a_Node000008"><a xlink:href="interfaceInputSystem__Actions_1_1IPlayerActions.html#ab3366dfc3e68c0bf3ea3ceacd9c3a3d4" target="_top" xlink:title="Method invoked when associated input action &quot;Move&quot; is either UnityEngine.InputSystem....">
<polygon fill="white" stroke="#666666" points="722,-346 503,-346 503,-312 722,-312 722,-346"/>
<text text-anchor="start" x="511" y="-332.4" font-family="Consolas" font-size="12.00">InputSystem_Actions.IPlayer</text>
<text text-anchor="middle" x="612.5" y="-319.4" font-family="Consolas" font-size="12.00">Actions.OnMove</text>
</a>
</g>
</g>
<!-- Node2&#45;&gt;Node8 -->
<g id="edge7_Node000002_Node000008" class="edge">
<title>Node2&#45;&gt;Node8</title>
<g id="a_edge7_Node000002_Node000008"><a xlink:title=" ">
<path fill="none" stroke="#63b8ff" d="M402.03,-268.08C430.5,-278.9 468.64,-292.73 503,-303 510.37,-305.2 518.07,-307.35 525.81,-309.4"/>
<polygon fill="#63b8ff" stroke="#63b8ff" points="525.07,-312.82 535.63,-311.95 526.83,-306.05 525.07,-312.82"/>
</a>
</g>
</g>
<!-- Node9 -->
<g id="Node000009" class="node">
<title>Node9</title>
<g id="a_Node000009"><a xlink:href="interfaceInputSystem__Actions_1_1IPlayerActions.html#a9948265572e31aaf0f0ae94949cbb07a" target="_top" xlink:title="Method invoked when associated input action &quot;Next&quot; is either UnityEngine.InputSystem....">
<polygon fill="white" stroke="#666666" points="722,-294 503,-294 503,-260 722,-260 722,-294"/>
<text text-anchor="start" x="511" y="-280.4" font-family="Consolas" font-size="12.00">InputSystem_Actions.IPlayer</text>
<text text-anchor="middle" x="612.5" y="-267.4" font-family="Consolas" font-size="12.00">Actions.OnNext</text>
</a>
</g>
</g>
<!-- Node2&#45;&gt;Node9 -->
<g id="edge8_Node000002_Node000009" class="edge">
<title>Node2&#45;&gt;Node9</title>
<g id="a_edge8_Node000002_Node000009"><a xlink:title=" ">
<path fill="none" stroke="#63b8ff" d="M463.6,-261.8C473.17,-262.78 482.91,-263.79 492.59,-264.78"/>
<polygon fill="#63b8ff" stroke="#63b8ff" points="492.34,-268.27 502.65,-265.81 493.06,-261.31 492.34,-268.27"/>
</a>
</g>
</g>
<!-- Node10 -->
<g id="Node000010" class="node">
<title>Node10</title>
<g id="a_Node000010"><a xlink:href="interfaceInputSystem__Actions_1_1IPlayerActions.html#a2600ce746566d91acb2e1f182860966e" target="_top" xlink:title="Method invoked when associated input action &quot;Previous&quot; is either UnityEngine.InputSystem....">
<polygon fill="white" stroke="#666666" points="722,-242 503,-242 503,-208 722,-208 722,-242"/>
<text text-anchor="start" x="511" y="-228.4" font-family="Consolas" font-size="12.00">InputSystem_Actions.IPlayer</text>
<text text-anchor="middle" x="612.5" y="-215.4" font-family="Consolas" font-size="12.00">Actions.OnPrevious</text>
</a>
</g>
</g>
<!-- Node2&#45;&gt;Node10 -->
<g id="edge9_Node000002_Node000010" class="edge">
<title>Node2&#45;&gt;Node10</title>
<g id="a_edge9_Node000002_Node000010"><a xlink:title=" ">
<path fill="none" stroke="#63b8ff" d="M463.6,-240.2C473.17,-239.22 482.91,-238.21 492.59,-237.22"/>
<polygon fill="#63b8ff" stroke="#63b8ff" points="493.06,-240.69 502.65,-236.19 492.34,-233.73 493.06,-240.69"/>
</a>
</g>
</g>
<!-- Node11 -->
<g id="Node000011" class="node">
<title>Node11</title>
<g id="a_Node000011"><a xlink:href="interfaceInputSystem__Actions_1_1IPlayerActions.html#a769fd450b41670da338dc68f7b02b1ec" target="_top" xlink:title="Method invoked when associated input action &quot;Sprint&quot; is either UnityEngine.InputSystem....">
<polygon fill="white" stroke="#666666" points="722,-190 503,-190 503,-156 722,-156 722,-190"/>
<text text-anchor="start" x="511" y="-176.4" font-family="Consolas" font-size="12.00">InputSystem_Actions.IPlayer</text>
<text text-anchor="middle" x="612.5" y="-163.4" font-family="Consolas" font-size="12.00">Actions.OnSprint</text>
</a>
</g>
</g>
<!-- Node2&#45;&gt;Node11 -->
<g id="edge10_Node000002_Node000011" class="edge">
<title>Node2&#45;&gt;Node11</title>
<g id="a_edge10_Node000002_Node000011"><a xlink:title=" ">
<path fill="none" stroke="#63b8ff" d="M443.7,-233.98C451.72,-231.37 459.61,-228.39 467,-225 484.94,-216.77 485.06,-207.23 503,-199 507.39,-196.98 511.95,-195.12 516.62,-193.38"/>
<polygon fill="#63b8ff" stroke="#63b8ff" points="518.01,-196.61 526.3,-190.02 515.71,-189.99 518.01,-196.61"/>
</a>
</g>
</g>
<!-- Node12&#45;&gt;Node3 -->
<g id="edge12_Node000012_Node000003" class="edge">
<title>Node12&#45;&gt;Node3</title>
<g id="a_edge12_Node000012_Node000003"><a xlink:title=" ">
<path fill="none" stroke="#63b8ff" d="M402.03,-181.92C430.5,-171.1 468.64,-157.27 503,-147 510.37,-144.8 518.07,-142.65 525.81,-140.6"/>
<polygon fill="#63b8ff" stroke="#63b8ff" points="526.83,-143.95 535.63,-138.05 525.07,-137.18 526.83,-143.95"/>
</a>
</g>
</g>
<!-- Node12&#45;&gt;Node4 -->
<g id="edge13_Node000012_Node000004" class="edge">
<title>Node12&#45;&gt;Node4</title>
<g id="a_edge13_Node000012_Node000004"><a xlink:title=" ">
<path fill="none" stroke="#63b8ff" d="M377.08,-181.91C403.22,-158.78 453.26,-117.78 503,-95 507.39,-92.99 511.96,-91.12 516.62,-89.39"/>
<polygon fill="#63b8ff" stroke="#63b8ff" points="518.01,-92.61 526.31,-86.03 515.71,-86 518.01,-92.61"/>
</a>
</g>
</g>
<!-- Node12&#45;&gt;Node5 -->
<g id="edge14_Node000012_Node000005" class="edge">
<title>Node12&#45;&gt;Node5</title>
<g id="a_edge14_Node000012_Node000005"><a xlink:title=" ">
<path fill="none" stroke="#63b8ff" d="M369.27,-181.84C390.6,-149.38 441.5,-78.98 503,-43 506.02,-41.23 509.15,-39.59 512.36,-38.05"/>
<polygon fill="#63b8ff" stroke="#63b8ff" points="513.85,-41.23 521.61,-34.02 511.05,-34.81 513.85,-41.23"/>
</a>
</g>
</g>
<!-- Node12&#45;&gt;Node6 -->
<g id="edge15_Node000012_Node000006" class="edge">
<title>Node12&#45;&gt;Node6</title>
<g id="a_edge15_Node000012_Node000006"><a xlink:title=" ">
<path fill="none" stroke="#63b8ff" d="M456.38,-216.1C460.21,-218.7 463.78,-221.65 467,-225 524.13,-284.46 445.87,-347.54 503,-407 503.81,-407.84 504.63,-408.65 505.48,-409.44"/>
<polygon fill="#63b8ff" stroke="#63b8ff" points="503.61,-412.42 513.62,-415.9 507.96,-406.94 503.61,-412.42"/>
</a>
</g>
</g>
<!-- Node12&#45;&gt;Node7 -->
<g id="edge16_Node000012_Node000007" class="edge">
<title>Node12&#45;&gt;Node7</title>
<g id="a_edge16_Node000012_Node000007"><a xlink:title=" ">
<path fill="none" stroke="#63b8ff" d="M455.59,-216.09C459.68,-218.68 463.52,-221.64 467,-225 510.13,-266.65 459.87,-313.35 503,-355 503.98,-355.95 504.99,-356.86 506.02,-357.74"/>
<polygon fill="#63b8ff" stroke="#63b8ff" points="504.28,-360.81 514.41,-363.91 508.43,-355.17 504.28,-360.81"/>
</a>
</g>
</g>
<!-- Node12&#45;&gt;Node8 -->
<g id="edge17_Node000012_Node000008" class="edge">
<title>Node12&#45;&gt;Node8</title>
<g id="a_edge17_Node000012_Node000008"><a xlink:title=" ">
<path fill="none" stroke="#63b8ff" d="M453.67,-216.09C458.39,-218.67 462.88,-221.62 467,-225 496.52,-249.21 473.48,-278.79 503,-303 504.54,-304.27 506.14,-305.47 507.78,-306.62"/>
<polygon fill="#63b8ff" stroke="#63b8ff" points="505.99,-309.63 516.33,-311.91 509.67,-303.67 505.99,-309.63"/>
</a>
</g>
</g>
<!-- Node12&#45;&gt;Node9 -->
<g id="edge18_Node000012_Node000009" class="edge">
<title>Node12&#45;&gt;Node9</title>
<g id="a_edge18_Node000012_Node000009"><a xlink:title=" ">
<path fill="none" stroke="#63b8ff" d="M443.7,-216.02C451.72,-218.63 459.61,-221.61 467,-225 484.94,-233.23 485.06,-242.77 503,-251 507.39,-253.02 511.95,-254.88 516.62,-256.62"/>
<polygon fill="#63b8ff" stroke="#63b8ff" points="515.71,-260.01 526.3,-259.98 518.01,-253.39 515.71,-260.01"/>
</a>
</g>
</g>
<!-- Node12&#45;&gt;Node10 -->
<g id="edge19_Node000012_Node000010" class="edge">
<title>Node12&#45;&gt;Node10</title>
<g id="a_edge19_Node000012_Node000010"><a xlink:title=" ">
<path fill="none" stroke="#63b8ff" d="M467.26,-210.18C475.73,-211.05 484.31,-211.93 492.84,-212.81"/>
<polygon fill="#63b8ff" stroke="#63b8ff" points="492.52,-216.29 502.83,-213.83 493.24,-209.33 492.52,-216.29"/>
</a>
</g>
</g>
<!-- Node12&#45;&gt;Node11 -->
<g id="edge20_Node000012_Node000011" class="edge">
<title>Node12&#45;&gt;Node11</title>
<g id="a_edge20_Node000012_Node000011"><a xlink:title=" ">
<path fill="none" stroke="#63b8ff" d="M467.26,-187.82C475.73,-186.95 484.31,-186.07 492.84,-185.19"/>
<polygon fill="#63b8ff" stroke="#63b8ff" points="493.24,-188.67 502.83,-184.17 492.52,-181.71 493.24,-188.67"/>
</a>
</g>
</g>
</g>
</svg>
