<?xml version="1.0" encoding="UTF-8" standalone="no"?>
<!DOCTYPE svg PUBLIC "-//W3C//DTD SVG 1.1//EN"
 "http://www.w3.org/Graphics/SVG/1.1/DTD/svg11.dtd">
<!-- Generated by graphviz version 2.43.0 (0)
 -->
<!-- Title: InputSystem_Actions.UIActions.RemoveCallbacks Pages: 1 -->
<svg width="813pt" height="562pt"
 viewBox="0.00 0.00 813.00 562.00" xmlns="http://www.w3.org/2000/svg" xmlns:xlink="http://www.w3.org/1999/xlink">
<g id="graph0" class="graph" transform="scale(1 1) rotate(0) translate(4 558)">
<title>InputSystem_Actions.UIActions.RemoveCallbacks</title>
<!-- Node1 -->
<g id="Node000001" class="node">
<title>Node1</title>
<g id="a_Node000001"><a xlink:title="Unregisters &#160;and unregisters all input action callbacks via UIActions.UnregisterCallbacks(IUIActions)...">
<polygon fill="#999999" stroke="#666666" points="242,-294 0,-294 0,-260 242,-260 242,-294"/>
<text text-anchor="start" x="8" y="-280.4" font-family="Consolas" font-size="12.00">InputSystem_Actions.UIActions.</text>
<text text-anchor="middle" x="121" y="-267.4" font-family="Consolas" font-size="12.00">RemoveCallbacks</text>
</a>
</g>
</g>
<!-- Node2 -->
<g id="Node000002" class="node">
<title>Node2</title>
<g id="a_Node000002"><a xlink:href="structInputSystem__Actions_1_1UIActions.html#a6d31b90e80f7d5792ee21911a7ceb10c" target="_top" xlink:title="Removes InputAction.started, InputAction.performed and InputAction.canceled callbacks provided via &#160;o...">
<polygon fill="white" stroke="#666666" points="520,-294 278,-294 278,-260 520,-260 520,-294"/>
<text text-anchor="start" x="286" y="-280.4" font-family="Consolas" font-size="12.00">InputSystem_Actions.UIActions.</text>
<text text-anchor="middle" x="399" y="-267.4" font-family="Consolas" font-size="12.00">UnregisterCallbacks</text>
</a>
</g>
</g>
<!-- Node1&#45;&gt;Node2 -->
<g id="edge1_Node000001_Node000002" class="edge">
<title>Node1&#45;&gt;Node2</title>
<g id="a_edge1_Node000001_Node000002"><a xlink:title=" ">
<path fill="none" stroke="#63b8ff" d="M242.25,-277C250.62,-277 259.07,-277 267.49,-277"/>
<polygon fill="#63b8ff" stroke="#63b8ff" points="267.73,-280.5 277.73,-277 267.73,-273.5 267.73,-280.5"/>
</a>
</g>
</g>
<!-- Node3 -->
<g id="Node000003" class="node">
<title>Node3</title>
<g id="a_Node000003"><a xlink:href="interfaceInputSystem__Actions_1_1IUIActions.html#af8352258056e7a4e739423da913d2af7" target="_top" xlink:title="Method invoked when associated input action &quot;Cancel&quot; is either UnityEngine.InputSystem....">
<polygon fill="white" stroke="#666666" points="805,-554 556,-554 556,-520 805,-520 805,-554"/>
<text text-anchor="start" x="564" y="-540.4" font-family="Consolas" font-size="12.00">InputSystem_Actions.IUIActions.</text>
<text text-anchor="middle" x="680.5" y="-527.4" font-family="Consolas" font-size="12.00">OnCancel</text>
</a>
</g>
</g>
<!-- Node2&#45;&gt;Node3 -->
<g id="edge2_Node000002_Node000003" class="edge">
<title>Node2&#45;&gt;Node3</title>
<g id="a_edge2_Node000002_Node000003"><a xlink:title=" ">
<path fill="none" stroke="#63b8ff" d="M406.12,-294.16C422.7,-338.02 472.92,-454.75 556,-511 558.18,-512.48 560.43,-513.87 562.74,-515.19"/>
<polygon fill="#63b8ff" stroke="#63b8ff" points="561.4,-518.44 571.89,-519.91 564.61,-512.22 561.4,-518.44"/>
</a>
</g>
</g>
<!-- Node4 -->
<g id="Node000004" class="node">
<title>Node4</title>
<g id="a_Node000004"><a xlink:href="interfaceInputSystem__Actions_1_1IUIActions.html#a2e15203b76caefffdb28ae5c8496d31f" target="_top" xlink:title="Method invoked when associated input action &quot;Click&quot; is either UnityEngine.InputSystem....">
<polygon fill="white" stroke="#666666" points="805,-502 556,-502 556,-468 805,-468 805,-502"/>
<text text-anchor="start" x="564" y="-488.4" font-family="Consolas" font-size="12.00">InputSystem_Actions.IUIActions.</text>
<text text-anchor="middle" x="680.5" y="-475.4" font-family="Consolas" font-size="12.00">OnClick</text>
</a>
</g>
</g>
<!-- Node2&#45;&gt;Node4 -->
<g id="edge3_Node000002_Node000004" class="edge">
<title>Node2&#45;&gt;Node4</title>
<g id="a_edge3_Node000002_Node000004"><a xlink:title=" ">
<path fill="none" stroke="#63b8ff" d="M409.32,-294.05C430.28,-330.66 484.93,-416.9 556,-459 558.87,-460.7 561.85,-462.3 564.89,-463.78"/>
<polygon fill="#63b8ff" stroke="#63b8ff" points="563.67,-467.07 574.22,-467.95 566.52,-460.68 563.67,-467.07"/>
</a>
</g>
</g>
<!-- Node5 -->
<g id="Node000005" class="node">
<title>Node5</title>
<g id="a_Node000005"><a xlink:href="interfaceInputSystem__Actions_1_1IUIActions.html#a6f04afa3fb662596342c8e4cecac2026" target="_top" xlink:title="Method invoked when associated input action &quot;MiddleClick&quot; is either UnityEngine.InputSystem....">
<polygon fill="white" stroke="#666666" points="805,-450 556,-450 556,-416 805,-416 805,-450"/>
<text text-anchor="start" x="564" y="-436.4" font-family="Consolas" font-size="12.00">InputSystem_Actions.IUIActions.</text>
<text text-anchor="middle" x="680.5" y="-423.4" font-family="Consolas" font-size="12.00">OnMiddleClick</text>
</a>
</g>
</g>
<!-- Node2&#45;&gt;Node5 -->
<g id="edge4_Node000002_Node000005" class="edge">
<title>Node2&#45;&gt;Node5</title>
<g id="a_edge4_Node000002_Node000005"><a xlink:title=" ">
<path fill="none" stroke="#63b8ff" d="M415.38,-294.43C441.38,-322.74 496.99,-378.41 556,-407 560.05,-408.96 564.24,-410.77 568.53,-412.45"/>
<polygon fill="#63b8ff" stroke="#63b8ff" points="567.45,-415.78 578.05,-415.91 569.84,-409.2 567.45,-415.78"/>
</a>
</g>
</g>
<!-- Node6 -->
<g id="Node000006" class="node">
<title>Node6</title>
<g id="a_Node000006"><a xlink:href="interfaceInputSystem__Actions_1_1IUIActions.html#ad7305d72df07cdab2242ff388eeed17f" target="_top" xlink:title="Method invoked when associated input action &quot;Navigate&quot; is either UnityEngine.InputSystem....">
<polygon fill="white" stroke="#666666" points="805,-398 556,-398 556,-364 805,-364 805,-398"/>
<text text-anchor="start" x="564" y="-384.4" font-family="Consolas" font-size="12.00">InputSystem_Actions.IUIActions.</text>
<text text-anchor="middle" x="680.5" y="-371.4" font-family="Consolas" font-size="12.00">OnNavigate</text>
</a>
</g>
</g>
<!-- Node2&#45;&gt;Node6 -->
<g id="edge5_Node000002_Node000006" class="edge">
<title>Node2&#45;&gt;Node6</title>
<g id="a_edge5_Node000002_Node000006"><a xlink:title=" ">
<path fill="none" stroke="#63b8ff" d="M428.64,-294.13C459.21,-311.74 509.54,-338.8 556,-355 562.39,-357.23 569.04,-359.3 575.8,-361.22"/>
<polygon fill="#63b8ff" stroke="#63b8ff" points="575.17,-364.68 585.74,-363.92 577.01,-357.92 575.17,-364.68"/>
</a>
</g>
</g>
<!-- Node7 -->
<g id="Node000007" class="node">
<title>Node7</title>
<g id="a_Node000007"><a xlink:href="interfaceInputSystem__Actions_1_1IUIActions.html#ab2e7ee4e80c47aaeb3bf48643e54bf60" target="_top" xlink:title="Method invoked when associated input action &quot;OpenQuestList&quot; is either UnityEngine....">
<polygon fill="white" stroke="#666666" points="805,-346 556,-346 556,-312 805,-312 805,-346"/>
<text text-anchor="start" x="564" y="-332.4" font-family="Consolas" font-size="12.00">InputSystem_Actions.IUIActions.</text>
<text text-anchor="middle" x="680.5" y="-319.4" font-family="Consolas" font-size="12.00">OnOpenQuestList</text>
</a>
</g>
</g>
<!-- Node2&#45;&gt;Node7 -->
<g id="edge6_Node000002_Node000007" class="edge">
<title>Node2&#45;&gt;Node7</title>
<g id="a_edge6_Node000002_Node000007"><a xlink:title=" ">
<path fill="none" stroke="#63b8ff" d="M491.52,-294.03C519.15,-299.17 549.64,-304.84 577.89,-310.1"/>
<polygon fill="#63b8ff" stroke="#63b8ff" points="577.3,-313.55 587.78,-311.94 578.58,-306.66 577.3,-313.55"/>
</a>
</g>
</g>
<!-- Node8 -->
<g id="Node000008" class="node">
<title>Node8</title>
<g id="a_Node000008"><a xlink:href="interfaceInputSystem__Actions_1_1IUIActions.html#a7d5fc7dca9b8decf4bc36755b640ec4b" target="_top" xlink:title="Method invoked when associated input action &quot;Point&quot; is either UnityEngine.InputSystem....">
<polygon fill="white" stroke="#666666" points="805,-294 556,-294 556,-260 805,-260 805,-294"/>
<text text-anchor="start" x="564" y="-280.4" font-family="Consolas" font-size="12.00">InputSystem_Actions.IUIActions.</text>
<text text-anchor="middle" x="680.5" y="-267.4" font-family="Consolas" font-size="12.00">OnPoint</text>
</a>
</g>
</g>
<!-- Node2&#45;&gt;Node8 -->
<g id="edge7_Node000002_Node000008" class="edge">
<title>Node2&#45;&gt;Node8</title>
<g id="a_edge7_Node000002_Node000008"><a xlink:title=" ">
<path fill="none" stroke="#63b8ff" d="M520.16,-277C528.66,-277 537.27,-277 545.84,-277"/>
<polygon fill="#63b8ff" stroke="#63b8ff" points="545.89,-280.5 555.89,-277 545.89,-273.5 545.89,-280.5"/>
</a>
</g>
</g>
<!-- Node9 -->
<g id="Node000009" class="node">
<title>Node9</title>
<g id="a_Node000009"><a xlink:href="interfaceInputSystem__Actions_1_1IUIActions.html#afd8115309dad12c7cc42eb839cdfc1a1" target="_top" xlink:title="Method invoked when associated input action &quot;RightClick&quot; is either UnityEngine.InputSystem....">
<polygon fill="white" stroke="#666666" points="805,-242 556,-242 556,-208 805,-208 805,-242"/>
<text text-anchor="start" x="564" y="-228.4" font-family="Consolas" font-size="12.00">InputSystem_Actions.IUIActions.</text>
<text text-anchor="middle" x="680.5" y="-215.4" font-family="Consolas" font-size="12.00">OnRightClick</text>
</a>
</g>
</g>
<!-- Node2&#45;&gt;Node9 -->
<g id="edge8_Node000002_Node000009" class="edge">
<title>Node2&#45;&gt;Node9</title>
<g id="a_edge8_Node000002_Node000009"><a xlink:title=" ">
<path fill="none" stroke="#63b8ff" d="M491.52,-259.97C519.15,-254.83 549.64,-249.16 577.89,-243.9"/>
<polygon fill="#63b8ff" stroke="#63b8ff" points="578.58,-247.34 587.78,-242.06 577.3,-240.45 578.58,-247.34"/>
</a>
</g>
</g>
<!-- Node10 -->
<g id="Node000010" class="node">
<title>Node10</title>
<g id="a_Node000010"><a xlink:href="interfaceInputSystem__Actions_1_1IUIActions.html#ac67a6da79f37a46d7d557122c8fa854a" target="_top" xlink:title="Method invoked when associated input action &quot;ScrollWheel&quot; is either UnityEngine.InputSystem....">
<polygon fill="white" stroke="#666666" points="805,-190 556,-190 556,-156 805,-156 805,-190"/>
<text text-anchor="start" x="564" y="-176.4" font-family="Consolas" font-size="12.00">InputSystem_Actions.IUIActions.</text>
<text text-anchor="middle" x="680.5" y="-163.4" font-family="Consolas" font-size="12.00">OnScrollWheel</text>
</a>
</g>
</g>
<!-- Node2&#45;&gt;Node10 -->
<g id="edge9_Node000002_Node000010" class="edge">
<title>Node2&#45;&gt;Node10</title>
<g id="a_edge9_Node000002_Node000010"><a xlink:title=" ">
<path fill="none" stroke="#63b8ff" d="M428.64,-259.87C459.21,-242.26 509.54,-215.2 556,-199 562.39,-196.77 569.04,-194.7 575.8,-192.78"/>
<polygon fill="#63b8ff" stroke="#63b8ff" points="577.01,-196.08 585.74,-190.08 575.17,-189.32 577.01,-196.08"/>
</a>
</g>
</g>
<!-- Node11 -->
<g id="Node000011" class="node">
<title>Node11</title>
<g id="a_Node000011"><a xlink:href="interfaceInputSystem__Actions_1_1IUIActions.html#a694993137e26248e8f559b1d9ca2c00f" target="_top" xlink:title="Method invoked when associated input action &quot;Submit&quot; is either UnityEngine.InputSystem....">
<polygon fill="white" stroke="#666666" points="805,-138 556,-138 556,-104 805,-104 805,-138"/>
<text text-anchor="start" x="564" y="-124.4" font-family="Consolas" font-size="12.00">InputSystem_Actions.IUIActions.</text>
<text text-anchor="middle" x="680.5" y="-111.4" font-family="Consolas" font-size="12.00">OnSubmit</text>
</a>
</g>
</g>
<!-- Node2&#45;&gt;Node11 -->
<g id="edge10_Node000002_Node000011" class="edge">
<title>Node2&#45;&gt;Node11</title>
<g id="a_edge10_Node000002_Node000011"><a xlink:title=" ">
<path fill="none" stroke="#63b8ff" d="M415.38,-259.57C441.38,-231.26 496.99,-175.59 556,-147 560.05,-145.04 564.24,-143.23 568.53,-141.55"/>
<polygon fill="#63b8ff" stroke="#63b8ff" points="569.84,-144.8 578.05,-138.09 567.45,-138.22 569.84,-144.8"/>
</a>
</g>
</g>
<!-- Node12 -->
<g id="Node000012" class="node">
<title>Node12</title>
<g id="a_Node000012"><a xlink:href="interfaceInputSystem__Actions_1_1IUIActions.html#a807910f51931e0f9c6d5f710876a330a" target="_top" xlink:title="Method invoked when associated input action &quot;TrackedDeviceOrientation&quot; is either UnityEngine....">
<polygon fill="white" stroke="#666666" points="805,-86 556,-86 556,-52 805,-52 805,-86"/>
<text text-anchor="start" x="564" y="-72.4" font-family="Consolas" font-size="12.00">InputSystem_Actions.IUIActions.</text>
<text text-anchor="middle" x="680.5" y="-59.4" font-family="Consolas" font-size="12.00">OnTrackedDeviceOrientation</text>
</a>
</g>
</g>
<!-- Node2&#45;&gt;Node12 -->
<g id="edge11_Node000002_Node000012" class="edge">
<title>Node2&#45;&gt;Node12</title>
<g id="a_edge11_Node000002_Node000012"><a xlink:title=" ">
<path fill="none" stroke="#63b8ff" d="M409.32,-259.95C430.28,-223.34 484.93,-137.1 556,-95 558.87,-93.3 561.85,-91.7 564.89,-90.22"/>
<polygon fill="#63b8ff" stroke="#63b8ff" points="566.52,-93.32 574.22,-86.05 563.67,-86.93 566.52,-93.32"/>
</a>
</g>
</g>
<!-- Node13 -->
<g id="Node000013" class="node">
<title>Node13</title>
<g id="a_Node000013"><a xlink:href="interfaceInputSystem__Actions_1_1IUIActions.html#af13b368c4029601c8622cb54d2263bff" target="_top" xlink:title="Method invoked when associated input action &quot;TrackedDevicePosition&quot; is either UnityEngine....">
<polygon fill="white" stroke="#666666" points="805,-34 556,-34 556,0 805,0 805,-34"/>
<text text-anchor="start" x="564" y="-20.4" font-family="Consolas" font-size="12.00">InputSystem_Actions.IUIActions.</text>
<text text-anchor="middle" x="680.5" y="-7.4" font-family="Consolas" font-size="12.00">OnTrackedDevicePosition</text>
</a>
</g>
</g>
<!-- Node2&#45;&gt;Node13 -->
<g id="edge12_Node000002_Node000013" class="edge">
<title>Node2&#45;&gt;Node13</title>
<g id="a_edge12_Node000002_Node000013"><a xlink:title=" ">
<path fill="none" stroke="#63b8ff" d="M406.12,-259.84C422.7,-215.98 472.92,-99.25 556,-43 558.18,-41.52 560.43,-40.13 562.74,-38.81"/>
<polygon fill="#63b8ff" stroke="#63b8ff" points="564.61,-41.78 571.89,-34.09 561.4,-35.56 564.61,-41.78"/>
</a>
</g>
</g>
</g>
</svg>
