<?xml version="1.0" encoding="UTF-8" standalone="no"?>
<!DOCTYPE svg PUBLIC "-//W3C//DTD SVG 1.1//EN"
 "http://www.w3.org/Graphics/SVG/1.1/DTD/svg11.dtd">
<!-- Generated by graphviz version 12.2.1 (20241206.2353)
 -->
<!-- Title: InventoryItemUI.Setup Pages: 1 -->
<svg width="469pt" height="40pt"
 viewBox="0.00 0.00 469.25 40.00" xmlns="http://www.w3.org/2000/svg" xmlns:xlink="http://www.w3.org/1999/xlink">
<g id="graph0" class="graph" transform="scale(1 1) rotate(0) translate(4 36)">
<title>InventoryItemUI.Setup</title>
<!-- Node1 -->
<g id="Node000001" class="node">
<title>Node1</title>
<g id="a_Node000001"><a xlink:title="StoredItem 데이터를 받아 UI를 초기화합니다.">
<polygon fill="#999999" stroke="#666666" points="115,-26 0,-26 0,-6 115,-6 115,-26"/>
<text text-anchor="middle" x="57.5" y="-12.5" font-family="Helvetica,sans-Serif" font-size="10.00">InventoryItemUI.Setup</text>
</a>
</g>
</g>
<!-- Node2 -->
<g id="Node000002" class="node">
<title>Node2</title>
<g id="a_Node000002"><a xlink:href="class_tradable_item.html#ab67b178b6fde23d719e4a20964e58499" target="_top" xlink:title="현재 가격을 반환합니다. 아직 초기화되지 않았다면 RecalculatePrice()를 호출하여 basePrice ± fluctuation 범위에서 랜덤으로 결정한 후,...">
<polygon fill="white" stroke="#666666" points="297.5,-26 151,-26 151,-6 297.5,-6 297.5,-26"/>
<text text-anchor="middle" x="224.25" y="-12.5" font-family="Helvetica,sans-Serif" font-size="10.00">TradableItem.GetCurrentPrice</text>
</a>
</g>
</g>
<!-- Node1&#45;&gt;Node2 -->
<g id="edge1_Node000001_Node000002" class="edge">
<title>Node1&#45;&gt;Node2</title>
<g id="a_edge1_Node000001_Node000002"><a xlink:title=" ">
<path fill="none" stroke="#63b8ff" d="M115.2,-16C122.98,-16 131.1,-16 139.24,-16"/>
<polygon fill="#63b8ff" stroke="#63b8ff" points="139.22,-19.5 149.22,-16 139.22,-12.5 139.22,-19.5"/>
</a>
</g>
</g>
<!-- Node3 -->
<g id="Node000003" class="node">
<title>Node3</title>
<g id="a_Node000003"><a xlink:href="class_tradable_item.html#a489fb9d4a846f4e4f0fc245c1eb39a29" target="_top" xlink:title="외부에서 가격을 갱신할 필요가 있을 때 호출합니다. basePrice ± fluctuation 범위 내에서 새로 랜덤으로 가격을 계산합니다. 음수가 되지 않도록 보정합니다.">
<polygon fill="white" stroke="#666666" points="461.25,-32 333.5,-32 333.5,0 461.25,0 461.25,-32"/>
<text text-anchor="start" x="341.5" y="-18.5" font-family="Helvetica,sans-Serif" font-size="10.00">TradableItem.Recalculate</text>
<text text-anchor="middle" x="397.38" y="-6.5" font-family="Helvetica,sans-Serif" font-size="10.00">Price</text>
</a>
</g>
</g>
<!-- Node2&#45;&gt;Node3 -->
<g id="edge2_Node000002_Node000003" class="edge">
<title>Node2&#45;&gt;Node3</title>
<g id="a_edge2_Node000002_Node000003"><a xlink:title=" ">
<path fill="none" stroke="#63b8ff" d="M297.82,-16C305.72,-16 313.76,-16 321.68,-16"/>
<polygon fill="#63b8ff" stroke="#63b8ff" points="321.65,-19.5 331.65,-16 321.65,-12.5 321.65,-19.5"/>
</a>
</g>
</g>
</g>
</svg>
