<?xml version="1.0" encoding="UTF-8" standalone="no"?>
<!DOCTYPE svg PUBLIC "-//W3C//DTD SVG 1.1//EN"
 "http://www.w3.org/Graphics/SVG/1.1/DTD/svg11.dtd">
<!-- Generated by graphviz version 12.2.1 (20241206.2353)
 -->
<!-- Title: CrewMember.GetCrewSkillValue Pages: 1 -->
<svg width="545pt" height="40pt"
 viewBox="0.00 0.00 545.00 40.00" xmlns="http://www.w3.org/2000/svg" xmlns:xlink="http://www.w3.org/1999/xlink">
<g id="graph0" class="graph" transform="scale(1 1) rotate(0) translate(4 36)">
<title>CrewMember.GetCrewSkillValue</title>
<!-- Node1 -->
<g id="Node000001" class="node">
<title>Node1</title>
<g id="a_Node000001"><a xlink:title="현재 선원의 모든 스킬 값을 계산하여 반환합니다. 기본 숙련도, 장비 보너스, 사기 보너스를 포함합니다.">
<polygon fill="#999999" stroke="#666666" points="159.25,-26 0,-26 0,-6 159.25,-6 159.25,-26"/>
<text text-anchor="middle" x="79.62" y="-12.5" font-family="Helvetica,sans-Serif" font-size="10.00">CrewMember.GetCrewSkillValue</text>
</a>
</g>
</g>
<!-- Node2 -->
<g id="Node000002" class="node">
<title>Node2</title>
<g id="a_Node000002"><a xlink:href="class_morale_manager.html#ae4bd0f13d318a29833b66d05fe6b632e" target="_top" xlink:title="선원의 총 사기 반환">
<polygon fill="white" stroke="#666666" points="347,-32 195.25,-32 195.25,0 347,0 347,-32"/>
<text text-anchor="start" x="203.25" y="-18.5" font-family="Helvetica,sans-Serif" font-size="10.00">MoraleManager.GetTotalMorale</text>
<text text-anchor="middle" x="271.12" y="-6.5" font-family="Helvetica,sans-Serif" font-size="10.00">Bonus</text>
</a>
</g>
</g>
<!-- Node1&#45;&gt;Node2 -->
<g id="edge1_Node000001_Node000002" class="edge">
<title>Node1&#45;&gt;Node2</title>
<g id="a_edge1_Node000001_Node000002"><a xlink:title=" ">
<path fill="none" stroke="#63b8ff" d="M159.62,-16C167.56,-16 175.65,-16 183.66,-16"/>
<polygon fill="#63b8ff" stroke="#63b8ff" points="183.39,-19.5 193.39,-16 183.39,-12.5 183.39,-19.5"/>
</a>
</g>
</g>
<!-- Node3 -->
<g id="Node000003" class="node">
<title>Node3</title>
<g id="a_Node000003"><a xlink:href="class_morale_manager.html#ad25d3eb792d8fede14408e5b7a9863d0" target="_top" xlink:title="종족 별 사기 반환">
<polygon fill="white" stroke="#666666" points="537,-26 383,-26 383,-6 537,-6 537,-26"/>
<text text-anchor="middle" x="460" y="-12.5" font-family="Helvetica,sans-Serif" font-size="10.00">MoraleManager.GetRaceMorale</text>
</a>
</g>
</g>
<!-- Node2&#45;&gt;Node3 -->
<g id="edge2_Node000002_Node000003" class="edge">
<title>Node2&#45;&gt;Node3</title>
<g id="a_edge2_Node000002_Node000003"><a xlink:title=" ">
<path fill="none" stroke="#63b8ff" d="M347.33,-16C355.25,-16 363.36,-16 371.42,-16"/>
<polygon fill="#63b8ff" stroke="#63b8ff" points="371.22,-19.5 381.22,-16 371.22,-12.5 371.22,-19.5"/>
</a>
</g>
</g>
</g>
</svg>
