<?xml version="1.0" encoding="UTF-8" standalone="no"?>
<!DOCTYPE svg PUBLIC "-//W3C//DTD SVG 1.1//EN"
 "http://www.w3.org/Graphics/SVG/1.1/DTD/svg11.dtd">
<!-- Generated by graphviz version 12.2.1 (20241206.2353)
 -->
<!-- Title: CrewBase.SwapEquipment Pages: 1 -->
<svg width="733pt" height="90pt"
 viewBox="0.00 0.00 732.75 90.00" xmlns="http://www.w3.org/2000/svg" xmlns:xlink="http://www.w3.org/1999/xlink">
<g id="graph0" class="graph" transform="scale(1 1) rotate(0) translate(4 86)">
<title>CrewBase.SwapEquipment</title>
<!-- Node1 -->
<g id="Node000001" class="node">
<title>Node1</title>
<g id="a_Node000001"><a xlink:title="기존 장비를 해제하고 새 장비를 장착합니다.">
<polygon fill="#999999" stroke="#666666" points="724.75,-51 588.75,-51 588.75,-31 724.75,-31 724.75,-51"/>
<text text-anchor="middle" x="656.75" y="-37.5" font-family="Helvetica,sans-Serif" font-size="10.00">CrewBase.SwapEquipment</text>
</a>
</g>
</g>
<!-- Node2 -->
<g id="Node000002" class="node">
<title>Node2</title>
<g id="a_Node000002"><a xlink:href="class_crew_base.html#a9dddfbc358fd94633bac8de4575e4f8a" target="_top" xlink:title="개인 장비를 착용합니다. 기존 장비는 해제되며 효과도 반영됩니다.">
<polygon fill="white" stroke="#666666" points="552.75,-51 378.5,-51 378.5,-31 552.75,-31 552.75,-51"/>
<text text-anchor="middle" x="465.62" y="-37.5" font-family="Helvetica,sans-Serif" font-size="10.00">CrewBase.ApplyPersonalEquipment</text>
</a>
</g>
</g>
<!-- Node1&#45;&gt;Node2 -->
<g id="edge1_Node000001_Node000002" class="edge">
<title>Node1&#45;&gt;Node2</title>
<g id="a_edge1_Node000001_Node000002"><a xlink:title=" ">
<path fill="none" stroke="#63b8ff" d="M576.94,-41C569.12,-41 561.15,-41 553.25,-41"/>
<polygon fill="#63b8ff" stroke="#63b8ff" points="576.76,-44.5 586.76,-41 576.76,-37.5 576.76,-44.5"/>
</a>
</g>
</g>
<!-- Node3 -->
<g id="Node000003" class="node">
<title>Node3</title>
<g id="a_Node000003"><a xlink:href="class_equipment_manager.html#ac4e3818c3b6daa9db63cd7a78f07bfdf" target="_top" xlink:title="선원 전체에게 적용되는 장비 구매 시 호출">
<polygon fill="white" stroke="#666666" points="342.5,-82 198.25,-82 198.25,-50 342.5,-50 342.5,-82"/>
<text text-anchor="start" x="206.25" y="-68.5" font-family="Helvetica,sans-Serif" font-size="10.00">EquipmentManager.Purchase</text>
<text text-anchor="middle" x="270.38" y="-56.5" font-family="Helvetica,sans-Serif" font-size="10.00">AndEquipGlobal</text>
</a>
</g>
</g>
<!-- Node2&#45;&gt;Node3 -->
<g id="edge2_Node000002_Node000003" class="edge">
<title>Node2&#45;&gt;Node3</title>
<g id="a_edge2_Node000002_Node000003"><a xlink:title=" ">
<path fill="none" stroke="#63b8ff" d="M372.34,-52.94C362.4,-54.22 352.4,-55.52 342.77,-56.76"/>
<polygon fill="#63b8ff" stroke="#63b8ff" points="372.54,-56.44 382.01,-51.69 371.64,-49.5 372.54,-56.44"/>
</a>
</g>
</g>
<!-- Node5 -->
<g id="Node000005" class="node">
<title>Node5</title>
<g id="a_Node000005"><a xlink:href="class_equipment_manager.html#a90239daf1d91e83617f4863e00a4b2e2" target="_top" xlink:title="선원 개인에게 장비 적용">
<polygon fill="white" stroke="#666666" points="342.5,-32 198.25,-32 198.25,0 342.5,0 342.5,-32"/>
<text text-anchor="start" x="206.25" y="-18.5" font-family="Helvetica,sans-Serif" font-size="10.00">EquipmentManager.Purchase</text>
<text text-anchor="middle" x="270.38" y="-6.5" font-family="Helvetica,sans-Serif" font-size="10.00">AndEquipPersonal</text>
</a>
</g>
</g>
<!-- Node2&#45;&gt;Node5 -->
<g id="edge4_Node000002_Node000005" class="edge">
<title>Node2&#45;&gt;Node5</title>
<g id="a_edge4_Node000002_Node000005"><a xlink:title=" ">
<path fill="none" stroke="#63b8ff" d="M372.34,-29.06C362.4,-27.78 352.4,-26.48 342.77,-25.24"/>
<polygon fill="#63b8ff" stroke="#63b8ff" points="371.64,-32.5 382.01,-30.31 372.54,-25.56 371.64,-32.5"/>
</a>
</g>
</g>
<!-- Node4 -->
<g id="Node000004" class="node">
<title>Node4</title>
<g id="a_Node000004"><a xlink:href="class_equipment_u_i_handler.html#a36609bab2603d9760f69e61c2ff4dbde" target="_top" xlink:title="구매 클릭 시, 현재 보유 재화와 비교 후 구매 진행 및 장비 효과 적용">
<polygon fill="white" stroke="#666666" points="162.25,-51 0,-51 0,-31 162.25,-31 162.25,-51"/>
<text text-anchor="middle" x="81.12" y="-37.5" font-family="Helvetica,sans-Serif" font-size="10.00">EquipmentUIHandler.OnClickBuy</text>
</a>
</g>
</g>
<!-- Node3&#45;&gt;Node4 -->
<g id="edge3_Node000003_Node000004" class="edge">
<title>Node3&#45;&gt;Node4</title>
<g id="a_edge3_Node000003_Node000004"><a xlink:title=" ">
<path fill="none" stroke="#63b8ff" d="M186.52,-54.94C177.89,-53.79 169.13,-52.62 160.54,-51.47"/>
<polygon fill="#63b8ff" stroke="#63b8ff" points="185.91,-58.39 196.28,-56.24 186.83,-51.45 185.91,-58.39"/>
</a>
</g>
</g>
<!-- Node5&#45;&gt;Node4 -->
<g id="edge5_Node000005_Node000004" class="edge">
<title>Node5&#45;&gt;Node4</title>
<g id="a_edge5_Node000005_Node000004"><a xlink:title=" ">
<path fill="none" stroke="#63b8ff" d="M186.52,-27.06C177.89,-28.21 169.13,-29.38 160.54,-30.53"/>
<polygon fill="#63b8ff" stroke="#63b8ff" points="186.83,-30.55 196.28,-25.76 185.91,-23.61 186.83,-30.55"/>
</a>
</g>
</g>
</g>
</svg>
