<?xml version="1.0" encoding="UTF-8" standalone="no"?>
<!DOCTYPE svg PUBLIC "-//W3C//DTD SVG 1.1//EN"
 "http://www.w3.org/Graphics/SVG/1.1/DTD/svg11.dtd">
<!-- Generated by graphviz version 12.2.1 (20241206.2353)
 -->
<!-- Title: Quest Pages: 1 -->
<svg width="534pt" height="545pt"
 viewBox="0.00 0.00 534.00 545.00" xmlns="http://www.w3.org/2000/svg" xmlns:xlink="http://www.w3.org/1999/xlink">
<g id="graph0" class="graph" transform="scale(1 1) rotate(0) translate(4 541)">
<title>Quest</title>
<!-- Node1 -->
<g id="Node000001" class="node">
<title>Node1</title>
<g id="a_Node000001"><a xlink:title=" ">
<polygon fill="#999999" stroke="none" points="186.25,-159.5 58.75,-159.5 58.75,0 186.25,0 186.25,-159.5"/>
<text text-anchor="start" x="109.38" y="-146" font-family="Consolas" font-size="10.00">Quest</text>
<text text-anchor="start" x="62.75" y="-131.5" font-family="Consolas" font-size="10.00">+</text>
<text text-anchor="start" x="72" y="-131.5" font-family="Consolas" font-size="10.00">string questName</text>
<text text-anchor="start" x="62.75" y="-117" font-family="Consolas" font-size="10.00">+</text>
<text text-anchor="start" x="72" y="-117" font-family="Consolas" font-size="10.00">string description</text>
<text text-anchor="start" x="62.75" y="-102.5" font-family="Consolas" font-size="10.00">+</text>
<text text-anchor="start" x="72" y="-102.5" font-family="Consolas" font-size="10.00">QuestType type</text>
<text text-anchor="start" x="62.75" y="-88" font-family="Consolas" font-size="10.00">+</text>
<text text-anchor="start" x="72" y="-88" font-family="Consolas" font-size="10.00">int targetCount</text>
<text text-anchor="start" x="62.75" y="-73.5" font-family="Consolas" font-size="10.00">+</text>
<text text-anchor="start" x="72" y="-73.5" font-family="Consolas" font-size="10.00">int currentCount</text>
<text text-anchor="start" x="62.75" y="-59" font-family="Consolas" font-size="10.00">+</text>
<text text-anchor="start" x="72" y="-59" font-family="Consolas" font-size="10.00">int rewardScrap</text>
<text text-anchor="start" x="62.75" y="-44.5" font-family="Consolas" font-size="10.00">+</text>
<text text-anchor="start" x="72" y="-44.5" font-family="Consolas" font-size="10.00">void UpdateProgress</text>
<text text-anchor="start" x="72" y="-34" font-family="Consolas" font-size="10.00">(int count=1)</text>
<text text-anchor="start" x="62.75" y="-19.5" font-family="Consolas" font-size="10.00">+</text>
<text text-anchor="start" x="72" y="-19.5" font-family="Consolas" font-size="10.00">bool IsCompleted()</text>
<text text-anchor="start" x="62.75" y="-5" font-family="Consolas" font-size="10.00">+</text>
<text text-anchor="start" x="72" y="-5" font-family="Consolas" font-size="10.00">string GetQuestInfo()</text>
<polygon fill="#666666" stroke="#666666" points="58.75,-143 58.75,-143 186.25,-143 186.25,-143 58.75,-143"/>
<polygon fill="#666666" stroke="#666666" points="58.75,-56 58.75,-56 70,-56 70,-56 58.75,-56"/>
<polygon fill="#666666" stroke="#666666" points="70,-56 70,-56 186.25,-56 186.25,-56 70,-56"/>
<polygon fill="none" stroke="#666666" points="58.75,0 58.75,-159.5 186.25,-159.5 186.25,0 58.75,0"/>
</a>
</g>
</g>
<!-- Node2 -->
<g id="Node000002" class="node">
<title>Node2</title>
<g id="a_Node000002"><a xlink:href="class_tradable_item.html" target="_top" xlink:title="TradableItem 클래스는 거래 가능한 아이템의 데이터를 담고 있으며, 아이템의 속성(행성 코드, 티어, 이름, 상태, 분류 등)과 가격 관련 기능을 제공합니다.">
<polygon fill="white" stroke="none" points="159,-433.5 0,-433.5 0,-226.5 159,-226.5 159,-433.5"/>
<text text-anchor="start" x="48" y="-420" font-family="Consolas" font-size="10.00">TradableItem</text>
<text text-anchor="start" x="4" y="-405.5" font-family="Consolas" font-size="10.00">+</text>
<text text-anchor="start" x="13.25" y="-405.5" font-family="Consolas" font-size="10.00">string planet</text>
<text text-anchor="start" x="4" y="-391" font-family="Consolas" font-size="10.00">+</text>
<text text-anchor="start" x="13.25" y="-391" font-family="Consolas" font-size="10.00">ItemTierLevel tier</text>
<text text-anchor="start" x="4" y="-376.5" font-family="Consolas" font-size="10.00">+</text>
<text text-anchor="start" x="13.25" y="-376.5" font-family="Consolas" font-size="10.00">string itemName</text>
<text text-anchor="start" x="4" y="-362" font-family="Consolas" font-size="10.00">+</text>
<text text-anchor="start" x="13.25" y="-362" font-family="Consolas" font-size="10.00">ItemState itemState</text>
<text text-anchor="start" x="4" y="-347.5" font-family="Consolas" font-size="10.00">+</text>
<text text-anchor="start" x="13.25" y="-347.5" font-family="Consolas" font-size="10.00">ItemCategory category</text>
<text text-anchor="start" x="4" y="-333" font-family="Consolas" font-size="10.00">+</text>
<text text-anchor="start" x="13.25" y="-333" font-family="Consolas" font-size="10.00">float minStorageTemperature</text>
<text text-anchor="start" x="4" y="-318.5" font-family="Consolas" font-size="10.00">+</text>
<text text-anchor="start" x="13.25" y="-318.5" font-family="Consolas" font-size="10.00">float maxStorageTemperature</text>
<text text-anchor="start" x="4" y="-304" font-family="Consolas" font-size="10.00">+</text>
<text text-anchor="start" x="13.25" y="-304" font-family="Consolas" font-size="10.00">float basePrice</text>
<text text-anchor="start" x="4" y="-289.5" font-family="Consolas" font-size="10.00">+</text>
<text text-anchor="start" x="13.25" y="-289.5" font-family="Consolas" font-size="10.00">int maxStackAmount</text>
<text text-anchor="start" x="4" y="-275" font-family="Consolas" font-size="10.00">+</text>
<text text-anchor="start" x="13.25" y="-275" font-family="Consolas" font-size="10.00">float fluctuation</text>
<text text-anchor="start" x="4" y="-260.5" font-family="Consolas" font-size="10.00">+</text>
<text text-anchor="start" x="13.25" y="-260.5" font-family="Consolas" font-size="10.00">string description</text>
<text text-anchor="start" x="4" y="-246" font-family="Consolas" font-size="10.00">+</text>
<text text-anchor="start" x="13.25" y="-246" font-family="Consolas" font-size="10.00">float GetCurrentPrice()</text>
<text text-anchor="start" x="4" y="-231.5" font-family="Consolas" font-size="10.00">+</text>
<text text-anchor="start" x="13.25" y="-231.5" font-family="Consolas" font-size="10.00">void RecalculatePrice()</text>
<polygon fill="#666666" stroke="#666666" points="0,-417 0,-417 159,-417 159,-417 0,-417"/>
<polygon fill="#666666" stroke="#666666" points="0,-257.5 0,-257.5 11.25,-257.5 11.25,-257.5 0,-257.5"/>
<polygon fill="#666666" stroke="#666666" points="11.25,-257.5 11.25,-257.5 159,-257.5 159,-257.5 11.25,-257.5"/>
<polygon fill="none" stroke="#666666" points="0,-226.5 0,-433.5 159,-433.5 159,-226.5 0,-226.5"/>
</a>
</g>
</g>
<!-- Node2&#45;&gt;Node1 -->
<g id="edge1_Node000001_Node000002" class="edge">
<title>Node2&#45;&gt;Node1</title>
<g id="a_edge1_Node000001_Node000002"><a xlink:title=" ">
<path fill="none" stroke="#63b8ff" d="M97.24,-226.59C100.37,-208.54 103.6,-189.85 106.67,-172.12"/>
<polygon fill="none" stroke="#63b8ff" points="106.67,-172.12 103.76,-165.52 108.72,-160.29 111.64,-166.89 106.67,-172.12"/>
</a>
</g>
<text text-anchor="middle" x="136.35" y="-180" font-family="Helvetica,sans-Serif" font-size="10.00" fill="grey"> +requiredItem</text>
</g>
<!-- Node3 -->
<g id="Node000003" class="node">
<title>Node3</title>
<g id="a_Node000003"><a xlink:href="class_planet.html" target="_top" xlink:title=" ">
<polygon fill="white" stroke="none" points="378,-452.5 177,-452.5 177,-207.5 378,-207.5 378,-452.5"/>
<text text-anchor="start" x="261.75" y="-439" font-family="Consolas" font-size="10.00">Planet</text>
<text text-anchor="start" x="181" y="-424.5" font-family="Consolas" font-size="10.00">+</text>
<text text-anchor="start" x="190.25" y="-424.5" font-family="Consolas" font-size="10.00">string planetName</text>
<text text-anchor="start" x="181" y="-410" font-family="Consolas" font-size="10.00">+</text>
<text text-anchor="start" x="190.25" y="-410" font-family="Consolas" font-size="10.00">float distanceInLightYears</text>
<text text-anchor="start" x="181" y="-395.5" font-family="Consolas" font-size="10.00">+</text>
<text text-anchor="start" x="190.25" y="-395.5" font-family="Consolas" font-size="10.00">bool hasEvent</text>
<text text-anchor="start" x="181" y="-381" font-family="Consolas" font-size="10.00">+</text>
<text text-anchor="start" x="190.25" y="-381" font-family="Consolas" font-size="10.00">bool hasQuest</text>
<text text-anchor="start" x="181" y="-366.5" font-family="Consolas" font-size="10.00">+</text>
<text text-anchor="start" x="190.25" y="-366.5" font-family="Consolas" font-size="10.00">float fuelPrice</text>
<text text-anchor="start" x="181" y="-352" font-family="Consolas" font-size="10.00">+</text>
<text text-anchor="start" x="190.25" y="-352" font-family="Consolas" font-size="10.00">SpeciesType dominantSpecies</text>
<text text-anchor="start" x="181" y="-337.5" font-family="Consolas" font-size="10.00">+</text>
<text text-anchor="start" x="190.25" y="-337.5" font-family="Consolas" font-size="10.00">GameObject tooltipPrefab</text>
<text text-anchor="start" x="181" y="-323" font-family="Consolas" font-size="10.00">+</text>
<text text-anchor="start" x="190.25" y="-323" font-family="Consolas" font-size="10.00">System.Action&lt; GameObject</text>
<text text-anchor="start" x="190.25" y="-312.5" font-family="Consolas" font-size="10.00"> &gt; OnPlanetClickedCallback</text>
<text text-anchor="start" x="181" y="-298" font-family="Consolas" font-size="10.00">+</text>
<text text-anchor="start" x="190.25" y="-298" font-family="Consolas" font-size="10.00">void OnPointerEnter</text>
<text text-anchor="start" x="190.25" y="-287.5" font-family="Consolas" font-size="10.00">(PointerEventData eventData)</text>
<text text-anchor="start" x="181" y="-273" font-family="Consolas" font-size="10.00">+</text>
<text text-anchor="start" x="190.25" y="-273" font-family="Consolas" font-size="10.00">void OnPointerExit</text>
<text text-anchor="start" x="190.25" y="-262.5" font-family="Consolas" font-size="10.00">(PointerEventData eventData)</text>
<text text-anchor="start" x="181" y="-248" font-family="Consolas" font-size="10.00">+</text>
<text text-anchor="start" x="190.25" y="-248" font-family="Consolas" font-size="10.00">void OnPointerClick</text>
<text text-anchor="start" x="190.25" y="-237.5" font-family="Consolas" font-size="10.00">(PointerEventData eventData)</text>
<text text-anchor="start" x="181" y="-223" font-family="Consolas" font-size="10.00">+</text>
<text text-anchor="start" x="190.25" y="-223" font-family="Consolas" font-size="10.00">void SetLightYearsFromUnity</text>
<text text-anchor="start" x="190.25" y="-212.5" font-family="Consolas" font-size="10.00">Distance(Vector2 referencePosition)</text>
<polygon fill="#bfbfbf" stroke="#bfbfbf" points="177,-436 177,-436 378,-436 378,-436 177,-436"/>
<polygon fill="#bfbfbf" stroke="#bfbfbf" points="177,-309.5 177,-309.5 188.25,-309.5 188.25,-309.5 177,-309.5"/>
<polygon fill="#bfbfbf" stroke="#bfbfbf" points="188.25,-309.5 188.25,-309.5 378,-309.5 378,-309.5 188.25,-309.5"/>
<polygon fill="none" stroke="#bfbfbf" points="177,-207.5 177,-452.5 378,-452.5 378,-207.5 177,-207.5"/>
</a>
</g>
</g>
<!-- Node3&#45;&gt;Node1 -->
<g id="edge2_Node000001_Node000003" class="edge">
<title>Node3&#45;&gt;Node1</title>
<g id="a_edge2_Node000001_Node000003"><a xlink:title=" ">
<path fill="none" stroke="#63b8ff" d="M201.82,-207.78C193.93,-195.16 186.02,-182.49 178.42,-170.3"/>
<polygon fill="none" stroke="#63b8ff" points="178.36,-170.21 171.79,-167.24 172,-160.03 178.57,-163 178.36,-170.21"/>
</a>
</g>
<text text-anchor="middle" x="228.12" y="-180" font-family="Helvetica,sans-Serif" font-size="10.00" fill="grey"> +destinationPlanet</text>
</g>
<!-- Node4 -->
<g id="Node000004" class="node">
<title>Node4</title>
<g id="a_Node000004"><a xlink:title=" ">
<polygon fill="white" stroke="none" points="138.62,-537 62.38,-537 62.38,-489.5 138.62,-489.5 138.62,-537"/>
<text text-anchor="start" x="66.38" y="-523.5" font-family="Consolas" font-size="10.00">MonoBehaviour</text>
<text text-anchor="start" x="97.88" y="-509" font-family="Consolas" font-size="10.00"> </text>
<text text-anchor="start" x="97.88" y="-494.5" font-family="Consolas" font-size="10.00"> </text>
<polygon fill="#bfbfbf" stroke="#bfbfbf" points="62.38,-520.5 62.38,-520.5 138.62,-520.5 138.62,-520.5 62.38,-520.5"/>
<polygon fill="#bfbfbf" stroke="#bfbfbf" points="62.38,-506 62.38,-506 138.62,-506 138.62,-506 62.38,-506"/>
<polygon fill="none" stroke="#bfbfbf" points="62.38,-489.5 62.38,-537 138.62,-537 138.62,-489.5 62.38,-489.5"/>
</a>
</g>
</g>
<!-- Node4&#45;&gt;Node3 -->
<g id="edge3_Node000003_Node000004" class="edge">
<title>Node4&#45;&gt;Node3</title>
<g id="a_edge3_Node000003_Node000004"><a xlink:title=" ">
<path fill="none" stroke="#63b8ff" d="M135.71,-482.12C146.15,-472.84 157.48,-462.45 167.5,-452.5 170.73,-449.29 173.99,-446.01 177.26,-442.68"/>
<polygon fill="none" stroke="#63b8ff" points="133.52,-479.38 128.32,-488.61 138.14,-484.64 133.52,-479.38"/>
</a>
</g>
</g>
<!-- Node5 -->
<g id="Node000005" class="node">
<title>Node5</title>
<g id="a_Node000005"><a xlink:title=" ">
<polygon fill="white" stroke="none" points="270,-537 157,-537 157,-489.5 270,-489.5 270,-537"/>
<text text-anchor="start" x="161" y="-523.5" font-family="Consolas" font-size="10.00">IPointerEnterHandler</text>
<text text-anchor="start" x="210.88" y="-509" font-family="Consolas" font-size="10.00"> </text>
<text text-anchor="start" x="210.88" y="-494.5" font-family="Consolas" font-size="10.00"> </text>
<polygon fill="#bfbfbf" stroke="#bfbfbf" points="157,-520.5 157,-520.5 270,-520.5 270,-520.5 157,-520.5"/>
<polygon fill="#bfbfbf" stroke="#bfbfbf" points="157,-506 157,-506 270,-506 270,-506 157,-506"/>
<polygon fill="none" stroke="#bfbfbf" points="157,-489.5 157,-537 270,-537 270,-489.5 157,-489.5"/>
</a>
</g>
</g>
<!-- Node5&#45;&gt;Node3 -->
<g id="edge4_Node000003_Node000005" class="edge">
<title>Node5&#45;&gt;Node3</title>
<g id="a_edge4_Node000003_Node000005"><a xlink:title=" ">
<path fill="none" stroke="#63b8ff" d="M225.23,-479.02C228.07,-470.98 231.28,-461.91 234.66,-452.32"/>
<polygon fill="none" stroke="#63b8ff" points="222.01,-477.64 221.98,-488.23 228.61,-479.97 222.01,-477.64"/>
</a>
</g>
</g>
<!-- Node6 -->
<g id="Node000006" class="node">
<title>Node6</title>
<g id="a_Node000006"><a xlink:title=" ">
<polygon fill="white" stroke="none" points="395.38,-537 287.62,-537 287.62,-489.5 395.38,-489.5 395.38,-537"/>
<text text-anchor="start" x="291.62" y="-523.5" font-family="Consolas" font-size="10.00">IPointerExitHandler</text>
<text text-anchor="start" x="338.88" y="-509" font-family="Consolas" font-size="10.00"> </text>
<text text-anchor="start" x="338.88" y="-494.5" font-family="Consolas" font-size="10.00"> </text>
<polygon fill="#bfbfbf" stroke="#bfbfbf" points="287.62,-520.5 287.62,-520.5 395.38,-520.5 395.38,-520.5 287.62,-520.5"/>
<polygon fill="#bfbfbf" stroke="#bfbfbf" points="287.62,-506 287.62,-506 395.38,-506 395.38,-506 287.62,-506"/>
<polygon fill="none" stroke="#bfbfbf" points="287.62,-489.5 287.62,-537 395.38,-537 395.38,-489.5 287.62,-489.5"/>
</a>
</g>
</g>
<!-- Node6&#45;&gt;Node3 -->
<g id="edge5_Node000003_Node000006" class="edge">
<title>Node6&#45;&gt;Node3</title>
<g id="a_edge5_Node000003_Node000006"><a xlink:title=" ">
<path fill="none" stroke="#63b8ff" d="M329.77,-479.02C326.93,-470.98 323.72,-461.91 320.34,-452.32"/>
<polygon fill="none" stroke="#63b8ff" points="326.39,-479.97 333.02,-488.23 332.99,-477.64 326.39,-479.97"/>
</a>
</g>
</g>
<!-- Node7 -->
<g id="Node000007" class="node">
<title>Node7</title>
<g id="a_Node000007"><a xlink:title=" ">
<polygon fill="white" stroke="none" points="526,-537 413,-537 413,-489.5 526,-489.5 526,-537"/>
<text text-anchor="start" x="417" y="-523.5" font-family="Consolas" font-size="10.00">IPointerClickHandler</text>
<text text-anchor="start" x="466.88" y="-509" font-family="Consolas" font-size="10.00"> </text>
<text text-anchor="start" x="466.88" y="-494.5" font-family="Consolas" font-size="10.00"> </text>
<polygon fill="#bfbfbf" stroke="#bfbfbf" points="413,-520.5 413,-520.5 526,-520.5 526,-520.5 413,-520.5"/>
<polygon fill="#bfbfbf" stroke="#bfbfbf" points="413,-506 413,-506 526,-506 526,-506 413,-506"/>
<polygon fill="none" stroke="#bfbfbf" points="413,-489.5 413,-537 526,-537 526,-489.5 413,-489.5"/>
</a>
</g>
</g>
<!-- Node7&#45;&gt;Node3 -->
<g id="edge6_Node000003_Node000007" class="edge">
<title>Node7&#45;&gt;Node3</title>
<g id="a_edge6_Node000003_Node000007"><a xlink:title=" ">
<path fill="none" stroke="#63b8ff" d="M437.31,-481.86C420.65,-466.13 399.3,-445.98 377.66,-425.55"/>
<polygon fill="none" stroke="#63b8ff" points="434.8,-484.3 444.47,-488.62 439.6,-479.21 434.8,-484.3"/>
</a>
</g>
</g>
</g>
</svg>
