<?xml version="1.0" encoding="UTF-8" standalone="no"?>
<!DOCTYPE svg PUBLIC "-//W3C//DTD SVG 1.1//EN"
 "http://www.w3.org/Graphics/SVG/1.1/DTD/svg11.dtd">
<!-- Generated by graphviz version 12.2.1 (20241206.2353)
 -->
<!-- Title: ShipWeapon Pages: 1 -->
<!--zoomable 457 -->

<svg id="main" version="1.1" xmlns="http://www.w3.org/2000/svg" xmlns:xlink="http://www.w3.org/1999/xlink" xml:space="preserve" onload="init(evt)">

<style type="text/css"><![CDATA[
.node, .edge {opacity: 0.7;}
.node.selected, .edge.selected {opacity: 1;}
.edge:hover path { stroke: red; }
.edge:hover polygon { stroke: red; fill: red; }
]]></style>

<defs>
  <circle id="rim" cx="0" cy="0" r="7"/>
  <circle id="rim2" cx="0" cy="0" r="3.5"/>
  <g id="zoomPlus">
    <use xlink:href="#rim" fill="#404040"><set attributeName="fill" to="#808080" begin="zoomplus.mouseover" end="zoomplus.mouseout"/></use>
    <path d="M-4,0h8M0,-4v8" fill="none" stroke="white" stroke-width="1.5" pointer-events="none"/>
  </g>
  <g id="zoomMin">
    <use xlink:href="#rim" fill="#404040"><set attributeName="fill" to="#808080" begin="zoomminus.mouseover" end="zoomminus.mouseout"/></use>
    <path d="M-4,0h8" fill="none" stroke="white" stroke-width="1.5" pointer-events="none"/>
  </g>
  <g id="arrowUp" transform="translate(30 24)">
    <use xlink:href="#rim"/>
    <path pointer-events="none" fill="none" stroke="white" stroke-width="1.5" d="M0,-3.0v7 M-2.5,-0.5L0,-3.0L2.5,-0.5"/>
  </g>
  <g id="arrowRight" transform="rotate(90) translate(36 -43)">
    <use xlink:href="#rim"/>
    <path pointer-events="none" fill="none" stroke="white" stroke-width="1.5" d="M0,-3.0v7 M-2.5,-0.5L0,-3.0L2.5,-0.5"/>
  </g>
  <g id="arrowDown" transform="rotate(180) translate(-30 -48)">
    <use xlink:href="#rim"/>
    <path pointer-events="none" fill="none" stroke="white" stroke-width="1.5" d="M0,-3.0v7 M-2.5,-0.5L0,-3.0L2.5,-0.5"/>
  </g>
  <g id="arrowLeft" transform="rotate(270) translate(-36 17)">
    <use xlink:href="#rim"/>
    <path pointer-events="none" fill="none" stroke="white" stroke-width="1.5" d="M0,-3.0v7 M-2.5,-0.5L0,-3.0L2.5,-0.5"/>
  </g>
  <g id="resetDef">
    <use xlink:href="#rim2" fill="#404040"><set attributeName="fill" to="#808080" begin="reset.mouseover" end="reset.mouseout"/></use>
  </g>
</defs>
<script type="application/ecmascript">
var viewWidth = 208;
var viewHeight = 457;
var sectionId = 'dynsection-1';
</script>
<script type="application/ecmascript" xlink:href="svg.min.js"/>
<svg id="graph" class="graph">
<g id="viewport">
<title>ShipWeapon</title>
<!-- Node1 -->
<g id="Node000001" class="node">
<title>Node1</title>
<g id="a_Node000001"><a xlink:title=" ">
<polygon fill="#999999" stroke="none" points="106.62,-196 0.88,-196 0.88,0 106.62,0 106.62,-196"/>
<text text-anchor="start" x="26.38" y="-182.5" font-family="Helvetica,sans-Serif" font-size="10.00">ShipWeapon</text>
<text text-anchor="start" x="52.25" y="-166.5" font-family="Helvetica,sans-Serif" font-size="10.00"> </text>
<text text-anchor="start" x="4.88" y="-150.5" font-family="Helvetica,sans-Serif" font-size="10.00">+</text>
<text text-anchor="start" x="14.88" y="-150.5" font-family="Helvetica,sans-Serif" font-size="10.00">ShipWeapon()</text>
<text text-anchor="start" x="4.88" y="-134.5" font-family="Helvetica,sans-Serif" font-size="10.00">+</text>
<text text-anchor="start" x="14.88" y="-134.5" font-family="Helvetica,sans-Serif" font-size="10.00">UpdateCooldown()</text>
<text text-anchor="start" x="4.88" y="-118.5" font-family="Helvetica,sans-Serif" font-size="10.00">+</text>
<text text-anchor="start" x="14.88" y="-118.5" font-family="Helvetica,sans-Serif" font-size="10.00">IsReady()</text>
<text text-anchor="start" x="4.88" y="-102.5" font-family="Helvetica,sans-Serif" font-size="10.00">+</text>
<text text-anchor="start" x="14.88" y="-102.5" font-family="Helvetica,sans-Serif" font-size="10.00">ResetCooldown()</text>
<text text-anchor="start" x="4.88" y="-86.5" font-family="Helvetica,sans-Serif" font-size="10.00">+</text>
<text text-anchor="start" x="14.88" y="-86.5" font-family="Helvetica,sans-Serif" font-size="10.00">ResetCooldown()</text>
<text text-anchor="start" x="4.88" y="-70.5" font-family="Helvetica,sans-Serif" font-size="10.00">+</text>
<text text-anchor="start" x="14.88" y="-70.5" font-family="Helvetica,sans-Serif" font-size="10.00">GetWeaponName()</text>
<text text-anchor="start" x="4.88" y="-54.5" font-family="Helvetica,sans-Serif" font-size="10.00">+</text>
<text text-anchor="start" x="14.88" y="-54.5" font-family="Helvetica,sans-Serif" font-size="10.00">GetDamage()</text>
<text text-anchor="start" x="4.88" y="-38.5" font-family="Helvetica,sans-Serif" font-size="10.00">+</text>
<text text-anchor="start" x="14.88" y="-38.5" font-family="Helvetica,sans-Serif" font-size="10.00">GetAccuracy()</text>
<text text-anchor="start" x="4.88" y="-22.5" font-family="Helvetica,sans-Serif" font-size="10.00">+</text>
<text text-anchor="start" x="14.88" y="-22.5" font-family="Helvetica,sans-Serif" font-size="10.00">GetBaseCooldown()</text>
<text text-anchor="start" x="4.88" y="-6.5" font-family="Helvetica,sans-Serif" font-size="10.00">+</text>
<text text-anchor="start" x="14.88" y="-6.5" font-family="Helvetica,sans-Serif" font-size="10.00">GetWeaponType()</text>
<polygon fill="#666666" stroke="#666666" points="0.88,-178 0.88,-178 106.62,-178 106.62,-178 0.88,-178"/>
<polygon fill="#666666" stroke="#666666" points="0.88,-162 0.88,-162 106.62,-162 106.62,-162 0.88,-162"/>
<polygon fill="none" stroke="#666666" points="0.88,0 0.88,-196 106.62,-196 106.62,0 0.88,0"/>
</a>
</g>
</g>
<!-- Node2 -->
<g id="Node000002" class="node">
<title>Node2</title>
<g id="a_Node000002"><a xlink:title=" ">
<polygon fill="white" stroke="none" points="75.5,-328 0,-328 0,-276 75.5,-276 75.5,-328"/>
<text text-anchor="start" x="4" y="-314.5" font-family="Helvetica,sans-Serif" font-size="10.00">MonoBehaviour</text>
<text text-anchor="start" x="36.25" y="-298.5" font-family="Helvetica,sans-Serif" font-size="10.00"> </text>
<text text-anchor="start" x="36.25" y="-282.5" font-family="Helvetica,sans-Serif" font-size="10.00"> </text>
<polygon fill="#bfbfbf" stroke="#bfbfbf" points="0,-310 0,-310 75.5,-310 75.5,-310 0,-310"/>
<polygon fill="#bfbfbf" stroke="#bfbfbf" points="0,-294 0,-294 75.5,-294 75.5,-294 0,-294"/>
<polygon fill="none" stroke="#bfbfbf" points="0,-276 0,-328 75.5,-328 75.5,-276 0,-276"/>
</a>
</g>
</g>
<!-- Node2&#45;&gt;Node1 -->
<g id="edge1_Node000001_Node000002" class="edge">
<title>Node2&#45;&gt;Node1</title>
<g id="a_edge1_Node000001_Node000002"><a xlink:title=" ">
<path fill="none" stroke="#63b8ff" d="M40.61,-264.93C42.14,-245.53 44.12,-220.6 46.07,-195.99"/>
<polygon fill="none" stroke="#63b8ff" points="37.13,-264.48 39.83,-274.72 44.11,-265.03 37.13,-264.48"/>
</a>
</g>
</g>
<!-- Node3 -->
<g id="Node000003" class="node">
<title>Node3</title>
<g id="a_Node000003"><a xlink:href="class_ship_weapon_data.html" target="_top" xlink:title=" ">
<polygon fill="white" stroke="none" points="199.62,-360 93.88,-360 93.88,-244 199.62,-244 199.62,-360"/>
<text text-anchor="start" x="108.88" y="-346.5" font-family="Helvetica,sans-Serif" font-size="10.00">ShipWeaponData</text>
<text text-anchor="start" x="145.25" y="-330.5" font-family="Helvetica,sans-Serif" font-size="10.00"> </text>
<text text-anchor="start" x="97.88" y="-314.5" font-family="Helvetica,sans-Serif" font-size="10.00">+</text>
<text text-anchor="start" x="107.88" y="-314.5" font-family="Helvetica,sans-Serif" font-size="10.00">GetWeaponName()</text>
<text text-anchor="start" x="97.88" y="-298.5" font-family="Helvetica,sans-Serif" font-size="10.00">+</text>
<text text-anchor="start" x="107.88" y="-298.5" font-family="Helvetica,sans-Serif" font-size="10.00">GetDamage()</text>
<text text-anchor="start" x="97.88" y="-282.5" font-family="Helvetica,sans-Serif" font-size="10.00">+</text>
<text text-anchor="start" x="107.88" y="-282.5" font-family="Helvetica,sans-Serif" font-size="10.00">GetAccuracy()</text>
<text text-anchor="start" x="97.88" y="-266.5" font-family="Helvetica,sans-Serif" font-size="10.00">+</text>
<text text-anchor="start" x="107.88" y="-266.5" font-family="Helvetica,sans-Serif" font-size="10.00">GetBaseCooldown()</text>
<text text-anchor="start" x="97.88" y="-250.5" font-family="Helvetica,sans-Serif" font-size="10.00">+</text>
<text text-anchor="start" x="107.88" y="-250.5" font-family="Helvetica,sans-Serif" font-size="10.00">GetWeaponType()</text>
<polygon fill="#bfbfbf" stroke="#bfbfbf" points="93.88,-342 93.88,-342 199.62,-342 199.62,-342 93.88,-342"/>
<polygon fill="#bfbfbf" stroke="#bfbfbf" points="93.88,-326 93.88,-326 199.62,-326 199.62,-326 93.88,-326"/>
<polygon fill="none" stroke="#bfbfbf" points="93.88,-244 93.88,-360 199.62,-360 199.62,-244 93.88,-244"/>
</a>
</g>
</g>
<!-- Node3&#45;&gt;Node1 -->
<g id="edge2_Node000001_Node000003" class="edge">
<title>Node3&#45;&gt;Node1</title>
<g id="a_edge2_Node000001_Node000003"><a xlink:title=" ">
<path fill="none" stroke="#63b8ff" d="M120.6,-244.19C115.29,-232.67 109.54,-220.19 103.72,-207.55"/>
<polygon fill="none" stroke="#63b8ff" points="103.77,-207.64 97.62,-203.86 98.75,-196.74 104.89,-200.51 103.77,-207.64"/>
</a>
</g>
<text text-anchor="middle" x="143.19" y="-216.5" font-family="Helvetica,sans-Serif" font-size="10.00" fill="grey"> +weaponData</text>
</g>
<!-- Node4 -->
<g id="Node000004" class="node">
<title>Node4</title>
<g id="a_Node000004"><a xlink:title=" ">
<polygon fill="white" stroke="none" points="186.75,-449 106.75,-449 106.75,-397 186.75,-397 186.75,-449"/>
<text text-anchor="start" x="110.75" y="-435.5" font-family="Helvetica,sans-Serif" font-size="10.00">ScriptableObject</text>
<text text-anchor="start" x="145.25" y="-419.5" font-family="Helvetica,sans-Serif" font-size="10.00"> </text>
<text text-anchor="start" x="145.25" y="-403.5" font-family="Helvetica,sans-Serif" font-size="10.00"> </text>
<polygon fill="#bfbfbf" stroke="#bfbfbf" points="106.75,-431 106.75,-431 186.75,-431 186.75,-431 106.75,-431"/>
<polygon fill="#bfbfbf" stroke="#bfbfbf" points="106.75,-415 106.75,-415 186.75,-415 186.75,-415 106.75,-415"/>
<polygon fill="none" stroke="#bfbfbf" points="106.75,-397 106.75,-449 186.75,-449 186.75,-397 106.75,-397"/>
</a>
</g>
</g>
<!-- Node4&#45;&gt;Node3 -->
<g id="edge3_Node000003_Node000004" class="edge">
<title>Node4&#45;&gt;Node3</title>
<g id="a_edge3_Node000003_Node000004"><a xlink:title=" ">
<path fill="none" stroke="#63b8ff" d="M146.75,-385.64C146.75,-377.46 146.75,-368.58 146.75,-359.78"/>
<polygon fill="none" stroke="#63b8ff" points="143.25,-385.54 146.75,-395.54 150.25,-385.54 143.25,-385.54"/>
</a>
</g>
</g>
</g>
</svg>

<g id="navigator" transform="translate(0 0)" fill="#404254">
  <rect fill="#f2f5e9" fill-opacity="0.5" stroke="#606060" stroke-width=".5" x="0" y="0" width="60" height="60"/>
  <use id="zoomplus" xlink:href="#zoomPlus" x="17" y="9" onmousedown="handleZoom(evt,'in')"/>
  <use id="zoomminus" xlink:href="#zoomMin" x="42" y="9" onmousedown="handleZoom(evt,'out')"/>
  <use id="reset" xlink:href="#resetDef" x="30" y="36" onmousedown="handleReset()"/>
   <use id="arrowup" xlink:href="#arrowUp" x="0" y="0" onmousedown="handlePan(0,-1)"/>
  <use id="arrowright" xlink:href="#arrowRight" x="0" y="0" onmousedown="handlePan(1,0)"/>
  <use id="arrowdown" xlink:href="#arrowDown" x="0" y="0" onmousedown="handlePan(0,1)"/>
  <use id="arrowleft" xlink:href="#arrowLeft" x="0" y="0" onmousedown="handlePan(-1,0)"/>
</g>
<svg viewBox="0 0 15 15" width="100%" height="30px" preserveAspectRatio="xMaxYMin meet">
 <g id="arrow_out" transform="scale(0.3 0.3)">
  <a xlink:href="class_ship_weapon__coll__graph_org.svg" target="_base">
   <rect id="button" ry="5" rx="5" y="6" x="6" height="38" width="38"
        fill="#f2f5e9" fill-opacity="0.5" stroke="#606060" stroke-width="1.0"/>
   <path id="arrow"
     d="M 11.500037,31.436501 C 11.940474,20.09759 22.043105,11.32322 32.158766,21.979434 L 37.068811,17.246167 C 37.068811,17.246167 37.088388,32 37.088388,32 L 22.160133,31.978069 C 22.160133,31.978069 26.997745,27.140456 26.997745,27.140456 C 18.528582,18.264221 13.291696,25.230495 11.500037,31.436501 z"
     style="fill:#404040;"/>
  </a>
 </g>
</svg>

<style type='text/css'>
<![CDATA[
[data-mouse-over-selected='false'] { opacity: 0.7; }
[data-mouse-over-selected='true']  { opacity: 1.0; }
]]>
</style>
<script type="application/ecmascript"><![CDATA[
document.addEventListener('DOMContentLoaded', (event) => {
  highlightEdges();
  highlightAdjacentNodes();
});
]]></script>
</svg>
