<?xml version="1.0" encoding="UTF-8" standalone="no"?>
<!DOCTYPE svg PUBLIC "-//W3C//DTD SVG 1.1//EN"
 "http://www.w3.org/Graphics/SVG/1.1/DTD/svg11.dtd">
<!-- Generated by graphviz version 12.2.1 (20241206.2353)
 -->
<!-- Title: CameraZoomController Pages: 1 -->
<svg width="121pt" height="183pt"
 viewBox="0.00 0.00 121.00 182.50" xmlns="http://www.w3.org/2000/svg" xmlns:xlink="http://www.w3.org/1999/xlink">
<g id="graph0" class="graph" transform="scale(1 1) rotate(0) translate(4 178.5)">
<title>CameraZoomController</title>
<!-- Node1 -->
<g id="Node000001" class="node">
<title>Node1</title>
<g id="a_Node000001"><a xlink:title=" ">
<polygon fill="#999999" stroke="none" points="113,-91 0,-91 0,0 113,0 113,-91"/>
<text text-anchor="start" x="4" y="-77.5" font-family="Consolas" font-size="10.00">CameraZoomController</text>
<text text-anchor="start" x="8.25" y="-63" font-family="Consolas" font-size="10.00">+</text>
<text text-anchor="start" x="21.75" y="-63" font-family="Consolas" font-size="10.00">float zoomSpeed</text>
<text text-anchor="start" x="8.25" y="-48.5" font-family="Consolas" font-size="10.00">+</text>
<text text-anchor="start" x="21.75" y="-48.5" font-family="Consolas" font-size="10.00">float moveSpeed</text>
<text text-anchor="start" x="8.25" y="-34" font-family="Consolas" font-size="10.00">+</text>
<text text-anchor="start" x="21.75" y="-34" font-family="Consolas" font-size="10.00">float minSize</text>
<text text-anchor="start" x="8.25" y="-19.5" font-family="Consolas" font-size="10.00">+</text>
<text text-anchor="start" x="21.75" y="-19.5" font-family="Consolas" font-size="10.00">float maxSize</text>
<text text-anchor="start" x="53.88" y="-5" font-family="Consolas" font-size="10.00"> </text>
<polygon fill="#666666" stroke="#666666" points="0,-74.5 0,-74.5 113,-74.5 113,-74.5 0,-74.5"/>
<polygon fill="#666666" stroke="#666666" points="0,-16.5 0,-16.5 19.75,-16.5 19.75,-16.5 0,-16.5"/>
<polygon fill="#666666" stroke="#666666" points="19.75,-16.5 19.75,-16.5 113,-16.5 113,-16.5 19.75,-16.5"/>
<polygon fill="none" stroke="#666666" points="0,0 0,-91 113,-91 113,0 0,0"/>
</a>
</g>
</g>
<!-- Node2 -->
<g id="Node000002" class="node">
<title>Node2</title>
<g id="a_Node000002"><a xlink:title=" ">
<polygon fill="white" stroke="none" points="94.62,-174.5 18.38,-174.5 18.38,-127 94.62,-127 94.62,-174.5"/>
<text text-anchor="start" x="22.38" y="-161" font-family="Consolas" font-size="10.00">MonoBehaviour</text>
<text text-anchor="start" x="53.88" y="-146.5" font-family="Consolas" font-size="10.00"> </text>
<text text-anchor="start" x="53.88" y="-132" font-family="Consolas" font-size="10.00"> </text>
<polygon fill="#bfbfbf" stroke="#bfbfbf" points="18.38,-158 18.38,-158 94.62,-158 94.62,-158 18.38,-158"/>
<polygon fill="#bfbfbf" stroke="#bfbfbf" points="18.38,-143.5 18.38,-143.5 94.62,-143.5 94.62,-143.5 18.38,-143.5"/>
<polygon fill="none" stroke="#bfbfbf" points="18.38,-127 18.38,-174.5 94.62,-174.5 94.62,-127 18.38,-127"/>
</a>
</g>
</g>
<!-- Node2&#45;&gt;Node1 -->
<g id="edge1_Node000001_Node000002" class="edge">
<title>Node2&#45;&gt;Node1</title>
<g id="a_edge1_Node000001_Node000002"><a xlink:title=" ">
<path fill="none" stroke="#63b8ff" d="M56.5,-115.61C56.5,-107.65 56.5,-99.06 56.5,-90.73"/>
<polygon fill="none" stroke="#63b8ff" points="53,-115.58 56.5,-125.58 60,-115.58 53,-115.58"/>
</a>
</g>
</g>
</g>
</svg>
