<?xml version="1.0" encoding="UTF-8" standalone="no"?>
<!DOCTYPE svg PUBLIC "-//W3C//DTD SVG 1.1//EN"
 "http://www.w3.org/Graphics/SVG/1.1/DTD/svg11.dtd">
<!-- Generated by graphviz version 12.2.1 (20241206.2353)
 -->
<!-- Title: WarpUIController Pages: 1 -->
<!--zoomable 458 -->

<svg id="main" version="1.1" xmlns="http://www.w3.org/2000/svg" xmlns:xlink="http://www.w3.org/1999/xlink" xml:space="preserve" onload="init(evt)">

<style type="text/css"><![CDATA[
.node, .edge {opacity: 0.7;}
.node.selected, .edge.selected {opacity: 1;}
.edge:hover path { stroke: red; }
.edge:hover polygon { stroke: red; fill: red; }
]]></style>

<defs>
  <circle id="rim" cx="0" cy="0" r="7"/>
  <circle id="rim2" cx="0" cy="0" r="3.5"/>
  <g id="zoomPlus">
    <use xlink:href="#rim" fill="#404040"><set attributeName="fill" to="#808080" begin="zoomplus.mouseover" end="zoomplus.mouseout"/></use>
    <path d="M-4,0h8M0,-4v8" fill="none" stroke="white" stroke-width="1.5" pointer-events="none"/>
  </g>
  <g id="zoomMin">
    <use xlink:href="#rim" fill="#404040"><set attributeName="fill" to="#808080" begin="zoomminus.mouseover" end="zoomminus.mouseout"/></use>
    <path d="M-4,0h8" fill="none" stroke="white" stroke-width="1.5" pointer-events="none"/>
  </g>
  <g id="arrowUp" transform="translate(30 24)">
    <use xlink:href="#rim"/>
    <path pointer-events="none" fill="none" stroke="white" stroke-width="1.5" d="M0,-3.0v7 M-2.5,-0.5L0,-3.0L2.5,-0.5"/>
  </g>
  <g id="arrowRight" transform="rotate(90) translate(36 -43)">
    <use xlink:href="#rim"/>
    <path pointer-events="none" fill="none" stroke="white" stroke-width="1.5" d="M0,-3.0v7 M-2.5,-0.5L0,-3.0L2.5,-0.5"/>
  </g>
  <g id="arrowDown" transform="rotate(180) translate(-30 -48)">
    <use xlink:href="#rim"/>
    <path pointer-events="none" fill="none" stroke="white" stroke-width="1.5" d="M0,-3.0v7 M-2.5,-0.5L0,-3.0L2.5,-0.5"/>
  </g>
  <g id="arrowLeft" transform="rotate(270) translate(-36 17)">
    <use xlink:href="#rim"/>
    <path pointer-events="none" fill="none" stroke="white" stroke-width="1.5" d="M0,-3.0v7 M-2.5,-0.5L0,-3.0L2.5,-0.5"/>
  </g>
  <g id="resetDef">
    <use xlink:href="#rim2" fill="#404040"><set attributeName="fill" to="#808080" begin="reset.mouseover" end="reset.mouseout"/></use>
  </g>
</defs>
<script type="application/ecmascript">
var viewWidth = 208;
var viewHeight = 458;
var sectionId = 'dynsection-1';
</script>
<script type="application/ecmascript" xlink:href="svg.min.js"/>
<svg id="graph" class="graph">
<g id="viewport">
<title>WarpUIController</title>
<!-- Node1 -->
<g id="Node000001" class="node">
<title>Node1</title>
<g id="a_Node000001"><a xlink:title="워프 과정의 모든 UI 요소를 관리하는 컨트롤러 맵 컴포넌트들의 조정자 역할 수행">
<polygon fill="#999999" stroke="none" points="179.5,-322.5 4.75,-322.5 4.75,0 179.5,0 179.5,-322.5"/>
<text text-anchor="start" x="50.12" y="-309" font-family="Consolas" font-size="10.00">WarpUIController</text>
<text text-anchor="start" x="89.5" y="-294.5" font-family="Consolas" font-size="10.00"> </text>
<text text-anchor="start" x="8.75" y="-280" font-family="Consolas" font-size="10.00">+</text>
<text text-anchor="start" x="18" y="-280" font-family="Consolas" font-size="10.00">void Initialize()</text>
<text text-anchor="start" x="8.75" y="-265.5" font-family="Consolas" font-size="10.00">+</text>
<text text-anchor="start" x="18" y="-265.5" font-family="Consolas" font-size="10.00">void Show()</text>
<text text-anchor="start" x="8.75" y="-251" font-family="Consolas" font-size="10.00">+</text>
<text text-anchor="start" x="18" y="-251" font-family="Consolas" font-size="10.00">void Hide()</text>
<text text-anchor="start" x="8.75" y="-236.5" font-family="Consolas" font-size="10.00">+</text>
<text text-anchor="start" x="18" y="-236.5" font-family="Consolas" font-size="10.00">void Update()</text>
<text text-anchor="start" x="8.75" y="-222" font-family="Consolas" font-size="10.00">+</text>
<text text-anchor="start" x="18" y="-222" font-family="Consolas" font-size="10.00">void SetUIState(WarpUIState</text>
<text text-anchor="start" x="18" y="-211.5" font-family="Consolas" font-size="10.00"> state)</text>
<text text-anchor="start" x="8.75" y="-197" font-family="Consolas" font-size="10.00">+</text>
<text text-anchor="start" x="18" y="-197" font-family="Consolas" font-size="10.00">void SetArrivalPlanetInfo</text>
<text text-anchor="start" x="18" y="-186.5" font-family="Consolas" font-size="10.00">(string planetName)</text>
<text text-anchor="start" x="8.75" y="-172" font-family="Consolas" font-size="10.00">+</text>
<text text-anchor="start" x="18" y="-172" font-family="Consolas" font-size="10.00">void SetEventInfo(string</text>
<text text-anchor="start" x="18" y="-161.5" font-family="Consolas" font-size="10.00"> title, string description,</text>
<text text-anchor="start" x="18" y="-151" font-family="Consolas" font-size="10.00"> string[] choices)</text>
<text text-anchor="start" x="8.75" y="-136.5" font-family="Consolas" font-size="10.00">+</text>
<text text-anchor="start" x="18" y="-136.5" font-family="Consolas" font-size="10.00">void InitializeRoutePlanning</text>
<text text-anchor="start" x="18" y="-126" font-family="Consolas" font-size="10.00">UI(int numberOfPlanets,</text>
<text text-anchor="start" x="18" y="-115.5" font-family="Consolas" font-size="10.00"> float maxPlacementDistance)</text>
<text text-anchor="start" x="8.75" y="-101" font-family="Consolas" font-size="10.00">+</text>
<text text-anchor="start" x="18" y="-101" font-family="Consolas" font-size="10.00">void InitializeEventSelection</text>
<text text-anchor="start" x="18" y="-90.5" font-family="Consolas" font-size="10.00">UI(List&lt; Vector2 &gt; pathNodes,</text>
<text text-anchor="start" x="18" y="-80" font-family="Consolas" font-size="10.00"> List&lt; bool &gt; dangerInfo)</text>
<text text-anchor="start" x="8.75" y="-65.5" font-family="Consolas" font-size="10.00">+</text>
<text text-anchor="start" x="18" y="-65.5" font-family="Consolas" font-size="10.00">void SetPathData(List</text>
<text text-anchor="start" x="18" y="-55" font-family="Consolas" font-size="10.00">&lt; Vector2 &gt; nodes, List</text>
<text text-anchor="start" x="18" y="-44.5" font-family="Consolas" font-size="10.00">&lt; bool &gt; dangerInfo)</text>
<text text-anchor="start" x="8.75" y="-30" font-family="Consolas" font-size="10.00">+</text>
<text text-anchor="start" x="18" y="-30" font-family="Consolas" font-size="10.00">List&lt; Vector2 &gt; GetPathNodes()</text>
<text text-anchor="start" x="8.75" y="-15.5" font-family="Consolas" font-size="10.00">+</text>
<text text-anchor="start" x="18" y="-15.5" font-family="Consolas" font-size="10.00">List&lt; bool &gt; GetPathDanger</text>
<text text-anchor="start" x="18" y="-5" font-family="Consolas" font-size="10.00">Info()</text>
<polygon fill="#666666" stroke="#666666" points="4.75,-306 4.75,-306 179.5,-306 179.5,-306 4.75,-306"/>
<polygon fill="#666666" stroke="#666666" points="4.75,-291.5 4.75,-291.5 179.5,-291.5 179.5,-291.5 4.75,-291.5"/>
<polygon fill="none" stroke="#666666" points="4.75,0 4.75,-322.5 179.5,-322.5 179.5,0 4.75,0"/>
</a>
</g>
</g>
<!-- Node2 -->
<g id="Node000002" class="node">
<title>Node2</title>
<g id="a_Node000002"><a xlink:title=" ">
<polygon fill="white" stroke="none" points="76.25,-427.75 0,-427.75 0,-380.25 76.25,-380.25 76.25,-427.75"/>
<text text-anchor="start" x="4" y="-414.25" font-family="Consolas" font-size="10.00">MonoBehaviour</text>
<text text-anchor="start" x="35.5" y="-399.75" font-family="Consolas" font-size="10.00"> </text>
<text text-anchor="start" x="35.5" y="-385.25" font-family="Consolas" font-size="10.00"> </text>
<polygon fill="#bfbfbf" stroke="#bfbfbf" points="0,-411.25 0,-411.25 76.25,-411.25 76.25,-411.25 0,-411.25"/>
<polygon fill="#bfbfbf" stroke="#bfbfbf" points="0,-396.75 0,-396.75 76.25,-396.75 76.25,-396.75 0,-396.75"/>
<polygon fill="none" stroke="#bfbfbf" points="0,-380.25 0,-427.75 76.25,-427.75 76.25,-380.25 0,-380.25"/>
</a>
</g>
</g>
<!-- Node2&#45;&gt;Node1 -->
<g id="edge1_Node000001_Node000002" class="edge">
<title>Node2&#45;&gt;Node1</title>
<g id="a_edge1_Node000001_Node000002"><a xlink:title=" ">
<path fill="none" stroke="#63b8ff" d="M45.64,-369.5C48.62,-356.22 52.27,-339.92 56.21,-322.35"/>
<polygon fill="none" stroke="#63b8ff" points="42.31,-368.35 43.54,-378.87 49.14,-369.88 42.31,-368.35"/>
</a>
</g>
</g>
<!-- Node3 -->
<g id="Node000003" class="node">
<title>Node3</title>
<g id="a_Node000003"><a xlink:href="interface_i_u_i_controller.html" target="_top" xlink:title=" ">
<polygon fill="white" stroke="none" points="200.38,-449.5 93.88,-449.5 93.88,-358.5 200.38,-358.5 200.38,-449.5"/>
<text text-anchor="start" x="113" y="-436" font-family="Consolas" font-size="10.00">IUIController</text>
<text text-anchor="start" x="144.5" y="-421.5" font-family="Consolas" font-size="10.00"> </text>
<text text-anchor="start" x="97.88" y="-407" font-family="Consolas" font-size="10.00">+</text>
<text text-anchor="start" x="107.12" y="-407" font-family="Consolas" font-size="10.00">void Initialize()</text>
<text text-anchor="start" x="97.88" y="-392.5" font-family="Consolas" font-size="10.00">+</text>
<text text-anchor="start" x="107.12" y="-392.5" font-family="Consolas" font-size="10.00">void Show()</text>
<text text-anchor="start" x="97.88" y="-378" font-family="Consolas" font-size="10.00">+</text>
<text text-anchor="start" x="107.12" y="-378" font-family="Consolas" font-size="10.00">void Hide()</text>
<text text-anchor="start" x="97.88" y="-363.5" font-family="Consolas" font-size="10.00">+</text>
<text text-anchor="start" x="107.12" y="-363.5" font-family="Consolas" font-size="10.00">void Update()</text>
<polygon fill="#bfbfbf" stroke="#bfbfbf" points="93.88,-433 93.88,-433 200.38,-433 200.38,-433 93.88,-433"/>
<polygon fill="#bfbfbf" stroke="#bfbfbf" points="93.88,-418.5 93.88,-418.5 200.38,-418.5 200.38,-418.5 93.88,-418.5"/>
<polygon fill="none" stroke="#bfbfbf" points="93.88,-358.5 93.88,-449.5 200.38,-449.5 200.38,-358.5 93.88,-358.5"/>
</a>
</g>
</g>
<!-- Node3&#45;&gt;Node1 -->
<g id="edge2_Node000001_Node000003" class="edge">
<title>Node3&#45;&gt;Node1</title>
<g id="a_edge2_Node000001_Node000003"><a xlink:title=" ">
<path fill="none" stroke="#63b8ff" d="M134.43,-347.44C132.63,-339.57 130.72,-331.18 128.73,-322.47"/>
<polygon fill="none" stroke="#63b8ff" points="131,-348.12 136.64,-357.09 137.82,-346.56 131,-348.12"/>
</a>
</g>
</g>
</g>
</svg>

<g id="navigator" transform="translate(0 0)" fill="#404254">
  <rect fill="#f2f5e9" fill-opacity="0.5" stroke="#606060" stroke-width=".5" x="0" y="0" width="60" height="60"/>
  <use id="zoomplus" xlink:href="#zoomPlus" x="17" y="9" onmousedown="handleZoom(evt,'in')"/>
  <use id="zoomminus" xlink:href="#zoomMin" x="42" y="9" onmousedown="handleZoom(evt,'out')"/>
  <use id="reset" xlink:href="#resetDef" x="30" y="36" onmousedown="handleReset()"/>
   <use id="arrowup" xlink:href="#arrowUp" x="0" y="0" onmousedown="handlePan(0,-1)"/>
  <use id="arrowright" xlink:href="#arrowRight" x="0" y="0" onmousedown="handlePan(1,0)"/>
  <use id="arrowdown" xlink:href="#arrowDown" x="0" y="0" onmousedown="handlePan(0,1)"/>
  <use id="arrowleft" xlink:href="#arrowLeft" x="0" y="0" onmousedown="handlePan(-1,0)"/>
</g>
<svg viewBox="0 0 15 15" width="100%" height="30px" preserveAspectRatio="xMaxYMin meet">
 <g id="arrow_out" transform="scale(0.3 0.3)">
  <a xlink:href="class_warp_u_i_controller__coll__graph_org.svg" target="_base">
   <rect id="button" ry="5" rx="5" y="6" x="6" height="38" width="38"
        fill="#f2f5e9" fill-opacity="0.5" stroke="#606060" stroke-width="1.0"/>
   <path id="arrow"
     d="M 11.500037,31.436501 C 11.940474,20.09759 22.043105,11.32322 32.158766,21.979434 L 37.068811,17.246167 C 37.068811,17.246167 37.088388,32 37.088388,32 L 22.160133,31.978069 C 22.160133,31.978069 26.997745,27.140456 26.997745,27.140456 C 18.528582,18.264221 13.291696,25.230495 11.500037,31.436501 z"
     style="fill:#404040;"/>
  </a>
 </g>
</svg>

<style type='text/css'>
<![CDATA[
[data-mouse-over-selected='false'] { opacity: 0.7; }
[data-mouse-over-selected='true']  { opacity: 1.0; }
]]>
</style>
<script type="application/ecmascript"><![CDATA[
document.addEventListener('DOMContentLoaded', (event) => {
  highlightEdges();
  highlightAdjacentNodes();
});
]]></script>
</svg>
