<?xml version="1.0" encoding="UTF-8" standalone="no"?>
<!DOCTYPE svg PUBLIC "-//W3C//DTD SVG 1.1//EN"
 "http://www.w3.org/Graphics/SVG/1.1/DTD/svg11.dtd">
<!-- Generated by graphviz version 12.2.1 (20241206.2353)
 -->
<!-- Title: Ship.TakeAttack Pages: 1 -->
<!--zoomable 302 -->

<svg id="main" version="1.1" xmlns="http://www.w3.org/2000/svg" xmlns:xlink="http://www.w3.org/1999/xlink" xml:space="preserve" onload="init(evt)">

<style type="text/css"><![CDATA[
.node, .edge {opacity: 0.7;}
.node.selected, .edge.selected {opacity: 1;}
.edge:hover path { stroke: red; }
.edge:hover polygon { stroke: red; fill: red; }
]]></style>

<defs>
  <circle id="rim" cx="0" cy="0" r="7"/>
  <circle id="rim2" cx="0" cy="0" r="3.5"/>
  <g id="zoomPlus">
    <use xlink:href="#rim" fill="#404040"><set attributeName="fill" to="#808080" begin="zoomplus.mouseover" end="zoomplus.mouseout"/></use>
    <path d="M-4,0h8M0,-4v8" fill="none" stroke="white" stroke-width="1.5" pointer-events="none"/>
  </g>
  <g id="zoomMin">
    <use xlink:href="#rim" fill="#404040"><set attributeName="fill" to="#808080" begin="zoomminus.mouseover" end="zoomminus.mouseout"/></use>
    <path d="M-4,0h8" fill="none" stroke="white" stroke-width="1.5" pointer-events="none"/>
  </g>
  <g id="arrowUp" transform="translate(30 24)">
    <use xlink:href="#rim"/>
    <path pointer-events="none" fill="none" stroke="white" stroke-width="1.5" d="M0,-3.0v7 M-2.5,-0.5L0,-3.0L2.5,-0.5"/>
  </g>
  <g id="arrowRight" transform="rotate(90) translate(36 -43)">
    <use xlink:href="#rim"/>
    <path pointer-events="none" fill="none" stroke="white" stroke-width="1.5" d="M0,-3.0v7 M-2.5,-0.5L0,-3.0L2.5,-0.5"/>
  </g>
  <g id="arrowDown" transform="rotate(180) translate(-30 -48)">
    <use xlink:href="#rim"/>
    <path pointer-events="none" fill="none" stroke="white" stroke-width="1.5" d="M0,-3.0v7 M-2.5,-0.5L0,-3.0L2.5,-0.5"/>
  </g>
  <g id="arrowLeft" transform="rotate(270) translate(-36 17)">
    <use xlink:href="#rim"/>
    <path pointer-events="none" fill="none" stroke="white" stroke-width="1.5" d="M0,-3.0v7 M-2.5,-0.5L0,-3.0L2.5,-0.5"/>
  </g>
  <g id="resetDef">
    <use xlink:href="#rim2" fill="#404040"><set attributeName="fill" to="#808080" begin="reset.mouseover" end="reset.mouseout"/></use>
  </g>
</defs>
<script type="application/ecmascript">
var viewWidth = 881;
var viewHeight = 302;
var sectionId = 'dynsection-7';
</script>
<script type="application/ecmascript" xlink:href="svg.min.js"/>
<svg id="graph" class="graph">
<g id="viewport">
<title>Ship.TakeAttack</title>
<!-- Node1 -->
<g id="Node000001" class="node">
<title>Node1</title>
<g id="a_Node000001"><a xlink:title="무기 및 외부 방어 시스템을 포함한 실제 피해 계산 및 적용을 수행합니다.">
<ellipse fill="#999999" stroke="#666666" cx="65.87" cy="-207.61" rx="65.87" ry="17.61"/>
<text text-anchor="middle" x="65.87" y="-203.36" font-family="Consolas" font-size="10.00">Ship.TakeAttack</text>
</a>
</g>
</g>
<!-- Node2 -->
<g id="Node000002" class="node">
<title>Node2</title>
<g id="a_Node000002"><a xlink:href="class_shield_system.html#a63973bec7496fe95c79b57638c0b00fe" target="_top" xlink:title="현재 쉴드가 활성화되어 있는지 여부를 반환합니다.">
<ellipse fill="white" stroke="#666666" cx="278.15" cy="-276.61" rx="110.41" ry="17.61"/>
<text text-anchor="middle" x="278.15" y="-272.36" font-family="Consolas" font-size="10.00">ShieldSystem.IsShieldActive</text>
</a>
</g>
</g>
<!-- Node1&#45;&gt;Node2 -->
<g id="edge1_Node000001_Node000002" class="edge">
<title>Node1&#45;&gt;Node2</title>
<g id="a_edge1_Node000001_Node000002"><a xlink:title=" ">
<path fill="none" stroke="#63b8ff" d="M104.5,-222.09C123.37,-229.18 146.65,-237.67 167.73,-244.61 181.59,-249.17 196.54,-253.76 210.8,-257.98"/>
<polygon fill="#63b8ff" stroke="#63b8ff" points="209.51,-261.25 220.09,-260.7 211.48,-254.53 209.51,-261.25"/>
</a>
</g>
</g>
<!-- Node3 -->
<g id="Node000003" class="node">
<title>Node3</title>
<g id="a_Node000003"><a xlink:href="class_outer_hull_system.html#a546cc38872f4b8e97bb31c84214e0d5d" target="_top" xlink:title="외부 선체의 피해 감소율을 적용하여 실질적인 피해량을 계산합니다.">
<ellipse fill="white" stroke="#666666" cx="538.69" cy="-230.61" rx="114.13" ry="17.61"/>
<text text-anchor="middle" x="538.69" y="-226.36" font-family="Consolas" font-size="10.00">OuterHullSystem.ReduceDamage</text>
</a>
</g>
</g>
<!-- Node1&#45;&gt;Node3 -->
<g id="edge2_Node000001_Node000003" class="edge">
<title>Node1&#45;&gt;Node3</title>
<g id="a_edge2_Node000001_Node000003"><a xlink:title=" ">
<path fill="none" stroke="#63b8ff" d="M130.85,-210.73C204.35,-214.32 326.53,-220.29 417.85,-224.75"/>
<polygon fill="#63b8ff" stroke="#63b8ff" points="417.44,-228.24 427.6,-225.23 417.78,-221.25 417.44,-228.24"/>
</a>
</g>
</g>
<!-- Node5 -->
<g id="Node000005" class="node">
<title>Node5</title>
<g id="a_Node000005"><a xlink:href="class_shield_system.html#a50da4fedfbb95a2510abc2d1d7c5c0e2" target="_top" xlink:title="쉴드에 피해를 입히고, 남은 피해량을 반환합니다. 쉴드가 모두 소모되면 파괴 상태로 전환되며, 재활성화 타이머가 시작됩니다. 특정 무기 타입은 피해량 보정이 적용됩니다.">
<ellipse fill="white" stroke="#666666" cx="278.15" cy="-184.61" rx="95.57" ry="17.61"/>
<text text-anchor="middle" x="278.15" y="-180.36" font-family="Consolas" font-size="10.00">ShieldSystem.TakeDamage</text>
</a>
</g>
</g>
<!-- Node1&#45;&gt;Node5 -->
<g id="edge4_Node000001_Node000005" class="edge">
<title>Node1&#45;&gt;Node5</title>
<g id="a_edge4_Node000001_Node000005"><a xlink:title=" ">
<path fill="none" stroke="#63b8ff" d="M127.41,-200.99C145.06,-199.05 164.76,-196.9 183.93,-194.8"/>
<polygon fill="#63b8ff" stroke="#63b8ff" points="184.07,-198.31 193.63,-193.74 183.31,-191.35 184.07,-198.31"/>
</a>
</g>
</g>
<!-- Node6 -->
<g id="Node000006" class="node">
<title>Node6</title>
<g id="a_Node000006"><a xlink:href="class_ship.html#ac61b02cdac21a64fd326753ccb8ae96a" target="_top" xlink:title="함선에 직접 피해를 적용합니다. 체력을 감소시키고, 파괴되었는지 확인합니다.">
<ellipse fill="white" stroke="#666666" cx="278.15" cy="-101.61" rx="65.87" ry="17.61"/>
<text text-anchor="middle" x="278.15" y="-97.36" font-family="Consolas" font-size="10.00">Ship.TakeDamage</text>
</a>
</g>
</g>
<!-- Node1&#45;&gt;Node6 -->
<g id="edge6_Node000001_Node000006" class="edge">
<title>Node1&#45;&gt;Node6</title>
<g id="a_edge6_Node000001_Node000006"><a xlink:title=" ">
<path fill="none" stroke="#63b8ff" d="M97.89,-191.97C134.47,-173.53 195.39,-142.82 235.91,-122.4"/>
<polygon fill="#63b8ff" stroke="#63b8ff" points="237.29,-125.62 244.64,-117.99 234.14,-119.37 237.29,-125.62"/>
</a>
</g>
</g>
<!-- Node4 -->
<g id="Node000004" class="node">
<title>Node4</title>
<g id="a_Node000004"><a xlink:href="class_ship_system.html#a0c4c206aa7e875dc6810ea122e46b332" target="_top" xlink:title="현재 함선의 특정 스탯 값을 가져옵니다.">
<ellipse fill="white" stroke="#666666" cx="780.67" cy="-184.61" rx="91.85" ry="17.61"/>
<text text-anchor="middle" x="780.67" y="-180.36" font-family="Consolas" font-size="10.00">ShipSystem.GetShipStat</text>
</a>
</g>
</g>
<!-- Node3&#45;&gt;Node4 -->
<g id="edge3_Node000003_Node000004" class="edge">
<title>Node3&#45;&gt;Node4</title>
<g id="a_edge3_Node000003_Node000004"><a xlink:title=" ">
<path fill="none" stroke="#63b8ff" d="M612.02,-216.74C640.9,-211.21 674.18,-204.83 703.44,-199.22"/>
<polygon fill="#63b8ff" stroke="#63b8ff" points="703.79,-202.72 712.95,-197.4 702.47,-195.84 703.79,-202.72"/>
</a>
</g>
</g>
<!-- Node5&#45;&gt;Node4 -->
<g id="edge5_Node000005_Node000004" class="edge">
<title>Node5&#45;&gt;Node4</title>
<g id="a_edge5_Node000005_Node000004"><a xlink:title=" ">
<path fill="none" stroke="#63b8ff" d="M374.18,-184.61C460.69,-184.61 588.1,-184.61 676.94,-184.61"/>
<polygon fill="#63b8ff" stroke="#63b8ff" points="676.88,-188.11 686.88,-184.61 676.88,-181.11 676.88,-188.11"/>
</a>
</g>
</g>
<!-- Node7 -->
<g id="Node000007" class="node">
<title>Node7</title>
<g id="a_Node000007"><a xlink:href="class_hit_point_system.html#afc57249cf7099f1cc807759fe5d83f50" target="_top" xlink:title="체력을 변경합니다. 양수이면 회복, 음수이면 피해를 의미합니다. 최대 체력을 초과하지 않으며, 0 아래로 내려가지 않습니다.">
<ellipse fill="white" stroke="#666666" cx="538.69" cy="-131.61" rx="99.28" ry="25.03"/>
<text text-anchor="start" x="475.69" y="-132.61" font-family="Consolas" font-size="10.00">HitPointSystem.ChangeHit</text>
<text text-anchor="middle" x="538.69" y="-122.11" font-family="Consolas" font-size="10.00">Point</text>
</a>
</g>
</g>
<!-- Node6&#45;&gt;Node7 -->
<g id="edge7_Node000006_Node000007" class="edge">
<title>Node6&#45;&gt;Node7</title>
<g id="a_edge7_Node000006_Node000007"><a xlink:title=" ">
<path fill="none" stroke="#63b8ff" d="M339.11,-108.56C368.2,-111.94 403.92,-116.09 437.02,-119.93"/>
<polygon fill="#63b8ff" stroke="#63b8ff" points="436.29,-123.36 446.62,-121.04 437.09,-116.41 436.29,-123.36"/>
</a>
</g>
</g>
<!-- Node8 -->
<g id="Node000008" class="node">
<title>Node8</title>
<g id="a_Node000008"><a xlink:href="class_hit_point_system.html#a85a6d6b8c9c935065ccad64984e8dfba" target="_top" xlink:title="현재 체력 값을 반환합니다.">
<ellipse fill="white" stroke="#666666" cx="538.69" cy="-70.61" rx="106.7" ry="17.61"/>
<text text-anchor="middle" x="538.69" y="-66.36" font-family="Consolas" font-size="10.00">HitPointSystem.GetHitPoint</text>
</a>
</g>
</g>
<!-- Node6&#45;&gt;Node8 -->
<g id="edge9_Node000006_Node000008" class="edge">
<title>Node6&#45;&gt;Node8</title>
<g id="a_edge9_Node000006_Node000008"><a xlink:title=" ">
<path fill="none" stroke="#63b8ff" d="M338.79,-94.46C368.8,-90.86 405.95,-86.4 439.99,-82.32"/>
<polygon fill="#63b8ff" stroke="#63b8ff" points="440.38,-85.8 449.89,-81.13 439.55,-78.85 440.38,-85.8"/>
</a>
</g>
</g>
<!-- Node9 -->
<g id="Node000009" class="node">
<title>Node9</title>
<g id="a_Node000009"><a xlink:href="class_ship.html#a96161da9757b06a2b12edfe591119abb" target="_top" xlink:title="함선이 파괴되었을 때 호출되는 함수입니다. 게임 오버 로직 등을 처리할 수 있습니다.">
<ellipse fill="white" stroke="#666666" cx="538.69" cy="-17.61" rx="84.43" ry="17.61"/>
<text text-anchor="middle" x="538.69" y="-13.36" font-family="Consolas" font-size="10.00">Ship.OnShipDestroyed</text>
</a>
</g>
</g>
<!-- Node6&#45;&gt;Node9 -->
<g id="edge10_Node000006_Node000009" class="edge">
<title>Node6&#45;&gt;Node9</title>
<g id="a_edge10_Node000006_Node000009"><a xlink:title=" ">
<path fill="none" stroke="#63b8ff" d="M313.28,-86.26C342.41,-73.58 385.65,-55.76 424.56,-43.61 437.69,-39.51 451.86,-35.74 465.58,-32.43"/>
<polygon fill="#63b8ff" stroke="#63b8ff" points="466.06,-35.92 474.99,-30.22 464.46,-29.1 466.06,-35.92"/>
</a>
</g>
</g>
<!-- Node7&#45;&gt;Node4 -->
<g id="edge8_Node000007_Node000004" class="edge">
<title>Node7&#45;&gt;Node4</title>
<g id="a_edge8_Node000007_Node000004"><a xlink:title=" ">
<path fill="none" stroke="#63b8ff" d="M614.63,-148.16C644.39,-154.73 678.47,-162.26 707.9,-168.76"/>
<polygon fill="#63b8ff" stroke="#63b8ff" points="706.94,-172.13 717.46,-170.87 708.45,-165.29 706.94,-172.13"/>
</a>
</g>
</g>
</g>
</svg>

<g id="navigator" transform="translate(0 0)" fill="#404254">
  <rect fill="#f2f5e9" fill-opacity="0.5" stroke="#606060" stroke-width=".5" x="0" y="0" width="60" height="60"/>
  <use id="zoomplus" xlink:href="#zoomPlus" x="17" y="9" onmousedown="handleZoom(evt,'in')"/>
  <use id="zoomminus" xlink:href="#zoomMin" x="42" y="9" onmousedown="handleZoom(evt,'out')"/>
  <use id="reset" xlink:href="#resetDef" x="30" y="36" onmousedown="handleReset()"/>
   <use id="arrowup" xlink:href="#arrowUp" x="0" y="0" onmousedown="handlePan(0,-1)"/>
  <use id="arrowright" xlink:href="#arrowRight" x="0" y="0" onmousedown="handlePan(1,0)"/>
  <use id="arrowdown" xlink:href="#arrowDown" x="0" y="0" onmousedown="handlePan(0,1)"/>
  <use id="arrowleft" xlink:href="#arrowLeft" x="0" y="0" onmousedown="handlePan(-1,0)"/>
</g>
<svg viewBox="0 0 15 15" width="100%" height="30px" preserveAspectRatio="xMaxYMin meet">
 <g id="arrow_out" transform="scale(0.3 0.3)">
  <a xlink:href="class_ship_a25d0e4e1201ebf27ff37a82f1eade78f_cgraph_org.svg" target="_base">
   <rect id="button" ry="5" rx="5" y="6" x="6" height="38" width="38"
        fill="#f2f5e9" fill-opacity="0.5" stroke="#606060" stroke-width="1.0"/>
   <path id="arrow"
     d="M 11.500037,31.436501 C 11.940474,20.09759 22.043105,11.32322 32.158766,21.979434 L 37.068811,17.246167 C 37.068811,17.246167 37.088388,32 37.088388,32 L 22.160133,31.978069 C 22.160133,31.978069 26.997745,27.140456 26.997745,27.140456 C 18.528582,18.264221 13.291696,25.230495 11.500037,31.436501 z"
     style="fill:#404040;"/>
  </a>
 </g>
</svg>

<style type='text/css'>
<![CDATA[
[data-mouse-over-selected='false'] { opacity: 0.7; }
[data-mouse-over-selected='true']  { opacity: 1.0; }
]]>
</style>
<script type="application/ecmascript"><![CDATA[
document.addEventListener('DOMContentLoaded', (event) => {
  highlightEdges();
  highlightAdjacentNodes();
});
]]></script>
</svg>
