<?xml version="1.0" encoding="UTF-8" standalone="no"?>
<!DOCTYPE svg PUBLIC "-//W3C//DTD SVG 1.1//EN"
 "http://www.w3.org/Graphics/SVG/1.1/DTD/svg11.dtd">
<!-- Generated by graphviz version 12.2.1 (20241206.2353)
 -->
<!-- Title: WeaponSystem Pages: 1 -->
<svg width="188pt" height="1044pt"
 viewBox="0.00 0.00 188.00 1044.00" xmlns="http://www.w3.org/2000/svg" xmlns:xlink="http://www.w3.org/1999/xlink">
<g id="graph0" class="graph" transform="scale(1 1) rotate(0) translate(4 1040)">
<title>WeaponSystem</title>
<!-- Node1 -->
<g id="Node000001" class="node">
<title>Node1</title>
<g id="a_Node000001"><a xlink:title="함선의 무기 시스템. 무기의 추가/제거, 발사, 쿨다운 관리 및 스탯 보정을 적용한 데미지/쿨타임 계산을 담당합니다.">
<polygon fill="#999999" stroke="none" points="164.25,-247.5 15.75,-247.5 15.75,0 164.25,0 164.25,-247.5"/>
<text text-anchor="start" x="58.5" y="-234" font-family="Consolas" font-size="10.00">WeaponSystem</text>
<text text-anchor="start" x="87.38" y="-219.5" font-family="Consolas" font-size="10.00"> </text>
<text text-anchor="start" x="19.75" y="-205" font-family="Consolas" font-size="10.00">+</text>
<text text-anchor="start" x="29" y="-205" font-family="Consolas" font-size="10.00">override void Update</text>
<text text-anchor="start" x="29" y="-194.5" font-family="Consolas" font-size="10.00">(float deltaTime)</text>
<text text-anchor="start" x="19.75" y="-180" font-family="Consolas" font-size="10.00">+</text>
<text text-anchor="start" x="29" y="-180" font-family="Consolas" font-size="10.00">bool AddWeapon(ShipWeapon</text>
<text text-anchor="start" x="29" y="-169.5" font-family="Consolas" font-size="10.00">Data weaponData)</text>
<text text-anchor="start" x="19.75" y="-155" font-family="Consolas" font-size="10.00">+</text>
<text text-anchor="start" x="29" y="-155" font-family="Consolas" font-size="10.00">bool RemoveWeapon(int</text>
<text text-anchor="start" x="29" y="-144.5" font-family="Consolas" font-size="10.00"> index)</text>
<text text-anchor="start" x="19.75" y="-130" font-family="Consolas" font-size="10.00">+</text>
<text text-anchor="start" x="29" y="-130" font-family="Consolas" font-size="10.00">bool FireWeapon(int</text>
<text text-anchor="start" x="29" y="-119.5" font-family="Consolas" font-size="10.00"> index, Transform target)</text>
<text text-anchor="start" x="19.75" y="-105" font-family="Consolas" font-size="10.00">+</text>
<text text-anchor="start" x="29" y="-105" font-family="Consolas" font-size="10.00">float GetActualCooldown</text>
<text text-anchor="start" x="29" y="-94.5" font-family="Consolas" font-size="10.00">(float baseCooldown)</text>
<text text-anchor="start" x="19.75" y="-80" font-family="Consolas" font-size="10.00">+</text>
<text text-anchor="start" x="29" y="-80" font-family="Consolas" font-size="10.00">float GetActualDamage</text>
<text text-anchor="start" x="29" y="-69.5" font-family="Consolas" font-size="10.00">(float damage)</text>
<text text-anchor="start" x="19.75" y="-55" font-family="Consolas" font-size="10.00">+</text>
<text text-anchor="start" x="29" y="-55" font-family="Consolas" font-size="10.00">List&lt; ShipWeapon &gt;</text>
<text text-anchor="start" x="29" y="-44.5" font-family="Consolas" font-size="10.00"> GetWeapons()</text>
<text text-anchor="start" x="19.75" y="-30" font-family="Consolas" font-size="10.00">+</text>
<text text-anchor="start" x="29" y="-30" font-family="Consolas" font-size="10.00">int GetWeaponCount()</text>
<text text-anchor="start" x="19.75" y="-15.5" font-family="Consolas" font-size="10.00">+</text>
<text text-anchor="start" x="29" y="-15.5" font-family="Consolas" font-size="10.00">ShipWeapon GetWeapon</text>
<text text-anchor="start" x="29" y="-5" font-family="Consolas" font-size="10.00">(int index)</text>
<polygon fill="#666666" stroke="#666666" points="15.75,-231 15.75,-231 164.25,-231 164.25,-231 15.75,-231"/>
<polygon fill="#666666" stroke="#666666" points="15.75,-216.5 15.75,-216.5 164.25,-216.5 164.25,-216.5 15.75,-216.5"/>
<polygon fill="none" stroke="#666666" points="15.75,0 15.75,-247.5 164.25,-247.5 164.25,0 15.75,0"/>
</a>
</g>
</g>
<!-- Node2 -->
<g id="Node000002" class="node">
<title>Node2</title>
<g id="a_Node000002"><a xlink:href="class_ship_system.html" target="_top" xlink:title="모든 함선 시스템의 추상 기반 클래스. 각 시스템은 함선 객체를 기반으로 동작하며, 공통적인 초기화 및 스탯 조회 기능을 제공합니다.">
<polygon fill="white" stroke="none" points="172.12,-382 7.88,-382 7.88,-284.5 172.12,-284.5 172.12,-382"/>
<text text-anchor="start" x="63.75" y="-368.5" font-family="Consolas" font-size="10.00">ShipSystem</text>
<text text-anchor="start" x="87.38" y="-354" font-family="Consolas" font-size="10.00"> </text>
<text text-anchor="start" x="11.88" y="-339.5" font-family="Consolas" font-size="10.00">+</text>
<text text-anchor="start" x="21.12" y="-339.5" font-family="Consolas" font-size="10.00">virtual void Initialize</text>
<text text-anchor="start" x="21.12" y="-329" font-family="Consolas" font-size="10.00">(Ship ship)</text>
<text text-anchor="start" x="11.88" y="-314.5" font-family="Consolas" font-size="10.00">+</text>
<text text-anchor="start" x="21.12" y="-314.5" font-family="Consolas" font-size="10.00">void Update(float deltaTime)</text>
<text text-anchor="start" x="11.88" y="-300" font-family="Consolas" font-size="10.00">#</text>
<text text-anchor="start" x="21.12" y="-300" font-family="Consolas" font-size="10.00">float GetShipStat(ShipStat</text>
<text text-anchor="start" x="21.12" y="-289.5" font-family="Consolas" font-size="10.00"> stat)</text>
<polygon fill="#666666" stroke="#666666" points="7.88,-365.5 7.88,-365.5 172.12,-365.5 172.12,-365.5 7.88,-365.5"/>
<polygon fill="#666666" stroke="#666666" points="7.88,-351 7.88,-351 172.12,-351 172.12,-351 7.88,-351"/>
<polygon fill="none" stroke="#666666" points="7.88,-284.5 7.88,-382 172.12,-382 172.12,-284.5 7.88,-284.5"/>
</a>
</g>
</g>
<!-- Node2&#45;&gt;Node1 -->
<g id="edge1_Node000001_Node000002" class="edge">
<title>Node2&#45;&gt;Node1</title>
<g id="a_edge1_Node000001_Node000002"><a xlink:title=" ">
<path fill="none" stroke="#63b8ff" d="M90,-273.23C90,-264.92 90,-256.12 90,-247.14"/>
<polygon fill="none" stroke="#63b8ff" points="86.5,-273.13 90,-283.13 93.5,-273.13 86.5,-273.13"/>
</a>
</g>
</g>
<!-- Node3 -->
<g id="Node000003" class="node">
<title>Node3</title>
<g id="a_Node000003"><a xlink:href="class_ship.html" target="_top" xlink:title="함선의 전체 기능과 상태를 관리하는 클래스. 방 배치, 시스템 초기화, 전투 처리, 자원 계산, 스탯 갱신 등의 기능을 포함합니다.">
<polygon fill="white" stroke="none" points="180,-951.5 0,-951.5 0,-430 180,-430 180,-951.5"/>
<text text-anchor="start" x="79.5" y="-938" font-family="Consolas" font-size="10.00">Ship</text>
<text text-anchor="start" x="4" y="-923.5" font-family="Consolas" font-size="10.00">+</text>
<text text-anchor="start" x="13.25" y="-923.5" font-family="Consolas" font-size="10.00">GameObject testRoomPrefab1</text>
<text text-anchor="start" x="4" y="-909" font-family="Consolas" font-size="10.00">+</text>
<text text-anchor="start" x="13.25" y="-909" font-family="Consolas" font-size="10.00">GameObject testRoomPrefab2</text>
<text text-anchor="start" x="4" y="-894.5" font-family="Consolas" font-size="10.00">+</text>
<text text-anchor="start" x="13.25" y="-894.5" font-family="Consolas" font-size="10.00">bool AddRoom(Room room,</text>
<text text-anchor="start" x="13.25" y="-884" font-family="Consolas" font-size="10.00"> Vector2Int position)</text>
<text text-anchor="start" x="4" y="-869.5" font-family="Consolas" font-size="10.00">+</text>
<text text-anchor="start" x="13.25" y="-869.5" font-family="Consolas" font-size="10.00">bool RemoveRoom(Room</text>
<text text-anchor="start" x="13.25" y="-859" font-family="Consolas" font-size="10.00"> room)</text>
<text text-anchor="start" x="4" y="-844.5" font-family="Consolas" font-size="10.00">+</text>
<text text-anchor="start" x="13.25" y="-844.5" font-family="Consolas" font-size="10.00">bool AddDoor(Vector2Int</text>
<text text-anchor="start" x="13.25" y="-834" font-family="Consolas" font-size="10.00"> position, bool isVertical)</text>
<text text-anchor="start" x="4" y="-819.5" font-family="Consolas" font-size="10.00">+</text>
<text text-anchor="start" x="13.25" y="-819.5" font-family="Consolas" font-size="10.00">T GetRoomOfType&lt; T &gt;()</text>
<text text-anchor="start" x="4" y="-805" font-family="Consolas" font-size="10.00">+</text>
<text text-anchor="start" x="13.25" y="-805" font-family="Consolas" font-size="10.00">List&lt; Room &gt; GetRoomsByType</text>
<text text-anchor="start" x="13.25" y="-794.5" font-family="Consolas" font-size="10.00">(RoomType type)</text>
<text text-anchor="start" x="4" y="-780" font-family="Consolas" font-size="10.00">+</text>
<text text-anchor="start" x="13.25" y="-780" font-family="Consolas" font-size="10.00">T GetSystem&lt; T &gt;()</text>
<text text-anchor="start" x="4" y="-765.5" font-family="Consolas" font-size="10.00">+</text>
<text text-anchor="start" x="13.25" y="-765.5" font-family="Consolas" font-size="10.00">void RecalculateAllStats()</text>
<text text-anchor="start" x="4" y="-751" font-family="Consolas" font-size="10.00">+</text>
<text text-anchor="start" x="13.25" y="-751" font-family="Consolas" font-size="10.00">float GetStat(ShipStat</text>
<text text-anchor="start" x="13.25" y="-740.5" font-family="Consolas" font-size="10.00"> statType)</text>
<text text-anchor="start" x="4" y="-726" font-family="Consolas" font-size="10.00">+</text>
<text text-anchor="start" x="13.25" y="-726" font-family="Consolas" font-size="10.00">Dictionary&lt; ShipStat,</text>
<text text-anchor="start" x="13.25" y="-715.5" font-family="Consolas" font-size="10.00"> float &gt; GetRoomContributions</text>
<text text-anchor="start" x="13.25" y="-705" font-family="Consolas" font-size="10.00">(string roomName)</text>
<text text-anchor="start" x="4" y="-690.5" font-family="Consolas" font-size="10.00">+</text>
<text text-anchor="start" x="13.25" y="-690.5" font-family="Consolas" font-size="10.00">void TakeAttack(float</text>
<text text-anchor="start" x="13.25" y="-680" font-family="Consolas" font-size="10.00"> damage, WeaponType weaponType,</text>
<text text-anchor="start" x="13.25" y="-669.5" font-family="Consolas" font-size="10.00"> Vector2Int hitPosition)</text>
<text text-anchor="start" x="4" y="-655" font-family="Consolas" font-size="10.00">+</text>
<text text-anchor="start" x="13.25" y="-655" font-family="Consolas" font-size="10.00">void TakeDamage(float</text>
<text text-anchor="start" x="13.25" y="-644.5" font-family="Consolas" font-size="10.00"> damage)</text>
<text text-anchor="start" x="4" y="-630" font-family="Consolas" font-size="10.00">+</text>
<text text-anchor="start" x="13.25" y="-630" font-family="Consolas" font-size="10.00">void OnShipDestroyed()</text>
<text text-anchor="start" x="4" y="-615.5" font-family="Consolas" font-size="10.00">+</text>
<text text-anchor="start" x="13.25" y="-615.5" font-family="Consolas" font-size="10.00">bool Warp()</text>
<text text-anchor="start" x="4" y="-601" font-family="Consolas" font-size="10.00">+</text>
<text text-anchor="start" x="13.25" y="-601" font-family="Consolas" font-size="10.00">float CalculateWarpFuelCost()</text>
<text text-anchor="start" x="4" y="-586.5" font-family="Consolas" font-size="10.00">+</text>
<text text-anchor="start" x="13.25" y="-586.5" font-family="Consolas" font-size="10.00">int GetCrewCount()</text>
<text text-anchor="start" x="4" y="-572" font-family="Consolas" font-size="10.00">+</text>
<text text-anchor="start" x="13.25" y="-572" font-family="Consolas" font-size="10.00">int GetMaxCrew()</text>
<text text-anchor="start" x="4" y="-557.5" font-family="Consolas" font-size="10.00">+</text>
<text text-anchor="start" x="13.25" y="-557.5" font-family="Consolas" font-size="10.00">List&lt; Room &gt; GetAllRooms()</text>
<text text-anchor="start" x="4" y="-543" font-family="Consolas" font-size="10.00">+</text>
<text text-anchor="start" x="13.25" y="-543" font-family="Consolas" font-size="10.00">List&lt; Door &gt; GetAllDoors()</text>
<text text-anchor="start" x="4" y="-528.5" font-family="Consolas" font-size="10.00">+</text>
<text text-anchor="start" x="13.25" y="-528.5" font-family="Consolas" font-size="10.00">List&lt; CrewBase &gt; GetAllCrew()</text>
<text text-anchor="start" x="4" y="-514" font-family="Consolas" font-size="10.00">+</text>
<text text-anchor="start" x="13.25" y="-514" font-family="Consolas" font-size="10.00">List&lt; ShipWeapon &gt;</text>
<text text-anchor="start" x="13.25" y="-503.5" font-family="Consolas" font-size="10.00"> GetAllWeapons()</text>
<text text-anchor="start" x="4" y="-489" font-family="Consolas" font-size="10.00">+</text>
<text text-anchor="start" x="13.25" y="-489" font-family="Consolas" font-size="10.00">float GetCurrentHitPoints()</text>
<text text-anchor="start" x="4" y="-474.5" font-family="Consolas" font-size="10.00">+</text>
<text text-anchor="start" x="13.25" y="-474.5" font-family="Consolas" font-size="10.00">Vector2Int GetRandomTarget</text>
<text text-anchor="start" x="13.25" y="-464" font-family="Consolas" font-size="10.00">Position()</text>
<text text-anchor="start" x="4" y="-449.5" font-family="Consolas" font-size="10.00">+</text>
<text text-anchor="start" x="13.25" y="-449.5" font-family="Consolas" font-size="10.00">float GetOxygenRate()</text>
<text text-anchor="start" x="4" y="-435" font-family="Consolas" font-size="10.00">+</text>
<text text-anchor="start" x="13.25" y="-435" font-family="Consolas" font-size="10.00">OxygenLevel GetOxygenLevel()</text>
<polygon fill="#666666" stroke="#666666" points="0,-935 0,-935 180,-935 180,-935 0,-935"/>
<polygon fill="#666666" stroke="#666666" points="0,-906 0,-906 11.25,-906 11.25,-906 0,-906"/>
<polygon fill="#666666" stroke="#666666" points="11.25,-906 11.25,-906 180,-906 180,-906 11.25,-906"/>
<polygon fill="none" stroke="#666666" points="0,-430 0,-951.5 180,-951.5 180,-430 0,-430"/>
</a>
</g>
</g>
<!-- Node3&#45;&gt;Node2 -->
<g id="edge2_Node000002_Node000003" class="edge">
<title>Node3&#45;&gt;Node2</title>
<g id="a_edge2_Node000002_Node000003"><a xlink:title=" ">
<path fill="none" stroke="#63b8ff" d="M90,-430.45C90,-417.7 90,-405.66 90,-394.7"/>
<polygon fill="none" stroke="#63b8ff" points="90,-394.78 86,-388.78 90,-382.78 94,-388.78 90,-394.78"/>
</a>
</g>
<text text-anchor="middle" x="117.38" y="-402.5" font-family="Helvetica,sans-Serif" font-size="10.00" fill="grey"> #parentShip</text>
</g>
<!-- Node4 -->
<g id="Node000004" class="node">
<title>Node4</title>
<g id="a_Node000004"><a xlink:title=" ">
<polygon fill="white" stroke="none" points="128.12,-1036 51.88,-1036 51.88,-988.5 128.12,-988.5 128.12,-1036"/>
<text text-anchor="start" x="55.88" y="-1022.5" font-family="Consolas" font-size="10.00">MonoBehaviour</text>
<text text-anchor="start" x="87.38" y="-1008" font-family="Consolas" font-size="10.00"> </text>
<text text-anchor="start" x="87.38" y="-993.5" font-family="Consolas" font-size="10.00"> </text>
<polygon fill="#bfbfbf" stroke="#bfbfbf" points="51.88,-1019.5 51.88,-1019.5 128.12,-1019.5 128.12,-1019.5 51.88,-1019.5"/>
<polygon fill="#bfbfbf" stroke="#bfbfbf" points="51.88,-1005 51.88,-1005 128.12,-1005 128.12,-1005 51.88,-1005"/>
<polygon fill="none" stroke="#bfbfbf" points="51.88,-988.5 51.88,-1036 128.12,-1036 128.12,-988.5 51.88,-988.5"/>
</a>
</g>
</g>
<!-- Node4&#45;&gt;Node3 -->
<g id="edge3_Node000003_Node000004" class="edge">
<title>Node4&#45;&gt;Node3</title>
<g id="a_edge3_Node000003_Node000004"><a xlink:title=" ">
<path fill="none" stroke="#63b8ff" d="M90,-977.09C90,-969.47 90,-960.83 90,-951.41"/>
<polygon fill="none" stroke="#63b8ff" points="86.5,-977.01 90,-987.01 93.5,-977.01 86.5,-977.01"/>
</a>
</g>
</g>
</g>
</svg>
