<?xml version="1.0" encoding="UTF-8" standalone="no"?>
<!DOCTYPE svg PUBLIC "-//W3C//DTD SVG 1.1//EN"
 "http://www.w3.org/Graphics/SVG/1.1/DTD/svg11.dtd">
<!-- Generated by graphviz version 12.2.1 (20241206.2353)
 -->
<!-- Title: PowerSystem Pages: 1 -->
<!--zoomable 578 -->

<svg id="main" version="1.1" xmlns="http://www.w3.org/2000/svg" xmlns:xlink="http://www.w3.org/1999/xlink" xml:space="preserve" onload="init(evt)">

<style type="text/css"><![CDATA[
.node, .edge {opacity: 0.7;}
.node.selected, .edge.selected {opacity: 1;}
.edge:hover path { stroke: red; }
.edge:hover polygon { stroke: red; fill: red; }
]]></style>

<defs>
  <circle id="rim" cx="0" cy="0" r="7"/>
  <circle id="rim2" cx="0" cy="0" r="3.5"/>
  <g id="zoomPlus">
    <use xlink:href="#rim" fill="#404040"><set attributeName="fill" to="#808080" begin="zoomplus.mouseover" end="zoomplus.mouseout"/></use>
    <path d="M-4,0h8M0,-4v8" fill="none" stroke="white" stroke-width="1.5" pointer-events="none"/>
  </g>
  <g id="zoomMin">
    <use xlink:href="#rim" fill="#404040"><set attributeName="fill" to="#808080" begin="zoomminus.mouseover" end="zoomminus.mouseout"/></use>
    <path d="M-4,0h8" fill="none" stroke="white" stroke-width="1.5" pointer-events="none"/>
  </g>
  <g id="arrowUp" transform="translate(30 24)">
    <use xlink:href="#rim"/>
    <path pointer-events="none" fill="none" stroke="white" stroke-width="1.5" d="M0,-3.0v7 M-2.5,-0.5L0,-3.0L2.5,-0.5"/>
  </g>
  <g id="arrowRight" transform="rotate(90) translate(36 -43)">
    <use xlink:href="#rim"/>
    <path pointer-events="none" fill="none" stroke="white" stroke-width="1.5" d="M0,-3.0v7 M-2.5,-0.5L0,-3.0L2.5,-0.5"/>
  </g>
  <g id="arrowDown" transform="rotate(180) translate(-30 -48)">
    <use xlink:href="#rim"/>
    <path pointer-events="none" fill="none" stroke="white" stroke-width="1.5" d="M0,-3.0v7 M-2.5,-0.5L0,-3.0L2.5,-0.5"/>
  </g>
  <g id="arrowLeft" transform="rotate(270) translate(-36 17)">
    <use xlink:href="#rim"/>
    <path pointer-events="none" fill="none" stroke="white" stroke-width="1.5" d="M0,-3.0v7 M-2.5,-0.5L0,-3.0L2.5,-0.5"/>
  </g>
  <g id="resetDef">
    <use xlink:href="#rim2" fill="#404040"><set attributeName="fill" to="#808080" begin="reset.mouseover" end="reset.mouseout"/></use>
  </g>
</defs>
<script type="application/ecmascript">
var viewWidth = 137;
var viewHeight = 578;
var sectionId = 'dynsection-1';
</script>
<script type="application/ecmascript" xlink:href="svg.min.js"/>
<svg id="graph" class="graph">
<g id="viewport">
<title>PowerSystem</title>
<!-- Node1 -->
<g id="Node000001" class="node">
<title>Node1</title>
<g id="a_Node000001"><a xlink:title=" ">
<polygon fill="#999999" stroke="none" points="129,-68 0,-68 0,0 129,0 129,-68"/>
<text text-anchor="start" x="33.75" y="-54.5" font-family="Helvetica,sans-Serif" font-size="10.00">PowerSystem</text>
<text text-anchor="start" x="63" y="-38.5" font-family="Helvetica,sans-Serif" font-size="10.00"> </text>
<text text-anchor="start" x="4" y="-22.5" font-family="Helvetica,sans-Serif" font-size="10.00">+</text>
<text text-anchor="start" x="14" y="-22.5" font-family="Helvetica,sans-Serif" font-size="10.00">Update()</text>
<text text-anchor="start" x="4" y="-6.5" font-family="Helvetica,sans-Serif" font-size="10.00">+</text>
<text text-anchor="start" x="14" y="-6.5" font-family="Helvetica,sans-Serif" font-size="10.00">RequestPowerForRoom()</text>
<polygon fill="#666666" stroke="#666666" points="0,-50 0,-50 129,-50 129,-50 0,-50"/>
<polygon fill="#666666" stroke="#666666" points="0,-34 0,-34 129,-34 129,-34 0,-34"/>
<polygon fill="none" stroke="#666666" points="0,0 0,-68 129,-68 129,0 0,0"/>
</a>
</g>
</g>
<!-- Node2 -->
<g id="Node000002" class="node">
<title>Node2</title>
<g id="a_Node000002"><a xlink:href="class_ship_system.html" target="_top" xlink:title=" ">
<polygon fill="white" stroke="none" points="103.12,-189 25.88,-189 25.88,-105 103.12,-105 103.12,-189"/>
<text text-anchor="start" x="37.88" y="-175.5" font-family="Helvetica,sans-Serif" font-size="10.00">ShipSystem</text>
<text text-anchor="start" x="63" y="-159.5" font-family="Helvetica,sans-Serif" font-size="10.00"> </text>
<text text-anchor="start" x="29.88" y="-143.5" font-family="Helvetica,sans-Serif" font-size="10.00">+</text>
<text text-anchor="start" x="39.88" y="-143.5" font-family="Helvetica,sans-Serif" font-size="10.00">Initialize()</text>
<text text-anchor="start" x="29.88" y="-127.5" font-family="Helvetica,sans-Serif" font-size="10.00">+</text>
<text text-anchor="start" x="39.88" y="-127.5" font-family="Helvetica,sans-Serif" font-size="10.00">Update()</text>
<text text-anchor="start" x="30.25" y="-111.5" font-family="Helvetica,sans-Serif" font-size="10.00">#</text>
<text text-anchor="start" x="39.88" y="-111.5" font-family="Helvetica,sans-Serif" font-size="10.00">GetShipStat()</text>
<polygon fill="#bfbfbf" stroke="#bfbfbf" points="25.88,-171 25.88,-171 103.12,-171 103.12,-171 25.88,-171"/>
<polygon fill="#bfbfbf" stroke="#bfbfbf" points="25.88,-155 25.88,-155 103.12,-155 103.12,-155 25.88,-155"/>
<polygon fill="none" stroke="#bfbfbf" points="25.88,-105 25.88,-189 103.12,-189 103.12,-105 25.88,-105"/>
</a>
</g>
</g>
<!-- Node2&#45;&gt;Node1 -->
<g id="edge1_Node000001_Node000002" class="edge">
<title>Node2&#45;&gt;Node1</title>
<g id="a_edge1_Node000001_Node000002"><a xlink:title=" ">
<path fill="none" stroke="#63b8ff" d="M64.5,-94.07C64.5,-85.09 64.5,-75.99 64.5,-67.71"/>
<polygon fill="none" stroke="#63b8ff" points="61,-93.78 64.5,-103.78 68,-93.78 61,-93.78"/>
</a>
</g>
</g>
<!-- Node3 -->
<g id="Node000003" class="node">
<title>Node3</title>
<g id="a_Node000003"><a xlink:href="class_ship.html" target="_top" xlink:title=" ">
<polygon fill="white" stroke="none" points="126.38,-481 2.62,-481 2.62,-237 126.38,-237 126.38,-481"/>
<text text-anchor="start" x="54.75" y="-467.5" font-family="Helvetica,sans-Serif" font-size="10.00">Ship</text>
<text text-anchor="start" x="6.62" y="-451.5" font-family="Helvetica,sans-Serif" font-size="10.00">+</text>
<text text-anchor="start" x="16.62" y="-451.5" font-family="Helvetica,sans-Serif" font-size="10.00">allRooms</text>
<text text-anchor="start" x="6.62" y="-435.5" font-family="Helvetica,sans-Serif" font-size="10.00">+</text>
<text text-anchor="start" x="16.62" y="-435.5" font-family="Helvetica,sans-Serif" font-size="10.00">testRoomPrefab1</text>
<text text-anchor="start" x="6.62" y="-419.5" font-family="Helvetica,sans-Serif" font-size="10.00">+</text>
<text text-anchor="start" x="16.62" y="-419.5" font-family="Helvetica,sans-Serif" font-size="10.00">testRoomPrefab2</text>
<text text-anchor="start" x="6.62" y="-403.5" font-family="Helvetica,sans-Serif" font-size="10.00">+</text>
<text text-anchor="start" x="16.62" y="-403.5" font-family="Helvetica,sans-Serif" font-size="10.00">AddRoom()</text>
<text text-anchor="start" x="6.62" y="-387.5" font-family="Helvetica,sans-Serif" font-size="10.00">+</text>
<text text-anchor="start" x="16.62" y="-387.5" font-family="Helvetica,sans-Serif" font-size="10.00">RemoveRoom()</text>
<text text-anchor="start" x="6.62" y="-371.5" font-family="Helvetica,sans-Serif" font-size="10.00">+</text>
<text text-anchor="start" x="16.62" y="-371.5" font-family="Helvetica,sans-Serif" font-size="10.00">AddDoor()</text>
<text text-anchor="start" x="6.62" y="-355.5" font-family="Helvetica,sans-Serif" font-size="10.00">+</text>
<text text-anchor="start" x="16.62" y="-355.5" font-family="Helvetica,sans-Serif" font-size="10.00">GetRoomOfType&lt; T &gt;()</text>
<text text-anchor="start" x="6.62" y="-339.5" font-family="Helvetica,sans-Serif" font-size="10.00">+</text>
<text text-anchor="start" x="16.62" y="-339.5" font-family="Helvetica,sans-Serif" font-size="10.00">GetRoomsByType()</text>
<text text-anchor="start" x="6.62" y="-323.5" font-family="Helvetica,sans-Serif" font-size="10.00">+</text>
<text text-anchor="start" x="16.62" y="-323.5" font-family="Helvetica,sans-Serif" font-size="10.00">GetSystem&lt; T &gt;()</text>
<text text-anchor="start" x="6.62" y="-307.5" font-family="Helvetica,sans-Serif" font-size="10.00">+</text>
<text text-anchor="start" x="16.62" y="-307.5" font-family="Helvetica,sans-Serif" font-size="10.00">RecalculateAllStats()</text>
<text text-anchor="start" x="6.62" y="-291.5" font-family="Helvetica,sans-Serif" font-size="10.00">+</text>
<text text-anchor="start" x="16.62" y="-291.5" font-family="Helvetica,sans-Serif" font-size="10.00">GetStat()</text>
<text text-anchor="start" x="6.62" y="-275.5" font-family="Helvetica,sans-Serif" font-size="10.00">+</text>
<text text-anchor="start" x="16.62" y="-275.5" font-family="Helvetica,sans-Serif" font-size="10.00">GetRoomContributions()</text>
<text text-anchor="start" x="6.62" y="-259.5" font-family="Helvetica,sans-Serif" font-size="10.00">+</text>
<text text-anchor="start" x="16.62" y="-259.5" font-family="Helvetica,sans-Serif" font-size="10.00">TakeAttack()</text>
<text text-anchor="start" x="16.62" y="-243.5" font-family="Helvetica,sans-Serif" font-size="10.00">and 15 more...</text>
<polygon fill="#bfbfbf" stroke="#bfbfbf" points="2.62,-463 2.62,-463 126.38,-463 126.38,-463 2.62,-463"/>
<polygon fill="#bfbfbf" stroke="#bfbfbf" points="2.62,-415 2.62,-415 14.62,-415 14.62,-415 2.62,-415"/>
<polygon fill="#bfbfbf" stroke="#bfbfbf" points="14.62,-415 14.62,-415 126.38,-415 126.38,-415 14.62,-415"/>
<polygon fill="none" stroke="#bfbfbf" points="2.62,-237 2.62,-481 126.38,-481 126.38,-237 2.62,-237"/>
</a>
</g>
</g>
<!-- Node3&#45;&gt;Node2 -->
<g id="edge2_Node000002_Node000003" class="edge">
<title>Node3&#45;&gt;Node2</title>
<g id="a_edge2_Node000002_Node000003"><a xlink:title=" ">
<path fill="none" stroke="#63b8ff" d="M64.5,-237.06C64.5,-224.74 64.5,-212.73 64.5,-201.71"/>
<polygon fill="none" stroke="#63b8ff" points="64.5,-201.71 60.5,-195.71 64.5,-189.71 68.5,-195.71 64.5,-201.71"/>
</a>
</g>
<text text-anchor="middle" x="91.88" y="-209.5" font-family="Helvetica,sans-Serif" font-size="10.00" fill="grey"> #parentShip</text>
</g>
<!-- Node4 -->
<g id="Node000004" class="node">
<title>Node4</title>
<g id="a_Node000004"><a xlink:title=" ">
<polygon fill="white" stroke="none" points="102.25,-570 26.75,-570 26.75,-518 102.25,-518 102.25,-570"/>
<text text-anchor="start" x="30.75" y="-556.5" font-family="Helvetica,sans-Serif" font-size="10.00">MonoBehaviour</text>
<text text-anchor="start" x="63" y="-540.5" font-family="Helvetica,sans-Serif" font-size="10.00"> </text>
<text text-anchor="start" x="63" y="-524.5" font-family="Helvetica,sans-Serif" font-size="10.00"> </text>
<polygon fill="#bfbfbf" stroke="#bfbfbf" points="26.75,-552 26.75,-552 102.25,-552 102.25,-552 26.75,-552"/>
<polygon fill="#bfbfbf" stroke="#bfbfbf" points="26.75,-536 26.75,-536 102.25,-536 102.25,-536 26.75,-536"/>
<polygon fill="none" stroke="#bfbfbf" points="26.75,-518 26.75,-570 102.25,-570 102.25,-518 26.75,-518"/>
</a>
</g>
</g>
<!-- Node4&#45;&gt;Node3 -->
<g id="edge3_Node000003_Node000004" class="edge">
<title>Node4&#45;&gt;Node3</title>
<g id="a_edge3_Node000003_Node000004"><a xlink:title=" ">
<path fill="none" stroke="#63b8ff" d="M64.5,-506.99C64.5,-499.04 64.5,-490.18 64.5,-480.87"/>
<polygon fill="none" stroke="#63b8ff" points="61,-506.81 64.5,-516.81 68,-506.81 61,-506.81"/>
</a>
</g>
</g>
</g>
</svg>

<g id="navigator" transform="translate(0 0)" fill="#404254">
  <rect fill="#f2f5e9" fill-opacity="0.5" stroke="#606060" stroke-width=".5" x="0" y="0" width="60" height="60"/>
  <use id="zoomplus" xlink:href="#zoomPlus" x="17" y="9" onmousedown="handleZoom(evt,'in')"/>
  <use id="zoomminus" xlink:href="#zoomMin" x="42" y="9" onmousedown="handleZoom(evt,'out')"/>
  <use id="reset" xlink:href="#resetDef" x="30" y="36" onmousedown="handleReset()"/>
   <use id="arrowup" xlink:href="#arrowUp" x="0" y="0" onmousedown="handlePan(0,-1)"/>
  <use id="arrowright" xlink:href="#arrowRight" x="0" y="0" onmousedown="handlePan(1,0)"/>
  <use id="arrowdown" xlink:href="#arrowDown" x="0" y="0" onmousedown="handlePan(0,1)"/>
  <use id="arrowleft" xlink:href="#arrowLeft" x="0" y="0" onmousedown="handlePan(-1,0)"/>
</g>
<svg viewBox="0 0 15 15" width="100%" height="30px" preserveAspectRatio="xMaxYMin meet">
 <g id="arrow_out" transform="scale(0.3 0.3)">
  <a xlink:href="class_power_system__coll__graph_org.svg" target="_base">
   <rect id="button" ry="5" rx="5" y="6" x="6" height="38" width="38"
        fill="#f2f5e9" fill-opacity="0.5" stroke="#606060" stroke-width="1.0"/>
   <path id="arrow"
     d="M 11.500037,31.436501 C 11.940474,20.09759 22.043105,11.32322 32.158766,21.979434 L 37.068811,17.246167 C 37.068811,17.246167 37.088388,32 37.088388,32 L 22.160133,31.978069 C 22.160133,31.978069 26.997745,27.140456 26.997745,27.140456 C 18.528582,18.264221 13.291696,25.230495 11.500037,31.436501 z"
     style="fill:#404040;"/>
  </a>
 </g>
</svg>

<style type='text/css'>
<![CDATA[
[data-mouse-over-selected='false'] { opacity: 0.7; }
[data-mouse-over-selected='true']  { opacity: 1.0; }
]]>
</style>
<script type="application/ecmascript"><![CDATA[
document.addEventListener('DOMContentLoaded', (event) => {
  highlightEdges();
  highlightAdjacentNodes();
});
]]></script>
</svg>
