<?xml version="1.0" encoding="UTF-8" standalone="no"?>
<!DOCTYPE svg PUBLIC "-//W3C//DTD SVG 1.1//EN"
 "http://www.w3.org/Graphics/SVG/1.1/DTD/svg11.dtd">
<!-- Generated by graphviz version 12.2.1 (20241206.2353)
 -->
<!-- Title: EventOutcome Pages: 1 -->
<svg width="157pt" height="379pt"
 viewBox="0.00 0.00 156.50 379.00" xmlns="http://www.w3.org/2000/svg" xmlns:xlink="http://www.w3.org/1999/xlink">
<g id="graph0" class="graph" transform="scale(1 1) rotate(0) translate(4 375)">
<title>EventOutcome</title>
<!-- Node1 -->
<g id="Node000001" class="node">
<title>Node1</title>
<g id="a_Node000001"><a xlink:title=" ">
<polygon fill="#999999" stroke="none" points="148.5,-137 0,-137 0,0 148.5,0 148.5,-137"/>
<text text-anchor="start" x="42.75" y="-123.5" font-family="Consolas" font-size="10.00">EventOutcome</text>
<text text-anchor="start" x="4" y="-109" font-family="Consolas" font-size="10.00">+</text>
<text text-anchor="start" x="13.25" y="-109" font-family="Consolas" font-size="10.00">string outcomeText</text>
<text text-anchor="start" x="4" y="-94.5" font-family="Consolas" font-size="10.00">+</text>
<text text-anchor="start" x="13.25" y="-94.5" font-family="Consolas" font-size="10.00">float probability</text>
<text text-anchor="start" x="4" y="-80" font-family="Consolas" font-size="10.00">+</text>
<text text-anchor="start" x="13.25" y="-80" font-family="Consolas" font-size="10.00">List&lt; ResourceEffect</text>
<text text-anchor="start" x="13.25" y="-69.5" font-family="Consolas" font-size="10.00"> &gt; resourceEffects</text>
<text text-anchor="start" x="4" y="-55" font-family="Consolas" font-size="10.00">+</text>
<text text-anchor="start" x="13.25" y="-55" font-family="Consolas" font-size="10.00">List&lt; CrewEffect &gt;</text>
<text text-anchor="start" x="13.25" y="-44.5" font-family="Consolas" font-size="10.00"> crewEffects</text>
<text text-anchor="start" x="4" y="-30" font-family="Consolas" font-size="10.00">+</text>
<text text-anchor="start" x="13.25" y="-30" font-family="Consolas" font-size="10.00">SpecialEffectType special</text>
<text text-anchor="start" x="13.25" y="-19.5" font-family="Consolas" font-size="10.00">EffectType</text>
<text text-anchor="start" x="71.62" y="-5" font-family="Consolas" font-size="10.00"> </text>
<polygon fill="#666666" stroke="#666666" points="0,-120.5 0,-120.5 148.5,-120.5 148.5,-120.5 0,-120.5"/>
<polygon fill="#666666" stroke="#666666" points="0,-16.5 0,-16.5 11.25,-16.5 11.25,-16.5 0,-16.5"/>
<polygon fill="#666666" stroke="#666666" points="11.25,-16.5 11.25,-16.5 148.5,-16.5 148.5,-16.5 11.25,-16.5"/>
<polygon fill="none" stroke="#666666" points="0,0 0,-137 148.5,-137 148.5,0 0,0"/>
</a>
</g>
</g>
<!-- Node2 -->
<g id="Node000002" class="node">
<title>Node2</title>
<g id="a_Node000002"><a xlink:href="class_random_event.html" target="_top" xlink:title=" ">
<polygon fill="white" stroke="none" points="143.25,-286.5 5.25,-286.5 5.25,-185 143.25,-185 143.25,-286.5"/>
<text text-anchor="start" x="45.38" y="-273" font-family="Consolas" font-size="10.00">RandomEvent</text>
<text text-anchor="start" x="9.25" y="-258.5" font-family="Consolas" font-size="10.00">+</text>
<text text-anchor="start" x="18.5" y="-258.5" font-family="Consolas" font-size="10.00">string eventTitle</text>
<text text-anchor="start" x="9.25" y="-244" font-family="Consolas" font-size="10.00">+</text>
<text text-anchor="start" x="18.5" y="-244" font-family="Consolas" font-size="10.00">string eventDescription</text>
<text text-anchor="start" x="9.25" y="-229.5" font-family="Consolas" font-size="10.00">+</text>
<text text-anchor="start" x="18.5" y="-229.5" font-family="Consolas" font-size="10.00">Sprite eventImage</text>
<text text-anchor="start" x="9.25" y="-215" font-family="Consolas" font-size="10.00">+</text>
<text text-anchor="start" x="18.5" y="-215" font-family="Consolas" font-size="10.00">List&lt; EventChoice &gt;</text>
<text text-anchor="start" x="18.5" y="-204.5" font-family="Consolas" font-size="10.00"> choices</text>
<text text-anchor="start" x="71.62" y="-190" font-family="Consolas" font-size="10.00"> </text>
<polygon fill="#bfbfbf" stroke="#bfbfbf" points="5.25,-270 5.25,-270 143.25,-270 143.25,-270 5.25,-270"/>
<polygon fill="#bfbfbf" stroke="#bfbfbf" points="5.25,-201.5 5.25,-201.5 16.5,-201.5 16.5,-201.5 5.25,-201.5"/>
<polygon fill="#bfbfbf" stroke="#bfbfbf" points="16.5,-201.5 16.5,-201.5 143.25,-201.5 143.25,-201.5 16.5,-201.5"/>
<polygon fill="none" stroke="#bfbfbf" points="5.25,-185 5.25,-286.5 143.25,-286.5 143.25,-185 5.25,-185"/>
</a>
</g>
</g>
<!-- Node2&#45;&gt;Node1 -->
<g id="edge1_Node000001_Node000002" class="edge">
<title>Node2&#45;&gt;Node1</title>
<g id="a_edge1_Node000001_Node000002"><a xlink:title=" ">
<path fill="none" stroke="#63b8ff" d="M74.25,-185.17C74.25,-174 74.25,-161.86 74.25,-149.79"/>
<polygon fill="none" stroke="#63b8ff" points="74.25,-149.67 70.25,-143.67 74.25,-137.67 78.25,-143.67 74.25,-149.67"/>
</a>
</g>
<text text-anchor="middle" x="100.88" y="-157.5" font-family="Helvetica,sans-Serif" font-size="10.00" fill="grey"> +nextEvent</text>
</g>
<!-- Node3 -->
<g id="Node000003" class="node">
<title>Node3</title>
<g id="a_Node000003"><a xlink:title=" ">
<polygon fill="white" stroke="none" points="120.25,-371 28.25,-371 28.25,-323.5 120.25,-323.5 120.25,-371"/>
<text text-anchor="start" x="32.25" y="-357.5" font-family="Consolas" font-size="10.00">ScriptableObject</text>
<text text-anchor="start" x="71.62" y="-343" font-family="Consolas" font-size="10.00"> </text>
<text text-anchor="start" x="71.62" y="-328.5" font-family="Consolas" font-size="10.00"> </text>
<polygon fill="#bfbfbf" stroke="#bfbfbf" points="28.25,-354.5 28.25,-354.5 120.25,-354.5 120.25,-354.5 28.25,-354.5"/>
<polygon fill="#bfbfbf" stroke="#bfbfbf" points="28.25,-340 28.25,-340 120.25,-340 120.25,-340 28.25,-340"/>
<polygon fill="none" stroke="#bfbfbf" points="28.25,-323.5 28.25,-371 120.25,-371 120.25,-323.5 28.25,-323.5"/>
</a>
</g>
</g>
<!-- Node3&#45;&gt;Node2 -->
<g id="edge2_Node000002_Node000003" class="edge">
<title>Node3&#45;&gt;Node2</title>
<g id="a_edge2_Node000002_Node000003"><a xlink:title=" ">
<path fill="none" stroke="#63b8ff" d="M74.25,-312.23C74.25,-304.08 74.25,-295.2 74.25,-286.5"/>
<polygon fill="none" stroke="#63b8ff" points="70.75,-312.05 74.25,-322.05 77.75,-312.05 70.75,-312.05"/>
</a>
</g>
</g>
</g>
</svg>
