<?xml version="1.0" encoding="UTF-8" standalone="no"?>
<!DOCTYPE svg PUBLIC "-//W3C//DTD SVG 1.1//EN"
 "http://www.w3.org/Graphics/SVG/1.1/DTD/svg11.dtd">
<!-- Generated by graphviz version 12.2.1 (20241206.2353)
 -->
<!-- Title: CrewMember Pages: 1 -->
<!--zoomable 1742 -->

<svg id="main" version="1.1" xmlns="http://www.w3.org/2000/svg" xmlns:xlink="http://www.w3.org/1999/xlink" xml:space="preserve" onload="init(evt)">

<style type="text/css"><![CDATA[
.node, .edge {opacity: 0.7;}
.node.selected, .edge.selected {opacity: 1;}
.edge:hover path { stroke: red; }
.edge:hover polygon { stroke: red; fill: red; }
]]></style>

<defs>
  <circle id="rim" cx="0" cy="0" r="7"/>
  <circle id="rim2" cx="0" cy="0" r="3.5"/>
  <g id="zoomPlus">
    <use xlink:href="#rim" fill="#404040"><set attributeName="fill" to="#808080" begin="zoomplus.mouseover" end="zoomplus.mouseout"/></use>
    <path d="M-4,0h8M0,-4v8" fill="none" stroke="white" stroke-width="1.5" pointer-events="none"/>
  </g>
  <g id="zoomMin">
    <use xlink:href="#rim" fill="#404040"><set attributeName="fill" to="#808080" begin="zoomminus.mouseover" end="zoomminus.mouseout"/></use>
    <path d="M-4,0h8" fill="none" stroke="white" stroke-width="1.5" pointer-events="none"/>
  </g>
  <g id="arrowUp" transform="translate(30 24)">
    <use xlink:href="#rim"/>
    <path pointer-events="none" fill="none" stroke="white" stroke-width="1.5" d="M0,-3.0v7 M-2.5,-0.5L0,-3.0L2.5,-0.5"/>
  </g>
  <g id="arrowRight" transform="rotate(90) translate(36 -43)">
    <use xlink:href="#rim"/>
    <path pointer-events="none" fill="none" stroke="white" stroke-width="1.5" d="M0,-3.0v7 M-2.5,-0.5L0,-3.0L2.5,-0.5"/>
  </g>
  <g id="arrowDown" transform="rotate(180) translate(-30 -48)">
    <use xlink:href="#rim"/>
    <path pointer-events="none" fill="none" stroke="white" stroke-width="1.5" d="M0,-3.0v7 M-2.5,-0.5L0,-3.0L2.5,-0.5"/>
  </g>
  <g id="arrowLeft" transform="rotate(270) translate(-36 17)">
    <use xlink:href="#rim"/>
    <path pointer-events="none" fill="none" stroke="white" stroke-width="1.5" d="M0,-3.0v7 M-2.5,-0.5L0,-3.0L2.5,-0.5"/>
  </g>
  <g id="resetDef">
    <use xlink:href="#rim2" fill="#404040"><set attributeName="fill" to="#808080" begin="reset.mouseover" end="reset.mouseout"/></use>
  </g>
</defs>
<script type="application/ecmascript">
var viewWidth = 714;
var viewHeight = 1742;
var sectionId = 'dynsection-1';
</script>
<script type="application/ecmascript" xlink:href="svg.min.js"/>
<svg id="graph" class="graph">
<g id="viewport">
<title>CrewMember</title>
<!-- Node1 -->
<g id="Node000001" class="node">
<title>Node1</title>
<g id="a_Node000001"><a xlink:title=" ">
<polygon fill="#999999" stroke="none" points="424.34,-52 318.59,-52 318.59,0 424.34,0 424.34,-52"/>
<text text-anchor="start" x="342.21" y="-38.5" font-family="Helvetica,sans-Serif" font-size="10.00">CrewMember</text>
<text text-anchor="start" x="369.96" y="-22.5" font-family="Helvetica,sans-Serif" font-size="10.00"> </text>
<text text-anchor="start" x="322.59" y="-6.5" font-family="Helvetica,sans-Serif" font-size="10.00">+</text>
<text text-anchor="start" x="332.59" y="-6.5" font-family="Helvetica,sans-Serif" font-size="10.00">GetCrewSkillValue()</text>
<polygon fill="#666666" stroke="#666666" points="318.59,-34 318.59,-34 424.34,-34 424.34,-34 318.59,-34"/>
<polygon fill="#666666" stroke="#666666" points="318.59,-18 318.59,-18 424.34,-18 424.34,-18 318.59,-18"/>
<polygon fill="none" stroke="#666666" points="318.59,0 318.59,-52 424.34,-52 424.34,0 318.59,0"/>
</a>
</g>
</g>
<!-- Node2 -->
<g id="Node000002" class="node">
<title>Node2</title>
<g id="a_Node000002"><a xlink:href="class_crew_base.html" target="_top" xlink:title=" ">
<polygon fill="white" stroke="none" points="424.34,-461 318.59,-461 318.59,-89 424.34,-89 424.34,-461"/>
<text text-anchor="start" x="348.59" y="-447.5" font-family="Helvetica,sans-Serif" font-size="10.00">CrewBase</text>
<text text-anchor="start" x="322.59" y="-431.5" font-family="Helvetica,sans-Serif" font-size="10.00">+</text>
<text text-anchor="start" x="332.59" y="-431.5" font-family="Helvetica,sans-Serif" font-size="10.00">crewName</text>
<text text-anchor="start" x="322.59" y="-415.5" font-family="Helvetica,sans-Serif" font-size="10.00">+</text>
<text text-anchor="start" x="332.59" y="-415.5" font-family="Helvetica,sans-Serif" font-size="10.00">isPlayerControlled</text>
<text text-anchor="start" x="322.59" y="-399.5" font-family="Helvetica,sans-Serif" font-size="10.00">+</text>
<text text-anchor="start" x="332.59" y="-399.5" font-family="Helvetica,sans-Serif" font-size="10.00">race</text>
<text text-anchor="start" x="322.59" y="-383.5" font-family="Helvetica,sans-Serif" font-size="10.00">+</text>
<text text-anchor="start" x="332.59" y="-383.5" font-family="Helvetica,sans-Serif" font-size="10.00">maxHealth</text>
<text text-anchor="start" x="322.59" y="-367.5" font-family="Helvetica,sans-Serif" font-size="10.00">+</text>
<text text-anchor="start" x="332.59" y="-367.5" font-family="Helvetica,sans-Serif" font-size="10.00">attack</text>
<text text-anchor="start" x="322.59" y="-351.5" font-family="Helvetica,sans-Serif" font-size="10.00">+</text>
<text text-anchor="start" x="332.59" y="-351.5" font-family="Helvetica,sans-Serif" font-size="10.00">defense</text>
<text text-anchor="start" x="322.59" y="-335.5" font-family="Helvetica,sans-Serif" font-size="10.00">+</text>
<text text-anchor="start" x="332.59" y="-335.5" font-family="Helvetica,sans-Serif" font-size="10.00">learningSpeed</text>
<text text-anchor="start" x="322.59" y="-319.5" font-family="Helvetica,sans-Serif" font-size="10.00">+</text>
<text text-anchor="start" x="332.59" y="-319.5" font-family="Helvetica,sans-Serif" font-size="10.00">needsOxygen</text>
<text text-anchor="start" x="322.59" y="-303.5" font-family="Helvetica,sans-Serif" font-size="10.00">+</text>
<text text-anchor="start" x="332.59" y="-303.5" font-family="Helvetica,sans-Serif" font-size="10.00">maxSkillValueArray</text>
<text text-anchor="start" x="322.59" y="-287.5" font-family="Helvetica,sans-Serif" font-size="10.00">+</text>
<text text-anchor="start" x="332.59" y="-287.5" font-family="Helvetica,sans-Serif" font-size="10.00">maxPilotSkillValue</text>
<text text-anchor="start" x="332.59" y="-271.5" font-family="Helvetica,sans-Serif" font-size="10.00">and 16 more...</text>
<text text-anchor="start" x="322.59" y="-255.5" font-family="Helvetica,sans-Serif" font-size="10.00">+</text>
<text text-anchor="start" x="332.59" y="-255.5" font-family="Helvetica,sans-Serif" font-size="10.00">Initialize()</text>
<text text-anchor="start" x="322.59" y="-239.5" font-family="Helvetica,sans-Serif" font-size="10.00">+</text>
<text text-anchor="start" x="332.59" y="-239.5" font-family="Helvetica,sans-Serif" font-size="10.00">ImproveSkill()</text>
<text text-anchor="start" x="322.59" y="-223.5" font-family="Helvetica,sans-Serif" font-size="10.00">+</text>
<text text-anchor="start" x="332.59" y="-223.5" font-family="Helvetica,sans-Serif" font-size="10.00">MoveToRoom()</text>
<text text-anchor="start" x="322.59" y="-207.5" font-family="Helvetica,sans-Serif" font-size="10.00">+</text>
<text text-anchor="start" x="332.59" y="-207.5" font-family="Helvetica,sans-Serif" font-size="10.00">Attack()</text>
<text text-anchor="start" x="322.59" y="-191.5" font-family="Helvetica,sans-Serif" font-size="10.00">+</text>
<text text-anchor="start" x="332.59" y="-191.5" font-family="Helvetica,sans-Serif" font-size="10.00">TakeAttack()</text>
<text text-anchor="start" x="322.59" y="-175.5" font-family="Helvetica,sans-Serif" font-size="10.00">+</text>
<text text-anchor="start" x="332.59" y="-175.5" font-family="Helvetica,sans-Serif" font-size="10.00">TakeDamage()</text>
<text text-anchor="start" x="322.59" y="-159.5" font-family="Helvetica,sans-Serif" font-size="10.00">+</text>
<text text-anchor="start" x="332.59" y="-159.5" font-family="Helvetica,sans-Serif" font-size="10.00">RepairFacility()</text>
<text text-anchor="start" x="322.59" y="-143.5" font-family="Helvetica,sans-Serif" font-size="10.00">+</text>
<text text-anchor="start" x="332.59" y="-143.5" font-family="Helvetica,sans-Serif" font-size="10.00">Heal()</text>
<text text-anchor="start" x="322.59" y="-127.5" font-family="Helvetica,sans-Serif" font-size="10.00">+</text>
<text text-anchor="start" x="332.59" y="-127.5" font-family="Helvetica,sans-Serif" font-size="10.00">NeedsHealing()</text>
<text text-anchor="start" x="322.59" y="-111.5" font-family="Helvetica,sans-Serif" font-size="10.00">+</text>
<text text-anchor="start" x="332.59" y="-111.5" font-family="Helvetica,sans-Serif" font-size="10.00">GetCrewSkillValue()</text>
<text text-anchor="start" x="332.59" y="-95.5" font-family="Helvetica,sans-Serif" font-size="10.00">and 6 more...</text>
<polygon fill="#bfbfbf" stroke="#bfbfbf" points="318.59,-443 318.59,-443 424.34,-443 424.34,-443 318.59,-443"/>
<polygon fill="#bfbfbf" stroke="#bfbfbf" points="318.59,-267 318.59,-267 330.59,-267 330.59,-267 318.59,-267"/>
<polygon fill="#bfbfbf" stroke="#bfbfbf" points="330.59,-267 330.59,-267 424.34,-267 424.34,-267 330.59,-267"/>
<polygon fill="none" stroke="#bfbfbf" points="318.59,-89 318.59,-461 424.34,-461 424.34,-89 318.59,-89"/>
</a>
</g>
</g>
<!-- Node2&#45;&gt;Node1 -->
<g id="edge1_Node000001_Node000002" class="edge">
<title>Node2&#45;&gt;Node1</title>
<g id="a_edge1_Node000001_Node000002"><a xlink:title=" ">
<path fill="none" stroke="#63b8ff" d="M371.46,-77.73C371.46,-68.07 371.46,-59.33 371.46,-51.93"/>
<polygon fill="none" stroke="#63b8ff" points="367.96,-77.5 371.46,-87.5 374.96,-77.5 367.96,-77.5"/>
</a>
</g>
</g>
<!-- Node3 -->
<g id="Node000003" class="node">
<title>Node3</title>
<g id="a_Node000003"><a xlink:title=" ">
<polygon fill="white" stroke="none" points="166.21,-1734 90.71,-1734 90.71,-1682 166.21,-1682 166.21,-1734"/>
<text text-anchor="start" x="94.71" y="-1720.5" font-family="Helvetica,sans-Serif" font-size="10.00">MonoBehaviour</text>
<text text-anchor="start" x="126.96" y="-1704.5" font-family="Helvetica,sans-Serif" font-size="10.00"> </text>
<text text-anchor="start" x="126.96" y="-1688.5" font-family="Helvetica,sans-Serif" font-size="10.00"> </text>
<polygon fill="#bfbfbf" stroke="#bfbfbf" points="90.71,-1716 90.71,-1716 166.21,-1716 166.21,-1716 90.71,-1716"/>
<polygon fill="#bfbfbf" stroke="#bfbfbf" points="90.71,-1700 90.71,-1700 166.21,-1700 166.21,-1700 90.71,-1700"/>
<polygon fill="none" stroke="#bfbfbf" points="90.71,-1682 90.71,-1734 166.21,-1734 166.21,-1682 90.71,-1682"/>
</a>
</g>
</g>
<!-- Node3&#45;&gt;Node2 -->
<g id="edge2_Node000002_Node000003" class="edge">
<title>Node3&#45;&gt;Node2</title>
<g id="a_edge2_Node000002_Node000003"><a xlink:title=" ">
<path fill="none" stroke="#63b8ff" d="M82.36,-1676.95C72.3,-1667.98 63.02,-1657.22 57.46,-1645 12.6,-1546.27 55.82,-1509.43 57.46,-1401 63.46,-1004.42 -91.46,-864.47 84.46,-509 134.35,-408.2 250.44,-336.21 318.7,-300.83"/>
<polygon fill="none" stroke="#63b8ff" points="79.82,-1679.4 89.75,-1683.1 84.3,-1674.01 79.82,-1679.4"/>
</a>
</g>
</g>
<!-- Node8 -->
<g id="Node000008" class="node">
<title>Node8</title>
<g id="a_Node000008"><a xlink:href="class_room.html" target="_top" xlink:title="함선 내의 모든 방의 기본 클래스">
<polygon fill="white" stroke="none" points="384.84,-1153 246.09,-1153 246.09,-509 384.84,-509 384.84,-1153"/>
<text text-anchor="start" x="302.34" y="-1139.5" font-family="Helvetica,sans-Serif" font-size="10.00">Room</text>
<text text-anchor="start" x="250.09" y="-1123.5" font-family="Helvetica,sans-Serif" font-size="10.00">+</text>
<text text-anchor="start" x="260.09" y="-1123.5" font-family="Helvetica,sans-Serif" font-size="10.00">position</text>
<text text-anchor="start" x="250.09" y="-1107.5" font-family="Helvetica,sans-Serif" font-size="10.00">+</text>
<text text-anchor="start" x="260.09" y="-1107.5" font-family="Helvetica,sans-Serif" font-size="10.00">currentLevel</text>
<text text-anchor="start" x="250.09" y="-1091.5" font-family="Helvetica,sans-Serif" font-size="10.00">+</text>
<text text-anchor="start" x="260.09" y="-1091.5" font-family="Helvetica,sans-Serif" font-size="10.00">maxLevel</text>
<text text-anchor="start" x="250.09" y="-1075.5" font-family="Helvetica,sans-Serif" font-size="10.00">+</text>
<text text-anchor="start" x="260.09" y="-1075.5" font-family="Helvetica,sans-Serif" font-size="10.00">roomType</text>
<text text-anchor="start" x="250.09" y="-1059.5" font-family="Helvetica,sans-Serif" font-size="10.00">+</text>
<text text-anchor="start" x="260.09" y="-1059.5" font-family="Helvetica,sans-Serif" font-size="10.00">crewInRoom</text>
<text text-anchor="start" x="250.09" y="-1043.5" font-family="Helvetica,sans-Serif" font-size="10.00">+</text>
<text text-anchor="start" x="260.09" y="-1043.5" font-family="Helvetica,sans-Serif" font-size="10.00">gridSize</text>
<text text-anchor="start" x="250.09" y="-1027.5" font-family="Helvetica,sans-Serif" font-size="10.00">+</text>
<text text-anchor="start" x="260.09" y="-1027.5" font-family="Helvetica,sans-Serif" font-size="10.00">isPlaced</text>
<text text-anchor="start" x="250.46" y="-1011.5" font-family="Helvetica,sans-Serif" font-size="10.00">#</text>
<text text-anchor="start" x="260.09" y="-1011.5" font-family="Helvetica,sans-Serif" font-size="10.00">currentHitPoints</text>
<text text-anchor="start" x="250.46" y="-995.5" font-family="Helvetica,sans-Serif" font-size="10.00">#</text>
<text text-anchor="start" x="260.09" y="-995.5" font-family="Helvetica,sans-Serif" font-size="10.00">oxygenLevel</text>
<text text-anchor="start" x="250.46" y="-979.5" font-family="Helvetica,sans-Serif" font-size="10.00">#</text>
<text text-anchor="start" x="260.09" y="-979.5" font-family="Helvetica,sans-Serif" font-size="10.00">adjacentRooms</text>
<text text-anchor="start" x="250.46" y="-963.5" font-family="Helvetica,sans-Serif" font-size="10.00">#</text>
<text text-anchor="start" x="260.09" y="-963.5" font-family="Helvetica,sans-Serif" font-size="10.00">connectedDoors</text>
<text text-anchor="start" x="250.46" y="-947.5" font-family="Helvetica,sans-Serif" font-size="10.00">#</text>
<text text-anchor="start" x="260.09" y="-947.5" font-family="Helvetica,sans-Serif" font-size="10.00">roomParticles</text>
<text text-anchor="start" x="250.46" y="-931.5" font-family="Helvetica,sans-Serif" font-size="10.00">#</text>
<text text-anchor="start" x="260.09" y="-931.5" font-family="Helvetica,sans-Serif" font-size="10.00">roomSound</text>
<text text-anchor="start" x="250.46" y="-915.5" font-family="Helvetica,sans-Serif" font-size="10.00">#</text>
<text text-anchor="start" x="260.09" y="-915.5" font-family="Helvetica,sans-Serif" font-size="10.00">crewDamagePerOxygen</text>
<text text-anchor="start" x="250.46" y="-899.5" font-family="Helvetica,sans-Serif" font-size="10.00">#</text>
<text text-anchor="start" x="260.09" y="-899.5" font-family="Helvetica,sans-Serif" font-size="10.00">fireExtinguishRatePerLevel</text>
<text text-anchor="start" x="250.46" y="-883.5" font-family="Helvetica,sans-Serif" font-size="10.00">#</text>
<text text-anchor="start" x="260.09" y="-883.5" font-family="Helvetica,sans-Serif" font-size="10.00">isActive</text>
<text text-anchor="start" x="250.46" y="-867.5" font-family="Helvetica,sans-Serif" font-size="10.00">#</text>
<text text-anchor="start" x="260.09" y="-867.5" font-family="Helvetica,sans-Serif" font-size="10.00">isPowered</text>
<text text-anchor="start" x="250.46" y="-851.5" font-family="Helvetica,sans-Serif" font-size="10.00">#</text>
<text text-anchor="start" x="260.09" y="-851.5" font-family="Helvetica,sans-Serif" font-size="10.00">isPowerRequested</text>
<text text-anchor="start" x="250.46" y="-835.5" font-family="Helvetica,sans-Serif" font-size="10.00">#</text>
<text text-anchor="start" x="260.09" y="-835.5" font-family="Helvetica,sans-Serif" font-size="10.00">lowOxygenColor</text>
<text text-anchor="start" x="250.46" y="-819.5" font-family="Helvetica,sans-Serif" font-size="10.00">#</text>
<text text-anchor="start" x="260.09" y="-819.5" font-family="Helvetica,sans-Serif" font-size="10.00">normalColor</text>
<text text-anchor="start" x="250.46" y="-803.5" font-family="Helvetica,sans-Serif" font-size="10.00">#</text>
<text text-anchor="start" x="260.09" y="-803.5" font-family="Helvetica,sans-Serif" font-size="10.00">roomRenderer</text>
<text text-anchor="start" x="250.09" y="-787.5" font-family="Helvetica,sans-Serif" font-size="10.00">+</text>
<text text-anchor="start" x="260.09" y="-787.5" font-family="Helvetica,sans-Serif" font-size="10.00">Update()</text>
<text text-anchor="start" x="250.09" y="-771.5" font-family="Helvetica,sans-Serif" font-size="10.00">+</text>
<text text-anchor="start" x="260.09" y="-771.5" font-family="Helvetica,sans-Serif" font-size="10.00">CanBePlaced()</text>
<text text-anchor="start" x="250.09" y="-755.5" font-family="Helvetica,sans-Serif" font-size="10.00">+</text>
<text text-anchor="start" x="260.09" y="-755.5" font-family="Helvetica,sans-Serif" font-size="10.00">OnPlaced()</text>
<text text-anchor="start" x="250.09" y="-739.5" font-family="Helvetica,sans-Serif" font-size="10.00">+</text>
<text text-anchor="start" x="260.09" y="-739.5" font-family="Helvetica,sans-Serif" font-size="10.00">OnCrewEnter()</text>
<text text-anchor="start" x="250.09" y="-723.5" font-family="Helvetica,sans-Serif" font-size="10.00">+</text>
<text text-anchor="start" x="260.09" y="-723.5" font-family="Helvetica,sans-Serif" font-size="10.00">OnCrewExit()</text>
<text text-anchor="start" x="250.09" y="-707.5" font-family="Helvetica,sans-Serif" font-size="10.00">+</text>
<text text-anchor="start" x="260.09" y="-707.5" font-family="Helvetica,sans-Serif" font-size="10.00">InitializeIsDamageable()</text>
<text text-anchor="start" x="250.09" y="-691.5" font-family="Helvetica,sans-Serif" font-size="10.00">+</text>
<text text-anchor="start" x="260.09" y="-691.5" font-family="Helvetica,sans-Serif" font-size="10.00">GetIsPowered()</text>
<text text-anchor="start" x="250.09" y="-675.5" font-family="Helvetica,sans-Serif" font-size="10.00">+</text>
<text text-anchor="start" x="260.09" y="-675.5" font-family="Helvetica,sans-Serif" font-size="10.00">GetIsPowerRequested()</text>
<text text-anchor="start" x="250.09" y="-659.5" font-family="Helvetica,sans-Serif" font-size="10.00">+</text>
<text text-anchor="start" x="260.09" y="-659.5" font-family="Helvetica,sans-Serif" font-size="10.00">GetIsDamageable()</text>
<text text-anchor="start" x="250.09" y="-643.5" font-family="Helvetica,sans-Serif" font-size="10.00">+</text>
<text text-anchor="start" x="260.09" y="-643.5" font-family="Helvetica,sans-Serif" font-size="10.00">GetOxygenLevel()</text>
<text text-anchor="start" x="260.09" y="-627.5" font-family="Helvetica,sans-Serif" font-size="10.00">and 18 more...</text>
<text text-anchor="start" x="250.46" y="-611.5" font-family="Helvetica,sans-Serif" font-size="10.00">#</text>
<text text-anchor="start" x="260.09" y="-611.5" font-family="Helvetica,sans-Serif" font-size="10.00">Start()</text>
<text text-anchor="start" x="250.46" y="-595.5" font-family="Helvetica,sans-Serif" font-size="10.00">#</text>
<text text-anchor="start" x="260.09" y="-595.5" font-family="Helvetica,sans-Serif" font-size="10.00">UpdateRoom()</text>
<text text-anchor="start" x="250.46" y="-579.5" font-family="Helvetica,sans-Serif" font-size="10.00">#</text>
<text text-anchor="start" x="260.09" y="-579.5" font-family="Helvetica,sans-Serif" font-size="10.00">UpdateEffects()</text>
<text text-anchor="start" x="250.46" y="-563.5" font-family="Helvetica,sans-Serif" font-size="10.00">#</text>
<text text-anchor="start" x="260.09" y="-563.5" font-family="Helvetica,sans-Serif" font-size="10.00">HasFire()</text>
<text text-anchor="start" x="250.46" y="-547.5" font-family="Helvetica,sans-Serif" font-size="10.00">#</text>
<text text-anchor="start" x="260.09" y="-547.5" font-family="Helvetica,sans-Serif" font-size="10.00">UpdateFireExtinguishRate()</text>
<text text-anchor="start" x="250.46" y="-531.5" font-family="Helvetica,sans-Serif" font-size="10.00">#</text>
<text text-anchor="start" x="260.09" y="-531.5" font-family="Helvetica,sans-Serif" font-size="10.00">OnDisabled()</text>
<text text-anchor="start" x="250.46" y="-515.5" font-family="Helvetica,sans-Serif" font-size="10.00">#</text>
<text text-anchor="start" x="260.09" y="-515.5" font-family="Helvetica,sans-Serif" font-size="10.00">NotifyStateChanged()</text>
<polygon fill="#666666" stroke="#666666" points="246.09,-1135 246.09,-1135 384.84,-1135 384.84,-1135 246.09,-1135"/>
<polygon fill="#666666" stroke="#666666" points="246.09,-799 246.09,-799 258.09,-799 258.09,-799 246.09,-799"/>
<polygon fill="#666666" stroke="#666666" points="258.09,-799 258.09,-799 384.84,-799 384.84,-799 258.09,-799"/>
<polygon fill="none" stroke="#666666" points="246.09,-509 246.09,-1153 384.84,-1153 384.84,-509 246.09,-509"/>
</a>
</g>
</g>
<!-- Node3&#45;&gt;Node8 -->
<g id="edge9_Node000008_Node000003" class="edge">
<title>Node3&#45;&gt;Node8</title>
<g id="a_edge9_Node000008_Node000003"><a xlink:title=" ">
<path fill="none" stroke="#63b8ff" d="M174.55,-1675.33C184.2,-1666.59 193.3,-1656.35 199.46,-1645 202.56,-1639.31 239.57,-1377.68 270.97,-1152.76"/>
<polygon fill="none" stroke="#63b8ff" points="172.49,-1672.48 167.14,-1681.63 177.02,-1677.82 172.49,-1672.48"/>
</a>
</g>
</g>
<!-- Node10 -->
<g id="Node000010" class="node">
<title>Node10</title>
<g id="a_Node000010"><a xlink:href="class_ship.html" target="_top" xlink:title=" ">
<polygon fill="white" stroke="none" points="190.34,-1645 66.59,-1645 66.59,-1401 190.34,-1401 190.34,-1645"/>
<text text-anchor="start" x="118.71" y="-1631.5" font-family="Helvetica,sans-Serif" font-size="10.00">Ship</text>
<text text-anchor="start" x="70.59" y="-1615.5" font-family="Helvetica,sans-Serif" font-size="10.00">+</text>
<text text-anchor="start" x="80.59" y="-1615.5" font-family="Helvetica,sans-Serif" font-size="10.00">allRooms</text>
<text text-anchor="start" x="70.59" y="-1599.5" font-family="Helvetica,sans-Serif" font-size="10.00">+</text>
<text text-anchor="start" x="80.59" y="-1599.5" font-family="Helvetica,sans-Serif" font-size="10.00">testRoomPrefab1</text>
<text text-anchor="start" x="70.59" y="-1583.5" font-family="Helvetica,sans-Serif" font-size="10.00">+</text>
<text text-anchor="start" x="80.59" y="-1583.5" font-family="Helvetica,sans-Serif" font-size="10.00">testRoomPrefab2</text>
<text text-anchor="start" x="70.59" y="-1567.5" font-family="Helvetica,sans-Serif" font-size="10.00">+</text>
<text text-anchor="start" x="80.59" y="-1567.5" font-family="Helvetica,sans-Serif" font-size="10.00">AddRoom()</text>
<text text-anchor="start" x="70.59" y="-1551.5" font-family="Helvetica,sans-Serif" font-size="10.00">+</text>
<text text-anchor="start" x="80.59" y="-1551.5" font-family="Helvetica,sans-Serif" font-size="10.00">RemoveRoom()</text>
<text text-anchor="start" x="70.59" y="-1535.5" font-family="Helvetica,sans-Serif" font-size="10.00">+</text>
<text text-anchor="start" x="80.59" y="-1535.5" font-family="Helvetica,sans-Serif" font-size="10.00">AddDoor()</text>
<text text-anchor="start" x="70.59" y="-1519.5" font-family="Helvetica,sans-Serif" font-size="10.00">+</text>
<text text-anchor="start" x="80.59" y="-1519.5" font-family="Helvetica,sans-Serif" font-size="10.00">GetRoomOfType&lt; T &gt;()</text>
<text text-anchor="start" x="70.59" y="-1503.5" font-family="Helvetica,sans-Serif" font-size="10.00">+</text>
<text text-anchor="start" x="80.59" y="-1503.5" font-family="Helvetica,sans-Serif" font-size="10.00">GetRoomsByType()</text>
<text text-anchor="start" x="70.59" y="-1487.5" font-family="Helvetica,sans-Serif" font-size="10.00">+</text>
<text text-anchor="start" x="80.59" y="-1487.5" font-family="Helvetica,sans-Serif" font-size="10.00">GetSystem&lt; T &gt;()</text>
<text text-anchor="start" x="70.59" y="-1471.5" font-family="Helvetica,sans-Serif" font-size="10.00">+</text>
<text text-anchor="start" x="80.59" y="-1471.5" font-family="Helvetica,sans-Serif" font-size="10.00">RecalculateAllStats()</text>
<text text-anchor="start" x="70.59" y="-1455.5" font-family="Helvetica,sans-Serif" font-size="10.00">+</text>
<text text-anchor="start" x="80.59" y="-1455.5" font-family="Helvetica,sans-Serif" font-size="10.00">GetStat()</text>
<text text-anchor="start" x="70.59" y="-1439.5" font-family="Helvetica,sans-Serif" font-size="10.00">+</text>
<text text-anchor="start" x="80.59" y="-1439.5" font-family="Helvetica,sans-Serif" font-size="10.00">GetRoomContributions()</text>
<text text-anchor="start" x="70.59" y="-1423.5" font-family="Helvetica,sans-Serif" font-size="10.00">+</text>
<text text-anchor="start" x="80.59" y="-1423.5" font-family="Helvetica,sans-Serif" font-size="10.00">TakeAttack()</text>
<text text-anchor="start" x="80.59" y="-1407.5" font-family="Helvetica,sans-Serif" font-size="10.00">and 15 more...</text>
<polygon fill="#bfbfbf" stroke="#bfbfbf" points="66.59,-1627 66.59,-1627 190.34,-1627 190.34,-1627 66.59,-1627"/>
<polygon fill="#bfbfbf" stroke="#bfbfbf" points="66.59,-1579 66.59,-1579 78.59,-1579 78.59,-1579 66.59,-1579"/>
<polygon fill="#bfbfbf" stroke="#bfbfbf" points="78.59,-1579 78.59,-1579 190.34,-1579 190.34,-1579 78.59,-1579"/>
<polygon fill="none" stroke="#bfbfbf" points="66.59,-1401 66.59,-1645 190.34,-1645 190.34,-1401 66.59,-1401"/>
</a>
</g>
</g>
<!-- Node3&#45;&gt;Node10 -->
<g id="edge14_Node000010_Node000003" class="edge">
<title>Node3&#45;&gt;Node10</title>
<g id="a_edge14_Node000010_Node000003"><a xlink:title=" ">
<path fill="none" stroke="#63b8ff" d="M128.46,-1670.99C128.46,-1663.04 128.46,-1654.18 128.46,-1644.87"/>
<polygon fill="none" stroke="#63b8ff" points="124.96,-1670.81 128.46,-1680.81 131.96,-1670.81 124.96,-1670.81"/>
</a>
</g>
</g>
<!-- Node4 -->
<g id="Node000004" class="node">
<title>Node4</title>
<g id="a_Node000004"><a xlink:href="interface_i_ship_stat_contributor.html" target="_top" xlink:title="ShipStat 에 영향을 주는 객체 인터페이스 모든 방들과 모든 선원은 전부 이에 해당한다. 방의 경우엔 RoomData 에 등록된 정보를 바탕으로 Ship에서 Contribute...">
<polygon fill="white" stroke="none" points="518.21,-1549 402.71,-1549 402.71,-1497 518.21,-1497 518.21,-1549"/>
<text text-anchor="start" x="416.21" y="-1535.5" font-family="Helvetica,sans-Serif" font-size="10.00">IShipStatContributor</text>
<text text-anchor="start" x="458.96" y="-1519.5" font-family="Helvetica,sans-Serif" font-size="10.00"> </text>
<text text-anchor="start" x="406.71" y="-1503.5" font-family="Helvetica,sans-Serif" font-size="10.00">+</text>
<text text-anchor="start" x="416.71" y="-1503.5" font-family="Helvetica,sans-Serif" font-size="10.00">GetStatContributions()</text>
<polygon fill="#666666" stroke="#666666" points="402.71,-1531 402.71,-1531 518.21,-1531 518.21,-1531 402.71,-1531"/>
<polygon fill="#666666" stroke="#666666" points="402.71,-1515 402.71,-1515 518.21,-1515 518.21,-1515 402.71,-1515"/>
<polygon fill="none" stroke="#666666" points="402.71,-1497 402.71,-1549 518.21,-1549 518.21,-1497 402.71,-1497"/>
</a>
</g>
</g>
<!-- Node4&#45;&gt;Node2 -->
<g id="edge3_Node000002_Node000004" class="edge">
<title>Node4&#45;&gt;Node2</title>
<g id="a_edge3_Node000002_Node000004"><a xlink:title=" ">
<path fill="none" stroke="#63b8ff" d="M452.89,-1485.82C447.36,-1457.87 440.2,-1418.16 436.46,-1383 393.94,-983.14 435.2,-879.52 399.46,-479 398.93,-473.06 398.35,-467.04 397.73,-460.95"/>
<polygon fill="none" stroke="#63b8ff" points="449.44,-1486.43 454.84,-1495.54 456.3,-1485.05 449.44,-1486.43"/>
</a>
</g>
</g>
<!-- Node4&#45;&gt;Node8 -->
<g id="edge10_Node000008_Node000004" class="edge">
<title>Node4&#45;&gt;Node8</title>
<g id="a_edge10_Node000008_Node000004"><a xlink:title=" ">
<path fill="none" stroke="#63b8ff" d="M441.97,-1487.25C428.13,-1459.72 409.86,-1419.89 399.46,-1383 373.66,-1291.47 384.52,-1265.05 370.46,-1171 369.56,-1164.96 368.64,-1158.85 367.71,-1152.7"/>
<polygon fill="none" stroke="#63b8ff" points="438.68,-1488.5 446.35,-1495.82 444.92,-1485.32 438.68,-1488.5"/>
</a>
</g>
</g>
<!-- Node5 -->
<g id="Node000005" class="node">
<title>Node5</title>
<g id="a_Node000005"><a xlink:href="class_crew_race_stat.html" target="_top" xlink:title=" ">
<polygon fill="white" stroke="none" points="517.71,-1303 445.21,-1303 445.21,-1251 517.71,-1251 517.71,-1303"/>
<text text-anchor="start" x="449.21" y="-1289.5" font-family="Helvetica,sans-Serif" font-size="10.00">CrewRaceStat</text>
<text text-anchor="start" x="454.03" y="-1273.5" font-family="Helvetica,sans-Serif" font-size="10.00">+</text>
<text text-anchor="start" x="468.84" y="-1273.5" font-family="Helvetica,sans-Serif" font-size="10.00">ByRace</text>
<text text-anchor="start" x="479.96" y="-1257.5" font-family="Helvetica,sans-Serif" font-size="10.00"> </text>
<polygon fill="#bfbfbf" stroke="#bfbfbf" points="445.21,-1285 445.21,-1285 517.71,-1285 517.71,-1285 445.21,-1285"/>
<polygon fill="#bfbfbf" stroke="#bfbfbf" points="445.21,-1269 445.21,-1269 466.84,-1269 466.84,-1269 445.21,-1269"/>
<polygon fill="#bfbfbf" stroke="#bfbfbf" points="466.84,-1269 466.84,-1269 517.71,-1269 517.71,-1269 466.84,-1269"/>
<polygon fill="none" stroke="#bfbfbf" points="445.21,-1251 445.21,-1303 517.71,-1303 517.71,-1251 445.21,-1251"/>
</a>
</g>
</g>
<!-- Node5&#45;&gt;Node2 -->
<g id="edge4_Node000002_Node000005" class="edge">
<title>Node5&#45;&gt;Node2</title>
<g id="a_edge4_Node000002_Node000005"><a xlink:title=" ">
<path fill="none" stroke="#63b8ff" d="M481.59,-1251.33C481.73,-1153.05 478.66,-780.13 427.46,-479 427.16,-477.23 426.85,-475.46 426.54,-473.68"/>
<polygon fill="none" stroke="#63b8ff" points="426.53,-473.64 421.49,-468.49 424.31,-461.85 429.35,-467.01 426.53,-473.64"/>
</a>
</g>
<text text-anchor="middle" x="516.37" y="-827.5" font-family="Helvetica,sans-Serif" font-size="10.00" fill="grey"> +crewRaceStat</text>
</g>
<!-- Node6 -->
<g id="Node000006" class="node">
<title>Node6</title>
<g id="a_Node000006"><a xlink:title=" ">
<polygon fill="white" stroke="none" points="586.46,-1734 506.46,-1734 506.46,-1682 586.46,-1682 586.46,-1734"/>
<text text-anchor="start" x="510.46" y="-1720.5" font-family="Helvetica,sans-Serif" font-size="10.00">ScriptableObject</text>
<text text-anchor="start" x="544.96" y="-1704.5" font-family="Helvetica,sans-Serif" font-size="10.00"> </text>
<text text-anchor="start" x="544.96" y="-1688.5" font-family="Helvetica,sans-Serif" font-size="10.00"> </text>
<polygon fill="#bfbfbf" stroke="#bfbfbf" points="506.46,-1716 506.46,-1716 586.46,-1716 586.46,-1716 506.46,-1716"/>
<polygon fill="#bfbfbf" stroke="#bfbfbf" points="506.46,-1700 506.46,-1700 586.46,-1700 586.46,-1700 506.46,-1700"/>
<polygon fill="none" stroke="#bfbfbf" points="506.46,-1682 506.46,-1734 586.46,-1734 586.46,-1682 506.46,-1682"/>
</a>
</g>
</g>
<!-- Node6&#45;&gt;Node5 -->
<g id="edge5_Node000005_Node000006" class="edge">
<title>Node6&#45;&gt;Node5</title>
<g id="a_edge5_Node000005_Node000006"><a xlink:title=" ">
<path fill="none" stroke="#63b8ff" d="M547.65,-1670.65C548.76,-1612.86 547.87,-1496.75 527.46,-1401 526.39,-1395.98 504.09,-1337.21 490.94,-1302.76"/>
<polygon fill="none" stroke="#63b8ff" points="544.15,-1670.48 547.42,-1680.56 551.15,-1670.64 544.15,-1670.48"/>
</a>
</g>
</g>
<!-- Node7 -->
<g id="Node000007" class="node">
<title>Node7</title>
<g id="a_Node000007"><a xlink:href="class_equipment_item.html" target="_top" xlink:title=" ">
<polygon fill="white" stroke="none" points="642.46,-1383 522.46,-1383 522.46,-1171 642.46,-1171 642.46,-1383"/>
<text text-anchor="start" x="549.46" y="-1369.5" font-family="Helvetica,sans-Serif" font-size="10.00">EquipmentItem</text>
<text text-anchor="start" x="526.46" y="-1353.5" font-family="Helvetica,sans-Serif" font-size="10.00">+</text>
<text text-anchor="start" x="536.46" y="-1353.5" font-family="Helvetica,sans-Serif" font-size="10.00">eqIcon</text>
<text text-anchor="start" x="526.46" y="-1337.5" font-family="Helvetica,sans-Serif" font-size="10.00">+</text>
<text text-anchor="start" x="536.46" y="-1337.5" font-family="Helvetica,sans-Serif" font-size="10.00">eqName</text>
<text text-anchor="start" x="526.46" y="-1321.5" font-family="Helvetica,sans-Serif" font-size="10.00">+</text>
<text text-anchor="start" x="536.46" y="-1321.5" font-family="Helvetica,sans-Serif" font-size="10.00">eqType</text>
<text text-anchor="start" x="526.46" y="-1305.5" font-family="Helvetica,sans-Serif" font-size="10.00">+</text>
<text text-anchor="start" x="536.46" y="-1305.5" font-family="Helvetica,sans-Serif" font-size="10.00">eqPrice</text>
<text text-anchor="start" x="526.46" y="-1289.5" font-family="Helvetica,sans-Serif" font-size="10.00">+</text>
<text text-anchor="start" x="536.46" y="-1289.5" font-family="Helvetica,sans-Serif" font-size="10.00">isGlobalEquip</text>
<text text-anchor="start" x="526.46" y="-1273.5" font-family="Helvetica,sans-Serif" font-size="10.00">+</text>
<text text-anchor="start" x="536.46" y="-1273.5" font-family="Helvetica,sans-Serif" font-size="10.00">eqAttackBonus</text>
<text text-anchor="start" x="526.46" y="-1257.5" font-family="Helvetica,sans-Serif" font-size="10.00">+</text>
<text text-anchor="start" x="536.46" y="-1257.5" font-family="Helvetica,sans-Serif" font-size="10.00">eqDefenseBonus</text>
<text text-anchor="start" x="526.46" y="-1241.5" font-family="Helvetica,sans-Serif" font-size="10.00">+</text>
<text text-anchor="start" x="536.46" y="-1241.5" font-family="Helvetica,sans-Serif" font-size="10.00">eqHealthBonus</text>
<text text-anchor="start" x="526.46" y="-1225.5" font-family="Helvetica,sans-Serif" font-size="10.00">+</text>
<text text-anchor="start" x="536.46" y="-1225.5" font-family="Helvetica,sans-Serif" font-size="10.00">eqAdditionalPilotSkill</text>
<text text-anchor="start" x="526.46" y="-1209.5" font-family="Helvetica,sans-Serif" font-size="10.00">+</text>
<text text-anchor="start" x="536.46" y="-1209.5" font-family="Helvetica,sans-Serif" font-size="10.00">eqAdditionalEngineSkill</text>
<text text-anchor="start" x="536.46" y="-1193.5" font-family="Helvetica,sans-Serif" font-size="10.00">and 6 more...</text>
<text text-anchor="start" x="580.96" y="-1177.5" font-family="Helvetica,sans-Serif" font-size="10.00"> </text>
<polygon fill="#bfbfbf" stroke="#bfbfbf" points="522.46,-1365 522.46,-1365 642.46,-1365 642.46,-1365 522.46,-1365"/>
<polygon fill="#bfbfbf" stroke="#bfbfbf" points="522.46,-1189 522.46,-1189 534.46,-1189 534.46,-1189 522.46,-1189"/>
<polygon fill="#bfbfbf" stroke="#bfbfbf" points="534.46,-1189 534.46,-1189 642.46,-1189 642.46,-1189 534.46,-1189"/>
<polygon fill="none" stroke="#bfbfbf" points="522.46,-1171 522.46,-1383 642.46,-1383 642.46,-1171 522.46,-1171"/>
</a>
</g>
</g>
<!-- Node6&#45;&gt;Node7 -->
<g id="edge7_Node000007_Node000006" class="edge">
<title>Node6&#45;&gt;Node7</title>
<g id="a_edge7_Node000007_Node000006"><a xlink:title=" ">
<path fill="none" stroke="#63b8ff" d="M558.81,-1671.44C559.44,-1668.94 560,-1666.44 560.46,-1664 578.14,-1570 582.95,-1461.04 583.75,-1382.91"/>
<polygon fill="none" stroke="#63b8ff" points="555.52,-1670.24 556.13,-1680.82 562.25,-1672.17 555.52,-1670.24"/>
</a>
</g>
</g>
<!-- Node9 -->
<g id="Node000009" class="node">
<title>Node9</title>
<g id="a_Node000009"><a xlink:href="class_room_data.html" target="_top" xlink:title="모든 방 유형의 기본 데이터를 정의하는 추상 ScriptableObject">
<polygon fill="white" stroke="none" points="384.84,-1573 246.09,-1573 246.09,-1473 384.84,-1473 384.84,-1573"/>
<text text-anchor="start" x="291.84" y="-1559.5" font-family="Helvetica,sans-Serif" font-size="10.00">RoomData</text>
<text text-anchor="start" x="313.96" y="-1543.5" font-family="Helvetica,sans-Serif" font-size="10.00"> </text>
<text text-anchor="start" x="250.09" y="-1527.5" font-family="Helvetica,sans-Serif" font-size="10.00">+</text>
<text text-anchor="start" x="260.09" y="-1527.5" font-family="Helvetica,sans-Serif" font-size="10.00">GetRoomData()</text>
<text text-anchor="start" x="250.46" y="-1511.5" font-family="Helvetica,sans-Serif" font-size="10.00">#</text>
<text text-anchor="start" x="260.09" y="-1511.5" font-family="Helvetica,sans-Serif" font-size="10.00">InitializeDefaultLevels()</text>
<text text-anchor="start" x="250.46" y="-1495.5" font-family="Helvetica,sans-Serif" font-size="10.00">#</text>
<text text-anchor="start" x="260.09" y="-1495.5" font-family="Helvetica,sans-Serif" font-size="10.00">OnEnable()</text>
<text text-anchor="start" x="250.46" y="-1479.5" font-family="Helvetica,sans-Serif" font-size="10.00">#</text>
<text text-anchor="start" x="260.09" y="-1479.5" font-family="Helvetica,sans-Serif" font-size="10.00">CheckIfNeedsInitialization()</text>
<polygon fill="#666666" stroke="#666666" points="246.09,-1555 246.09,-1555 384.84,-1555 384.84,-1555 246.09,-1555"/>
<polygon fill="#666666" stroke="#666666" points="246.09,-1539 246.09,-1539 384.84,-1539 384.84,-1539 246.09,-1539"/>
<polygon fill="none" stroke="#666666" points="246.09,-1473 246.09,-1573 384.84,-1573 384.84,-1473 246.09,-1473"/>
</a>
</g>
</g>
<!-- Node6&#45;&gt;Node9 -->
<g id="edge12_Node000009_Node000006" class="edge">
<title>Node6&#45;&gt;Node9</title>
<g id="a_edge12_Node000009_Node000006"><a xlink:title=" ">
<path fill="none" stroke="#63b8ff" d="M495.62,-1694.9C463.69,-1685.38 423.08,-1669.53 393.46,-1645 369.98,-1625.55 351.16,-1597.16 337.9,-1572.77"/>
<polygon fill="none" stroke="#63b8ff" points="494.49,-1698.22 505.07,-1697.6 496.41,-1691.49 494.49,-1698.22"/>
</a>
</g>
</g>
<!-- Node7&#45;&gt;Node2 -->
<g id="edge6_Node000002_Node000007" class="edge">
<title>Node7&#45;&gt;Node2</title>
<g id="a_edge6_Node000002_Node000007"><a xlink:title=" ">
<path fill="none" stroke="#63b8ff" d="M599.05,-1171.27C618.62,-1019.84 638.97,-733.3 556.46,-509 530.99,-439.76 476.35,-375.25 433.02,-331.74"/>
<polygon fill="none" stroke="#63b8ff" points="433.13,-331.85 426.05,-330.48 424.6,-323.42 431.68,-324.79 433.13,-331.85"/>
</a>
</g>
<text text-anchor="middle" x="661.12" y="-839.5" font-family="Helvetica,sans-Serif" font-size="10.00" fill="grey"> +equippedAssistant</text>
<text text-anchor="middle" x="661.12" y="-827.5" font-family="Helvetica,sans-Serif" font-size="10.00" fill="grey">+equippedShield</text>
<text text-anchor="middle" x="661.12" y="-815.5" font-family="Helvetica,sans-Serif" font-size="10.00" fill="grey">+equippedWeapon</text>
</g>
<!-- Node8&#45;&gt;Node2 -->
<g id="edge8_Node000002_Node000008" class="edge">
<title>Node8&#45;&gt;Node2</title>
<g id="a_edge8_Node000002_Node000008"><a xlink:title=" ">
<path fill="none" stroke="#63b8ff" d="M330.89,-509.44C331.93,-499.17 333.03,-489 334.21,-479 334.42,-477.23 334.64,-475.45 334.86,-473.67"/>
<polygon fill="none" stroke="#63b8ff" points="334.86,-473.68 331.66,-467.22 336.4,-461.78 339.59,-468.25 334.86,-473.68"/>
</a>
</g>
<text text-anchor="middle" x="366.84" y="-481.5" font-family="Helvetica,sans-Serif" font-size="10.00" fill="grey"> +currentRoom</text>
</g>
<!-- Node9&#45;&gt;Node8 -->
<g id="edge11_Node000008_Node000009" class="edge">
<title>Node9&#45;&gt;Node8</title>
<g id="a_edge11_Node000008_Node000009"><a xlink:title=" ">
<path fill="none" stroke="#63b8ff" d="M315.46,-1473.21C315.46,-1407.76 315.46,-1285.82 315.46,-1165.71"/>
<polygon fill="none" stroke="#63b8ff" points="315.46,-1165.87 311.46,-1159.87 315.46,-1153.87 319.46,-1159.87 315.46,-1165.87"/>
</a>
</g>
<text text-anchor="middle" x="340.96" y="-1273.5" font-family="Helvetica,sans-Serif" font-size="10.00" fill="grey"> #roomData</text>
</g>
<!-- Node10&#45;&gt;Node2 -->
<g id="edge15_Node000002_Node000010" class="edge">
<title>Node10&#45;&gt;Node2</title>
<g id="a_edge15_Node000002_Node000010"><a xlink:title=" ">
<path fill="none" stroke="#63b8ff" d="M109.9,-1401.2C85.14,-1205.65 57.36,-811.21 178.96,-509 207.22,-438.79 264.74,-373.73 309.59,-330.3"/>
<polygon fill="none" stroke="#63b8ff" points="309.61,-330.28 311.19,-323.24 318.3,-321.99 316.72,-329.03 309.61,-330.28"/>
</a>
</g>
<text text-anchor="middle" x="208.21" y="-827.5" font-family="Helvetica,sans-Serif" font-size="10.00" fill="grey"> +currentShip</text>
</g>
<!-- Node10&#45;&gt;Node8 -->
<g id="edge13_Node000008_Node000010" class="edge">
<title>Node10&#45;&gt;Node8</title>
<g id="a_edge13_Node000008_Node000010"><a xlink:title=" ">
<path fill="none" stroke="#63b8ff" d="M130.36,-1401.42C132.74,-1307.81 138.02,-1190.68 149.71,-1171 157.41,-1158.04 168.67,-1164.46 178.46,-1153 202.79,-1124.55 223.35,-1091.15 240.55,-1056.83"/>
<polygon fill="none" stroke="#63b8ff" points="240.58,-1056.75 239.62,-1049.61 245.85,-1045.97 246.81,-1053.12 240.58,-1056.75"/>
</a>
</g>
<text text-anchor="middle" x="177.09" y="-1273.5" font-family="Helvetica,sans-Serif" font-size="10.00" fill="grey"> #parentShip</text>
</g>
</g>
</svg>

<g id="navigator" transform="translate(0 0)" fill="#404254">
  <rect fill="#f2f5e9" fill-opacity="0.5" stroke="#606060" stroke-width=".5" x="0" y="0" width="60" height="60"/>
  <use id="zoomplus" xlink:href="#zoomPlus" x="17" y="9" onmousedown="handleZoom(evt,'in')"/>
  <use id="zoomminus" xlink:href="#zoomMin" x="42" y="9" onmousedown="handleZoom(evt,'out')"/>
  <use id="reset" xlink:href="#resetDef" x="30" y="36" onmousedown="handleReset()"/>
   <use id="arrowup" xlink:href="#arrowUp" x="0" y="0" onmousedown="handlePan(0,-1)"/>
  <use id="arrowright" xlink:href="#arrowRight" x="0" y="0" onmousedown="handlePan(1,0)"/>
  <use id="arrowdown" xlink:href="#arrowDown" x="0" y="0" onmousedown="handlePan(0,1)"/>
  <use id="arrowleft" xlink:href="#arrowLeft" x="0" y="0" onmousedown="handlePan(-1,0)"/>
</g>
<svg viewBox="0 0 15 15" width="100%" height="30px" preserveAspectRatio="xMaxYMin meet">
 <g id="arrow_out" transform="scale(0.3 0.3)">
  <a xlink:href="class_crew_member__coll__graph_org.svg" target="_base">
   <rect id="button" ry="5" rx="5" y="6" x="6" height="38" width="38"
        fill="#f2f5e9" fill-opacity="0.5" stroke="#606060" stroke-width="1.0"/>
   <path id="arrow"
     d="M 11.500037,31.436501 C 11.940474,20.09759 22.043105,11.32322 32.158766,21.979434 L 37.068811,17.246167 C 37.068811,17.246167 37.088388,32 37.088388,32 L 22.160133,31.978069 C 22.160133,31.978069 26.997745,27.140456 26.997745,27.140456 C 18.528582,18.264221 13.291696,25.230495 11.500037,31.436501 z"
     style="fill:#404040;"/>
  </a>
 </g>
</svg>

<style type='text/css'>
<![CDATA[
[data-mouse-over-selected='false'] { opacity: 0.7; }
[data-mouse-over-selected='true']  { opacity: 1.0; }
]]>
</style>
<script type="application/ecmascript"><![CDATA[
document.addEventListener('DOMContentLoaded', (event) => {
  highlightEdges();
  highlightAdjacentNodes();
});
]]></script>
</svg>
