<?xml version="1.0" encoding="UTF-8" standalone="no"?>
<!DOCTYPE svg PUBLIC "-//W3C//DTD SVG 1.1//EN"
 "http://www.w3.org/Graphics/SVG/1.1/DTD/svg11.dtd">
<!-- Generated by graphviz version 12.2.1 (20241206.2353)
 -->
<!-- Title: ShipCustomizationManager Pages: 1 -->
<svg width="220pt" height="355pt"
 viewBox="0.00 0.00 219.50 355.00" xmlns="http://www.w3.org/2000/svg" xmlns:xlink="http://www.w3.org/1999/xlink">

<svg id="main" version="1.1" xmlns="http://www.w3.org/2000/svg" xmlns:xlink="http://www.w3.org/1999/xlink" xml:space="preserve">

<style type="text/css"><![CDATA[
.node, .edge {opacity: 0.7;}
.node.selected, .edge.selected {opacity: 1;}
.edge:hover path { stroke: red; }
.edge:hover polygon { stroke: red; fill: red; }
]]></style>
<script type="application/ecmascript" xlink:href="svg.min.js"/>
<svg id="graph" class="graph">
<g id="graph0" class="graph" transform="scale(1 1) rotate(0) translate(4 351)">
<title>ShipCustomizationManager</title>
<!-- Node1 -->
<g id="Node000001" class="node">
<title>Node1</title>
<g id="a_Node000001"><a xlink:title=" ">
<polygon fill="#999999" stroke="none" points="211.5,-263.5 0,-263.5 0,0 211.5,0 211.5,-263.5"/>
<text text-anchor="start" x="42.75" y="-250" font-family="Consolas" font-size="10.00">ShipCustomizationManager</text>
<text text-anchor="start" x="4" y="-235.5" font-family="Consolas" font-size="10.00">+</text>
<text text-anchor="start" x="13.25" y="-235.5" font-family="Consolas" font-size="10.00">float cellSize</text>
<text text-anchor="start" x="4" y="-221" font-family="Consolas" font-size="10.00">+</text>
<text text-anchor="start" x="13.25" y="-221" font-family="Consolas" font-size="10.00">Vector2 gridMin</text>
<text text-anchor="start" x="4" y="-206.5" font-family="Consolas" font-size="10.00">+</text>
<text text-anchor="start" x="13.25" y="-206.5" font-family="Consolas" font-size="10.00">Vector2 gridMax</text>
<text text-anchor="start" x="4" y="-192" font-family="Consolas" font-size="10.00">+</text>
<text text-anchor="start" x="13.25" y="-192" font-family="Consolas" font-size="10.00">GameObject corridorPrefab</text>
<text text-anchor="start" x="4" y="-177.5" font-family="Consolas" font-size="10.00">+</text>
<text text-anchor="start" x="13.25" y="-177.5" font-family="Consolas" font-size="10.00">GameObject doorPrefab</text>
<text text-anchor="start" x="4" y="-163" font-family="Consolas" font-size="10.00">+</text>
<text text-anchor="start" x="13.25" y="-163" font-family="Consolas" font-size="10.00">Transform modulesContainer</text>
<text text-anchor="start" x="4" y="-148.5" font-family="Consolas" font-size="10.00">+</text>
<text text-anchor="start" x="13.25" y="-148.5" font-family="Consolas" font-size="10.00">int currency</text>
<text text-anchor="start" x="4" y="-134" font-family="Consolas" font-size="10.00">+</text>
<text text-anchor="start" x="13.25" y="-134" font-family="Consolas" font-size="10.00">int corridorCost</text>
<text text-anchor="start" x="4" y="-119.5" font-family="Consolas" font-size="10.00">+</text>
<text text-anchor="start" x="13.25" y="-119.5" font-family="Consolas" font-size="10.00">int doorCost</text>
<text text-anchor="start" x="4" y="-105" font-family="Consolas" font-size="10.00">+</text>
<text text-anchor="start" x="13.25" y="-105" font-family="Consolas" font-size="10.00">Dictionary&lt; Vector2Int,</text>
<text text-anchor="start" x="13.25" y="-94.5" font-family="Consolas" font-size="10.00"> GameObject &gt; PlacedModules</text>
<text text-anchor="start" x="4" y="-80" font-family="Consolas" font-size="10.00">+</text>
<text text-anchor="start" x="13.25" y="-80" font-family="Consolas" font-size="10.00">bool PlaceModule(GameObject</text>
<text text-anchor="start" x="13.25" y="-69.5" font-family="Consolas" font-size="10.00"> modulePrefab, Vector2 worldPosition)</text>
<text text-anchor="start" x="4" y="-55" font-family="Consolas" font-size="10.00">+</text>
<text text-anchor="start" x="13.25" y="-55" font-family="Consolas" font-size="10.00">bool RemoveModule(Vector2</text>
<text text-anchor="start" x="13.25" y="-44.5" font-family="Consolas" font-size="10.00"> worldPosition)</text>
<text text-anchor="start" x="4" y="-30" font-family="Consolas" font-size="10.00">+</text>
<text text-anchor="start" x="13.25" y="-30" font-family="Consolas" font-size="10.00">void ClearAllModules()</text>
<text text-anchor="start" x="4" y="-15.5" font-family="Consolas" font-size="10.00">+</text>
<text text-anchor="start" x="13.25" y="-15.5" font-family="Consolas" font-size="10.00">void PlaceSavedRoom</text>
<text text-anchor="start" x="13.25" y="-5" font-family="Consolas" font-size="10.00">(Room savedRoom)</text>
<polygon fill="#666666" stroke="#666666" points="0,-247 0,-247 211.5,-247 211.5,-247 0,-247"/>
<polygon fill="#666666" stroke="#666666" points="0,-91.5 0,-91.5 11.25,-91.5 11.25,-91.5 0,-91.5"/>
<polygon fill="#666666" stroke="#666666" points="11.25,-91.5 11.25,-91.5 211.5,-91.5 211.5,-91.5 11.25,-91.5"/>
<polygon fill="none" stroke="#666666" points="0,0 0,-263.5 211.5,-263.5 211.5,0 0,0"/>
</a>
</g>
</g>
<!-- Node2 -->
<g id="Node000002" class="node">
<title>Node2</title>
<g id="a_Node000002"><a xlink:title=" ">
<polygon fill="white" stroke="none" points="143.88,-347 67.62,-347 67.62,-299.5 143.88,-299.5 143.88,-347"/>
<text text-anchor="start" x="71.62" y="-333.5" font-family="Consolas" font-size="10.00">MonoBehaviour</text>
<text text-anchor="start" x="103.12" y="-319" font-family="Consolas" font-size="10.00"> </text>
<text text-anchor="start" x="103.12" y="-304.5" font-family="Consolas" font-size="10.00"> </text>
<polygon fill="#bfbfbf" stroke="#bfbfbf" points="67.62,-330.5 67.62,-330.5 143.88,-330.5 143.88,-330.5 67.62,-330.5"/>
<polygon fill="#bfbfbf" stroke="#bfbfbf" points="67.62,-316 67.62,-316 143.88,-316 143.88,-316 67.62,-316"/>
<polygon fill="none" stroke="#bfbfbf" points="67.62,-299.5 67.62,-347 143.88,-347 143.88,-299.5 67.62,-299.5"/>
</a>
</g>
</g>
<!-- Node2&#45;&gt;Node1 -->
<g id="edge1_Node000001_Node000002" class="edge">
<title>Node2&#45;&gt;Node1</title>
<g id="a_edge1_Node000001_Node000002"><a xlink:title=" ">
<path fill="none" stroke="#63b8ff" d="M105.75,-288.3C105.75,-280.73 105.75,-272.26 105.75,-263.29"/>
<polygon fill="none" stroke="#63b8ff" points="102.25,-288.25 105.75,-298.25 109.25,-288.25 102.25,-288.25"/>
</a>
</g>
</g>
</g>
</svg>
</svg>

<style type='text/css'>
<![CDATA[
[data-mouse-over-selected='false'] { opacity: 0.7; }
[data-mouse-over-selected='true']  { opacity: 1.0; }
]]>
</style>
<script type="application/ecmascript"><![CDATA[
document.addEventListener('DOMContentLoaded', (event) => {
  highlightEdges();
  highlightAdjacentNodes();
});
]]></script>
</svg>
