<?xml version="1.0" encoding="UTF-8" standalone="no"?>
<!DOCTYPE svg PUBLIC "-//W3C//DTD SVG 1.1//EN"
 "http://www.w3.org/Graphics/SVG/1.1/DTD/svg11.dtd">
<!-- Generated by graphviz version 12.2.1 (20241206.2353)
 -->
<!-- Title: ShipLayoutValidator Pages: 1 -->
<svg width="195pt" height="441pt"
 viewBox="0.00 0.00 195.12 441.00" xmlns="http://www.w3.org/2000/svg" xmlns:xlink="http://www.w3.org/1999/xlink">

<svg id="main" version="1.1" xmlns="http://www.w3.org/2000/svg" xmlns:xlink="http://www.w3.org/1999/xlink" xml:space="preserve">

<style type="text/css"><![CDATA[
.node, .edge {opacity: 0.7;}
.node.selected, .edge.selected {opacity: 1;}
.edge:hover path { stroke: red; }
.edge:hover polygon { stroke: red; fill: red; }
]]></style>
<script type="application/ecmascript" xlink:href="svg.min.js"/>
<svg id="graph" class="graph">
<g id="graph0" class="graph" transform="scale(1 1) rotate(0) translate(4 437)">
<title>ShipLayoutValidator</title>
<!-- Node1 -->
<g id="Node000001" class="node">
<title>Node1</title>
<g id="a_Node000001"><a xlink:title=" ">
<polygon fill="#999999" stroke="none" points="94.25,-52 0,-52 0,0 94.25,0 94.25,-52"/>
<text text-anchor="start" x="4" y="-38.5" font-family="Helvetica,sans-Serif" font-size="10.00">ShipLayoutValidator</text>
<text text-anchor="start" x="45.62" y="-22.5" font-family="Helvetica,sans-Serif" font-size="10.00"> </text>
<text text-anchor="start" x="5.62" y="-6.5" font-family="Helvetica,sans-Serif" font-size="10.00">+</text>
<text text-anchor="start" x="17.25" y="-6.5" font-family="Helvetica,sans-Serif" font-size="10.00">ValidateLayout()</text>
<polygon fill="#666666" stroke="#666666" points="0,-34 0,-34 94.25,-34 94.25,-34 0,-34"/>
<polygon fill="#666666" stroke="#666666" points="0,-18 0,-18 94.25,-18 94.25,-18 0,-18"/>
<polygon fill="none" stroke="#666666" points="0,0 0,-52 94.25,-52 94.25,0 0,0"/>
</a>
</g>
</g>
<!-- Node2 -->
<g id="Node000002" class="node">
<title>Node2</title>
<g id="a_Node000002"><a xlink:title=" ">
<polygon fill="white" stroke="none" points="80.88,-433 5.38,-433 5.38,-381 80.88,-381 80.88,-433"/>
<text text-anchor="start" x="9.38" y="-419.5" font-family="Helvetica,sans-Serif" font-size="10.00">MonoBehaviour</text>
<text text-anchor="start" x="41.62" y="-403.5" font-family="Helvetica,sans-Serif" font-size="10.00"> </text>
<text text-anchor="start" x="41.62" y="-387.5" font-family="Helvetica,sans-Serif" font-size="10.00"> </text>
<polygon fill="#bfbfbf" stroke="#bfbfbf" points="5.38,-415 5.38,-415 80.88,-415 80.88,-415 5.38,-415"/>
<polygon fill="#bfbfbf" stroke="#bfbfbf" points="5.38,-399 5.38,-399 80.88,-399 80.88,-399 5.38,-399"/>
<polygon fill="none" stroke="#bfbfbf" points="5.38,-381 5.38,-433 80.88,-433 80.88,-381 5.38,-381"/>
</a>
</g>
</g>
<!-- Node2&#45;&gt;Node1 -->
<g id="edge1_Node000001_Node000002" class="edge">
<title>Node2&#45;&gt;Node1</title>
<g id="a_edge1_Node000001_Node000002"><a xlink:title=" ">
<path fill="none" stroke="#63b8ff" d="M43.51,-369.75C44.31,-293.31 46.17,-117.25 46.86,-51.96"/>
<polygon fill="none" stroke="#63b8ff" points="40.01,-369.58 43.4,-379.62 47.01,-369.66 40.01,-369.58"/>
</a>
</g>
</g>
<!-- Node3 -->
<g id="Node000003" class="node">
<title>Node3</title>
<g id="a_Node000003"><a xlink:href="class_ship_customization_manager.html" target="_top" xlink:title=" ">
<polygon fill="white" stroke="none" points="187.12,-344 59.12,-344 59.12,-100 187.12,-100 187.12,-344"/>
<text text-anchor="start" x="63.12" y="-330.5" font-family="Helvetica,sans-Serif" font-size="10.00">ShipCustomizationManager</text>
<text text-anchor="start" x="69.44" y="-314.5" font-family="Helvetica,sans-Serif" font-size="10.00">+</text>
<text text-anchor="start" x="85.75" y="-314.5" font-family="Helvetica,sans-Serif" font-size="10.00">cellSize</text>
<text text-anchor="start" x="69.44" y="-298.5" font-family="Helvetica,sans-Serif" font-size="10.00">+</text>
<text text-anchor="start" x="85.75" y="-298.5" font-family="Helvetica,sans-Serif" font-size="10.00">gridMin</text>
<text text-anchor="start" x="69.44" y="-282.5" font-family="Helvetica,sans-Serif" font-size="10.00">+</text>
<text text-anchor="start" x="85.75" y="-282.5" font-family="Helvetica,sans-Serif" font-size="10.00">gridMax</text>
<text text-anchor="start" x="69.44" y="-266.5" font-family="Helvetica,sans-Serif" font-size="10.00">+</text>
<text text-anchor="start" x="85.75" y="-266.5" font-family="Helvetica,sans-Serif" font-size="10.00">corridorPrefab</text>
<text text-anchor="start" x="69.44" y="-250.5" font-family="Helvetica,sans-Serif" font-size="10.00">+</text>
<text text-anchor="start" x="85.75" y="-250.5" font-family="Helvetica,sans-Serif" font-size="10.00">doorPrefab</text>
<text text-anchor="start" x="69.44" y="-234.5" font-family="Helvetica,sans-Serif" font-size="10.00">+</text>
<text text-anchor="start" x="85.75" y="-234.5" font-family="Helvetica,sans-Serif" font-size="10.00">modulesContainer</text>
<text text-anchor="start" x="69.44" y="-218.5" font-family="Helvetica,sans-Serif" font-size="10.00">+</text>
<text text-anchor="start" x="85.75" y="-218.5" font-family="Helvetica,sans-Serif" font-size="10.00">currency</text>
<text text-anchor="start" x="69.44" y="-202.5" font-family="Helvetica,sans-Serif" font-size="10.00">+</text>
<text text-anchor="start" x="85.75" y="-202.5" font-family="Helvetica,sans-Serif" font-size="10.00">corridorCost</text>
<text text-anchor="start" x="69.44" y="-186.5" font-family="Helvetica,sans-Serif" font-size="10.00">+</text>
<text text-anchor="start" x="85.75" y="-186.5" font-family="Helvetica,sans-Serif" font-size="10.00">doorCost</text>
<text text-anchor="start" x="69.44" y="-170.5" font-family="Helvetica,sans-Serif" font-size="10.00">+</text>
<text text-anchor="start" x="85.75" y="-170.5" font-family="Helvetica,sans-Serif" font-size="10.00">PlacedModules</text>
<text text-anchor="start" x="69.44" y="-154.5" font-family="Helvetica,sans-Serif" font-size="10.00">+</text>
<text text-anchor="start" x="85.75" y="-154.5" font-family="Helvetica,sans-Serif" font-size="10.00">PlaceModule()</text>
<text text-anchor="start" x="69.44" y="-138.5" font-family="Helvetica,sans-Serif" font-size="10.00">+</text>
<text text-anchor="start" x="85.75" y="-138.5" font-family="Helvetica,sans-Serif" font-size="10.00">RemoveModule()</text>
<text text-anchor="start" x="69.44" y="-122.5" font-family="Helvetica,sans-Serif" font-size="10.00">+</text>
<text text-anchor="start" x="85.75" y="-122.5" font-family="Helvetica,sans-Serif" font-size="10.00">ClearAllModules()</text>
<text text-anchor="start" x="69.44" y="-106.5" font-family="Helvetica,sans-Serif" font-size="10.00">+</text>
<text text-anchor="start" x="85.75" y="-106.5" font-family="Helvetica,sans-Serif" font-size="10.00">PlaceSavedRoom()</text>
<polygon fill="#bfbfbf" stroke="#bfbfbf" points="59.12,-326 59.12,-326 187.12,-326 187.12,-326 59.12,-326"/>
<polygon fill="#bfbfbf" stroke="#bfbfbf" points="59.12,-166 59.12,-166 83.75,-166 83.75,-166 59.12,-166"/>
<polygon fill="#bfbfbf" stroke="#bfbfbf" points="83.75,-166 83.75,-166 187.12,-166 187.12,-166 83.75,-166"/>
<polygon fill="none" stroke="#bfbfbf" points="59.12,-100 59.12,-344 187.12,-344 187.12,-100 59.12,-100"/>
</a>
</g>
</g>
<!-- Node2&#45;&gt;Node3 -->
<g id="edge3_Node000003_Node000002" class="edge">
<title>Node2&#45;&gt;Node3</title>
<g id="a_edge3_Node000003_Node000002"><a xlink:title=" ">
<path fill="none" stroke="#63b8ff" d="M58.5,-370.83C62.07,-362.66 66.07,-353.51 70.29,-343.87"/>
<polygon fill="none" stroke="#63b8ff" points="55.32,-369.37 54.52,-379.93 61.73,-372.17 55.32,-369.37"/>
</a>
</g>
</g>
<!-- Node3&#45;&gt;Node1 -->
<g id="edge2_Node000001_Node000003" class="edge">
<title>Node3&#45;&gt;Node1</title>
<g id="a_edge2_Node000001_Node000003"><a xlink:title=" ">
<path fill="none" stroke="#63b8ff" d="M75.75,-100.07C70.6,-86.93 65.7,-74.41 61.45,-63.57"/>
<polygon fill="none" stroke="#63b8ff" points="61.5,-63.68 55.58,-59.56 57.12,-52.51 63.03,-56.64 61.5,-63.68"/>
</a>
</g>
<text text-anchor="middle" x="121.13" y="-72.5" font-family="Helvetica,sans-Serif" font-size="10.00" fill="grey"> +customizationManager</text>
</g>
</g>
</svg>
</svg>

<style type='text/css'>
<![CDATA[
[data-mouse-over-selected='false'] { opacity: 0.7; }
[data-mouse-over-selected='true']  { opacity: 1.0; }
]]>
</style>
<script type="application/ecmascript"><![CDATA[
document.addEventListener('DOMContentLoaded', (event) => {
  highlightEdges();
  highlightAdjacentNodes();
});
]]></script>
</svg>
