<?xml version="1.0" encoding="UTF-8" standalone="no"?>
<!DOCTYPE svg PUBLIC "-//W3C//DTD SVG 1.1//EN"
 "http://www.w3.org/Graphics/SVG/1.1/DTD/svg11.dtd">
<!-- Generated by graphviz version 12.2.1 (20241206.2353)
 -->
<!-- Title: CrewRaceStat.RaceStat Pages: 1 -->
<svg width="220pt" height="290pt"
 viewBox="0.00 0.00 219.50 290.00" xmlns="http://www.w3.org/2000/svg" xmlns:xlink="http://www.w3.org/1999/xlink">
<g id="graph0" class="graph" transform="scale(1 1) rotate(0) translate(4 286)">
<title>CrewRaceStat.RaceStat</title>
<!-- Node1 -->
<g id="Node000001" class="node">
<title>Node1</title>
<g id="a_Node000001"><a xlink:title=" ">
<polygon fill="#999999" stroke="none" points="211.5,-282 0,-282 0,0 211.5,0 211.5,-282"/>
<text text-anchor="start" x="50.62" y="-268.5" font-family="Consolas" font-size="10.00">CrewRaceStat.RaceStat</text>
<text text-anchor="start" x="4" y="-254" font-family="Consolas" font-size="10.00">+</text>
<text text-anchor="start" x="13.25" y="-254" font-family="Consolas" font-size="10.00">CrewRace race</text>
<text text-anchor="start" x="4" y="-239.5" font-family="Consolas" font-size="10.00">+</text>
<text text-anchor="start" x="13.25" y="-239.5" font-family="Consolas" font-size="10.00">float maxHealth</text>
<text text-anchor="start" x="4" y="-225" font-family="Consolas" font-size="10.00">+</text>
<text text-anchor="start" x="13.25" y="-225" font-family="Consolas" font-size="10.00">float attack</text>
<text text-anchor="start" x="4" y="-210.5" font-family="Consolas" font-size="10.00">+</text>
<text text-anchor="start" x="13.25" y="-210.5" font-family="Consolas" font-size="10.00">float defense</text>
<text text-anchor="start" x="4" y="-196" font-family="Consolas" font-size="10.00">+</text>
<text text-anchor="start" x="13.25" y="-196" font-family="Consolas" font-size="10.00">float learningSpeed</text>
<text text-anchor="start" x="4" y="-181.5" font-family="Consolas" font-size="10.00">+</text>
<text text-anchor="start" x="13.25" y="-181.5" font-family="Consolas" font-size="10.00">bool needsOxygen</text>
<text text-anchor="start" x="4" y="-167" font-family="Consolas" font-size="10.00">+</text>
<text text-anchor="start" x="13.25" y="-167" font-family="Consolas" font-size="10.00">float initialPilotSkill</text>
<text text-anchor="start" x="4" y="-152.5" font-family="Consolas" font-size="10.00">+</text>
<text text-anchor="start" x="13.25" y="-152.5" font-family="Consolas" font-size="10.00">float initialEngineSkill</text>
<text text-anchor="start" x="4" y="-138" font-family="Consolas" font-size="10.00">+</text>
<text text-anchor="start" x="13.25" y="-138" font-family="Consolas" font-size="10.00">float initialPowerSkill</text>
<text text-anchor="start" x="4" y="-123.5" font-family="Consolas" font-size="10.00">+</text>
<text text-anchor="start" x="13.25" y="-123.5" font-family="Consolas" font-size="10.00">float initialShieldSkill</text>
<text text-anchor="start" x="4" y="-109" font-family="Consolas" font-size="10.00">+</text>
<text text-anchor="start" x="13.25" y="-109" font-family="Consolas" font-size="10.00">float initialWeaponSkill</text>
<text text-anchor="start" x="4" y="-94.5" font-family="Consolas" font-size="10.00">+</text>
<text text-anchor="start" x="13.25" y="-94.5" font-family="Consolas" font-size="10.00">float initialAmmunitionSkill</text>
<text text-anchor="start" x="4" y="-80" font-family="Consolas" font-size="10.00">+</text>
<text text-anchor="start" x="13.25" y="-80" font-family="Consolas" font-size="10.00">float initialMedBaySkill</text>
<text text-anchor="start" x="4" y="-65.5" font-family="Consolas" font-size="10.00">+</text>
<text text-anchor="start" x="13.25" y="-65.5" font-family="Consolas" font-size="10.00">float initialRepairSkill</text>
<text text-anchor="start" x="4" y="-51" font-family="Consolas" font-size="10.00">+</text>
<text text-anchor="start" x="13.25" y="-51" font-family="Consolas" font-size="10.00">Dictionary&lt; SkillType,</text>
<text text-anchor="start" x="13.25" y="-40.5" font-family="Consolas" font-size="10.00"> float &gt; GetMaxSkillValueDictionary()</text>
<text text-anchor="start" x="4" y="-26" font-family="Consolas" font-size="10.00">+</text>
<text text-anchor="start" x="13.25" y="-26" font-family="Consolas" font-size="10.00">void SetMaxSkillValuesFrom</text>
<text text-anchor="start" x="13.25" y="-15.5" font-family="Consolas" font-size="10.00">Dictionary(Dictionary&lt;</text>
<text text-anchor="start" x="13.25" y="-5" font-family="Consolas" font-size="10.00"> SkillType, float &gt; dictionary)</text>
<polygon fill="#666666" stroke="#666666" points="0,-265.5 0,-265.5 211.5,-265.5 211.5,-265.5 0,-265.5"/>
<polygon fill="#666666" stroke="#666666" points="0,-62.5 0,-62.5 11.25,-62.5 11.25,-62.5 0,-62.5"/>
<polygon fill="#666666" stroke="#666666" points="11.25,-62.5 11.25,-62.5 211.5,-62.5 211.5,-62.5 11.25,-62.5"/>
<polygon fill="none" stroke="#666666" points="0,0 0,-282 211.5,-282 211.5,0 0,0"/>
</a>
</g>
</g>
</g>
</svg>
