<?xml version="1.0" encoding="UTF-8" standalone="no"?>
<!DOCTYPE svg PUBLIC "-//W3C//DTD SVG 1.1//EN"
 "http://www.w3.org/Graphics/SVG/1.1/DTD/svg11.dtd">
<!-- Generated by graphviz version 12.2.1 (20241206.2353)
 -->
<!-- Title: RaceTooltip Pages: 1 -->
<svg width="178pt" height="150pt"
 viewBox="0.00 0.00 177.50 149.50" xmlns="http://www.w3.org/2000/svg" xmlns:xlink="http://www.w3.org/1999/xlink">
<g id="graph0" class="graph" transform="scale(1 1) rotate(0) translate(4 145.5)">
<title>RaceTooltip</title>
<!-- Node1 -->
<g id="Node000001" class="node">
<title>Node1</title>
<g id="a_Node000001"><a xlink:title=" ">
<polygon fill="#999999" stroke="none" points="169.5,-58 0,-58 0,0 169.5,0 169.5,-58"/>
<text text-anchor="start" x="55.88" y="-44.5" font-family="Consolas" font-size="10.00">RaceTooltip</text>
<text text-anchor="start" x="82.12" y="-30" font-family="Consolas" font-size="10.00"> </text>
<text text-anchor="start" x="4" y="-15.5" font-family="Consolas" font-size="10.00">+</text>
<text text-anchor="start" x="13.25" y="-15.5" font-family="Consolas" font-size="10.00">void SetupTooltip(CrewRace</text>
<text text-anchor="start" x="13.25" y="-5" font-family="Consolas" font-size="10.00">Stat raceStat, CrewRace race)</text>
<polygon fill="#666666" stroke="#666666" points="0,-41.5 0,-41.5 169.5,-41.5 169.5,-41.5 0,-41.5"/>
<polygon fill="#666666" stroke="#666666" points="0,-27 0,-27 169.5,-27 169.5,-27 0,-27"/>
<polygon fill="none" stroke="#666666" points="0,0 0,-58 169.5,-58 169.5,0 0,0"/>
</a>
</g>
</g>
<!-- Node2 -->
<g id="Node000002" class="node">
<title>Node2</title>
<g id="a_Node000002"><a xlink:title=" ">
<polygon fill="white" stroke="none" points="122.88,-141.5 46.62,-141.5 46.62,-94 122.88,-94 122.88,-141.5"/>
<text text-anchor="start" x="50.62" y="-128" font-family="Consolas" font-size="10.00">MonoBehaviour</text>
<text text-anchor="start" x="82.12" y="-113.5" font-family="Consolas" font-size="10.00"> </text>
<text text-anchor="start" x="82.12" y="-99" font-family="Consolas" font-size="10.00"> </text>
<polygon fill="#bfbfbf" stroke="#bfbfbf" points="46.62,-125 46.62,-125 122.88,-125 122.88,-125 46.62,-125"/>
<polygon fill="#bfbfbf" stroke="#bfbfbf" points="46.62,-110.5 46.62,-110.5 122.88,-110.5 122.88,-110.5 46.62,-110.5"/>
<polygon fill="none" stroke="#bfbfbf" points="46.62,-94 46.62,-141.5 122.88,-141.5 122.88,-94 46.62,-94"/>
</a>
</g>
</g>
<!-- Node2&#45;&gt;Node1 -->
<g id="edge1_Node000001_Node000002" class="edge">
<title>Node2&#45;&gt;Node1</title>
<g id="a_edge1_Node000001_Node000002"><a xlink:title=" ">
<path fill="none" stroke="#63b8ff" d="M84.75,-83.09C84.75,-74.74 84.75,-65.89 84.75,-57.86"/>
<polygon fill="none" stroke="#63b8ff" points="81.25,-82.9 84.75,-92.9 88.25,-82.9 81.25,-82.9"/>
</a>
</g>
</g>
</g>
</svg>
