<?xml version="1.0" encoding="UTF-8" standalone="no"?>
<!DOCTYPE svg PUBLIC "-//W3C//DTD SVG 1.1//EN"
 "http://www.w3.org/Graphics/SVG/1.1/DTD/svg11.dtd">
<!-- Generated by graphviz version 12.2.1 (20241206.2353)
 -->
<!-- Title: StoredItem Pages: 1 -->
<svg width="133pt" height="336pt"
 viewBox="0.00 0.00 132.50 336.00" xmlns="http://www.w3.org/2000/svg" xmlns:xlink="http://www.w3.org/1999/xlink">
<g id="graph0" class="graph" transform="scale(1 1) rotate(0) translate(4 332)">
<title>StoredItem</title>
<!-- Node1 -->
<g id="Node000001" class="node">
<title>Node1</title>
<g id="a_Node000001"><a xlink:title="창고에 저장된 개별 아이템 정보">
<polygon fill="#999999" stroke="none" points="98.25,-52 26.25,-52 26.25,0 98.25,0 98.25,-52"/>
<text text-anchor="start" x="38.25" y="-38.5" font-family="Helvetica,sans-Serif" font-size="10.00">StoredItem</text>
<text text-anchor="start" x="30.25" y="-22.5" font-family="Helvetica,sans-Serif" font-size="10.00">+</text>
<text text-anchor="start" x="40.25" y="-22.5" font-family="Helvetica,sans-Serif" font-size="10.00">quantity</text>
<text text-anchor="start" x="30.25" y="-6.5" font-family="Helvetica,sans-Serif" font-size="10.00">+</text>
<text text-anchor="start" x="40.25" y="-6.5" font-family="Helvetica,sans-Serif" font-size="10.00">StoredItem()</text>
<polygon fill="#666666" stroke="#666666" points="26.25,-34 26.25,-34 98.25,-34 98.25,-34 26.25,-34"/>
<polygon fill="#666666" stroke="#666666" points="26.25,-18 26.25,-18 38.25,-18 38.25,-18 26.25,-18"/>
<polygon fill="#666666" stroke="#666666" points="38.25,-18 38.25,-18 98.25,-18 98.25,-18 38.25,-18"/>
<polygon fill="none" stroke="#666666" points="26.25,0 26.25,-52 98.25,-52 98.25,0 26.25,0"/>
</a>
</g>
</g>
<!-- Node2 -->
<g id="Node000002" class="node">
<title>Node2</title>
<g id="a_Node000002"><a xlink:href="class_tradable_item.html" target="_top" xlink:title=" ">
<polygon fill="white" stroke="none" points="124.5,-328 0,-328 0,-100 124.5,-100 124.5,-328"/>
<text text-anchor="start" x="33.75" y="-314.5" font-family="Helvetica,sans-Serif" font-size="10.00">TradableItem</text>
<text text-anchor="start" x="4" y="-298.5" font-family="Helvetica,sans-Serif" font-size="10.00">+</text>
<text text-anchor="start" x="14" y="-298.5" font-family="Helvetica,sans-Serif" font-size="10.00">planet</text>
<text text-anchor="start" x="4" y="-282.5" font-family="Helvetica,sans-Serif" font-size="10.00">+</text>
<text text-anchor="start" x="14" y="-282.5" font-family="Helvetica,sans-Serif" font-size="10.00">tier</text>
<text text-anchor="start" x="4" y="-266.5" font-family="Helvetica,sans-Serif" font-size="10.00">+</text>
<text text-anchor="start" x="14" y="-266.5" font-family="Helvetica,sans-Serif" font-size="10.00">itemName</text>
<text text-anchor="start" x="4" y="-250.5" font-family="Helvetica,sans-Serif" font-size="10.00">+</text>
<text text-anchor="start" x="14" y="-250.5" font-family="Helvetica,sans-Serif" font-size="10.00">itemState</text>
<text text-anchor="start" x="4" y="-234.5" font-family="Helvetica,sans-Serif" font-size="10.00">+</text>
<text text-anchor="start" x="14" y="-234.5" font-family="Helvetica,sans-Serif" font-size="10.00">category</text>
<text text-anchor="start" x="4" y="-218.5" font-family="Helvetica,sans-Serif" font-size="10.00">+</text>
<text text-anchor="start" x="14" y="-218.5" font-family="Helvetica,sans-Serif" font-size="10.00">minStorageTemperature</text>
<text text-anchor="start" x="4" y="-202.5" font-family="Helvetica,sans-Serif" font-size="10.00">+</text>
<text text-anchor="start" x="14" y="-202.5" font-family="Helvetica,sans-Serif" font-size="10.00">maxStorageTemperature</text>
<text text-anchor="start" x="4" y="-186.5" font-family="Helvetica,sans-Serif" font-size="10.00">+</text>
<text text-anchor="start" x="14" y="-186.5" font-family="Helvetica,sans-Serif" font-size="10.00">basePrice</text>
<text text-anchor="start" x="4" y="-170.5" font-family="Helvetica,sans-Serif" font-size="10.00">+</text>
<text text-anchor="start" x="14" y="-170.5" font-family="Helvetica,sans-Serif" font-size="10.00">maxStackAmount</text>
<text text-anchor="start" x="4" y="-154.5" font-family="Helvetica,sans-Serif" font-size="10.00">+</text>
<text text-anchor="start" x="14" y="-154.5" font-family="Helvetica,sans-Serif" font-size="10.00">fluctuation</text>
<text text-anchor="start" x="4" y="-138.5" font-family="Helvetica,sans-Serif" font-size="10.00">+</text>
<text text-anchor="start" x="14" y="-138.5" font-family="Helvetica,sans-Serif" font-size="10.00">description</text>
<text text-anchor="start" x="4" y="-122.5" font-family="Helvetica,sans-Serif" font-size="10.00">+</text>
<text text-anchor="start" x="14" y="-122.5" font-family="Helvetica,sans-Serif" font-size="10.00">GetCurrentPrice()</text>
<text text-anchor="start" x="4" y="-106.5" font-family="Helvetica,sans-Serif" font-size="10.00">+</text>
<text text-anchor="start" x="14" y="-106.5" font-family="Helvetica,sans-Serif" font-size="10.00">RecalculatePrice()</text>
<polygon fill="#bfbfbf" stroke="#bfbfbf" points="0,-310 0,-310 124.5,-310 124.5,-310 0,-310"/>
<polygon fill="#bfbfbf" stroke="#bfbfbf" points="0,-134 0,-134 12,-134 12,-134 0,-134"/>
<polygon fill="#bfbfbf" stroke="#bfbfbf" points="12,-134 12,-134 124.5,-134 124.5,-134 12,-134"/>
<polygon fill="none" stroke="#bfbfbf" points="0,-100 0,-328 124.5,-328 124.5,-100 0,-100"/>
</a>
</g>
</g>
<!-- Node2&#45;&gt;Node1 -->
<g id="edge1_Node000001_Node000002" class="edge">
<title>Node2&#45;&gt;Node1</title>
<g id="a_edge1_Node000001_Node000002"><a xlink:title=" ">
<path fill="none" stroke="#63b8ff" d="M62.25,-100.25C62.25,-87.62 62.25,-75.51 62.25,-64.89"/>
<polygon fill="none" stroke="#63b8ff" points="62.25,-64.78 58.25,-58.78 62.25,-52.78 66.25,-58.78 62.25,-64.78"/>
</a>
</g>
<text text-anchor="middle" x="76.12" y="-72.5" font-family="Helvetica,sans-Serif" font-size="10.00" fill="grey"> +item</text>
</g>
</g>
</svg>
