<?xml version="1.0" encoding="UTF-8" standalone="no"?>
<!DOCTYPE svg PUBLIC "-//W3C//DTD SVG 1.1//EN"
 "http://www.w3.org/Graphics/SVG/1.1/DTD/svg11.dtd">
<!-- Generated by graphviz version 12.2.1 (20241206.2353)
 -->
<!-- Title: CrewQuartersRoom Pages: 1 -->
<!--zoomable 1761 -->

<svg id="main" version="1.1" xmlns="http://www.w3.org/2000/svg" xmlns:xlink="http://www.w3.org/1999/xlink" xml:space="preserve" onload="init(evt)">

<style type="text/css"><![CDATA[
.node, .edge {opacity: 0.7;}
.node.selected, .edge.selected {opacity: 1;}
.edge:hover path { stroke: red; }
.edge:hover polygon { stroke: red; fill: red; }
]]></style>

<defs>
  <circle id="rim" cx="0" cy="0" r="7"/>
  <circle id="rim2" cx="0" cy="0" r="3.5"/>
  <g id="zoomPlus">
    <use xlink:href="#rim" fill="#404040"><set attributeName="fill" to="#808080" begin="zoomplus.mouseover" end="zoomplus.mouseout"/></use>
    <path d="M-4,0h8M0,-4v8" fill="none" stroke="white" stroke-width="1.5" pointer-events="none"/>
  </g>
  <g id="zoomMin">
    <use xlink:href="#rim" fill="#404040"><set attributeName="fill" to="#808080" begin="zoomminus.mouseover" end="zoomminus.mouseout"/></use>
    <path d="M-4,0h8" fill="none" stroke="white" stroke-width="1.5" pointer-events="none"/>
  </g>
  <g id="arrowUp" transform="translate(30 24)">
    <use xlink:href="#rim"/>
    <path pointer-events="none" fill="none" stroke="white" stroke-width="1.5" d="M0,-3.0v7 M-2.5,-0.5L0,-3.0L2.5,-0.5"/>
  </g>
  <g id="arrowRight" transform="rotate(90) translate(36 -43)">
    <use xlink:href="#rim"/>
    <path pointer-events="none" fill="none" stroke="white" stroke-width="1.5" d="M0,-3.0v7 M-2.5,-0.5L0,-3.0L2.5,-0.5"/>
  </g>
  <g id="arrowDown" transform="rotate(180) translate(-30 -48)">
    <use xlink:href="#rim"/>
    <path pointer-events="none" fill="none" stroke="white" stroke-width="1.5" d="M0,-3.0v7 M-2.5,-0.5L0,-3.0L2.5,-0.5"/>
  </g>
  <g id="arrowLeft" transform="rotate(270) translate(-36 17)">
    <use xlink:href="#rim"/>
    <path pointer-events="none" fill="none" stroke="white" stroke-width="1.5" d="M0,-3.0v7 M-2.5,-0.5L0,-3.0L2.5,-0.5"/>
  </g>
  <g id="resetDef">
    <use xlink:href="#rim2" fill="#404040"><set attributeName="fill" to="#808080" begin="reset.mouseover" end="reset.mouseout"/></use>
  </g>
</defs>
<script type="application/ecmascript">
var viewWidth = 638;
var viewHeight = 1761;
var sectionId = 'dynsection-1';
</script>
<script type="application/ecmascript" xlink:href="svg.min.js"/>
<svg id="graph" class="graph">
<g id="viewport">
<title>CrewQuartersRoom</title>
<!-- Node1 -->
<g id="Node000001" class="node">
<title>Node1</title>
<g id="a_Node000001"><a xlink:title="함선의 승무원 선실(CrewQuarters)을 나타내는 클래스. 선원 수용량에 기여하며, 전력을 소비합니다.">
<polygon fill="#999999" stroke="none" points="353.32,-97.5 210.07,-97.5 210.07,0 353.32,0 353.32,-97.5"/>
<text text-anchor="start" x="239.7" y="-84" font-family="Consolas" font-size="10.00">CrewQuartersRoom</text>
<text text-anchor="start" x="214.07" y="-69.5" font-family="Consolas" font-size="10.00">+</text>
<text text-anchor="start" x="223.32" y="-69.5" font-family="Consolas" font-size="10.00">bool isPersonalRoom</text>
<text text-anchor="start" x="214.07" y="-55" font-family="Consolas" font-size="10.00">+</text>
<text text-anchor="start" x="223.32" y="-55" font-family="Consolas" font-size="10.00">override Dictionary</text>
<text text-anchor="start" x="223.32" y="-44.5" font-family="Consolas" font-size="10.00">&lt; ShipStat, float &gt;</text>
<text text-anchor="start" x="223.32" y="-34" font-family="Consolas" font-size="10.00"> GetStatContributions()</text>
<text text-anchor="start" x="214.07" y="-19.5" font-family="Consolas" font-size="10.00">+</text>
<text text-anchor="start" x="223.32" y="-19.5" font-family="Consolas" font-size="10.00">bool GetIsPersonalRoom()</text>
<text text-anchor="start" x="214.07" y="-5" font-family="Consolas" font-size="10.00">#</text>
<text text-anchor="start" x="223.32" y="-5" font-family="Consolas" font-size="10.00">override void Start()</text>
<polygon fill="#666666" stroke="#666666" points="210.07,-81 210.07,-81 353.32,-81 353.32,-81 210.07,-81"/>
<polygon fill="#666666" stroke="#666666" points="210.07,-66.5 210.07,-66.5 221.32,-66.5 221.32,-66.5 210.07,-66.5"/>
<polygon fill="#666666" stroke="#666666" points="221.32,-66.5 221.32,-66.5 353.32,-66.5 353.32,-66.5 221.32,-66.5"/>
<polygon fill="none" stroke="#666666" points="210.07,0 210.07,-97.5 353.32,-97.5 353.32,0 210.07,0"/>
</a>
</g>
</g>
<!-- Node2 -->
<g id="Node000002" class="node">
<title>Node2</title>
<g id="a_Node000002"><a xlink:href="class_room-2-g.html" target="_top" xlink:title="함선 내의 특화된 방 타입을 위한 제네릭 기본 클래스. RoomData 및 RoomLevel 타입에 따라 세부 동작과 데이터를 확장할 수 있도록 설계되었습니다.">
<polygon fill="white" stroke="none" points="363.82,-265 199.57,-265 199.57,-134.5 363.82,-134.5 363.82,-265"/>
<text text-anchor="start" x="226.57" y="-251.5" font-family="Consolas" font-size="10.00">Room&lt; TData, TLevel &gt;</text>
<text text-anchor="start" x="203.57" y="-237" font-family="Consolas" font-size="10.00">+</text>
<text text-anchor="start" x="212.82" y="-237" font-family="Consolas" font-size="10.00">new TData roomData</text>
<text text-anchor="start" x="203.57" y="-222.5" font-family="Consolas" font-size="10.00">#</text>
<text text-anchor="start" x="212.82" y="-222.5" font-family="Consolas" font-size="10.00">TLevel currentRoomLevelData</text>
<text text-anchor="start" x="203.57" y="-208" font-family="Consolas" font-size="10.00">+</text>
<text text-anchor="start" x="212.82" y="-208" font-family="Consolas" font-size="10.00">TLevel GetCurrentLevelData()</text>
<text text-anchor="start" x="203.57" y="-193.5" font-family="Consolas" font-size="10.00">+</text>
<text text-anchor="start" x="212.82" y="-193.5" font-family="Consolas" font-size="10.00">override bool Upgrade()</text>
<text text-anchor="start" x="203.57" y="-179" font-family="Consolas" font-size="10.00">+</text>
<text text-anchor="start" x="212.82" y="-179" font-family="Consolas" font-size="10.00">override void Initialize()</text>
<text text-anchor="start" x="203.57" y="-164.5" font-family="Consolas" font-size="10.00">#</text>
<text text-anchor="start" x="212.82" y="-164.5" font-family="Consolas" font-size="10.00">virtual void UpdateRoomLevel</text>
<text text-anchor="start" x="212.82" y="-154" font-family="Consolas" font-size="10.00">Data()</text>
<text text-anchor="start" x="203.57" y="-139.5" font-family="Consolas" font-size="10.00">#</text>
<text text-anchor="start" x="212.82" y="-139.5" font-family="Consolas" font-size="10.00">override void Start()</text>
<polygon fill="#666666" stroke="#666666" points="199.57,-248.5 199.57,-248.5 363.82,-248.5 363.82,-248.5 199.57,-248.5"/>
<polygon fill="#666666" stroke="#666666" points="199.57,-219.5 199.57,-219.5 210.82,-219.5 210.82,-219.5 199.57,-219.5"/>
<polygon fill="#666666" stroke="#666666" points="210.82,-219.5 210.82,-219.5 363.82,-219.5 363.82,-219.5 210.82,-219.5"/>
<polygon fill="none" stroke="#666666" points="199.57,-134.5 199.57,-265 363.82,-265 363.82,-134.5 199.57,-134.5"/>
</a>
</g>
</g>
<!-- Node2&#45;&gt;Node1 -->
<g id="edge1_Node000001_Node000002" class="edge">
<title>Node2&#45;&gt;Node1</title>
<g id="a_edge1_Node000001_Node000002"><a xlink:title=" ">
<path fill="none" stroke="#63b8ff" d="M281.7,-123.39C281.7,-114.44 281.7,-105.5 281.7,-97.1"/>
<polygon fill="none" stroke="#63b8ff" points="278.2,-123.18 281.7,-133.18 285.2,-123.18 278.2,-123.18"/>
</a>
</g>
</g>
<!-- Node3 -->
<g id="Node000003" class="node">
<title>Node3</title>
<g id="a_Node000003"><a xlink:href="class_room.html" target="_top" xlink:title="함선 내의 모든 방의 기본 클래스. 방의 상태, 작동 여부, 산소 레벨, 데미지 처리 등을 관리합니다.">
<polygon fill="white" stroke="none" points="374.32,-1099 189.07,-1099 189.07,-302 374.32,-302 374.32,-1099"/>
<text text-anchor="start" x="271.2" y="-1085.5" font-family="Consolas" font-size="10.00">Room</text>
<text text-anchor="start" x="193.07" y="-1071" font-family="Consolas" font-size="10.00">+</text>
<text text-anchor="start" x="202.32" y="-1071" font-family="Consolas" font-size="10.00">Vector2Int position</text>
<text text-anchor="start" x="193.07" y="-1056.5" font-family="Consolas" font-size="10.00">+</text>
<text text-anchor="start" x="202.32" y="-1056.5" font-family="Consolas" font-size="10.00">int currentLevel</text>
<text text-anchor="start" x="193.07" y="-1042" font-family="Consolas" font-size="10.00">+</text>
<text text-anchor="start" x="202.32" y="-1042" font-family="Consolas" font-size="10.00">RoomType roomType</text>
<text text-anchor="start" x="193.07" y="-1027.5" font-family="Consolas" font-size="10.00">+</text>
<text text-anchor="start" x="202.32" y="-1027.5" font-family="Consolas" font-size="10.00">List&lt; CrewBase &gt; crewInRoom</text>
<text text-anchor="start" x="193.07" y="-1013" font-family="Consolas" font-size="10.00">+</text>
<text text-anchor="start" x="202.32" y="-1013" font-family="Consolas" font-size="10.00">Vector2Int gridSize</text>
<text text-anchor="start" x="193.07" y="-998.5" font-family="Consolas" font-size="10.00">+</text>
<text text-anchor="start" x="202.32" y="-998.5" font-family="Consolas" font-size="10.00">bool isPlaced</text>
<text text-anchor="start" x="193.07" y="-984" font-family="Consolas" font-size="10.00">#</text>
<text text-anchor="start" x="202.32" y="-984" font-family="Consolas" font-size="10.00">float currentHitPoints</text>
<text text-anchor="start" x="193.07" y="-969.5" font-family="Consolas" font-size="10.00">#</text>
<text text-anchor="start" x="202.32" y="-969.5" font-family="Consolas" font-size="10.00">List&lt; Room &gt; adjacentRooms</text>
<text text-anchor="start" x="193.07" y="-955" font-family="Consolas" font-size="10.00">#</text>
<text text-anchor="start" x="202.32" y="-955" font-family="Consolas" font-size="10.00">List&lt; Door &gt; connectedDoors</text>
<text text-anchor="start" x="193.07" y="-940.5" font-family="Consolas" font-size="10.00">#</text>
<text text-anchor="start" x="202.32" y="-940.5" font-family="Consolas" font-size="10.00">ParticleSystem roomParticles</text>
<text text-anchor="start" x="193.07" y="-926" font-family="Consolas" font-size="10.00">#</text>
<text text-anchor="start" x="202.32" y="-926" font-family="Consolas" font-size="10.00">AudioSource roomSound</text>
<text text-anchor="start" x="193.07" y="-911.5" font-family="Consolas" font-size="10.00">#</text>
<text text-anchor="start" x="202.32" y="-911.5" font-family="Consolas" font-size="10.00">bool isActive</text>
<text text-anchor="start" x="193.07" y="-897" font-family="Consolas" font-size="10.00">#</text>
<text text-anchor="start" x="202.32" y="-897" font-family="Consolas" font-size="10.00">bool isPowered</text>
<text text-anchor="start" x="193.07" y="-882.5" font-family="Consolas" font-size="10.00">#</text>
<text text-anchor="start" x="202.32" y="-882.5" font-family="Consolas" font-size="10.00">bool isPowerRequested</text>
<text text-anchor="start" x="193.07" y="-868" font-family="Consolas" font-size="10.00">#</text>
<text text-anchor="start" x="202.32" y="-868" font-family="Consolas" font-size="10.00">SpriteRenderer roomRenderer</text>
<text text-anchor="start" x="193.07" y="-853.5" font-family="Consolas" font-size="10.00">+</text>
<text text-anchor="start" x="202.32" y="-853.5" font-family="Consolas" font-size="10.00">virtual void Update()</text>
<text text-anchor="start" x="193.07" y="-839" font-family="Consolas" font-size="10.00">+</text>
<text text-anchor="start" x="202.32" y="-839" font-family="Consolas" font-size="10.00">virtual bool CanBePlaced</text>
<text text-anchor="start" x="202.32" y="-828.5" font-family="Consolas" font-size="10.00">(Vector2Int newPosition,</text>
<text text-anchor="start" x="202.32" y="-818" font-family="Consolas" font-size="10.00"> Ship ship)</text>
<text text-anchor="start" x="193.07" y="-803.5" font-family="Consolas" font-size="10.00">+</text>
<text text-anchor="start" x="202.32" y="-803.5" font-family="Consolas" font-size="10.00">virtual void OnPlaced()</text>
<text text-anchor="start" x="193.07" y="-789" font-family="Consolas" font-size="10.00">+</text>
<text text-anchor="start" x="202.32" y="-789" font-family="Consolas" font-size="10.00">virtual void OnCrewEnter</text>
<text text-anchor="start" x="202.32" y="-778.5" font-family="Consolas" font-size="10.00">(CrewBase crew)</text>
<text text-anchor="start" x="193.07" y="-764" font-family="Consolas" font-size="10.00">+</text>
<text text-anchor="start" x="202.32" y="-764" font-family="Consolas" font-size="10.00">virtual void OnCrewExit</text>
<text text-anchor="start" x="202.32" y="-753.5" font-family="Consolas" font-size="10.00">(CrewBase crew)</text>
<text text-anchor="start" x="193.07" y="-739" font-family="Consolas" font-size="10.00">+</text>
<text text-anchor="start" x="202.32" y="-739" font-family="Consolas" font-size="10.00">void InitializeIsDamageable()</text>
<text text-anchor="start" x="193.07" y="-724.5" font-family="Consolas" font-size="10.00">+</text>
<text text-anchor="start" x="202.32" y="-724.5" font-family="Consolas" font-size="10.00">bool GetIsPowered()</text>
<text text-anchor="start" x="193.07" y="-710" font-family="Consolas" font-size="10.00">+</text>
<text text-anchor="start" x="202.32" y="-710" font-family="Consolas" font-size="10.00">bool GetIsPowerRequested()</text>
<text text-anchor="start" x="193.07" y="-695.5" font-family="Consolas" font-size="10.00">+</text>
<text text-anchor="start" x="202.32" y="-695.5" font-family="Consolas" font-size="10.00">bool GetIsDamageable()</text>
<text text-anchor="start" x="193.07" y="-681" font-family="Consolas" font-size="10.00">+</text>
<text text-anchor="start" x="202.32" y="-681" font-family="Consolas" font-size="10.00">virtual void Initialize()</text>
<text text-anchor="start" x="193.07" y="-666.5" font-family="Consolas" font-size="10.00">+</text>
<text text-anchor="start" x="202.32" y="-666.5" font-family="Consolas" font-size="10.00">int GetCrewCount()</text>
<text text-anchor="start" x="193.07" y="-652" font-family="Consolas" font-size="10.00">+</text>
<text text-anchor="start" x="202.32" y="-652" font-family="Consolas" font-size="10.00">bool HasEnoughCrew()</text>
<text text-anchor="start" x="193.07" y="-637.5" font-family="Consolas" font-size="10.00">+</text>
<text text-anchor="start" x="202.32" y="-637.5" font-family="Consolas" font-size="10.00">bool IsOperational()</text>
<text text-anchor="start" x="193.07" y="-623" font-family="Consolas" font-size="10.00">+</text>
<text text-anchor="start" x="202.32" y="-623" font-family="Consolas" font-size="10.00">bool NeedsRepair()</text>
<text text-anchor="start" x="193.07" y="-608.5" font-family="Consolas" font-size="10.00">+</text>
<text text-anchor="start" x="202.32" y="-608.5" font-family="Consolas" font-size="10.00">virtual void TakeDamage</text>
<text text-anchor="start" x="202.32" y="-598" font-family="Consolas" font-size="10.00">(float damage)</text>
<text text-anchor="start" x="193.07" y="-583.5" font-family="Consolas" font-size="10.00">+</text>
<text text-anchor="start" x="202.32" y="-583.5" font-family="Consolas" font-size="10.00">virtual void Repair</text>
<text text-anchor="start" x="202.32" y="-573" font-family="Consolas" font-size="10.00">(float amount)</text>
<text text-anchor="start" x="193.07" y="-558.5" font-family="Consolas" font-size="10.00">+</text>
<text text-anchor="start" x="202.32" y="-558.5" font-family="Consolas" font-size="10.00">virtual void SetPowerStatus</text>
<text text-anchor="start" x="202.32" y="-548" font-family="Consolas" font-size="10.00">(bool powered, bool requested)</text>
<text text-anchor="start" x="193.07" y="-533.5" font-family="Consolas" font-size="10.00">+</text>
<text text-anchor="start" x="202.32" y="-533.5" font-family="Consolas" font-size="10.00">float GetHealthPercentage()</text>
<text text-anchor="start" x="193.07" y="-519" font-family="Consolas" font-size="10.00">+</text>
<text text-anchor="start" x="202.32" y="-519" font-family="Consolas" font-size="10.00">virtual Dictionary</text>
<text text-anchor="start" x="202.32" y="-508.5" font-family="Consolas" font-size="10.00">&lt; ShipStat, float &gt;</text>
<text text-anchor="start" x="202.32" y="-498" font-family="Consolas" font-size="10.00"> GetStatContributions()</text>
<text text-anchor="start" x="193.07" y="-483.5" font-family="Consolas" font-size="10.00">+</text>
<text text-anchor="start" x="202.32" y="-483.5" font-family="Consolas" font-size="10.00">virtual Dictionary</text>
<text text-anchor="start" x="202.32" y="-473" font-family="Consolas" font-size="10.00">&lt; ShipStat, float &gt;</text>
<text text-anchor="start" x="202.32" y="-462.5" font-family="Consolas" font-size="10.00"> GetNextLevelStatContributions()</text>
<text text-anchor="start" x="193.07" y="-448" font-family="Consolas" font-size="10.00">+</text>
<text text-anchor="start" x="202.32" y="-448" font-family="Consolas" font-size="10.00">virtual bool Upgrade()</text>
<text text-anchor="start" x="193.07" y="-433.5" font-family="Consolas" font-size="10.00">+</text>
<text text-anchor="start" x="202.32" y="-433.5" font-family="Consolas" font-size="10.00">int GetCurrentLevel()</text>
<text text-anchor="start" x="193.07" y="-419" font-family="Consolas" font-size="10.00">+</text>
<text text-anchor="start" x="202.32" y="-419" font-family="Consolas" font-size="10.00">float GetPowerConsumption()</text>
<text text-anchor="start" x="193.07" y="-404.5" font-family="Consolas" font-size="10.00">+</text>
<text text-anchor="start" x="202.32" y="-404.5" font-family="Consolas" font-size="10.00">Vector2Int GetSize()</text>
<text text-anchor="start" x="193.07" y="-390" font-family="Consolas" font-size="10.00">+</text>
<text text-anchor="start" x="202.32" y="-390" font-family="Consolas" font-size="10.00">float GetMaxHitPoints()</text>
<text text-anchor="start" x="193.07" y="-375.5" font-family="Consolas" font-size="10.00">#</text>
<text text-anchor="start" x="202.32" y="-375.5" font-family="Consolas" font-size="10.00">virtual void Start()</text>
<text text-anchor="start" x="193.07" y="-361" font-family="Consolas" font-size="10.00">#</text>
<text text-anchor="start" x="202.32" y="-361" font-family="Consolas" font-size="10.00">virtual void UpdateRoom()</text>
<text text-anchor="start" x="193.07" y="-346.5" font-family="Consolas" font-size="10.00">#</text>
<text text-anchor="start" x="202.32" y="-346.5" font-family="Consolas" font-size="10.00">virtual void UpdateEffects()</text>
<text text-anchor="start" x="193.07" y="-332" font-family="Consolas" font-size="10.00">#</text>
<text text-anchor="start" x="202.32" y="-332" font-family="Consolas" font-size="10.00">virtual void OnDisabled()</text>
<text text-anchor="start" x="193.07" y="-317.5" font-family="Consolas" font-size="10.00">#</text>
<text text-anchor="start" x="202.32" y="-317.5" font-family="Consolas" font-size="10.00">virtual void NotifyState</text>
<text text-anchor="start" x="202.32" y="-307" font-family="Consolas" font-size="10.00">Changed()</text>
<polygon fill="#666666" stroke="#666666" points="189.07,-1082.5 189.07,-1082.5 374.32,-1082.5 374.32,-1082.5 189.07,-1082.5"/>
<polygon fill="#666666" stroke="#666666" points="189.07,-865 189.07,-865 200.32,-865 200.32,-865 189.07,-865"/>
<polygon fill="#666666" stroke="#666666" points="200.32,-865 200.32,-865 374.32,-865 374.32,-865 200.32,-865"/>
<polygon fill="none" stroke="#666666" points="189.07,-302 189.07,-1099 374.32,-1099 374.32,-302 189.07,-302"/>
</a>
</g>
</g>
<!-- Node3&#45;&gt;Node2 -->
<g id="edge2_Node000002_Node000003" class="edge">
<title>Node3&#45;&gt;Node2</title>
<g id="a_edge2_Node000002_Node000003"><a xlink:title=" ">
<path fill="none" stroke="#63b8ff" d="M281.7,-290.81C281.7,-281.6 281.7,-272.89 281.7,-264.78"/>
<polygon fill="none" stroke="#63b8ff" points="278.2,-290.77 281.7,-300.77 285.2,-290.77 278.2,-290.77"/>
</a>
</g>
</g>
<!-- Node4 -->
<g id="Node000004" class="node">
<title>Node4</title>
<g id="a_Node000004"><a xlink:title=" ">
<polygon fill="white" stroke="none" points="89.82,-1753 13.57,-1753 13.57,-1705.5 89.82,-1705.5 89.82,-1753"/>
<text text-anchor="start" x="17.57" y="-1739.5" font-family="Consolas" font-size="10.00">MonoBehaviour</text>
<text text-anchor="start" x="49.07" y="-1725" font-family="Consolas" font-size="10.00"> </text>
<text text-anchor="start" x="49.07" y="-1710.5" font-family="Consolas" font-size="10.00"> </text>
<polygon fill="#bfbfbf" stroke="#bfbfbf" points="13.57,-1736.5 13.57,-1736.5 89.82,-1736.5 89.82,-1736.5 13.57,-1736.5"/>
<polygon fill="#bfbfbf" stroke="#bfbfbf" points="13.57,-1722 13.57,-1722 89.82,-1722 89.82,-1722 13.57,-1722"/>
<polygon fill="none" stroke="#bfbfbf" points="13.57,-1705.5 13.57,-1753 89.82,-1753 89.82,-1705.5 13.57,-1705.5"/>
</a>
</g>
</g>
<!-- Node4&#45;&gt;Node3 -->
<g id="edge3_Node000003_Node000004" class="edge">
<title>Node4&#45;&gt;Node3</title>
<g id="a_edge3_Node000003_Node000004"><a xlink:title=" ">
<path fill="none" stroke="#63b8ff" d="M40.37,-1694.61C38.02,-1686.18 35.9,-1677.09 34.7,-1668.5 2.68,-1438.94 -23.35,-1371.39 34.7,-1147 64.76,-1030.77 132.39,-912.54 189.3,-827.11"/>
<polygon fill="none" stroke="#63b8ff" points="37,-1695.56 43.21,-1704.14 43.7,-1693.55 37,-1695.56"/>
</a>
</g>
</g>
<!-- Node8 -->
<g id="Node000008" class="node">
<title>Node8</title>
<g id="a_Node000008"><a xlink:href="class_ship.html" target="_top" xlink:title="함선의 전체 기능과 상태를 관리하는 클래스. 방 배치, 시스템 초기화, 전투 처리, 자원 계산, 스탯 갱신 등의 기능을 포함합니다.">
<polygon fill="white" stroke="none" points="223.7,-1668.5 43.7,-1668.5 43.7,-1147 223.7,-1147 223.7,-1668.5"/>
<text text-anchor="start" x="123.2" y="-1655" font-family="Consolas" font-size="10.00">Ship</text>
<text text-anchor="start" x="47.7" y="-1640.5" font-family="Consolas" font-size="10.00">+</text>
<text text-anchor="start" x="56.95" y="-1640.5" font-family="Consolas" font-size="10.00">GameObject testRoomPrefab1</text>
<text text-anchor="start" x="47.7" y="-1626" font-family="Consolas" font-size="10.00">+</text>
<text text-anchor="start" x="56.95" y="-1626" font-family="Consolas" font-size="10.00">GameObject testRoomPrefab2</text>
<text text-anchor="start" x="47.7" y="-1611.5" font-family="Consolas" font-size="10.00">+</text>
<text text-anchor="start" x="56.95" y="-1611.5" font-family="Consolas" font-size="10.00">bool AddRoom(Room room,</text>
<text text-anchor="start" x="56.95" y="-1601" font-family="Consolas" font-size="10.00"> Vector2Int position)</text>
<text text-anchor="start" x="47.7" y="-1586.5" font-family="Consolas" font-size="10.00">+</text>
<text text-anchor="start" x="56.95" y="-1586.5" font-family="Consolas" font-size="10.00">bool RemoveRoom(Room</text>
<text text-anchor="start" x="56.95" y="-1576" font-family="Consolas" font-size="10.00"> room)</text>
<text text-anchor="start" x="47.7" y="-1561.5" font-family="Consolas" font-size="10.00">+</text>
<text text-anchor="start" x="56.95" y="-1561.5" font-family="Consolas" font-size="10.00">bool AddDoor(Vector2Int</text>
<text text-anchor="start" x="56.95" y="-1551" font-family="Consolas" font-size="10.00"> position, bool isVertical)</text>
<text text-anchor="start" x="47.7" y="-1536.5" font-family="Consolas" font-size="10.00">+</text>
<text text-anchor="start" x="56.95" y="-1536.5" font-family="Consolas" font-size="10.00">T GetRoomOfType&lt; T &gt;()</text>
<text text-anchor="start" x="47.7" y="-1522" font-family="Consolas" font-size="10.00">+</text>
<text text-anchor="start" x="56.95" y="-1522" font-family="Consolas" font-size="10.00">List&lt; Room &gt; GetRoomsByType</text>
<text text-anchor="start" x="56.95" y="-1511.5" font-family="Consolas" font-size="10.00">(RoomType type)</text>
<text text-anchor="start" x="47.7" y="-1497" font-family="Consolas" font-size="10.00">+</text>
<text text-anchor="start" x="56.95" y="-1497" font-family="Consolas" font-size="10.00">T GetSystem&lt; T &gt;()</text>
<text text-anchor="start" x="47.7" y="-1482.5" font-family="Consolas" font-size="10.00">+</text>
<text text-anchor="start" x="56.95" y="-1482.5" font-family="Consolas" font-size="10.00">void RecalculateAllStats()</text>
<text text-anchor="start" x="47.7" y="-1468" font-family="Consolas" font-size="10.00">+</text>
<text text-anchor="start" x="56.95" y="-1468" font-family="Consolas" font-size="10.00">float GetStat(ShipStat</text>
<text text-anchor="start" x="56.95" y="-1457.5" font-family="Consolas" font-size="10.00"> statType)</text>
<text text-anchor="start" x="47.7" y="-1443" font-family="Consolas" font-size="10.00">+</text>
<text text-anchor="start" x="56.95" y="-1443" font-family="Consolas" font-size="10.00">Dictionary&lt; ShipStat,</text>
<text text-anchor="start" x="56.95" y="-1432.5" font-family="Consolas" font-size="10.00"> float &gt; GetRoomContributions</text>
<text text-anchor="start" x="56.95" y="-1422" font-family="Consolas" font-size="10.00">(string roomName)</text>
<text text-anchor="start" x="47.7" y="-1407.5" font-family="Consolas" font-size="10.00">+</text>
<text text-anchor="start" x="56.95" y="-1407.5" font-family="Consolas" font-size="10.00">void TakeAttack(float</text>
<text text-anchor="start" x="56.95" y="-1397" font-family="Consolas" font-size="10.00"> damage, WeaponType weaponType,</text>
<text text-anchor="start" x="56.95" y="-1386.5" font-family="Consolas" font-size="10.00"> Vector2Int hitPosition)</text>
<text text-anchor="start" x="47.7" y="-1372" font-family="Consolas" font-size="10.00">+</text>
<text text-anchor="start" x="56.95" y="-1372" font-family="Consolas" font-size="10.00">void TakeDamage(float</text>
<text text-anchor="start" x="56.95" y="-1361.5" font-family="Consolas" font-size="10.00"> damage)</text>
<text text-anchor="start" x="47.7" y="-1347" font-family="Consolas" font-size="10.00">+</text>
<text text-anchor="start" x="56.95" y="-1347" font-family="Consolas" font-size="10.00">void OnShipDestroyed()</text>
<text text-anchor="start" x="47.7" y="-1332.5" font-family="Consolas" font-size="10.00">+</text>
<text text-anchor="start" x="56.95" y="-1332.5" font-family="Consolas" font-size="10.00">bool Warp()</text>
<text text-anchor="start" x="47.7" y="-1318" font-family="Consolas" font-size="10.00">+</text>
<text text-anchor="start" x="56.95" y="-1318" font-family="Consolas" font-size="10.00">float CalculateWarpFuelCost()</text>
<text text-anchor="start" x="47.7" y="-1303.5" font-family="Consolas" font-size="10.00">+</text>
<text text-anchor="start" x="56.95" y="-1303.5" font-family="Consolas" font-size="10.00">int GetCrewCount()</text>
<text text-anchor="start" x="47.7" y="-1289" font-family="Consolas" font-size="10.00">+</text>
<text text-anchor="start" x="56.95" y="-1289" font-family="Consolas" font-size="10.00">int GetMaxCrew()</text>
<text text-anchor="start" x="47.7" y="-1274.5" font-family="Consolas" font-size="10.00">+</text>
<text text-anchor="start" x="56.95" y="-1274.5" font-family="Consolas" font-size="10.00">List&lt; Room &gt; GetAllRooms()</text>
<text text-anchor="start" x="47.7" y="-1260" font-family="Consolas" font-size="10.00">+</text>
<text text-anchor="start" x="56.95" y="-1260" font-family="Consolas" font-size="10.00">List&lt; Door &gt; GetAllDoors()</text>
<text text-anchor="start" x="47.7" y="-1245.5" font-family="Consolas" font-size="10.00">+</text>
<text text-anchor="start" x="56.95" y="-1245.5" font-family="Consolas" font-size="10.00">List&lt; CrewBase &gt; GetAllCrew()</text>
<text text-anchor="start" x="47.7" y="-1231" font-family="Consolas" font-size="10.00">+</text>
<text text-anchor="start" x="56.95" y="-1231" font-family="Consolas" font-size="10.00">List&lt; ShipWeapon &gt;</text>
<text text-anchor="start" x="56.95" y="-1220.5" font-family="Consolas" font-size="10.00"> GetAllWeapons()</text>
<text text-anchor="start" x="47.7" y="-1206" font-family="Consolas" font-size="10.00">+</text>
<text text-anchor="start" x="56.95" y="-1206" font-family="Consolas" font-size="10.00">float GetCurrentHitPoints()</text>
<text text-anchor="start" x="47.7" y="-1191.5" font-family="Consolas" font-size="10.00">+</text>
<text text-anchor="start" x="56.95" y="-1191.5" font-family="Consolas" font-size="10.00">Vector2Int GetRandomTarget</text>
<text text-anchor="start" x="56.95" y="-1181" font-family="Consolas" font-size="10.00">Position()</text>
<text text-anchor="start" x="47.7" y="-1166.5" font-family="Consolas" font-size="10.00">+</text>
<text text-anchor="start" x="56.95" y="-1166.5" font-family="Consolas" font-size="10.00">float GetOxygenRate()</text>
<text text-anchor="start" x="47.7" y="-1152" font-family="Consolas" font-size="10.00">+</text>
<text text-anchor="start" x="56.95" y="-1152" font-family="Consolas" font-size="10.00">OxygenLevel GetOxygenLevel()</text>
<polygon fill="#666666" stroke="#666666" points="43.7,-1652 43.7,-1652 223.7,-1652 223.7,-1652 43.7,-1652"/>
<polygon fill="#666666" stroke="#666666" points="43.7,-1623 43.7,-1623 54.95,-1623 54.95,-1623 43.7,-1623"/>
<polygon fill="#666666" stroke="#666666" points="54.95,-1623 54.95,-1623 223.7,-1623 223.7,-1623 54.95,-1623"/>
<polygon fill="none" stroke="#666666" points="43.7,-1147 43.7,-1668.5 223.7,-1668.5 223.7,-1147 43.7,-1147"/>
</a>
</g>
</g>
<!-- Node4&#45;&gt;Node8 -->
<g id="edge8_Node000008_Node000004" class="edge">
<title>Node4&#45;&gt;Node8</title>
<g id="a_edge8_Node000008_Node000004"><a xlink:title=" ">
<path fill="none" stroke="#63b8ff" d="M60.32,-1694.64C62.31,-1686.89 64.58,-1678.05 67.06,-1668.41"/>
<polygon fill="none" stroke="#63b8ff" points="57,-1693.51 57.9,-1704.06 63.78,-1695.25 57,-1693.51"/>
</a>
</g>
</g>
<!-- Node5 -->
<g id="Node000005" class="node">
<title>Node5</title>
<g id="a_Node000005"><a xlink:href="interface_i_ship_stat_contributor.html" target="_top" xlink:title="함선의 ShipStat에 영향을 주는 객체 인터페이스. 방(Room)과 선원(Crew)은 모두 이 인터페이스를 통해 스탯에 기여합니다.">
<polygon fill="white" stroke="none" points="421.7,-1436.75 241.7,-1436.75 241.7,-1378.75 421.7,-1378.75 421.7,-1436.75"/>
<text text-anchor="start" x="279.2" y="-1423.25" font-family="Consolas" font-size="10.00">IShipStatContributor</text>
<text text-anchor="start" x="329.07" y="-1408.75" font-family="Consolas" font-size="10.00"> </text>
<text text-anchor="start" x="245.7" y="-1394.25" font-family="Consolas" font-size="10.00">+</text>
<text text-anchor="start" x="254.95" y="-1394.25" font-family="Consolas" font-size="10.00">Dictionary&lt; ShipStat,</text>
<text text-anchor="start" x="254.95" y="-1383.75" font-family="Consolas" font-size="10.00"> float &gt; GetStatContributions()</text>
<polygon fill="#666666" stroke="#666666" points="241.7,-1420.25 241.7,-1420.25 421.7,-1420.25 421.7,-1420.25 241.7,-1420.25"/>
<polygon fill="#666666" stroke="#666666" points="241.7,-1405.75 241.7,-1405.75 421.7,-1405.75 421.7,-1405.75 241.7,-1405.75"/>
<polygon fill="none" stroke="#666666" points="241.7,-1378.75 241.7,-1436.75 421.7,-1436.75 421.7,-1378.75 241.7,-1378.75"/>
</a>
</g>
</g>
<!-- Node5&#45;&gt;Node3 -->
<g id="edge4_Node000003_Node000005" class="edge">
<title>Node5&#45;&gt;Node3</title>
<g id="a_edge4_Node000003_Node000005"><a xlink:title=" ">
<path fill="none" stroke="#63b8ff" d="M328.92,-1367.64C325.07,-1313.26 317.68,-1209.01 309.87,-1098.83"/>
<polygon fill="none" stroke="#63b8ff" points="325.43,-1367.87 329.63,-1377.59 332.41,-1367.37 325.43,-1367.87"/>
</a>
</g>
</g>
<!-- Node6 -->
<g id="Node000006" class="node">
<title>Node6</title>
<g id="a_Node000006"><a xlink:href="class_room_data.html" target="_top" xlink:title="모든 방 유형의 기본 데이터를 정의하는 추상 ScriptableObject. 방의 레벨별 속성, 체력, 크기, 요구 자원 등을 설정합니다.">
<polygon fill="white" stroke="none" points="629.95,-1458.5 439.45,-1458.5 439.45,-1357 629.95,-1357 629.95,-1458.5"/>
<text text-anchor="start" x="513.7" y="-1445" font-family="Consolas" font-size="10.00">RoomData</text>
<text text-anchor="start" x="532.07" y="-1430.5" font-family="Consolas" font-size="10.00"> </text>
<text text-anchor="start" x="443.45" y="-1416" font-family="Consolas" font-size="10.00">+</text>
<text text-anchor="start" x="452.7" y="-1416" font-family="Consolas" font-size="10.00">RoomLevel GetRoomData</text>
<text text-anchor="start" x="452.7" y="-1405.5" font-family="Consolas" font-size="10.00">(int level)</text>
<text text-anchor="start" x="443.45" y="-1391" font-family="Consolas" font-size="10.00">#</text>
<text text-anchor="start" x="452.7" y="-1391" font-family="Consolas" font-size="10.00">void InitializeDefaultLevels()</text>
<text text-anchor="start" x="443.45" y="-1376.5" font-family="Consolas" font-size="10.00">#</text>
<text text-anchor="start" x="452.7" y="-1376.5" font-family="Consolas" font-size="10.00">virtual void OnEnable()</text>
<text text-anchor="start" x="443.45" y="-1362" font-family="Consolas" font-size="10.00">#</text>
<text text-anchor="start" x="452.7" y="-1362" font-family="Consolas" font-size="10.00">bool CheckIfNeedsInitialization()</text>
<polygon fill="#666666" stroke="#666666" points="439.45,-1442 439.45,-1442 629.95,-1442 629.95,-1442 439.45,-1442"/>
<polygon fill="#666666" stroke="#666666" points="439.45,-1427.5 439.45,-1427.5 629.95,-1427.5 629.95,-1427.5 439.45,-1427.5"/>
<polygon fill="none" stroke="#666666" points="439.45,-1357 439.45,-1458.5 629.95,-1458.5 629.95,-1357 439.45,-1357"/>
</a>
</g>
</g>
<!-- Node6&#45;&gt;Node3 -->
<g id="edge5_Node000003_Node000006" class="edge">
<title>Node6&#45;&gt;Node3</title>
<g id="a_edge5_Node000003_Node000006"><a xlink:title=" ">
<path fill="none" stroke="#63b8ff" d="M516.91,-1357.16C488.27,-1277.33 429.96,-1114.78 378.56,-971.5"/>
<polygon fill="none" stroke="#63b8ff" points="378.6,-971.61 372.81,-967.32 374.54,-960.32 380.34,-964.61 378.6,-971.61"/>
</a>
</g>
<text text-anchor="middle" x="460.46" y="-1119.5" font-family="Helvetica,sans-Serif" font-size="10.00" fill="grey"> +roomData</text>
</g>
<!-- Node7 -->
<g id="Node000007" class="node">
<title>Node7</title>
<g id="a_Node000007"><a xlink:title=" ">
<polygon fill="white" stroke="none" points="580.7,-1753 488.7,-1753 488.7,-1705.5 580.7,-1705.5 580.7,-1753"/>
<text text-anchor="start" x="492.7" y="-1739.5" font-family="Consolas" font-size="10.00">ScriptableObject</text>
<text text-anchor="start" x="532.07" y="-1725" font-family="Consolas" font-size="10.00"> </text>
<text text-anchor="start" x="532.07" y="-1710.5" font-family="Consolas" font-size="10.00"> </text>
<polygon fill="#bfbfbf" stroke="#bfbfbf" points="488.7,-1736.5 488.7,-1736.5 580.7,-1736.5 580.7,-1736.5 488.7,-1736.5"/>
<polygon fill="#bfbfbf" stroke="#bfbfbf" points="488.7,-1722 488.7,-1722 580.7,-1722 580.7,-1722 488.7,-1722"/>
<polygon fill="none" stroke="#bfbfbf" points="488.7,-1705.5 488.7,-1753 580.7,-1753 580.7,-1705.5 488.7,-1705.5"/>
</a>
</g>
</g>
<!-- Node7&#45;&gt;Node6 -->
<g id="edge6_Node000006_Node000007" class="edge">
<title>Node7&#45;&gt;Node6</title>
<g id="a_edge6_Node000006_Node000007"><a xlink:title=" ">
<path fill="none" stroke="#63b8ff" d="M534.7,-1694.02C534.7,-1637.36 534.7,-1523.88 534.7,-1458.41"/>
<polygon fill="none" stroke="#63b8ff" points="531.2,-1694.01 534.7,-1704.01 538.2,-1694.01 531.2,-1694.01"/>
</a>
</g>
</g>
<!-- Node8&#45;&gt;Node3 -->
<g id="edge7_Node000003_Node000008" class="edge">
<title>Node8&#45;&gt;Node3</title>
<g id="a_edge7_Node000003_Node000008"><a xlink:title=" ">
<path fill="none" stroke="#63b8ff" d="M188.18,-1147.15C190.65,-1135.34 193.16,-1123.38 195.69,-1111.34"/>
<polygon fill="none" stroke="#63b8ff" points="195.68,-1111.38 193,-1104.69 198.15,-1099.63 200.83,-1106.33 195.68,-1111.38"/>
</a>
</g>
<text text-anchor="middle" x="221.82" y="-1119.5" font-family="Helvetica,sans-Serif" font-size="10.00" fill="grey"> #parentShip</text>
</g>
</g>
</svg>

<g id="navigator" transform="translate(0 0)" fill="#404254">
  <rect fill="#f2f5e9" fill-opacity="0.5" stroke="#606060" stroke-width=".5" x="0" y="0" width="60" height="60"/>
  <use id="zoomplus" xlink:href="#zoomPlus" x="17" y="9" onmousedown="handleZoom(evt,'in')"/>
  <use id="zoomminus" xlink:href="#zoomMin" x="42" y="9" onmousedown="handleZoom(evt,'out')"/>
  <use id="reset" xlink:href="#resetDef" x="30" y="36" onmousedown="handleReset()"/>
   <use id="arrowup" xlink:href="#arrowUp" x="0" y="0" onmousedown="handlePan(0,-1)"/>
  <use id="arrowright" xlink:href="#arrowRight" x="0" y="0" onmousedown="handlePan(1,0)"/>
  <use id="arrowdown" xlink:href="#arrowDown" x="0" y="0" onmousedown="handlePan(0,1)"/>
  <use id="arrowleft" xlink:href="#arrowLeft" x="0" y="0" onmousedown="handlePan(-1,0)"/>
</g>
<svg viewBox="0 0 15 15" width="100%" height="30px" preserveAspectRatio="xMaxYMin meet">
 <g id="arrow_out" transform="scale(0.3 0.3)">
  <a xlink:href="class_crew_quarters_room__coll__graph_org.svg" target="_base">
   <rect id="button" ry="5" rx="5" y="6" x="6" height="38" width="38"
        fill="#f2f5e9" fill-opacity="0.5" stroke="#606060" stroke-width="1.0"/>
   <path id="arrow"
     d="M 11.500037,31.436501 C 11.940474,20.09759 22.043105,11.32322 32.158766,21.979434 L 37.068811,17.246167 C 37.068811,17.246167 37.088388,32 37.088388,32 L 22.160133,31.978069 C 22.160133,31.978069 26.997745,27.140456 26.997745,27.140456 C 18.528582,18.264221 13.291696,25.230495 11.500037,31.436501 z"
     style="fill:#404040;"/>
  </a>
 </g>
</svg>

<style type='text/css'>
<![CDATA[
[data-mouse-over-selected='false'] { opacity: 0.7; }
[data-mouse-over-selected='true']  { opacity: 1.0; }
]]>
</style>
<script type="application/ecmascript"><![CDATA[
document.addEventListener('DOMContentLoaded', (event) => {
  highlightEdges();
  highlightAdjacentNodes();
});
]]></script>
</svg>
