<?xml version="1.0" encoding="UTF-8" standalone="no"?>
<!DOCTYPE svg PUBLIC "-//W3C//DTD SVG 1.1//EN"
 "http://www.w3.org/Graphics/SVG/1.1/DTD/svg11.dtd">
<!-- Generated by graphviz version 12.2.1 (20241206.2353)
 -->
<!-- Title: ShipSystem Pages: 1 -->
<svg width="188pt" height="760pt"
 viewBox="0.00 0.00 188.00 759.50" xmlns="http://www.w3.org/2000/svg" xmlns:xlink="http://www.w3.org/1999/xlink">
<g id="graph0" class="graph" transform="scale(1 1) rotate(0) translate(4 755.5)">
<title>ShipSystem</title>
<!-- Node1 -->
<g id="Node000001" class="node">
<title>Node1</title>
<g id="a_Node000001"><a xlink:title="모든 함선 시스템의 추상 기반 클래스. 각 시스템은 함선 객체를 기반으로 동작하며, 공통적인 초기화 및 스탯 조회 기능을 제공합니다.">
<polygon fill="#999999" stroke="none" points="172.12,-97.5 7.88,-97.5 7.88,0 172.12,0 172.12,-97.5"/>
<text text-anchor="start" x="63.75" y="-84" font-family="Consolas" font-size="10.00">ShipSystem</text>
<text text-anchor="start" x="87.38" y="-69.5" font-family="Consolas" font-size="10.00"> </text>
<text text-anchor="start" x="11.88" y="-55" font-family="Consolas" font-size="10.00">+</text>
<text text-anchor="start" x="21.12" y="-55" font-family="Consolas" font-size="10.00">virtual void Initialize</text>
<text text-anchor="start" x="21.12" y="-44.5" font-family="Consolas" font-size="10.00">(Ship ship)</text>
<text text-anchor="start" x="11.88" y="-30" font-family="Consolas" font-size="10.00">+</text>
<text text-anchor="start" x="21.12" y="-30" font-family="Consolas" font-size="10.00">void Update(float deltaTime)</text>
<text text-anchor="start" x="11.88" y="-15.5" font-family="Consolas" font-size="10.00">#</text>
<text text-anchor="start" x="21.12" y="-15.5" font-family="Consolas" font-size="10.00">float GetShipStat(ShipStat</text>
<text text-anchor="start" x="21.12" y="-5" font-family="Consolas" font-size="10.00"> stat)</text>
<polygon fill="#666666" stroke="#666666" points="7.88,-81 7.88,-81 172.12,-81 172.12,-81 7.88,-81"/>
<polygon fill="#666666" stroke="#666666" points="7.88,-66.5 7.88,-66.5 172.12,-66.5 172.12,-66.5 7.88,-66.5"/>
<polygon fill="none" stroke="#666666" points="7.88,0 7.88,-97.5 172.12,-97.5 172.12,0 7.88,0"/>
</a>
</g>
</g>
<!-- Node2 -->
<g id="Node000002" class="node">
<title>Node2</title>
<g id="a_Node000002"><a xlink:href="class_ship.html" target="_top" xlink:title="함선의 전체 기능과 상태를 관리하는 클래스. 방 배치, 시스템 초기화, 전투 처리, 자원 계산, 스탯 갱신 등의 기능을 포함합니다.">
<polygon fill="white" stroke="none" points="180,-667 0,-667 0,-145.5 180,-145.5 180,-667"/>
<text text-anchor="start" x="79.5" y="-653.5" font-family="Consolas" font-size="10.00">Ship</text>
<text text-anchor="start" x="4" y="-639" font-family="Consolas" font-size="10.00">+</text>
<text text-anchor="start" x="13.25" y="-639" font-family="Consolas" font-size="10.00">GameObject testRoomPrefab1</text>
<text text-anchor="start" x="4" y="-624.5" font-family="Consolas" font-size="10.00">+</text>
<text text-anchor="start" x="13.25" y="-624.5" font-family="Consolas" font-size="10.00">GameObject testRoomPrefab2</text>
<text text-anchor="start" x="4" y="-610" font-family="Consolas" font-size="10.00">+</text>
<text text-anchor="start" x="13.25" y="-610" font-family="Consolas" font-size="10.00">bool AddRoom(Room room,</text>
<text text-anchor="start" x="13.25" y="-599.5" font-family="Consolas" font-size="10.00"> Vector2Int position)</text>
<text text-anchor="start" x="4" y="-585" font-family="Consolas" font-size="10.00">+</text>
<text text-anchor="start" x="13.25" y="-585" font-family="Consolas" font-size="10.00">bool RemoveRoom(Room</text>
<text text-anchor="start" x="13.25" y="-574.5" font-family="Consolas" font-size="10.00"> room)</text>
<text text-anchor="start" x="4" y="-560" font-family="Consolas" font-size="10.00">+</text>
<text text-anchor="start" x="13.25" y="-560" font-family="Consolas" font-size="10.00">bool AddDoor(Vector2Int</text>
<text text-anchor="start" x="13.25" y="-549.5" font-family="Consolas" font-size="10.00"> position, bool isVertical)</text>
<text text-anchor="start" x="4" y="-535" font-family="Consolas" font-size="10.00">+</text>
<text text-anchor="start" x="13.25" y="-535" font-family="Consolas" font-size="10.00">T GetRoomOfType&lt; T &gt;()</text>
<text text-anchor="start" x="4" y="-520.5" font-family="Consolas" font-size="10.00">+</text>
<text text-anchor="start" x="13.25" y="-520.5" font-family="Consolas" font-size="10.00">List&lt; Room &gt; GetRoomsByType</text>
<text text-anchor="start" x="13.25" y="-510" font-family="Consolas" font-size="10.00">(RoomType type)</text>
<text text-anchor="start" x="4" y="-495.5" font-family="Consolas" font-size="10.00">+</text>
<text text-anchor="start" x="13.25" y="-495.5" font-family="Consolas" font-size="10.00">T GetSystem&lt; T &gt;()</text>
<text text-anchor="start" x="4" y="-481" font-family="Consolas" font-size="10.00">+</text>
<text text-anchor="start" x="13.25" y="-481" font-family="Consolas" font-size="10.00">void RecalculateAllStats()</text>
<text text-anchor="start" x="4" y="-466.5" font-family="Consolas" font-size="10.00">+</text>
<text text-anchor="start" x="13.25" y="-466.5" font-family="Consolas" font-size="10.00">float GetStat(ShipStat</text>
<text text-anchor="start" x="13.25" y="-456" font-family="Consolas" font-size="10.00"> statType)</text>
<text text-anchor="start" x="4" y="-441.5" font-family="Consolas" font-size="10.00">+</text>
<text text-anchor="start" x="13.25" y="-441.5" font-family="Consolas" font-size="10.00">Dictionary&lt; ShipStat,</text>
<text text-anchor="start" x="13.25" y="-431" font-family="Consolas" font-size="10.00"> float &gt; GetRoomContributions</text>
<text text-anchor="start" x="13.25" y="-420.5" font-family="Consolas" font-size="10.00">(string roomName)</text>
<text text-anchor="start" x="4" y="-406" font-family="Consolas" font-size="10.00">+</text>
<text text-anchor="start" x="13.25" y="-406" font-family="Consolas" font-size="10.00">void TakeAttack(float</text>
<text text-anchor="start" x="13.25" y="-395.5" font-family="Consolas" font-size="10.00"> damage, WeaponType weaponType,</text>
<text text-anchor="start" x="13.25" y="-385" font-family="Consolas" font-size="10.00"> Vector2Int hitPosition)</text>
<text text-anchor="start" x="4" y="-370.5" font-family="Consolas" font-size="10.00">+</text>
<text text-anchor="start" x="13.25" y="-370.5" font-family="Consolas" font-size="10.00">void TakeDamage(float</text>
<text text-anchor="start" x="13.25" y="-360" font-family="Consolas" font-size="10.00"> damage)</text>
<text text-anchor="start" x="4" y="-345.5" font-family="Consolas" font-size="10.00">+</text>
<text text-anchor="start" x="13.25" y="-345.5" font-family="Consolas" font-size="10.00">void OnShipDestroyed()</text>
<text text-anchor="start" x="4" y="-331" font-family="Consolas" font-size="10.00">+</text>
<text text-anchor="start" x="13.25" y="-331" font-family="Consolas" font-size="10.00">bool Warp()</text>
<text text-anchor="start" x="4" y="-316.5" font-family="Consolas" font-size="10.00">+</text>
<text text-anchor="start" x="13.25" y="-316.5" font-family="Consolas" font-size="10.00">float CalculateWarpFuelCost()</text>
<text text-anchor="start" x="4" y="-302" font-family="Consolas" font-size="10.00">+</text>
<text text-anchor="start" x="13.25" y="-302" font-family="Consolas" font-size="10.00">int GetCrewCount()</text>
<text text-anchor="start" x="4" y="-287.5" font-family="Consolas" font-size="10.00">+</text>
<text text-anchor="start" x="13.25" y="-287.5" font-family="Consolas" font-size="10.00">int GetMaxCrew()</text>
<text text-anchor="start" x="4" y="-273" font-family="Consolas" font-size="10.00">+</text>
<text text-anchor="start" x="13.25" y="-273" font-family="Consolas" font-size="10.00">List&lt; Room &gt; GetAllRooms()</text>
<text text-anchor="start" x="4" y="-258.5" font-family="Consolas" font-size="10.00">+</text>
<text text-anchor="start" x="13.25" y="-258.5" font-family="Consolas" font-size="10.00">List&lt; Door &gt; GetAllDoors()</text>
<text text-anchor="start" x="4" y="-244" font-family="Consolas" font-size="10.00">+</text>
<text text-anchor="start" x="13.25" y="-244" font-family="Consolas" font-size="10.00">List&lt; CrewBase &gt; GetAllCrew()</text>
<text text-anchor="start" x="4" y="-229.5" font-family="Consolas" font-size="10.00">+</text>
<text text-anchor="start" x="13.25" y="-229.5" font-family="Consolas" font-size="10.00">List&lt; ShipWeapon &gt;</text>
<text text-anchor="start" x="13.25" y="-219" font-family="Consolas" font-size="10.00"> GetAllWeapons()</text>
<text text-anchor="start" x="4" y="-204.5" font-family="Consolas" font-size="10.00">+</text>
<text text-anchor="start" x="13.25" y="-204.5" font-family="Consolas" font-size="10.00">float GetCurrentHitPoints()</text>
<text text-anchor="start" x="4" y="-190" font-family="Consolas" font-size="10.00">+</text>
<text text-anchor="start" x="13.25" y="-190" font-family="Consolas" font-size="10.00">Vector2Int GetRandomTarget</text>
<text text-anchor="start" x="13.25" y="-179.5" font-family="Consolas" font-size="10.00">Position()</text>
<text text-anchor="start" x="4" y="-165" font-family="Consolas" font-size="10.00">+</text>
<text text-anchor="start" x="13.25" y="-165" font-family="Consolas" font-size="10.00">float GetOxygenRate()</text>
<text text-anchor="start" x="4" y="-150.5" font-family="Consolas" font-size="10.00">+</text>
<text text-anchor="start" x="13.25" y="-150.5" font-family="Consolas" font-size="10.00">OxygenLevel GetOxygenLevel()</text>
<polygon fill="#666666" stroke="#666666" points="0,-650.5 0,-650.5 180,-650.5 180,-650.5 0,-650.5"/>
<polygon fill="#666666" stroke="#666666" points="0,-621.5 0,-621.5 11.25,-621.5 11.25,-621.5 0,-621.5"/>
<polygon fill="#666666" stroke="#666666" points="11.25,-621.5 11.25,-621.5 180,-621.5 180,-621.5 11.25,-621.5"/>
<polygon fill="none" stroke="#666666" points="0,-145.5 0,-667 180,-667 180,-145.5 0,-145.5"/>
</a>
</g>
</g>
<!-- Node2&#45;&gt;Node1 -->
<g id="edge1_Node000001_Node000002" class="edge">
<title>Node2&#45;&gt;Node1</title>
<g id="a_edge1_Node000001_Node000002"><a xlink:title=" ">
<path fill="none" stroke="#63b8ff" d="M90,-145.95C90,-133.2 90,-121.16 90,-110.2"/>
<polygon fill="none" stroke="#63b8ff" points="90,-110.28 86,-104.28 90,-98.28 94,-104.28 90,-110.28"/>
</a>
</g>
<text text-anchor="middle" x="117.38" y="-118" font-family="Helvetica,sans-Serif" font-size="10.00" fill="grey"> #parentShip</text>
</g>
<!-- Node3 -->
<g id="Node000003" class="node">
<title>Node3</title>
<g id="a_Node000003"><a xlink:title=" ">
<polygon fill="white" stroke="none" points="128.12,-751.5 51.88,-751.5 51.88,-704 128.12,-704 128.12,-751.5"/>
<text text-anchor="start" x="55.88" y="-738" font-family="Consolas" font-size="10.00">MonoBehaviour</text>
<text text-anchor="start" x="87.38" y="-723.5" font-family="Consolas" font-size="10.00"> </text>
<text text-anchor="start" x="87.38" y="-709" font-family="Consolas" font-size="10.00"> </text>
<polygon fill="#bfbfbf" stroke="#bfbfbf" points="51.88,-735 51.88,-735 128.12,-735 128.12,-735 51.88,-735"/>
<polygon fill="#bfbfbf" stroke="#bfbfbf" points="51.88,-720.5 51.88,-720.5 128.12,-720.5 128.12,-720.5 51.88,-720.5"/>
<polygon fill="none" stroke="#bfbfbf" points="51.88,-704 51.88,-751.5 128.12,-751.5 128.12,-704 51.88,-704"/>
</a>
</g>
</g>
<!-- Node3&#45;&gt;Node2 -->
<g id="edge2_Node000002_Node000003" class="edge">
<title>Node3&#45;&gt;Node2</title>
<g id="a_edge2_Node000002_Node000003"><a xlink:title=" ">
<path fill="none" stroke="#63b8ff" d="M90,-692.59C90,-684.97 90,-676.33 90,-666.91"/>
<polygon fill="none" stroke="#63b8ff" points="86.5,-692.51 90,-702.51 93.5,-692.51 86.5,-692.51"/>
</a>
</g>
</g>
</g>
</svg>
