<?xml version="1.0" encoding="UTF-8" standalone="no"?>
<!DOCTYPE svg PUBLIC "-//W3C//DTD SVG 1.1//EN"
 "http://www.w3.org/Graphics/SVG/1.1/DTD/svg11.dtd">
<!-- Generated by graphviz version 12.2.1 (20241206.2353)
 -->
<!-- Title: ShipStatSettings Pages: 1 -->
<svg width="172pt" height="225pt"
 viewBox="0.00 0.00 172.25 224.50" xmlns="http://www.w3.org/2000/svg" xmlns:xlink="http://www.w3.org/1999/xlink">

<svg id="main" version="1.1" xmlns="http://www.w3.org/2000/svg" xmlns:xlink="http://www.w3.org/1999/xlink" xml:space="preserve">

<style type="text/css"><![CDATA[
.node, .edge {opacity: 0.7;}
.node.selected, .edge.selected {opacity: 1;}
.edge:hover path { stroke: red; }
.edge:hover polygon { stroke: red; fill: red; }
]]></style>
<script type="application/ecmascript" xlink:href="svg.min.js"/>
<svg id="graph" class="graph">
<g id="graph0" class="graph" transform="scale(1 1) rotate(0) translate(4 220.5)">
<title>ShipStatSettings</title>
<!-- Node1 -->
<g id="Node000001" class="node">
<title>Node1</title>
<g id="a_Node000001"><a xlink:title="Ship 스탯의 최소값과 최대값을 관리하는 ScriptableObject. 밸런스 조정 및 수치 안정성을 위한 범위 제한 기능을 제공합니다.">
<polygon fill="#999999" stroke="none" points="164.25,-133 0,-133 0,0 164.25,0 164.25,-133"/>
<text text-anchor="start" x="40.12" y="-119.5" font-family="Consolas" font-size="10.00">ShipStatSettings</text>
<text text-anchor="start" x="4" y="-105" font-family="Consolas" font-size="10.00">+</text>
<text text-anchor="start" x="13.25" y="-105" font-family="Consolas" font-size="10.00">List&lt; StatLimit &gt; StatLimits</text>
<text text-anchor="start" x="4" y="-90.5" font-family="Consolas" font-size="10.00">+</text>
<text text-anchor="start" x="13.25" y="-90.5" font-family="Consolas" font-size="10.00">float GetMaxValue(ShipStat</text>
<text text-anchor="start" x="13.25" y="-80" font-family="Consolas" font-size="10.00"> stat)</text>
<text text-anchor="start" x="4" y="-65.5" font-family="Consolas" font-size="10.00">+</text>
<text text-anchor="start" x="13.25" y="-65.5" font-family="Consolas" font-size="10.00">float GetMinValue(ShipStat</text>
<text text-anchor="start" x="13.25" y="-55" font-family="Consolas" font-size="10.00"> stat)</text>
<text text-anchor="start" x="4" y="-40.5" font-family="Consolas" font-size="10.00">+</text>
<text text-anchor="start" x="13.25" y="-40.5" font-family="Consolas" font-size="10.00">bool HasMinLimit(ShipStat</text>
<text text-anchor="start" x="13.25" y="-30" font-family="Consolas" font-size="10.00"> stat)</text>
<text text-anchor="start" x="4" y="-15.5" font-family="Consolas" font-size="10.00">+</text>
<text text-anchor="start" x="13.25" y="-15.5" font-family="Consolas" font-size="10.00">float ClampValue(ShipStat</text>
<text text-anchor="start" x="13.25" y="-5" font-family="Consolas" font-size="10.00"> stat, float value)</text>
<polygon fill="#666666" stroke="#666666" points="0,-116.5 0,-116.5 164.25,-116.5 164.25,-116.5 0,-116.5"/>
<polygon fill="#666666" stroke="#666666" points="0,-102 0,-102 11.25,-102 11.25,-102 0,-102"/>
<polygon fill="#666666" stroke="#666666" points="11.25,-102 11.25,-102 164.25,-102 164.25,-102 11.25,-102"/>
<polygon fill="none" stroke="#666666" points="0,0 0,-133 164.25,-133 164.25,0 0,0"/>
</a>
</g>
</g>
<!-- Node2 -->
<g id="Node000002" class="node">
<title>Node2</title>
<g id="a_Node000002"><a xlink:title=" ">
<polygon fill="white" stroke="none" points="128.12,-216.5 36.12,-216.5 36.12,-169 128.12,-169 128.12,-216.5"/>
<text text-anchor="start" x="40.12" y="-203" font-family="Consolas" font-size="10.00">ScriptableObject</text>
<text text-anchor="start" x="79.5" y="-188.5" font-family="Consolas" font-size="10.00"> </text>
<text text-anchor="start" x="79.5" y="-174" font-family="Consolas" font-size="10.00"> </text>
<polygon fill="#bfbfbf" stroke="#bfbfbf" points="36.12,-200 36.12,-200 128.12,-200 128.12,-200 36.12,-200"/>
<polygon fill="#bfbfbf" stroke="#bfbfbf" points="36.12,-185.5 36.12,-185.5 128.12,-185.5 128.12,-185.5 36.12,-185.5"/>
<polygon fill="none" stroke="#bfbfbf" points="36.12,-169 36.12,-216.5 128.12,-216.5 128.12,-169 36.12,-169"/>
</a>
</g>
</g>
<!-- Node2&#45;&gt;Node1 -->
<g id="edge1_Node000001_Node000002" class="edge">
<title>Node2&#45;&gt;Node1</title>
<g id="a_edge1_Node000001_Node000002"><a xlink:title=" ">
<path fill="none" stroke="#63b8ff" d="M82.12,-157.78C82.12,-150.03 82.12,-141.54 82.12,-132.97"/>
<polygon fill="none" stroke="#63b8ff" points="78.63,-157.74 82.13,-167.74 85.63,-157.74 78.63,-157.74"/>
</a>
</g>
</g>
</g>
</svg>
</svg>

<style type='text/css'>
<![CDATA[
[data-mouse-over-selected='false'] { opacity: 0.7; }
[data-mouse-over-selected='true']  { opacity: 1.0; }
]]>
</style>
<script type="application/ecmascript"><![CDATA[
document.addEventListener('DOMContentLoaded', (event) => {
  highlightEdges();
  highlightAdjacentNodes();
});
]]></script>
</svg>
