<?xml version="1.0" encoding="UTF-8" standalone="no"?>
<!DOCTYPE svg PUBLIC "-//W3C//DTD SVG 1.1//EN"
 "http://www.w3.org/Graphics/SVG/1.1/DTD/svg11.dtd">
<!-- Generated by graphviz version 12.2.1 (20241206.2353)
 -->
<!-- Title: LifeSupportRoom Pages: 1 -->
<svg width="218pt" height="1044pt"
 viewBox="0.00 0.00 217.50 1044.00" xmlns="http://www.w3.org/2000/svg" xmlns:xlink="http://www.w3.org/1999/xlink">
<g id="graph0" class="graph" transform="scale(1 1) rotate(0) translate(4 1040)">
<title>LifeSupportRoom</title>
<!-- Node1 -->
<g id="Node000001" class="node">
<title>Node1</title>
<g id="a_Node000001"><a xlink:title="함선의 생활 편의 시설을 나타내는 클래스">
<polygon fill="#999999" stroke="none" points="152.5,-68 37,-68 37,0 152.5,0 152.5,-68"/>
<text text-anchor="start" x="56.88" y="-54.5" font-family="Helvetica,sans-Serif" font-size="10.00">LifeSupportRoom</text>
<text text-anchor="start" x="93.25" y="-38.5" font-family="Helvetica,sans-Serif" font-size="10.00"> </text>
<text text-anchor="start" x="41" y="-22.5" font-family="Helvetica,sans-Serif" font-size="10.00">+</text>
<text text-anchor="start" x="51" y="-22.5" font-family="Helvetica,sans-Serif" font-size="10.00">GetStatContributions()</text>
<text text-anchor="start" x="41.38" y="-6.5" font-family="Helvetica,sans-Serif" font-size="10.00">#</text>
<text text-anchor="start" x="51" y="-6.5" font-family="Helvetica,sans-Serif" font-size="10.00">Start()</text>
<polygon fill="#666666" stroke="#666666" points="37,-50 37,-50 152.5,-50 152.5,-50 37,-50"/>
<polygon fill="#666666" stroke="#666666" points="37,-34 37,-34 152.5,-34 152.5,-34 37,-34"/>
<polygon fill="none" stroke="#666666" points="37,0 37,-68 152.5,-68 152.5,0 37,0"/>
</a>
</g>
</g>
<!-- Node2 -->
<g id="Node000002" class="node">
<title>Node2</title>
<g id="a_Node000002"><a xlink:href="class_room-2-g.html" target="_top" xlink:title="함선 내의 특화된 방 타입을 위한 제네릭 기본 클래스">
<polygon fill="white" stroke="none" points="157.75,-236 31.75,-236 31.75,-104 157.75,-104 157.75,-236"/>
<text text-anchor="start" x="42.25" y="-222.5" font-family="Helvetica,sans-Serif" font-size="10.00">Room&lt; TData, TLevel &gt;</text>
<text text-anchor="start" x="35.75" y="-206.5" font-family="Helvetica,sans-Serif" font-size="10.00">+</text>
<text text-anchor="start" x="45.75" y="-206.5" font-family="Helvetica,sans-Serif" font-size="10.00">roomData</text>
<text text-anchor="start" x="36.12" y="-190.5" font-family="Helvetica,sans-Serif" font-size="10.00">#</text>
<text text-anchor="start" x="45.75" y="-190.5" font-family="Helvetica,sans-Serif" font-size="10.00">currentRoomLevelData</text>
<text text-anchor="start" x="35.75" y="-174.5" font-family="Helvetica,sans-Serif" font-size="10.00">+</text>
<text text-anchor="start" x="45.75" y="-174.5" font-family="Helvetica,sans-Serif" font-size="10.00">GetCurrentLevelData()</text>
<text text-anchor="start" x="35.75" y="-158.5" font-family="Helvetica,sans-Serif" font-size="10.00">+</text>
<text text-anchor="start" x="45.75" y="-158.5" font-family="Helvetica,sans-Serif" font-size="10.00">Upgrade()</text>
<text text-anchor="start" x="35.75" y="-142.5" font-family="Helvetica,sans-Serif" font-size="10.00">+</text>
<text text-anchor="start" x="45.75" y="-142.5" font-family="Helvetica,sans-Serif" font-size="10.00">Initialize()</text>
<text text-anchor="start" x="36.12" y="-126.5" font-family="Helvetica,sans-Serif" font-size="10.00">#</text>
<text text-anchor="start" x="45.75" y="-126.5" font-family="Helvetica,sans-Serif" font-size="10.00">UpdateRoomLevelData()</text>
<text text-anchor="start" x="36.12" y="-110.5" font-family="Helvetica,sans-Serif" font-size="10.00">#</text>
<text text-anchor="start" x="45.75" y="-110.5" font-family="Helvetica,sans-Serif" font-size="10.00">Start()</text>
<polygon fill="#666666" stroke="#666666" points="31.75,-218 31.75,-218 157.75,-218 157.75,-218 31.75,-218"/>
<polygon fill="#666666" stroke="#666666" points="31.75,-186 31.75,-186 43.75,-186 43.75,-186 31.75,-186"/>
<polygon fill="#666666" stroke="#666666" points="43.75,-186 43.75,-186 157.75,-186 157.75,-186 43.75,-186"/>
<polygon fill="none" stroke="#666666" points="31.75,-104 31.75,-236 157.75,-236 157.75,-104 31.75,-104"/>
</a>
</g>
</g>
<!-- Node2&#45;&gt;Node1 -->
<g id="edge1_Node000001_Node000002" class="edge">
<title>Node2&#45;&gt;Node1</title>
<g id="a_edge1_Node000001_Node000002"><a xlink:title=" ">
<path fill="none" stroke="#63b8ff" d="M94.75,-93.05C94.75,-84.17 94.75,-75.51 94.75,-67.7"/>
<polygon fill="none" stroke="#63b8ff" points="91.25,-92.84 94.75,-102.84 98.25,-92.84 91.25,-92.84"/>
</a>
</g>
</g>
<!-- Node3 -->
<g id="Node000003" class="node">
<title>Node3</title>
<g id="a_Node000003"><a xlink:href="class_room.html" target="_top" xlink:title="함선 내의 모든 방의 기본 클래스">
<polygon fill="white" stroke="none" points="164.12,-948 25.38,-948 25.38,-272 164.12,-272 164.12,-948"/>
<text text-anchor="start" x="81.62" y="-934.5" font-family="Helvetica,sans-Serif" font-size="10.00">Room</text>
<text text-anchor="start" x="29.38" y="-918.5" font-family="Helvetica,sans-Serif" font-size="10.00">+</text>
<text text-anchor="start" x="39.38" y="-918.5" font-family="Helvetica,sans-Serif" font-size="10.00">roomData</text>
<text text-anchor="start" x="29.38" y="-902.5" font-family="Helvetica,sans-Serif" font-size="10.00">+</text>
<text text-anchor="start" x="39.38" y="-902.5" font-family="Helvetica,sans-Serif" font-size="10.00">position</text>
<text text-anchor="start" x="29.38" y="-886.5" font-family="Helvetica,sans-Serif" font-size="10.00">+</text>
<text text-anchor="start" x="39.38" y="-886.5" font-family="Helvetica,sans-Serif" font-size="10.00">currentLevel</text>
<text text-anchor="start" x="29.38" y="-870.5" font-family="Helvetica,sans-Serif" font-size="10.00">+</text>
<text text-anchor="start" x="39.38" y="-870.5" font-family="Helvetica,sans-Serif" font-size="10.00">maxLevel</text>
<text text-anchor="start" x="29.38" y="-854.5" font-family="Helvetica,sans-Serif" font-size="10.00">+</text>
<text text-anchor="start" x="39.38" y="-854.5" font-family="Helvetica,sans-Serif" font-size="10.00">roomType</text>
<text text-anchor="start" x="29.38" y="-838.5" font-family="Helvetica,sans-Serif" font-size="10.00">+</text>
<text text-anchor="start" x="39.38" y="-838.5" font-family="Helvetica,sans-Serif" font-size="10.00">crewInRoom</text>
<text text-anchor="start" x="29.38" y="-822.5" font-family="Helvetica,sans-Serif" font-size="10.00">+</text>
<text text-anchor="start" x="39.38" y="-822.5" font-family="Helvetica,sans-Serif" font-size="10.00">gridSize</text>
<text text-anchor="start" x="29.38" y="-806.5" font-family="Helvetica,sans-Serif" font-size="10.00">+</text>
<text text-anchor="start" x="39.38" y="-806.5" font-family="Helvetica,sans-Serif" font-size="10.00">isPlaced</text>
<text text-anchor="start" x="29.75" y="-790.5" font-family="Helvetica,sans-Serif" font-size="10.00">#</text>
<text text-anchor="start" x="39.38" y="-790.5" font-family="Helvetica,sans-Serif" font-size="10.00">currentHitPoints</text>
<text text-anchor="start" x="29.75" y="-774.5" font-family="Helvetica,sans-Serif" font-size="10.00">#</text>
<text text-anchor="start" x="39.38" y="-774.5" font-family="Helvetica,sans-Serif" font-size="10.00">oxygenLevel</text>
<text text-anchor="start" x="29.75" y="-758.5" font-family="Helvetica,sans-Serif" font-size="10.00">#</text>
<text text-anchor="start" x="39.38" y="-758.5" font-family="Helvetica,sans-Serif" font-size="10.00">adjacentRooms</text>
<text text-anchor="start" x="29.75" y="-742.5" font-family="Helvetica,sans-Serif" font-size="10.00">#</text>
<text text-anchor="start" x="39.38" y="-742.5" font-family="Helvetica,sans-Serif" font-size="10.00">connectedDoors</text>
<text text-anchor="start" x="29.75" y="-726.5" font-family="Helvetica,sans-Serif" font-size="10.00">#</text>
<text text-anchor="start" x="39.38" y="-726.5" font-family="Helvetica,sans-Serif" font-size="10.00">roomParticles</text>
<text text-anchor="start" x="29.75" y="-710.5" font-family="Helvetica,sans-Serif" font-size="10.00">#</text>
<text text-anchor="start" x="39.38" y="-710.5" font-family="Helvetica,sans-Serif" font-size="10.00">roomSound</text>
<text text-anchor="start" x="29.75" y="-694.5" font-family="Helvetica,sans-Serif" font-size="10.00">#</text>
<text text-anchor="start" x="39.38" y="-694.5" font-family="Helvetica,sans-Serif" font-size="10.00">crewDamagePerOxygen</text>
<text text-anchor="start" x="29.75" y="-678.5" font-family="Helvetica,sans-Serif" font-size="10.00">#</text>
<text text-anchor="start" x="39.38" y="-678.5" font-family="Helvetica,sans-Serif" font-size="10.00">fireExtinguishRatePerLevel</text>
<text text-anchor="start" x="29.75" y="-662.5" font-family="Helvetica,sans-Serif" font-size="10.00">#</text>
<text text-anchor="start" x="39.38" y="-662.5" font-family="Helvetica,sans-Serif" font-size="10.00">isActive</text>
<text text-anchor="start" x="29.75" y="-646.5" font-family="Helvetica,sans-Serif" font-size="10.00">#</text>
<text text-anchor="start" x="39.38" y="-646.5" font-family="Helvetica,sans-Serif" font-size="10.00">isPowered</text>
<text text-anchor="start" x="29.75" y="-630.5" font-family="Helvetica,sans-Serif" font-size="10.00">#</text>
<text text-anchor="start" x="39.38" y="-630.5" font-family="Helvetica,sans-Serif" font-size="10.00">isPowerRequested</text>
<text text-anchor="start" x="29.75" y="-614.5" font-family="Helvetica,sans-Serif" font-size="10.00">#</text>
<text text-anchor="start" x="39.38" y="-614.5" font-family="Helvetica,sans-Serif" font-size="10.00">lowOxygenColor</text>
<text text-anchor="start" x="29.75" y="-598.5" font-family="Helvetica,sans-Serif" font-size="10.00">#</text>
<text text-anchor="start" x="39.38" y="-598.5" font-family="Helvetica,sans-Serif" font-size="10.00">normalColor</text>
<text text-anchor="start" x="29.75" y="-582.5" font-family="Helvetica,sans-Serif" font-size="10.00">#</text>
<text text-anchor="start" x="39.38" y="-582.5" font-family="Helvetica,sans-Serif" font-size="10.00">roomRenderer</text>
<text text-anchor="start" x="29.75" y="-566.5" font-family="Helvetica,sans-Serif" font-size="10.00">#</text>
<text text-anchor="start" x="39.38" y="-566.5" font-family="Helvetica,sans-Serif" font-size="10.00">parentShip</text>
<text text-anchor="start" x="29.38" y="-550.5" font-family="Helvetica,sans-Serif" font-size="10.00">+</text>
<text text-anchor="start" x="39.38" y="-550.5" font-family="Helvetica,sans-Serif" font-size="10.00">Update()</text>
<text text-anchor="start" x="29.38" y="-534.5" font-family="Helvetica,sans-Serif" font-size="10.00">+</text>
<text text-anchor="start" x="39.38" y="-534.5" font-family="Helvetica,sans-Serif" font-size="10.00">CanBePlaced()</text>
<text text-anchor="start" x="29.38" y="-518.5" font-family="Helvetica,sans-Serif" font-size="10.00">+</text>
<text text-anchor="start" x="39.38" y="-518.5" font-family="Helvetica,sans-Serif" font-size="10.00">OnPlaced()</text>
<text text-anchor="start" x="29.38" y="-502.5" font-family="Helvetica,sans-Serif" font-size="10.00">+</text>
<text text-anchor="start" x="39.38" y="-502.5" font-family="Helvetica,sans-Serif" font-size="10.00">OnCrewEnter()</text>
<text text-anchor="start" x="29.38" y="-486.5" font-family="Helvetica,sans-Serif" font-size="10.00">+</text>
<text text-anchor="start" x="39.38" y="-486.5" font-family="Helvetica,sans-Serif" font-size="10.00">OnCrewExit()</text>
<text text-anchor="start" x="29.38" y="-470.5" font-family="Helvetica,sans-Serif" font-size="10.00">+</text>
<text text-anchor="start" x="39.38" y="-470.5" font-family="Helvetica,sans-Serif" font-size="10.00">InitializeIsDamageable()</text>
<text text-anchor="start" x="29.38" y="-454.5" font-family="Helvetica,sans-Serif" font-size="10.00">+</text>
<text text-anchor="start" x="39.38" y="-454.5" font-family="Helvetica,sans-Serif" font-size="10.00">GetIsPowered()</text>
<text text-anchor="start" x="29.38" y="-438.5" font-family="Helvetica,sans-Serif" font-size="10.00">+</text>
<text text-anchor="start" x="39.38" y="-438.5" font-family="Helvetica,sans-Serif" font-size="10.00">GetIsPowerRequested()</text>
<text text-anchor="start" x="29.38" y="-422.5" font-family="Helvetica,sans-Serif" font-size="10.00">+</text>
<text text-anchor="start" x="39.38" y="-422.5" font-family="Helvetica,sans-Serif" font-size="10.00">GetIsDamageable()</text>
<text text-anchor="start" x="29.38" y="-406.5" font-family="Helvetica,sans-Serif" font-size="10.00">+</text>
<text text-anchor="start" x="39.38" y="-406.5" font-family="Helvetica,sans-Serif" font-size="10.00">GetOxygenLevel()</text>
<text text-anchor="start" x="39.38" y="-390.5" font-family="Helvetica,sans-Serif" font-size="10.00">and 18 more...</text>
<text text-anchor="start" x="29.75" y="-374.5" font-family="Helvetica,sans-Serif" font-size="10.00">#</text>
<text text-anchor="start" x="39.38" y="-374.5" font-family="Helvetica,sans-Serif" font-size="10.00">Start()</text>
<text text-anchor="start" x="29.75" y="-358.5" font-family="Helvetica,sans-Serif" font-size="10.00">#</text>
<text text-anchor="start" x="39.38" y="-358.5" font-family="Helvetica,sans-Serif" font-size="10.00">UpdateRoom()</text>
<text text-anchor="start" x="29.75" y="-342.5" font-family="Helvetica,sans-Serif" font-size="10.00">#</text>
<text text-anchor="start" x="39.38" y="-342.5" font-family="Helvetica,sans-Serif" font-size="10.00">UpdateEffects()</text>
<text text-anchor="start" x="29.75" y="-326.5" font-family="Helvetica,sans-Serif" font-size="10.00">#</text>
<text text-anchor="start" x="39.38" y="-326.5" font-family="Helvetica,sans-Serif" font-size="10.00">HasFire()</text>
<text text-anchor="start" x="29.75" y="-310.5" font-family="Helvetica,sans-Serif" font-size="10.00">#</text>
<text text-anchor="start" x="39.38" y="-310.5" font-family="Helvetica,sans-Serif" font-size="10.00">UpdateFireExtinguishRate()</text>
<text text-anchor="start" x="29.75" y="-294.5" font-family="Helvetica,sans-Serif" font-size="10.00">#</text>
<text text-anchor="start" x="39.38" y="-294.5" font-family="Helvetica,sans-Serif" font-size="10.00">OnDisabled()</text>
<text text-anchor="start" x="29.75" y="-278.5" font-family="Helvetica,sans-Serif" font-size="10.00">#</text>
<text text-anchor="start" x="39.38" y="-278.5" font-family="Helvetica,sans-Serif" font-size="10.00">NotifyStateChanged()</text>
<polygon fill="#666666" stroke="#666666" points="25.38,-930 25.38,-930 164.12,-930 164.12,-930 25.38,-930"/>
<polygon fill="#666666" stroke="#666666" points="25.38,-562 25.38,-562 37.38,-562 37.38,-562 25.38,-562"/>
<polygon fill="#666666" stroke="#666666" points="37.38,-562 37.38,-562 164.12,-562 164.12,-562 37.38,-562"/>
<polygon fill="none" stroke="#666666" points="25.38,-272 25.38,-948 164.12,-948 164.12,-272 25.38,-272"/>
</a>
</g>
</g>
<!-- Node3&#45;&gt;Node2 -->
<g id="edge2_Node000002_Node000003" class="edge">
<title>Node3&#45;&gt;Node2</title>
<g id="a_edge2_Node000002_Node000003"><a xlink:title=" ">
<path fill="none" stroke="#63b8ff" d="M94.75,-260.75C94.75,-252.01 94.75,-243.69 94.75,-235.91"/>
<polygon fill="none" stroke="#63b8ff" points="91.25,-260.52 94.75,-270.52 98.25,-260.52 91.25,-260.52"/>
</a>
</g>
</g>
<!-- Node4 -->
<g id="Node000004" class="node">
<title>Node4</title>
<g id="a_Node000004"><a xlink:title=" ">
<polygon fill="white" stroke="none" points="75.5,-1036 0,-1036 0,-984 75.5,-984 75.5,-1036"/>
<text text-anchor="start" x="4" y="-1022.5" font-family="Helvetica,sans-Serif" font-size="10.00">MonoBehaviour</text>
<text text-anchor="start" x="36.25" y="-1006.5" font-family="Helvetica,sans-Serif" font-size="10.00"> </text>
<text text-anchor="start" x="36.25" y="-990.5" font-family="Helvetica,sans-Serif" font-size="10.00"> </text>
<polygon fill="#bfbfbf" stroke="#bfbfbf" points="0,-1018 0,-1018 75.5,-1018 75.5,-1018 0,-1018"/>
<polygon fill="#bfbfbf" stroke="#bfbfbf" points="0,-1002 0,-1002 75.5,-1002 75.5,-1002 0,-1002"/>
<polygon fill="none" stroke="#bfbfbf" points="0,-984 0,-1036 75.5,-1036 75.5,-984 0,-984"/>
</a>
</g>
</g>
<!-- Node4&#45;&gt;Node3 -->
<g id="edge3_Node000003_Node000004" class="edge">
<title>Node4&#45;&gt;Node3</title>
<g id="a_edge3_Node000003_Node000004"><a xlink:title=" ">
<path fill="none" stroke="#63b8ff" d="M42.92,-972.88C43.99,-965.45 45.19,-957.06 46.5,-947.91"/>
<polygon fill="none" stroke="#63b8ff" points="39.48,-972.21 41.53,-982.61 46.41,-973.2 39.48,-972.21"/>
</a>
</g>
</g>
<!-- Node5 -->
<g id="Node000005" class="node">
<title>Node5</title>
<g id="a_Node000005"><a xlink:href="interface_i_ship_stat_contributor.html" target="_top" xlink:title="ShipStat 에 영향을 주는 객체 인터페이스 모든 방들과 모든 선원은 전부 이에 해당한다. 방의 경우엔 RoomData 에 등록된 정보를 바탕으로 Ship에서 Contribute...">
<polygon fill="white" stroke="none" points="209.5,-1036 94,-1036 94,-984 209.5,-984 209.5,-1036"/>
<text text-anchor="start" x="107.5" y="-1022.5" font-family="Helvetica,sans-Serif" font-size="10.00">IShipStatContributor</text>
<text text-anchor="start" x="150.25" y="-1006.5" font-family="Helvetica,sans-Serif" font-size="10.00"> </text>
<text text-anchor="start" x="98" y="-990.5" font-family="Helvetica,sans-Serif" font-size="10.00">+</text>
<text text-anchor="start" x="108" y="-990.5" font-family="Helvetica,sans-Serif" font-size="10.00">GetStatContributions()</text>
<polygon fill="#666666" stroke="#666666" points="94,-1018 94,-1018 209.5,-1018 209.5,-1018 94,-1018"/>
<polygon fill="#666666" stroke="#666666" points="94,-1002 94,-1002 209.5,-1002 209.5,-1002 94,-1002"/>
<polygon fill="none" stroke="#666666" points="94,-984 94,-1036 209.5,-1036 209.5,-984 94,-984"/>
</a>
</g>
</g>
<!-- Node5&#45;&gt;Node3 -->
<g id="edge4_Node000003_Node000005" class="edge">
<title>Node5&#45;&gt;Node3</title>
<g id="a_edge4_Node000003_Node000005"><a xlink:title=" ">
<path fill="none" stroke="#63b8ff" d="M146.58,-972.88C145.51,-965.45 144.31,-957.06 143,-947.91"/>
<polygon fill="none" stroke="#63b8ff" points="143.09,-973.2 147.97,-982.61 150.02,-972.21 143.09,-973.2"/>
</a>
</g>
</g>
</g>
</svg>
