<?xml version="1.0" encoding="UTF-8" standalone="no"?>
<!DOCTYPE svg PUBLIC "-//W3C//DTD SVG 1.1//EN"
 "http://www.w3.org/Graphics/SVG/1.1/DTD/svg11.dtd">
<!-- Generated by graphviz version 12.2.1 (20241206.2353)
 -->
<!-- Title: RoomsInventoryTooltipUI Pages: 1 -->
<svg width="203pt" height="457pt"
 viewBox="0.00 0.00 203.38 457.00" xmlns="http://www.w3.org/2000/svg" xmlns:xlink="http://www.w3.org/1999/xlink">
<g id="graph0" class="graph" transform="scale(1 1) rotate(0) translate(4 453)">
<title>RoomsInventoryTooltipUI</title>
<!-- Node1 -->
<g id="Node000001" class="node">
<title>Node1</title>
<g id="a_Node000001"><a xlink:title="RoomInventoryTooltip 의 Scroll View 관리하며, Ship.cs의 allRooms에 저장된 보유 방들을 기반으로 UI를 동적으로 생성하고 Content 크기를...">
<polygon fill="#999999" stroke="none" points="119,-68 0,-68 0,0 119,0 119,-68"/>
<text text-anchor="start" x="4" y="-54.5" font-family="Helvetica,sans-Serif" font-size="10.00">RoomsInventoryTooltipUI</text>
<text text-anchor="start" x="9" y="-38.5" font-family="Helvetica,sans-Serif" font-size="10.00">+</text>
<text text-anchor="start" x="24" y="-38.5" font-family="Helvetica,sans-Serif" font-size="10.00">roomButtonPrefab</text>
<text text-anchor="start" x="9" y="-22.5" font-family="Helvetica,sans-Serif" font-size="10.00">+</text>
<text text-anchor="start" x="24" y="-22.5" font-family="Helvetica,sans-Serif" font-size="10.00">contentRoot</text>
<text text-anchor="start" x="9" y="-6.5" font-family="Helvetica,sans-Serif" font-size="10.00">+</text>
<text text-anchor="start" x="24" y="-6.5" font-family="Helvetica,sans-Serif" font-size="10.00">RefreshInventory()</text>
<polygon fill="#666666" stroke="#666666" points="0,-50 0,-50 119,-50 119,-50 0,-50"/>
<polygon fill="#666666" stroke="#666666" points="0,-18 0,-18 22,-18 22,-18 0,-18"/>
<polygon fill="#666666" stroke="#666666" points="22,-18 22,-18 119,-18 119,-18 22,-18"/>
<polygon fill="none" stroke="#666666" points="0,0 0,-68 119,-68 119,0 0,0"/>
</a>
</g>
</g>
<!-- Node1&#45;&gt;Node1 -->
<g id="edge2_Node000001_Node000001" class="edge">
<title>Node1&#45;&gt;Node1</title>
<g id="a_edge2_Node000001_Node000001"><a xlink:title=" ">
<path fill="none" stroke="#63b8ff" d="M118.96,-44.24C129.58,-42.91 137,-39.49 137,-34 137,-31.08 134.91,-28.75 131.35,-27.01"/>
<polygon fill="none" stroke="#63b8ff" points="131.44,-27.03 124.63,-29.38 119.83,-23.99 126.65,-21.64 131.44,-27.03"/>
</a>
</g>
<text text-anchor="middle" x="160.25" y="-30.5" font-family="Helvetica,sans-Serif" font-size="10.00" fill="grey"> +Instance</text>
</g>
<!-- Node2 -->
<g id="Node000002" class="node">
<title>Node2</title>
<g id="a_Node000002"><a xlink:title=" ">
<polygon fill="white" stroke="none" points="93.25,-449 17.75,-449 17.75,-397 93.25,-397 93.25,-449"/>
<text text-anchor="start" x="21.75" y="-435.5" font-family="Helvetica,sans-Serif" font-size="10.00">MonoBehaviour</text>
<text text-anchor="start" x="54" y="-419.5" font-family="Helvetica,sans-Serif" font-size="10.00"> </text>
<text text-anchor="start" x="54" y="-403.5" font-family="Helvetica,sans-Serif" font-size="10.00"> </text>
<polygon fill="#bfbfbf" stroke="#bfbfbf" points="17.75,-431 17.75,-431 93.25,-431 93.25,-431 17.75,-431"/>
<polygon fill="#bfbfbf" stroke="#bfbfbf" points="17.75,-415 17.75,-415 93.25,-415 93.25,-415 17.75,-415"/>
<polygon fill="none" stroke="#bfbfbf" points="17.75,-397 17.75,-449 93.25,-449 93.25,-397 17.75,-397"/>
</a>
</g>
</g>
<!-- Node2&#45;&gt;Node1 -->
<g id="edge1_Node000001_Node000002" class="edge">
<title>Node2&#45;&gt;Node1</title>
<g id="a_edge1_Node000001_Node000002"><a xlink:title=" ">
<path fill="none" stroke="#63b8ff" d="M55.87,-386.06C56.64,-311.26 58.42,-139.86 59.16,-67.83"/>
<polygon fill="none" stroke="#63b8ff" points="52.38,-385.65 55.77,-395.69 59.38,-385.73 52.38,-385.65"/>
</a>
</g>
</g>
<!-- Node3 -->
<g id="Node000003" class="node">
<title>Node3</title>
<g id="a_Node000003"><a xlink:href="class_ship.html" target="_top" xlink:title=" ">
<polygon fill="white" stroke="none" points="195.38,-360 71.62,-360 71.62,-116 195.38,-116 195.38,-360"/>
<text text-anchor="start" x="123.75" y="-346.5" font-family="Helvetica,sans-Serif" font-size="10.00">Ship</text>
<text text-anchor="start" x="75.62" y="-330.5" font-family="Helvetica,sans-Serif" font-size="10.00">+</text>
<text text-anchor="start" x="85.62" y="-330.5" font-family="Helvetica,sans-Serif" font-size="10.00">allRooms</text>
<text text-anchor="start" x="75.62" y="-314.5" font-family="Helvetica,sans-Serif" font-size="10.00">+</text>
<text text-anchor="start" x="85.62" y="-314.5" font-family="Helvetica,sans-Serif" font-size="10.00">testRoomPrefab1</text>
<text text-anchor="start" x="75.62" y="-298.5" font-family="Helvetica,sans-Serif" font-size="10.00">+</text>
<text text-anchor="start" x="85.62" y="-298.5" font-family="Helvetica,sans-Serif" font-size="10.00">testRoomPrefab2</text>
<text text-anchor="start" x="75.62" y="-282.5" font-family="Helvetica,sans-Serif" font-size="10.00">+</text>
<text text-anchor="start" x="85.62" y="-282.5" font-family="Helvetica,sans-Serif" font-size="10.00">AddRoom()</text>
<text text-anchor="start" x="75.62" y="-266.5" font-family="Helvetica,sans-Serif" font-size="10.00">+</text>
<text text-anchor="start" x="85.62" y="-266.5" font-family="Helvetica,sans-Serif" font-size="10.00">RemoveRoom()</text>
<text text-anchor="start" x="75.62" y="-250.5" font-family="Helvetica,sans-Serif" font-size="10.00">+</text>
<text text-anchor="start" x="85.62" y="-250.5" font-family="Helvetica,sans-Serif" font-size="10.00">AddDoor()</text>
<text text-anchor="start" x="75.62" y="-234.5" font-family="Helvetica,sans-Serif" font-size="10.00">+</text>
<text text-anchor="start" x="85.62" y="-234.5" font-family="Helvetica,sans-Serif" font-size="10.00">GetRoomOfType&lt; T &gt;()</text>
<text text-anchor="start" x="75.62" y="-218.5" font-family="Helvetica,sans-Serif" font-size="10.00">+</text>
<text text-anchor="start" x="85.62" y="-218.5" font-family="Helvetica,sans-Serif" font-size="10.00">GetRoomsByType()</text>
<text text-anchor="start" x="75.62" y="-202.5" font-family="Helvetica,sans-Serif" font-size="10.00">+</text>
<text text-anchor="start" x="85.62" y="-202.5" font-family="Helvetica,sans-Serif" font-size="10.00">GetSystem&lt; T &gt;()</text>
<text text-anchor="start" x="75.62" y="-186.5" font-family="Helvetica,sans-Serif" font-size="10.00">+</text>
<text text-anchor="start" x="85.62" y="-186.5" font-family="Helvetica,sans-Serif" font-size="10.00">RecalculateAllStats()</text>
<text text-anchor="start" x="75.62" y="-170.5" font-family="Helvetica,sans-Serif" font-size="10.00">+</text>
<text text-anchor="start" x="85.62" y="-170.5" font-family="Helvetica,sans-Serif" font-size="10.00">GetStat()</text>
<text text-anchor="start" x="75.62" y="-154.5" font-family="Helvetica,sans-Serif" font-size="10.00">+</text>
<text text-anchor="start" x="85.62" y="-154.5" font-family="Helvetica,sans-Serif" font-size="10.00">GetRoomContributions()</text>
<text text-anchor="start" x="75.62" y="-138.5" font-family="Helvetica,sans-Serif" font-size="10.00">+</text>
<text text-anchor="start" x="85.62" y="-138.5" font-family="Helvetica,sans-Serif" font-size="10.00">TakeAttack()</text>
<text text-anchor="start" x="85.62" y="-122.5" font-family="Helvetica,sans-Serif" font-size="10.00">and 15 more...</text>
<polygon fill="#bfbfbf" stroke="#bfbfbf" points="71.62,-342 71.62,-342 195.38,-342 195.38,-342 71.62,-342"/>
<polygon fill="#bfbfbf" stroke="#bfbfbf" points="71.62,-294 71.62,-294 83.62,-294 83.62,-294 71.62,-294"/>
<polygon fill="#bfbfbf" stroke="#bfbfbf" points="83.62,-294 83.62,-294 195.38,-294 195.38,-294 83.62,-294"/>
<polygon fill="none" stroke="#bfbfbf" points="71.62,-116 71.62,-360 195.38,-360 195.38,-116 71.62,-116"/>
</a>
</g>
</g>
<!-- Node2&#45;&gt;Node3 -->
<g id="edge4_Node000003_Node000002" class="edge">
<title>Node2&#45;&gt;Node3</title>
<g id="a_edge4_Node000003_Node000002"><a xlink:title=" ">
<path fill="none" stroke="#63b8ff" d="M70.49,-386.83C73.97,-378.66 77.87,-369.51 81.98,-359.87"/>
<polygon fill="none" stroke="#63b8ff" points="67.31,-385.36 66.61,-395.93 73.75,-388.1 67.31,-385.36"/>
</a>
</g>
</g>
<!-- Node3&#45;&gt;Node1 -->
<g id="edge3_Node000001_Node000003" class="edge">
<title>Node3&#45;&gt;Node1</title>
<g id="a_edge3_Node000001_Node000003"><a xlink:title=" ">
<path fill="none" stroke="#63b8ff" d="M89.28,-116.29C84.52,-103.31 79.94,-90.78 75.84,-79.61"/>
<polygon fill="none" stroke="#63b8ff" points="75.89,-79.74 70.07,-75.48 71.76,-68.47 77.58,-72.73 75.89,-79.74"/>
</a>
</g>
<text text-anchor="middle" x="108.74" y="-88.5" font-family="Helvetica,sans-Serif" font-size="10.00" fill="grey"> +playerShip</text>
</g>
</g>
</svg>
