<?xml version="1.0" encoding="UTF-8" standalone="no"?>
<!DOCTYPE svg PUBLIC "-//W3C//DTD SVG 1.1//EN"
 "http://www.w3.org/Graphics/SVG/1.1/DTD/svg11.dtd">
<!-- Generated by graphviz version 12.2.1 (20241206.2353)
 -->
<!-- Title: RaceButtonController Pages: 1 -->
<svg width="617pt" height="361pt"
 viewBox="0.00 0.00 616.88 360.50" xmlns="http://www.w3.org/2000/svg" xmlns:xlink="http://www.w3.org/1999/xlink">
<g id="graph0" class="graph" transform="scale(1 1) rotate(0) translate(4 356.5)">
<title>RaceButtonController</title>
<!-- Node1 -->
<g id="Node000001" class="node">
<title>Node1</title>
<g id="a_Node000001"><a xlink:title=" ">
<polygon fill="#999999" stroke="none" points="361.25,-162 197,-162 197,0 361.25,0 361.25,-162"/>
<text text-anchor="start" x="226.62" y="-148.5" font-family="Consolas" font-size="10.00">RaceButtonController</text>
<text text-anchor="start" x="201" y="-134" font-family="Consolas" font-size="10.00">+</text>
<text text-anchor="start" x="210.25" y="-134" font-family="Consolas" font-size="10.00">CrewRace raceType</text>
<text text-anchor="start" x="201" y="-119.5" font-family="Consolas" font-size="10.00">+</text>
<text text-anchor="start" x="210.25" y="-119.5" font-family="Consolas" font-size="10.00">GameObject raceTooltipPrefab</text>
<text text-anchor="start" x="201" y="-105" font-family="Consolas" font-size="10.00">+</text>
<text text-anchor="start" x="210.25" y="-105" font-family="Consolas" font-size="10.00">Color highlightColor</text>
<text text-anchor="start" x="201" y="-90.5" font-family="Consolas" font-size="10.00">+</text>
<text text-anchor="start" x="210.25" y="-90.5" font-family="Consolas" font-size="10.00">void OnPointerEnter</text>
<text text-anchor="start" x="210.25" y="-80" font-family="Consolas" font-size="10.00">(PointerEventData eventData)</text>
<text text-anchor="start" x="201" y="-65.5" font-family="Consolas" font-size="10.00">+</text>
<text text-anchor="start" x="210.25" y="-65.5" font-family="Consolas" font-size="10.00">void OnPointerExit</text>
<text text-anchor="start" x="210.25" y="-55" font-family="Consolas" font-size="10.00">(PointerEventData eventData)</text>
<text text-anchor="start" x="201" y="-40.5" font-family="Consolas" font-size="10.00">+</text>
<text text-anchor="start" x="210.25" y="-40.5" font-family="Consolas" font-size="10.00">void OnPointerClick</text>
<text text-anchor="start" x="210.25" y="-30" font-family="Consolas" font-size="10.00">(PointerEventData eventData)</text>
<text text-anchor="start" x="201" y="-15.5" font-family="Consolas" font-size="10.00">+</text>
<text text-anchor="start" x="210.25" y="-15.5" font-family="Consolas" font-size="10.00">void SetHighlighted</text>
<text text-anchor="start" x="210.25" y="-5" font-family="Consolas" font-size="10.00">(bool highlighted)</text>
<polygon fill="#666666" stroke="#666666" points="197,-145.5 197,-145.5 361.25,-145.5 361.25,-145.5 197,-145.5"/>
<polygon fill="#666666" stroke="#666666" points="197,-102 197,-102 208.25,-102 208.25,-102 197,-102"/>
<polygon fill="#666666" stroke="#666666" points="208.25,-102 208.25,-102 361.25,-102 361.25,-102 208.25,-102"/>
<polygon fill="none" stroke="#666666" points="197,0 197,-162 361.25,-162 361.25,0 197,0"/>
</a>
</g>
</g>
<!-- Node2 -->
<g id="Node000002" class="node">
<title>Node2</title>
<g id="a_Node000002"><a xlink:title=" ">
<polygon fill="white" stroke="none" points="76.25,-262.75 0,-262.75 0,-215.25 76.25,-215.25 76.25,-262.75"/>
<text text-anchor="start" x="4" y="-249.25" font-family="Consolas" font-size="10.00">MonoBehaviour</text>
<text text-anchor="start" x="35.5" y="-234.75" font-family="Consolas" font-size="10.00"> </text>
<text text-anchor="start" x="35.5" y="-220.25" font-family="Consolas" font-size="10.00"> </text>
<polygon fill="#bfbfbf" stroke="#bfbfbf" points="0,-246.25 0,-246.25 76.25,-246.25 76.25,-246.25 0,-246.25"/>
<polygon fill="#bfbfbf" stroke="#bfbfbf" points="0,-231.75 0,-231.75 76.25,-231.75 76.25,-231.75 0,-231.75"/>
<polygon fill="none" stroke="#bfbfbf" points="0,-215.25 0,-262.75 76.25,-262.75 76.25,-215.25 0,-215.25"/>
</a>
</g>
</g>
<!-- Node2&#45;&gt;Node1 -->
<g id="edge1_Node000001_Node000002" class="edge">
<title>Node2&#45;&gt;Node1</title>
<g id="a_edge1_Node000001_Node000002"><a xlink:title=" ">
<path fill="none" stroke="#63b8ff" d="M82.7,-209.15C114.73,-188.41 158.84,-159.86 197.14,-135.07"/>
<polygon fill="none" stroke="#63b8ff" points="80.93,-206.12 74.44,-214.49 84.74,-212 80.93,-206.12"/>
</a>
</g>
</g>
<!-- Node3 -->
<g id="Node000003" class="node">
<title>Node3</title>
<g id="a_Node000003"><a xlink:title=" ">
<polygon fill="white" stroke="none" points="207.62,-262.75 94.62,-262.75 94.62,-215.25 207.62,-215.25 207.62,-262.75"/>
<text text-anchor="start" x="98.62" y="-249.25" font-family="Consolas" font-size="10.00">IPointerEnterHandler</text>
<text text-anchor="start" x="148.5" y="-234.75" font-family="Consolas" font-size="10.00"> </text>
<text text-anchor="start" x="148.5" y="-220.25" font-family="Consolas" font-size="10.00"> </text>
<polygon fill="#bfbfbf" stroke="#bfbfbf" points="94.62,-246.25 94.62,-246.25 207.62,-246.25 207.62,-246.25 94.62,-246.25"/>
<polygon fill="#bfbfbf" stroke="#bfbfbf" points="94.62,-231.75 94.62,-231.75 207.62,-231.75 207.62,-231.75 94.62,-231.75"/>
<polygon fill="none" stroke="#bfbfbf" points="94.62,-215.25 94.62,-262.75 207.62,-262.75 207.62,-215.25 94.62,-215.25"/>
</a>
</g>
</g>
<!-- Node3&#45;&gt;Node1 -->
<g id="edge2_Node000001_Node000003" class="edge">
<title>Node3&#45;&gt;Node1</title>
<g id="a_edge2_Node000001_Node000003"><a xlink:title=" ">
<path fill="none" stroke="#63b8ff" d="M176.79,-206.72C187.54,-193.62 200.57,-177.74 213.69,-161.75"/>
<polygon fill="none" stroke="#63b8ff" points="174.33,-204.2 170.7,-214.15 179.75,-208.64 174.33,-204.2"/>
</a>
</g>
</g>
<!-- Node4 -->
<g id="Node000004" class="node">
<title>Node4</title>
<g id="a_Node000004"><a xlink:title=" ">
<polygon fill="white" stroke="none" points="333,-262.75 225.25,-262.75 225.25,-215.25 333,-215.25 333,-262.75"/>
<text text-anchor="start" x="229.25" y="-249.25" font-family="Consolas" font-size="10.00">IPointerExitHandler</text>
<text text-anchor="start" x="276.5" y="-234.75" font-family="Consolas" font-size="10.00"> </text>
<text text-anchor="start" x="276.5" y="-220.25" font-family="Consolas" font-size="10.00"> </text>
<polygon fill="#bfbfbf" stroke="#bfbfbf" points="225.25,-246.25 225.25,-246.25 333,-246.25 333,-246.25 225.25,-246.25"/>
<polygon fill="#bfbfbf" stroke="#bfbfbf" points="225.25,-231.75 225.25,-231.75 333,-231.75 333,-231.75 225.25,-231.75"/>
<polygon fill="none" stroke="#bfbfbf" points="225.25,-215.25 225.25,-262.75 333,-262.75 333,-215.25 225.25,-215.25"/>
</a>
</g>
</g>
<!-- Node4&#45;&gt;Node1 -->
<g id="edge3_Node000001_Node000004" class="edge">
<title>Node4&#45;&gt;Node1</title>
<g id="a_edge3_Node000001_Node000004"><a xlink:title=" ">
<path fill="none" stroke="#63b8ff" d="M279.12,-204.04C279.12,-191.49 279.12,-176.66 279.12,-161.75"/>
<polygon fill="none" stroke="#63b8ff" points="275.63,-203.8 279.13,-213.8 282.63,-203.8 275.63,-203.8"/>
</a>
</g>
</g>
<!-- Node5 -->
<g id="Node000005" class="node">
<title>Node5</title>
<g id="a_Node000005"><a xlink:title=" ">
<polygon fill="white" stroke="none" points="463.62,-262.75 350.62,-262.75 350.62,-215.25 463.62,-215.25 463.62,-262.75"/>
<text text-anchor="start" x="354.62" y="-249.25" font-family="Consolas" font-size="10.00">IPointerClickHandler</text>
<text text-anchor="start" x="404.5" y="-234.75" font-family="Consolas" font-size="10.00"> </text>
<text text-anchor="start" x="404.5" y="-220.25" font-family="Consolas" font-size="10.00"> </text>
<polygon fill="#bfbfbf" stroke="#bfbfbf" points="350.62,-246.25 350.62,-246.25 463.62,-246.25 463.62,-246.25 350.62,-246.25"/>
<polygon fill="#bfbfbf" stroke="#bfbfbf" points="350.62,-231.75 350.62,-231.75 463.62,-231.75 463.62,-231.75 350.62,-231.75"/>
<polygon fill="none" stroke="#bfbfbf" points="350.62,-215.25 350.62,-262.75 463.62,-262.75 463.62,-215.25 350.62,-215.25"/>
</a>
</g>
</g>
<!-- Node5&#45;&gt;Node1 -->
<g id="edge4_Node000001_Node000005" class="edge">
<title>Node5&#45;&gt;Node1</title>
<g id="a_edge4_Node000001_Node000005"><a xlink:title=" ">
<path fill="none" stroke="#63b8ff" d="M381.46,-206.72C370.71,-193.62 357.68,-177.74 344.56,-161.75"/>
<polygon fill="none" stroke="#63b8ff" points="378.5,-208.64 387.55,-214.15 383.92,-204.2 378.5,-208.64"/>
</a>
</g>
</g>
<!-- Node6 -->
<g id="Node000006" class="node">
<title>Node6</title>
<g id="a_Node000006"><a xlink:href="class_crew_race_stat.html" target="_top" xlink:title=" ">
<polygon fill="white" stroke="none" points="608.88,-268 481.38,-268 481.38,-210 608.88,-210 608.88,-268"/>
<text text-anchor="start" x="513.62" y="-254.5" font-family="Consolas" font-size="10.00">CrewRaceStat</text>
<text text-anchor="start" x="485.38" y="-240" font-family="Consolas" font-size="10.00">+</text>
<text text-anchor="start" x="494.62" y="-240" font-family="Consolas" font-size="10.00">Dictionary&lt; CrewRace,</text>
<text text-anchor="start" x="494.62" y="-229.5" font-family="Consolas" font-size="10.00"> RaceStat &gt; ByRace</text>
<text text-anchor="start" x="542.5" y="-215" font-family="Consolas" font-size="10.00"> </text>
<polygon fill="#bfbfbf" stroke="#bfbfbf" points="481.38,-251.5 481.38,-251.5 608.88,-251.5 608.88,-251.5 481.38,-251.5"/>
<polygon fill="#bfbfbf" stroke="#bfbfbf" points="481.38,-226.5 481.38,-226.5 492.62,-226.5 492.62,-226.5 481.38,-226.5"/>
<polygon fill="#bfbfbf" stroke="#bfbfbf" points="492.62,-226.5 492.62,-226.5 608.88,-226.5 608.88,-226.5 492.62,-226.5"/>
<polygon fill="none" stroke="#bfbfbf" points="481.38,-210 481.38,-268 608.88,-268 608.88,-210 481.38,-210"/>
</a>
</g>
</g>
<!-- Node6&#45;&gt;Node1 -->
<g id="edge5_Node000001_Node000006" class="edge">
<title>Node6&#45;&gt;Node1</title>
<g id="a_edge5_Node000001_Node000006"><a xlink:title=" ">
<path fill="none" stroke="#63b8ff" d="M497.57,-210.11C462.86,-189.76 414.7,-161.51 372.42,-136.72"/>
<polygon fill="none" stroke="#63b8ff" points="372.37,-136.69 365.17,-137.1 362.02,-130.62 369.22,-130.2 372.37,-136.69"/>
</a>
</g>
<text text-anchor="middle" x="502.15" y="-182.5" font-family="Helvetica,sans-Serif" font-size="10.00" fill="grey"> +crewRaceStat</text>
</g>
<!-- Node7 -->
<g id="Node000007" class="node">
<title>Node7</title>
<g id="a_Node000007"><a xlink:title=" ">
<polygon fill="white" stroke="none" points="591.12,-352.5 499.12,-352.5 499.12,-305 591.12,-305 591.12,-352.5"/>
<text text-anchor="start" x="503.12" y="-339" font-family="Consolas" font-size="10.00">ScriptableObject</text>
<text text-anchor="start" x="542.5" y="-324.5" font-family="Consolas" font-size="10.00"> </text>
<text text-anchor="start" x="542.5" y="-310" font-family="Consolas" font-size="10.00"> </text>
<polygon fill="#bfbfbf" stroke="#bfbfbf" points="499.12,-336 499.12,-336 591.12,-336 591.12,-336 499.12,-336"/>
<polygon fill="#bfbfbf" stroke="#bfbfbf" points="499.12,-321.5 499.12,-321.5 591.12,-321.5 591.12,-321.5 499.12,-321.5"/>
<polygon fill="none" stroke="#bfbfbf" points="499.12,-305 499.12,-352.5 591.12,-352.5 591.12,-305 499.12,-305"/>
</a>
</g>
</g>
<!-- Node7&#45;&gt;Node6 -->
<g id="edge6_Node000006_Node000007" class="edge">
<title>Node7&#45;&gt;Node6</title>
<g id="a_edge6_Node000006_Node000007"><a xlink:title=" ">
<path fill="none" stroke="#63b8ff" d="M545.12,-293.88C545.12,-285.28 545.12,-276.13 545.12,-267.86"/>
<polygon fill="none" stroke="#63b8ff" points="541.63,-293.64 545.13,-303.64 548.63,-293.64 541.63,-293.64"/>
</a>
</g>
</g>
</g>
</svg>
