<?xml version="1.0" encoding="UTF-8" standalone="no"?>
<!DOCTYPE svg PUBLIC "-//W3C//DTD SVG 1.1//EN"
 "http://www.w3.org/Graphics/SVG/1.1/DTD/svg11.dtd">
<!-- Generated by graphviz version 12.2.1 (20241206.2353)
 -->
<!-- Title: ResourceManager.ResourceData Pages: 1 -->
<svg width="163pt" height="85pt"
 viewBox="0.00 0.00 163.00 84.50" xmlns="http://www.w3.org/2000/svg" xmlns:xlink="http://www.w3.org/1999/xlink">
<g id="graph0" class="graph" transform="scale(1 1) rotate(0) translate(4 80.5)">
<title>ResourceManager.ResourceData</title>
<!-- Node1 -->
<g id="Node000001" class="node">
<title>Node1</title>
<g id="a_Node000001"><a xlink:title=" ">
<polygon fill="#999999" stroke="none" points="155,-76.5 0,-76.5 0,0 155,0 155,-76.5"/>
<text text-anchor="start" x="4" y="-63" font-family="Consolas" font-size="10.00">ResourceManager.ResourceData</text>
<text text-anchor="start" x="16.12" y="-48.5" font-family="Consolas" font-size="10.00">+</text>
<text text-anchor="start" x="37.5" y="-48.5" font-family="Consolas" font-size="10.00">ResourceType type</text>
<text text-anchor="start" x="16.12" y="-34" font-family="Consolas" font-size="10.00">+</text>
<text text-anchor="start" x="37.5" y="-34" font-family="Consolas" font-size="10.00">float amount</text>
<text text-anchor="start" x="16.12" y="-19.5" font-family="Consolas" font-size="10.00">+</text>
<text text-anchor="start" x="37.5" y="-19.5" font-family="Consolas" font-size="10.00">float maxAmount</text>
<text text-anchor="start" x="74.88" y="-5" font-family="Consolas" font-size="10.00"> </text>
<polygon fill="#666666" stroke="#666666" points="0,-60 0,-60 155,-60 155,-60 0,-60"/>
<polygon fill="#666666" stroke="#666666" points="0,-16.5 0,-16.5 35.5,-16.5 35.5,-16.5 0,-16.5"/>
<polygon fill="#666666" stroke="#666666" points="35.5,-16.5 35.5,-16.5 155,-16.5 155,-16.5 35.5,-16.5"/>
<polygon fill="none" stroke="#666666" points="0,0 0,-76.5 155,-76.5 155,0 0,0"/>
</a>
</g>
</g>
</g>
</svg>
