<?xml version="1.0" encoding="UTF-8" standalone="no"?>
<!DOCTYPE svg PUBLIC "-//W3C//DTD SVG 1.1//EN"
 "http://www.w3.org/Graphics/SVG/1.1/DTD/svg11.dtd">
<!-- Generated by graphviz version 12.2.1 (20241206.2353)
 -->
<!-- Title: Room.UpdateRoom Pages: 1 -->
<svg width="229pt" height="66pt"
 viewBox="0.00 0.00 229.00 66.00" xmlns="http://www.w3.org/2000/svg" xmlns:xlink="http://www.w3.org/1999/xlink">
<g id="graph0" class="graph" transform="scale(1 1) rotate(0) translate(4 62)">
<title>Room.UpdateRoom</title>
<!-- Node1 -->
<g id="Node000001" class="node">
<title>Node1</title>
<g id="a_Node000001"><a xlink:title="방의 상태를 매 프레임 업데이트합니다.">
<polygon fill="#999999" stroke="#666666" points="221,-39 118,-39 118,-19 221,-19 221,-39"/>
<text text-anchor="middle" x="169.5" y="-25.5" font-family="Helvetica,sans-Serif" font-size="10.00">Room.UpdateRoom</text>
</a>
</g>
</g>
<!-- Node2 -->
<g id="Node000002" class="node">
<title>Node2</title>
<g id="a_Node000002"><a xlink:href="class_room.html#acb5d9a496450f8b76c2e44ebfd607a44" target="_top" xlink:title="매 프레임마다 방의 상태를 업데이트합니다.">
<polygon fill="white" stroke="#666666" points="79.38,-58 2.62,-58 2.62,-38 79.38,-38 79.38,-58"/>
<text text-anchor="middle" x="41" y="-44.5" font-family="Helvetica,sans-Serif" font-size="10.00">Room.Update</text>
</a>
</g>
</g>
<!-- Node1&#45;&gt;Node2 -->
<g id="edge1_Node000001_Node000002" class="edge">
<title>Node1&#45;&gt;Node2</title>
<g id="a_edge1_Node000001_Node000002"><a xlink:title=" ">
<path fill="none" stroke="#63b8ff" d="M106.56,-38.3C97.31,-39.69 88.03,-41.09 79.49,-42.37"/>
<polygon fill="#63b8ff" stroke="#63b8ff" points="106.91,-41.79 116.28,-36.84 105.87,-34.87 106.91,-41.79"/>
</a>
</g>
</g>
<!-- Node3 -->
<g id="Node000003" class="node">
<title>Node3</title>
<g id="a_Node000003"><a xlink:href="class_room.html#ac65f4adc7c29c1c951144f60c8ecc16a" target="_top" xlink:title="방을 업그레이드합니다.">
<polygon fill="white" stroke="#666666" points="82,-20 0,-20 0,0 82,0 82,-20"/>
<text text-anchor="middle" x="41" y="-6.5" font-family="Helvetica,sans-Serif" font-size="10.00">Room.Upgrade</text>
</a>
</g>
</g>
<!-- Node1&#45;&gt;Node3 -->
<g id="edge2_Node000001_Node000003" class="edge">
<title>Node1&#45;&gt;Node3</title>
<g id="a_edge2_Node000001_Node000003"><a xlink:title=" ">
<path fill="none" stroke="#63b8ff" d="M106.57,-19.7C98.3,-18.46 89.99,-17.21 82.23,-16.04"/>
<polygon fill="#63b8ff" stroke="#63b8ff" points="105.87,-23.13 116.28,-21.16 106.91,-16.21 105.87,-23.13"/>
</a>
</g>
</g>
</g>
</svg>
