<?xml version="1.0" encoding="UTF-8" standalone="no"?>
<!DOCTYPE svg PUBLIC "-//W3C//DTD SVG 1.1//EN"
 "http://www.w3.org/Graphics/SVG/1.1/DTD/svg11.dtd">
<!-- Generated by graphviz version 12.2.1 (20241206.2353)
 -->
<!-- Title: ShipCustomizationUI Pages: 1 -->
<svg width="343pt" height="634pt"
 viewBox="0.00 0.00 343.38 634.00" xmlns="http://www.w3.org/2000/svg" xmlns:xlink="http://www.w3.org/1999/xlink">
<g id="graph0" class="graph" transform="scale(1 1) rotate(0) translate(4 630)">
<title>ShipCustomizationUI</title>
<!-- Node1 -->
<g id="Node000001" class="node">
<title>Node1</title>
<g id="a_Node000001"><a xlink:title=" ">
<polygon fill="#999999" stroke="none" points="162.13,-134.5 3.13,-134.5 3.13,0 162.13,0 162.13,-134.5"/>
<text text-anchor="start" x="32.76" y="-121" font-family="Consolas" font-size="10.00">ShipCustomizationUI</text>
<text text-anchor="start" x="7.13" y="-106.5" font-family="Consolas" font-size="10.00">+</text>
<text text-anchor="start" x="16.38" y="-106.5" font-family="Consolas" font-size="10.00">Text currencyText</text>
<text text-anchor="start" x="7.13" y="-92" font-family="Consolas" font-size="10.00">+</text>
<text text-anchor="start" x="16.38" y="-92" font-family="Consolas" font-size="10.00">Button corridorButton</text>
<text text-anchor="start" x="7.13" y="-77.5" font-family="Consolas" font-size="10.00">+</text>
<text text-anchor="start" x="16.38" y="-77.5" font-family="Consolas" font-size="10.00">Button doorButton</text>
<text text-anchor="start" x="7.13" y="-63" font-family="Consolas" font-size="10.00">+</text>
<text text-anchor="start" x="16.38" y="-63" font-family="Consolas" font-size="10.00">Button placeModuleButton</text>
<text text-anchor="start" x="7.13" y="-48.5" font-family="Consolas" font-size="10.00">+</text>
<text text-anchor="start" x="16.38" y="-48.5" font-family="Consolas" font-size="10.00">Button clearModulesButton</text>
<text text-anchor="start" x="7.13" y="-34" font-family="Consolas" font-size="10.00">+</text>
<text text-anchor="start" x="16.38" y="-34" font-family="Consolas" font-size="10.00">Button validateLayoutButton</text>
<text text-anchor="start" x="7.13" y="-19.5" font-family="Consolas" font-size="10.00">+</text>
<text text-anchor="start" x="16.38" y="-19.5" font-family="Consolas" font-size="10.00">Text feedbackText</text>
<text text-anchor="start" x="80.01" y="-5" font-family="Consolas" font-size="10.00"> </text>
<polygon fill="#666666" stroke="#666666" points="3.13,-118 3.13,-118 162.13,-118 162.13,-118 3.13,-118"/>
<polygon fill="#666666" stroke="#666666" points="3.13,-16.5 3.13,-16.5 14.38,-16.5 14.38,-16.5 3.13,-16.5"/>
<polygon fill="#666666" stroke="#666666" points="14.38,-16.5 14.38,-16.5 162.13,-16.5 162.13,-16.5 14.38,-16.5"/>
<polygon fill="none" stroke="#666666" points="3.13,0 3.13,-134.5 162.13,-134.5 162.13,0 3.13,0"/>
</a>
</g>
</g>
<!-- Node2 -->
<g id="Node000002" class="node">
<title>Node2</title>
<g id="a_Node000002"><a xlink:title=" ">
<polygon fill="white" stroke="none" points="192.76,-626 116.51,-626 116.51,-578.5 192.76,-578.5 192.76,-626"/>
<text text-anchor="start" x="120.51" y="-612.5" font-family="Consolas" font-size="10.00">MonoBehaviour</text>
<text text-anchor="start" x="152.01" y="-598" font-family="Consolas" font-size="10.00"> </text>
<text text-anchor="start" x="152.01" y="-583.5" font-family="Consolas" font-size="10.00"> </text>
<polygon fill="#bfbfbf" stroke="#bfbfbf" points="116.51,-609.5 116.51,-609.5 192.76,-609.5 192.76,-609.5 116.51,-609.5"/>
<polygon fill="#bfbfbf" stroke="#bfbfbf" points="116.51,-595 116.51,-595 192.76,-595 192.76,-595 116.51,-595"/>
<polygon fill="none" stroke="#bfbfbf" points="116.51,-578.5 116.51,-626 192.76,-626 192.76,-578.5 116.51,-578.5"/>
</a>
</g>
</g>
<!-- Node2&#45;&gt;Node1 -->
<g id="edge1_Node000001_Node000002" class="edge">
<title>Node2&#45;&gt;Node1</title>
<g id="a_edge1_Node000001_Node000002"><a xlink:title=" ">
<path fill="none" stroke="#63b8ff" d="M106.07,-589.02C81.61,-580.14 54.13,-565.37 39.63,-541.5 -37.67,-414.22 15.41,-231.16 53.45,-134.25"/>
<polygon fill="none" stroke="#63b8ff" points="104.65,-592.24 115.24,-592.11 106.88,-585.6 104.65,-592.24"/>
</a>
</g>
</g>
<!-- Node3 -->
<g id="Node000003" class="node">
<title>Node3</title>
<g id="a_Node000003"><a xlink:href="class_ship_customization_manager.html" target="_top" xlink:title=" ">
<polygon fill="white" stroke="none" points="260.38,-541.5 48.88,-541.5 48.88,-278 260.38,-278 260.38,-541.5"/>
<text text-anchor="start" x="91.63" y="-528" font-family="Consolas" font-size="10.00">ShipCustomizationManager</text>
<text text-anchor="start" x="52.88" y="-513.5" font-family="Consolas" font-size="10.00">+</text>
<text text-anchor="start" x="62.13" y="-513.5" font-family="Consolas" font-size="10.00">float cellSize</text>
<text text-anchor="start" x="52.88" y="-499" font-family="Consolas" font-size="10.00">+</text>
<text text-anchor="start" x="62.13" y="-499" font-family="Consolas" font-size="10.00">Vector2 gridMin</text>
<text text-anchor="start" x="52.88" y="-484.5" font-family="Consolas" font-size="10.00">+</text>
<text text-anchor="start" x="62.13" y="-484.5" font-family="Consolas" font-size="10.00">Vector2 gridMax</text>
<text text-anchor="start" x="52.88" y="-470" font-family="Consolas" font-size="10.00">+</text>
<text text-anchor="start" x="62.13" y="-470" font-family="Consolas" font-size="10.00">GameObject corridorPrefab</text>
<text text-anchor="start" x="52.88" y="-455.5" font-family="Consolas" font-size="10.00">+</text>
<text text-anchor="start" x="62.13" y="-455.5" font-family="Consolas" font-size="10.00">GameObject doorPrefab</text>
<text text-anchor="start" x="52.88" y="-441" font-family="Consolas" font-size="10.00">+</text>
<text text-anchor="start" x="62.13" y="-441" font-family="Consolas" font-size="10.00">Transform modulesContainer</text>
<text text-anchor="start" x="52.88" y="-426.5" font-family="Consolas" font-size="10.00">+</text>
<text text-anchor="start" x="62.13" y="-426.5" font-family="Consolas" font-size="10.00">int currency</text>
<text text-anchor="start" x="52.88" y="-412" font-family="Consolas" font-size="10.00">+</text>
<text text-anchor="start" x="62.13" y="-412" font-family="Consolas" font-size="10.00">int corridorCost</text>
<text text-anchor="start" x="52.88" y="-397.5" font-family="Consolas" font-size="10.00">+</text>
<text text-anchor="start" x="62.13" y="-397.5" font-family="Consolas" font-size="10.00">int doorCost</text>
<text text-anchor="start" x="52.88" y="-383" font-family="Consolas" font-size="10.00">+</text>
<text text-anchor="start" x="62.13" y="-383" font-family="Consolas" font-size="10.00">Dictionary&lt; Vector2Int,</text>
<text text-anchor="start" x="62.13" y="-372.5" font-family="Consolas" font-size="10.00"> GameObject &gt; PlacedModules</text>
<text text-anchor="start" x="52.88" y="-358" font-family="Consolas" font-size="10.00">+</text>
<text text-anchor="start" x="62.13" y="-358" font-family="Consolas" font-size="10.00">bool PlaceModule(GameObject</text>
<text text-anchor="start" x="62.13" y="-347.5" font-family="Consolas" font-size="10.00"> modulePrefab, Vector2 worldPosition)</text>
<text text-anchor="start" x="52.88" y="-333" font-family="Consolas" font-size="10.00">+</text>
<text text-anchor="start" x="62.13" y="-333" font-family="Consolas" font-size="10.00">bool RemoveModule(Vector2</text>
<text text-anchor="start" x="62.13" y="-322.5" font-family="Consolas" font-size="10.00"> worldPosition)</text>
<text text-anchor="start" x="52.88" y="-308" font-family="Consolas" font-size="10.00">+</text>
<text text-anchor="start" x="62.13" y="-308" font-family="Consolas" font-size="10.00">void ClearAllModules()</text>
<text text-anchor="start" x="52.88" y="-293.5" font-family="Consolas" font-size="10.00">+</text>
<text text-anchor="start" x="62.13" y="-293.5" font-family="Consolas" font-size="10.00">void PlaceSavedRoom</text>
<text text-anchor="start" x="62.13" y="-283" font-family="Consolas" font-size="10.00">(Room savedRoom)</text>
<polygon fill="#bfbfbf" stroke="#bfbfbf" points="48.88,-525 48.88,-525 260.38,-525 260.38,-525 48.88,-525"/>
<polygon fill="#bfbfbf" stroke="#bfbfbf" points="48.88,-369.5 48.88,-369.5 60.13,-369.5 60.13,-369.5 48.88,-369.5"/>
<polygon fill="#bfbfbf" stroke="#bfbfbf" points="60.13,-369.5 60.13,-369.5 260.38,-369.5 260.38,-369.5 60.13,-369.5"/>
<polygon fill="none" stroke="#bfbfbf" points="48.88,-278 48.88,-541.5 260.38,-541.5 260.38,-278 48.88,-278"/>
</a>
</g>
</g>
<!-- Node2&#45;&gt;Node3 -->
<g id="edge3_Node000003_Node000002" class="edge">
<title>Node2&#45;&gt;Node3</title>
<g id="a_edge3_Node000003_Node000002"><a xlink:title=" ">
<path fill="none" stroke="#63b8ff" d="M154.63,-567.16C154.63,-559.31 154.63,-550.49 154.63,-541.15"/>
<polygon fill="none" stroke="#63b8ff" points="151.13,-567.14 154.63,-577.14 158.13,-567.14 151.13,-567.14"/>
</a>
</g>
</g>
<!-- Node4 -->
<g id="Node000004" class="node">
<title>Node4</title>
<g id="a_Node000004"><a xlink:href="class_ship_layout_validator.html" target="_top" xlink:title=" ">
<polygon fill="white" stroke="none" points="335.38,-230 207.88,-230 207.88,-182.5 335.38,-182.5 335.38,-230"/>
<text text-anchor="start" x="221.76" y="-216.5" font-family="Consolas" font-size="10.00">ShipLayoutValidator</text>
<text text-anchor="start" x="269.01" y="-202" font-family="Consolas" font-size="10.00"> </text>
<text text-anchor="start" x="211.88" y="-187.5" font-family="Consolas" font-size="10.00">+</text>
<text text-anchor="start" x="221.13" y="-187.5" font-family="Consolas" font-size="10.00">bool ValidateLayout()</text>
<polygon fill="#bfbfbf" stroke="#bfbfbf" points="207.88,-213.5 207.88,-213.5 335.38,-213.5 335.38,-213.5 207.88,-213.5"/>
<polygon fill="#bfbfbf" stroke="#bfbfbf" points="207.88,-199 207.88,-199 335.38,-199 335.38,-199 207.88,-199"/>
<polygon fill="none" stroke="#bfbfbf" points="207.88,-182.5 207.88,-230 335.38,-230 335.38,-182.5 207.88,-182.5"/>
</a>
</g>
</g>
<!-- Node2&#45;&gt;Node4 -->
<g id="edge5_Node000004_Node000002" class="edge">
<title>Node2&#45;&gt;Node4</title>
<g id="a_edge5_Node000004_Node000002"><a xlink:title=" ">
<path fill="none" stroke="#63b8ff" d="M203.61,-588.7C227.88,-579.77 255.04,-565.05 269.63,-541.5 332.29,-440.37 295.88,-286.87 278.89,-229.72"/>
<polygon fill="none" stroke="#63b8ff" points="202.5,-585.39 194.16,-591.93 204.75,-592.01 202.5,-585.39"/>
</a>
</g>
</g>
<!-- Node3&#45;&gt;Node1 -->
<g id="edge2_Node000001_Node000003" class="edge">
<title>Node3&#45;&gt;Node1</title>
<g id="a_edge2_Node000001_Node000003"><a xlink:title=" ">
<path fill="none" stroke="#63b8ff" d="M103.64,-278.17C98.81,-262.13 94.54,-245.82 91.38,-230 86.06,-203.34 83.51,-173.74 82.4,-147.24"/>
<polygon fill="none" stroke="#63b8ff" points="82.4,-147.39 78.2,-141.53 81.99,-135.4 86.19,-141.26 82.4,-147.39"/>
</a>
</g>
<text text-anchor="middle" x="145.01" y="-202.75" font-family="Helvetica,sans-Serif" font-size="10.00" fill="grey"> +customizationManager</text>
</g>
<!-- Node3&#45;&gt;Node4 -->
<g id="edge6_Node000004_Node000003" class="edge">
<title>Node3&#45;&gt;Node4</title>
<g id="a_edge6_Node000004_Node000003"><a xlink:title=" ">
<path fill="none" stroke="#63b8ff" d="M152.16,-278.15C155.68,-267.35 160.62,-257.1 167.38,-248 171.77,-242.09 182.7,-236.1 195.91,-230.61"/>
<polygon fill="none" stroke="#63b8ff" points="195.98,-230.58 200.12,-224.69 207.16,-226.25 203.02,-232.14 195.98,-230.58"/>
</a>
</g>
<text text-anchor="middle" x="221.01" y="-250.5" font-family="Helvetica,sans-Serif" font-size="10.00" fill="grey"> +customizationManager</text>
</g>
<!-- Node4&#45;&gt;Node1 -->
<g id="edge4_Node000001_Node000004" class="edge">
<title>Node4&#45;&gt;Node1</title>
<g id="a_edge4_Node000001_Node000004"><a xlink:title=" ">
<path fill="none" stroke="#63b8ff" d="M240.42,-182.63C221.71,-169.06 196.86,-151.05 172.44,-133.35"/>
<polygon fill="none" stroke="#63b8ff" points="172.46,-133.36 165.26,-133.08 162.75,-126.32 169.95,-126.6 172.46,-133.36"/>
</a>
</g>
<text text-anchor="middle" x="246.87" y="-155" font-family="Helvetica,sans-Serif" font-size="10.00" fill="grey"> +layoutValidator</text>
</g>
</g>
</svg>
