<?xml version="1.0" encoding="UTF-8" standalone="no"?>
<!DOCTYPE svg PUBLIC "-//W3C//DTD SVG 1.1//EN"
 "http://www.w3.org/Graphics/SVG/1.1/DTD/svg11.dtd">
<!-- Generated by graphviz version 12.2.1 (20241206.2353)
 -->
<!-- Title: ShipSystem.GetShipStat Pages: 1 -->
<!--zoomable 712 -->

<svg id="main" version="1.1" xmlns="http://www.w3.org/2000/svg" xmlns:xlink="http://www.w3.org/1999/xlink" xml:space="preserve" onload="init(evt)">

<style type="text/css"><![CDATA[
.node, .edge {opacity: 0.7;}
.node.selected, .edge.selected {opacity: 1;}
.edge:hover path { stroke: red; }
.edge:hover polygon { stroke: red; fill: red; }
]]></style>

<defs>
  <circle id="rim" cx="0" cy="0" r="7"/>
  <circle id="rim2" cx="0" cy="0" r="3.5"/>
  <g id="zoomPlus">
    <use xlink:href="#rim" fill="#404040"><set attributeName="fill" to="#808080" begin="zoomplus.mouseover" end="zoomplus.mouseout"/></use>
    <path d="M-4,0h8M0,-4v8" fill="none" stroke="white" stroke-width="1.5" pointer-events="none"/>
  </g>
  <g id="zoomMin">
    <use xlink:href="#rim" fill="#404040"><set attributeName="fill" to="#808080" begin="zoomminus.mouseover" end="zoomminus.mouseout"/></use>
    <path d="M-4,0h8" fill="none" stroke="white" stroke-width="1.5" pointer-events="none"/>
  </g>
  <g id="arrowUp" transform="translate(30 24)">
    <use xlink:href="#rim"/>
    <path pointer-events="none" fill="none" stroke="white" stroke-width="1.5" d="M0,-3.0v7 M-2.5,-0.5L0,-3.0L2.5,-0.5"/>
  </g>
  <g id="arrowRight" transform="rotate(90) translate(36 -43)">
    <use xlink:href="#rim"/>
    <path pointer-events="none" fill="none" stroke="white" stroke-width="1.5" d="M0,-3.0v7 M-2.5,-0.5L0,-3.0L2.5,-0.5"/>
  </g>
  <g id="arrowDown" transform="rotate(180) translate(-30 -48)">
    <use xlink:href="#rim"/>
    <path pointer-events="none" fill="none" stroke="white" stroke-width="1.5" d="M0,-3.0v7 M-2.5,-0.5L0,-3.0L2.5,-0.5"/>
  </g>
  <g id="arrowLeft" transform="rotate(270) translate(-36 17)">
    <use xlink:href="#rim"/>
    <path pointer-events="none" fill="none" stroke="white" stroke-width="1.5" d="M0,-3.0v7 M-2.5,-0.5L0,-3.0L2.5,-0.5"/>
  </g>
  <g id="resetDef">
    <use xlink:href="#rim2" fill="#404040"><set attributeName="fill" to="#808080" begin="reset.mouseover" end="reset.mouseout"/></use>
  </g>
</defs>
<script type="application/ecmascript">
var viewWidth = 903;
var viewHeight = 712;
var sectionId = 'dynsection-2';
</script>
<script type="application/ecmascript" xlink:href="svg.min.js"/>
<svg id="graph" class="graph">
<g id="viewport">
<title>ShipSystem.GetShipStat</title>
<!-- Node1 -->
<g id="Node000001" class="node">
<title>Node1</title>
<g id="a_Node000001"><a xlink:title="현재 함선의 특정 스탯 값을 가져옵니다.">
<ellipse fill="#999999" stroke="#666666" cx="802.94" cy="-321.61" rx="91.85" ry="17.61"/>
<text text-anchor="middle" x="802.94" y="-317.36" font-family="Consolas" font-size="10.00">ShipSystem.GetShipStat</text>
</a>
</g>
</g>
<!-- Node2 -->
<g id="Node000002" class="node">
<title>Node2</title>
<g id="a_Node000002"><a xlink:href="class_crew_system.html#ac905556b3519b6e4be328933edae06b7" target="_top" xlink:title="새로운 크루 멤버를 추가합니다.">
<ellipse fill="white" stroke="#666666" cx="553.54" cy="-686.61" rx="99.28" ry="17.61"/>
<text text-anchor="middle" x="553.54" y="-682.36" font-family="Consolas" font-size="10.00">CrewSystem.AddCrewMember</text>
</a>
</g>
</g>
<!-- Node1&#45;&gt;Node2 -->
<g id="edge1_Node000001_Node000002" class="edge">
<title>Node1&#45;&gt;Node2</title>
<g id="a_edge1_Node000001_Node000002"><a xlink:title=" ">
<path fill="none" stroke="#63b8ff" d="M800.01,-350.73C794.02,-416.48 769.91,-577.11 675.09,-659.61 665.46,-667.98 653.8,-673.92 641.57,-678.11"/>
<polygon fill="#63b8ff" stroke="#63b8ff" points="803.47,-351.36 800.81,-341.1 796.5,-350.78 803.47,-351.36"/>
</a>
</g>
</g>
<!-- Node3 -->
<g id="Node000003" class="node">
<title>Node3</title>
<g id="a_Node000003"><a xlink:href="class_oxygen_system.html#a9e7b971ccb3d4aedc8221e90bfd48a11" target="_top" xlink:title="현재 산소 변화량을 계산합니다. 산소 생성량에서 소비량을 뺀 값을 반환합니다.">
<ellipse fill="white" stroke="#666666" cx="553.54" cy="-625.61" rx="114.13" ry="25.03"/>
<text text-anchor="start" x="480.04" y="-626.61" font-family="Consolas" font-size="10.00">OxygenSystem.CalculateOxygen</text>
<text text-anchor="middle" x="553.54" y="-616.11" font-family="Consolas" font-size="10.00">Change</text>
</a>
</g>
</g>
<!-- Node1&#45;&gt;Node3 -->
<g id="edge2_Node000001_Node000003" class="edge">
<title>Node1&#45;&gt;Node3</title>
<g id="a_edge2_Node000001_Node000003"><a xlink:title=" ">
<path fill="none" stroke="#63b8ff" d="M796.59,-350.6C784.83,-405.94 751.46,-526.86 675.09,-591.61 665.97,-599.34 655.2,-605.32 643.92,-609.94"/>
<polygon fill="#63b8ff" stroke="#63b8ff" points="799.98,-351.5 798.54,-341.01 793.12,-350.11 799.98,-351.5"/>
</a>
</g>
</g>
<!-- Node5 -->
<g id="Node000005" class="node">
<title>Node5</title>
<g id="a_Node000005"><a xlink:href="class_hit_point_system.html#afc57249cf7099f1cc807759fe5d83f50" target="_top" xlink:title="체력을 변경합니다. 양수이면 회복, 음수이면 피해를 의미합니다. 최대 체력을 초과하지 않으며, 0 아래로 내려가지 않습니다.">
<ellipse fill="white" stroke="#666666" cx="553.54" cy="-557.61" rx="99.28" ry="25.03"/>
<text text-anchor="start" x="490.54" y="-558.61" font-family="Consolas" font-size="10.00">HitPointSystem.ChangeHit</text>
<text text-anchor="middle" x="553.54" y="-548.11" font-family="Consolas" font-size="10.00">Point</text>
</a>
</g>
</g>
<!-- Node1&#45;&gt;Node5 -->
<g id="edge4_Node000001_Node000005" class="edge">
<title>Node1&#45;&gt;Node5</title>
<g id="a_edge4_Node000001_Node000005"><a xlink:title=" ">
<path fill="none" stroke="#63b8ff" d="M791.83,-350.06C774.74,-394.01 735.94,-478.07 675.09,-523.61 663.6,-532.21 650.02,-538.63 636.2,-543.43"/>
<polygon fill="#63b8ff" stroke="#63b8ff" points="795.01,-351.56 795.27,-340.96 788.46,-349.08 795.01,-351.56"/>
</a>
</g>
</g>
<!-- Node8 -->
<g id="Node000008" class="node">
<title>Node8</title>
<g id="a_Node000008"><a xlink:href="class_weapon_system.html#a624ae04a45c9a1472b259d8b8ce4cfa0" target="_top" xlink:title="실제 적용될 쿨다운 시간을 계산합니다. 쿨다운 보너스를 고려하여 기본 쿨타임을 감소시킵니다.">
<ellipse fill="white" stroke="#666666" cx="553.54" cy="-496.61" rx="121.55" ry="17.61"/>
<text text-anchor="middle" x="553.54" y="-492.36" font-family="Consolas" font-size="10.00">WeaponSystem.GetActualCooldown</text>
</a>
</g>
</g>
<!-- Node1&#45;&gt;Node8 -->
<g id="edge7_Node000001_Node000008" class="edge">
<title>Node1&#45;&gt;Node8</title>
<g id="a_edge7_Node000001_Node000008"><a xlink:title=" ">
<path fill="none" stroke="#63b8ff" d="M786.53,-348.87C765.77,-382.94 725.56,-440.43 675.09,-470.61 665.35,-476.43 654.48,-480.96 643.36,-484.48"/>
<polygon fill="#63b8ff" stroke="#63b8ff" points="789.46,-350.79 791.56,-340.41 783.44,-347.21 789.46,-350.79"/>
</a>
</g>
</g>
<!-- Node10 -->
<g id="Node000010" class="node">
<title>Node10</title>
<g id="a_Node000010"><a xlink:href="class_weapon_system.html#a76fad11c0e7c6d587a635081322f4b4f" target="_top" xlink:title="실제 적용될 데미지를 계산합니다. 데미지 보너스를 적용하여 최종 데미지를 산출합니다.">
<ellipse fill="white" stroke="#666666" cx="553.54" cy="-443.61" rx="114.13" ry="17.61"/>
<text text-anchor="middle" x="553.54" y="-439.36" font-family="Consolas" font-size="10.00">WeaponSystem.GetActualDamage</text>
</a>
</g>
</g>
<!-- Node1&#45;&gt;Node10 -->
<g id="edge9_Node000001_Node000010" class="edge">
<title>Node1&#45;&gt;Node10</title>
<g id="a_edge9_Node000001_Node000010"><a xlink:title=" ">
<path fill="none" stroke="#63b8ff" d="M775.52,-346.74C751.26,-368.43 713.38,-398.98 675.09,-416.61 662.33,-422.48 648.21,-427.12 634.26,-430.77"/>
<polygon fill="#63b8ff" stroke="#63b8ff" points="777.66,-349.52 782.7,-340.2 772.95,-344.35 777.66,-349.52"/>
</a>
</g>
</g>
<!-- Node11 -->
<g id="Node000011" class="node">
<title>Node11</title>
<g id="a_Node000011"><a xlink:href="class_hit_point_system.html#abe2111690dc484e8a3e3a3d1ec129d52" target="_top" xlink:title="현재 체력의 퍼센트 값을 반환합니다. (0 ~ 100)">
<ellipse fill="white" stroke="#666666" cx="553.54" cy="-382.61" rx="106.7" ry="25.03"/>
<text text-anchor="start" x="485.29" y="-383.61" font-family="Consolas" font-size="10.00">HitPointSystem.GetHitPoint</text>
<text text-anchor="middle" x="553.54" y="-373.11" font-family="Consolas" font-size="10.00">Percentage</text>
</a>
</g>
</g>
<!-- Node1&#45;&gt;Node11 -->
<g id="edge10_Node000001_Node000011" class="edge">
<title>Node1&#45;&gt;Node11</title>
<g id="a_edge10_Node000001_Node000011"><a xlink:title=" ">
<path fill="none" stroke="#63b8ff" d="M734.02,-338.35C701.21,-346.44 661.77,-356.17 628.23,-364.44"/>
<polygon fill="#63b8ff" stroke="#63b8ff" points="734.53,-341.83 743.4,-336.04 732.86,-335.04 734.53,-341.83"/>
</a>
</g>
</g>
<!-- Node12 -->
<g id="Node000012" class="node">
<title>Node12</title>
<g id="a_Node000012"><a xlink:href="class_shield_system.html#a190cc0fb594748a735b546c52038bfb9" target="_top" xlink:title="쉴드의 최대 수치를 반환합니다.">
<ellipse fill="white" stroke="#666666" cx="553.54" cy="-321.61" rx="102.99" ry="17.61"/>
<text text-anchor="middle" x="553.54" y="-317.36" font-family="Consolas" font-size="10.00">ShieldSystem.GetMaxShield</text>
</a>
</g>
</g>
<!-- Node1&#45;&gt;Node12 -->
<g id="edge11_Node000001_Node000012" class="edge">
<title>Node1&#45;&gt;Node12</title>
<g id="a_edge11_Node000001_Node000012"><a xlink:title=" ">
<path fill="none" stroke="#63b8ff" d="M699.6,-321.61C685.42,-321.61 670.86,-321.61 656.69,-321.61"/>
<polygon fill="#63b8ff" stroke="#63b8ff" points="699.36,-325.11 709.36,-321.61 699.36,-318.11 699.36,-325.11"/>
</a>
</g>
</g>
<!-- Node13 -->
<g id="Node000013" class="node">
<title>Node13</title>
<g id="a_Node000013"><a xlink:href="class_hit_point_system.html#a1922a765f4716727a403ae198456c49a" target="_top" xlink:title="시스템을 초기화하고 최대 체력으로 설정합니다.">
<ellipse fill="white" stroke="#666666" cx="553.54" cy="-268.61" rx="102.99" ry="17.61"/>
<text text-anchor="middle" x="553.54" y="-264.36" font-family="Consolas" font-size="10.00">HitPointSystem.Initialize</text>
</a>
</g>
</g>
<!-- Node1&#45;&gt;Node13 -->
<g id="edge12_Node000001_Node000013" class="edge">
<title>Node1&#45;&gt;Node13</title>
<g id="a_edge12_Node000001_Node000013"><a xlink:title=" ">
<path fill="none" stroke="#63b8ff" d="M729.11,-306C694.35,-298.56 653.1,-289.72 619.43,-282.51"/>
<polygon fill="#63b8ff" stroke="#63b8ff" points="728.16,-309.38 738.67,-308.05 729.63,-302.54 728.16,-309.38"/>
</a>
</g>
</g>
<!-- Node14 -->
<g id="Node000014" class="node">
<title>Node14</title>
<g id="a_Node000014"><a xlink:href="class_shield_system.html#a76f58c76950f395e01789c54e35c00df" target="_top" xlink:title="시스템을 초기화하고 쉴드를 최대치로 설정합니다.">
<ellipse fill="white" stroke="#666666" cx="553.54" cy="-215.61" rx="95.57" ry="17.61"/>
<text text-anchor="middle" x="553.54" y="-211.36" font-family="Consolas" font-size="10.00">ShieldSystem.Initialize</text>
</a>
</g>
</g>
<!-- Node1&#45;&gt;Node14 -->
<g id="edge13_Node000001_Node000014" class="edge">
<title>Node1&#45;&gt;Node14</title>
<g id="a_edge13_Node000001_Node000014"><a xlink:title=" ">
<path fill="none" stroke="#63b8ff" d="M770.68,-297.49C745.99,-279.57 709.99,-255.85 675.09,-241.61 660.13,-235.5 643.5,-230.73 627.5,-227.05"/>
<polygon fill="#63b8ff" stroke="#63b8ff" points="768.55,-300.27 778.67,-303.39 772.7,-294.64 768.55,-300.27"/>
</a>
</g>
</g>
<!-- Node15 -->
<g id="Node000015" class="node">
<title>Node15</title>
<g id="a_Node000015"><a xlink:href="class_outer_hull_system.html#a546cc38872f4b8e97bb31c84214e0d5d" target="_top" xlink:title="외부 선체의 피해 감소율을 적용하여 실질적인 피해량을 계산합니다.">
<ellipse fill="white" stroke="#666666" cx="281.86" cy="-169.61" rx="114.13" ry="17.61"/>
<text text-anchor="middle" x="281.86" y="-165.36" font-family="Consolas" font-size="10.00">OuterHullSystem.ReduceDamage</text>
</a>
</g>
</g>
<!-- Node1&#45;&gt;Node15 -->
<g id="edge14_Node000001_Node000015" class="edge">
<title>Node1&#45;&gt;Node15</title>
<g id="a_edge14_Node000001_Node000015"><a xlink:title=" ">
<path fill="none" stroke="#63b8ff" d="M785.18,-294.09C764.01,-262.19 724.32,-211.11 675.09,-188.61 626.8,-166.54 492.09,-164.29 393.99,-165.91"/>
<polygon fill="#63b8ff" stroke="#63b8ff" points="782.21,-295.94 790.58,-302.45 788.09,-292.15 782.21,-295.94"/>
</a>
</g>
</g>
<!-- Node16 -->
<g id="Node000016" class="node">
<title>Node16</title>
<g id="a_Node000016"><a xlink:href="class_power_system.html#af311ccf5242a2eba89ba389034c7e60e" target="_top" xlink:title="특정 방에 전원을 공급하거나 차단합니다. 전원을 끄는 요청은 항상 성공하며, 전원을 켜는 경우엔 남은 전력을 확인합니다.">
<ellipse fill="white" stroke="#666666" cx="553.54" cy="-116.61" rx="99.28" ry="25.03"/>
<text text-anchor="start" x="490.54" y="-117.61" font-family="Consolas" font-size="10.00">PowerSystem.RequestPower</text>
<text text-anchor="middle" x="553.54" y="-107.11" font-family="Consolas" font-size="10.00">ForRoom</text>
</a>
</g>
</g>
<!-- Node1&#45;&gt;Node16 -->
<g id="edge16_Node000001_Node000016" class="edge">
<title>Node1&#45;&gt;Node16</title>
<g id="a_edge16_Node000001_Node000016"><a xlink:title=" ">
<path fill="none" stroke="#63b8ff" d="M787.68,-293.69C767.47,-256.86 727.11,-192.4 675.09,-155.61 661.53,-146.02 645.49,-138.69 629.6,-133.13"/>
<polygon fill="#63b8ff" stroke="#63b8ff" points="784.54,-295.25 792.35,-302.41 790.71,-291.94 784.54,-295.25"/>
</a>
</g>
</g>
<!-- Node17 -->
<g id="Node000017" class="node">
<title>Node17</title>
<g id="a_Node000017"><a xlink:href="class_shield_system.html#a50da4fedfbb95a2510abc2d1d7c5c0e2" target="_top" xlink:title="쉴드에 피해를 입히고, 남은 피해량을 반환합니다. 쉴드가 모두 소모되면 파괴 상태로 전환되며, 재활성화 타이머가 시작됩니다. 특정 무기 타입은 피해량 보정이 적용됩니다.">
<ellipse fill="white" stroke="#666666" cx="281.86" cy="-90.61" rx="95.57" ry="17.61"/>
<text text-anchor="middle" x="281.86" y="-86.36" font-family="Consolas" font-size="10.00">ShieldSystem.TakeDamage</text>
</a>
</g>
</g>
<!-- Node1&#45;&gt;Node17 -->
<g id="edge17_Node000001_Node000017" class="edge">
<title>Node1&#45;&gt;Node17</title>
<g id="a_edge17_Node000001_Node000017"><a xlink:title=" ">
<path fill="none" stroke="#63b8ff" d="M796.53,-292.58C784.93,-239.72 752.19,-128.97 675.09,-82.61 565.94,-16.97 406.97,-51.49 329.2,-74.87"/>
<polygon fill="#63b8ff" stroke="#63b8ff" points="793.03,-292.97 798.5,-302.04 799.89,-291.54 793.03,-292.97"/>
</a>
</g>
</g>
<!-- Node18 -->
<g id="Node000018" class="node">
<title>Node18</title>
<g id="a_Node000018"><a xlink:href="class_shield_system.html#a46cd008a11318d1b3a30744f325c0cdf" target="_top" xlink:title="매 프레임마다 호출되어 쉴드 상태를 갱신합니다. 파괴 상태일 경우 재활성화 타이머를 감소시키고, 파괴되지 않은 상태에서는 자동으로 쉴드를 재생성합니다.">
<ellipse fill="white" stroke="#666666" cx="553.54" cy="-17.61" rx="80.72" ry="17.61"/>
<text text-anchor="middle" x="553.54" y="-13.36" font-family="Consolas" font-size="10.00">ShieldSystem.Update</text>
</a>
</g>
</g>
<!-- Node1&#45;&gt;Node18 -->
<g id="edge19_Node000001_Node000018" class="edge">
<title>Node1&#45;&gt;Node18</title>
<g id="a_edge19_Node000001_Node000018"><a xlink:title=" ">
<path fill="none" stroke="#63b8ff" d="M796.83,-292.7C785.41,-236.96 752.52,-114.42 675.09,-49.61 661.14,-37.93 643.37,-30.47 625.78,-25.72"/>
<polygon fill="#63b8ff" stroke="#63b8ff" points="793.36,-293.21 798.71,-302.36 800.23,-291.87 793.36,-293.21"/>
</a>
</g>
</g>
<!-- Node4 -->
<g id="Node000004" class="node">
<title>Node4</title>
<g id="a_Node000004"><a xlink:href="class_oxygen_system.html#a82e6211ee26cf9357f35825709431420" target="_top" xlink:title="매 프레임마다 호출되어 산소 수치를 갱신합니다. 산소 생성량과 소비량을 계산하여 변화량을 적용합니다.">
<ellipse fill="white" stroke="#666666" cx="281.86" cy="-625.61" rx="80.72" ry="17.61"/>
<text text-anchor="middle" x="281.86" y="-621.36" font-family="Consolas" font-size="10.00">OxygenSystem.Update</text>
</a>
</g>
</g>
<!-- Node3&#45;&gt;Node4 -->
<g id="edge3_Node000003_Node000004" class="edge">
<title>Node3&#45;&gt;Node4</title>
<g id="a_edge3_Node000003_Node000004"><a xlink:title=" ">
<path fill="none" stroke="#63b8ff" d="M427.49,-625.61C405.47,-625.61 383.11,-625.61 362.76,-625.61"/>
<polygon fill="#63b8ff" stroke="#63b8ff" points="427.44,-629.11 437.44,-625.61 427.44,-622.11 427.44,-629.11"/>
</a>
</g>
</g>
<!-- Node6 -->
<g id="Node000006" class="node">
<title>Node6</title>
<g id="a_Node000006"><a xlink:href="class_ship.html#ac61b02cdac21a64fd326753ccb8ae96a" target="_top" xlink:title="함선에 직접 피해를 적용합니다. 체력을 감소시키고, 파괴되었는지 확인합니다.">
<ellipse fill="white" stroke="#666666" cx="281.86" cy="-553.61" rx="65.87" ry="17.61"/>
<text text-anchor="middle" x="281.86" y="-549.36" font-family="Consolas" font-size="10.00">Ship.TakeDamage</text>
</a>
</g>
</g>
<!-- Node5&#45;&gt;Node6 -->
<g id="edge5_Node000005_Node000006" class="edge">
<title>Node5&#45;&gt;Node6</title>
<g id="a_edge5_Node000005_Node000006"><a xlink:title=" ">
<path fill="none" stroke="#63b8ff" d="M442.74,-555.98C410.54,-555.5 376.36,-554.99 347.91,-554.57"/>
<polygon fill="#63b8ff" stroke="#63b8ff" points="442.47,-559.47 452.52,-556.12 442.57,-552.48 442.47,-559.47"/>
</a>
</g>
</g>
<!-- Node7 -->
<g id="Node000007" class="node">
<title>Node7</title>
<g id="a_Node000007"><a xlink:href="class_ship.html#a25d0e4e1201ebf27ff37a82f1eade78f" target="_top" xlink:title="무기 및 외부 방어 시스템을 포함한 실제 피해 계산 및 적용을 수행합니다.">
<ellipse fill="white" stroke="#666666" cx="65.87" cy="-169.61" rx="65.87" ry="17.61"/>
<text text-anchor="middle" x="65.87" y="-165.36" font-family="Consolas" font-size="10.00">Ship.TakeAttack</text>
</a>
</g>
</g>
<!-- Node6&#45;&gt;Node7 -->
<g id="edge6_Node000006_Node000007" class="edge">
<title>Node6&#45;&gt;Node7</title>
<g id="a_edge6_Node000006_Node000007"><a xlink:title=" ">
<path fill="none" stroke="#63b8ff" d="M207.39,-545.8C192.76,-541.25 178.58,-534.26 167.73,-523.61 70.15,-427.8 65.23,-244.8 66.24,-187.33"/>
<polygon fill="#63b8ff" stroke="#63b8ff" points="206.05,-549.07 216.61,-548.31 207.88,-542.31 206.05,-549.07"/>
</a>
</g>
</g>
<!-- Node9 -->
<g id="Node000009" class="node">
<title>Node9</title>
<g id="a_Node000009"><a xlink:href="class_weapon_system.html#a64079bfedade35f6d709125c2e037aa6" target="_top" xlink:title="지정한 인덱스의 무기를 대상에게 발사합니다. 무기가 준비된 상태일 경우에만 발사됩니다.">
<ellipse fill="white" stroke="#666666" cx="281.86" cy="-496.61" rx="95.57" ry="17.61"/>
<text text-anchor="middle" x="281.86" y="-492.36" font-family="Consolas" font-size="10.00">WeaponSystem.FireWeapon</text>
</a>
</g>
</g>
<!-- Node8&#45;&gt;Node9 -->
<g id="edge8_Node000008_Node000009" class="edge">
<title>Node8&#45;&gt;Node9</title>
<g id="a_edge8_Node000008_Node000009"><a xlink:title=" ">
<path fill="none" stroke="#63b8ff" d="M420.04,-496.61C405.72,-496.61 391.37,-496.61 377.63,-496.61"/>
<polygon fill="#63b8ff" stroke="#63b8ff" points="419.99,-500.11 429.99,-496.61 419.99,-493.11 419.99,-500.11"/>
</a>
</g>
</g>
<!-- Node15&#45;&gt;Node7 -->
<g id="edge15_Node000015_Node000007" class="edge">
<title>Node15&#45;&gt;Node7</title>
<g id="a_edge15_Node000015_Node000007"><a xlink:title=" ">
<path fill="none" stroke="#63b8ff" d="M155.8,-169.61C147.74,-169.61 139.81,-169.61 132.21,-169.61"/>
<polygon fill="#63b8ff" stroke="#63b8ff" points="155.77,-173.11 165.77,-169.61 155.77,-166.11 155.77,-173.11"/>
</a>
</g>
</g>
<!-- Node17&#45;&gt;Node7 -->
<g id="edge18_Node000017_Node000007" class="edge">
<title>Node17&#45;&gt;Node7</title>
<g id="a_edge18_Node000017_Node000007"><a xlink:title=" ">
<path fill="none" stroke="#63b8ff" d="M226.76,-110.58C189.06,-124.5 139.65,-142.74 105.79,-155.24"/>
<polygon fill="#63b8ff" stroke="#63b8ff" points="227.97,-113.86 236.14,-107.12 225.54,-107.3 227.97,-113.86"/>
</a>
</g>
</g>
</g>
</svg>

<g id="navigator" transform="translate(0 0)" fill="#404254">
  <rect fill="#f2f5e9" fill-opacity="0.5" stroke="#606060" stroke-width=".5" x="0" y="0" width="60" height="60"/>
  <use id="zoomplus" xlink:href="#zoomPlus" x="17" y="9" onmousedown="handleZoom(evt,'in')"/>
  <use id="zoomminus" xlink:href="#zoomMin" x="42" y="9" onmousedown="handleZoom(evt,'out')"/>
  <use id="reset" xlink:href="#resetDef" x="30" y="36" onmousedown="handleReset()"/>
   <use id="arrowup" xlink:href="#arrowUp" x="0" y="0" onmousedown="handlePan(0,-1)"/>
  <use id="arrowright" xlink:href="#arrowRight" x="0" y="0" onmousedown="handlePan(1,0)"/>
  <use id="arrowdown" xlink:href="#arrowDown" x="0" y="0" onmousedown="handlePan(0,1)"/>
  <use id="arrowleft" xlink:href="#arrowLeft" x="0" y="0" onmousedown="handlePan(-1,0)"/>
</g>
<svg viewBox="0 0 15 15" width="100%" height="30px" preserveAspectRatio="xMaxYMin meet">
 <g id="arrow_out" transform="scale(0.3 0.3)">
  <a xlink:href="class_ship_system_a0c4c206aa7e875dc6810ea122e46b332_icgraph_org.svg" target="_base">
   <rect id="button" ry="5" rx="5" y="6" x="6" height="38" width="38"
        fill="#f2f5e9" fill-opacity="0.5" stroke="#606060" stroke-width="1.0"/>
   <path id="arrow"
     d="M 11.500037,31.436501 C 11.940474,20.09759 22.043105,11.32322 32.158766,21.979434 L 37.068811,17.246167 C 37.068811,17.246167 37.088388,32 37.088388,32 L 22.160133,31.978069 C 22.160133,31.978069 26.997745,27.140456 26.997745,27.140456 C 18.528582,18.264221 13.291696,25.230495 11.500037,31.436501 z"
     style="fill:#404040;"/>
  </a>
 </g>
</svg>

<style type='text/css'>
<![CDATA[
[data-mouse-over-selected='false'] { opacity: 0.7; }
[data-mouse-over-selected='true']  { opacity: 1.0; }
]]>
</style>
<script type="application/ecmascript"><![CDATA[
document.addEventListener('DOMContentLoaded', (event) => {
  highlightEdges();
  highlightAdjacentNodes();
});
]]></script>
</svg>
