<?xml version="1.0" encoding="UTF-8" standalone="no"?>
<!DOCTYPE svg PUBLIC "-//W3C//DTD SVG 1.1//EN"
 "http://www.w3.org/Graphics/SVG/1.1/DTD/svg11.dtd">
<!-- Generated by graphviz version 12.2.1 (20241206.2353)
 -->
<!-- Title: OxygenSystem Pages: 1 -->
<svg width="141pt" height="260pt"
 viewBox="0.00 0.00 140.75 260.00" xmlns="http://www.w3.org/2000/svg" xmlns:xlink="http://www.w3.org/1999/xlink">

<svg id="main" version="1.1" xmlns="http://www.w3.org/2000/svg" xmlns:xlink="http://www.w3.org/1999/xlink" xml:space="preserve">

<style type="text/css"><![CDATA[
.node, .edge {opacity: 0.7;}
.node.selected, .edge.selected {opacity: 1;}
.edge:hover path { stroke: red; }
.edge:hover polygon { stroke: red; fill: red; }
]]></style>
<script type="application/ecmascript" xlink:href="svg.min.js"/>
<svg id="graph" class="graph">
<g id="graph0" class="graph" transform="scale(1 1) rotate(0) translate(4 256)">
<title>OxygenSystem</title>
<!-- Node1 -->
<g id="Node000001" class="node">
<title>Node1</title>
<g id="a_Node000001"><a xlink:title="함선의 산소 수치를 관리하는 시스템. 산소 생성량과 소비량을 바탕으로 현재 산소 수치를 계산합니다.">
<polygon fill="#999999" stroke="none" points="132.75,-132 0,-132 0,0 132.75,0 132.75,-132"/>
<text text-anchor="start" x="32.62" y="-118.5" font-family="Helvetica,sans-Serif" font-size="10.00">OxygenSystem</text>
<text text-anchor="start" x="4" y="-102.5" font-family="Helvetica,sans-Serif" font-size="10.00">+</text>
<text text-anchor="start" x="14" y="-102.5" font-family="Helvetica,sans-Serif" font-size="10.00">currentOxygenRate</text>
<text text-anchor="start" x="4" y="-86.5" font-family="Helvetica,sans-Serif" font-size="10.00">+</text>
<text text-anchor="start" x="14" y="-86.5" font-family="Helvetica,sans-Serif" font-size="10.00">currentOxygenLevel</text>
<text text-anchor="start" x="4" y="-70.5" font-family="Helvetica,sans-Serif" font-size="10.00">+</text>
<text text-anchor="start" x="14" y="-70.5" font-family="Helvetica,sans-Serif" font-size="10.00">Initialize()</text>
<text text-anchor="start" x="4" y="-54.5" font-family="Helvetica,sans-Serif" font-size="10.00">+</text>
<text text-anchor="start" x="14" y="-54.5" font-family="Helvetica,sans-Serif" font-size="10.00">Update()</text>
<text text-anchor="start" x="4" y="-38.5" font-family="Helvetica,sans-Serif" font-size="10.00">+</text>
<text text-anchor="start" x="14" y="-38.5" font-family="Helvetica,sans-Serif" font-size="10.00">CalculateOxygenChange()</text>
<text text-anchor="start" x="4" y="-22.5" font-family="Helvetica,sans-Serif" font-size="10.00">+</text>
<text text-anchor="start" x="14" y="-22.5" font-family="Helvetica,sans-Serif" font-size="10.00">GetOxygenRate()</text>
<text text-anchor="start" x="4" y="-6.5" font-family="Helvetica,sans-Serif" font-size="10.00">+</text>
<text text-anchor="start" x="14" y="-6.5" font-family="Helvetica,sans-Serif" font-size="10.00">GetOxygenLevel()</text>
<polygon fill="#666666" stroke="#666666" points="0,-114 0,-114 132.75,-114 132.75,-114 0,-114"/>
<polygon fill="#666666" stroke="#666666" points="0,-82 0,-82 12,-82 12,-82 0,-82"/>
<polygon fill="#666666" stroke="#666666" points="12,-82 12,-82 132.75,-82 132.75,-82 12,-82"/>
<polygon fill="none" stroke="#666666" points="0,0 0,-132 132.75,-132 132.75,0 0,0"/>
</a>
</g>
</g>
<!-- Node2 -->
<g id="Node000002" class="node">
<title>Node2</title>
<g id="a_Node000002"><a xlink:href="class_ship_system.html" target="_top" xlink:title="모든 함선 시스템의 추상 기반 클래스. 각 시스템은 함선 객체를 기반으로 동작하며, 공통적인 초기화 및 스탯 조회 기능을 제공합니다.">
<polygon fill="white" stroke="none" points="105,-252 27.75,-252 27.75,-168 105,-168 105,-252"/>
<text text-anchor="start" x="39.75" y="-238.5" font-family="Helvetica,sans-Serif" font-size="10.00">ShipSystem</text>
<text text-anchor="start" x="32.12" y="-222.5" font-family="Helvetica,sans-Serif" font-size="10.00">#</text>
<text text-anchor="start" x="41.75" y="-222.5" font-family="Helvetica,sans-Serif" font-size="10.00">parentShip</text>
<text text-anchor="start" x="31.75" y="-206.5" font-family="Helvetica,sans-Serif" font-size="10.00">+</text>
<text text-anchor="start" x="41.75" y="-206.5" font-family="Helvetica,sans-Serif" font-size="10.00">Initialize()</text>
<text text-anchor="start" x="31.75" y="-190.5" font-family="Helvetica,sans-Serif" font-size="10.00">+</text>
<text text-anchor="start" x="41.75" y="-190.5" font-family="Helvetica,sans-Serif" font-size="10.00">Update()</text>
<text text-anchor="start" x="32.12" y="-174.5" font-family="Helvetica,sans-Serif" font-size="10.00">#</text>
<text text-anchor="start" x="41.75" y="-174.5" font-family="Helvetica,sans-Serif" font-size="10.00">GetShipStat()</text>
<polygon fill="#666666" stroke="#666666" points="27.75,-234 27.75,-234 105,-234 105,-234 27.75,-234"/>
<polygon fill="#666666" stroke="#666666" points="27.75,-218 27.75,-218 39.75,-218 39.75,-218 27.75,-218"/>
<polygon fill="#666666" stroke="#666666" points="39.75,-218 39.75,-218 105,-218 105,-218 39.75,-218"/>
<polygon fill="none" stroke="#666666" points="27.75,-168 27.75,-252 105,-252 105,-168 27.75,-168"/>
</a>
</g>
</g>
<!-- Node2&#45;&gt;Node1 -->
<g id="edge1_Node000001_Node000002" class="edge">
<title>Node2&#45;&gt;Node1</title>
<g id="a_edge1_Node000001_Node000002"><a xlink:title=" ">
<path fill="none" stroke="#63b8ff" d="M66.38,-157.02C66.38,-148.82 66.38,-140.27 66.38,-131.82"/>
<polygon fill="none" stroke="#63b8ff" points="62.88,-156.79 66.38,-166.79 69.88,-156.79 62.88,-156.79"/>
</a>
</g>
</g>
</g>
</svg>
</svg>

<style type='text/css'>
<![CDATA[
[data-mouse-over-selected='false'] { opacity: 0.7; }
[data-mouse-over-selected='true']  { opacity: 1.0; }
]]>
</style>
<script type="application/ecmascript"><![CDATA[
document.addEventListener('DOMContentLoaded', (event) => {
  highlightEdges();
  highlightAdjacentNodes();
});
]]></script>
</svg>
