<?xml version="1.0" encoding="UTF-8" standalone="no"?>
<!DOCTYPE svg PUBLIC "-//W3C//DTD SVG 1.1//EN"
 "http://www.w3.org/Graphics/SVG/1.1/DTD/svg11.dtd">
<!-- Generated by graphviz version 12.2.1 (20241206.2353)
 -->
<!-- Title: StorageRoomTemperature Pages: 1 -->
<!--zoomable 1180 -->

<svg id="main" version="1.1" xmlns="http://www.w3.org/2000/svg" xmlns:xlink="http://www.w3.org/1999/xlink" xml:space="preserve" onload="init(evt)">

<style type="text/css"><![CDATA[
.node, .edge {opacity: 0.7;}
.node.selected, .edge.selected {opacity: 1;}
.edge:hover path { stroke: red; }
.edge:hover polygon { stroke: red; fill: red; }
]]></style>

<defs>
  <circle id="rim" cx="0" cy="0" r="7"/>
  <circle id="rim2" cx="0" cy="0" r="3.5"/>
  <g id="zoomPlus">
    <use xlink:href="#rim" fill="#404040"><set attributeName="fill" to="#808080" begin="zoomplus.mouseover" end="zoomplus.mouseout"/></use>
    <path d="M-4,0h8M0,-4v8" fill="none" stroke="white" stroke-width="1.5" pointer-events="none"/>
  </g>
  <g id="zoomMin">
    <use xlink:href="#rim" fill="#404040"><set attributeName="fill" to="#808080" begin="zoomminus.mouseover" end="zoomminus.mouseout"/></use>
    <path d="M-4,0h8" fill="none" stroke="white" stroke-width="1.5" pointer-events="none"/>
  </g>
  <g id="arrowUp" transform="translate(30 24)">
    <use xlink:href="#rim"/>
    <path pointer-events="none" fill="none" stroke="white" stroke-width="1.5" d="M0,-3.0v7 M-2.5,-0.5L0,-3.0L2.5,-0.5"/>
  </g>
  <g id="arrowRight" transform="rotate(90) translate(36 -43)">
    <use xlink:href="#rim"/>
    <path pointer-events="none" fill="none" stroke="white" stroke-width="1.5" d="M0,-3.0v7 M-2.5,-0.5L0,-3.0L2.5,-0.5"/>
  </g>
  <g id="arrowDown" transform="rotate(180) translate(-30 -48)">
    <use xlink:href="#rim"/>
    <path pointer-events="none" fill="none" stroke="white" stroke-width="1.5" d="M0,-3.0v7 M-2.5,-0.5L0,-3.0L2.5,-0.5"/>
  </g>
  <g id="arrowLeft" transform="rotate(270) translate(-36 17)">
    <use xlink:href="#rim"/>
    <path pointer-events="none" fill="none" stroke="white" stroke-width="1.5" d="M0,-3.0v7 M-2.5,-0.5L0,-3.0L2.5,-0.5"/>
  </g>
  <g id="resetDef">
    <use xlink:href="#rim2" fill="#404040"><set attributeName="fill" to="#808080" begin="reset.mouseover" end="reset.mouseout"/></use>
  </g>
</defs>
<script type="application/ecmascript">
var viewWidth = 218;
var viewHeight = 1180;
var sectionId = 'dynsection-0';
</script>
<script type="application/ecmascript" xlink:href="svg.min.js"/>
<svg id="graph" class="graph">
<g id="viewport">
<title>StorageRoomTemperature</title>
<!-- Node1 -->
<g id="Node000001" class="node">
<title>Node1</title>
<g id="a_Node000001"><a xlink:title="온도 조절 창고(StorageType.Temperature)를 나타내는 클래스. 전력이 공급되면 냉장/냉동 보관 가능, 전력이 끊기면 일반 창고처럼 작동합니다.">
<polygon fill="#999999" stroke="none" points="155.75,-100 33.75,-100 33.75,0 155.75,0 155.75,-100"/>
<text text-anchor="start" x="37.75" y="-86.5" font-family="Helvetica,sans-Serif" font-size="10.00">StorageRoomTemperature</text>
<text text-anchor="start" x="93.25" y="-70.5" font-family="Helvetica,sans-Serif" font-size="10.00"> </text>
<text text-anchor="start" x="44.44" y="-54.5" font-family="Helvetica,sans-Serif" font-size="10.00">+</text>
<text text-anchor="start" x="61.12" y="-54.5" font-family="Helvetica,sans-Serif" font-size="10.00">CanStoreItem()</text>
<text text-anchor="start" x="44.44" y="-38.5" font-family="Helvetica,sans-Serif" font-size="10.00">+</text>
<text text-anchor="start" x="61.12" y="-38.5" font-family="Helvetica,sans-Serif" font-size="10.00">SetPowerStatus()</text>
<text text-anchor="start" x="44.81" y="-22.5" font-family="Helvetica,sans-Serif" font-size="10.00">#</text>
<text text-anchor="start" x="61.12" y="-22.5" font-family="Helvetica,sans-Serif" font-size="10.00">Start()</text>
<text text-anchor="start" x="44.81" y="-6.5" font-family="Helvetica,sans-Serif" font-size="10.00">#</text>
<text text-anchor="start" x="61.12" y="-6.5" font-family="Helvetica,sans-Serif" font-size="10.00">UpdateRoom()</text>
<polygon fill="#666666" stroke="#666666" points="33.75,-82 33.75,-82 155.75,-82 155.75,-82 33.75,-82"/>
<polygon fill="#666666" stroke="#666666" points="33.75,-66 33.75,-66 155.75,-66 155.75,-66 33.75,-66"/>
<polygon fill="none" stroke="#666666" points="33.75,0 33.75,-100 155.75,-100 155.75,0 33.75,0"/>
</a>
</g>
</g>
<!-- Node2 -->
<g id="Node000002" class="node">
<title>Node2</title>
<g id="a_Node000002"><a xlink:href="class_storage_room_base.html" target="_top" xlink:title="모든 창고 타입의 기본 클래스. 저장 가능한 아이템의 타입, 보관/제거/저하 로직 등을 공통으로 정의합니다.">
<polygon fill="white" stroke="none" points="155.12,-316 34.38,-316 34.38,-136 155.12,-136 155.12,-316"/>
<text text-anchor="start" x="53.5" y="-302.5" font-family="Helvetica,sans-Serif" font-size="10.00">StorageRoomBase</text>
<text text-anchor="start" x="38.75" y="-286.5" font-family="Helvetica,sans-Serif" font-size="10.00">#</text>
<text text-anchor="start" x="48.38" y="-286.5" font-family="Helvetica,sans-Serif" font-size="10.00">storageType</text>
<text text-anchor="start" x="38.75" y="-270.5" font-family="Helvetica,sans-Serif" font-size="10.00">#</text>
<text text-anchor="start" x="48.38" y="-270.5" font-family="Helvetica,sans-Serif" font-size="10.00">storedItems</text>
<text text-anchor="start" x="38.38" y="-254.5" font-family="Helvetica,sans-Serif" font-size="10.00">+</text>
<text text-anchor="start" x="48.38" y="-254.5" font-family="Helvetica,sans-Serif" font-size="10.00">GetStatContributions()</text>
<text text-anchor="start" x="38.38" y="-238.5" font-family="Helvetica,sans-Serif" font-size="10.00">+</text>
<text text-anchor="start" x="48.38" y="-238.5" font-family="Helvetica,sans-Serif" font-size="10.00">GetStorageType()</text>
<text text-anchor="start" x="38.38" y="-222.5" font-family="Helvetica,sans-Serif" font-size="10.00">+</text>
<text text-anchor="start" x="48.38" y="-222.5" font-family="Helvetica,sans-Serif" font-size="10.00">CanStoreItem()</text>
<text text-anchor="start" x="38.38" y="-206.5" font-family="Helvetica,sans-Serif" font-size="10.00">+</text>
<text text-anchor="start" x="48.38" y="-206.5" font-family="Helvetica,sans-Serif" font-size="10.00">AddItem()</text>
<text text-anchor="start" x="38.38" y="-190.5" font-family="Helvetica,sans-Serif" font-size="10.00">+</text>
<text text-anchor="start" x="48.38" y="-190.5" font-family="Helvetica,sans-Serif" font-size="10.00">RemoveItem()</text>
<text text-anchor="start" x="38.38" y="-174.5" font-family="Helvetica,sans-Serif" font-size="10.00">+</text>
<text text-anchor="start" x="48.38" y="-174.5" font-family="Helvetica,sans-Serif" font-size="10.00">CheckItemsAfterWarp()</text>
<text text-anchor="start" x="38.75" y="-158.5" font-family="Helvetica,sans-Serif" font-size="10.00">#</text>
<text text-anchor="start" x="48.38" y="-158.5" font-family="Helvetica,sans-Serif" font-size="10.00">Start()</text>
<text text-anchor="start" x="38.75" y="-142.5" font-family="Helvetica,sans-Serif" font-size="10.00">#</text>
<text text-anchor="start" x="48.38" y="-142.5" font-family="Helvetica,sans-Serif" font-size="10.00">DegradeItemState()</text>
<polygon fill="#666666" stroke="#666666" points="34.38,-298 34.38,-298 155.12,-298 155.12,-298 34.38,-298"/>
<polygon fill="#666666" stroke="#666666" points="34.38,-266 34.38,-266 46.38,-266 46.38,-266 34.38,-266"/>
<polygon fill="#666666" stroke="#666666" points="46.38,-266 46.38,-266 155.12,-266 155.12,-266 46.38,-266"/>
<polygon fill="none" stroke="#666666" points="34.38,-136 34.38,-316 155.12,-316 155.12,-136 34.38,-136"/>
</a>
</g>
</g>
<!-- Node2&#45;&gt;Node1 -->
<g id="edge1_Node000001_Node000002" class="edge">
<title>Node2&#45;&gt;Node1</title>
<g id="a_edge1_Node000001_Node000002"><a xlink:title=" ">
<path fill="none" stroke="#63b8ff" d="M94.75,-124.77C94.75,-116.12 94.75,-107.65 94.75,-99.71"/>
<polygon fill="none" stroke="#63b8ff" points="91.25,-124.7 94.75,-134.7 98.25,-124.7 91.25,-124.7"/>
</a>
</g>
</g>
<!-- Node3 -->
<g id="Node000003" class="node">
<title>Node3</title>
<g id="a_Node000003"><a xlink:href="class_room-2-g.html" target="_top" xlink:title="함선 내의 특화된 방 타입을 위한 제네릭 기본 클래스. RoomData 및 RoomLevel 타입에 따라 세부 동작과 데이터를 확장할 수 있도록 설계되었습니다.">
<polygon fill="white" stroke="none" points="157.75,-484 31.75,-484 31.75,-352 157.75,-352 157.75,-484"/>
<text text-anchor="start" x="42.25" y="-470.5" font-family="Helvetica,sans-Serif" font-size="10.00">Room&lt; TData, TLevel &gt;</text>
<text text-anchor="start" x="35.75" y="-454.5" font-family="Helvetica,sans-Serif" font-size="10.00">+</text>
<text text-anchor="start" x="45.75" y="-454.5" font-family="Helvetica,sans-Serif" font-size="10.00">roomData</text>
<text text-anchor="start" x="36.12" y="-438.5" font-family="Helvetica,sans-Serif" font-size="10.00">#</text>
<text text-anchor="start" x="45.75" y="-438.5" font-family="Helvetica,sans-Serif" font-size="10.00">currentRoomLevelData</text>
<text text-anchor="start" x="35.75" y="-422.5" font-family="Helvetica,sans-Serif" font-size="10.00">+</text>
<text text-anchor="start" x="45.75" y="-422.5" font-family="Helvetica,sans-Serif" font-size="10.00">GetCurrentLevelData()</text>
<text text-anchor="start" x="35.75" y="-406.5" font-family="Helvetica,sans-Serif" font-size="10.00">+</text>
<text text-anchor="start" x="45.75" y="-406.5" font-family="Helvetica,sans-Serif" font-size="10.00">Upgrade()</text>
<text text-anchor="start" x="35.75" y="-390.5" font-family="Helvetica,sans-Serif" font-size="10.00">+</text>
<text text-anchor="start" x="45.75" y="-390.5" font-family="Helvetica,sans-Serif" font-size="10.00">Initialize()</text>
<text text-anchor="start" x="36.12" y="-374.5" font-family="Helvetica,sans-Serif" font-size="10.00">#</text>
<text text-anchor="start" x="45.75" y="-374.5" font-family="Helvetica,sans-Serif" font-size="10.00">UpdateRoomLevelData()</text>
<text text-anchor="start" x="36.12" y="-358.5" font-family="Helvetica,sans-Serif" font-size="10.00">#</text>
<text text-anchor="start" x="45.75" y="-358.5" font-family="Helvetica,sans-Serif" font-size="10.00">Start()</text>
<polygon fill="#666666" stroke="#666666" points="31.75,-466 31.75,-466 157.75,-466 157.75,-466 31.75,-466"/>
<polygon fill="#666666" stroke="#666666" points="31.75,-434 31.75,-434 43.75,-434 43.75,-434 31.75,-434"/>
<polygon fill="#666666" stroke="#666666" points="43.75,-434 43.75,-434 157.75,-434 157.75,-434 43.75,-434"/>
<polygon fill="none" stroke="#666666" points="31.75,-352 31.75,-484 157.75,-484 157.75,-352 31.75,-352"/>
</a>
</g>
</g>
<!-- Node3&#45;&gt;Node2 -->
<g id="edge2_Node000002_Node000003" class="edge">
<title>Node3&#45;&gt;Node2</title>
<g id="a_edge2_Node000002_Node000003"><a xlink:title=" ">
<path fill="none" stroke="#63b8ff" d="M94.75,-340.7C94.75,-332.5 94.75,-324.1 94.75,-315.76"/>
<polygon fill="none" stroke="#63b8ff" points="91.25,-340.63 94.75,-350.63 98.25,-340.63 91.25,-340.63"/>
</a>
</g>
</g>
<!-- Node4 -->
<g id="Node000004" class="node">
<title>Node4</title>
<g id="a_Node000004"><a xlink:href="class_room.html" target="_top" xlink:title="함선 내의 모든 방의 기본 클래스. 방의 상태, 작동 여부, 산소 레벨, 데미지 처리 등을 관리합니다.">
<polygon fill="white" stroke="none" points="163,-1084 26.5,-1084 26.5,-520 163,-520 163,-1084"/>
<text text-anchor="start" x="81.62" y="-1070.5" font-family="Helvetica,sans-Serif" font-size="10.00">Room</text>
<text text-anchor="start" x="30.5" y="-1054.5" font-family="Helvetica,sans-Serif" font-size="10.00">+</text>
<text text-anchor="start" x="40.5" y="-1054.5" font-family="Helvetica,sans-Serif" font-size="10.00">roomData</text>
<text text-anchor="start" x="30.5" y="-1038.5" font-family="Helvetica,sans-Serif" font-size="10.00">+</text>
<text text-anchor="start" x="40.5" y="-1038.5" font-family="Helvetica,sans-Serif" font-size="10.00">position</text>
<text text-anchor="start" x="30.5" y="-1022.5" font-family="Helvetica,sans-Serif" font-size="10.00">+</text>
<text text-anchor="start" x="40.5" y="-1022.5" font-family="Helvetica,sans-Serif" font-size="10.00">currentLevel</text>
<text text-anchor="start" x="30.5" y="-1006.5" font-family="Helvetica,sans-Serif" font-size="10.00">+</text>
<text text-anchor="start" x="40.5" y="-1006.5" font-family="Helvetica,sans-Serif" font-size="10.00">roomType</text>
<text text-anchor="start" x="30.5" y="-990.5" font-family="Helvetica,sans-Serif" font-size="10.00">+</text>
<text text-anchor="start" x="40.5" y="-990.5" font-family="Helvetica,sans-Serif" font-size="10.00">crewInRoom</text>
<text text-anchor="start" x="30.5" y="-974.5" font-family="Helvetica,sans-Serif" font-size="10.00">+</text>
<text text-anchor="start" x="40.5" y="-974.5" font-family="Helvetica,sans-Serif" font-size="10.00">gridSize</text>
<text text-anchor="start" x="30.5" y="-958.5" font-family="Helvetica,sans-Serif" font-size="10.00">+</text>
<text text-anchor="start" x="40.5" y="-958.5" font-family="Helvetica,sans-Serif" font-size="10.00">isPlaced</text>
<text text-anchor="start" x="30.88" y="-942.5" font-family="Helvetica,sans-Serif" font-size="10.00">#</text>
<text text-anchor="start" x="40.5" y="-942.5" font-family="Helvetica,sans-Serif" font-size="10.00">currentHitPoints</text>
<text text-anchor="start" x="30.88" y="-926.5" font-family="Helvetica,sans-Serif" font-size="10.00">#</text>
<text text-anchor="start" x="40.5" y="-926.5" font-family="Helvetica,sans-Serif" font-size="10.00">adjacentRooms</text>
<text text-anchor="start" x="30.88" y="-910.5" font-family="Helvetica,sans-Serif" font-size="10.00">#</text>
<text text-anchor="start" x="40.5" y="-910.5" font-family="Helvetica,sans-Serif" font-size="10.00">connectedDoors</text>
<text text-anchor="start" x="30.88" y="-894.5" font-family="Helvetica,sans-Serif" font-size="10.00">#</text>
<text text-anchor="start" x="40.5" y="-894.5" font-family="Helvetica,sans-Serif" font-size="10.00">roomParticles</text>
<text text-anchor="start" x="30.88" y="-878.5" font-family="Helvetica,sans-Serif" font-size="10.00">#</text>
<text text-anchor="start" x="40.5" y="-878.5" font-family="Helvetica,sans-Serif" font-size="10.00">roomSound</text>
<text text-anchor="start" x="30.88" y="-862.5" font-family="Helvetica,sans-Serif" font-size="10.00">#</text>
<text text-anchor="start" x="40.5" y="-862.5" font-family="Helvetica,sans-Serif" font-size="10.00">fireExtinguishRatePerLevel</text>
<text text-anchor="start" x="30.88" y="-846.5" font-family="Helvetica,sans-Serif" font-size="10.00">#</text>
<text text-anchor="start" x="40.5" y="-846.5" font-family="Helvetica,sans-Serif" font-size="10.00">isActive</text>
<text text-anchor="start" x="30.88" y="-830.5" font-family="Helvetica,sans-Serif" font-size="10.00">#</text>
<text text-anchor="start" x="40.5" y="-830.5" font-family="Helvetica,sans-Serif" font-size="10.00">isPowered</text>
<text text-anchor="start" x="30.88" y="-814.5" font-family="Helvetica,sans-Serif" font-size="10.00">#</text>
<text text-anchor="start" x="40.5" y="-814.5" font-family="Helvetica,sans-Serif" font-size="10.00">isPowerRequested</text>
<text text-anchor="start" x="30.88" y="-798.5" font-family="Helvetica,sans-Serif" font-size="10.00">#</text>
<text text-anchor="start" x="40.5" y="-798.5" font-family="Helvetica,sans-Serif" font-size="10.00">roomRenderer</text>
<text text-anchor="start" x="30.88" y="-782.5" font-family="Helvetica,sans-Serif" font-size="10.00">#</text>
<text text-anchor="start" x="40.5" y="-782.5" font-family="Helvetica,sans-Serif" font-size="10.00">parentShip</text>
<text text-anchor="start" x="30.5" y="-766.5" font-family="Helvetica,sans-Serif" font-size="10.00">+</text>
<text text-anchor="start" x="40.5" y="-766.5" font-family="Helvetica,sans-Serif" font-size="10.00">Update()</text>
<text text-anchor="start" x="30.5" y="-750.5" font-family="Helvetica,sans-Serif" font-size="10.00">+</text>
<text text-anchor="start" x="40.5" y="-750.5" font-family="Helvetica,sans-Serif" font-size="10.00">CanBePlaced()</text>
<text text-anchor="start" x="30.5" y="-734.5" font-family="Helvetica,sans-Serif" font-size="10.00">+</text>
<text text-anchor="start" x="40.5" y="-734.5" font-family="Helvetica,sans-Serif" font-size="10.00">OnPlaced()</text>
<text text-anchor="start" x="30.5" y="-718.5" font-family="Helvetica,sans-Serif" font-size="10.00">+</text>
<text text-anchor="start" x="40.5" y="-718.5" font-family="Helvetica,sans-Serif" font-size="10.00">OnCrewEnter()</text>
<text text-anchor="start" x="30.5" y="-702.5" font-family="Helvetica,sans-Serif" font-size="10.00">+</text>
<text text-anchor="start" x="40.5" y="-702.5" font-family="Helvetica,sans-Serif" font-size="10.00">OnCrewExit()</text>
<text text-anchor="start" x="30.5" y="-686.5" font-family="Helvetica,sans-Serif" font-size="10.00">+</text>
<text text-anchor="start" x="40.5" y="-686.5" font-family="Helvetica,sans-Serif" font-size="10.00">InitializeIsDamageable()</text>
<text text-anchor="start" x="30.5" y="-670.5" font-family="Helvetica,sans-Serif" font-size="10.00">+</text>
<text text-anchor="start" x="40.5" y="-670.5" font-family="Helvetica,sans-Serif" font-size="10.00">GetIsPowered()</text>
<text text-anchor="start" x="30.5" y="-654.5" font-family="Helvetica,sans-Serif" font-size="10.00">+</text>
<text text-anchor="start" x="40.5" y="-654.5" font-family="Helvetica,sans-Serif" font-size="10.00">GetIsPowerRequested()</text>
<text text-anchor="start" x="30.5" y="-638.5" font-family="Helvetica,sans-Serif" font-size="10.00">+</text>
<text text-anchor="start" x="40.5" y="-638.5" font-family="Helvetica,sans-Serif" font-size="10.00">GetIsDamageable()</text>
<text text-anchor="start" x="30.5" y="-622.5" font-family="Helvetica,sans-Serif" font-size="10.00">+</text>
<text text-anchor="start" x="40.5" y="-622.5" font-family="Helvetica,sans-Serif" font-size="10.00">Initialize()</text>
<text text-anchor="start" x="40.5" y="-606.5" font-family="Helvetica,sans-Serif" font-size="10.00">and 15 more...</text>
<text text-anchor="start" x="30.88" y="-590.5" font-family="Helvetica,sans-Serif" font-size="10.00">#</text>
<text text-anchor="start" x="40.5" y="-590.5" font-family="Helvetica,sans-Serif" font-size="10.00">Start()</text>
<text text-anchor="start" x="30.88" y="-574.5" font-family="Helvetica,sans-Serif" font-size="10.00">#</text>
<text text-anchor="start" x="40.5" y="-574.5" font-family="Helvetica,sans-Serif" font-size="10.00">UpdateRoom()</text>
<text text-anchor="start" x="30.88" y="-558.5" font-family="Helvetica,sans-Serif" font-size="10.00">#</text>
<text text-anchor="start" x="40.5" y="-558.5" font-family="Helvetica,sans-Serif" font-size="10.00">UpdateEffects()</text>
<text text-anchor="start" x="30.88" y="-542.5" font-family="Helvetica,sans-Serif" font-size="10.00">#</text>
<text text-anchor="start" x="40.5" y="-542.5" font-family="Helvetica,sans-Serif" font-size="10.00">OnDisabled()</text>
<text text-anchor="start" x="30.88" y="-526.5" font-family="Helvetica,sans-Serif" font-size="10.00">#</text>
<text text-anchor="start" x="40.5" y="-526.5" font-family="Helvetica,sans-Serif" font-size="10.00">NotifyStateChanged()</text>
<polygon fill="#666666" stroke="#666666" points="26.5,-1066 26.5,-1066 163,-1066 163,-1066 26.5,-1066"/>
<polygon fill="#666666" stroke="#666666" points="26.5,-778 26.5,-778 38.5,-778 38.5,-778 26.5,-778"/>
<polygon fill="#666666" stroke="#666666" points="38.5,-778 38.5,-778 163,-778 163,-778 38.5,-778"/>
<polygon fill="none" stroke="#666666" points="26.5,-520 26.5,-1084 163,-1084 163,-520 26.5,-520"/>
</a>
</g>
</g>
<!-- Node4&#45;&gt;Node3 -->
<g id="edge3_Node000003_Node000004" class="edge">
<title>Node4&#45;&gt;Node3</title>
<g id="a_edge3_Node000003_Node000004"><a xlink:title=" ">
<path fill="none" stroke="#63b8ff" d="M94.75,-508.78C94.75,-500 94.75,-491.62 94.75,-483.76"/>
<polygon fill="none" stroke="#63b8ff" points="91.25,-508.6 94.75,-518.6 98.25,-508.6 91.25,-508.6"/>
</a>
</g>
</g>
<!-- Node5 -->
<g id="Node000005" class="node">
<title>Node5</title>
<g id="a_Node000005"><a xlink:title=" ">
<polygon fill="white" stroke="none" points="75.5,-1172 0,-1172 0,-1120 75.5,-1120 75.5,-1172"/>
<text text-anchor="start" x="4" y="-1158.5" font-family="Helvetica,sans-Serif" font-size="10.00">MonoBehaviour</text>
<text text-anchor="start" x="36.25" y="-1142.5" font-family="Helvetica,sans-Serif" font-size="10.00"> </text>
<text text-anchor="start" x="36.25" y="-1126.5" font-family="Helvetica,sans-Serif" font-size="10.00"> </text>
<polygon fill="#bfbfbf" stroke="#bfbfbf" points="0,-1154 0,-1154 75.5,-1154 75.5,-1154 0,-1154"/>
<polygon fill="#bfbfbf" stroke="#bfbfbf" points="0,-1138 0,-1138 75.5,-1138 75.5,-1138 0,-1138"/>
<polygon fill="none" stroke="#bfbfbf" points="0,-1120 0,-1172 75.5,-1172 75.5,-1120 0,-1120"/>
</a>
</g>
</g>
<!-- Node5&#45;&gt;Node4 -->
<g id="edge4_Node000004_Node000005" class="edge">
<title>Node5&#45;&gt;Node4</title>
<g id="a_edge4_Node000004_Node000005"><a xlink:title=" ">
<path fill="none" stroke="#63b8ff" d="M43.77,-1108.86C45.02,-1101.41 46.41,-1093.02 47.93,-1083.91"/>
<polygon fill="none" stroke="#63b8ff" points="40.34,-1108.2 42.14,-1118.64 47.24,-1109.35 40.34,-1108.2"/>
</a>
</g>
</g>
<!-- Node6 -->
<g id="Node000006" class="node">
<title>Node6</title>
<g id="a_Node000006"><a xlink:href="interface_i_ship_stat_contributor.html" target="_top" xlink:title="함선의 ShipStat에 영향을 주는 객체 인터페이스. 방(Room)과 선원(Crew)은 모두 이 인터페이스를 통해 스탯에 기여합니다.">
<polygon fill="white" stroke="none" points="209.5,-1172 94,-1172 94,-1120 209.5,-1120 209.5,-1172"/>
<text text-anchor="start" x="107.5" y="-1158.5" font-family="Helvetica,sans-Serif" font-size="10.00">IShipStatContributor</text>
<text text-anchor="start" x="150.25" y="-1142.5" font-family="Helvetica,sans-Serif" font-size="10.00"> </text>
<text text-anchor="start" x="98" y="-1126.5" font-family="Helvetica,sans-Serif" font-size="10.00">+</text>
<text text-anchor="start" x="108" y="-1126.5" font-family="Helvetica,sans-Serif" font-size="10.00">GetStatContributions()</text>
<polygon fill="#666666" stroke="#666666" points="94,-1154 94,-1154 209.5,-1154 209.5,-1154 94,-1154"/>
<polygon fill="#666666" stroke="#666666" points="94,-1138 94,-1138 209.5,-1138 209.5,-1138 94,-1138"/>
<polygon fill="none" stroke="#666666" points="94,-1120 94,-1172 209.5,-1172 209.5,-1120 94,-1120"/>
</a>
</g>
</g>
<!-- Node6&#45;&gt;Node4 -->
<g id="edge5_Node000004_Node000006" class="edge">
<title>Node6&#45;&gt;Node4</title>
<g id="a_edge5_Node000004_Node000006"><a xlink:title=" ">
<path fill="none" stroke="#63b8ff" d="M145.73,-1108.86C144.48,-1101.41 143.09,-1093.02 141.57,-1083.91"/>
<polygon fill="none" stroke="#63b8ff" points="142.26,-1109.35 147.36,-1118.64 149.16,-1108.2 142.26,-1109.35"/>
</a>
</g>
</g>
</g>
</svg>

<g id="navigator" transform="translate(0 0)" fill="#404254">
  <rect fill="#f2f5e9" fill-opacity="0.5" stroke="#606060" stroke-width=".5" x="0" y="0" width="60" height="60"/>
  <use id="zoomplus" xlink:href="#zoomPlus" x="17" y="9" onmousedown="handleZoom(evt,'in')"/>
  <use id="zoomminus" xlink:href="#zoomMin" x="42" y="9" onmousedown="handleZoom(evt,'out')"/>
  <use id="reset" xlink:href="#resetDef" x="30" y="36" onmousedown="handleReset()"/>
   <use id="arrowup" xlink:href="#arrowUp" x="0" y="0" onmousedown="handlePan(0,-1)"/>
  <use id="arrowright" xlink:href="#arrowRight" x="0" y="0" onmousedown="handlePan(1,0)"/>
  <use id="arrowdown" xlink:href="#arrowDown" x="0" y="0" onmousedown="handlePan(0,1)"/>
  <use id="arrowleft" xlink:href="#arrowLeft" x="0" y="0" onmousedown="handlePan(-1,0)"/>
</g>
<svg viewBox="0 0 15 15" width="100%" height="30px" preserveAspectRatio="xMaxYMin meet">
 <g id="arrow_out" transform="scale(0.3 0.3)">
  <a xlink:href="class_storage_room_temperature__inherit__graph_org.svg" target="_base">
   <rect id="button" ry="5" rx="5" y="6" x="6" height="38" width="38"
        fill="#f2f5e9" fill-opacity="0.5" stroke="#606060" stroke-width="1.0"/>
   <path id="arrow"
     d="M 11.500037,31.436501 C 11.940474,20.09759 22.043105,11.32322 32.158766,21.979434 L 37.068811,17.246167 C 37.068811,17.246167 37.088388,32 37.088388,32 L 22.160133,31.978069 C 22.160133,31.978069 26.997745,27.140456 26.997745,27.140456 C 18.528582,18.264221 13.291696,25.230495 11.500037,31.436501 z"
     style="fill:#404040;"/>
  </a>
 </g>
</svg>

<style type='text/css'>
<![CDATA[
[data-mouse-over-selected='false'] { opacity: 0.7; }
[data-mouse-over-selected='true']  { opacity: 1.0; }
]]>
</style>
<script type="application/ecmascript"><![CDATA[
document.addEventListener('DOMContentLoaded', (event) => {
  highlightEdges();
  highlightAdjacentNodes();
});
]]></script>
</svg>
