<?xml version="1.0" encoding="UTF-8" standalone="no"?>
<!DOCTYPE svg PUBLIC "-//W3C//DTD SVG 1.1//EN"
 "http://www.w3.org/Graphics/SVG/1.1/DTD/svg11.dtd">
<!-- Generated by graphviz version 12.2.1 (20241206.2353)
 -->
<!-- Title: CrewQuartersRoom Pages: 1 -->
<!--zoomable 1228 -->

<svg id="main" version="1.1" xmlns="http://www.w3.org/2000/svg" xmlns:xlink="http://www.w3.org/1999/xlink" xml:space="preserve" onload="init(evt)">

<style type="text/css"><![CDATA[
.node, .edge {opacity: 0.7;}
.node.selected, .edge.selected {opacity: 1;}
.edge:hover path { stroke: red; }
.edge:hover polygon { stroke: red; fill: red; }
]]></style>

<defs>
  <circle id="rim" cx="0" cy="0" r="7"/>
  <circle id="rim2" cx="0" cy="0" r="3.5"/>
  <g id="zoomPlus">
    <use xlink:href="#rim" fill="#404040"><set attributeName="fill" to="#808080" begin="zoomplus.mouseover" end="zoomplus.mouseout"/></use>
    <path d="M-4,0h8M0,-4v8" fill="none" stroke="white" stroke-width="1.5" pointer-events="none"/>
  </g>
  <g id="zoomMin">
    <use xlink:href="#rim" fill="#404040"><set attributeName="fill" to="#808080" begin="zoomminus.mouseover" end="zoomminus.mouseout"/></use>
    <path d="M-4,0h8" fill="none" stroke="white" stroke-width="1.5" pointer-events="none"/>
  </g>
  <g id="arrowUp" transform="translate(30 24)">
    <use xlink:href="#rim"/>
    <path pointer-events="none" fill="none" stroke="white" stroke-width="1.5" d="M0,-3.0v7 M-2.5,-0.5L0,-3.0L2.5,-0.5"/>
  </g>
  <g id="arrowRight" transform="rotate(90) translate(36 -43)">
    <use xlink:href="#rim"/>
    <path pointer-events="none" fill="none" stroke="white" stroke-width="1.5" d="M0,-3.0v7 M-2.5,-0.5L0,-3.0L2.5,-0.5"/>
  </g>
  <g id="arrowDown" transform="rotate(180) translate(-30 -48)">
    <use xlink:href="#rim"/>
    <path pointer-events="none" fill="none" stroke="white" stroke-width="1.5" d="M0,-3.0v7 M-2.5,-0.5L0,-3.0L2.5,-0.5"/>
  </g>
  <g id="arrowLeft" transform="rotate(270) translate(-36 17)">
    <use xlink:href="#rim"/>
    <path pointer-events="none" fill="none" stroke="white" stroke-width="1.5" d="M0,-3.0v7 M-2.5,-0.5L0,-3.0L2.5,-0.5"/>
  </g>
  <g id="resetDef">
    <use xlink:href="#rim2" fill="#404040"><set attributeName="fill" to="#808080" begin="reset.mouseover" end="reset.mouseout"/></use>
  </g>
</defs>
<script type="application/ecmascript">
var viewWidth = 282;
var viewHeight = 1228;
var sectionId = 'dynsection-0';
</script>
<script type="application/ecmascript" xlink:href="svg.min.js"/>
<svg id="graph" class="graph">
<g id="viewport">
<title>CrewQuartersRoom</title>
<!-- Node1 -->
<g id="Node000001" class="node">
<title>Node1</title>
<g id="a_Node000001"><a xlink:title="함선의 승무원 선실(CrewQuarters)을 나타내는 클래스. 선원 수용량에 기여하며, 전력을 소비합니다.">
<polygon fill="#999999" stroke="none" points="182.75,-97.5 39.5,-97.5 39.5,0 182.75,0 182.75,-97.5"/>
<text text-anchor="start" x="69.12" y="-84" font-family="Consolas" font-size="10.00">CrewQuartersRoom</text>
<text text-anchor="start" x="43.5" y="-69.5" font-family="Consolas" font-size="10.00">+</text>
<text text-anchor="start" x="52.75" y="-69.5" font-family="Consolas" font-size="10.00">bool isPersonalRoom</text>
<text text-anchor="start" x="43.5" y="-55" font-family="Consolas" font-size="10.00">+</text>
<text text-anchor="start" x="52.75" y="-55" font-family="Consolas" font-size="10.00">override Dictionary</text>
<text text-anchor="start" x="52.75" y="-44.5" font-family="Consolas" font-size="10.00">&lt; ShipStat, float &gt;</text>
<text text-anchor="start" x="52.75" y="-34" font-family="Consolas" font-size="10.00"> GetStatContributions()</text>
<text text-anchor="start" x="43.5" y="-19.5" font-family="Consolas" font-size="10.00">+</text>
<text text-anchor="start" x="52.75" y="-19.5" font-family="Consolas" font-size="10.00">bool GetIsPersonalRoom()</text>
<text text-anchor="start" x="43.5" y="-5" font-family="Consolas" font-size="10.00">#</text>
<text text-anchor="start" x="52.75" y="-5" font-family="Consolas" font-size="10.00">override void Start()</text>
<polygon fill="#666666" stroke="#666666" points="39.5,-81 39.5,-81 182.75,-81 182.75,-81 39.5,-81"/>
<polygon fill="#666666" stroke="#666666" points="39.5,-66.5 39.5,-66.5 50.75,-66.5 50.75,-66.5 39.5,-66.5"/>
<polygon fill="#666666" stroke="#666666" points="50.75,-66.5 50.75,-66.5 182.75,-66.5 182.75,-66.5 50.75,-66.5"/>
<polygon fill="none" stroke="#666666" points="39.5,0 39.5,-97.5 182.75,-97.5 182.75,0 39.5,0"/>
</a>
</g>
</g>
<!-- Node2 -->
<g id="Node000002" class="node">
<title>Node2</title>
<g id="a_Node000002"><a xlink:href="class_room-2-g.html" target="_top" xlink:title="함선 내의 특화된 방 타입을 위한 제네릭 기본 클래스. RoomData 및 RoomLevel 타입에 따라 세부 동작과 데이터를 확장할 수 있도록 설계되었습니다.">
<polygon fill="white" stroke="none" points="193.25,-264 29,-264 29,-133.5 193.25,-133.5 193.25,-264"/>
<text text-anchor="start" x="56" y="-250.5" font-family="Consolas" font-size="10.00">Room&lt; TData, TLevel &gt;</text>
<text text-anchor="start" x="33" y="-236" font-family="Consolas" font-size="10.00">+</text>
<text text-anchor="start" x="42.25" y="-236" font-family="Consolas" font-size="10.00">new TData roomData</text>
<text text-anchor="start" x="33" y="-221.5" font-family="Consolas" font-size="10.00">#</text>
<text text-anchor="start" x="42.25" y="-221.5" font-family="Consolas" font-size="10.00">TLevel currentRoomLevelData</text>
<text text-anchor="start" x="33" y="-207" font-family="Consolas" font-size="10.00">+</text>
<text text-anchor="start" x="42.25" y="-207" font-family="Consolas" font-size="10.00">TLevel GetCurrentLevelData()</text>
<text text-anchor="start" x="33" y="-192.5" font-family="Consolas" font-size="10.00">+</text>
<text text-anchor="start" x="42.25" y="-192.5" font-family="Consolas" font-size="10.00">override bool Upgrade()</text>
<text text-anchor="start" x="33" y="-178" font-family="Consolas" font-size="10.00">+</text>
<text text-anchor="start" x="42.25" y="-178" font-family="Consolas" font-size="10.00">override void Initialize()</text>
<text text-anchor="start" x="33" y="-163.5" font-family="Consolas" font-size="10.00">#</text>
<text text-anchor="start" x="42.25" y="-163.5" font-family="Consolas" font-size="10.00">virtual void UpdateRoomLevel</text>
<text text-anchor="start" x="42.25" y="-153" font-family="Consolas" font-size="10.00">Data()</text>
<text text-anchor="start" x="33" y="-138.5" font-family="Consolas" font-size="10.00">#</text>
<text text-anchor="start" x="42.25" y="-138.5" font-family="Consolas" font-size="10.00">override void Start()</text>
<polygon fill="#666666" stroke="#666666" points="29,-247.5 29,-247.5 193.25,-247.5 193.25,-247.5 29,-247.5"/>
<polygon fill="#666666" stroke="#666666" points="29,-218.5 29,-218.5 40.25,-218.5 40.25,-218.5 29,-218.5"/>
<polygon fill="#666666" stroke="#666666" points="40.25,-218.5 40.25,-218.5 193.25,-218.5 193.25,-218.5 40.25,-218.5"/>
<polygon fill="none" stroke="#666666" points="29,-133.5 29,-264 193.25,-264 193.25,-133.5 29,-133.5"/>
</a>
</g>
</g>
<!-- Node2&#45;&gt;Node1 -->
<g id="edge1_Node000001_Node000002" class="edge">
<title>Node2&#45;&gt;Node1</title>
<g id="a_edge1_Node000001_Node000002"><a xlink:title=" ">
<path fill="none" stroke="#63b8ff" d="M111.12,-122.2C111.12,-113.76 111.12,-105.34 111.12,-97.39"/>
<polygon fill="none" stroke="#63b8ff" points="107.63,-122.18 111.13,-132.18 114.63,-122.18 107.63,-122.18"/>
</a>
</g>
</g>
<!-- Node3 -->
<g id="Node000003" class="node">
<title>Node3</title>
<g id="a_Node000003"><a xlink:href="class_room.html" target="_top" xlink:title="함선 내의 모든 방의 기본 클래스. 방의 상태, 작동 여부, 산소 레벨, 데미지 처리 등을 관리합니다.">
<polygon fill="white" stroke="none" points="203.75,-1126 18.5,-1126 18.5,-300 203.75,-300 203.75,-1126"/>
<text text-anchor="start" x="100.62" y="-1112.5" font-family="Consolas" font-size="10.00">Room</text>
<text text-anchor="start" x="22.5" y="-1098" font-family="Consolas" font-size="10.00">+</text>
<text text-anchor="start" x="31.75" y="-1098" font-family="Consolas" font-size="10.00">RoomData roomData</text>
<text text-anchor="start" x="22.5" y="-1083.5" font-family="Consolas" font-size="10.00">+</text>
<text text-anchor="start" x="31.75" y="-1083.5" font-family="Consolas" font-size="10.00">Vector2Int position</text>
<text text-anchor="start" x="22.5" y="-1069" font-family="Consolas" font-size="10.00">+</text>
<text text-anchor="start" x="31.75" y="-1069" font-family="Consolas" font-size="10.00">int currentLevel</text>
<text text-anchor="start" x="22.5" y="-1054.5" font-family="Consolas" font-size="10.00">+</text>
<text text-anchor="start" x="31.75" y="-1054.5" font-family="Consolas" font-size="10.00">RoomType roomType</text>
<text text-anchor="start" x="22.5" y="-1040" font-family="Consolas" font-size="10.00">+</text>
<text text-anchor="start" x="31.75" y="-1040" font-family="Consolas" font-size="10.00">List&lt; CrewBase &gt; crewInRoom</text>
<text text-anchor="start" x="22.5" y="-1025.5" font-family="Consolas" font-size="10.00">+</text>
<text text-anchor="start" x="31.75" y="-1025.5" font-family="Consolas" font-size="10.00">Vector2Int gridSize</text>
<text text-anchor="start" x="22.5" y="-1011" font-family="Consolas" font-size="10.00">+</text>
<text text-anchor="start" x="31.75" y="-1011" font-family="Consolas" font-size="10.00">bool isPlaced</text>
<text text-anchor="start" x="22.5" y="-996.5" font-family="Consolas" font-size="10.00">#</text>
<text text-anchor="start" x="31.75" y="-996.5" font-family="Consolas" font-size="10.00">float currentHitPoints</text>
<text text-anchor="start" x="22.5" y="-982" font-family="Consolas" font-size="10.00">#</text>
<text text-anchor="start" x="31.75" y="-982" font-family="Consolas" font-size="10.00">List&lt; Room &gt; adjacentRooms</text>
<text text-anchor="start" x="22.5" y="-967.5" font-family="Consolas" font-size="10.00">#</text>
<text text-anchor="start" x="31.75" y="-967.5" font-family="Consolas" font-size="10.00">List&lt; Door &gt; connectedDoors</text>
<text text-anchor="start" x="22.5" y="-953" font-family="Consolas" font-size="10.00">#</text>
<text text-anchor="start" x="31.75" y="-953" font-family="Consolas" font-size="10.00">ParticleSystem roomParticles</text>
<text text-anchor="start" x="22.5" y="-938.5" font-family="Consolas" font-size="10.00">#</text>
<text text-anchor="start" x="31.75" y="-938.5" font-family="Consolas" font-size="10.00">AudioSource roomSound</text>
<text text-anchor="start" x="22.5" y="-924" font-family="Consolas" font-size="10.00">#</text>
<text text-anchor="start" x="31.75" y="-924" font-family="Consolas" font-size="10.00">bool isActive</text>
<text text-anchor="start" x="22.5" y="-909.5" font-family="Consolas" font-size="10.00">#</text>
<text text-anchor="start" x="31.75" y="-909.5" font-family="Consolas" font-size="10.00">bool isPowered</text>
<text text-anchor="start" x="22.5" y="-895" font-family="Consolas" font-size="10.00">#</text>
<text text-anchor="start" x="31.75" y="-895" font-family="Consolas" font-size="10.00">bool isPowerRequested</text>
<text text-anchor="start" x="22.5" y="-880.5" font-family="Consolas" font-size="10.00">#</text>
<text text-anchor="start" x="31.75" y="-880.5" font-family="Consolas" font-size="10.00">SpriteRenderer roomRenderer</text>
<text text-anchor="start" x="22.5" y="-866" font-family="Consolas" font-size="10.00">#</text>
<text text-anchor="start" x="31.75" y="-866" font-family="Consolas" font-size="10.00">Ship parentShip</text>
<text text-anchor="start" x="22.5" y="-851.5" font-family="Consolas" font-size="10.00">+</text>
<text text-anchor="start" x="31.75" y="-851.5" font-family="Consolas" font-size="10.00">virtual void Update()</text>
<text text-anchor="start" x="22.5" y="-837" font-family="Consolas" font-size="10.00">+</text>
<text text-anchor="start" x="31.75" y="-837" font-family="Consolas" font-size="10.00">virtual bool CanBePlaced</text>
<text text-anchor="start" x="31.75" y="-826.5" font-family="Consolas" font-size="10.00">(Vector2Int newPosition,</text>
<text text-anchor="start" x="31.75" y="-816" font-family="Consolas" font-size="10.00"> Ship ship)</text>
<text text-anchor="start" x="22.5" y="-801.5" font-family="Consolas" font-size="10.00">+</text>
<text text-anchor="start" x="31.75" y="-801.5" font-family="Consolas" font-size="10.00">virtual void OnPlaced()</text>
<text text-anchor="start" x="22.5" y="-787" font-family="Consolas" font-size="10.00">+</text>
<text text-anchor="start" x="31.75" y="-787" font-family="Consolas" font-size="10.00">virtual void OnCrewEnter</text>
<text text-anchor="start" x="31.75" y="-776.5" font-family="Consolas" font-size="10.00">(CrewBase crew)</text>
<text text-anchor="start" x="22.5" y="-762" font-family="Consolas" font-size="10.00">+</text>
<text text-anchor="start" x="31.75" y="-762" font-family="Consolas" font-size="10.00">virtual void OnCrewExit</text>
<text text-anchor="start" x="31.75" y="-751.5" font-family="Consolas" font-size="10.00">(CrewBase crew)</text>
<text text-anchor="start" x="22.5" y="-737" font-family="Consolas" font-size="10.00">+</text>
<text text-anchor="start" x="31.75" y="-737" font-family="Consolas" font-size="10.00">void InitializeIsDamageable()</text>
<text text-anchor="start" x="22.5" y="-722.5" font-family="Consolas" font-size="10.00">+</text>
<text text-anchor="start" x="31.75" y="-722.5" font-family="Consolas" font-size="10.00">bool GetIsPowered()</text>
<text text-anchor="start" x="22.5" y="-708" font-family="Consolas" font-size="10.00">+</text>
<text text-anchor="start" x="31.75" y="-708" font-family="Consolas" font-size="10.00">bool GetIsPowerRequested()</text>
<text text-anchor="start" x="22.5" y="-693.5" font-family="Consolas" font-size="10.00">+</text>
<text text-anchor="start" x="31.75" y="-693.5" font-family="Consolas" font-size="10.00">bool GetIsDamageable()</text>
<text text-anchor="start" x="22.5" y="-679" font-family="Consolas" font-size="10.00">+</text>
<text text-anchor="start" x="31.75" y="-679" font-family="Consolas" font-size="10.00">virtual void Initialize()</text>
<text text-anchor="start" x="22.5" y="-664.5" font-family="Consolas" font-size="10.00">+</text>
<text text-anchor="start" x="31.75" y="-664.5" font-family="Consolas" font-size="10.00">int GetCrewCount()</text>
<text text-anchor="start" x="22.5" y="-650" font-family="Consolas" font-size="10.00">+</text>
<text text-anchor="start" x="31.75" y="-650" font-family="Consolas" font-size="10.00">bool HasEnoughCrew()</text>
<text text-anchor="start" x="22.5" y="-635.5" font-family="Consolas" font-size="10.00">+</text>
<text text-anchor="start" x="31.75" y="-635.5" font-family="Consolas" font-size="10.00">bool IsOperational()</text>
<text text-anchor="start" x="22.5" y="-621" font-family="Consolas" font-size="10.00">+</text>
<text text-anchor="start" x="31.75" y="-621" font-family="Consolas" font-size="10.00">bool NeedsRepair()</text>
<text text-anchor="start" x="22.5" y="-606.5" font-family="Consolas" font-size="10.00">+</text>
<text text-anchor="start" x="31.75" y="-606.5" font-family="Consolas" font-size="10.00">virtual void TakeDamage</text>
<text text-anchor="start" x="31.75" y="-596" font-family="Consolas" font-size="10.00">(float damage)</text>
<text text-anchor="start" x="22.5" y="-581.5" font-family="Consolas" font-size="10.00">+</text>
<text text-anchor="start" x="31.75" y="-581.5" font-family="Consolas" font-size="10.00">virtual void Repair</text>
<text text-anchor="start" x="31.75" y="-571" font-family="Consolas" font-size="10.00">(float amount)</text>
<text text-anchor="start" x="22.5" y="-556.5" font-family="Consolas" font-size="10.00">+</text>
<text text-anchor="start" x="31.75" y="-556.5" font-family="Consolas" font-size="10.00">virtual void SetPowerStatus</text>
<text text-anchor="start" x="31.75" y="-546" font-family="Consolas" font-size="10.00">(bool powered, bool requested)</text>
<text text-anchor="start" x="22.5" y="-531.5" font-family="Consolas" font-size="10.00">+</text>
<text text-anchor="start" x="31.75" y="-531.5" font-family="Consolas" font-size="10.00">float GetHealthPercentage()</text>
<text text-anchor="start" x="22.5" y="-517" font-family="Consolas" font-size="10.00">+</text>
<text text-anchor="start" x="31.75" y="-517" font-family="Consolas" font-size="10.00">virtual Dictionary</text>
<text text-anchor="start" x="31.75" y="-506.5" font-family="Consolas" font-size="10.00">&lt; ShipStat, float &gt;</text>
<text text-anchor="start" x="31.75" y="-496" font-family="Consolas" font-size="10.00"> GetStatContributions()</text>
<text text-anchor="start" x="22.5" y="-481.5" font-family="Consolas" font-size="10.00">+</text>
<text text-anchor="start" x="31.75" y="-481.5" font-family="Consolas" font-size="10.00">virtual Dictionary</text>
<text text-anchor="start" x="31.75" y="-471" font-family="Consolas" font-size="10.00">&lt; ShipStat, float &gt;</text>
<text text-anchor="start" x="31.75" y="-460.5" font-family="Consolas" font-size="10.00"> GetNextLevelStatContributions()</text>
<text text-anchor="start" x="22.5" y="-446" font-family="Consolas" font-size="10.00">+</text>
<text text-anchor="start" x="31.75" y="-446" font-family="Consolas" font-size="10.00">virtual bool Upgrade()</text>
<text text-anchor="start" x="22.5" y="-431.5" font-family="Consolas" font-size="10.00">+</text>
<text text-anchor="start" x="31.75" y="-431.5" font-family="Consolas" font-size="10.00">int GetCurrentLevel()</text>
<text text-anchor="start" x="22.5" y="-417" font-family="Consolas" font-size="10.00">+</text>
<text text-anchor="start" x="31.75" y="-417" font-family="Consolas" font-size="10.00">float GetPowerConsumption()</text>
<text text-anchor="start" x="22.5" y="-402.5" font-family="Consolas" font-size="10.00">+</text>
<text text-anchor="start" x="31.75" y="-402.5" font-family="Consolas" font-size="10.00">Vector2Int GetSize()</text>
<text text-anchor="start" x="22.5" y="-388" font-family="Consolas" font-size="10.00">+</text>
<text text-anchor="start" x="31.75" y="-388" font-family="Consolas" font-size="10.00">float GetMaxHitPoints()</text>
<text text-anchor="start" x="22.5" y="-373.5" font-family="Consolas" font-size="10.00">#</text>
<text text-anchor="start" x="31.75" y="-373.5" font-family="Consolas" font-size="10.00">virtual void Start()</text>
<text text-anchor="start" x="22.5" y="-359" font-family="Consolas" font-size="10.00">#</text>
<text text-anchor="start" x="31.75" y="-359" font-family="Consolas" font-size="10.00">virtual void UpdateRoom()</text>
<text text-anchor="start" x="22.5" y="-344.5" font-family="Consolas" font-size="10.00">#</text>
<text text-anchor="start" x="31.75" y="-344.5" font-family="Consolas" font-size="10.00">virtual void UpdateEffects()</text>
<text text-anchor="start" x="22.5" y="-330" font-family="Consolas" font-size="10.00">#</text>
<text text-anchor="start" x="31.75" y="-330" font-family="Consolas" font-size="10.00">virtual void OnDisabled()</text>
<text text-anchor="start" x="22.5" y="-315.5" font-family="Consolas" font-size="10.00">#</text>
<text text-anchor="start" x="31.75" y="-315.5" font-family="Consolas" font-size="10.00">virtual void NotifyState</text>
<text text-anchor="start" x="31.75" y="-305" font-family="Consolas" font-size="10.00">Changed()</text>
<polygon fill="#666666" stroke="#666666" points="18.5,-1109.5 18.5,-1109.5 203.75,-1109.5 203.75,-1109.5 18.5,-1109.5"/>
<polygon fill="#666666" stroke="#666666" points="18.5,-863 18.5,-863 29.75,-863 29.75,-863 18.5,-863"/>
<polygon fill="#666666" stroke="#666666" points="29.75,-863 29.75,-863 203.75,-863 203.75,-863 29.75,-863"/>
<polygon fill="none" stroke="#666666" points="18.5,-300 18.5,-1126 203.75,-1126 203.75,-300 18.5,-300"/>
</a>
</g>
</g>
<!-- Node3&#45;&gt;Node2 -->
<g id="edge2_Node000002_Node000003" class="edge">
<title>Node3&#45;&gt;Node2</title>
<g id="a_edge2_Node000002_Node000003"><a xlink:title=" ">
<path fill="none" stroke="#63b8ff" d="M111.12,-288.66C111.12,-279.88 111.12,-271.56 111.12,-263.79"/>
<polygon fill="none" stroke="#63b8ff" points="107.63,-288.52 111.13,-298.52 114.63,-288.52 107.63,-288.52"/>
</a>
</g>
</g>
<!-- Node4 -->
<g id="Node000004" class="node">
<title>Node4</title>
<g id="a_Node000004"><a xlink:title=" ">
<polygon fill="white" stroke="none" points="76.25,-1214.75 0,-1214.75 0,-1167.25 76.25,-1167.25 76.25,-1214.75"/>
<text text-anchor="start" x="4" y="-1201.25" font-family="Consolas" font-size="10.00">MonoBehaviour</text>
<text text-anchor="start" x="35.5" y="-1186.75" font-family="Consolas" font-size="10.00"> </text>
<text text-anchor="start" x="35.5" y="-1172.25" font-family="Consolas" font-size="10.00"> </text>
<polygon fill="#bfbfbf" stroke="#bfbfbf" points="0,-1198.25 0,-1198.25 76.25,-1198.25 76.25,-1198.25 0,-1198.25"/>
<polygon fill="#bfbfbf" stroke="#bfbfbf" points="0,-1183.75 0,-1183.75 76.25,-1183.75 76.25,-1183.75 0,-1183.75"/>
<polygon fill="none" stroke="#bfbfbf" points="0,-1167.25 0,-1214.75 76.25,-1214.75 76.25,-1167.25 0,-1167.25"/>
</a>
</g>
</g>
<!-- Node4&#45;&gt;Node3 -->
<g id="edge3_Node000003_Node000004" class="edge">
<title>Node4&#45;&gt;Node3</title>
<g id="a_edge3_Node000003_Node000004"><a xlink:title=" ">
<path fill="none" stroke="#63b8ff" d="M43.33,-1156.05C44.67,-1147.35 46.22,-1137.23 47.95,-1125.95"/>
<polygon fill="none" stroke="#63b8ff" points="39.88,-1155.45 41.83,-1165.87 46.8,-1156.51 39.88,-1155.45"/>
</a>
</g>
</g>
<!-- Node5 -->
<g id="Node000005" class="node">
<title>Node5</title>
<g id="a_Node000005"><a xlink:href="interface_i_ship_stat_contributor.html" target="_top" xlink:title="함선의 ShipStat에 영향을 주는 객체 인터페이스. 방(Room)과 선원(Crew)은 모두 이 인터페이스를 통해 스탯에 기여합니다.">
<polygon fill="white" stroke="none" points="274.12,-1220 94.12,-1220 94.12,-1162 274.12,-1162 274.12,-1220"/>
<text text-anchor="start" x="131.62" y="-1206.5" font-family="Consolas" font-size="10.00">IShipStatContributor</text>
<text text-anchor="start" x="181.5" y="-1192" font-family="Consolas" font-size="10.00"> </text>
<text text-anchor="start" x="98.12" y="-1177.5" font-family="Consolas" font-size="10.00">+</text>
<text text-anchor="start" x="107.38" y="-1177.5" font-family="Consolas" font-size="10.00">Dictionary&lt; ShipStat,</text>
<text text-anchor="start" x="107.38" y="-1167" font-family="Consolas" font-size="10.00"> float &gt; GetStatContributions()</text>
<polygon fill="#666666" stroke="#666666" points="94.12,-1203.5 94.12,-1203.5 274.12,-1203.5 274.12,-1203.5 94.12,-1203.5"/>
<polygon fill="#666666" stroke="#666666" points="94.12,-1189 94.12,-1189 274.12,-1189 274.12,-1189 94.12,-1189"/>
<polygon fill="none" stroke="#666666" points="94.12,-1162 94.12,-1220 274.12,-1220 274.12,-1162 94.12,-1162"/>
</a>
</g>
</g>
<!-- Node5&#45;&gt;Node3 -->
<g id="edge4_Node000003_Node000005" class="edge">
<title>Node5&#45;&gt;Node3</title>
<g id="a_edge4_Node000003_Node000005"><a xlink:title=" ">
<path fill="none" stroke="#63b8ff" d="M178.09,-1150.65C176.94,-1143.18 175.66,-1134.8 174.26,-1125.68"/>
<polygon fill="none" stroke="#63b8ff" points="174.63,-1151.15 179.6,-1160.51 181.55,-1150.09 174.63,-1151.15"/>
</a>
</g>
</g>
</g>
</svg>

<g id="navigator" transform="translate(0 0)" fill="#404254">
  <rect fill="#f2f5e9" fill-opacity="0.5" stroke="#606060" stroke-width=".5" x="0" y="0" width="60" height="60"/>
  <use id="zoomplus" xlink:href="#zoomPlus" x="17" y="9" onmousedown="handleZoom(evt,'in')"/>
  <use id="zoomminus" xlink:href="#zoomMin" x="42" y="9" onmousedown="handleZoom(evt,'out')"/>
  <use id="reset" xlink:href="#resetDef" x="30" y="36" onmousedown="handleReset()"/>
   <use id="arrowup" xlink:href="#arrowUp" x="0" y="0" onmousedown="handlePan(0,-1)"/>
  <use id="arrowright" xlink:href="#arrowRight" x="0" y="0" onmousedown="handlePan(1,0)"/>
  <use id="arrowdown" xlink:href="#arrowDown" x="0" y="0" onmousedown="handlePan(0,1)"/>
  <use id="arrowleft" xlink:href="#arrowLeft" x="0" y="0" onmousedown="handlePan(-1,0)"/>
</g>
<svg viewBox="0 0 15 15" width="100%" height="30px" preserveAspectRatio="xMaxYMin meet">
 <g id="arrow_out" transform="scale(0.3 0.3)">
  <a xlink:href="class_crew_quarters_room__inherit__graph_org.svg" target="_base">
   <rect id="button" ry="5" rx="5" y="6" x="6" height="38" width="38"
        fill="#f2f5e9" fill-opacity="0.5" stroke="#606060" stroke-width="1.0"/>
   <path id="arrow"
     d="M 11.500037,31.436501 C 11.940474,20.09759 22.043105,11.32322 32.158766,21.979434 L 37.068811,17.246167 C 37.068811,17.246167 37.088388,32 37.088388,32 L 22.160133,31.978069 C 22.160133,31.978069 26.997745,27.140456 26.997745,27.140456 C 18.528582,18.264221 13.291696,25.230495 11.500037,31.436501 z"
     style="fill:#404040;"/>
  </a>
 </g>
</svg>

<style type='text/css'>
<![CDATA[
[data-mouse-over-selected='false'] { opacity: 0.7; }
[data-mouse-over-selected='true']  { opacity: 1.0; }
]]>
</style>
<script type="application/ecmascript"><![CDATA[
document.addEventListener('DOMContentLoaded', (event) => {
  highlightEdges();
  highlightAdjacentNodes();
});
]]></script>
</svg>
