<?xml version="1.0" encoding="UTF-8" standalone="no"?>
<!DOCTYPE svg PUBLIC "-//W3C//DTD SVG 1.1//EN"
 "http://www.w3.org/Graphics/SVG/1.1/DTD/svg11.dtd">
<!-- Generated by graphviz version 12.2.1 (20241206.2353)
 -->
<!-- Title: OxygenSystem Pages: 1 -->
<svg width="188pt" height="948pt"
 viewBox="0.00 0.00 188.00 948.00" xmlns="http://www.w3.org/2000/svg" xmlns:xlink="http://www.w3.org/1999/xlink">
<g id="graph0" class="graph" transform="scale(1 1) rotate(0) translate(4 944)">
<title>OxygenSystem</title>
<!-- Node1 -->
<g id="Node000001" class="node">
<title>Node1</title>
<g id="a_Node000001"><a xlink:title="함선의 산소 수치를 관리하는 시스템. 산소 생성량과 소비량을 바탕으로 현재 산소 수치를 계산합니다.">
<polygon fill="#999999" stroke="none" points="174.75,-151.5 5.25,-151.5 5.25,0 174.75,0 174.75,-151.5"/>
<text text-anchor="start" x="58.5" y="-138" font-family="Consolas" font-size="10.00">OxygenSystem</text>
<text text-anchor="start" x="9.25" y="-123.5" font-family="Consolas" font-size="10.00">+</text>
<text text-anchor="start" x="18.5" y="-123.5" font-family="Consolas" font-size="10.00">float currentOxygenRate</text>
<text text-anchor="start" x="9.25" y="-109" font-family="Consolas" font-size="10.00">+</text>
<text text-anchor="start" x="18.5" y="-109" font-family="Consolas" font-size="10.00">OxygenLevel currentOxygen</text>
<text text-anchor="start" x="18.5" y="-98.5" font-family="Consolas" font-size="10.00">Level</text>
<text text-anchor="start" x="9.25" y="-84" font-family="Consolas" font-size="10.00">+</text>
<text text-anchor="start" x="18.5" y="-84" font-family="Consolas" font-size="10.00">override void Initialize</text>
<text text-anchor="start" x="18.5" y="-73.5" font-family="Consolas" font-size="10.00">(Ship ship)</text>
<text text-anchor="start" x="9.25" y="-59" font-family="Consolas" font-size="10.00">+</text>
<text text-anchor="start" x="18.5" y="-59" font-family="Consolas" font-size="10.00">override void Update</text>
<text text-anchor="start" x="18.5" y="-48.5" font-family="Consolas" font-size="10.00">(float deltaTime)</text>
<text text-anchor="start" x="9.25" y="-34" font-family="Consolas" font-size="10.00">+</text>
<text text-anchor="start" x="18.5" y="-34" font-family="Consolas" font-size="10.00">float CalculateOxygenChange()</text>
<text text-anchor="start" x="9.25" y="-19.5" font-family="Consolas" font-size="10.00">+</text>
<text text-anchor="start" x="18.5" y="-19.5" font-family="Consolas" font-size="10.00">float GetOxygenRate()</text>
<text text-anchor="start" x="9.25" y="-5" font-family="Consolas" font-size="10.00">+</text>
<text text-anchor="start" x="18.5" y="-5" font-family="Consolas" font-size="10.00">OxygenLevel GetOxygenLevel()</text>
<polygon fill="#666666" stroke="#666666" points="5.25,-135 5.25,-135 174.75,-135 174.75,-135 5.25,-135"/>
<polygon fill="#666666" stroke="#666666" points="5.25,-95.5 5.25,-95.5 16.5,-95.5 16.5,-95.5 5.25,-95.5"/>
<polygon fill="#666666" stroke="#666666" points="16.5,-95.5 16.5,-95.5 174.75,-95.5 174.75,-95.5 16.5,-95.5"/>
<polygon fill="none" stroke="#666666" points="5.25,0 5.25,-151.5 174.75,-151.5 174.75,0 5.25,0"/>
</a>
</g>
</g>
<!-- Node2 -->
<g id="Node000002" class="node">
<title>Node2</title>
<g id="a_Node000002"><a xlink:href="class_ship_system.html" target="_top" xlink:title="모든 함선 시스템의 추상 기반 클래스. 각 시스템은 함선 객체를 기반으로 동작하며, 공통적인 초기화 및 스탯 조회 기능을 제공합니다.">
<polygon fill="white" stroke="none" points="172.12,-286 7.88,-286 7.88,-188.5 172.12,-188.5 172.12,-286"/>
<text text-anchor="start" x="63.75" y="-272.5" font-family="Consolas" font-size="10.00">ShipSystem</text>
<text text-anchor="start" x="87.38" y="-258" font-family="Consolas" font-size="10.00"> </text>
<text text-anchor="start" x="11.88" y="-243.5" font-family="Consolas" font-size="10.00">+</text>
<text text-anchor="start" x="21.12" y="-243.5" font-family="Consolas" font-size="10.00">virtual void Initialize</text>
<text text-anchor="start" x="21.12" y="-233" font-family="Consolas" font-size="10.00">(Ship ship)</text>
<text text-anchor="start" x="11.88" y="-218.5" font-family="Consolas" font-size="10.00">+</text>
<text text-anchor="start" x="21.12" y="-218.5" font-family="Consolas" font-size="10.00">void Update(float deltaTime)</text>
<text text-anchor="start" x="11.88" y="-204" font-family="Consolas" font-size="10.00">#</text>
<text text-anchor="start" x="21.12" y="-204" font-family="Consolas" font-size="10.00">float GetShipStat(ShipStat</text>
<text text-anchor="start" x="21.12" y="-193.5" font-family="Consolas" font-size="10.00"> stat)</text>
<polygon fill="#666666" stroke="#666666" points="7.88,-269.5 7.88,-269.5 172.12,-269.5 172.12,-269.5 7.88,-269.5"/>
<polygon fill="#666666" stroke="#666666" points="7.88,-255 7.88,-255 172.12,-255 172.12,-255 7.88,-255"/>
<polygon fill="none" stroke="#666666" points="7.88,-188.5 7.88,-286 172.12,-286 172.12,-188.5 7.88,-188.5"/>
</a>
</g>
</g>
<!-- Node2&#45;&gt;Node1 -->
<g id="edge1_Node000001_Node000002" class="edge">
<title>Node2&#45;&gt;Node1</title>
<g id="a_edge1_Node000001_Node000002"><a xlink:title=" ">
<path fill="none" stroke="#63b8ff" d="M90,-177.52C90,-169.04 90,-160.22 90,-151.48"/>
<polygon fill="none" stroke="#63b8ff" points="86.5,-177.31 90,-187.31 93.5,-177.31 86.5,-177.31"/>
</a>
</g>
</g>
<!-- Node3 -->
<g id="Node000003" class="node">
<title>Node3</title>
<g id="a_Node000003"><a xlink:href="class_ship.html" target="_top" xlink:title="함선의 전체 기능과 상태를 관리하는 클래스. 방 배치, 시스템 초기화, 전투 처리, 자원 계산, 스탯 갱신 등의 기능을 포함합니다.">
<polygon fill="white" stroke="none" points="180,-855.5 0,-855.5 0,-334 180,-334 180,-855.5"/>
<text text-anchor="start" x="79.5" y="-842" font-family="Consolas" font-size="10.00">Ship</text>
<text text-anchor="start" x="4" y="-827.5" font-family="Consolas" font-size="10.00">+</text>
<text text-anchor="start" x="13.25" y="-827.5" font-family="Consolas" font-size="10.00">GameObject testRoomPrefab1</text>
<text text-anchor="start" x="4" y="-813" font-family="Consolas" font-size="10.00">+</text>
<text text-anchor="start" x="13.25" y="-813" font-family="Consolas" font-size="10.00">GameObject testRoomPrefab2</text>
<text text-anchor="start" x="4" y="-798.5" font-family="Consolas" font-size="10.00">+</text>
<text text-anchor="start" x="13.25" y="-798.5" font-family="Consolas" font-size="10.00">bool AddRoom(Room room,</text>
<text text-anchor="start" x="13.25" y="-788" font-family="Consolas" font-size="10.00"> Vector2Int position)</text>
<text text-anchor="start" x="4" y="-773.5" font-family="Consolas" font-size="10.00">+</text>
<text text-anchor="start" x="13.25" y="-773.5" font-family="Consolas" font-size="10.00">bool RemoveRoom(Room</text>
<text text-anchor="start" x="13.25" y="-763" font-family="Consolas" font-size="10.00"> room)</text>
<text text-anchor="start" x="4" y="-748.5" font-family="Consolas" font-size="10.00">+</text>
<text text-anchor="start" x="13.25" y="-748.5" font-family="Consolas" font-size="10.00">bool AddDoor(Vector2Int</text>
<text text-anchor="start" x="13.25" y="-738" font-family="Consolas" font-size="10.00"> position, bool isVertical)</text>
<text text-anchor="start" x="4" y="-723.5" font-family="Consolas" font-size="10.00">+</text>
<text text-anchor="start" x="13.25" y="-723.5" font-family="Consolas" font-size="10.00">T GetRoomOfType&lt; T &gt;()</text>
<text text-anchor="start" x="4" y="-709" font-family="Consolas" font-size="10.00">+</text>
<text text-anchor="start" x="13.25" y="-709" font-family="Consolas" font-size="10.00">List&lt; Room &gt; GetRoomsByType</text>
<text text-anchor="start" x="13.25" y="-698.5" font-family="Consolas" font-size="10.00">(RoomType type)</text>
<text text-anchor="start" x="4" y="-684" font-family="Consolas" font-size="10.00">+</text>
<text text-anchor="start" x="13.25" y="-684" font-family="Consolas" font-size="10.00">T GetSystem&lt; T &gt;()</text>
<text text-anchor="start" x="4" y="-669.5" font-family="Consolas" font-size="10.00">+</text>
<text text-anchor="start" x="13.25" y="-669.5" font-family="Consolas" font-size="10.00">void RecalculateAllStats()</text>
<text text-anchor="start" x="4" y="-655" font-family="Consolas" font-size="10.00">+</text>
<text text-anchor="start" x="13.25" y="-655" font-family="Consolas" font-size="10.00">float GetStat(ShipStat</text>
<text text-anchor="start" x="13.25" y="-644.5" font-family="Consolas" font-size="10.00"> statType)</text>
<text text-anchor="start" x="4" y="-630" font-family="Consolas" font-size="10.00">+</text>
<text text-anchor="start" x="13.25" y="-630" font-family="Consolas" font-size="10.00">Dictionary&lt; ShipStat,</text>
<text text-anchor="start" x="13.25" y="-619.5" font-family="Consolas" font-size="10.00"> float &gt; GetRoomContributions</text>
<text text-anchor="start" x="13.25" y="-609" font-family="Consolas" font-size="10.00">(string roomName)</text>
<text text-anchor="start" x="4" y="-594.5" font-family="Consolas" font-size="10.00">+</text>
<text text-anchor="start" x="13.25" y="-594.5" font-family="Consolas" font-size="10.00">void TakeAttack(float</text>
<text text-anchor="start" x="13.25" y="-584" font-family="Consolas" font-size="10.00"> damage, WeaponType weaponType,</text>
<text text-anchor="start" x="13.25" y="-573.5" font-family="Consolas" font-size="10.00"> Vector2Int hitPosition)</text>
<text text-anchor="start" x="4" y="-559" font-family="Consolas" font-size="10.00">+</text>
<text text-anchor="start" x="13.25" y="-559" font-family="Consolas" font-size="10.00">void TakeDamage(float</text>
<text text-anchor="start" x="13.25" y="-548.5" font-family="Consolas" font-size="10.00"> damage)</text>
<text text-anchor="start" x="4" y="-534" font-family="Consolas" font-size="10.00">+</text>
<text text-anchor="start" x="13.25" y="-534" font-family="Consolas" font-size="10.00">void OnShipDestroyed()</text>
<text text-anchor="start" x="4" y="-519.5" font-family="Consolas" font-size="10.00">+</text>
<text text-anchor="start" x="13.25" y="-519.5" font-family="Consolas" font-size="10.00">bool Warp()</text>
<text text-anchor="start" x="4" y="-505" font-family="Consolas" font-size="10.00">+</text>
<text text-anchor="start" x="13.25" y="-505" font-family="Consolas" font-size="10.00">float CalculateWarpFuelCost()</text>
<text text-anchor="start" x="4" y="-490.5" font-family="Consolas" font-size="10.00">+</text>
<text text-anchor="start" x="13.25" y="-490.5" font-family="Consolas" font-size="10.00">int GetCrewCount()</text>
<text text-anchor="start" x="4" y="-476" font-family="Consolas" font-size="10.00">+</text>
<text text-anchor="start" x="13.25" y="-476" font-family="Consolas" font-size="10.00">int GetMaxCrew()</text>
<text text-anchor="start" x="4" y="-461.5" font-family="Consolas" font-size="10.00">+</text>
<text text-anchor="start" x="13.25" y="-461.5" font-family="Consolas" font-size="10.00">List&lt; Room &gt; GetAllRooms()</text>
<text text-anchor="start" x="4" y="-447" font-family="Consolas" font-size="10.00">+</text>
<text text-anchor="start" x="13.25" y="-447" font-family="Consolas" font-size="10.00">List&lt; Door &gt; GetAllDoors()</text>
<text text-anchor="start" x="4" y="-432.5" font-family="Consolas" font-size="10.00">+</text>
<text text-anchor="start" x="13.25" y="-432.5" font-family="Consolas" font-size="10.00">List&lt; CrewBase &gt; GetAllCrew()</text>
<text text-anchor="start" x="4" y="-418" font-family="Consolas" font-size="10.00">+</text>
<text text-anchor="start" x="13.25" y="-418" font-family="Consolas" font-size="10.00">List&lt; ShipWeapon &gt;</text>
<text text-anchor="start" x="13.25" y="-407.5" font-family="Consolas" font-size="10.00"> GetAllWeapons()</text>
<text text-anchor="start" x="4" y="-393" font-family="Consolas" font-size="10.00">+</text>
<text text-anchor="start" x="13.25" y="-393" font-family="Consolas" font-size="10.00">float GetCurrentHitPoints()</text>
<text text-anchor="start" x="4" y="-378.5" font-family="Consolas" font-size="10.00">+</text>
<text text-anchor="start" x="13.25" y="-378.5" font-family="Consolas" font-size="10.00">Vector2Int GetRandomTarget</text>
<text text-anchor="start" x="13.25" y="-368" font-family="Consolas" font-size="10.00">Position()</text>
<text text-anchor="start" x="4" y="-353.5" font-family="Consolas" font-size="10.00">+</text>
<text text-anchor="start" x="13.25" y="-353.5" font-family="Consolas" font-size="10.00">float GetOxygenRate()</text>
<text text-anchor="start" x="4" y="-339" font-family="Consolas" font-size="10.00">+</text>
<text text-anchor="start" x="13.25" y="-339" font-family="Consolas" font-size="10.00">OxygenLevel GetOxygenLevel()</text>
<polygon fill="#666666" stroke="#666666" points="0,-839 0,-839 180,-839 180,-839 0,-839"/>
<polygon fill="#666666" stroke="#666666" points="0,-810 0,-810 11.25,-810 11.25,-810 0,-810"/>
<polygon fill="#666666" stroke="#666666" points="11.25,-810 11.25,-810 180,-810 180,-810 11.25,-810"/>
<polygon fill="none" stroke="#666666" points="0,-334 0,-855.5 180,-855.5 180,-334 0,-334"/>
</a>
</g>
</g>
<!-- Node3&#45;&gt;Node2 -->
<g id="edge2_Node000002_Node000003" class="edge">
<title>Node3&#45;&gt;Node2</title>
<g id="a_edge2_Node000002_Node000003"><a xlink:title=" ">
<path fill="none" stroke="#63b8ff" d="M90,-334.45C90,-321.7 90,-309.66 90,-298.7"/>
<polygon fill="none" stroke="#63b8ff" points="90,-298.78 86,-292.78 90,-286.78 94,-292.78 90,-298.78"/>
</a>
</g>
<text text-anchor="middle" x="117.38" y="-306.5" font-family="Helvetica,sans-Serif" font-size="10.00" fill="grey"> #parentShip</text>
</g>
<!-- Node4 -->
<g id="Node000004" class="node">
<title>Node4</title>
<g id="a_Node000004"><a xlink:title=" ">
<polygon fill="white" stroke="none" points="128.12,-940 51.88,-940 51.88,-892.5 128.12,-892.5 128.12,-940"/>
<text text-anchor="start" x="55.88" y="-926.5" font-family="Consolas" font-size="10.00">MonoBehaviour</text>
<text text-anchor="start" x="87.38" y="-912" font-family="Consolas" font-size="10.00"> </text>
<text text-anchor="start" x="87.38" y="-897.5" font-family="Consolas" font-size="10.00"> </text>
<polygon fill="#bfbfbf" stroke="#bfbfbf" points="51.88,-923.5 51.88,-923.5 128.12,-923.5 128.12,-923.5 51.88,-923.5"/>
<polygon fill="#bfbfbf" stroke="#bfbfbf" points="51.88,-909 51.88,-909 128.12,-909 128.12,-909 51.88,-909"/>
<polygon fill="none" stroke="#bfbfbf" points="51.88,-892.5 51.88,-940 128.12,-940 128.12,-892.5 51.88,-892.5"/>
</a>
</g>
</g>
<!-- Node4&#45;&gt;Node3 -->
<g id="edge3_Node000003_Node000004" class="edge">
<title>Node4&#45;&gt;Node3</title>
<g id="a_edge3_Node000003_Node000004"><a xlink:title=" ">
<path fill="none" stroke="#63b8ff" d="M90,-881.09C90,-873.47 90,-864.83 90,-855.41"/>
<polygon fill="none" stroke="#63b8ff" points="86.5,-881.01 90,-891.01 93.5,-881.01 86.5,-881.01"/>
</a>
</g>
</g>
</g>
</svg>
