<?xml version="1.0" encoding="UTF-8" standalone="no"?>
<!DOCTYPE svg PUBLIC "-//W3C//DTD SVG 1.1//EN"
 "http://www.w3.org/Graphics/SVG/1.1/DTD/svg11.dtd">
<!-- Generated by graphviz version 12.2.1 (20241206.2353)
 -->
<!-- Title: PowerSystem.RequestPowerForRoom Pages: 1 -->
<!--zoomable 123 -->

<svg id="main" version="1.1" xmlns="http://www.w3.org/2000/svg" xmlns:xlink="http://www.w3.org/1999/xlink" xml:space="preserve" onload="init(evt)">

<style type="text/css"><![CDATA[
.node, .edge {opacity: 0.7;}
.node.selected, .edge.selected {opacity: 1;}
.edge:hover path { stroke: red; }
.edge:hover polygon { stroke: red; fill: red; }
]]></style>

<defs>
  <circle id="rim" cx="0" cy="0" r="7"/>
  <circle id="rim2" cx="0" cy="0" r="3.5"/>
  <g id="zoomPlus">
    <use xlink:href="#rim" fill="#404040"><set attributeName="fill" to="#808080" begin="zoomplus.mouseover" end="zoomplus.mouseout"/></use>
    <path d="M-4,0h8M0,-4v8" fill="none" stroke="white" stroke-width="1.5" pointer-events="none"/>
  </g>
  <g id="zoomMin">
    <use xlink:href="#rim" fill="#404040"><set attributeName="fill" to="#808080" begin="zoomminus.mouseover" end="zoomminus.mouseout"/></use>
    <path d="M-4,0h8" fill="none" stroke="white" stroke-width="1.5" pointer-events="none"/>
  </g>
  <g id="arrowUp" transform="translate(30 24)">
    <use xlink:href="#rim"/>
    <path pointer-events="none" fill="none" stroke="white" stroke-width="1.5" d="M0,-3.0v7 M-2.5,-0.5L0,-3.0L2.5,-0.5"/>
  </g>
  <g id="arrowRight" transform="rotate(90) translate(36 -43)">
    <use xlink:href="#rim"/>
    <path pointer-events="none" fill="none" stroke="white" stroke-width="1.5" d="M0,-3.0v7 M-2.5,-0.5L0,-3.0L2.5,-0.5"/>
  </g>
  <g id="arrowDown" transform="rotate(180) translate(-30 -48)">
    <use xlink:href="#rim"/>
    <path pointer-events="none" fill="none" stroke="white" stroke-width="1.5" d="M0,-3.0v7 M-2.5,-0.5L0,-3.0L2.5,-0.5"/>
  </g>
  <g id="arrowLeft" transform="rotate(270) translate(-36 17)">
    <use xlink:href="#rim"/>
    <path pointer-events="none" fill="none" stroke="white" stroke-width="1.5" d="M0,-3.0v7 M-2.5,-0.5L0,-3.0L2.5,-0.5"/>
  </g>
  <g id="resetDef">
    <use xlink:href="#rim2" fill="#404040"><set attributeName="fill" to="#808080" begin="reset.mouseover" end="reset.mouseout"/></use>
  </g>
</defs>
<script type="application/ecmascript">
var viewWidth = 644;
var viewHeight = 123;
var sectionId = 'dynsection-2';
</script>
<script type="application/ecmascript" xlink:href="svg.min.js"/>
<svg id="graph" class="graph">
<g id="viewport">
<title>PowerSystem.RequestPowerForRoom</title>
<!-- Node1 -->
<g id="Node000001" class="node">
<title>Node1</title>
<g id="a_Node000001"><a xlink:title="특정 방에 전원을 공급하거나 차단합니다. 전원을 끄는 요청은 항상 성공하며, 전원을 켜는 경우엔 남은 전력을 확인합니다.">
<polygon fill="#999999" stroke="#666666" points="145,-83 0,-83 0,-51 145,-51 145,-83"/>
<text text-anchor="start" x="8" y="-69.5" font-family="Helvetica,sans-Serif" font-size="10.00">PowerSystem.RequestPower</text>
<text text-anchor="middle" x="72.5" y="-57.5" font-family="Helvetica,sans-Serif" font-size="10.00">ForRoom</text>
</a>
</g>
</g>
<!-- Node2 -->
<g id="Node000002" class="node">
<title>Node2</title>
<g id="a_Node000002"><a xlink:href="class_room.html#a0eb6348919c66331123fa24ad1abbcba" target="_top" xlink:title="최대 업그레이드 레벨을 반환합니다.">
<polygon fill="white" stroke="#666666" points="327.5,-115 181,-115 181,-95 327.5,-95 327.5,-115"/>
<text text-anchor="middle" x="254.25" y="-101.5" font-family="Helvetica,sans-Serif" font-size="10.00">Room.GetPowerConsumption</text>
</a>
</g>
</g>
<!-- Node1&#45;&gt;Node2 -->
<g id="edge1_Node000001_Node000002" class="edge">
<title>Node1&#45;&gt;Node2</title>
<g id="a_edge1_Node000001_Node000002"><a xlink:title=" ">
<path fill="none" stroke="#63b8ff" d="M145.32,-82.18C161.05,-85.51 177.56,-89 192.8,-92.22"/>
<polygon fill="#63b8ff" stroke="#63b8ff" points="191.66,-95.56 202.16,-94.2 193.1,-88.71 191.66,-95.56"/>
</a>
</g>
</g>
<!-- Node3 -->
<g id="Node000003" class="node">
<title>Node3</title>
<g id="a_Node000003"><a xlink:href="class_ship_system.html#a0c4c206aa7e875dc6810ea122e46b332" target="_top" xlink:title="현재 함선의 특정 스탯 값을 가져옵니다.">
<polygon fill="white" stroke="#666666" points="317,-77 191.5,-77 191.5,-57 317,-57 317,-77"/>
<text text-anchor="middle" x="254.25" y="-63.5" font-family="Helvetica,sans-Serif" font-size="10.00">ShipSystem.GetShipStat</text>
</a>
</g>
</g>
<!-- Node1&#45;&gt;Node3 -->
<g id="edge2_Node000001_Node000003" class="edge">
<title>Node1&#45;&gt;Node3</title>
<g id="a_edge2_Node000001_Node000003"><a xlink:title=" ">
<path fill="none" stroke="#63b8ff" d="M145.32,-67C156.68,-67 168.45,-67 179.86,-67"/>
<polygon fill="#63b8ff" stroke="#63b8ff" points="179.6,-70.5 189.6,-67 179.6,-63.5 179.6,-70.5"/>
</a>
</g>
</g>
<!-- Node4 -->
<g id="Node000004" class="node">
<title>Node4</title>
<g id="a_Node000004"><a xlink:href="class_room.html#ab76d9c0997d31eac663a984e487655cd" target="_top" xlink:title="전력 공급 상태를 설정합니다.">
<polygon fill="white" stroke="#666666" points="312.5,-39 196,-39 196,-19 312.5,-19 312.5,-39"/>
<text text-anchor="middle" x="254.25" y="-25.5" font-family="Helvetica,sans-Serif" font-size="10.00">Room.SetPowerStatus</text>
</a>
</g>
</g>
<!-- Node1&#45;&gt;Node4 -->
<g id="edge3_Node000001_Node000004" class="edge">
<title>Node1&#45;&gt;Node4</title>
<g id="a_edge3_Node000001_Node000004"><a xlink:title=" ">
<path fill="none" stroke="#63b8ff" d="M145.32,-51.82C161.05,-48.49 177.56,-45 192.8,-41.78"/>
<polygon fill="#63b8ff" stroke="#63b8ff" points="193.1,-45.29 202.16,-39.8 191.66,-38.44 193.1,-45.29"/>
</a>
</g>
</g>
<!-- Node5 -->
<g id="Node000005" class="node">
<title>Node5</title>
<g id="a_Node000005"><a xlink:href="class_room.html#ac222ae4ac4c382283f339a4cfc3cded6" target="_top" xlink:title="상태 변경을 알립니다.">
<polygon fill="white" stroke="#666666" points="497.25,-58 363.5,-58 363.5,-38 497.25,-38 497.25,-58"/>
<text text-anchor="middle" x="430.38" y="-44.5" font-family="Helvetica,sans-Serif" font-size="10.00">Room.NotifyStateChanged</text>
</a>
</g>
</g>
<!-- Node4&#45;&gt;Node5 -->
<g id="edge4_Node000004_Node000005" class="edge">
<title>Node4&#45;&gt;Node5</title>
<g id="a_edge4_Node000004_Node000005"><a xlink:title=" ">
<path fill="none" stroke="#63b8ff" d="M312.75,-35.27C325.24,-36.64 338.65,-38.1 351.77,-39.53"/>
<polygon fill="#63b8ff" stroke="#63b8ff" points="351.36,-43.01 361.69,-40.61 352.12,-36.05 351.36,-43.01"/>
</a>
</g>
</g>
<!-- Node6 -->
<g id="Node000006" class="node">
<title>Node6</title>
<g id="a_Node000006"><a xlink:href="class_room.html#ae27efaeaba4cd66e7edf0cb42232e131" target="_top" xlink:title="방의 이펙트(색상, 파티클 등)를 업데이트합니다.">
<polygon fill="white" stroke="#666666" points="484.12,-20 376.62,-20 376.62,0 484.12,0 484.12,-20"/>
<text text-anchor="middle" x="430.38" y="-6.5" font-family="Helvetica,sans-Serif" font-size="10.00">Room.UpdateEffects</text>
</a>
</g>
</g>
<!-- Node4&#45;&gt;Node6 -->
<g id="edge5_Node000004_Node000006" class="edge">
<title>Node4&#45;&gt;Node6</title>
<g id="a_edge5_Node000004_Node000006"><a xlink:title=" ">
<path fill="none" stroke="#63b8ff" d="M312.75,-22.73C329.57,-20.89 348.06,-18.87 365.26,-17"/>
<polygon fill="#63b8ff" stroke="#63b8ff" points="365.29,-20.51 374.85,-15.95 364.53,-13.56 365.29,-20.51"/>
</a>
</g>
</g>
<!-- Node7 -->
<g id="Node000007" class="node">
<title>Node7</title>
<g id="a_Node000007"><a xlink:href="class_room.html#a0f32e752b4605a8bba077145b76b8e98" target="_top" xlink:title="방이 작동 가능한 상태인지 확인합니다.">
<polygon fill="white" stroke="#666666" points="636.25,-20 533.25,-20 533.25,0 636.25,0 636.25,-20"/>
<text text-anchor="middle" x="584.75" y="-6.5" font-family="Helvetica,sans-Serif" font-size="10.00">Room.IsOperational</text>
</a>
</g>
</g>
<!-- Node6&#45;&gt;Node7 -->
<g id="edge6_Node000006_Node000007" class="edge">
<title>Node6&#45;&gt;Node7</title>
<g id="a_edge6_Node000006_Node000007"><a xlink:title=" ">
<path fill="none" stroke="#63b8ff" d="M484.24,-10C496.28,-10 509.19,-10 521.58,-10"/>
<polygon fill="#63b8ff" stroke="#63b8ff" points="521.26,-13.5 531.26,-10 521.26,-6.5 521.26,-13.5"/>
</a>
</g>
</g>
</g>
</svg>

<g id="navigator" transform="translate(0 0)" fill="#404254">
  <rect fill="#f2f5e9" fill-opacity="0.5" stroke="#606060" stroke-width=".5" x="0" y="0" width="60" height="60"/>
  <use id="zoomplus" xlink:href="#zoomPlus" x="17" y="9" onmousedown="handleZoom(evt,'in')"/>
  <use id="zoomminus" xlink:href="#zoomMin" x="42" y="9" onmousedown="handleZoom(evt,'out')"/>
  <use id="reset" xlink:href="#resetDef" x="30" y="36" onmousedown="handleReset()"/>
   <use id="arrowup" xlink:href="#arrowUp" x="0" y="0" onmousedown="handlePan(0,-1)"/>
  <use id="arrowright" xlink:href="#arrowRight" x="0" y="0" onmousedown="handlePan(1,0)"/>
  <use id="arrowdown" xlink:href="#arrowDown" x="0" y="0" onmousedown="handlePan(0,1)"/>
  <use id="arrowleft" xlink:href="#arrowLeft" x="0" y="0" onmousedown="handlePan(-1,0)"/>
</g>
<svg viewBox="0 0 15 15" width="100%" height="30px" preserveAspectRatio="xMaxYMin meet">
 <g id="arrow_out" transform="scale(0.3 0.3)">
  <a xlink:href="class_power_system_af311ccf5242a2eba89ba389034c7e60e_cgraph_org.svg" target="_base">
   <rect id="button" ry="5" rx="5" y="6" x="6" height="38" width="38"
        fill="#f2f5e9" fill-opacity="0.5" stroke="#606060" stroke-width="1.0"/>
   <path id="arrow"
     d="M 11.500037,31.436501 C 11.940474,20.09759 22.043105,11.32322 32.158766,21.979434 L 37.068811,17.246167 C 37.068811,17.246167 37.088388,32 37.088388,32 L 22.160133,31.978069 C 22.160133,31.978069 26.997745,27.140456 26.997745,27.140456 C 18.528582,18.264221 13.291696,25.230495 11.500037,31.436501 z"
     style="fill:#404040;"/>
  </a>
 </g>
</svg>

<style type='text/css'>
<![CDATA[
[data-mouse-over-selected='false'] { opacity: 0.7; }
[data-mouse-over-selected='true']  { opacity: 1.0; }
]]>
</style>
<script type="application/ecmascript"><![CDATA[
document.addEventListener('DOMContentLoaded', (event) => {
  highlightEdges();
  highlightAdjacentNodes();
});
]]></script>
</svg>
