<?xml version="1.0" encoding="UTF-8" standalone="no"?>
<!DOCTYPE svg PUBLIC "-//W3C//DTD SVG 1.1//EN"
 "http://www.w3.org/Graphics/SVG/1.1/DTD/svg11.dtd">
<!-- Generated by graphviz version 12.2.1 (20241206.2353)
 -->
<!-- Title: Projectile Pages: 1 -->
<svg width="146pt" height="150pt"
 viewBox="0.00 0.00 146.00 149.50" xmlns="http://www.w3.org/2000/svg" xmlns:xlink="http://www.w3.org/1999/xlink">
<g id="graph0" class="graph" transform="scale(1 1) rotate(0) translate(4 145.5)">
<title>Projectile</title>
<!-- Node1 -->
<g id="Node000001" class="node">
<title>Node1</title>
<g id="a_Node000001"><a xlink:title="전투 중 발사된 투사체의 이동 및 충돌을 처리하는 클래스입니다. 목표 지점까지 이동하며, 충돌 시 지정된 콜백을 실행합니다.">
<polygon fill="#999999" stroke="none" points="138,-58 0,-58 0,0 138,0 138,-58"/>
<text text-anchor="start" x="42.75" y="-44.5" font-family="Consolas" font-size="10.00">Projectile</text>
<text text-anchor="start" x="66.38" y="-30" font-family="Consolas" font-size="10.00"> </text>
<text text-anchor="start" x="4" y="-15.5" font-family="Consolas" font-size="10.00">+</text>
<text text-anchor="start" x="13.25" y="-15.5" font-family="Consolas" font-size="10.00">void Initialize(Vector2</text>
<text text-anchor="start" x="13.25" y="-5" font-family="Consolas" font-size="10.00"> target, Action onHit)</text>
<polygon fill="#666666" stroke="#666666" points="0,-41.5 0,-41.5 138,-41.5 138,-41.5 0,-41.5"/>
<polygon fill="#666666" stroke="#666666" points="0,-27 0,-27 138,-27 138,-27 0,-27"/>
<polygon fill="none" stroke="#666666" points="0,0 0,-58 138,-58 138,0 0,0"/>
</a>
</g>
</g>
<!-- Node2 -->
<g id="Node000002" class="node">
<title>Node2</title>
<g id="a_Node000002"><a xlink:title=" ">
<polygon fill="white" stroke="none" points="107.12,-141.5 30.88,-141.5 30.88,-94 107.12,-94 107.12,-141.5"/>
<text text-anchor="start" x="34.88" y="-128" font-family="Consolas" font-size="10.00">MonoBehaviour</text>
<text text-anchor="start" x="66.38" y="-113.5" font-family="Consolas" font-size="10.00"> </text>
<text text-anchor="start" x="66.38" y="-99" font-family="Consolas" font-size="10.00"> </text>
<polygon fill="#bfbfbf" stroke="#bfbfbf" points="30.88,-125 30.88,-125 107.12,-125 107.12,-125 30.88,-125"/>
<polygon fill="#bfbfbf" stroke="#bfbfbf" points="30.88,-110.5 30.88,-110.5 107.12,-110.5 107.12,-110.5 30.88,-110.5"/>
<polygon fill="none" stroke="#bfbfbf" points="30.88,-94 30.88,-141.5 107.12,-141.5 107.12,-94 30.88,-94"/>
</a>
</g>
</g>
<!-- Node2&#45;&gt;Node1 -->
<g id="edge1_Node000001_Node000002" class="edge">
<title>Node2&#45;&gt;Node1</title>
<g id="a_edge1_Node000001_Node000002"><a xlink:title=" ">
<path fill="none" stroke="#63b8ff" d="M69,-83.09C69,-74.74 69,-65.89 69,-57.86"/>
<polygon fill="none" stroke="#63b8ff" points="65.5,-82.9 69,-92.9 72.5,-82.9 65.5,-82.9"/>
</a>
</g>
</g>
</g>
</svg>
