<?xml version="1.0" encoding="UTF-8" standalone="no"?>
<!DOCTYPE svg PUBLIC "-//W3C//DTD SVG 1.1//EN"
 "http://www.w3.org/Graphics/SVG/1.1/DTD/svg11.dtd">
<!-- Generated by graphviz version 12.2.1 (20241206.2353)
 -->
<!-- Title: CombatManager Pages: 1 -->
<svg width="200pt" height="233pt"
 viewBox="0.00 0.00 199.75 232.50" xmlns="http://www.w3.org/2000/svg" xmlns:xlink="http://www.w3.org/1999/xlink">

<svg id="main" version="1.1" xmlns="http://www.w3.org/2000/svg" xmlns:xlink="http://www.w3.org/1999/xlink" xml:space="preserve">

<style type="text/css"><![CDATA[
.node, .edge {opacity: 0.7;}
.node.selected, .edge.selected {opacity: 1;}
.edge:hover path { stroke: red; }
.edge:hover polygon { stroke: red; fill: red; }
]]></style>
<script type="application/ecmascript" xlink:href="svg.min.js"/>
<svg id="graph" class="graph">
<g id="graph0" class="graph" transform="scale(1 1) rotate(0) translate(4 228.5)">
<title>CombatManager</title>
<!-- Node1 -->
<g id="Node000001" class="node">
<title>Node1</title>
<g id="a_Node000001"><a xlink:title="전투 전체 흐름을 관리하는 매니저 클래스입니다. 전투 상태를 전환하고, 관련 컨트롤러를 초기화하거나 업데이트합니다.">
<polygon fill="#999999" stroke="none" points="167,-112 13.25,-112 13.25,0 167,0 167,-112"/>
<text text-anchor="start" x="56" y="-98.5" font-family="Consolas" font-size="10.00">CombatManager</text>
<text text-anchor="start" x="17.25" y="-84" font-family="Consolas" font-size="10.00">+</text>
<text text-anchor="start" x="26.5" y="-84" font-family="Consolas" font-size="10.00">OuterShipCombatController</text>
<text text-anchor="start" x="26.5" y="-73.5" font-family="Consolas" font-size="10.00"> outerShipCombatController</text>
<text text-anchor="start" x="17.25" y="-59" font-family="Consolas" font-size="10.00">+</text>
<text text-anchor="start" x="26.5" y="-59" font-family="Consolas" font-size="10.00">static CombatManager</text>
<text text-anchor="start" x="26.5" y="-48.5" font-family="Consolas" font-size="10.00"> Instance</text>
<text text-anchor="start" x="17.25" y="-34" font-family="Consolas" font-size="10.00">+</text>
<text text-anchor="start" x="26.5" y="-34" font-family="Consolas" font-size="10.00">void Enter()</text>
<text text-anchor="start" x="17.25" y="-19.5" font-family="Consolas" font-size="10.00">+</text>
<text text-anchor="start" x="26.5" y="-19.5" font-family="Consolas" font-size="10.00">void Update()</text>
<text text-anchor="start" x="17.25" y="-5" font-family="Consolas" font-size="10.00">+</text>
<text text-anchor="start" x="26.5" y="-5" font-family="Consolas" font-size="10.00">void Exit()</text>
<polygon fill="#666666" stroke="#666666" points="13.25,-95.5 13.25,-95.5 167,-95.5 167,-95.5 13.25,-95.5"/>
<polygon fill="#666666" stroke="#666666" points="13.25,-45.5 13.25,-45.5 24.5,-45.5 24.5,-45.5 13.25,-45.5"/>
<polygon fill="#666666" stroke="#666666" points="24.5,-45.5 24.5,-45.5 167,-45.5 167,-45.5 24.5,-45.5"/>
<polygon fill="none" stroke="#666666" points="13.25,0 13.25,-112 167,-112 167,0 13.25,0"/>
</a>
</g>
</g>
<!-- Node2 -->
<g id="Node000002" class="node">
<title>Node2</title>
<g id="a_Node000002"><a xlink:title=" ">
<polygon fill="white" stroke="none" points="76.25,-210 0,-210 0,-162.5 76.25,-162.5 76.25,-210"/>
<text text-anchor="start" x="4" y="-196.5" font-family="Consolas" font-size="10.00">MonoBehaviour</text>
<text text-anchor="start" x="35.5" y="-182" font-family="Consolas" font-size="10.00"> </text>
<text text-anchor="start" x="35.5" y="-167.5" font-family="Consolas" font-size="10.00"> </text>
<polygon fill="#bfbfbf" stroke="#bfbfbf" points="0,-193.5 0,-193.5 76.25,-193.5 76.25,-193.5 0,-193.5"/>
<polygon fill="#bfbfbf" stroke="#bfbfbf" points="0,-179 0,-179 76.25,-179 76.25,-179 0,-179"/>
<polygon fill="none" stroke="#bfbfbf" points="0,-162.5 0,-210 76.25,-210 76.25,-162.5 0,-162.5"/>
</a>
</g>
</g>
<!-- Node2&#45;&gt;Node1 -->
<g id="edge1_Node000001_Node000002" class="edge">
<title>Node2&#45;&gt;Node1</title>
<g id="a_edge1_Node000001_Node000002"><a xlink:title=" ">
<path fill="none" stroke="#63b8ff" d="M51.6,-152.01C56.56,-139.77 62.32,-125.57 67.85,-111.93"/>
<polygon fill="none" stroke="#63b8ff" points="48.38,-150.63 47.87,-161.21 54.87,-153.26 48.38,-150.63"/>
</a>
</g>
</g>
<!-- Node3 -->
<g id="Node000003" class="node">
<title>Node3</title>
<g id="a_Node000003"><a xlink:href="interface_i_game_state_machine.html" target="_top" xlink:title=" ">
<polygon fill="white" stroke="none" points="191.75,-224.5 94.5,-224.5 94.5,-148 191.75,-148 191.75,-224.5"/>
<text text-anchor="start" x="98.5" y="-211" font-family="Consolas" font-size="10.00">IGameStateMachine</text>
<text text-anchor="start" x="140.5" y="-196.5" font-family="Consolas" font-size="10.00"> </text>
<text text-anchor="start" x="101.44" y="-182" font-family="Consolas" font-size="10.00">+</text>
<text text-anchor="start" x="113.62" y="-182" font-family="Consolas" font-size="10.00">void Enter()</text>
<text text-anchor="start" x="101.44" y="-167.5" font-family="Consolas" font-size="10.00">+</text>
<text text-anchor="start" x="113.62" y="-167.5" font-family="Consolas" font-size="10.00">void Update()</text>
<text text-anchor="start" x="101.44" y="-153" font-family="Consolas" font-size="10.00">+</text>
<text text-anchor="start" x="113.62" y="-153" font-family="Consolas" font-size="10.00">void Exit()</text>
<polygon fill="#bfbfbf" stroke="#bfbfbf" points="94.5,-208 94.5,-208 191.75,-208 191.75,-208 94.5,-208"/>
<polygon fill="#bfbfbf" stroke="#bfbfbf" points="94.5,-193.5 94.5,-193.5 191.75,-193.5 191.75,-193.5 94.5,-193.5"/>
<polygon fill="none" stroke="#bfbfbf" points="94.5,-148 94.5,-224.5 191.75,-224.5 191.75,-148 94.5,-148"/>
</a>
</g>
</g>
<!-- Node3&#45;&gt;Node1 -->
<g id="edge2_Node000001_Node000003" class="edge">
<title>Node3&#45;&gt;Node1</title>
<g id="a_edge2_Node000001_Node000003"><a xlink:title=" ">
<path fill="none" stroke="#63b8ff" d="M123.47,-137.69C119.97,-129.21 116.29,-120.32 112.72,-111.67"/>
<polygon fill="none" stroke="#63b8ff" points="120.16,-138.85 127.22,-146.76 126.63,-136.18 120.16,-138.85"/>
</a>
</g>
</g>
</g>
</svg>
</svg>

<style type='text/css'>
<![CDATA[
[data-mouse-over-selected='false'] { opacity: 0.7; }
[data-mouse-over-selected='true']  { opacity: 1.0; }
]]>
</style>
<script type="application/ecmascript"><![CDATA[
document.addEventListener('DOMContentLoaded', (event) => {
  highlightEdges();
  highlightAdjacentNodes();
});
]]></script>
</svg>
