<?xml version="1.0" encoding="UTF-8" standalone="no"?>
<!DOCTYPE svg PUBLIC "-//W3C//DTD SVG 1.1//EN"
 "http://www.w3.org/Graphics/SVG/1.1/DTD/svg11.dtd">
<!-- Generated by graphviz version 12.2.1 (20241206.2353)
 -->
<!-- Title: ProjectileManager Pages: 1 -->
<svg width="94pt" height="148pt"
 viewBox="0.00 0.00 94.00 148.00" xmlns="http://www.w3.org/2000/svg" xmlns:xlink="http://www.w3.org/1999/xlink">
<g id="graph0" class="graph" transform="scale(1 1) rotate(0) translate(4 144)">
<title>ProjectileManager</title>
<!-- Node1 -->
<g id="Node000001" class="node">
<title>Node1</title>
<g id="a_Node000001"><a xlink:title=" ">
<polygon fill="#999999" stroke="none" points="86,-52 0,-52 0,0 86,0 86,-52"/>
<text text-anchor="start" x="4" y="-38.5" font-family="Helvetica,sans-Serif" font-size="10.00">ProjectileManager</text>
<text text-anchor="start" x="5.25" y="-22.5" font-family="Helvetica,sans-Serif" font-size="10.00">+</text>
<text text-anchor="start" x="16.5" y="-22.5" font-family="Helvetica,sans-Serif" font-size="10.00">Instance</text>
<text text-anchor="start" x="5.25" y="-6.5" font-family="Helvetica,sans-Serif" font-size="10.00">+</text>
<text text-anchor="start" x="16.5" y="-6.5" font-family="Helvetica,sans-Serif" font-size="10.00">FireProjectile()</text>
<polygon fill="#666666" stroke="#666666" points="0,-34 0,-34 86,-34 86,-34 0,-34"/>
<polygon fill="#666666" stroke="#666666" points="0,-18 0,-18 14.5,-18 14.5,-18 0,-18"/>
<polygon fill="#666666" stroke="#666666" points="14.5,-18 14.5,-18 86,-18 86,-18 14.5,-18"/>
<polygon fill="none" stroke="#666666" points="0,0 0,-52 86,-52 86,0 0,0"/>
</a>
</g>
</g>
<!-- Node2 -->
<g id="Node000002" class="node">
<title>Node2</title>
<g id="a_Node000002"><a xlink:title=" ">
<polygon fill="white" stroke="none" points="80.75,-140 5.25,-140 5.25,-88 80.75,-88 80.75,-140"/>
<text text-anchor="start" x="9.25" y="-126.5" font-family="Helvetica,sans-Serif" font-size="10.00">MonoBehaviour</text>
<text text-anchor="start" x="41.5" y="-110.5" font-family="Helvetica,sans-Serif" font-size="10.00"> </text>
<text text-anchor="start" x="41.5" y="-94.5" font-family="Helvetica,sans-Serif" font-size="10.00"> </text>
<polygon fill="#bfbfbf" stroke="#bfbfbf" points="5.25,-122 5.25,-122 80.75,-122 80.75,-122 5.25,-122"/>
<polygon fill="#bfbfbf" stroke="#bfbfbf" points="5.25,-106 5.25,-106 80.75,-106 80.75,-106 5.25,-106"/>
<polygon fill="none" stroke="#bfbfbf" points="5.25,-88 5.25,-140 80.75,-140 80.75,-88 5.25,-88"/>
</a>
</g>
</g>
<!-- Node2&#45;&gt;Node1 -->
<g id="edge1_Node000001_Node000002" class="edge">
<title>Node2&#45;&gt;Node1</title>
<g id="a_edge1_Node000001_Node000002"><a xlink:title=" ">
<path fill="none" stroke="#63b8ff" d="M43,-76.66C43,-68.29 43,-59.57 43,-51.82"/>
<polygon fill="none" stroke="#63b8ff" points="39.5,-76.61 43,-86.61 46.5,-76.61 39.5,-76.61"/>
</a>
</g>
</g>
</g>
</svg>
