<?xml version="1.0" encoding="UTF-8" standalone="no"?>
<!DOCTYPE svg PUBLIC "-//W3C//DTD SVG 1.1//EN"
 "http://www.w3.org/Graphics/SVG/1.1/DTD/svg11.dtd">
<!-- Generated by graphviz version 12.2.1 (20241206.2353)
 -->
<!-- Title: CrewInfoWrapper Pages: 1 -->
<svg width="167pt" height="395pt"
 viewBox="0.00 0.00 167.00 394.75" xmlns="http://www.w3.org/2000/svg" xmlns:xlink="http://www.w3.org/1999/xlink">

<svg id="main" version="1.1" xmlns="http://www.w3.org/2000/svg" xmlns:xlink="http://www.w3.org/1999/xlink" xml:space="preserve">

<style type="text/css"><![CDATA[
.node, .edge {opacity: 0.7;}
.node.selected, .edge.selected {opacity: 1;}
.edge:hover path { stroke: red; }
.edge:hover polygon { stroke: red; fill: red; }
]]></style>
<script type="application/ecmascript" xlink:href="svg.min.js"/>
<svg id="graph" class="graph">
<g id="graph0" class="graph" transform="scale(1 1) rotate(0) translate(4 390.75)">
<title>CrewInfoWrapper</title>
<!-- Node1 -->
<g id="Node000001" class="node">
<title>Node1</title>
<g id="a_Node000001"><a xlink:title=" ">
<polygon fill="#999999" stroke="none" points="117.62,-47.5 30.88,-47.5 30.88,0 117.62,0 117.62,-47.5"/>
<text text-anchor="start" x="34.88" y="-34" font-family="Consolas" font-size="10.00">CrewInfoWrapper</text>
<text text-anchor="start" x="71.62" y="-19.5" font-family="Consolas" font-size="10.00"> </text>
<text text-anchor="start" x="71.62" y="-5" font-family="Consolas" font-size="10.00"> </text>
<polygon fill="#666666" stroke="#666666" points="30.88,-31 30.88,-31 117.62,-31 117.62,-31 30.88,-31"/>
<polygon fill="#666666" stroke="#666666" points="30.88,-16.5 30.88,-16.5 117.62,-16.5 117.62,-16.5 30.88,-16.5"/>
<polygon fill="none" stroke="#666666" points="30.88,0 30.88,-47.5 117.62,-47.5 117.62,0 30.88,0"/>
</a>
</g>
</g>
<!-- Node2 -->
<g id="Node000002" class="node">
<title>Node2</title>
<g id="a_Node000002"><a xlink:href="class_crew_data.html" target="_top" xlink:title=" ">
<polygon fill="white" stroke="none" points="148.5,-386.75 0,-386.75 0,-155.5 148.5,-155.5 148.5,-386.75"/>
<text text-anchor="start" x="53.25" y="-373.25" font-family="Consolas" font-size="10.00">CrewData</text>
<text text-anchor="start" x="4" y="-358.75" font-family="Consolas" font-size="10.00">+</text>
<text text-anchor="start" x="13.25" y="-358.75" font-family="Consolas" font-size="10.00">int 공격력</text>
<text text-anchor="start" x="4" y="-343.5" font-family="Consolas" font-size="10.00">+</text>
<text text-anchor="start" x="13.25" y="-343.5" font-family="Consolas" font-size="10.00">int 방어력</text>
<text text-anchor="start" x="4" y="-328.25" font-family="Consolas" font-size="10.00">+</text>
<text text-anchor="start" x="13.25" y="-328.25" font-family="Consolas" font-size="10.00">int 체력</text>
<text text-anchor="start" x="4" y="-313" font-family="Consolas" font-size="10.00">+</text>
<text text-anchor="start" x="13.25" y="-313" font-family="Consolas" font-size="10.00">float 학습속도</text>
<text text-anchor="start" x="4" y="-297.75" font-family="Consolas" font-size="10.00">+</text>
<text text-anchor="start" x="13.25" y="-297.75" font-family="Consolas" font-size="10.00">string 산소호흡</text>
<text text-anchor="start" x="4" y="-282.5" font-family="Consolas" font-size="10.00">+</text>
<text text-anchor="start" x="13.25" y="-282.5" font-family="Consolas" font-size="10.00">int 조종실숙련도</text>
<text text-anchor="start" x="4" y="-267.25" font-family="Consolas" font-size="10.00">+</text>
<text text-anchor="start" x="13.25" y="-267.25" font-family="Consolas" font-size="10.00">int 엔진실숙련도</text>
<text text-anchor="start" x="4" y="-252" font-family="Consolas" font-size="10.00">+</text>
<text text-anchor="start" x="13.25" y="-252" font-family="Consolas" font-size="10.00">int 전력실숙련도</text>
<text text-anchor="start" x="4" y="-236.75" font-family="Consolas" font-size="10.00">+</text>
<text text-anchor="start" x="13.25" y="-236.75" font-family="Consolas" font-size="10.00">int 배리어실숙련도</text>
<text text-anchor="start" x="4" y="-221.5" font-family="Consolas" font-size="10.00">+</text>
<text text-anchor="start" x="13.25" y="-221.5" font-family="Consolas" font-size="10.00">int 조준석숙련도</text>
<text text-anchor="start" x="4" y="-206.25" font-family="Consolas" font-size="10.00">+</text>
<text text-anchor="start" x="13.25" y="-206.25" font-family="Consolas" font-size="10.00">int 탄약고숙련도</text>
<text text-anchor="start" x="4" y="-191" font-family="Consolas" font-size="10.00">+</text>
<text text-anchor="start" x="13.25" y="-191" font-family="Consolas" font-size="10.00">int 의무실숙련도</text>
<text text-anchor="start" x="4" y="-175.75" font-family="Consolas" font-size="10.00">+</text>
<text text-anchor="start" x="13.25" y="-175.75" font-family="Consolas" font-size="10.00">string 수리숙련도</text>
<text text-anchor="start" x="71.62" y="-160.5" font-family="Consolas" font-size="10.00"> </text>
<polygon fill="#bfbfbf" stroke="#bfbfbf" points="0,-370.25 0,-370.25 148.5,-370.25 148.5,-370.25 0,-370.25"/>
<polygon fill="#bfbfbf" stroke="#bfbfbf" points="0,-172 0,-172 11.25,-172 11.25,-172 0,-172"/>
<polygon fill="#bfbfbf" stroke="#bfbfbf" points="11.25,-172 11.25,-172 148.5,-172 148.5,-172 11.25,-172"/>
<polygon fill="none" stroke="#bfbfbf" points="0,-155.5 0,-386.75 148.5,-386.75 148.5,-155.5 0,-155.5"/>
</a>
</g>
</g>
<!-- Node2&#45;&gt;Node1 -->
<g id="edge1_Node000001_Node000002" class="edge">
<title>Node2&#45;&gt;Node1</title>
<g id="a_edge1_Node000001_Node000002"><a xlink:title=" ">
<path fill="none" stroke="#63b8ff" d="M74.25,-155.7C74.25,-121.12 74.25,-85.66 74.25,-60.38"/>
<polygon fill="none" stroke="#63b8ff" points="74.25,-60.35 70.25,-54.35 74.25,-48.35 78.25,-54.35 74.25,-60.35"/>
</a>
</g>
<text text-anchor="middle" x="116.62" y="-128" font-family="Helvetica,sans-Serif" font-size="10.00" fill="grey"> +곤충형</text>
<text text-anchor="middle" x="116.62" y="-116" font-family="Helvetica,sans-Serif" font-size="10.00" fill="grey">+돌격기계형</text>
<text text-anchor="middle" x="116.62" y="-104" font-family="Helvetica,sans-Serif" font-size="10.00" fill="grey">+부정형</text>
<text text-anchor="middle" x="116.62" y="-92" font-family="Helvetica,sans-Serif" font-size="10.00" fill="grey">+인간형</text>
<text text-anchor="middle" x="116.62" y="-80" font-family="Helvetica,sans-Serif" font-size="10.00" fill="grey">+지원기계형</text>
<text text-anchor="middle" x="116.62" y="-68" font-family="Helvetica,sans-Serif" font-size="10.00" fill="grey">+짐승형</text>
</g>
</g>
</svg>
</svg>

<style type='text/css'>
<![CDATA[
[data-mouse-over-selected='false'] { opacity: 0.7; }
[data-mouse-over-selected='true']  { opacity: 1.0; }
]]>
</style>
<script type="application/ecmascript"><![CDATA[
document.addEventListener('DOMContentLoaded', (event) => {
  highlightEdges();
  highlightAdjacentNodes();
});
]]></script>
</svg>
