<?xml version="1.0" encoding="UTF-8" standalone="no"?>
<!DOCTYPE svg PUBLIC "-//W3C//DTD SVG 1.1//EN"
 "http://www.w3.org/Graphics/SVG/1.1/DTD/svg11.dtd">
<!-- Generated by graphviz version 12.2.1 (20241206.2353)
 -->
<!-- Title: CrewBase Pages: 1 -->
<svg width="714pt" height="1653pt"
 viewBox="0.00 0.00 713.75 1653.00" xmlns="http://www.w3.org/2000/svg" xmlns:xlink="http://www.w3.org/1999/xlink">
<g id="graph0" class="graph" transform="scale(1 1) rotate(0) translate(4 1649)">
<title>CrewBase</title>
<!-- Node1 -->
<g id="Node000001" class="node">
<title>Node1</title>
<g id="a_Node000001"><a xlink:title=" ">
<polygon fill="#999999" stroke="none" points="424.34,-372 318.59,-372 318.59,0 424.34,0 424.34,-372"/>
<text text-anchor="start" x="348.59" y="-358.5" font-family="Helvetica,sans-Serif" font-size="10.00">CrewBase</text>
<text text-anchor="start" x="322.59" y="-342.5" font-family="Helvetica,sans-Serif" font-size="10.00">+</text>
<text text-anchor="start" x="332.59" y="-342.5" font-family="Helvetica,sans-Serif" font-size="10.00">crewName</text>
<text text-anchor="start" x="322.59" y="-326.5" font-family="Helvetica,sans-Serif" font-size="10.00">+</text>
<text text-anchor="start" x="332.59" y="-326.5" font-family="Helvetica,sans-Serif" font-size="10.00">isPlayerControlled</text>
<text text-anchor="start" x="322.59" y="-310.5" font-family="Helvetica,sans-Serif" font-size="10.00">+</text>
<text text-anchor="start" x="332.59" y="-310.5" font-family="Helvetica,sans-Serif" font-size="10.00">race</text>
<text text-anchor="start" x="322.59" y="-294.5" font-family="Helvetica,sans-Serif" font-size="10.00">+</text>
<text text-anchor="start" x="332.59" y="-294.5" font-family="Helvetica,sans-Serif" font-size="10.00">maxHealth</text>
<text text-anchor="start" x="322.59" y="-278.5" font-family="Helvetica,sans-Serif" font-size="10.00">+</text>
<text text-anchor="start" x="332.59" y="-278.5" font-family="Helvetica,sans-Serif" font-size="10.00">attack</text>
<text text-anchor="start" x="322.59" y="-262.5" font-family="Helvetica,sans-Serif" font-size="10.00">+</text>
<text text-anchor="start" x="332.59" y="-262.5" font-family="Helvetica,sans-Serif" font-size="10.00">defense</text>
<text text-anchor="start" x="322.59" y="-246.5" font-family="Helvetica,sans-Serif" font-size="10.00">+</text>
<text text-anchor="start" x="332.59" y="-246.5" font-family="Helvetica,sans-Serif" font-size="10.00">learningSpeed</text>
<text text-anchor="start" x="322.59" y="-230.5" font-family="Helvetica,sans-Serif" font-size="10.00">+</text>
<text text-anchor="start" x="332.59" y="-230.5" font-family="Helvetica,sans-Serif" font-size="10.00">needsOxygen</text>
<text text-anchor="start" x="322.59" y="-214.5" font-family="Helvetica,sans-Serif" font-size="10.00">+</text>
<text text-anchor="start" x="332.59" y="-214.5" font-family="Helvetica,sans-Serif" font-size="10.00">maxSkillValueArray</text>
<text text-anchor="start" x="322.59" y="-198.5" font-family="Helvetica,sans-Serif" font-size="10.00">+</text>
<text text-anchor="start" x="332.59" y="-198.5" font-family="Helvetica,sans-Serif" font-size="10.00">maxPilotSkillValue</text>
<text text-anchor="start" x="332.59" y="-182.5" font-family="Helvetica,sans-Serif" font-size="10.00">and 16 more...</text>
<text text-anchor="start" x="322.59" y="-166.5" font-family="Helvetica,sans-Serif" font-size="10.00">+</text>
<text text-anchor="start" x="332.59" y="-166.5" font-family="Helvetica,sans-Serif" font-size="10.00">Initialize()</text>
<text text-anchor="start" x="322.59" y="-150.5" font-family="Helvetica,sans-Serif" font-size="10.00">+</text>
<text text-anchor="start" x="332.59" y="-150.5" font-family="Helvetica,sans-Serif" font-size="10.00">ImproveSkill()</text>
<text text-anchor="start" x="322.59" y="-134.5" font-family="Helvetica,sans-Serif" font-size="10.00">+</text>
<text text-anchor="start" x="332.59" y="-134.5" font-family="Helvetica,sans-Serif" font-size="10.00">MoveToRoom()</text>
<text text-anchor="start" x="322.59" y="-118.5" font-family="Helvetica,sans-Serif" font-size="10.00">+</text>
<text text-anchor="start" x="332.59" y="-118.5" font-family="Helvetica,sans-Serif" font-size="10.00">Attack()</text>
<text text-anchor="start" x="322.59" y="-102.5" font-family="Helvetica,sans-Serif" font-size="10.00">+</text>
<text text-anchor="start" x="332.59" y="-102.5" font-family="Helvetica,sans-Serif" font-size="10.00">TakeAttack()</text>
<text text-anchor="start" x="322.59" y="-86.5" font-family="Helvetica,sans-Serif" font-size="10.00">+</text>
<text text-anchor="start" x="332.59" y="-86.5" font-family="Helvetica,sans-Serif" font-size="10.00">TakeDamage()</text>
<text text-anchor="start" x="322.59" y="-70.5" font-family="Helvetica,sans-Serif" font-size="10.00">+</text>
<text text-anchor="start" x="332.59" y="-70.5" font-family="Helvetica,sans-Serif" font-size="10.00">RepairFacility()</text>
<text text-anchor="start" x="322.59" y="-54.5" font-family="Helvetica,sans-Serif" font-size="10.00">+</text>
<text text-anchor="start" x="332.59" y="-54.5" font-family="Helvetica,sans-Serif" font-size="10.00">Heal()</text>
<text text-anchor="start" x="322.59" y="-38.5" font-family="Helvetica,sans-Serif" font-size="10.00">+</text>
<text text-anchor="start" x="332.59" y="-38.5" font-family="Helvetica,sans-Serif" font-size="10.00">NeedsHealing()</text>
<text text-anchor="start" x="322.59" y="-22.5" font-family="Helvetica,sans-Serif" font-size="10.00">+</text>
<text text-anchor="start" x="332.59" y="-22.5" font-family="Helvetica,sans-Serif" font-size="10.00">GetCrewSkillValue()</text>
<text text-anchor="start" x="332.59" y="-6.5" font-family="Helvetica,sans-Serif" font-size="10.00">and 6 more...</text>
<polygon fill="#666666" stroke="#666666" points="318.59,-354 318.59,-354 424.34,-354 424.34,-354 318.59,-354"/>
<polygon fill="#666666" stroke="#666666" points="318.59,-178 318.59,-178 330.59,-178 330.59,-178 318.59,-178"/>
<polygon fill="#666666" stroke="#666666" points="330.59,-178 330.59,-178 424.34,-178 424.34,-178 330.59,-178"/>
<polygon fill="none" stroke="#666666" points="318.59,0 318.59,-372 424.34,-372 424.34,0 318.59,0"/>
</a>
</g>
</g>
<!-- Node2 -->
<g id="Node000002" class="node">
<title>Node2</title>
<g id="a_Node000002"><a xlink:title=" ">
<polygon fill="white" stroke="none" points="166.21,-1645 90.71,-1645 90.71,-1593 166.21,-1593 166.21,-1645"/>
<text text-anchor="start" x="94.71" y="-1631.5" font-family="Helvetica,sans-Serif" font-size="10.00">MonoBehaviour</text>
<text text-anchor="start" x="126.96" y="-1615.5" font-family="Helvetica,sans-Serif" font-size="10.00"> </text>
<text text-anchor="start" x="126.96" y="-1599.5" font-family="Helvetica,sans-Serif" font-size="10.00"> </text>
<polygon fill="#bfbfbf" stroke="#bfbfbf" points="90.71,-1627 90.71,-1627 166.21,-1627 166.21,-1627 90.71,-1627"/>
<polygon fill="#bfbfbf" stroke="#bfbfbf" points="90.71,-1611 90.71,-1611 166.21,-1611 166.21,-1611 90.71,-1611"/>
<polygon fill="none" stroke="#bfbfbf" points="90.71,-1593 90.71,-1645 166.21,-1645 166.21,-1593 90.71,-1593"/>
</a>
</g>
</g>
<!-- Node2&#45;&gt;Node1 -->
<g id="edge1_Node000001_Node000002" class="edge">
<title>Node2&#45;&gt;Node1</title>
<g id="a_edge1_Node000001_Node000002"><a xlink:title=" ">
<path fill="none" stroke="#63b8ff" d="M82.36,-1587.95C72.3,-1578.98 63.02,-1568.22 57.46,-1556 12.6,-1457.27 55.82,-1420.43 57.46,-1312 63.46,-915.42 -91.46,-775.47 84.46,-420 134.35,-319.2 250.44,-247.21 318.7,-211.83"/>
<polygon fill="none" stroke="#63b8ff" points="79.82,-1590.4 89.75,-1594.1 84.3,-1585.01 79.82,-1590.4"/>
</a>
</g>
</g>
<!-- Node7 -->
<g id="Node000007" class="node">
<title>Node7</title>
<g id="a_Node000007"><a xlink:href="class_room.html" target="_top" xlink:title="함선 내의 모든 방의 기본 클래스">
<polygon fill="white" stroke="none" points="384.84,-1064 246.09,-1064 246.09,-420 384.84,-420 384.84,-1064"/>
<text text-anchor="start" x="302.34" y="-1050.5" font-family="Helvetica,sans-Serif" font-size="10.00">Room</text>
<text text-anchor="start" x="250.09" y="-1034.5" font-family="Helvetica,sans-Serif" font-size="10.00">+</text>
<text text-anchor="start" x="260.09" y="-1034.5" font-family="Helvetica,sans-Serif" font-size="10.00">position</text>
<text text-anchor="start" x="250.09" y="-1018.5" font-family="Helvetica,sans-Serif" font-size="10.00">+</text>
<text text-anchor="start" x="260.09" y="-1018.5" font-family="Helvetica,sans-Serif" font-size="10.00">currentLevel</text>
<text text-anchor="start" x="250.09" y="-1002.5" font-family="Helvetica,sans-Serif" font-size="10.00">+</text>
<text text-anchor="start" x="260.09" y="-1002.5" font-family="Helvetica,sans-Serif" font-size="10.00">maxLevel</text>
<text text-anchor="start" x="250.09" y="-986.5" font-family="Helvetica,sans-Serif" font-size="10.00">+</text>
<text text-anchor="start" x="260.09" y="-986.5" font-family="Helvetica,sans-Serif" font-size="10.00">roomType</text>
<text text-anchor="start" x="250.09" y="-970.5" font-family="Helvetica,sans-Serif" font-size="10.00">+</text>
<text text-anchor="start" x="260.09" y="-970.5" font-family="Helvetica,sans-Serif" font-size="10.00">crewInRoom</text>
<text text-anchor="start" x="250.09" y="-954.5" font-family="Helvetica,sans-Serif" font-size="10.00">+</text>
<text text-anchor="start" x="260.09" y="-954.5" font-family="Helvetica,sans-Serif" font-size="10.00">gridSize</text>
<text text-anchor="start" x="250.09" y="-938.5" font-family="Helvetica,sans-Serif" font-size="10.00">+</text>
<text text-anchor="start" x="260.09" y="-938.5" font-family="Helvetica,sans-Serif" font-size="10.00">isPlaced</text>
<text text-anchor="start" x="250.46" y="-922.5" font-family="Helvetica,sans-Serif" font-size="10.00">#</text>
<text text-anchor="start" x="260.09" y="-922.5" font-family="Helvetica,sans-Serif" font-size="10.00">currentHitPoints</text>
<text text-anchor="start" x="250.46" y="-906.5" font-family="Helvetica,sans-Serif" font-size="10.00">#</text>
<text text-anchor="start" x="260.09" y="-906.5" font-family="Helvetica,sans-Serif" font-size="10.00">oxygenLevel</text>
<text text-anchor="start" x="250.46" y="-890.5" font-family="Helvetica,sans-Serif" font-size="10.00">#</text>
<text text-anchor="start" x="260.09" y="-890.5" font-family="Helvetica,sans-Serif" font-size="10.00">adjacentRooms</text>
<text text-anchor="start" x="250.46" y="-874.5" font-family="Helvetica,sans-Serif" font-size="10.00">#</text>
<text text-anchor="start" x="260.09" y="-874.5" font-family="Helvetica,sans-Serif" font-size="10.00">connectedDoors</text>
<text text-anchor="start" x="250.46" y="-858.5" font-family="Helvetica,sans-Serif" font-size="10.00">#</text>
<text text-anchor="start" x="260.09" y="-858.5" font-family="Helvetica,sans-Serif" font-size="10.00">roomParticles</text>
<text text-anchor="start" x="250.46" y="-842.5" font-family="Helvetica,sans-Serif" font-size="10.00">#</text>
<text text-anchor="start" x="260.09" y="-842.5" font-family="Helvetica,sans-Serif" font-size="10.00">roomSound</text>
<text text-anchor="start" x="250.46" y="-826.5" font-family="Helvetica,sans-Serif" font-size="10.00">#</text>
<text text-anchor="start" x="260.09" y="-826.5" font-family="Helvetica,sans-Serif" font-size="10.00">crewDamagePerOxygen</text>
<text text-anchor="start" x="250.46" y="-810.5" font-family="Helvetica,sans-Serif" font-size="10.00">#</text>
<text text-anchor="start" x="260.09" y="-810.5" font-family="Helvetica,sans-Serif" font-size="10.00">fireExtinguishRatePerLevel</text>
<text text-anchor="start" x="250.46" y="-794.5" font-family="Helvetica,sans-Serif" font-size="10.00">#</text>
<text text-anchor="start" x="260.09" y="-794.5" font-family="Helvetica,sans-Serif" font-size="10.00">isActive</text>
<text text-anchor="start" x="250.46" y="-778.5" font-family="Helvetica,sans-Serif" font-size="10.00">#</text>
<text text-anchor="start" x="260.09" y="-778.5" font-family="Helvetica,sans-Serif" font-size="10.00">isPowered</text>
<text text-anchor="start" x="250.46" y="-762.5" font-family="Helvetica,sans-Serif" font-size="10.00">#</text>
<text text-anchor="start" x="260.09" y="-762.5" font-family="Helvetica,sans-Serif" font-size="10.00">isPowerRequested</text>
<text text-anchor="start" x="250.46" y="-746.5" font-family="Helvetica,sans-Serif" font-size="10.00">#</text>
<text text-anchor="start" x="260.09" y="-746.5" font-family="Helvetica,sans-Serif" font-size="10.00">lowOxygenColor</text>
<text text-anchor="start" x="250.46" y="-730.5" font-family="Helvetica,sans-Serif" font-size="10.00">#</text>
<text text-anchor="start" x="260.09" y="-730.5" font-family="Helvetica,sans-Serif" font-size="10.00">normalColor</text>
<text text-anchor="start" x="250.46" y="-714.5" font-family="Helvetica,sans-Serif" font-size="10.00">#</text>
<text text-anchor="start" x="260.09" y="-714.5" font-family="Helvetica,sans-Serif" font-size="10.00">roomRenderer</text>
<text text-anchor="start" x="250.09" y="-698.5" font-family="Helvetica,sans-Serif" font-size="10.00">+</text>
<text text-anchor="start" x="260.09" y="-698.5" font-family="Helvetica,sans-Serif" font-size="10.00">Update()</text>
<text text-anchor="start" x="250.09" y="-682.5" font-family="Helvetica,sans-Serif" font-size="10.00">+</text>
<text text-anchor="start" x="260.09" y="-682.5" font-family="Helvetica,sans-Serif" font-size="10.00">CanBePlaced()</text>
<text text-anchor="start" x="250.09" y="-666.5" font-family="Helvetica,sans-Serif" font-size="10.00">+</text>
<text text-anchor="start" x="260.09" y="-666.5" font-family="Helvetica,sans-Serif" font-size="10.00">OnPlaced()</text>
<text text-anchor="start" x="250.09" y="-650.5" font-family="Helvetica,sans-Serif" font-size="10.00">+</text>
<text text-anchor="start" x="260.09" y="-650.5" font-family="Helvetica,sans-Serif" font-size="10.00">OnCrewEnter()</text>
<text text-anchor="start" x="250.09" y="-634.5" font-family="Helvetica,sans-Serif" font-size="10.00">+</text>
<text text-anchor="start" x="260.09" y="-634.5" font-family="Helvetica,sans-Serif" font-size="10.00">OnCrewExit()</text>
<text text-anchor="start" x="250.09" y="-618.5" font-family="Helvetica,sans-Serif" font-size="10.00">+</text>
<text text-anchor="start" x="260.09" y="-618.5" font-family="Helvetica,sans-Serif" font-size="10.00">InitializeIsDamageable()</text>
<text text-anchor="start" x="250.09" y="-602.5" font-family="Helvetica,sans-Serif" font-size="10.00">+</text>
<text text-anchor="start" x="260.09" y="-602.5" font-family="Helvetica,sans-Serif" font-size="10.00">GetIsPowered()</text>
<text text-anchor="start" x="250.09" y="-586.5" font-family="Helvetica,sans-Serif" font-size="10.00">+</text>
<text text-anchor="start" x="260.09" y="-586.5" font-family="Helvetica,sans-Serif" font-size="10.00">GetIsPowerRequested()</text>
<text text-anchor="start" x="250.09" y="-570.5" font-family="Helvetica,sans-Serif" font-size="10.00">+</text>
<text text-anchor="start" x="260.09" y="-570.5" font-family="Helvetica,sans-Serif" font-size="10.00">GetIsDamageable()</text>
<text text-anchor="start" x="250.09" y="-554.5" font-family="Helvetica,sans-Serif" font-size="10.00">+</text>
<text text-anchor="start" x="260.09" y="-554.5" font-family="Helvetica,sans-Serif" font-size="10.00">GetOxygenLevel()</text>
<text text-anchor="start" x="260.09" y="-538.5" font-family="Helvetica,sans-Serif" font-size="10.00">and 18 more...</text>
<text text-anchor="start" x="250.46" y="-522.5" font-family="Helvetica,sans-Serif" font-size="10.00">#</text>
<text text-anchor="start" x="260.09" y="-522.5" font-family="Helvetica,sans-Serif" font-size="10.00">Start()</text>
<text text-anchor="start" x="250.46" y="-506.5" font-family="Helvetica,sans-Serif" font-size="10.00">#</text>
<text text-anchor="start" x="260.09" y="-506.5" font-family="Helvetica,sans-Serif" font-size="10.00">UpdateRoom()</text>
<text text-anchor="start" x="250.46" y="-490.5" font-family="Helvetica,sans-Serif" font-size="10.00">#</text>
<text text-anchor="start" x="260.09" y="-490.5" font-family="Helvetica,sans-Serif" font-size="10.00">UpdateEffects()</text>
<text text-anchor="start" x="250.46" y="-474.5" font-family="Helvetica,sans-Serif" font-size="10.00">#</text>
<text text-anchor="start" x="260.09" y="-474.5" font-family="Helvetica,sans-Serif" font-size="10.00">HasFire()</text>
<text text-anchor="start" x="250.46" y="-458.5" font-family="Helvetica,sans-Serif" font-size="10.00">#</text>
<text text-anchor="start" x="260.09" y="-458.5" font-family="Helvetica,sans-Serif" font-size="10.00">UpdateFireExtinguishRate()</text>
<text text-anchor="start" x="250.46" y="-442.5" font-family="Helvetica,sans-Serif" font-size="10.00">#</text>
<text text-anchor="start" x="260.09" y="-442.5" font-family="Helvetica,sans-Serif" font-size="10.00">OnDisabled()</text>
<text text-anchor="start" x="250.46" y="-426.5" font-family="Helvetica,sans-Serif" font-size="10.00">#</text>
<text text-anchor="start" x="260.09" y="-426.5" font-family="Helvetica,sans-Serif" font-size="10.00">NotifyStateChanged()</text>
<polygon fill="#666666" stroke="#666666" points="246.09,-1046 246.09,-1046 384.84,-1046 384.84,-1046 246.09,-1046"/>
<polygon fill="#666666" stroke="#666666" points="246.09,-710 246.09,-710 258.09,-710 258.09,-710 246.09,-710"/>
<polygon fill="#666666" stroke="#666666" points="258.09,-710 258.09,-710 384.84,-710 384.84,-710 258.09,-710"/>
<polygon fill="none" stroke="#666666" points="246.09,-420 246.09,-1064 384.84,-1064 384.84,-420 246.09,-420"/>
</a>
</g>
</g>
<!-- Node2&#45;&gt;Node7 -->
<g id="edge8_Node000007_Node000002" class="edge">
<title>Node2&#45;&gt;Node7</title>
<g id="a_edge8_Node000007_Node000002"><a xlink:title=" ">
<path fill="none" stroke="#63b8ff" d="M174.55,-1586.33C184.2,-1577.59 193.3,-1567.35 199.46,-1556 202.56,-1550.31 239.57,-1288.68 270.97,-1063.76"/>
<polygon fill="none" stroke="#63b8ff" points="172.49,-1583.48 167.14,-1592.63 177.02,-1588.82 172.49,-1583.48"/>
</a>
</g>
</g>
<!-- Node9 -->
<g id="Node000009" class="node">
<title>Node9</title>
<g id="a_Node000009"><a xlink:href="class_ship.html" target="_top" xlink:title=" ">
<polygon fill="white" stroke="none" points="190.34,-1556 66.59,-1556 66.59,-1312 190.34,-1312 190.34,-1556"/>
<text text-anchor="start" x="118.71" y="-1542.5" font-family="Helvetica,sans-Serif" font-size="10.00">Ship</text>
<text text-anchor="start" x="70.59" y="-1526.5" font-family="Helvetica,sans-Serif" font-size="10.00">+</text>
<text text-anchor="start" x="80.59" y="-1526.5" font-family="Helvetica,sans-Serif" font-size="10.00">allRooms</text>
<text text-anchor="start" x="70.59" y="-1510.5" font-family="Helvetica,sans-Serif" font-size="10.00">+</text>
<text text-anchor="start" x="80.59" y="-1510.5" font-family="Helvetica,sans-Serif" font-size="10.00">testRoomPrefab1</text>
<text text-anchor="start" x="70.59" y="-1494.5" font-family="Helvetica,sans-Serif" font-size="10.00">+</text>
<text text-anchor="start" x="80.59" y="-1494.5" font-family="Helvetica,sans-Serif" font-size="10.00">testRoomPrefab2</text>
<text text-anchor="start" x="70.59" y="-1478.5" font-family="Helvetica,sans-Serif" font-size="10.00">+</text>
<text text-anchor="start" x="80.59" y="-1478.5" font-family="Helvetica,sans-Serif" font-size="10.00">AddRoom()</text>
<text text-anchor="start" x="70.59" y="-1462.5" font-family="Helvetica,sans-Serif" font-size="10.00">+</text>
<text text-anchor="start" x="80.59" y="-1462.5" font-family="Helvetica,sans-Serif" font-size="10.00">RemoveRoom()</text>
<text text-anchor="start" x="70.59" y="-1446.5" font-family="Helvetica,sans-Serif" font-size="10.00">+</text>
<text text-anchor="start" x="80.59" y="-1446.5" font-family="Helvetica,sans-Serif" font-size="10.00">AddDoor()</text>
<text text-anchor="start" x="70.59" y="-1430.5" font-family="Helvetica,sans-Serif" font-size="10.00">+</text>
<text text-anchor="start" x="80.59" y="-1430.5" font-family="Helvetica,sans-Serif" font-size="10.00">GetRoomOfType&lt; T &gt;()</text>
<text text-anchor="start" x="70.59" y="-1414.5" font-family="Helvetica,sans-Serif" font-size="10.00">+</text>
<text text-anchor="start" x="80.59" y="-1414.5" font-family="Helvetica,sans-Serif" font-size="10.00">GetRoomsByType()</text>
<text text-anchor="start" x="70.59" y="-1398.5" font-family="Helvetica,sans-Serif" font-size="10.00">+</text>
<text text-anchor="start" x="80.59" y="-1398.5" font-family="Helvetica,sans-Serif" font-size="10.00">GetSystem&lt; T &gt;()</text>
<text text-anchor="start" x="70.59" y="-1382.5" font-family="Helvetica,sans-Serif" font-size="10.00">+</text>
<text text-anchor="start" x="80.59" y="-1382.5" font-family="Helvetica,sans-Serif" font-size="10.00">RecalculateAllStats()</text>
<text text-anchor="start" x="70.59" y="-1366.5" font-family="Helvetica,sans-Serif" font-size="10.00">+</text>
<text text-anchor="start" x="80.59" y="-1366.5" font-family="Helvetica,sans-Serif" font-size="10.00">GetStat()</text>
<text text-anchor="start" x="70.59" y="-1350.5" font-family="Helvetica,sans-Serif" font-size="10.00">+</text>
<text text-anchor="start" x="80.59" y="-1350.5" font-family="Helvetica,sans-Serif" font-size="10.00">GetRoomContributions()</text>
<text text-anchor="start" x="70.59" y="-1334.5" font-family="Helvetica,sans-Serif" font-size="10.00">+</text>
<text text-anchor="start" x="80.59" y="-1334.5" font-family="Helvetica,sans-Serif" font-size="10.00">TakeAttack()</text>
<text text-anchor="start" x="80.59" y="-1318.5" font-family="Helvetica,sans-Serif" font-size="10.00">and 15 more...</text>
<polygon fill="#bfbfbf" stroke="#bfbfbf" points="66.59,-1538 66.59,-1538 190.34,-1538 190.34,-1538 66.59,-1538"/>
<polygon fill="#bfbfbf" stroke="#bfbfbf" points="66.59,-1490 66.59,-1490 78.59,-1490 78.59,-1490 66.59,-1490"/>
<polygon fill="#bfbfbf" stroke="#bfbfbf" points="78.59,-1490 78.59,-1490 190.34,-1490 190.34,-1490 78.59,-1490"/>
<polygon fill="none" stroke="#bfbfbf" points="66.59,-1312 66.59,-1556 190.34,-1556 190.34,-1312 66.59,-1312"/>
</a>
</g>
</g>
<!-- Node2&#45;&gt;Node9 -->
<g id="edge13_Node000009_Node000002" class="edge">
<title>Node2&#45;&gt;Node9</title>
<g id="a_edge13_Node000009_Node000002"><a xlink:title=" ">
<path fill="none" stroke="#63b8ff" d="M128.46,-1581.99C128.46,-1574.04 128.46,-1565.18 128.46,-1555.87"/>
<polygon fill="none" stroke="#63b8ff" points="124.96,-1581.81 128.46,-1591.81 131.96,-1581.81 124.96,-1581.81"/>
</a>
</g>
</g>
<!-- Node3 -->
<g id="Node000003" class="node">
<title>Node3</title>
<g id="a_Node000003"><a xlink:href="interface_i_ship_stat_contributor.html" target="_top" xlink:title="ShipStat 에 영향을 주는 객체 인터페이스 모든 방들과 모든 선원은 전부 이에 해당한다. 방의 경우엔 RoomData 에 등록된 정보를 바탕으로 Ship에서 Contribute...">
<polygon fill="white" stroke="none" points="518.21,-1460 402.71,-1460 402.71,-1408 518.21,-1408 518.21,-1460"/>
<text text-anchor="start" x="416.21" y="-1446.5" font-family="Helvetica,sans-Serif" font-size="10.00">IShipStatContributor</text>
<text text-anchor="start" x="458.96" y="-1430.5" font-family="Helvetica,sans-Serif" font-size="10.00"> </text>
<text text-anchor="start" x="406.71" y="-1414.5" font-family="Helvetica,sans-Serif" font-size="10.00">+</text>
<text text-anchor="start" x="416.71" y="-1414.5" font-family="Helvetica,sans-Serif" font-size="10.00">GetStatContributions()</text>
<polygon fill="#666666" stroke="#666666" points="402.71,-1442 402.71,-1442 518.21,-1442 518.21,-1442 402.71,-1442"/>
<polygon fill="#666666" stroke="#666666" points="402.71,-1426 402.71,-1426 518.21,-1426 518.21,-1426 402.71,-1426"/>
<polygon fill="none" stroke="#666666" points="402.71,-1408 402.71,-1460 518.21,-1460 518.21,-1408 402.71,-1408"/>
</a>
</g>
</g>
<!-- Node3&#45;&gt;Node1 -->
<g id="edge2_Node000001_Node000003" class="edge">
<title>Node3&#45;&gt;Node1</title>
<g id="a_edge2_Node000001_Node000003"><a xlink:title=" ">
<path fill="none" stroke="#63b8ff" d="M452.89,-1396.82C447.36,-1368.87 440.2,-1329.16 436.46,-1294 393.94,-894.14 435.2,-790.52 399.46,-390 398.93,-384.06 398.35,-378.04 397.73,-371.95"/>
<polygon fill="none" stroke="#63b8ff" points="449.44,-1397.43 454.84,-1406.54 456.3,-1396.05 449.44,-1397.43"/>
</a>
</g>
</g>
<!-- Node3&#45;&gt;Node7 -->
<g id="edge9_Node000007_Node000003" class="edge">
<title>Node3&#45;&gt;Node7</title>
<g id="a_edge9_Node000007_Node000003"><a xlink:title=" ">
<path fill="none" stroke="#63b8ff" d="M442.11,-1397.85C428.53,-1370.31 410.68,-1330.66 400.46,-1294 374.94,-1202.39 385.66,-1176.03 371.46,-1082 370.55,-1075.95 369.62,-1069.85 368.68,-1063.7"/>
<polygon fill="none" stroke="#63b8ff" points="438.98,-1399.41 446.59,-1406.78 445.24,-1396.27 438.98,-1399.41"/>
</a>
</g>
</g>
<!-- Node4 -->
<g id="Node000004" class="node">
<title>Node4</title>
<g id="a_Node000004"><a xlink:href="class_crew_race_stat.html" target="_top" xlink:title=" ">
<polygon fill="white" stroke="none" points="517.71,-1214 445.21,-1214 445.21,-1162 517.71,-1162 517.71,-1214"/>
<text text-anchor="start" x="449.21" y="-1200.5" font-family="Helvetica,sans-Serif" font-size="10.00">CrewRaceStat</text>
<text text-anchor="start" x="454.03" y="-1184.5" font-family="Helvetica,sans-Serif" font-size="10.00">+</text>
<text text-anchor="start" x="468.84" y="-1184.5" font-family="Helvetica,sans-Serif" font-size="10.00">ByRace</text>
<text text-anchor="start" x="479.96" y="-1168.5" font-family="Helvetica,sans-Serif" font-size="10.00"> </text>
<polygon fill="#bfbfbf" stroke="#bfbfbf" points="445.21,-1196 445.21,-1196 517.71,-1196 517.71,-1196 445.21,-1196"/>
<polygon fill="#bfbfbf" stroke="#bfbfbf" points="445.21,-1180 445.21,-1180 466.84,-1180 466.84,-1180 445.21,-1180"/>
<polygon fill="#bfbfbf" stroke="#bfbfbf" points="466.84,-1180 466.84,-1180 517.71,-1180 517.71,-1180 466.84,-1180"/>
<polygon fill="none" stroke="#bfbfbf" points="445.21,-1162 445.21,-1214 517.71,-1214 517.71,-1162 445.21,-1162"/>
</a>
</g>
</g>
<!-- Node4&#45;&gt;Node1 -->
<g id="edge3_Node000001_Node000004" class="edge">
<title>Node4&#45;&gt;Node1</title>
<g id="a_edge3_Node000001_Node000004"><a xlink:title=" ">
<path fill="none" stroke="#63b8ff" d="M481.59,-1162.33C481.73,-1064.05 478.66,-691.13 427.46,-390 427.16,-388.23 426.85,-386.46 426.54,-384.68"/>
<polygon fill="none" stroke="#63b8ff" points="426.53,-384.64 421.49,-379.49 424.31,-372.85 429.35,-378.01 426.53,-384.64"/>
</a>
</g>
<text text-anchor="middle" x="516.37" y="-738.5" font-family="Helvetica,sans-Serif" font-size="10.00" fill="grey"> +crewRaceStat</text>
</g>
<!-- Node5 -->
<g id="Node000005" class="node">
<title>Node5</title>
<g id="a_Node000005"><a xlink:title=" ">
<polygon fill="white" stroke="none" points="586.46,-1645 506.46,-1645 506.46,-1593 586.46,-1593 586.46,-1645"/>
<text text-anchor="start" x="510.46" y="-1631.5" font-family="Helvetica,sans-Serif" font-size="10.00">ScriptableObject</text>
<text text-anchor="start" x="544.96" y="-1615.5" font-family="Helvetica,sans-Serif" font-size="10.00"> </text>
<text text-anchor="start" x="544.96" y="-1599.5" font-family="Helvetica,sans-Serif" font-size="10.00"> </text>
<polygon fill="#bfbfbf" stroke="#bfbfbf" points="506.46,-1627 506.46,-1627 586.46,-1627 586.46,-1627 506.46,-1627"/>
<polygon fill="#bfbfbf" stroke="#bfbfbf" points="506.46,-1611 506.46,-1611 586.46,-1611 586.46,-1611 506.46,-1611"/>
<polygon fill="none" stroke="#bfbfbf" points="506.46,-1593 506.46,-1645 586.46,-1645 586.46,-1593 506.46,-1593"/>
</a>
</g>
</g>
<!-- Node5&#45;&gt;Node4 -->
<g id="edge4_Node000004_Node000005" class="edge">
<title>Node5&#45;&gt;Node4</title>
<g id="a_edge4_Node000004_Node000005"><a xlink:title=" ">
<path fill="none" stroke="#63b8ff" d="M547.65,-1581.65C548.76,-1523.86 547.87,-1407.75 527.46,-1312 526.39,-1306.98 504.09,-1248.21 490.94,-1213.76"/>
<polygon fill="none" stroke="#63b8ff" points="544.15,-1581.48 547.42,-1591.56 551.15,-1581.64 544.15,-1581.48"/>
</a>
</g>
</g>
<!-- Node6 -->
<g id="Node000006" class="node">
<title>Node6</title>
<g id="a_Node000006"><a xlink:href="class_equipment_item.html" target="_top" xlink:title=" ">
<polygon fill="white" stroke="none" points="642.46,-1294 522.46,-1294 522.46,-1082 642.46,-1082 642.46,-1294"/>
<text text-anchor="start" x="549.46" y="-1280.5" font-family="Helvetica,sans-Serif" font-size="10.00">EquipmentItem</text>
<text text-anchor="start" x="526.46" y="-1264.5" font-family="Helvetica,sans-Serif" font-size="10.00">+</text>
<text text-anchor="start" x="536.46" y="-1264.5" font-family="Helvetica,sans-Serif" font-size="10.00">eqIcon</text>
<text text-anchor="start" x="526.46" y="-1248.5" font-family="Helvetica,sans-Serif" font-size="10.00">+</text>
<text text-anchor="start" x="536.46" y="-1248.5" font-family="Helvetica,sans-Serif" font-size="10.00">eqName</text>
<text text-anchor="start" x="526.46" y="-1232.5" font-family="Helvetica,sans-Serif" font-size="10.00">+</text>
<text text-anchor="start" x="536.46" y="-1232.5" font-family="Helvetica,sans-Serif" font-size="10.00">eqType</text>
<text text-anchor="start" x="526.46" y="-1216.5" font-family="Helvetica,sans-Serif" font-size="10.00">+</text>
<text text-anchor="start" x="536.46" y="-1216.5" font-family="Helvetica,sans-Serif" font-size="10.00">eqPrice</text>
<text text-anchor="start" x="526.46" y="-1200.5" font-family="Helvetica,sans-Serif" font-size="10.00">+</text>
<text text-anchor="start" x="536.46" y="-1200.5" font-family="Helvetica,sans-Serif" font-size="10.00">isGlobalEquip</text>
<text text-anchor="start" x="526.46" y="-1184.5" font-family="Helvetica,sans-Serif" font-size="10.00">+</text>
<text text-anchor="start" x="536.46" y="-1184.5" font-family="Helvetica,sans-Serif" font-size="10.00">eqAttackBonus</text>
<text text-anchor="start" x="526.46" y="-1168.5" font-family="Helvetica,sans-Serif" font-size="10.00">+</text>
<text text-anchor="start" x="536.46" y="-1168.5" font-family="Helvetica,sans-Serif" font-size="10.00">eqDefenseBonus</text>
<text text-anchor="start" x="526.46" y="-1152.5" font-family="Helvetica,sans-Serif" font-size="10.00">+</text>
<text text-anchor="start" x="536.46" y="-1152.5" font-family="Helvetica,sans-Serif" font-size="10.00">eqHealthBonus</text>
<text text-anchor="start" x="526.46" y="-1136.5" font-family="Helvetica,sans-Serif" font-size="10.00">+</text>
<text text-anchor="start" x="536.46" y="-1136.5" font-family="Helvetica,sans-Serif" font-size="10.00">eqAdditionalPilotSkill</text>
<text text-anchor="start" x="526.46" y="-1120.5" font-family="Helvetica,sans-Serif" font-size="10.00">+</text>
<text text-anchor="start" x="536.46" y="-1120.5" font-family="Helvetica,sans-Serif" font-size="10.00">eqAdditionalEngineSkill</text>
<text text-anchor="start" x="536.46" y="-1104.5" font-family="Helvetica,sans-Serif" font-size="10.00">and 6 more...</text>
<text text-anchor="start" x="580.96" y="-1088.5" font-family="Helvetica,sans-Serif" font-size="10.00"> </text>
<polygon fill="#bfbfbf" stroke="#bfbfbf" points="522.46,-1276 522.46,-1276 642.46,-1276 642.46,-1276 522.46,-1276"/>
<polygon fill="#bfbfbf" stroke="#bfbfbf" points="522.46,-1100 522.46,-1100 534.46,-1100 534.46,-1100 522.46,-1100"/>
<polygon fill="#bfbfbf" stroke="#bfbfbf" points="534.46,-1100 534.46,-1100 642.46,-1100 642.46,-1100 534.46,-1100"/>
<polygon fill="none" stroke="#bfbfbf" points="522.46,-1082 522.46,-1294 642.46,-1294 642.46,-1082 522.46,-1082"/>
</a>
</g>
</g>
<!-- Node5&#45;&gt;Node6 -->
<g id="edge6_Node000006_Node000005" class="edge">
<title>Node5&#45;&gt;Node6</title>
<g id="a_edge6_Node000006_Node000005"><a xlink:title=" ">
<path fill="none" stroke="#63b8ff" d="M558.81,-1582.44C559.44,-1579.94 560,-1577.44 560.46,-1575 578.14,-1481 582.95,-1372.04 583.75,-1293.91"/>
<polygon fill="none" stroke="#63b8ff" points="555.52,-1581.24 556.13,-1591.82 562.25,-1583.17 555.52,-1581.24"/>
</a>
</g>
</g>
<!-- Node8 -->
<g id="Node000008" class="node">
<title>Node8</title>
<g id="a_Node000008"><a xlink:href="class_room_data.html" target="_top" xlink:title="모든 방 유형의 기본 데이터를 정의하는 추상 ScriptableObject">
<polygon fill="white" stroke="none" points="384.84,-1484 246.09,-1484 246.09,-1384 384.84,-1384 384.84,-1484"/>
<text text-anchor="start" x="291.84" y="-1470.5" font-family="Helvetica,sans-Serif" font-size="10.00">RoomData</text>
<text text-anchor="start" x="313.96" y="-1454.5" font-family="Helvetica,sans-Serif" font-size="10.00"> </text>
<text text-anchor="start" x="250.09" y="-1438.5" font-family="Helvetica,sans-Serif" font-size="10.00">+</text>
<text text-anchor="start" x="260.09" y="-1438.5" font-family="Helvetica,sans-Serif" font-size="10.00">GetRoomData()</text>
<text text-anchor="start" x="250.46" y="-1422.5" font-family="Helvetica,sans-Serif" font-size="10.00">#</text>
<text text-anchor="start" x="260.09" y="-1422.5" font-family="Helvetica,sans-Serif" font-size="10.00">InitializeDefaultLevels()</text>
<text text-anchor="start" x="250.46" y="-1406.5" font-family="Helvetica,sans-Serif" font-size="10.00">#</text>
<text text-anchor="start" x="260.09" y="-1406.5" font-family="Helvetica,sans-Serif" font-size="10.00">OnEnable()</text>
<text text-anchor="start" x="250.46" y="-1390.5" font-family="Helvetica,sans-Serif" font-size="10.00">#</text>
<text text-anchor="start" x="260.09" y="-1390.5" font-family="Helvetica,sans-Serif" font-size="10.00">CheckIfNeedsInitialization()</text>
<polygon fill="#666666" stroke="#666666" points="246.09,-1466 246.09,-1466 384.84,-1466 384.84,-1466 246.09,-1466"/>
<polygon fill="#666666" stroke="#666666" points="246.09,-1450 246.09,-1450 384.84,-1450 384.84,-1450 246.09,-1450"/>
<polygon fill="none" stroke="#666666" points="246.09,-1384 246.09,-1484 384.84,-1484 384.84,-1384 246.09,-1384"/>
</a>
</g>
</g>
<!-- Node5&#45;&gt;Node8 -->
<g id="edge11_Node000008_Node000005" class="edge">
<title>Node5&#45;&gt;Node8</title>
<g id="a_edge11_Node000008_Node000005"><a xlink:title=" ">
<path fill="none" stroke="#63b8ff" d="M495.62,-1605.9C463.69,-1596.38 423.08,-1580.53 393.46,-1556 369.98,-1536.55 351.16,-1508.16 337.9,-1483.77"/>
<polygon fill="none" stroke="#63b8ff" points="494.49,-1609.22 505.07,-1608.6 496.41,-1602.49 494.49,-1609.22"/>
</a>
</g>
</g>
<!-- Node6&#45;&gt;Node1 -->
<g id="edge5_Node000001_Node000006" class="edge">
<title>Node6&#45;&gt;Node1</title>
<g id="a_edge5_Node000001_Node000006"><a xlink:title=" ">
<path fill="none" stroke="#63b8ff" d="M599.05,-1082.27C618.62,-930.84 638.97,-644.3 556.46,-420 530.99,-350.76 476.35,-286.25 433.02,-242.74"/>
<polygon fill="none" stroke="#63b8ff" points="433.13,-242.85 426.05,-241.48 424.6,-234.42 431.68,-235.79 433.13,-242.85"/>
</a>
</g>
<text text-anchor="middle" x="661.12" y="-750.5" font-family="Helvetica,sans-Serif" font-size="10.00" fill="grey"> +equippedAssistant</text>
<text text-anchor="middle" x="661.12" y="-738.5" font-family="Helvetica,sans-Serif" font-size="10.00" fill="grey">+equippedShield</text>
<text text-anchor="middle" x="661.12" y="-726.5" font-family="Helvetica,sans-Serif" font-size="10.00" fill="grey">+equippedWeapon</text>
</g>
<!-- Node7&#45;&gt;Node1 -->
<g id="edge7_Node000001_Node000007" class="edge">
<title>Node7&#45;&gt;Node1</title>
<g id="a_edge7_Node000001_Node000007"><a xlink:title=" ">
<path fill="none" stroke="#63b8ff" d="M330.89,-420.44C331.93,-410.17 333.03,-400 334.21,-390 334.42,-388.23 334.64,-386.45 334.86,-384.67"/>
<polygon fill="none" stroke="#63b8ff" points="334.86,-384.68 331.66,-378.22 336.4,-372.78 339.59,-379.25 334.86,-384.68"/>
</a>
</g>
<text text-anchor="middle" x="366.84" y="-392.5" font-family="Helvetica,sans-Serif" font-size="10.00" fill="grey"> +currentRoom</text>
</g>
<!-- Node8&#45;&gt;Node7 -->
<g id="edge10_Node000007_Node000008" class="edge">
<title>Node8&#45;&gt;Node7</title>
<g id="a_edge10_Node000007_Node000008"><a xlink:title=" ">
<path fill="none" stroke="#63b8ff" d="M315.46,-1384.21C315.46,-1318.76 315.46,-1196.82 315.46,-1076.71"/>
<polygon fill="none" stroke="#63b8ff" points="315.46,-1076.87 311.46,-1070.87 315.46,-1064.87 319.46,-1070.87 315.46,-1076.87"/>
</a>
</g>
<text text-anchor="middle" x="341.34" y="-1184.5" font-family="Helvetica,sans-Serif" font-size="10.00" fill="grey"> +roomData</text>
</g>
<!-- Node9&#45;&gt;Node1 -->
<g id="edge14_Node000001_Node000009" class="edge">
<title>Node9&#45;&gt;Node1</title>
<g id="a_edge14_Node000001_Node000009"><a xlink:title=" ">
<path fill="none" stroke="#63b8ff" d="M109.9,-1312.2C85.14,-1116.65 57.36,-722.21 178.96,-420 207.22,-349.79 264.74,-284.73 309.59,-241.3"/>
<polygon fill="none" stroke="#63b8ff" points="309.61,-241.28 311.19,-234.24 318.3,-232.99 316.72,-240.03 309.61,-241.28"/>
</a>
</g>
<text text-anchor="middle" x="208.21" y="-738.5" font-family="Helvetica,sans-Serif" font-size="10.00" fill="grey"> +currentShip</text>
</g>
<!-- Node9&#45;&gt;Node7 -->
<g id="edge12_Node000007_Node000009" class="edge">
<title>Node9&#45;&gt;Node7</title>
<g id="a_edge12_Node000007_Node000009"><a xlink:title=" ">
<path fill="none" stroke="#63b8ff" d="M130.36,-1312.42C132.74,-1218.81 138.02,-1101.68 149.71,-1082 157.41,-1069.04 168.67,-1075.46 178.46,-1064 202.79,-1035.55 223.35,-1002.15 240.55,-967.83"/>
<polygon fill="none" stroke="#63b8ff" points="240.58,-967.75 239.62,-960.61 245.85,-956.97 246.81,-964.12 240.58,-967.75"/>
</a>
</g>
<text text-anchor="middle" x="177.09" y="-1184.5" font-family="Helvetica,sans-Serif" font-size="10.00" fill="grey"> #parentShip</text>
</g>
</g>
</svg>
