<?xml version="1.0" encoding="UTF-8" standalone="no"?>
<!DOCTYPE svg PUBLIC "-//W3C//DTD SVG 1.1//EN"
 "http://www.w3.org/Graphics/SVG/1.1/DTD/svg11.dtd">
<!-- Generated by graphviz version 12.2.1 (20241206.2353)
 -->
<!-- Title: CameraZoomController Pages: 1 -->
<svg width="117pt" height="196pt"
 viewBox="0.00 0.00 117.25 196.00" xmlns="http://www.w3.org/2000/svg" xmlns:xlink="http://www.w3.org/1999/xlink">
<g id="graph0" class="graph" transform="scale(1 1) rotate(0) translate(4 192)">
<title>CameraZoomController</title>
<!-- Node1 -->
<g id="Node000001" class="node">
<title>Node1</title>
<g id="a_Node000001"><a xlink:title=" ">
<polygon fill="#999999" stroke="none" points="109.25,-100 0,-100 0,0 109.25,0 109.25,-100"/>
<text text-anchor="start" x="4" y="-86.5" font-family="Helvetica,sans-Serif" font-size="10.00">CameraZoomController</text>
<text text-anchor="start" x="13.88" y="-70.5" font-family="Helvetica,sans-Serif" font-size="10.00">+</text>
<text text-anchor="start" x="33.75" y="-70.5" font-family="Helvetica,sans-Serif" font-size="10.00">zoomSpeed</text>
<text text-anchor="start" x="13.88" y="-54.5" font-family="Helvetica,sans-Serif" font-size="10.00">+</text>
<text text-anchor="start" x="33.75" y="-54.5" font-family="Helvetica,sans-Serif" font-size="10.00">moveSpeed</text>
<text text-anchor="start" x="13.88" y="-38.5" font-family="Helvetica,sans-Serif" font-size="10.00">+</text>
<text text-anchor="start" x="33.75" y="-38.5" font-family="Helvetica,sans-Serif" font-size="10.00">minSize</text>
<text text-anchor="start" x="13.88" y="-22.5" font-family="Helvetica,sans-Serif" font-size="10.00">+</text>
<text text-anchor="start" x="33.75" y="-22.5" font-family="Helvetica,sans-Serif" font-size="10.00">maxSize</text>
<text text-anchor="start" x="53.12" y="-6.5" font-family="Helvetica,sans-Serif" font-size="10.00"> </text>
<polygon fill="#666666" stroke="#666666" points="0,-82 0,-82 109.25,-82 109.25,-82 0,-82"/>
<polygon fill="#666666" stroke="#666666" points="0,-18 0,-18 31.75,-18 31.75,-18 0,-18"/>
<polygon fill="#666666" stroke="#666666" points="31.75,-18 31.75,-18 109.25,-18 109.25,-18 31.75,-18"/>
<polygon fill="none" stroke="#666666" points="0,0 0,-100 109.25,-100 109.25,0 0,0"/>
</a>
</g>
</g>
<!-- Node2 -->
<g id="Node000002" class="node">
<title>Node2</title>
<g id="a_Node000002"><a xlink:title=" ">
<polygon fill="white" stroke="none" points="92.38,-188 16.88,-188 16.88,-136 92.38,-136 92.38,-188"/>
<text text-anchor="start" x="20.88" y="-174.5" font-family="Helvetica,sans-Serif" font-size="10.00">MonoBehaviour</text>
<text text-anchor="start" x="53.12" y="-158.5" font-family="Helvetica,sans-Serif" font-size="10.00"> </text>
<text text-anchor="start" x="53.12" y="-142.5" font-family="Helvetica,sans-Serif" font-size="10.00"> </text>
<polygon fill="#bfbfbf" stroke="#bfbfbf" points="16.88,-170 16.88,-170 92.38,-170 92.38,-170 16.88,-170"/>
<polygon fill="#bfbfbf" stroke="#bfbfbf" points="16.88,-154 16.88,-154 92.38,-154 92.38,-154 16.88,-154"/>
<polygon fill="none" stroke="#bfbfbf" points="16.88,-136 16.88,-188 92.38,-188 92.38,-136 16.88,-136"/>
</a>
</g>
</g>
<!-- Node2&#45;&gt;Node1 -->
<g id="edge1_Node000001_Node000002" class="edge">
<title>Node2&#45;&gt;Node1</title>
<g id="a_edge1_Node000001_Node000002"><a xlink:title=" ">
<path fill="none" stroke="#63b8ff" d="M54.62,-124.53C54.62,-116.58 54.62,-108.05 54.62,-99.72"/>
<polygon fill="none" stroke="#63b8ff" points="51.13,-124.53 54.63,-134.53 58.13,-124.53 51.13,-124.53"/>
</a>
</g>
</g>
</g>
</svg>
