<?xml version="1.0" encoding="UTF-8" standalone="no"?>
<!DOCTYPE svg PUBLIC "-//W3C//DTD SVG 1.1//EN"
 "http://www.w3.org/Graphics/SVG/1.1/DTD/svg11.dtd">
<!-- Generated by graphviz version 12.2.1 (20241206.2353)
 -->
<!-- Title: EquipmentUIHandler Pages: 1 -->
<!--zoomable 940 -->

<svg id="main" version="1.1" xmlns="http://www.w3.org/2000/svg" xmlns:xlink="http://www.w3.org/1999/xlink" xml:space="preserve" onload="init(evt)">

<style type="text/css"><![CDATA[
.node, .edge {opacity: 0.7;}
.node.selected, .edge.selected {opacity: 1;}
.edge:hover path { stroke: red; }
.edge:hover polygon { stroke: red; fill: red; }
]]></style>

<defs>
  <circle id="rim" cx="0" cy="0" r="7"/>
  <circle id="rim2" cx="0" cy="0" r="3.5"/>
  <g id="zoomPlus">
    <use xlink:href="#rim" fill="#404040"><set attributeName="fill" to="#808080" begin="zoomplus.mouseover" end="zoomplus.mouseout"/></use>
    <path d="M-4,0h8M0,-4v8" fill="none" stroke="white" stroke-width="1.5" pointer-events="none"/>
  </g>
  <g id="zoomMin">
    <use xlink:href="#rim" fill="#404040"><set attributeName="fill" to="#808080" begin="zoomminus.mouseover" end="zoomminus.mouseout"/></use>
    <path d="M-4,0h8" fill="none" stroke="white" stroke-width="1.5" pointer-events="none"/>
  </g>
  <g id="arrowUp" transform="translate(30 24)">
    <use xlink:href="#rim"/>
    <path pointer-events="none" fill="none" stroke="white" stroke-width="1.5" d="M0,-3.0v7 M-2.5,-0.5L0,-3.0L2.5,-0.5"/>
  </g>
  <g id="arrowRight" transform="rotate(90) translate(36 -43)">
    <use xlink:href="#rim"/>
    <path pointer-events="none" fill="none" stroke="white" stroke-width="1.5" d="M0,-3.0v7 M-2.5,-0.5L0,-3.0L2.5,-0.5"/>
  </g>
  <g id="arrowDown" transform="rotate(180) translate(-30 -48)">
    <use xlink:href="#rim"/>
    <path pointer-events="none" fill="none" stroke="white" stroke-width="1.5" d="M0,-3.0v7 M-2.5,-0.5L0,-3.0L2.5,-0.5"/>
  </g>
  <g id="arrowLeft" transform="rotate(270) translate(-36 17)">
    <use xlink:href="#rim"/>
    <path pointer-events="none" fill="none" stroke="white" stroke-width="1.5" d="M0,-3.0v7 M-2.5,-0.5L0,-3.0L2.5,-0.5"/>
  </g>
  <g id="resetDef">
    <use xlink:href="#rim2" fill="#404040"><set attributeName="fill" to="#808080" begin="reset.mouseover" end="reset.mouseout"/></use>
  </g>
</defs>
<script type="application/ecmascript">
var viewWidth = 304;
var viewHeight = 940;
var sectionId = 'dynsection-1';
</script>
<script type="application/ecmascript" xlink:href="svg.min.js"/>
<svg id="graph" class="graph">
<g id="viewport">
<title>EquipmentUIHandler</title>
<!-- Node1 -->
<g id="Node000001" class="node">
<title>Node1</title>
<g id="a_Node000001"><a xlink:title=" ">
<polygon fill="#999999" stroke="none" points="209.75,-471 29.75,-471 29.75,-203.5 209.75,-203.5 209.75,-471"/>
<text text-anchor="start" x="72.5" y="-457.5" font-family="Consolas" font-size="10.00">EquipmentUIHandler</text>
<text text-anchor="start" x="33.75" y="-443" font-family="Consolas" font-size="10.00">+</text>
<text text-anchor="start" x="43" y="-443" font-family="Consolas" font-size="10.00">GameObject itemBuyPanel</text>
<text text-anchor="start" x="33.75" y="-428.5" font-family="Consolas" font-size="10.00">+</text>
<text text-anchor="start" x="43" y="-428.5" font-family="Consolas" font-size="10.00">Image tipItemImage</text>
<text text-anchor="start" x="33.75" y="-414" font-family="Consolas" font-size="10.00">+</text>
<text text-anchor="start" x="43" y="-414" font-family="Consolas" font-size="10.00">TextMeshProUGUI tipItemName</text>
<text text-anchor="start" x="33.75" y="-399.5" font-family="Consolas" font-size="10.00">+</text>
<text text-anchor="start" x="43" y="-399.5" font-family="Consolas" font-size="10.00">TextMeshProUGUI tipItemPrice</text>
<text text-anchor="start" x="33.75" y="-385" font-family="Consolas" font-size="10.00">+</text>
<text text-anchor="start" x="43" y="-385" font-family="Consolas" font-size="10.00">TextMeshProUGUI tipItemDetails</text>
<text text-anchor="start" x="33.75" y="-370.5" font-family="Consolas" font-size="10.00">+</text>
<text text-anchor="start" x="43" y="-370.5" font-family="Consolas" font-size="10.00">TextMeshProUGUI tipCurrencyText</text>
<text text-anchor="start" x="33.75" y="-356" font-family="Consolas" font-size="10.00">+</text>
<text text-anchor="start" x="43" y="-356" font-family="Consolas" font-size="10.00">Button buyButton</text>
<text text-anchor="start" x="33.75" y="-341.5" font-family="Consolas" font-size="10.00">+</text>
<text text-anchor="start" x="43" y="-341.5" font-family="Consolas" font-size="10.00">Button backButton</text>
<text text-anchor="start" x="33.75" y="-327" font-family="Consolas" font-size="10.00">+</text>
<text text-anchor="start" x="43" y="-327" font-family="Consolas" font-size="10.00">Color purchasedButtonColor</text>
<text text-anchor="start" x="33.75" y="-312.5" font-family="Consolas" font-size="10.00">+</text>
<text text-anchor="start" x="43" y="-312.5" font-family="Consolas" font-size="10.00">Color defaultButtonColor</text>
<text text-anchor="start" x="33.75" y="-298" font-family="Consolas" font-size="10.00">+</text>
<text text-anchor="start" x="43" y="-298" font-family="Consolas" font-size="10.00">HashSet&lt; EquipmentItem</text>
<text text-anchor="start" x="43" y="-287.5" font-family="Consolas" font-size="10.00"> &gt; purchasedItems</text>
<text text-anchor="start" x="33.75" y="-273" font-family="Consolas" font-size="10.00">+</text>
<text text-anchor="start" x="43" y="-273" font-family="Consolas" font-size="10.00">int playerCOMA</text>
<text text-anchor="start" x="33.75" y="-258.5" font-family="Consolas" font-size="10.00">+</text>
<text text-anchor="start" x="43" y="-258.5" font-family="Consolas" font-size="10.00">void ShowItemTip(Equipment</text>
<text text-anchor="start" x="43" y="-248" font-family="Consolas" font-size="10.00">Item eqItem, EquipmentButton</text>
<text text-anchor="start" x="43" y="-237.5" font-family="Consolas" font-size="10.00"> eqButton)</text>
<text text-anchor="start" x="33.75" y="-223" font-family="Consolas" font-size="10.00">+</text>
<text text-anchor="start" x="43" y="-223" font-family="Consolas" font-size="10.00">void OnClickBuy()</text>
<text text-anchor="start" x="33.75" y="-208.5" font-family="Consolas" font-size="10.00">+</text>
<text text-anchor="start" x="43" y="-208.5" font-family="Consolas" font-size="10.00">void OnClickBack()</text>
<polygon fill="#666666" stroke="#666666" points="29.75,-454.5 29.75,-454.5 209.75,-454.5 209.75,-454.5 29.75,-454.5"/>
<polygon fill="#666666" stroke="#666666" points="29.75,-270 29.75,-270 41,-270 41,-270 29.75,-270"/>
<polygon fill="#666666" stroke="#666666" points="41,-270 41,-270 209.75,-270 209.75,-270 41,-270"/>
<polygon fill="none" stroke="#666666" points="29.75,-203.5 29.75,-471 209.75,-471 209.75,-203.5 29.75,-203.5"/>
</a>
</g>
</g>
<!-- Node5 -->
<g id="Node000005" class="node">
<title>Node5</title>
<g id="a_Node000005"><a xlink:href="class_equipment_button.html" target="_top" xlink:title=" ">
<polygon fill="white" stroke="none" points="169.5,-155.5 0,-155.5 0,0 169.5,0 169.5,-155.5"/>
<text text-anchor="start" x="45.38" y="-142" font-family="Consolas" font-size="10.00">EquipmentButton</text>
<text text-anchor="start" x="4" y="-127.5" font-family="Consolas" font-size="10.00">+</text>
<text text-anchor="start" x="13.25" y="-127.5" font-family="Consolas" font-size="10.00">Image iconImage</text>
<text text-anchor="start" x="4" y="-113" font-family="Consolas" font-size="10.00">+</text>
<text text-anchor="start" x="13.25" y="-113" font-family="Consolas" font-size="10.00">TextMeshProUGUI nameText</text>
<text text-anchor="start" x="4" y="-98.5" font-family="Consolas" font-size="10.00">+</text>
<text text-anchor="start" x="13.25" y="-98.5" font-family="Consolas" font-size="10.00">TextMeshProUGUI priceText</text>
<text text-anchor="start" x="4" y="-84" font-family="Consolas" font-size="10.00">+</text>
<text text-anchor="start" x="13.25" y="-84" font-family="Consolas" font-size="10.00">Button myButton</text>
<text text-anchor="start" x="4" y="-69.5" font-family="Consolas" font-size="10.00">+</text>
<text text-anchor="start" x="13.25" y="-69.5" font-family="Consolas" font-size="10.00">void OnClickItem()</text>
<text text-anchor="start" x="4" y="-55" font-family="Consolas" font-size="10.00">+</text>
<text text-anchor="start" x="13.25" y="-55" font-family="Consolas" font-size="10.00">void MarkAsPurchased</text>
<text text-anchor="start" x="13.25" y="-44.5" font-family="Consolas" font-size="10.00">(Color purchasedColor)</text>
<text text-anchor="start" x="4" y="-30" font-family="Consolas" font-size="10.00">+</text>
<text text-anchor="start" x="13.25" y="-30" font-family="Consolas" font-size="10.00">void MarkAsDefault</text>
<text text-anchor="start" x="13.25" y="-19.5" font-family="Consolas" font-size="10.00">(Color defaultColor)</text>
<text text-anchor="start" x="4" y="-5" font-family="Consolas" font-size="10.00">+</text>
<text text-anchor="start" x="13.25" y="-5" font-family="Consolas" font-size="10.00">EquipmentItem GetLinkedItem()</text>
<polygon fill="#bfbfbf" stroke="#bfbfbf" points="0,-139 0,-139 169.5,-139 169.5,-139 0,-139"/>
<polygon fill="#bfbfbf" stroke="#bfbfbf" points="0,-81 0,-81 11.25,-81 11.25,-81 0,-81"/>
<polygon fill="#bfbfbf" stroke="#bfbfbf" points="11.25,-81 11.25,-81 169.5,-81 169.5,-81 11.25,-81"/>
<polygon fill="none" stroke="#bfbfbf" points="0,0 0,-155.5 169.5,-155.5 169.5,0 0,0"/>
</a>
</g>
</g>
<!-- Node1&#45;&gt;Node5 -->
<g id="edge7_Node000005_Node000001" class="edge">
<title>Node1&#45;&gt;Node5</title>
<g id="a_edge7_Node000005_Node000001"><a xlink:title=" ">
<path fill="none" stroke="#63b8ff" d="M50.56,-203.89C48.63,-197.76 46.92,-191.61 45.5,-185.5 44.17,-179.77 43.67,-173.94 43.84,-168.09"/>
<polygon fill="none" stroke="#63b8ff" points="43.84,-168.15 40.5,-161.75 45.11,-156.21 48.45,-162.6 43.84,-168.15"/>
</a>
</g>
<text text-anchor="middle" x="70.62" y="-176" font-family="Helvetica,sans-Serif" font-size="10.00" fill="grey"> +uiHandler</text>
</g>
<!-- Node2 -->
<g id="Node000002" class="node">
<title>Node2</title>
<g id="a_Node000002"><a xlink:title=" ">
<polygon fill="white" stroke="none" points="81.88,-706.75 5.62,-706.75 5.62,-659.25 81.88,-659.25 81.88,-706.75"/>
<text text-anchor="start" x="9.62" y="-693.25" font-family="Consolas" font-size="10.00">MonoBehaviour</text>
<text text-anchor="start" x="41.12" y="-678.75" font-family="Consolas" font-size="10.00"> </text>
<text text-anchor="start" x="41.12" y="-664.25" font-family="Consolas" font-size="10.00"> </text>
<polygon fill="#bfbfbf" stroke="#bfbfbf" points="5.62,-690.25 5.62,-690.25 81.88,-690.25 81.88,-690.25 5.62,-690.25"/>
<polygon fill="#bfbfbf" stroke="#bfbfbf" points="5.62,-675.75 5.62,-675.75 81.88,-675.75 81.88,-675.75 5.62,-675.75"/>
<polygon fill="none" stroke="#bfbfbf" points="5.62,-659.25 5.62,-706.75 81.88,-706.75 81.88,-659.25 5.62,-659.25"/>
</a>
</g>
</g>
<!-- Node2&#45;&gt;Node1 -->
<g id="edge1_Node000001_Node000002" class="edge">
<title>Node2&#45;&gt;Node1</title>
<g id="a_edge1_Node000001_Node000002"><a xlink:title=" ">
<path fill="none" stroke="#63b8ff" d="M51.22,-648.21C60.31,-607.09 76.21,-535.2 90.4,-471"/>
<polygon fill="none" stroke="#63b8ff" points="47.8,-647.45 49.06,-657.97 54.64,-648.96 47.8,-647.45"/>
</a>
</g>
</g>
<!-- Node2&#45;&gt;Node5 -->
<g id="edge5_Node000005_Node000002" class="edge">
<title>Node2&#45;&gt;Node5</title>
<g id="a_edge5_Node000005_Node000002"><a xlink:title=" ">
<path fill="none" stroke="#63b8ff" d="M35.76,-648.5C18.3,-569.61 -18.63,-366.52 20.75,-203.5 24.66,-187.29 31.07,-170.83 38.35,-155.4"/>
<polygon fill="none" stroke="#63b8ff" points="32.32,-649.18 37.94,-658.17 39.15,-647.64 32.32,-649.18"/>
</a>
</g>
</g>
<!-- Node3 -->
<g id="Node000003" class="node">
<title>Node3</title>
<g id="a_Node000003"><a xlink:href="class_equipment_item.html" target="_top" xlink:title=" ">
<polygon fill="white" stroke="none" points="295.88,-847 131.62,-847 131.62,-519 295.88,-519 295.88,-847"/>
<text text-anchor="start" x="179.62" y="-833.5" font-family="Consolas" font-size="10.00">EquipmentItem</text>
<text text-anchor="start" x="135.62" y="-819" font-family="Consolas" font-size="10.00">+</text>
<text text-anchor="start" x="144.88" y="-819" font-family="Consolas" font-size="10.00">Sprite eqIcon</text>
<text text-anchor="start" x="135.62" y="-804.5" font-family="Consolas" font-size="10.00">+</text>
<text text-anchor="start" x="144.88" y="-804.5" font-family="Consolas" font-size="10.00">string eqName</text>
<text text-anchor="start" x="135.62" y="-790" font-family="Consolas" font-size="10.00">+</text>
<text text-anchor="start" x="144.88" y="-790" font-family="Consolas" font-size="10.00">EquipmentType eqType</text>
<text text-anchor="start" x="135.62" y="-775.5" font-family="Consolas" font-size="10.00">+</text>
<text text-anchor="start" x="144.88" y="-775.5" font-family="Consolas" font-size="10.00">int eqPrice</text>
<text text-anchor="start" x="135.62" y="-761" font-family="Consolas" font-size="10.00">+</text>
<text text-anchor="start" x="144.88" y="-761" font-family="Consolas" font-size="10.00">bool isGlobalEquip</text>
<text text-anchor="start" x="135.62" y="-746.5" font-family="Consolas" font-size="10.00">+</text>
<text text-anchor="start" x="144.88" y="-746.5" font-family="Consolas" font-size="10.00">float eqAttackBonus</text>
<text text-anchor="start" x="135.62" y="-732" font-family="Consolas" font-size="10.00">+</text>
<text text-anchor="start" x="144.88" y="-732" font-family="Consolas" font-size="10.00">float eqDefenseBonus</text>
<text text-anchor="start" x="135.62" y="-717.5" font-family="Consolas" font-size="10.00">+</text>
<text text-anchor="start" x="144.88" y="-717.5" font-family="Consolas" font-size="10.00">float eqHealthBonus</text>
<text text-anchor="start" x="135.62" y="-703" font-family="Consolas" font-size="10.00">+</text>
<text text-anchor="start" x="144.88" y="-703" font-family="Consolas" font-size="10.00">float eqAdditionalPilotSkill</text>
<text text-anchor="start" x="135.62" y="-688.5" font-family="Consolas" font-size="10.00">+</text>
<text text-anchor="start" x="144.88" y="-688.5" font-family="Consolas" font-size="10.00">float eqAdditionalEngine</text>
<text text-anchor="start" x="144.88" y="-678" font-family="Consolas" font-size="10.00">Skill</text>
<text text-anchor="start" x="135.62" y="-663.5" font-family="Consolas" font-size="10.00">+</text>
<text text-anchor="start" x="144.88" y="-663.5" font-family="Consolas" font-size="10.00">float eqAdditionalPowerSkill</text>
<text text-anchor="start" x="135.62" y="-649" font-family="Consolas" font-size="10.00">+</text>
<text text-anchor="start" x="144.88" y="-649" font-family="Consolas" font-size="10.00">float eqAdditionalShield</text>
<text text-anchor="start" x="144.88" y="-638.5" font-family="Consolas" font-size="10.00">Skill</text>
<text text-anchor="start" x="135.62" y="-624" font-family="Consolas" font-size="10.00">+</text>
<text text-anchor="start" x="144.88" y="-624" font-family="Consolas" font-size="10.00">float eqAdditionalWeapon</text>
<text text-anchor="start" x="144.88" y="-613.5" font-family="Consolas" font-size="10.00">Skill</text>
<text text-anchor="start" x="135.62" y="-599" font-family="Consolas" font-size="10.00">+</text>
<text text-anchor="start" x="144.88" y="-599" font-family="Consolas" font-size="10.00">float eqAdditionalAmmunition</text>
<text text-anchor="start" x="144.88" y="-588.5" font-family="Consolas" font-size="10.00">Skill</text>
<text text-anchor="start" x="135.62" y="-574" font-family="Consolas" font-size="10.00">+</text>
<text text-anchor="start" x="144.88" y="-574" font-family="Consolas" font-size="10.00">float eqAdditionalMedBay</text>
<text text-anchor="start" x="144.88" y="-563.5" font-family="Consolas" font-size="10.00">Skill</text>
<text text-anchor="start" x="135.62" y="-549" font-family="Consolas" font-size="10.00">+</text>
<text text-anchor="start" x="144.88" y="-549" font-family="Consolas" font-size="10.00">float eqAdditionalRepair</text>
<text text-anchor="start" x="144.88" y="-538.5" font-family="Consolas" font-size="10.00">Skill</text>
<text text-anchor="start" x="211.12" y="-524" font-family="Consolas" font-size="10.00"> </text>
<polygon fill="#bfbfbf" stroke="#bfbfbf" points="131.62,-830.5 131.62,-830.5 295.88,-830.5 295.88,-830.5 131.62,-830.5"/>
<polygon fill="#bfbfbf" stroke="#bfbfbf" points="131.62,-535.5 131.62,-535.5 142.88,-535.5 142.88,-535.5 131.62,-535.5"/>
<polygon fill="#bfbfbf" stroke="#bfbfbf" points="142.88,-535.5 142.88,-535.5 295.88,-535.5 295.88,-535.5 142.88,-535.5"/>
<polygon fill="none" stroke="#bfbfbf" points="131.62,-519 131.62,-847 295.88,-847 295.88,-519 131.62,-519"/>
</a>
</g>
</g>
<!-- Node3&#45;&gt;Node1 -->
<g id="edge2_Node000001_Node000003" class="edge">
<title>Node3&#45;&gt;Node1</title>
<g id="a_edge2_Node000001_Node000003"><a xlink:title=" ">
<path fill="none" stroke="#63b8ff" d="M140.1,-519.05C138.25,-513 136.54,-506.97 135,-501 133.51,-495.21 132.16,-489.26 130.94,-483.24"/>
<polygon fill="none" stroke="#63b8ff" points="130.98,-483.45 125.95,-478.28 128.78,-471.65 133.81,-476.81 130.98,-483.45"/>
</a>
</g>
<text text-anchor="middle" x="183.38" y="-491.5" font-family="Helvetica,sans-Serif" font-size="10.00" fill="grey"> +currentSelectedItem</text>
</g>
<!-- Node3&#45;&gt;Node5 -->
<g id="edge6_Node000005_Node000003" class="edge">
<title>Node3&#45;&gt;Node5</title>
<g id="a_edge6_Node000005_Node000003"><a xlink:title=" ">
<path fill="none" stroke="#63b8ff" d="M230.7,-519.25C231.1,-513.09 231.45,-506.99 231.75,-501 238.31,-368.81 238.93,-334.3 218.75,-203.5 216.65,-189.86 218.47,-184.94 210.75,-173.5 202.06,-160.61 191.02,-148.77 179.1,-138.16"/>
<polygon fill="none" stroke="#63b8ff" points="179.22,-138.26 172.05,-137.43 170.07,-130.49 177.23,-131.33 179.22,-138.26"/>
</a>
</g>
<text text-anchor="middle" x="262.84" y="-333.75" font-family="Helvetica,sans-Serif" font-size="10.00" fill="grey"> +linkedItem</text>
</g>
<!-- Node4 -->
<g id="Node000004" class="node">
<title>Node4</title>
<g id="a_Node000004"><a xlink:title=" ">
<polygon fill="white" stroke="none" points="259.75,-931.5 167.75,-931.5 167.75,-884 259.75,-884 259.75,-931.5"/>
<text text-anchor="start" x="171.75" y="-918" font-family="Consolas" font-size="10.00">ScriptableObject</text>
<text text-anchor="start" x="211.12" y="-903.5" font-family="Consolas" font-size="10.00"> </text>
<text text-anchor="start" x="211.12" y="-889" font-family="Consolas" font-size="10.00"> </text>
<polygon fill="#bfbfbf" stroke="#bfbfbf" points="167.75,-915 167.75,-915 259.75,-915 259.75,-915 167.75,-915"/>
<polygon fill="#bfbfbf" stroke="#bfbfbf" points="167.75,-900.5 167.75,-900.5 259.75,-900.5 259.75,-900.5 167.75,-900.5"/>
<polygon fill="none" stroke="#bfbfbf" points="167.75,-884 167.75,-931.5 259.75,-931.5 259.75,-884 167.75,-884"/>
</a>
</g>
</g>
<!-- Node4&#45;&gt;Node3 -->
<g id="edge3_Node000003_Node000004" class="edge">
<title>Node4&#45;&gt;Node3</title>
<g id="a_edge3_Node000003_Node000004"><a xlink:title=" ">
<path fill="none" stroke="#63b8ff" d="M213.75,-872.73C213.75,-864.89 213.75,-856.04 213.75,-846.56"/>
<polygon fill="none" stroke="#63b8ff" points="210.25,-872.65 213.75,-882.65 217.25,-872.65 210.25,-872.65"/>
</a>
</g>
</g>
<!-- Node5&#45;&gt;Node1 -->
<g id="edge4_Node000001_Node000005" class="edge">
<title>Node5&#45;&gt;Node1</title>
<g id="a_edge4_Node000001_Node000005"><a xlink:title=" ">
<path fill="none" stroke="#63b8ff" d="M97.09,-155.25C98.02,-161.42 98.92,-167.56 99.75,-173.5 100.57,-179.36 101.39,-185.34 102.21,-191.38"/>
<polygon fill="none" stroke="#63b8ff" points="102.17,-191.07 106.92,-196.49 103.75,-202.96 98.99,-197.54 102.17,-191.07"/>
</a>
</g>
<text text-anchor="middle" x="153.84" y="-176" font-family="Helvetica,sans-Serif" font-size="10.00" fill="grey"> +currentSelectedButton</text>
</g>
</g>
</svg>

<g id="navigator" transform="translate(0 0)" fill="#404254">
  <rect fill="#f2f5e9" fill-opacity="0.5" stroke="#606060" stroke-width=".5" x="0" y="0" width="60" height="60"/>
  <use id="zoomplus" xlink:href="#zoomPlus" x="17" y="9" onmousedown="handleZoom(evt,'in')"/>
  <use id="zoomminus" xlink:href="#zoomMin" x="42" y="9" onmousedown="handleZoom(evt,'out')"/>
  <use id="reset" xlink:href="#resetDef" x="30" y="36" onmousedown="handleReset()"/>
   <use id="arrowup" xlink:href="#arrowUp" x="0" y="0" onmousedown="handlePan(0,-1)"/>
  <use id="arrowright" xlink:href="#arrowRight" x="0" y="0" onmousedown="handlePan(1,0)"/>
  <use id="arrowdown" xlink:href="#arrowDown" x="0" y="0" onmousedown="handlePan(0,1)"/>
  <use id="arrowleft" xlink:href="#arrowLeft" x="0" y="0" onmousedown="handlePan(-1,0)"/>
</g>
<svg viewBox="0 0 15 15" width="100%" height="30px" preserveAspectRatio="xMaxYMin meet">
 <g id="arrow_out" transform="scale(0.3 0.3)">
  <a xlink:href="class_equipment_u_i_handler__coll__graph_org.svg" target="_base">
   <rect id="button" ry="5" rx="5" y="6" x="6" height="38" width="38"
        fill="#f2f5e9" fill-opacity="0.5" stroke="#606060" stroke-width="1.0"/>
   <path id="arrow"
     d="M 11.500037,31.436501 C 11.940474,20.09759 22.043105,11.32322 32.158766,21.979434 L 37.068811,17.246167 C 37.068811,17.246167 37.088388,32 37.088388,32 L 22.160133,31.978069 C 22.160133,31.978069 26.997745,27.140456 26.997745,27.140456 C 18.528582,18.264221 13.291696,25.230495 11.500037,31.436501 z"
     style="fill:#404040;"/>
  </a>
 </g>
</svg>

<style type='text/css'>
<![CDATA[
[data-mouse-over-selected='false'] { opacity: 0.7; }
[data-mouse-over-selected='true']  { opacity: 1.0; }
]]>
</style>
<script type="application/ecmascript"><![CDATA[
document.addEventListener('DOMContentLoaded', (event) => {
  highlightEdges();
  highlightAdjacentNodes();
});
]]></script>
</svg>
