<?xml version="1.0" encoding="UTF-8" standalone="no"?>
<!DOCTYPE svg PUBLIC "-//W3C//DTD SVG 1.1//EN"
 "http://www.w3.org/Graphics/SVG/1.1/DTD/svg11.dtd">
<!-- Generated by graphviz version 12.2.1 (20241206.2353)
 -->
<!-- Title: Room.Start Pages: 1 -->
<svg width="372pt" height="28pt"
 viewBox="0.00 0.00 371.75 28.00" xmlns="http://www.w3.org/2000/svg" xmlns:xlink="http://www.w3.org/1999/xlink">
<g id="graph0" class="graph" transform="scale(1 1) rotate(0) translate(4 24)">
<title>Room.Start</title>
<!-- Node1 -->
<g id="Node000001" class="node">
<title>Node1</title>
<g id="a_Node000001"><a xlink:title="방 초기화 및 Ship에 등록하는 Start 메서드.">
<polygon fill="#999999" stroke="#666666" points="66.25,-20 0,-20 0,0 66.25,0 66.25,-20"/>
<text text-anchor="middle" x="33.12" y="-6.5" font-family="Helvetica,sans-Serif" font-size="10.00">Room.Start</text>
</a>
</g>
</g>
<!-- Node2 -->
<g id="Node000002" class="node">
<title>Node2</title>
<g id="a_Node000002"><a xlink:href="class_room.html#a720815f09708c239f108c42889a676cc" target="_top" xlink:title="방을 초기화합니다.">
<polygon fill="white" stroke="#666666" points="183.5,-20 102.25,-20 102.25,0 183.5,0 183.5,-20"/>
<text text-anchor="middle" x="142.88" y="-6.5" font-family="Helvetica,sans-Serif" font-size="10.00">Room.Initialize</text>
</a>
</g>
</g>
<!-- Node1&#45;&gt;Node2 -->
<g id="edge1_Node000001_Node000002" class="edge">
<title>Node1&#45;&gt;Node2</title>
<g id="a_edge1_Node000001_Node000002"><a xlink:title=" ">
<path fill="none" stroke="#63b8ff" d="M66.75,-10C74.32,-10 82.57,-10 90.73,-10"/>
<polygon fill="#63b8ff" stroke="#63b8ff" points="90.62,-13.5 100.62,-10 90.62,-6.5 90.62,-13.5"/>
</a>
</g>
</g>
<!-- Node3 -->
<g id="Node000003" class="node">
<title>Node3</title>
<g id="a_Node000003"><a xlink:href="class_room.html#a0689a22affd036af39a621cb1c6232d7" target="_top" xlink:title="이 방이 데미지를 받을 수 있는지 여부를 초기화합니다.">
<polygon fill="white" stroke="#666666" points="363.75,-20 219.5,-20 219.5,0 363.75,0 363.75,-20"/>
<text text-anchor="middle" x="291.62" y="-6.5" font-family="Helvetica,sans-Serif" font-size="10.00">Room.InitializeIsDamageable</text>
</a>
</g>
</g>
<!-- Node2&#45;&gt;Node3 -->
<g id="edge2_Node000002_Node000003" class="edge">
<title>Node2&#45;&gt;Node3</title>
<g id="a_edge2_Node000002_Node000003"><a xlink:title=" ">
<path fill="none" stroke="#63b8ff" d="M183.98,-10C191.5,-10 199.62,-10 207.9,-10"/>
<polygon fill="#63b8ff" stroke="#63b8ff" points="207.74,-13.5 217.74,-10 207.74,-6.5 207.74,-13.5"/>
</a>
</g>
</g>
</g>
</svg>
