<?xml version="1.0" encoding="UTF-8" standalone="no"?>
<!DOCTYPE svg PUBLIC "-//W3C//DTD SVG 1.1//EN"
 "http://www.w3.org/Graphics/SVG/1.1/DTD/svg11.dtd">
<!-- Generated by graphviz version 12.2.1 (20241206.2353)
 -->
<!-- Title: MoraleSystem Pages: 1 -->
<svg width="188pt" height="894pt"
 viewBox="0.00 0.00 188.00 894.00" xmlns="http://www.w3.org/2000/svg" xmlns:xlink="http://www.w3.org/1999/xlink">
<g id="graph0" class="graph" transform="scale(1 1) rotate(0) translate(4 890)">
<title>MoraleSystem</title>
<!-- Node1 -->
<g id="Node000001" class="node">
<title>Node1</title>
<g id="a_Node000001"><a xlink:title="함선 내 전체 승무원의 사기를 계산하는 시스템. 방의 종류 및 승무원 수에 따라 전체 사기가 변화합니다.">
<polygon fill="#999999" stroke="none" points="174.75,-97.5 5.25,-97.5 5.25,0 174.75,0 174.75,-97.5"/>
<text text-anchor="start" x="58.5" y="-84" font-family="Consolas" font-size="10.00">MoraleSystem</text>
<text text-anchor="start" x="87.38" y="-69.5" font-family="Consolas" font-size="10.00"> </text>
<text text-anchor="start" x="9.25" y="-55" font-family="Consolas" font-size="10.00">+</text>
<text text-anchor="start" x="18.5" y="-55" font-family="Consolas" font-size="10.00">override void Initialize</text>
<text text-anchor="start" x="18.5" y="-44.5" font-family="Consolas" font-size="10.00">(Ship ship)</text>
<text text-anchor="start" x="9.25" y="-30" font-family="Consolas" font-size="10.00">+</text>
<text text-anchor="start" x="18.5" y="-30" font-family="Consolas" font-size="10.00">override void Update</text>
<text text-anchor="start" x="18.5" y="-19.5" font-family="Consolas" font-size="10.00">(float deltaTime)</text>
<text text-anchor="start" x="9.25" y="-5" font-family="Consolas" font-size="10.00">+</text>
<text text-anchor="start" x="18.5" y="-5" font-family="Consolas" font-size="10.00">float CalculateGlobalMorale()</text>
<polygon fill="#666666" stroke="#666666" points="5.25,-81 5.25,-81 174.75,-81 174.75,-81 5.25,-81"/>
<polygon fill="#666666" stroke="#666666" points="5.25,-66.5 5.25,-66.5 174.75,-66.5 174.75,-66.5 5.25,-66.5"/>
<polygon fill="none" stroke="#666666" points="5.25,0 5.25,-97.5 174.75,-97.5 174.75,0 5.25,0"/>
</a>
</g>
</g>
<!-- Node2 -->
<g id="Node000002" class="node">
<title>Node2</title>
<g id="a_Node000002"><a xlink:href="class_ship_system.html" target="_top" xlink:title="모든 함선 시스템의 추상 기반 클래스. 각 시스템은 함선 객체를 기반으로 동작하며, 공통적인 초기화 및 스탯 조회 기능을 제공합니다.">
<polygon fill="white" stroke="none" points="172.12,-232 7.88,-232 7.88,-134.5 172.12,-134.5 172.12,-232"/>
<text text-anchor="start" x="63.75" y="-218.5" font-family="Consolas" font-size="10.00">ShipSystem</text>
<text text-anchor="start" x="87.38" y="-204" font-family="Consolas" font-size="10.00"> </text>
<text text-anchor="start" x="11.88" y="-189.5" font-family="Consolas" font-size="10.00">+</text>
<text text-anchor="start" x="21.12" y="-189.5" font-family="Consolas" font-size="10.00">virtual void Initialize</text>
<text text-anchor="start" x="21.12" y="-179" font-family="Consolas" font-size="10.00">(Ship ship)</text>
<text text-anchor="start" x="11.88" y="-164.5" font-family="Consolas" font-size="10.00">+</text>
<text text-anchor="start" x="21.12" y="-164.5" font-family="Consolas" font-size="10.00">void Update(float deltaTime)</text>
<text text-anchor="start" x="11.88" y="-150" font-family="Consolas" font-size="10.00">#</text>
<text text-anchor="start" x="21.12" y="-150" font-family="Consolas" font-size="10.00">float GetShipStat(ShipStat</text>
<text text-anchor="start" x="21.12" y="-139.5" font-family="Consolas" font-size="10.00"> stat)</text>
<polygon fill="#666666" stroke="#666666" points="7.88,-215.5 7.88,-215.5 172.12,-215.5 172.12,-215.5 7.88,-215.5"/>
<polygon fill="#666666" stroke="#666666" points="7.88,-201 7.88,-201 172.12,-201 172.12,-201 7.88,-201"/>
<polygon fill="none" stroke="#666666" points="7.88,-134.5 7.88,-232 172.12,-232 172.12,-134.5 7.88,-134.5"/>
</a>
</g>
</g>
<!-- Node2&#45;&gt;Node1 -->
<g id="edge1_Node000001_Node000002" class="edge">
<title>Node2&#45;&gt;Node1</title>
<g id="a_edge1_Node000001_Node000002"><a xlink:title=" ">
<path fill="none" stroke="#63b8ff" d="M90,-123.45C90,-114.71 90,-105.8 90,-97.33"/>
<polygon fill="none" stroke="#63b8ff" points="86.5,-123.28 90,-133.28 93.5,-123.28 86.5,-123.28"/>
</a>
</g>
</g>
<!-- Node3 -->
<g id="Node000003" class="node">
<title>Node3</title>
<g id="a_Node000003"><a xlink:href="class_ship.html" target="_top" xlink:title="함선의 전체 기능과 상태를 관리하는 클래스. 방 배치, 시스템 초기화, 전투 처리, 자원 계산, 스탯 갱신 등의 기능을 포함합니다.">
<polygon fill="white" stroke="none" points="180,-801.5 0,-801.5 0,-280 180,-280 180,-801.5"/>
<text text-anchor="start" x="79.5" y="-788" font-family="Consolas" font-size="10.00">Ship</text>
<text text-anchor="start" x="4" y="-773.5" font-family="Consolas" font-size="10.00">+</text>
<text text-anchor="start" x="13.25" y="-773.5" font-family="Consolas" font-size="10.00">GameObject testRoomPrefab1</text>
<text text-anchor="start" x="4" y="-759" font-family="Consolas" font-size="10.00">+</text>
<text text-anchor="start" x="13.25" y="-759" font-family="Consolas" font-size="10.00">GameObject testRoomPrefab2</text>
<text text-anchor="start" x="4" y="-744.5" font-family="Consolas" font-size="10.00">+</text>
<text text-anchor="start" x="13.25" y="-744.5" font-family="Consolas" font-size="10.00">bool AddRoom(Room room,</text>
<text text-anchor="start" x="13.25" y="-734" font-family="Consolas" font-size="10.00"> Vector2Int position)</text>
<text text-anchor="start" x="4" y="-719.5" font-family="Consolas" font-size="10.00">+</text>
<text text-anchor="start" x="13.25" y="-719.5" font-family="Consolas" font-size="10.00">bool RemoveRoom(Room</text>
<text text-anchor="start" x="13.25" y="-709" font-family="Consolas" font-size="10.00"> room)</text>
<text text-anchor="start" x="4" y="-694.5" font-family="Consolas" font-size="10.00">+</text>
<text text-anchor="start" x="13.25" y="-694.5" font-family="Consolas" font-size="10.00">bool AddDoor(Vector2Int</text>
<text text-anchor="start" x="13.25" y="-684" font-family="Consolas" font-size="10.00"> position, bool isVertical)</text>
<text text-anchor="start" x="4" y="-669.5" font-family="Consolas" font-size="10.00">+</text>
<text text-anchor="start" x="13.25" y="-669.5" font-family="Consolas" font-size="10.00">T GetRoomOfType&lt; T &gt;()</text>
<text text-anchor="start" x="4" y="-655" font-family="Consolas" font-size="10.00">+</text>
<text text-anchor="start" x="13.25" y="-655" font-family="Consolas" font-size="10.00">List&lt; Room &gt; GetRoomsByType</text>
<text text-anchor="start" x="13.25" y="-644.5" font-family="Consolas" font-size="10.00">(RoomType type)</text>
<text text-anchor="start" x="4" y="-630" font-family="Consolas" font-size="10.00">+</text>
<text text-anchor="start" x="13.25" y="-630" font-family="Consolas" font-size="10.00">T GetSystem&lt; T &gt;()</text>
<text text-anchor="start" x="4" y="-615.5" font-family="Consolas" font-size="10.00">+</text>
<text text-anchor="start" x="13.25" y="-615.5" font-family="Consolas" font-size="10.00">void RecalculateAllStats()</text>
<text text-anchor="start" x="4" y="-601" font-family="Consolas" font-size="10.00">+</text>
<text text-anchor="start" x="13.25" y="-601" font-family="Consolas" font-size="10.00">float GetStat(ShipStat</text>
<text text-anchor="start" x="13.25" y="-590.5" font-family="Consolas" font-size="10.00"> statType)</text>
<text text-anchor="start" x="4" y="-576" font-family="Consolas" font-size="10.00">+</text>
<text text-anchor="start" x="13.25" y="-576" font-family="Consolas" font-size="10.00">Dictionary&lt; ShipStat,</text>
<text text-anchor="start" x="13.25" y="-565.5" font-family="Consolas" font-size="10.00"> float &gt; GetRoomContributions</text>
<text text-anchor="start" x="13.25" y="-555" font-family="Consolas" font-size="10.00">(string roomName)</text>
<text text-anchor="start" x="4" y="-540.5" font-family="Consolas" font-size="10.00">+</text>
<text text-anchor="start" x="13.25" y="-540.5" font-family="Consolas" font-size="10.00">void TakeAttack(float</text>
<text text-anchor="start" x="13.25" y="-530" font-family="Consolas" font-size="10.00"> damage, WeaponType weaponType,</text>
<text text-anchor="start" x="13.25" y="-519.5" font-family="Consolas" font-size="10.00"> Vector2Int hitPosition)</text>
<text text-anchor="start" x="4" y="-505" font-family="Consolas" font-size="10.00">+</text>
<text text-anchor="start" x="13.25" y="-505" font-family="Consolas" font-size="10.00">void TakeDamage(float</text>
<text text-anchor="start" x="13.25" y="-494.5" font-family="Consolas" font-size="10.00"> damage)</text>
<text text-anchor="start" x="4" y="-480" font-family="Consolas" font-size="10.00">+</text>
<text text-anchor="start" x="13.25" y="-480" font-family="Consolas" font-size="10.00">void OnShipDestroyed()</text>
<text text-anchor="start" x="4" y="-465.5" font-family="Consolas" font-size="10.00">+</text>
<text text-anchor="start" x="13.25" y="-465.5" font-family="Consolas" font-size="10.00">bool Warp()</text>
<text text-anchor="start" x="4" y="-451" font-family="Consolas" font-size="10.00">+</text>
<text text-anchor="start" x="13.25" y="-451" font-family="Consolas" font-size="10.00">float CalculateWarpFuelCost()</text>
<text text-anchor="start" x="4" y="-436.5" font-family="Consolas" font-size="10.00">+</text>
<text text-anchor="start" x="13.25" y="-436.5" font-family="Consolas" font-size="10.00">int GetCrewCount()</text>
<text text-anchor="start" x="4" y="-422" font-family="Consolas" font-size="10.00">+</text>
<text text-anchor="start" x="13.25" y="-422" font-family="Consolas" font-size="10.00">int GetMaxCrew()</text>
<text text-anchor="start" x="4" y="-407.5" font-family="Consolas" font-size="10.00">+</text>
<text text-anchor="start" x="13.25" y="-407.5" font-family="Consolas" font-size="10.00">List&lt; Room &gt; GetAllRooms()</text>
<text text-anchor="start" x="4" y="-393" font-family="Consolas" font-size="10.00">+</text>
<text text-anchor="start" x="13.25" y="-393" font-family="Consolas" font-size="10.00">List&lt; Door &gt; GetAllDoors()</text>
<text text-anchor="start" x="4" y="-378.5" font-family="Consolas" font-size="10.00">+</text>
<text text-anchor="start" x="13.25" y="-378.5" font-family="Consolas" font-size="10.00">List&lt; CrewBase &gt; GetAllCrew()</text>
<text text-anchor="start" x="4" y="-364" font-family="Consolas" font-size="10.00">+</text>
<text text-anchor="start" x="13.25" y="-364" font-family="Consolas" font-size="10.00">List&lt; ShipWeapon &gt;</text>
<text text-anchor="start" x="13.25" y="-353.5" font-family="Consolas" font-size="10.00"> GetAllWeapons()</text>
<text text-anchor="start" x="4" y="-339" font-family="Consolas" font-size="10.00">+</text>
<text text-anchor="start" x="13.25" y="-339" font-family="Consolas" font-size="10.00">float GetCurrentHitPoints()</text>
<text text-anchor="start" x="4" y="-324.5" font-family="Consolas" font-size="10.00">+</text>
<text text-anchor="start" x="13.25" y="-324.5" font-family="Consolas" font-size="10.00">Vector2Int GetRandomTarget</text>
<text text-anchor="start" x="13.25" y="-314" font-family="Consolas" font-size="10.00">Position()</text>
<text text-anchor="start" x="4" y="-299.5" font-family="Consolas" font-size="10.00">+</text>
<text text-anchor="start" x="13.25" y="-299.5" font-family="Consolas" font-size="10.00">float GetOxygenRate()</text>
<text text-anchor="start" x="4" y="-285" font-family="Consolas" font-size="10.00">+</text>
<text text-anchor="start" x="13.25" y="-285" font-family="Consolas" font-size="10.00">OxygenLevel GetOxygenLevel()</text>
<polygon fill="#666666" stroke="#666666" points="0,-785 0,-785 180,-785 180,-785 0,-785"/>
<polygon fill="#666666" stroke="#666666" points="0,-756 0,-756 11.25,-756 11.25,-756 0,-756"/>
<polygon fill="#666666" stroke="#666666" points="11.25,-756 11.25,-756 180,-756 180,-756 11.25,-756"/>
<polygon fill="none" stroke="#666666" points="0,-280 0,-801.5 180,-801.5 180,-280 0,-280"/>
</a>
</g>
</g>
<!-- Node3&#45;&gt;Node2 -->
<g id="edge2_Node000002_Node000003" class="edge">
<title>Node3&#45;&gt;Node2</title>
<g id="a_edge2_Node000002_Node000003"><a xlink:title=" ">
<path fill="none" stroke="#63b8ff" d="M90,-280.45C90,-267.7 90,-255.66 90,-244.7"/>
<polygon fill="none" stroke="#63b8ff" points="90,-244.78 86,-238.78 90,-232.78 94,-238.78 90,-244.78"/>
</a>
</g>
<text text-anchor="middle" x="117.38" y="-252.5" font-family="Helvetica,sans-Serif" font-size="10.00" fill="grey"> #parentShip</text>
</g>
<!-- Node4 -->
<g id="Node000004" class="node">
<title>Node4</title>
<g id="a_Node000004"><a xlink:title=" ">
<polygon fill="white" stroke="none" points="128.12,-886 51.88,-886 51.88,-838.5 128.12,-838.5 128.12,-886"/>
<text text-anchor="start" x="55.88" y="-872.5" font-family="Consolas" font-size="10.00">MonoBehaviour</text>
<text text-anchor="start" x="87.38" y="-858" font-family="Consolas" font-size="10.00"> </text>
<text text-anchor="start" x="87.38" y="-843.5" font-family="Consolas" font-size="10.00"> </text>
<polygon fill="#bfbfbf" stroke="#bfbfbf" points="51.88,-869.5 51.88,-869.5 128.12,-869.5 128.12,-869.5 51.88,-869.5"/>
<polygon fill="#bfbfbf" stroke="#bfbfbf" points="51.88,-855 51.88,-855 128.12,-855 128.12,-855 51.88,-855"/>
<polygon fill="none" stroke="#bfbfbf" points="51.88,-838.5 51.88,-886 128.12,-886 128.12,-838.5 51.88,-838.5"/>
</a>
</g>
</g>
<!-- Node4&#45;&gt;Node3 -->
<g id="edge3_Node000003_Node000004" class="edge">
<title>Node4&#45;&gt;Node3</title>
<g id="a_edge3_Node000003_Node000004"><a xlink:title=" ">
<path fill="none" stroke="#63b8ff" d="M90,-827.09C90,-819.47 90,-810.83 90,-801.41"/>
<polygon fill="none" stroke="#63b8ff" points="86.5,-827.01 90,-837.01 93.5,-827.01 86.5,-827.01"/>
</a>
</g>
</g>
</g>
</svg>
