<?xml version="1.0" encoding="UTF-8" standalone="no"?>
<!DOCTYPE svg PUBLIC "-//W3C//DTD SVG 1.1//EN"
 "http://www.w3.org/Graphics/SVG/1.1/DTD/svg11.dtd">
<!-- Generated by graphviz version 12.2.1 (20241206.2353)
 -->
<!-- Title: ShipWeapon Pages: 1 -->
<svg width="208pt" height="441pt"
 viewBox="0.00 0.00 207.62 441.00" xmlns="http://www.w3.org/2000/svg" xmlns:xlink="http://www.w3.org/1999/xlink">
<g id="graph0" class="graph" transform="scale(1 1) rotate(0) translate(4 437)">
<title>ShipWeapon</title>
<!-- Node1 -->
<g id="Node000001" class="node">
<title>Node1</title>
<g id="a_Node000001"><a xlink:title="실제 무기 인스턴스를 나타내는 클래스. 무기 데이터와 쿨다운 상태를 포함하며, 발사 위치 및 각종 무기 정보를 제공합니다.">
<polygon fill="#999999" stroke="none" points="106.62,-196 0.88,-196 0.88,0 106.62,0 106.62,-196"/>
<text text-anchor="start" x="26.38" y="-182.5" font-family="Helvetica,sans-Serif" font-size="10.00">ShipWeapon</text>
<text text-anchor="start" x="52.25" y="-166.5" font-family="Helvetica,sans-Serif" font-size="10.00"> </text>
<text text-anchor="start" x="4.88" y="-150.5" font-family="Helvetica,sans-Serif" font-size="10.00">+</text>
<text text-anchor="start" x="14.88" y="-150.5" font-family="Helvetica,sans-Serif" font-size="10.00">ShipWeapon()</text>
<text text-anchor="start" x="4.88" y="-134.5" font-family="Helvetica,sans-Serif" font-size="10.00">+</text>
<text text-anchor="start" x="14.88" y="-134.5" font-family="Helvetica,sans-Serif" font-size="10.00">UpdateCooldown()</text>
<text text-anchor="start" x="4.88" y="-118.5" font-family="Helvetica,sans-Serif" font-size="10.00">+</text>
<text text-anchor="start" x="14.88" y="-118.5" font-family="Helvetica,sans-Serif" font-size="10.00">IsReady()</text>
<text text-anchor="start" x="4.88" y="-102.5" font-family="Helvetica,sans-Serif" font-size="10.00">+</text>
<text text-anchor="start" x="14.88" y="-102.5" font-family="Helvetica,sans-Serif" font-size="10.00">ResetCooldown()</text>
<text text-anchor="start" x="4.88" y="-86.5" font-family="Helvetica,sans-Serif" font-size="10.00">+</text>
<text text-anchor="start" x="14.88" y="-86.5" font-family="Helvetica,sans-Serif" font-size="10.00">ResetCooldown()</text>
<text text-anchor="start" x="4.88" y="-70.5" font-family="Helvetica,sans-Serif" font-size="10.00">+</text>
<text text-anchor="start" x="14.88" y="-70.5" font-family="Helvetica,sans-Serif" font-size="10.00">GetWeaponName()</text>
<text text-anchor="start" x="4.88" y="-54.5" font-family="Helvetica,sans-Serif" font-size="10.00">+</text>
<text text-anchor="start" x="14.88" y="-54.5" font-family="Helvetica,sans-Serif" font-size="10.00">GetDamage()</text>
<text text-anchor="start" x="4.88" y="-38.5" font-family="Helvetica,sans-Serif" font-size="10.00">+</text>
<text text-anchor="start" x="14.88" y="-38.5" font-family="Helvetica,sans-Serif" font-size="10.00">GetBaseCooldown()</text>
<text text-anchor="start" x="4.88" y="-22.5" font-family="Helvetica,sans-Serif" font-size="10.00">+</text>
<text text-anchor="start" x="14.88" y="-22.5" font-family="Helvetica,sans-Serif" font-size="10.00">GetWeaponType()</text>
<text text-anchor="start" x="4.88" y="-6.5" font-family="Helvetica,sans-Serif" font-size="10.00">+</text>
<text text-anchor="start" x="14.88" y="-6.5" font-family="Helvetica,sans-Serif" font-size="10.00">GetFirePosition()</text>
<polygon fill="#666666" stroke="#666666" points="0.88,-178 0.88,-178 106.62,-178 106.62,-178 0.88,-178"/>
<polygon fill="#666666" stroke="#666666" points="0.88,-162 0.88,-162 106.62,-162 106.62,-162 0.88,-162"/>
<polygon fill="none" stroke="#666666" points="0.88,0 0.88,-196 106.62,-196 106.62,0 0.88,0"/>
</a>
</g>
</g>
<!-- Node2 -->
<g id="Node000002" class="node">
<title>Node2</title>
<g id="a_Node000002"><a xlink:title=" ">
<polygon fill="white" stroke="none" points="75.5,-320 0,-320 0,-268 75.5,-268 75.5,-320"/>
<text text-anchor="start" x="4" y="-306.5" font-family="Helvetica,sans-Serif" font-size="10.00">MonoBehaviour</text>
<text text-anchor="start" x="36.25" y="-290.5" font-family="Helvetica,sans-Serif" font-size="10.00"> </text>
<text text-anchor="start" x="36.25" y="-274.5" font-family="Helvetica,sans-Serif" font-size="10.00"> </text>
<polygon fill="#bfbfbf" stroke="#bfbfbf" points="0,-302 0,-302 75.5,-302 75.5,-302 0,-302"/>
<polygon fill="#bfbfbf" stroke="#bfbfbf" points="0,-286 0,-286 75.5,-286 75.5,-286 0,-286"/>
<polygon fill="none" stroke="#bfbfbf" points="0,-268 0,-320 75.5,-320 75.5,-268 0,-268"/>
</a>
</g>
</g>
<!-- Node2&#45;&gt;Node1 -->
<g id="edge1_Node000001_Node000002" class="edge">
<title>Node2&#45;&gt;Node1</title>
<g id="a_edge1_Node000001_Node000002"><a xlink:title=" ">
<path fill="none" stroke="#63b8ff" d="M40.74,-256.76C42.17,-239.38 43.96,-217.65 45.76,-195.93"/>
<polygon fill="none" stroke="#63b8ff" points="37.27,-256.27 39.93,-266.53 44.24,-256.85 37.27,-256.27"/>
</a>
</g>
</g>
<!-- Node3 -->
<g id="Node000003" class="node">
<title>Node3</title>
<g id="a_Node000003"><a xlink:href="class_ship_weapon_data.html" target="_top" xlink:title="무기 정보를 저장하는 ScriptableObject. 이름, 데미지, 쿨다운, 무기 종류 등의 데이터를 포함합니다.">
<polygon fill="white" stroke="none" points="199.62,-344 93.88,-344 93.88,-244 199.62,-244 199.62,-344"/>
<text text-anchor="start" x="108.88" y="-330.5" font-family="Helvetica,sans-Serif" font-size="10.00">ShipWeaponData</text>
<text text-anchor="start" x="145.25" y="-314.5" font-family="Helvetica,sans-Serif" font-size="10.00"> </text>
<text text-anchor="start" x="97.88" y="-298.5" font-family="Helvetica,sans-Serif" font-size="10.00">+</text>
<text text-anchor="start" x="107.88" y="-298.5" font-family="Helvetica,sans-Serif" font-size="10.00">GetWeaponName()</text>
<text text-anchor="start" x="97.88" y="-282.5" font-family="Helvetica,sans-Serif" font-size="10.00">+</text>
<text text-anchor="start" x="107.88" y="-282.5" font-family="Helvetica,sans-Serif" font-size="10.00">GetDamage()</text>
<text text-anchor="start" x="97.88" y="-266.5" font-family="Helvetica,sans-Serif" font-size="10.00">+</text>
<text text-anchor="start" x="107.88" y="-266.5" font-family="Helvetica,sans-Serif" font-size="10.00">GetBaseCooldown()</text>
<text text-anchor="start" x="97.88" y="-250.5" font-family="Helvetica,sans-Serif" font-size="10.00">+</text>
<text text-anchor="start" x="107.88" y="-250.5" font-family="Helvetica,sans-Serif" font-size="10.00">GetWeaponType()</text>
<polygon fill="#666666" stroke="#666666" points="93.88,-326 93.88,-326 199.62,-326 199.62,-326 93.88,-326"/>
<polygon fill="#666666" stroke="#666666" points="93.88,-310 93.88,-310 199.62,-310 199.62,-310 93.88,-310"/>
<polygon fill="none" stroke="#666666" points="93.88,-244 93.88,-344 199.62,-344 199.62,-244 93.88,-244"/>
</a>
</g>
</g>
<!-- Node3&#45;&gt;Node1 -->
<g id="edge2_Node000001_Node000003" class="edge">
<title>Node3&#45;&gt;Node1</title>
<g id="a_edge2_Node000001_Node000003"><a xlink:title=" ">
<path fill="none" stroke="#63b8ff" d="M123.28,-244.05C117.89,-232.79 111.93,-220.37 105.85,-207.69"/>
<polygon fill="none" stroke="#63b8ff" points="105.82,-207.62 99.62,-203.94 100.64,-196.8 106.84,-200.49 105.82,-207.62"/>
</a>
</g>
<text text-anchor="middle" x="145.89" y="-216.5" font-family="Helvetica,sans-Serif" font-size="10.00" fill="grey"> +weaponData</text>
</g>
<!-- Node4 -->
<g id="Node000004" class="node">
<title>Node4</title>
<g id="a_Node000004"><a xlink:title=" ">
<polygon fill="white" stroke="none" points="186.75,-433 106.75,-433 106.75,-381 186.75,-381 186.75,-433"/>
<text text-anchor="start" x="110.75" y="-419.5" font-family="Helvetica,sans-Serif" font-size="10.00">ScriptableObject</text>
<text text-anchor="start" x="145.25" y="-403.5" font-family="Helvetica,sans-Serif" font-size="10.00"> </text>
<text text-anchor="start" x="145.25" y="-387.5" font-family="Helvetica,sans-Serif" font-size="10.00"> </text>
<polygon fill="#bfbfbf" stroke="#bfbfbf" points="106.75,-415 106.75,-415 186.75,-415 186.75,-415 106.75,-415"/>
<polygon fill="#bfbfbf" stroke="#bfbfbf" points="106.75,-399 106.75,-399 186.75,-399 186.75,-399 106.75,-399"/>
<polygon fill="none" stroke="#bfbfbf" points="106.75,-381 106.75,-433 186.75,-433 186.75,-381 106.75,-381"/>
</a>
</g>
</g>
<!-- Node4&#45;&gt;Node3 -->
<g id="edge3_Node000003_Node000004" class="edge">
<title>Node4&#45;&gt;Node3</title>
<g id="a_edge3_Node000003_Node000004"><a xlink:title=" ">
<path fill="none" stroke="#63b8ff" d="M146.75,-369.61C146.75,-361.4 146.75,-352.56 146.75,-343.93"/>
<polygon fill="none" stroke="#63b8ff" points="143.25,-369.58 146.75,-379.58 150.25,-369.58 143.25,-369.58"/>
</a>
</g>
</g>
</g>
</svg>
