<?xml version="1.0" encoding="UTF-8" standalone="no"?>
<!DOCTYPE svg PUBLIC "-//W3C//DTD SVG 1.1//EN"
 "http://www.w3.org/Graphics/SVG/1.1/DTD/svg11.dtd">
<!-- Generated by graphviz version 12.2.1 (20241206.2353)
 -->
<!-- Title: CrewQuartersRoomData.CrewQuartersRoomLevel Pages: 1 -->
<svg width="150pt" height="176pt"
 viewBox="0.00 0.00 150.25 176.00" xmlns="http://www.w3.org/2000/svg" xmlns:xlink="http://www.w3.org/1999/xlink">
<g id="graph0" class="graph" transform="scale(1 1) rotate(0) translate(4 172)">
<title>CrewQuartersRoomData.CrewQuartersRoomLevel</title>
<!-- Node1 -->
<g id="Node000001" class="node">
<title>Node1</title>
<g id="a_Node000001"><a xlink:title=" ">
<polygon fill="#999999" stroke="none" points="142.25,-80 0,-80 0,0 142.25,0 142.25,-80"/>
<text text-anchor="start" x="4" y="-66.5" font-family="Helvetica,sans-Serif" font-size="10.00">CrewQuartersRoomData.Crew</text>
<text text-anchor="start" x="27.62" y="-54.5" font-family="Helvetica,sans-Serif" font-size="10.00">QuartersRoomLevel</text>
<text text-anchor="start" x="14.81" y="-38.5" font-family="Helvetica,sans-Serif" font-size="10.00">+</text>
<text text-anchor="start" x="35.62" y="-38.5" font-family="Helvetica,sans-Serif" font-size="10.00">maxCrewCapacity</text>
<text text-anchor="start" x="14.81" y="-22.5" font-family="Helvetica,sans-Serif" font-size="10.00">+</text>
<text text-anchor="start" x="35.62" y="-22.5" font-family="Helvetica,sans-Serif" font-size="10.00">crewMoraleBonus</text>
<text text-anchor="start" x="69.62" y="-6.5" font-family="Helvetica,sans-Serif" font-size="10.00"> </text>
<polygon fill="#666666" stroke="#666666" points="0,-50 0,-50 142.25,-50 142.25,-50 0,-50"/>
<polygon fill="#666666" stroke="#666666" points="0,-18 0,-18 33.62,-18 33.62,-18 0,-18"/>
<polygon fill="#666666" stroke="#666666" points="33.62,-18 33.62,-18 142.25,-18 142.25,-18 33.62,-18"/>
<polygon fill="none" stroke="#666666" points="0,0 0,-80 142.25,-80 142.25,0 0,0"/>
</a>
</g>
</g>
<!-- Node2 -->
<g id="Node000002" class="node">
<title>Node2</title>
<g id="a_Node000002"><a xlink:title=" ">
<polygon fill="white" stroke="none" points="99.88,-168 42.38,-168 42.38,-116 99.88,-116 99.88,-168"/>
<text text-anchor="start" x="46.38" y="-154.5" font-family="Helvetica,sans-Serif" font-size="10.00">RoomLevel</text>
<text text-anchor="start" x="69.62" y="-138.5" font-family="Helvetica,sans-Serif" font-size="10.00"> </text>
<text text-anchor="start" x="69.62" y="-122.5" font-family="Helvetica,sans-Serif" font-size="10.00"> </text>
<polygon fill="#bfbfbf" stroke="#bfbfbf" points="42.38,-150 42.38,-150 99.88,-150 99.88,-150 42.38,-150"/>
<polygon fill="#bfbfbf" stroke="#bfbfbf" points="42.38,-134 42.38,-134 99.88,-134 99.88,-134 42.38,-134"/>
<polygon fill="none" stroke="#bfbfbf" points="42.38,-116 42.38,-168 99.88,-168 99.88,-116 42.38,-116"/>
</a>
</g>
</g>
<!-- Node2&#45;&gt;Node1 -->
<g id="edge1_Node000001_Node000002" class="edge">
<title>Node2&#45;&gt;Node1</title>
<g id="a_edge1_Node000001_Node000002"><a xlink:title=" ">
<path fill="none" stroke="#63b8ff" d="M71.12,-104.61C71.12,-96.5 71.12,-87.86 71.12,-79.65"/>
<polygon fill="none" stroke="#63b8ff" points="67.63,-104.51 71.13,-114.51 74.63,-104.51 67.63,-104.51"/>
</a>
</g>
</g>
</g>
</svg>
