<?xml version="1.0" encoding="UTF-8" standalone="no"?>
<!DOCTYPE svg PUBLIC "-//W3C//DTD SVG 1.1//EN"
 "http://www.w3.org/Graphics/SVG/1.1/DTD/svg11.dtd">
<!-- Generated by graphviz version 12.2.1 (20241206.2353)
 -->
<!-- Title: RoomDragHandler Pages: 1 -->
<svg width="602pt" height="448pt"
 viewBox="0.00 0.00 602.38 447.50" xmlns="http://www.w3.org/2000/svg" xmlns:xlink="http://www.w3.org/1999/xlink">
<g id="graph0" class="graph" transform="scale(1 1) rotate(0) translate(4 443.5)">
<title>RoomDragHandler</title>
<!-- Node1 -->
<g id="Node000001" class="node">
<title>Node1</title>
<g id="a_Node000001"><a xlink:title="방 설치, 회전, 삭제, 이동까지 담당하는 드래그 핸들러">
<polygon fill="#999999" stroke="none" points="324.62,-205.5 165.62,-205.5 165.62,0 324.62,0 324.62,-205.5"/>
<text text-anchor="start" x="205.75" y="-192" font-family="Consolas" font-size="10.00">RoomDragHandler</text>
<text text-anchor="start" x="169.62" y="-177.5" font-family="Consolas" font-size="10.00">+</text>
<text text-anchor="start" x="178.88" y="-177.5" font-family="Consolas" font-size="10.00">GameObject roomPrefab</text>
<text text-anchor="start" x="169.62" y="-163" font-family="Consolas" font-size="10.00">+</text>
<text text-anchor="start" x="178.88" y="-163" font-family="Consolas" font-size="10.00">GameObject previewPrefab</text>
<text text-anchor="start" x="169.62" y="-148.5" font-family="Consolas" font-size="10.00">+</text>
<text text-anchor="start" x="178.88" y="-148.5" font-family="Consolas" font-size="10.00">Vector2Int roomSize</text>
<text text-anchor="start" x="169.62" y="-134" font-family="Consolas" font-size="10.00">+</text>
<text text-anchor="start" x="178.88" y="-134" font-family="Consolas" font-size="10.00">int rotation</text>
<text text-anchor="start" x="169.62" y="-119.5" font-family="Consolas" font-size="10.00">+</text>
<text text-anchor="start" x="178.88" y="-119.5" font-family="Consolas" font-size="10.00">int roomLevel</text>
<text text-anchor="start" x="169.62" y="-105" font-family="Consolas" font-size="10.00">+</text>
<text text-anchor="start" x="178.88" y="-105" font-family="Consolas" font-size="10.00">SpriteRenderer previewSR</text>
<text text-anchor="start" x="169.62" y="-90.5" font-family="Consolas" font-size="10.00">+</text>
<text text-anchor="start" x="178.88" y="-90.5" font-family="Consolas" font-size="10.00">void InitializeFromRoomData</text>
<text text-anchor="start" x="178.88" y="-80" font-family="Consolas" font-size="10.00">(RoomData data, int level)</text>
<text text-anchor="start" x="169.62" y="-65.5" font-family="Consolas" font-size="10.00">+</text>
<text text-anchor="start" x="178.88" y="-65.5" font-family="Consolas" font-size="10.00">void OnBeginDrag(Pointer</text>
<text text-anchor="start" x="178.88" y="-55" font-family="Consolas" font-size="10.00">EventData eventData)</text>
<text text-anchor="start" x="169.62" y="-40.5" font-family="Consolas" font-size="10.00">+</text>
<text text-anchor="start" x="178.88" y="-40.5" font-family="Consolas" font-size="10.00">void OnDrag(PointerEvent</text>
<text text-anchor="start" x="178.88" y="-30" font-family="Consolas" font-size="10.00">Data eventData)</text>
<text text-anchor="start" x="169.62" y="-15.5" font-family="Consolas" font-size="10.00">+</text>
<text text-anchor="start" x="178.88" y="-15.5" font-family="Consolas" font-size="10.00">void OnEndDrag(PointerEvent</text>
<text text-anchor="start" x="178.88" y="-5" font-family="Consolas" font-size="10.00">Data eventData)</text>
<polygon fill="#666666" stroke="#666666" points="165.62,-189 165.62,-189 324.62,-189 324.62,-189 165.62,-189"/>
<polygon fill="#666666" stroke="#666666" points="165.62,-102 165.62,-102 176.88,-102 176.88,-102 165.62,-102"/>
<polygon fill="#666666" stroke="#666666" points="176.88,-102 176.88,-102 324.62,-102 324.62,-102 176.88,-102"/>
<polygon fill="none" stroke="#666666" points="165.62,0 165.62,-205.5 324.62,-205.5 324.62,0 165.62,0"/>
</a>
</g>
</g>
<!-- Node1&#45;&gt;Node1 -->
<g id="edge5_Node000001_Node000001" class="edge">
<title>Node1&#45;&gt;Node1</title>
<g id="a_edge5_Node000001_Node000001"><a xlink:title=" ">
<path fill="none" stroke="#63b8ff" d="M324.31,-123.96C335.29,-120.46 342.62,-113.4 342.62,-102.75 342.62,-96.43 340.04,-91.37 335.64,-87.57"/>
<polygon fill="none" stroke="#63b8ff" points="335.7,-87.6 328.53,-88.32 325.11,-81.97 332.29,-81.25 335.7,-87.6"/>
</a>
</g>
<text text-anchor="middle" x="365.88" y="-99.25" font-family="Helvetica,sans-Serif" font-size="10.00" fill="grey"> +Instance</text>
</g>
<!-- Node2 -->
<g id="Node000002" class="node">
<title>Node2</title>
<g id="a_Node000002"><a xlink:title=" ">
<polygon fill="white" stroke="none" points="76.25,-328 0,-328 0,-280.5 76.25,-280.5 76.25,-328"/>
<text text-anchor="start" x="4" y="-314.5" font-family="Consolas" font-size="10.00">MonoBehaviour</text>
<text text-anchor="start" x="35.5" y="-300" font-family="Consolas" font-size="10.00"> </text>
<text text-anchor="start" x="35.5" y="-285.5" font-family="Consolas" font-size="10.00"> </text>
<polygon fill="#bfbfbf" stroke="#bfbfbf" points="0,-311.5 0,-311.5 76.25,-311.5 76.25,-311.5 0,-311.5"/>
<polygon fill="#bfbfbf" stroke="#bfbfbf" points="0,-297 0,-297 76.25,-297 76.25,-297 0,-297"/>
<polygon fill="none" stroke="#bfbfbf" points="0,-280.5 0,-328 76.25,-328 76.25,-280.5 0,-280.5"/>
</a>
</g>
</g>
<!-- Node2&#45;&gt;Node1 -->
<g id="edge1_Node000001_Node000002" class="edge">
<title>Node2&#45;&gt;Node1</title>
<g id="a_edge1_Node000001_Node000002"><a xlink:title=" ">
<path fill="none" stroke="#63b8ff" d="M66.79,-272.31C72.78,-266.02 79.1,-259.49 85.12,-253.5 110.88,-227.87 139.68,-200.52 165.68,-176.3"/>
<polygon fill="none" stroke="#63b8ff" points="64.25,-269.91 59.93,-279.58 69.34,-274.71 64.25,-269.91"/>
</a>
</g>
</g>
<!-- Node3 -->
<g id="Node000003" class="node">
<title>Node3</title>
<g id="a_Node000003"><a xlink:title=" ">
<polygon fill="white" stroke="none" points="191.75,-328 94.5,-328 94.5,-280.5 191.75,-280.5 191.75,-328"/>
<text text-anchor="start" x="98.5" y="-314.5" font-family="Consolas" font-size="10.00">IBeginDragHandler</text>
<text text-anchor="start" x="140.5" y="-300" font-family="Consolas" font-size="10.00"> </text>
<text text-anchor="start" x="140.5" y="-285.5" font-family="Consolas" font-size="10.00"> </text>
<polygon fill="#bfbfbf" stroke="#bfbfbf" points="94.5,-311.5 94.5,-311.5 191.75,-311.5 191.75,-311.5 94.5,-311.5"/>
<polygon fill="#bfbfbf" stroke="#bfbfbf" points="94.5,-297 94.5,-297 191.75,-297 191.75,-297 94.5,-297"/>
<polygon fill="none" stroke="#bfbfbf" points="94.5,-280.5 94.5,-328 191.75,-328 191.75,-280.5 94.5,-280.5"/>
</a>
</g>
</g>
<!-- Node3&#45;&gt;Node1 -->
<g id="edge2_Node000001_Node000003" class="edge">
<title>Node3&#45;&gt;Node1</title>
<g id="a_edge2_Node000001_Node000003"><a xlink:title=" ">
<path fill="none" stroke="#63b8ff" d="M159.74,-270.75C169.02,-252.6 181.15,-228.89 193.33,-205.06"/>
<polygon fill="none" stroke="#63b8ff" points="156.75,-268.91 155.32,-279.4 162.99,-272.09 156.75,-268.91"/>
</a>
</g>
</g>
<!-- Node4 -->
<g id="Node000004" class="node">
<title>Node4</title>
<g id="a_Node000004"><a xlink:title=" ">
<polygon fill="white" stroke="none" points="280.62,-328 209.62,-328 209.62,-280.5 280.62,-280.5 280.62,-328"/>
<text text-anchor="start" x="213.62" y="-314.5" font-family="Consolas" font-size="10.00">IDragHandler</text>
<text text-anchor="start" x="242.5" y="-300" font-family="Consolas" font-size="10.00"> </text>
<text text-anchor="start" x="242.5" y="-285.5" font-family="Consolas" font-size="10.00"> </text>
<polygon fill="#bfbfbf" stroke="#bfbfbf" points="209.62,-311.5 209.62,-311.5 280.62,-311.5 280.62,-311.5 209.62,-311.5"/>
<polygon fill="#bfbfbf" stroke="#bfbfbf" points="209.62,-297 209.62,-297 280.62,-297 280.62,-297 209.62,-297"/>
<polygon fill="none" stroke="#bfbfbf" points="209.62,-280.5 209.62,-328 280.62,-328 280.62,-280.5 209.62,-280.5"/>
</a>
</g>
</g>
<!-- Node4&#45;&gt;Node1 -->
<g id="edge3_Node000001_Node000004" class="edge">
<title>Node4&#45;&gt;Node1</title>
<g id="a_edge3_Node000001_Node000004"><a xlink:title=" ">
<path fill="none" stroke="#63b8ff" d="M245.12,-269.47C245.12,-251.49 245.12,-228.33 245.12,-205.06"/>
<polygon fill="none" stroke="#63b8ff" points="241.63,-269.24 245.13,-279.24 248.63,-269.24 241.63,-269.24"/>
</a>
</g>
</g>
<!-- Node5 -->
<g id="Node000005" class="node">
<title>Node5</title>
<g id="a_Node000005"><a xlink:title=" ">
<polygon fill="white" stroke="none" points="385.5,-328 298.75,-328 298.75,-280.5 385.5,-280.5 385.5,-328"/>
<text text-anchor="start" x="302.75" y="-314.5" font-family="Consolas" font-size="10.00">IEndDragHandler</text>
<text text-anchor="start" x="339.5" y="-300" font-family="Consolas" font-size="10.00"> </text>
<text text-anchor="start" x="339.5" y="-285.5" font-family="Consolas" font-size="10.00"> </text>
<polygon fill="#bfbfbf" stroke="#bfbfbf" points="298.75,-311.5 298.75,-311.5 385.5,-311.5 385.5,-311.5 298.75,-311.5"/>
<polygon fill="#bfbfbf" stroke="#bfbfbf" points="298.75,-297 298.75,-297 385.5,-297 385.5,-297 298.75,-297"/>
<polygon fill="none" stroke="#bfbfbf" points="298.75,-280.5 298.75,-328 385.5,-328 385.5,-280.5 298.75,-280.5"/>
</a>
</g>
</g>
<!-- Node5&#45;&gt;Node1 -->
<g id="edge4_Node000001_Node000005" class="edge">
<title>Node5&#45;&gt;Node1</title>
<g id="a_edge4_Node000001_Node000005"><a xlink:title=" ">
<path fill="none" stroke="#63b8ff" d="M326.2,-270.49C317.39,-252.38 305.91,-228.77 294.38,-205.06"/>
<polygon fill="none" stroke="#63b8ff" points="323,-271.93 330.52,-279.39 329.3,-268.87 323,-271.93"/>
</a>
</g>
</g>
<!-- Node6 -->
<g id="Node000006" class="node">
<title>Node6</title>
<g id="a_Node000006"><a xlink:href="class_room_data.html" target="_top" xlink:title="모든 방 유형의 기본 데이터를 정의하는 추상 ScriptableObject. 방의 레벨별 속성, 체력, 크기, 요구 자원 등을 설정합니다.">
<polygon fill="white" stroke="none" points="594.38,-355 403.88,-355 403.88,-253.5 594.38,-253.5 594.38,-355"/>
<text text-anchor="start" x="478.12" y="-341.5" font-family="Consolas" font-size="10.00">RoomData</text>
<text text-anchor="start" x="496.5" y="-327" font-family="Consolas" font-size="10.00"> </text>
<text text-anchor="start" x="407.88" y="-312.5" font-family="Consolas" font-size="10.00">+</text>
<text text-anchor="start" x="417.12" y="-312.5" font-family="Consolas" font-size="10.00">RoomLevel GetRoomData</text>
<text text-anchor="start" x="417.12" y="-302" font-family="Consolas" font-size="10.00">(int level)</text>
<text text-anchor="start" x="407.88" y="-287.5" font-family="Consolas" font-size="10.00">#</text>
<text text-anchor="start" x="417.12" y="-287.5" font-family="Consolas" font-size="10.00">void InitializeDefaultLevels()</text>
<text text-anchor="start" x="407.88" y="-273" font-family="Consolas" font-size="10.00">#</text>
<text text-anchor="start" x="417.12" y="-273" font-family="Consolas" font-size="10.00">virtual void OnEnable()</text>
<text text-anchor="start" x="407.88" y="-258.5" font-family="Consolas" font-size="10.00">#</text>
<text text-anchor="start" x="417.12" y="-258.5" font-family="Consolas" font-size="10.00">bool CheckIfNeedsInitialization()</text>
<polygon fill="#666666" stroke="#666666" points="403.88,-338.5 403.88,-338.5 594.38,-338.5 594.38,-338.5 403.88,-338.5"/>
<polygon fill="#666666" stroke="#666666" points="403.88,-324 403.88,-324 594.38,-324 594.38,-324 403.88,-324"/>
<polygon fill="none" stroke="#666666" points="403.88,-253.5 403.88,-355 594.38,-355 594.38,-253.5 403.88,-253.5"/>
</a>
</g>
</g>
<!-- Node6&#45;&gt;Node1 -->
<g id="edge6_Node000001_Node000006" class="edge">
<title>Node6&#45;&gt;Node1</title>
<g id="a_edge6_Node000001_Node000006"><a xlink:title=" ">
<path fill="none" stroke="#63b8ff" d="M436.01,-253.68C405.39,-229.63 368.06,-200.31 334.57,-174"/>
<polygon fill="none" stroke="#63b8ff" points="334.45,-173.91 327.26,-173.35 325.01,-166.5 332.2,-167.06 334.45,-173.91"/>
</a>
</g>
<text text-anchor="middle" x="435.59" y="-226" font-family="Helvetica,sans-Serif" font-size="10.00" fill="grey"> +roomData</text>
</g>
<!-- Node7 -->
<g id="Node000007" class="node">
<title>Node7</title>
<g id="a_Node000007"><a xlink:title=" ">
<polygon fill="white" stroke="none" points="545.12,-439.5 453.12,-439.5 453.12,-392 545.12,-392 545.12,-439.5"/>
<text text-anchor="start" x="457.12" y="-426" font-family="Consolas" font-size="10.00">ScriptableObject</text>
<text text-anchor="start" x="496.5" y="-411.5" font-family="Consolas" font-size="10.00"> </text>
<text text-anchor="start" x="496.5" y="-397" font-family="Consolas" font-size="10.00"> </text>
<polygon fill="#bfbfbf" stroke="#bfbfbf" points="453.12,-423 453.12,-423 545.12,-423 545.12,-423 453.12,-423"/>
<polygon fill="#bfbfbf" stroke="#bfbfbf" points="453.12,-408.5 453.12,-408.5 545.12,-408.5 545.12,-408.5 453.12,-408.5"/>
<polygon fill="none" stroke="#bfbfbf" points="453.12,-392 453.12,-439.5 545.12,-439.5 545.12,-392 453.12,-392"/>
</a>
</g>
</g>
<!-- Node7&#45;&gt;Node6 -->
<g id="edge7_Node000006_Node000007" class="edge">
<title>Node7&#45;&gt;Node6</title>
<g id="a_edge7_Node000006_Node000007"><a xlink:title=" ">
<path fill="none" stroke="#63b8ff" d="M499.12,-380.73C499.12,-372.58 499.12,-363.7 499.12,-355"/>
<polygon fill="none" stroke="#63b8ff" points="495.63,-380.55 499.13,-390.55 502.63,-380.55 495.63,-380.55"/>
</a>
</g>
</g>
</g>
</svg>
