<?xml version="1.0" encoding="UTF-8" standalone="no"?>
<!DOCTYPE svg PUBLIC "-//W3C//DTD SVG 1.1//EN"
 "http://www.w3.org/Graphics/SVG/1.1/DTD/svg11.dtd">
<!-- Generated by graphviz version 12.2.1 (20241206.2353)
 -->
<!-- Title: EngineRoomData.EngineRoomLevel Pages: 1 -->
<svg width="153pt" height="192pt"
 viewBox="0.00 0.00 152.50 192.00" xmlns="http://www.w3.org/2000/svg" xmlns:xlink="http://www.w3.org/1999/xlink">
<g id="graph0" class="graph" transform="scale(1 1) rotate(0) translate(4 188)">
<title>EngineRoomData.EngineRoomLevel</title>
<!-- Node1 -->
<g id="Node000001" class="node">
<title>Node1</title>
<g id="a_Node000001"><a xlink:title="엔진실의 레벨별 데이터 구조.">
<polygon fill="#999999" stroke="none" points="144.5,-96 0,-96 0,0 144.5,0 144.5,-96"/>
<text text-anchor="start" x="4" y="-82.5" font-family="Helvetica,sans-Serif" font-size="10.00">EngineRoomData.EngineRoom</text>
<text text-anchor="start" x="60.62" y="-70.5" font-family="Helvetica,sans-Serif" font-size="10.00">Level</text>
<text text-anchor="start" x="17.25" y="-54.5" font-family="Helvetica,sans-Serif" font-size="10.00">+</text>
<text text-anchor="start" x="40.5" y="-54.5" font-family="Helvetica,sans-Serif" font-size="10.00">fuelConsumption</text>
<text text-anchor="start" x="17.25" y="-38.5" font-family="Helvetica,sans-Serif" font-size="10.00">+</text>
<text text-anchor="start" x="40.5" y="-38.5" font-family="Helvetica,sans-Serif" font-size="10.00">fuelEfficiency</text>
<text text-anchor="start" x="17.25" y="-22.5" font-family="Helvetica,sans-Serif" font-size="10.00">+</text>
<text text-anchor="start" x="40.5" y="-22.5" font-family="Helvetica,sans-Serif" font-size="10.00">avoidEfficiency</text>
<text text-anchor="start" x="70.75" y="-6.5" font-family="Helvetica,sans-Serif" font-size="10.00"> </text>
<polygon fill="#666666" stroke="#666666" points="0,-66 0,-66 144.5,-66 144.5,-66 0,-66"/>
<polygon fill="#666666" stroke="#666666" points="0,-18 0,-18 38.5,-18 38.5,-18 0,-18"/>
<polygon fill="#666666" stroke="#666666" points="38.5,-18 38.5,-18 144.5,-18 144.5,-18 38.5,-18"/>
<polygon fill="none" stroke="#666666" points="0,0 0,-96 144.5,-96 144.5,0 0,0"/>
</a>
</g>
</g>
<!-- Node2 -->
<g id="Node000002" class="node">
<title>Node2</title>
<g id="a_Node000002"><a xlink:title=" ">
<polygon fill="white" stroke="none" points="101,-184 43.5,-184 43.5,-132 101,-132 101,-184"/>
<text text-anchor="start" x="47.5" y="-170.5" font-family="Helvetica,sans-Serif" font-size="10.00">RoomLevel</text>
<text text-anchor="start" x="70.75" y="-154.5" font-family="Helvetica,sans-Serif" font-size="10.00"> </text>
<text text-anchor="start" x="70.75" y="-138.5" font-family="Helvetica,sans-Serif" font-size="10.00"> </text>
<polygon fill="#bfbfbf" stroke="#bfbfbf" points="43.5,-166 43.5,-166 101,-166 101,-166 43.5,-166"/>
<polygon fill="#bfbfbf" stroke="#bfbfbf" points="43.5,-150 43.5,-150 101,-150 101,-150 43.5,-150"/>
<polygon fill="none" stroke="#bfbfbf" points="43.5,-132 43.5,-184 101,-184 101,-132 43.5,-132"/>
</a>
</g>
</g>
<!-- Node2&#45;&gt;Node1 -->
<g id="edge1_Node000001_Node000002" class="edge">
<title>Node2&#45;&gt;Node1</title>
<g id="a_edge1_Node000001_Node000002"><a xlink:title=" ">
<path fill="none" stroke="#63b8ff" d="M72.25,-120.93C72.25,-112.86 72.25,-104.19 72.25,-95.75"/>
<polygon fill="none" stroke="#63b8ff" points="68.75,-120.71 72.25,-130.71 75.75,-120.71 68.75,-120.71"/>
</a>
</g>
</g>
</g>
</svg>
