<?xml version="1.0" encoding="UTF-8" standalone="no"?>
<!DOCTYPE svg PUBLIC "-//W3C//DTD SVG 1.1//EN"
 "http://www.w3.org/Graphics/SVG/1.1/DTD/svg11.dtd">
<!-- Generated by graphviz version 12.2.1 (20241206.2353)
 -->
<!-- Title: CrewManager.AddCrewMember Pages: 1 -->
<svg width="358pt" height="52pt"
 viewBox="0.00 0.00 358.00 52.00" xmlns="http://www.w3.org/2000/svg" xmlns:xlink="http://www.w3.org/1999/xlink">
<g id="graph0" class="graph" transform="scale(1 1) rotate(0) translate(4 48)">
<title>CrewManager.AddCrewMember</title>
<!-- Node1 -->
<g id="Node000001" class="node">
<title>Node1</title>
<g id="a_Node000001"><a xlink:title="함선 내 선원 추가 선원 기본 정보 초기화, 함선 내 선원으로 등록">
<polygon fill="#999999" stroke="#666666" points="350,-26 194.5,-26 194.5,-6 350,-6 350,-26"/>
<text text-anchor="middle" x="272.25" y="-12.5" font-family="Helvetica,sans-Serif" font-size="10.00">CrewManager.AddCrewMember</text>
</a>
</g>
</g>
<!-- Node1&#45;&gt;Node1 -->
<g id="edge1_Node000001_Node000001" class="edge">
<title>Node1&#45;&gt;Node1</title>
<g id="a_edge1_Node000001_Node000001"><a xlink:title=" ">
<path fill="none" stroke="#63b8ff" d="M306.72,-37.11C302.61,-41.14 291.12,-44 272.25,-44 238.7,-44 228.48,-34.98 241.58,-26.34"/>
<polygon fill="#63b8ff" stroke="#63b8ff" points="310.05,-36.03 303.42,-27.77 303.45,-38.36 310.05,-36.03"/>
</a>
</g>
</g>
<!-- Node2 -->
<g id="Node000002" class="node">
<title>Node2</title>
<g id="a_Node000002"><a xlink:href="class_crew_u_i_handler.html#a22bad1caab3c0a3183de081a6257d08b" target="_top" xlink:title="선원 정보 입력 후 실제 생성하는 버튼 클릭 시 호출">
<polygon fill="white" stroke="#666666" points="158.5,-32 0,-32 0,0 158.5,0 158.5,-32"/>
<text text-anchor="start" x="8" y="-18.5" font-family="Helvetica,sans-Serif" font-size="10.00">CrewUIHandler.OnSubmitButton</text>
<text text-anchor="middle" x="79.25" y="-6.5" font-family="Helvetica,sans-Serif" font-size="10.00">Clicked</text>
</a>
</g>
</g>
<!-- Node1&#45;&gt;Node2 -->
<g id="edge2_Node000001_Node000002" class="edge">
<title>Node1&#45;&gt;Node2</title>
<g id="a_edge2_Node000001_Node000002"><a xlink:title=" ">
<path fill="none" stroke="#63b8ff" d="M182.6,-16C174.7,-16 166.73,-16 158.92,-16"/>
<polygon fill="#63b8ff" stroke="#63b8ff" points="182.6,-19.5 192.6,-16 182.6,-12.5 182.6,-19.5"/>
</a>
</g>
</g>
</g>
</svg>
