<?xml version="1.0" encoding="UTF-8" standalone="no"?>
<!DOCTYPE svg PUBLIC "-//W3C//DTD SVG 1.1//EN"
 "http://www.w3.org/Graphics/SVG/1.1/DTD/svg11.dtd">
<!-- Generated by graphviz version 12.2.1 (20241206.2353)
 -->
<!-- Title: AssistantEquipment Pages: 1 -->
<svg width="104pt" height="148pt"
 viewBox="0.00 0.00 103.75 148.00" xmlns="http://www.w3.org/2000/svg" xmlns:xlink="http://www.w3.org/1999/xlink">
<g id="graph0" class="graph" transform="scale(1 1) rotate(0) translate(4 144)">
<title>AssistantEquipment</title>
<!-- Node1 -->
<g id="Node000001" class="node">
<title>Node1</title>
<g id="a_Node000001"><a xlink:title=" ">
<polygon fill="#999999" stroke="none" points="95.75,-52 0,-52 0,0 95.75,0 95.75,-52"/>
<text text-anchor="start" x="4" y="-38.5" font-family="Helvetica,sans-Serif" font-size="10.00">AssistantEquipment</text>
<text text-anchor="start" x="46.38" y="-22.5" font-family="Helvetica,sans-Serif" font-size="10.00"> </text>
<text text-anchor="start" x="46.38" y="-6.5" font-family="Helvetica,sans-Serif" font-size="10.00"> </text>
<polygon fill="#666666" stroke="#666666" points="0,-34 0,-34 95.75,-34 95.75,-34 0,-34"/>
<polygon fill="#666666" stroke="#666666" points="0,-18 0,-18 95.75,-18 95.75,-18 0,-18"/>
<polygon fill="none" stroke="#666666" points="0,0 0,-52 95.75,-52 95.75,0 0,0"/>
</a>
</g>
</g>
<!-- Node2 -->
<g id="Node000002" class="node">
<title>Node2</title>
<g id="a_Node000002"><a xlink:title=" ">
<polygon fill="white" stroke="none" points="85.62,-140 10.12,-140 10.12,-88 85.62,-88 85.62,-140"/>
<text text-anchor="start" x="14.12" y="-126.5" font-family="Helvetica,sans-Serif" font-size="10.00">MonoBehaviour</text>
<text text-anchor="start" x="46.38" y="-110.5" font-family="Helvetica,sans-Serif" font-size="10.00"> </text>
<text text-anchor="start" x="46.38" y="-94.5" font-family="Helvetica,sans-Serif" font-size="10.00"> </text>
<polygon fill="#bfbfbf" stroke="#bfbfbf" points="10.12,-122 10.12,-122 85.62,-122 85.62,-122 10.12,-122"/>
<polygon fill="#bfbfbf" stroke="#bfbfbf" points="10.12,-106 10.12,-106 85.62,-106 85.62,-106 10.12,-106"/>
<polygon fill="none" stroke="#bfbfbf" points="10.12,-88 10.12,-140 85.62,-140 85.62,-88 10.12,-88"/>
</a>
</g>
</g>
<!-- Node2&#45;&gt;Node1 -->
<g id="edge1_Node000001_Node000002" class="edge">
<title>Node2&#45;&gt;Node1</title>
<g id="a_edge1_Node000001_Node000002"><a xlink:title=" ">
<path fill="none" stroke="#63b8ff" d="M47.88,-76.66C47.88,-68.29 47.88,-59.57 47.88,-51.82"/>
<polygon fill="none" stroke="#63b8ff" points="44.38,-76.61 47.88,-86.61 51.38,-76.61 44.38,-76.61"/>
</a>
</g>
</g>
</g>
</svg>
