<?xml version="1.0" encoding="UTF-8" standalone="no"?>
<!DOCTYPE svg PUBLIC "-//W3C//DTD SVG 1.1//EN"
 "http://www.w3.org/Graphics/SVG/1.1/DTD/svg11.dtd">
<!-- Generated by graphviz version 12.2.1 (20241206.2353)
 -->
<!-- Title: WarpStateMachine Pages: 1 -->
<svg width="105pt" height="212pt"
 viewBox="0.00 0.00 105.25 212.00" xmlns="http://www.w3.org/2000/svg" xmlns:xlink="http://www.w3.org/1999/xlink">

<svg id="main" version="1.1" xmlns="http://www.w3.org/2000/svg" xmlns:xlink="http://www.w3.org/1999/xlink" xml:space="preserve">

<style type="text/css"><![CDATA[
.node, .edge {opacity: 0.7;}
.node.selected, .edge.selected {opacity: 1;}
.edge:hover path { stroke: red; }
.edge:hover polygon { stroke: red; fill: red; }
]]></style>
<script type="application/ecmascript" xlink:href="svg.min.js"/>
<svg id="graph" class="graph">
<g id="graph0" class="graph" transform="scale(1 1) rotate(0) translate(4 208)">
<title>WarpStateMachine</title>
<!-- Node1 -->
<g id="Node000001" class="node">
<title>Node1</title>
<g id="a_Node000001"><a xlink:title="워프 과정의 상태를 관리하는 클래스 맵 시스템을 직접 제어하고 워프 프로세스의 전체 흐름을 관리함">
<polygon fill="#999999" stroke="none" points="93.88,-84 3.38,-84 3.38,0 93.88,0 93.88,-84"/>
<text text-anchor="start" x="7.38" y="-70.5" font-family="Helvetica,sans-Serif" font-size="10.00">WarpStateMachine</text>
<text text-anchor="start" x="47.12" y="-54.5" font-family="Helvetica,sans-Serif" font-size="10.00"> </text>
<text text-anchor="start" x="16.12" y="-38.5" font-family="Helvetica,sans-Serif" font-size="10.00">+</text>
<text text-anchor="start" x="34.88" y="-38.5" font-family="Helvetica,sans-Serif" font-size="10.00">Enter()</text>
<text text-anchor="start" x="16.12" y="-22.5" font-family="Helvetica,sans-Serif" font-size="10.00">+</text>
<text text-anchor="start" x="34.88" y="-22.5" font-family="Helvetica,sans-Serif" font-size="10.00">Update()</text>
<text text-anchor="start" x="16.12" y="-6.5" font-family="Helvetica,sans-Serif" font-size="10.00">+</text>
<text text-anchor="start" x="34.88" y="-6.5" font-family="Helvetica,sans-Serif" font-size="10.00">Exit()</text>
<polygon fill="#666666" stroke="#666666" points="3.38,-66 3.38,-66 93.88,-66 93.88,-66 3.38,-66"/>
<polygon fill="#666666" stroke="#666666" points="3.38,-50 3.38,-50 93.88,-50 93.88,-50 3.38,-50"/>
<polygon fill="none" stroke="#666666" points="3.38,0 3.38,-84 93.88,-84 93.88,0 3.38,0"/>
</a>
</g>
</g>
<!-- Node2 -->
<g id="Node000002" class="node">
<title>Node2</title>
<g id="a_Node000002"><a xlink:href="interface_i_game_state_machine.html" target="_top" xlink:title=" ">
<polygon fill="white" stroke="none" points="97.25,-204 0,-204 0,-120 97.25,-120 97.25,-204"/>
<text text-anchor="start" x="4" y="-190.5" font-family="Helvetica,sans-Serif" font-size="10.00">IGameStateMachine</text>
<text text-anchor="start" x="47.12" y="-174.5" font-family="Helvetica,sans-Serif" font-size="10.00"> </text>
<text text-anchor="start" x="14.44" y="-158.5" font-family="Helvetica,sans-Serif" font-size="10.00">+</text>
<text text-anchor="start" x="34.88" y="-158.5" font-family="Helvetica,sans-Serif" font-size="10.00">Enter()</text>
<text text-anchor="start" x="14.44" y="-142.5" font-family="Helvetica,sans-Serif" font-size="10.00">+</text>
<text text-anchor="start" x="34.88" y="-142.5" font-family="Helvetica,sans-Serif" font-size="10.00">Update()</text>
<text text-anchor="start" x="14.44" y="-126.5" font-family="Helvetica,sans-Serif" font-size="10.00">+</text>
<text text-anchor="start" x="34.88" y="-126.5" font-family="Helvetica,sans-Serif" font-size="10.00">Exit()</text>
<polygon fill="#bfbfbf" stroke="#bfbfbf" points="0,-186 0,-186 97.25,-186 97.25,-186 0,-186"/>
<polygon fill="#bfbfbf" stroke="#bfbfbf" points="0,-170 0,-170 97.25,-170 97.25,-170 0,-170"/>
<polygon fill="none" stroke="#bfbfbf" points="0,-120 0,-204 97.25,-204 97.25,-120 0,-120"/>
</a>
</g>
</g>
<!-- Node2&#45;&gt;Node1 -->
<g id="edge1_Node000001_Node000002" class="edge">
<title>Node2&#45;&gt;Node1</title>
<g id="a_edge1_Node000001_Node000002"><a xlink:title=" ">
<path fill="none" stroke="#63b8ff" d="M48.62,-108.55C48.62,-100.27 48.62,-91.83 48.62,-83.87"/>
<polygon fill="none" stroke="#63b8ff" points="45.13,-108.55 48.63,-118.55 52.13,-108.55 45.13,-108.55"/>
</a>
</g>
</g>
</g>
</svg>
</svg>

<style type='text/css'>
<![CDATA[
[data-mouse-over-selected='false'] { opacity: 0.7; }
[data-mouse-over-selected='true']  { opacity: 1.0; }
]]>
</style>
<script type="application/ecmascript"><![CDATA[
document.addEventListener('DOMContentLoaded', (event) => {
  highlightEdges();
  highlightAdjacentNodes();
});
]]></script>
</svg>
