<?xml version="1.0" encoding="UTF-8" standalone="no"?>
<!DOCTYPE svg PUBLIC "-//W3C//DTD SVG 1.1//EN"
 "http://www.w3.org/Graphics/SVG/1.1/DTD/svg11.dtd">
<!-- Generated by graphviz version 12.2.1 (20241206.2353)
 -->
<!-- Title: EventManager Pages: 1 -->
<svg width="167pt" height="250pt"
 viewBox="0.00 0.00 167.00 249.50" xmlns="http://www.w3.org/2000/svg" xmlns:xlink="http://www.w3.org/1999/xlink">

<svg id="main" version="1.1" xmlns="http://www.w3.org/2000/svg" xmlns:xlink="http://www.w3.org/1999/xlink" xml:space="preserve">

<style type="text/css"><![CDATA[
.node, .edge {opacity: 0.7;}
.node.selected, .edge.selected {opacity: 1;}
.edge:hover path { stroke: red; }
.edge:hover polygon { stroke: red; fill: red; }
]]></style>
<script type="application/ecmascript" xlink:href="svg.min.js"/>
<svg id="graph" class="graph">
<g id="graph0" class="graph" transform="scale(1 1) rotate(0) translate(4 245.5)">
<title>EventManager</title>
<!-- Node1 -->
<g id="Node000001" class="node">
<title>Node1</title>
<g id="a_Node000001"><a xlink:title=" ">
<polygon fill="#999999" stroke="none" points="159,-158 0,-158 0,0 159,0 159,-158"/>
<text text-anchor="start" x="48" y="-144.5" font-family="Consolas" font-size="10.00">EventManager</text>
<text text-anchor="start" x="4" y="-130" font-family="Consolas" font-size="10.00">+</text>
<text text-anchor="start" x="13.25" y="-130" font-family="Consolas" font-size="10.00">static EventManager</text>
<text text-anchor="start" x="13.25" y="-119.5" font-family="Consolas" font-size="10.00"> Instance</text>
<text text-anchor="start" x="4" y="-105" font-family="Consolas" font-size="10.00">+</text>
<text text-anchor="start" x="13.25" y="-105" font-family="Consolas" font-size="10.00">void TriggerLocationEvent()</text>
<text text-anchor="start" x="4" y="-90.5" font-family="Consolas" font-size="10.00">+</text>
<text text-anchor="start" x="13.25" y="-90.5" font-family="Consolas" font-size="10.00">void TriggerDailyEvent()</text>
<text text-anchor="start" x="4" y="-76" font-family="Consolas" font-size="10.00">+</text>
<text text-anchor="start" x="13.25" y="-76" font-family="Consolas" font-size="10.00">RandomEvent GetRandomEvent</text>
<text text-anchor="start" x="13.25" y="-65.5" font-family="Consolas" font-size="10.00">(bool isLocation)</text>
<text text-anchor="start" x="4" y="-51" font-family="Consolas" font-size="10.00">+</text>
<text text-anchor="start" x="13.25" y="-51" font-family="Consolas" font-size="10.00">void TriggerEvent(Random</text>
<text text-anchor="start" x="13.25" y="-40.5" font-family="Consolas" font-size="10.00">Event randomEvent)</text>
<text text-anchor="start" x="4" y="-26" font-family="Consolas" font-size="10.00">+</text>
<text text-anchor="start" x="13.25" y="-26" font-family="Consolas" font-size="10.00">void ProcessChoice</text>
<text text-anchor="start" x="13.25" y="-15.5" font-family="Consolas" font-size="10.00">(RandomEvent currentEvent,</text>
<text text-anchor="start" x="13.25" y="-5" font-family="Consolas" font-size="10.00"> int choiceIndex)</text>
<polygon fill="#666666" stroke="#666666" points="0,-141.5 0,-141.5 159,-141.5 159,-141.5 0,-141.5"/>
<polygon fill="#666666" stroke="#666666" points="0,-116.5 0,-116.5 11.25,-116.5 11.25,-116.5 0,-116.5"/>
<polygon fill="#666666" stroke="#666666" points="11.25,-116.5 11.25,-116.5 159,-116.5 159,-116.5 11.25,-116.5"/>
<polygon fill="none" stroke="#666666" points="0,0 0,-158 159,-158 159,0 0,0"/>
</a>
</g>
</g>
<!-- Node2 -->
<g id="Node000002" class="node">
<title>Node2</title>
<g id="a_Node000002"><a xlink:title=" ">
<polygon fill="white" stroke="none" points="117.62,-241.5 41.38,-241.5 41.38,-194 117.62,-194 117.62,-241.5"/>
<text text-anchor="start" x="45.38" y="-228" font-family="Consolas" font-size="10.00">MonoBehaviour</text>
<text text-anchor="start" x="76.88" y="-213.5" font-family="Consolas" font-size="10.00"> </text>
<text text-anchor="start" x="76.88" y="-199" font-family="Consolas" font-size="10.00"> </text>
<polygon fill="#bfbfbf" stroke="#bfbfbf" points="41.38,-225 41.38,-225 117.62,-225 117.62,-225 41.38,-225"/>
<polygon fill="#bfbfbf" stroke="#bfbfbf" points="41.38,-210.5 41.38,-210.5 117.62,-210.5 117.62,-210.5 41.38,-210.5"/>
<polygon fill="none" stroke="#bfbfbf" points="41.38,-194 41.38,-241.5 117.62,-241.5 117.62,-194 41.38,-194"/>
</a>
</g>
</g>
<!-- Node2&#45;&gt;Node1 -->
<g id="edge1_Node000001_Node000002" class="edge">
<title>Node2&#45;&gt;Node1</title>
<g id="a_edge1_Node000001_Node000002"><a xlink:title=" ">
<path fill="none" stroke="#63b8ff" d="M79.5,-182.79C79.5,-175.08 79.5,-166.59 79.5,-157.88"/>
<polygon fill="none" stroke="#63b8ff" points="76,-182.65 79.5,-192.65 83,-182.66 76,-182.65"/>
</a>
</g>
</g>
</g>
</svg>
</svg>

<style type='text/css'>
<![CDATA[
[data-mouse-over-selected='false'] { opacity: 0.7; }
[data-mouse-over-selected='true']  { opacity: 1.0; }
]]>
</style>
<script type="application/ecmascript"><![CDATA[
document.addEventListener('DOMContentLoaded', (event) => {
  highlightEdges();
  highlightAdjacentNodes();
});
]]></script>
</svg>
