<?xml version="1.0" encoding="UTF-8" standalone="no"?>
<!DOCTYPE svg PUBLIC "-//W3C//DTD SVG 1.1//EN"
 "http://www.w3.org/Graphics/SVG/1.1/DTD/svg11.dtd">
<!-- Generated by graphviz version 12.2.1 (20241206.2353)
 -->
<!-- Title: StorageRoomBaseData.StorageRoomBaseLevel Pages: 1 -->
<svg width="156pt" height="304pt"
 viewBox="0.00 0.00 156.25 304.00" xmlns="http://www.w3.org/2000/svg" xmlns:xlink="http://www.w3.org/1999/xlink">
<g id="graph0" class="graph" transform="scale(1 1) rotate(0) translate(4 300)">
<title>StorageRoomBaseData.StorageRoomBaseLevel</title>
<!-- Node1 -->
<g id="Node000001" class="node">
<title>Node1</title>
<g id="a_Node000001"><a xlink:title=" ">
<polygon fill="#999999" stroke="none" points="148.25,-64 0,-64 0,0 148.25,0 148.25,-64"/>
<text text-anchor="start" x="4" y="-50.5" font-family="Helvetica,sans-Serif" font-size="10.00">StorageRoomBaseData.Storage</text>
<text text-anchor="start" x="38.12" y="-38.5" font-family="Helvetica,sans-Serif" font-size="10.00">RoomBaseLevel</text>
<text text-anchor="start" x="18.75" y="-22.5" font-family="Helvetica,sans-Serif" font-size="10.00">+</text>
<text text-anchor="start" x="43.5" y="-22.5" font-family="Helvetica,sans-Serif" font-size="10.00">storageCapacity</text>
<text text-anchor="start" x="72.62" y="-6.5" font-family="Helvetica,sans-Serif" font-size="10.00"> </text>
<polygon fill="#666666" stroke="#666666" points="0,-34 0,-34 148.25,-34 148.25,-34 0,-34"/>
<polygon fill="#666666" stroke="#666666" points="0,-18 0,-18 41.5,-18 41.5,-18 0,-18"/>
<polygon fill="#666666" stroke="#666666" points="41.5,-18 41.5,-18 148.25,-18 148.25,-18 41.5,-18"/>
<polygon fill="none" stroke="#666666" points="0,0 0,-64 148.25,-64 148.25,0 0,0"/>
</a>
</g>
</g>
<!-- Node2 -->
<g id="Node000002" class="node">
<title>Node2</title>
<g id="a_Node000002"><a xlink:href="class_room_data_1_1_room_level.html" target="_top" xlink:title=" ">
<polygon fill="white" stroke="none" points="128.5,-296 19.75,-296 19.75,-100 128.5,-100 128.5,-296"/>
<text text-anchor="start" x="24.25" y="-282.5" font-family="Helvetica,sans-Serif" font-size="10.00">RoomData.RoomLevel</text>
<text text-anchor="start" x="23.75" y="-266.5" font-family="Helvetica,sans-Serif" font-size="10.00">+</text>
<text text-anchor="start" x="33.75" y="-266.5" font-family="Helvetica,sans-Serif" font-size="10.00">roomName</text>
<text text-anchor="start" x="23.75" y="-250.5" font-family="Helvetica,sans-Serif" font-size="10.00">+</text>
<text text-anchor="start" x="33.75" y="-250.5" font-family="Helvetica,sans-Serif" font-size="10.00">level</text>
<text text-anchor="start" x="23.75" y="-234.5" font-family="Helvetica,sans-Serif" font-size="10.00">+</text>
<text text-anchor="start" x="33.75" y="-234.5" font-family="Helvetica,sans-Serif" font-size="10.00">hitPoint</text>
<text text-anchor="start" x="23.75" y="-218.5" font-family="Helvetica,sans-Serif" font-size="10.00">+</text>
<text text-anchor="start" x="33.75" y="-218.5" font-family="Helvetica,sans-Serif" font-size="10.00">size</text>
<text text-anchor="start" x="23.75" y="-202.5" font-family="Helvetica,sans-Serif" font-size="10.00">+</text>
<text text-anchor="start" x="33.75" y="-202.5" font-family="Helvetica,sans-Serif" font-size="10.00">rotation</text>
<text text-anchor="start" x="23.75" y="-186.5" font-family="Helvetica,sans-Serif" font-size="10.00">+</text>
<text text-anchor="start" x="33.75" y="-186.5" font-family="Helvetica,sans-Serif" font-size="10.00">cost</text>
<text text-anchor="start" x="23.75" y="-170.5" font-family="Helvetica,sans-Serif" font-size="10.00">+</text>
<text text-anchor="start" x="33.75" y="-170.5" font-family="Helvetica,sans-Serif" font-size="10.00">crewRequirement</text>
<text text-anchor="start" x="23.75" y="-154.5" font-family="Helvetica,sans-Serif" font-size="10.00">+</text>
<text text-anchor="start" x="33.75" y="-154.5" font-family="Helvetica,sans-Serif" font-size="10.00">powerRequirement</text>
<text text-anchor="start" x="23.75" y="-138.5" font-family="Helvetica,sans-Serif" font-size="10.00">+</text>
<text text-anchor="start" x="33.75" y="-138.5" font-family="Helvetica,sans-Serif" font-size="10.00">damageHitPointRate</text>
<text text-anchor="start" x="23.75" y="-122.5" font-family="Helvetica,sans-Serif" font-size="10.00">+</text>
<text text-anchor="start" x="33.75" y="-122.5" font-family="Helvetica,sans-Serif" font-size="10.00">roomSprite</text>
<text text-anchor="start" x="72.62" y="-106.5" font-family="Helvetica,sans-Serif" font-size="10.00"> </text>
<polygon fill="#bfbfbf" stroke="#bfbfbf" points="19.75,-278 19.75,-278 128.5,-278 128.5,-278 19.75,-278"/>
<polygon fill="#bfbfbf" stroke="#bfbfbf" points="19.75,-118 19.75,-118 31.75,-118 31.75,-118 19.75,-118"/>
<polygon fill="#bfbfbf" stroke="#bfbfbf" points="31.75,-118 31.75,-118 128.5,-118 128.5,-118 31.75,-118"/>
<polygon fill="none" stroke="#bfbfbf" points="19.75,-100 19.75,-296 128.5,-296 128.5,-100 19.75,-100"/>
</a>
</g>
</g>
<!-- Node2&#45;&gt;Node1 -->
<g id="edge1_Node000001_Node000002" class="edge">
<title>Node2&#45;&gt;Node1</title>
<g id="a_edge1_Node000001_Node000002"><a xlink:title=" ">
<path fill="none" stroke="#63b8ff" d="M74.12,-88.74C74.12,-79.87 74.12,-71.47 74.12,-63.99"/>
<polygon fill="none" stroke="#63b8ff" points="70.63,-88.66 74.13,-98.66 77.63,-88.66 70.63,-88.66"/>
</a>
</g>
</g>
</g>
</svg>
