<?xml version="1.0" encoding="UTF-8" standalone="no"?>
<!DOCTYPE svg PUBLIC "-//W3C//DTD SVG 1.1//EN"
 "http://www.w3.org/Graphics/SVG/1.1/DTD/svg11.dtd">
<!-- Generated by graphviz version 12.2.1 (20241206.2353)
 -->
<!-- Title: TradeManager Pages: 1 -->
<svg width="162pt" height="225pt"
 viewBox="0.00 0.00 161.75 224.50" xmlns="http://www.w3.org/2000/svg" xmlns:xlink="http://www.w3.org/1999/xlink">

<svg id="main" version="1.1" xmlns="http://www.w3.org/2000/svg" xmlns:xlink="http://www.w3.org/1999/xlink" xml:space="preserve">

<style type="text/css"><![CDATA[
.node, .edge {opacity: 0.7;}
.node.selected, .edge.selected {opacity: 1;}
.edge:hover path { stroke: red; }
.edge:hover polygon { stroke: red; fill: red; }
]]></style>
<script type="application/ecmascript" xlink:href="svg.min.js"/>
<svg id="graph" class="graph">
<g id="graph0" class="graph" transform="scale(1 1) rotate(0) translate(4 220.5)">
<title>TradeManager</title>
<!-- Node1 -->
<g id="Node000001" class="node">
<title>Node1</title>
<g id="a_Node000001"><a xlink:title="TradeManager는 무역 거래를 관리하는 클래스입니다. 플레이어의 재화(COMA)를 관리하며, 아이템의 구매 및 판매 기능을 제공합니다.">
<polygon fill="#999999" stroke="none" points="153.75,-133 0,-133 0,0 153.75,0 153.75,-133"/>
<text text-anchor="start" x="45.38" y="-119.5" font-family="Consolas" font-size="10.00">TradeManager</text>
<text text-anchor="start" x="74.25" y="-105" font-family="Consolas" font-size="10.00"> </text>
<text text-anchor="start" x="4" y="-90.5" font-family="Consolas" font-size="10.00">+</text>
<text text-anchor="start" x="13.25" y="-90.5" font-family="Consolas" font-size="10.00">float GetTotalPrice</text>
<text text-anchor="start" x="13.25" y="-80" font-family="Consolas" font-size="10.00">(TradableItem item,</text>
<text text-anchor="start" x="13.25" y="-69.5" font-family="Consolas" font-size="10.00"> int quantity)</text>
<text text-anchor="start" x="4" y="-55" font-family="Consolas" font-size="10.00">+</text>
<text text-anchor="start" x="13.25" y="-55" font-family="Consolas" font-size="10.00">bool BuyItem(TradableItem</text>
<text text-anchor="start" x="13.25" y="-44.5" font-family="Consolas" font-size="10.00"> item, int quantity)</text>
<text text-anchor="start" x="4" y="-30" font-family="Consolas" font-size="10.00">+</text>
<text text-anchor="start" x="13.25" y="-30" font-family="Consolas" font-size="10.00">bool SellItem(TradableItem</text>
<text text-anchor="start" x="13.25" y="-19.5" font-family="Consolas" font-size="10.00"> item, int quantity)</text>
<text text-anchor="start" x="4" y="-5" font-family="Consolas" font-size="10.00">+</text>
<text text-anchor="start" x="13.25" y="-5" font-family="Consolas" font-size="10.00">int GetPlayerCOMA()</text>
<polygon fill="#666666" stroke="#666666" points="0,-116.5 0,-116.5 153.75,-116.5 153.75,-116.5 0,-116.5"/>
<polygon fill="#666666" stroke="#666666" points="0,-102 0,-102 153.75,-102 153.75,-102 0,-102"/>
<polygon fill="none" stroke="#666666" points="0,0 0,-133 153.75,-133 153.75,0 0,0"/>
</a>
</g>
</g>
<!-- Node2 -->
<g id="Node000002" class="node">
<title>Node2</title>
<g id="a_Node000002"><a xlink:title=" ">
<polygon fill="white" stroke="none" points="115,-216.5 38.75,-216.5 38.75,-169 115,-169 115,-216.5"/>
<text text-anchor="start" x="42.75" y="-203" font-family="Consolas" font-size="10.00">MonoBehaviour</text>
<text text-anchor="start" x="74.25" y="-188.5" font-family="Consolas" font-size="10.00"> </text>
<text text-anchor="start" x="74.25" y="-174" font-family="Consolas" font-size="10.00"> </text>
<polygon fill="#bfbfbf" stroke="#bfbfbf" points="38.75,-200 38.75,-200 115,-200 115,-200 38.75,-200"/>
<polygon fill="#bfbfbf" stroke="#bfbfbf" points="38.75,-185.5 38.75,-185.5 115,-185.5 115,-185.5 38.75,-185.5"/>
<polygon fill="none" stroke="#bfbfbf" points="38.75,-169 38.75,-216.5 115,-216.5 115,-169 38.75,-169"/>
</a>
</g>
</g>
<!-- Node2&#45;&gt;Node1 -->
<g id="edge1_Node000001_Node000002" class="edge">
<title>Node2&#45;&gt;Node1</title>
<g id="a_edge1_Node000001_Node000002"><a xlink:title=" ">
<path fill="none" stroke="#63b8ff" d="M76.88,-157.78C76.88,-150.03 76.88,-141.54 76.88,-132.97"/>
<polygon fill="none" stroke="#63b8ff" points="73.38,-157.74 76.88,-167.74 80.38,-157.74 73.38,-157.74"/>
</a>
</g>
</g>
</g>
</svg>
</svg>

<style type='text/css'>
<![CDATA[
[data-mouse-over-selected='false'] { opacity: 0.7; }
[data-mouse-over-selected='true']  { opacity: 1.0; }
]]>
</style>
<script type="application/ecmascript"><![CDATA[
document.addEventListener('DOMContentLoaded', (event) => {
  highlightEdges();
  highlightAdjacentNodes();
});
]]></script>
</svg>
