<?xml version="1.0" encoding="UTF-8" standalone="no"?>
<!DOCTYPE svg PUBLIC "-//W3C//DTD SVG 1.1//EN"
 "http://www.w3.org/Graphics/SVG/1.1/DTD/svg11.dtd">
<!-- Generated by graphviz version 12.2.1 (20241206.2353)
 -->
<!-- Title: CrewBase.ApplyPersonalEquipment Pages: 1 -->
<svg width="553pt" height="40pt"
 viewBox="0.00 0.00 553.25 40.00" xmlns="http://www.w3.org/2000/svg" xmlns:xlink="http://www.w3.org/1999/xlink">
<g id="graph0" class="graph" transform="scale(1 1) rotate(0) translate(4 36)">
<title>CrewBase.ApplyPersonalEquipment</title>
<!-- Node1 -->
<g id="Node000001" class="node">
<title>Node1</title>
<g id="a_Node000001"><a xlink:title="개인 장비를 착용합니다. 기존 장비는 해제되며 효과도 반영됩니다.">
<polygon fill="#999999" stroke="#666666" points="174.25,-26 0,-26 0,-6 174.25,-6 174.25,-26"/>
<text text-anchor="middle" x="87.12" y="-12.5" font-family="Helvetica,sans-Serif" font-size="10.00">CrewBase.ApplyPersonalEquipment</text>
</a>
</g>
</g>
<!-- Node2 -->
<g id="Node000002" class="node">
<title>Node2</title>
<g id="a_Node000002"><a xlink:href="class_crew_base.html#ae85c44a76273e19c8d76f3eb61a24d49" target="_top" xlink:title="기존 장비를 해제하고 새 장비를 장착합니다.">
<polygon fill="white" stroke="#666666" points="346.25,-26 210.25,-26 210.25,-6 346.25,-6 346.25,-26"/>
<text text-anchor="middle" x="278.25" y="-12.5" font-family="Helvetica,sans-Serif" font-size="10.00">CrewBase.SwapEquipment</text>
</a>
</g>
</g>
<!-- Node1&#45;&gt;Node2 -->
<g id="edge1_Node000001_Node000002" class="edge">
<title>Node1&#45;&gt;Node2</title>
<g id="a_edge1_Node000001_Node000002"><a xlink:title=" ">
<path fill="none" stroke="#63b8ff" d="M174.66,-16C182.63,-16 190.68,-16 198.58,-16"/>
<polygon fill="#63b8ff" stroke="#63b8ff" points="198.5,-19.5 208.5,-16 198.5,-12.5 198.5,-19.5"/>
</a>
</g>
</g>
<!-- Node3 -->
<g id="Node000003" class="node">
<title>Node3</title>
<g id="a_Node000003"><a xlink:href="class_crew_base.html#a233fbdc4519521e27786d8c0799dcd44" target="_top" xlink:title="장비 효과를 스탯에 반영하거나 제거합니다.">
<polygon fill="white" stroke="#666666" points="545.25,-32 382.25,-32 382.25,0 545.25,0 545.25,-32"/>
<text text-anchor="start" x="390.25" y="-18.5" font-family="Helvetica,sans-Serif" font-size="10.00">CrewBase.RecalculateEquipment</text>
<text text-anchor="middle" x="463.75" y="-6.5" font-family="Helvetica,sans-Serif" font-size="10.00">Bonus</text>
</a>
</g>
</g>
<!-- Node2&#45;&gt;Node3 -->
<g id="edge2_Node000002_Node000003" class="edge">
<title>Node2&#45;&gt;Node3</title>
<g id="a_edge2_Node000002_Node000003"><a xlink:title=" ">
<path fill="none" stroke="#63b8ff" d="M346.54,-16C354.32,-16 362.36,-16 370.41,-16"/>
<polygon fill="#63b8ff" stroke="#63b8ff" points="370.25,-19.5 380.25,-16 370.25,-12.5 370.25,-19.5"/>
</a>
</g>
</g>
</g>
</svg>
