<?xml version="1.0" encoding="UTF-8" standalone="no"?>
<!DOCTYPE svg PUBLIC "-//W3C//DTD SVG 1.1//EN"
 "http://www.w3.org/Graphics/SVG/1.1/DTD/svg11.dtd">
<!-- Generated by graphviz version 12.2.1 (20241206.2353)
 -->
<!-- Title: RoomData Pages: 1 -->
<!--zoomable 404 -->

<svg id="main" version="1.1" xmlns="http://www.w3.org/2000/svg" xmlns:xlink="http://www.w3.org/1999/xlink" xml:space="preserve" onload="init(evt)">

<style type="text/css"><![CDATA[
.node, .edge {opacity: 0.7;}
.node.selected, .edge.selected {opacity: 1;}
.edge:hover path { stroke: red; }
.edge:hover polygon { stroke: red; fill: red; }
]]></style>

<defs>
  <circle id="rim" cx="0" cy="0" r="7"/>
  <circle id="rim2" cx="0" cy="0" r="3.5"/>
  <g id="zoomPlus">
    <use xlink:href="#rim" fill="#404040"><set attributeName="fill" to="#808080" begin="zoomplus.mouseover" end="zoomplus.mouseout"/></use>
    <path d="M-4,0h8M0,-4v8" fill="none" stroke="white" stroke-width="1.5" pointer-events="none"/>
  </g>
  <g id="zoomMin">
    <use xlink:href="#rim" fill="#404040"><set attributeName="fill" to="#808080" begin="zoomminus.mouseover" end="zoomminus.mouseout"/></use>
    <path d="M-4,0h8" fill="none" stroke="white" stroke-width="1.5" pointer-events="none"/>
  </g>
  <g id="arrowUp" transform="translate(30 24)">
    <use xlink:href="#rim"/>
    <path pointer-events="none" fill="none" stroke="white" stroke-width="1.5" d="M0,-3.0v7 M-2.5,-0.5L0,-3.0L2.5,-0.5"/>
  </g>
  <g id="arrowRight" transform="rotate(90) translate(36 -43)">
    <use xlink:href="#rim"/>
    <path pointer-events="none" fill="none" stroke="white" stroke-width="1.5" d="M0,-3.0v7 M-2.5,-0.5L0,-3.0L2.5,-0.5"/>
  </g>
  <g id="arrowDown" transform="rotate(180) translate(-30 -48)">
    <use xlink:href="#rim"/>
    <path pointer-events="none" fill="none" stroke="white" stroke-width="1.5" d="M0,-3.0v7 M-2.5,-0.5L0,-3.0L2.5,-0.5"/>
  </g>
  <g id="arrowLeft" transform="rotate(270) translate(-36 17)">
    <use xlink:href="#rim"/>
    <path pointer-events="none" fill="none" stroke="white" stroke-width="1.5" d="M0,-3.0v7 M-2.5,-0.5L0,-3.0L2.5,-0.5"/>
  </g>
  <g id="resetDef">
    <use xlink:href="#rim2" fill="#404040"><set attributeName="fill" to="#808080" begin="reset.mouseover" end="reset.mouseout"/></use>
  </g>
</defs>
<script type="application/ecmascript">
var viewWidth = 1638;
var viewHeight = 404;
var sectionId = 'dynsection-0';
</script>
<script type="application/ecmascript" xlink:href="svg.min.js"/>
<svg id="graph" class="graph">
<g id="viewport">
<title>RoomData</title>
<!-- Node1 -->
<g id="Node000001" class="node">
<title>Node1</title>
<g id="a_Node000001"><a xlink:title="모든 방 유형의 기본 데이터를 정의하는 추상 ScriptableObject">
<polygon fill="#999999" stroke="none" points="882,-308 743.25,-308 743.25,-208 882,-208 882,-308"/>
<text text-anchor="start" x="789" y="-294.5" font-family="Helvetica,sans-Serif" font-size="10.00">RoomData</text>
<text text-anchor="start" x="811.12" y="-278.5" font-family="Helvetica,sans-Serif" font-size="10.00"> </text>
<text text-anchor="start" x="747.25" y="-262.5" font-family="Helvetica,sans-Serif" font-size="10.00">+</text>
<text text-anchor="start" x="757.25" y="-262.5" font-family="Helvetica,sans-Serif" font-size="10.00">GetRoomData()</text>
<text text-anchor="start" x="747.62" y="-246.5" font-family="Helvetica,sans-Serif" font-size="10.00">#</text>
<text text-anchor="start" x="757.25" y="-246.5" font-family="Helvetica,sans-Serif" font-size="10.00">InitializeDefaultLevels()</text>
<text text-anchor="start" x="747.62" y="-230.5" font-family="Helvetica,sans-Serif" font-size="10.00">#</text>
<text text-anchor="start" x="757.25" y="-230.5" font-family="Helvetica,sans-Serif" font-size="10.00">OnEnable()</text>
<text text-anchor="start" x="747.62" y="-214.5" font-family="Helvetica,sans-Serif" font-size="10.00">#</text>
<text text-anchor="start" x="757.25" y="-214.5" font-family="Helvetica,sans-Serif" font-size="10.00">CheckIfNeedsInitialization()</text>
<polygon fill="#666666" stroke="#666666" points="743.25,-290 743.25,-290 882,-290 882,-290 743.25,-290"/>
<polygon fill="#666666" stroke="#666666" points="743.25,-274 743.25,-274 882,-274 882,-274 743.25,-274"/>
<polygon fill="none" stroke="#666666" points="743.25,-208 743.25,-308 882,-308 882,-208 743.25,-208"/>
</a>
</g>
</g>
<!-- Node3 -->
<g id="Node000003" class="node">
<title>Node3</title>
<g id="a_Node000003"><a xlink:href="class_room_data-1-g.html" target="_top" xlink:title=" ">
<polygon fill="white" stroke="none" points="882,-172 743.25,-172 743.25,-88 882,-88 882,-172"/>
<text text-anchor="start" x="777.38" y="-158.5" font-family="Helvetica,sans-Serif" font-size="10.00">RoomData&lt; T &gt;</text>
<text text-anchor="start" x="747.62" y="-142.5" font-family="Helvetica,sans-Serif" font-size="10.00">#</text>
<text text-anchor="start" x="757.25" y="-142.5" font-family="Helvetica,sans-Serif" font-size="10.00">RoomLevels</text>
<text text-anchor="start" x="747.25" y="-126.5" font-family="Helvetica,sans-Serif" font-size="10.00">+</text>
<text text-anchor="start" x="757.25" y="-126.5" font-family="Helvetica,sans-Serif" font-size="10.00">GetRoomData()</text>
<text text-anchor="start" x="747.25" y="-110.5" font-family="Helvetica,sans-Serif" font-size="10.00">+</text>
<text text-anchor="start" x="757.25" y="-110.5" font-family="Helvetica,sans-Serif" font-size="10.00">GetTypedRoomData()</text>
<text text-anchor="start" x="747.62" y="-94.5" font-family="Helvetica,sans-Serif" font-size="10.00">#</text>
<text text-anchor="start" x="757.25" y="-94.5" font-family="Helvetica,sans-Serif" font-size="10.00">CheckIfNeedsInitialization()</text>
<polygon fill="#bfbfbf" stroke="#bfbfbf" points="743.25,-154 743.25,-154 882,-154 882,-154 743.25,-154"/>
<polygon fill="#bfbfbf" stroke="#bfbfbf" points="743.25,-138 743.25,-138 755.25,-138 755.25,-138 743.25,-138"/>
<polygon fill="#bfbfbf" stroke="#bfbfbf" points="755.25,-138 755.25,-138 882,-138 882,-138 755.25,-138"/>
<polygon fill="none" stroke="#bfbfbf" points="743.25,-88 743.25,-172 882,-172 882,-88 743.25,-88"/>
</a>
</g>
</g>
<!-- Node1&#45;&gt;Node3 -->
<g id="edge2_Node000001_Node000003" class="edge">
<title>Node1&#45;&gt;Node3</title>
<g id="a_edge2_Node000001_Node000003"><a xlink:title=" ">
<path fill="none" stroke="#63b8ff" d="M812.62,-196.83C812.62,-188.36 812.62,-179.82 812.62,-171.82"/>
<polygon fill="none" stroke="#63b8ff" points="809.13,-196.77 812.63,-206.77 816.13,-196.77 809.13,-196.77"/>
</a>
</g>
</g>
<!-- Node2 -->
<g id="Node000002" class="node">
<title>Node2</title>
<g id="a_Node000002"><a xlink:title=" ">
<polygon fill="white" stroke="none" points="852.62,-396 772.62,-396 772.62,-344 852.62,-344 852.62,-396"/>
<text text-anchor="start" x="776.62" y="-382.5" font-family="Helvetica,sans-Serif" font-size="10.00">ScriptableObject</text>
<text text-anchor="start" x="811.12" y="-366.5" font-family="Helvetica,sans-Serif" font-size="10.00"> </text>
<text text-anchor="start" x="811.12" y="-350.5" font-family="Helvetica,sans-Serif" font-size="10.00"> </text>
<polygon fill="#bfbfbf" stroke="#bfbfbf" points="772.62,-378 772.62,-378 852.62,-378 852.62,-378 772.62,-378"/>
<polygon fill="#bfbfbf" stroke="#bfbfbf" points="772.62,-362 772.62,-362 852.62,-362 852.62,-362 772.62,-362"/>
<polygon fill="none" stroke="#bfbfbf" points="772.62,-344 772.62,-396 852.62,-396 852.62,-344 772.62,-344"/>
</a>
</g>
</g>
<!-- Node2&#45;&gt;Node1 -->
<g id="edge1_Node000001_Node000002" class="edge">
<title>Node2&#45;&gt;Node1</title>
<g id="a_edge1_Node000001_Node000002"><a xlink:title=" ">
<path fill="none" stroke="#63b8ff" d="M812.62,-332.53C812.62,-324.58 812.62,-316.05 812.62,-307.72"/>
<polygon fill="none" stroke="#63b8ff" points="809.13,-332.53 812.63,-342.53 816.13,-332.53 809.13,-332.53"/>
</a>
</g>
</g>
<!-- Node4 -->
<g id="Node000004" class="node">
<title>Node4</title>
<g id="a_Node000004"><a xlink:href="class_ammunition_room_data.html" target="_top" xlink:title="탄약고의 레벨별 데이터를 저장하는 ScriptableObject">
<polygon fill="white" stroke="none" points="119.25,-52 0,-52 0,0 119.25,0 119.25,-52"/>
<text text-anchor="start" x="10.12" y="-38.5" font-family="Helvetica,sans-Serif" font-size="10.00">AmmunitionRoomData</text>
<text text-anchor="start" x="58.12" y="-22.5" font-family="Helvetica,sans-Serif" font-size="10.00"> </text>
<text text-anchor="start" x="4" y="-6.5" font-family="Helvetica,sans-Serif" font-size="10.00">#</text>
<text text-anchor="start" x="13.25" y="-6.5" font-family="Helvetica,sans-Serif" font-size="10.00">InitializeDefaultLevels()</text>
<polygon fill="#666666" stroke="#666666" points="0,-34 0,-34 119.25,-34 119.25,-34 0,-34"/>
<polygon fill="#666666" stroke="#666666" points="0,-18 0,-18 119.25,-18 119.25,-18 0,-18"/>
<polygon fill="none" stroke="#666666" points="0,0 0,-52 119.25,-52 119.25,0 0,0"/>
</a>
</g>
</g>
<!-- Node3&#45;&gt;Node4 -->
<g id="edge3_Node000003_Node000004" class="edge">
<title>Node3&#45;&gt;Node4</title>
<g id="a_edge3_Node000003_Node000004"><a xlink:title=" ">
<path fill="none" stroke="#63b8ff" d="M732.31,-126.22C603.26,-120.35 342.42,-102.77 127.62,-52 124.81,-51.33 121.95,-50.59 119.08,-49.78"/>
<polygon fill="none" stroke="#63b8ff" points="731.98,-129.7 742.12,-126.65 732.29,-122.71 731.98,-129.7"/>
</a>
</g>
</g>
<!-- Node5 -->
<g id="Node000005" class="node">
<title>Node5</title>
<g id="a_Node000005"><a xlink:href="class_cockpit_room_data.html" target="_top" xlink:title="조종실의 레벨별 데이터를 저장하는 ScriptableObject">
<polygon fill="white" stroke="none" points="256.25,-52 137,-52 137,0 256.25,0 256.25,-52"/>
<text text-anchor="start" x="156.12" y="-38.5" font-family="Helvetica,sans-Serif" font-size="10.00">CockpitRoomData</text>
<text text-anchor="start" x="195.12" y="-22.5" font-family="Helvetica,sans-Serif" font-size="10.00"> </text>
<text text-anchor="start" x="141" y="-6.5" font-family="Helvetica,sans-Serif" font-size="10.00">#</text>
<text text-anchor="start" x="150.25" y="-6.5" font-family="Helvetica,sans-Serif" font-size="10.00">InitializeDefaultLevels()</text>
<polygon fill="#666666" stroke="#666666" points="137,-34 137,-34 256.25,-34 256.25,-34 137,-34"/>
<polygon fill="#666666" stroke="#666666" points="137,-18 137,-18 256.25,-18 256.25,-18 137,-18"/>
<polygon fill="none" stroke="#666666" points="137,0 137,-52 256.25,-52 256.25,0 137,0"/>
</a>
</g>
</g>
<!-- Node3&#45;&gt;Node5 -->
<g id="edge4_Node000003_Node000005" class="edge">
<title>Node3&#45;&gt;Node5</title>
<g id="a_edge4_Node000003_Node000005"><a xlink:title=" ">
<path fill="none" stroke="#63b8ff" d="M731.95,-123.07C624.16,-113.92 427.8,-92.96 264.62,-52 261.82,-51.3 258.97,-50.52 256.1,-49.68"/>
<polygon fill="none" stroke="#63b8ff" points="731.61,-126.55 741.87,-123.89 732.19,-119.57 731.61,-126.55"/>
</a>
</g>
</g>
<!-- Node6 -->
<g id="Node000006" class="node">
<title>Node6</title>
<g id="a_Node000006"><a xlink:href="class_crew_quarters_room_data.html" target="_top" xlink:title="승무원 선실의 데이터를 저장하는 ScriptableObject">
<polygon fill="white" stroke="none" points="393.25,-52 274,-52 274,0 393.25,0 393.25,-52"/>
<text text-anchor="start" x="279.62" y="-38.5" font-family="Helvetica,sans-Serif" font-size="10.00">CrewQuartersRoomData</text>
<text text-anchor="start" x="332.12" y="-22.5" font-family="Helvetica,sans-Serif" font-size="10.00"> </text>
<text text-anchor="start" x="278" y="-6.5" font-family="Helvetica,sans-Serif" font-size="10.00">#</text>
<text text-anchor="start" x="287.25" y="-6.5" font-family="Helvetica,sans-Serif" font-size="10.00">InitializeDefaultLevels()</text>
<polygon fill="#666666" stroke="#666666" points="274,-34 274,-34 393.25,-34 393.25,-34 274,-34"/>
<polygon fill="#666666" stroke="#666666" points="274,-18 274,-18 393.25,-18 393.25,-18 274,-18"/>
<polygon fill="none" stroke="#666666" points="274,0 274,-52 393.25,-52 393.25,0 274,0"/>
</a>
</g>
</g>
<!-- Node3&#45;&gt;Node6 -->
<g id="edge5_Node000003_Node000006" class="edge">
<title>Node3&#45;&gt;Node6</title>
<g id="a_edge5_Node000003_Node000006"><a xlink:title=" ">
<path fill="none" stroke="#63b8ff" d="M732.28,-118.01C648.77,-105.65 514.71,-83.15 401.62,-52 398.84,-51.23 396,-50.4 393.15,-49.52"/>
<polygon fill="none" stroke="#63b8ff" points="731.57,-121.45 741.97,-119.43 732.58,-114.52 731.57,-121.45"/>
</a>
</g>
</g>
<!-- Node7 -->
<g id="Node000007" class="node">
<title>Node7</title>
<g id="a_Node000007"><a xlink:href="class_engine_room_data.html" target="_top" xlink:title="엔진실의 레벨별 데이터를 저장하는 ScriptableObject">
<polygon fill="white" stroke="none" points="530.25,-52 411,-52 411,0 530.25,0 530.25,-52"/>
<text text-anchor="start" x="432" y="-38.5" font-family="Helvetica,sans-Serif" font-size="10.00">EngineRoomData</text>
<text text-anchor="start" x="469.12" y="-22.5" font-family="Helvetica,sans-Serif" font-size="10.00"> </text>
<text text-anchor="start" x="415" y="-6.5" font-family="Helvetica,sans-Serif" font-size="10.00">#</text>
<text text-anchor="start" x="424.25" y="-6.5" font-family="Helvetica,sans-Serif" font-size="10.00">InitializeDefaultLevels()</text>
<polygon fill="#666666" stroke="#666666" points="411,-34 411,-34 530.25,-34 530.25,-34 411,-34"/>
<polygon fill="#666666" stroke="#666666" points="411,-18 411,-18 530.25,-18 530.25,-18 411,-18"/>
<polygon fill="none" stroke="#666666" points="411,0 411,-52 530.25,-52 530.25,0 411,0"/>
</a>
</g>
</g>
<!-- Node3&#45;&gt;Node7 -->
<g id="edge6_Node000003_Node000007" class="edge">
<title>Node3&#45;&gt;Node7</title>
<g id="a_edge6_Node000003_Node000007"><a xlink:title=" ">
<path fill="none" stroke="#63b8ff" d="M732.43,-108.24C677.54,-93.6 603.27,-72.93 538.62,-52 535.87,-51.11 533.07,-50.18 530.24,-49.22"/>
<polygon fill="none" stroke="#63b8ff" points="731.46,-111.6 742.03,-110.79 733.26,-104.84 731.46,-111.6"/>
</a>
</g>
</g>
<!-- Node8 -->
<g id="Node000008" class="node">
<title>Node8</title>
<g id="a_Node000008"><a xlink:href="class_life_support_room_data.html" target="_top" xlink:title="생활 시설의 데이터를 저장하는 ScriptableObject">
<polygon fill="white" stroke="none" points="667.25,-52 548,-52 548,0 667.25,0 667.25,-52"/>
<text text-anchor="start" x="559.25" y="-38.5" font-family="Helvetica,sans-Serif" font-size="10.00">LifeSupportRoomData</text>
<text text-anchor="start" x="606.12" y="-22.5" font-family="Helvetica,sans-Serif" font-size="10.00"> </text>
<text text-anchor="start" x="552" y="-6.5" font-family="Helvetica,sans-Serif" font-size="10.00">#</text>
<text text-anchor="start" x="561.25" y="-6.5" font-family="Helvetica,sans-Serif" font-size="10.00">InitializeDefaultLevels()</text>
<polygon fill="#666666" stroke="#666666" points="548,-34 548,-34 667.25,-34 667.25,-34 548,-34"/>
<polygon fill="#666666" stroke="#666666" points="548,-18 548,-18 667.25,-18 667.25,-18 548,-18"/>
<polygon fill="none" stroke="#666666" points="548,0 548,-52 667.25,-52 667.25,0 548,0"/>
</a>
</g>
</g>
<!-- Node3&#45;&gt;Node8 -->
<g id="edge7_Node000003_Node000008" class="edge">
<title>Node3&#45;&gt;Node8</title>
<g id="a_edge7_Node000003_Node000008"><a xlink:title=" ">
<path fill="none" stroke="#63b8ff" d="M733.48,-89.62C707.99,-76.94 680.46,-63.24 657.67,-51.9"/>
<polygon fill="none" stroke="#63b8ff" points="731.64,-92.61 742.15,-93.94 734.76,-86.35 731.64,-92.61"/>
</a>
</g>
</g>
<!-- Node9 -->
<g id="Node000009" class="node">
<title>Node9</title>
<g id="a_Node000009"><a xlink:href="class_med_bay_room_data.html" target="_top" xlink:title="의무실의 레벨별 데이터를 저장하는 ScriptableObject">
<polygon fill="white" stroke="none" points="804.25,-52 685,-52 685,0 804.25,0 804.25,-52"/>
<text text-anchor="start" x="703" y="-38.5" font-family="Helvetica,sans-Serif" font-size="10.00">MedBayRoomData</text>
<text text-anchor="start" x="743.12" y="-22.5" font-family="Helvetica,sans-Serif" font-size="10.00"> </text>
<text text-anchor="start" x="689" y="-6.5" font-family="Helvetica,sans-Serif" font-size="10.00">#</text>
<text text-anchor="start" x="698.25" y="-6.5" font-family="Helvetica,sans-Serif" font-size="10.00">InitializeDefaultLevels()</text>
<polygon fill="#666666" stroke="#666666" points="685,-34 685,-34 804.25,-34 804.25,-34 685,-34"/>
<polygon fill="#666666" stroke="#666666" points="685,-18 685,-18 804.25,-18 804.25,-18 685,-18"/>
<polygon fill="none" stroke="#666666" points="685,0 685,-52 804.25,-52 804.25,0 685,0"/>
</a>
</g>
</g>
<!-- Node3&#45;&gt;Node9 -->
<g id="edge8_Node000003_Node000009" class="edge">
<title>Node3&#45;&gt;Node9</title>
<g id="a_edge8_Node000003_Node000009"><a xlink:title=" ">
<path fill="none" stroke="#63b8ff" d="M779.14,-78.77C772.87,-69.37 766.59,-59.95 761.13,-51.76"/>
<polygon fill="none" stroke="#63b8ff" points="776.06,-80.46 784.52,-86.84 781.88,-76.58 776.06,-80.46"/>
</a>
</g>
</g>
<!-- Node10 -->
<g id="Node000010" class="node">
<title>Node10</title>
<g id="a_Node000010"><a xlink:href="class_oxygen_room_data.html" target="_top" xlink:title="산소실의 레벨별 데이터를 저장하는 ScriptableObject">
<polygon fill="white" stroke="none" points="941.25,-52 822,-52 822,0 941.25,0 941.25,-52"/>
<text text-anchor="start" x="841.12" y="-38.5" font-family="Helvetica,sans-Serif" font-size="10.00">OxygenRoomData</text>
<text text-anchor="start" x="880.12" y="-22.5" font-family="Helvetica,sans-Serif" font-size="10.00"> </text>
<text text-anchor="start" x="826" y="-6.5" font-family="Helvetica,sans-Serif" font-size="10.00">#</text>
<text text-anchor="start" x="835.25" y="-6.5" font-family="Helvetica,sans-Serif" font-size="10.00">InitializeDefaultLevels()</text>
<polygon fill="#666666" stroke="#666666" points="822,-34 822,-34 941.25,-34 941.25,-34 822,-34"/>
<polygon fill="#666666" stroke="#666666" points="822,-18 822,-18 941.25,-18 941.25,-18 822,-18"/>
<polygon fill="none" stroke="#666666" points="822,0 822,-52 941.25,-52 941.25,0 822,0"/>
</a>
</g>
</g>
<!-- Node3&#45;&gt;Node10 -->
<g id="edge9_Node000003_Node000010" class="edge">
<title>Node3&#45;&gt;Node10</title>
<g id="a_edge9_Node000003_Node000010"><a xlink:title=" ">
<path fill="none" stroke="#63b8ff" d="M846.61,-78.77C852.96,-69.37 859.34,-59.95 864.88,-51.76"/>
<polygon fill="none" stroke="#63b8ff" points="843.84,-76.6 841.14,-86.85 849.64,-80.53 843.84,-76.6"/>
</a>
</g>
</g>
<!-- Node11 -->
<g id="Node000011" class="node">
<title>Node11</title>
<g id="a_Node000011"><a xlink:href="class_power_room_data.html" target="_top" xlink:title="전력실의 레벨별 데이터를 저장하는 ScriptableObject">
<polygon fill="white" stroke="none" points="1078.25,-52 959,-52 959,0 1078.25,0 1078.25,-52"/>
<text text-anchor="start" x="981.12" y="-38.5" font-family="Helvetica,sans-Serif" font-size="10.00">PowerRoomData</text>
<text text-anchor="start" x="1017.12" y="-22.5" font-family="Helvetica,sans-Serif" font-size="10.00"> </text>
<text text-anchor="start" x="963" y="-6.5" font-family="Helvetica,sans-Serif" font-size="10.00">#</text>
<text text-anchor="start" x="972.25" y="-6.5" font-family="Helvetica,sans-Serif" font-size="10.00">InitializeDefaultLevels()</text>
<polygon fill="#666666" stroke="#666666" points="959,-34 959,-34 1078.25,-34 1078.25,-34 959,-34"/>
<polygon fill="#666666" stroke="#666666" points="959,-18 959,-18 1078.25,-18 1078.25,-18 959,-18"/>
<polygon fill="none" stroke="#666666" points="959,0 959,-52 1078.25,-52 1078.25,0 959,0"/>
</a>
</g>
</g>
<!-- Node3&#45;&gt;Node11 -->
<g id="edge10_Node000003_Node000011" class="edge">
<title>Node3&#45;&gt;Node11</title>
<g id="a_edge10_Node000003_Node000011"><a xlink:title=" ">
<path fill="none" stroke="#63b8ff" d="M891.88,-89.76C917.52,-77.06 945.24,-63.34 968.2,-51.97"/>
<polygon fill="none" stroke="#63b8ff" points="890.56,-86.51 883.15,-94.08 893.66,-92.78 890.56,-86.51"/>
</a>
</g>
</g>
<!-- Node12 -->
<g id="Node000012" class="node">
<title>Node12</title>
<g id="a_Node000012"><a xlink:href="class_shield_room_data.html" target="_top" xlink:title="배리어실의 레벨별 데이터를 저장하는 ScriptableObject">
<polygon fill="white" stroke="none" points="1215.25,-52 1096,-52 1096,0 1215.25,0 1215.25,-52"/>
<text text-anchor="start" x="1118.5" y="-38.5" font-family="Helvetica,sans-Serif" font-size="10.00">ShieldRoomData</text>
<text text-anchor="start" x="1154.12" y="-22.5" font-family="Helvetica,sans-Serif" font-size="10.00"> </text>
<text text-anchor="start" x="1100" y="-6.5" font-family="Helvetica,sans-Serif" font-size="10.00">#</text>
<text text-anchor="start" x="1109.25" y="-6.5" font-family="Helvetica,sans-Serif" font-size="10.00">InitializeDefaultLevels()</text>
<polygon fill="#666666" stroke="#666666" points="1096,-34 1096,-34 1215.25,-34 1215.25,-34 1096,-34"/>
<polygon fill="#666666" stroke="#666666" points="1096,-18 1096,-18 1215.25,-18 1215.25,-18 1096,-18"/>
<polygon fill="none" stroke="#666666" points="1096,0 1096,-52 1215.25,-52 1215.25,0 1096,0"/>
</a>
</g>
</g>
<!-- Node3&#45;&gt;Node12 -->
<g id="edge11_Node000003_Node000012" class="edge">
<title>Node3&#45;&gt;Node12</title>
<g id="a_edge11_Node000003_Node000012"><a xlink:title=" ">
<path fill="none" stroke="#63b8ff" d="M892.84,-108.34C947.96,-93.7 1022.64,-73.01 1087.62,-52 1090.38,-51.11 1093.18,-50.18 1096.01,-49.22"/>
<polygon fill="none" stroke="#63b8ff" points="891.97,-104.95 883.2,-110.89 893.76,-111.72 891.97,-104.95"/>
</a>
</g>
</g>
<!-- Node13 -->
<g id="Node000013" class="node">
<title>Node13</title>
<g id="a_Node000013"><a xlink:href="class_storage_room_base_data.html" target="_top" xlink:title="모든 창고 타입의 기본 데이터 클래스">
<polygon fill="white" stroke="none" points="1352.25,-52 1233,-52 1233,0 1352.25,0 1352.25,-52"/>
<text text-anchor="start" x="1240.88" y="-38.5" font-family="Helvetica,sans-Serif" font-size="10.00">StorageRoomBaseData</text>
<text text-anchor="start" x="1291.12" y="-22.5" font-family="Helvetica,sans-Serif" font-size="10.00"> </text>
<text text-anchor="start" x="1237" y="-6.5" font-family="Helvetica,sans-Serif" font-size="10.00">#</text>
<text text-anchor="start" x="1246.25" y="-6.5" font-family="Helvetica,sans-Serif" font-size="10.00">InitializeDefaultLevels()</text>
<polygon fill="#666666" stroke="#666666" points="1233,-34 1233,-34 1352.25,-34 1352.25,-34 1233,-34"/>
<polygon fill="#666666" stroke="#666666" points="1233,-18 1233,-18 1352.25,-18 1352.25,-18 1233,-18"/>
<polygon fill="none" stroke="#666666" points="1233,0 1233,-52 1352.25,-52 1352.25,0 1233,0"/>
</a>
</g>
</g>
<!-- Node3&#45;&gt;Node13 -->
<g id="edge12_Node000003_Node000013" class="edge">
<title>Node3&#45;&gt;Node13</title>
<g id="a_edge12_Node000003_Node000013"><a xlink:title=" ">
<path fill="none" stroke="#63b8ff" d="M893.17,-118.03C976.88,-105.68 1111.27,-83.19 1224.62,-52 1227.41,-51.23 1230.25,-50.4 1233.1,-49.52"/>
<polygon fill="none" stroke="#63b8ff" points="892.84,-114.54 883.45,-119.45 893.85,-121.47 892.84,-114.54"/>
</a>
</g>
</g>
<!-- Node14 -->
<g id="Node000014" class="node">
<title>Node14</title>
<g id="a_Node000014"><a xlink:href="class_teleport_room_data.html" target="_top" xlink:title="텔레포트실의 레벨별 데이터를 저장하는 ScriptableObject">
<polygon fill="white" stroke="none" points="1489.25,-52 1370,-52 1370,0 1489.25,0 1489.25,-52"/>
<text text-anchor="start" x="1388.75" y="-38.5" font-family="Helvetica,sans-Serif" font-size="10.00">TeleportRoomData</text>
<text text-anchor="start" x="1428.12" y="-22.5" font-family="Helvetica,sans-Serif" font-size="10.00"> </text>
<text text-anchor="start" x="1374" y="-6.5" font-family="Helvetica,sans-Serif" font-size="10.00">#</text>
<text text-anchor="start" x="1383.25" y="-6.5" font-family="Helvetica,sans-Serif" font-size="10.00">InitializeDefaultLevels()</text>
<polygon fill="#666666" stroke="#666666" points="1370,-34 1370,-34 1489.25,-34 1489.25,-34 1370,-34"/>
<polygon fill="#666666" stroke="#666666" points="1370,-18 1370,-18 1489.25,-18 1489.25,-18 1370,-18"/>
<polygon fill="none" stroke="#666666" points="1370,0 1370,-52 1489.25,-52 1489.25,0 1370,0"/>
</a>
</g>
</g>
<!-- Node3&#45;&gt;Node14 -->
<g id="edge13_Node000003_Node000014" class="edge">
<title>Node3&#45;&gt;Node14</title>
<g id="a_edge13_Node000003_Node000014"><a xlink:title=" ">
<path fill="none" stroke="#63b8ff" d="M893,-123.12C1000.89,-114.01 1197.92,-93.07 1361.62,-52 1364.43,-51.3 1367.28,-50.52 1370.15,-49.68"/>
<polygon fill="none" stroke="#63b8ff" points="892.75,-119.63 883.07,-123.94 893.33,-126.6 892.75,-119.63"/>
</a>
</g>
</g>
<!-- Node15 -->
<g id="Node000015" class="node">
<title>Node15</title>
<g id="a_Node000015"><a xlink:href="class_weapon_control_room_data.html" target="_top" xlink:title="조준석의 레벨별 데이터를 저장하는 ScriptableObject">
<polygon fill="white" stroke="none" points="1629.62,-52 1507.62,-52 1507.62,0 1629.62,0 1629.62,-52"/>
<text text-anchor="start" x="1511.62" y="-38.5" font-family="Helvetica,sans-Serif" font-size="10.00">WeaponControlRoomData</text>
<text text-anchor="start" x="1567.12" y="-22.5" font-family="Helvetica,sans-Serif" font-size="10.00"> </text>
<text text-anchor="start" x="1512.31" y="-6.5" font-family="Helvetica,sans-Serif" font-size="10.00">#</text>
<text text-anchor="start" x="1522.25" y="-6.5" font-family="Helvetica,sans-Serif" font-size="10.00">InitializeDefaultLevels()</text>
<polygon fill="#666666" stroke="#666666" points="1507.62,-34 1507.62,-34 1629.62,-34 1629.62,-34 1507.62,-34"/>
<polygon fill="#666666" stroke="#666666" points="1507.62,-18 1507.62,-18 1629.62,-18 1629.62,-18 1507.62,-18"/>
<polygon fill="none" stroke="#666666" points="1507.62,0 1507.62,-52 1629.62,-52 1629.62,0 1507.62,0"/>
</a>
</g>
</g>
<!-- Node3&#45;&gt;Node15 -->
<g id="edge14_Node000003_Node000015" class="edge">
<title>Node3&#45;&gt;Node15</title>
<g id="a_edge14_Node000003_Node000015"><a xlink:title=" ">
<path fill="none" stroke="#63b8ff" d="M893,-125.99C1022.16,-119.83 1283.28,-101.83 1498.62,-52 1501.64,-51.3 1504.71,-50.51 1507.79,-49.66"/>
<polygon fill="none" stroke="#63b8ff" points="893.01,-122.49 883.18,-126.45 893.33,-129.48 893.01,-122.49"/>
</a>
</g>
</g>
</g>
</svg>

<g id="navigator" transform="translate(0 0)" fill="#404254">
  <rect fill="#f2f5e9" fill-opacity="0.5" stroke="#606060" stroke-width=".5" x="0" y="0" width="60" height="60"/>
  <use id="zoomplus" xlink:href="#zoomPlus" x="17" y="9" onmousedown="handleZoom(evt,'in')"/>
  <use id="zoomminus" xlink:href="#zoomMin" x="42" y="9" onmousedown="handleZoom(evt,'out')"/>
  <use id="reset" xlink:href="#resetDef" x="30" y="36" onmousedown="handleReset()"/>
   <use id="arrowup" xlink:href="#arrowUp" x="0" y="0" onmousedown="handlePan(0,-1)"/>
  <use id="arrowright" xlink:href="#arrowRight" x="0" y="0" onmousedown="handlePan(1,0)"/>
  <use id="arrowdown" xlink:href="#arrowDown" x="0" y="0" onmousedown="handlePan(0,1)"/>
  <use id="arrowleft" xlink:href="#arrowLeft" x="0" y="0" onmousedown="handlePan(-1,0)"/>
</g>
<svg viewBox="0 0 15 15" width="100%" height="30px" preserveAspectRatio="xMaxYMin meet">
 <g id="arrow_out" transform="scale(0.3 0.3)">
  <a xlink:href="class_room_data__inherit__graph_org.svg" target="_base">
   <rect id="button" ry="5" rx="5" y="6" x="6" height="38" width="38"
        fill="#f2f5e9" fill-opacity="0.5" stroke="#606060" stroke-width="1.0"/>
   <path id="arrow"
     d="M 11.500037,31.436501 C 11.940474,20.09759 22.043105,11.32322 32.158766,21.979434 L 37.068811,17.246167 C 37.068811,17.246167 37.088388,32 37.088388,32 L 22.160133,31.978069 C 22.160133,31.978069 26.997745,27.140456 26.997745,27.140456 C 18.528582,18.264221 13.291696,25.230495 11.500037,31.436501 z"
     style="fill:#404040;"/>
  </a>
 </g>
</svg>

<style type='text/css'>
<![CDATA[
[data-mouse-over-selected='false'] { opacity: 0.7; }
[data-mouse-over-selected='true']  { opacity: 1.0; }
]]>
</style>
<script type="application/ecmascript"><![CDATA[
document.addEventListener('DOMContentLoaded', (event) => {
  highlightEdges();
  highlightAdjacentNodes();
});
]]></script>
</svg>
