<?xml version="1.0" encoding="UTF-8" standalone="no"?>
<!DOCTYPE svg PUBLIC "-//W3C//DTD SVG 1.1//EN"
 "http://www.w3.org/Graphics/SVG/1.1/DTD/svg11.dtd">
<!-- Generated by graphviz version 12.2.1 (20241206.2353)
 -->
<!-- Title: TradableItemList Pages: 1 -->
<svg width="167pt" height="311pt"
 viewBox="0.00 0.00 167.00 310.50" xmlns="http://www.w3.org/2000/svg" xmlns:xlink="http://www.w3.org/1999/xlink">

<svg id="main" version="1.1" xmlns="http://www.w3.org/2000/svg" xmlns:xlink="http://www.w3.org/1999/xlink" xml:space="preserve">

<style type="text/css"><![CDATA[
.node, .edge {opacity: 0.7;}
.node.selected, .edge.selected {opacity: 1;}
.edge:hover path { stroke: red; }
.edge:hover polygon { stroke: red; fill: red; }
]]></style>
<script type="application/ecmascript" xlink:href="svg.min.js"/>
<svg id="graph" class="graph">
<g id="graph0" class="graph" transform="scale(1 1) rotate(0) translate(4 306.5)">
<title>TradableItemList</title>
<!-- Node1 -->
<g id="Node000001" class="node">
<title>Node1</title>
<g id="a_Node000001"><a xlink:title="TradableItemList는 TradableItem 배열을 포함하는 컨테이너 클래스입니다. JSON 데이터 파싱에 사용됩니다.">
<polygon fill="#999999" stroke="none" points="125.5,-47.5 33.5,-47.5 33.5,0 125.5,0 125.5,-47.5"/>
<text text-anchor="start" x="37.5" y="-34" font-family="Consolas" font-size="10.00">TradableItemList</text>
<text text-anchor="start" x="76.88" y="-19.5" font-family="Consolas" font-size="10.00"> </text>
<text text-anchor="start" x="76.88" y="-5" font-family="Consolas" font-size="10.00"> </text>
<polygon fill="#666666" stroke="#666666" points="33.5,-31 33.5,-31 125.5,-31 125.5,-31 33.5,-31"/>
<polygon fill="#666666" stroke="#666666" points="33.5,-16.5 33.5,-16.5 125.5,-16.5 125.5,-16.5 33.5,-16.5"/>
<polygon fill="none" stroke="#666666" points="33.5,0 33.5,-47.5 125.5,-47.5 125.5,0 33.5,0"/>
</a>
</g>
</g>
<!-- Node2 -->
<g id="Node000002" class="node">
<title>Node2</title>
<g id="a_Node000002"><a xlink:href="class_tradable_item.html" target="_top" xlink:title="TradableItem 클래스는 거래 가능한 아이템의 데이터를 담고 있으며, 아이템의 속성(행성 코드, 티어, 이름, 상태, 분류 등)과 가격 관련 기능을 제공합니다.">
<polygon fill="white" stroke="none" points="159,-302.5 0,-302.5 0,-95.5 159,-95.5 159,-302.5"/>
<text text-anchor="start" x="48" y="-289" font-family="Consolas" font-size="10.00">TradableItem</text>
<text text-anchor="start" x="4" y="-274.5" font-family="Consolas" font-size="10.00">+</text>
<text text-anchor="start" x="13.25" y="-274.5" font-family="Consolas" font-size="10.00">string planet</text>
<text text-anchor="start" x="4" y="-260" font-family="Consolas" font-size="10.00">+</text>
<text text-anchor="start" x="13.25" y="-260" font-family="Consolas" font-size="10.00">ItemTierLevel tier</text>
<text text-anchor="start" x="4" y="-245.5" font-family="Consolas" font-size="10.00">+</text>
<text text-anchor="start" x="13.25" y="-245.5" font-family="Consolas" font-size="10.00">string itemName</text>
<text text-anchor="start" x="4" y="-231" font-family="Consolas" font-size="10.00">+</text>
<text text-anchor="start" x="13.25" y="-231" font-family="Consolas" font-size="10.00">ItemState itemState</text>
<text text-anchor="start" x="4" y="-216.5" font-family="Consolas" font-size="10.00">+</text>
<text text-anchor="start" x="13.25" y="-216.5" font-family="Consolas" font-size="10.00">ItemCategory category</text>
<text text-anchor="start" x="4" y="-202" font-family="Consolas" font-size="10.00">+</text>
<text text-anchor="start" x="13.25" y="-202" font-family="Consolas" font-size="10.00">float minStorageTemperature</text>
<text text-anchor="start" x="4" y="-187.5" font-family="Consolas" font-size="10.00">+</text>
<text text-anchor="start" x="13.25" y="-187.5" font-family="Consolas" font-size="10.00">float maxStorageTemperature</text>
<text text-anchor="start" x="4" y="-173" font-family="Consolas" font-size="10.00">+</text>
<text text-anchor="start" x="13.25" y="-173" font-family="Consolas" font-size="10.00">float basePrice</text>
<text text-anchor="start" x="4" y="-158.5" font-family="Consolas" font-size="10.00">+</text>
<text text-anchor="start" x="13.25" y="-158.5" font-family="Consolas" font-size="10.00">int maxStackAmount</text>
<text text-anchor="start" x="4" y="-144" font-family="Consolas" font-size="10.00">+</text>
<text text-anchor="start" x="13.25" y="-144" font-family="Consolas" font-size="10.00">float fluctuation</text>
<text text-anchor="start" x="4" y="-129.5" font-family="Consolas" font-size="10.00">+</text>
<text text-anchor="start" x="13.25" y="-129.5" font-family="Consolas" font-size="10.00">string description</text>
<text text-anchor="start" x="4" y="-115" font-family="Consolas" font-size="10.00">+</text>
<text text-anchor="start" x="13.25" y="-115" font-family="Consolas" font-size="10.00">float GetCurrentPrice()</text>
<text text-anchor="start" x="4" y="-100.5" font-family="Consolas" font-size="10.00">+</text>
<text text-anchor="start" x="13.25" y="-100.5" font-family="Consolas" font-size="10.00">void RecalculatePrice()</text>
<polygon fill="#666666" stroke="#666666" points="0,-286 0,-286 159,-286 159,-286 0,-286"/>
<polygon fill="#666666" stroke="#666666" points="0,-126.5 0,-126.5 11.25,-126.5 11.25,-126.5 0,-126.5"/>
<polygon fill="#666666" stroke="#666666" points="11.25,-126.5 11.25,-126.5 159,-126.5 159,-126.5 11.25,-126.5"/>
<polygon fill="none" stroke="#666666" points="0,-95.5 0,-302.5 159,-302.5 159,-95.5 0,-95.5"/>
</a>
</g>
</g>
<!-- Node2&#45;&gt;Node1 -->
<g id="edge1_Node000001_Node000002" class="edge">
<title>Node2&#45;&gt;Node1</title>
<g id="a_edge1_Node000001_Node000002"><a xlink:title=" ">
<path fill="none" stroke="#63b8ff" d="M79.5,-95.72C79.5,-83.08 79.5,-70.91 79.5,-60.32"/>
<polygon fill="none" stroke="#63b8ff" points="79.5,-60.31 75.5,-54.31 79.5,-48.31 83.5,-54.31 79.5,-60.31"/>
</a>
</g>
<text text-anchor="middle" x="96" y="-68" font-family="Helvetica,sans-Serif" font-size="10.00" fill="grey"> +items</text>
</g>
</g>
</svg>
</svg>

<style type='text/css'>
<![CDATA[
[data-mouse-over-selected='false'] { opacity: 0.7; }
[data-mouse-over-selected='true']  { opacity: 1.0; }
]]>
</style>
<script type="application/ecmascript"><![CDATA[
document.addEventListener('DOMContentLoaded', (event) => {
  highlightEdges();
  highlightAdjacentNodes();
});
]]></script>
</svg>
