<?xml version="1.0" encoding="UTF-8" standalone="no"?>
<!DOCTYPE svg PUBLIC "-//W3C//DTD SVG 1.1//EN"
 "http://www.w3.org/Graphics/SVG/1.1/DTD/svg11.dtd">
<!-- Generated by graphviz version 12.2.1 (20241206.2353)
 -->
<!-- Title: CrewSystem Pages: 1 -->
<svg width="172pt" height="304pt"
 viewBox="0.00 0.00 172.25 303.50" xmlns="http://www.w3.org/2000/svg" xmlns:xlink="http://www.w3.org/1999/xlink">
<g id="graph0" class="graph" transform="scale(1 1) rotate(0) translate(4 299.5)">
<title>CrewSystem</title>
<!-- Node1 -->
<g id="Node000001" class="node">
<title>Node1</title>
<g id="a_Node000001"><a xlink:title="함선의 크루(승무원) 관리 시스템. 크루의 추가, 제거 및 크루 수 관련 기능을 담당.">
<polygon fill="#999999" stroke="none" points="161.62,-162 2.62,-162 2.62,0 161.62,0 161.62,-162"/>
<text text-anchor="start" x="55.88" y="-148.5" font-family="Consolas" font-size="10.00">CrewSystem</text>
<text text-anchor="start" x="79.5" y="-134" font-family="Consolas" font-size="10.00"> </text>
<text text-anchor="start" x="6.62" y="-119.5" font-family="Consolas" font-size="10.00">+</text>
<text text-anchor="start" x="15.88" y="-119.5" font-family="Consolas" font-size="10.00">override void Initialize</text>
<text text-anchor="start" x="15.88" y="-109" font-family="Consolas" font-size="10.00">(Ship ship)</text>
<text text-anchor="start" x="6.62" y="-94.5" font-family="Consolas" font-size="10.00">+</text>
<text text-anchor="start" x="15.88" y="-94.5" font-family="Consolas" font-size="10.00">override void Update</text>
<text text-anchor="start" x="15.88" y="-84" font-family="Consolas" font-size="10.00">(float deltaTime)</text>
<text text-anchor="start" x="6.62" y="-69.5" font-family="Consolas" font-size="10.00">+</text>
<text text-anchor="start" x="15.88" y="-69.5" font-family="Consolas" font-size="10.00">bool AddCrewMember</text>
<text text-anchor="start" x="15.88" y="-59" font-family="Consolas" font-size="10.00">(CrewBase newCrew)</text>
<text text-anchor="start" x="6.62" y="-44.5" font-family="Consolas" font-size="10.00">+</text>
<text text-anchor="start" x="15.88" y="-44.5" font-family="Consolas" font-size="10.00">bool RemoveCrewMember</text>
<text text-anchor="start" x="15.88" y="-34" font-family="Consolas" font-size="10.00">(CrewMember crewToRemove)</text>
<text text-anchor="start" x="6.62" y="-19.5" font-family="Consolas" font-size="10.00">+</text>
<text text-anchor="start" x="15.88" y="-19.5" font-family="Consolas" font-size="10.00">int GetCrewCount()</text>
<text text-anchor="start" x="6.62" y="-5" font-family="Consolas" font-size="10.00">+</text>
<text text-anchor="start" x="15.88" y="-5" font-family="Consolas" font-size="10.00">List&lt; CrewBase &gt; GetCrews()</text>
<polygon fill="#666666" stroke="#666666" points="2.62,-145.5 2.62,-145.5 161.62,-145.5 161.62,-145.5 2.62,-145.5"/>
<polygon fill="#666666" stroke="#666666" points="2.62,-131 2.62,-131 161.62,-131 161.62,-131 2.62,-131"/>
<polygon fill="none" stroke="#666666" points="2.62,0 2.62,-162 161.62,-162 161.62,0 2.62,0"/>
</a>
</g>
</g>
<!-- Node2 -->
<g id="Node000002" class="node">
<title>Node2</title>
<g id="a_Node000002"><a xlink:href="class_ship_system.html" target="_top" xlink:title="모든 함선 시스템의 추상 기반 클래스. 각 시스템은 함선 객체를 기반으로 동작하며, 공통적인 초기화 및 스탯 조회 기능을 제공합니다.">
<polygon fill="white" stroke="none" points="164.25,-295.5 0,-295.5 0,-198 164.25,-198 164.25,-295.5"/>
<text text-anchor="start" x="55.88" y="-282" font-family="Consolas" font-size="10.00">ShipSystem</text>
<text text-anchor="start" x="4" y="-267.5" font-family="Consolas" font-size="10.00">#</text>
<text text-anchor="start" x="13.25" y="-267.5" font-family="Consolas" font-size="10.00">Ship parentShip</text>
<text text-anchor="start" x="4" y="-253" font-family="Consolas" font-size="10.00">+</text>
<text text-anchor="start" x="13.25" y="-253" font-family="Consolas" font-size="10.00">virtual void Initialize</text>
<text text-anchor="start" x="13.25" y="-242.5" font-family="Consolas" font-size="10.00">(Ship ship)</text>
<text text-anchor="start" x="4" y="-228" font-family="Consolas" font-size="10.00">+</text>
<text text-anchor="start" x="13.25" y="-228" font-family="Consolas" font-size="10.00">void Update(float deltaTime)</text>
<text text-anchor="start" x="4" y="-213.5" font-family="Consolas" font-size="10.00">#</text>
<text text-anchor="start" x="13.25" y="-213.5" font-family="Consolas" font-size="10.00">float GetShipStat(ShipStat</text>
<text text-anchor="start" x="13.25" y="-203" font-family="Consolas" font-size="10.00"> stat)</text>
<polygon fill="#666666" stroke="#666666" points="0,-279 0,-279 164.25,-279 164.25,-279 0,-279"/>
<polygon fill="#666666" stroke="#666666" points="0,-264.5 0,-264.5 11.25,-264.5 11.25,-264.5 0,-264.5"/>
<polygon fill="#666666" stroke="#666666" points="11.25,-264.5 11.25,-264.5 164.25,-264.5 164.25,-264.5 11.25,-264.5"/>
<polygon fill="none" stroke="#666666" points="0,-198 0,-295.5 164.25,-295.5 164.25,-198 0,-198"/>
</a>
</g>
</g>
<!-- Node2&#45;&gt;Node1 -->
<g id="edge1_Node000001_Node000002" class="edge">
<title>Node2&#45;&gt;Node1</title>
<g id="a_edge1_Node000001_Node000002"><a xlink:title=" ">
<path fill="none" stroke="#63b8ff" d="M82.12,-187.1C82.12,-178.94 82.12,-170.44 82.12,-161.96"/>
<polygon fill="none" stroke="#63b8ff" points="78.63,-186.87 82.13,-196.87 85.63,-186.87 78.63,-186.87"/>
</a>
</g>
</g>
</g>
</svg>
