<?xml version="1.0" encoding="UTF-8" standalone="no"?>
<!DOCTYPE svg PUBLIC "-//W3C//DTD SVG 1.1//EN"
 "http://www.w3.org/Graphics/SVG/1.1/DTD/svg11.dtd">
<!-- Generated by graphviz version 12.2.1 (20241206.2353)
 -->
<!-- Title: Amorphous Pages: 1 -->
<!--zoomable 1831 -->

<svg id="main" version="1.1" xmlns="http://www.w3.org/2000/svg" xmlns:xlink="http://www.w3.org/1999/xlink" xml:space="preserve" onload="init(evt)">

<style type="text/css"><![CDATA[
.node, .edge {opacity: 0.7;}
.node.selected, .edge.selected {opacity: 1;}
.edge:hover path { stroke: red; }
.edge:hover polygon { stroke: red; fill: red; }
]]></style>

<defs>
  <circle id="rim" cx="0" cy="0" r="7"/>
  <circle id="rim2" cx="0" cy="0" r="3.5"/>
  <g id="zoomPlus">
    <use xlink:href="#rim" fill="#404040"><set attributeName="fill" to="#808080" begin="zoomplus.mouseover" end="zoomplus.mouseout"/></use>
    <path d="M-4,0h8M0,-4v8" fill="none" stroke="white" stroke-width="1.5" pointer-events="none"/>
  </g>
  <g id="zoomMin">
    <use xlink:href="#rim" fill="#404040"><set attributeName="fill" to="#808080" begin="zoomminus.mouseover" end="zoomminus.mouseout"/></use>
    <path d="M-4,0h8" fill="none" stroke="white" stroke-width="1.5" pointer-events="none"/>
  </g>
  <g id="arrowUp" transform="translate(30 24)">
    <use xlink:href="#rim"/>
    <path pointer-events="none" fill="none" stroke="white" stroke-width="1.5" d="M0,-3.0v7 M-2.5,-0.5L0,-3.0L2.5,-0.5"/>
  </g>
  <g id="arrowRight" transform="rotate(90) translate(36 -43)">
    <use xlink:href="#rim"/>
    <path pointer-events="none" fill="none" stroke="white" stroke-width="1.5" d="M0,-3.0v7 M-2.5,-0.5L0,-3.0L2.5,-0.5"/>
  </g>
  <g id="arrowDown" transform="rotate(180) translate(-30 -48)">
    <use xlink:href="#rim"/>
    <path pointer-events="none" fill="none" stroke="white" stroke-width="1.5" d="M0,-3.0v7 M-2.5,-0.5L0,-3.0L2.5,-0.5"/>
  </g>
  <g id="arrowLeft" transform="rotate(270) translate(-36 17)">
    <use xlink:href="#rim"/>
    <path pointer-events="none" fill="none" stroke="white" stroke-width="1.5" d="M0,-3.0v7 M-2.5,-0.5L0,-3.0L2.5,-0.5"/>
  </g>
  <g id="resetDef">
    <use xlink:href="#rim2" fill="#404040"><set attributeName="fill" to="#808080" begin="reset.mouseover" end="reset.mouseout"/></use>
  </g>
</defs>
<script type="application/ecmascript">
var viewWidth = 714;
var viewHeight = 1831;
var sectionId = 'dynsection-1';
</script>
<script type="application/ecmascript" xlink:href="svg.min.js"/>
<svg id="graph" class="graph">
<g id="viewport">
<title>Amorphous</title>
<!-- Node1 -->
<g id="Node000001" class="node">
<title>Node1</title>
<g id="a_Node000001"><a xlink:title=" ">
<polygon fill="#999999" stroke="none" points="400.21,-52 342.71,-52 342.71,0 400.21,0 400.21,-52"/>
<text text-anchor="start" x="346.71" y="-38.5" font-family="Helvetica,sans-Serif" font-size="10.00">Amorphous</text>
<text text-anchor="start" x="369.96" y="-22.5" font-family="Helvetica,sans-Serif" font-size="10.00"> </text>
<text text-anchor="start" x="369.96" y="-6.5" font-family="Helvetica,sans-Serif" font-size="10.00"> </text>
<polygon fill="#666666" stroke="#666666" points="342.71,-34 342.71,-34 400.21,-34 400.21,-34 342.71,-34"/>
<polygon fill="#666666" stroke="#666666" points="342.71,-18 342.71,-18 400.21,-18 400.21,-18 342.71,-18"/>
<polygon fill="none" stroke="#666666" points="342.71,0 342.71,-52 400.21,-52 400.21,0 342.71,0"/>
</a>
</g>
</g>
<!-- Node2 -->
<g id="Node000002" class="node">
<title>Node2</title>
<g id="a_Node000002"><a xlink:href="class_crew_member.html" target="_top" xlink:title=" ">
<polygon fill="white" stroke="none" points="424.34,-141 318.59,-141 318.59,-89 424.34,-89 424.34,-141"/>
<text text-anchor="start" x="342.21" y="-127.5" font-family="Helvetica,sans-Serif" font-size="10.00">CrewMember</text>
<text text-anchor="start" x="369.96" y="-111.5" font-family="Helvetica,sans-Serif" font-size="10.00"> </text>
<text text-anchor="start" x="322.59" y="-95.5" font-family="Helvetica,sans-Serif" font-size="10.00">+</text>
<text text-anchor="start" x="332.59" y="-95.5" font-family="Helvetica,sans-Serif" font-size="10.00">GetCrewSkillValue()</text>
<polygon fill="#bfbfbf" stroke="#bfbfbf" points="318.59,-123 318.59,-123 424.34,-123 424.34,-123 318.59,-123"/>
<polygon fill="#bfbfbf" stroke="#bfbfbf" points="318.59,-107 318.59,-107 424.34,-107 424.34,-107 318.59,-107"/>
<polygon fill="none" stroke="#bfbfbf" points="318.59,-89 318.59,-141 424.34,-141 424.34,-89 318.59,-89"/>
</a>
</g>
</g>
<!-- Node2&#45;&gt;Node1 -->
<g id="edge1_Node000001_Node000002" class="edge">
<title>Node2&#45;&gt;Node1</title>
<g id="a_edge1_Node000001_Node000002"><a xlink:title=" ">
<path fill="none" stroke="#63b8ff" d="M371.46,-78.05C371.46,-69.21 371.46,-59.94 371.46,-51.76"/>
<polygon fill="none" stroke="#63b8ff" points="367.96,-77.79 371.46,-87.79 374.96,-77.79 367.96,-77.79"/>
</a>
</g>
</g>
<!-- Node3 -->
<g id="Node000003" class="node">
<title>Node3</title>
<g id="a_Node000003"><a xlink:href="class_crew_base.html" target="_top" xlink:title=" ">
<polygon fill="white" stroke="none" points="424.34,-550 318.59,-550 318.59,-178 424.34,-178 424.34,-550"/>
<text text-anchor="start" x="348.59" y="-536.5" font-family="Helvetica,sans-Serif" font-size="10.00">CrewBase</text>
<text text-anchor="start" x="322.59" y="-520.5" font-family="Helvetica,sans-Serif" font-size="10.00">+</text>
<text text-anchor="start" x="332.59" y="-520.5" font-family="Helvetica,sans-Serif" font-size="10.00">crewName</text>
<text text-anchor="start" x="322.59" y="-504.5" font-family="Helvetica,sans-Serif" font-size="10.00">+</text>
<text text-anchor="start" x="332.59" y="-504.5" font-family="Helvetica,sans-Serif" font-size="10.00">isPlayerControlled</text>
<text text-anchor="start" x="322.59" y="-488.5" font-family="Helvetica,sans-Serif" font-size="10.00">+</text>
<text text-anchor="start" x="332.59" y="-488.5" font-family="Helvetica,sans-Serif" font-size="10.00">race</text>
<text text-anchor="start" x="322.59" y="-472.5" font-family="Helvetica,sans-Serif" font-size="10.00">+</text>
<text text-anchor="start" x="332.59" y="-472.5" font-family="Helvetica,sans-Serif" font-size="10.00">maxHealth</text>
<text text-anchor="start" x="322.59" y="-456.5" font-family="Helvetica,sans-Serif" font-size="10.00">+</text>
<text text-anchor="start" x="332.59" y="-456.5" font-family="Helvetica,sans-Serif" font-size="10.00">attack</text>
<text text-anchor="start" x="322.59" y="-440.5" font-family="Helvetica,sans-Serif" font-size="10.00">+</text>
<text text-anchor="start" x="332.59" y="-440.5" font-family="Helvetica,sans-Serif" font-size="10.00">defense</text>
<text text-anchor="start" x="322.59" y="-424.5" font-family="Helvetica,sans-Serif" font-size="10.00">+</text>
<text text-anchor="start" x="332.59" y="-424.5" font-family="Helvetica,sans-Serif" font-size="10.00">learningSpeed</text>
<text text-anchor="start" x="322.59" y="-408.5" font-family="Helvetica,sans-Serif" font-size="10.00">+</text>
<text text-anchor="start" x="332.59" y="-408.5" font-family="Helvetica,sans-Serif" font-size="10.00">needsOxygen</text>
<text text-anchor="start" x="322.59" y="-392.5" font-family="Helvetica,sans-Serif" font-size="10.00">+</text>
<text text-anchor="start" x="332.59" y="-392.5" font-family="Helvetica,sans-Serif" font-size="10.00">maxSkillValueArray</text>
<text text-anchor="start" x="322.59" y="-376.5" font-family="Helvetica,sans-Serif" font-size="10.00">+</text>
<text text-anchor="start" x="332.59" y="-376.5" font-family="Helvetica,sans-Serif" font-size="10.00">maxPilotSkillValue</text>
<text text-anchor="start" x="332.59" y="-360.5" font-family="Helvetica,sans-Serif" font-size="10.00">and 16 more...</text>
<text text-anchor="start" x="322.59" y="-344.5" font-family="Helvetica,sans-Serif" font-size="10.00">+</text>
<text text-anchor="start" x="332.59" y="-344.5" font-family="Helvetica,sans-Serif" font-size="10.00">Initialize()</text>
<text text-anchor="start" x="322.59" y="-328.5" font-family="Helvetica,sans-Serif" font-size="10.00">+</text>
<text text-anchor="start" x="332.59" y="-328.5" font-family="Helvetica,sans-Serif" font-size="10.00">ImproveSkill()</text>
<text text-anchor="start" x="322.59" y="-312.5" font-family="Helvetica,sans-Serif" font-size="10.00">+</text>
<text text-anchor="start" x="332.59" y="-312.5" font-family="Helvetica,sans-Serif" font-size="10.00">MoveToRoom()</text>
<text text-anchor="start" x="322.59" y="-296.5" font-family="Helvetica,sans-Serif" font-size="10.00">+</text>
<text text-anchor="start" x="332.59" y="-296.5" font-family="Helvetica,sans-Serif" font-size="10.00">Attack()</text>
<text text-anchor="start" x="322.59" y="-280.5" font-family="Helvetica,sans-Serif" font-size="10.00">+</text>
<text text-anchor="start" x="332.59" y="-280.5" font-family="Helvetica,sans-Serif" font-size="10.00">TakeAttack()</text>
<text text-anchor="start" x="322.59" y="-264.5" font-family="Helvetica,sans-Serif" font-size="10.00">+</text>
<text text-anchor="start" x="332.59" y="-264.5" font-family="Helvetica,sans-Serif" font-size="10.00">TakeDamage()</text>
<text text-anchor="start" x="322.59" y="-248.5" font-family="Helvetica,sans-Serif" font-size="10.00">+</text>
<text text-anchor="start" x="332.59" y="-248.5" font-family="Helvetica,sans-Serif" font-size="10.00">RepairFacility()</text>
<text text-anchor="start" x="322.59" y="-232.5" font-family="Helvetica,sans-Serif" font-size="10.00">+</text>
<text text-anchor="start" x="332.59" y="-232.5" font-family="Helvetica,sans-Serif" font-size="10.00">Heal()</text>
<text text-anchor="start" x="322.59" y="-216.5" font-family="Helvetica,sans-Serif" font-size="10.00">+</text>
<text text-anchor="start" x="332.59" y="-216.5" font-family="Helvetica,sans-Serif" font-size="10.00">NeedsHealing()</text>
<text text-anchor="start" x="322.59" y="-200.5" font-family="Helvetica,sans-Serif" font-size="10.00">+</text>
<text text-anchor="start" x="332.59" y="-200.5" font-family="Helvetica,sans-Serif" font-size="10.00">GetCrewSkillValue()</text>
<text text-anchor="start" x="332.59" y="-184.5" font-family="Helvetica,sans-Serif" font-size="10.00">and 6 more...</text>
<polygon fill="#bfbfbf" stroke="#bfbfbf" points="318.59,-532 318.59,-532 424.34,-532 424.34,-532 318.59,-532"/>
<polygon fill="#bfbfbf" stroke="#bfbfbf" points="318.59,-356 318.59,-356 330.59,-356 330.59,-356 318.59,-356"/>
<polygon fill="#bfbfbf" stroke="#bfbfbf" points="330.59,-356 330.59,-356 424.34,-356 424.34,-356 330.59,-356"/>
<polygon fill="none" stroke="#bfbfbf" points="318.59,-178 318.59,-550 424.34,-550 424.34,-178 318.59,-178"/>
</a>
</g>
</g>
<!-- Node3&#45;&gt;Node2 -->
<g id="edge2_Node000002_Node000003" class="edge">
<title>Node3&#45;&gt;Node2</title>
<g id="a_edge2_Node000002_Node000003"><a xlink:title=" ">
<path fill="none" stroke="#63b8ff" d="M371.46,-166.73C371.46,-157.07 371.46,-148.33 371.46,-140.93"/>
<polygon fill="none" stroke="#63b8ff" points="367.96,-166.5 371.46,-176.5 374.96,-166.5 367.96,-166.5"/>
</a>
</g>
</g>
<!-- Node4 -->
<g id="Node000004" class="node">
<title>Node4</title>
<g id="a_Node000004"><a xlink:title=" ">
<polygon fill="white" stroke="none" points="166.21,-1823 90.71,-1823 90.71,-1771 166.21,-1771 166.21,-1823"/>
<text text-anchor="start" x="94.71" y="-1809.5" font-family="Helvetica,sans-Serif" font-size="10.00">MonoBehaviour</text>
<text text-anchor="start" x="126.96" y="-1793.5" font-family="Helvetica,sans-Serif" font-size="10.00"> </text>
<text text-anchor="start" x="126.96" y="-1777.5" font-family="Helvetica,sans-Serif" font-size="10.00"> </text>
<polygon fill="#bfbfbf" stroke="#bfbfbf" points="90.71,-1805 90.71,-1805 166.21,-1805 166.21,-1805 90.71,-1805"/>
<polygon fill="#bfbfbf" stroke="#bfbfbf" points="90.71,-1789 90.71,-1789 166.21,-1789 166.21,-1789 90.71,-1789"/>
<polygon fill="none" stroke="#bfbfbf" points="90.71,-1771 90.71,-1823 166.21,-1823 166.21,-1771 90.71,-1771"/>
</a>
</g>
</g>
<!-- Node4&#45;&gt;Node3 -->
<g id="edge3_Node000003_Node000004" class="edge">
<title>Node4&#45;&gt;Node3</title>
<g id="a_edge3_Node000003_Node000004"><a xlink:title=" ">
<path fill="none" stroke="#63b8ff" d="M82.36,-1765.95C72.3,-1756.98 63.02,-1746.22 57.46,-1734 12.6,-1635.27 55.82,-1598.43 57.46,-1490 63.46,-1093.42 -91.46,-953.47 84.46,-598 134.35,-497.2 250.44,-425.21 318.7,-389.83"/>
<polygon fill="none" stroke="#63b8ff" points="79.82,-1768.4 89.75,-1772.1 84.3,-1763.01 79.82,-1768.4"/>
</a>
</g>
</g>
<!-- Node9 -->
<g id="Node000009" class="node">
<title>Node9</title>
<g id="a_Node000009"><a xlink:href="class_room.html" target="_top" xlink:title="함선 내의 모든 방의 기본 클래스">
<polygon fill="white" stroke="none" points="384.84,-1242 246.09,-1242 246.09,-598 384.84,-598 384.84,-1242"/>
<text text-anchor="start" x="302.34" y="-1228.5" font-family="Helvetica,sans-Serif" font-size="10.00">Room</text>
<text text-anchor="start" x="250.09" y="-1212.5" font-family="Helvetica,sans-Serif" font-size="10.00">+</text>
<text text-anchor="start" x="260.09" y="-1212.5" font-family="Helvetica,sans-Serif" font-size="10.00">position</text>
<text text-anchor="start" x="250.09" y="-1196.5" font-family="Helvetica,sans-Serif" font-size="10.00">+</text>
<text text-anchor="start" x="260.09" y="-1196.5" font-family="Helvetica,sans-Serif" font-size="10.00">currentLevel</text>
<text text-anchor="start" x="250.09" y="-1180.5" font-family="Helvetica,sans-Serif" font-size="10.00">+</text>
<text text-anchor="start" x="260.09" y="-1180.5" font-family="Helvetica,sans-Serif" font-size="10.00">maxLevel</text>
<text text-anchor="start" x="250.09" y="-1164.5" font-family="Helvetica,sans-Serif" font-size="10.00">+</text>
<text text-anchor="start" x="260.09" y="-1164.5" font-family="Helvetica,sans-Serif" font-size="10.00">roomType</text>
<text text-anchor="start" x="250.09" y="-1148.5" font-family="Helvetica,sans-Serif" font-size="10.00">+</text>
<text text-anchor="start" x="260.09" y="-1148.5" font-family="Helvetica,sans-Serif" font-size="10.00">crewInRoom</text>
<text text-anchor="start" x="250.09" y="-1132.5" font-family="Helvetica,sans-Serif" font-size="10.00">+</text>
<text text-anchor="start" x="260.09" y="-1132.5" font-family="Helvetica,sans-Serif" font-size="10.00">gridSize</text>
<text text-anchor="start" x="250.09" y="-1116.5" font-family="Helvetica,sans-Serif" font-size="10.00">+</text>
<text text-anchor="start" x="260.09" y="-1116.5" font-family="Helvetica,sans-Serif" font-size="10.00">isPlaced</text>
<text text-anchor="start" x="250.46" y="-1100.5" font-family="Helvetica,sans-Serif" font-size="10.00">#</text>
<text text-anchor="start" x="260.09" y="-1100.5" font-family="Helvetica,sans-Serif" font-size="10.00">currentHitPoints</text>
<text text-anchor="start" x="250.46" y="-1084.5" font-family="Helvetica,sans-Serif" font-size="10.00">#</text>
<text text-anchor="start" x="260.09" y="-1084.5" font-family="Helvetica,sans-Serif" font-size="10.00">oxygenLevel</text>
<text text-anchor="start" x="250.46" y="-1068.5" font-family="Helvetica,sans-Serif" font-size="10.00">#</text>
<text text-anchor="start" x="260.09" y="-1068.5" font-family="Helvetica,sans-Serif" font-size="10.00">adjacentRooms</text>
<text text-anchor="start" x="250.46" y="-1052.5" font-family="Helvetica,sans-Serif" font-size="10.00">#</text>
<text text-anchor="start" x="260.09" y="-1052.5" font-family="Helvetica,sans-Serif" font-size="10.00">connectedDoors</text>
<text text-anchor="start" x="250.46" y="-1036.5" font-family="Helvetica,sans-Serif" font-size="10.00">#</text>
<text text-anchor="start" x="260.09" y="-1036.5" font-family="Helvetica,sans-Serif" font-size="10.00">roomParticles</text>
<text text-anchor="start" x="250.46" y="-1020.5" font-family="Helvetica,sans-Serif" font-size="10.00">#</text>
<text text-anchor="start" x="260.09" y="-1020.5" font-family="Helvetica,sans-Serif" font-size="10.00">roomSound</text>
<text text-anchor="start" x="250.46" y="-1004.5" font-family="Helvetica,sans-Serif" font-size="10.00">#</text>
<text text-anchor="start" x="260.09" y="-1004.5" font-family="Helvetica,sans-Serif" font-size="10.00">crewDamagePerOxygen</text>
<text text-anchor="start" x="250.46" y="-988.5" font-family="Helvetica,sans-Serif" font-size="10.00">#</text>
<text text-anchor="start" x="260.09" y="-988.5" font-family="Helvetica,sans-Serif" font-size="10.00">fireExtinguishRatePerLevel</text>
<text text-anchor="start" x="250.46" y="-972.5" font-family="Helvetica,sans-Serif" font-size="10.00">#</text>
<text text-anchor="start" x="260.09" y="-972.5" font-family="Helvetica,sans-Serif" font-size="10.00">isActive</text>
<text text-anchor="start" x="250.46" y="-956.5" font-family="Helvetica,sans-Serif" font-size="10.00">#</text>
<text text-anchor="start" x="260.09" y="-956.5" font-family="Helvetica,sans-Serif" font-size="10.00">isPowered</text>
<text text-anchor="start" x="250.46" y="-940.5" font-family="Helvetica,sans-Serif" font-size="10.00">#</text>
<text text-anchor="start" x="260.09" y="-940.5" font-family="Helvetica,sans-Serif" font-size="10.00">isPowerRequested</text>
<text text-anchor="start" x="250.46" y="-924.5" font-family="Helvetica,sans-Serif" font-size="10.00">#</text>
<text text-anchor="start" x="260.09" y="-924.5" font-family="Helvetica,sans-Serif" font-size="10.00">lowOxygenColor</text>
<text text-anchor="start" x="250.46" y="-908.5" font-family="Helvetica,sans-Serif" font-size="10.00">#</text>
<text text-anchor="start" x="260.09" y="-908.5" font-family="Helvetica,sans-Serif" font-size="10.00">normalColor</text>
<text text-anchor="start" x="250.46" y="-892.5" font-family="Helvetica,sans-Serif" font-size="10.00">#</text>
<text text-anchor="start" x="260.09" y="-892.5" font-family="Helvetica,sans-Serif" font-size="10.00">roomRenderer</text>
<text text-anchor="start" x="250.09" y="-876.5" font-family="Helvetica,sans-Serif" font-size="10.00">+</text>
<text text-anchor="start" x="260.09" y="-876.5" font-family="Helvetica,sans-Serif" font-size="10.00">Update()</text>
<text text-anchor="start" x="250.09" y="-860.5" font-family="Helvetica,sans-Serif" font-size="10.00">+</text>
<text text-anchor="start" x="260.09" y="-860.5" font-family="Helvetica,sans-Serif" font-size="10.00">CanBePlaced()</text>
<text text-anchor="start" x="250.09" y="-844.5" font-family="Helvetica,sans-Serif" font-size="10.00">+</text>
<text text-anchor="start" x="260.09" y="-844.5" font-family="Helvetica,sans-Serif" font-size="10.00">OnPlaced()</text>
<text text-anchor="start" x="250.09" y="-828.5" font-family="Helvetica,sans-Serif" font-size="10.00">+</text>
<text text-anchor="start" x="260.09" y="-828.5" font-family="Helvetica,sans-Serif" font-size="10.00">OnCrewEnter()</text>
<text text-anchor="start" x="250.09" y="-812.5" font-family="Helvetica,sans-Serif" font-size="10.00">+</text>
<text text-anchor="start" x="260.09" y="-812.5" font-family="Helvetica,sans-Serif" font-size="10.00">OnCrewExit()</text>
<text text-anchor="start" x="250.09" y="-796.5" font-family="Helvetica,sans-Serif" font-size="10.00">+</text>
<text text-anchor="start" x="260.09" y="-796.5" font-family="Helvetica,sans-Serif" font-size="10.00">InitializeIsDamageable()</text>
<text text-anchor="start" x="250.09" y="-780.5" font-family="Helvetica,sans-Serif" font-size="10.00">+</text>
<text text-anchor="start" x="260.09" y="-780.5" font-family="Helvetica,sans-Serif" font-size="10.00">GetIsPowered()</text>
<text text-anchor="start" x="250.09" y="-764.5" font-family="Helvetica,sans-Serif" font-size="10.00">+</text>
<text text-anchor="start" x="260.09" y="-764.5" font-family="Helvetica,sans-Serif" font-size="10.00">GetIsPowerRequested()</text>
<text text-anchor="start" x="250.09" y="-748.5" font-family="Helvetica,sans-Serif" font-size="10.00">+</text>
<text text-anchor="start" x="260.09" y="-748.5" font-family="Helvetica,sans-Serif" font-size="10.00">GetIsDamageable()</text>
<text text-anchor="start" x="250.09" y="-732.5" font-family="Helvetica,sans-Serif" font-size="10.00">+</text>
<text text-anchor="start" x="260.09" y="-732.5" font-family="Helvetica,sans-Serif" font-size="10.00">GetOxygenLevel()</text>
<text text-anchor="start" x="260.09" y="-716.5" font-family="Helvetica,sans-Serif" font-size="10.00">and 18 more...</text>
<text text-anchor="start" x="250.46" y="-700.5" font-family="Helvetica,sans-Serif" font-size="10.00">#</text>
<text text-anchor="start" x="260.09" y="-700.5" font-family="Helvetica,sans-Serif" font-size="10.00">Start()</text>
<text text-anchor="start" x="250.46" y="-684.5" font-family="Helvetica,sans-Serif" font-size="10.00">#</text>
<text text-anchor="start" x="260.09" y="-684.5" font-family="Helvetica,sans-Serif" font-size="10.00">UpdateRoom()</text>
<text text-anchor="start" x="250.46" y="-668.5" font-family="Helvetica,sans-Serif" font-size="10.00">#</text>
<text text-anchor="start" x="260.09" y="-668.5" font-family="Helvetica,sans-Serif" font-size="10.00">UpdateEffects()</text>
<text text-anchor="start" x="250.46" y="-652.5" font-family="Helvetica,sans-Serif" font-size="10.00">#</text>
<text text-anchor="start" x="260.09" y="-652.5" font-family="Helvetica,sans-Serif" font-size="10.00">HasFire()</text>
<text text-anchor="start" x="250.46" y="-636.5" font-family="Helvetica,sans-Serif" font-size="10.00">#</text>
<text text-anchor="start" x="260.09" y="-636.5" font-family="Helvetica,sans-Serif" font-size="10.00">UpdateFireExtinguishRate()</text>
<text text-anchor="start" x="250.46" y="-620.5" font-family="Helvetica,sans-Serif" font-size="10.00">#</text>
<text text-anchor="start" x="260.09" y="-620.5" font-family="Helvetica,sans-Serif" font-size="10.00">OnDisabled()</text>
<text text-anchor="start" x="250.46" y="-604.5" font-family="Helvetica,sans-Serif" font-size="10.00">#</text>
<text text-anchor="start" x="260.09" y="-604.5" font-family="Helvetica,sans-Serif" font-size="10.00">NotifyStateChanged()</text>
<polygon fill="#666666" stroke="#666666" points="246.09,-1224 246.09,-1224 384.84,-1224 384.84,-1224 246.09,-1224"/>
<polygon fill="#666666" stroke="#666666" points="246.09,-888 246.09,-888 258.09,-888 258.09,-888 246.09,-888"/>
<polygon fill="#666666" stroke="#666666" points="258.09,-888 258.09,-888 384.84,-888 384.84,-888 258.09,-888"/>
<polygon fill="none" stroke="#666666" points="246.09,-598 246.09,-1242 384.84,-1242 384.84,-598 246.09,-598"/>
</a>
</g>
</g>
<!-- Node4&#45;&gt;Node9 -->
<g id="edge10_Node000009_Node000004" class="edge">
<title>Node4&#45;&gt;Node9</title>
<g id="a_edge10_Node000009_Node000004"><a xlink:title=" ">
<path fill="none" stroke="#63b8ff" d="M174.55,-1764.33C184.2,-1755.59 193.3,-1745.35 199.46,-1734 202.56,-1728.31 239.57,-1466.68 270.97,-1241.76"/>
<polygon fill="none" stroke="#63b8ff" points="172.49,-1761.48 167.14,-1770.63 177.02,-1766.82 172.49,-1761.48"/>
</a>
</g>
</g>
<!-- Node11 -->
<g id="Node000011" class="node">
<title>Node11</title>
<g id="a_Node000011"><a xlink:href="class_ship.html" target="_top" xlink:title=" ">
<polygon fill="white" stroke="none" points="190.34,-1734 66.59,-1734 66.59,-1490 190.34,-1490 190.34,-1734"/>
<text text-anchor="start" x="118.71" y="-1720.5" font-family="Helvetica,sans-Serif" font-size="10.00">Ship</text>
<text text-anchor="start" x="70.59" y="-1704.5" font-family="Helvetica,sans-Serif" font-size="10.00">+</text>
<text text-anchor="start" x="80.59" y="-1704.5" font-family="Helvetica,sans-Serif" font-size="10.00">allRooms</text>
<text text-anchor="start" x="70.59" y="-1688.5" font-family="Helvetica,sans-Serif" font-size="10.00">+</text>
<text text-anchor="start" x="80.59" y="-1688.5" font-family="Helvetica,sans-Serif" font-size="10.00">testRoomPrefab1</text>
<text text-anchor="start" x="70.59" y="-1672.5" font-family="Helvetica,sans-Serif" font-size="10.00">+</text>
<text text-anchor="start" x="80.59" y="-1672.5" font-family="Helvetica,sans-Serif" font-size="10.00">testRoomPrefab2</text>
<text text-anchor="start" x="70.59" y="-1656.5" font-family="Helvetica,sans-Serif" font-size="10.00">+</text>
<text text-anchor="start" x="80.59" y="-1656.5" font-family="Helvetica,sans-Serif" font-size="10.00">AddRoom()</text>
<text text-anchor="start" x="70.59" y="-1640.5" font-family="Helvetica,sans-Serif" font-size="10.00">+</text>
<text text-anchor="start" x="80.59" y="-1640.5" font-family="Helvetica,sans-Serif" font-size="10.00">RemoveRoom()</text>
<text text-anchor="start" x="70.59" y="-1624.5" font-family="Helvetica,sans-Serif" font-size="10.00">+</text>
<text text-anchor="start" x="80.59" y="-1624.5" font-family="Helvetica,sans-Serif" font-size="10.00">AddDoor()</text>
<text text-anchor="start" x="70.59" y="-1608.5" font-family="Helvetica,sans-Serif" font-size="10.00">+</text>
<text text-anchor="start" x="80.59" y="-1608.5" font-family="Helvetica,sans-Serif" font-size="10.00">GetRoomOfType&lt; T &gt;()</text>
<text text-anchor="start" x="70.59" y="-1592.5" font-family="Helvetica,sans-Serif" font-size="10.00">+</text>
<text text-anchor="start" x="80.59" y="-1592.5" font-family="Helvetica,sans-Serif" font-size="10.00">GetRoomsByType()</text>
<text text-anchor="start" x="70.59" y="-1576.5" font-family="Helvetica,sans-Serif" font-size="10.00">+</text>
<text text-anchor="start" x="80.59" y="-1576.5" font-family="Helvetica,sans-Serif" font-size="10.00">GetSystem&lt; T &gt;()</text>
<text text-anchor="start" x="70.59" y="-1560.5" font-family="Helvetica,sans-Serif" font-size="10.00">+</text>
<text text-anchor="start" x="80.59" y="-1560.5" font-family="Helvetica,sans-Serif" font-size="10.00">RecalculateAllStats()</text>
<text text-anchor="start" x="70.59" y="-1544.5" font-family="Helvetica,sans-Serif" font-size="10.00">+</text>
<text text-anchor="start" x="80.59" y="-1544.5" font-family="Helvetica,sans-Serif" font-size="10.00">GetStat()</text>
<text text-anchor="start" x="70.59" y="-1528.5" font-family="Helvetica,sans-Serif" font-size="10.00">+</text>
<text text-anchor="start" x="80.59" y="-1528.5" font-family="Helvetica,sans-Serif" font-size="10.00">GetRoomContributions()</text>
<text text-anchor="start" x="70.59" y="-1512.5" font-family="Helvetica,sans-Serif" font-size="10.00">+</text>
<text text-anchor="start" x="80.59" y="-1512.5" font-family="Helvetica,sans-Serif" font-size="10.00">TakeAttack()</text>
<text text-anchor="start" x="80.59" y="-1496.5" font-family="Helvetica,sans-Serif" font-size="10.00">and 15 more...</text>
<polygon fill="#bfbfbf" stroke="#bfbfbf" points="66.59,-1716 66.59,-1716 190.34,-1716 190.34,-1716 66.59,-1716"/>
<polygon fill="#bfbfbf" stroke="#bfbfbf" points="66.59,-1668 66.59,-1668 78.59,-1668 78.59,-1668 66.59,-1668"/>
<polygon fill="#bfbfbf" stroke="#bfbfbf" points="78.59,-1668 78.59,-1668 190.34,-1668 190.34,-1668 78.59,-1668"/>
<polygon fill="none" stroke="#bfbfbf" points="66.59,-1490 66.59,-1734 190.34,-1734 190.34,-1490 66.59,-1490"/>
</a>
</g>
</g>
<!-- Node4&#45;&gt;Node11 -->
<g id="edge15_Node000011_Node000004" class="edge">
<title>Node4&#45;&gt;Node11</title>
<g id="a_edge15_Node000011_Node000004"><a xlink:title=" ">
<path fill="none" stroke="#63b8ff" d="M128.46,-1759.99C128.46,-1752.04 128.46,-1743.18 128.46,-1733.87"/>
<polygon fill="none" stroke="#63b8ff" points="124.96,-1759.81 128.46,-1769.81 131.96,-1759.81 124.96,-1759.81"/>
</a>
</g>
</g>
<!-- Node5 -->
<g id="Node000005" class="node">
<title>Node5</title>
<g id="a_Node000005"><a xlink:href="interface_i_ship_stat_contributor.html" target="_top" xlink:title="ShipStat 에 영향을 주는 객체 인터페이스 모든 방들과 모든 선원은 전부 이에 해당한다. 방의 경우엔 RoomData 에 등록된 정보를 바탕으로 Ship에서 Contribute...">
<polygon fill="white" stroke="none" points="518.21,-1638 402.71,-1638 402.71,-1586 518.21,-1586 518.21,-1638"/>
<text text-anchor="start" x="416.21" y="-1624.5" font-family="Helvetica,sans-Serif" font-size="10.00">IShipStatContributor</text>
<text text-anchor="start" x="458.96" y="-1608.5" font-family="Helvetica,sans-Serif" font-size="10.00"> </text>
<text text-anchor="start" x="406.71" y="-1592.5" font-family="Helvetica,sans-Serif" font-size="10.00">+</text>
<text text-anchor="start" x="416.71" y="-1592.5" font-family="Helvetica,sans-Serif" font-size="10.00">GetStatContributions()</text>
<polygon fill="#666666" stroke="#666666" points="402.71,-1620 402.71,-1620 518.21,-1620 518.21,-1620 402.71,-1620"/>
<polygon fill="#666666" stroke="#666666" points="402.71,-1604 402.71,-1604 518.21,-1604 518.21,-1604 402.71,-1604"/>
<polygon fill="none" stroke="#666666" points="402.71,-1586 402.71,-1638 518.21,-1638 518.21,-1586 402.71,-1586"/>
</a>
</g>
</g>
<!-- Node5&#45;&gt;Node3 -->
<g id="edge4_Node000003_Node000005" class="edge">
<title>Node5&#45;&gt;Node3</title>
<g id="a_edge4_Node000003_Node000005"><a xlink:title=" ">
<path fill="none" stroke="#63b8ff" d="M452.89,-1574.82C447.36,-1546.87 440.2,-1507.16 436.46,-1472 393.94,-1072.14 435.2,-968.52 399.46,-568 398.93,-562.06 398.35,-556.04 397.73,-549.95"/>
<polygon fill="none" stroke="#63b8ff" points="449.44,-1575.43 454.84,-1584.54 456.3,-1574.05 449.44,-1575.43"/>
</a>
</g>
</g>
<!-- Node5&#45;&gt;Node9 -->
<g id="edge11_Node000009_Node000005" class="edge">
<title>Node5&#45;&gt;Node9</title>
<g id="a_edge11_Node000009_Node000005"><a xlink:title=" ">
<path fill="none" stroke="#63b8ff" d="M442.11,-1575.85C428.53,-1548.31 410.68,-1508.66 400.46,-1472 374.94,-1380.39 385.66,-1354.03 371.46,-1260 370.55,-1253.95 369.62,-1247.85 368.68,-1241.7"/>
<polygon fill="none" stroke="#63b8ff" points="438.98,-1577.41 446.59,-1584.78 445.24,-1574.27 438.98,-1577.41"/>
</a>
</g>
</g>
<!-- Node6 -->
<g id="Node000006" class="node">
<title>Node6</title>
<g id="a_Node000006"><a xlink:href="class_crew_race_stat.html" target="_top" xlink:title=" ">
<polygon fill="white" stroke="none" points="517.71,-1392 445.21,-1392 445.21,-1340 517.71,-1340 517.71,-1392"/>
<text text-anchor="start" x="449.21" y="-1378.5" font-family="Helvetica,sans-Serif" font-size="10.00">CrewRaceStat</text>
<text text-anchor="start" x="454.03" y="-1362.5" font-family="Helvetica,sans-Serif" font-size="10.00">+</text>
<text text-anchor="start" x="468.84" y="-1362.5" font-family="Helvetica,sans-Serif" font-size="10.00">ByRace</text>
<text text-anchor="start" x="479.96" y="-1346.5" font-family="Helvetica,sans-Serif" font-size="10.00"> </text>
<polygon fill="#bfbfbf" stroke="#bfbfbf" points="445.21,-1374 445.21,-1374 517.71,-1374 517.71,-1374 445.21,-1374"/>
<polygon fill="#bfbfbf" stroke="#bfbfbf" points="445.21,-1358 445.21,-1358 466.84,-1358 466.84,-1358 445.21,-1358"/>
<polygon fill="#bfbfbf" stroke="#bfbfbf" points="466.84,-1358 466.84,-1358 517.71,-1358 517.71,-1358 466.84,-1358"/>
<polygon fill="none" stroke="#bfbfbf" points="445.21,-1340 445.21,-1392 517.71,-1392 517.71,-1340 445.21,-1340"/>
</a>
</g>
</g>
<!-- Node6&#45;&gt;Node3 -->
<g id="edge5_Node000003_Node000006" class="edge">
<title>Node6&#45;&gt;Node3</title>
<g id="a_edge5_Node000003_Node000006"><a xlink:title=" ">
<path fill="none" stroke="#63b8ff" d="M481.59,-1340.33C481.73,-1242.05 478.66,-869.13 427.46,-568 427.16,-566.23 426.85,-564.46 426.54,-562.68"/>
<polygon fill="none" stroke="#63b8ff" points="426.53,-562.64 421.49,-557.49 424.31,-550.85 429.35,-556.01 426.53,-562.64"/>
</a>
</g>
<text text-anchor="middle" x="516.37" y="-916.5" font-family="Helvetica,sans-Serif" font-size="10.00" fill="grey"> +crewRaceStat</text>
</g>
<!-- Node7 -->
<g id="Node000007" class="node">
<title>Node7</title>
<g id="a_Node000007"><a xlink:title=" ">
<polygon fill="white" stroke="none" points="586.46,-1823 506.46,-1823 506.46,-1771 586.46,-1771 586.46,-1823"/>
<text text-anchor="start" x="510.46" y="-1809.5" font-family="Helvetica,sans-Serif" font-size="10.00">ScriptableObject</text>
<text text-anchor="start" x="544.96" y="-1793.5" font-family="Helvetica,sans-Serif" font-size="10.00"> </text>
<text text-anchor="start" x="544.96" y="-1777.5" font-family="Helvetica,sans-Serif" font-size="10.00"> </text>
<polygon fill="#bfbfbf" stroke="#bfbfbf" points="506.46,-1805 506.46,-1805 586.46,-1805 586.46,-1805 506.46,-1805"/>
<polygon fill="#bfbfbf" stroke="#bfbfbf" points="506.46,-1789 506.46,-1789 586.46,-1789 586.46,-1789 506.46,-1789"/>
<polygon fill="none" stroke="#bfbfbf" points="506.46,-1771 506.46,-1823 586.46,-1823 586.46,-1771 506.46,-1771"/>
</a>
</g>
</g>
<!-- Node7&#45;&gt;Node6 -->
<g id="edge6_Node000006_Node000007" class="edge">
<title>Node7&#45;&gt;Node6</title>
<g id="a_edge6_Node000006_Node000007"><a xlink:title=" ">
<path fill="none" stroke="#63b8ff" d="M547.65,-1759.65C548.76,-1701.86 547.87,-1585.75 527.46,-1490 526.39,-1484.98 504.09,-1426.21 490.94,-1391.76"/>
<polygon fill="none" stroke="#63b8ff" points="544.15,-1759.48 547.42,-1769.56 551.15,-1759.64 544.15,-1759.48"/>
</a>
</g>
</g>
<!-- Node8 -->
<g id="Node000008" class="node">
<title>Node8</title>
<g id="a_Node000008"><a xlink:href="class_equipment_item.html" target="_top" xlink:title=" ">
<polygon fill="white" stroke="none" points="642.46,-1472 522.46,-1472 522.46,-1260 642.46,-1260 642.46,-1472"/>
<text text-anchor="start" x="549.46" y="-1458.5" font-family="Helvetica,sans-Serif" font-size="10.00">EquipmentItem</text>
<text text-anchor="start" x="526.46" y="-1442.5" font-family="Helvetica,sans-Serif" font-size="10.00">+</text>
<text text-anchor="start" x="536.46" y="-1442.5" font-family="Helvetica,sans-Serif" font-size="10.00">eqIcon</text>
<text text-anchor="start" x="526.46" y="-1426.5" font-family="Helvetica,sans-Serif" font-size="10.00">+</text>
<text text-anchor="start" x="536.46" y="-1426.5" font-family="Helvetica,sans-Serif" font-size="10.00">eqName</text>
<text text-anchor="start" x="526.46" y="-1410.5" font-family="Helvetica,sans-Serif" font-size="10.00">+</text>
<text text-anchor="start" x="536.46" y="-1410.5" font-family="Helvetica,sans-Serif" font-size="10.00">eqType</text>
<text text-anchor="start" x="526.46" y="-1394.5" font-family="Helvetica,sans-Serif" font-size="10.00">+</text>
<text text-anchor="start" x="536.46" y="-1394.5" font-family="Helvetica,sans-Serif" font-size="10.00">eqPrice</text>
<text text-anchor="start" x="526.46" y="-1378.5" font-family="Helvetica,sans-Serif" font-size="10.00">+</text>
<text text-anchor="start" x="536.46" y="-1378.5" font-family="Helvetica,sans-Serif" font-size="10.00">isGlobalEquip</text>
<text text-anchor="start" x="526.46" y="-1362.5" font-family="Helvetica,sans-Serif" font-size="10.00">+</text>
<text text-anchor="start" x="536.46" y="-1362.5" font-family="Helvetica,sans-Serif" font-size="10.00">eqAttackBonus</text>
<text text-anchor="start" x="526.46" y="-1346.5" font-family="Helvetica,sans-Serif" font-size="10.00">+</text>
<text text-anchor="start" x="536.46" y="-1346.5" font-family="Helvetica,sans-Serif" font-size="10.00">eqDefenseBonus</text>
<text text-anchor="start" x="526.46" y="-1330.5" font-family="Helvetica,sans-Serif" font-size="10.00">+</text>
<text text-anchor="start" x="536.46" y="-1330.5" font-family="Helvetica,sans-Serif" font-size="10.00">eqHealthBonus</text>
<text text-anchor="start" x="526.46" y="-1314.5" font-family="Helvetica,sans-Serif" font-size="10.00">+</text>
<text text-anchor="start" x="536.46" y="-1314.5" font-family="Helvetica,sans-Serif" font-size="10.00">eqAdditionalPilotSkill</text>
<text text-anchor="start" x="526.46" y="-1298.5" font-family="Helvetica,sans-Serif" font-size="10.00">+</text>
<text text-anchor="start" x="536.46" y="-1298.5" font-family="Helvetica,sans-Serif" font-size="10.00">eqAdditionalEngineSkill</text>
<text text-anchor="start" x="536.46" y="-1282.5" font-family="Helvetica,sans-Serif" font-size="10.00">and 6 more...</text>
<text text-anchor="start" x="580.96" y="-1266.5" font-family="Helvetica,sans-Serif" font-size="10.00"> </text>
<polygon fill="#bfbfbf" stroke="#bfbfbf" points="522.46,-1454 522.46,-1454 642.46,-1454 642.46,-1454 522.46,-1454"/>
<polygon fill="#bfbfbf" stroke="#bfbfbf" points="522.46,-1278 522.46,-1278 534.46,-1278 534.46,-1278 522.46,-1278"/>
<polygon fill="#bfbfbf" stroke="#bfbfbf" points="534.46,-1278 534.46,-1278 642.46,-1278 642.46,-1278 534.46,-1278"/>
<polygon fill="none" stroke="#bfbfbf" points="522.46,-1260 522.46,-1472 642.46,-1472 642.46,-1260 522.46,-1260"/>
</a>
</g>
</g>
<!-- Node7&#45;&gt;Node8 -->
<g id="edge8_Node000008_Node000007" class="edge">
<title>Node7&#45;&gt;Node8</title>
<g id="a_edge8_Node000008_Node000007"><a xlink:title=" ">
<path fill="none" stroke="#63b8ff" d="M558.81,-1760.44C559.44,-1757.94 560,-1755.44 560.46,-1753 578.14,-1659 582.95,-1550.04 583.75,-1471.91"/>
<polygon fill="none" stroke="#63b8ff" points="555.52,-1759.24 556.13,-1769.82 562.25,-1761.17 555.52,-1759.24"/>
</a>
</g>
</g>
<!-- Node10 -->
<g id="Node000010" class="node">
<title>Node10</title>
<g id="a_Node000010"><a xlink:href="class_room_data.html" target="_top" xlink:title="모든 방 유형의 기본 데이터를 정의하는 추상 ScriptableObject">
<polygon fill="white" stroke="none" points="384.84,-1662 246.09,-1662 246.09,-1562 384.84,-1562 384.84,-1662"/>
<text text-anchor="start" x="291.84" y="-1648.5" font-family="Helvetica,sans-Serif" font-size="10.00">RoomData</text>
<text text-anchor="start" x="313.96" y="-1632.5" font-family="Helvetica,sans-Serif" font-size="10.00"> </text>
<text text-anchor="start" x="250.09" y="-1616.5" font-family="Helvetica,sans-Serif" font-size="10.00">+</text>
<text text-anchor="start" x="260.09" y="-1616.5" font-family="Helvetica,sans-Serif" font-size="10.00">GetRoomData()</text>
<text text-anchor="start" x="250.46" y="-1600.5" font-family="Helvetica,sans-Serif" font-size="10.00">#</text>
<text text-anchor="start" x="260.09" y="-1600.5" font-family="Helvetica,sans-Serif" font-size="10.00">InitializeDefaultLevels()</text>
<text text-anchor="start" x="250.46" y="-1584.5" font-family="Helvetica,sans-Serif" font-size="10.00">#</text>
<text text-anchor="start" x="260.09" y="-1584.5" font-family="Helvetica,sans-Serif" font-size="10.00">OnEnable()</text>
<text text-anchor="start" x="250.46" y="-1568.5" font-family="Helvetica,sans-Serif" font-size="10.00">#</text>
<text text-anchor="start" x="260.09" y="-1568.5" font-family="Helvetica,sans-Serif" font-size="10.00">CheckIfNeedsInitialization()</text>
<polygon fill="#666666" stroke="#666666" points="246.09,-1644 246.09,-1644 384.84,-1644 384.84,-1644 246.09,-1644"/>
<polygon fill="#666666" stroke="#666666" points="246.09,-1628 246.09,-1628 384.84,-1628 384.84,-1628 246.09,-1628"/>
<polygon fill="none" stroke="#666666" points="246.09,-1562 246.09,-1662 384.84,-1662 384.84,-1562 246.09,-1562"/>
</a>
</g>
</g>
<!-- Node7&#45;&gt;Node10 -->
<g id="edge13_Node000010_Node000007" class="edge">
<title>Node7&#45;&gt;Node10</title>
<g id="a_edge13_Node000010_Node000007"><a xlink:title=" ">
<path fill="none" stroke="#63b8ff" d="M495.62,-1783.9C463.69,-1774.38 423.08,-1758.53 393.46,-1734 369.98,-1714.55 351.16,-1686.16 337.9,-1661.77"/>
<polygon fill="none" stroke="#63b8ff" points="494.49,-1787.22 505.07,-1786.6 496.41,-1780.49 494.49,-1787.22"/>
</a>
</g>
</g>
<!-- Node8&#45;&gt;Node3 -->
<g id="edge7_Node000003_Node000008" class="edge">
<title>Node8&#45;&gt;Node3</title>
<g id="a_edge7_Node000003_Node000008"><a xlink:title=" ">
<path fill="none" stroke="#63b8ff" d="M599.05,-1260.27C618.62,-1108.84 638.97,-822.3 556.46,-598 530.99,-528.76 476.35,-464.25 433.02,-420.74"/>
<polygon fill="none" stroke="#63b8ff" points="433.13,-420.85 426.05,-419.48 424.6,-412.42 431.68,-413.79 433.13,-420.85"/>
</a>
</g>
<text text-anchor="middle" x="661.12" y="-928.5" font-family="Helvetica,sans-Serif" font-size="10.00" fill="grey"> +equippedAssistant</text>
<text text-anchor="middle" x="661.12" y="-916.5" font-family="Helvetica,sans-Serif" font-size="10.00" fill="grey">+equippedShield</text>
<text text-anchor="middle" x="661.12" y="-904.5" font-family="Helvetica,sans-Serif" font-size="10.00" fill="grey">+equippedWeapon</text>
</g>
<!-- Node9&#45;&gt;Node3 -->
<g id="edge9_Node000003_Node000009" class="edge">
<title>Node9&#45;&gt;Node3</title>
<g id="a_edge9_Node000003_Node000009"><a xlink:title=" ">
<path fill="none" stroke="#63b8ff" d="M330.89,-598.44C331.93,-588.17 333.03,-578 334.21,-568 334.42,-566.23 334.64,-564.45 334.86,-562.67"/>
<polygon fill="none" stroke="#63b8ff" points="334.86,-562.68 331.66,-556.22 336.4,-550.78 339.59,-557.25 334.86,-562.68"/>
</a>
</g>
<text text-anchor="middle" x="366.84" y="-570.5" font-family="Helvetica,sans-Serif" font-size="10.00" fill="grey"> +currentRoom</text>
</g>
<!-- Node10&#45;&gt;Node9 -->
<g id="edge12_Node000009_Node000010" class="edge">
<title>Node10&#45;&gt;Node9</title>
<g id="a_edge12_Node000009_Node000010"><a xlink:title=" ">
<path fill="none" stroke="#63b8ff" d="M315.46,-1562.21C315.46,-1496.76 315.46,-1374.82 315.46,-1254.71"/>
<polygon fill="none" stroke="#63b8ff" points="315.46,-1254.87 311.46,-1248.87 315.46,-1242.87 319.46,-1248.87 315.46,-1254.87"/>
</a>
</g>
<text text-anchor="middle" x="341.34" y="-1362.5" font-family="Helvetica,sans-Serif" font-size="10.00" fill="grey"> +roomData</text>
</g>
<!-- Node11&#45;&gt;Node3 -->
<g id="edge16_Node000003_Node000011" class="edge">
<title>Node11&#45;&gt;Node3</title>
<g id="a_edge16_Node000003_Node000011"><a xlink:title=" ">
<path fill="none" stroke="#63b8ff" d="M109.9,-1490.2C85.14,-1294.65 57.36,-900.21 178.96,-598 207.22,-527.79 264.74,-462.73 309.59,-419.3"/>
<polygon fill="none" stroke="#63b8ff" points="309.61,-419.28 311.19,-412.24 318.3,-410.99 316.72,-418.03 309.61,-419.28"/>
</a>
</g>
<text text-anchor="middle" x="208.21" y="-916.5" font-family="Helvetica,sans-Serif" font-size="10.00" fill="grey"> +currentShip</text>
</g>
<!-- Node11&#45;&gt;Node9 -->
<g id="edge14_Node000009_Node000011" class="edge">
<title>Node11&#45;&gt;Node9</title>
<g id="a_edge14_Node000009_Node000011"><a xlink:title=" ">
<path fill="none" stroke="#63b8ff" d="M130.36,-1490.42C132.74,-1396.81 138.02,-1279.68 149.71,-1260 157.41,-1247.04 168.67,-1253.46 178.46,-1242 202.79,-1213.55 223.35,-1180.15 240.55,-1145.83"/>
<polygon fill="none" stroke="#63b8ff" points="240.58,-1145.75 239.62,-1138.61 245.85,-1134.97 246.81,-1142.12 240.58,-1145.75"/>
</a>
</g>
<text text-anchor="middle" x="177.09" y="-1362.5" font-family="Helvetica,sans-Serif" font-size="10.00" fill="grey"> #parentShip</text>
</g>
</g>
</svg>

<g id="navigator" transform="translate(0 0)" fill="#404254">
  <rect fill="#f2f5e9" fill-opacity="0.5" stroke="#606060" stroke-width=".5" x="0" y="0" width="60" height="60"/>
  <use id="zoomplus" xlink:href="#zoomPlus" x="17" y="9" onmousedown="handleZoom(evt,'in')"/>
  <use id="zoomminus" xlink:href="#zoomMin" x="42" y="9" onmousedown="handleZoom(evt,'out')"/>
  <use id="reset" xlink:href="#resetDef" x="30" y="36" onmousedown="handleReset()"/>
   <use id="arrowup" xlink:href="#arrowUp" x="0" y="0" onmousedown="handlePan(0,-1)"/>
  <use id="arrowright" xlink:href="#arrowRight" x="0" y="0" onmousedown="handlePan(1,0)"/>
  <use id="arrowdown" xlink:href="#arrowDown" x="0" y="0" onmousedown="handlePan(0,1)"/>
  <use id="arrowleft" xlink:href="#arrowLeft" x="0" y="0" onmousedown="handlePan(-1,0)"/>
</g>
<svg viewBox="0 0 15 15" width="100%" height="30px" preserveAspectRatio="xMaxYMin meet">
 <g id="arrow_out" transform="scale(0.3 0.3)">
  <a xlink:href="class_amorphous__coll__graph_org.svg" target="_base">
   <rect id="button" ry="5" rx="5" y="6" x="6" height="38" width="38"
        fill="#f2f5e9" fill-opacity="0.5" stroke="#606060" stroke-width="1.0"/>
   <path id="arrow"
     d="M 11.500037,31.436501 C 11.940474,20.09759 22.043105,11.32322 32.158766,21.979434 L 37.068811,17.246167 C 37.068811,17.246167 37.088388,32 37.088388,32 L 22.160133,31.978069 C 22.160133,31.978069 26.997745,27.140456 26.997745,27.140456 C 18.528582,18.264221 13.291696,25.230495 11.500037,31.436501 z"
     style="fill:#404040;"/>
  </a>
 </g>
</svg>

<style type='text/css'>
<![CDATA[
[data-mouse-over-selected='false'] { opacity: 0.7; }
[data-mouse-over-selected='true']  { opacity: 1.0; }
]]>
</style>
<script type="application/ecmascript"><![CDATA[
document.addEventListener('DOMContentLoaded', (event) => {
  highlightEdges();
  highlightAdjacentNodes();
});
]]></script>
</svg>
