<?xml version="1.0" encoding="UTF-8" standalone="no"?>
<!DOCTYPE svg PUBLIC "-//W3C//DTD SVG 1.1//EN"
 "http://www.w3.org/Graphics/SVG/1.1/DTD/svg11.dtd">
<!-- Generated by graphviz version 12.2.1 (20241206.2353)
 -->
<!-- Title: ShipCustomizationUI Pages: 1 -->
<!--zoomable 621 -->

<svg id="main" version="1.1" xmlns="http://www.w3.org/2000/svg" xmlns:xlink="http://www.w3.org/1999/xlink" xml:space="preserve" onload="init(evt)">

<style type="text/css"><![CDATA[
.node, .edge {opacity: 0.7;}
.node.selected, .edge.selected {opacity: 1;}
.edge:hover path { stroke: red; }
.edge:hover polygon { stroke: red; fill: red; }
]]></style>

<defs>
  <circle id="rim" cx="0" cy="0" r="7"/>
  <circle id="rim2" cx="0" cy="0" r="3.5"/>
  <g id="zoomPlus">
    <use xlink:href="#rim" fill="#404040"><set attributeName="fill" to="#808080" begin="zoomplus.mouseover" end="zoomplus.mouseout"/></use>
    <path d="M-4,0h8M0,-4v8" fill="none" stroke="white" stroke-width="1.5" pointer-events="none"/>
  </g>
  <g id="zoomMin">
    <use xlink:href="#rim" fill="#404040"><set attributeName="fill" to="#808080" begin="zoomminus.mouseover" end="zoomminus.mouseout"/></use>
    <path d="M-4,0h8" fill="none" stroke="white" stroke-width="1.5" pointer-events="none"/>
  </g>
  <g id="arrowUp" transform="translate(30 24)">
    <use xlink:href="#rim"/>
    <path pointer-events="none" fill="none" stroke="white" stroke-width="1.5" d="M0,-3.0v7 M-2.5,-0.5L0,-3.0L2.5,-0.5"/>
  </g>
  <g id="arrowRight" transform="rotate(90) translate(36 -43)">
    <use xlink:href="#rim"/>
    <path pointer-events="none" fill="none" stroke="white" stroke-width="1.5" d="M0,-3.0v7 M-2.5,-0.5L0,-3.0L2.5,-0.5"/>
  </g>
  <g id="arrowDown" transform="rotate(180) translate(-30 -48)">
    <use xlink:href="#rim"/>
    <path pointer-events="none" fill="none" stroke="white" stroke-width="1.5" d="M0,-3.0v7 M-2.5,-0.5L0,-3.0L2.5,-0.5"/>
  </g>
  <g id="arrowLeft" transform="rotate(270) translate(-36 17)">
    <use xlink:href="#rim"/>
    <path pointer-events="none" fill="none" stroke="white" stroke-width="1.5" d="M0,-3.0v7 M-2.5,-0.5L0,-3.0L2.5,-0.5"/>
  </g>
  <g id="resetDef">
    <use xlink:href="#rim2" fill="#404040"><set attributeName="fill" to="#808080" begin="reset.mouseover" end="reset.mouseout"/></use>
  </g>
</defs>
<script type="application/ecmascript">
var viewWidth = 286;
var viewHeight = 621;
var sectionId = 'dynsection-1';
</script>
<script type="application/ecmascript" xlink:href="svg.min.js"/>
<svg id="graph" class="graph">
<g id="viewport">
<title>ShipCustomizationUI</title>
<!-- Node1 -->
<g id="Node000001" class="node">
<title>Node1</title>
<g id="a_Node000001"><a xlink:title=" ">
<polygon fill="#999999" stroke="none" points="113.41,-148 3.91,-148 3.91,0 113.41,0 113.41,-148"/>
<text text-anchor="start" x="12.16" y="-134.5" font-family="Helvetica,sans-Serif" font-size="10.00">ShipCustomizationUI</text>
<text text-anchor="start" x="7.91" y="-118.5" font-family="Helvetica,sans-Serif" font-size="10.00">+</text>
<text text-anchor="start" x="17.91" y="-118.5" font-family="Helvetica,sans-Serif" font-size="10.00">currencyText</text>
<text text-anchor="start" x="7.91" y="-102.5" font-family="Helvetica,sans-Serif" font-size="10.00">+</text>
<text text-anchor="start" x="17.91" y="-102.5" font-family="Helvetica,sans-Serif" font-size="10.00">corridorButton</text>
<text text-anchor="start" x="7.91" y="-86.5" font-family="Helvetica,sans-Serif" font-size="10.00">+</text>
<text text-anchor="start" x="17.91" y="-86.5" font-family="Helvetica,sans-Serif" font-size="10.00">doorButton</text>
<text text-anchor="start" x="7.91" y="-70.5" font-family="Helvetica,sans-Serif" font-size="10.00">+</text>
<text text-anchor="start" x="17.91" y="-70.5" font-family="Helvetica,sans-Serif" font-size="10.00">placeModuleButton</text>
<text text-anchor="start" x="7.91" y="-54.5" font-family="Helvetica,sans-Serif" font-size="10.00">+</text>
<text text-anchor="start" x="17.91" y="-54.5" font-family="Helvetica,sans-Serif" font-size="10.00">clearModulesButton</text>
<text text-anchor="start" x="7.91" y="-38.5" font-family="Helvetica,sans-Serif" font-size="10.00">+</text>
<text text-anchor="start" x="17.91" y="-38.5" font-family="Helvetica,sans-Serif" font-size="10.00">validateLayoutButton</text>
<text text-anchor="start" x="7.91" y="-22.5" font-family="Helvetica,sans-Serif" font-size="10.00">+</text>
<text text-anchor="start" x="17.91" y="-22.5" font-family="Helvetica,sans-Serif" font-size="10.00">feedbackText</text>
<text text-anchor="start" x="57.16" y="-6.5" font-family="Helvetica,sans-Serif" font-size="10.00"> </text>
<polygon fill="#666666" stroke="#666666" points="3.91,-130 3.91,-130 113.41,-130 113.41,-130 3.91,-130"/>
<polygon fill="#666666" stroke="#666666" points="3.91,-18 3.91,-18 15.91,-18 15.91,-18 3.91,-18"/>
<polygon fill="#666666" stroke="#666666" points="15.91,-18 15.91,-18 113.41,-18 113.41,-18 15.91,-18"/>
<polygon fill="none" stroke="#666666" points="3.91,0 3.91,-148 113.41,-148 113.41,0 3.91,0"/>
</a>
</g>
</g>
<!-- Node2 -->
<g id="Node000002" class="node">
<title>Node2</title>
<g id="a_Node000002"><a xlink:title=" ">
<polygon fill="white" stroke="none" points="142.41,-613 66.91,-613 66.91,-561 142.41,-561 142.41,-613"/>
<text text-anchor="start" x="70.91" y="-599.5" font-family="Helvetica,sans-Serif" font-size="10.00">MonoBehaviour</text>
<text text-anchor="start" x="103.16" y="-583.5" font-family="Helvetica,sans-Serif" font-size="10.00"> </text>
<text text-anchor="start" x="103.16" y="-567.5" font-family="Helvetica,sans-Serif" font-size="10.00"> </text>
<polygon fill="#bfbfbf" stroke="#bfbfbf" points="66.91,-595 66.91,-595 142.41,-595 142.41,-595 66.91,-595"/>
<polygon fill="#bfbfbf" stroke="#bfbfbf" points="66.91,-579 66.91,-579 142.41,-579 142.41,-579 66.91,-579"/>
<polygon fill="none" stroke="#bfbfbf" points="66.91,-561 66.91,-613 142.41,-613 142.41,-561 66.91,-561"/>
</a>
</g>
</g>
<!-- Node2&#45;&gt;Node1 -->
<g id="edge1_Node000001_Node000002" class="edge">
<title>Node2&#45;&gt;Node1</title>
<g id="a_edge1_Node000001_Node000002"><a xlink:title=" ">
<path fill="none" stroke="#63b8ff" d="M58.48,-557.21C47.69,-548.03 37.61,-536.86 31.66,-524 -24.99,-401.57 7.11,-239.91 33.98,-147.72"/>
<polygon fill="none" stroke="#63b8ff" points="56.03,-559.73 66.05,-563.2 60.38,-554.24 56.03,-559.73"/>
</a>
</g>
</g>
<!-- Node3 -->
<g id="Node000003" class="node">
<title>Node3</title>
<g id="a_Node000003"><a xlink:href="class_ship_customization_manager.html" target="_top" xlink:title=" ">
<polygon fill="white" stroke="none" points="168.66,-524 40.66,-524 40.66,-296 168.66,-296 168.66,-524"/>
<text text-anchor="start" x="44.66" y="-510.5" font-family="Helvetica,sans-Serif" font-size="10.00">ShipCustomizationManager</text>
<text text-anchor="start" x="52.47" y="-494.5" font-family="Helvetica,sans-Serif" font-size="10.00">+</text>
<text text-anchor="start" x="70.28" y="-494.5" font-family="Helvetica,sans-Serif" font-size="10.00">cellSize</text>
<text text-anchor="start" x="52.47" y="-478.5" font-family="Helvetica,sans-Serif" font-size="10.00">+</text>
<text text-anchor="start" x="70.28" y="-478.5" font-family="Helvetica,sans-Serif" font-size="10.00">gridMin</text>
<text text-anchor="start" x="52.47" y="-462.5" font-family="Helvetica,sans-Serif" font-size="10.00">+</text>
<text text-anchor="start" x="70.28" y="-462.5" font-family="Helvetica,sans-Serif" font-size="10.00">gridMax</text>
<text text-anchor="start" x="52.47" y="-446.5" font-family="Helvetica,sans-Serif" font-size="10.00">+</text>
<text text-anchor="start" x="70.28" y="-446.5" font-family="Helvetica,sans-Serif" font-size="10.00">corridorPrefab</text>
<text text-anchor="start" x="52.47" y="-430.5" font-family="Helvetica,sans-Serif" font-size="10.00">+</text>
<text text-anchor="start" x="70.28" y="-430.5" font-family="Helvetica,sans-Serif" font-size="10.00">doorPrefab</text>
<text text-anchor="start" x="52.47" y="-414.5" font-family="Helvetica,sans-Serif" font-size="10.00">+</text>
<text text-anchor="start" x="70.28" y="-414.5" font-family="Helvetica,sans-Serif" font-size="10.00">modulesContainer</text>
<text text-anchor="start" x="52.47" y="-398.5" font-family="Helvetica,sans-Serif" font-size="10.00">+</text>
<text text-anchor="start" x="70.28" y="-398.5" font-family="Helvetica,sans-Serif" font-size="10.00">currency</text>
<text text-anchor="start" x="52.47" y="-382.5" font-family="Helvetica,sans-Serif" font-size="10.00">+</text>
<text text-anchor="start" x="70.28" y="-382.5" font-family="Helvetica,sans-Serif" font-size="10.00">corridorCost</text>
<text text-anchor="start" x="52.47" y="-366.5" font-family="Helvetica,sans-Serif" font-size="10.00">+</text>
<text text-anchor="start" x="70.28" y="-366.5" font-family="Helvetica,sans-Serif" font-size="10.00">doorCost</text>
<text text-anchor="start" x="52.47" y="-350.5" font-family="Helvetica,sans-Serif" font-size="10.00">+</text>
<text text-anchor="start" x="70.28" y="-350.5" font-family="Helvetica,sans-Serif" font-size="10.00">PlacedModules</text>
<text text-anchor="start" x="52.47" y="-334.5" font-family="Helvetica,sans-Serif" font-size="10.00">+</text>
<text text-anchor="start" x="70.28" y="-334.5" font-family="Helvetica,sans-Serif" font-size="10.00">PlaceModule()</text>
<text text-anchor="start" x="52.47" y="-318.5" font-family="Helvetica,sans-Serif" font-size="10.00">+</text>
<text text-anchor="start" x="70.28" y="-318.5" font-family="Helvetica,sans-Serif" font-size="10.00">RemoveModule()</text>
<text text-anchor="start" x="52.47" y="-302.5" font-family="Helvetica,sans-Serif" font-size="10.00">+</text>
<text text-anchor="start" x="70.28" y="-302.5" font-family="Helvetica,sans-Serif" font-size="10.00">ClearAllModules()</text>
<polygon fill="#bfbfbf" stroke="#bfbfbf" points="40.66,-506 40.66,-506 168.66,-506 168.66,-506 40.66,-506"/>
<polygon fill="#bfbfbf" stroke="#bfbfbf" points="40.66,-346 40.66,-346 68.28,-346 68.28,-346 40.66,-346"/>
<polygon fill="#bfbfbf" stroke="#bfbfbf" points="68.28,-346 68.28,-346 168.66,-346 168.66,-346 68.28,-346"/>
<polygon fill="none" stroke="#bfbfbf" points="40.66,-296 40.66,-524 168.66,-524 168.66,-296 40.66,-296"/>
</a>
</g>
</g>
<!-- Node2&#45;&gt;Node3 -->
<g id="edge3_Node000003_Node000002" class="edge">
<title>Node2&#45;&gt;Node3</title>
<g id="a_edge3_Node000003_Node000002"><a xlink:title=" ">
<path fill="none" stroke="#63b8ff" d="M104.66,-549.96C104.66,-542.01 104.66,-533.17 104.66,-523.92"/>
<polygon fill="none" stroke="#63b8ff" points="101.16,-549.78 104.66,-559.78 108.16,-549.78 101.16,-549.78"/>
</a>
</g>
</g>
<!-- Node4 -->
<g id="Node000004" class="node">
<title>Node4</title>
<g id="a_Node000004"><a xlink:href="class_ship_layout_validator.html" target="_top" xlink:title=" ">
<polygon fill="white" stroke="none" points="277.78,-248 183.53,-248 183.53,-196 277.78,-196 277.78,-248"/>
<text text-anchor="start" x="187.53" y="-234.5" font-family="Helvetica,sans-Serif" font-size="10.00">ShipLayoutValidator</text>
<text text-anchor="start" x="229.16" y="-218.5" font-family="Helvetica,sans-Serif" font-size="10.00"> </text>
<text text-anchor="start" x="189.16" y="-202.5" font-family="Helvetica,sans-Serif" font-size="10.00">+</text>
<text text-anchor="start" x="200.78" y="-202.5" font-family="Helvetica,sans-Serif" font-size="10.00">ValidateLayout()</text>
<polygon fill="#bfbfbf" stroke="#bfbfbf" points="183.53,-230 183.53,-230 277.78,-230 277.78,-230 183.53,-230"/>
<polygon fill="#bfbfbf" stroke="#bfbfbf" points="183.53,-214 183.53,-214 277.78,-214 277.78,-214 183.53,-214"/>
<polygon fill="none" stroke="#bfbfbf" points="183.53,-196 183.53,-248 277.78,-248 277.78,-196 183.53,-196"/>
</a>
</g>
</g>
<!-- Node2&#45;&gt;Node4 -->
<g id="edge5_Node000004_Node000002" class="edge">
<title>Node2&#45;&gt;Node4</title>
<g id="a_edge5_Node000004_Node000002"><a xlink:title=" ">
<path fill="none" stroke="#63b8ff" d="M150.87,-555.16C161.13,-546.25 170.94,-535.72 177.66,-524 230.04,-432.62 233.05,-301.98 231.76,-247.9"/>
<polygon fill="none" stroke="#63b8ff" points="148.9,-552.25 143.38,-561.29 153.33,-557.67 148.9,-552.25"/>
</a>
</g>
</g>
<!-- Node3&#45;&gt;Node1 -->
<g id="edge2_Node000001_Node000003" class="edge">
<title>Node3&#45;&gt;Node1</title>
<g id="a_edge2_Node000001_Node000003"><a xlink:title=" ">
<path fill="none" stroke="#63b8ff" d="M75.87,-296C72.56,-279.97 69.59,-263.63 67.41,-248 63.45,-219.72 61.23,-188.61 59.99,-160.67"/>
<polygon fill="none" stroke="#63b8ff" points="59.99,-160.55 55.75,-154.71 59.51,-148.56 63.75,-154.4 59.99,-160.55"/>
</a>
</g>
<text text-anchor="middle" x="121.03" y="-218.5" font-family="Helvetica,sans-Serif" font-size="10.00" fill="grey"> +customizationManager</text>
</g>
<!-- Node3&#45;&gt;Node4 -->
<g id="edge6_Node000004_Node000003" class="edge">
<title>Node3&#45;&gt;Node4</title>
<g id="a_edge6_Node000004_Node000003"><a xlink:title=" ">
<path fill="none" stroke="#63b8ff" d="M94.12,-296.11C96.96,-285.25 101.52,-274.96 108.41,-266 125.7,-243.51 142.88,-257.39 169.66,-248 170.22,-247.8 170.79,-247.6 171.37,-247.4"/>
<polygon fill="none" stroke="#63b8ff" points="171.46,-247.36 175.69,-241.52 182.71,-243.18 178.48,-249.02 171.46,-247.36"/>
</a>
</g>
<text text-anchor="middle" x="162.03" y="-268.5" font-family="Helvetica,sans-Serif" font-size="10.00" fill="grey"> +customizationManager</text>
</g>
<!-- Node4&#45;&gt;Node1 -->
<g id="edge4_Node000001_Node000004" class="edge">
<title>Node4&#45;&gt;Node1</title>
<g id="a_edge4_Node000001_Node000004"><a xlink:title=" ">
<path fill="none" stroke="#63b8ff" d="M201.48,-196.23C180.05,-178.05 150.11,-152.63 123.17,-129.76"/>
<polygon fill="none" stroke="#63b8ff" points="123.24,-129.82 116.08,-128.99 114.09,-122.06 121.26,-122.89 123.24,-129.82"/>
</a>
</g>
<text text-anchor="middle" x="216.21" y="-168.5" font-family="Helvetica,sans-Serif" font-size="10.00" fill="grey"> +layoutValidator</text>
</g>
</g>
</svg>

<g id="navigator" transform="translate(0 0)" fill="#404254">
  <rect fill="#f2f5e9" fill-opacity="0.5" stroke="#606060" stroke-width=".5" x="0" y="0" width="60" height="60"/>
  <use id="zoomplus" xlink:href="#zoomPlus" x="17" y="9" onmousedown="handleZoom(evt,'in')"/>
  <use id="zoomminus" xlink:href="#zoomMin" x="42" y="9" onmousedown="handleZoom(evt,'out')"/>
  <use id="reset" xlink:href="#resetDef" x="30" y="36" onmousedown="handleReset()"/>
   <use id="arrowup" xlink:href="#arrowUp" x="0" y="0" onmousedown="handlePan(0,-1)"/>
  <use id="arrowright" xlink:href="#arrowRight" x="0" y="0" onmousedown="handlePan(1,0)"/>
  <use id="arrowdown" xlink:href="#arrowDown" x="0" y="0" onmousedown="handlePan(0,1)"/>
  <use id="arrowleft" xlink:href="#arrowLeft" x="0" y="0" onmousedown="handlePan(-1,0)"/>
</g>
<svg viewBox="0 0 15 15" width="100%" height="30px" preserveAspectRatio="xMaxYMin meet">
 <g id="arrow_out" transform="scale(0.3 0.3)">
  <a xlink:href="class_ship_customization_u_i__coll__graph_org.svg" target="_base">
   <rect id="button" ry="5" rx="5" y="6" x="6" height="38" width="38"
        fill="#f2f5e9" fill-opacity="0.5" stroke="#606060" stroke-width="1.0"/>
   <path id="arrow"
     d="M 11.500037,31.436501 C 11.940474,20.09759 22.043105,11.32322 32.158766,21.979434 L 37.068811,17.246167 C 37.068811,17.246167 37.088388,32 37.088388,32 L 22.160133,31.978069 C 22.160133,31.978069 26.997745,27.140456 26.997745,27.140456 C 18.528582,18.264221 13.291696,25.230495 11.500037,31.436501 z"
     style="fill:#404040;"/>
  </a>
 </g>
</svg>

<style type='text/css'>
<![CDATA[
[data-mouse-over-selected='false'] { opacity: 0.7; }
[data-mouse-over-selected='true']  { opacity: 1.0; }
]]>
</style>
<script type="application/ecmascript"><![CDATA[
document.addEventListener('DOMContentLoaded', (event) => {
  highlightEdges();
  highlightAdjacentNodes();
});
]]></script>
</svg>
