<?xml version="1.0" encoding="UTF-8" standalone="no"?>
<!DOCTYPE svg PUBLIC "-//W3C//DTD SVG 1.1//EN"
 "http://www.w3.org/Graphics/SVG/1.1/DTD/svg11.dtd">
<!-- Generated by graphviz version 12.2.1 (20241206.2353)
 -->
<!-- Title: HitPointSystem Pages: 1 -->
<!--zoomable 934 -->

<svg id="main" version="1.1" xmlns="http://www.w3.org/2000/svg" xmlns:xlink="http://www.w3.org/1999/xlink" xml:space="preserve" onload="init(evt)">

<style type="text/css"><![CDATA[
.node, .edge {opacity: 0.7;}
.node.selected, .edge.selected {opacity: 1;}
.edge:hover path { stroke: red; }
.edge:hover polygon { stroke: red; fill: red; }
]]></style>

<defs>
  <circle id="rim" cx="0" cy="0" r="7"/>
  <circle id="rim2" cx="0" cy="0" r="3.5"/>
  <g id="zoomPlus">
    <use xlink:href="#rim" fill="#404040"><set attributeName="fill" to="#808080" begin="zoomplus.mouseover" end="zoomplus.mouseout"/></use>
    <path d="M-4,0h8M0,-4v8" fill="none" stroke="white" stroke-width="1.5" pointer-events="none"/>
  </g>
  <g id="zoomMin">
    <use xlink:href="#rim" fill="#404040"><set attributeName="fill" to="#808080" begin="zoomminus.mouseover" end="zoomminus.mouseout"/></use>
    <path d="M-4,0h8" fill="none" stroke="white" stroke-width="1.5" pointer-events="none"/>
  </g>
  <g id="arrowUp" transform="translate(30 24)">
    <use xlink:href="#rim"/>
    <path pointer-events="none" fill="none" stroke="white" stroke-width="1.5" d="M0,-3.0v7 M-2.5,-0.5L0,-3.0L2.5,-0.5"/>
  </g>
  <g id="arrowRight" transform="rotate(90) translate(36 -43)">
    <use xlink:href="#rim"/>
    <path pointer-events="none" fill="none" stroke="white" stroke-width="1.5" d="M0,-3.0v7 M-2.5,-0.5L0,-3.0L2.5,-0.5"/>
  </g>
  <g id="arrowDown" transform="rotate(180) translate(-30 -48)">
    <use xlink:href="#rim"/>
    <path pointer-events="none" fill="none" stroke="white" stroke-width="1.5" d="M0,-3.0v7 M-2.5,-0.5L0,-3.0L2.5,-0.5"/>
  </g>
  <g id="arrowLeft" transform="rotate(270) translate(-36 17)">
    <use xlink:href="#rim"/>
    <path pointer-events="none" fill="none" stroke="white" stroke-width="1.5" d="M0,-3.0v7 M-2.5,-0.5L0,-3.0L2.5,-0.5"/>
  </g>
  <g id="resetDef">
    <use xlink:href="#rim2" fill="#404040"><set attributeName="fill" to="#808080" begin="reset.mouseover" end="reset.mouseout"/></use>
  </g>
</defs>
<script type="application/ecmascript">
var viewWidth = 188;
var viewHeight = 934;
var sectionId = 'dynsection-1';
</script>
<script type="application/ecmascript" xlink:href="svg.min.js"/>
<svg id="graph" class="graph">
<g id="viewport">
<title>HitPointSystem</title>
<!-- Node1 -->
<g id="Node000001" class="node">
<title>Node1</title>
<g id="a_Node000001"><a xlink:title="함선의 체력(Hit Point)을 관리하는 시스템. 체력의 초기화, 변경 및 현재 상태를 조회하는 기능을 담당.">
<polygon fill="#999999" stroke="none" points="174.75,-137 5.25,-137 5.25,0 174.75,0 174.75,-137"/>
<text text-anchor="start" x="53.25" y="-123.5" font-family="Consolas" font-size="10.00">HitPointSystem</text>
<text text-anchor="start" x="87.38" y="-109" font-family="Consolas" font-size="10.00"> </text>
<text text-anchor="start" x="9.25" y="-94.5" font-family="Consolas" font-size="10.00">+</text>
<text text-anchor="start" x="18.5" y="-94.5" font-family="Consolas" font-size="10.00">override void Initialize</text>
<text text-anchor="start" x="18.5" y="-84" font-family="Consolas" font-size="10.00">(Ship ship)</text>
<text text-anchor="start" x="9.25" y="-69.5" font-family="Consolas" font-size="10.00">+</text>
<text text-anchor="start" x="18.5" y="-69.5" font-family="Consolas" font-size="10.00">override void Update</text>
<text text-anchor="start" x="18.5" y="-59" font-family="Consolas" font-size="10.00">(float deltaTime)</text>
<text text-anchor="start" x="9.25" y="-44.5" font-family="Consolas" font-size="10.00">+</text>
<text text-anchor="start" x="18.5" y="-44.5" font-family="Consolas" font-size="10.00">float GetHitPoint()</text>
<text text-anchor="start" x="9.25" y="-30" font-family="Consolas" font-size="10.00">+</text>
<text text-anchor="start" x="18.5" y="-30" font-family="Consolas" font-size="10.00">float GetHitPointPercentage()</text>
<text text-anchor="start" x="9.25" y="-15.5" font-family="Consolas" font-size="10.00">+</text>
<text text-anchor="start" x="18.5" y="-15.5" font-family="Consolas" font-size="10.00">void ChangeHitPoint</text>
<text text-anchor="start" x="18.5" y="-5" font-family="Consolas" font-size="10.00">(float amount)</text>
<polygon fill="#666666" stroke="#666666" points="5.25,-120.5 5.25,-120.5 174.75,-120.5 174.75,-120.5 5.25,-120.5"/>
<polygon fill="#666666" stroke="#666666" points="5.25,-106 5.25,-106 174.75,-106 174.75,-106 5.25,-106"/>
<polygon fill="none" stroke="#666666" points="5.25,0 5.25,-137 174.75,-137 174.75,0 5.25,0"/>
</a>
</g>
</g>
<!-- Node2 -->
<g id="Node000002" class="node">
<title>Node2</title>
<g id="a_Node000002"><a xlink:href="class_ship_system.html" target="_top" xlink:title="모든 함선 시스템의 추상 기반 클래스. 각 시스템은 함선 객체를 기반으로 동작하며, 공통적인 초기화 및 스탯 조회 기능을 제공합니다.">
<polygon fill="white" stroke="none" points="172.12,-271.5 7.88,-271.5 7.88,-174 172.12,-174 172.12,-271.5"/>
<text text-anchor="start" x="63.75" y="-258" font-family="Consolas" font-size="10.00">ShipSystem</text>
<text text-anchor="start" x="87.38" y="-243.5" font-family="Consolas" font-size="10.00"> </text>
<text text-anchor="start" x="11.88" y="-229" font-family="Consolas" font-size="10.00">+</text>
<text text-anchor="start" x="21.12" y="-229" font-family="Consolas" font-size="10.00">virtual void Initialize</text>
<text text-anchor="start" x="21.12" y="-218.5" font-family="Consolas" font-size="10.00">(Ship ship)</text>
<text text-anchor="start" x="11.88" y="-204" font-family="Consolas" font-size="10.00">+</text>
<text text-anchor="start" x="21.12" y="-204" font-family="Consolas" font-size="10.00">void Update(float deltaTime)</text>
<text text-anchor="start" x="11.88" y="-189.5" font-family="Consolas" font-size="10.00">#</text>
<text text-anchor="start" x="21.12" y="-189.5" font-family="Consolas" font-size="10.00">float GetShipStat(ShipStat</text>
<text text-anchor="start" x="21.12" y="-179" font-family="Consolas" font-size="10.00"> stat)</text>
<polygon fill="#666666" stroke="#666666" points="7.88,-255 7.88,-255 172.12,-255 172.12,-255 7.88,-255"/>
<polygon fill="#666666" stroke="#666666" points="7.88,-240.5 7.88,-240.5 172.12,-240.5 172.12,-240.5 7.88,-240.5"/>
<polygon fill="none" stroke="#666666" points="7.88,-174 7.88,-271.5 172.12,-271.5 172.12,-174 7.88,-174"/>
</a>
</g>
</g>
<!-- Node2&#45;&gt;Node1 -->
<g id="edge1_Node000001_Node000002" class="edge">
<title>Node2&#45;&gt;Node1</title>
<g id="a_edge1_Node000001_Node000002"><a xlink:title=" ">
<path fill="none" stroke="#63b8ff" d="M90,-163C90,-154.47 90,-145.62 90,-136.93"/>
<polygon fill="none" stroke="#63b8ff" points="86.5,-162.9 90,-172.9 93.5,-162.9 86.5,-162.9"/>
</a>
</g>
</g>
<!-- Node3 -->
<g id="Node000003" class="node">
<title>Node3</title>
<g id="a_Node000003"><a xlink:href="class_ship.html" target="_top" xlink:title="함선의 전체 기능과 상태를 관리하는 클래스. 방 배치, 시스템 초기화, 전투 처리, 자원 계산, 스탯 갱신 등의 기능을 포함합니다.">
<polygon fill="white" stroke="none" points="180,-841 0,-841 0,-319.5 180,-319.5 180,-841"/>
<text text-anchor="start" x="79.5" y="-827.5" font-family="Consolas" font-size="10.00">Ship</text>
<text text-anchor="start" x="4" y="-813" font-family="Consolas" font-size="10.00">+</text>
<text text-anchor="start" x="13.25" y="-813" font-family="Consolas" font-size="10.00">GameObject testRoomPrefab1</text>
<text text-anchor="start" x="4" y="-798.5" font-family="Consolas" font-size="10.00">+</text>
<text text-anchor="start" x="13.25" y="-798.5" font-family="Consolas" font-size="10.00">GameObject testRoomPrefab2</text>
<text text-anchor="start" x="4" y="-784" font-family="Consolas" font-size="10.00">+</text>
<text text-anchor="start" x="13.25" y="-784" font-family="Consolas" font-size="10.00">bool AddRoom(Room room,</text>
<text text-anchor="start" x="13.25" y="-773.5" font-family="Consolas" font-size="10.00"> Vector2Int position)</text>
<text text-anchor="start" x="4" y="-759" font-family="Consolas" font-size="10.00">+</text>
<text text-anchor="start" x="13.25" y="-759" font-family="Consolas" font-size="10.00">bool RemoveRoom(Room</text>
<text text-anchor="start" x="13.25" y="-748.5" font-family="Consolas" font-size="10.00"> room)</text>
<text text-anchor="start" x="4" y="-734" font-family="Consolas" font-size="10.00">+</text>
<text text-anchor="start" x="13.25" y="-734" font-family="Consolas" font-size="10.00">bool AddDoor(Vector2Int</text>
<text text-anchor="start" x="13.25" y="-723.5" font-family="Consolas" font-size="10.00"> position, bool isVertical)</text>
<text text-anchor="start" x="4" y="-709" font-family="Consolas" font-size="10.00">+</text>
<text text-anchor="start" x="13.25" y="-709" font-family="Consolas" font-size="10.00">T GetRoomOfType&lt; T &gt;()</text>
<text text-anchor="start" x="4" y="-694.5" font-family="Consolas" font-size="10.00">+</text>
<text text-anchor="start" x="13.25" y="-694.5" font-family="Consolas" font-size="10.00">List&lt; Room &gt; GetRoomsByType</text>
<text text-anchor="start" x="13.25" y="-684" font-family="Consolas" font-size="10.00">(RoomType type)</text>
<text text-anchor="start" x="4" y="-669.5" font-family="Consolas" font-size="10.00">+</text>
<text text-anchor="start" x="13.25" y="-669.5" font-family="Consolas" font-size="10.00">T GetSystem&lt; T &gt;()</text>
<text text-anchor="start" x="4" y="-655" font-family="Consolas" font-size="10.00">+</text>
<text text-anchor="start" x="13.25" y="-655" font-family="Consolas" font-size="10.00">void RecalculateAllStats()</text>
<text text-anchor="start" x="4" y="-640.5" font-family="Consolas" font-size="10.00">+</text>
<text text-anchor="start" x="13.25" y="-640.5" font-family="Consolas" font-size="10.00">float GetStat(ShipStat</text>
<text text-anchor="start" x="13.25" y="-630" font-family="Consolas" font-size="10.00"> statType)</text>
<text text-anchor="start" x="4" y="-615.5" font-family="Consolas" font-size="10.00">+</text>
<text text-anchor="start" x="13.25" y="-615.5" font-family="Consolas" font-size="10.00">Dictionary&lt; ShipStat,</text>
<text text-anchor="start" x="13.25" y="-605" font-family="Consolas" font-size="10.00"> float &gt; GetRoomContributions</text>
<text text-anchor="start" x="13.25" y="-594.5" font-family="Consolas" font-size="10.00">(string roomName)</text>
<text text-anchor="start" x="4" y="-580" font-family="Consolas" font-size="10.00">+</text>
<text text-anchor="start" x="13.25" y="-580" font-family="Consolas" font-size="10.00">void TakeAttack(float</text>
<text text-anchor="start" x="13.25" y="-569.5" font-family="Consolas" font-size="10.00"> damage, WeaponType weaponType,</text>
<text text-anchor="start" x="13.25" y="-559" font-family="Consolas" font-size="10.00"> Vector2Int hitPosition)</text>
<text text-anchor="start" x="4" y="-544.5" font-family="Consolas" font-size="10.00">+</text>
<text text-anchor="start" x="13.25" y="-544.5" font-family="Consolas" font-size="10.00">void TakeDamage(float</text>
<text text-anchor="start" x="13.25" y="-534" font-family="Consolas" font-size="10.00"> damage)</text>
<text text-anchor="start" x="4" y="-519.5" font-family="Consolas" font-size="10.00">+</text>
<text text-anchor="start" x="13.25" y="-519.5" font-family="Consolas" font-size="10.00">void OnShipDestroyed()</text>
<text text-anchor="start" x="4" y="-505" font-family="Consolas" font-size="10.00">+</text>
<text text-anchor="start" x="13.25" y="-505" font-family="Consolas" font-size="10.00">bool Warp()</text>
<text text-anchor="start" x="4" y="-490.5" font-family="Consolas" font-size="10.00">+</text>
<text text-anchor="start" x="13.25" y="-490.5" font-family="Consolas" font-size="10.00">float CalculateWarpFuelCost()</text>
<text text-anchor="start" x="4" y="-476" font-family="Consolas" font-size="10.00">+</text>
<text text-anchor="start" x="13.25" y="-476" font-family="Consolas" font-size="10.00">int GetCrewCount()</text>
<text text-anchor="start" x="4" y="-461.5" font-family="Consolas" font-size="10.00">+</text>
<text text-anchor="start" x="13.25" y="-461.5" font-family="Consolas" font-size="10.00">int GetMaxCrew()</text>
<text text-anchor="start" x="4" y="-447" font-family="Consolas" font-size="10.00">+</text>
<text text-anchor="start" x="13.25" y="-447" font-family="Consolas" font-size="10.00">List&lt; Room &gt; GetAllRooms()</text>
<text text-anchor="start" x="4" y="-432.5" font-family="Consolas" font-size="10.00">+</text>
<text text-anchor="start" x="13.25" y="-432.5" font-family="Consolas" font-size="10.00">List&lt; Door &gt; GetAllDoors()</text>
<text text-anchor="start" x="4" y="-418" font-family="Consolas" font-size="10.00">+</text>
<text text-anchor="start" x="13.25" y="-418" font-family="Consolas" font-size="10.00">List&lt; CrewBase &gt; GetAllCrew()</text>
<text text-anchor="start" x="4" y="-403.5" font-family="Consolas" font-size="10.00">+</text>
<text text-anchor="start" x="13.25" y="-403.5" font-family="Consolas" font-size="10.00">List&lt; ShipWeapon &gt;</text>
<text text-anchor="start" x="13.25" y="-393" font-family="Consolas" font-size="10.00"> GetAllWeapons()</text>
<text text-anchor="start" x="4" y="-378.5" font-family="Consolas" font-size="10.00">+</text>
<text text-anchor="start" x="13.25" y="-378.5" font-family="Consolas" font-size="10.00">float GetCurrentHitPoints()</text>
<text text-anchor="start" x="4" y="-364" font-family="Consolas" font-size="10.00">+</text>
<text text-anchor="start" x="13.25" y="-364" font-family="Consolas" font-size="10.00">Vector2Int GetRandomTarget</text>
<text text-anchor="start" x="13.25" y="-353.5" font-family="Consolas" font-size="10.00">Position()</text>
<text text-anchor="start" x="4" y="-339" font-family="Consolas" font-size="10.00">+</text>
<text text-anchor="start" x="13.25" y="-339" font-family="Consolas" font-size="10.00">float GetOxygenRate()</text>
<text text-anchor="start" x="4" y="-324.5" font-family="Consolas" font-size="10.00">+</text>
<text text-anchor="start" x="13.25" y="-324.5" font-family="Consolas" font-size="10.00">OxygenLevel GetOxygenLevel()</text>
<polygon fill="#666666" stroke="#666666" points="0,-824.5 0,-824.5 180,-824.5 180,-824.5 0,-824.5"/>
<polygon fill="#666666" stroke="#666666" points="0,-795.5 0,-795.5 11.25,-795.5 11.25,-795.5 0,-795.5"/>
<polygon fill="#666666" stroke="#666666" points="11.25,-795.5 11.25,-795.5 180,-795.5 180,-795.5 11.25,-795.5"/>
<polygon fill="none" stroke="#666666" points="0,-319.5 0,-841 180,-841 180,-319.5 0,-319.5"/>
</a>
</g>
</g>
<!-- Node3&#45;&gt;Node2 -->
<g id="edge2_Node000002_Node000003" class="edge">
<title>Node3&#45;&gt;Node2</title>
<g id="a_edge2_Node000002_Node000003"><a xlink:title=" ">
<path fill="none" stroke="#63b8ff" d="M90,-319.95C90,-307.2 90,-295.16 90,-284.2"/>
<polygon fill="none" stroke="#63b8ff" points="90,-284.28 86,-278.28 90,-272.28 94,-278.28 90,-284.28"/>
</a>
</g>
<text text-anchor="middle" x="117.38" y="-292" font-family="Helvetica,sans-Serif" font-size="10.00" fill="grey"> #parentShip</text>
</g>
<!-- Node4 -->
<g id="Node000004" class="node">
<title>Node4</title>
<g id="a_Node000004"><a xlink:title=" ">
<polygon fill="white" stroke="none" points="128.12,-925.5 51.88,-925.5 51.88,-878 128.12,-878 128.12,-925.5"/>
<text text-anchor="start" x="55.88" y="-912" font-family="Consolas" font-size="10.00">MonoBehaviour</text>
<text text-anchor="start" x="87.38" y="-897.5" font-family="Consolas" font-size="10.00"> </text>
<text text-anchor="start" x="87.38" y="-883" font-family="Consolas" font-size="10.00"> </text>
<polygon fill="#bfbfbf" stroke="#bfbfbf" points="51.88,-909 51.88,-909 128.12,-909 128.12,-909 51.88,-909"/>
<polygon fill="#bfbfbf" stroke="#bfbfbf" points="51.88,-894.5 51.88,-894.5 128.12,-894.5 128.12,-894.5 51.88,-894.5"/>
<polygon fill="none" stroke="#bfbfbf" points="51.88,-878 51.88,-925.5 128.12,-925.5 128.12,-878 51.88,-878"/>
</a>
</g>
</g>
<!-- Node4&#45;&gt;Node3 -->
<g id="edge3_Node000003_Node000004" class="edge">
<title>Node4&#45;&gt;Node3</title>
<g id="a_edge3_Node000003_Node000004"><a xlink:title=" ">
<path fill="none" stroke="#63b8ff" d="M90,-866.59C90,-858.97 90,-850.33 90,-840.91"/>
<polygon fill="none" stroke="#63b8ff" points="86.5,-866.51 90,-876.51 93.5,-866.51 86.5,-866.51"/>
</a>
</g>
</g>
</g>
</svg>

<g id="navigator" transform="translate(0 0)" fill="#404254">
  <rect fill="#f2f5e9" fill-opacity="0.5" stroke="#606060" stroke-width=".5" x="0" y="0" width="60" height="60"/>
  <use id="zoomplus" xlink:href="#zoomPlus" x="17" y="9" onmousedown="handleZoom(evt,'in')"/>
  <use id="zoomminus" xlink:href="#zoomMin" x="42" y="9" onmousedown="handleZoom(evt,'out')"/>
  <use id="reset" xlink:href="#resetDef" x="30" y="36" onmousedown="handleReset()"/>
   <use id="arrowup" xlink:href="#arrowUp" x="0" y="0" onmousedown="handlePan(0,-1)"/>
  <use id="arrowright" xlink:href="#arrowRight" x="0" y="0" onmousedown="handlePan(1,0)"/>
  <use id="arrowdown" xlink:href="#arrowDown" x="0" y="0" onmousedown="handlePan(0,1)"/>
  <use id="arrowleft" xlink:href="#arrowLeft" x="0" y="0" onmousedown="handlePan(-1,0)"/>
</g>
<svg viewBox="0 0 15 15" width="100%" height="30px" preserveAspectRatio="xMaxYMin meet">
 <g id="arrow_out" transform="scale(0.3 0.3)">
  <a xlink:href="class_hit_point_system__coll__graph_org.svg" target="_base">
   <rect id="button" ry="5" rx="5" y="6" x="6" height="38" width="38"
        fill="#f2f5e9" fill-opacity="0.5" stroke="#606060" stroke-width="1.0"/>
   <path id="arrow"
     d="M 11.500037,31.436501 C 11.940474,20.09759 22.043105,11.32322 32.158766,21.979434 L 37.068811,17.246167 C 37.068811,17.246167 37.088388,32 37.088388,32 L 22.160133,31.978069 C 22.160133,31.978069 26.997745,27.140456 26.997745,27.140456 C 18.528582,18.264221 13.291696,25.230495 11.500037,31.436501 z"
     style="fill:#404040;"/>
  </a>
 </g>
</svg>

<style type='text/css'>
<![CDATA[
[data-mouse-over-selected='false'] { opacity: 0.7; }
[data-mouse-over-selected='true']  { opacity: 1.0; }
]]>
</style>
<script type="application/ecmascript"><![CDATA[
document.addEventListener('DOMContentLoaded', (event) => {
  highlightEdges();
  highlightAdjacentNodes();
});
]]></script>
</svg>
