<?xml version="1.0" encoding="UTF-8" standalone="no"?>
<!DOCTYPE svg PUBLIC "-//W3C//DTD SVG 1.1//EN"
 "http://www.w3.org/Graphics/SVG/1.1/DTD/svg11.dtd">
<!-- Generated by graphviz version 12.2.1 (20241206.2353)
 -->
<!-- Title: CrewManager Pages: 1 -->
<svg width="229pt" height="481pt"
 viewBox="0.00 0.00 228.75 481.00" xmlns="http://www.w3.org/2000/svg" xmlns:xlink="http://www.w3.org/1999/xlink">
<g id="graph0" class="graph" transform="scale(1 1) rotate(0) translate(4 477)">
<title>CrewManager</title>
<!-- Node1 -->
<g id="Node000001" class="node">
<title>Node1</title>
<g id="a_Node000001"><a xlink:title="함선의 각 선원을 관리하는 Manager">
<polygon fill="#999999" stroke="none" points="121.5,-100 0,-100 0,0 121.5,0 121.5,-100"/>
<text text-anchor="start" x="30.38" y="-86.5" font-family="Helvetica,sans-Serif" font-size="10.00">CrewManager</text>
<text text-anchor="start" x="4" y="-70.5" font-family="Helvetica,sans-Serif" font-size="10.00">+</text>
<text text-anchor="start" x="14" y="-70.5" font-family="Helvetica,sans-Serif" font-size="10.00">Instance</text>
<text text-anchor="start" x="4" y="-54.5" font-family="Helvetica,sans-Serif" font-size="10.00">+</text>
<text text-anchor="start" x="14" y="-54.5" font-family="Helvetica,sans-Serif" font-size="10.00">AddCrewMember()</text>
<text text-anchor="start" x="4" y="-38.5" font-family="Helvetica,sans-Serif" font-size="10.00">+</text>
<text text-anchor="start" x="14" y="-38.5" font-family="Helvetica,sans-Serif" font-size="10.00">GetCurrentCrewCount()</text>
<text text-anchor="start" x="4" y="-22.5" font-family="Helvetica,sans-Serif" font-size="10.00">+</text>
<text text-anchor="start" x="14" y="-22.5" font-family="Helvetica,sans-Serif" font-size="10.00">GetMaxCrewCount()</text>
<text text-anchor="start" x="4" y="-6.5" font-family="Helvetica,sans-Serif" font-size="10.00">+</text>
<text text-anchor="start" x="14" y="-6.5" font-family="Helvetica,sans-Serif" font-size="10.00">GetSelectedCrew()</text>
<polygon fill="#666666" stroke="#666666" points="0,-82 0,-82 121.5,-82 121.5,-82 0,-82"/>
<polygon fill="#666666" stroke="#666666" points="0,-66 0,-66 12,-66 12,-66 0,-66"/>
<polygon fill="#666666" stroke="#666666" points="12,-66 12,-66 121.5,-66 121.5,-66 12,-66"/>
<polygon fill="none" stroke="#666666" points="0,0 0,-100 121.5,-100 121.5,0 0,0"/>
</a>
</g>
</g>
<!-- Node2 -->
<g id="Node000002" class="node">
<title>Node2</title>
<g id="a_Node000002"><a xlink:title=" ">
<polygon fill="white" stroke="none" points="82.5,-304 7,-304 7,-252 82.5,-252 82.5,-304"/>
<text text-anchor="start" x="11" y="-290.5" font-family="Helvetica,sans-Serif" font-size="10.00">MonoBehaviour</text>
<text text-anchor="start" x="43.25" y="-274.5" font-family="Helvetica,sans-Serif" font-size="10.00"> </text>
<text text-anchor="start" x="43.25" y="-258.5" font-family="Helvetica,sans-Serif" font-size="10.00"> </text>
<polygon fill="#bfbfbf" stroke="#bfbfbf" points="7,-286 7,-286 82.5,-286 82.5,-286 7,-286"/>
<polygon fill="#bfbfbf" stroke="#bfbfbf" points="7,-270 7,-270 82.5,-270 82.5,-270 7,-270"/>
<polygon fill="none" stroke="#bfbfbf" points="7,-252 7,-304 82.5,-304 82.5,-252 7,-252"/>
</a>
</g>
</g>
<!-- Node2&#45;&gt;Node1 -->
<g id="edge1_Node000001_Node000002" class="edge">
<title>Node2&#45;&gt;Node1</title>
<g id="a_edge1_Node000001_Node000002"><a xlink:title=" ">
<path fill="none" stroke="#63b8ff" d="M47.28,-241.3C49.98,-203.11 54.29,-142.29 57.3,-99.72"/>
<polygon fill="none" stroke="#63b8ff" points="43.81,-240.65 46.6,-250.87 50.8,-241.15 43.81,-240.65"/>
</a>
</g>
</g>
<!-- Node3 -->
<g id="Node000003" class="node">
<title>Node3</title>
<g id="a_Node000003"><a xlink:href="class_equipment_item.html" target="_top" xlink:title="각 장비 별 필요한 필드 정리">
<polygon fill="white" stroke="none" points="220.75,-384 100.75,-384 100.75,-172 220.75,-172 220.75,-384"/>
<text text-anchor="start" x="127.75" y="-370.5" font-family="Helvetica,sans-Serif" font-size="10.00">EquipmentItem</text>
<text text-anchor="start" x="104.75" y="-354.5" font-family="Helvetica,sans-Serif" font-size="10.00">+</text>
<text text-anchor="start" x="114.75" y="-354.5" font-family="Helvetica,sans-Serif" font-size="10.00">eqIcon</text>
<text text-anchor="start" x="104.75" y="-338.5" font-family="Helvetica,sans-Serif" font-size="10.00">+</text>
<text text-anchor="start" x="114.75" y="-338.5" font-family="Helvetica,sans-Serif" font-size="10.00">eqName</text>
<text text-anchor="start" x="104.75" y="-322.5" font-family="Helvetica,sans-Serif" font-size="10.00">+</text>
<text text-anchor="start" x="114.75" y="-322.5" font-family="Helvetica,sans-Serif" font-size="10.00">eqType</text>
<text text-anchor="start" x="104.75" y="-306.5" font-family="Helvetica,sans-Serif" font-size="10.00">+</text>
<text text-anchor="start" x="114.75" y="-306.5" font-family="Helvetica,sans-Serif" font-size="10.00">eqPrice</text>
<text text-anchor="start" x="104.75" y="-290.5" font-family="Helvetica,sans-Serif" font-size="10.00">+</text>
<text text-anchor="start" x="114.75" y="-290.5" font-family="Helvetica,sans-Serif" font-size="10.00">isGlobalEquip</text>
<text text-anchor="start" x="104.75" y="-274.5" font-family="Helvetica,sans-Serif" font-size="10.00">+</text>
<text text-anchor="start" x="114.75" y="-274.5" font-family="Helvetica,sans-Serif" font-size="10.00">eqAttackBonus</text>
<text text-anchor="start" x="104.75" y="-258.5" font-family="Helvetica,sans-Serif" font-size="10.00">+</text>
<text text-anchor="start" x="114.75" y="-258.5" font-family="Helvetica,sans-Serif" font-size="10.00">eqDefenseBonus</text>
<text text-anchor="start" x="104.75" y="-242.5" font-family="Helvetica,sans-Serif" font-size="10.00">+</text>
<text text-anchor="start" x="114.75" y="-242.5" font-family="Helvetica,sans-Serif" font-size="10.00">eqHealthBonus</text>
<text text-anchor="start" x="104.75" y="-226.5" font-family="Helvetica,sans-Serif" font-size="10.00">+</text>
<text text-anchor="start" x="114.75" y="-226.5" font-family="Helvetica,sans-Serif" font-size="10.00">eqAdditionalPilotSkill</text>
<text text-anchor="start" x="104.75" y="-210.5" font-family="Helvetica,sans-Serif" font-size="10.00">+</text>
<text text-anchor="start" x="114.75" y="-210.5" font-family="Helvetica,sans-Serif" font-size="10.00">eqAdditionalEngineSkill</text>
<text text-anchor="start" x="114.75" y="-194.5" font-family="Helvetica,sans-Serif" font-size="10.00">and 6 more...</text>
<text text-anchor="start" x="159.25" y="-178.5" font-family="Helvetica,sans-Serif" font-size="10.00"> </text>
<polygon fill="#666666" stroke="#666666" points="100.75,-366 100.75,-366 220.75,-366 220.75,-366 100.75,-366"/>
<polygon fill="#666666" stroke="#666666" points="100.75,-190 100.75,-190 112.75,-190 112.75,-190 100.75,-190"/>
<polygon fill="#666666" stroke="#666666" points="112.75,-190 112.75,-190 220.75,-190 220.75,-190 112.75,-190"/>
<polygon fill="none" stroke="#666666" points="100.75,-172 100.75,-384 220.75,-384 220.75,-172 100.75,-172"/>
</a>
</g>
</g>
<!-- Node3&#45;&gt;Node1 -->
<g id="edge2_Node000001_Node000003" class="edge">
<title>Node3&#45;&gt;Node1</title>
<g id="a_edge2_Node000001_Node000003"><a xlink:title=" ">
<path fill="none" stroke="#63b8ff" d="M114.41,-172.27C105.23,-151.53 95.89,-130.41 87.62,-111.74"/>
<polygon fill="none" stroke="#63b8ff" points="87.58,-111.64 81.5,-107.78 82.73,-100.67 88.81,-104.54 87.58,-111.64"/>
</a>
</g>
<text text-anchor="middle" x="144.51" y="-144.5" font-family="Helvetica,sans-Serif" font-size="10.00" fill="grey"> +defaultAssistant</text>
<text text-anchor="middle" x="144.51" y="-132.5" font-family="Helvetica,sans-Serif" font-size="10.00" fill="grey">+defaultShield</text>
<text text-anchor="middle" x="144.51" y="-120.5" font-family="Helvetica,sans-Serif" font-size="10.00" fill="grey">+defaultWeapon</text>
</g>
<!-- Node4 -->
<g id="Node000004" class="node">
<title>Node4</title>
<g id="a_Node000004"><a xlink:title=" ">
<polygon fill="white" stroke="none" points="200.75,-473 120.75,-473 120.75,-421 200.75,-421 200.75,-473"/>
<text text-anchor="start" x="124.75" y="-459.5" font-family="Helvetica,sans-Serif" font-size="10.00">ScriptableObject</text>
<text text-anchor="start" x="159.25" y="-443.5" font-family="Helvetica,sans-Serif" font-size="10.00"> </text>
<text text-anchor="start" x="159.25" y="-427.5" font-family="Helvetica,sans-Serif" font-size="10.00"> </text>
<polygon fill="#bfbfbf" stroke="#bfbfbf" points="120.75,-455 120.75,-455 200.75,-455 200.75,-455 120.75,-455"/>
<polygon fill="#bfbfbf" stroke="#bfbfbf" points="120.75,-439 120.75,-439 200.75,-439 200.75,-439 120.75,-439"/>
<polygon fill="none" stroke="#bfbfbf" points="120.75,-421 120.75,-473 200.75,-473 200.75,-421 120.75,-421"/>
</a>
</g>
</g>
<!-- Node4&#45;&gt;Node3 -->
<g id="edge3_Node000003_Node000004" class="edge">
<title>Node4&#45;&gt;Node3</title>
<g id="a_edge3_Node000003_Node000004"><a xlink:title=" ">
<path fill="none" stroke="#63b8ff" d="M160.75,-409.96C160.75,-401.96 160.75,-393.1 160.75,-383.86"/>
<polygon fill="none" stroke="#63b8ff" points="157.25,-409.84 160.75,-419.85 164.25,-409.85 157.25,-409.84"/>
</a>
</g>
</g>
</g>
</svg>
