<?xml version="1.0" encoding="UTF-8" standalone="no"?>
<!DOCTYPE svg PUBLIC "-//W3C//DTD SVG 1.1//EN"
 "http://www.w3.org/Graphics/SVG/1.1/DTD/svg11.dtd">
<!-- Generated by graphviz version 12.2.1 (20241206.2353)
 -->
<!-- Title: LifeSupportRoomData Pages: 1 -->
<svg width="199pt" height="431pt"
 viewBox="0.00 0.00 198.50 431.00" xmlns="http://www.w3.org/2000/svg" xmlns:xlink="http://www.w3.org/1999/xlink">

<svg id="main" version="1.1" xmlns="http://www.w3.org/2000/svg" xmlns:xlink="http://www.w3.org/1999/xlink" xml:space="preserve">

<style type="text/css"><![CDATA[
.node, .edge {opacity: 0.7;}
.node.selected, .edge.selected {opacity: 1;}
.edge:hover path { stroke: red; }
.edge:hover polygon { stroke: red; fill: red; }
]]></style>
<script type="application/ecmascript" xlink:href="svg.min.js"/>
<svg id="graph" class="graph">
<g id="graph0" class="graph" transform="scale(1 1) rotate(0) translate(4 427)">
<title>LifeSupportRoomData</title>
<!-- Node1 -->
<g id="Node000001" class="node">
<title>Node1</title>
<g id="a_Node000001"><a xlink:title="생활 시설의 데이터를 저장하는 ScriptableObject. 종류별로 선원 사기 보너스를 제공하며, 일부는 전력을 소비합니다.">
<polygon fill="#999999" stroke="none" points="166.88,-58 23.62,-58 23.62,0 166.88,0 166.88,-58"/>
<text text-anchor="start" x="45.38" y="-44.5" font-family="Consolas" font-size="10.00">LifeSupportRoomData</text>
<text text-anchor="start" x="92.62" y="-30" font-family="Consolas" font-size="10.00"> </text>
<text text-anchor="start" x="27.62" y="-15.5" font-family="Consolas" font-size="10.00">#</text>
<text text-anchor="start" x="36.88" y="-15.5" font-family="Consolas" font-size="10.00">override void Initialize</text>
<text text-anchor="start" x="36.88" y="-5" font-family="Consolas" font-size="10.00">DefaultLevels()</text>
<polygon fill="#666666" stroke="#666666" points="23.62,-41.5 23.62,-41.5 166.88,-41.5 166.88,-41.5 23.62,-41.5"/>
<polygon fill="#666666" stroke="#666666" points="23.62,-27 23.62,-27 166.88,-27 166.88,-27 23.62,-27"/>
<polygon fill="none" stroke="#666666" points="23.62,0 23.62,-58 166.88,-58 166.88,0 23.62,0"/>
</a>
</g>
</g>
<!-- Node2 -->
<g id="Node000002" class="node">
<title>Node2</title>
<g id="a_Node000002"><a xlink:href="class_room_data-1-g.html" target="_top" xlink:title="RoomData의 제네릭 확장 버전. 각 방 타입에 특화된 RoomLevel 데이터를 제네릭으로 정의할 수 있습니다.">
<polygon fill="white" stroke="none" points="172.12,-202 18.38,-202 18.38,-94 172.12,-94 172.12,-202"/>
<text text-anchor="start" x="61.12" y="-188.5" font-family="Consolas" font-size="10.00">RoomData&lt; T &gt;</text>
<text text-anchor="start" x="22.38" y="-174" font-family="Consolas" font-size="10.00">#</text>
<text text-anchor="start" x="31.62" y="-174" font-family="Consolas" font-size="10.00">List&lt; T &gt; RoomLevels</text>
<text text-anchor="start" x="22.38" y="-159.5" font-family="Consolas" font-size="10.00">+</text>
<text text-anchor="start" x="31.62" y="-159.5" font-family="Consolas" font-size="10.00">override RoomLevel</text>
<text text-anchor="start" x="31.62" y="-149" font-family="Consolas" font-size="10.00"> GetRoomData(int level)</text>
<text text-anchor="start" x="22.38" y="-134.5" font-family="Consolas" font-size="10.00">+</text>
<text text-anchor="start" x="31.62" y="-134.5" font-family="Consolas" font-size="10.00">T GetTypedRoomData</text>
<text text-anchor="start" x="31.62" y="-124" font-family="Consolas" font-size="10.00">(int level)</text>
<text text-anchor="start" x="22.38" y="-109.5" font-family="Consolas" font-size="10.00">#</text>
<text text-anchor="start" x="31.62" y="-109.5" font-family="Consolas" font-size="10.00">override bool CheckIfNeeds</text>
<text text-anchor="start" x="31.62" y="-99" font-family="Consolas" font-size="10.00">Initialization()</text>
<polygon fill="#666666" stroke="#666666" points="18.38,-185.5 18.38,-185.5 172.12,-185.5 172.12,-185.5 18.38,-185.5"/>
<polygon fill="#666666" stroke="#666666" points="18.38,-171 18.38,-171 29.62,-171 29.62,-171 18.38,-171"/>
<polygon fill="#666666" stroke="#666666" points="29.62,-171 29.62,-171 172.12,-171 172.12,-171 29.62,-171"/>
<polygon fill="none" stroke="#666666" points="18.38,-94 18.38,-202 172.12,-202 172.12,-94 18.38,-94"/>
</a>
</g>
</g>
<!-- Node2&#45;&gt;Node1 -->
<g id="edge1_Node000001_Node000002" class="edge">
<title>Node2&#45;&gt;Node1</title>
<g id="a_edge1_Node000001_Node000002"><a xlink:title=" ">
<path fill="none" stroke="#63b8ff" d="M95.25,-83.05C95.25,-74.17 95.25,-65.47 95.25,-57.76"/>
<polygon fill="none" stroke="#63b8ff" points="91.75,-82.81 95.25,-92.81 98.75,-82.81 91.75,-82.81"/>
</a>
</g>
</g>
<!-- Node3 -->
<g id="Node000003" class="node">
<title>Node3</title>
<g id="a_Node000003"><a xlink:href="class_room_data.html" target="_top" xlink:title="모든 방 유형의 기본 데이터를 정의하는 추상 ScriptableObject. 방의 레벨별 속성, 체력, 크기, 요구 자원 등을 설정합니다.">
<polygon fill="white" stroke="none" points="190.5,-339.5 0,-339.5 0,-238 190.5,-238 190.5,-339.5"/>
<text text-anchor="start" x="74.25" y="-326" font-family="Consolas" font-size="10.00">RoomData</text>
<text text-anchor="start" x="92.62" y="-311.5" font-family="Consolas" font-size="10.00"> </text>
<text text-anchor="start" x="4" y="-297" font-family="Consolas" font-size="10.00">+</text>
<text text-anchor="start" x="13.25" y="-297" font-family="Consolas" font-size="10.00">RoomLevel GetRoomData</text>
<text text-anchor="start" x="13.25" y="-286.5" font-family="Consolas" font-size="10.00">(int level)</text>
<text text-anchor="start" x="4" y="-272" font-family="Consolas" font-size="10.00">#</text>
<text text-anchor="start" x="13.25" y="-272" font-family="Consolas" font-size="10.00">void InitializeDefaultLevels()</text>
<text text-anchor="start" x="4" y="-257.5" font-family="Consolas" font-size="10.00">#</text>
<text text-anchor="start" x="13.25" y="-257.5" font-family="Consolas" font-size="10.00">virtual void OnEnable()</text>
<text text-anchor="start" x="4" y="-243" font-family="Consolas" font-size="10.00">#</text>
<text text-anchor="start" x="13.25" y="-243" font-family="Consolas" font-size="10.00">bool CheckIfNeedsInitialization()</text>
<polygon fill="#666666" stroke="#666666" points="0,-323 0,-323 190.5,-323 190.5,-323 0,-323"/>
<polygon fill="#666666" stroke="#666666" points="0,-308.5 0,-308.5 190.5,-308.5 190.5,-308.5 0,-308.5"/>
<polygon fill="none" stroke="#666666" points="0,-238 0,-339.5 190.5,-339.5 190.5,-238 0,-238"/>
</a>
</g>
</g>
<!-- Node3&#45;&gt;Node2 -->
<g id="edge2_Node000002_Node000003" class="edge">
<title>Node3&#45;&gt;Node2</title>
<g id="a_edge2_Node000002_Node000003"><a xlink:title=" ">
<path fill="none" stroke="#63b8ff" d="M95.25,-226.77C95.25,-218.39 95.25,-209.85 95.25,-201.63"/>
<polygon fill="none" stroke="#63b8ff" points="91.75,-226.54 95.25,-236.54 98.75,-226.54 91.75,-226.54"/>
</a>
</g>
</g>
<!-- Node4 -->
<g id="Node000004" class="node">
<title>Node4</title>
<g id="a_Node000004"><a xlink:title=" ">
<polygon fill="white" stroke="none" points="141.25,-423 49.25,-423 49.25,-375.5 141.25,-375.5 141.25,-423"/>
<text text-anchor="start" x="53.25" y="-409.5" font-family="Consolas" font-size="10.00">ScriptableObject</text>
<text text-anchor="start" x="92.62" y="-395" font-family="Consolas" font-size="10.00"> </text>
<text text-anchor="start" x="92.62" y="-380.5" font-family="Consolas" font-size="10.00"> </text>
<polygon fill="#bfbfbf" stroke="#bfbfbf" points="49.25,-406.5 49.25,-406.5 141.25,-406.5 141.25,-406.5 49.25,-406.5"/>
<polygon fill="#bfbfbf" stroke="#bfbfbf" points="49.25,-392 49.25,-392 141.25,-392 141.25,-392 49.25,-392"/>
<polygon fill="none" stroke="#bfbfbf" points="49.25,-375.5 49.25,-423 141.25,-423 141.25,-375.5 49.25,-375.5"/>
</a>
</g>
</g>
<!-- Node4&#45;&gt;Node3 -->
<g id="edge3_Node000003_Node000004" class="edge">
<title>Node4&#45;&gt;Node3</title>
<g id="a_edge3_Node000003_Node000004"><a xlink:title=" ">
<path fill="none" stroke="#63b8ff" d="M95.25,-364.14C95.25,-356.24 95.25,-347.69 95.25,-339.28"/>
<polygon fill="none" stroke="#63b8ff" points="91.75,-363.99 95.25,-373.99 98.75,-363.99 91.75,-363.99"/>
</a>
</g>
</g>
</g>
</svg>
</svg>

<style type='text/css'>
<![CDATA[
[data-mouse-over-selected='false'] { opacity: 0.7; }
[data-mouse-over-selected='true']  { opacity: 1.0; }
]]>
</style>
<script type="application/ecmascript"><![CDATA[
document.addEventListener('DOMContentLoaded', (event) => {
  highlightEdges();
  highlightAdjacentNodes();
});
]]></script>
</svg>
