<?xml version="1.0" encoding="UTF-8" standalone="no"?>
<!DOCTYPE svg PUBLIC "-//W3C//DTD SVG 1.1//EN"
 "http://www.w3.org/Graphics/SVG/1.1/DTD/svg11.dtd">
<!-- Generated by graphviz version 12.2.1 (20241206.2353)
 -->
<!-- Title: CrewInfoWrapper Pages: 1 -->
<svg width="157pt" height="412pt"
 viewBox="0.00 0.00 156.88 412.00" xmlns="http://www.w3.org/2000/svg" xmlns:xlink="http://www.w3.org/1999/xlink">

<svg id="main" version="1.1" xmlns="http://www.w3.org/2000/svg" xmlns:xlink="http://www.w3.org/1999/xlink" xml:space="preserve">

<style type="text/css"><![CDATA[
.node, .edge {opacity: 0.7;}
.node.selected, .edge.selected {opacity: 1;}
.edge:hover path { stroke: red; }
.edge:hover polygon { stroke: red; fill: red; }
]]></style>
<script type="application/ecmascript" xlink:href="svg.min.js"/>
<svg id="graph" class="graph">
<g id="graph0" class="graph" transform="scale(1 1) rotate(0) translate(4 408)">
<title>CrewInfoWrapper</title>
<!-- Node1 -->
<g id="Node000001" class="node">
<title>Node1</title>
<g id="a_Node000001"><a xlink:title=" ">
<polygon fill="#999999" stroke="none" points="106,-52 22.25,-52 22.25,0 106,0 106,-52"/>
<text text-anchor="start" x="26.25" y="-38.5" font-family="Helvetica,sans-Serif" font-size="10.00">CrewInfoWrapper</text>
<text text-anchor="start" x="62.62" y="-22.5" font-family="Helvetica,sans-Serif" font-size="10.00"> </text>
<text text-anchor="start" x="62.62" y="-6.5" font-family="Helvetica,sans-Serif" font-size="10.00"> </text>
<polygon fill="#666666" stroke="#666666" points="22.25,-34 22.25,-34 106,-34 106,-34 22.25,-34"/>
<polygon fill="#666666" stroke="#666666" points="22.25,-18 22.25,-18 106,-18 106,-18 22.25,-18"/>
<polygon fill="none" stroke="#666666" points="22.25,0 22.25,-52 106,-52 106,0 22.25,0"/>
</a>
</g>
</g>
<!-- Node2 -->
<g id="Node000002" class="node">
<title>Node2</title>
<g id="a_Node000002"><a xlink:href="class_crew_data.html" target="_top" xlink:title=" ">
<polygon fill="white" stroke="none" points="128.25,-404 0,-404 0,-160 128.25,-160 128.25,-404"/>
<text text-anchor="start" x="42" y="-390.5" font-family="Helvetica,sans-Serif" font-size="10.00">CrewData</text>
<text text-anchor="start" x="4" y="-374.5" font-family="Helvetica,sans-Serif" font-size="10.00">+</text>
<text text-anchor="start" x="14" y="-374.5" font-family="Helvetica,sans-Serif" font-size="10.00">공격력</text>
<text text-anchor="start" x="4" y="-358.5" font-family="Helvetica,sans-Serif" font-size="10.00">+</text>
<text text-anchor="start" x="14" y="-358.5" font-family="Helvetica,sans-Serif" font-size="10.00">방어력</text>
<text text-anchor="start" x="4" y="-342.5" font-family="Helvetica,sans-Serif" font-size="10.00">+</text>
<text text-anchor="start" x="14" y="-342.5" font-family="Helvetica,sans-Serif" font-size="10.00">체력</text>
<text text-anchor="start" x="4" y="-326.5" font-family="Helvetica,sans-Serif" font-size="10.00">+</text>
<text text-anchor="start" x="14" y="-326.5" font-family="Helvetica,sans-Serif" font-size="10.00">학습속도</text>
<text text-anchor="start" x="4" y="-310.5" font-family="Helvetica,sans-Serif" font-size="10.00">+</text>
<text text-anchor="start" x="14" y="-310.5" font-family="Helvetica,sans-Serif" font-size="10.00">산소호흡</text>
<text text-anchor="start" x="4" y="-294.5" font-family="Helvetica,sans-Serif" font-size="10.00">+</text>
<text text-anchor="start" x="14" y="-294.5" font-family="Helvetica,sans-Serif" font-size="10.00">조종실숙련도</text>
<text text-anchor="start" x="4" y="-278.5" font-family="Helvetica,sans-Serif" font-size="10.00">+</text>
<text text-anchor="start" x="14" y="-278.5" font-family="Helvetica,sans-Serif" font-size="10.00">엔진실숙련도</text>
<text text-anchor="start" x="4" y="-262.5" font-family="Helvetica,sans-Serif" font-size="10.00">+</text>
<text text-anchor="start" x="14" y="-262.5" font-family="Helvetica,sans-Serif" font-size="10.00">전력실숙련도</text>
<text text-anchor="start" x="4" y="-246.5" font-family="Helvetica,sans-Serif" font-size="10.00">+</text>
<text text-anchor="start" x="14" y="-246.5" font-family="Helvetica,sans-Serif" font-size="10.00">배리어실숙련도</text>
<text text-anchor="start" x="4" y="-230.5" font-family="Helvetica,sans-Serif" font-size="10.00">+</text>
<text text-anchor="start" x="14" y="-230.5" font-family="Helvetica,sans-Serif" font-size="10.00">조준석숙련도</text>
<text text-anchor="start" x="4" y="-214.5" font-family="Helvetica,sans-Serif" font-size="10.00">+</text>
<text text-anchor="start" x="14" y="-214.5" font-family="Helvetica,sans-Serif" font-size="10.00">탄약고숙련도</text>
<text text-anchor="start" x="4" y="-198.5" font-family="Helvetica,sans-Serif" font-size="10.00">+</text>
<text text-anchor="start" x="14" y="-198.5" font-family="Helvetica,sans-Serif" font-size="10.00">의무실숙련도</text>
<text text-anchor="start" x="4" y="-182.5" font-family="Helvetica,sans-Serif" font-size="10.00">+</text>
<text text-anchor="start" x="14" y="-182.5" font-family="Helvetica,sans-Serif" font-size="10.00">수리숙련도</text>
<text text-anchor="start" x="62.62" y="-166.5" font-family="Helvetica,sans-Serif" font-size="10.00"> </text>
<polygon fill="#bfbfbf" stroke="#bfbfbf" points="0,-386 0,-386 128.25,-386 128.25,-386 0,-386"/>
<polygon fill="#bfbfbf" stroke="#bfbfbf" points="0,-178 0,-178 12,-178 12,-178 0,-178"/>
<polygon fill="#bfbfbf" stroke="#bfbfbf" points="12,-178 12,-178 128.25,-178 128.25,-178 12,-178"/>
<polygon fill="none" stroke="#bfbfbf" points="0,-160 0,-404 128.25,-404 128.25,-160 0,-160"/>
</a>
</g>
</g>
<!-- Node2&#45;&gt;Node1 -->
<g id="edge1_Node000001_Node000002" class="edge">
<title>Node2&#45;&gt;Node1</title>
<g id="a_edge1_Node000001_Node000002"><a xlink:title=" ">
<path fill="none" stroke="#63b8ff" d="M64.12,-160.32C64.12,-125.6 64.12,-90.25 64.12,-64.68"/>
<polygon fill="none" stroke="#63b8ff" points="64.13,-64.81 60.13,-58.81 64.13,-52.81 68.13,-58.81 64.13,-64.81"/>
</a>
</g>
<text text-anchor="middle" x="106.5" y="-132.5" font-family="Helvetica,sans-Serif" font-size="10.00" fill="grey"> +곤충형</text>
<text text-anchor="middle" x="106.5" y="-120.5" font-family="Helvetica,sans-Serif" font-size="10.00" fill="grey">+돌격기계형</text>
<text text-anchor="middle" x="106.5" y="-108.5" font-family="Helvetica,sans-Serif" font-size="10.00" fill="grey">+부정형</text>
<text text-anchor="middle" x="106.5" y="-96.5" font-family="Helvetica,sans-Serif" font-size="10.00" fill="grey">+인간형</text>
<text text-anchor="middle" x="106.5" y="-84.5" font-family="Helvetica,sans-Serif" font-size="10.00" fill="grey">+지원기계형</text>
<text text-anchor="middle" x="106.5" y="-72.5" font-family="Helvetica,sans-Serif" font-size="10.00" fill="grey">+짐승형</text>
</g>
</g>
</svg>
</svg>

<style type='text/css'>
<![CDATA[
[data-mouse-over-selected='false'] { opacity: 0.7; }
[data-mouse-over-selected='true']  { opacity: 1.0; }
]]>
</style>
<script type="application/ecmascript"><![CDATA[
document.addEventListener('DOMContentLoaded', (event) => {
  highlightEdges();
  highlightAdjacentNodes();
});
]]></script>
</svg>
