<?xml version="1.0" encoding="UTF-8" standalone="no"?>
<!DOCTYPE svg PUBLIC "-//W3C//DTD SVG 1.1//EN"
 "http://www.w3.org/Graphics/SVG/1.1/DTD/svg11.dtd">
<!-- Generated by graphviz version 12.2.1 (20241206.2353)
 -->
<!-- Title: WeaponSystem.FireWeapon Pages: 1 -->
<svg width="984pt" height="460pt"
 viewBox="0.00 0.00 984.47 460.21" xmlns="http://www.w3.org/2000/svg" xmlns:xlink="http://www.w3.org/1999/xlink">
<g id="graph0" class="graph" transform="scale(1 1) rotate(0) translate(4 456.21)">
<title>WeaponSystem.FireWeapon</title>
<!-- Node1 -->
<g id="Node000001" class="node">
<title>Node1</title>
<g id="a_Node000001"><a xlink:title="지정한 인덱스의 무기를 대상에게 발사합니다. 무기가 준비된 상태일 경우에만 발사됩니다.">
<ellipse fill="#999999" stroke="#666666" cx="95.57" cy="-305.61" rx="95.57" ry="17.61"/>
<text text-anchor="middle" x="95.57" y="-301.36" font-family="Consolas" font-size="10.00">WeaponSystem.FireWeapon</text>
</a>
</g>
</g>
<!-- Node2 -->
<g id="Node000002" class="node">
<title>Node2</title>
<g id="a_Node000002"><a xlink:href="class_weapon_system.html#a624ae04a45c9a1472b259d8b8ce4cfa0" target="_top" xlink:title="실제 적용될 쿨다운 시간을 계산합니다. 쿨다운 보너스를 고려하여 기본 쿨타임을 감소시킵니다.">
<ellipse fill="white" stroke="#666666" cx="348.68" cy="-434.61" rx="121.55" ry="17.61"/>
<text text-anchor="middle" x="348.68" y="-430.36" font-family="Consolas" font-size="10.00">WeaponSystem.GetActualCooldown</text>
</a>
</g>
</g>
<!-- Node1&#45;&gt;Node2 -->
<g id="edge1_Node000001_Node000002" class="edge">
<title>Node1&#45;&gt;Node2</title>
<g id="a_edge1_Node000001_Node000002"><a xlink:title=" ">
<path fill="none" stroke="#63b8ff" d="M113.38,-323.15C136.69,-346.39 181.16,-386.96 227.13,-408.61 235.26,-412.43 243.95,-415.7 252.82,-418.5"/>
<polygon fill="#63b8ff" stroke="#63b8ff" points="251.66,-421.81 262.24,-421.25 253.62,-415.09 251.66,-421.81"/>
</a>
</g>
</g>
<!-- Node4 -->
<g id="Node000004" class="node">
<title>Node4</title>
<g id="a_Node000004"><a xlink:href="class_ship_weapon.html#a82b4d38e2852ab59ca14c75abaa23c0a" target="_top" xlink:title="무기의 기본 쿨다운 시간을 반환합니다.">
<ellipse fill="white" stroke="#666666" cx="348.68" cy="-381.61" rx="106.7" ry="17.61"/>
<text text-anchor="middle" x="348.68" y="-377.36" font-family="Consolas" font-size="10.00">ShipWeapon.GetBaseCooldown</text>
</a>
</g>
</g>
<!-- Node1&#45;&gt;Node4 -->
<g id="edge3_Node000001_Node000004" class="edge">
<title>Node1&#45;&gt;Node4</title>
<g id="a_edge3_Node000001_Node000004"><a xlink:title=" ">
<path fill="none" stroke="#63b8ff" d="M134.88,-322.06C160.62,-332.67 195.49,-346.2 227.13,-355.61 239.56,-359.3 252.85,-362.7 265.9,-365.74"/>
<polygon fill="#63b8ff" stroke="#63b8ff" points="264.78,-369.08 275.31,-367.88 266.33,-362.25 264.78,-369.08"/>
</a>
</g>
</g>
<!-- Node5 -->
<g id="Node000005" class="node">
<title>Node5</title>
<g id="a_Node000005"><a xlink:href="class_weapon_system.html#ae1a69763e53a9e39d89483b749f3f99b" target="_top" xlink:title="지정한 인덱스의 무기를 반환합니다.">
<ellipse fill="white" stroke="#666666" cx="348.68" cy="-328.61" rx="91.85" ry="17.61"/>
<text text-anchor="middle" x="348.68" y="-324.36" font-family="Consolas" font-size="10.00">WeaponSystem.GetWeapon</text>
</a>
</g>
</g>
<!-- Node1&#45;&gt;Node5 -->
<g id="edge4_Node000001_Node000005" class="edge">
<title>Node1&#45;&gt;Node5</title>
<g id="a_edge4_Node000001_Node000005"><a xlink:title=" ">
<path fill="none" stroke="#63b8ff" d="M181.93,-313.43C205.03,-315.54 230.15,-317.84 253.69,-320"/>
<polygon fill="#63b8ff" stroke="#63b8ff" points="253.32,-323.48 263.59,-320.91 253.95,-316.51 253.32,-323.48"/>
</a>
</g>
</g>
<!-- Node6 -->
<g id="Node000006" class="node">
<title>Node6</title>
<g id="a_Node000006"><a xlink:href="class_ship_weapon.html#a72518cf9b3021beca098c19c438dbc5f" target="_top" xlink:title="무기가 발사 가능한 상태인지 확인합니다.">
<ellipse fill="white" stroke="#666666" cx="635.21" cy="-282.61" rx="77" ry="17.61"/>
<text text-anchor="middle" x="635.21" y="-278.36" font-family="Consolas" font-size="10.00">ShipWeapon.IsReady</text>
</a>
</g>
</g>
<!-- Node1&#45;&gt;Node6 -->
<g id="edge5_Node000001_Node000006" class="edge">
<title>Node1&#45;&gt;Node6</title>
<g id="a_edge5_Node000001_Node000006"><a xlink:title=" ">
<path fill="none" stroke="#63b8ff" d="M189.3,-301.64C290,-297.33 449.56,-290.51 547.74,-286.31"/>
<polygon fill="#63b8ff" stroke="#63b8ff" points="547.75,-289.81 557.59,-285.88 547.45,-282.82 547.75,-289.81"/>
</a>
</g>
</g>
<!-- Node7 -->
<g id="Node000007" class="node">
<title>Node7</title>
<g id="a_Node000007"><a xlink:href="class_ship_weapon.html#a7e523885eee82be78af8cd03f5ff458a" target="_top" xlink:title="무기의 쿨다운을 기본값으로 초기화합니다.">
<ellipse fill="white" stroke="#666666" cx="348.68" cy="-236.61" rx="99.28" ry="17.61"/>
<text text-anchor="middle" x="348.68" y="-232.36" font-family="Consolas" font-size="10.00">ShipWeapon.ResetCooldown</text>
</a>
</g>
</g>
<!-- Node1&#45;&gt;Node7 -->
<g id="edge6_Node000001_Node000007" class="edge">
<title>Node1&#45;&gt;Node7</title>
<g id="a_edge6_Node000001_Node000007"><a xlink:title=" ">
<path fill="none" stroke="#63b8ff" d="M148.92,-290.55C172.76,-283.76 201.34,-275.68 227.13,-268.61 244.42,-263.86 263.14,-258.84 280.56,-254.21"/>
<polygon fill="#63b8ff" stroke="#63b8ff" points="280.97,-257.72 289.74,-251.78 279.18,-250.96 280.97,-257.72"/>
</a>
</g>
</g>
<!-- Node8 -->
<g id="Node000008" class="node">
<title>Node8</title>
<g id="a_Node000008"><a xlink:href="class_outer_ship_combat_controller.html#a11ae7e43fcd5261ae159ccffb975dba9" target="_top" xlink:title="지정된 함선이 무기를 발사하도록 시도합니다. 무기가 준비되지 않았거나 대상이 없으면 실패합니다.">
<ellipse fill="white" stroke="#666666" cx="348.68" cy="-175.61" rx="106.7" ry="25.03"/>
<text text-anchor="start" x="280.43" y="-176.61" font-family="Consolas" font-size="10.00">OuterShipCombatController.</text>
<text text-anchor="middle" x="348.68" y="-166.11" font-family="Consolas" font-size="10.00">WeaponFire</text>
</a>
</g>
</g>
<!-- Node1&#45;&gt;Node8 -->
<g id="edge7_Node000001_Node000008" class="edge">
<title>Node1&#45;&gt;Node8</title>
<g id="a_edge7_Node000001_Node000008"><a xlink:title=" ">
<path fill="none" stroke="#63b8ff" d="M115.47,-288.24C139.66,-266.88 183.65,-230.85 227.13,-209.61 237.35,-204.62 248.42,-200.24 259.57,-196.45"/>
<polygon fill="#63b8ff" stroke="#63b8ff" points="260.39,-199.86 268.82,-193.45 258.23,-193.2 260.39,-199.86"/>
</a>
</g>
</g>
<!-- Node3 -->
<g id="Node000003" class="node">
<title>Node3</title>
<g id="a_Node000003"><a xlink:href="class_ship_system.html#a0c4c206aa7e875dc6810ea122e46b332" target="_top" xlink:title="현재 함선의 특정 스탯 값을 가져옵니다.">
<ellipse fill="white" stroke="#666666" cx="635.21" cy="-434.61" rx="91.85" ry="17.61"/>
<text text-anchor="middle" x="635.21" y="-430.36" font-family="Consolas" font-size="10.00">ShipSystem.GetShipStat</text>
</a>
</g>
</g>
<!-- Node2&#45;&gt;Node3 -->
<g id="edge2_Node000002_Node000003" class="edge">
<title>Node2&#45;&gt;Node3</title>
<g id="a_edge2_Node000002_Node000003"><a xlink:title=" ">
<path fill="none" stroke="#63b8ff" d="M470.35,-434.61C490.83,-434.61 511.92,-434.61 531.87,-434.61"/>
<polygon fill="#63b8ff" stroke="#63b8ff" points="531.63,-438.11 541.63,-434.61 531.63,-431.11 531.63,-438.11"/>
</a>
</g>
</g>
<!-- Node8&#45;&gt;Node6 -->
<g id="edge14_Node000008_Node000006" class="edge">
<title>Node8&#45;&gt;Node6</title>
<g id="a_edge14_Node000008_Node000006"><a xlink:title=" ">
<path fill="none" stroke="#63b8ff" d="M432.59,-191.33C445.84,-195.95 458.9,-201.92 470.23,-209.61 492.01,-224.38 483.92,-242.66 506.23,-256.61 519.67,-265.01 535.3,-270.76 550.93,-274.68"/>
<polygon fill="#63b8ff" stroke="#63b8ff" points="549.73,-278 560.25,-276.78 551.27,-271.17 549.73,-278"/>
</a>
</g>
</g>
<!-- Node9 -->
<g id="Node000009" class="node">
<title>Node9</title>
<g id="a_Node000009"><a xlink:href="class_projectile_manager.html#afff6c926105524f2bd5b1cc1225d98d7" target="_top" xlink:title="투사체를 생성하고 발사합니다. 무기 타입에 따라 프리팹을 선택하고, 목표 위치까지 이동시키며, 도착 시 콜백을 실행합니다.">
<ellipse fill="white" stroke="#666666" cx="635.21" cy="-229.61" rx="128.98" ry="17.61"/>
<text text-anchor="middle" x="635.21" y="-225.36" font-family="Consolas" font-size="10.00">ProjectileManager.FireProjectile</text>
</a>
</g>
</g>
<!-- Node8&#45;&gt;Node9 -->
<g id="edge8_Node000008_Node000009" class="edge">
<title>Node8&#45;&gt;Node9</title>
<g id="a_edge8_Node000008_Node000009"><a xlink:title=" ">
<path fill="none" stroke="#63b8ff" d="M432.74,-191.37C468.57,-198.17 510.49,-206.13 546.79,-213.02"/>
<polygon fill="#63b8ff" stroke="#63b8ff" points="545.89,-216.41 556.37,-214.83 547.2,-209.53 545.89,-216.41"/>
</a>
</g>
</g>
<!-- Node11 -->
<g id="Node000011" class="node">
<title>Node11</title>
<g id="a_Node000011"><a xlink:href="class_ship_weapon.html#a5d0c8b9cb45cd7470fb3868d9feb826d" target="_top" xlink:title="무기 이름을 반환합니다.">
<ellipse fill="white" stroke="#666666" cx="635.21" cy="-176.61" rx="84.43" ry="17.61"/>
<text text-anchor="middle" x="635.21" y="-172.36" font-family="Consolas" font-size="10.00">ShipWeapon.GetDamage</text>
</a>
</g>
</g>
<!-- Node8&#45;&gt;Node11 -->
<g id="edge10_Node000008_Node000011" class="edge">
<title>Node8&#45;&gt;Node11</title>
<g id="a_edge10_Node000008_Node000011"><a xlink:title=" ">
<path fill="none" stroke="#63b8ff" d="M455.63,-175.98C483,-176.08 512.3,-176.18 539.08,-176.27"/>
<polygon fill="#63b8ff" stroke="#63b8ff" points="538.87,-179.77 548.88,-176.31 538.89,-172.77 538.87,-179.77"/>
</a>
</g>
</g>
<!-- Node12 -->
<g id="Node000012" class="node">
<title>Node12</title>
<g id="a_Node000012"><a xlink:href="class_ship_weapon.html#aa577ecb44927339cdd0cb15ae4ae76e8" target="_top" xlink:title="무기의 타입을 반환합니다.">
<ellipse fill="white" stroke="#666666" cx="635.21" cy="-123.61" rx="106.7" ry="17.61"/>
<text text-anchor="middle" x="635.21" y="-119.36" font-family="Consolas" font-size="10.00">ShipWeapon.GetFirePosition</text>
</a>
</g>
</g>
<!-- Node8&#45;&gt;Node12 -->
<g id="edge11_Node000008_Node000012" class="edge">
<title>Node8&#45;&gt;Node12</title>
<g id="a_edge11_Node000008_Node000012"><a xlink:title=" ">
<path fill="none" stroke="#63b8ff" d="M433.9,-160.22C470.87,-153.46 514.17,-145.55 551.03,-138.81"/>
<polygon fill="#63b8ff" stroke="#63b8ff" points="551.55,-142.27 560.76,-137.03 550.29,-135.39 551.55,-142.27"/>
</a>
</g>
</g>
<!-- Node13 -->
<g id="Node000013" class="node">
<title>Node13</title>
<g id="a_Node000013"><a xlink:href="class_ship.html#a73217557e08511f1436830db223bfc4e" target="_top" xlink:title="무작위로 타겟팅 가능한 방의 위치를 반환합니다. 방이 없는 경우 (모두 파괴되었거나 타겟 불가) Vector2Int.zero를 반환합니다.">
<ellipse fill="white" stroke="#666666" cx="635.21" cy="-70.61" rx="114.13" ry="17.61"/>
<text text-anchor="middle" x="635.21" y="-66.36" font-family="Consolas" font-size="10.00">Ship.GetRandomTargetPosition</text>
</a>
</g>
</g>
<!-- Node8&#45;&gt;Node13 -->
<g id="edge12_Node000008_Node000013" class="edge">
<title>Node8&#45;&gt;Node13</title>
<g id="a_edge12_Node000008_Node000013"><a xlink:title=" ">
<path fill="none" stroke="#63b8ff" d="M388.93,-152.09C419.84,-134.5 464.53,-111.07 506.23,-96.61 518.08,-92.5 530.78,-88.95 543.41,-85.92"/>
<polygon fill="#63b8ff" stroke="#63b8ff" points="544.03,-89.36 553,-83.72 542.47,-82.54 544.03,-89.36"/>
</a>
</g>
</g>
<!-- Node14 -->
<g id="Node000014" class="node">
<title>Node14</title>
<g id="a_Node000014"><a xlink:href="class_ship_weapon.html#a7000e4dcb1a15943afba4709b71c13a9" target="_top" xlink:title="무기의 타입을 반환합니다.">
<ellipse fill="white" stroke="#666666" cx="635.21" cy="-17.61" rx="99.28" ry="17.61"/>
<text text-anchor="middle" x="635.21" y="-13.36" font-family="Consolas" font-size="10.00">ShipWeapon.GetWeaponType</text>
</a>
</g>
</g>
<!-- Node8&#45;&gt;Node14 -->
<g id="edge13_Node000008_Node000014" class="edge">
<title>Node8&#45;&gt;Node14</title>
<g id="a_edge13_Node000008_Node000014"><a xlink:title=" ">
<path fill="none" stroke="#63b8ff" d="M371.41,-150.9C399.44,-120.67 451.19,-70.23 506.23,-43.61 517.44,-38.19 529.73,-33.89 542.12,-30.5"/>
<polygon fill="#63b8ff" stroke="#63b8ff" points="542.71,-33.96 551.54,-28.11 540.99,-27.17 542.71,-33.96"/>
</a>
</g>
</g>
<!-- Node10 -->
<g id="Node000010" class="node">
<title>Node10</title>
<g id="a_Node000010"><a xlink:href="class_projectile.html#aae9fbade4d955a480a8a856748621e1c" target="_top" xlink:title="투사체를 초기화합니다. 목표 위치와 충돌 콜백을 지정합니다.">
<ellipse fill="white" stroke="#666666" cx="888.33" cy="-229.61" rx="88.14" ry="17.61"/>
<text text-anchor="middle" x="888.33" y="-225.36" font-family="Consolas" font-size="10.00">Projectile.Initialize</text>
</a>
</g>
</g>
<!-- Node9&#45;&gt;Node10 -->
<g id="edge9_Node000009_Node000010" class="edge">
<title>Node9&#45;&gt;Node10</title>
<g id="a_edge9_Node000009_Node000010"><a xlink:title=" ">
<path fill="none" stroke="#63b8ff" d="M764.34,-229.61C772.39,-229.61 780.42,-229.61 788.3,-229.61"/>
<polygon fill="#63b8ff" stroke="#63b8ff" points="788.21,-233.11 798.21,-229.61 788.21,-226.11 788.21,-233.11"/>
</a>
</g>
</g>
</g>
</svg>
