<?xml version="1.0" encoding="UTF-8" standalone="no"?>
<!DOCTYPE svg PUBLIC "-//W3C//DTD SVG 1.1//EN"
 "http://www.w3.org/Graphics/SVG/1.1/DTD/svg11.dtd">
<!-- Generated by graphviz version 12.2.1 (20241206.2353)
 -->
<!-- Title: RoomDragHandler.InitializeFromRoomData Pages: 1 -->
<svg width="497pt" height="78pt"
 viewBox="0.00 0.00 497.00 78.00" xmlns="http://www.w3.org/2000/svg" xmlns:xlink="http://www.w3.org/1999/xlink">
<g id="graph0" class="graph" transform="scale(1 1) rotate(0) translate(4 74)">
<title>RoomDragHandler.InitializeFromRoomData</title>
<!-- Node1 -->
<g id="Node000001" class="node">
<title>Node1</title>
<g id="a_Node000001"><a xlink:title="호출해 온 방 정보를 이용하여 방 설치에 필요한 정보들을 초기화합니다.">
<polygon fill="#999999" stroke="#666666" points="489,-54 353,-54 353,-22 489,-22 489,-54"/>
<text text-anchor="start" x="361" y="-40.5" font-family="Helvetica,sans-Serif" font-size="10.00">RoomDragHandler.Initialize</text>
<text text-anchor="middle" x="421" y="-28.5" font-family="Helvetica,sans-Serif" font-size="10.00">FromRoomData</text>
</a>
</g>
</g>
<!-- Node2 -->
<g id="Node000002" class="node">
<title>Node2</title>
<g id="a_Node000002"><a xlink:href="class_rooms_inventory_tooltip_u_i.html#acb3438559352db6528bd535c9ea46b50" target="_top" xlink:title="인벤토리를 갱신하여 현재 보유한 방들을 UI로 표시합니다. 방 설치, 해제 완료 시 갱신 추가 필요 (구현 필요)">
<polygon fill="white" stroke="#666666" points="317,-54 187,-54 187,-22 317,-22 317,-54"/>
<text text-anchor="start" x="195" y="-40.5" font-family="Helvetica,sans-Serif" font-size="10.00">RoomsInventoryTooltipUI.</text>
<text text-anchor="middle" x="252" y="-28.5" font-family="Helvetica,sans-Serif" font-size="10.00">RefreshInventory</text>
</a>
</g>
</g>
<!-- Node1&#45;&gt;Node2 -->
<g id="edge1_Node000001_Node000002" class="edge">
<title>Node1&#45;&gt;Node2</title>
<g id="a_edge1_Node000001_Node000002"><a xlink:title=" ">
<path fill="none" stroke="#63b8ff" d="M341.04,-38C333.14,-38 325.18,-38 317.45,-38"/>
<polygon fill="#63b8ff" stroke="#63b8ff" points="341.04,-41.5 351.04,-38 341.04,-34.5 341.04,-41.5"/>
</a>
</g>
</g>
<!-- Node3 -->
<g id="Node000003" class="node">
<title>Node3</title>
<g id="a_Node000003"><a xlink:href="class_room_drag_handler.html#a2dd674585eac9f7268c01c9665612d46" target="_top" xlink:title="드래그 종료 후 작업입니다. 현재 마우스 위치에 방을 설치하고, preview (실루엣)을 삭제합니다.">
<polygon fill="white" stroke="#666666" points="151,-70 0,-70 0,-50 151,-50 151,-70"/>
<text text-anchor="middle" x="75.5" y="-56.5" font-family="Helvetica,sans-Serif" font-size="10.00">RoomDragHandler.OnEndDrag</text>
</a>
</g>
</g>
<!-- Node2&#45;&gt;Node3 -->
<g id="edge2_Node000002_Node000003" class="edge">
<title>Node2&#45;&gt;Node3</title>
<g id="a_edge2_Node000002_Node000003"><a xlink:title=" ">
<path fill="none" stroke="#63b8ff" d="M175.36,-47.54C167.39,-48.54 159.29,-49.56 151.33,-50.57"/>
<polygon fill="#63b8ff" stroke="#63b8ff" points="175.53,-51.04 185.02,-46.32 174.66,-44.1 175.53,-51.04"/>
</a>
</g>
</g>
<!-- Node4 -->
<g id="Node000004" class="node">
<title>Node4</title>
<g id="a_Node000004"><a xlink:href="class_placed_room_interaction.html#a4d6642091ccd01f421aaf35168105417" target="_top" xlink:title="방 삭제, 수리 툴팁 생성">
<polygon fill="white" stroke="#666666" points="142.38,-32 8.62,-32 8.62,0 142.38,0 142.38,-32"/>
<text text-anchor="start" x="16.62" y="-18.5" font-family="Helvetica,sans-Serif" font-size="10.00">PlacedRoomInteraction.On</text>
<text text-anchor="middle" x="75.5" y="-6.5" font-family="Helvetica,sans-Serif" font-size="10.00">PointerClick</text>
</a>
</g>
</g>
<!-- Node2&#45;&gt;Node4 -->
<g id="edge3_Node000002_Node000004" class="edge">
<title>Node2&#45;&gt;Node4</title>
<g id="a_edge3_Node000002_Node000004"><a xlink:title=" ">
<path fill="none" stroke="#63b8ff" d="M175.33,-28.46C164.49,-27.09 153.4,-25.7 142.76,-24.35"/>
<polygon fill="#63b8ff" stroke="#63b8ff" points="174.66,-31.9 185.02,-29.68 175.53,-24.96 174.66,-31.9"/>
</a>
</g>
</g>
</g>
</svg>
