<?xml version="1.0" encoding="UTF-8" standalone="no"?>
<!DOCTYPE svg PUBLIC "-//W3C//DTD SVG 1.1//EN"
 "http://www.w3.org/Graphics/SVG/1.1/DTD/svg11.dtd">
<!-- Generated by graphviz version 12.2.1 (20241206.2353)
 -->
<!-- Title: CrewInfoLoader Pages: 1 -->
<svg width="229pt" height="512pt"
 viewBox="0.00 0.00 228.50 512.00" xmlns="http://www.w3.org/2000/svg" xmlns:xlink="http://www.w3.org/1999/xlink">
<g id="graph0" class="graph" transform="scale(1 1) rotate(0) translate(4 508)">
<title>CrewInfoLoader</title>
<!-- Node1 -->
<g id="Node000001" class="node">
<title>Node1</title>
<g id="a_Node000001"><a xlink:title=" ">
<polygon fill="#999999" stroke="none" points="92.25,-52 15.25,-52 15.25,0 92.25,0 92.25,-52"/>
<text text-anchor="start" x="19.25" y="-38.5" font-family="Helvetica,sans-Serif" font-size="10.00">CrewInfoLoader</text>
<text text-anchor="start" x="52.25" y="-22.5" font-family="Helvetica,sans-Serif" font-size="10.00"> </text>
<text text-anchor="start" x="52.25" y="-6.5" font-family="Helvetica,sans-Serif" font-size="10.00"> </text>
<polygon fill="#666666" stroke="#666666" points="15.25,-34 15.25,-34 92.25,-34 92.25,-34 15.25,-34"/>
<polygon fill="#666666" stroke="#666666" points="15.25,-18 15.25,-18 92.25,-18 92.25,-18 15.25,-18"/>
<polygon fill="none" stroke="#666666" points="15.25,0 15.25,-52 92.25,-52 92.25,0 15.25,0"/>
</a>
</g>
</g>
<!-- Node2 -->
<g id="Node000002" class="node">
<title>Node2</title>
<g id="a_Node000002"><a xlink:title=" ">
<polygon fill="white" stroke="none" points="75.5,-152 0,-152 0,-100 75.5,-100 75.5,-152"/>
<text text-anchor="start" x="4" y="-138.5" font-family="Helvetica,sans-Serif" font-size="10.00">MonoBehaviour</text>
<text text-anchor="start" x="36.25" y="-122.5" font-family="Helvetica,sans-Serif" font-size="10.00"> </text>
<text text-anchor="start" x="36.25" y="-106.5" font-family="Helvetica,sans-Serif" font-size="10.00"> </text>
<polygon fill="#bfbfbf" stroke="#bfbfbf" points="0,-134 0,-134 75.5,-134 75.5,-134 0,-134"/>
<polygon fill="#bfbfbf" stroke="#bfbfbf" points="0,-118 0,-118 75.5,-118 75.5,-118 0,-118"/>
<polygon fill="none" stroke="#bfbfbf" points="0,-100 0,-152 75.5,-152 75.5,-100 0,-100"/>
</a>
</g>
</g>
<!-- Node2&#45;&gt;Node1 -->
<g id="edge1_Node000001_Node000002" class="edge">
<title>Node2&#45;&gt;Node1</title>
<g id="a_edge1_Node000001_Node000002"><a xlink:title=" ">
<path fill="none" stroke="#63b8ff" d="M43.67,-88.74C45.67,-76.49 47.86,-63.1 49.68,-51.94"/>
<polygon fill="none" stroke="#63b8ff" points="40.23,-88.09 42.07,-98.52 47.14,-89.22 40.23,-88.09"/>
</a>
</g>
</g>
<!-- Node3 -->
<g id="Node000003" class="node">
<title>Node3</title>
<g id="a_Node000003"><a xlink:href="class_crew_info_wrapper.html" target="_top" xlink:title=" ">
<polygon fill="white" stroke="none" points="177.62,-152 93.88,-152 93.88,-100 177.62,-100 177.62,-152"/>
<text text-anchor="start" x="97.88" y="-138.5" font-family="Helvetica,sans-Serif" font-size="10.00">CrewInfoWrapper</text>
<text text-anchor="start" x="134.25" y="-122.5" font-family="Helvetica,sans-Serif" font-size="10.00"> </text>
<text text-anchor="start" x="134.25" y="-106.5" font-family="Helvetica,sans-Serif" font-size="10.00"> </text>
<polygon fill="#bfbfbf" stroke="#bfbfbf" points="93.88,-134 93.88,-134 177.62,-134 177.62,-134 93.88,-134"/>
<polygon fill="#bfbfbf" stroke="#bfbfbf" points="93.88,-118 93.88,-118 177.62,-118 177.62,-118 93.88,-118"/>
<polygon fill="none" stroke="#bfbfbf" points="93.88,-100 93.88,-152 177.62,-152 177.62,-100 93.88,-100"/>
</a>
</g>
</g>
<!-- Node3&#45;&gt;Node1 -->
<g id="edge2_Node000001_Node000003" class="edge">
<title>Node3&#45;&gt;Node1</title>
<g id="a_edge2_Node000001_Node000003"><a xlink:title=" ">
<path fill="none" stroke="#63b8ff" d="M114.85,-100.02C105.11,-88.38 93.37,-74.35 82.79,-61.71"/>
<polygon fill="none" stroke="#63b8ff" points="82.9,-61.83 75.98,-59.8 75.19,-52.63 82.11,-54.66 82.9,-61.83"/>
</a>
</g>
<text text-anchor="middle" x="122.91" y="-72.5" font-family="Helvetica,sans-Serif" font-size="10.00" fill="grey"> +crewInfo</text>
</g>
<!-- Node4 -->
<g id="Node000004" class="node">
<title>Node4</title>
<g id="a_Node000004"><a xlink:href="class_crew_data.html" target="_top" xlink:title=" ">
<polygon fill="white" stroke="none" points="199.88,-504 71.62,-504 71.62,-260 199.88,-260 199.88,-504"/>
<text text-anchor="start" x="113.62" y="-490.5" font-family="Helvetica,sans-Serif" font-size="10.00">CrewData</text>
<text text-anchor="start" x="75.62" y="-474.5" font-family="Helvetica,sans-Serif" font-size="10.00">+</text>
<text text-anchor="start" x="85.62" y="-474.5" font-family="Helvetica,sans-Serif" font-size="10.00">공격력</text>
<text text-anchor="start" x="75.62" y="-458.5" font-family="Helvetica,sans-Serif" font-size="10.00">+</text>
<text text-anchor="start" x="85.62" y="-458.5" font-family="Helvetica,sans-Serif" font-size="10.00">방어력</text>
<text text-anchor="start" x="75.62" y="-442.5" font-family="Helvetica,sans-Serif" font-size="10.00">+</text>
<text text-anchor="start" x="85.62" y="-442.5" font-family="Helvetica,sans-Serif" font-size="10.00">체력</text>
<text text-anchor="start" x="75.62" y="-426.5" font-family="Helvetica,sans-Serif" font-size="10.00">+</text>
<text text-anchor="start" x="85.62" y="-426.5" font-family="Helvetica,sans-Serif" font-size="10.00">학습속도</text>
<text text-anchor="start" x="75.62" y="-410.5" font-family="Helvetica,sans-Serif" font-size="10.00">+</text>
<text text-anchor="start" x="85.62" y="-410.5" font-family="Helvetica,sans-Serif" font-size="10.00">산소호흡</text>
<text text-anchor="start" x="75.62" y="-394.5" font-family="Helvetica,sans-Serif" font-size="10.00">+</text>
<text text-anchor="start" x="85.62" y="-394.5" font-family="Helvetica,sans-Serif" font-size="10.00">조종실숙련도</text>
<text text-anchor="start" x="75.62" y="-378.5" font-family="Helvetica,sans-Serif" font-size="10.00">+</text>
<text text-anchor="start" x="85.62" y="-378.5" font-family="Helvetica,sans-Serif" font-size="10.00">엔진실숙련도</text>
<text text-anchor="start" x="75.62" y="-362.5" font-family="Helvetica,sans-Serif" font-size="10.00">+</text>
<text text-anchor="start" x="85.62" y="-362.5" font-family="Helvetica,sans-Serif" font-size="10.00">전력실숙련도</text>
<text text-anchor="start" x="75.62" y="-346.5" font-family="Helvetica,sans-Serif" font-size="10.00">+</text>
<text text-anchor="start" x="85.62" y="-346.5" font-family="Helvetica,sans-Serif" font-size="10.00">배리어실숙련도</text>
<text text-anchor="start" x="75.62" y="-330.5" font-family="Helvetica,sans-Serif" font-size="10.00">+</text>
<text text-anchor="start" x="85.62" y="-330.5" font-family="Helvetica,sans-Serif" font-size="10.00">조준석숙련도</text>
<text text-anchor="start" x="75.62" y="-314.5" font-family="Helvetica,sans-Serif" font-size="10.00">+</text>
<text text-anchor="start" x="85.62" y="-314.5" font-family="Helvetica,sans-Serif" font-size="10.00">탄약고숙련도</text>
<text text-anchor="start" x="75.62" y="-298.5" font-family="Helvetica,sans-Serif" font-size="10.00">+</text>
<text text-anchor="start" x="85.62" y="-298.5" font-family="Helvetica,sans-Serif" font-size="10.00">의무실숙련도</text>
<text text-anchor="start" x="75.62" y="-282.5" font-family="Helvetica,sans-Serif" font-size="10.00">+</text>
<text text-anchor="start" x="85.62" y="-282.5" font-family="Helvetica,sans-Serif" font-size="10.00">수리숙련도</text>
<text text-anchor="start" x="134.25" y="-266.5" font-family="Helvetica,sans-Serif" font-size="10.00"> </text>
<polygon fill="#bfbfbf" stroke="#bfbfbf" points="71.62,-486 71.62,-486 199.88,-486 199.88,-486 71.62,-486"/>
<polygon fill="#bfbfbf" stroke="#bfbfbf" points="71.62,-278 71.62,-278 83.62,-278 83.62,-278 71.62,-278"/>
<polygon fill="#bfbfbf" stroke="#bfbfbf" points="83.62,-278 83.62,-278 199.88,-278 199.88,-278 83.62,-278"/>
<polygon fill="none" stroke="#bfbfbf" points="71.62,-260 71.62,-504 199.88,-504 199.88,-260 71.62,-260"/>
</a>
</g>
</g>
<!-- Node4&#45;&gt;Node3 -->
<g id="edge3_Node000003_Node000004" class="edge">
<title>Node4&#45;&gt;Node3</title>
<g id="a_edge3_Node000003_Node000004"><a xlink:title=" ">
<path fill="none" stroke="#63b8ff" d="M135.75,-260.32C135.75,-225.6 135.75,-190.25 135.75,-164.68"/>
<polygon fill="none" stroke="#63b8ff" points="135.75,-164.81 131.75,-158.81 135.75,-152.81 139.75,-158.81 135.75,-164.81"/>
</a>
</g>
<text text-anchor="middle" x="178.12" y="-232.5" font-family="Helvetica,sans-Serif" font-size="10.00" fill="grey"> +곤충형</text>
<text text-anchor="middle" x="178.12" y="-220.5" font-family="Helvetica,sans-Serif" font-size="10.00" fill="grey">+돌격기계형</text>
<text text-anchor="middle" x="178.12" y="-208.5" font-family="Helvetica,sans-Serif" font-size="10.00" fill="grey">+부정형</text>
<text text-anchor="middle" x="178.12" y="-196.5" font-family="Helvetica,sans-Serif" font-size="10.00" fill="grey">+인간형</text>
<text text-anchor="middle" x="178.12" y="-184.5" font-family="Helvetica,sans-Serif" font-size="10.00" fill="grey">+지원기계형</text>
<text text-anchor="middle" x="178.12" y="-172.5" font-family="Helvetica,sans-Serif" font-size="10.00" fill="grey">+짐승형</text>
</g>
</g>
</svg>
