<?xml version="1.0" encoding="UTF-8" standalone="no"?>
<!DOCTYPE svg PUBLIC "-//W3C//DTD SVG 1.1//EN"
 "http://www.w3.org/Graphics/SVG/1.1/DTD/svg11.dtd">
<!-- Generated by graphviz version 12.2.1 (20241206.2353)
 -->
<!-- Title: RoomDragHandler Pages: 1 -->
<svg width="376pt" height="308pt"
 viewBox="0.00 0.00 376.25 308.00" xmlns="http://www.w3.org/2000/svg" xmlns:xlink="http://www.w3.org/1999/xlink">

<svg id="main" version="1.1" xmlns="http://www.w3.org/2000/svg" xmlns:xlink="http://www.w3.org/1999/xlink" xml:space="preserve">

<style type="text/css"><![CDATA[
.node, .edge {opacity: 0.7;}
.node.selected, .edge.selected {opacity: 1;}
.edge:hover path { stroke: red; }
.edge:hover polygon { stroke: red; fill: red; }
]]></style>
<script type="application/ecmascript" xlink:href="svg.min.js"/>
<svg id="graph" class="graph">
<g id="graph0" class="graph" transform="scale(1 1) rotate(0) translate(4 304)">
<title>RoomDragHandler</title>
<!-- Node1 -->
<g id="Node000001" class="node">
<title>Node1</title>
<g id="a_Node000001"><a xlink:title="방 설치, 회전, 삭제, 이동까지 담당하는 드래그 핸들러">
<polygon fill="#999999" stroke="none" points="251.62,-212 121.88,-212 121.88,0 251.62,0 251.62,-212"/>
<text text-anchor="start" x="146.25" y="-198.5" font-family="Helvetica,sans-Serif" font-size="10.00">RoomDragHandler</text>
<text text-anchor="start" x="125.88" y="-182.5" font-family="Helvetica,sans-Serif" font-size="10.00">+</text>
<text text-anchor="start" x="135.88" y="-182.5" font-family="Helvetica,sans-Serif" font-size="10.00">roomData</text>
<text text-anchor="start" x="125.88" y="-166.5" font-family="Helvetica,sans-Serif" font-size="10.00">+</text>
<text text-anchor="start" x="135.88" y="-166.5" font-family="Helvetica,sans-Serif" font-size="10.00">roomPrefab</text>
<text text-anchor="start" x="125.88" y="-150.5" font-family="Helvetica,sans-Serif" font-size="10.00">+</text>
<text text-anchor="start" x="135.88" y="-150.5" font-family="Helvetica,sans-Serif" font-size="10.00">previewPrefab</text>
<text text-anchor="start" x="125.88" y="-134.5" font-family="Helvetica,sans-Serif" font-size="10.00">+</text>
<text text-anchor="start" x="135.88" y="-134.5" font-family="Helvetica,sans-Serif" font-size="10.00">roomSize</text>
<text text-anchor="start" x="125.88" y="-118.5" font-family="Helvetica,sans-Serif" font-size="10.00">+</text>
<text text-anchor="start" x="135.88" y="-118.5" font-family="Helvetica,sans-Serif" font-size="10.00">rotation</text>
<text text-anchor="start" x="125.88" y="-102.5" font-family="Helvetica,sans-Serif" font-size="10.00">+</text>
<text text-anchor="start" x="135.88" y="-102.5" font-family="Helvetica,sans-Serif" font-size="10.00">roomLevel</text>
<text text-anchor="start" x="125.88" y="-86.5" font-family="Helvetica,sans-Serif" font-size="10.00">+</text>
<text text-anchor="start" x="135.88" y="-86.5" font-family="Helvetica,sans-Serif" font-size="10.00">previewSR</text>
<text text-anchor="start" x="125.88" y="-70.5" font-family="Helvetica,sans-Serif" font-size="10.00">+</text>
<text text-anchor="start" x="135.88" y="-70.5" font-family="Helvetica,sans-Serif" font-size="10.00">Instance</text>
<text text-anchor="start" x="125.88" y="-54.5" font-family="Helvetica,sans-Serif" font-size="10.00">+</text>
<text text-anchor="start" x="135.88" y="-54.5" font-family="Helvetica,sans-Serif" font-size="10.00">InitializeFromRoomData()</text>
<text text-anchor="start" x="125.88" y="-38.5" font-family="Helvetica,sans-Serif" font-size="10.00">+</text>
<text text-anchor="start" x="135.88" y="-38.5" font-family="Helvetica,sans-Serif" font-size="10.00">OnBeginDrag()</text>
<text text-anchor="start" x="125.88" y="-22.5" font-family="Helvetica,sans-Serif" font-size="10.00">+</text>
<text text-anchor="start" x="135.88" y="-22.5" font-family="Helvetica,sans-Serif" font-size="10.00">OnDrag()</text>
<text text-anchor="start" x="125.88" y="-6.5" font-family="Helvetica,sans-Serif" font-size="10.00">+</text>
<text text-anchor="start" x="135.88" y="-6.5" font-family="Helvetica,sans-Serif" font-size="10.00">OnEndDrag()</text>
<polygon fill="#666666" stroke="#666666" points="121.88,-194 121.88,-194 251.62,-194 251.62,-194 121.88,-194"/>
<polygon fill="#666666" stroke="#666666" points="121.88,-66 121.88,-66 133.88,-66 133.88,-66 121.88,-66"/>
<polygon fill="#666666" stroke="#666666" points="133.88,-66 133.88,-66 251.62,-66 251.62,-66 133.88,-66"/>
<polygon fill="none" stroke="#666666" points="121.88,0 121.88,-212 251.62,-212 251.62,0 121.88,0"/>
</a>
</g>
</g>
<!-- Node2 -->
<g id="Node000002" class="node">
<title>Node2</title>
<g id="a_Node000002"><a xlink:title=" ">
<polygon fill="white" stroke="none" points="75.5,-300 0,-300 0,-248 75.5,-248 75.5,-300"/>
<text text-anchor="start" x="4" y="-286.5" font-family="Helvetica,sans-Serif" font-size="10.00">MonoBehaviour</text>
<text text-anchor="start" x="36.25" y="-270.5" font-family="Helvetica,sans-Serif" font-size="10.00"> </text>
<text text-anchor="start" x="36.25" y="-254.5" font-family="Helvetica,sans-Serif" font-size="10.00"> </text>
<polygon fill="#bfbfbf" stroke="#bfbfbf" points="0,-282 0,-282 75.5,-282 75.5,-282 0,-282"/>
<polygon fill="#bfbfbf" stroke="#bfbfbf" points="0,-266 0,-266 75.5,-266 75.5,-266 0,-266"/>
<polygon fill="none" stroke="#bfbfbf" points="0,-248 0,-300 75.5,-300 75.5,-248 0,-248"/>
</a>
</g>
</g>
<!-- Node2&#45;&gt;Node1 -->
<g id="edge1_Node000001_Node000002" class="edge">
<title>Node2&#45;&gt;Node1</title>
<g id="a_edge1_Node000001_Node000002"><a xlink:title=" ">
<path fill="none" stroke="#63b8ff" d="M67.39,-239.97C83.07,-222.5 102.98,-200.33 122.02,-179.12"/>
<polygon fill="none" stroke="#63b8ff" points="65.14,-237.24 61.07,-247.02 70.35,-241.92 65.14,-237.24"/>
</a>
</g>
</g>
<!-- Node3 -->
<g id="Node000003" class="node">
<title>Node3</title>
<g id="a_Node000003"><a xlink:title=" ">
<polygon fill="white" stroke="none" points="184,-300 93.5,-300 93.5,-248 184,-248 184,-300"/>
<text text-anchor="start" x="97.5" y="-286.5" font-family="Helvetica,sans-Serif" font-size="10.00">IBeginDragHandler</text>
<text text-anchor="start" x="137.25" y="-270.5" font-family="Helvetica,sans-Serif" font-size="10.00"> </text>
<text text-anchor="start" x="137.25" y="-254.5" font-family="Helvetica,sans-Serif" font-size="10.00"> </text>
<polygon fill="#bfbfbf" stroke="#bfbfbf" points="93.5,-282 93.5,-282 184,-282 184,-282 93.5,-282"/>
<polygon fill="#bfbfbf" stroke="#bfbfbf" points="93.5,-266 93.5,-266 184,-266 184,-266 93.5,-266"/>
<polygon fill="none" stroke="#bfbfbf" points="93.5,-248 93.5,-300 184,-300 184,-248 93.5,-248"/>
</a>
</g>
</g>
<!-- Node3&#45;&gt;Node1 -->
<g id="edge2_Node000001_Node000003" class="edge">
<title>Node3&#45;&gt;Node1</title>
<g id="a_edge2_Node000001_Node000003"><a xlink:title=" ">
<path fill="none" stroke="#63b8ff" d="M149.13,-237.11C151.36,-229.38 153.83,-220.84 156.41,-211.94"/>
<polygon fill="none" stroke="#63b8ff" points="145.77,-236.12 146.36,-246.69 152.5,-238.06 145.77,-236.12"/>
</a>
</g>
</g>
<!-- Node4 -->
<g id="Node000004" class="node">
<title>Node4</title>
<g id="a_Node000004"><a xlink:title=" ">
<polygon fill="white" stroke="none" points="267.62,-300 201.88,-300 201.88,-248 267.62,-248 267.62,-300"/>
<text text-anchor="start" x="205.88" y="-286.5" font-family="Helvetica,sans-Serif" font-size="10.00">IDragHandler</text>
<text text-anchor="start" x="233.25" y="-270.5" font-family="Helvetica,sans-Serif" font-size="10.00"> </text>
<text text-anchor="start" x="233.25" y="-254.5" font-family="Helvetica,sans-Serif" font-size="10.00"> </text>
<polygon fill="#bfbfbf" stroke="#bfbfbf" points="201.88,-282 201.88,-282 267.62,-282 267.62,-282 201.88,-282"/>
<polygon fill="#bfbfbf" stroke="#bfbfbf" points="201.88,-266 201.88,-266 267.62,-266 267.62,-266 201.88,-266"/>
<polygon fill="none" stroke="#bfbfbf" points="201.88,-248 201.88,-300 267.62,-300 267.62,-248 201.88,-248"/>
</a>
</g>
</g>
<!-- Node4&#45;&gt;Node1 -->
<g id="edge3_Node000001_Node000004" class="edge">
<title>Node4&#45;&gt;Node1</title>
<g id="a_edge3_Node000001_Node000004"><a xlink:title=" ">
<path fill="none" stroke="#63b8ff" d="M224.37,-237.11C222.14,-229.38 219.67,-220.84 217.09,-211.94"/>
<polygon fill="none" stroke="#63b8ff" points="221,-238.06 227.14,-246.69 227.73,-236.12 221,-238.06"/>
</a>
</g>
</g>
<!-- Node5 -->
<g id="Node000005" class="node">
<title>Node5</title>
<g id="a_Node000005"><a xlink:title=" ">
<polygon fill="white" stroke="none" points="368.25,-300 285.25,-300 285.25,-248 368.25,-248 368.25,-300"/>
<text text-anchor="start" x="289.25" y="-286.5" font-family="Helvetica,sans-Serif" font-size="10.00">IEndDragHandler</text>
<text text-anchor="start" x="325.25" y="-270.5" font-family="Helvetica,sans-Serif" font-size="10.00"> </text>
<text text-anchor="start" x="325.25" y="-254.5" font-family="Helvetica,sans-Serif" font-size="10.00"> </text>
<polygon fill="#bfbfbf" stroke="#bfbfbf" points="285.25,-282 285.25,-282 368.25,-282 368.25,-282 285.25,-282"/>
<polygon fill="#bfbfbf" stroke="#bfbfbf" points="285.25,-266 285.25,-266 368.25,-266 368.25,-266 285.25,-266"/>
<polygon fill="none" stroke="#bfbfbf" points="285.25,-248 285.25,-300 368.25,-300 368.25,-248 285.25,-248"/>
</a>
</g>
</g>
<!-- Node5&#45;&gt;Node1 -->
<g id="edge4_Node000001_Node000005" class="edge">
<title>Node5&#45;&gt;Node1</title>
<g id="a_edge4_Node000001_Node000005"><a xlink:title=" ">
<path fill="none" stroke="#63b8ff" d="M298.61,-239.63C285.02,-223.52 268.11,-203.47 251.58,-183.87"/>
<polygon fill="none" stroke="#63b8ff" points="295.69,-241.6 304.81,-246.99 301.04,-237.09 295.69,-241.6"/>
</a>
</g>
</g>
</g>
</svg>
</svg>

<style type='text/css'>
<![CDATA[
[data-mouse-over-selected='false'] { opacity: 0.7; }
[data-mouse-over-selected='true']  { opacity: 1.0; }
]]>
</style>
<script type="application/ecmascript"><![CDATA[
document.addEventListener('DOMContentLoaded', (event) => {
  highlightEdges();
  highlightAdjacentNodes();
});
]]></script>
</svg>
