<?xml version="1.0" encoding="UTF-8" standalone="no"?>
<!DOCTYPE svg PUBLIC "-//W3C//DTD SVG 1.1//EN"
 "http://www.w3.org/Graphics/SVG/1.1/DTD/svg11.dtd">
<!-- Generated by graphviz version 12.2.1 (20241206.2353)
 -->
<!-- Title: RoomDragHandler.OnEndDrag Pages: 1 -->
<svg width="481pt" height="28pt"
 viewBox="0.00 0.00 480.50 28.00" xmlns="http://www.w3.org/2000/svg" xmlns:xlink="http://www.w3.org/1999/xlink">
<g id="graph0" class="graph" transform="scale(1 1) rotate(0) translate(4 24)">
<title>RoomDragHandler.OnEndDrag</title>
<!-- Node1 -->
<g id="Node000001" class="node">
<title>Node1</title>
<g id="a_Node000001"><a xlink:title="드래그 종료 후 작업입니다. 현재 마우스 위치에 방을 설치하고, preview (실루엣)을 삭제합니다.">
<polygon fill="#999999" stroke="#666666" points="151,-20 0,-20 0,0 151,0 151,-20"/>
<text text-anchor="middle" x="75.5" y="-6.5" font-family="Helvetica,sans-Serif" font-size="10.00">RoomDragHandler.OnEndDrag</text>
</a>
</g>
</g>
<!-- Node2 -->
<g id="Node000002" class="node">
<title>Node2</title>
<g id="a_Node000002"><a xlink:href="class_grid_placer.html#accae6dd63410e18f1ebb323755ae8cdf" target="_top" xlink:title="실제로 호버한 위치에 해당 영역에 방을 설치합니다. 방을 설치하고자 하는 위치에 설치 가능 여부를 검사해, 설치를 진행합니다.">
<polygon fill="white" stroke="#666666" points="302.75,-20 187,-20 187,0 302.75,0 302.75,-20"/>
<text text-anchor="middle" x="244.88" y="-6.5" font-family="Helvetica,sans-Serif" font-size="10.00">GridPlacer.PlaceRoom</text>
</a>
</g>
</g>
<!-- Node1&#45;&gt;Node2 -->
<g id="edge1_Node000001_Node000002" class="edge">
<title>Node1&#45;&gt;Node2</title>
<g id="a_edge1_Node000001_Node000002"><a xlink:title=" ">
<path fill="none" stroke="#63b8ff" d="M151.38,-10C159.33,-10 167.39,-10 175.27,-10"/>
<polygon fill="#63b8ff" stroke="#63b8ff" points="175.13,-13.5 185.13,-10 175.13,-6.5 175.13,-13.5"/>
</a>
</g>
</g>
<!-- Node3 -->
<g id="Node000003" class="node">
<title>Node3</title>
<g id="a_Node000003"><a xlink:href="class_grid_placer.html#a94a705ed808a4defa523f89672b82906" target="_top" xlink:title="방 설치 전, 드래그 중인 방에 대해 해당 위치에 설치 가능한지 여부를 판단합니다. (preview 형식 &#45; 실루엣) 해당 영역에 방 설치가 가능하다면 true 반환 (색상 : 초록...">
<polygon fill="white" stroke="#666666" points="472.5,-20 338.75,-20 338.75,0 472.5,0 472.5,-20"/>
<text text-anchor="middle" x="405.62" y="-6.5" font-family="Helvetica,sans-Serif" font-size="10.00">GridPlacer.CanPlaceRoom</text>
</a>
</g>
</g>
<!-- Node2&#45;&gt;Node3 -->
<g id="edge2_Node000002_Node000003" class="edge">
<title>Node2&#45;&gt;Node3</title>
<g id="a_edge2_Node000002_Node000003"><a xlink:title=" ">
<path fill="none" stroke="#63b8ff" d="M303.19,-10C310.97,-10 319.07,-10 327.14,-10"/>
<polygon fill="#63b8ff" stroke="#63b8ff" points="326.98,-13.5 336.98,-10 326.98,-6.5 326.98,-13.5"/>
</a>
</g>
</g>
</g>
</svg>
