<?xml version="1.0" encoding="UTF-8" standalone="no"?>
<!DOCTYPE svg PUBLIC "-//W3C//DTD SVG 1.1//EN"
 "http://www.w3.org/Graphics/SVG/1.1/DTD/svg11.dtd">
<!-- Generated by graphviz version 12.2.1 (20241206.2353)
 -->
<!-- Title: CustomizeShipUIHandler Pages: 1 -->
<svg width="151pt" height="330pt"
 viewBox="0.00 0.00 151.25 330.00" xmlns="http://www.w3.org/2000/svg" xmlns:xlink="http://www.w3.org/1999/xlink">
<g id="graph0" class="graph" transform="scale(1 1) rotate(0) translate(4 326)">
<title>CustomizeShipUIHandler</title>
<!-- Node1 -->
<g id="Node000001" class="node">
<title>Node1</title>
<g id="a_Node000001"><a xlink:title=" ">
<polygon fill="#999999" stroke="none" points="143.25,-238.5 0,-238.5 0,0 143.25,0 143.25,-238.5"/>
<text text-anchor="start" x="13.88" y="-225" font-family="Consolas" font-size="10.00">CustomizeShipUIHandler</text>
<text text-anchor="start" x="4" y="-210.5" font-family="Consolas" font-size="10.00">+</text>
<text text-anchor="start" x="13.25" y="-210.5" font-family="Consolas" font-size="10.00">GameObject mainUI</text>
<text text-anchor="start" x="4" y="-196" font-family="Consolas" font-size="10.00">+</text>
<text text-anchor="start" x="13.25" y="-196" font-family="Consolas" font-size="10.00">GameObject customizeUI</text>
<text text-anchor="start" x="4" y="-181.5" font-family="Consolas" font-size="10.00">+</text>
<text text-anchor="start" x="13.25" y="-181.5" font-family="Consolas" font-size="10.00">RoomsInventoryTooltipUI</text>
<text text-anchor="start" x="13.25" y="-171" font-family="Consolas" font-size="10.00"> inventoryTooltipUI</text>
<text text-anchor="start" x="4" y="-156.5" font-family="Consolas" font-size="10.00">+</text>
<text text-anchor="start" x="13.25" y="-156.5" font-family="Consolas" font-size="10.00">GameObject gridTiles</text>
<text text-anchor="start" x="4" y="-142" font-family="Consolas" font-size="10.00">+</text>
<text text-anchor="start" x="13.25" y="-142" font-family="Consolas" font-size="10.00">GameObject placedRooms</text>
<text text-anchor="start" x="4" y="-127.5" font-family="Consolas" font-size="10.00">+</text>
<text text-anchor="start" x="13.25" y="-127.5" font-family="Consolas" font-size="10.00">Button saveButton</text>
<text text-anchor="start" x="4" y="-113" font-family="Consolas" font-size="10.00">+</text>
<text text-anchor="start" x="13.25" y="-113" font-family="Consolas" font-size="10.00">Button cancelButton</text>
<text text-anchor="start" x="4" y="-98.5" font-family="Consolas" font-size="10.00">+</text>
<text text-anchor="start" x="13.25" y="-98.5" font-family="Consolas" font-size="10.00">Text feedbackText</text>
<text text-anchor="start" x="4" y="-84" font-family="Consolas" font-size="10.00">+</text>
<text text-anchor="start" x="13.25" y="-84" font-family="Consolas" font-size="10.00">Ship playerShip</text>
<text text-anchor="start" x="4" y="-69.5" font-family="Consolas" font-size="10.00">+</text>
<text text-anchor="start" x="13.25" y="-69.5" font-family="Consolas" font-size="10.00">ShipCustomizationManager</text>
<text text-anchor="start" x="13.25" y="-59" font-family="Consolas" font-size="10.00"> customizationManager</text>
<text text-anchor="start" x="4" y="-44.5" font-family="Consolas" font-size="10.00">+</text>
<text text-anchor="start" x="13.25" y="-44.5" font-family="Consolas" font-size="10.00">ShipLayoutValidator</text>
<text text-anchor="start" x="13.25" y="-34" font-family="Consolas" font-size="10.00"> layoutValidator</text>
<text text-anchor="start" x="4" y="-19.5" font-family="Consolas" font-size="10.00">+</text>
<text text-anchor="start" x="13.25" y="-19.5" font-family="Consolas" font-size="10.00">void OnSaveClicked()</text>
<text text-anchor="start" x="4" y="-5" font-family="Consolas" font-size="10.00">+</text>
<text text-anchor="start" x="13.25" y="-5" font-family="Consolas" font-size="10.00">void OnCancelClicked()</text>
<polygon fill="#666666" stroke="#666666" points="0,-222 0,-222 143.25,-222 143.25,-222 0,-222"/>
<polygon fill="#666666" stroke="#666666" points="0,-31 0,-31 11.25,-31 11.25,-31 0,-31"/>
<polygon fill="#666666" stroke="#666666" points="11.25,-31 11.25,-31 143.25,-31 143.25,-31 11.25,-31"/>
<polygon fill="none" stroke="#666666" points="0,0 0,-238.5 143.25,-238.5 143.25,0 0,0"/>
</a>
</g>
</g>
<!-- Node2 -->
<g id="Node000002" class="node">
<title>Node2</title>
<g id="a_Node000002"><a xlink:title=" ">
<polygon fill="white" stroke="none" points="109.75,-322 33.5,-322 33.5,-274.5 109.75,-274.5 109.75,-322"/>
<text text-anchor="start" x="37.5" y="-308.5" font-family="Consolas" font-size="10.00">MonoBehaviour</text>
<text text-anchor="start" x="69" y="-294" font-family="Consolas" font-size="10.00"> </text>
<text text-anchor="start" x="69" y="-279.5" font-family="Consolas" font-size="10.00"> </text>
<polygon fill="#bfbfbf" stroke="#bfbfbf" points="33.5,-305.5 33.5,-305.5 109.75,-305.5 109.75,-305.5 33.5,-305.5"/>
<polygon fill="#bfbfbf" stroke="#bfbfbf" points="33.5,-291 33.5,-291 109.75,-291 109.75,-291 33.5,-291"/>
<polygon fill="none" stroke="#bfbfbf" points="33.5,-274.5 33.5,-322 109.75,-322 109.75,-274.5 33.5,-274.5"/>
</a>
</g>
</g>
<!-- Node2&#45;&gt;Node1 -->
<g id="edge1_Node000001_Node000002" class="edge">
<title>Node2&#45;&gt;Node1</title>
<g id="a_edge1_Node000001_Node000002"><a xlink:title=" ">
<path fill="none" stroke="#63b8ff" d="M71.62,-263.33C71.62,-255.73 71.62,-247.26 71.62,-238.33"/>
<polygon fill="none" stroke="#63b8ff" points="68.13,-263.32 71.63,-273.32 75.13,-263.32 68.13,-263.32"/>
</a>
</g>
</g>
</g>
</svg>
