<?xml version="1.0" encoding="UTF-8" standalone="no"?>
<!DOCTYPE svg PUBLIC "-//W3C//DTD SVG 1.1//EN"
 "http://www.w3.org/Graphics/SVG/1.1/DTD/svg11.dtd">
<!-- Generated by graphviz version 12.2.1 (20241206.2353)
 -->
<!-- Title: ShipSystem Pages: 1 -->
<svg width="132pt" height="473pt"
 viewBox="0.00 0.00 131.75 473.00" xmlns="http://www.w3.org/2000/svg" xmlns:xlink="http://www.w3.org/1999/xlink">
<g id="graph0" class="graph" transform="scale(1 1) rotate(0) translate(4 469)">
<title>ShipSystem</title>
<!-- Node1 -->
<g id="Node000001" class="node">
<title>Node1</title>
<g id="a_Node000001"><a xlink:title="모든 함선 시스템의 추상 기반 클래스. 각 시스템은 함선 객체를 기반으로 동작하며, 공통적인 초기화 및 스탯 조회 기능을 제공합니다.">
<polygon fill="#999999" stroke="none" points="100.5,-84 23.25,-84 23.25,0 100.5,0 100.5,-84"/>
<text text-anchor="start" x="35.25" y="-70.5" font-family="Helvetica,sans-Serif" font-size="10.00">ShipSystem</text>
<text text-anchor="start" x="60.38" y="-54.5" font-family="Helvetica,sans-Serif" font-size="10.00"> </text>
<text text-anchor="start" x="27.25" y="-38.5" font-family="Helvetica,sans-Serif" font-size="10.00">+</text>
<text text-anchor="start" x="37.25" y="-38.5" font-family="Helvetica,sans-Serif" font-size="10.00">Initialize()</text>
<text text-anchor="start" x="27.25" y="-22.5" font-family="Helvetica,sans-Serif" font-size="10.00">+</text>
<text text-anchor="start" x="37.25" y="-22.5" font-family="Helvetica,sans-Serif" font-size="10.00">Update()</text>
<text text-anchor="start" x="27.62" y="-6.5" font-family="Helvetica,sans-Serif" font-size="10.00">#</text>
<text text-anchor="start" x="37.25" y="-6.5" font-family="Helvetica,sans-Serif" font-size="10.00">GetShipStat()</text>
<polygon fill="#666666" stroke="#666666" points="23.25,-66 23.25,-66 100.5,-66 100.5,-66 23.25,-66"/>
<polygon fill="#666666" stroke="#666666" points="23.25,-50 23.25,-50 100.5,-50 100.5,-50 23.25,-50"/>
<polygon fill="none" stroke="#666666" points="23.25,0 23.25,-84 100.5,-84 100.5,0 23.25,0"/>
</a>
</g>
</g>
<!-- Node2 -->
<g id="Node000002" class="node">
<title>Node2</title>
<g id="a_Node000002"><a xlink:href="class_ship.html" target="_top" xlink:title="함선의 전체 기능과 상태를 관리하는 클래스. 방 배치, 시스템 초기화, 전투 처리, 자원 계산, 스탯 갱신 등의 기능을 포함합니다.">
<polygon fill="white" stroke="none" points="123.75,-376 0,-376 0,-132 123.75,-132 123.75,-376"/>
<text text-anchor="start" x="52.12" y="-362.5" font-family="Helvetica,sans-Serif" font-size="10.00">Ship</text>
<text text-anchor="start" x="4" y="-346.5" font-family="Helvetica,sans-Serif" font-size="10.00">+</text>
<text text-anchor="start" x="14" y="-346.5" font-family="Helvetica,sans-Serif" font-size="10.00">allRooms</text>
<text text-anchor="start" x="4" y="-330.5" font-family="Helvetica,sans-Serif" font-size="10.00">+</text>
<text text-anchor="start" x="14" y="-330.5" font-family="Helvetica,sans-Serif" font-size="10.00">testRoomPrefab1</text>
<text text-anchor="start" x="4" y="-314.5" font-family="Helvetica,sans-Serif" font-size="10.00">+</text>
<text text-anchor="start" x="14" y="-314.5" font-family="Helvetica,sans-Serif" font-size="10.00">testRoomPrefab2</text>
<text text-anchor="start" x="4" y="-298.5" font-family="Helvetica,sans-Serif" font-size="10.00">+</text>
<text text-anchor="start" x="14" y="-298.5" font-family="Helvetica,sans-Serif" font-size="10.00">AddRoom()</text>
<text text-anchor="start" x="4" y="-282.5" font-family="Helvetica,sans-Serif" font-size="10.00">+</text>
<text text-anchor="start" x="14" y="-282.5" font-family="Helvetica,sans-Serif" font-size="10.00">RemoveRoom()</text>
<text text-anchor="start" x="4" y="-266.5" font-family="Helvetica,sans-Serif" font-size="10.00">+</text>
<text text-anchor="start" x="14" y="-266.5" font-family="Helvetica,sans-Serif" font-size="10.00">AddDoor()</text>
<text text-anchor="start" x="4" y="-250.5" font-family="Helvetica,sans-Serif" font-size="10.00">+</text>
<text text-anchor="start" x="14" y="-250.5" font-family="Helvetica,sans-Serif" font-size="10.00">GetRoomOfType&lt; T &gt;()</text>
<text text-anchor="start" x="4" y="-234.5" font-family="Helvetica,sans-Serif" font-size="10.00">+</text>
<text text-anchor="start" x="14" y="-234.5" font-family="Helvetica,sans-Serif" font-size="10.00">GetRoomsByType()</text>
<text text-anchor="start" x="4" y="-218.5" font-family="Helvetica,sans-Serif" font-size="10.00">+</text>
<text text-anchor="start" x="14" y="-218.5" font-family="Helvetica,sans-Serif" font-size="10.00">GetSystem&lt; T &gt;()</text>
<text text-anchor="start" x="4" y="-202.5" font-family="Helvetica,sans-Serif" font-size="10.00">+</text>
<text text-anchor="start" x="14" y="-202.5" font-family="Helvetica,sans-Serif" font-size="10.00">RecalculateAllStats()</text>
<text text-anchor="start" x="4" y="-186.5" font-family="Helvetica,sans-Serif" font-size="10.00">+</text>
<text text-anchor="start" x="14" y="-186.5" font-family="Helvetica,sans-Serif" font-size="10.00">GetStat()</text>
<text text-anchor="start" x="4" y="-170.5" font-family="Helvetica,sans-Serif" font-size="10.00">+</text>
<text text-anchor="start" x="14" y="-170.5" font-family="Helvetica,sans-Serif" font-size="10.00">GetRoomContributions()</text>
<text text-anchor="start" x="4" y="-154.5" font-family="Helvetica,sans-Serif" font-size="10.00">+</text>
<text text-anchor="start" x="14" y="-154.5" font-family="Helvetica,sans-Serif" font-size="10.00">TakeAttack()</text>
<text text-anchor="start" x="14" y="-138.5" font-family="Helvetica,sans-Serif" font-size="10.00">and 14 more...</text>
<polygon fill="#666666" stroke="#666666" points="0,-358 0,-358 123.75,-358 123.75,-358 0,-358"/>
<polygon fill="#666666" stroke="#666666" points="0,-310 0,-310 12,-310 12,-310 0,-310"/>
<polygon fill="#666666" stroke="#666666" points="12,-310 12,-310 123.75,-310 123.75,-310 12,-310"/>
<polygon fill="none" stroke="#666666" points="0,-132 0,-376 123.75,-376 123.75,-132 0,-132"/>
</a>
</g>
</g>
<!-- Node2&#45;&gt;Node1 -->
<g id="edge1_Node000001_Node000002" class="edge">
<title>Node2&#45;&gt;Node1</title>
<g id="a_edge1_Node000001_Node000002"><a xlink:title=" ">
<path fill="none" stroke="#63b8ff" d="M61.88,-132.06C61.88,-119.74 61.88,-107.73 61.88,-96.71"/>
<polygon fill="none" stroke="#63b8ff" points="61.88,-96.71 57.88,-90.71 61.88,-84.71 65.88,-90.71 61.88,-96.71"/>
</a>
</g>
<text text-anchor="middle" x="89.25" y="-104.5" font-family="Helvetica,sans-Serif" font-size="10.00" fill="grey"> #parentShip</text>
</g>
<!-- Node3 -->
<g id="Node000003" class="node">
<title>Node3</title>
<g id="a_Node000003"><a xlink:title=" ">
<polygon fill="white" stroke="none" points="99.62,-465 24.12,-465 24.12,-413 99.62,-413 99.62,-465"/>
<text text-anchor="start" x="28.12" y="-451.5" font-family="Helvetica,sans-Serif" font-size="10.00">MonoBehaviour</text>
<text text-anchor="start" x="60.38" y="-435.5" font-family="Helvetica,sans-Serif" font-size="10.00"> </text>
<text text-anchor="start" x="60.38" y="-419.5" font-family="Helvetica,sans-Serif" font-size="10.00"> </text>
<polygon fill="#bfbfbf" stroke="#bfbfbf" points="24.12,-447 24.12,-447 99.62,-447 99.62,-447 24.12,-447"/>
<polygon fill="#bfbfbf" stroke="#bfbfbf" points="24.12,-431 24.12,-431 99.62,-431 99.62,-431 24.12,-431"/>
<polygon fill="none" stroke="#bfbfbf" points="24.12,-413 24.12,-465 99.62,-465 99.62,-413 24.12,-413"/>
</a>
</g>
</g>
<!-- Node3&#45;&gt;Node2 -->
<g id="edge2_Node000002_Node000003" class="edge">
<title>Node3&#45;&gt;Node2</title>
<g id="a_edge2_Node000002_Node000003"><a xlink:title=" ">
<path fill="none" stroke="#63b8ff" d="M61.88,-401.99C61.88,-394.04 61.88,-385.18 61.88,-375.87"/>
<polygon fill="none" stroke="#63b8ff" points="58.38,-401.81 61.88,-411.81 65.38,-401.81 58.38,-401.81"/>
</a>
</g>
</g>
</g>
</svg>
