<?xml version="1.0" encoding="UTF-8" standalone="no"?>
<!DOCTYPE svg PUBLIC "-//W3C//DTD SVG 1.1//EN"
 "http://www.w3.org/Graphics/SVG/1.1/DTD/svg11.dtd">
<!-- Generated by graphviz version 12.2.1 (20241206.2353)
 -->
<!-- Title: CombatManager Pages: 1 -->
<svg width="357pt" height="220pt"
 viewBox="0.00 0.00 356.75 219.50" xmlns="http://www.w3.org/2000/svg" xmlns:xlink="http://www.w3.org/1999/xlink">

<svg id="main" version="1.1" xmlns="http://www.w3.org/2000/svg" xmlns:xlink="http://www.w3.org/1999/xlink" xml:space="preserve">

<style type="text/css"><![CDATA[
.node, .edge {opacity: 0.7;}
.node.selected, .edge.selected {opacity: 1;}
.edge:hover path { stroke: red; }
.edge:hover polygon { stroke: red; fill: red; }
]]></style>
<script type="application/ecmascript" xlink:href="svg.min.js"/>
<svg id="graph" class="graph">
<g id="graph0" class="graph" transform="scale(1 1) rotate(0) translate(4 215.5)">
<title>CombatManager</title>
<!-- Node1 -->
<g id="Node000001" class="node">
<title>Node1</title>
<g id="a_Node000001"><a xlink:title="전투 전체 흐름을 관리하는 매니저 클래스입니다. 전투 상태를 전환하고, 관련 컨트롤러를 초기화하거나 업데이트합니다.">
<polygon fill="#999999" stroke="none" points="204.25,-87 82,-87 82,0 204.25,0 204.25,-87"/>
<text text-anchor="start" x="109" y="-73.5" font-family="Consolas" font-size="10.00">CombatManager</text>
<text text-anchor="start" x="86" y="-59" font-family="Consolas" font-size="10.00">+</text>
<text text-anchor="start" x="95.25" y="-59" font-family="Consolas" font-size="10.00">static CombatManager</text>
<text text-anchor="start" x="95.25" y="-48.5" font-family="Consolas" font-size="10.00"> Instance</text>
<text text-anchor="start" x="86" y="-34" font-family="Consolas" font-size="10.00">+</text>
<text text-anchor="start" x="95.25" y="-34" font-family="Consolas" font-size="10.00">void Enter()</text>
<text text-anchor="start" x="86" y="-19.5" font-family="Consolas" font-size="10.00">+</text>
<text text-anchor="start" x="95.25" y="-19.5" font-family="Consolas" font-size="10.00">void Update()</text>
<text text-anchor="start" x="86" y="-5" font-family="Consolas" font-size="10.00">+</text>
<text text-anchor="start" x="95.25" y="-5" font-family="Consolas" font-size="10.00">void Exit()</text>
<polygon fill="#666666" stroke="#666666" points="82,-70.5 82,-70.5 204.25,-70.5 204.25,-70.5 82,-70.5"/>
<polygon fill="#666666" stroke="#666666" points="82,-45.5 82,-45.5 93.25,-45.5 93.25,-45.5 82,-45.5"/>
<polygon fill="#666666" stroke="#666666" points="93.25,-45.5 93.25,-45.5 204.25,-45.5 204.25,-45.5 93.25,-45.5"/>
<polygon fill="none" stroke="#666666" points="82,0 82,-87 204.25,-87 204.25,0 82,0"/>
</a>
</g>
</g>
<!-- Node2 -->
<g id="Node000002" class="node">
<title>Node2</title>
<g id="a_Node000002"><a xlink:title=" ">
<polygon fill="white" stroke="none" points="76.25,-197 0,-197 0,-149.5 76.25,-149.5 76.25,-197"/>
<text text-anchor="start" x="4" y="-183.5" font-family="Consolas" font-size="10.00">MonoBehaviour</text>
<text text-anchor="start" x="35.5" y="-169" font-family="Consolas" font-size="10.00"> </text>
<text text-anchor="start" x="35.5" y="-154.5" font-family="Consolas" font-size="10.00"> </text>
<polygon fill="#bfbfbf" stroke="#bfbfbf" points="0,-180.5 0,-180.5 76.25,-180.5 76.25,-180.5 0,-180.5"/>
<polygon fill="#bfbfbf" stroke="#bfbfbf" points="0,-166 0,-166 76.25,-166 76.25,-166 0,-166"/>
<polygon fill="none" stroke="#bfbfbf" points="0,-149.5 0,-197 76.25,-197 76.25,-149.5 0,-149.5"/>
</a>
</g>
</g>
<!-- Node2&#45;&gt;Node1 -->
<g id="edge1_Node000001_Node000002" class="edge">
<title>Node2&#45;&gt;Node1</title>
<g id="a_edge1_Node000001_Node000002"><a xlink:title=" ">
<path fill="none" stroke="#63b8ff" d="M63.73,-141.1C77.11,-124.81 93.69,-104.64 108.23,-86.95"/>
<polygon fill="none" stroke="#63b8ff" points="61.26,-138.59 57.62,-148.54 66.67,-143.03 61.26,-138.59"/>
</a>
</g>
</g>
<!-- Node3 -->
<g id="Node000003" class="node">
<title>Node3</title>
<g id="a_Node000003"><a xlink:href="interface_i_game_state_machine.html" target="_top" xlink:title=" ">
<polygon fill="white" stroke="none" points="191.75,-211.5 94.5,-211.5 94.5,-135 191.75,-135 191.75,-211.5"/>
<text text-anchor="start" x="98.5" y="-198" font-family="Consolas" font-size="10.00">IGameStateMachine</text>
<text text-anchor="start" x="140.5" y="-183.5" font-family="Consolas" font-size="10.00"> </text>
<text text-anchor="start" x="101.44" y="-169" font-family="Consolas" font-size="10.00">+</text>
<text text-anchor="start" x="113.62" y="-169" font-family="Consolas" font-size="10.00">void Enter()</text>
<text text-anchor="start" x="101.44" y="-154.5" font-family="Consolas" font-size="10.00">+</text>
<text text-anchor="start" x="113.62" y="-154.5" font-family="Consolas" font-size="10.00">void Update()</text>
<text text-anchor="start" x="101.44" y="-140" font-family="Consolas" font-size="10.00">+</text>
<text text-anchor="start" x="113.62" y="-140" font-family="Consolas" font-size="10.00">void Exit()</text>
<polygon fill="#bfbfbf" stroke="#bfbfbf" points="94.5,-195 94.5,-195 191.75,-195 191.75,-195 94.5,-195"/>
<polygon fill="#bfbfbf" stroke="#bfbfbf" points="94.5,-180.5 94.5,-180.5 191.75,-180.5 191.75,-180.5 94.5,-180.5"/>
<polygon fill="none" stroke="#bfbfbf" points="94.5,-135 94.5,-211.5 191.75,-211.5 191.75,-135 94.5,-135"/>
</a>
</g>
</g>
<!-- Node3&#45;&gt;Node1 -->
<g id="edge2_Node000001_Node000003" class="edge">
<title>Node3&#45;&gt;Node1</title>
<g id="a_edge2_Node000001_Node000003"><a xlink:title=" ">
<path fill="none" stroke="#63b8ff" d="M143.12,-123.9C143.12,-111.68 143.12,-98.66 143.12,-86.76"/>
<polygon fill="none" stroke="#63b8ff" points="139.63,-123.79 143.13,-133.79 146.63,-123.79 139.63,-123.79"/>
</a>
</g>
</g>
<!-- Node4 -->
<g id="Node000004" class="node">
<title>Node4</title>
<g id="a_Node000004"><a xlink:href="class_outer_ship_combat_controller.html" target="_top" xlink:title="우주선 전투에서 실제 무기 발사를 제어하는 컨트롤러 클래스입니다. 무기 종류별 발사 처리, 타격 판정, 투사체 관리 등을 담당합니다.">
<polygon fill="white" stroke="none" points="348.75,-207.5 209.5,-207.5 209.5,-139 348.75,-139 348.75,-207.5"/>
<text text-anchor="start" x="213.5" y="-194" font-family="Consolas" font-size="10.00">OuterShipCombatController</text>
<text text-anchor="start" x="276.5" y="-179.5" font-family="Consolas" font-size="10.00"> </text>
<text text-anchor="start" x="216.44" y="-165" font-family="Consolas" font-size="10.00">+</text>
<text text-anchor="start" x="228.62" y="-165" font-family="Consolas" font-size="10.00">bool WeaponFire(Ship</text>
<text text-anchor="start" x="228.62" y="-154.5" font-family="Consolas" font-size="10.00"> attacker, ShipWeapon</text>
<text text-anchor="start" x="228.62" y="-144" font-family="Consolas" font-size="10.00"> weapon)</text>
<polygon fill="#666666" stroke="#666666" points="209.5,-191 209.5,-191 348.75,-191 348.75,-191 209.5,-191"/>
<polygon fill="#666666" stroke="#666666" points="209.5,-176.5 209.5,-176.5 348.75,-176.5 348.75,-176.5 209.5,-176.5"/>
<polygon fill="none" stroke="#666666" points="209.5,-139 209.5,-207.5 348.75,-207.5 348.75,-139 209.5,-139"/>
</a>
</g>
</g>
<!-- Node4&#45;&gt;Node1 -->
<g id="edge3_Node000001_Node000004" class="edge">
<title>Node4&#45;&gt;Node1</title>
<g id="a_edge3_Node000001_Node000004"><a xlink:title=" ">
<path fill="none" stroke="#63b8ff" d="M243.75,-139.02C229.73,-125.86 213.3,-110.42 197.82,-95.88"/>
<polygon fill="none" stroke="#63b8ff" points="197.74,-95.8 190.63,-94.61 188.99,-87.59 196.11,-88.78 197.74,-95.8"/>
</a>
</g>
<text text-anchor="middle" x="282.64" y="-107.5" font-family="Helvetica,sans-Serif" font-size="10.00" fill="grey"> +outerShipCombatController</text>
</g>
</g>
</svg>
</svg>

<style type='text/css'>
<![CDATA[
[data-mouse-over-selected='false'] { opacity: 0.7; }
[data-mouse-over-selected='true']  { opacity: 1.0; }
]]>
</style>
<script type="application/ecmascript"><![CDATA[
document.addEventListener('DOMContentLoaded', (event) => {
  highlightEdges();
  highlightAdjacentNodes();
});
]]></script>
</svg>
