<?xml version="1.0" encoding="UTF-8" standalone="no"?>
<!DOCTYPE svg PUBLIC "-//W3C//DTD SVG 1.1//EN"
 "http://www.w3.org/Graphics/SVG/1.1/DTD/svg11.dtd">
<!-- Generated by graphviz version 12.2.1 (20241206.2353)
 -->
<!-- Title: CrewBase Pages: 1 -->
<!--zoomable 1685 -->

<svg id="main" version="1.1" xmlns="http://www.w3.org/2000/svg" xmlns:xlink="http://www.w3.org/1999/xlink" xml:space="preserve" onload="init(evt)">

<style type="text/css"><![CDATA[
.node, .edge {opacity: 0.7;}
.node.selected, .edge.selected {opacity: 1;}
.edge:hover path { stroke: red; }
.edge:hover polygon { stroke: red; fill: red; }
]]></style>

<defs>
  <circle id="rim" cx="0" cy="0" r="7"/>
  <circle id="rim2" cx="0" cy="0" r="3.5"/>
  <g id="zoomPlus">
    <use xlink:href="#rim" fill="#404040"><set attributeName="fill" to="#808080" begin="zoomplus.mouseover" end="zoomplus.mouseout"/></use>
    <path d="M-4,0h8M0,-4v8" fill="none" stroke="white" stroke-width="1.5" pointer-events="none"/>
  </g>
  <g id="zoomMin">
    <use xlink:href="#rim" fill="#404040"><set attributeName="fill" to="#808080" begin="zoomminus.mouseover" end="zoomminus.mouseout"/></use>
    <path d="M-4,0h8" fill="none" stroke="white" stroke-width="1.5" pointer-events="none"/>
  </g>
  <g id="arrowUp" transform="translate(30 24)">
    <use xlink:href="#rim"/>
    <path pointer-events="none" fill="none" stroke="white" stroke-width="1.5" d="M0,-3.0v7 M-2.5,-0.5L0,-3.0L2.5,-0.5"/>
  </g>
  <g id="arrowRight" transform="rotate(90) translate(36 -43)">
    <use xlink:href="#rim"/>
    <path pointer-events="none" fill="none" stroke="white" stroke-width="1.5" d="M0,-3.0v7 M-2.5,-0.5L0,-3.0L2.5,-0.5"/>
  </g>
  <g id="arrowDown" transform="rotate(180) translate(-30 -48)">
    <use xlink:href="#rim"/>
    <path pointer-events="none" fill="none" stroke="white" stroke-width="1.5" d="M0,-3.0v7 M-2.5,-0.5L0,-3.0L2.5,-0.5"/>
  </g>
  <g id="arrowLeft" transform="rotate(270) translate(-36 17)">
    <use xlink:href="#rim"/>
    <path pointer-events="none" fill="none" stroke="white" stroke-width="1.5" d="M0,-3.0v7 M-2.5,-0.5L0,-3.0L2.5,-0.5"/>
  </g>
  <g id="resetDef">
    <use xlink:href="#rim2" fill="#404040"><set attributeName="fill" to="#808080" begin="reset.mouseover" end="reset.mouseout"/></use>
  </g>
</defs>
<script type="application/ecmascript">
var viewWidth = 637;
var viewHeight = 1685;
var sectionId = 'dynsection-1';
</script>
<script type="application/ecmascript" xlink:href="svg.min.js"/>
<svg id="graph" class="graph">
<g id="viewport">
<title>CrewBase</title>
<!-- Node1 -->
<g id="Node000001" class="node">
<title>Node1</title>
<g id="a_Node000001"><a xlink:title=" ">
<polygon fill="#999999" stroke="none" points="367.22,-420 217.22,-420 217.22,0 367.22,0 367.22,-420"/>
<text text-anchor="start" x="269.35" y="-406.5" font-family="Helvetica,sans-Serif" font-size="10.00">CrewBase</text>
<text text-anchor="start" x="221.22" y="-390.5" font-family="Helvetica,sans-Serif" font-size="10.00">+</text>
<text text-anchor="start" x="231.22" y="-390.5" font-family="Helvetica,sans-Serif" font-size="10.00">crewName</text>
<text text-anchor="start" x="221.22" y="-374.5" font-family="Helvetica,sans-Serif" font-size="10.00">+</text>
<text text-anchor="start" x="231.22" y="-374.5" font-family="Helvetica,sans-Serif" font-size="10.00">isPlayerControlled</text>
<text text-anchor="start" x="221.22" y="-358.5" font-family="Helvetica,sans-Serif" font-size="10.00">+</text>
<text text-anchor="start" x="231.22" y="-358.5" font-family="Helvetica,sans-Serif" font-size="10.00">race</text>
<text text-anchor="start" x="221.22" y="-342.5" font-family="Helvetica,sans-Serif" font-size="10.00">+</text>
<text text-anchor="start" x="231.22" y="-342.5" font-family="Helvetica,sans-Serif" font-size="10.00">maxHealth</text>
<text text-anchor="start" x="221.22" y="-326.5" font-family="Helvetica,sans-Serif" font-size="10.00">+</text>
<text text-anchor="start" x="231.22" y="-326.5" font-family="Helvetica,sans-Serif" font-size="10.00">attack</text>
<text text-anchor="start" x="221.22" y="-310.5" font-family="Helvetica,sans-Serif" font-size="10.00">+</text>
<text text-anchor="start" x="231.22" y="-310.5" font-family="Helvetica,sans-Serif" font-size="10.00">defense</text>
<text text-anchor="start" x="221.22" y="-294.5" font-family="Helvetica,sans-Serif" font-size="10.00">+</text>
<text text-anchor="start" x="231.22" y="-294.5" font-family="Helvetica,sans-Serif" font-size="10.00">learningSpeed</text>
<text text-anchor="start" x="221.22" y="-278.5" font-family="Helvetica,sans-Serif" font-size="10.00">+</text>
<text text-anchor="start" x="231.22" y="-278.5" font-family="Helvetica,sans-Serif" font-size="10.00">needsOxygen</text>
<text text-anchor="start" x="221.22" y="-262.5" font-family="Helvetica,sans-Serif" font-size="10.00">+</text>
<text text-anchor="start" x="231.22" y="-262.5" font-family="Helvetica,sans-Serif" font-size="10.00">maxSkillValueArray</text>
<text text-anchor="start" x="221.22" y="-246.5" font-family="Helvetica,sans-Serif" font-size="10.00">+</text>
<text text-anchor="start" x="231.22" y="-246.5" font-family="Helvetica,sans-Serif" font-size="10.00">maxPilotSkillValue</text>
<text text-anchor="start" x="231.22" y="-230.5" font-family="Helvetica,sans-Serif" font-size="10.00">and 16 more...</text>
<text text-anchor="start" x="221.22" y="-214.5" font-family="Helvetica,sans-Serif" font-size="10.00">+</text>
<text text-anchor="start" x="231.22" y="-214.5" font-family="Helvetica,sans-Serif" font-size="10.00">Initialize()</text>
<text text-anchor="start" x="221.22" y="-198.5" font-family="Helvetica,sans-Serif" font-size="10.00">+</text>
<text text-anchor="start" x="231.22" y="-198.5" font-family="Helvetica,sans-Serif" font-size="10.00">ImproveSkill()</text>
<text text-anchor="start" x="221.22" y="-182.5" font-family="Helvetica,sans-Serif" font-size="10.00">+</text>
<text text-anchor="start" x="231.22" y="-182.5" font-family="Helvetica,sans-Serif" font-size="10.00">MoveToRoom()</text>
<text text-anchor="start" x="221.22" y="-166.5" font-family="Helvetica,sans-Serif" font-size="10.00">+</text>
<text text-anchor="start" x="231.22" y="-166.5" font-family="Helvetica,sans-Serif" font-size="10.00">Attack()</text>
<text text-anchor="start" x="221.22" y="-150.5" font-family="Helvetica,sans-Serif" font-size="10.00">+</text>
<text text-anchor="start" x="231.22" y="-150.5" font-family="Helvetica,sans-Serif" font-size="10.00">GetDamage()</text>
<text text-anchor="start" x="221.22" y="-134.5" font-family="Helvetica,sans-Serif" font-size="10.00">+</text>
<text text-anchor="start" x="231.22" y="-134.5" font-family="Helvetica,sans-Serif" font-size="10.00">RepairFacility()</text>
<text text-anchor="start" x="221.22" y="-118.5" font-family="Helvetica,sans-Serif" font-size="10.00">+</text>
<text text-anchor="start" x="231.22" y="-118.5" font-family="Helvetica,sans-Serif" font-size="10.00">Heal()</text>
<text text-anchor="start" x="221.22" y="-102.5" font-family="Helvetica,sans-Serif" font-size="10.00">+</text>
<text text-anchor="start" x="231.22" y="-102.5" font-family="Helvetica,sans-Serif" font-size="10.00">NeedsHealing()</text>
<text text-anchor="start" x="221.22" y="-86.5" font-family="Helvetica,sans-Serif" font-size="10.00">+</text>
<text text-anchor="start" x="231.22" y="-86.5" font-family="Helvetica,sans-Serif" font-size="10.00">GetCrewSkillValue()</text>
<text text-anchor="start" x="221.22" y="-70.5" font-family="Helvetica,sans-Serif" font-size="10.00">+</text>
<text text-anchor="start" x="231.22" y="-70.5" font-family="Helvetica,sans-Serif" font-size="10.00">RecalculateEquipmentBonus()</text>
<text text-anchor="start" x="221.22" y="-54.5" font-family="Helvetica,sans-Serif" font-size="10.00">+</text>
<text text-anchor="start" x="231.22" y="-54.5" font-family="Helvetica,sans-Serif" font-size="10.00">SwapEquipment()</text>
<text text-anchor="start" x="221.22" y="-38.5" font-family="Helvetica,sans-Serif" font-size="10.00">+</text>
<text text-anchor="start" x="231.22" y="-38.5" font-family="Helvetica,sans-Serif" font-size="10.00">ApplyPersonalEquipment()</text>
<text text-anchor="start" x="221.22" y="-22.5" font-family="Helvetica,sans-Serif" font-size="10.00">+</text>
<text text-anchor="start" x="231.22" y="-22.5" font-family="Helvetica,sans-Serif" font-size="10.00">GetSkillLevel()</text>
<text text-anchor="start" x="221.22" y="-6.5" font-family="Helvetica,sans-Serif" font-size="10.00">+</text>
<text text-anchor="start" x="231.22" y="-6.5" font-family="Helvetica,sans-Serif" font-size="10.00">IsEnemyOf()</text>
<polygon fill="#666666" stroke="#666666" points="217.22,-402 217.22,-402 367.22,-402 367.22,-402 217.22,-402"/>
<polygon fill="#666666" stroke="#666666" points="217.22,-226 217.22,-226 229.22,-226 229.22,-226 217.22,-226"/>
<polygon fill="#666666" stroke="#666666" points="229.22,-226 229.22,-226 367.22,-226 367.22,-226 229.22,-226"/>
<polygon fill="none" stroke="#666666" points="217.22,0 217.22,-420 367.22,-420 367.22,0 217.22,0"/>
</a>
</g>
</g>
<!-- Node2 -->
<g id="Node000002" class="node">
<title>Node2</title>
<g id="a_Node000002"><a xlink:title=" ">
<polygon fill="white" stroke="none" points="501.97,-1677 426.47,-1677 426.47,-1625 501.97,-1625 501.97,-1677"/>
<text text-anchor="start" x="430.47" y="-1663.5" font-family="Helvetica,sans-Serif" font-size="10.00">MonoBehaviour</text>
<text text-anchor="start" x="462.72" y="-1647.5" font-family="Helvetica,sans-Serif" font-size="10.00"> </text>
<text text-anchor="start" x="462.72" y="-1631.5" font-family="Helvetica,sans-Serif" font-size="10.00"> </text>
<polygon fill="#bfbfbf" stroke="#bfbfbf" points="426.47,-1659 426.47,-1659 501.97,-1659 501.97,-1659 426.47,-1659"/>
<polygon fill="#bfbfbf" stroke="#bfbfbf" points="426.47,-1643 426.47,-1643 501.97,-1643 501.97,-1643 426.47,-1643"/>
<polygon fill="none" stroke="#bfbfbf" points="426.47,-1625 426.47,-1677 501.97,-1677 501.97,-1625 426.47,-1625"/>
</a>
</g>
</g>
<!-- Node2&#45;&gt;Node1 -->
<g id="edge1_Node000001_Node000002" class="edge">
<title>Node2&#45;&gt;Node1</title>
<g id="a_edge1_Node000001_Node000002"><a xlink:title=" ">
<path fill="none" stroke="#63b8ff" d="M415.65,-1644.4C380.26,-1637.51 334.58,-1622.16 311.22,-1588 278.91,-1540.74 284.32,-793.17 289.09,-419.83"/>
<polygon fill="none" stroke="#63b8ff" points="414.79,-1647.8 425.24,-1646.09 416,-1640.91 414.79,-1647.8"/>
</a>
</g>
</g>
<!-- Node6 -->
<g id="Node000006" class="node">
<title>Node6</title>
<g id="a_Node000006"><a xlink:href="class_room.html" target="_top" xlink:title="함선 내의 모든 방의 기본 클래스">
<polygon fill="white" stroke="none" points="458.6,-1112 319.85,-1112 319.85,-468 458.6,-468 458.6,-1112"/>
<text text-anchor="start" x="376.1" y="-1098.5" font-family="Helvetica,sans-Serif" font-size="10.00">Room</text>
<text text-anchor="start" x="323.85" y="-1082.5" font-family="Helvetica,sans-Serif" font-size="10.00">+</text>
<text text-anchor="start" x="333.85" y="-1082.5" font-family="Helvetica,sans-Serif" font-size="10.00">position</text>
<text text-anchor="start" x="323.85" y="-1066.5" font-family="Helvetica,sans-Serif" font-size="10.00">+</text>
<text text-anchor="start" x="333.85" y="-1066.5" font-family="Helvetica,sans-Serif" font-size="10.00">currentLevel</text>
<text text-anchor="start" x="323.85" y="-1050.5" font-family="Helvetica,sans-Serif" font-size="10.00">+</text>
<text text-anchor="start" x="333.85" y="-1050.5" font-family="Helvetica,sans-Serif" font-size="10.00">maxLevel</text>
<text text-anchor="start" x="323.85" y="-1034.5" font-family="Helvetica,sans-Serif" font-size="10.00">+</text>
<text text-anchor="start" x="333.85" y="-1034.5" font-family="Helvetica,sans-Serif" font-size="10.00">roomType</text>
<text text-anchor="start" x="323.85" y="-1018.5" font-family="Helvetica,sans-Serif" font-size="10.00">+</text>
<text text-anchor="start" x="333.85" y="-1018.5" font-family="Helvetica,sans-Serif" font-size="10.00">crewInRoom</text>
<text text-anchor="start" x="323.85" y="-1002.5" font-family="Helvetica,sans-Serif" font-size="10.00">+</text>
<text text-anchor="start" x="333.85" y="-1002.5" font-family="Helvetica,sans-Serif" font-size="10.00">gridSize</text>
<text text-anchor="start" x="323.85" y="-986.5" font-family="Helvetica,sans-Serif" font-size="10.00">+</text>
<text text-anchor="start" x="333.85" y="-986.5" font-family="Helvetica,sans-Serif" font-size="10.00">isPlaced</text>
<text text-anchor="start" x="324.22" y="-970.5" font-family="Helvetica,sans-Serif" font-size="10.00">#</text>
<text text-anchor="start" x="333.85" y="-970.5" font-family="Helvetica,sans-Serif" font-size="10.00">currentHitPoints</text>
<text text-anchor="start" x="324.22" y="-954.5" font-family="Helvetica,sans-Serif" font-size="10.00">#</text>
<text text-anchor="start" x="333.85" y="-954.5" font-family="Helvetica,sans-Serif" font-size="10.00">oxygenLevel</text>
<text text-anchor="start" x="324.22" y="-938.5" font-family="Helvetica,sans-Serif" font-size="10.00">#</text>
<text text-anchor="start" x="333.85" y="-938.5" font-family="Helvetica,sans-Serif" font-size="10.00">adjacentRooms</text>
<text text-anchor="start" x="324.22" y="-922.5" font-family="Helvetica,sans-Serif" font-size="10.00">#</text>
<text text-anchor="start" x="333.85" y="-922.5" font-family="Helvetica,sans-Serif" font-size="10.00">connectedDoors</text>
<text text-anchor="start" x="324.22" y="-906.5" font-family="Helvetica,sans-Serif" font-size="10.00">#</text>
<text text-anchor="start" x="333.85" y="-906.5" font-family="Helvetica,sans-Serif" font-size="10.00">roomParticles</text>
<text text-anchor="start" x="324.22" y="-890.5" font-family="Helvetica,sans-Serif" font-size="10.00">#</text>
<text text-anchor="start" x="333.85" y="-890.5" font-family="Helvetica,sans-Serif" font-size="10.00">roomSound</text>
<text text-anchor="start" x="324.22" y="-874.5" font-family="Helvetica,sans-Serif" font-size="10.00">#</text>
<text text-anchor="start" x="333.85" y="-874.5" font-family="Helvetica,sans-Serif" font-size="10.00">crewDamagePerOxygen</text>
<text text-anchor="start" x="324.22" y="-858.5" font-family="Helvetica,sans-Serif" font-size="10.00">#</text>
<text text-anchor="start" x="333.85" y="-858.5" font-family="Helvetica,sans-Serif" font-size="10.00">fireExtinguishRatePerLevel</text>
<text text-anchor="start" x="324.22" y="-842.5" font-family="Helvetica,sans-Serif" font-size="10.00">#</text>
<text text-anchor="start" x="333.85" y="-842.5" font-family="Helvetica,sans-Serif" font-size="10.00">isActive</text>
<text text-anchor="start" x="324.22" y="-826.5" font-family="Helvetica,sans-Serif" font-size="10.00">#</text>
<text text-anchor="start" x="333.85" y="-826.5" font-family="Helvetica,sans-Serif" font-size="10.00">isPowered</text>
<text text-anchor="start" x="324.22" y="-810.5" font-family="Helvetica,sans-Serif" font-size="10.00">#</text>
<text text-anchor="start" x="333.85" y="-810.5" font-family="Helvetica,sans-Serif" font-size="10.00">isPowerRequested</text>
<text text-anchor="start" x="324.22" y="-794.5" font-family="Helvetica,sans-Serif" font-size="10.00">#</text>
<text text-anchor="start" x="333.85" y="-794.5" font-family="Helvetica,sans-Serif" font-size="10.00">lowOxygenColor</text>
<text text-anchor="start" x="324.22" y="-778.5" font-family="Helvetica,sans-Serif" font-size="10.00">#</text>
<text text-anchor="start" x="333.85" y="-778.5" font-family="Helvetica,sans-Serif" font-size="10.00">normalColor</text>
<text text-anchor="start" x="324.22" y="-762.5" font-family="Helvetica,sans-Serif" font-size="10.00">#</text>
<text text-anchor="start" x="333.85" y="-762.5" font-family="Helvetica,sans-Serif" font-size="10.00">roomRenderer</text>
<text text-anchor="start" x="323.85" y="-746.5" font-family="Helvetica,sans-Serif" font-size="10.00">+</text>
<text text-anchor="start" x="333.85" y="-746.5" font-family="Helvetica,sans-Serif" font-size="10.00">Update()</text>
<text text-anchor="start" x="323.85" y="-730.5" font-family="Helvetica,sans-Serif" font-size="10.00">+</text>
<text text-anchor="start" x="333.85" y="-730.5" font-family="Helvetica,sans-Serif" font-size="10.00">CanBePlaced()</text>
<text text-anchor="start" x="323.85" y="-714.5" font-family="Helvetica,sans-Serif" font-size="10.00">+</text>
<text text-anchor="start" x="333.85" y="-714.5" font-family="Helvetica,sans-Serif" font-size="10.00">OnPlaced()</text>
<text text-anchor="start" x="323.85" y="-698.5" font-family="Helvetica,sans-Serif" font-size="10.00">+</text>
<text text-anchor="start" x="333.85" y="-698.5" font-family="Helvetica,sans-Serif" font-size="10.00">OnCrewEnter()</text>
<text text-anchor="start" x="323.85" y="-682.5" font-family="Helvetica,sans-Serif" font-size="10.00">+</text>
<text text-anchor="start" x="333.85" y="-682.5" font-family="Helvetica,sans-Serif" font-size="10.00">OnCrewExit()</text>
<text text-anchor="start" x="323.85" y="-666.5" font-family="Helvetica,sans-Serif" font-size="10.00">+</text>
<text text-anchor="start" x="333.85" y="-666.5" font-family="Helvetica,sans-Serif" font-size="10.00">InitializeIsDamageable()</text>
<text text-anchor="start" x="323.85" y="-650.5" font-family="Helvetica,sans-Serif" font-size="10.00">+</text>
<text text-anchor="start" x="333.85" y="-650.5" font-family="Helvetica,sans-Serif" font-size="10.00">GetIsPowered()</text>
<text text-anchor="start" x="323.85" y="-634.5" font-family="Helvetica,sans-Serif" font-size="10.00">+</text>
<text text-anchor="start" x="333.85" y="-634.5" font-family="Helvetica,sans-Serif" font-size="10.00">GetIsPowerRequested()</text>
<text text-anchor="start" x="323.85" y="-618.5" font-family="Helvetica,sans-Serif" font-size="10.00">+</text>
<text text-anchor="start" x="333.85" y="-618.5" font-family="Helvetica,sans-Serif" font-size="10.00">GetIsDamageable()</text>
<text text-anchor="start" x="323.85" y="-602.5" font-family="Helvetica,sans-Serif" font-size="10.00">+</text>
<text text-anchor="start" x="333.85" y="-602.5" font-family="Helvetica,sans-Serif" font-size="10.00">GetOxygenLevel()</text>
<text text-anchor="start" x="333.85" y="-586.5" font-family="Helvetica,sans-Serif" font-size="10.00">and 18 more...</text>
<text text-anchor="start" x="324.22" y="-570.5" font-family="Helvetica,sans-Serif" font-size="10.00">#</text>
<text text-anchor="start" x="333.85" y="-570.5" font-family="Helvetica,sans-Serif" font-size="10.00">Start()</text>
<text text-anchor="start" x="324.22" y="-554.5" font-family="Helvetica,sans-Serif" font-size="10.00">#</text>
<text text-anchor="start" x="333.85" y="-554.5" font-family="Helvetica,sans-Serif" font-size="10.00">UpdateRoom()</text>
<text text-anchor="start" x="324.22" y="-538.5" font-family="Helvetica,sans-Serif" font-size="10.00">#</text>
<text text-anchor="start" x="333.85" y="-538.5" font-family="Helvetica,sans-Serif" font-size="10.00">UpdateEffects()</text>
<text text-anchor="start" x="324.22" y="-522.5" font-family="Helvetica,sans-Serif" font-size="10.00">#</text>
<text text-anchor="start" x="333.85" y="-522.5" font-family="Helvetica,sans-Serif" font-size="10.00">HasFire()</text>
<text text-anchor="start" x="324.22" y="-506.5" font-family="Helvetica,sans-Serif" font-size="10.00">#</text>
<text text-anchor="start" x="333.85" y="-506.5" font-family="Helvetica,sans-Serif" font-size="10.00">UpdateFireExtinguishRate()</text>
<text text-anchor="start" x="324.22" y="-490.5" font-family="Helvetica,sans-Serif" font-size="10.00">#</text>
<text text-anchor="start" x="333.85" y="-490.5" font-family="Helvetica,sans-Serif" font-size="10.00">OnDisabled()</text>
<text text-anchor="start" x="324.22" y="-474.5" font-family="Helvetica,sans-Serif" font-size="10.00">#</text>
<text text-anchor="start" x="333.85" y="-474.5" font-family="Helvetica,sans-Serif" font-size="10.00">NotifyStateChanged()</text>
<polygon fill="#666666" stroke="#666666" points="319.85,-1094 319.85,-1094 458.6,-1094 458.6,-1094 319.85,-1094"/>
<polygon fill="#666666" stroke="#666666" points="319.85,-758 319.85,-758 331.85,-758 331.85,-758 319.85,-758"/>
<polygon fill="#666666" stroke="#666666" points="331.85,-758 331.85,-758 458.6,-758 458.6,-758 331.85,-758"/>
<polygon fill="none" stroke="#666666" points="319.85,-468 319.85,-1112 458.6,-1112 458.6,-468 319.85,-468"/>
</a>
</g>
</g>
<!-- Node2&#45;&gt;Node6 -->
<g id="edge7_Node000006_Node000002" class="edge">
<title>Node2&#45;&gt;Node6</title>
<g id="a_edge7_Node000006_Node000002"><a xlink:title=" ">
<path fill="none" stroke="#63b8ff" d="M462.24,-1613.96C459.14,-1559.09 452.71,-1451.36 445.22,-1360 438.63,-1279.5 430.57,-1192.68 422.64,-1111.7"/>
<polygon fill="none" stroke="#63b8ff" points="458.73,-1613.85 462.79,-1623.64 465.72,-1613.46 458.73,-1613.85"/>
</a>
</g>
</g>
<!-- Node9 -->
<g id="Node000009" class="node">
<title>Node9</title>
<g id="a_Node000009"><a xlink:href="class_ship.html" target="_top" xlink:title=" ">
<polygon fill="white" stroke="none" points="616.1,-1588 492.35,-1588 492.35,-1360 616.1,-1360 616.1,-1588"/>
<text text-anchor="start" x="544.47" y="-1574.5" font-family="Helvetica,sans-Serif" font-size="10.00">Ship</text>
<text text-anchor="start" x="496.35" y="-1558.5" font-family="Helvetica,sans-Serif" font-size="10.00">+</text>
<text text-anchor="start" x="506.35" y="-1558.5" font-family="Helvetica,sans-Serif" font-size="10.00">testRoomPrefab1</text>
<text text-anchor="start" x="496.35" y="-1542.5" font-family="Helvetica,sans-Serif" font-size="10.00">+</text>
<text text-anchor="start" x="506.35" y="-1542.5" font-family="Helvetica,sans-Serif" font-size="10.00">testRoomPrefab2</text>
<text text-anchor="start" x="496.35" y="-1526.5" font-family="Helvetica,sans-Serif" font-size="10.00">+</text>
<text text-anchor="start" x="506.35" y="-1526.5" font-family="Helvetica,sans-Serif" font-size="10.00">AddRoom()</text>
<text text-anchor="start" x="496.35" y="-1510.5" font-family="Helvetica,sans-Serif" font-size="10.00">+</text>
<text text-anchor="start" x="506.35" y="-1510.5" font-family="Helvetica,sans-Serif" font-size="10.00">RemoveRoom()</text>
<text text-anchor="start" x="496.35" y="-1494.5" font-family="Helvetica,sans-Serif" font-size="10.00">+</text>
<text text-anchor="start" x="506.35" y="-1494.5" font-family="Helvetica,sans-Serif" font-size="10.00">AddDoor()</text>
<text text-anchor="start" x="496.35" y="-1478.5" font-family="Helvetica,sans-Serif" font-size="10.00">+</text>
<text text-anchor="start" x="506.35" y="-1478.5" font-family="Helvetica,sans-Serif" font-size="10.00">GetRoomOfType&lt; T &gt;()</text>
<text text-anchor="start" x="496.35" y="-1462.5" font-family="Helvetica,sans-Serif" font-size="10.00">+</text>
<text text-anchor="start" x="506.35" y="-1462.5" font-family="Helvetica,sans-Serif" font-size="10.00">GetRoomsByType()</text>
<text text-anchor="start" x="496.35" y="-1446.5" font-family="Helvetica,sans-Serif" font-size="10.00">+</text>
<text text-anchor="start" x="506.35" y="-1446.5" font-family="Helvetica,sans-Serif" font-size="10.00">GetSystem&lt; T &gt;()</text>
<text text-anchor="start" x="496.35" y="-1430.5" font-family="Helvetica,sans-Serif" font-size="10.00">+</text>
<text text-anchor="start" x="506.35" y="-1430.5" font-family="Helvetica,sans-Serif" font-size="10.00">RecalculateAllStats()</text>
<text text-anchor="start" x="496.35" y="-1414.5" font-family="Helvetica,sans-Serif" font-size="10.00">+</text>
<text text-anchor="start" x="506.35" y="-1414.5" font-family="Helvetica,sans-Serif" font-size="10.00">GetStat()</text>
<text text-anchor="start" x="496.35" y="-1398.5" font-family="Helvetica,sans-Serif" font-size="10.00">+</text>
<text text-anchor="start" x="506.35" y="-1398.5" font-family="Helvetica,sans-Serif" font-size="10.00">GetRoomContributions()</text>
<text text-anchor="start" x="496.35" y="-1382.5" font-family="Helvetica,sans-Serif" font-size="10.00">+</text>
<text text-anchor="start" x="506.35" y="-1382.5" font-family="Helvetica,sans-Serif" font-size="10.00">TakeDamage()</text>
<text text-anchor="start" x="506.35" y="-1366.5" font-family="Helvetica,sans-Serif" font-size="10.00">and 14 more...</text>
<polygon fill="#bfbfbf" stroke="#bfbfbf" points="492.35,-1570 492.35,-1570 616.1,-1570 616.1,-1570 492.35,-1570"/>
<polygon fill="#bfbfbf" stroke="#bfbfbf" points="492.35,-1538 492.35,-1538 504.35,-1538 504.35,-1538 492.35,-1538"/>
<polygon fill="#bfbfbf" stroke="#bfbfbf" points="504.35,-1538 504.35,-1538 616.1,-1538 616.1,-1538 504.35,-1538"/>
<polygon fill="none" stroke="#bfbfbf" points="492.35,-1360 492.35,-1588 616.1,-1588 616.1,-1360 492.35,-1360"/>
</a>
</g>
</g>
<!-- Node2&#45;&gt;Node9 -->
<g id="edge12_Node000009_Node000002" class="edge">
<title>Node2&#45;&gt;Node9</title>
<g id="a_edge12_Node000009_Node000002"><a xlink:title=" ">
<path fill="none" stroke="#63b8ff" d="M482.18,-1615.08C486.42,-1606.84 491.17,-1597.61 496.15,-1587.92"/>
<polygon fill="none" stroke="#63b8ff" points="479.08,-1613.46 477.62,-1623.95 485.31,-1616.66 479.08,-1613.46"/>
</a>
</g>
</g>
<!-- Node3 -->
<g id="Node000003" class="node">
<title>Node3</title>
<g id="a_Node000003"><a xlink:href="class_crew_race_stat.html" target="_top" xlink:title=" ">
<polygon fill="white" stroke="none" points="78.47,-1262 5.97,-1262 5.97,-1210 78.47,-1210 78.47,-1262"/>
<text text-anchor="start" x="9.97" y="-1248.5" font-family="Helvetica,sans-Serif" font-size="10.00">CrewRaceStat</text>
<text text-anchor="start" x="14.79" y="-1232.5" font-family="Helvetica,sans-Serif" font-size="10.00">+</text>
<text text-anchor="start" x="29.6" y="-1232.5" font-family="Helvetica,sans-Serif" font-size="10.00">ByRace</text>
<text text-anchor="start" x="40.72" y="-1216.5" font-family="Helvetica,sans-Serif" font-size="10.00"> </text>
<polygon fill="#bfbfbf" stroke="#bfbfbf" points="5.97,-1244 5.97,-1244 78.47,-1244 78.47,-1244 5.97,-1244"/>
<polygon fill="#bfbfbf" stroke="#bfbfbf" points="5.97,-1228 5.97,-1228 27.6,-1228 27.6,-1228 5.97,-1228"/>
<polygon fill="#bfbfbf" stroke="#bfbfbf" points="27.6,-1228 27.6,-1228 78.47,-1228 78.47,-1228 27.6,-1228"/>
<polygon fill="none" stroke="#bfbfbf" points="5.97,-1210 5.97,-1262 78.47,-1262 78.47,-1210 5.97,-1210"/>
</a>
</g>
</g>
<!-- Node3&#45;&gt;Node1 -->
<g id="edge2_Node000001_Node000003" class="edge">
<title>Node3&#45;&gt;Node1</title>
<g id="a_edge2_Node000001_Node000003"><a xlink:title=" ">
<path fill="none" stroke="#63b8ff" d="M36.94,-1210.26C17.1,-1111.89 -46.34,-740.65 61.97,-468 92.06,-392.27 155.19,-324.45 207.74,-277.52"/>
<polygon fill="none" stroke="#63b8ff" points="207.74,-277.53 209.6,-270.56 216.75,-269.6 214.89,-276.57 207.74,-277.53"/>
</a>
</g>
<text text-anchor="middle" x="97.6" y="-786.5" font-family="Helvetica,sans-Serif" font-size="10.00" fill="grey"> +crewRaceStat</text>
</g>
<!-- Node4 -->
<g id="Node000004" class="node">
<title>Node4</title>
<g id="a_Node000004"><a xlink:title=" ">
<polygon fill="white" stroke="none" points="138.22,-1677 58.22,-1677 58.22,-1625 138.22,-1625 138.22,-1677"/>
<text text-anchor="start" x="62.22" y="-1663.5" font-family="Helvetica,sans-Serif" font-size="10.00">ScriptableObject</text>
<text text-anchor="start" x="96.72" y="-1647.5" font-family="Helvetica,sans-Serif" font-size="10.00"> </text>
<text text-anchor="start" x="96.72" y="-1631.5" font-family="Helvetica,sans-Serif" font-size="10.00"> </text>
<polygon fill="#bfbfbf" stroke="#bfbfbf" points="58.22,-1659 58.22,-1659 138.22,-1659 138.22,-1659 58.22,-1659"/>
<polygon fill="#bfbfbf" stroke="#bfbfbf" points="58.22,-1643 58.22,-1643 138.22,-1643 138.22,-1643 58.22,-1643"/>
<polygon fill="none" stroke="#bfbfbf" points="58.22,-1625 58.22,-1677 138.22,-1677 138.22,-1625 58.22,-1625"/>
</a>
</g>
</g>
<!-- Node4&#45;&gt;Node3 -->
<g id="edge3_Node000003_Node000004" class="edge">
<title>Node4&#45;&gt;Node3</title>
<g id="a_edge3_Node000003_Node000004"><a xlink:title=" ">
<path fill="none" stroke="#63b8ff" d="M93.32,-1613.84C82.17,-1531.57 55.12,-1332.12 45.61,-1261.94"/>
<polygon fill="none" stroke="#63b8ff" points="89.83,-1614.16 94.64,-1623.6 96.77,-1613.22 89.83,-1614.16"/>
</a>
</g>
</g>
<!-- Node5 -->
<g id="Node000005" class="node">
<title>Node5</title>
<g id="a_Node000005"><a xlink:href="class_equipment_item.html" target="_top" xlink:title=" ">
<polygon fill="white" stroke="none" points="203.22,-1342 83.22,-1342 83.22,-1130 203.22,-1130 203.22,-1342"/>
<text text-anchor="start" x="110.22" y="-1328.5" font-family="Helvetica,sans-Serif" font-size="10.00">EquipmentItem</text>
<text text-anchor="start" x="87.22" y="-1312.5" font-family="Helvetica,sans-Serif" font-size="10.00">+</text>
<text text-anchor="start" x="97.22" y="-1312.5" font-family="Helvetica,sans-Serif" font-size="10.00">eqIcon</text>
<text text-anchor="start" x="87.22" y="-1296.5" font-family="Helvetica,sans-Serif" font-size="10.00">+</text>
<text text-anchor="start" x="97.22" y="-1296.5" font-family="Helvetica,sans-Serif" font-size="10.00">eqName</text>
<text text-anchor="start" x="87.22" y="-1280.5" font-family="Helvetica,sans-Serif" font-size="10.00">+</text>
<text text-anchor="start" x="97.22" y="-1280.5" font-family="Helvetica,sans-Serif" font-size="10.00">eqType</text>
<text text-anchor="start" x="87.22" y="-1264.5" font-family="Helvetica,sans-Serif" font-size="10.00">+</text>
<text text-anchor="start" x="97.22" y="-1264.5" font-family="Helvetica,sans-Serif" font-size="10.00">eqPrice</text>
<text text-anchor="start" x="87.22" y="-1248.5" font-family="Helvetica,sans-Serif" font-size="10.00">+</text>
<text text-anchor="start" x="97.22" y="-1248.5" font-family="Helvetica,sans-Serif" font-size="10.00">isGlobalEquip</text>
<text text-anchor="start" x="87.22" y="-1232.5" font-family="Helvetica,sans-Serif" font-size="10.00">+</text>
<text text-anchor="start" x="97.22" y="-1232.5" font-family="Helvetica,sans-Serif" font-size="10.00">eqAttackBonus</text>
<text text-anchor="start" x="87.22" y="-1216.5" font-family="Helvetica,sans-Serif" font-size="10.00">+</text>
<text text-anchor="start" x="97.22" y="-1216.5" font-family="Helvetica,sans-Serif" font-size="10.00">eqDefenseBonus</text>
<text text-anchor="start" x="87.22" y="-1200.5" font-family="Helvetica,sans-Serif" font-size="10.00">+</text>
<text text-anchor="start" x="97.22" y="-1200.5" font-family="Helvetica,sans-Serif" font-size="10.00">eqHealthBonus</text>
<text text-anchor="start" x="87.22" y="-1184.5" font-family="Helvetica,sans-Serif" font-size="10.00">+</text>
<text text-anchor="start" x="97.22" y="-1184.5" font-family="Helvetica,sans-Serif" font-size="10.00">eqAdditionalPilotSkill</text>
<text text-anchor="start" x="87.22" y="-1168.5" font-family="Helvetica,sans-Serif" font-size="10.00">+</text>
<text text-anchor="start" x="97.22" y="-1168.5" font-family="Helvetica,sans-Serif" font-size="10.00">eqAdditionalEngineSkill</text>
<text text-anchor="start" x="97.22" y="-1152.5" font-family="Helvetica,sans-Serif" font-size="10.00">and 6 more...</text>
<text text-anchor="start" x="141.72" y="-1136.5" font-family="Helvetica,sans-Serif" font-size="10.00"> </text>
<polygon fill="#bfbfbf" stroke="#bfbfbf" points="83.22,-1324 83.22,-1324 203.22,-1324 203.22,-1324 83.22,-1324"/>
<polygon fill="#bfbfbf" stroke="#bfbfbf" points="83.22,-1148 83.22,-1148 95.22,-1148 95.22,-1148 83.22,-1148"/>
<polygon fill="#bfbfbf" stroke="#bfbfbf" points="95.22,-1148 95.22,-1148 203.22,-1148 203.22,-1148 95.22,-1148"/>
<polygon fill="none" stroke="#bfbfbf" points="83.22,-1130 83.22,-1342 203.22,-1342 203.22,-1130 83.22,-1130"/>
</a>
</g>
</g>
<!-- Node4&#45;&gt;Node5 -->
<g id="edge5_Node000005_Node000004" class="edge">
<title>Node4&#45;&gt;Node5</title>
<g id="a_edge5_Node000005_Node000004"><a xlink:title=" ">
<path fill="none" stroke="#63b8ff" d="M98.94,-1613.82C100.39,-1558.77 104.72,-1450.8 117.22,-1360 118.04,-1354.05 118.99,-1347.97 120.02,-1341.84"/>
<polygon fill="none" stroke="#63b8ff" points="95.44,-1613.46 98.7,-1623.54 102.44,-1613.63 95.44,-1613.46"/>
</a>
</g>
</g>
<!-- Node8 -->
<g id="Node000008" class="node">
<title>Node8</title>
<g id="a_Node000008"><a xlink:href="class_room_data.html" target="_top" xlink:title="모든 방 유형의 기본 데이터를 정의하는 추상 ScriptableObject">
<polygon fill="white" stroke="none" points="264.6,-1524 125.85,-1524 125.85,-1424 264.6,-1424 264.6,-1524"/>
<text text-anchor="start" x="171.6" y="-1510.5" font-family="Helvetica,sans-Serif" font-size="10.00">RoomData</text>
<text text-anchor="start" x="193.72" y="-1494.5" font-family="Helvetica,sans-Serif" font-size="10.00"> </text>
<text text-anchor="start" x="129.85" y="-1478.5" font-family="Helvetica,sans-Serif" font-size="10.00">+</text>
<text text-anchor="start" x="139.85" y="-1478.5" font-family="Helvetica,sans-Serif" font-size="10.00">GetRoomData()</text>
<text text-anchor="start" x="130.22" y="-1462.5" font-family="Helvetica,sans-Serif" font-size="10.00">#</text>
<text text-anchor="start" x="139.85" y="-1462.5" font-family="Helvetica,sans-Serif" font-size="10.00">InitializeDefaultLevels()</text>
<text text-anchor="start" x="130.22" y="-1446.5" font-family="Helvetica,sans-Serif" font-size="10.00">#</text>
<text text-anchor="start" x="139.85" y="-1446.5" font-family="Helvetica,sans-Serif" font-size="10.00">OnEnable()</text>
<text text-anchor="start" x="130.22" y="-1430.5" font-family="Helvetica,sans-Serif" font-size="10.00">#</text>
<text text-anchor="start" x="139.85" y="-1430.5" font-family="Helvetica,sans-Serif" font-size="10.00">CheckIfNeedsInitialization()</text>
<polygon fill="#666666" stroke="#666666" points="125.85,-1506 125.85,-1506 264.6,-1506 264.6,-1506 125.85,-1506"/>
<polygon fill="#666666" stroke="#666666" points="125.85,-1490 125.85,-1490 264.6,-1490 264.6,-1490 125.85,-1490"/>
<polygon fill="none" stroke="#666666" points="125.85,-1424 125.85,-1524 264.6,-1524 264.6,-1424 125.85,-1424"/>
</a>
</g>
</g>
<!-- Node4&#45;&gt;Node8 -->
<g id="edge10_Node000008_Node000004" class="edge">
<title>Node4&#45;&gt;Node8</title>
<g id="a_edge10_Node000008_Node000004"><a xlink:title=" ">
<path fill="none" stroke="#63b8ff" d="M117.38,-1615.44C131.91,-1589.23 152.06,-1552.87 168.22,-1523.72"/>
<polygon fill="none" stroke="#63b8ff" points="114.44,-1613.53 112.65,-1623.97 120.56,-1616.92 114.44,-1613.53"/>
</a>
</g>
</g>
<!-- Node5&#45;&gt;Node1 -->
<g id="edge4_Node000001_Node000005" class="edge">
<title>Node5&#45;&gt;Node1</title>
<g id="a_edge4_Node000001_Node000005"><a xlink:title=" ">
<path fill="none" stroke="#63b8ff" d="M138.92,-1130.24C135.16,-981.18 136.86,-700.17 188.97,-468 194.96,-441.35 203.37,-413.88 212.83,-387.25"/>
<polygon fill="none" stroke="#63b8ff" points="212.85,-387.21 211.14,-380.21 216.94,-375.93 218.66,-382.94 212.85,-387.21"/>
</a>
</g>
<text text-anchor="middle" x="233.6" y="-798.5" font-family="Helvetica,sans-Serif" font-size="10.00" fill="grey"> +equippedAssistant</text>
<text text-anchor="middle" x="233.6" y="-786.5" font-family="Helvetica,sans-Serif" font-size="10.00" fill="grey">+equippedShield</text>
<text text-anchor="middle" x="233.6" y="-774.5" font-family="Helvetica,sans-Serif" font-size="10.00" fill="grey">+equippedWeapon</text>
</g>
<!-- Node6&#45;&gt;Node1 -->
<g id="edge6_Node000001_Node000006" class="edge">
<title>Node6&#45;&gt;Node1</title>
<g id="a_edge6_Node000001_Node000006"><a xlink:title=" ">
<path fill="none" stroke="#63b8ff" d="M335.41,-468.31C333.39,-456.27 331.38,-444.31 329.4,-432.51"/>
<polygon fill="none" stroke="#63b8ff" points="329.39,-432.49 324.46,-427.23 327.41,-420.65 332.35,-425.91 329.39,-432.49"/>
</a>
</g>
<text text-anchor="middle" x="364.66" y="-440.5" font-family="Helvetica,sans-Serif" font-size="10.00" fill="grey"> +currentRoom</text>
</g>
<!-- Node7 -->
<g id="Node000007" class="node">
<title>Node7</title>
<g id="a_Node000007"><a xlink:href="interface_i_ship_stat_contributor.html" target="_top" xlink:title="ShipStat 에 영향을 주는 객체 인터페이스 모든 방들과 모든 선원은 전부 이에 해당한다. 방의 경우엔 RoomData 에 등록된 정보를 바탕으로 Ship에서 Contribute...">
<polygon fill="white" stroke="none" points="435.97,-1500 320.47,-1500 320.47,-1448 435.97,-1448 435.97,-1500"/>
<text text-anchor="start" x="333.97" y="-1486.5" font-family="Helvetica,sans-Serif" font-size="10.00">IShipStatContributor</text>
<text text-anchor="start" x="376.72" y="-1470.5" font-family="Helvetica,sans-Serif" font-size="10.00"> </text>
<text text-anchor="start" x="324.47" y="-1454.5" font-family="Helvetica,sans-Serif" font-size="10.00">+</text>
<text text-anchor="start" x="334.47" y="-1454.5" font-family="Helvetica,sans-Serif" font-size="10.00">GetStatContributions()</text>
<polygon fill="#666666" stroke="#666666" points="320.47,-1482 320.47,-1482 435.97,-1482 435.97,-1482 320.47,-1482"/>
<polygon fill="#666666" stroke="#666666" points="320.47,-1466 320.47,-1466 435.97,-1466 435.97,-1466 320.47,-1466"/>
<polygon fill="none" stroke="#666666" points="320.47,-1448 320.47,-1500 435.97,-1500 435.97,-1448 320.47,-1448"/>
</a>
</g>
</g>
<!-- Node7&#45;&gt;Node6 -->
<g id="edge8_Node000006_Node000007" class="edge">
<title>Node7&#45;&gt;Node6</title>
<g id="a_edge8_Node000006_Node000007"><a xlink:title=" ">
<path fill="none" stroke="#63b8ff" d="M378.81,-1436.83C379.81,-1374.52 381.96,-1241.1 384.05,-1111.62"/>
<polygon fill="none" stroke="#63b8ff" points="375.31,-1436.76 378.65,-1446.81 382.31,-1436.87 375.31,-1436.76"/>
</a>
</g>
</g>
<!-- Node8&#45;&gt;Node6 -->
<g id="edge9_Node000006_Node000008" class="edge">
<title>Node8&#45;&gt;Node6</title>
<g id="a_edge9_Node000006_Node000008"><a xlink:title=" ">
<path fill="none" stroke="#63b8ff" d="M209.1,-1424.23C231.41,-1345.8 276.77,-1186.34 316.38,-1047.07"/>
<polygon fill="none" stroke="#63b8ff" points="316.42,-1046.93 314.22,-1040.06 319.71,-1035.38 321.91,-1042.25 316.42,-1046.93"/>
</a>
</g>
<text text-anchor="middle" x="317.72" y="-1232.5" font-family="Helvetica,sans-Serif" font-size="10.00" fill="grey"> #roomData</text>
</g>
<!-- Node9&#45;&gt;Node1 -->
<g id="edge13_Node000001_Node000009" class="edge">
<title>Node9&#45;&gt;Node1</title>
<g id="a_edge13_Node000001_Node000009"><a xlink:title=" ">
<path fill="none" stroke="#63b8ff" d="M564.05,-1360.04C576.42,-1169.26 583.67,-774.1 467.22,-468 445.55,-411.01 408.93,-354.28 374.77,-308.67"/>
<polygon fill="none" stroke="#63b8ff" points="374.87,-308.8 368.06,-306.43 367.62,-299.23 374.43,-301.6 374.87,-308.8"/>
</a>
</g>
<text text-anchor="middle" x="599.39" y="-786.5" font-family="Helvetica,sans-Serif" font-size="10.00" fill="grey"> +currentShip</text>
</g>
<!-- Node9&#45;&gt;Node6 -->
<g id="edge11_Node000006_Node000009" class="edge">
<title>Node9&#45;&gt;Node6</title>
<g id="a_edge11_Node000006_Node000009"><a xlink:title=" ">
<path fill="none" stroke="#63b8ff" d="M503.78,-1360.11C501.83,-1354.04 500.04,-1347.98 498.47,-1342 474.49,-1250.3 492.09,-1223.28 475.22,-1130 471.17,-1107.59 466.46,-1084.47 461.37,-1061.32"/>
<polygon fill="none" stroke="#63b8ff" points="461.4,-1061.44 456.19,-1056.45 458.79,-1049.73 464,-1054.71 461.4,-1061.44"/>
</a>
</g>
<text text-anchor="middle" x="525.85" y="-1232.5" font-family="Helvetica,sans-Serif" font-size="10.00" fill="grey"> #parentShip</text>
</g>
</g>
</svg>

<g id="navigator" transform="translate(0 0)" fill="#404254">
  <rect fill="#f2f5e9" fill-opacity="0.5" stroke="#606060" stroke-width=".5" x="0" y="0" width="60" height="60"/>
  <use id="zoomplus" xlink:href="#zoomPlus" x="17" y="9" onmousedown="handleZoom(evt,'in')"/>
  <use id="zoomminus" xlink:href="#zoomMin" x="42" y="9" onmousedown="handleZoom(evt,'out')"/>
  <use id="reset" xlink:href="#resetDef" x="30" y="36" onmousedown="handleReset()"/>
   <use id="arrowup" xlink:href="#arrowUp" x="0" y="0" onmousedown="handlePan(0,-1)"/>
  <use id="arrowright" xlink:href="#arrowRight" x="0" y="0" onmousedown="handlePan(1,0)"/>
  <use id="arrowdown" xlink:href="#arrowDown" x="0" y="0" onmousedown="handlePan(0,1)"/>
  <use id="arrowleft" xlink:href="#arrowLeft" x="0" y="0" onmousedown="handlePan(-1,0)"/>
</g>
<svg viewBox="0 0 15 15" width="100%" height="30px" preserveAspectRatio="xMaxYMin meet">
 <g id="arrow_out" transform="scale(0.3 0.3)">
  <a xlink:href="class_crew_base__coll__graph_org.svg" target="_base">
   <rect id="button" ry="5" rx="5" y="6" x="6" height="38" width="38"
        fill="#f2f5e9" fill-opacity="0.5" stroke="#606060" stroke-width="1.0"/>
   <path id="arrow"
     d="M 11.500037,31.436501 C 11.940474,20.09759 22.043105,11.32322 32.158766,21.979434 L 37.068811,17.246167 C 37.068811,17.246167 37.088388,32 37.088388,32 L 22.160133,31.978069 C 22.160133,31.978069 26.997745,27.140456 26.997745,27.140456 C 18.528582,18.264221 13.291696,25.230495 11.500037,31.436501 z"
     style="fill:#404040;"/>
  </a>
 </g>
</svg>

<style type='text/css'>
<![CDATA[
[data-mouse-over-selected='false'] { opacity: 0.7; }
[data-mouse-over-selected='true']  { opacity: 1.0; }
]]>
</style>
<script type="application/ecmascript"><![CDATA[
document.addEventListener('DOMContentLoaded', (event) => {
  highlightEdges();
  highlightAdjacentNodes();
});
]]></script>
</svg>
