<?xml version="1.0" encoding="UTF-8" standalone="no"?>
<!DOCTYPE svg PUBLIC "-//W3C//DTD SVG 1.1//EN"
 "http://www.w3.org/Graphics/SVG/1.1/DTD/svg11.dtd">
<!-- Generated by graphviz version 12.2.1 (20241206.2353)
 -->
<!-- Title: HitPointSystem Pages: 1 -->
<svg width="133pt" height="610pt"
 viewBox="0.00 0.00 132.50 610.00" xmlns="http://www.w3.org/2000/svg" xmlns:xlink="http://www.w3.org/1999/xlink">
<g id="graph0" class="graph" transform="scale(1 1) rotate(0) translate(4 606)">
<title>HitPointSystem</title>
<!-- Node1 -->
<g id="Node000001" class="node">
<title>Node1</title>
<g id="a_Node000001"><a xlink:title=" ">
<polygon fill="#999999" stroke="none" points="124.5,-116 0,-116 0,0 124.5,0 124.5,-116"/>
<text text-anchor="start" x="27.75" y="-102.5" font-family="Helvetica,sans-Serif" font-size="10.00">HitPointSystem</text>
<text text-anchor="start" x="60.75" y="-86.5" font-family="Helvetica,sans-Serif" font-size="10.00"> </text>
<text text-anchor="start" x="4" y="-70.5" font-family="Helvetica,sans-Serif" font-size="10.00">+</text>
<text text-anchor="start" x="14" y="-70.5" font-family="Helvetica,sans-Serif" font-size="10.00">Initialize()</text>
<text text-anchor="start" x="4" y="-54.5" font-family="Helvetica,sans-Serif" font-size="10.00">+</text>
<text text-anchor="start" x="14" y="-54.5" font-family="Helvetica,sans-Serif" font-size="10.00">Update()</text>
<text text-anchor="start" x="4" y="-38.5" font-family="Helvetica,sans-Serif" font-size="10.00">+</text>
<text text-anchor="start" x="14" y="-38.5" font-family="Helvetica,sans-Serif" font-size="10.00">GetHitPoint()</text>
<text text-anchor="start" x="4" y="-22.5" font-family="Helvetica,sans-Serif" font-size="10.00">+</text>
<text text-anchor="start" x="14" y="-22.5" font-family="Helvetica,sans-Serif" font-size="10.00">GetHitPointPercentage()</text>
<text text-anchor="start" x="4" y="-6.5" font-family="Helvetica,sans-Serif" font-size="10.00">+</text>
<text text-anchor="start" x="14" y="-6.5" font-family="Helvetica,sans-Serif" font-size="10.00">ChangeHitPoint()</text>
<polygon fill="#666666" stroke="#666666" points="0,-98 0,-98 124.5,-98 124.5,-98 0,-98"/>
<polygon fill="#666666" stroke="#666666" points="0,-82 0,-82 124.5,-82 124.5,-82 0,-82"/>
<polygon fill="none" stroke="#666666" points="0,0 0,-116 124.5,-116 124.5,0 0,0"/>
</a>
</g>
</g>
<!-- Node2 -->
<g id="Node000002" class="node">
<title>Node2</title>
<g id="a_Node000002"><a xlink:href="class_ship_system.html" target="_top" xlink:title=" ">
<polygon fill="white" stroke="none" points="100.88,-237 23.62,-237 23.62,-153 100.88,-153 100.88,-237"/>
<text text-anchor="start" x="35.62" y="-223.5" font-family="Helvetica,sans-Serif" font-size="10.00">ShipSystem</text>
<text text-anchor="start" x="60.75" y="-207.5" font-family="Helvetica,sans-Serif" font-size="10.00"> </text>
<text text-anchor="start" x="27.62" y="-191.5" font-family="Helvetica,sans-Serif" font-size="10.00">+</text>
<text text-anchor="start" x="37.62" y="-191.5" font-family="Helvetica,sans-Serif" font-size="10.00">Initialize()</text>
<text text-anchor="start" x="27.62" y="-175.5" font-family="Helvetica,sans-Serif" font-size="10.00">+</text>
<text text-anchor="start" x="37.62" y="-175.5" font-family="Helvetica,sans-Serif" font-size="10.00">Update()</text>
<text text-anchor="start" x="28" y="-159.5" font-family="Helvetica,sans-Serif" font-size="10.00">#</text>
<text text-anchor="start" x="37.62" y="-159.5" font-family="Helvetica,sans-Serif" font-size="10.00">GetShipStat()</text>
<polygon fill="#bfbfbf" stroke="#bfbfbf" points="23.62,-219 23.62,-219 100.88,-219 100.88,-219 23.62,-219"/>
<polygon fill="#bfbfbf" stroke="#bfbfbf" points="23.62,-203 23.62,-203 100.88,-203 100.88,-203 23.62,-203"/>
<polygon fill="none" stroke="#bfbfbf" points="23.62,-153 23.62,-237 100.88,-237 100.88,-153 23.62,-153"/>
</a>
</g>
</g>
<!-- Node2&#45;&gt;Node1 -->
<g id="edge1_Node000001_Node000002" class="edge">
<title>Node2&#45;&gt;Node1</title>
<g id="a_edge1_Node000001_Node000002"><a xlink:title=" ">
<path fill="none" stroke="#63b8ff" d="M62.25,-141.75C62.25,-133.2 62.25,-124.32 62.25,-115.67"/>
<polygon fill="none" stroke="#63b8ff" points="58.75,-141.62 62.25,-151.62 65.75,-141.62 58.75,-141.62"/>
</a>
</g>
</g>
<!-- Node3 -->
<g id="Node000003" class="node">
<title>Node3</title>
<g id="a_Node000003"><a xlink:href="class_ship.html" target="_top" xlink:title=" ">
<polygon fill="white" stroke="none" points="124.12,-513 0.38,-513 0.38,-285 124.12,-285 124.12,-513"/>
<text text-anchor="start" x="52.5" y="-499.5" font-family="Helvetica,sans-Serif" font-size="10.00">Ship</text>
<text text-anchor="start" x="4.38" y="-483.5" font-family="Helvetica,sans-Serif" font-size="10.00">+</text>
<text text-anchor="start" x="14.38" y="-483.5" font-family="Helvetica,sans-Serif" font-size="10.00">testRoomPrefab1</text>
<text text-anchor="start" x="4.38" y="-467.5" font-family="Helvetica,sans-Serif" font-size="10.00">+</text>
<text text-anchor="start" x="14.38" y="-467.5" font-family="Helvetica,sans-Serif" font-size="10.00">testRoomPrefab2</text>
<text text-anchor="start" x="4.38" y="-451.5" font-family="Helvetica,sans-Serif" font-size="10.00">+</text>
<text text-anchor="start" x="14.38" y="-451.5" font-family="Helvetica,sans-Serif" font-size="10.00">AddRoom()</text>
<text text-anchor="start" x="4.38" y="-435.5" font-family="Helvetica,sans-Serif" font-size="10.00">+</text>
<text text-anchor="start" x="14.38" y="-435.5" font-family="Helvetica,sans-Serif" font-size="10.00">RemoveRoom()</text>
<text text-anchor="start" x="4.38" y="-419.5" font-family="Helvetica,sans-Serif" font-size="10.00">+</text>
<text text-anchor="start" x="14.38" y="-419.5" font-family="Helvetica,sans-Serif" font-size="10.00">AddDoor()</text>
<text text-anchor="start" x="4.38" y="-403.5" font-family="Helvetica,sans-Serif" font-size="10.00">+</text>
<text text-anchor="start" x="14.38" y="-403.5" font-family="Helvetica,sans-Serif" font-size="10.00">GetRoomOfType&lt; T &gt;()</text>
<text text-anchor="start" x="4.38" y="-387.5" font-family="Helvetica,sans-Serif" font-size="10.00">+</text>
<text text-anchor="start" x="14.38" y="-387.5" font-family="Helvetica,sans-Serif" font-size="10.00">GetRoomsByType()</text>
<text text-anchor="start" x="4.38" y="-371.5" font-family="Helvetica,sans-Serif" font-size="10.00">+</text>
<text text-anchor="start" x="14.38" y="-371.5" font-family="Helvetica,sans-Serif" font-size="10.00">GetSystem&lt; T &gt;()</text>
<text text-anchor="start" x="4.38" y="-355.5" font-family="Helvetica,sans-Serif" font-size="10.00">+</text>
<text text-anchor="start" x="14.38" y="-355.5" font-family="Helvetica,sans-Serif" font-size="10.00">RecalculateAllStats()</text>
<text text-anchor="start" x="4.38" y="-339.5" font-family="Helvetica,sans-Serif" font-size="10.00">+</text>
<text text-anchor="start" x="14.38" y="-339.5" font-family="Helvetica,sans-Serif" font-size="10.00">GetStat()</text>
<text text-anchor="start" x="4.38" y="-323.5" font-family="Helvetica,sans-Serif" font-size="10.00">+</text>
<text text-anchor="start" x="14.38" y="-323.5" font-family="Helvetica,sans-Serif" font-size="10.00">GetRoomContributions()</text>
<text text-anchor="start" x="4.38" y="-307.5" font-family="Helvetica,sans-Serif" font-size="10.00">+</text>
<text text-anchor="start" x="14.38" y="-307.5" font-family="Helvetica,sans-Serif" font-size="10.00">TakeDamage()</text>
<text text-anchor="start" x="14.38" y="-291.5" font-family="Helvetica,sans-Serif" font-size="10.00">and 14 more...</text>
<polygon fill="#bfbfbf" stroke="#bfbfbf" points="0.38,-495 0.38,-495 124.12,-495 124.12,-495 0.38,-495"/>
<polygon fill="#bfbfbf" stroke="#bfbfbf" points="0.38,-463 0.38,-463 12.38,-463 12.38,-463 0.38,-463"/>
<polygon fill="#bfbfbf" stroke="#bfbfbf" points="12.38,-463 12.38,-463 124.12,-463 124.12,-463 12.38,-463"/>
<polygon fill="none" stroke="#bfbfbf" points="0.38,-285 0.38,-513 124.12,-513 124.12,-285 0.38,-285"/>
</a>
</g>
</g>
<!-- Node3&#45;&gt;Node2 -->
<g id="edge2_Node000002_Node000003" class="edge">
<title>Node3&#45;&gt;Node2</title>
<g id="a_edge2_Node000002_Node000003"><a xlink:title=" ">
<path fill="none" stroke="#63b8ff" d="M62.25,-285.19C62.25,-272.85 62.25,-260.75 62.25,-249.65"/>
<polygon fill="none" stroke="#63b8ff" points="62.25,-249.54 58.25,-243.54 62.25,-237.54 66.25,-243.54 62.25,-249.54"/>
</a>
</g>
<text text-anchor="middle" x="89.62" y="-257.5" font-family="Helvetica,sans-Serif" font-size="10.00" fill="grey"> #parentShip</text>
</g>
<!-- Node4 -->
<g id="Node000004" class="node">
<title>Node4</title>
<g id="a_Node000004"><a xlink:title=" ">
<polygon fill="white" stroke="none" points="100,-602 24.5,-602 24.5,-550 100,-550 100,-602"/>
<text text-anchor="start" x="28.5" y="-588.5" font-family="Helvetica,sans-Serif" font-size="10.00">MonoBehaviour</text>
<text text-anchor="start" x="60.75" y="-572.5" font-family="Helvetica,sans-Serif" font-size="10.00"> </text>
<text text-anchor="start" x="60.75" y="-556.5" font-family="Helvetica,sans-Serif" font-size="10.00"> </text>
<polygon fill="#bfbfbf" stroke="#bfbfbf" points="24.5,-584 24.5,-584 100,-584 100,-584 24.5,-584"/>
<polygon fill="#bfbfbf" stroke="#bfbfbf" points="24.5,-568 24.5,-568 100,-568 100,-568 24.5,-568"/>
<polygon fill="none" stroke="#bfbfbf" points="24.5,-550 24.5,-602 100,-602 100,-550 24.5,-550"/>
</a>
</g>
</g>
<!-- Node4&#45;&gt;Node3 -->
<g id="edge3_Node000003_Node000004" class="edge">
<title>Node4&#45;&gt;Node3</title>
<g id="a_edge3_Node000003_Node000004"><a xlink:title=" ">
<path fill="none" stroke="#63b8ff" d="M62.25,-538.96C62.25,-531.01 62.25,-522.17 62.25,-512.92"/>
<polygon fill="none" stroke="#63b8ff" points="58.75,-538.78 62.25,-548.78 65.75,-538.78 58.75,-538.78"/>
</a>
</g>
</g>
</g>
</svg>
