<?xml version="1.0" encoding="UTF-8" standalone="no"?>
<!DOCTYPE svg PUBLIC "-//W3C//DTD SVG 1.1//EN"
 "http://www.w3.org/Graphics/SVG/1.1/DTD/svg11.dtd">
<!-- Generated by graphviz version 12.2.1 (20241206.2353)
 -->
<!-- Title: TeleportRoomData.TeleportRoomLevel Pages: 1 -->
<svg width="172pt" height="305pt"
 viewBox="0.00 0.00 172.25 305.00" xmlns="http://www.w3.org/2000/svg" xmlns:xlink="http://www.w3.org/1999/xlink">
<g id="graph0" class="graph" transform="scale(1 1) rotate(0) translate(4 301)">
<title>TeleportRoomData.TeleportRoomLevel</title>
<!-- Node1 -->
<g id="Node000001" class="node">
<title>Node1</title>
<g id="a_Node000001"><a xlink:title="텔레포트실의 레벨별 데이터 구조.">
<polygon fill="#999999" stroke="none" points="156.38,-72.5 7.88,-72.5 7.88,0 156.38,0 156.38,-72.5"/>
<text text-anchor="start" x="16.5" y="-59" font-family="Consolas" font-size="10.00">TeleportRoomData.Teleport</text>
<text text-anchor="start" x="58.5" y="-48.5" font-family="Consolas" font-size="10.00">RoomLevel</text>
<text text-anchor="start" x="11.88" y="-34" font-family="Consolas" font-size="10.00">+</text>
<text text-anchor="start" x="21.12" y="-34" font-family="Consolas" font-size="10.00">float teleportWaitingTime</text>
<text text-anchor="start" x="11.88" y="-19.5" font-family="Consolas" font-size="10.00">+</text>
<text text-anchor="start" x="21.12" y="-19.5" font-family="Consolas" font-size="10.00">float teleportRespawnTime</text>
<text text-anchor="start" x="79.5" y="-5" font-family="Consolas" font-size="10.00"> </text>
<polygon fill="#666666" stroke="#666666" points="7.88,-45.5 7.88,-45.5 156.38,-45.5 156.38,-45.5 7.88,-45.5"/>
<polygon fill="#666666" stroke="#666666" points="7.88,-16.5 7.88,-16.5 19.12,-16.5 19.12,-16.5 7.88,-16.5"/>
<polygon fill="#666666" stroke="#666666" points="19.12,-16.5 19.12,-16.5 156.38,-16.5 156.38,-16.5 19.12,-16.5"/>
<polygon fill="none" stroke="#666666" points="7.88,0 7.88,-72.5 156.38,-72.5 156.38,0 7.88,0"/>
</a>
</g>
</g>
<!-- Node2 -->
<g id="Node000002" class="node">
<title>Node2</title>
<g id="a_Node000002"><a xlink:href="class_room_data_1_1_room_level.html" target="_top" xlink:title=" ">
<polygon fill="white" stroke="none" points="164.25,-297 0,-297 0,-108.5 164.25,-108.5 164.25,-297"/>
<text text-anchor="start" x="34.88" y="-283.5" font-family="Consolas" font-size="10.00">RoomData.RoomLevel</text>
<text text-anchor="start" x="4" y="-269" font-family="Consolas" font-size="10.00">+</text>
<text text-anchor="start" x="13.25" y="-269" font-family="Consolas" font-size="10.00">string roomName</text>
<text text-anchor="start" x="4" y="-254.5" font-family="Consolas" font-size="10.00">+</text>
<text text-anchor="start" x="13.25" y="-254.5" font-family="Consolas" font-size="10.00">int level</text>
<text text-anchor="start" x="4" y="-240" font-family="Consolas" font-size="10.00">+</text>
<text text-anchor="start" x="13.25" y="-240" font-family="Consolas" font-size="10.00">int hitPoint</text>
<text text-anchor="start" x="4" y="-225.5" font-family="Consolas" font-size="10.00">+</text>
<text text-anchor="start" x="13.25" y="-225.5" font-family="Consolas" font-size="10.00">Vector2Int size</text>
<text text-anchor="start" x="4" y="-211" font-family="Consolas" font-size="10.00">+</text>
<text text-anchor="start" x="13.25" y="-211" font-family="Consolas" font-size="10.00">int cost</text>
<text text-anchor="start" x="4" y="-196.5" font-family="Consolas" font-size="10.00">+</text>
<text text-anchor="start" x="13.25" y="-196.5" font-family="Consolas" font-size="10.00">int rotation</text>
<text text-anchor="start" x="4" y="-182" font-family="Consolas" font-size="10.00">+</text>
<text text-anchor="start" x="13.25" y="-182" font-family="Consolas" font-size="10.00">int crewRequirement</text>
<text text-anchor="start" x="4" y="-167.5" font-family="Consolas" font-size="10.00">+</text>
<text text-anchor="start" x="13.25" y="-167.5" font-family="Consolas" font-size="10.00">float powerRequirement</text>
<text text-anchor="start" x="4" y="-153" font-family="Consolas" font-size="10.00">+</text>
<text text-anchor="start" x="13.25" y="-153" font-family="Consolas" font-size="10.00">Dictionary&lt; RoomDamageLevel,</text>
<text text-anchor="start" x="13.25" y="-142.5" font-family="Consolas" font-size="10.00"> float &gt; damageHitPointRate</text>
<text text-anchor="start" x="4" y="-128" font-family="Consolas" font-size="10.00">+</text>
<text text-anchor="start" x="13.25" y="-128" font-family="Consolas" font-size="10.00">Sprite roomSprite</text>
<text text-anchor="start" x="79.5" y="-113.5" font-family="Consolas" font-size="10.00"> </text>
<polygon fill="#bfbfbf" stroke="#bfbfbf" points="0,-280.5 0,-280.5 164.25,-280.5 164.25,-280.5 0,-280.5"/>
<polygon fill="#bfbfbf" stroke="#bfbfbf" points="0,-125 0,-125 11.25,-125 11.25,-125 0,-125"/>
<polygon fill="#bfbfbf" stroke="#bfbfbf" points="11.25,-125 11.25,-125 164.25,-125 164.25,-125 11.25,-125"/>
<polygon fill="none" stroke="#bfbfbf" points="0,-108.5 0,-297 164.25,-297 164.25,-108.5 0,-108.5"/>
</a>
</g>
</g>
<!-- Node2&#45;&gt;Node1 -->
<g id="edge1_Node000001_Node000002" class="edge">
<title>Node2&#45;&gt;Node1</title>
<g id="a_edge1_Node000001_Node000002"><a xlink:title=" ">
<path fill="none" stroke="#63b8ff" d="M82.12,-97.5C82.12,-88.61 82.12,-80.09 82.12,-72.4"/>
<polygon fill="none" stroke="#63b8ff" points="78.63,-97.41 82.13,-107.41 85.63,-97.41 78.63,-97.41"/>
</a>
</g>
</g>
</g>
</svg>
