<?xml version="1.0" encoding="UTF-8" standalone="no"?>
<!DOCTYPE svg PUBLIC "-//W3C//DTD SVG 1.1//EN"
 "http://www.w3.org/Graphics/SVG/1.1/DTD/svg11.dtd">
<!-- Generated by graphviz version 12.2.1 (20241206.2353)
 -->
<!-- Title: Room&lt; TData, TLevel &gt; Pages: 1 -->
<svg width="1602pt" height="1292pt"
 viewBox="0.00 0.00 1601.50 1292.00" xmlns="http://www.w3.org/2000/svg" xmlns:xlink="http://www.w3.org/1999/xlink">
<g id="graph0" class="graph" transform="scale(1 1) rotate(0) translate(4 1288)">
<title>Room&lt; TData, TLevel &gt;</title>
<!-- Node1 -->
<g id="Node000001" class="node">
<title>Node1</title>
<g id="a_Node000001"><a xlink:title="함선 내의 특화된 방 타입을 위한 제네릭 기본 클래스">
<polygon fill="#999999" stroke="none" points="857.75,-484 731.75,-484 731.75,-352 857.75,-352 857.75,-484"/>
<text text-anchor="start" x="742.25" y="-470.5" font-family="Helvetica,sans-Serif" font-size="10.00">Room&lt; TData, TLevel &gt;</text>
<text text-anchor="start" x="735.75" y="-454.5" font-family="Helvetica,sans-Serif" font-size="10.00">+</text>
<text text-anchor="start" x="745.75" y="-454.5" font-family="Helvetica,sans-Serif" font-size="10.00">roomData</text>
<text text-anchor="start" x="736.12" y="-438.5" font-family="Helvetica,sans-Serif" font-size="10.00">#</text>
<text text-anchor="start" x="745.75" y="-438.5" font-family="Helvetica,sans-Serif" font-size="10.00">currentRoomLevelData</text>
<text text-anchor="start" x="735.75" y="-422.5" font-family="Helvetica,sans-Serif" font-size="10.00">+</text>
<text text-anchor="start" x="745.75" y="-422.5" font-family="Helvetica,sans-Serif" font-size="10.00">GetCurrentLevelData()</text>
<text text-anchor="start" x="735.75" y="-406.5" font-family="Helvetica,sans-Serif" font-size="10.00">+</text>
<text text-anchor="start" x="745.75" y="-406.5" font-family="Helvetica,sans-Serif" font-size="10.00">Upgrade()</text>
<text text-anchor="start" x="735.75" y="-390.5" font-family="Helvetica,sans-Serif" font-size="10.00">+</text>
<text text-anchor="start" x="745.75" y="-390.5" font-family="Helvetica,sans-Serif" font-size="10.00">Initialize()</text>
<text text-anchor="start" x="736.12" y="-374.5" font-family="Helvetica,sans-Serif" font-size="10.00">#</text>
<text text-anchor="start" x="745.75" y="-374.5" font-family="Helvetica,sans-Serif" font-size="10.00">UpdateRoomLevelData()</text>
<text text-anchor="start" x="736.12" y="-358.5" font-family="Helvetica,sans-Serif" font-size="10.00">#</text>
<text text-anchor="start" x="745.75" y="-358.5" font-family="Helvetica,sans-Serif" font-size="10.00">Start()</text>
<polygon fill="#666666" stroke="#666666" points="731.75,-466 731.75,-466 857.75,-466 857.75,-466 731.75,-466"/>
<polygon fill="#666666" stroke="#666666" points="731.75,-434 731.75,-434 743.75,-434 743.75,-434 731.75,-434"/>
<polygon fill="#666666" stroke="#666666" points="743.75,-434 743.75,-434 857.75,-434 857.75,-434 743.75,-434"/>
<polygon fill="none" stroke="#666666" points="731.75,-352 731.75,-484 857.75,-484 857.75,-352 731.75,-352"/>
</a>
</g>
</g>
<!-- Node5 -->
<g id="Node000005" class="node">
<title>Node5</title>
<g id="a_Node000005"><a xlink:href="class_ammunition_room.html" target="_top" xlink:title="함선의 탄약고를 나타내는 클래스">
<polygon fill="white" stroke="none" points="115.5,-268 0,-268 0,-184 115.5,-184 115.5,-268"/>
<text text-anchor="start" x="18.75" y="-254.5" font-family="Helvetica,sans-Serif" font-size="10.00">AmmunitionRoom</text>
<text text-anchor="start" x="56.25" y="-238.5" font-family="Helvetica,sans-Serif" font-size="10.00"> </text>
<text text-anchor="start" x="4" y="-222.5" font-family="Helvetica,sans-Serif" font-size="10.00">+</text>
<text text-anchor="start" x="14" y="-222.5" font-family="Helvetica,sans-Serif" font-size="10.00">GetStatContributions()</text>
<text text-anchor="start" x="4" y="-206.5" font-family="Helvetica,sans-Serif" font-size="10.00">+</text>
<text text-anchor="start" x="14" y="-206.5" font-family="Helvetica,sans-Serif" font-size="10.00">TakeDamage()</text>
<text text-anchor="start" x="4.38" y="-190.5" font-family="Helvetica,sans-Serif" font-size="10.00">#</text>
<text text-anchor="start" x="14" y="-190.5" font-family="Helvetica,sans-Serif" font-size="10.00">Start()</text>
<polygon fill="#666666" stroke="#666666" points="0,-250 0,-250 115.5,-250 115.5,-250 0,-250"/>
<polygon fill="#666666" stroke="#666666" points="0,-234 0,-234 115.5,-234 115.5,-234 0,-234"/>
<polygon fill="none" stroke="#666666" points="0,-184 0,-268 115.5,-268 115.5,-184 0,-184"/>
</a>
</g>
</g>
<!-- Node1&#45;&gt;Node5 -->
<g id="edge4_Node000001_Node000005" class="edge">
<title>Node1&#45;&gt;Node5</title>
<g id="a_edge4_Node000001_Node000005"><a xlink:title=" ">
<path fill="none" stroke="#63b8ff" d="M720.69,-412.86C568.05,-403.21 224.37,-375.39 124.75,-316 105.65,-304.61 90.18,-285.49 78.95,-267.89"/>
<polygon fill="none" stroke="#63b8ff" points="720.08,-416.33 730.28,-413.46 720.51,-409.34 720.08,-416.33"/>
</a>
</g>
</g>
<!-- Node6 -->
<g id="Node000006" class="node">
<title>Node6</title>
<g id="a_Node000006"><a xlink:href="class_cockpit_room.html" target="_top" xlink:title=" ">
<polygon fill="white" stroke="none" points="249.5,-268 134,-268 134,-184 249.5,-184 249.5,-268"/>
<text text-anchor="start" x="161.75" y="-254.5" font-family="Helvetica,sans-Serif" font-size="10.00">CockpitRoom</text>
<text text-anchor="start" x="190.25" y="-238.5" font-family="Helvetica,sans-Serif" font-size="10.00"> </text>
<text text-anchor="start" x="138" y="-222.5" font-family="Helvetica,sans-Serif" font-size="10.00">+</text>
<text text-anchor="start" x="148" y="-222.5" font-family="Helvetica,sans-Serif" font-size="10.00">GetStatContributions()</text>
<text text-anchor="start" x="138" y="-206.5" font-family="Helvetica,sans-Serif" font-size="10.00">+</text>
<text text-anchor="start" x="148" y="-206.5" font-family="Helvetica,sans-Serif" font-size="10.00">TakeDamage()</text>
<text text-anchor="start" x="138.38" y="-190.5" font-family="Helvetica,sans-Serif" font-size="10.00">#</text>
<text text-anchor="start" x="148" y="-190.5" font-family="Helvetica,sans-Serif" font-size="10.00">Start()</text>
<polygon fill="#bfbfbf" stroke="#bfbfbf" points="134,-250 134,-250 249.5,-250 249.5,-250 134,-250"/>
<polygon fill="#bfbfbf" stroke="#bfbfbf" points="134,-234 134,-234 249.5,-234 249.5,-234 134,-234"/>
<polygon fill="none" stroke="#bfbfbf" points="134,-184 134,-268 249.5,-268 249.5,-184 134,-184"/>
</a>
</g>
</g>
<!-- Node1&#45;&gt;Node6 -->
<g id="edge5_Node000001_Node000006" class="edge">
<title>Node1&#45;&gt;Node6</title>
<g id="a_edge5_Node000001_Node000006"><a xlink:title=" ">
<path fill="none" stroke="#63b8ff" d="M720.52,-409.69C592.13,-395.95 334.98,-363.35 258.75,-316 239.86,-304.26 224.42,-285.11 213.14,-267.57"/>
<polygon fill="none" stroke="#63b8ff" points="719.97,-413.15 730.28,-410.72 720.71,-406.19 719.97,-413.15"/>
</a>
</g>
</g>
<!-- Node7 -->
<g id="Node000007" class="node">
<title>Node7</title>
<g id="a_Node000007"><a xlink:href="class_crew_quarters_room.html" target="_top" xlink:title="함선의 승무원 선실을 나타내는 클래스">
<polygon fill="white" stroke="none" points="383.5,-268 268,-268 268,-184 383.5,-184 383.5,-268"/>
<text text-anchor="start" x="282.25" y="-254.5" font-family="Helvetica,sans-Serif" font-size="10.00">CrewQuartersRoom</text>
<text text-anchor="start" x="272" y="-238.5" font-family="Helvetica,sans-Serif" font-size="10.00">+</text>
<text text-anchor="start" x="282" y="-238.5" font-family="Helvetica,sans-Serif" font-size="10.00">isPersonalRoom</text>
<text text-anchor="start" x="272" y="-222.5" font-family="Helvetica,sans-Serif" font-size="10.00">+</text>
<text text-anchor="start" x="282" y="-222.5" font-family="Helvetica,sans-Serif" font-size="10.00">GetStatContributions()</text>
<text text-anchor="start" x="272" y="-206.5" font-family="Helvetica,sans-Serif" font-size="10.00">+</text>
<text text-anchor="start" x="282" y="-206.5" font-family="Helvetica,sans-Serif" font-size="10.00">GetIsPersonalRoom()</text>
<text text-anchor="start" x="272.38" y="-190.5" font-family="Helvetica,sans-Serif" font-size="10.00">#</text>
<text text-anchor="start" x="282" y="-190.5" font-family="Helvetica,sans-Serif" font-size="10.00">Start()</text>
<polygon fill="#666666" stroke="#666666" points="268,-250 268,-250 383.5,-250 383.5,-250 268,-250"/>
<polygon fill="#666666" stroke="#666666" points="268,-234 268,-234 280,-234 280,-234 268,-234"/>
<polygon fill="#666666" stroke="#666666" points="280,-234 280,-234 383.5,-234 383.5,-234 280,-234"/>
<polygon fill="none" stroke="#666666" points="268,-184 268,-268 383.5,-268 383.5,-184 268,-184"/>
</a>
</g>
</g>
<!-- Node1&#45;&gt;Node7 -->
<g id="edge6_Node000001_Node000007" class="edge">
<title>Node1&#45;&gt;Node7</title>
<g id="a_edge6_Node000001_Node000007"><a xlink:title=" ">
<path fill="none" stroke="#63b8ff" d="M720.65,-413.1C635.18,-405.46 493.5,-382.85 392.75,-316 374.54,-303.92 359.35,-285.16 348.07,-267.98"/>
<polygon fill="none" stroke="#63b8ff" points="720.31,-416.58 730.57,-413.93 720.89,-409.61 720.31,-416.58"/>
</a>
</g>
</g>
<!-- Node8 -->
<g id="Node000008" class="node">
<title>Node8</title>
<g id="a_Node000008"><a xlink:href="class_engine_room.html" target="_top" xlink:title="함선의 엔진실을 나타내는 클래스">
<polygon fill="white" stroke="none" points="517.5,-268 402,-268 402,-184 517.5,-184 517.5,-268"/>
<text text-anchor="start" x="431.62" y="-254.5" font-family="Helvetica,sans-Serif" font-size="10.00">EngineRoom</text>
<text text-anchor="start" x="458.25" y="-238.5" font-family="Helvetica,sans-Serif" font-size="10.00"> </text>
<text text-anchor="start" x="406" y="-222.5" font-family="Helvetica,sans-Serif" font-size="10.00">+</text>
<text text-anchor="start" x="416" y="-222.5" font-family="Helvetica,sans-Serif" font-size="10.00">GetStatContributions()</text>
<text text-anchor="start" x="406" y="-206.5" font-family="Helvetica,sans-Serif" font-size="10.00">+</text>
<text text-anchor="start" x="416" y="-206.5" font-family="Helvetica,sans-Serif" font-size="10.00">TakeDamage()</text>
<text text-anchor="start" x="406.38" y="-190.5" font-family="Helvetica,sans-Serif" font-size="10.00">#</text>
<text text-anchor="start" x="416" y="-190.5" font-family="Helvetica,sans-Serif" font-size="10.00">Start()</text>
<polygon fill="#666666" stroke="#666666" points="402,-250 402,-250 517.5,-250 517.5,-250 402,-250"/>
<polygon fill="#666666" stroke="#666666" points="402,-234 402,-234 517.5,-234 517.5,-234 402,-234"/>
<polygon fill="none" stroke="#666666" points="402,-184 402,-268 517.5,-268 517.5,-184 402,-184"/>
</a>
</g>
</g>
<!-- Node1&#45;&gt;Node8 -->
<g id="edge7_Node000001_Node000008" class="edge">
<title>Node1&#45;&gt;Node8</title>
<g id="a_edge7_Node000001_Node000008"><a xlink:title=" ">
<path fill="none" stroke="#63b8ff" d="M720.75,-401.12C663.61,-386.17 584.76,-359.46 526.75,-316 509.57,-303.13 494.69,-284.69 483.35,-267.93"/>
<polygon fill="none" stroke="#63b8ff" points="719.86,-404.51 730.41,-403.58 721.59,-397.72 719.86,-404.51"/>
</a>
</g>
</g>
<!-- Node9 -->
<g id="Node000009" class="node">
<title>Node9</title>
<g id="a_Node000009"><a xlink:href="class_life_support_room.html" target="_top" xlink:title="함선의 생활 편의 시설을 나타내는 클래스">
<polygon fill="white" stroke="none" points="651.5,-260 536,-260 536,-192 651.5,-192 651.5,-260"/>
<text text-anchor="start" x="555.88" y="-246.5" font-family="Helvetica,sans-Serif" font-size="10.00">LifeSupportRoom</text>
<text text-anchor="start" x="592.25" y="-230.5" font-family="Helvetica,sans-Serif" font-size="10.00"> </text>
<text text-anchor="start" x="540" y="-214.5" font-family="Helvetica,sans-Serif" font-size="10.00">+</text>
<text text-anchor="start" x="550" y="-214.5" font-family="Helvetica,sans-Serif" font-size="10.00">GetStatContributions()</text>
<text text-anchor="start" x="540.38" y="-198.5" font-family="Helvetica,sans-Serif" font-size="10.00">#</text>
<text text-anchor="start" x="550" y="-198.5" font-family="Helvetica,sans-Serif" font-size="10.00">Start()</text>
<polygon fill="#666666" stroke="#666666" points="536,-242 536,-242 651.5,-242 651.5,-242 536,-242"/>
<polygon fill="#666666" stroke="#666666" points="536,-226 536,-226 651.5,-226 651.5,-226 536,-226"/>
<polygon fill="none" stroke="#666666" points="536,-192 536,-260 651.5,-260 651.5,-192 536,-192"/>
</a>
</g>
</g>
<!-- Node1&#45;&gt;Node9 -->
<g id="edge8_Node000001_Node000009" class="edge">
<title>Node1&#45;&gt;Node9</title>
<g id="a_edge8_Node000001_Node000009"><a xlink:title=" ">
<path fill="none" stroke="#63b8ff" d="M722.58,-368.37C701.64,-352.77 679.41,-334.67 660.75,-316 643.66,-298.9 627.29,-277.28 615,-259.63"/>
<polygon fill="none" stroke="#63b8ff" points="720.43,-371.13 730.56,-374.23 724.57,-365.49 720.43,-371.13"/>
</a>
</g>
</g>
<!-- Node10 -->
<g id="Node000010" class="node">
<title>Node10</title>
<g id="a_Node000010"><a xlink:href="class_med_bay_room.html" target="_top" xlink:title="함선의 의무실을 나타내는 클래스">
<polygon fill="white" stroke="none" points="785.5,-268 670,-268 670,-184 785.5,-184 785.5,-268"/>
<text text-anchor="start" x="696.62" y="-254.5" font-family="Helvetica,sans-Serif" font-size="10.00">MedBayRoom</text>
<text text-anchor="start" x="726.25" y="-238.5" font-family="Helvetica,sans-Serif" font-size="10.00"> </text>
<text text-anchor="start" x="674" y="-222.5" font-family="Helvetica,sans-Serif" font-size="10.00">+</text>
<text text-anchor="start" x="684" y="-222.5" font-family="Helvetica,sans-Serif" font-size="10.00">GetStatContributions()</text>
<text text-anchor="start" x="674" y="-206.5" font-family="Helvetica,sans-Serif" font-size="10.00">+</text>
<text text-anchor="start" x="684" y="-206.5" font-family="Helvetica,sans-Serif" font-size="10.00">TakeDamage()</text>
<text text-anchor="start" x="674.38" y="-190.5" font-family="Helvetica,sans-Serif" font-size="10.00">#</text>
<text text-anchor="start" x="684" y="-190.5" font-family="Helvetica,sans-Serif" font-size="10.00">Start()</text>
<polygon fill="#666666" stroke="#666666" points="670,-250 670,-250 785.5,-250 785.5,-250 670,-250"/>
<polygon fill="#666666" stroke="#666666" points="670,-234 670,-234 785.5,-234 785.5,-234 670,-234"/>
<polygon fill="none" stroke="#666666" points="670,-184 670,-268 785.5,-268 785.5,-184 670,-184"/>
</a>
</g>
</g>
<!-- Node1&#45;&gt;Node10 -->
<g id="edge9_Node000001_Node000010" class="edge">
<title>Node1&#45;&gt;Node10</title>
<g id="a_edge9_Node000001_Node000010"><a xlink:title=" ">
<path fill="none" stroke="#63b8ff" d="M768.13,-341.5C759.26,-316.35 749.71,-289.29 742.13,-267.79"/>
<polygon fill="none" stroke="#63b8ff" points="764.75,-342.45 771.38,-350.72 771.35,-340.12 764.75,-342.45"/>
</a>
</g>
</g>
<!-- Node11 -->
<g id="Node000011" class="node">
<title>Node11</title>
<g id="a_Node000011"><a xlink:href="class_oxygen_room.html" target="_top" xlink:title="함선의 산소실을 나타내는 클래스">
<polygon fill="white" stroke="none" points="919.5,-268 804,-268 804,-184 919.5,-184 919.5,-268"/>
<text text-anchor="start" x="831.75" y="-254.5" font-family="Helvetica,sans-Serif" font-size="10.00">OxygenRoom</text>
<text text-anchor="start" x="860.25" y="-238.5" font-family="Helvetica,sans-Serif" font-size="10.00"> </text>
<text text-anchor="start" x="808" y="-222.5" font-family="Helvetica,sans-Serif" font-size="10.00">+</text>
<text text-anchor="start" x="818" y="-222.5" font-family="Helvetica,sans-Serif" font-size="10.00">GetStatContributions()</text>
<text text-anchor="start" x="808" y="-206.5" font-family="Helvetica,sans-Serif" font-size="10.00">+</text>
<text text-anchor="start" x="818" y="-206.5" font-family="Helvetica,sans-Serif" font-size="10.00">TakeDamage()</text>
<text text-anchor="start" x="808.38" y="-190.5" font-family="Helvetica,sans-Serif" font-size="10.00">#</text>
<text text-anchor="start" x="818" y="-190.5" font-family="Helvetica,sans-Serif" font-size="10.00">Start()</text>
<polygon fill="#666666" stroke="#666666" points="804,-250 804,-250 919.5,-250 919.5,-250 804,-250"/>
<polygon fill="#666666" stroke="#666666" points="804,-234 804,-234 919.5,-234 919.5,-234 804,-234"/>
<polygon fill="none" stroke="#666666" points="804,-184 804,-268 919.5,-268 919.5,-184 804,-184"/>
</a>
</g>
</g>
<!-- Node1&#45;&gt;Node11 -->
<g id="edge10_Node000001_Node000011" class="edge">
<title>Node1&#45;&gt;Node11</title>
<g id="a_edge10_Node000001_Node000011"><a xlink:title=" ">
<path fill="none" stroke="#63b8ff" d="M821.37,-341.5C830.24,-316.35 839.79,-289.29 847.37,-267.79"/>
<polygon fill="none" stroke="#63b8ff" points="818.15,-340.12 818.12,-350.72 824.75,-342.45 818.15,-340.12"/>
</a>
</g>
</g>
<!-- Node12 -->
<g id="Node000012" class="node">
<title>Node12</title>
<g id="a_Node000012"><a xlink:href="class_power_room.html" target="_top" xlink:title="함선의 전력실을 나타내는 클래스">
<polygon fill="white" stroke="none" points="1053.5,-268 938,-268 938,-184 1053.5,-184 1053.5,-268"/>
<text text-anchor="start" x="968.75" y="-254.5" font-family="Helvetica,sans-Serif" font-size="10.00">PowerRoom</text>
<text text-anchor="start" x="994.25" y="-238.5" font-family="Helvetica,sans-Serif" font-size="10.00"> </text>
<text text-anchor="start" x="942" y="-222.5" font-family="Helvetica,sans-Serif" font-size="10.00">+</text>
<text text-anchor="start" x="952" y="-222.5" font-family="Helvetica,sans-Serif" font-size="10.00">GetStatContributions()</text>
<text text-anchor="start" x="942" y="-206.5" font-family="Helvetica,sans-Serif" font-size="10.00">+</text>
<text text-anchor="start" x="952" y="-206.5" font-family="Helvetica,sans-Serif" font-size="10.00">TakeDamage()</text>
<text text-anchor="start" x="942.38" y="-190.5" font-family="Helvetica,sans-Serif" font-size="10.00">#</text>
<text text-anchor="start" x="952" y="-190.5" font-family="Helvetica,sans-Serif" font-size="10.00">Start()</text>
<polygon fill="#666666" stroke="#666666" points="938,-250 938,-250 1053.5,-250 1053.5,-250 938,-250"/>
<polygon fill="#666666" stroke="#666666" points="938,-234 938,-234 1053.5,-234 1053.5,-234 938,-234"/>
<polygon fill="none" stroke="#666666" points="938,-184 938,-268 1053.5,-268 1053.5,-184 938,-184"/>
</a>
</g>
</g>
<!-- Node1&#45;&gt;Node12 -->
<g id="edge11_Node000001_Node000012" class="edge">
<title>Node1&#45;&gt;Node12</title>
<g id="a_edge11_Node000001_Node000012"><a xlink:title=" ">
<path fill="none" stroke="#63b8ff" d="M866.92,-368.37C887.86,-352.77 910.09,-334.67 928.75,-316 943.24,-301.5 957.22,-283.75 968.62,-267.92"/>
<polygon fill="none" stroke="#63b8ff" points="864.93,-365.49 858.94,-374.23 869.07,-371.13 864.93,-365.49"/>
</a>
</g>
</g>
<!-- Node13 -->
<g id="Node000013" class="node">
<title>Node13</title>
<g id="a_Node000013"><a xlink:href="class_shield_room.html" target="_top" xlink:title="함선의 배리어실을 나타내는 클래스">
<polygon fill="white" stroke="none" points="1187.5,-268 1072,-268 1072,-184 1187.5,-184 1187.5,-268"/>
<text text-anchor="start" x="1103.12" y="-254.5" font-family="Helvetica,sans-Serif" font-size="10.00">ShieldRoom</text>
<text text-anchor="start" x="1128.25" y="-238.5" font-family="Helvetica,sans-Serif" font-size="10.00"> </text>
<text text-anchor="start" x="1076" y="-222.5" font-family="Helvetica,sans-Serif" font-size="10.00">+</text>
<text text-anchor="start" x="1086" y="-222.5" font-family="Helvetica,sans-Serif" font-size="10.00">GetStatContributions()</text>
<text text-anchor="start" x="1076" y="-206.5" font-family="Helvetica,sans-Serif" font-size="10.00">+</text>
<text text-anchor="start" x="1086" y="-206.5" font-family="Helvetica,sans-Serif" font-size="10.00">TakeDamage()</text>
<text text-anchor="start" x="1076.38" y="-190.5" font-family="Helvetica,sans-Serif" font-size="10.00">#</text>
<text text-anchor="start" x="1086" y="-190.5" font-family="Helvetica,sans-Serif" font-size="10.00">Start()</text>
<polygon fill="#666666" stroke="#666666" points="1072,-250 1072,-250 1187.5,-250 1187.5,-250 1072,-250"/>
<polygon fill="#666666" stroke="#666666" points="1072,-234 1072,-234 1187.5,-234 1187.5,-234 1072,-234"/>
<polygon fill="none" stroke="#666666" points="1072,-184 1072,-268 1187.5,-268 1187.5,-184 1072,-184"/>
</a>
</g>
</g>
<!-- Node1&#45;&gt;Node13 -->
<g id="edge12_Node000001_Node000013" class="edge">
<title>Node1&#45;&gt;Node13</title>
<g id="a_edge12_Node000001_Node000013"><a xlink:title=" ">
<path fill="none" stroke="#63b8ff" d="M868.75,-401.12C925.89,-386.17 1004.74,-359.46 1062.75,-316 1079.93,-303.13 1094.81,-284.69 1106.15,-267.93"/>
<polygon fill="none" stroke="#63b8ff" points="867.91,-397.72 859.09,-403.58 869.64,-404.51 867.91,-397.72"/>
</a>
</g>
</g>
<!-- Node14 -->
<g id="Node000014" class="node">
<title>Node14</title>
<g id="a_Node000014"><a xlink:href="class_storage_room_base.html" target="_top" xlink:title="모든 창고 타입의 기본 클래스">
<polygon fill="white" stroke="none" points="1326.12,-316 1205.38,-316 1205.38,-136 1326.12,-136 1326.12,-316"/>
<text text-anchor="start" x="1224.5" y="-302.5" font-family="Helvetica,sans-Serif" font-size="10.00">StorageRoomBase</text>
<text text-anchor="start" x="1209.75" y="-286.5" font-family="Helvetica,sans-Serif" font-size="10.00">#</text>
<text text-anchor="start" x="1219.38" y="-286.5" font-family="Helvetica,sans-Serif" font-size="10.00">storageType</text>
<text text-anchor="start" x="1209.75" y="-270.5" font-family="Helvetica,sans-Serif" font-size="10.00">#</text>
<text text-anchor="start" x="1219.38" y="-270.5" font-family="Helvetica,sans-Serif" font-size="10.00">storedItems</text>
<text text-anchor="start" x="1209.38" y="-254.5" font-family="Helvetica,sans-Serif" font-size="10.00">+</text>
<text text-anchor="start" x="1219.38" y="-254.5" font-family="Helvetica,sans-Serif" font-size="10.00">GetStatContributions()</text>
<text text-anchor="start" x="1209.38" y="-238.5" font-family="Helvetica,sans-Serif" font-size="10.00">+</text>
<text text-anchor="start" x="1219.38" y="-238.5" font-family="Helvetica,sans-Serif" font-size="10.00">GetStorageType()</text>
<text text-anchor="start" x="1209.38" y="-222.5" font-family="Helvetica,sans-Serif" font-size="10.00">+</text>
<text text-anchor="start" x="1219.38" y="-222.5" font-family="Helvetica,sans-Serif" font-size="10.00">CanStoreItem()</text>
<text text-anchor="start" x="1209.38" y="-206.5" font-family="Helvetica,sans-Serif" font-size="10.00">+</text>
<text text-anchor="start" x="1219.38" y="-206.5" font-family="Helvetica,sans-Serif" font-size="10.00">AddItem()</text>
<text text-anchor="start" x="1209.38" y="-190.5" font-family="Helvetica,sans-Serif" font-size="10.00">+</text>
<text text-anchor="start" x="1219.38" y="-190.5" font-family="Helvetica,sans-Serif" font-size="10.00">RemoveItem()</text>
<text text-anchor="start" x="1209.38" y="-174.5" font-family="Helvetica,sans-Serif" font-size="10.00">+</text>
<text text-anchor="start" x="1219.38" y="-174.5" font-family="Helvetica,sans-Serif" font-size="10.00">CheckItemsAfterWarp()</text>
<text text-anchor="start" x="1209.75" y="-158.5" font-family="Helvetica,sans-Serif" font-size="10.00">#</text>
<text text-anchor="start" x="1219.38" y="-158.5" font-family="Helvetica,sans-Serif" font-size="10.00">Start()</text>
<text text-anchor="start" x="1209.75" y="-142.5" font-family="Helvetica,sans-Serif" font-size="10.00">#</text>
<text text-anchor="start" x="1219.38" y="-142.5" font-family="Helvetica,sans-Serif" font-size="10.00">DegradeItemState()</text>
<polygon fill="#666666" stroke="#666666" points="1205.38,-298 1205.38,-298 1326.12,-298 1326.12,-298 1205.38,-298"/>
<polygon fill="#666666" stroke="#666666" points="1205.38,-266 1205.38,-266 1217.38,-266 1217.38,-266 1205.38,-266"/>
<polygon fill="#666666" stroke="#666666" points="1217.38,-266 1217.38,-266 1326.12,-266 1326.12,-266 1217.38,-266"/>
<polygon fill="none" stroke="#666666" points="1205.38,-136 1205.38,-316 1326.12,-316 1326.12,-136 1205.38,-136"/>
</a>
</g>
</g>
<!-- Node1&#45;&gt;Node14 -->
<g id="edge13_Node000001_Node000014" class="edge">
<title>Node1&#45;&gt;Node14</title>
<g id="a_edge13_Node000001_Node000014"><a xlink:title=" ">
<path fill="none" stroke="#63b8ff" d="M869.04,-412.81C954.4,-404.9 1095.67,-382.04 1196.75,-316 1199.86,-313.97 1202.89,-311.75 1205.83,-309.38"/>
<polygon fill="none" stroke="#63b8ff" points="868.8,-409.32 859.15,-413.68 869.41,-416.29 868.8,-409.32"/>
</a>
</g>
</g>
<!-- Node18 -->
<g id="Node000018" class="node">
<title>Node18</title>
<g id="a_Node000018"><a xlink:href="class_teleport_room.html" target="_top" xlink:title="함선의 텔레포트실을 나타내는 클래스">
<polygon fill="white" stroke="none" points="1459.5,-268 1344,-268 1344,-184 1459.5,-184 1459.5,-268"/>
<text text-anchor="start" x="1371.38" y="-254.5" font-family="Helvetica,sans-Serif" font-size="10.00">TeleportRoom</text>
<text text-anchor="start" x="1400.25" y="-238.5" font-family="Helvetica,sans-Serif" font-size="10.00"> </text>
<text text-anchor="start" x="1348" y="-222.5" font-family="Helvetica,sans-Serif" font-size="10.00">+</text>
<text text-anchor="start" x="1358" y="-222.5" font-family="Helvetica,sans-Serif" font-size="10.00">GetStatContributions()</text>
<text text-anchor="start" x="1348" y="-206.5" font-family="Helvetica,sans-Serif" font-size="10.00">+</text>
<text text-anchor="start" x="1358" y="-206.5" font-family="Helvetica,sans-Serif" font-size="10.00">TakeDamage()</text>
<text text-anchor="start" x="1348.38" y="-190.5" font-family="Helvetica,sans-Serif" font-size="10.00">#</text>
<text text-anchor="start" x="1358" y="-190.5" font-family="Helvetica,sans-Serif" font-size="10.00">Start()</text>
<polygon fill="#666666" stroke="#666666" points="1344,-250 1344,-250 1459.5,-250 1459.5,-250 1344,-250"/>
<polygon fill="#666666" stroke="#666666" points="1344,-234 1344,-234 1459.5,-234 1459.5,-234 1344,-234"/>
<polygon fill="none" stroke="#666666" points="1344,-184 1344,-268 1459.5,-268 1459.5,-184 1344,-184"/>
</a>
</g>
</g>
<!-- Node1&#45;&gt;Node18 -->
<g id="edge17_Node000001_Node000018" class="edge">
<title>Node1&#45;&gt;Node18</title>
<g id="a_edge17_Node000001_Node000018"><a xlink:title=" ">
<path fill="none" stroke="#63b8ff" d="M869.03,-409.8C998.22,-396.18 1257.84,-363.7 1334.75,-316 1353.65,-304.28 1369.09,-285.13 1380.37,-267.59"/>
<polygon fill="none" stroke="#63b8ff" points="868.79,-406.3 859.2,-410.82 869.51,-413.27 868.79,-406.3"/>
</a>
</g>
</g>
<!-- Node19 -->
<g id="Node000019" class="node">
<title>Node19</title>
<g id="a_Node000019"><a xlink:href="class_weapon_control_room.html" target="_top" xlink:title="함선의 조준석을 나타내는 클래스">
<polygon fill="white" stroke="none" points="1593.5,-268 1478,-268 1478,-184 1593.5,-184 1593.5,-268"/>
<text text-anchor="start" x="1489.25" y="-254.5" font-family="Helvetica,sans-Serif" font-size="10.00">WeaponControlRoom</text>
<text text-anchor="start" x="1534.25" y="-238.5" font-family="Helvetica,sans-Serif" font-size="10.00"> </text>
<text text-anchor="start" x="1482" y="-222.5" font-family="Helvetica,sans-Serif" font-size="10.00">+</text>
<text text-anchor="start" x="1492" y="-222.5" font-family="Helvetica,sans-Serif" font-size="10.00">GetStatContributions()</text>
<text text-anchor="start" x="1482" y="-206.5" font-family="Helvetica,sans-Serif" font-size="10.00">+</text>
<text text-anchor="start" x="1492" y="-206.5" font-family="Helvetica,sans-Serif" font-size="10.00">TakeDamage()</text>
<text text-anchor="start" x="1482.38" y="-190.5" font-family="Helvetica,sans-Serif" font-size="10.00">#</text>
<text text-anchor="start" x="1492" y="-190.5" font-family="Helvetica,sans-Serif" font-size="10.00">Start()</text>
<polygon fill="#666666" stroke="#666666" points="1478,-250 1478,-250 1593.5,-250 1593.5,-250 1478,-250"/>
<polygon fill="#666666" stroke="#666666" points="1478,-234 1478,-234 1593.5,-234 1593.5,-234 1478,-234"/>
<polygon fill="none" stroke="#666666" points="1478,-184 1478,-268 1593.5,-268 1593.5,-184 1478,-184"/>
</a>
</g>
</g>
<!-- Node1&#45;&gt;Node19 -->
<g id="edge18_Node000001_Node000019" class="edge">
<title>Node1&#45;&gt;Node19</title>
<g id="a_edge18_Node000001_Node000019"><a xlink:title=" ">
<path fill="none" stroke="#63b8ff" d="M868.68,-412.94C1021.94,-403.42 1368.4,-375.76 1468.75,-316 1487.86,-304.62 1503.32,-285.5 1514.56,-267.9"/>
<polygon fill="none" stroke="#63b8ff" points="868.82,-409.43 859.05,-413.53 869.25,-416.42 868.82,-409.43"/>
</a>
</g>
</g>
<!-- Node2 -->
<g id="Node000002" class="node">
<title>Node2</title>
<g id="a_Node000002"><a xlink:href="class_room.html" target="_top" xlink:title="함선 내의 모든 방의 기본 클래스">
<polygon fill="white" stroke="none" points="864.12,-1196 725.38,-1196 725.38,-520 864.12,-520 864.12,-1196"/>
<text text-anchor="start" x="781.62" y="-1182.5" font-family="Helvetica,sans-Serif" font-size="10.00">Room</text>
<text text-anchor="start" x="729.38" y="-1166.5" font-family="Helvetica,sans-Serif" font-size="10.00">+</text>
<text text-anchor="start" x="739.38" y="-1166.5" font-family="Helvetica,sans-Serif" font-size="10.00">roomData</text>
<text text-anchor="start" x="729.38" y="-1150.5" font-family="Helvetica,sans-Serif" font-size="10.00">+</text>
<text text-anchor="start" x="739.38" y="-1150.5" font-family="Helvetica,sans-Serif" font-size="10.00">position</text>
<text text-anchor="start" x="729.38" y="-1134.5" font-family="Helvetica,sans-Serif" font-size="10.00">+</text>
<text text-anchor="start" x="739.38" y="-1134.5" font-family="Helvetica,sans-Serif" font-size="10.00">currentLevel</text>
<text text-anchor="start" x="729.38" y="-1118.5" font-family="Helvetica,sans-Serif" font-size="10.00">+</text>
<text text-anchor="start" x="739.38" y="-1118.5" font-family="Helvetica,sans-Serif" font-size="10.00">maxLevel</text>
<text text-anchor="start" x="729.38" y="-1102.5" font-family="Helvetica,sans-Serif" font-size="10.00">+</text>
<text text-anchor="start" x="739.38" y="-1102.5" font-family="Helvetica,sans-Serif" font-size="10.00">roomType</text>
<text text-anchor="start" x="729.38" y="-1086.5" font-family="Helvetica,sans-Serif" font-size="10.00">+</text>
<text text-anchor="start" x="739.38" y="-1086.5" font-family="Helvetica,sans-Serif" font-size="10.00">crewInRoom</text>
<text text-anchor="start" x="729.38" y="-1070.5" font-family="Helvetica,sans-Serif" font-size="10.00">+</text>
<text text-anchor="start" x="739.38" y="-1070.5" font-family="Helvetica,sans-Serif" font-size="10.00">gridSize</text>
<text text-anchor="start" x="729.38" y="-1054.5" font-family="Helvetica,sans-Serif" font-size="10.00">+</text>
<text text-anchor="start" x="739.38" y="-1054.5" font-family="Helvetica,sans-Serif" font-size="10.00">isPlaced</text>
<text text-anchor="start" x="729.75" y="-1038.5" font-family="Helvetica,sans-Serif" font-size="10.00">#</text>
<text text-anchor="start" x="739.38" y="-1038.5" font-family="Helvetica,sans-Serif" font-size="10.00">currentHitPoints</text>
<text text-anchor="start" x="729.75" y="-1022.5" font-family="Helvetica,sans-Serif" font-size="10.00">#</text>
<text text-anchor="start" x="739.38" y="-1022.5" font-family="Helvetica,sans-Serif" font-size="10.00">oxygenLevel</text>
<text text-anchor="start" x="729.75" y="-1006.5" font-family="Helvetica,sans-Serif" font-size="10.00">#</text>
<text text-anchor="start" x="739.38" y="-1006.5" font-family="Helvetica,sans-Serif" font-size="10.00">adjacentRooms</text>
<text text-anchor="start" x="729.75" y="-990.5" font-family="Helvetica,sans-Serif" font-size="10.00">#</text>
<text text-anchor="start" x="739.38" y="-990.5" font-family="Helvetica,sans-Serif" font-size="10.00">connectedDoors</text>
<text text-anchor="start" x="729.75" y="-974.5" font-family="Helvetica,sans-Serif" font-size="10.00">#</text>
<text text-anchor="start" x="739.38" y="-974.5" font-family="Helvetica,sans-Serif" font-size="10.00">roomParticles</text>
<text text-anchor="start" x="729.75" y="-958.5" font-family="Helvetica,sans-Serif" font-size="10.00">#</text>
<text text-anchor="start" x="739.38" y="-958.5" font-family="Helvetica,sans-Serif" font-size="10.00">roomSound</text>
<text text-anchor="start" x="729.75" y="-942.5" font-family="Helvetica,sans-Serif" font-size="10.00">#</text>
<text text-anchor="start" x="739.38" y="-942.5" font-family="Helvetica,sans-Serif" font-size="10.00">crewDamagePerOxygen</text>
<text text-anchor="start" x="729.75" y="-926.5" font-family="Helvetica,sans-Serif" font-size="10.00">#</text>
<text text-anchor="start" x="739.38" y="-926.5" font-family="Helvetica,sans-Serif" font-size="10.00">fireExtinguishRatePerLevel</text>
<text text-anchor="start" x="729.75" y="-910.5" font-family="Helvetica,sans-Serif" font-size="10.00">#</text>
<text text-anchor="start" x="739.38" y="-910.5" font-family="Helvetica,sans-Serif" font-size="10.00">isActive</text>
<text text-anchor="start" x="729.75" y="-894.5" font-family="Helvetica,sans-Serif" font-size="10.00">#</text>
<text text-anchor="start" x="739.38" y="-894.5" font-family="Helvetica,sans-Serif" font-size="10.00">isPowered</text>
<text text-anchor="start" x="729.75" y="-878.5" font-family="Helvetica,sans-Serif" font-size="10.00">#</text>
<text text-anchor="start" x="739.38" y="-878.5" font-family="Helvetica,sans-Serif" font-size="10.00">isPowerRequested</text>
<text text-anchor="start" x="729.75" y="-862.5" font-family="Helvetica,sans-Serif" font-size="10.00">#</text>
<text text-anchor="start" x="739.38" y="-862.5" font-family="Helvetica,sans-Serif" font-size="10.00">lowOxygenColor</text>
<text text-anchor="start" x="729.75" y="-846.5" font-family="Helvetica,sans-Serif" font-size="10.00">#</text>
<text text-anchor="start" x="739.38" y="-846.5" font-family="Helvetica,sans-Serif" font-size="10.00">normalColor</text>
<text text-anchor="start" x="729.75" y="-830.5" font-family="Helvetica,sans-Serif" font-size="10.00">#</text>
<text text-anchor="start" x="739.38" y="-830.5" font-family="Helvetica,sans-Serif" font-size="10.00">roomRenderer</text>
<text text-anchor="start" x="729.75" y="-814.5" font-family="Helvetica,sans-Serif" font-size="10.00">#</text>
<text text-anchor="start" x="739.38" y="-814.5" font-family="Helvetica,sans-Serif" font-size="10.00">parentShip</text>
<text text-anchor="start" x="729.38" y="-798.5" font-family="Helvetica,sans-Serif" font-size="10.00">+</text>
<text text-anchor="start" x="739.38" y="-798.5" font-family="Helvetica,sans-Serif" font-size="10.00">Update()</text>
<text text-anchor="start" x="729.38" y="-782.5" font-family="Helvetica,sans-Serif" font-size="10.00">+</text>
<text text-anchor="start" x="739.38" y="-782.5" font-family="Helvetica,sans-Serif" font-size="10.00">CanBePlaced()</text>
<text text-anchor="start" x="729.38" y="-766.5" font-family="Helvetica,sans-Serif" font-size="10.00">+</text>
<text text-anchor="start" x="739.38" y="-766.5" font-family="Helvetica,sans-Serif" font-size="10.00">OnPlaced()</text>
<text text-anchor="start" x="729.38" y="-750.5" font-family="Helvetica,sans-Serif" font-size="10.00">+</text>
<text text-anchor="start" x="739.38" y="-750.5" font-family="Helvetica,sans-Serif" font-size="10.00">OnCrewEnter()</text>
<text text-anchor="start" x="729.38" y="-734.5" font-family="Helvetica,sans-Serif" font-size="10.00">+</text>
<text text-anchor="start" x="739.38" y="-734.5" font-family="Helvetica,sans-Serif" font-size="10.00">OnCrewExit()</text>
<text text-anchor="start" x="729.38" y="-718.5" font-family="Helvetica,sans-Serif" font-size="10.00">+</text>
<text text-anchor="start" x="739.38" y="-718.5" font-family="Helvetica,sans-Serif" font-size="10.00">InitializeIsDamageable()</text>
<text text-anchor="start" x="729.38" y="-702.5" font-family="Helvetica,sans-Serif" font-size="10.00">+</text>
<text text-anchor="start" x="739.38" y="-702.5" font-family="Helvetica,sans-Serif" font-size="10.00">GetIsPowered()</text>
<text text-anchor="start" x="729.38" y="-686.5" font-family="Helvetica,sans-Serif" font-size="10.00">+</text>
<text text-anchor="start" x="739.38" y="-686.5" font-family="Helvetica,sans-Serif" font-size="10.00">GetIsPowerRequested()</text>
<text text-anchor="start" x="729.38" y="-670.5" font-family="Helvetica,sans-Serif" font-size="10.00">+</text>
<text text-anchor="start" x="739.38" y="-670.5" font-family="Helvetica,sans-Serif" font-size="10.00">GetIsDamageable()</text>
<text text-anchor="start" x="729.38" y="-654.5" font-family="Helvetica,sans-Serif" font-size="10.00">+</text>
<text text-anchor="start" x="739.38" y="-654.5" font-family="Helvetica,sans-Serif" font-size="10.00">GetOxygenLevel()</text>
<text text-anchor="start" x="739.38" y="-638.5" font-family="Helvetica,sans-Serif" font-size="10.00">and 18 more...</text>
<text text-anchor="start" x="729.75" y="-622.5" font-family="Helvetica,sans-Serif" font-size="10.00">#</text>
<text text-anchor="start" x="739.38" y="-622.5" font-family="Helvetica,sans-Serif" font-size="10.00">Start()</text>
<text text-anchor="start" x="729.75" y="-606.5" font-family="Helvetica,sans-Serif" font-size="10.00">#</text>
<text text-anchor="start" x="739.38" y="-606.5" font-family="Helvetica,sans-Serif" font-size="10.00">UpdateRoom()</text>
<text text-anchor="start" x="729.75" y="-590.5" font-family="Helvetica,sans-Serif" font-size="10.00">#</text>
<text text-anchor="start" x="739.38" y="-590.5" font-family="Helvetica,sans-Serif" font-size="10.00">UpdateEffects()</text>
<text text-anchor="start" x="729.75" y="-574.5" font-family="Helvetica,sans-Serif" font-size="10.00">#</text>
<text text-anchor="start" x="739.38" y="-574.5" font-family="Helvetica,sans-Serif" font-size="10.00">HasFire()</text>
<text text-anchor="start" x="729.75" y="-558.5" font-family="Helvetica,sans-Serif" font-size="10.00">#</text>
<text text-anchor="start" x="739.38" y="-558.5" font-family="Helvetica,sans-Serif" font-size="10.00">UpdateFireExtinguishRate()</text>
<text text-anchor="start" x="729.75" y="-542.5" font-family="Helvetica,sans-Serif" font-size="10.00">#</text>
<text text-anchor="start" x="739.38" y="-542.5" font-family="Helvetica,sans-Serif" font-size="10.00">OnDisabled()</text>
<text text-anchor="start" x="729.75" y="-526.5" font-family="Helvetica,sans-Serif" font-size="10.00">#</text>
<text text-anchor="start" x="739.38" y="-526.5" font-family="Helvetica,sans-Serif" font-size="10.00">NotifyStateChanged()</text>
<polygon fill="#666666" stroke="#666666" points="725.38,-1178 725.38,-1178 864.12,-1178 864.12,-1178 725.38,-1178"/>
<polygon fill="#666666" stroke="#666666" points="725.38,-810 725.38,-810 737.38,-810 737.38,-810 725.38,-810"/>
<polygon fill="#666666" stroke="#666666" points="737.38,-810 737.38,-810 864.12,-810 864.12,-810 737.38,-810"/>
<polygon fill="none" stroke="#666666" points="725.38,-520 725.38,-1196 864.12,-1196 864.12,-520 725.38,-520"/>
</a>
</g>
</g>
<!-- Node2&#45;&gt;Node1 -->
<g id="edge1_Node000001_Node000002" class="edge">
<title>Node2&#45;&gt;Node1</title>
<g id="a_edge1_Node000001_Node000002"><a xlink:title=" ">
<path fill="none" stroke="#63b8ff" d="M794.75,-508.75C794.75,-500.01 794.75,-491.69 794.75,-483.91"/>
<polygon fill="none" stroke="#63b8ff" points="791.25,-508.52 794.75,-518.52 798.25,-508.52 791.25,-508.52"/>
</a>
</g>
</g>
<!-- Node3 -->
<g id="Node000003" class="node">
<title>Node3</title>
<g id="a_Node000003"><a xlink:title=" ">
<polygon fill="white" stroke="none" points="775.5,-1284 700,-1284 700,-1232 775.5,-1232 775.5,-1284"/>
<text text-anchor="start" x="704" y="-1270.5" font-family="Helvetica,sans-Serif" font-size="10.00">MonoBehaviour</text>
<text text-anchor="start" x="736.25" y="-1254.5" font-family="Helvetica,sans-Serif" font-size="10.00"> </text>
<text text-anchor="start" x="736.25" y="-1238.5" font-family="Helvetica,sans-Serif" font-size="10.00"> </text>
<polygon fill="#bfbfbf" stroke="#bfbfbf" points="700,-1266 700,-1266 775.5,-1266 775.5,-1266 700,-1266"/>
<polygon fill="#bfbfbf" stroke="#bfbfbf" points="700,-1250 700,-1250 775.5,-1250 775.5,-1250 700,-1250"/>
<polygon fill="none" stroke="#bfbfbf" points="700,-1232 700,-1284 775.5,-1284 775.5,-1232 700,-1232"/>
</a>
</g>
</g>
<!-- Node3&#45;&gt;Node2 -->
<g id="edge2_Node000002_Node000003" class="edge">
<title>Node3&#45;&gt;Node2</title>
<g id="a_edge2_Node000002_Node000003"><a xlink:title=" ">
<path fill="none" stroke="#63b8ff" d="M742.92,-1220.88C743.99,-1213.45 745.19,-1205.06 746.5,-1195.91"/>
<polygon fill="none" stroke="#63b8ff" points="739.48,-1220.21 741.53,-1230.61 746.41,-1221.2 739.48,-1220.21"/>
</a>
</g>
</g>
<!-- Node4 -->
<g id="Node000004" class="node">
<title>Node4</title>
<g id="a_Node000004"><a xlink:href="interface_i_ship_stat_contributor.html" target="_top" xlink:title="ShipStat 에 영향을 주는 객체 인터페이스 모든 방들과 모든 선원은 전부 이에 해당한다. 방의 경우엔 RoomData 에 등록된 정보를 바탕으로 Ship에서 Contribute...">
<polygon fill="white" stroke="none" points="909.5,-1284 794,-1284 794,-1232 909.5,-1232 909.5,-1284"/>
<text text-anchor="start" x="807.5" y="-1270.5" font-family="Helvetica,sans-Serif" font-size="10.00">IShipStatContributor</text>
<text text-anchor="start" x="850.25" y="-1254.5" font-family="Helvetica,sans-Serif" font-size="10.00"> </text>
<text text-anchor="start" x="798" y="-1238.5" font-family="Helvetica,sans-Serif" font-size="10.00">+</text>
<text text-anchor="start" x="808" y="-1238.5" font-family="Helvetica,sans-Serif" font-size="10.00">GetStatContributions()</text>
<polygon fill="#666666" stroke="#666666" points="794,-1266 794,-1266 909.5,-1266 909.5,-1266 794,-1266"/>
<polygon fill="#666666" stroke="#666666" points="794,-1250 794,-1250 909.5,-1250 909.5,-1250 794,-1250"/>
<polygon fill="none" stroke="#666666" points="794,-1232 794,-1284 909.5,-1284 909.5,-1232 794,-1232"/>
</a>
</g>
</g>
<!-- Node4&#45;&gt;Node2 -->
<g id="edge3_Node000002_Node000004" class="edge">
<title>Node4&#45;&gt;Node2</title>
<g id="a_edge3_Node000002_Node000004"><a xlink:title=" ">
<path fill="none" stroke="#63b8ff" d="M846.58,-1220.88C845.51,-1213.45 844.31,-1205.06 843,-1195.91"/>
<polygon fill="none" stroke="#63b8ff" points="843.09,-1221.2 847.97,-1230.61 850.02,-1220.21 843.09,-1221.2"/>
</a>
</g>
</g>
<!-- Node15 -->
<g id="Node000015" class="node">
<title>Node15</title>
<g id="a_Node000015"><a xlink:href="class_storage_room_animal.html" target="_top" xlink:title="동물 우리를 나타내는 클래스">
<polygon fill="white" stroke="none" points="1196.75,-84 1098.75,-84 1098.75,-16 1196.75,-16 1196.75,-84"/>
<text text-anchor="start" x="1102.75" y="-70.5" font-family="Helvetica,sans-Serif" font-size="10.00">StorageRoomAnimal</text>
<text text-anchor="start" x="1146.25" y="-54.5" font-family="Helvetica,sans-Serif" font-size="10.00"> </text>
<text text-anchor="start" x="1106.06" y="-38.5" font-family="Helvetica,sans-Serif" font-size="10.00">+</text>
<text text-anchor="start" x="1119.38" y="-38.5" font-family="Helvetica,sans-Serif" font-size="10.00">CanStoreItem()</text>
<text text-anchor="start" x="1106.44" y="-22.5" font-family="Helvetica,sans-Serif" font-size="10.00">#</text>
<text text-anchor="start" x="1119.38" y="-22.5" font-family="Helvetica,sans-Serif" font-size="10.00">Start()</text>
<polygon fill="#666666" stroke="#666666" points="1098.75,-66 1098.75,-66 1196.75,-66 1196.75,-66 1098.75,-66"/>
<polygon fill="#666666" stroke="#666666" points="1098.75,-50 1098.75,-50 1196.75,-50 1196.75,-50 1098.75,-50"/>
<polygon fill="none" stroke="#666666" points="1098.75,-16 1098.75,-84 1196.75,-84 1196.75,-16 1098.75,-16"/>
</a>
</g>
</g>
<!-- Node14&#45;&gt;Node15 -->
<g id="edge14_Node000014_Node000015" class="edge">
<title>Node14&#45;&gt;Node15</title>
<g id="a_edge14_Node000014_Node000015"><a xlink:title=" ">
<path fill="none" stroke="#63b8ff" d="M1199.29,-127C1188.73,-111.42 1178.49,-96.32 1169.95,-83.74"/>
<polygon fill="none" stroke="#63b8ff" points="1196.18,-128.65 1204.69,-134.96 1201.97,-124.72 1196.18,-128.65"/>
</a>
</g>
</g>
<!-- Node16 -->
<g id="Node000016" class="node">
<title>Node16</title>
<g id="a_Node000016"><a xlink:href="class_storage_room_regular.html" target="_top" xlink:title="일반 창고를 나타내는 클래스">
<polygon fill="white" stroke="none" points="1316.62,-84 1214.88,-84 1214.88,-16 1316.62,-16 1316.62,-84"/>
<text text-anchor="start" x="1218.88" y="-70.5" font-family="Helvetica,sans-Serif" font-size="10.00">StorageRoomRegular</text>
<text text-anchor="start" x="1264.25" y="-54.5" font-family="Helvetica,sans-Serif" font-size="10.00"> </text>
<text text-anchor="start" x="1223.12" y="-38.5" font-family="Helvetica,sans-Serif" font-size="10.00">+</text>
<text text-anchor="start" x="1237.38" y="-38.5" font-family="Helvetica,sans-Serif" font-size="10.00">CanStoreItem()</text>
<text text-anchor="start" x="1223.5" y="-22.5" font-family="Helvetica,sans-Serif" font-size="10.00">#</text>
<text text-anchor="start" x="1237.38" y="-22.5" font-family="Helvetica,sans-Serif" font-size="10.00">Start()</text>
<polygon fill="#666666" stroke="#666666" points="1214.88,-66 1214.88,-66 1316.62,-66 1316.62,-66 1214.88,-66"/>
<polygon fill="#666666" stroke="#666666" points="1214.88,-50 1214.88,-50 1316.62,-50 1316.62,-50 1214.88,-50"/>
<polygon fill="none" stroke="#666666" points="1214.88,-16 1214.88,-84 1316.62,-84 1316.62,-16 1214.88,-16"/>
</a>
</g>
</g>
<!-- Node14&#45;&gt;Node16 -->
<g id="edge15_Node000014_Node000016" class="edge">
<title>Node14&#45;&gt;Node16</title>
<g id="a_edge15_Node000014_Node000016"><a xlink:title=" ">
<path fill="none" stroke="#63b8ff" d="M1265.75,-124.82C1265.75,-110.02 1265.75,-95.73 1265.75,-83.74"/>
<polygon fill="none" stroke="#63b8ff" points="1262.25,-124.7 1265.75,-134.7 1269.25,-124.7 1262.25,-124.7"/>
</a>
</g>
</g>
<!-- Node17 -->
<g id="Node000017" class="node">
<title>Node17</title>
<g id="a_Node000017"><a xlink:href="class_storage_room_temperature.html" target="_top" xlink:title="온도 조절 창고를 나타내는 클래스">
<polygon fill="white" stroke="none" points="1456.75,-100 1334.75,-100 1334.75,0 1456.75,0 1456.75,-100"/>
<text text-anchor="start" x="1338.75" y="-86.5" font-family="Helvetica,sans-Serif" font-size="10.00">StorageRoomTemperature</text>
<text text-anchor="start" x="1394.25" y="-70.5" font-family="Helvetica,sans-Serif" font-size="10.00"> </text>
<text text-anchor="start" x="1345.44" y="-54.5" font-family="Helvetica,sans-Serif" font-size="10.00">+</text>
<text text-anchor="start" x="1362.12" y="-54.5" font-family="Helvetica,sans-Serif" font-size="10.00">CanStoreItem()</text>
<text text-anchor="start" x="1345.44" y="-38.5" font-family="Helvetica,sans-Serif" font-size="10.00">+</text>
<text text-anchor="start" x="1362.12" y="-38.5" font-family="Helvetica,sans-Serif" font-size="10.00">SetPowerStatus()</text>
<text text-anchor="start" x="1345.81" y="-22.5" font-family="Helvetica,sans-Serif" font-size="10.00">#</text>
<text text-anchor="start" x="1362.12" y="-22.5" font-family="Helvetica,sans-Serif" font-size="10.00">Start()</text>
<text text-anchor="start" x="1345.81" y="-6.5" font-family="Helvetica,sans-Serif" font-size="10.00">#</text>
<text text-anchor="start" x="1362.12" y="-6.5" font-family="Helvetica,sans-Serif" font-size="10.00">UpdateRoom()</text>
<polygon fill="#666666" stroke="#666666" points="1334.75,-82 1334.75,-82 1456.75,-82 1456.75,-82 1334.75,-82"/>
<polygon fill="#666666" stroke="#666666" points="1334.75,-66 1334.75,-66 1456.75,-66 1456.75,-66 1334.75,-66"/>
<polygon fill="none" stroke="#666666" points="1334.75,0 1334.75,-100 1456.75,-100 1456.75,0 1334.75,0"/>
</a>
</g>
</g>
<!-- Node14&#45;&gt;Node17 -->
<g id="edge16_Node000014_Node000017" class="edge">
<title>Node14&#45;&gt;Node17</title>
<g id="a_edge16_Node000014_Node000017"><a xlink:title=" ">
<path fill="none" stroke="#63b8ff" d="M1332.7,-135.39C1341.91,-123.06 1351.07,-110.81 1359.43,-99.61"/>
<polygon fill="none" stroke="#63b8ff" points="1330.08,-133.05 1326.9,-143.15 1335.69,-137.24 1330.08,-133.05"/>
</a>
</g>
</g>
</g>
</svg>
