<?xml version="1.0" encoding="UTF-8" standalone="no"?>
<!DOCTYPE svg PUBLIC "-//W3C//DTD SVG 1.1//EN"
 "http://www.w3.org/Graphics/SVG/1.1/DTD/svg11.dtd">
<!-- Generated by graphviz version 12.2.1 (20241206.2353)
 -->
<!-- Title: Ship.AddRoom Pages: 1 -->
<svg width="582pt" height="154pt"
 viewBox="0.00 0.00 582.00 154.00" xmlns="http://www.w3.org/2000/svg" xmlns:xlink="http://www.w3.org/1999/xlink">
<g id="graph0" class="graph" transform="scale(1 1) rotate(0) translate(4 150)">
<title>Ship.AddRoom</title>
<!-- Node1 -->
<g id="Node000001" class="node">
<title>Node1</title>
<g id="a_Node000001"><a xlink:title="룸을 해당 위치에 배치하고 관련 정보를 갱신합니다.">
<polygon fill="#999999" stroke="#666666" points="82,-108 0,-108 0,-88 82,-88 82,-108"/>
<text text-anchor="middle" x="41" y="-94.5" font-family="Helvetica,sans-Serif" font-size="10.00">Ship.AddRoom</text>
</a>
</g>
</g>
<!-- Node2 -->
<g id="Node000002" class="node">
<title>Node2</title>
<g id="a_Node000002"><a xlink:href="class_room.html#a6e2b4f59e53e2762095ac1e11401a535" target="_top" xlink:title="방의 크기를 반환합니다.">
<polygon fill="white" stroke="#666666" points="220.62,-146 140.12,-146 140.12,-126 220.62,-126 220.62,-146"/>
<text text-anchor="middle" x="180.38" y="-132.5" font-family="Helvetica,sans-Serif" font-size="10.00">Room.GetSize</text>
</a>
</g>
</g>
<!-- Node1&#45;&gt;Node2 -->
<g id="edge1_Node000001_Node000002" class="edge">
<title>Node1&#45;&gt;Node2</title>
<g id="a_edge1_Node000001_Node000002"><a xlink:title=" ">
<path fill="none" stroke="#63b8ff" d="M79.9,-108.48C95.67,-112.85 114.16,-117.96 130.9,-122.59"/>
<polygon fill="#63b8ff" stroke="#63b8ff" points="129.57,-125.85 140.14,-125.15 131.43,-119.11 129.57,-125.85"/>
</a>
</g>
</g>
<!-- Node3 -->
<g id="Node000003" class="node">
<title>Node3</title>
<g id="a_Node000003"><a xlink:href="class_room.html#a9218da90ca2b255af955b1069e7376e3" target="_top" xlink:title="방이 실제 배치되었을 때 호출됩니다.">
<polygon fill="white" stroke="#666666" points="224.38,-108 136.38,-108 136.38,-88 224.38,-88 224.38,-108"/>
<text text-anchor="middle" x="180.38" y="-94.5" font-family="Helvetica,sans-Serif" font-size="10.00">Room.OnPlaced</text>
</a>
</g>
</g>
<!-- Node1&#45;&gt;Node3 -->
<g id="edge2_Node000001_Node000003" class="edge">
<title>Node1&#45;&gt;Node3</title>
<g id="a_edge2_Node000001_Node000003"><a xlink:title=" ">
<path fill="none" stroke="#63b8ff" d="M82.47,-98C95.84,-98 110.93,-98 125.15,-98"/>
<polygon fill="#63b8ff" stroke="#63b8ff" points="124.81,-101.5 134.81,-98 124.81,-94.5 124.81,-101.5"/>
</a>
</g>
</g>
<!-- Node4 -->
<g id="Node000004" class="node">
<title>Node4</title>
<g id="a_Node000004"><a xlink:href="class_ship.html#a8f3f2bdca106f32f2d4c2b3f892a139f" target="_top" xlink:title="현재 함선의 모든 스탯을 다시 계산합니다. 방, 시스템, 선원의 기여도를 반영합니다.">
<polygon fill="white" stroke="#666666" points="242.75,-70 118,-70 118,-50 242.75,-50 242.75,-70"/>
<text text-anchor="middle" x="180.38" y="-56.5" font-family="Helvetica,sans-Serif" font-size="10.00">Ship.RecalculateAllStats</text>
</a>
</g>
</g>
<!-- Node1&#45;&gt;Node4 -->
<g id="edge3_Node000001_Node000004" class="edge">
<title>Node1&#45;&gt;Node4</title>
<g id="a_edge3_Node000001_Node000004"><a xlink:title=" ">
<path fill="none" stroke="#63b8ff" d="M79.9,-87.52C95.67,-83.15 114.16,-78.04 130.9,-73.41"/>
<polygon fill="#63b8ff" stroke="#63b8ff" points="131.43,-76.89 140.14,-70.85 129.57,-70.15 131.43,-76.89"/>
</a>
</g>
</g>
<!-- Node5 -->
<g id="Node000005" class="node">
<title>Node5</title>
<g id="a_Node000005"><a xlink:href="class_crew_base.html#a0c35d7b81e7bbda6c1187cd56da46b19" target="_top" xlink:title="선원이 함선 스탯에 기여하는 수치를 반환합니다. 예: 산소 소모량 등.">
<polygon fill="white" stroke="#666666" points="435,-108 278.75,-108 278.75,-88 435,-88 435,-108"/>
<text text-anchor="middle" x="356.88" y="-94.5" font-family="Helvetica,sans-Serif" font-size="10.00">CrewBase.GetStatContributions</text>
</a>
</g>
</g>
<!-- Node4&#45;&gt;Node5 -->
<g id="edge4_Node000004_Node000005" class="edge">
<title>Node4&#45;&gt;Node5</title>
<g id="a_edge4_Node000004_Node000005"><a xlink:title=" ">
<path fill="none" stroke="#63b8ff" d="M229.52,-70.48C250.31,-75.01 274.83,-80.35 296.72,-85.12"/>
<polygon fill="#63b8ff" stroke="#63b8ff" points="295.89,-88.52 306.41,-87.23 297.38,-81.68 295.89,-88.52"/>
</a>
</g>
</g>
<!-- Node6 -->
<g id="Node000006" class="node">
<title>Node6</title>
<g id="a_Node000006"><a xlink:href="class_room.html#a99469af3a1771eba3a5ded55618dadac" target="_top" xlink:title="방이 함선 스탯에 기여하는 값을 반환합니다.">
<polygon fill="white" stroke="#666666" points="425.25,-70 288.5,-70 288.5,-50 425.25,-50 425.25,-70"/>
<text text-anchor="middle" x="356.88" y="-56.5" font-family="Helvetica,sans-Serif" font-size="10.00">Room.GetStatContributions</text>
</a>
</g>
</g>
<!-- Node4&#45;&gt;Node6 -->
<g id="edge5_Node000004_Node000006" class="edge">
<title>Node4&#45;&gt;Node6</title>
<g id="a_edge5_Node000004_Node000006"><a xlink:title=" ">
<path fill="none" stroke="#63b8ff" d="M242.9,-60C253.86,-60 265.42,-60 276.8,-60"/>
<polygon fill="#63b8ff" stroke="#63b8ff" points="276.57,-63.5 286.57,-60 276.57,-56.5 276.57,-63.5"/>
</a>
</g>
</g>
<!-- Node8 -->
<g id="Node000008" class="node">
<title>Node8</title>
<g id="a_Node000008"><a xlink:href="class_morale_manager.html#af1cb805b49d259cc84441559dd0bb1c6" target="_top" xlink:title="전체 선원 사기 한 번에 할당">
<polygon fill="white" stroke="#666666" points="424.5,-32 289.25,-32 289.25,0 424.5,0 424.5,-32"/>
<text text-anchor="start" x="297.25" y="-18.5" font-family="Helvetica,sans-Serif" font-size="10.00">MoraleManager.SetAllCrew</text>
<text text-anchor="middle" x="356.88" y="-6.5" font-family="Helvetica,sans-Serif" font-size="10.00">Morale</text>
</a>
</g>
</g>
<!-- Node4&#45;&gt;Node8 -->
<g id="edge7_Node000004_Node000008" class="edge">
<title>Node4&#45;&gt;Node8</title>
<g id="a_edge7_Node000004_Node000008"><a xlink:title=" ">
<path fill="none" stroke="#63b8ff" d="M222.73,-49.57C239.74,-45.28 260.01,-40.17 279.54,-35.25"/>
<polygon fill="#63b8ff" stroke="#63b8ff" points="280.29,-38.67 289.13,-32.83 278.58,-31.88 280.29,-38.67"/>
</a>
</g>
</g>
<!-- Node7 -->
<g id="Node000007" class="node">
<title>Node7</title>
<g id="a_Node000007"><a xlink:href="class_room.html#a0f32e752b4605a8bba077145b76b8e98" target="_top" xlink:title="방이 작동 가능한 상태인지 확인합니다.">
<polygon fill="white" stroke="#666666" points="574,-70 471,-70 471,-50 574,-50 574,-70"/>
<text text-anchor="middle" x="522.5" y="-56.5" font-family="Helvetica,sans-Serif" font-size="10.00">Room.IsOperational</text>
</a>
</g>
</g>
<!-- Node6&#45;&gt;Node7 -->
<g id="edge6_Node000006_Node000007" class="edge">
<title>Node6&#45;&gt;Node7</title>
<g id="a_edge6_Node000006_Node000007"><a xlink:title=" ">
<path fill="none" stroke="#63b8ff" d="M425.37,-60C436.61,-60 448.22,-60 459.32,-60"/>
<polygon fill="#63b8ff" stroke="#63b8ff" points="459.15,-63.5 469.15,-60 459.15,-56.5 459.15,-63.5"/>
</a>
</g>
</g>
</g>
</svg>
