<?xml version="1.0" encoding="UTF-8" standalone="no"?>
<!DOCTYPE svg PUBLIC "-//W3C//DTD SVG 1.1//EN"
 "http://www.w3.org/Graphics/SVG/1.1/DTD/svg11.dtd">
<!-- Generated by graphviz version 12.2.1 (20241206.2353)
 -->
<!-- Title: ShipCustomizationUI Pages: 1 -->
<svg width="287pt" height="637pt"
 viewBox="0.00 0.00 287.08 637.00" xmlns="http://www.w3.org/2000/svg" xmlns:xlink="http://www.w3.org/1999/xlink">
<g id="graph0" class="graph" transform="scale(1 1) rotate(0) translate(4 633)">
<title>ShipCustomizationUI</title>
<!-- Node1 -->
<g id="Node000001" class="node">
<title>Node1</title>
<g id="a_Node000001"><a xlink:title=" ">
<polygon fill="#999999" stroke="none" points="114.71,-148 5.21,-148 5.21,0 114.71,0 114.71,-148"/>
<text text-anchor="start" x="13.46" y="-134.5" font-family="Helvetica,sans-Serif" font-size="10.00">ShipCustomizationUI</text>
<text text-anchor="start" x="9.21" y="-118.5" font-family="Helvetica,sans-Serif" font-size="10.00">+</text>
<text text-anchor="start" x="19.21" y="-118.5" font-family="Helvetica,sans-Serif" font-size="10.00">currencyText</text>
<text text-anchor="start" x="9.21" y="-102.5" font-family="Helvetica,sans-Serif" font-size="10.00">+</text>
<text text-anchor="start" x="19.21" y="-102.5" font-family="Helvetica,sans-Serif" font-size="10.00">corridorButton</text>
<text text-anchor="start" x="9.21" y="-86.5" font-family="Helvetica,sans-Serif" font-size="10.00">+</text>
<text text-anchor="start" x="19.21" y="-86.5" font-family="Helvetica,sans-Serif" font-size="10.00">doorButton</text>
<text text-anchor="start" x="9.21" y="-70.5" font-family="Helvetica,sans-Serif" font-size="10.00">+</text>
<text text-anchor="start" x="19.21" y="-70.5" font-family="Helvetica,sans-Serif" font-size="10.00">placeModuleButton</text>
<text text-anchor="start" x="9.21" y="-54.5" font-family="Helvetica,sans-Serif" font-size="10.00">+</text>
<text text-anchor="start" x="19.21" y="-54.5" font-family="Helvetica,sans-Serif" font-size="10.00">clearModulesButton</text>
<text text-anchor="start" x="9.21" y="-38.5" font-family="Helvetica,sans-Serif" font-size="10.00">+</text>
<text text-anchor="start" x="19.21" y="-38.5" font-family="Helvetica,sans-Serif" font-size="10.00">validateLayoutButton</text>
<text text-anchor="start" x="9.21" y="-22.5" font-family="Helvetica,sans-Serif" font-size="10.00">+</text>
<text text-anchor="start" x="19.21" y="-22.5" font-family="Helvetica,sans-Serif" font-size="10.00">feedbackText</text>
<text text-anchor="start" x="58.46" y="-6.5" font-family="Helvetica,sans-Serif" font-size="10.00"> </text>
<polygon fill="#666666" stroke="#666666" points="5.21,-130 5.21,-130 114.71,-130 114.71,-130 5.21,-130"/>
<polygon fill="#666666" stroke="#666666" points="5.21,-18 5.21,-18 17.21,-18 17.21,-18 5.21,-18"/>
<polygon fill="#666666" stroke="#666666" points="17.21,-18 17.21,-18 114.71,-18 114.71,-18 17.21,-18"/>
<polygon fill="none" stroke="#666666" points="5.21,0 5.21,-148 114.71,-148 114.71,0 5.21,0"/>
</a>
</g>
</g>
<!-- Node2 -->
<g id="Node000002" class="node">
<title>Node2</title>
<g id="a_Node000002"><a xlink:title=" ">
<polygon fill="white" stroke="none" points="143.71,-629 68.21,-629 68.21,-577 143.71,-577 143.71,-629"/>
<text text-anchor="start" x="72.21" y="-615.5" font-family="Helvetica,sans-Serif" font-size="10.00">MonoBehaviour</text>
<text text-anchor="start" x="104.46" y="-599.5" font-family="Helvetica,sans-Serif" font-size="10.00"> </text>
<text text-anchor="start" x="104.46" y="-583.5" font-family="Helvetica,sans-Serif" font-size="10.00"> </text>
<polygon fill="#bfbfbf" stroke="#bfbfbf" points="68.21,-611 68.21,-611 143.71,-611 143.71,-611 68.21,-611"/>
<polygon fill="#bfbfbf" stroke="#bfbfbf" points="68.21,-595 68.21,-595 143.71,-595 143.71,-595 68.21,-595"/>
<polygon fill="none" stroke="#bfbfbf" points="68.21,-577 68.21,-629 143.71,-629 143.71,-577 68.21,-577"/>
</a>
</g>
</g>
<!-- Node2&#45;&gt;Node1 -->
<g id="edge1_Node000001_Node000002" class="edge">
<title>Node2&#45;&gt;Node1</title>
<g id="a_edge1_Node000001_Node000002"><a xlink:title=" ">
<path fill="none" stroke="#63b8ff" d="M59.78,-573.21C48.99,-564.03 38.91,-552.86 32.96,-540 -26.21,-412.12 7.68,-242.89 35.36,-147.85"/>
<polygon fill="none" stroke="#63b8ff" points="57.34,-575.73 67.35,-579.2 61.68,-570.24 57.34,-575.73"/>
</a>
</g>
</g>
<!-- Node3 -->
<g id="Node000003" class="node">
<title>Node3</title>
<g id="a_Node000003"><a xlink:href="class_ship_customization_manager.html" target="_top" xlink:title=" ">
<polygon fill="white" stroke="none" points="169.96,-540 41.96,-540 41.96,-296 169.96,-296 169.96,-540"/>
<text text-anchor="start" x="45.96" y="-526.5" font-family="Helvetica,sans-Serif" font-size="10.00">ShipCustomizationManager</text>
<text text-anchor="start" x="52.27" y="-510.5" font-family="Helvetica,sans-Serif" font-size="10.00">+</text>
<text text-anchor="start" x="68.58" y="-510.5" font-family="Helvetica,sans-Serif" font-size="10.00">cellSize</text>
<text text-anchor="start" x="52.27" y="-494.5" font-family="Helvetica,sans-Serif" font-size="10.00">+</text>
<text text-anchor="start" x="68.58" y="-494.5" font-family="Helvetica,sans-Serif" font-size="10.00">gridMin</text>
<text text-anchor="start" x="52.27" y="-478.5" font-family="Helvetica,sans-Serif" font-size="10.00">+</text>
<text text-anchor="start" x="68.58" y="-478.5" font-family="Helvetica,sans-Serif" font-size="10.00">gridMax</text>
<text text-anchor="start" x="52.27" y="-462.5" font-family="Helvetica,sans-Serif" font-size="10.00">+</text>
<text text-anchor="start" x="68.58" y="-462.5" font-family="Helvetica,sans-Serif" font-size="10.00">corridorPrefab</text>
<text text-anchor="start" x="52.27" y="-446.5" font-family="Helvetica,sans-Serif" font-size="10.00">+</text>
<text text-anchor="start" x="68.58" y="-446.5" font-family="Helvetica,sans-Serif" font-size="10.00">doorPrefab</text>
<text text-anchor="start" x="52.27" y="-430.5" font-family="Helvetica,sans-Serif" font-size="10.00">+</text>
<text text-anchor="start" x="68.58" y="-430.5" font-family="Helvetica,sans-Serif" font-size="10.00">modulesContainer</text>
<text text-anchor="start" x="52.27" y="-414.5" font-family="Helvetica,sans-Serif" font-size="10.00">+</text>
<text text-anchor="start" x="68.58" y="-414.5" font-family="Helvetica,sans-Serif" font-size="10.00">currency</text>
<text text-anchor="start" x="52.27" y="-398.5" font-family="Helvetica,sans-Serif" font-size="10.00">+</text>
<text text-anchor="start" x="68.58" y="-398.5" font-family="Helvetica,sans-Serif" font-size="10.00">corridorCost</text>
<text text-anchor="start" x="52.27" y="-382.5" font-family="Helvetica,sans-Serif" font-size="10.00">+</text>
<text text-anchor="start" x="68.58" y="-382.5" font-family="Helvetica,sans-Serif" font-size="10.00">doorCost</text>
<text text-anchor="start" x="52.27" y="-366.5" font-family="Helvetica,sans-Serif" font-size="10.00">+</text>
<text text-anchor="start" x="68.58" y="-366.5" font-family="Helvetica,sans-Serif" font-size="10.00">PlacedModules</text>
<text text-anchor="start" x="52.27" y="-350.5" font-family="Helvetica,sans-Serif" font-size="10.00">+</text>
<text text-anchor="start" x="68.58" y="-350.5" font-family="Helvetica,sans-Serif" font-size="10.00">PlaceModule()</text>
<text text-anchor="start" x="52.27" y="-334.5" font-family="Helvetica,sans-Serif" font-size="10.00">+</text>
<text text-anchor="start" x="68.58" y="-334.5" font-family="Helvetica,sans-Serif" font-size="10.00">RemoveModule()</text>
<text text-anchor="start" x="52.27" y="-318.5" font-family="Helvetica,sans-Serif" font-size="10.00">+</text>
<text text-anchor="start" x="68.58" y="-318.5" font-family="Helvetica,sans-Serif" font-size="10.00">ClearAllModules()</text>
<text text-anchor="start" x="52.27" y="-302.5" font-family="Helvetica,sans-Serif" font-size="10.00">+</text>
<text text-anchor="start" x="68.58" y="-302.5" font-family="Helvetica,sans-Serif" font-size="10.00">PlaceSavedRoom()</text>
<polygon fill="#bfbfbf" stroke="#bfbfbf" points="41.96,-522 41.96,-522 169.96,-522 169.96,-522 41.96,-522"/>
<polygon fill="#bfbfbf" stroke="#bfbfbf" points="41.96,-362 41.96,-362 66.58,-362 66.58,-362 41.96,-362"/>
<polygon fill="#bfbfbf" stroke="#bfbfbf" points="66.58,-362 66.58,-362 169.96,-362 169.96,-362 66.58,-362"/>
<polygon fill="none" stroke="#bfbfbf" points="41.96,-296 41.96,-540 169.96,-540 169.96,-296 41.96,-296"/>
</a>
</g>
</g>
<!-- Node2&#45;&gt;Node3 -->
<g id="edge3_Node000003_Node000002" class="edge">
<title>Node2&#45;&gt;Node3</title>
<g id="a_edge3_Node000003_Node000002"><a xlink:title=" ">
<path fill="none" stroke="#63b8ff" d="M105.96,-565.99C105.96,-558.04 105.96,-549.18 105.96,-539.87"/>
<polygon fill="none" stroke="#63b8ff" points="102.46,-565.81 105.96,-575.81 109.46,-565.81 102.46,-565.81"/>
</a>
</g>
</g>
<!-- Node4 -->
<g id="Node000004" class="node">
<title>Node4</title>
<g id="a_Node000004"><a xlink:href="class_ship_layout_validator.html" target="_top" xlink:title=" ">
<polygon fill="white" stroke="none" points="279.08,-248 184.83,-248 184.83,-196 279.08,-196 279.08,-248"/>
<text text-anchor="start" x="188.83" y="-234.5" font-family="Helvetica,sans-Serif" font-size="10.00">ShipLayoutValidator</text>
<text text-anchor="start" x="230.46" y="-218.5" font-family="Helvetica,sans-Serif" font-size="10.00"> </text>
<text text-anchor="start" x="190.46" y="-202.5" font-family="Helvetica,sans-Serif" font-size="10.00">+</text>
<text text-anchor="start" x="202.08" y="-202.5" font-family="Helvetica,sans-Serif" font-size="10.00">ValidateLayout()</text>
<polygon fill="#bfbfbf" stroke="#bfbfbf" points="184.83,-230 184.83,-230 279.08,-230 279.08,-230 184.83,-230"/>
<polygon fill="#bfbfbf" stroke="#bfbfbf" points="184.83,-214 184.83,-214 279.08,-214 279.08,-214 184.83,-214"/>
<polygon fill="none" stroke="#bfbfbf" points="184.83,-196 184.83,-248 279.08,-248 279.08,-196 184.83,-196"/>
</a>
</g>
</g>
<!-- Node2&#45;&gt;Node4 -->
<g id="edge5_Node000004_Node000002" class="edge">
<title>Node2&#45;&gt;Node4</title>
<g id="a_edge5_Node000004_Node000002"><a xlink:title=" ">
<path fill="none" stroke="#63b8ff" d="M152.24,-571.2C162.5,-562.29 172.29,-551.75 178.96,-540 234.04,-442.94 235.4,-304.06 233.37,-247.94"/>
<polygon fill="none" stroke="#63b8ff" points="150.27,-568.29 144.75,-577.33 154.7,-573.71 150.27,-568.29"/>
</a>
</g>
</g>
<!-- Node3&#45;&gt;Node1 -->
<g id="edge2_Node000001_Node000003" class="edge">
<title>Node3&#45;&gt;Node1</title>
<g id="a_edge2_Node000001_Node000003"><a xlink:title=" ">
<path fill="none" stroke="#63b8ff" d="M76.75,-296.04C73.62,-279.96 70.81,-263.63 68.71,-248 64.9,-219.7 62.71,-188.59 61.47,-160.65"/>
<polygon fill="none" stroke="#63b8ff" points="61.46,-160.53 57.23,-154.69 60.98,-148.54 65.22,-154.37 61.46,-160.53"/>
</a>
</g>
<text text-anchor="middle" x="122.33" y="-218.5" font-family="Helvetica,sans-Serif" font-size="10.00" fill="grey"> +customizationManager</text>
</g>
<!-- Node3&#45;&gt;Node4 -->
<g id="edge6_Node000004_Node000003" class="edge">
<title>Node3&#45;&gt;Node4</title>
<g id="a_edge6_Node000004_Node000003"><a xlink:title=" ">
<path fill="none" stroke="#63b8ff" d="M95.06,-296.3C98.07,-285.38 102.76,-275.05 109.71,-266 126.99,-243.5 144.18,-257.39 170.96,-248 171.53,-247.8 172.09,-247.6 172.67,-247.4"/>
<polygon fill="none" stroke="#63b8ff" points="172.76,-247.36 176.99,-241.52 184.01,-243.18 179.78,-249.02 172.76,-247.36"/>
</a>
</g>
<text text-anchor="middle" x="163.33" y="-268.5" font-family="Helvetica,sans-Serif" font-size="10.00" fill="grey"> +customizationManager</text>
</g>
<!-- Node4&#45;&gt;Node1 -->
<g id="edge4_Node000001_Node000004" class="edge">
<title>Node4&#45;&gt;Node1</title>
<g id="a_edge4_Node000001_Node000004"><a xlink:title=" ">
<path fill="none" stroke="#63b8ff" d="M202.78,-196.23C181.36,-178.05 151.41,-152.63 124.47,-129.76"/>
<polygon fill="none" stroke="#63b8ff" points="124.54,-129.82 117.38,-128.99 115.39,-122.06 122.56,-122.89 124.54,-129.82"/>
</a>
</g>
<text text-anchor="middle" x="217.51" y="-168.5" font-family="Helvetica,sans-Serif" font-size="10.00" fill="grey"> +layoutValidator</text>
</g>
</g>
</svg>
