<?xml version="1.0" encoding="UTF-8" standalone="no"?>
<!DOCTYPE svg PUBLIC "-//W3C//DTD SVG 1.1//EN"
 "http://www.w3.org/Graphics/SVG/1.1/DTD/svg11.dtd">
<!-- Generated by graphviz version 12.2.1 (20241206.2353)
 -->
<!-- Title: StorageRoomAnimal Pages: 1 -->
<svg width="218pt" height="1148pt"
 viewBox="0.00 0.00 217.50 1148.00" xmlns="http://www.w3.org/2000/svg" xmlns:xlink="http://www.w3.org/1999/xlink">
<g id="graph0" class="graph" transform="scale(1 1) rotate(0) translate(4 1144)">
<title>StorageRoomAnimal</title>
<!-- Node1 -->
<g id="Node000001" class="node">
<title>Node1</title>
<g id="a_Node000001"><a xlink:title="동물 우리(StorageType.Animal)를 나타내는 특화 창고 클래스. 동물 카테고리 아이템만 보관할 수 있습니다.">
<polygon fill="#999999" stroke="none" points="143.75,-68 45.75,-68 45.75,0 143.75,0 143.75,-68"/>
<text text-anchor="start" x="49.75" y="-54.5" font-family="Helvetica,sans-Serif" font-size="10.00">StorageRoomAnimal</text>
<text text-anchor="start" x="93.25" y="-38.5" font-family="Helvetica,sans-Serif" font-size="10.00"> </text>
<text text-anchor="start" x="53.06" y="-22.5" font-family="Helvetica,sans-Serif" font-size="10.00">+</text>
<text text-anchor="start" x="66.38" y="-22.5" font-family="Helvetica,sans-Serif" font-size="10.00">CanStoreItem()</text>
<text text-anchor="start" x="53.44" y="-6.5" font-family="Helvetica,sans-Serif" font-size="10.00">#</text>
<text text-anchor="start" x="66.38" y="-6.5" font-family="Helvetica,sans-Serif" font-size="10.00">Start()</text>
<polygon fill="#666666" stroke="#666666" points="45.75,-50 45.75,-50 143.75,-50 143.75,-50 45.75,-50"/>
<polygon fill="#666666" stroke="#666666" points="45.75,-34 45.75,-34 143.75,-34 143.75,-34 45.75,-34"/>
<polygon fill="none" stroke="#666666" points="45.75,0 45.75,-68 143.75,-68 143.75,0 45.75,0"/>
</a>
</g>
</g>
<!-- Node2 -->
<g id="Node000002" class="node">
<title>Node2</title>
<g id="a_Node000002"><a xlink:href="class_storage_room_base.html" target="_top" xlink:title="모든 창고 타입의 기본 클래스. 저장 가능한 아이템의 타입, 보관/제거/저하 로직 등을 공통으로 정의합니다.">
<polygon fill="white" stroke="none" points="155.12,-284 34.38,-284 34.38,-104 155.12,-104 155.12,-284"/>
<text text-anchor="start" x="53.5" y="-270.5" font-family="Helvetica,sans-Serif" font-size="10.00">StorageRoomBase</text>
<text text-anchor="start" x="38.75" y="-254.5" font-family="Helvetica,sans-Serif" font-size="10.00">#</text>
<text text-anchor="start" x="48.38" y="-254.5" font-family="Helvetica,sans-Serif" font-size="10.00">storageType</text>
<text text-anchor="start" x="38.75" y="-238.5" font-family="Helvetica,sans-Serif" font-size="10.00">#</text>
<text text-anchor="start" x="48.38" y="-238.5" font-family="Helvetica,sans-Serif" font-size="10.00">storedItems</text>
<text text-anchor="start" x="38.38" y="-222.5" font-family="Helvetica,sans-Serif" font-size="10.00">+</text>
<text text-anchor="start" x="48.38" y="-222.5" font-family="Helvetica,sans-Serif" font-size="10.00">GetStatContributions()</text>
<text text-anchor="start" x="38.38" y="-206.5" font-family="Helvetica,sans-Serif" font-size="10.00">+</text>
<text text-anchor="start" x="48.38" y="-206.5" font-family="Helvetica,sans-Serif" font-size="10.00">GetStorageType()</text>
<text text-anchor="start" x="38.38" y="-190.5" font-family="Helvetica,sans-Serif" font-size="10.00">+</text>
<text text-anchor="start" x="48.38" y="-190.5" font-family="Helvetica,sans-Serif" font-size="10.00">CanStoreItem()</text>
<text text-anchor="start" x="38.38" y="-174.5" font-family="Helvetica,sans-Serif" font-size="10.00">+</text>
<text text-anchor="start" x="48.38" y="-174.5" font-family="Helvetica,sans-Serif" font-size="10.00">AddItem()</text>
<text text-anchor="start" x="38.38" y="-158.5" font-family="Helvetica,sans-Serif" font-size="10.00">+</text>
<text text-anchor="start" x="48.38" y="-158.5" font-family="Helvetica,sans-Serif" font-size="10.00">RemoveItem()</text>
<text text-anchor="start" x="38.38" y="-142.5" font-family="Helvetica,sans-Serif" font-size="10.00">+</text>
<text text-anchor="start" x="48.38" y="-142.5" font-family="Helvetica,sans-Serif" font-size="10.00">CheckItemsAfterWarp()</text>
<text text-anchor="start" x="38.75" y="-126.5" font-family="Helvetica,sans-Serif" font-size="10.00">#</text>
<text text-anchor="start" x="48.38" y="-126.5" font-family="Helvetica,sans-Serif" font-size="10.00">Start()</text>
<text text-anchor="start" x="38.75" y="-110.5" font-family="Helvetica,sans-Serif" font-size="10.00">#</text>
<text text-anchor="start" x="48.38" y="-110.5" font-family="Helvetica,sans-Serif" font-size="10.00">DegradeItemState()</text>
<polygon fill="#666666" stroke="#666666" points="34.38,-266 34.38,-266 155.12,-266 155.12,-266 34.38,-266"/>
<polygon fill="#666666" stroke="#666666" points="34.38,-234 34.38,-234 46.38,-234 46.38,-234 34.38,-234"/>
<polygon fill="#666666" stroke="#666666" points="46.38,-234 46.38,-234 155.12,-234 155.12,-234 46.38,-234"/>
<polygon fill="none" stroke="#666666" points="34.38,-104 34.38,-284 155.12,-284 155.12,-104 34.38,-104"/>
</a>
</g>
</g>
<!-- Node2&#45;&gt;Node1 -->
<g id="edge1_Node000001_Node000002" class="edge">
<title>Node2&#45;&gt;Node1</title>
<g id="a_edge1_Node000001_Node000002"><a xlink:title=" ">
<path fill="none" stroke="#63b8ff" d="M94.75,-92.9C94.75,-84.04 94.75,-75.56 94.75,-67.95"/>
<polygon fill="none" stroke="#63b8ff" points="91.25,-92.79 94.75,-102.79 98.25,-92.79 91.25,-92.79"/>
</a>
</g>
</g>
<!-- Node3 -->
<g id="Node000003" class="node">
<title>Node3</title>
<g id="a_Node000003"><a xlink:href="class_room-2-g.html" target="_top" xlink:title="함선 내의 특화된 방 타입을 위한 제네릭 기본 클래스. RoomData 및 RoomLevel 타입에 따라 세부 동작과 데이터를 확장할 수 있도록 설계되었습니다.">
<polygon fill="white" stroke="none" points="157.75,-452 31.75,-452 31.75,-320 157.75,-320 157.75,-452"/>
<text text-anchor="start" x="42.25" y="-438.5" font-family="Helvetica,sans-Serif" font-size="10.00">Room&lt; TData, TLevel &gt;</text>
<text text-anchor="start" x="35.75" y="-422.5" font-family="Helvetica,sans-Serif" font-size="10.00">+</text>
<text text-anchor="start" x="45.75" y="-422.5" font-family="Helvetica,sans-Serif" font-size="10.00">roomData</text>
<text text-anchor="start" x="36.12" y="-406.5" font-family="Helvetica,sans-Serif" font-size="10.00">#</text>
<text text-anchor="start" x="45.75" y="-406.5" font-family="Helvetica,sans-Serif" font-size="10.00">currentRoomLevelData</text>
<text text-anchor="start" x="35.75" y="-390.5" font-family="Helvetica,sans-Serif" font-size="10.00">+</text>
<text text-anchor="start" x="45.75" y="-390.5" font-family="Helvetica,sans-Serif" font-size="10.00">GetCurrentLevelData()</text>
<text text-anchor="start" x="35.75" y="-374.5" font-family="Helvetica,sans-Serif" font-size="10.00">+</text>
<text text-anchor="start" x="45.75" y="-374.5" font-family="Helvetica,sans-Serif" font-size="10.00">Upgrade()</text>
<text text-anchor="start" x="35.75" y="-358.5" font-family="Helvetica,sans-Serif" font-size="10.00">+</text>
<text text-anchor="start" x="45.75" y="-358.5" font-family="Helvetica,sans-Serif" font-size="10.00">Initialize()</text>
<text text-anchor="start" x="36.12" y="-342.5" font-family="Helvetica,sans-Serif" font-size="10.00">#</text>
<text text-anchor="start" x="45.75" y="-342.5" font-family="Helvetica,sans-Serif" font-size="10.00">UpdateRoomLevelData()</text>
<text text-anchor="start" x="36.12" y="-326.5" font-family="Helvetica,sans-Serif" font-size="10.00">#</text>
<text text-anchor="start" x="45.75" y="-326.5" font-family="Helvetica,sans-Serif" font-size="10.00">Start()</text>
<polygon fill="#666666" stroke="#666666" points="31.75,-434 31.75,-434 157.75,-434 157.75,-434 31.75,-434"/>
<polygon fill="#666666" stroke="#666666" points="31.75,-402 31.75,-402 43.75,-402 43.75,-402 31.75,-402"/>
<polygon fill="#666666" stroke="#666666" points="43.75,-402 43.75,-402 157.75,-402 157.75,-402 43.75,-402"/>
<polygon fill="none" stroke="#666666" points="31.75,-320 31.75,-452 157.75,-452 157.75,-320 31.75,-320"/>
</a>
</g>
</g>
<!-- Node3&#45;&gt;Node2 -->
<g id="edge2_Node000002_Node000003" class="edge">
<title>Node3&#45;&gt;Node2</title>
<g id="a_edge2_Node000002_Node000003"><a xlink:title=" ">
<path fill="none" stroke="#63b8ff" d="M94.75,-308.7C94.75,-300.5 94.75,-292.1 94.75,-283.76"/>
<polygon fill="none" stroke="#63b8ff" points="91.25,-308.63 94.75,-318.63 98.25,-308.63 91.25,-308.63"/>
</a>
</g>
</g>
<!-- Node4 -->
<g id="Node000004" class="node">
<title>Node4</title>
<g id="a_Node000004"><a xlink:href="class_room.html" target="_top" xlink:title="함선 내의 모든 방의 기본 클래스. 방의 상태, 작동 여부, 산소 레벨, 데미지 처리 등을 관리합니다.">
<polygon fill="white" stroke="none" points="163,-1052 26.5,-1052 26.5,-488 163,-488 163,-1052"/>
<text text-anchor="start" x="81.62" y="-1038.5" font-family="Helvetica,sans-Serif" font-size="10.00">Room</text>
<text text-anchor="start" x="30.5" y="-1022.5" font-family="Helvetica,sans-Serif" font-size="10.00">+</text>
<text text-anchor="start" x="40.5" y="-1022.5" font-family="Helvetica,sans-Serif" font-size="10.00">roomData</text>
<text text-anchor="start" x="30.5" y="-1006.5" font-family="Helvetica,sans-Serif" font-size="10.00">+</text>
<text text-anchor="start" x="40.5" y="-1006.5" font-family="Helvetica,sans-Serif" font-size="10.00">position</text>
<text text-anchor="start" x="30.5" y="-990.5" font-family="Helvetica,sans-Serif" font-size="10.00">+</text>
<text text-anchor="start" x="40.5" y="-990.5" font-family="Helvetica,sans-Serif" font-size="10.00">currentLevel</text>
<text text-anchor="start" x="30.5" y="-974.5" font-family="Helvetica,sans-Serif" font-size="10.00">+</text>
<text text-anchor="start" x="40.5" y="-974.5" font-family="Helvetica,sans-Serif" font-size="10.00">roomType</text>
<text text-anchor="start" x="30.5" y="-958.5" font-family="Helvetica,sans-Serif" font-size="10.00">+</text>
<text text-anchor="start" x="40.5" y="-958.5" font-family="Helvetica,sans-Serif" font-size="10.00">crewInRoom</text>
<text text-anchor="start" x="30.5" y="-942.5" font-family="Helvetica,sans-Serif" font-size="10.00">+</text>
<text text-anchor="start" x="40.5" y="-942.5" font-family="Helvetica,sans-Serif" font-size="10.00">gridSize</text>
<text text-anchor="start" x="30.5" y="-926.5" font-family="Helvetica,sans-Serif" font-size="10.00">+</text>
<text text-anchor="start" x="40.5" y="-926.5" font-family="Helvetica,sans-Serif" font-size="10.00">isPlaced</text>
<text text-anchor="start" x="30.88" y="-910.5" font-family="Helvetica,sans-Serif" font-size="10.00">#</text>
<text text-anchor="start" x="40.5" y="-910.5" font-family="Helvetica,sans-Serif" font-size="10.00">currentHitPoints</text>
<text text-anchor="start" x="30.88" y="-894.5" font-family="Helvetica,sans-Serif" font-size="10.00">#</text>
<text text-anchor="start" x="40.5" y="-894.5" font-family="Helvetica,sans-Serif" font-size="10.00">adjacentRooms</text>
<text text-anchor="start" x="30.88" y="-878.5" font-family="Helvetica,sans-Serif" font-size="10.00">#</text>
<text text-anchor="start" x="40.5" y="-878.5" font-family="Helvetica,sans-Serif" font-size="10.00">connectedDoors</text>
<text text-anchor="start" x="30.88" y="-862.5" font-family="Helvetica,sans-Serif" font-size="10.00">#</text>
<text text-anchor="start" x="40.5" y="-862.5" font-family="Helvetica,sans-Serif" font-size="10.00">roomParticles</text>
<text text-anchor="start" x="30.88" y="-846.5" font-family="Helvetica,sans-Serif" font-size="10.00">#</text>
<text text-anchor="start" x="40.5" y="-846.5" font-family="Helvetica,sans-Serif" font-size="10.00">roomSound</text>
<text text-anchor="start" x="30.88" y="-830.5" font-family="Helvetica,sans-Serif" font-size="10.00">#</text>
<text text-anchor="start" x="40.5" y="-830.5" font-family="Helvetica,sans-Serif" font-size="10.00">fireExtinguishRatePerLevel</text>
<text text-anchor="start" x="30.88" y="-814.5" font-family="Helvetica,sans-Serif" font-size="10.00">#</text>
<text text-anchor="start" x="40.5" y="-814.5" font-family="Helvetica,sans-Serif" font-size="10.00">isActive</text>
<text text-anchor="start" x="30.88" y="-798.5" font-family="Helvetica,sans-Serif" font-size="10.00">#</text>
<text text-anchor="start" x="40.5" y="-798.5" font-family="Helvetica,sans-Serif" font-size="10.00">isPowered</text>
<text text-anchor="start" x="30.88" y="-782.5" font-family="Helvetica,sans-Serif" font-size="10.00">#</text>
<text text-anchor="start" x="40.5" y="-782.5" font-family="Helvetica,sans-Serif" font-size="10.00">isPowerRequested</text>
<text text-anchor="start" x="30.88" y="-766.5" font-family="Helvetica,sans-Serif" font-size="10.00">#</text>
<text text-anchor="start" x="40.5" y="-766.5" font-family="Helvetica,sans-Serif" font-size="10.00">roomRenderer</text>
<text text-anchor="start" x="30.88" y="-750.5" font-family="Helvetica,sans-Serif" font-size="10.00">#</text>
<text text-anchor="start" x="40.5" y="-750.5" font-family="Helvetica,sans-Serif" font-size="10.00">parentShip</text>
<text text-anchor="start" x="30.5" y="-734.5" font-family="Helvetica,sans-Serif" font-size="10.00">+</text>
<text text-anchor="start" x="40.5" y="-734.5" font-family="Helvetica,sans-Serif" font-size="10.00">Update()</text>
<text text-anchor="start" x="30.5" y="-718.5" font-family="Helvetica,sans-Serif" font-size="10.00">+</text>
<text text-anchor="start" x="40.5" y="-718.5" font-family="Helvetica,sans-Serif" font-size="10.00">CanBePlaced()</text>
<text text-anchor="start" x="30.5" y="-702.5" font-family="Helvetica,sans-Serif" font-size="10.00">+</text>
<text text-anchor="start" x="40.5" y="-702.5" font-family="Helvetica,sans-Serif" font-size="10.00">OnPlaced()</text>
<text text-anchor="start" x="30.5" y="-686.5" font-family="Helvetica,sans-Serif" font-size="10.00">+</text>
<text text-anchor="start" x="40.5" y="-686.5" font-family="Helvetica,sans-Serif" font-size="10.00">OnCrewEnter()</text>
<text text-anchor="start" x="30.5" y="-670.5" font-family="Helvetica,sans-Serif" font-size="10.00">+</text>
<text text-anchor="start" x="40.5" y="-670.5" font-family="Helvetica,sans-Serif" font-size="10.00">OnCrewExit()</text>
<text text-anchor="start" x="30.5" y="-654.5" font-family="Helvetica,sans-Serif" font-size="10.00">+</text>
<text text-anchor="start" x="40.5" y="-654.5" font-family="Helvetica,sans-Serif" font-size="10.00">InitializeIsDamageable()</text>
<text text-anchor="start" x="30.5" y="-638.5" font-family="Helvetica,sans-Serif" font-size="10.00">+</text>
<text text-anchor="start" x="40.5" y="-638.5" font-family="Helvetica,sans-Serif" font-size="10.00">GetIsPowered()</text>
<text text-anchor="start" x="30.5" y="-622.5" font-family="Helvetica,sans-Serif" font-size="10.00">+</text>
<text text-anchor="start" x="40.5" y="-622.5" font-family="Helvetica,sans-Serif" font-size="10.00">GetIsPowerRequested()</text>
<text text-anchor="start" x="30.5" y="-606.5" font-family="Helvetica,sans-Serif" font-size="10.00">+</text>
<text text-anchor="start" x="40.5" y="-606.5" font-family="Helvetica,sans-Serif" font-size="10.00">GetIsDamageable()</text>
<text text-anchor="start" x="30.5" y="-590.5" font-family="Helvetica,sans-Serif" font-size="10.00">+</text>
<text text-anchor="start" x="40.5" y="-590.5" font-family="Helvetica,sans-Serif" font-size="10.00">Initialize()</text>
<text text-anchor="start" x="40.5" y="-574.5" font-family="Helvetica,sans-Serif" font-size="10.00">and 15 more...</text>
<text text-anchor="start" x="30.88" y="-558.5" font-family="Helvetica,sans-Serif" font-size="10.00">#</text>
<text text-anchor="start" x="40.5" y="-558.5" font-family="Helvetica,sans-Serif" font-size="10.00">Start()</text>
<text text-anchor="start" x="30.88" y="-542.5" font-family="Helvetica,sans-Serif" font-size="10.00">#</text>
<text text-anchor="start" x="40.5" y="-542.5" font-family="Helvetica,sans-Serif" font-size="10.00">UpdateRoom()</text>
<text text-anchor="start" x="30.88" y="-526.5" font-family="Helvetica,sans-Serif" font-size="10.00">#</text>
<text text-anchor="start" x="40.5" y="-526.5" font-family="Helvetica,sans-Serif" font-size="10.00">UpdateEffects()</text>
<text text-anchor="start" x="30.88" y="-510.5" font-family="Helvetica,sans-Serif" font-size="10.00">#</text>
<text text-anchor="start" x="40.5" y="-510.5" font-family="Helvetica,sans-Serif" font-size="10.00">OnDisabled()</text>
<text text-anchor="start" x="30.88" y="-494.5" font-family="Helvetica,sans-Serif" font-size="10.00">#</text>
<text text-anchor="start" x="40.5" y="-494.5" font-family="Helvetica,sans-Serif" font-size="10.00">NotifyStateChanged()</text>
<polygon fill="#666666" stroke="#666666" points="26.5,-1034 26.5,-1034 163,-1034 163,-1034 26.5,-1034"/>
<polygon fill="#666666" stroke="#666666" points="26.5,-746 26.5,-746 38.5,-746 38.5,-746 26.5,-746"/>
<polygon fill="#666666" stroke="#666666" points="38.5,-746 38.5,-746 163,-746 163,-746 38.5,-746"/>
<polygon fill="none" stroke="#666666" points="26.5,-488 26.5,-1052 163,-1052 163,-488 26.5,-488"/>
</a>
</g>
</g>
<!-- Node4&#45;&gt;Node3 -->
<g id="edge3_Node000003_Node000004" class="edge">
<title>Node4&#45;&gt;Node3</title>
<g id="a_edge3_Node000003_Node000004"><a xlink:title=" ">
<path fill="none" stroke="#63b8ff" d="M94.75,-476.78C94.75,-468 94.75,-459.62 94.75,-451.76"/>
<polygon fill="none" stroke="#63b8ff" points="91.25,-476.6 94.75,-486.6 98.25,-476.6 91.25,-476.6"/>
</a>
</g>
</g>
<!-- Node5 -->
<g id="Node000005" class="node">
<title>Node5</title>
<g id="a_Node000005"><a xlink:title=" ">
<polygon fill="white" stroke="none" points="75.5,-1140 0,-1140 0,-1088 75.5,-1088 75.5,-1140"/>
<text text-anchor="start" x="4" y="-1126.5" font-family="Helvetica,sans-Serif" font-size="10.00">MonoBehaviour</text>
<text text-anchor="start" x="36.25" y="-1110.5" font-family="Helvetica,sans-Serif" font-size="10.00"> </text>
<text text-anchor="start" x="36.25" y="-1094.5" font-family="Helvetica,sans-Serif" font-size="10.00"> </text>
<polygon fill="#bfbfbf" stroke="#bfbfbf" points="0,-1122 0,-1122 75.5,-1122 75.5,-1122 0,-1122"/>
<polygon fill="#bfbfbf" stroke="#bfbfbf" points="0,-1106 0,-1106 75.5,-1106 75.5,-1106 0,-1106"/>
<polygon fill="none" stroke="#bfbfbf" points="0,-1088 0,-1140 75.5,-1140 75.5,-1088 0,-1088"/>
</a>
</g>
</g>
<!-- Node5&#45;&gt;Node4 -->
<g id="edge4_Node000004_Node000005" class="edge">
<title>Node5&#45;&gt;Node4</title>
<g id="a_edge4_Node000004_Node000005"><a xlink:title=" ">
<path fill="none" stroke="#63b8ff" d="M43.77,-1076.86C45.02,-1069.41 46.41,-1061.02 47.93,-1051.91"/>
<polygon fill="none" stroke="#63b8ff" points="40.34,-1076.2 42.14,-1086.64 47.24,-1077.35 40.34,-1076.2"/>
</a>
</g>
</g>
<!-- Node6 -->
<g id="Node000006" class="node">
<title>Node6</title>
<g id="a_Node000006"><a xlink:href="interface_i_ship_stat_contributor.html" target="_top" xlink:title="함선의 ShipStat에 영향을 주는 객체 인터페이스. 방(Room)과 선원(Crew)은 모두 이 인터페이스를 통해 스탯에 기여합니다.">
<polygon fill="white" stroke="none" points="209.5,-1140 94,-1140 94,-1088 209.5,-1088 209.5,-1140"/>
<text text-anchor="start" x="107.5" y="-1126.5" font-family="Helvetica,sans-Serif" font-size="10.00">IShipStatContributor</text>
<text text-anchor="start" x="150.25" y="-1110.5" font-family="Helvetica,sans-Serif" font-size="10.00"> </text>
<text text-anchor="start" x="98" y="-1094.5" font-family="Helvetica,sans-Serif" font-size="10.00">+</text>
<text text-anchor="start" x="108" y="-1094.5" font-family="Helvetica,sans-Serif" font-size="10.00">GetStatContributions()</text>
<polygon fill="#666666" stroke="#666666" points="94,-1122 94,-1122 209.5,-1122 209.5,-1122 94,-1122"/>
<polygon fill="#666666" stroke="#666666" points="94,-1106 94,-1106 209.5,-1106 209.5,-1106 94,-1106"/>
<polygon fill="none" stroke="#666666" points="94,-1088 94,-1140 209.5,-1140 209.5,-1088 94,-1088"/>
</a>
</g>
</g>
<!-- Node6&#45;&gt;Node4 -->
<g id="edge5_Node000004_Node000006" class="edge">
<title>Node6&#45;&gt;Node4</title>
<g id="a_edge5_Node000004_Node000006"><a xlink:title=" ">
<path fill="none" stroke="#63b8ff" d="M145.73,-1076.86C144.48,-1069.41 143.09,-1061.02 141.57,-1051.91"/>
<polygon fill="none" stroke="#63b8ff" points="142.26,-1077.35 147.36,-1086.64 149.16,-1076.2 142.26,-1077.35"/>
</a>
</g>
</g>
</g>
</svg>
