<?xml version="1.0" encoding="UTF-8" standalone="no"?>
<!DOCTYPE svg PUBLIC "-//W3C//DTD SVG 1.1//EN"
 "http://www.w3.org/Graphics/SVG/1.1/DTD/svg11.dtd">
<!-- Generated by graphviz version 12.2.1 (20241206.2353)
 -->
<!-- Title: CrewUIHandler.ShowUI Pages: 1 -->
<svg width="329pt" height="140pt"
 viewBox="0.00 0.00 328.75 140.00" xmlns="http://www.w3.org/2000/svg" xmlns:xlink="http://www.w3.org/1999/xlink">
<g id="graph0" class="graph" transform="scale(1 1) rotate(0) translate(4 136)">
<title>CrewUIHandler.ShowUI</title>
<!-- Node1 -->
<g id="Node000001" class="node">
<title>Node1</title>
<g id="a_Node000001"><a xlink:title="인자로 받은 UI 활성화">
<polygon fill="#999999" stroke="#666666" points="320.75,-76 199,-76 199,-56 320.75,-56 320.75,-76"/>
<text text-anchor="middle" x="259.88" y="-62.5" font-family="Helvetica,sans-Serif" font-size="10.00">CrewUIHandler.ShowUI</text>
</a>
</g>
</g>
<!-- Node2 -->
<g id="Node000002" class="node">
<title>Node2</title>
<g id="a_Node000002"><a xlink:href="class_crew_u_i_handler.html#adc64cd9fb9c94d6cd30dfea9b8ef5c81" target="_top" xlink:title="장비 구매 UI로의 이동 버튼 클릭 시 호출">
<polygon fill="white" stroke="#666666" points="163,-132 0,-132 0,-100 163,-100 163,-132"/>
<text text-anchor="start" x="8" y="-118.5" font-family="Helvetica,sans-Serif" font-size="10.00">CrewUIHandler.OnAddEquipment</text>
<text text-anchor="middle" x="81.5" y="-106.5" font-family="Helvetica,sans-Serif" font-size="10.00">ButtonClicked</text>
</a>
</g>
</g>
<!-- Node1&#45;&gt;Node2 -->
<g id="edge1_Node000001_Node000002" class="edge">
<title>Node1&#45;&gt;Node2</title>
<g id="a_edge1_Node000001_Node000002"><a xlink:title=" ">
<path fill="none" stroke="#63b8ff" d="M210.97,-79.58C189.26,-85.74 163.41,-93.06 140.6,-99.53"/>
<polygon fill="#63b8ff" stroke="#63b8ff" points="211.78,-82.99 220.44,-76.89 209.87,-76.25 211.78,-82.99"/>
</a>
</g>
</g>
<!-- Node3 -->
<g id="Node000003" class="node">
<title>Node3</title>
<g id="a_Node000003"><a xlink:href="class_crew_u_i_handler.html#a25fe54aa5427f0bcdc856b95714bfd34" target="_top" xlink:title="선원 추가를 위한 UI로 이동 버튼 클릭 시 호출">
<polygon fill="white" stroke="#666666" points="160,-82 3,-82 3,-50 160,-50 160,-82"/>
<text text-anchor="start" x="11" y="-68.5" font-family="Helvetica,sans-Serif" font-size="10.00">CrewUIHandler.OnCreateButton</text>
<text text-anchor="middle" x="81.5" y="-56.5" font-family="Helvetica,sans-Serif" font-size="10.00">Clicked</text>
</a>
</g>
</g>
<!-- Node1&#45;&gt;Node3 -->
<g id="edge2_Node000001_Node000003" class="edge">
<title>Node1&#45;&gt;Node3</title>
<g id="a_edge2_Node000001_Node000003"><a xlink:title=" ">
<path fill="none" stroke="#63b8ff" d="M187.16,-66C178.28,-66 169.17,-66 160.21,-66"/>
<polygon fill="#63b8ff" stroke="#63b8ff" points="187.16,-69.5 197.16,-66 187.16,-62.5 187.16,-69.5"/>
</a>
</g>
</g>
<!-- Node4 -->
<g id="Node000004" class="node">
<title>Node4</title>
<g id="a_Node000004"><a xlink:href="class_crew_u_i_handler.html#a45a753651a66f7896431a39f5d7f76ed" target="_top" xlink:title="함선 커스터마이즈를 위한 버튼 클릭 시 호출">
<polygon fill="white" stroke="#666666" points="154.75,-32 8.25,-32 8.25,0 154.75,0 154.75,-32"/>
<text text-anchor="start" x="16.25" y="-18.5" font-family="Helvetica,sans-Serif" font-size="10.00">CrewUIHandler.OnCustomize</text>
<text text-anchor="middle" x="81.5" y="-6.5" font-family="Helvetica,sans-Serif" font-size="10.00">ButtonClicked</text>
</a>
</g>
</g>
<!-- Node1&#45;&gt;Node4 -->
<g id="edge3_Node000001_Node000004" class="edge">
<title>Node1&#45;&gt;Node4</title>
<g id="a_edge3_Node000001_Node000004"><a xlink:title=" ">
<path fill="none" stroke="#63b8ff" d="M210.97,-52.42C189.26,-46.26 163.41,-38.94 140.6,-32.47"/>
<polygon fill="#63b8ff" stroke="#63b8ff" points="209.87,-55.75 220.44,-55.11 211.78,-49.01 209.87,-55.75"/>
</a>
</g>
</g>
</g>
</svg>
