<?xml version="1.0" encoding="UTF-8" standalone="no"?>
<!DOCTYPE svg PUBLIC "-//W3C//DTD SVG 1.1//EN"
 "http://www.w3.org/Graphics/SVG/1.1/DTD/svg11.dtd">
<!-- Generated by graphviz version 12.2.1 (20241206.2353)
 -->
<!-- Title: QuestManager.QuestObjective Pages: 1 -->
<svg width="158pt" height="99pt"
 viewBox="0.00 0.00 157.75 99.00" xmlns="http://www.w3.org/2000/svg" xmlns:xlink="http://www.w3.org/1999/xlink">

<svg id="main" version="1.1" xmlns="http://www.w3.org/2000/svg" xmlns:xlink="http://www.w3.org/1999/xlink" xml:space="preserve">

<style type="text/css"><![CDATA[
.node, .edge {opacity: 0.7;}
.node.selected, .edge.selected {opacity: 1;}
.edge:hover path { stroke: red; }
.edge:hover polygon { stroke: red; fill: red; }
]]></style>
<script type="application/ecmascript" xlink:href="svg.min.js"/>
<svg id="graph" class="graph">
<g id="graph0" class="graph" transform="scale(1 1) rotate(0) translate(4 95)">
<title>QuestManager.QuestObjective</title>
<!-- Node1 -->
<g id="Node000001" class="node">
<title>Node1</title>
<g id="a_Node000001"><a xlink:title=" ">
<polygon fill="#999999" stroke="none" points="149.75,-91 0,-91 0,0 149.75,0 149.75,-91"/>
<text text-anchor="start" x="4" y="-77.5" font-family="Consolas" font-size="10.00">QuestManager.QuestObjective</text>
<text text-anchor="start" x="13.5" y="-63" font-family="Consolas" font-size="10.00">+</text>
<text text-anchor="start" x="32.25" y="-63" font-family="Consolas" font-size="10.00">string description</text>
<text text-anchor="start" x="13.5" y="-48.5" font-family="Consolas" font-size="10.00">+</text>
<text text-anchor="start" x="32.25" y="-48.5" font-family="Consolas" font-size="10.00">int currentAmount</text>
<text text-anchor="start" x="13.5" y="-34" font-family="Consolas" font-size="10.00">+</text>
<text text-anchor="start" x="32.25" y="-34" font-family="Consolas" font-size="10.00">int requiredAmount</text>
<text text-anchor="start" x="13.5" y="-19.5" font-family="Consolas" font-size="10.00">+</text>
<text text-anchor="start" x="32.25" y="-19.5" font-family="Consolas" font-size="10.00">bool isCompleted</text>
<text text-anchor="start" x="72.25" y="-5" font-family="Consolas" font-size="10.00"> </text>
<polygon fill="#666666" stroke="#666666" points="0,-74.5 0,-74.5 149.75,-74.5 149.75,-74.5 0,-74.5"/>
<polygon fill="#666666" stroke="#666666" points="0,-16.5 0,-16.5 30.25,-16.5 30.25,-16.5 0,-16.5"/>
<polygon fill="#666666" stroke="#666666" points="30.25,-16.5 30.25,-16.5 149.75,-16.5 149.75,-16.5 30.25,-16.5"/>
<polygon fill="none" stroke="#666666" points="0,0 0,-91 149.75,-91 149.75,0 0,0"/>
</a>
</g>
</g>
</g>
</svg>
</svg>

<style type='text/css'>
<![CDATA[
[data-mouse-over-selected='false'] { opacity: 0.7; }
[data-mouse-over-selected='true']  { opacity: 1.0; }
]]>
</style>
<script type="application/ecmascript"><![CDATA[
document.addEventListener('DOMContentLoaded', (event) => {
  highlightEdges();
  highlightAdjacentNodes();
});
]]></script>
</svg>
