<?xml version="1.0" encoding="UTF-8" standalone="no"?>
<!DOCTYPE svg PUBLIC "-//W3C//DTD SVG 1.1//EN"
 "http://www.w3.org/Graphics/SVG/1.1/DTD/svg11.dtd">
<!-- Generated by graphviz version 12.2.1 (20241206.2353)
 -->
<!-- Title: EventTreeMap Pages: 1 -->
<svg width="183pt" height="225pt"
 viewBox="0.00 0.00 182.75 224.50" xmlns="http://www.w3.org/2000/svg" xmlns:xlink="http://www.w3.org/1999/xlink">
<g id="graph0" class="graph" transform="scale(1 1) rotate(0) translate(4 220.5)">
<title>EventTreeMap</title>
<!-- Node1 -->
<g id="Node000001" class="node">
<title>Node1</title>
<g id="a_Node000001"><a xlink:title=" ">
<polygon fill="#999999" stroke="none" points="174.75,-133 0,-133 0,0 174.75,0 174.75,-133"/>
<text text-anchor="start" x="55.88" y="-119.5" font-family="Consolas" font-size="10.00">EventTreeMap</text>
<text text-anchor="start" x="84.75" y="-105" font-family="Consolas" font-size="10.00"> </text>
<text text-anchor="start" x="4" y="-90.5" font-family="Consolas" font-size="10.00">+</text>
<text text-anchor="start" x="13.25" y="-90.5" font-family="Consolas" font-size="10.00">delegate void NodeSelected</text>
<text text-anchor="start" x="13.25" y="-80" font-family="Consolas" font-size="10.00">Handler(EventNode node)</text>
<text text-anchor="start" x="4" y="-65.5" font-family="Consolas" font-size="10.00">+</text>
<text text-anchor="start" x="13.25" y="-65.5" font-family="Consolas" font-size="10.00">void Initialize()</text>
<text text-anchor="start" x="4" y="-51" font-family="Consolas" font-size="10.00">+</text>
<text text-anchor="start" x="13.25" y="-51" font-family="Consolas" font-size="10.00">void GenerateTreeFromPath</text>
<text text-anchor="start" x="13.25" y="-40.5" font-family="Consolas" font-size="10.00">(List&lt; Vector2 &gt; pathNodes,</text>
<text text-anchor="start" x="13.25" y="-30" font-family="Consolas" font-size="10.00"> List&lt; bool &gt; dangerInfo=null)</text>
<text text-anchor="start" x="4" y="-15.5" font-family="Consolas" font-size="10.00">+</text>
<text text-anchor="start" x="13.25" y="-15.5" font-family="Consolas" font-size="10.00">void GenerateImprovedTree</text>
<text text-anchor="start" x="13.25" y="-5" font-family="Consolas" font-size="10.00">(int layers)</text>
<polygon fill="#666666" stroke="#666666" points="0,-116.5 0,-116.5 174.75,-116.5 174.75,-116.5 0,-116.5"/>
<polygon fill="#666666" stroke="#666666" points="0,-102 0,-102 174.75,-102 174.75,-102 0,-102"/>
<polygon fill="none" stroke="#666666" points="0,0 0,-133 174.75,-133 174.75,0 0,0"/>
</a>
</g>
</g>
<!-- Node2 -->
<g id="Node000002" class="node">
<title>Node2</title>
<g id="a_Node000002"><a xlink:title=" ">
<polygon fill="white" stroke="none" points="125.5,-216.5 49.25,-216.5 49.25,-169 125.5,-169 125.5,-216.5"/>
<text text-anchor="start" x="53.25" y="-203" font-family="Consolas" font-size="10.00">MonoBehaviour</text>
<text text-anchor="start" x="84.75" y="-188.5" font-family="Consolas" font-size="10.00"> </text>
<text text-anchor="start" x="84.75" y="-174" font-family="Consolas" font-size="10.00"> </text>
<polygon fill="#bfbfbf" stroke="#bfbfbf" points="49.25,-200 49.25,-200 125.5,-200 125.5,-200 49.25,-200"/>
<polygon fill="#bfbfbf" stroke="#bfbfbf" points="49.25,-185.5 49.25,-185.5 125.5,-185.5 125.5,-185.5 49.25,-185.5"/>
<polygon fill="none" stroke="#bfbfbf" points="49.25,-169 49.25,-216.5 125.5,-216.5 125.5,-169 49.25,-169"/>
</a>
</g>
</g>
<!-- Node2&#45;&gt;Node1 -->
<g id="edge1_Node000001_Node000002" class="edge">
<title>Node2&#45;&gt;Node1</title>
<g id="a_edge1_Node000001_Node000002"><a xlink:title=" ">
<path fill="none" stroke="#63b8ff" d="M87.38,-157.78C87.38,-150.03 87.38,-141.54 87.38,-132.97"/>
<polygon fill="none" stroke="#63b8ff" points="83.88,-157.74 87.38,-167.74 90.88,-157.74 83.88,-157.74"/>
</a>
</g>
</g>
</g>
</svg>
