<?xml version="1.0" encoding="UTF-8" standalone="no"?>
<!DOCTYPE svg PUBLIC "-//W3C//DTD SVG 1.1//EN"
 "http://www.w3.org/Graphics/SVG/1.1/DTD/svg11.dtd">
<!-- Generated by graphviz version 12.2.1 (20241206.2353)
 -->
<!-- Title: WeaponControlRoom.TakeDamage Pages: 1 -->
<svg width="460pt" height="28pt"
 viewBox="0.00 0.00 460.25 28.00" xmlns="http://www.w3.org/2000/svg" xmlns:xlink="http://www.w3.org/1999/xlink">
<g id="graph0" class="graph" transform="scale(1 1) rotate(0) translate(4 24)">
<title>WeaponControlRoom.TakeDamage</title>
<!-- Node1 -->
<g id="Node000001" class="node">
<title>Node1</title>
<g id="a_Node000001"><a xlink:title="조준석이 피해를 받을 때 호출됩니다. 이펙트를 갱신합니다.">
<polygon fill="#999999" stroke="#666666" points="169.75,-20 0,-20 0,0 169.75,0 169.75,-20"/>
<text text-anchor="middle" x="84.88" y="-6.5" font-family="Helvetica,sans-Serif" font-size="10.00">WeaponControlRoom.TakeDamage</text>
</a>
</g>
</g>
<!-- Node2 -->
<g id="Node000002" class="node">
<title>Node2</title>
<g id="a_Node000002"><a xlink:href="class_room.html#ae27efaeaba4cd66e7edf0cb42232e131" target="_top" xlink:title="방의 이펙트(색상, 파티클 등)를 업데이트합니다.">
<polygon fill="white" stroke="#666666" points="313.25,-20 205.75,-20 205.75,0 313.25,0 313.25,-20"/>
<text text-anchor="middle" x="259.5" y="-6.5" font-family="Helvetica,sans-Serif" font-size="10.00">Room.UpdateEffects</text>
</a>
</g>
</g>
<!-- Node1&#45;&gt;Node2 -->
<g id="edge1_Node000001_Node000002" class="edge">
<title>Node1&#45;&gt;Node2</title>
<g id="a_edge1_Node000001_Node000002"><a xlink:title=" ">
<path fill="none" stroke="#63b8ff" d="M170.16,-10C178.12,-10 186.1,-10 193.83,-10"/>
<polygon fill="#63b8ff" stroke="#63b8ff" points="193.83,-13.5 203.83,-10 193.83,-6.5 193.83,-13.5"/>
</a>
</g>
</g>
<!-- Node3 -->
<g id="Node000003" class="node">
<title>Node3</title>
<g id="a_Node000003"><a xlink:href="class_room.html#a0f32e752b4605a8bba077145b76b8e98" target="_top" xlink:title="방이 작동 가능한 상태인지 확인합니다.">
<polygon fill="white" stroke="#666666" points="452.25,-20 349.25,-20 349.25,0 452.25,0 452.25,-20"/>
<text text-anchor="middle" x="400.75" y="-6.5" font-family="Helvetica,sans-Serif" font-size="10.00">Room.IsOperational</text>
</a>
</g>
</g>
<!-- Node2&#45;&gt;Node3 -->
<g id="edge2_Node000002_Node000003" class="edge">
<title>Node2&#45;&gt;Node3</title>
<g id="a_edge2_Node000002_Node000003"><a xlink:title=" ">
<path fill="none" stroke="#63b8ff" d="M313.54,-10C321.48,-10 329.73,-10 337.83,-10"/>
<polygon fill="#63b8ff" stroke="#63b8ff" points="337.64,-13.5 347.64,-10 337.64,-6.5 337.64,-13.5"/>
</a>
</g>
</g>
</g>
</svg>
