<?xml version="1.0" encoding="UTF-8" standalone="no"?>
<!DOCTYPE svg PUBLIC "-//W3C//DTD SVG 1.1//EN"
 "http://www.w3.org/Graphics/SVG/1.1/DTD/svg11.dtd">
<!-- Generated by graphviz version 12.2.1 (20241206.2353)
 -->
<!-- Title: Ship.TakeAttack Pages: 1 -->
<!--zoomable 230 -->

<svg id="main" version="1.1" xmlns="http://www.w3.org/2000/svg" xmlns:xlink="http://www.w3.org/1999/xlink" xml:space="preserve" onload="init(evt)">

<style type="text/css"><![CDATA[
.node, .edge {opacity: 0.7;}
.node.selected, .edge.selected {opacity: 1;}
.edge:hover path { stroke: red; }
.edge:hover polygon { stroke: red; fill: red; }
]]></style>

<defs>
  <circle id="rim" cx="0" cy="0" r="7"/>
  <circle id="rim2" cx="0" cy="0" r="3.5"/>
  <g id="zoomPlus">
    <use xlink:href="#rim" fill="#404040"><set attributeName="fill" to="#808080" begin="zoomplus.mouseover" end="zoomplus.mouseout"/></use>
    <path d="M-4,0h8M0,-4v8" fill="none" stroke="white" stroke-width="1.5" pointer-events="none"/>
  </g>
  <g id="zoomMin">
    <use xlink:href="#rim" fill="#404040"><set attributeName="fill" to="#808080" begin="zoomminus.mouseover" end="zoomminus.mouseout"/></use>
    <path d="M-4,0h8" fill="none" stroke="white" stroke-width="1.5" pointer-events="none"/>
  </g>
  <g id="arrowUp" transform="translate(30 24)">
    <use xlink:href="#rim"/>
    <path pointer-events="none" fill="none" stroke="white" stroke-width="1.5" d="M0,-3.0v7 M-2.5,-0.5L0,-3.0L2.5,-0.5"/>
  </g>
  <g id="arrowRight" transform="rotate(90) translate(36 -43)">
    <use xlink:href="#rim"/>
    <path pointer-events="none" fill="none" stroke="white" stroke-width="1.5" d="M0,-3.0v7 M-2.5,-0.5L0,-3.0L2.5,-0.5"/>
  </g>
  <g id="arrowDown" transform="rotate(180) translate(-30 -48)">
    <use xlink:href="#rim"/>
    <path pointer-events="none" fill="none" stroke="white" stroke-width="1.5" d="M0,-3.0v7 M-2.5,-0.5L0,-3.0L2.5,-0.5"/>
  </g>
  <g id="arrowLeft" transform="rotate(270) translate(-36 17)">
    <use xlink:href="#rim"/>
    <path pointer-events="none" fill="none" stroke="white" stroke-width="1.5" d="M0,-3.0v7 M-2.5,-0.5L0,-3.0L2.5,-0.5"/>
  </g>
  <g id="resetDef">
    <use xlink:href="#rim2" fill="#404040"><set attributeName="fill" to="#808080" begin="reset.mouseover" end="reset.mouseout"/></use>
  </g>
</defs>
<script type="application/ecmascript">
var viewWidth = 637;
var viewHeight = 230;
var sectionId = 'dynsection-8';
</script>
<script type="application/ecmascript" xlink:href="svg.min.js"/>
<svg id="graph" class="graph">
<g id="viewport">
<title>Ship.TakeAttack</title>
<!-- Node1 -->
<g id="Node000001" class="node">
<title>Node1</title>
<g id="a_Node000001"><a xlink:title="무기 및 외부 방어 시스템을 포함한 실제 피해 계산 및 적용을 수행합니다.">
<polygon fill="#999999" stroke="#666666" points="88,-165 0,-165 0,-145 88,-145 88,-165"/>
<text text-anchor="middle" x="44" y="-151.5" font-family="Helvetica,sans-Serif" font-size="10.00">Ship.TakeAttack</text>
</a>
</g>
</g>
<!-- Node2 -->
<g id="Node000002" class="node">
<title>Node2</title>
<g id="a_Node000002"><a xlink:href="class_shield_system.html#a63973bec7496fe95c79b57638c0b00fe" target="_top" xlink:title="현재 쉴드가 활성화되어 있는지 여부를 반환합니다.">
<polygon fill="white" stroke="#666666" points="266.75,-222 124,-222 124,-202 266.75,-202 266.75,-222"/>
<text text-anchor="middle" x="195.38" y="-208.5" font-family="Helvetica,sans-Serif" font-size="10.00">ShieldSystem.IsShieldActive</text>
</a>
</g>
</g>
<!-- Node1&#45;&gt;Node2 -->
<g id="edge1_Node000001_Node000002" class="edge">
<title>Node1&#45;&gt;Node2</title>
<g id="a_edge1_Node000001_Node000002"><a xlink:title=" ">
<path fill="none" stroke="#63b8ff" d="M68.69,-165.38C84.29,-172.1 105.24,-180.89 124,-188 132.84,-191.35 142.38,-194.75 151.5,-197.89"/>
<polygon fill="#63b8ff" stroke="#63b8ff" points="150.31,-201.18 160.9,-201.09 152.56,-194.55 150.31,-201.18"/>
</a>
</g>
</g>
<!-- Node3 -->
<g id="Node000003" class="node">
<title>Node3</title>
<g id="a_Node000003"><a xlink:href="class_outer_hull_system.html#a546cc38872f4b8e97bb31c84214e0d5d" target="_top" xlink:title="외부 선체의 피해 감소율을 적용하여 실질적인 피해량을 계산합니다.">
<polygon fill="white" stroke="#666666" points="467.25,-184 302.75,-184 302.75,-164 467.25,-164 467.25,-184"/>
<text text-anchor="middle" x="385" y="-170.5" font-family="Helvetica,sans-Serif" font-size="10.00">OuterHullSystem.ReduceDamage</text>
</a>
</g>
</g>
<!-- Node1&#45;&gt;Node3 -->
<g id="edge2_Node000001_Node000003" class="edge">
<title>Node1&#45;&gt;Node3</title>
<g id="a_edge2_Node000001_Node000003"><a xlink:title=" ">
<path fill="none" stroke="#63b8ff" d="M88.28,-157.43C139.15,-160.28 225.02,-165.09 291.16,-168.8"/>
<polygon fill="#63b8ff" stroke="#63b8ff" points="290.74,-172.28 300.92,-169.34 291.13,-165.29 290.74,-172.28"/>
</a>
</g>
</g>
<!-- Node5 -->
<g id="Node000005" class="node">
<title>Node5</title>
<g id="a_Node000005"><a xlink:href="class_shield_system.html#a50da4fedfbb95a2510abc2d1d7c5c0e2" target="_top" xlink:title="쉴드에 피해를 입히고, 남은 피해량을 반환합니다. 쉴드가 모두 소모되면 파괴 상태로 전환되며, 재활성화 타이머가 시작됩니다. 특정 무기 타입은 피해량 보정이 적용됩니다.">
<polygon fill="white" stroke="#666666" points="264.12,-146 126.62,-146 126.62,-126 264.12,-126 264.12,-146"/>
<text text-anchor="middle" x="195.38" y="-132.5" font-family="Helvetica,sans-Serif" font-size="10.00">ShieldSystem.TakeDamage</text>
</a>
</g>
</g>
<!-- Node1&#45;&gt;Node5 -->
<g id="edge4_Node000001_Node000005" class="edge">
<title>Node1&#45;&gt;Node5</title>
<g id="a_edge4_Node000001_Node000005"><a xlink:title=" ">
<path fill="none" stroke="#63b8ff" d="M88.21,-149.5C96.66,-148.43 105.77,-147.27 114.98,-146.1"/>
<polygon fill="#63b8ff" stroke="#63b8ff" points="115.24,-149.59 124.72,-144.86 114.36,-142.65 115.24,-149.59"/>
</a>
</g>
</g>
<!-- Node6 -->
<g id="Node000006" class="node">
<title>Node6</title>
<g id="a_Node000006"><a xlink:href="class_ship.html#ac61b02cdac21a64fd326753ccb8ae96a" target="_top" xlink:title="함선에 직접 피해를 적용합니다. 체력을 감소시키고, 파괴되었는지 확인합니다.">
<polygon fill="white" stroke="#666666" points="243.5,-80 147.25,-80 147.25,-60 243.5,-60 243.5,-80"/>
<text text-anchor="middle" x="195.38" y="-66.5" font-family="Helvetica,sans-Serif" font-size="10.00">Ship.TakeDamage</text>
</a>
</g>
</g>
<!-- Node1&#45;&gt;Node6 -->
<g id="edge6_Node000001_Node000006" class="edge">
<title>Node1&#45;&gt;Node6</title>
<g id="a_edge6_Node000001_Node000006"><a xlink:title=" ">
<path fill="none" stroke="#63b8ff" d="M63.32,-144.58C89.1,-129.9 136.32,-103.04 166.48,-85.87"/>
<polygon fill="#63b8ff" stroke="#63b8ff" points="168.1,-88.98 175.06,-80.99 164.64,-82.89 168.1,-88.98"/>
</a>
</g>
</g>
<!-- Node4 -->
<g id="Node000004" class="node">
<title>Node4</title>
<g id="a_Node000004"><a xlink:href="class_ship_system.html#a0c4c206aa7e875dc6810ea122e46b332" target="_top" xlink:title="현재 함선의 특정 스탯 값을 가져옵니다.">
<polygon fill="white" stroke="#666666" points="628.75,-146 503.25,-146 503.25,-126 628.75,-126 628.75,-146"/>
<text text-anchor="middle" x="566" y="-132.5" font-family="Helvetica,sans-Serif" font-size="10.00">ShipSystem.GetShipStat</text>
</a>
</g>
</g>
<!-- Node3&#45;&gt;Node4 -->
<g id="edge3_Node000003_Node000004" class="edge">
<title>Node3&#45;&gt;Node4</title>
<g id="a_edge3_Node000003_Node000004"><a xlink:title=" ">
<path fill="none" stroke="#63b8ff" d="M435.39,-163.52C456.81,-158.97 482.1,-153.6 504.63,-148.82"/>
<polygon fill="#63b8ff" stroke="#63b8ff" points="505.24,-152.26 514.29,-146.76 503.79,-145.42 505.24,-152.26"/>
</a>
</g>
</g>
<!-- Node5&#45;&gt;Node4 -->
<g id="edge5_Node000005_Node000004" class="edge">
<title>Node5&#45;&gt;Node4</title>
<g id="a_edge5_Node000005_Node000004"><a xlink:title=" ">
<path fill="none" stroke="#63b8ff" d="M264.42,-136C328.92,-136 425.53,-136 491.71,-136"/>
<polygon fill="#63b8ff" stroke="#63b8ff" points="491.36,-139.5 501.36,-136 491.36,-132.5 491.36,-139.5"/>
</a>
</g>
</g>
<!-- Node7 -->
<g id="Node000007" class="node">
<title>Node7</title>
<g id="a_Node000007"><a xlink:href="class_hit_point_system.html#afc57249cf7099f1cc807759fe5d83f50" target="_top" xlink:title="체력을 변경합니다. 양수이면 회복, 음수이면 피해를 의미합니다. 최대 체력을 초과하지 않으며, 0 아래로 내려가지 않습니다.">
<polygon fill="white" stroke="#666666" points="452.25,-108 317.75,-108 317.75,-76 452.25,-76 452.25,-108"/>
<text text-anchor="start" x="325.75" y="-94.5" font-family="Helvetica,sans-Serif" font-size="10.00">HitPointSystem.ChangeHit</text>
<text text-anchor="middle" x="385" y="-82.5" font-family="Helvetica,sans-Serif" font-size="10.00">Point</text>
</a>
</g>
</g>
<!-- Node6&#45;&gt;Node7 -->
<g id="edge7_Node000006_Node000007" class="edge">
<title>Node6&#45;&gt;Node7</title>
<g id="a_edge7_Node000006_Node000007"><a xlink:title=" ">
<path fill="none" stroke="#63b8ff" d="M243.72,-75.55C262.68,-77.77 285.02,-80.39 306.23,-82.88"/>
<polygon fill="#63b8ff" stroke="#63b8ff" points="305.69,-86.34 316.03,-84.03 306.51,-79.39 305.69,-86.34"/>
</a>
</g>
</g>
<!-- Node8 -->
<g id="Node000008" class="node">
<title>Node8</title>
<g id="a_Node000008"><a xlink:href="class_hit_point_system.html#a85a6d6b8c9c935065ccad64984e8dfba" target="_top" xlink:title="현재 체력 값을 반환합니다.">
<polygon fill="white" stroke="#666666" points="454.5,-58 315.5,-58 315.5,-38 454.5,-38 454.5,-58"/>
<text text-anchor="middle" x="385" y="-44.5" font-family="Helvetica,sans-Serif" font-size="10.00">HitPointSystem.GetHitPoint</text>
</a>
</g>
</g>
<!-- Node6&#45;&gt;Node8 -->
<g id="edge9_Node000006_Node000008" class="edge">
<title>Node6&#45;&gt;Node8</title>
<g id="a_edge9_Node000006_Node000008"><a xlink:title=" ">
<path fill="none" stroke="#63b8ff" d="M243.72,-64.45C261.95,-62.31 283.31,-59.81 303.78,-57.41"/>
<polygon fill="#63b8ff" stroke="#63b8ff" points="304.02,-60.9 313.54,-56.26 303.2,-53.95 304.02,-60.9"/>
</a>
</g>
</g>
<!-- Node9 -->
<g id="Node000009" class="node">
<title>Node9</title>
<g id="a_Node000009"><a xlink:href="class_ship.html#a96161da9757b06a2b12edfe591119abb" target="_top" xlink:title="함선이 파괴되었을 때 호출되는 함수입니다. 게임 오버 로직 등을 처리할 수 있습니다.">
<polygon fill="white" stroke="#666666" points="442.88,-20 327.12,-20 327.12,0 442.88,0 442.88,-20"/>
<text text-anchor="middle" x="385" y="-6.5" font-family="Helvetica,sans-Serif" font-size="10.00">Ship.OnShipDestroyed</text>
</a>
</g>
</g>
<!-- Node6&#45;&gt;Node9 -->
<g id="edge10_Node000006_Node000009" class="edge">
<title>Node6&#45;&gt;Node9</title>
<g id="a_edge10_Node000006_Node000009"><a xlink:title=" ">
<path fill="none" stroke="#63b8ff" d="M220.54,-59.58C241.89,-50.65 274,-37.86 302.75,-29 309.38,-26.96 316.38,-25.01 323.37,-23.2"/>
<polygon fill="#63b8ff" stroke="#63b8ff" points="323.97,-26.66 332.83,-20.84 322.28,-19.87 323.97,-26.66"/>
</a>
</g>
</g>
<!-- Node7&#45;&gt;Node4 -->
<g id="edge8_Node000007_Node000004" class="edge">
<title>Node7&#45;&gt;Node4</title>
<g id="a_edge8_Node000007_Node000004"><a xlink:title=" ">
<path fill="none" stroke="#63b8ff" d="M452.65,-108.38C472,-113.14 492.87,-118.27 511.31,-122.8"/>
<polygon fill="#63b8ff" stroke="#63b8ff" points="510.42,-126.19 520.97,-125.18 512.1,-119.39 510.42,-126.19"/>
</a>
</g>
</g>
</g>
</svg>

<g id="navigator" transform="translate(0 0)" fill="#404254">
  <rect fill="#f2f5e9" fill-opacity="0.5" stroke="#606060" stroke-width=".5" x="0" y="0" width="60" height="60"/>
  <use id="zoomplus" xlink:href="#zoomPlus" x="17" y="9" onmousedown="handleZoom(evt,'in')"/>
  <use id="zoomminus" xlink:href="#zoomMin" x="42" y="9" onmousedown="handleZoom(evt,'out')"/>
  <use id="reset" xlink:href="#resetDef" x="30" y="36" onmousedown="handleReset()"/>
   <use id="arrowup" xlink:href="#arrowUp" x="0" y="0" onmousedown="handlePan(0,-1)"/>
  <use id="arrowright" xlink:href="#arrowRight" x="0" y="0" onmousedown="handlePan(1,0)"/>
  <use id="arrowdown" xlink:href="#arrowDown" x="0" y="0" onmousedown="handlePan(0,1)"/>
  <use id="arrowleft" xlink:href="#arrowLeft" x="0" y="0" onmousedown="handlePan(-1,0)"/>
</g>
<svg viewBox="0 0 15 15" width="100%" height="30px" preserveAspectRatio="xMaxYMin meet">
 <g id="arrow_out" transform="scale(0.3 0.3)">
  <a xlink:href="class_ship_a25d0e4e1201ebf27ff37a82f1eade78f_cgraph_org.svg" target="_base">
   <rect id="button" ry="5" rx="5" y="6" x="6" height="38" width="38"
        fill="#f2f5e9" fill-opacity="0.5" stroke="#606060" stroke-width="1.0"/>
   <path id="arrow"
     d="M 11.500037,31.436501 C 11.940474,20.09759 22.043105,11.32322 32.158766,21.979434 L 37.068811,17.246167 C 37.068811,17.246167 37.088388,32 37.088388,32 L 22.160133,31.978069 C 22.160133,31.978069 26.997745,27.140456 26.997745,27.140456 C 18.528582,18.264221 13.291696,25.230495 11.500037,31.436501 z"
     style="fill:#404040;"/>
  </a>
 </g>
</svg>

<style type='text/css'>
<![CDATA[
[data-mouse-over-selected='false'] { opacity: 0.7; }
[data-mouse-over-selected='true']  { opacity: 1.0; }
]]>
</style>
<script type="application/ecmascript"><![CDATA[
document.addEventListener('DOMContentLoaded', (event) => {
  highlightEdges();
  highlightAdjacentNodes();
});
]]></script>
</svg>
