<?xml version="1.0" encoding="UTF-8" standalone="no"?>
<!DOCTYPE svg PUBLIC "-//W3C//DTD SVG 1.1//EN"
 "http://www.w3.org/Graphics/SVG/1.1/DTD/svg11.dtd">
<!-- Generated by graphviz version 12.2.1 (20241206.2353)
 -->
<!-- Title: CrewManager Pages: 1 -->
<!--zoomable 615 -->

<svg id="main" version="1.1" xmlns="http://www.w3.org/2000/svg" xmlns:xlink="http://www.w3.org/1999/xlink" xml:space="preserve" onload="init(evt)">

<style type="text/css"><![CDATA[
.node, .edge {opacity: 0.7;}
.node.selected, .edge.selected {opacity: 1;}
.edge:hover path { stroke: red; }
.edge:hover polygon { stroke: red; fill: red; }
]]></style>

<defs>
  <circle id="rim" cx="0" cy="0" r="7"/>
  <circle id="rim2" cx="0" cy="0" r="3.5"/>
  <g id="zoomPlus">
    <use xlink:href="#rim" fill="#404040"><set attributeName="fill" to="#808080" begin="zoomplus.mouseover" end="zoomplus.mouseout"/></use>
    <path d="M-4,0h8M0,-4v8" fill="none" stroke="white" stroke-width="1.5" pointer-events="none"/>
  </g>
  <g id="zoomMin">
    <use xlink:href="#rim" fill="#404040"><set attributeName="fill" to="#808080" begin="zoomminus.mouseover" end="zoomminus.mouseout"/></use>
    <path d="M-4,0h8" fill="none" stroke="white" stroke-width="1.5" pointer-events="none"/>
  </g>
  <g id="arrowUp" transform="translate(30 24)">
    <use xlink:href="#rim"/>
    <path pointer-events="none" fill="none" stroke="white" stroke-width="1.5" d="M0,-3.0v7 M-2.5,-0.5L0,-3.0L2.5,-0.5"/>
  </g>
  <g id="arrowRight" transform="rotate(90) translate(36 -43)">
    <use xlink:href="#rim"/>
    <path pointer-events="none" fill="none" stroke="white" stroke-width="1.5" d="M0,-3.0v7 M-2.5,-0.5L0,-3.0L2.5,-0.5"/>
  </g>
  <g id="arrowDown" transform="rotate(180) translate(-30 -48)">
    <use xlink:href="#rim"/>
    <path pointer-events="none" fill="none" stroke="white" stroke-width="1.5" d="M0,-3.0v7 M-2.5,-0.5L0,-3.0L2.5,-0.5"/>
  </g>
  <g id="arrowLeft" transform="rotate(270) translate(-36 17)">
    <use xlink:href="#rim"/>
    <path pointer-events="none" fill="none" stroke="white" stroke-width="1.5" d="M0,-3.0v7 M-2.5,-0.5L0,-3.0L2.5,-0.5"/>
  </g>
  <g id="resetDef">
    <use xlink:href="#rim2" fill="#404040"><set attributeName="fill" to="#808080" begin="reset.mouseover" end="reset.mouseout"/></use>
  </g>
</defs>
<script type="application/ecmascript">
var viewWidth = 266;
var viewHeight = 615;
var sectionId = 'dynsection-1';
</script>
<script type="application/ecmascript" xlink:href="svg.min.js"/>
<svg id="graph" class="graph">
<g id="viewport">
<title>CrewManager</title>
<!-- Node1 -->
<g id="Node000001" class="node">
<title>Node1</title>
<g id="a_Node000001"><a xlink:title=" ">
<polygon fill="#999999" stroke="none" points="159.62,-122.5 0.62,-122.5 0.62,0 159.62,0 159.62,-122.5"/>
<text text-anchor="start" x="51.25" y="-109" font-family="Consolas" font-size="10.00">CrewManager</text>
<text text-anchor="start" x="4.62" y="-94.5" font-family="Consolas" font-size="10.00">+</text>
<text text-anchor="start" x="13.88" y="-94.5" font-family="Consolas" font-size="10.00">static CrewManager</text>
<text text-anchor="start" x="13.88" y="-84" font-family="Consolas" font-size="10.00"> Instance</text>
<text text-anchor="start" x="4.62" y="-69.5" font-family="Consolas" font-size="10.00">+</text>
<text text-anchor="start" x="13.88" y="-69.5" font-family="Consolas" font-size="10.00">void AddCrewMember</text>
<text text-anchor="start" x="13.88" y="-59" font-family="Consolas" font-size="10.00">(string inputName, CrewRace</text>
<text text-anchor="start" x="13.88" y="-48.5" font-family="Consolas" font-size="10.00"> selectedRace)</text>
<text text-anchor="start" x="4.62" y="-34" font-family="Consolas" font-size="10.00">+</text>
<text text-anchor="start" x="13.88" y="-34" font-family="Consolas" font-size="10.00">int GetCurrentCrewCount()</text>
<text text-anchor="start" x="4.62" y="-19.5" font-family="Consolas" font-size="10.00">+</text>
<text text-anchor="start" x="13.88" y="-19.5" font-family="Consolas" font-size="10.00">int GetMaxCrewCount()</text>
<text text-anchor="start" x="4.62" y="-5" font-family="Consolas" font-size="10.00">+</text>
<text text-anchor="start" x="13.88" y="-5" font-family="Consolas" font-size="10.00">CrewBase GetSelectedCrew()</text>
<polygon fill="#666666" stroke="#666666" points="0.62,-106 0.62,-106 159.62,-106 159.62,-106 0.62,-106"/>
<polygon fill="#666666" stroke="#666666" points="0.62,-81 0.62,-81 11.88,-81 11.88,-81 0.62,-81"/>
<polygon fill="#666666" stroke="#666666" points="11.88,-81 11.88,-81 159.62,-81 159.62,-81 11.88,-81"/>
<polygon fill="none" stroke="#666666" points="0.62,0 0.62,-122.5 159.62,-122.5 159.62,0 0.62,0"/>
</a>
</g>
</g>
<!-- Node2 -->
<g id="Node000002" class="node">
<title>Node2</title>
<g id="a_Node000002"><a xlink:title=" ">
<polygon fill="white" stroke="none" points="76.25,-382.25 0,-382.25 0,-334.75 76.25,-334.75 76.25,-382.25"/>
<text text-anchor="start" x="4" y="-368.75" font-family="Consolas" font-size="10.00">MonoBehaviour</text>
<text text-anchor="start" x="35.5" y="-354.25" font-family="Consolas" font-size="10.00"> </text>
<text text-anchor="start" x="35.5" y="-339.75" font-family="Consolas" font-size="10.00"> </text>
<polygon fill="#bfbfbf" stroke="#bfbfbf" points="0,-365.75 0,-365.75 76.25,-365.75 76.25,-365.75 0,-365.75"/>
<polygon fill="#bfbfbf" stroke="#bfbfbf" points="0,-351.25 0,-351.25 76.25,-351.25 76.25,-351.25 0,-351.25"/>
<polygon fill="none" stroke="#bfbfbf" points="0,-334.75 0,-382.25 76.25,-382.25 76.25,-334.75 0,-334.75"/>
</a>
</g>
</g>
<!-- Node2&#45;&gt;Node1 -->
<g id="edge1_Node000001_Node000002" class="edge">
<title>Node2&#45;&gt;Node1</title>
<g id="a_edge1_Node000001_Node000002"><a xlink:title=" ">
<path fill="none" stroke="#63b8ff" d="M42.95,-323.6C49.92,-274.56 62.94,-183.08 71.57,-122.41"/>
<polygon fill="none" stroke="#63b8ff" points="39.51,-322.93 41.56,-333.32 46.44,-323.92 39.51,-322.93"/>
</a>
</g>
</g>
<!-- Node3 -->
<g id="Node000003" class="node">
<title>Node3</title>
<g id="a_Node000003"><a xlink:href="class_equipment_item.html" target="_top" xlink:title=" ">
<polygon fill="white" stroke="none" points="258.25,-522.5 94,-522.5 94,-194.5 258.25,-194.5 258.25,-522.5"/>
<text text-anchor="start" x="142" y="-509" font-family="Consolas" font-size="10.00">EquipmentItem</text>
<text text-anchor="start" x="98" y="-494.5" font-family="Consolas" font-size="10.00">+</text>
<text text-anchor="start" x="107.25" y="-494.5" font-family="Consolas" font-size="10.00">Sprite eqIcon</text>
<text text-anchor="start" x="98" y="-480" font-family="Consolas" font-size="10.00">+</text>
<text text-anchor="start" x="107.25" y="-480" font-family="Consolas" font-size="10.00">string eqName</text>
<text text-anchor="start" x="98" y="-465.5" font-family="Consolas" font-size="10.00">+</text>
<text text-anchor="start" x="107.25" y="-465.5" font-family="Consolas" font-size="10.00">EquipmentType eqType</text>
<text text-anchor="start" x="98" y="-451" font-family="Consolas" font-size="10.00">+</text>
<text text-anchor="start" x="107.25" y="-451" font-family="Consolas" font-size="10.00">int eqPrice</text>
<text text-anchor="start" x="98" y="-436.5" font-family="Consolas" font-size="10.00">+</text>
<text text-anchor="start" x="107.25" y="-436.5" font-family="Consolas" font-size="10.00">bool isGlobalEquip</text>
<text text-anchor="start" x="98" y="-422" font-family="Consolas" font-size="10.00">+</text>
<text text-anchor="start" x="107.25" y="-422" font-family="Consolas" font-size="10.00">float eqAttackBonus</text>
<text text-anchor="start" x="98" y="-407.5" font-family="Consolas" font-size="10.00">+</text>
<text text-anchor="start" x="107.25" y="-407.5" font-family="Consolas" font-size="10.00">float eqDefenseBonus</text>
<text text-anchor="start" x="98" y="-393" font-family="Consolas" font-size="10.00">+</text>
<text text-anchor="start" x="107.25" y="-393" font-family="Consolas" font-size="10.00">float eqHealthBonus</text>
<text text-anchor="start" x="98" y="-378.5" font-family="Consolas" font-size="10.00">+</text>
<text text-anchor="start" x="107.25" y="-378.5" font-family="Consolas" font-size="10.00">float eqAdditionalPilotSkill</text>
<text text-anchor="start" x="98" y="-364" font-family="Consolas" font-size="10.00">+</text>
<text text-anchor="start" x="107.25" y="-364" font-family="Consolas" font-size="10.00">float eqAdditionalEngine</text>
<text text-anchor="start" x="107.25" y="-353.5" font-family="Consolas" font-size="10.00">Skill</text>
<text text-anchor="start" x="98" y="-339" font-family="Consolas" font-size="10.00">+</text>
<text text-anchor="start" x="107.25" y="-339" font-family="Consolas" font-size="10.00">float eqAdditionalPowerSkill</text>
<text text-anchor="start" x="98" y="-324.5" font-family="Consolas" font-size="10.00">+</text>
<text text-anchor="start" x="107.25" y="-324.5" font-family="Consolas" font-size="10.00">float eqAdditionalShield</text>
<text text-anchor="start" x="107.25" y="-314" font-family="Consolas" font-size="10.00">Skill</text>
<text text-anchor="start" x="98" y="-299.5" font-family="Consolas" font-size="10.00">+</text>
<text text-anchor="start" x="107.25" y="-299.5" font-family="Consolas" font-size="10.00">float eqAdditionalWeapon</text>
<text text-anchor="start" x="107.25" y="-289" font-family="Consolas" font-size="10.00">Skill</text>
<text text-anchor="start" x="98" y="-274.5" font-family="Consolas" font-size="10.00">+</text>
<text text-anchor="start" x="107.25" y="-274.5" font-family="Consolas" font-size="10.00">float eqAdditionalAmmunition</text>
<text text-anchor="start" x="107.25" y="-264" font-family="Consolas" font-size="10.00">Skill</text>
<text text-anchor="start" x="98" y="-249.5" font-family="Consolas" font-size="10.00">+</text>
<text text-anchor="start" x="107.25" y="-249.5" font-family="Consolas" font-size="10.00">float eqAdditionalMedBay</text>
<text text-anchor="start" x="107.25" y="-239" font-family="Consolas" font-size="10.00">Skill</text>
<text text-anchor="start" x="98" y="-224.5" font-family="Consolas" font-size="10.00">+</text>
<text text-anchor="start" x="107.25" y="-224.5" font-family="Consolas" font-size="10.00">float eqAdditionalRepair</text>
<text text-anchor="start" x="107.25" y="-214" font-family="Consolas" font-size="10.00">Skill</text>
<text text-anchor="start" x="173.5" y="-199.5" font-family="Consolas" font-size="10.00"> </text>
<polygon fill="#bfbfbf" stroke="#bfbfbf" points="94,-506 94,-506 258.25,-506 258.25,-506 94,-506"/>
<polygon fill="#bfbfbf" stroke="#bfbfbf" points="94,-211 94,-211 105.25,-211 105.25,-211 94,-211"/>
<polygon fill="#bfbfbf" stroke="#bfbfbf" points="105.25,-211 105.25,-211 258.25,-211 258.25,-211 105.25,-211"/>
<polygon fill="none" stroke="#bfbfbf" points="94,-194.5 94,-522.5 258.25,-522.5 258.25,-194.5 94,-194.5"/>
</a>
</g>
</g>
<!-- Node3&#45;&gt;Node1 -->
<g id="edge2_Node000001_Node000003" class="edge">
<title>Node3&#45;&gt;Node1</title>
<g id="a_edge2_Node000001_Node000003"><a xlink:title=" ">
<path fill="none" stroke="#63b8ff" d="M123.21,-194.76C116.39,-173.8 109.71,-153.25 103.72,-134.82"/>
<polygon fill="none" stroke="#63b8ff" points="103.68,-134.69 98.02,-130.22 99.97,-123.28 105.63,-127.75 103.68,-134.69"/>
</a>
</g>
<text text-anchor="middle" x="156.45" y="-167" font-family="Helvetica,sans-Serif" font-size="10.00" fill="grey"> +defaultAssistant</text>
<text text-anchor="middle" x="156.45" y="-155" font-family="Helvetica,sans-Serif" font-size="10.00" fill="grey">+defaultShield</text>
<text text-anchor="middle" x="156.45" y="-143" font-family="Helvetica,sans-Serif" font-size="10.00" fill="grey">+defaultWeapon</text>
</g>
<!-- Node4 -->
<g id="Node000004" class="node">
<title>Node4</title>
<g id="a_Node000004"><a xlink:title=" ">
<polygon fill="white" stroke="none" points="222.12,-607 130.12,-607 130.12,-559.5 222.12,-559.5 222.12,-607"/>
<text text-anchor="start" x="134.12" y="-593.5" font-family="Consolas" font-size="10.00">ScriptableObject</text>
<text text-anchor="start" x="173.5" y="-579" font-family="Consolas" font-size="10.00"> </text>
<text text-anchor="start" x="173.5" y="-564.5" font-family="Consolas" font-size="10.00"> </text>
<polygon fill="#bfbfbf" stroke="#bfbfbf" points="130.12,-590.5 130.12,-590.5 222.12,-590.5 222.12,-590.5 130.12,-590.5"/>
<polygon fill="#bfbfbf" stroke="#bfbfbf" points="130.12,-576 130.12,-576 222.12,-576 222.12,-576 130.12,-576"/>
<polygon fill="none" stroke="#bfbfbf" points="130.12,-559.5 130.12,-607 222.12,-607 222.12,-559.5 130.12,-559.5"/>
</a>
</g>
</g>
<!-- Node4&#45;&gt;Node3 -->
<g id="edge3_Node000003_Node000004" class="edge">
<title>Node4&#45;&gt;Node3</title>
<g id="a_edge3_Node000003_Node000004"><a xlink:title=" ">
<path fill="none" stroke="#63b8ff" d="M176.12,-548.23C176.12,-540.39 176.12,-531.54 176.12,-522.06"/>
<polygon fill="none" stroke="#63b8ff" points="172.63,-548.15 176.13,-558.15 179.63,-548.15 172.63,-548.15"/>
</a>
</g>
</g>
</g>
</svg>

<g id="navigator" transform="translate(0 0)" fill="#404254">
  <rect fill="#f2f5e9" fill-opacity="0.5" stroke="#606060" stroke-width=".5" x="0" y="0" width="60" height="60"/>
  <use id="zoomplus" xlink:href="#zoomPlus" x="17" y="9" onmousedown="handleZoom(evt,'in')"/>
  <use id="zoomminus" xlink:href="#zoomMin" x="42" y="9" onmousedown="handleZoom(evt,'out')"/>
  <use id="reset" xlink:href="#resetDef" x="30" y="36" onmousedown="handleReset()"/>
   <use id="arrowup" xlink:href="#arrowUp" x="0" y="0" onmousedown="handlePan(0,-1)"/>
  <use id="arrowright" xlink:href="#arrowRight" x="0" y="0" onmousedown="handlePan(1,0)"/>
  <use id="arrowdown" xlink:href="#arrowDown" x="0" y="0" onmousedown="handlePan(0,1)"/>
  <use id="arrowleft" xlink:href="#arrowLeft" x="0" y="0" onmousedown="handlePan(-1,0)"/>
</g>
<svg viewBox="0 0 15 15" width="100%" height="30px" preserveAspectRatio="xMaxYMin meet">
 <g id="arrow_out" transform="scale(0.3 0.3)">
  <a xlink:href="class_crew_manager__coll__graph_org.svg" target="_base">
   <rect id="button" ry="5" rx="5" y="6" x="6" height="38" width="38"
        fill="#f2f5e9" fill-opacity="0.5" stroke="#606060" stroke-width="1.0"/>
   <path id="arrow"
     d="M 11.500037,31.436501 C 11.940474,20.09759 22.043105,11.32322 32.158766,21.979434 L 37.068811,17.246167 C 37.068811,17.246167 37.088388,32 37.088388,32 L 22.160133,31.978069 C 22.160133,31.978069 26.997745,27.140456 26.997745,27.140456 C 18.528582,18.264221 13.291696,25.230495 11.500037,31.436501 z"
     style="fill:#404040;"/>
  </a>
 </g>
</svg>

<style type='text/css'>
<![CDATA[
[data-mouse-over-selected='false'] { opacity: 0.7; }
[data-mouse-over-selected='true']  { opacity: 1.0; }
]]>
</style>
<script type="application/ecmascript"><![CDATA[
document.addEventListener('DOMContentLoaded', (event) => {
  highlightEdges();
  highlightAdjacentNodes();
});
]]></script>
</svg>
