<?xml version="1.0" encoding="UTF-8" standalone="no"?>
<!DOCTYPE svg PUBLIC "-//W3C//DTD SVG 1.1//EN"
 "http://www.w3.org/Graphics/SVG/1.1/DTD/svg11.dtd">
<!-- Generated by graphviz version 12.2.1 (20241206.2353)
 -->
<!-- Title: Room Pages: 1 -->
<svg width="638pt" height="1459pt"
 viewBox="0.00 0.00 637.95 1459.00" xmlns="http://www.w3.org/2000/svg" xmlns:xlink="http://www.w3.org/1999/xlink">
<g id="graph0" class="graph" transform="scale(1 1) rotate(0) translate(4 1455)">
<title>Room</title>
<!-- Node1 -->
<g id="Node000001" class="node">
<title>Node1</title>
<g id="a_Node000001"><a xlink:title="함선 내의 모든 방의 기본 클래스. 방의 상태, 작동 여부, 산소 레벨, 데미지 처리 등을 관리합니다.">
<polygon fill="#999999" stroke="none" points="374.32,-797 189.07,-797 189.07,0 374.32,0 374.32,-797"/>
<text text-anchor="start" x="271.2" y="-783.5" font-family="Consolas" font-size="10.00">Room</text>
<text text-anchor="start" x="193.07" y="-769" font-family="Consolas" font-size="10.00">+</text>
<text text-anchor="start" x="202.32" y="-769" font-family="Consolas" font-size="10.00">Vector2Int position</text>
<text text-anchor="start" x="193.07" y="-754.5" font-family="Consolas" font-size="10.00">+</text>
<text text-anchor="start" x="202.32" y="-754.5" font-family="Consolas" font-size="10.00">int currentLevel</text>
<text text-anchor="start" x="193.07" y="-740" font-family="Consolas" font-size="10.00">+</text>
<text text-anchor="start" x="202.32" y="-740" font-family="Consolas" font-size="10.00">RoomType roomType</text>
<text text-anchor="start" x="193.07" y="-725.5" font-family="Consolas" font-size="10.00">+</text>
<text text-anchor="start" x="202.32" y="-725.5" font-family="Consolas" font-size="10.00">List&lt; CrewBase &gt; crewInRoom</text>
<text text-anchor="start" x="193.07" y="-711" font-family="Consolas" font-size="10.00">+</text>
<text text-anchor="start" x="202.32" y="-711" font-family="Consolas" font-size="10.00">Vector2Int gridSize</text>
<text text-anchor="start" x="193.07" y="-696.5" font-family="Consolas" font-size="10.00">+</text>
<text text-anchor="start" x="202.32" y="-696.5" font-family="Consolas" font-size="10.00">bool isPlaced</text>
<text text-anchor="start" x="193.07" y="-682" font-family="Consolas" font-size="10.00">#</text>
<text text-anchor="start" x="202.32" y="-682" font-family="Consolas" font-size="10.00">float currentHitPoints</text>
<text text-anchor="start" x="193.07" y="-667.5" font-family="Consolas" font-size="10.00">#</text>
<text text-anchor="start" x="202.32" y="-667.5" font-family="Consolas" font-size="10.00">List&lt; Room &gt; adjacentRooms</text>
<text text-anchor="start" x="193.07" y="-653" font-family="Consolas" font-size="10.00">#</text>
<text text-anchor="start" x="202.32" y="-653" font-family="Consolas" font-size="10.00">List&lt; Door &gt; connectedDoors</text>
<text text-anchor="start" x="193.07" y="-638.5" font-family="Consolas" font-size="10.00">#</text>
<text text-anchor="start" x="202.32" y="-638.5" font-family="Consolas" font-size="10.00">ParticleSystem roomParticles</text>
<text text-anchor="start" x="193.07" y="-624" font-family="Consolas" font-size="10.00">#</text>
<text text-anchor="start" x="202.32" y="-624" font-family="Consolas" font-size="10.00">AudioSource roomSound</text>
<text text-anchor="start" x="193.07" y="-609.5" font-family="Consolas" font-size="10.00">#</text>
<text text-anchor="start" x="202.32" y="-609.5" font-family="Consolas" font-size="10.00">bool isActive</text>
<text text-anchor="start" x="193.07" y="-595" font-family="Consolas" font-size="10.00">#</text>
<text text-anchor="start" x="202.32" y="-595" font-family="Consolas" font-size="10.00">bool isPowered</text>
<text text-anchor="start" x="193.07" y="-580.5" font-family="Consolas" font-size="10.00">#</text>
<text text-anchor="start" x="202.32" y="-580.5" font-family="Consolas" font-size="10.00">bool isPowerRequested</text>
<text text-anchor="start" x="193.07" y="-566" font-family="Consolas" font-size="10.00">#</text>
<text text-anchor="start" x="202.32" y="-566" font-family="Consolas" font-size="10.00">SpriteRenderer roomRenderer</text>
<text text-anchor="start" x="193.07" y="-551.5" font-family="Consolas" font-size="10.00">+</text>
<text text-anchor="start" x="202.32" y="-551.5" font-family="Consolas" font-size="10.00">virtual void Update()</text>
<text text-anchor="start" x="193.07" y="-537" font-family="Consolas" font-size="10.00">+</text>
<text text-anchor="start" x="202.32" y="-537" font-family="Consolas" font-size="10.00">virtual bool CanBePlaced</text>
<text text-anchor="start" x="202.32" y="-526.5" font-family="Consolas" font-size="10.00">(Vector2Int newPosition,</text>
<text text-anchor="start" x="202.32" y="-516" font-family="Consolas" font-size="10.00"> Ship ship)</text>
<text text-anchor="start" x="193.07" y="-501.5" font-family="Consolas" font-size="10.00">+</text>
<text text-anchor="start" x="202.32" y="-501.5" font-family="Consolas" font-size="10.00">virtual void OnPlaced()</text>
<text text-anchor="start" x="193.07" y="-487" font-family="Consolas" font-size="10.00">+</text>
<text text-anchor="start" x="202.32" y="-487" font-family="Consolas" font-size="10.00">virtual void OnCrewEnter</text>
<text text-anchor="start" x="202.32" y="-476.5" font-family="Consolas" font-size="10.00">(CrewBase crew)</text>
<text text-anchor="start" x="193.07" y="-462" font-family="Consolas" font-size="10.00">+</text>
<text text-anchor="start" x="202.32" y="-462" font-family="Consolas" font-size="10.00">virtual void OnCrewExit</text>
<text text-anchor="start" x="202.32" y="-451.5" font-family="Consolas" font-size="10.00">(CrewBase crew)</text>
<text text-anchor="start" x="193.07" y="-437" font-family="Consolas" font-size="10.00">+</text>
<text text-anchor="start" x="202.32" y="-437" font-family="Consolas" font-size="10.00">void InitializeIsDamageable()</text>
<text text-anchor="start" x="193.07" y="-422.5" font-family="Consolas" font-size="10.00">+</text>
<text text-anchor="start" x="202.32" y="-422.5" font-family="Consolas" font-size="10.00">bool GetIsPowered()</text>
<text text-anchor="start" x="193.07" y="-408" font-family="Consolas" font-size="10.00">+</text>
<text text-anchor="start" x="202.32" y="-408" font-family="Consolas" font-size="10.00">bool GetIsPowerRequested()</text>
<text text-anchor="start" x="193.07" y="-393.5" font-family="Consolas" font-size="10.00">+</text>
<text text-anchor="start" x="202.32" y="-393.5" font-family="Consolas" font-size="10.00">bool GetIsDamageable()</text>
<text text-anchor="start" x="193.07" y="-379" font-family="Consolas" font-size="10.00">+</text>
<text text-anchor="start" x="202.32" y="-379" font-family="Consolas" font-size="10.00">virtual void Initialize()</text>
<text text-anchor="start" x="193.07" y="-364.5" font-family="Consolas" font-size="10.00">+</text>
<text text-anchor="start" x="202.32" y="-364.5" font-family="Consolas" font-size="10.00">int GetCrewCount()</text>
<text text-anchor="start" x="193.07" y="-350" font-family="Consolas" font-size="10.00">+</text>
<text text-anchor="start" x="202.32" y="-350" font-family="Consolas" font-size="10.00">bool HasEnoughCrew()</text>
<text text-anchor="start" x="193.07" y="-335.5" font-family="Consolas" font-size="10.00">+</text>
<text text-anchor="start" x="202.32" y="-335.5" font-family="Consolas" font-size="10.00">bool IsOperational()</text>
<text text-anchor="start" x="193.07" y="-321" font-family="Consolas" font-size="10.00">+</text>
<text text-anchor="start" x="202.32" y="-321" font-family="Consolas" font-size="10.00">bool NeedsRepair()</text>
<text text-anchor="start" x="193.07" y="-306.5" font-family="Consolas" font-size="10.00">+</text>
<text text-anchor="start" x="202.32" y="-306.5" font-family="Consolas" font-size="10.00">virtual void TakeDamage</text>
<text text-anchor="start" x="202.32" y="-296" font-family="Consolas" font-size="10.00">(float damage)</text>
<text text-anchor="start" x="193.07" y="-281.5" font-family="Consolas" font-size="10.00">+</text>
<text text-anchor="start" x="202.32" y="-281.5" font-family="Consolas" font-size="10.00">virtual void Repair</text>
<text text-anchor="start" x="202.32" y="-271" font-family="Consolas" font-size="10.00">(float amount)</text>
<text text-anchor="start" x="193.07" y="-256.5" font-family="Consolas" font-size="10.00">+</text>
<text text-anchor="start" x="202.32" y="-256.5" font-family="Consolas" font-size="10.00">virtual void SetPowerStatus</text>
<text text-anchor="start" x="202.32" y="-246" font-family="Consolas" font-size="10.00">(bool powered, bool requested)</text>
<text text-anchor="start" x="193.07" y="-231.5" font-family="Consolas" font-size="10.00">+</text>
<text text-anchor="start" x="202.32" y="-231.5" font-family="Consolas" font-size="10.00">float GetHealthPercentage()</text>
<text text-anchor="start" x="193.07" y="-217" font-family="Consolas" font-size="10.00">+</text>
<text text-anchor="start" x="202.32" y="-217" font-family="Consolas" font-size="10.00">virtual Dictionary</text>
<text text-anchor="start" x="202.32" y="-206.5" font-family="Consolas" font-size="10.00">&lt; ShipStat, float &gt;</text>
<text text-anchor="start" x="202.32" y="-196" font-family="Consolas" font-size="10.00"> GetStatContributions()</text>
<text text-anchor="start" x="193.07" y="-181.5" font-family="Consolas" font-size="10.00">+</text>
<text text-anchor="start" x="202.32" y="-181.5" font-family="Consolas" font-size="10.00">virtual Dictionary</text>
<text text-anchor="start" x="202.32" y="-171" font-family="Consolas" font-size="10.00">&lt; ShipStat, float &gt;</text>
<text text-anchor="start" x="202.32" y="-160.5" font-family="Consolas" font-size="10.00"> GetNextLevelStatContributions()</text>
<text text-anchor="start" x="193.07" y="-146" font-family="Consolas" font-size="10.00">+</text>
<text text-anchor="start" x="202.32" y="-146" font-family="Consolas" font-size="10.00">virtual bool Upgrade()</text>
<text text-anchor="start" x="193.07" y="-131.5" font-family="Consolas" font-size="10.00">+</text>
<text text-anchor="start" x="202.32" y="-131.5" font-family="Consolas" font-size="10.00">int GetCurrentLevel()</text>
<text text-anchor="start" x="193.07" y="-117" font-family="Consolas" font-size="10.00">+</text>
<text text-anchor="start" x="202.32" y="-117" font-family="Consolas" font-size="10.00">float GetPowerConsumption()</text>
<text text-anchor="start" x="193.07" y="-102.5" font-family="Consolas" font-size="10.00">+</text>
<text text-anchor="start" x="202.32" y="-102.5" font-family="Consolas" font-size="10.00">Vector2Int GetSize()</text>
<text text-anchor="start" x="193.07" y="-88" font-family="Consolas" font-size="10.00">+</text>
<text text-anchor="start" x="202.32" y="-88" font-family="Consolas" font-size="10.00">float GetMaxHitPoints()</text>
<text text-anchor="start" x="193.07" y="-73.5" font-family="Consolas" font-size="10.00">#</text>
<text text-anchor="start" x="202.32" y="-73.5" font-family="Consolas" font-size="10.00">virtual void Start()</text>
<text text-anchor="start" x="193.07" y="-59" font-family="Consolas" font-size="10.00">#</text>
<text text-anchor="start" x="202.32" y="-59" font-family="Consolas" font-size="10.00">virtual void UpdateRoom()</text>
<text text-anchor="start" x="193.07" y="-44.5" font-family="Consolas" font-size="10.00">#</text>
<text text-anchor="start" x="202.32" y="-44.5" font-family="Consolas" font-size="10.00">virtual void UpdateEffects()</text>
<text text-anchor="start" x="193.07" y="-30" font-family="Consolas" font-size="10.00">#</text>
<text text-anchor="start" x="202.32" y="-30" font-family="Consolas" font-size="10.00">virtual void OnDisabled()</text>
<text text-anchor="start" x="193.07" y="-15.5" font-family="Consolas" font-size="10.00">#</text>
<text text-anchor="start" x="202.32" y="-15.5" font-family="Consolas" font-size="10.00">virtual void NotifyState</text>
<text text-anchor="start" x="202.32" y="-5" font-family="Consolas" font-size="10.00">Changed()</text>
<polygon fill="#666666" stroke="#666666" points="189.07,-780.5 189.07,-780.5 374.32,-780.5 374.32,-780.5 189.07,-780.5"/>
<polygon fill="#666666" stroke="#666666" points="189.07,-563 189.07,-563 200.32,-563 200.32,-563 189.07,-563"/>
<polygon fill="#666666" stroke="#666666" points="200.32,-563 200.32,-563 374.32,-563 374.32,-563 200.32,-563"/>
<polygon fill="none" stroke="#666666" points="189.07,0 189.07,-797 374.32,-797 374.32,0 189.07,0"/>
</a>
</g>
</g>
<!-- Node2 -->
<g id="Node000002" class="node">
<title>Node2</title>
<g id="a_Node000002"><a xlink:title=" ">
<polygon fill="white" stroke="none" points="89.82,-1451 13.57,-1451 13.57,-1403.5 89.82,-1403.5 89.82,-1451"/>
<text text-anchor="start" x="17.57" y="-1437.5" font-family="Consolas" font-size="10.00">MonoBehaviour</text>
<text text-anchor="start" x="49.07" y="-1423" font-family="Consolas" font-size="10.00"> </text>
<text text-anchor="start" x="49.07" y="-1408.5" font-family="Consolas" font-size="10.00"> </text>
<polygon fill="#bfbfbf" stroke="#bfbfbf" points="13.57,-1434.5 13.57,-1434.5 89.82,-1434.5 89.82,-1434.5 13.57,-1434.5"/>
<polygon fill="#bfbfbf" stroke="#bfbfbf" points="13.57,-1420 13.57,-1420 89.82,-1420 89.82,-1420 13.57,-1420"/>
<polygon fill="none" stroke="#bfbfbf" points="13.57,-1403.5 13.57,-1451 89.82,-1451 89.82,-1403.5 13.57,-1403.5"/>
</a>
</g>
</g>
<!-- Node2&#45;&gt;Node1 -->
<g id="edge1_Node000001_Node000002" class="edge">
<title>Node2&#45;&gt;Node1</title>
<g id="a_edge1_Node000001_Node000002"><a xlink:title=" ">
<path fill="none" stroke="#63b8ff" d="M40.37,-1392.61C38.02,-1384.18 35.9,-1375.09 34.7,-1366.5 2.68,-1136.94 -23.35,-1069.39 34.7,-845 64.76,-728.77 132.39,-610.54 189.3,-525.11"/>
<polygon fill="none" stroke="#63b8ff" points="37,-1393.56 43.21,-1402.14 43.7,-1391.55 37,-1393.56"/>
</a>
</g>
</g>
<!-- Node6 -->
<g id="Node000006" class="node">
<title>Node6</title>
<g id="a_Node000006"><a xlink:href="class_ship.html" target="_top" xlink:title="함선의 전체 기능과 상태를 관리하는 클래스. 방 배치, 시스템 초기화, 전투 처리, 자원 계산, 스탯 갱신 등의 기능을 포함합니다.">
<polygon fill="white" stroke="none" points="223.7,-1366.5 43.7,-1366.5 43.7,-845 223.7,-845 223.7,-1366.5"/>
<text text-anchor="start" x="123.2" y="-1353" font-family="Consolas" font-size="10.00">Ship</text>
<text text-anchor="start" x="47.7" y="-1338.5" font-family="Consolas" font-size="10.00">+</text>
<text text-anchor="start" x="56.95" y="-1338.5" font-family="Consolas" font-size="10.00">GameObject testRoomPrefab1</text>
<text text-anchor="start" x="47.7" y="-1324" font-family="Consolas" font-size="10.00">+</text>
<text text-anchor="start" x="56.95" y="-1324" font-family="Consolas" font-size="10.00">GameObject testRoomPrefab2</text>
<text text-anchor="start" x="47.7" y="-1309.5" font-family="Consolas" font-size="10.00">+</text>
<text text-anchor="start" x="56.95" y="-1309.5" font-family="Consolas" font-size="10.00">bool AddRoom(Room room,</text>
<text text-anchor="start" x="56.95" y="-1299" font-family="Consolas" font-size="10.00"> Vector2Int position)</text>
<text text-anchor="start" x="47.7" y="-1284.5" font-family="Consolas" font-size="10.00">+</text>
<text text-anchor="start" x="56.95" y="-1284.5" font-family="Consolas" font-size="10.00">bool RemoveRoom(Room</text>
<text text-anchor="start" x="56.95" y="-1274" font-family="Consolas" font-size="10.00"> room)</text>
<text text-anchor="start" x="47.7" y="-1259.5" font-family="Consolas" font-size="10.00">+</text>
<text text-anchor="start" x="56.95" y="-1259.5" font-family="Consolas" font-size="10.00">bool AddDoor(Vector2Int</text>
<text text-anchor="start" x="56.95" y="-1249" font-family="Consolas" font-size="10.00"> position, bool isVertical)</text>
<text text-anchor="start" x="47.7" y="-1234.5" font-family="Consolas" font-size="10.00">+</text>
<text text-anchor="start" x="56.95" y="-1234.5" font-family="Consolas" font-size="10.00">T GetRoomOfType&lt; T &gt;()</text>
<text text-anchor="start" x="47.7" y="-1220" font-family="Consolas" font-size="10.00">+</text>
<text text-anchor="start" x="56.95" y="-1220" font-family="Consolas" font-size="10.00">List&lt; Room &gt; GetRoomsByType</text>
<text text-anchor="start" x="56.95" y="-1209.5" font-family="Consolas" font-size="10.00">(RoomType type)</text>
<text text-anchor="start" x="47.7" y="-1195" font-family="Consolas" font-size="10.00">+</text>
<text text-anchor="start" x="56.95" y="-1195" font-family="Consolas" font-size="10.00">T GetSystem&lt; T &gt;()</text>
<text text-anchor="start" x="47.7" y="-1180.5" font-family="Consolas" font-size="10.00">+</text>
<text text-anchor="start" x="56.95" y="-1180.5" font-family="Consolas" font-size="10.00">void RecalculateAllStats()</text>
<text text-anchor="start" x="47.7" y="-1166" font-family="Consolas" font-size="10.00">+</text>
<text text-anchor="start" x="56.95" y="-1166" font-family="Consolas" font-size="10.00">float GetStat(ShipStat</text>
<text text-anchor="start" x="56.95" y="-1155.5" font-family="Consolas" font-size="10.00"> statType)</text>
<text text-anchor="start" x="47.7" y="-1141" font-family="Consolas" font-size="10.00">+</text>
<text text-anchor="start" x="56.95" y="-1141" font-family="Consolas" font-size="10.00">Dictionary&lt; ShipStat,</text>
<text text-anchor="start" x="56.95" y="-1130.5" font-family="Consolas" font-size="10.00"> float &gt; GetRoomContributions</text>
<text text-anchor="start" x="56.95" y="-1120" font-family="Consolas" font-size="10.00">(string roomName)</text>
<text text-anchor="start" x="47.7" y="-1105.5" font-family="Consolas" font-size="10.00">+</text>
<text text-anchor="start" x="56.95" y="-1105.5" font-family="Consolas" font-size="10.00">void TakeAttack(float</text>
<text text-anchor="start" x="56.95" y="-1095" font-family="Consolas" font-size="10.00"> damage, WeaponType weaponType,</text>
<text text-anchor="start" x="56.95" y="-1084.5" font-family="Consolas" font-size="10.00"> Vector2Int hitPosition)</text>
<text text-anchor="start" x="47.7" y="-1070" font-family="Consolas" font-size="10.00">+</text>
<text text-anchor="start" x="56.95" y="-1070" font-family="Consolas" font-size="10.00">void TakeDamage(float</text>
<text text-anchor="start" x="56.95" y="-1059.5" font-family="Consolas" font-size="10.00"> damage)</text>
<text text-anchor="start" x="47.7" y="-1045" font-family="Consolas" font-size="10.00">+</text>
<text text-anchor="start" x="56.95" y="-1045" font-family="Consolas" font-size="10.00">void OnShipDestroyed()</text>
<text text-anchor="start" x="47.7" y="-1030.5" font-family="Consolas" font-size="10.00">+</text>
<text text-anchor="start" x="56.95" y="-1030.5" font-family="Consolas" font-size="10.00">bool Warp()</text>
<text text-anchor="start" x="47.7" y="-1016" font-family="Consolas" font-size="10.00">+</text>
<text text-anchor="start" x="56.95" y="-1016" font-family="Consolas" font-size="10.00">float CalculateWarpFuelCost()</text>
<text text-anchor="start" x="47.7" y="-1001.5" font-family="Consolas" font-size="10.00">+</text>
<text text-anchor="start" x="56.95" y="-1001.5" font-family="Consolas" font-size="10.00">int GetCrewCount()</text>
<text text-anchor="start" x="47.7" y="-987" font-family="Consolas" font-size="10.00">+</text>
<text text-anchor="start" x="56.95" y="-987" font-family="Consolas" font-size="10.00">int GetMaxCrew()</text>
<text text-anchor="start" x="47.7" y="-972.5" font-family="Consolas" font-size="10.00">+</text>
<text text-anchor="start" x="56.95" y="-972.5" font-family="Consolas" font-size="10.00">List&lt; Room &gt; GetAllRooms()</text>
<text text-anchor="start" x="47.7" y="-958" font-family="Consolas" font-size="10.00">+</text>
<text text-anchor="start" x="56.95" y="-958" font-family="Consolas" font-size="10.00">List&lt; Door &gt; GetAllDoors()</text>
<text text-anchor="start" x="47.7" y="-943.5" font-family="Consolas" font-size="10.00">+</text>
<text text-anchor="start" x="56.95" y="-943.5" font-family="Consolas" font-size="10.00">List&lt; CrewBase &gt; GetAllCrew()</text>
<text text-anchor="start" x="47.7" y="-929" font-family="Consolas" font-size="10.00">+</text>
<text text-anchor="start" x="56.95" y="-929" font-family="Consolas" font-size="10.00">List&lt; ShipWeapon &gt;</text>
<text text-anchor="start" x="56.95" y="-918.5" font-family="Consolas" font-size="10.00"> GetAllWeapons()</text>
<text text-anchor="start" x="47.7" y="-904" font-family="Consolas" font-size="10.00">+</text>
<text text-anchor="start" x="56.95" y="-904" font-family="Consolas" font-size="10.00">float GetCurrentHitPoints()</text>
<text text-anchor="start" x="47.7" y="-889.5" font-family="Consolas" font-size="10.00">+</text>
<text text-anchor="start" x="56.95" y="-889.5" font-family="Consolas" font-size="10.00">Vector2Int GetRandomTarget</text>
<text text-anchor="start" x="56.95" y="-879" font-family="Consolas" font-size="10.00">Position()</text>
<text text-anchor="start" x="47.7" y="-864.5" font-family="Consolas" font-size="10.00">+</text>
<text text-anchor="start" x="56.95" y="-864.5" font-family="Consolas" font-size="10.00">float GetOxygenRate()</text>
<text text-anchor="start" x="47.7" y="-850" font-family="Consolas" font-size="10.00">+</text>
<text text-anchor="start" x="56.95" y="-850" font-family="Consolas" font-size="10.00">OxygenLevel GetOxygenLevel()</text>
<polygon fill="#666666" stroke="#666666" points="43.7,-1350 43.7,-1350 223.7,-1350 223.7,-1350 43.7,-1350"/>
<polygon fill="#666666" stroke="#666666" points="43.7,-1321 43.7,-1321 54.95,-1321 54.95,-1321 43.7,-1321"/>
<polygon fill="#666666" stroke="#666666" points="54.95,-1321 54.95,-1321 223.7,-1321 223.7,-1321 54.95,-1321"/>
<polygon fill="none" stroke="#666666" points="43.7,-845 43.7,-1366.5 223.7,-1366.5 223.7,-845 43.7,-845"/>
</a>
</g>
</g>
<!-- Node2&#45;&gt;Node6 -->
<g id="edge6_Node000006_Node000002" class="edge">
<title>Node2&#45;&gt;Node6</title>
<g id="a_edge6_Node000006_Node000002"><a xlink:title=" ">
<path fill="none" stroke="#63b8ff" d="M60.32,-1392.64C62.31,-1384.89 64.58,-1376.05 67.06,-1366.41"/>
<polygon fill="none" stroke="#63b8ff" points="57,-1391.51 57.9,-1402.06 63.78,-1393.25 57,-1391.51"/>
</a>
</g>
</g>
<!-- Node3 -->
<g id="Node000003" class="node">
<title>Node3</title>
<g id="a_Node000003"><a xlink:href="interface_i_ship_stat_contributor.html" target="_top" xlink:title="함선의 ShipStat에 영향을 주는 객체 인터페이스. 방(Room)과 선원(Crew)은 모두 이 인터페이스를 통해 스탯에 기여합니다.">
<polygon fill="white" stroke="none" points="421.7,-1134.75 241.7,-1134.75 241.7,-1076.75 421.7,-1076.75 421.7,-1134.75"/>
<text text-anchor="start" x="279.2" y="-1121.25" font-family="Consolas" font-size="10.00">IShipStatContributor</text>
<text text-anchor="start" x="329.07" y="-1106.75" font-family="Consolas" font-size="10.00"> </text>
<text text-anchor="start" x="245.7" y="-1092.25" font-family="Consolas" font-size="10.00">+</text>
<text text-anchor="start" x="254.95" y="-1092.25" font-family="Consolas" font-size="10.00">Dictionary&lt; ShipStat,</text>
<text text-anchor="start" x="254.95" y="-1081.75" font-family="Consolas" font-size="10.00"> float &gt; GetStatContributions()</text>
<polygon fill="#666666" stroke="#666666" points="241.7,-1118.25 241.7,-1118.25 421.7,-1118.25 421.7,-1118.25 241.7,-1118.25"/>
<polygon fill="#666666" stroke="#666666" points="241.7,-1103.75 241.7,-1103.75 421.7,-1103.75 421.7,-1103.75 241.7,-1103.75"/>
<polygon fill="none" stroke="#666666" points="241.7,-1076.75 241.7,-1134.75 421.7,-1134.75 421.7,-1076.75 241.7,-1076.75"/>
</a>
</g>
</g>
<!-- Node3&#45;&gt;Node1 -->
<g id="edge2_Node000001_Node000003" class="edge">
<title>Node3&#45;&gt;Node1</title>
<g id="a_edge2_Node000001_Node000003"><a xlink:title=" ">
<path fill="none" stroke="#63b8ff" d="M328.92,-1065.64C325.07,-1011.26 317.68,-907.01 309.87,-796.83"/>
<polygon fill="none" stroke="#63b8ff" points="325.43,-1065.87 329.63,-1075.59 332.41,-1065.37 325.43,-1065.87"/>
</a>
</g>
</g>
<!-- Node4 -->
<g id="Node000004" class="node">
<title>Node4</title>
<g id="a_Node000004"><a xlink:href="class_room_data.html" target="_top" xlink:title="모든 방 유형의 기본 데이터를 정의하는 추상 ScriptableObject. 방의 레벨별 속성, 체력, 크기, 요구 자원 등을 설정합니다.">
<polygon fill="white" stroke="none" points="629.95,-1156.5 439.45,-1156.5 439.45,-1055 629.95,-1055 629.95,-1156.5"/>
<text text-anchor="start" x="513.7" y="-1143" font-family="Consolas" font-size="10.00">RoomData</text>
<text text-anchor="start" x="532.07" y="-1128.5" font-family="Consolas" font-size="10.00"> </text>
<text text-anchor="start" x="443.45" y="-1114" font-family="Consolas" font-size="10.00">+</text>
<text text-anchor="start" x="452.7" y="-1114" font-family="Consolas" font-size="10.00">RoomLevel GetRoomData</text>
<text text-anchor="start" x="452.7" y="-1103.5" font-family="Consolas" font-size="10.00">(int level)</text>
<text text-anchor="start" x="443.45" y="-1089" font-family="Consolas" font-size="10.00">#</text>
<text text-anchor="start" x="452.7" y="-1089" font-family="Consolas" font-size="10.00">void InitializeDefaultLevels()</text>
<text text-anchor="start" x="443.45" y="-1074.5" font-family="Consolas" font-size="10.00">#</text>
<text text-anchor="start" x="452.7" y="-1074.5" font-family="Consolas" font-size="10.00">virtual void OnEnable()</text>
<text text-anchor="start" x="443.45" y="-1060" font-family="Consolas" font-size="10.00">#</text>
<text text-anchor="start" x="452.7" y="-1060" font-family="Consolas" font-size="10.00">bool CheckIfNeedsInitialization()</text>
<polygon fill="#666666" stroke="#666666" points="439.45,-1140 439.45,-1140 629.95,-1140 629.95,-1140 439.45,-1140"/>
<polygon fill="#666666" stroke="#666666" points="439.45,-1125.5 439.45,-1125.5 629.95,-1125.5 629.95,-1125.5 439.45,-1125.5"/>
<polygon fill="none" stroke="#666666" points="439.45,-1055 439.45,-1156.5 629.95,-1156.5 629.95,-1055 439.45,-1055"/>
</a>
</g>
</g>
<!-- Node4&#45;&gt;Node1 -->
<g id="edge3_Node000001_Node000004" class="edge">
<title>Node4&#45;&gt;Node1</title>
<g id="a_edge3_Node000001_Node000004"><a xlink:title=" ">
<path fill="none" stroke="#63b8ff" d="M516.91,-1055.16C488.27,-975.33 429.96,-812.78 378.56,-669.5"/>
<polygon fill="none" stroke="#63b8ff" points="378.6,-669.61 372.81,-665.32 374.54,-658.32 380.34,-662.61 378.6,-669.61"/>
</a>
</g>
<text text-anchor="middle" x="460.46" y="-817.5" font-family="Helvetica,sans-Serif" font-size="10.00" fill="grey"> +roomData</text>
</g>
<!-- Node5 -->
<g id="Node000005" class="node">
<title>Node5</title>
<g id="a_Node000005"><a xlink:title=" ">
<polygon fill="white" stroke="none" points="580.7,-1451 488.7,-1451 488.7,-1403.5 580.7,-1403.5 580.7,-1451"/>
<text text-anchor="start" x="492.7" y="-1437.5" font-family="Consolas" font-size="10.00">ScriptableObject</text>
<text text-anchor="start" x="532.07" y="-1423" font-family="Consolas" font-size="10.00"> </text>
<text text-anchor="start" x="532.07" y="-1408.5" font-family="Consolas" font-size="10.00"> </text>
<polygon fill="#bfbfbf" stroke="#bfbfbf" points="488.7,-1434.5 488.7,-1434.5 580.7,-1434.5 580.7,-1434.5 488.7,-1434.5"/>
<polygon fill="#bfbfbf" stroke="#bfbfbf" points="488.7,-1420 488.7,-1420 580.7,-1420 580.7,-1420 488.7,-1420"/>
<polygon fill="none" stroke="#bfbfbf" points="488.7,-1403.5 488.7,-1451 580.7,-1451 580.7,-1403.5 488.7,-1403.5"/>
</a>
</g>
</g>
<!-- Node5&#45;&gt;Node4 -->
<g id="edge4_Node000004_Node000005" class="edge">
<title>Node5&#45;&gt;Node4</title>
<g id="a_edge4_Node000004_Node000005"><a xlink:title=" ">
<path fill="none" stroke="#63b8ff" d="M534.7,-1392.02C534.7,-1335.36 534.7,-1221.88 534.7,-1156.41"/>
<polygon fill="none" stroke="#63b8ff" points="531.2,-1392.01 534.7,-1402.01 538.2,-1392.01 531.2,-1392.01"/>
</a>
</g>
</g>
<!-- Node6&#45;&gt;Node1 -->
<g id="edge5_Node000001_Node000006" class="edge">
<title>Node6&#45;&gt;Node1</title>
<g id="a_edge5_Node000001_Node000006"><a xlink:title=" ">
<path fill="none" stroke="#63b8ff" d="M188.18,-845.15C190.65,-833.34 193.16,-821.38 195.69,-809.34"/>
<polygon fill="none" stroke="#63b8ff" points="195.68,-809.38 193,-802.69 198.15,-797.63 200.83,-804.33 195.68,-809.38"/>
</a>
</g>
<text text-anchor="middle" x="221.82" y="-817.5" font-family="Helvetica,sans-Serif" font-size="10.00" fill="grey"> #parentShip</text>
</g>
</g>
</svg>
