<?xml version="1.0" encoding="UTF-8" standalone="no"?>
<!DOCTYPE svg PUBLIC "-//W3C//DTD SVG 1.1//EN"
 "http://www.w3.org/Graphics/SVG/1.1/DTD/svg11.dtd">
<!-- Generated by graphviz version 12.2.1 (20241206.2353)
 -->
<!-- Title: RoomData.RoomLevel Pages: 1 -->
<!--zoomable 336 -->

<svg id="main" version="1.1" xmlns="http://www.w3.org/2000/svg" xmlns:xlink="http://www.w3.org/1999/xlink" xml:space="preserve" onload="init(evt)">

<style type="text/css"><![CDATA[
.node, .edge {opacity: 0.7;}
.node.selected, .edge.selected {opacity: 1;}
.edge:hover path { stroke: red; }
.edge:hover polygon { stroke: red; fill: red; }
]]></style>

<defs>
  <circle id="rim" cx="0" cy="0" r="7"/>
  <circle id="rim2" cx="0" cy="0" r="3.5"/>
  <g id="zoomPlus">
    <use xlink:href="#rim" fill="#404040"><set attributeName="fill" to="#808080" begin="zoomplus.mouseover" end="zoomplus.mouseout"/></use>
    <path d="M-4,0h8M0,-4v8" fill="none" stroke="white" stroke-width="1.5" pointer-events="none"/>
  </g>
  <g id="zoomMin">
    <use xlink:href="#rim" fill="#404040"><set attributeName="fill" to="#808080" begin="zoomminus.mouseover" end="zoomminus.mouseout"/></use>
    <path d="M-4,0h8" fill="none" stroke="white" stroke-width="1.5" pointer-events="none"/>
  </g>
  <g id="arrowUp" transform="translate(30 24)">
    <use xlink:href="#rim"/>
    <path pointer-events="none" fill="none" stroke="white" stroke-width="1.5" d="M0,-3.0v7 M-2.5,-0.5L0,-3.0L2.5,-0.5"/>
  </g>
  <g id="arrowRight" transform="rotate(90) translate(36 -43)">
    <use xlink:href="#rim"/>
    <path pointer-events="none" fill="none" stroke="white" stroke-width="1.5" d="M0,-3.0v7 M-2.5,-0.5L0,-3.0L2.5,-0.5"/>
  </g>
  <g id="arrowDown" transform="rotate(180) translate(-30 -48)">
    <use xlink:href="#rim"/>
    <path pointer-events="none" fill="none" stroke="white" stroke-width="1.5" d="M0,-3.0v7 M-2.5,-0.5L0,-3.0L2.5,-0.5"/>
  </g>
  <g id="arrowLeft" transform="rotate(270) translate(-36 17)">
    <use xlink:href="#rim"/>
    <path pointer-events="none" fill="none" stroke="white" stroke-width="1.5" d="M0,-3.0v7 M-2.5,-0.5L0,-3.0L2.5,-0.5"/>
  </g>
  <g id="resetDef">
    <use xlink:href="#rim2" fill="#404040"><set attributeName="fill" to="#808080" begin="reset.mouseover" end="reset.mouseout"/></use>
  </g>
</defs>
<script type="application/ecmascript">
var viewWidth = 636;
var viewHeight = 336;
var sectionId = 'dynsection-0';
</script>
<script type="application/ecmascript" xlink:href="svg.min.js"/>
<svg id="graph" class="graph">
<g id="viewport">
<title>RoomData.RoomLevel</title>
<!-- Node1 -->
<g id="Node000001" class="node">
<title>Node1</title>
<g id="a_Node000001"><a xlink:title=" ">
<polygon fill="#999999" stroke="none" points="362.62,-328 253.88,-328 253.88,-132 362.62,-132 362.62,-328"/>
<text text-anchor="start" x="258.38" y="-314.5" font-family="Helvetica,sans-Serif" font-size="10.00">RoomData.RoomLevel</text>
<text text-anchor="start" x="257.88" y="-298.5" font-family="Helvetica,sans-Serif" font-size="10.00">+</text>
<text text-anchor="start" x="267.88" y="-298.5" font-family="Helvetica,sans-Serif" font-size="10.00">roomName</text>
<text text-anchor="start" x="257.88" y="-282.5" font-family="Helvetica,sans-Serif" font-size="10.00">+</text>
<text text-anchor="start" x="267.88" y="-282.5" font-family="Helvetica,sans-Serif" font-size="10.00">level</text>
<text text-anchor="start" x="257.88" y="-266.5" font-family="Helvetica,sans-Serif" font-size="10.00">+</text>
<text text-anchor="start" x="267.88" y="-266.5" font-family="Helvetica,sans-Serif" font-size="10.00">hitPoint</text>
<text text-anchor="start" x="257.88" y="-250.5" font-family="Helvetica,sans-Serif" font-size="10.00">+</text>
<text text-anchor="start" x="267.88" y="-250.5" font-family="Helvetica,sans-Serif" font-size="10.00">size</text>
<text text-anchor="start" x="257.88" y="-234.5" font-family="Helvetica,sans-Serif" font-size="10.00">+</text>
<text text-anchor="start" x="267.88" y="-234.5" font-family="Helvetica,sans-Serif" font-size="10.00">rotation</text>
<text text-anchor="start" x="257.88" y="-218.5" font-family="Helvetica,sans-Serif" font-size="10.00">+</text>
<text text-anchor="start" x="267.88" y="-218.5" font-family="Helvetica,sans-Serif" font-size="10.00">cost</text>
<text text-anchor="start" x="257.88" y="-202.5" font-family="Helvetica,sans-Serif" font-size="10.00">+</text>
<text text-anchor="start" x="267.88" y="-202.5" font-family="Helvetica,sans-Serif" font-size="10.00">crewRequirement</text>
<text text-anchor="start" x="257.88" y="-186.5" font-family="Helvetica,sans-Serif" font-size="10.00">+</text>
<text text-anchor="start" x="267.88" y="-186.5" font-family="Helvetica,sans-Serif" font-size="10.00">powerRequirement</text>
<text text-anchor="start" x="257.88" y="-170.5" font-family="Helvetica,sans-Serif" font-size="10.00">+</text>
<text text-anchor="start" x="267.88" y="-170.5" font-family="Helvetica,sans-Serif" font-size="10.00">damageHitPointRate</text>
<text text-anchor="start" x="257.88" y="-154.5" font-family="Helvetica,sans-Serif" font-size="10.00">+</text>
<text text-anchor="start" x="267.88" y="-154.5" font-family="Helvetica,sans-Serif" font-size="10.00">roomSprite</text>
<text text-anchor="start" x="306.75" y="-138.5" font-family="Helvetica,sans-Serif" font-size="10.00"> </text>
<polygon fill="#666666" stroke="#666666" points="253.88,-310 253.88,-310 362.62,-310 362.62,-310 253.88,-310"/>
<polygon fill="#666666" stroke="#666666" points="253.88,-150 253.88,-150 265.88,-150 265.88,-150 253.88,-150"/>
<polygon fill="#666666" stroke="#666666" points="265.88,-150 265.88,-150 362.62,-150 362.62,-150 265.88,-150"/>
<polygon fill="none" stroke="#666666" points="253.88,-132 253.88,-328 362.62,-328 362.62,-132 253.88,-132"/>
</a>
</g>
</g>
<!-- Node2 -->
<g id="Node000002" class="node">
<title>Node2</title>
<g id="a_Node000002"><a xlink:href="class_shield_room_data_1_1_shield_room_level.html" target="_top" xlink:title=" ">
<polygon fill="white" stroke="none" points="138.5,-96 0,-96 0,0 138.5,0 138.5,-96"/>
<text text-anchor="start" x="4" y="-82.5" font-family="Helvetica,sans-Serif" font-size="10.00">ShieldRoomData.ShieldRoom</text>
<text text-anchor="start" x="57.62" y="-70.5" font-family="Helvetica,sans-Serif" font-size="10.00">Level</text>
<text text-anchor="start" x="5.81" y="-54.5" font-family="Helvetica,sans-Serif" font-size="10.00">+</text>
<text text-anchor="start" x="17.62" y="-54.5" font-family="Helvetica,sans-Serif" font-size="10.00">shieldRespawnTime</text>
<text text-anchor="start" x="5.81" y="-38.5" font-family="Helvetica,sans-Serif" font-size="10.00">+</text>
<text text-anchor="start" x="17.62" y="-38.5" font-family="Helvetica,sans-Serif" font-size="10.00">shieldMaxAmount</text>
<text text-anchor="start" x="5.81" y="-22.5" font-family="Helvetica,sans-Serif" font-size="10.00">+</text>
<text text-anchor="start" x="17.62" y="-22.5" font-family="Helvetica,sans-Serif" font-size="10.00">shieldReneratePerSecond</text>
<text text-anchor="start" x="67.75" y="-6.5" font-family="Helvetica,sans-Serif" font-size="10.00"> </text>
<polygon fill="#bfbfbf" stroke="#bfbfbf" points="0,-66 0,-66 138.5,-66 138.5,-66 0,-66"/>
<polygon fill="#bfbfbf" stroke="#bfbfbf" points="0,-18 0,-18 15.62,-18 15.62,-18 0,-18"/>
<polygon fill="#bfbfbf" stroke="#bfbfbf" points="15.62,-18 15.62,-18 138.5,-18 138.5,-18 15.62,-18"/>
<polygon fill="none" stroke="#bfbfbf" points="0,0 0,-96 138.5,-96 138.5,0 0,0"/>
</a>
</g>
</g>
<!-- Node1&#45;&gt;Node2 -->
<g id="edge1_Node000001_Node000002" class="edge">
<title>Node1&#45;&gt;Node2</title>
<g id="a_edge1_Node000001_Node000002"><a xlink:title=" ">
<path fill="none" stroke="#63b8ff" d="M245.26,-181.56C210.05,-155.04 166.34,-122.12 131.28,-95.72"/>
<polygon fill="none" stroke="#63b8ff" points="242.71,-184.02 252.81,-187.24 246.93,-178.43 242.71,-184.02"/>
</a>
</g>
</g>
<!-- Node3 -->
<g id="Node000003" class="node">
<title>Node3</title>
<g id="a_Node000003"><a xlink:href="class_storage_room_base_data_1_1_storage_room_base_level.html" target="_top" xlink:title=" ">
<polygon fill="white" stroke="none" points="304.38,-80 156.12,-80 156.12,-16 304.38,-16 304.38,-80"/>
<text text-anchor="start" x="160.12" y="-66.5" font-family="Helvetica,sans-Serif" font-size="10.00">StorageRoomBaseData.Storage</text>
<text text-anchor="start" x="194.25" y="-54.5" font-family="Helvetica,sans-Serif" font-size="10.00">RoomBaseLevel</text>
<text text-anchor="start" x="174.88" y="-38.5" font-family="Helvetica,sans-Serif" font-size="10.00">+</text>
<text text-anchor="start" x="199.62" y="-38.5" font-family="Helvetica,sans-Serif" font-size="10.00">storageCapacity</text>
<text text-anchor="start" x="228.75" y="-22.5" font-family="Helvetica,sans-Serif" font-size="10.00"> </text>
<polygon fill="#bfbfbf" stroke="#bfbfbf" points="156.12,-50 156.12,-50 304.38,-50 304.38,-50 156.12,-50"/>
<polygon fill="#bfbfbf" stroke="#bfbfbf" points="156.12,-34 156.12,-34 197.62,-34 197.62,-34 156.12,-34"/>
<polygon fill="#bfbfbf" stroke="#bfbfbf" points="197.62,-34 197.62,-34 304.38,-34 304.38,-34 197.62,-34"/>
<polygon fill="none" stroke="#bfbfbf" points="156.12,-16 156.12,-80 304.38,-80 304.38,-16 156.12,-16"/>
</a>
</g>
</g>
<!-- Node1&#45;&gt;Node3 -->
<g id="edge2_Node000001_Node000003" class="edge">
<title>Node1&#45;&gt;Node3</title>
<g id="a_edge2_Node000001_Node000003"><a xlink:title=" ">
<path fill="none" stroke="#63b8ff" d="M261.88,-121.98C255.22,-106.63 248.87,-91.96 243.62,-79.86"/>
<polygon fill="none" stroke="#63b8ff" points="258.49,-122.98 265.68,-130.76 264.92,-120.19 258.49,-122.98"/>
</a>
</g>
</g>
<!-- Node4 -->
<g id="Node000004" class="node">
<title>Node4</title>
<g id="a_Node000004"><a xlink:href="class_teleport_room_data_1_1_teleport_room_level.html" target="_top" xlink:title=" ">
<polygon fill="white" stroke="none" points="449.88,-88 322.62,-88 322.62,-8 449.88,-8 449.88,-88"/>
<text text-anchor="start" x="326.62" y="-74.5" font-family="Helvetica,sans-Serif" font-size="10.00">TeleportRoomData.Teleport</text>
<text text-anchor="start" x="361.5" y="-62.5" font-family="Helvetica,sans-Serif" font-size="10.00">RoomLevel</text>
<text text-anchor="start" x="330.12" y="-46.5" font-family="Helvetica,sans-Serif" font-size="10.00">+</text>
<text text-anchor="start" x="343.62" y="-46.5" font-family="Helvetica,sans-Serif" font-size="10.00">teleportWaitingTime</text>
<text text-anchor="start" x="330.12" y="-30.5" font-family="Helvetica,sans-Serif" font-size="10.00">+</text>
<text text-anchor="start" x="343.62" y="-30.5" font-family="Helvetica,sans-Serif" font-size="10.00">teleportRespawnTime</text>
<text text-anchor="start" x="384.75" y="-14.5" font-family="Helvetica,sans-Serif" font-size="10.00"> </text>
<polygon fill="#bfbfbf" stroke="#bfbfbf" points="322.62,-58 322.62,-58 449.88,-58 449.88,-58 322.62,-58"/>
<polygon fill="#bfbfbf" stroke="#bfbfbf" points="322.62,-26 322.62,-26 341.62,-26 341.62,-26 322.62,-26"/>
<polygon fill="#bfbfbf" stroke="#bfbfbf" points="341.62,-26 341.62,-26 449.88,-26 449.88,-26 341.62,-26"/>
<polygon fill="none" stroke="#bfbfbf" points="322.62,-8 322.62,-88 449.88,-88 449.88,-8 322.62,-8"/>
</a>
</g>
</g>
<!-- Node1&#45;&gt;Node4 -->
<g id="edge3_Node000001_Node000004" class="edge">
<title>Node1&#45;&gt;Node4</title>
<g id="a_edge3_Node000001_Node000004"><a xlink:title=" ">
<path fill="none" stroke="#63b8ff" d="M354.64,-121.94C359.87,-109.89 364.91,-98.26 369.37,-87.96"/>
<polygon fill="none" stroke="#63b8ff" points="351.58,-120.19 350.82,-130.76 358.01,-122.98 351.58,-120.19"/>
</a>
</g>
</g>
<!-- Node5 -->
<g id="Node000005" class="node">
<title>Node5</title>
<g id="a_Node000005"><a xlink:href="class_weapon_control_room_data_1_1_weapon_control_room_level.html" target="_top" xlink:title=" ">
<polygon fill="white" stroke="none" points="628.38,-80 468.12,-80 468.12,-16 628.38,-16 628.38,-80"/>
<text text-anchor="start" x="472.12" y="-66.5" font-family="Helvetica,sans-Serif" font-size="10.00">WeaponControlRoomData.Weapon</text>
<text text-anchor="start" x="507.75" y="-54.5" font-family="Helvetica,sans-Serif" font-size="10.00">ControlRoomLevel</text>
<text text-anchor="start" x="497.75" y="-38.5" font-family="Helvetica,sans-Serif" font-size="10.00">+</text>
<text text-anchor="start" x="533.38" y="-38.5" font-family="Helvetica,sans-Serif" font-size="10.00">accuracy</text>
<text text-anchor="start" x="546.75" y="-22.5" font-family="Helvetica,sans-Serif" font-size="10.00"> </text>
<polygon fill="#bfbfbf" stroke="#bfbfbf" points="468.12,-50 468.12,-50 628.38,-50 628.38,-50 468.12,-50"/>
<polygon fill="#bfbfbf" stroke="#bfbfbf" points="468.12,-34 468.12,-34 531.38,-34 531.38,-34 468.12,-34"/>
<polygon fill="#bfbfbf" stroke="#bfbfbf" points="531.38,-34 531.38,-34 628.38,-34 628.38,-34 531.38,-34"/>
<polygon fill="none" stroke="#bfbfbf" points="468.12,-16 468.12,-80 628.38,-80 628.38,-16 468.12,-16"/>
</a>
</g>
</g>
<!-- Node1&#45;&gt;Node5 -->
<g id="edge4_Node000001_Node000005" class="edge">
<title>Node1&#45;&gt;Node5</title>
<g id="a_edge4_Node000001_Node000005"><a xlink:title=" ">
<path fill="none" stroke="#63b8ff" d="M371.35,-181.67C414.22,-149.52 469.69,-107.92 506.98,-79.95"/>
<polygon fill="none" stroke="#63b8ff" points="369.52,-178.67 363.62,-187.47 373.72,-184.27 369.52,-178.67"/>
</a>
</g>
</g>
</g>
</svg>

<g id="navigator" transform="translate(0 0)" fill="#404254">
  <rect fill="#f2f5e9" fill-opacity="0.5" stroke="#606060" stroke-width=".5" x="0" y="0" width="60" height="60"/>
  <use id="zoomplus" xlink:href="#zoomPlus" x="17" y="9" onmousedown="handleZoom(evt,'in')"/>
  <use id="zoomminus" xlink:href="#zoomMin" x="42" y="9" onmousedown="handleZoom(evt,'out')"/>
  <use id="reset" xlink:href="#resetDef" x="30" y="36" onmousedown="handleReset()"/>
   <use id="arrowup" xlink:href="#arrowUp" x="0" y="0" onmousedown="handlePan(0,-1)"/>
  <use id="arrowright" xlink:href="#arrowRight" x="0" y="0" onmousedown="handlePan(1,0)"/>
  <use id="arrowdown" xlink:href="#arrowDown" x="0" y="0" onmousedown="handlePan(0,1)"/>
  <use id="arrowleft" xlink:href="#arrowLeft" x="0" y="0" onmousedown="handlePan(-1,0)"/>
</g>
<svg viewBox="0 0 15 15" width="100%" height="30px" preserveAspectRatio="xMaxYMin meet">
 <g id="arrow_out" transform="scale(0.3 0.3)">
  <a xlink:href="class_room_data_1_1_room_level__inherit__graph_org.svg" target="_base">
   <rect id="button" ry="5" rx="5" y="6" x="6" height="38" width="38"
        fill="#f2f5e9" fill-opacity="0.5" stroke="#606060" stroke-width="1.0"/>
   <path id="arrow"
     d="M 11.500037,31.436501 C 11.940474,20.09759 22.043105,11.32322 32.158766,21.979434 L 37.068811,17.246167 C 37.068811,17.246167 37.088388,32 37.088388,32 L 22.160133,31.978069 C 22.160133,31.978069 26.997745,27.140456 26.997745,27.140456 C 18.528582,18.264221 13.291696,25.230495 11.500037,31.436501 z"
     style="fill:#404040;"/>
  </a>
 </g>
</svg>

<style type='text/css'>
<![CDATA[
[data-mouse-over-selected='false'] { opacity: 0.7; }
[data-mouse-over-selected='true']  { opacity: 1.0; }
]]>
</style>
<script type="application/ecmascript"><![CDATA[
document.addEventListener('DOMContentLoaded', (event) => {
  highlightEdges();
  highlightAdjacentNodes();
});
]]></script>
</svg>
