<?xml version="1.0" encoding="UTF-8" standalone="no"?>
<!DOCTYPE svg PUBLIC "-//W3C//DTD SVG 1.1//EN"
 "http://www.w3.org/Graphics/SVG/1.1/DTD/svg11.dtd">
<!-- Generated by graphviz version 12.2.1 (20241206.2353)
 -->
<!-- Title: StorageRoomBase Pages: 1 -->
<!--zoomable 1292 -->

<svg id="main" version="1.1" xmlns="http://www.w3.org/2000/svg" xmlns:xlink="http://www.w3.org/1999/xlink" xml:space="preserve" onload="init(evt)">

<style type="text/css"><![CDATA[
.node, .edge {opacity: 0.7;}
.node.selected, .edge.selected {opacity: 1;}
.edge:hover path { stroke: red; }
.edge:hover polygon { stroke: red; fill: red; }
]]></style>

<defs>
  <circle id="rim" cx="0" cy="0" r="7"/>
  <circle id="rim2" cx="0" cy="0" r="3.5"/>
  <g id="zoomPlus">
    <use xlink:href="#rim" fill="#404040"><set attributeName="fill" to="#808080" begin="zoomplus.mouseover" end="zoomplus.mouseout"/></use>
    <path d="M-4,0h8M0,-4v8" fill="none" stroke="white" stroke-width="1.5" pointer-events="none"/>
  </g>
  <g id="zoomMin">
    <use xlink:href="#rim" fill="#404040"><set attributeName="fill" to="#808080" begin="zoomminus.mouseover" end="zoomminus.mouseout"/></use>
    <path d="M-4,0h8" fill="none" stroke="white" stroke-width="1.5" pointer-events="none"/>
  </g>
  <g id="arrowUp" transform="translate(30 24)">
    <use xlink:href="#rim"/>
    <path pointer-events="none" fill="none" stroke="white" stroke-width="1.5" d="M0,-3.0v7 M-2.5,-0.5L0,-3.0L2.5,-0.5"/>
  </g>
  <g id="arrowRight" transform="rotate(90) translate(36 -43)">
    <use xlink:href="#rim"/>
    <path pointer-events="none" fill="none" stroke="white" stroke-width="1.5" d="M0,-3.0v7 M-2.5,-0.5L0,-3.0L2.5,-0.5"/>
  </g>
  <g id="arrowDown" transform="rotate(180) translate(-30 -48)">
    <use xlink:href="#rim"/>
    <path pointer-events="none" fill="none" stroke="white" stroke-width="1.5" d="M0,-3.0v7 M-2.5,-0.5L0,-3.0L2.5,-0.5"/>
  </g>
  <g id="arrowLeft" transform="rotate(270) translate(-36 17)">
    <use xlink:href="#rim"/>
    <path pointer-events="none" fill="none" stroke="white" stroke-width="1.5" d="M0,-3.0v7 M-2.5,-0.5L0,-3.0L2.5,-0.5"/>
  </g>
  <g id="resetDef">
    <use xlink:href="#rim2" fill="#404040"><set attributeName="fill" to="#808080" begin="reset.mouseover" end="reset.mouseout"/></use>
  </g>
</defs>
<script type="application/ecmascript">
var viewWidth = 366;
var viewHeight = 1292;
var sectionId = 'dynsection-0';
</script>
<script type="application/ecmascript" xlink:href="svg.min.js"/>
<svg id="graph" class="graph">
<g id="viewport">
<title>StorageRoomBase</title>
<!-- Node1 -->
<g id="Node000001" class="node">
<title>Node1</title>
<g id="a_Node000001"><a xlink:title="모든 창고 타입의 기본 클래스">
<polygon fill="#999999" stroke="none" points="227.38,-316 106.62,-316 106.62,-136 227.38,-136 227.38,-316"/>
<text text-anchor="start" x="125.75" y="-302.5" font-family="Helvetica,sans-Serif" font-size="10.00">StorageRoomBase</text>
<text text-anchor="start" x="111" y="-286.5" font-family="Helvetica,sans-Serif" font-size="10.00">#</text>
<text text-anchor="start" x="120.62" y="-286.5" font-family="Helvetica,sans-Serif" font-size="10.00">storageType</text>
<text text-anchor="start" x="111" y="-270.5" font-family="Helvetica,sans-Serif" font-size="10.00">#</text>
<text text-anchor="start" x="120.62" y="-270.5" font-family="Helvetica,sans-Serif" font-size="10.00">storedItems</text>
<text text-anchor="start" x="110.62" y="-254.5" font-family="Helvetica,sans-Serif" font-size="10.00">+</text>
<text text-anchor="start" x="120.62" y="-254.5" font-family="Helvetica,sans-Serif" font-size="10.00">GetStatContributions()</text>
<text text-anchor="start" x="110.62" y="-238.5" font-family="Helvetica,sans-Serif" font-size="10.00">+</text>
<text text-anchor="start" x="120.62" y="-238.5" font-family="Helvetica,sans-Serif" font-size="10.00">GetStorageType()</text>
<text text-anchor="start" x="110.62" y="-222.5" font-family="Helvetica,sans-Serif" font-size="10.00">+</text>
<text text-anchor="start" x="120.62" y="-222.5" font-family="Helvetica,sans-Serif" font-size="10.00">CanStoreItem()</text>
<text text-anchor="start" x="110.62" y="-206.5" font-family="Helvetica,sans-Serif" font-size="10.00">+</text>
<text text-anchor="start" x="120.62" y="-206.5" font-family="Helvetica,sans-Serif" font-size="10.00">AddItem()</text>
<text text-anchor="start" x="110.62" y="-190.5" font-family="Helvetica,sans-Serif" font-size="10.00">+</text>
<text text-anchor="start" x="120.62" y="-190.5" font-family="Helvetica,sans-Serif" font-size="10.00">RemoveItem()</text>
<text text-anchor="start" x="110.62" y="-174.5" font-family="Helvetica,sans-Serif" font-size="10.00">+</text>
<text text-anchor="start" x="120.62" y="-174.5" font-family="Helvetica,sans-Serif" font-size="10.00">CheckItemsAfterWarp()</text>
<text text-anchor="start" x="111" y="-158.5" font-family="Helvetica,sans-Serif" font-size="10.00">#</text>
<text text-anchor="start" x="120.62" y="-158.5" font-family="Helvetica,sans-Serif" font-size="10.00">Start()</text>
<text text-anchor="start" x="111" y="-142.5" font-family="Helvetica,sans-Serif" font-size="10.00">#</text>
<text text-anchor="start" x="120.62" y="-142.5" font-family="Helvetica,sans-Serif" font-size="10.00">DegradeItemState()</text>
<polygon fill="#666666" stroke="#666666" points="106.62,-298 106.62,-298 227.38,-298 227.38,-298 106.62,-298"/>
<polygon fill="#666666" stroke="#666666" points="106.62,-266 106.62,-266 118.62,-266 118.62,-266 106.62,-266"/>
<polygon fill="#666666" stroke="#666666" points="118.62,-266 118.62,-266 227.38,-266 227.38,-266 118.62,-266"/>
<polygon fill="none" stroke="#666666" points="106.62,-136 106.62,-316 227.38,-316 227.38,-136 106.62,-136"/>
</a>
</g>
</g>
<!-- Node6 -->
<g id="Node000006" class="node">
<title>Node6</title>
<g id="a_Node000006"><a xlink:href="class_storage_room_animal.html" target="_top" xlink:title="동물 우리를 나타내는 클래스">
<polygon fill="white" stroke="none" points="98,-84 0,-84 0,-16 98,-16 98,-84"/>
<text text-anchor="start" x="4" y="-70.5" font-family="Helvetica,sans-Serif" font-size="10.00">StorageRoomAnimal</text>
<text text-anchor="start" x="47.5" y="-54.5" font-family="Helvetica,sans-Serif" font-size="10.00"> </text>
<text text-anchor="start" x="7.31" y="-38.5" font-family="Helvetica,sans-Serif" font-size="10.00">+</text>
<text text-anchor="start" x="20.62" y="-38.5" font-family="Helvetica,sans-Serif" font-size="10.00">CanStoreItem()</text>
<text text-anchor="start" x="7.69" y="-22.5" font-family="Helvetica,sans-Serif" font-size="10.00">#</text>
<text text-anchor="start" x="20.62" y="-22.5" font-family="Helvetica,sans-Serif" font-size="10.00">Start()</text>
<polygon fill="#666666" stroke="#666666" points="0,-66 0,-66 98,-66 98,-66 0,-66"/>
<polygon fill="#666666" stroke="#666666" points="0,-50 0,-50 98,-50 98,-50 0,-50"/>
<polygon fill="none" stroke="#666666" points="0,-16 0,-84 98,-84 98,-16 0,-16"/>
</a>
</g>
</g>
<!-- Node1&#45;&gt;Node6 -->
<g id="edge5_Node000001_Node000006" class="edge">
<title>Node1&#45;&gt;Node6</title>
<g id="a_edge5_Node000001_Node000006"><a xlink:title=" ">
<path fill="none" stroke="#63b8ff" d="M100.54,-127C89.98,-111.42 79.74,-96.32 71.2,-83.74"/>
<polygon fill="none" stroke="#63b8ff" points="97.43,-128.65 105.94,-134.96 103.22,-124.72 97.43,-128.65"/>
</a>
</g>
</g>
<!-- Node7 -->
<g id="Node000007" class="node">
<title>Node7</title>
<g id="a_Node000007"><a xlink:href="class_storage_room_regular.html" target="_top" xlink:title="일반 창고를 나타내는 클래스">
<polygon fill="white" stroke="none" points="217.88,-84 116.12,-84 116.12,-16 217.88,-16 217.88,-84"/>
<text text-anchor="start" x="120.12" y="-70.5" font-family="Helvetica,sans-Serif" font-size="10.00">StorageRoomRegular</text>
<text text-anchor="start" x="165.5" y="-54.5" font-family="Helvetica,sans-Serif" font-size="10.00"> </text>
<text text-anchor="start" x="124.38" y="-38.5" font-family="Helvetica,sans-Serif" font-size="10.00">+</text>
<text text-anchor="start" x="138.62" y="-38.5" font-family="Helvetica,sans-Serif" font-size="10.00">CanStoreItem()</text>
<text text-anchor="start" x="124.75" y="-22.5" font-family="Helvetica,sans-Serif" font-size="10.00">#</text>
<text text-anchor="start" x="138.62" y="-22.5" font-family="Helvetica,sans-Serif" font-size="10.00">Start()</text>
<polygon fill="#666666" stroke="#666666" points="116.12,-66 116.12,-66 217.88,-66 217.88,-66 116.12,-66"/>
<polygon fill="#666666" stroke="#666666" points="116.12,-50 116.12,-50 217.88,-50 217.88,-50 116.12,-50"/>
<polygon fill="none" stroke="#666666" points="116.12,-16 116.12,-84 217.88,-84 217.88,-16 116.12,-16"/>
</a>
</g>
</g>
<!-- Node1&#45;&gt;Node7 -->
<g id="edge6_Node000001_Node000007" class="edge">
<title>Node1&#45;&gt;Node7</title>
<g id="a_edge6_Node000001_Node000007"><a xlink:title=" ">
<path fill="none" stroke="#63b8ff" d="M167,-124.82C167,-110.02 167,-95.73 167,-83.74"/>
<polygon fill="none" stroke="#63b8ff" points="163.5,-124.7 167,-134.7 170.5,-124.7 163.5,-124.7"/>
</a>
</g>
</g>
<!-- Node8 -->
<g id="Node000008" class="node">
<title>Node8</title>
<g id="a_Node000008"><a xlink:href="class_storage_room_temperature.html" target="_top" xlink:title="온도 조절 창고를 나타내는 클래스">
<polygon fill="white" stroke="none" points="358,-100 236,-100 236,0 358,0 358,-100"/>
<text text-anchor="start" x="240" y="-86.5" font-family="Helvetica,sans-Serif" font-size="10.00">StorageRoomTemperature</text>
<text text-anchor="start" x="295.5" y="-70.5" font-family="Helvetica,sans-Serif" font-size="10.00"> </text>
<text text-anchor="start" x="246.69" y="-54.5" font-family="Helvetica,sans-Serif" font-size="10.00">+</text>
<text text-anchor="start" x="263.38" y="-54.5" font-family="Helvetica,sans-Serif" font-size="10.00">CanStoreItem()</text>
<text text-anchor="start" x="246.69" y="-38.5" font-family="Helvetica,sans-Serif" font-size="10.00">+</text>
<text text-anchor="start" x="263.38" y="-38.5" font-family="Helvetica,sans-Serif" font-size="10.00">SetPowerStatus()</text>
<text text-anchor="start" x="247.06" y="-22.5" font-family="Helvetica,sans-Serif" font-size="10.00">#</text>
<text text-anchor="start" x="263.38" y="-22.5" font-family="Helvetica,sans-Serif" font-size="10.00">Start()</text>
<text text-anchor="start" x="247.06" y="-6.5" font-family="Helvetica,sans-Serif" font-size="10.00">#</text>
<text text-anchor="start" x="263.38" y="-6.5" font-family="Helvetica,sans-Serif" font-size="10.00">UpdateRoom()</text>
<polygon fill="#666666" stroke="#666666" points="236,-82 236,-82 358,-82 358,-82 236,-82"/>
<polygon fill="#666666" stroke="#666666" points="236,-66 236,-66 358,-66 358,-66 236,-66"/>
<polygon fill="none" stroke="#666666" points="236,0 236,-100 358,-100 358,0 236,0"/>
</a>
</g>
</g>
<!-- Node1&#45;&gt;Node8 -->
<g id="edge7_Node000001_Node000008" class="edge">
<title>Node1&#45;&gt;Node8</title>
<g id="a_edge7_Node000001_Node000008"><a xlink:title=" ">
<path fill="none" stroke="#63b8ff" d="M233.95,-135.39C243.16,-123.06 252.32,-110.81 260.68,-99.61"/>
<polygon fill="none" stroke="#63b8ff" points="231.33,-133.05 228.15,-143.15 236.94,-137.24 231.33,-133.05"/>
</a>
</g>
</g>
<!-- Node2 -->
<g id="Node000002" class="node">
<title>Node2</title>
<g id="a_Node000002"><a xlink:href="class_room-2-g.html" target="_top" xlink:title="함선 내의 특화된 방 타입을 위한 제네릭 기본 클래스">
<polygon fill="white" stroke="none" points="230,-484 104,-484 104,-352 230,-352 230,-484"/>
<text text-anchor="start" x="114.5" y="-470.5" font-family="Helvetica,sans-Serif" font-size="10.00">Room&lt; TData, TLevel &gt;</text>
<text text-anchor="start" x="108" y="-454.5" font-family="Helvetica,sans-Serif" font-size="10.00">+</text>
<text text-anchor="start" x="118" y="-454.5" font-family="Helvetica,sans-Serif" font-size="10.00">roomData</text>
<text text-anchor="start" x="108.38" y="-438.5" font-family="Helvetica,sans-Serif" font-size="10.00">#</text>
<text text-anchor="start" x="118" y="-438.5" font-family="Helvetica,sans-Serif" font-size="10.00">currentRoomLevelData</text>
<text text-anchor="start" x="108" y="-422.5" font-family="Helvetica,sans-Serif" font-size="10.00">+</text>
<text text-anchor="start" x="118" y="-422.5" font-family="Helvetica,sans-Serif" font-size="10.00">GetCurrentLevelData()</text>
<text text-anchor="start" x="108" y="-406.5" font-family="Helvetica,sans-Serif" font-size="10.00">+</text>
<text text-anchor="start" x="118" y="-406.5" font-family="Helvetica,sans-Serif" font-size="10.00">Upgrade()</text>
<text text-anchor="start" x="108" y="-390.5" font-family="Helvetica,sans-Serif" font-size="10.00">+</text>
<text text-anchor="start" x="118" y="-390.5" font-family="Helvetica,sans-Serif" font-size="10.00">Initialize()</text>
<text text-anchor="start" x="108.38" y="-374.5" font-family="Helvetica,sans-Serif" font-size="10.00">#</text>
<text text-anchor="start" x="118" y="-374.5" font-family="Helvetica,sans-Serif" font-size="10.00">UpdateRoomLevelData()</text>
<text text-anchor="start" x="108.38" y="-358.5" font-family="Helvetica,sans-Serif" font-size="10.00">#</text>
<text text-anchor="start" x="118" y="-358.5" font-family="Helvetica,sans-Serif" font-size="10.00">Start()</text>
<polygon fill="#666666" stroke="#666666" points="104,-466 104,-466 230,-466 230,-466 104,-466"/>
<polygon fill="#666666" stroke="#666666" points="104,-434 104,-434 116,-434 116,-434 104,-434"/>
<polygon fill="#666666" stroke="#666666" points="116,-434 116,-434 230,-434 230,-434 116,-434"/>
<polygon fill="none" stroke="#666666" points="104,-352 104,-484 230,-484 230,-352 104,-352"/>
</a>
</g>
</g>
<!-- Node2&#45;&gt;Node1 -->
<g id="edge1_Node000001_Node000002" class="edge">
<title>Node2&#45;&gt;Node1</title>
<g id="a_edge1_Node000001_Node000002"><a xlink:title=" ">
<path fill="none" stroke="#63b8ff" d="M167,-340.7C167,-332.5 167,-324.1 167,-315.76"/>
<polygon fill="none" stroke="#63b8ff" points="163.5,-340.63 167,-350.63 170.5,-340.63 163.5,-340.63"/>
</a>
</g>
</g>
<!-- Node3 -->
<g id="Node000003" class="node">
<title>Node3</title>
<g id="a_Node000003"><a xlink:href="class_room.html" target="_top" xlink:title="함선 내의 모든 방의 기본 클래스">
<polygon fill="white" stroke="none" points="236.38,-1196 97.62,-1196 97.62,-520 236.38,-520 236.38,-1196"/>
<text text-anchor="start" x="153.88" y="-1182.5" font-family="Helvetica,sans-Serif" font-size="10.00">Room</text>
<text text-anchor="start" x="101.62" y="-1166.5" font-family="Helvetica,sans-Serif" font-size="10.00">+</text>
<text text-anchor="start" x="111.62" y="-1166.5" font-family="Helvetica,sans-Serif" font-size="10.00">roomData</text>
<text text-anchor="start" x="101.62" y="-1150.5" font-family="Helvetica,sans-Serif" font-size="10.00">+</text>
<text text-anchor="start" x="111.62" y="-1150.5" font-family="Helvetica,sans-Serif" font-size="10.00">position</text>
<text text-anchor="start" x="101.62" y="-1134.5" font-family="Helvetica,sans-Serif" font-size="10.00">+</text>
<text text-anchor="start" x="111.62" y="-1134.5" font-family="Helvetica,sans-Serif" font-size="10.00">currentLevel</text>
<text text-anchor="start" x="101.62" y="-1118.5" font-family="Helvetica,sans-Serif" font-size="10.00">+</text>
<text text-anchor="start" x="111.62" y="-1118.5" font-family="Helvetica,sans-Serif" font-size="10.00">maxLevel</text>
<text text-anchor="start" x="101.62" y="-1102.5" font-family="Helvetica,sans-Serif" font-size="10.00">+</text>
<text text-anchor="start" x="111.62" y="-1102.5" font-family="Helvetica,sans-Serif" font-size="10.00">roomType</text>
<text text-anchor="start" x="101.62" y="-1086.5" font-family="Helvetica,sans-Serif" font-size="10.00">+</text>
<text text-anchor="start" x="111.62" y="-1086.5" font-family="Helvetica,sans-Serif" font-size="10.00">crewInRoom</text>
<text text-anchor="start" x="101.62" y="-1070.5" font-family="Helvetica,sans-Serif" font-size="10.00">+</text>
<text text-anchor="start" x="111.62" y="-1070.5" font-family="Helvetica,sans-Serif" font-size="10.00">gridSize</text>
<text text-anchor="start" x="101.62" y="-1054.5" font-family="Helvetica,sans-Serif" font-size="10.00">+</text>
<text text-anchor="start" x="111.62" y="-1054.5" font-family="Helvetica,sans-Serif" font-size="10.00">isPlaced</text>
<text text-anchor="start" x="102" y="-1038.5" font-family="Helvetica,sans-Serif" font-size="10.00">#</text>
<text text-anchor="start" x="111.62" y="-1038.5" font-family="Helvetica,sans-Serif" font-size="10.00">currentHitPoints</text>
<text text-anchor="start" x="102" y="-1022.5" font-family="Helvetica,sans-Serif" font-size="10.00">#</text>
<text text-anchor="start" x="111.62" y="-1022.5" font-family="Helvetica,sans-Serif" font-size="10.00">oxygenLevel</text>
<text text-anchor="start" x="102" y="-1006.5" font-family="Helvetica,sans-Serif" font-size="10.00">#</text>
<text text-anchor="start" x="111.62" y="-1006.5" font-family="Helvetica,sans-Serif" font-size="10.00">adjacentRooms</text>
<text text-anchor="start" x="102" y="-990.5" font-family="Helvetica,sans-Serif" font-size="10.00">#</text>
<text text-anchor="start" x="111.62" y="-990.5" font-family="Helvetica,sans-Serif" font-size="10.00">connectedDoors</text>
<text text-anchor="start" x="102" y="-974.5" font-family="Helvetica,sans-Serif" font-size="10.00">#</text>
<text text-anchor="start" x="111.62" y="-974.5" font-family="Helvetica,sans-Serif" font-size="10.00">roomParticles</text>
<text text-anchor="start" x="102" y="-958.5" font-family="Helvetica,sans-Serif" font-size="10.00">#</text>
<text text-anchor="start" x="111.62" y="-958.5" font-family="Helvetica,sans-Serif" font-size="10.00">roomSound</text>
<text text-anchor="start" x="102" y="-942.5" font-family="Helvetica,sans-Serif" font-size="10.00">#</text>
<text text-anchor="start" x="111.62" y="-942.5" font-family="Helvetica,sans-Serif" font-size="10.00">crewDamagePerOxygen</text>
<text text-anchor="start" x="102" y="-926.5" font-family="Helvetica,sans-Serif" font-size="10.00">#</text>
<text text-anchor="start" x="111.62" y="-926.5" font-family="Helvetica,sans-Serif" font-size="10.00">fireExtinguishRatePerLevel</text>
<text text-anchor="start" x="102" y="-910.5" font-family="Helvetica,sans-Serif" font-size="10.00">#</text>
<text text-anchor="start" x="111.62" y="-910.5" font-family="Helvetica,sans-Serif" font-size="10.00">isActive</text>
<text text-anchor="start" x="102" y="-894.5" font-family="Helvetica,sans-Serif" font-size="10.00">#</text>
<text text-anchor="start" x="111.62" y="-894.5" font-family="Helvetica,sans-Serif" font-size="10.00">isPowered</text>
<text text-anchor="start" x="102" y="-878.5" font-family="Helvetica,sans-Serif" font-size="10.00">#</text>
<text text-anchor="start" x="111.62" y="-878.5" font-family="Helvetica,sans-Serif" font-size="10.00">isPowerRequested</text>
<text text-anchor="start" x="102" y="-862.5" font-family="Helvetica,sans-Serif" font-size="10.00">#</text>
<text text-anchor="start" x="111.62" y="-862.5" font-family="Helvetica,sans-Serif" font-size="10.00">lowOxygenColor</text>
<text text-anchor="start" x="102" y="-846.5" font-family="Helvetica,sans-Serif" font-size="10.00">#</text>
<text text-anchor="start" x="111.62" y="-846.5" font-family="Helvetica,sans-Serif" font-size="10.00">normalColor</text>
<text text-anchor="start" x="102" y="-830.5" font-family="Helvetica,sans-Serif" font-size="10.00">#</text>
<text text-anchor="start" x="111.62" y="-830.5" font-family="Helvetica,sans-Serif" font-size="10.00">roomRenderer</text>
<text text-anchor="start" x="102" y="-814.5" font-family="Helvetica,sans-Serif" font-size="10.00">#</text>
<text text-anchor="start" x="111.62" y="-814.5" font-family="Helvetica,sans-Serif" font-size="10.00">parentShip</text>
<text text-anchor="start" x="101.62" y="-798.5" font-family="Helvetica,sans-Serif" font-size="10.00">+</text>
<text text-anchor="start" x="111.62" y="-798.5" font-family="Helvetica,sans-Serif" font-size="10.00">Update()</text>
<text text-anchor="start" x="101.62" y="-782.5" font-family="Helvetica,sans-Serif" font-size="10.00">+</text>
<text text-anchor="start" x="111.62" y="-782.5" font-family="Helvetica,sans-Serif" font-size="10.00">CanBePlaced()</text>
<text text-anchor="start" x="101.62" y="-766.5" font-family="Helvetica,sans-Serif" font-size="10.00">+</text>
<text text-anchor="start" x="111.62" y="-766.5" font-family="Helvetica,sans-Serif" font-size="10.00">OnPlaced()</text>
<text text-anchor="start" x="101.62" y="-750.5" font-family="Helvetica,sans-Serif" font-size="10.00">+</text>
<text text-anchor="start" x="111.62" y="-750.5" font-family="Helvetica,sans-Serif" font-size="10.00">OnCrewEnter()</text>
<text text-anchor="start" x="101.62" y="-734.5" font-family="Helvetica,sans-Serif" font-size="10.00">+</text>
<text text-anchor="start" x="111.62" y="-734.5" font-family="Helvetica,sans-Serif" font-size="10.00">OnCrewExit()</text>
<text text-anchor="start" x="101.62" y="-718.5" font-family="Helvetica,sans-Serif" font-size="10.00">+</text>
<text text-anchor="start" x="111.62" y="-718.5" font-family="Helvetica,sans-Serif" font-size="10.00">InitializeIsDamageable()</text>
<text text-anchor="start" x="101.62" y="-702.5" font-family="Helvetica,sans-Serif" font-size="10.00">+</text>
<text text-anchor="start" x="111.62" y="-702.5" font-family="Helvetica,sans-Serif" font-size="10.00">GetIsPowered()</text>
<text text-anchor="start" x="101.62" y="-686.5" font-family="Helvetica,sans-Serif" font-size="10.00">+</text>
<text text-anchor="start" x="111.62" y="-686.5" font-family="Helvetica,sans-Serif" font-size="10.00">GetIsPowerRequested()</text>
<text text-anchor="start" x="101.62" y="-670.5" font-family="Helvetica,sans-Serif" font-size="10.00">+</text>
<text text-anchor="start" x="111.62" y="-670.5" font-family="Helvetica,sans-Serif" font-size="10.00">GetIsDamageable()</text>
<text text-anchor="start" x="101.62" y="-654.5" font-family="Helvetica,sans-Serif" font-size="10.00">+</text>
<text text-anchor="start" x="111.62" y="-654.5" font-family="Helvetica,sans-Serif" font-size="10.00">GetOxygenLevel()</text>
<text text-anchor="start" x="111.62" y="-638.5" font-family="Helvetica,sans-Serif" font-size="10.00">and 18 more...</text>
<text text-anchor="start" x="102" y="-622.5" font-family="Helvetica,sans-Serif" font-size="10.00">#</text>
<text text-anchor="start" x="111.62" y="-622.5" font-family="Helvetica,sans-Serif" font-size="10.00">Start()</text>
<text text-anchor="start" x="102" y="-606.5" font-family="Helvetica,sans-Serif" font-size="10.00">#</text>
<text text-anchor="start" x="111.62" y="-606.5" font-family="Helvetica,sans-Serif" font-size="10.00">UpdateRoom()</text>
<text text-anchor="start" x="102" y="-590.5" font-family="Helvetica,sans-Serif" font-size="10.00">#</text>
<text text-anchor="start" x="111.62" y="-590.5" font-family="Helvetica,sans-Serif" font-size="10.00">UpdateEffects()</text>
<text text-anchor="start" x="102" y="-574.5" font-family="Helvetica,sans-Serif" font-size="10.00">#</text>
<text text-anchor="start" x="111.62" y="-574.5" font-family="Helvetica,sans-Serif" font-size="10.00">HasFire()</text>
<text text-anchor="start" x="102" y="-558.5" font-family="Helvetica,sans-Serif" font-size="10.00">#</text>
<text text-anchor="start" x="111.62" y="-558.5" font-family="Helvetica,sans-Serif" font-size="10.00">UpdateFireExtinguishRate()</text>
<text text-anchor="start" x="102" y="-542.5" font-family="Helvetica,sans-Serif" font-size="10.00">#</text>
<text text-anchor="start" x="111.62" y="-542.5" font-family="Helvetica,sans-Serif" font-size="10.00">OnDisabled()</text>
<text text-anchor="start" x="102" y="-526.5" font-family="Helvetica,sans-Serif" font-size="10.00">#</text>
<text text-anchor="start" x="111.62" y="-526.5" font-family="Helvetica,sans-Serif" font-size="10.00">NotifyStateChanged()</text>
<polygon fill="#666666" stroke="#666666" points="97.62,-1178 97.62,-1178 236.38,-1178 236.38,-1178 97.62,-1178"/>
<polygon fill="#666666" stroke="#666666" points="97.62,-810 97.62,-810 109.62,-810 109.62,-810 97.62,-810"/>
<polygon fill="#666666" stroke="#666666" points="109.62,-810 109.62,-810 236.38,-810 236.38,-810 109.62,-810"/>
<polygon fill="none" stroke="#666666" points="97.62,-520 97.62,-1196 236.38,-1196 236.38,-520 97.62,-520"/>
</a>
</g>
</g>
<!-- Node3&#45;&gt;Node2 -->
<g id="edge2_Node000002_Node000003" class="edge">
<title>Node3&#45;&gt;Node2</title>
<g id="a_edge2_Node000002_Node000003"><a xlink:title=" ">
<path fill="none" stroke="#63b8ff" d="M167,-508.75C167,-500.01 167,-491.69 167,-483.91"/>
<polygon fill="none" stroke="#63b8ff" points="163.5,-508.52 167,-518.52 170.5,-508.52 163.5,-508.52"/>
</a>
</g>
</g>
<!-- Node4 -->
<g id="Node000004" class="node">
<title>Node4</title>
<g id="a_Node000004"><a xlink:title=" ">
<polygon fill="white" stroke="none" points="147.75,-1284 72.25,-1284 72.25,-1232 147.75,-1232 147.75,-1284"/>
<text text-anchor="start" x="76.25" y="-1270.5" font-family="Helvetica,sans-Serif" font-size="10.00">MonoBehaviour</text>
<text text-anchor="start" x="108.5" y="-1254.5" font-family="Helvetica,sans-Serif" font-size="10.00"> </text>
<text text-anchor="start" x="108.5" y="-1238.5" font-family="Helvetica,sans-Serif" font-size="10.00"> </text>
<polygon fill="#bfbfbf" stroke="#bfbfbf" points="72.25,-1266 72.25,-1266 147.75,-1266 147.75,-1266 72.25,-1266"/>
<polygon fill="#bfbfbf" stroke="#bfbfbf" points="72.25,-1250 72.25,-1250 147.75,-1250 147.75,-1250 72.25,-1250"/>
<polygon fill="none" stroke="#bfbfbf" points="72.25,-1232 72.25,-1284 147.75,-1284 147.75,-1232 72.25,-1232"/>
</a>
</g>
</g>
<!-- Node4&#45;&gt;Node3 -->
<g id="edge3_Node000003_Node000004" class="edge">
<title>Node4&#45;&gt;Node3</title>
<g id="a_edge3_Node000003_Node000004"><a xlink:title=" ">
<path fill="none" stroke="#63b8ff" d="M115.17,-1220.88C116.24,-1213.45 117.44,-1205.06 118.75,-1195.91"/>
<polygon fill="none" stroke="#63b8ff" points="111.73,-1220.21 113.78,-1230.61 118.66,-1221.2 111.73,-1220.21"/>
</a>
</g>
</g>
<!-- Node5 -->
<g id="Node000005" class="node">
<title>Node5</title>
<g id="a_Node000005"><a xlink:href="interface_i_ship_stat_contributor.html" target="_top" xlink:title="ShipStat 에 영향을 주는 객체 인터페이스 모든 방들과 모든 선원은 전부 이에 해당한다. 방의 경우엔 RoomData 에 등록된 정보를 바탕으로 Ship에서 Contribute...">
<polygon fill="white" stroke="none" points="281.75,-1284 166.25,-1284 166.25,-1232 281.75,-1232 281.75,-1284"/>
<text text-anchor="start" x="179.75" y="-1270.5" font-family="Helvetica,sans-Serif" font-size="10.00">IShipStatContributor</text>
<text text-anchor="start" x="222.5" y="-1254.5" font-family="Helvetica,sans-Serif" font-size="10.00"> </text>
<text text-anchor="start" x="170.25" y="-1238.5" font-family="Helvetica,sans-Serif" font-size="10.00">+</text>
<text text-anchor="start" x="180.25" y="-1238.5" font-family="Helvetica,sans-Serif" font-size="10.00">GetStatContributions()</text>
<polygon fill="#666666" stroke="#666666" points="166.25,-1266 166.25,-1266 281.75,-1266 281.75,-1266 166.25,-1266"/>
<polygon fill="#666666" stroke="#666666" points="166.25,-1250 166.25,-1250 281.75,-1250 281.75,-1250 166.25,-1250"/>
<polygon fill="none" stroke="#666666" points="166.25,-1232 166.25,-1284 281.75,-1284 281.75,-1232 166.25,-1232"/>
</a>
</g>
</g>
<!-- Node5&#45;&gt;Node3 -->
<g id="edge4_Node000003_Node000005" class="edge">
<title>Node5&#45;&gt;Node3</title>
<g id="a_edge4_Node000003_Node000005"><a xlink:title=" ">
<path fill="none" stroke="#63b8ff" d="M218.83,-1220.88C217.76,-1213.45 216.56,-1205.06 215.25,-1195.91"/>
<polygon fill="none" stroke="#63b8ff" points="215.34,-1221.2 220.22,-1230.61 222.27,-1220.21 215.34,-1221.2"/>
</a>
</g>
</g>
</g>
</svg>

<g id="navigator" transform="translate(0 0)" fill="#404254">
  <rect fill="#f2f5e9" fill-opacity="0.5" stroke="#606060" stroke-width=".5" x="0" y="0" width="60" height="60"/>
  <use id="zoomplus" xlink:href="#zoomPlus" x="17" y="9" onmousedown="handleZoom(evt,'in')"/>
  <use id="zoomminus" xlink:href="#zoomMin" x="42" y="9" onmousedown="handleZoom(evt,'out')"/>
  <use id="reset" xlink:href="#resetDef" x="30" y="36" onmousedown="handleReset()"/>
   <use id="arrowup" xlink:href="#arrowUp" x="0" y="0" onmousedown="handlePan(0,-1)"/>
  <use id="arrowright" xlink:href="#arrowRight" x="0" y="0" onmousedown="handlePan(1,0)"/>
  <use id="arrowdown" xlink:href="#arrowDown" x="0" y="0" onmousedown="handlePan(0,1)"/>
  <use id="arrowleft" xlink:href="#arrowLeft" x="0" y="0" onmousedown="handlePan(-1,0)"/>
</g>
<svg viewBox="0 0 15 15" width="100%" height="30px" preserveAspectRatio="xMaxYMin meet">
 <g id="arrow_out" transform="scale(0.3 0.3)">
  <a xlink:href="class_storage_room_base__inherit__graph_org.svg" target="_base">
   <rect id="button" ry="5" rx="5" y="6" x="6" height="38" width="38"
        fill="#f2f5e9" fill-opacity="0.5" stroke="#606060" stroke-width="1.0"/>
   <path id="arrow"
     d="M 11.500037,31.436501 C 11.940474,20.09759 22.043105,11.32322 32.158766,21.979434 L 37.068811,17.246167 C 37.068811,17.246167 37.088388,32 37.088388,32 L 22.160133,31.978069 C 22.160133,31.978069 26.997745,27.140456 26.997745,27.140456 C 18.528582,18.264221 13.291696,25.230495 11.500037,31.436501 z"
     style="fill:#404040;"/>
  </a>
 </g>
</svg>

<style type='text/css'>
<![CDATA[
[data-mouse-over-selected='false'] { opacity: 0.7; }
[data-mouse-over-selected='true']  { opacity: 1.0; }
]]>
</style>
<script type="application/ecmascript"><![CDATA[
document.addEventListener('DOMContentLoaded', (event) => {
  highlightEdges();
  highlightAdjacentNodes();
});
]]></script>
</svg>
