<?xml version="1.0" encoding="UTF-8" standalone="no"?>
<!DOCTYPE svg PUBLIC "-//W3C//DTD SVG 1.1//EN"
 "http://www.w3.org/Graphics/SVG/1.1/DTD/svg11.dtd">
<!-- Generated by graphviz version 12.2.1 (20241206.2353)
 -->
<!-- Title: RoomDragHandler Pages: 1 -->
<svg width="533pt" height="425pt"
 viewBox="0.00 0.00 533.12 425.00" xmlns="http://www.w3.org/2000/svg" xmlns:xlink="http://www.w3.org/1999/xlink">
<g id="graph0" class="graph" transform="scale(1 1) rotate(0) translate(4 421)">
<title>RoomDragHandler</title>
<!-- Node1 -->
<g id="Node000001" class="node">
<title>Node1</title>
<g id="a_Node000001"><a xlink:title="방 설치, 회전, 삭제, 이동까지 담당하는 드래그 핸들러">
<polygon fill="#999999" stroke="none" points="299.62,-180 169.88,-180 169.88,0 299.62,0 299.62,-180"/>
<text text-anchor="start" x="194.25" y="-166.5" font-family="Helvetica,sans-Serif" font-size="10.00">RoomDragHandler</text>
<text text-anchor="start" x="173.88" y="-150.5" font-family="Helvetica,sans-Serif" font-size="10.00">+</text>
<text text-anchor="start" x="183.88" y="-150.5" font-family="Helvetica,sans-Serif" font-size="10.00">roomPrefab</text>
<text text-anchor="start" x="173.88" y="-134.5" font-family="Helvetica,sans-Serif" font-size="10.00">+</text>
<text text-anchor="start" x="183.88" y="-134.5" font-family="Helvetica,sans-Serif" font-size="10.00">previewPrefab</text>
<text text-anchor="start" x="173.88" y="-118.5" font-family="Helvetica,sans-Serif" font-size="10.00">+</text>
<text text-anchor="start" x="183.88" y="-118.5" font-family="Helvetica,sans-Serif" font-size="10.00">roomSize</text>
<text text-anchor="start" x="173.88" y="-102.5" font-family="Helvetica,sans-Serif" font-size="10.00">+</text>
<text text-anchor="start" x="183.88" y="-102.5" font-family="Helvetica,sans-Serif" font-size="10.00">rotation</text>
<text text-anchor="start" x="173.88" y="-86.5" font-family="Helvetica,sans-Serif" font-size="10.00">+</text>
<text text-anchor="start" x="183.88" y="-86.5" font-family="Helvetica,sans-Serif" font-size="10.00">roomLevel</text>
<text text-anchor="start" x="173.88" y="-70.5" font-family="Helvetica,sans-Serif" font-size="10.00">+</text>
<text text-anchor="start" x="183.88" y="-70.5" font-family="Helvetica,sans-Serif" font-size="10.00">previewSR</text>
<text text-anchor="start" x="173.88" y="-54.5" font-family="Helvetica,sans-Serif" font-size="10.00">+</text>
<text text-anchor="start" x="183.88" y="-54.5" font-family="Helvetica,sans-Serif" font-size="10.00">InitializeFromRoomData()</text>
<text text-anchor="start" x="173.88" y="-38.5" font-family="Helvetica,sans-Serif" font-size="10.00">+</text>
<text text-anchor="start" x="183.88" y="-38.5" font-family="Helvetica,sans-Serif" font-size="10.00">OnBeginDrag()</text>
<text text-anchor="start" x="173.88" y="-22.5" font-family="Helvetica,sans-Serif" font-size="10.00">+</text>
<text text-anchor="start" x="183.88" y="-22.5" font-family="Helvetica,sans-Serif" font-size="10.00">OnDrag()</text>
<text text-anchor="start" x="173.88" y="-6.5" font-family="Helvetica,sans-Serif" font-size="10.00">+</text>
<text text-anchor="start" x="183.88" y="-6.5" font-family="Helvetica,sans-Serif" font-size="10.00">OnEndDrag()</text>
<polygon fill="#666666" stroke="#666666" points="169.88,-162 169.88,-162 299.62,-162 299.62,-162 169.88,-162"/>
<polygon fill="#666666" stroke="#666666" points="169.88,-66 169.88,-66 181.88,-66 181.88,-66 169.88,-66"/>
<polygon fill="#666666" stroke="#666666" points="181.88,-66 181.88,-66 299.62,-66 299.62,-66 181.88,-66"/>
<polygon fill="none" stroke="#666666" points="169.88,0 169.88,-180 299.62,-180 299.62,0 169.88,0"/>
</a>
</g>
</g>
<!-- Node1&#45;&gt;Node1 -->
<g id="edge5_Node000001_Node000001" class="edge">
<title>Node1&#45;&gt;Node1</title>
<g id="a_edge5_Node000001_Node000001"><a xlink:title=" ">
<path fill="none" stroke="#63b8ff" d="M299.38,-109.87C310.18,-107.09 317.62,-100.46 317.62,-90 317.62,-83.95 315.14,-79.18 310.95,-75.7"/>
<polygon fill="none" stroke="#63b8ff" points="311,-75.73 303.86,-76.73 300.19,-70.52 307.33,-69.52 311,-75.73"/>
</a>
</g>
<text text-anchor="middle" x="340.88" y="-86.5" font-family="Helvetica,sans-Serif" font-size="10.00" fill="grey"> +Instance</text>
</g>
<!-- Node2 -->
<g id="Node000002" class="node">
<title>Node2</title>
<g id="a_Node000002"><a xlink:title=" ">
<polygon fill="white" stroke="none" points="75.5,-304 0,-304 0,-252 75.5,-252 75.5,-304"/>
<text text-anchor="start" x="4" y="-290.5" font-family="Helvetica,sans-Serif" font-size="10.00">MonoBehaviour</text>
<text text-anchor="start" x="36.25" y="-274.5" font-family="Helvetica,sans-Serif" font-size="10.00"> </text>
<text text-anchor="start" x="36.25" y="-258.5" font-family="Helvetica,sans-Serif" font-size="10.00"> </text>
<polygon fill="#bfbfbf" stroke="#bfbfbf" points="0,-286 0,-286 75.5,-286 75.5,-286 0,-286"/>
<polygon fill="#bfbfbf" stroke="#bfbfbf" points="0,-270 0,-270 75.5,-270 75.5,-270 0,-270"/>
<polygon fill="none" stroke="#bfbfbf" points="0,-252 0,-304 75.5,-304 75.5,-252 0,-252"/>
</a>
</g>
</g>
<!-- Node2&#45;&gt;Node1 -->
<g id="edge1_Node000001_Node000002" class="edge">
<title>Node2&#45;&gt;Node1</title>
<g id="a_edge1_Node000001_Node000002"><a xlink:title=" ">
<path fill="none" stroke="#63b8ff" d="M69.05,-243.77C74.24,-238.44 79.6,-233.02 84.75,-228 112.14,-201.27 143.25,-172.59 170.02,-148.42"/>
<polygon fill="none" stroke="#63b8ff" points="66.58,-241.29 62.16,-250.92 71.62,-246.15 66.58,-241.29"/>
</a>
</g>
</g>
<!-- Node3 -->
<g id="Node000003" class="node">
<title>Node3</title>
<g id="a_Node000003"><a xlink:title=" ">
<polygon fill="white" stroke="none" points="184,-304 93.5,-304 93.5,-252 184,-252 184,-304"/>
<text text-anchor="start" x="97.5" y="-290.5" font-family="Helvetica,sans-Serif" font-size="10.00">IBeginDragHandler</text>
<text text-anchor="start" x="137.25" y="-274.5" font-family="Helvetica,sans-Serif" font-size="10.00"> </text>
<text text-anchor="start" x="137.25" y="-258.5" font-family="Helvetica,sans-Serif" font-size="10.00"> </text>
<polygon fill="#bfbfbf" stroke="#bfbfbf" points="93.5,-286 93.5,-286 184,-286 184,-286 93.5,-286"/>
<polygon fill="#bfbfbf" stroke="#bfbfbf" points="93.5,-270 93.5,-270 184,-270 184,-270 93.5,-270"/>
<polygon fill="none" stroke="#bfbfbf" points="93.5,-252 93.5,-304 184,-304 184,-252 93.5,-252"/>
</a>
</g>
</g>
<!-- Node3&#45;&gt;Node1 -->
<g id="edge2_Node000001_Node000003" class="edge">
<title>Node3&#45;&gt;Node1</title>
<g id="a_edge2_Node000001_Node000003"><a xlink:title=" ">
<path fill="none" stroke="#63b8ff" d="M156.59,-242.43C165.76,-224.66 177.4,-202.11 188.88,-179.87"/>
<polygon fill="none" stroke="#63b8ff" points="153.67,-240.46 152.19,-250.96 159.89,-243.67 153.67,-240.46"/>
</a>
</g>
</g>
<!-- Node4 -->
<g id="Node000004" class="node">
<title>Node4</title>
<g id="a_Node000004"><a xlink:title=" ">
<polygon fill="white" stroke="none" points="267.62,-304 201.88,-304 201.88,-252 267.62,-252 267.62,-304"/>
<text text-anchor="start" x="205.88" y="-290.5" font-family="Helvetica,sans-Serif" font-size="10.00">IDragHandler</text>
<text text-anchor="start" x="233.25" y="-274.5" font-family="Helvetica,sans-Serif" font-size="10.00"> </text>
<text text-anchor="start" x="233.25" y="-258.5" font-family="Helvetica,sans-Serif" font-size="10.00"> </text>
<polygon fill="#bfbfbf" stroke="#bfbfbf" points="201.88,-286 201.88,-286 267.62,-286 267.62,-286 201.88,-286"/>
<polygon fill="#bfbfbf" stroke="#bfbfbf" points="201.88,-270 201.88,-270 267.62,-270 267.62,-270 201.88,-270"/>
<polygon fill="none" stroke="#bfbfbf" points="201.88,-252 201.88,-304 267.62,-304 267.62,-252 201.88,-252"/>
</a>
</g>
</g>
<!-- Node4&#45;&gt;Node1 -->
<g id="edge3_Node000001_Node000004" class="edge">
<title>Node4&#45;&gt;Node1</title>
<g id="a_edge3_Node000001_Node000004"><a xlink:title=" ">
<path fill="none" stroke="#63b8ff" d="M234.75,-240.92C234.75,-223.4 234.75,-201.48 234.75,-179.87"/>
<polygon fill="none" stroke="#63b8ff" points="231.25,-240.79 234.75,-250.79 238.25,-240.79 231.25,-240.79"/>
</a>
</g>
</g>
<!-- Node5 -->
<g id="Node000005" class="node">
<title>Node5</title>
<g id="a_Node000005"><a xlink:title=" ">
<polygon fill="white" stroke="none" points="368.25,-304 285.25,-304 285.25,-252 368.25,-252 368.25,-304"/>
<text text-anchor="start" x="289.25" y="-290.5" font-family="Helvetica,sans-Serif" font-size="10.00">IEndDragHandler</text>
<text text-anchor="start" x="325.25" y="-274.5" font-family="Helvetica,sans-Serif" font-size="10.00"> </text>
<text text-anchor="start" x="325.25" y="-258.5" font-family="Helvetica,sans-Serif" font-size="10.00"> </text>
<polygon fill="#bfbfbf" stroke="#bfbfbf" points="285.25,-286 285.25,-286 368.25,-286 368.25,-286 285.25,-286"/>
<polygon fill="#bfbfbf" stroke="#bfbfbf" points="285.25,-270 285.25,-270 368.25,-270 368.25,-270 285.25,-270"/>
<polygon fill="none" stroke="#bfbfbf" points="285.25,-252 285.25,-304 368.25,-304 368.25,-252 285.25,-252"/>
</a>
</g>
</g>
<!-- Node5&#45;&gt;Node1 -->
<g id="edge4_Node000001_Node000005" class="edge">
<title>Node5&#45;&gt;Node1</title>
<g id="a_edge4_Node000001_Node000005"><a xlink:title=" ">
<path fill="none" stroke="#63b8ff" d="M309.65,-242.43C300.86,-224.66 289.71,-202.11 278.71,-179.87"/>
<polygon fill="none" stroke="#63b8ff" points="306.29,-243.53 313.86,-250.94 312.57,-240.43 306.29,-243.53"/>
</a>
</g>
</g>
<!-- Node6 -->
<g id="Node000006" class="node">
<title>Node6</title>
<g id="a_Node000006"><a xlink:href="class_room_data.html" target="_top" xlink:title="모든 방 유형의 기본 데이터를 정의하는 추상 ScriptableObject. 방의 레벨별 속성, 체력, 크기, 요구 자원 등을 설정합니다.">
<polygon fill="white" stroke="none" points="525.12,-328 386.38,-328 386.38,-228 525.12,-228 525.12,-328"/>
<text text-anchor="start" x="432.12" y="-314.5" font-family="Helvetica,sans-Serif" font-size="10.00">RoomData</text>
<text text-anchor="start" x="454.25" y="-298.5" font-family="Helvetica,sans-Serif" font-size="10.00"> </text>
<text text-anchor="start" x="390.38" y="-282.5" font-family="Helvetica,sans-Serif" font-size="10.00">+</text>
<text text-anchor="start" x="400.38" y="-282.5" font-family="Helvetica,sans-Serif" font-size="10.00">GetRoomData()</text>
<text text-anchor="start" x="390.75" y="-266.5" font-family="Helvetica,sans-Serif" font-size="10.00">#</text>
<text text-anchor="start" x="400.38" y="-266.5" font-family="Helvetica,sans-Serif" font-size="10.00">InitializeDefaultLevels()</text>
<text text-anchor="start" x="390.75" y="-250.5" font-family="Helvetica,sans-Serif" font-size="10.00">#</text>
<text text-anchor="start" x="400.38" y="-250.5" font-family="Helvetica,sans-Serif" font-size="10.00">OnEnable()</text>
<text text-anchor="start" x="390.75" y="-234.5" font-family="Helvetica,sans-Serif" font-size="10.00">#</text>
<text text-anchor="start" x="400.38" y="-234.5" font-family="Helvetica,sans-Serif" font-size="10.00">CheckIfNeedsInitialization()</text>
<polygon fill="#666666" stroke="#666666" points="386.38,-310 386.38,-310 525.12,-310 525.12,-310 386.38,-310"/>
<polygon fill="#666666" stroke="#666666" points="386.38,-294 386.38,-294 525.12,-294 525.12,-294 386.38,-294"/>
<polygon fill="none" stroke="#666666" points="386.38,-228 386.38,-328 525.12,-328 525.12,-228 386.38,-228"/>
</a>
</g>
</g>
<!-- Node6&#45;&gt;Node1 -->
<g id="edge6_Node000001_Node000006" class="edge">
<title>Node6&#45;&gt;Node1</title>
<g id="a_edge6_Node000001_Node000006"><a xlink:title=" ">
<path fill="none" stroke="#63b8ff" d="M397.68,-228.13C370.57,-205.31 337.97,-177.87 309.08,-153.56"/>
<polygon fill="none" stroke="#63b8ff" points="309.3,-153.75 302.14,-152.94 300.12,-146.02 307.29,-146.82 309.3,-153.75"/>
</a>
</g>
<text text-anchor="middle" x="397.42" y="-200.5" font-family="Helvetica,sans-Serif" font-size="10.00" fill="grey"> +roomData</text>
</g>
<!-- Node7 -->
<g id="Node000007" class="node">
<title>Node7</title>
<g id="a_Node000007"><a xlink:title=" ">
<polygon fill="white" stroke="none" points="495.75,-417 415.75,-417 415.75,-365 495.75,-365 495.75,-417"/>
<text text-anchor="start" x="419.75" y="-403.5" font-family="Helvetica,sans-Serif" font-size="10.00">ScriptableObject</text>
<text text-anchor="start" x="454.25" y="-387.5" font-family="Helvetica,sans-Serif" font-size="10.00"> </text>
<text text-anchor="start" x="454.25" y="-371.5" font-family="Helvetica,sans-Serif" font-size="10.00"> </text>
<polygon fill="#bfbfbf" stroke="#bfbfbf" points="415.75,-399 415.75,-399 495.75,-399 495.75,-399 415.75,-399"/>
<polygon fill="#bfbfbf" stroke="#bfbfbf" points="415.75,-383 415.75,-383 495.75,-383 495.75,-383 415.75,-383"/>
<polygon fill="none" stroke="#bfbfbf" points="415.75,-365 415.75,-417 495.75,-417 495.75,-365 415.75,-365"/>
</a>
</g>
</g>
<!-- Node7&#45;&gt;Node6 -->
<g id="edge7_Node000006_Node000007" class="edge">
<title>Node7&#45;&gt;Node6</title>
<g id="a_edge7_Node000006_Node000007"><a xlink:title=" ">
<path fill="none" stroke="#63b8ff" d="M455.75,-353.61C455.75,-345.4 455.75,-336.56 455.75,-327.93"/>
<polygon fill="none" stroke="#63b8ff" points="452.25,-353.58 455.75,-363.58 459.25,-353.58 452.25,-353.58"/>
</a>
</g>
</g>
</g>
</svg>
