<?xml version="1.0" encoding="UTF-8" standalone="no"?>
<!DOCTYPE svg PUBLIC "-//W3C//DTD SVG 1.1//EN"
 "http://www.w3.org/Graphics/SVG/1.1/DTD/svg11.dtd">
<!-- Generated by graphviz version 12.2.1 (20241206.2353)
 -->
<!-- Title: Room.Upgrade Pages: 1 -->
<svg width="260pt" height="66pt"
 viewBox="0.00 0.00 259.75 66.00" xmlns="http://www.w3.org/2000/svg" xmlns:xlink="http://www.w3.org/1999/xlink">
<g id="graph0" class="graph" transform="scale(1 1) rotate(0) translate(4 62)">
<title>Room.Upgrade</title>
<!-- Node1 -->
<g id="Node000001" class="node">
<title>Node1</title>
<g id="a_Node000001"><a xlink:title="방을 업그레이드합니다.">
<polygon fill="#999999" stroke="#666666" points="82,-39 0,-39 0,-19 82,-19 82,-39"/>
<text text-anchor="middle" x="41" y="-25.5" font-family="Helvetica,sans-Serif" font-size="10.00">Room.Upgrade</text>
</a>
</g>
</g>
<!-- Node2 -->
<g id="Node000002" class="node">
<title>Node2</title>
<g id="a_Node000002"><a xlink:href="class_room.html#ac222ae4ac4c382283f339a4cfc3cded6" target="_top" xlink:title="상태 변경을 알립니다.">
<polygon fill="white" stroke="#666666" points="251.75,-58 118,-58 118,-38 251.75,-38 251.75,-58"/>
<text text-anchor="middle" x="184.88" y="-44.5" font-family="Helvetica,sans-Serif" font-size="10.00">Room.NotifyStateChanged</text>
</a>
</g>
</g>
<!-- Node1&#45;&gt;Node2 -->
<g id="edge1_Node000001_Node000002" class="edge">
<title>Node1&#45;&gt;Node2</title>
<g id="a_edge1_Node000001_Node000002"><a xlink:title=" ">
<path fill="none" stroke="#63b8ff" d="M82.28,-34.39C89.88,-35.41 98.07,-36.51 106.37,-37.62"/>
<polygon fill="#63b8ff" stroke="#63b8ff" points="105.85,-41.08 116.23,-38.94 106.78,-34.14 105.85,-41.08"/>
</a>
</g>
</g>
<!-- Node3 -->
<g id="Node000003" class="node">
<title>Node3</title>
<g id="a_Node000003"><a xlink:href="class_room.html#a7767a1981cb5588b28174320309f73c2" target="_top" xlink:title="방의 상태를 매 프레임 업데이트합니다.">
<polygon fill="white" stroke="#666666" points="236.38,-20 133.38,-20 133.38,0 236.38,0 236.38,-20"/>
<text text-anchor="middle" x="184.88" y="-6.5" font-family="Helvetica,sans-Serif" font-size="10.00">Room.UpdateRoom</text>
</a>
</g>
</g>
<!-- Node1&#45;&gt;Node3 -->
<g id="edge2_Node000001_Node000003" class="edge">
<title>Node1&#45;&gt;Node3</title>
<g id="a_edge2_Node000001_Node000003"><a xlink:title=" ">
<path fill="none" stroke="#63b8ff" d="M82.28,-23.61C94.63,-21.95 108.52,-20.09 121.97,-18.29"/>
<polygon fill="#63b8ff" stroke="#63b8ff" points="122.17,-21.8 131.61,-17 121.24,-14.86 122.17,-21.8"/>
</a>
</g>
</g>
</g>
</svg>
