<?xml version="1.0" encoding="UTF-8" standalone="no"?>
<!DOCTYPE svg PUBLIC "-//W3C//DTD SVG 1.1//EN"
 "http://www.w3.org/Graphics/SVG/1.1/DTD/svg11.dtd">
<!-- Generated by graphviz version 12.2.1 (20241206.2353)
 -->
<!-- Title: PlacedRoomInteraction.OnPointerClick Pages: 1 -->
<!--zoomable 62 -->

<svg id="main" version="1.1" xmlns="http://www.w3.org/2000/svg" xmlns:xlink="http://www.w3.org/1999/xlink" xml:space="preserve" onload="init(evt)">

<style type="text/css"><![CDATA[
.node, .edge {opacity: 0.7;}
.node.selected, .edge.selected {opacity: 1;}
.edge:hover path { stroke: red; }
.edge:hover polygon { stroke: red; fill: red; }
]]></style>

<defs>
  <circle id="rim" cx="0" cy="0" r="7"/>
  <circle id="rim2" cx="0" cy="0" r="3.5"/>
  <g id="zoomPlus">
    <use xlink:href="#rim" fill="#404040"><set attributeName="fill" to="#808080" begin="zoomplus.mouseover" end="zoomplus.mouseout"/></use>
    <path d="M-4,0h8M0,-4v8" fill="none" stroke="white" stroke-width="1.5" pointer-events="none"/>
  </g>
  <g id="zoomMin">
    <use xlink:href="#rim" fill="#404040"><set attributeName="fill" to="#808080" begin="zoomminus.mouseover" end="zoomminus.mouseout"/></use>
    <path d="M-4,0h8" fill="none" stroke="white" stroke-width="1.5" pointer-events="none"/>
  </g>
  <g id="arrowUp" transform="translate(30 24)">
    <use xlink:href="#rim"/>
    <path pointer-events="none" fill="none" stroke="white" stroke-width="1.5" d="M0,-3.0v7 M-2.5,-0.5L0,-3.0L2.5,-0.5"/>
  </g>
  <g id="arrowRight" transform="rotate(90) translate(36 -43)">
    <use xlink:href="#rim"/>
    <path pointer-events="none" fill="none" stroke="white" stroke-width="1.5" d="M0,-3.0v7 M-2.5,-0.5L0,-3.0L2.5,-0.5"/>
  </g>
  <g id="arrowDown" transform="rotate(180) translate(-30 -48)">
    <use xlink:href="#rim"/>
    <path pointer-events="none" fill="none" stroke="white" stroke-width="1.5" d="M0,-3.0v7 M-2.5,-0.5L0,-3.0L2.5,-0.5"/>
  </g>
  <g id="arrowLeft" transform="rotate(270) translate(-36 17)">
    <use xlink:href="#rim"/>
    <path pointer-events="none" fill="none" stroke="white" stroke-width="1.5" d="M0,-3.0v7 M-2.5,-0.5L0,-3.0L2.5,-0.5"/>
  </g>
  <g id="resetDef">
    <use xlink:href="#rim2" fill="#404040"><set attributeName="fill" to="#808080" begin="reset.mouseover" end="reset.mouseout"/></use>
  </g>
</defs>
<script type="application/ecmascript">
var viewWidth = 645;
var viewHeight = 62;
var sectionId = 'dynsection-3';
</script>
<script type="application/ecmascript" xlink:href="svg.min.js"/>
<svg id="graph" class="graph">
<g id="viewport">
<title>PlacedRoomInteraction.OnPointerClick</title>
<!-- Node1 -->
<g id="Node000001" class="node">
<title>Node1</title>
<g id="a_Node000001"><a xlink:title="방 삭제, 수리 툴팁 생성">
<polygon fill="#999999" stroke="#666666" points="133.75,-54 0,-54 0,-22 133.75,-22 133.75,-54"/>
<text text-anchor="start" x="8" y="-40.5" font-family="Helvetica,sans-Serif" font-size="10.00">PlacedRoomInteraction.On</text>
<text text-anchor="middle" x="66.88" y="-28.5" font-family="Helvetica,sans-Serif" font-size="10.00">PointerClick</text>
</a>
</g>
</g>
<!-- Node2 -->
<g id="Node000002" class="node">
<title>Node2</title>
<g id="a_Node000002"><a xlink:href="class_rooms_inventory_tooltip_u_i.html#acb3438559352db6528bd535c9ea46b50" target="_top" xlink:title="인벤토리를 갱신하여 현재 보유한 방들을 UI로 표시합니다. 방 설치, 해제 완료 시 갱신 추가 필요 (구현 필요)">
<polygon fill="white" stroke="#666666" points="299.75,-54 169.75,-54 169.75,-22 299.75,-22 299.75,-54"/>
<text text-anchor="start" x="177.75" y="-40.5" font-family="Helvetica,sans-Serif" font-size="10.00">RoomsInventoryTooltipUI.</text>
<text text-anchor="middle" x="234.75" y="-28.5" font-family="Helvetica,sans-Serif" font-size="10.00">RefreshInventory</text>
</a>
</g>
</g>
<!-- Node1&#45;&gt;Node2 -->
<g id="edge1_Node000001_Node000002" class="edge">
<title>Node1&#45;&gt;Node2</title>
<g id="a_edge1_Node000001_Node000002"><a xlink:title=" ">
<path fill="none" stroke="#63b8ff" d="M133.91,-38C141.83,-38 149.97,-38 158.01,-38"/>
<polygon fill="#63b8ff" stroke="#63b8ff" points="157.78,-41.5 167.78,-38 157.78,-34.5 157.78,-41.5"/>
</a>
</g>
</g>
<!-- Node3 -->
<g id="Node000003" class="node">
<title>Node3</title>
<g id="a_Node000003"><a xlink:href="class_room_data.html#a3e0ef94b27447abcccdfbc08e667077d" target="_top" xlink:title="주어진 레벨에 해당하는 RoomLevel 데이터를 반환합니다. 각 파생 클래스에서 구현해야 합니다.">
<polygon fill="white" stroke="#666666" points="637,-48 507.75,-48 507.75,-28 637,-28 637,-48"/>
<text text-anchor="middle" x="572.38" y="-34.5" font-family="Helvetica,sans-Serif" font-size="10.00">RoomData.GetRoomData</text>
</a>
</g>
</g>
<!-- Node2&#45;&gt;Node3 -->
<g id="edge2_Node000002_Node000003" class="edge">
<title>Node2&#45;&gt;Node3</title>
<g id="a_edge2_Node000002_Node000003"><a xlink:title=" ">
<path fill="none" stroke="#63b8ff" d="M300.03,-40.21C311.9,-40.54 324.2,-40.83 335.75,-41 396.19,-41.91 411.31,-41.91 471.75,-41 479.57,-40.88 487.73,-40.71 495.88,-40.51"/>
<polygon fill="#63b8ff" stroke="#63b8ff" points="495.92,-44.01 505.83,-40.25 495.74,-37.02 495.92,-44.01"/>
</a>
</g>
</g>
<!-- Node4 -->
<g id="Node000004" class="node">
<title>Node4</title>
<g id="a_Node000004"><a xlink:href="class_room_drag_handler.html#acc9dba2f2fb1cd7eb4fa92a7e5fed81f" target="_top" xlink:title="호출해 온 방 정보를 이용하여 방 설치에 필요한 정보들을 초기화합니다.">
<polygon fill="white" stroke="#666666" points="471.75,-32 335.75,-32 335.75,0 471.75,0 471.75,-32"/>
<text text-anchor="start" x="343.75" y="-18.5" font-family="Helvetica,sans-Serif" font-size="10.00">RoomDragHandler.Initialize</text>
<text text-anchor="middle" x="403.75" y="-6.5" font-family="Helvetica,sans-Serif" font-size="10.00">FromRoomData</text>
</a>
</g>
</g>
<!-- Node2&#45;&gt;Node4 -->
<g id="edge3_Node000002_Node000004" class="edge">
<title>Node2&#45;&gt;Node4</title>
<g id="a_edge3_Node000002_Node000004"><a xlink:title=" ">
<path fill="none" stroke="#63b8ff" d="M299.84,-29.56C307.87,-28.5 316.15,-27.41 324.37,-26.33"/>
<polygon fill="#63b8ff" stroke="#63b8ff" points="324.55,-29.83 334.01,-25.06 323.64,-22.89 324.55,-29.83"/>
</a>
</g>
</g>
<!-- Node4&#45;&gt;Node3 -->
<g id="edge4_Node000004_Node000003" class="edge">
<title>Node4&#45;&gt;Node3</title>
<g id="a_edge4_Node000004_Node000003"><a xlink:title=" ">
<path fill="none" stroke="#63b8ff" d="M472.04,-24.88C479.96,-25.93 488.08,-27 496.1,-28.06"/>
<polygon fill="#63b8ff" stroke="#63b8ff" points="495.47,-31.51 505.84,-29.35 496.39,-24.57 495.47,-31.51"/>
</a>
</g>
</g>
</g>
</svg>

<g id="navigator" transform="translate(0 0)" fill="#404254">
  <rect fill="#f2f5e9" fill-opacity="0.5" stroke="#606060" stroke-width=".5" x="0" y="0" width="60" height="60"/>
  <use id="zoomplus" xlink:href="#zoomPlus" x="17" y="9" onmousedown="handleZoom(evt,'in')"/>
  <use id="zoomminus" xlink:href="#zoomMin" x="42" y="9" onmousedown="handleZoom(evt,'out')"/>
  <use id="reset" xlink:href="#resetDef" x="30" y="36" onmousedown="handleReset()"/>
   <use id="arrowup" xlink:href="#arrowUp" x="0" y="0" onmousedown="handlePan(0,-1)"/>
  <use id="arrowright" xlink:href="#arrowRight" x="0" y="0" onmousedown="handlePan(1,0)"/>
  <use id="arrowdown" xlink:href="#arrowDown" x="0" y="0" onmousedown="handlePan(0,1)"/>
  <use id="arrowleft" xlink:href="#arrowLeft" x="0" y="0" onmousedown="handlePan(-1,0)"/>
</g>
<svg viewBox="0 0 15 15" width="100%" height="30px" preserveAspectRatio="xMaxYMin meet">
 <g id="arrow_out" transform="scale(0.3 0.3)">
  <a xlink:href="class_placed_room_interaction_a4d6642091ccd01f421aaf35168105417_cgraph_org.svg" target="_base">
   <rect id="button" ry="5" rx="5" y="6" x="6" height="38" width="38"
        fill="#f2f5e9" fill-opacity="0.5" stroke="#606060" stroke-width="1.0"/>
   <path id="arrow"
     d="M 11.500037,31.436501 C 11.940474,20.09759 22.043105,11.32322 32.158766,21.979434 L 37.068811,17.246167 C 37.068811,17.246167 37.088388,32 37.088388,32 L 22.160133,31.978069 C 22.160133,31.978069 26.997745,27.140456 26.997745,27.140456 C 18.528582,18.264221 13.291696,25.230495 11.500037,31.436501 z"
     style="fill:#404040;"/>
  </a>
 </g>
</svg>

<style type='text/css'>
<![CDATA[
[data-mouse-over-selected='false'] { opacity: 0.7; }
[data-mouse-over-selected='true']  { opacity: 1.0; }
]]>
</style>
<script type="application/ecmascript"><![CDATA[
document.addEventListener('DOMContentLoaded', (event) => {
  highlightEdges();
  highlightAdjacentNodes();
});
]]></script>
</svg>
