<?xml version="1.0" encoding="UTF-8" standalone="no"?>
<!DOCTYPE svg PUBLIC "-//W3C//DTD SVG 1.1//EN"
 "http://www.w3.org/Graphics/SVG/1.1/DTD/svg11.dtd">
<!-- Generated by graphviz version 12.2.1 (20241206.2353)
 -->
<!-- Title: Storage Pages: 1 -->
<svg width="157pt" height="260pt"
 viewBox="0.00 0.00 156.50 260.00" xmlns="http://www.w3.org/2000/svg" xmlns:xlink="http://www.w3.org/1999/xlink">

<svg id="main" version="1.1" xmlns="http://www.w3.org/2000/svg" xmlns:xlink="http://www.w3.org/1999/xlink" xml:space="preserve">

<style type="text/css"><![CDATA[
.node, .edge {opacity: 0.7;}
.node.selected, .edge.selected {opacity: 1;}
.edge:hover path { stroke: red; }
.edge:hover polygon { stroke: red; fill: red; }
]]></style>
<script type="application/ecmascript" xlink:href="svg.min.js"/>
<svg id="graph" class="graph">
<g id="graph0" class="graph" transform="scale(1 1) rotate(0) translate(4 256)">
<title>Storage</title>
<!-- Node1 -->
<g id="Node000001" class="node">
<title>Node1</title>
<g id="a_Node000001"><a xlink:title="창고 시스템을 관리하는 클래스입니다. 각 아이템은 JSON 데이터셋에 정의된 최대 적층량(maxStackAmount) 이상의 수량을 저장할 수 없습니다.">
<polygon fill="#999999" stroke="none" points="148.5,-168.5 0,-168.5 0,0 148.5,0 148.5,-168.5"/>
<text text-anchor="start" x="55.88" y="-155" font-family="Consolas" font-size="10.00">Storage</text>
<text text-anchor="start" x="4" y="-140.5" font-family="Consolas" font-size="10.00">+</text>
<text text-anchor="start" x="13.25" y="-140.5" font-family="Consolas" font-size="10.00">List&lt; StoredItem &gt;</text>
<text text-anchor="start" x="13.25" y="-130" font-family="Consolas" font-size="10.00"> storedItems</text>
<text text-anchor="start" x="4" y="-115.5" font-family="Consolas" font-size="10.00">+</text>
<text text-anchor="start" x="13.25" y="-115.5" font-family="Consolas" font-size="10.00">bool CanAddItem(Tradable</text>
<text text-anchor="start" x="13.25" y="-105" font-family="Consolas" font-size="10.00">Item item, int quantity)</text>
<text text-anchor="start" x="4" y="-90.5" font-family="Consolas" font-size="10.00">+</text>
<text text-anchor="start" x="13.25" y="-90.5" font-family="Consolas" font-size="10.00">bool AddItem(TradableItem</text>
<text text-anchor="start" x="13.25" y="-80" font-family="Consolas" font-size="10.00"> item, int quantity)</text>
<text text-anchor="start" x="4" y="-65.5" font-family="Consolas" font-size="10.00">+</text>
<text text-anchor="start" x="13.25" y="-65.5" font-family="Consolas" font-size="10.00">bool HasItem(TradableItem</text>
<text text-anchor="start" x="13.25" y="-55" font-family="Consolas" font-size="10.00"> item, int quantity)</text>
<text text-anchor="start" x="4" y="-40.5" font-family="Consolas" font-size="10.00">+</text>
<text text-anchor="start" x="13.25" y="-40.5" font-family="Consolas" font-size="10.00">bool RemoveItem(Tradable</text>
<text text-anchor="start" x="13.25" y="-30" font-family="Consolas" font-size="10.00">Item item, int quantity)</text>
<text text-anchor="start" x="4" y="-15.5" font-family="Consolas" font-size="10.00">+</text>
<text text-anchor="start" x="13.25" y="-15.5" font-family="Consolas" font-size="10.00">int GetItemQuantity</text>
<text text-anchor="start" x="13.25" y="-5" font-family="Consolas" font-size="10.00">(TradableItem item)</text>
<polygon fill="#666666" stroke="#666666" points="0,-152 0,-152 148.5,-152 148.5,-152 0,-152"/>
<polygon fill="#666666" stroke="#666666" points="0,-127 0,-127 11.25,-127 11.25,-127 0,-127"/>
<polygon fill="#666666" stroke="#666666" points="11.25,-127 11.25,-127 148.5,-127 148.5,-127 11.25,-127"/>
<polygon fill="none" stroke="#666666" points="0,0 0,-168.5 148.5,-168.5 148.5,0 0,0"/>
</a>
</g>
</g>
<!-- Node2 -->
<g id="Node000002" class="node">
<title>Node2</title>
<g id="a_Node000002"><a xlink:title=" ">
<polygon fill="white" stroke="none" points="112.38,-252 36.12,-252 36.12,-204.5 112.38,-204.5 112.38,-252"/>
<text text-anchor="start" x="40.12" y="-238.5" font-family="Consolas" font-size="10.00">MonoBehaviour</text>
<text text-anchor="start" x="71.62" y="-224" font-family="Consolas" font-size="10.00"> </text>
<text text-anchor="start" x="71.62" y="-209.5" font-family="Consolas" font-size="10.00"> </text>
<polygon fill="#bfbfbf" stroke="#bfbfbf" points="36.12,-235.5 36.12,-235.5 112.38,-235.5 112.38,-235.5 36.12,-235.5"/>
<polygon fill="#bfbfbf" stroke="#bfbfbf" points="36.12,-221 36.12,-221 112.38,-221 112.38,-221 36.12,-221"/>
<polygon fill="none" stroke="#bfbfbf" points="36.12,-204.5 36.12,-252 112.38,-252 112.38,-204.5 36.12,-204.5"/>
</a>
</g>
</g>
<!-- Node2&#45;&gt;Node1 -->
<g id="edge1_Node000001_Node000002" class="edge">
<title>Node2&#45;&gt;Node1</title>
<g id="a_edge1_Node000001_Node000002"><a xlink:title=" ">
<path fill="none" stroke="#63b8ff" d="M74.25,-193.35C74.25,-185.62 74.25,-177.07 74.25,-168.27"/>
<polygon fill="none" stroke="#63b8ff" points="70.75,-193.24 74.25,-203.24 77.75,-193.24 70.75,-193.24"/>
</a>
</g>
</g>
</g>
</svg>
</svg>

<style type='text/css'>
<![CDATA[
[data-mouse-over-selected='false'] { opacity: 0.7; }
[data-mouse-over-selected='true']  { opacity: 1.0; }
]]>
</style>
<script type="application/ecmascript"><![CDATA[
document.addEventListener('DOMContentLoaded', (event) => {
  highlightEdges();
  highlightAdjacentNodes();
});
]]></script>
</svg>
