<?xml version="1.0" encoding="UTF-8" standalone="no"?>
<!DOCTYPE svg PUBLIC "-//W3C//DTD SVG 1.1//EN"
 "http://www.w3.org/Graphics/SVG/1.1/DTD/svg11.dtd">
<!-- Generated by graphviz version 12.2.1 (20241206.2353)
 -->
<!-- Title: EquipmentButton Pages: 1 -->
<!--zoomable 940 -->

<svg id="main" version="1.1" xmlns="http://www.w3.org/2000/svg" xmlns:xlink="http://www.w3.org/1999/xlink" xml:space="preserve" onload="init(evt)">

<style type="text/css"><![CDATA[
.node, .edge {opacity: 0.7;}
.node.selected, .edge.selected {opacity: 1;}
.edge:hover path { stroke: red; }
.edge:hover polygon { stroke: red; fill: red; }
]]></style>

<defs>
  <circle id="rim" cx="0" cy="0" r="7"/>
  <circle id="rim2" cx="0" cy="0" r="3.5"/>
  <g id="zoomPlus">
    <use xlink:href="#rim" fill="#404040"><set attributeName="fill" to="#808080" begin="zoomplus.mouseover" end="zoomplus.mouseout"/></use>
    <path d="M-4,0h8M0,-4v8" fill="none" stroke="white" stroke-width="1.5" pointer-events="none"/>
  </g>
  <g id="zoomMin">
    <use xlink:href="#rim" fill="#404040"><set attributeName="fill" to="#808080" begin="zoomminus.mouseover" end="zoomminus.mouseout"/></use>
    <path d="M-4,0h8" fill="none" stroke="white" stroke-width="1.5" pointer-events="none"/>
  </g>
  <g id="arrowUp" transform="translate(30 24)">
    <use xlink:href="#rim"/>
    <path pointer-events="none" fill="none" stroke="white" stroke-width="1.5" d="M0,-3.0v7 M-2.5,-0.5L0,-3.0L2.5,-0.5"/>
  </g>
  <g id="arrowRight" transform="rotate(90) translate(36 -43)">
    <use xlink:href="#rim"/>
    <path pointer-events="none" fill="none" stroke="white" stroke-width="1.5" d="M0,-3.0v7 M-2.5,-0.5L0,-3.0L2.5,-0.5"/>
  </g>
  <g id="arrowDown" transform="rotate(180) translate(-30 -48)">
    <use xlink:href="#rim"/>
    <path pointer-events="none" fill="none" stroke="white" stroke-width="1.5" d="M0,-3.0v7 M-2.5,-0.5L0,-3.0L2.5,-0.5"/>
  </g>
  <g id="arrowLeft" transform="rotate(270) translate(-36 17)">
    <use xlink:href="#rim"/>
    <path pointer-events="none" fill="none" stroke="white" stroke-width="1.5" d="M0,-3.0v7 M-2.5,-0.5L0,-3.0L2.5,-0.5"/>
  </g>
  <g id="resetDef">
    <use xlink:href="#rim2" fill="#404040"><set attributeName="fill" to="#808080" begin="reset.mouseover" end="reset.mouseout"/></use>
  </g>
</defs>
<script type="application/ecmascript">
var viewWidth = 333;
var viewHeight = 940;
var sectionId = 'dynsection-1';
</script>
<script type="application/ecmascript" xlink:href="svg.min.js"/>
<svg id="graph" class="graph">
<g id="viewport">
<title>EquipmentButton</title>
<!-- Node1 -->
<g id="Node000001" class="node">
<title>Node1</title>
<g id="a_Node000001"><a xlink:title=" ">
<polygon fill="#999999" stroke="none" points="194.35,-471 24.85,-471 24.85,-315.5 194.35,-315.5 194.35,-471"/>
<text text-anchor="start" x="70.22" y="-457.5" font-family="Consolas" font-size="10.00">EquipmentButton</text>
<text text-anchor="start" x="28.85" y="-443" font-family="Consolas" font-size="10.00">+</text>
<text text-anchor="start" x="38.1" y="-443" font-family="Consolas" font-size="10.00">Image iconImage</text>
<text text-anchor="start" x="28.85" y="-428.5" font-family="Consolas" font-size="10.00">+</text>
<text text-anchor="start" x="38.1" y="-428.5" font-family="Consolas" font-size="10.00">TextMeshProUGUI nameText</text>
<text text-anchor="start" x="28.85" y="-414" font-family="Consolas" font-size="10.00">+</text>
<text text-anchor="start" x="38.1" y="-414" font-family="Consolas" font-size="10.00">TextMeshProUGUI priceText</text>
<text text-anchor="start" x="28.85" y="-399.5" font-family="Consolas" font-size="10.00">+</text>
<text text-anchor="start" x="38.1" y="-399.5" font-family="Consolas" font-size="10.00">Button myButton</text>
<text text-anchor="start" x="28.85" y="-385" font-family="Consolas" font-size="10.00">+</text>
<text text-anchor="start" x="38.1" y="-385" font-family="Consolas" font-size="10.00">void OnClickItem()</text>
<text text-anchor="start" x="28.85" y="-370.5" font-family="Consolas" font-size="10.00">+</text>
<text text-anchor="start" x="38.1" y="-370.5" font-family="Consolas" font-size="10.00">void MarkAsPurchased</text>
<text text-anchor="start" x="38.1" y="-360" font-family="Consolas" font-size="10.00">(Color purchasedColor)</text>
<text text-anchor="start" x="28.85" y="-345.5" font-family="Consolas" font-size="10.00">+</text>
<text text-anchor="start" x="38.1" y="-345.5" font-family="Consolas" font-size="10.00">void MarkAsDefault</text>
<text text-anchor="start" x="38.1" y="-335" font-family="Consolas" font-size="10.00">(Color defaultColor)</text>
<text text-anchor="start" x="28.85" y="-320.5" font-family="Consolas" font-size="10.00">+</text>
<text text-anchor="start" x="38.1" y="-320.5" font-family="Consolas" font-size="10.00">EquipmentItem GetLinkedItem()</text>
<polygon fill="#666666" stroke="#666666" points="24.85,-454.5 24.85,-454.5 194.35,-454.5 194.35,-454.5 24.85,-454.5"/>
<polygon fill="#666666" stroke="#666666" points="24.85,-396.5 24.85,-396.5 36.1,-396.5 36.1,-396.5 24.85,-396.5"/>
<polygon fill="#666666" stroke="#666666" points="36.1,-396.5 36.1,-396.5 194.35,-396.5 194.35,-396.5 36.1,-396.5"/>
<polygon fill="none" stroke="#666666" points="24.85,-315.5 24.85,-471 194.35,-471 194.35,-315.5 24.85,-315.5"/>
</a>
</g>
</g>
<!-- Node5 -->
<g id="Node000005" class="node">
<title>Node5</title>
<g id="a_Node000005"><a xlink:href="class_equipment_u_i_handler.html" target="_top" xlink:title=" ">
<polygon fill="white" stroke="none" points="186.6,-267.5 6.6,-267.5 6.6,0 186.6,0 186.6,-267.5"/>
<text text-anchor="start" x="49.35" y="-254" font-family="Consolas" font-size="10.00">EquipmentUIHandler</text>
<text text-anchor="start" x="10.6" y="-239.5" font-family="Consolas" font-size="10.00">+</text>
<text text-anchor="start" x="19.85" y="-239.5" font-family="Consolas" font-size="10.00">GameObject itemBuyPanel</text>
<text text-anchor="start" x="10.6" y="-225" font-family="Consolas" font-size="10.00">+</text>
<text text-anchor="start" x="19.85" y="-225" font-family="Consolas" font-size="10.00">Image tipItemImage</text>
<text text-anchor="start" x="10.6" y="-210.5" font-family="Consolas" font-size="10.00">+</text>
<text text-anchor="start" x="19.85" y="-210.5" font-family="Consolas" font-size="10.00">TextMeshProUGUI tipItemName</text>
<text text-anchor="start" x="10.6" y="-196" font-family="Consolas" font-size="10.00">+</text>
<text text-anchor="start" x="19.85" y="-196" font-family="Consolas" font-size="10.00">TextMeshProUGUI tipItemPrice</text>
<text text-anchor="start" x="10.6" y="-181.5" font-family="Consolas" font-size="10.00">+</text>
<text text-anchor="start" x="19.85" y="-181.5" font-family="Consolas" font-size="10.00">TextMeshProUGUI tipItemDetails</text>
<text text-anchor="start" x="10.6" y="-167" font-family="Consolas" font-size="10.00">+</text>
<text text-anchor="start" x="19.85" y="-167" font-family="Consolas" font-size="10.00">TextMeshProUGUI tipCurrencyText</text>
<text text-anchor="start" x="10.6" y="-152.5" font-family="Consolas" font-size="10.00">+</text>
<text text-anchor="start" x="19.85" y="-152.5" font-family="Consolas" font-size="10.00">Button buyButton</text>
<text text-anchor="start" x="10.6" y="-138" font-family="Consolas" font-size="10.00">+</text>
<text text-anchor="start" x="19.85" y="-138" font-family="Consolas" font-size="10.00">Button backButton</text>
<text text-anchor="start" x="10.6" y="-123.5" font-family="Consolas" font-size="10.00">+</text>
<text text-anchor="start" x="19.85" y="-123.5" font-family="Consolas" font-size="10.00">Color purchasedButtonColor</text>
<text text-anchor="start" x="10.6" y="-109" font-family="Consolas" font-size="10.00">+</text>
<text text-anchor="start" x="19.85" y="-109" font-family="Consolas" font-size="10.00">Color defaultButtonColor</text>
<text text-anchor="start" x="10.6" y="-94.5" font-family="Consolas" font-size="10.00">+</text>
<text text-anchor="start" x="19.85" y="-94.5" font-family="Consolas" font-size="10.00">HashSet&lt; EquipmentItem</text>
<text text-anchor="start" x="19.85" y="-84" font-family="Consolas" font-size="10.00"> &gt; purchasedItems</text>
<text text-anchor="start" x="10.6" y="-69.5" font-family="Consolas" font-size="10.00">+</text>
<text text-anchor="start" x="19.85" y="-69.5" font-family="Consolas" font-size="10.00">int playerCOMA</text>
<text text-anchor="start" x="10.6" y="-55" font-family="Consolas" font-size="10.00">+</text>
<text text-anchor="start" x="19.85" y="-55" font-family="Consolas" font-size="10.00">void ShowItemTip(Equipment</text>
<text text-anchor="start" x="19.85" y="-44.5" font-family="Consolas" font-size="10.00">Item eqItem, EquipmentButton</text>
<text text-anchor="start" x="19.85" y="-34" font-family="Consolas" font-size="10.00"> eqButton)</text>
<text text-anchor="start" x="10.6" y="-19.5" font-family="Consolas" font-size="10.00">+</text>
<text text-anchor="start" x="19.85" y="-19.5" font-family="Consolas" font-size="10.00">void OnClickBuy()</text>
<text text-anchor="start" x="10.6" y="-5" font-family="Consolas" font-size="10.00">+</text>
<text text-anchor="start" x="19.85" y="-5" font-family="Consolas" font-size="10.00">void OnClickBack()</text>
<polygon fill="#bfbfbf" stroke="#bfbfbf" points="6.6,-251 6.6,-251 186.6,-251 186.6,-251 6.6,-251"/>
<polygon fill="#bfbfbf" stroke="#bfbfbf" points="6.6,-66.5 6.6,-66.5 17.85,-66.5 17.85,-66.5 6.6,-66.5"/>
<polygon fill="#bfbfbf" stroke="#bfbfbf" points="17.85,-66.5 17.85,-66.5 186.6,-66.5 186.6,-66.5 17.85,-66.5"/>
<polygon fill="none" stroke="#bfbfbf" points="6.6,0 6.6,-267.5 186.6,-267.5 186.6,0 6.6,0"/>
</a>
</g>
</g>
<!-- Node1&#45;&gt;Node5 -->
<g id="edge7_Node000005_Node000001" class="edge">
<title>Node1&#45;&gt;Node5</title>
<g id="a_edge7_Node000005_Node000001"><a xlink:title=" ">
<path fill="none" stroke="#63b8ff" d="M38.21,-315.55C34.94,-309.7 32.1,-303.66 29.85,-297.5 27.76,-291.78 26.4,-285.96 25.68,-280.09"/>
<polygon fill="none" stroke="#63b8ff" points="25.67,-280.09 21.39,-274.29 25.09,-268.1 29.38,-273.9 25.67,-280.09"/>
</a>
</g>
<text text-anchor="middle" x="82.72" y="-288" font-family="Helvetica,sans-Serif" font-size="10.00" fill="grey"> +currentSelectedButton</text>
</g>
<!-- Node2 -->
<g id="Node000002" class="node">
<title>Node2</title>
<g id="a_Node000002"><a xlink:title=" ">
<polygon fill="white" stroke="none" points="78.72,-706.75 2.47,-706.75 2.47,-659.25 78.72,-659.25 78.72,-706.75"/>
<text text-anchor="start" x="6.47" y="-693.25" font-family="Consolas" font-size="10.00">MonoBehaviour</text>
<text text-anchor="start" x="37.97" y="-678.75" font-family="Consolas" font-size="10.00"> </text>
<text text-anchor="start" x="37.97" y="-664.25" font-family="Consolas" font-size="10.00"> </text>
<polygon fill="#bfbfbf" stroke="#bfbfbf" points="2.47,-690.25 2.47,-690.25 78.72,-690.25 78.72,-690.25 2.47,-690.25"/>
<polygon fill="#bfbfbf" stroke="#bfbfbf" points="2.47,-675.75 2.47,-675.75 78.72,-675.75 78.72,-675.75 2.47,-675.75"/>
<polygon fill="none" stroke="#bfbfbf" points="2.47,-659.25 2.47,-706.75 78.72,-706.75 78.72,-659.25 2.47,-659.25"/>
</a>
</g>
</g>
<!-- Node2&#45;&gt;Node1 -->
<g id="edge1_Node000001_Node000002" class="edge">
<title>Node2&#45;&gt;Node1</title>
<g id="a_edge1_Node000001_Node000002"><a xlink:title=" ">
<path fill="none" stroke="#63b8ff" d="M48.65,-648.41C59.02,-605.17 77.34,-528.76 91.2,-470.98"/>
<polygon fill="none" stroke="#63b8ff" points="45.29,-647.41 46.37,-657.95 52.1,-649.04 45.29,-647.41"/>
</a>
</g>
</g>
<!-- Node2&#45;&gt;Node5 -->
<g id="edge5_Node000005_Node000002" class="edge">
<title>Node2&#45;&gt;Node5</title>
<g id="a_edge5_Node000005_Node000002"><a xlink:title=" ">
<path fill="none" stroke="#63b8ff" d="M30.78,-648.83C11.88,-579 -23.69,-412.75 23.6,-285.5 25.83,-279.5 28.21,-273.42 30.71,-267.32"/>
<polygon fill="none" stroke="#63b8ff" points="27.31,-649.42 33.36,-658.12 34.06,-647.55 27.31,-649.42"/>
</a>
</g>
</g>
<!-- Node3 -->
<g id="Node000003" class="node">
<title>Node3</title>
<g id="a_Node000003"><a xlink:href="class_equipment_item.html" target="_top" xlink:title=" ">
<polygon fill="white" stroke="none" points="278.72,-847 114.47,-847 114.47,-519 278.72,-519 278.72,-847"/>
<text text-anchor="start" x="162.47" y="-833.5" font-family="Consolas" font-size="10.00">EquipmentItem</text>
<text text-anchor="start" x="118.47" y="-819" font-family="Consolas" font-size="10.00">+</text>
<text text-anchor="start" x="127.72" y="-819" font-family="Consolas" font-size="10.00">Sprite eqIcon</text>
<text text-anchor="start" x="118.47" y="-804.5" font-family="Consolas" font-size="10.00">+</text>
<text text-anchor="start" x="127.72" y="-804.5" font-family="Consolas" font-size="10.00">string eqName</text>
<text text-anchor="start" x="118.47" y="-790" font-family="Consolas" font-size="10.00">+</text>
<text text-anchor="start" x="127.72" y="-790" font-family="Consolas" font-size="10.00">EquipmentType eqType</text>
<text text-anchor="start" x="118.47" y="-775.5" font-family="Consolas" font-size="10.00">+</text>
<text text-anchor="start" x="127.72" y="-775.5" font-family="Consolas" font-size="10.00">int eqPrice</text>
<text text-anchor="start" x="118.47" y="-761" font-family="Consolas" font-size="10.00">+</text>
<text text-anchor="start" x="127.72" y="-761" font-family="Consolas" font-size="10.00">bool isGlobalEquip</text>
<text text-anchor="start" x="118.47" y="-746.5" font-family="Consolas" font-size="10.00">+</text>
<text text-anchor="start" x="127.72" y="-746.5" font-family="Consolas" font-size="10.00">float eqAttackBonus</text>
<text text-anchor="start" x="118.47" y="-732" font-family="Consolas" font-size="10.00">+</text>
<text text-anchor="start" x="127.72" y="-732" font-family="Consolas" font-size="10.00">float eqDefenseBonus</text>
<text text-anchor="start" x="118.47" y="-717.5" font-family="Consolas" font-size="10.00">+</text>
<text text-anchor="start" x="127.72" y="-717.5" font-family="Consolas" font-size="10.00">float eqHealthBonus</text>
<text text-anchor="start" x="118.47" y="-703" font-family="Consolas" font-size="10.00">+</text>
<text text-anchor="start" x="127.72" y="-703" font-family="Consolas" font-size="10.00">float eqAdditionalPilotSkill</text>
<text text-anchor="start" x="118.47" y="-688.5" font-family="Consolas" font-size="10.00">+</text>
<text text-anchor="start" x="127.72" y="-688.5" font-family="Consolas" font-size="10.00">float eqAdditionalEngine</text>
<text text-anchor="start" x="127.72" y="-678" font-family="Consolas" font-size="10.00">Skill</text>
<text text-anchor="start" x="118.47" y="-663.5" font-family="Consolas" font-size="10.00">+</text>
<text text-anchor="start" x="127.72" y="-663.5" font-family="Consolas" font-size="10.00">float eqAdditionalPowerSkill</text>
<text text-anchor="start" x="118.47" y="-649" font-family="Consolas" font-size="10.00">+</text>
<text text-anchor="start" x="127.72" y="-649" font-family="Consolas" font-size="10.00">float eqAdditionalShield</text>
<text text-anchor="start" x="127.72" y="-638.5" font-family="Consolas" font-size="10.00">Skill</text>
<text text-anchor="start" x="118.47" y="-624" font-family="Consolas" font-size="10.00">+</text>
<text text-anchor="start" x="127.72" y="-624" font-family="Consolas" font-size="10.00">float eqAdditionalWeapon</text>
<text text-anchor="start" x="127.72" y="-613.5" font-family="Consolas" font-size="10.00">Skill</text>
<text text-anchor="start" x="118.47" y="-599" font-family="Consolas" font-size="10.00">+</text>
<text text-anchor="start" x="127.72" y="-599" font-family="Consolas" font-size="10.00">float eqAdditionalAmmunition</text>
<text text-anchor="start" x="127.72" y="-588.5" font-family="Consolas" font-size="10.00">Skill</text>
<text text-anchor="start" x="118.47" y="-574" font-family="Consolas" font-size="10.00">+</text>
<text text-anchor="start" x="127.72" y="-574" font-family="Consolas" font-size="10.00">float eqAdditionalMedBay</text>
<text text-anchor="start" x="127.72" y="-563.5" font-family="Consolas" font-size="10.00">Skill</text>
<text text-anchor="start" x="118.47" y="-549" font-family="Consolas" font-size="10.00">+</text>
<text text-anchor="start" x="127.72" y="-549" font-family="Consolas" font-size="10.00">float eqAdditionalRepair</text>
<text text-anchor="start" x="127.72" y="-538.5" font-family="Consolas" font-size="10.00">Skill</text>
<text text-anchor="start" x="193.97" y="-524" font-family="Consolas" font-size="10.00"> </text>
<polygon fill="#bfbfbf" stroke="#bfbfbf" points="114.47,-830.5 114.47,-830.5 278.72,-830.5 278.72,-830.5 114.47,-830.5"/>
<polygon fill="#bfbfbf" stroke="#bfbfbf" points="114.47,-535.5 114.47,-535.5 125.72,-535.5 125.72,-535.5 114.47,-535.5"/>
<polygon fill="#bfbfbf" stroke="#bfbfbf" points="125.72,-535.5 125.72,-535.5 278.72,-535.5 278.72,-535.5 125.72,-535.5"/>
<polygon fill="none" stroke="#bfbfbf" points="114.47,-519 114.47,-847 278.72,-847 278.72,-519 114.47,-519"/>
</a>
</g>
</g>
<!-- Node3&#45;&gt;Node1 -->
<g id="edge2_Node000001_Node000003" class="edge">
<title>Node3&#45;&gt;Node1</title>
<g id="a_edge2_Node000001_Node000003"><a xlink:title=" ">
<path fill="none" stroke="#63b8ff" d="M147.38,-519.21C143.65,-506.88 139.98,-494.74 136.48,-483.16"/>
<polygon fill="none" stroke="#63b8ff" points="136.49,-483.18 130.92,-478.6 133.01,-471.7 138.58,-476.28 136.49,-483.18"/>
</a>
</g>
<text text-anchor="middle" x="167.22" y="-491.5" font-family="Helvetica,sans-Serif" font-size="10.00" fill="grey"> +linkedItem</text>
</g>
<!-- Node3&#45;&gt;Node5 -->
<g id="edge6_Node000005_Node000003" class="edge">
<title>Node3&#45;&gt;Node5</title>
<g id="a_edge6_Node000005_Node000003"><a xlink:title=" ">
<path fill="none" stroke="#63b8ff" d="M225.74,-519.02C231.67,-444.63 227.88,-357.33 194.6,-285.5 193.54,-283.22 192.45,-280.93 191.33,-278.63"/>
<polygon fill="none" stroke="#63b8ff" points="191.36,-278.68 185.08,-275.12 185.94,-267.96 192.22,-271.52 191.36,-278.68"/>
</a>
</g>
<text text-anchor="middle" x="276.42" y="-389.75" font-family="Helvetica,sans-Serif" font-size="10.00" fill="grey"> +currentSelectedItem</text>
</g>
<!-- Node4 -->
<g id="Node000004" class="node">
<title>Node4</title>
<g id="a_Node000004"><a xlink:title=" ">
<polygon fill="white" stroke="none" points="242.6,-931.5 150.6,-931.5 150.6,-884 242.6,-884 242.6,-931.5"/>
<text text-anchor="start" x="154.6" y="-918" font-family="Consolas" font-size="10.00">ScriptableObject</text>
<text text-anchor="start" x="193.97" y="-903.5" font-family="Consolas" font-size="10.00"> </text>
<text text-anchor="start" x="193.97" y="-889" font-family="Consolas" font-size="10.00"> </text>
<polygon fill="#bfbfbf" stroke="#bfbfbf" points="150.6,-915 150.6,-915 242.6,-915 242.6,-915 150.6,-915"/>
<polygon fill="#bfbfbf" stroke="#bfbfbf" points="150.6,-900.5 150.6,-900.5 242.6,-900.5 242.6,-900.5 150.6,-900.5"/>
<polygon fill="none" stroke="#bfbfbf" points="150.6,-884 150.6,-931.5 242.6,-931.5 242.6,-884 150.6,-884"/>
</a>
</g>
</g>
<!-- Node4&#45;&gt;Node3 -->
<g id="edge3_Node000003_Node000004" class="edge">
<title>Node4&#45;&gt;Node3</title>
<g id="a_edge3_Node000003_Node000004"><a xlink:title=" ">
<path fill="none" stroke="#63b8ff" d="M196.6,-872.73C196.6,-864.89 196.6,-856.04 196.6,-846.56"/>
<polygon fill="none" stroke="#63b8ff" points="193.1,-872.65 196.6,-882.65 200.1,-872.65 193.1,-872.65"/>
</a>
</g>
</g>
<!-- Node5&#45;&gt;Node1 -->
<g id="edge4_Node000001_Node000005" class="edge">
<title>Node5&#45;&gt;Node1</title>
<g id="a_edge4_Node000001_Node000005"><a xlink:title=" ">
<path fill="none" stroke="#63b8ff" d="M140.95,-267.5C141.47,-277.6 141.12,-287.68 139.6,-297.5 139.31,-299.37 138.99,-301.24 138.65,-303.13"/>
<polygon fill="none" stroke="#63b8ff" points="138.66,-303.05 141.34,-309.74 136.19,-314.79 133.51,-308.1 138.66,-303.05"/>
</a>
</g>
<text text-anchor="middle" x="165.79" y="-288" font-family="Helvetica,sans-Serif" font-size="10.00" fill="grey"> +uiHandler</text>
</g>
</g>
</svg>

<g id="navigator" transform="translate(0 0)" fill="#404254">
  <rect fill="#f2f5e9" fill-opacity="0.5" stroke="#606060" stroke-width=".5" x="0" y="0" width="60" height="60"/>
  <use id="zoomplus" xlink:href="#zoomPlus" x="17" y="9" onmousedown="handleZoom(evt,'in')"/>
  <use id="zoomminus" xlink:href="#zoomMin" x="42" y="9" onmousedown="handleZoom(evt,'out')"/>
  <use id="reset" xlink:href="#resetDef" x="30" y="36" onmousedown="handleReset()"/>
   <use id="arrowup" xlink:href="#arrowUp" x="0" y="0" onmousedown="handlePan(0,-1)"/>
  <use id="arrowright" xlink:href="#arrowRight" x="0" y="0" onmousedown="handlePan(1,0)"/>
  <use id="arrowdown" xlink:href="#arrowDown" x="0" y="0" onmousedown="handlePan(0,1)"/>
  <use id="arrowleft" xlink:href="#arrowLeft" x="0" y="0" onmousedown="handlePan(-1,0)"/>
</g>
<svg viewBox="0 0 15 15" width="100%" height="30px" preserveAspectRatio="xMaxYMin meet">
 <g id="arrow_out" transform="scale(0.3 0.3)">
  <a xlink:href="class_equipment_button__coll__graph_org.svg" target="_base">
   <rect id="button" ry="5" rx="5" y="6" x="6" height="38" width="38"
        fill="#f2f5e9" fill-opacity="0.5" stroke="#606060" stroke-width="1.0"/>
   <path id="arrow"
     d="M 11.500037,31.436501 C 11.940474,20.09759 22.043105,11.32322 32.158766,21.979434 L 37.068811,17.246167 C 37.068811,17.246167 37.088388,32 37.088388,32 L 22.160133,31.978069 C 22.160133,31.978069 26.997745,27.140456 26.997745,27.140456 C 18.528582,18.264221 13.291696,25.230495 11.500037,31.436501 z"
     style="fill:#404040;"/>
  </a>
 </g>
</svg>

<style type='text/css'>
<![CDATA[
[data-mouse-over-selected='false'] { opacity: 0.7; }
[data-mouse-over-selected='true']  { opacity: 1.0; }
]]>
</style>
<script type="application/ecmascript"><![CDATA[
document.addEventListener('DOMContentLoaded', (event) => {
  highlightEdges();
  highlightAdjacentNodes();
});
]]></script>
</svg>
