<?xml version="1.0" encoding="UTF-8" standalone="no"?>
<!DOCTYPE svg PUBLIC "-//W3C//DTD SVG 1.1//EN"
 "http://www.w3.org/Graphics/SVG/1.1/DTD/svg11.dtd">
<!-- Generated by graphviz version 12.2.1 (20241206.2353)
 -->
<!-- Title: Graph Legend Pages: 1 -->
<svg width="680pt" height="210pt"
 viewBox="0.00 0.00 680.34 209.64" xmlns="http://www.w3.org/2000/svg" xmlns:xlink="http://www.w3.org/1999/xlink">
<g id="graph0" class="graph" transform="scale(1 1) rotate(0) translate(4 205.64)">
<title>Graph Legend</title>
<!-- Node9 -->
<g id="Node000009" class="node">
<title>Node9</title>
<g id="a_Node000009"><a xlink:title=" ">
<ellipse fill="#999999" stroke="#666666" cx="360.31" cy="-17.61" rx="43.59" ry="17.61"/>
<text text-anchor="middle" x="360.31" y="-13.36" font-family="Consolas" font-size="10.00">Inherited</text>
</a>
</g>
</g>
<!-- Node10 -->
<g id="Node000010" class="node">
<title>Node10</title>
<g id="a_Node000010"><a xlink:title=" ">
<ellipse fill="white" stroke="#666666" cx="47.31" cy="-100.82" rx="47.31" ry="17.61"/>
<text text-anchor="middle" x="47.31" y="-96.57" font-family="Consolas" font-size="10.00">PublicBase</text>
</a>
</g>
</g>
<!-- Node10&#45;&gt;Node9 -->
<g id="edge1" class="edge">
<title>Node10&#45;&gt;Node9</title>
<g id="a_edge1"><a xlink:title=" ">
<path fill="none" stroke="#63b8ff" d="M94.26,-86C97.65,-85.04 101.03,-84.1 104.31,-83.21 182.16,-62.06 273.96,-39.45 323.74,-27.39"/>
<polygon fill="#63b8ff" stroke="#63b8ff" points="93.55,-82.56 84.89,-88.67 95.47,-89.29 93.55,-82.56"/>
</a>
</g>
</g>
<!-- Node11 -->
<g id="Node000011" class="node">
<title>Node11</title>
<g id="a_Node000011"><a xlink:title=" ">
<ellipse fill="#fff0f0" stroke="red" cx="47.31" cy="-184.03" rx="43.59" ry="17.61"/>
<text text-anchor="middle" x="47.31" y="-179.78" font-family="Consolas" font-size="10.00">Truncated</text>
</a>
</g>
</g>
<!-- Node11&#45;&gt;Node10 -->
<g id="edge2" class="edge">
<title>Node11&#45;&gt;Node10</title>
<g id="a_edge2"><a xlink:title=" ">
<path fill="none" stroke="#63b8ff" d="M47.31,-154.93C47.31,-142.94 47.31,-129.34 47.31,-118.91"/>
<polygon fill="#63b8ff" stroke="#63b8ff" points="43.81,-154.69 47.31,-164.69 50.81,-154.69 43.81,-154.69"/>
</a>
</g>
</g>
<!-- Node13 -->
<g id="node4" class="node">
<title>Node13</title>
<g id="a_node4"><a xlink:title=" ">
<ellipse fill="white" stroke="#666666" cx="171.31" cy="-100.82" rx="58.44" ry="17.61"/>
<text text-anchor="middle" x="171.31" y="-96.57" font-family="Consolas" font-size="10.00">ProtectedBase</text>
</a>
</g>
</g>
<!-- Node13&#45;&gt;Node9 -->
<g id="edge3" class="edge">
<title>Node13&#45;&gt;Node9</title>
<g id="a_edge3"><a xlink:title=" ">
<path fill="none" stroke="darkgreen" d="M213.95,-81.5C249.78,-66.1 300.01,-44.51 331.33,-31.06"/>
<polygon fill="darkgreen" stroke="darkgreen" points="212.99,-78.1 205.19,-85.26 215.76,-84.53 212.99,-78.1"/>
</a>
</g>
</g>
<!-- Node14 -->
<g id="node5" class="node">
<title>Node14</title>
<g id="a_node5"><a xlink:title=" ">
<ellipse fill="white" stroke="#666666" cx="298.31" cy="-100.82" rx="51.02" ry="17.61"/>
<text text-anchor="middle" x="298.31" y="-96.57" font-family="Consolas" font-size="10.00">PrivateBase</text>
</a>
</g>
</g>
<!-- Node14&#45;&gt;Node9 -->
<g id="edge4" class="edge">
<title>Node14&#45;&gt;Node9</title>
<g id="a_edge4"><a xlink:title=" ">
<path fill="none" stroke="#8b1a1a" d="M317.67,-74.46C327.57,-61.49 339.33,-46.08 347.99,-34.74"/>
<polygon fill="#8b1a1a" stroke="#8b1a1a" points="315.06,-72.11 311.77,-82.18 320.62,-76.36 315.06,-72.11"/>
</a>
</g>
</g>
<!-- Node15 -->
<g id="Node000015" class="node">
<title>Node15</title>
<g id="a_Node000015"><a xlink:title=" ">
<ellipse fill="#e0e0e0" stroke="#999999" cx="422.31" cy="-100.82" rx="54.73" ry="17.61"/>
<text text-anchor="middle" x="422.31" y="-96.57" font-family="Consolas" font-size="10.00">Undocumented</text>
</a>
</g>
</g>
<!-- Node15&#45;&gt;Node9 -->
<g id="edge5" class="edge">
<title>Node15&#45;&gt;Node9</title>
<g id="a_edge5"><a xlink:title=" ">
<path fill="none" stroke="#63b8ff" d="M402.95,-74.46C393.04,-61.49 381.28,-46.08 372.62,-34.74"/>
<polygon fill="#63b8ff" stroke="#63b8ff" points="399.99,-76.36 408.84,-82.18 405.55,-72.11 399.99,-76.36"/>
</a>
</g>
</g>
<!-- Node16 -->
<g id="node7" class="node">
<title>Node16</title>
<g id="a_node7"><a xlink:title=" ">
<ellipse fill="white" stroke="#666666" cx="549.31" cy="-100.82" rx="54.73" ry="17.61"/>
<text text-anchor="middle" x="549.31" y="-96.57" font-family="Consolas" font-size="10.00">Templ&lt; int &gt;</text>
</a>
</g>
</g>
<!-- Node16&#45;&gt;Node9 -->
<g id="edge6" class="edge">
<title>Node16&#45;&gt;Node9</title>
<g id="a_edge6"><a xlink:title=" ">
<path fill="none" stroke="#63b8ff" d="M507.51,-81.86C471.62,-66.44 420.82,-44.61 389.25,-31.04"/>
<polygon fill="#63b8ff" stroke="#63b8ff" points="505.71,-84.9 516.28,-85.63 508.47,-78.47 505.71,-84.9"/>
</a>
</g>
</g>
<!-- Node17 -->
<g id="node8" class="node">
<title>Node17</title>
<g id="a_node8"><a xlink:title=" ">
<ellipse fill="white" stroke="#666666" cx="549.31" cy="-184.03" rx="47.31" ry="17.61"/>
<text text-anchor="middle" x="549.31" y="-179.78" font-family="Consolas" font-size="10.00">Templ&lt; T &gt;</text>
</a>
</g>
</g>
<!-- Node17&#45;&gt;Node16 -->
<g id="edge7" class="edge">
<title>Node17&#45;&gt;Node16</title>
<g id="a_edge7"><a xlink:title=" ">
<path fill="none" stroke="orange" stroke-dasharray="5,2" d="M549.31,-154.93C549.31,-142.94 549.31,-129.34 549.31,-118.91"/>
<polygon fill="orange" stroke="orange" points="545.81,-154.69 549.31,-164.69 552.81,-154.69 545.81,-154.69"/>
</a>
</g>
<text text-anchor="middle" x="563.56" y="-138.93" font-family="Helvetica,sans-Serif" font-size="10.00" fill="grey">&lt; int &gt;</text>
</g>
<!-- Node18 -->
<g id="node9" class="node">
<title>Node18</title>
<g id="a_node9"><a xlink:title=" ">
<ellipse fill="white" stroke="#666666" cx="647.31" cy="-100.82" rx="25.03" ry="17.61"/>
<text text-anchor="middle" x="647.31" y="-96.57" font-family="Consolas" font-size="10.00">Used</text>
</a>
</g>
</g>
<!-- Node18&#45;&gt;Node9 -->
<g id="edge8" class="edge">
<title>Node18&#45;&gt;Node9</title>
<g id="a_edge8"><a xlink:title=" ">
<path fill="none" stroke="#9a32cd" stroke-dasharray="5,2" d="M617.4,-84.81C616.03,-84.24 614.66,-83.71 613.31,-83.21 539.48,-56.08 449.51,-36.05 399.19,-25.96"/>
<polygon fill="#9a32cd" stroke="#9a32cd" points="615.89,-87.96 626.44,-88.85 618.74,-81.57 615.89,-87.96"/>
</a>
</g>
<text text-anchor="middle" x="582.11" y="-55.71" font-family="Helvetica,sans-Serif" font-size="10.00" fill="grey">m_usedClass</text>
</g>
</g>
</svg>
