<?xml version="1.0" encoding="UTF-8" standalone="no"?>
<!DOCTYPE svg PUBLIC "-//W3C//DTD SVG 1.1//EN"
 "http://www.w3.org/Graphics/SVG/1.1/DTD/svg11.dtd">
<!-- Generated by graphviz version 12.2.1 (20241206.2353)
 -->
<!-- Title: Graphical Class Hierarchy Pages: 1 -->
<svg width="411pt" height="202pt"
 viewBox="0.00 0.00 411.41 202.21" xmlns="http://www.w3.org/2000/svg" xmlns:xlink="http://www.w3.org/1999/xlink">
<g id="graph0" class="graph" transform="scale(1 1) rotate(0) translate(4 198.21)">
<title>Graphical Class Hierarchy</title>
<!-- Node0 -->
<g id="Node000000" class="node">
<title>Node0</title>
<g id="a_Node000000"><a xlink:href="interface_i_special_effect_handler.html" target="_top" xlink:title=" ">
<ellipse fill="white" stroke="#666666" cx="88.14" cy="-96.61" rx="88.14" ry="17.61"/>
<text text-anchor="middle" x="88.14" y="-92.36" font-family="Consolas" font-size="10.00">ISpecialEffectHandler</text>
</a>
</g>
</g>
<!-- Node1 -->
<g id="Node000001" class="node">
<title>Node1</title>
<g id="a_Node000001"><a xlink:href="class_add_quest_effect_handler.html" target="_top" xlink:title=" ">
<ellipse fill="white" stroke="#666666" cx="307.85" cy="-176.61" rx="88.14" ry="17.61"/>
<text text-anchor="middle" x="307.85" y="-172.36" font-family="Consolas" font-size="10.00">AddQuestEffectHandler</text>
</a>
</g>
</g>
<!-- Node0&#45;&gt;Node1 -->
<g id="edge104_Node000000_Node000001" class="edge">
<title>Node0&#45;&gt;Node1</title>
<g id="a_edge104_Node000000_Node000001"><a xlink:title=" ">
<path fill="none" stroke="#63b8ff" d="M133.56,-117.95C156.71,-128.59 185.67,-141.17 212.28,-150.61 224.8,-155.05 238.47,-159.19 251.42,-162.82"/>
<polygon fill="#63b8ff" stroke="#63b8ff" points="135.28,-114.89 124.74,-113.85 132.34,-121.24 135.28,-114.89"/>
</a>
</g>
</g>
<!-- Node2 -->
<g id="Node000002" class="node">
<title>Node2</title>
<g id="a_Node000002"><a xlink:href="class_next_event_effect_handler.html" target="_top" xlink:title=" ">
<ellipse fill="white" stroke="#666666" cx="307.85" cy="-123.61" rx="91.85" ry="17.61"/>
<text text-anchor="middle" x="307.85" y="-119.36" font-family="Consolas" font-size="10.00">NextEventEffectHandler</text>
</a>
</g>
</g>
<!-- Node0&#45;&gt;Node2 -->
<g id="edge105_Node000000_Node000002" class="edge">
<title>Node0&#45;&gt;Node2</title>
<g id="a_edge105_Node000000_Node000002"><a xlink:title=" ">
<path fill="none" stroke="#63b8ff" d="M175.38,-107.3C193.27,-109.52 212.02,-111.85 229.57,-114.02"/>
<polygon fill="#63b8ff" stroke="#63b8ff" points="175.92,-103.84 165.57,-106.09 175.06,-110.79 175.92,-103.84"/>
</a>
</g>
</g>
<!-- Node3 -->
<g id="Node000003" class="node">
<title>Node3</title>
<g id="a_Node000003"><a xlink:href="class_unlock_item_effect_handler.html" target="_top" xlink:title=" ">
<ellipse fill="white" stroke="#666666" cx="307.85" cy="-70.61" rx="95.57" ry="17.61"/>
<text text-anchor="middle" x="307.85" y="-66.36" font-family="Consolas" font-size="10.00">UnlockItemEffectHandler</text>
</a>
</g>
</g>
<!-- Node0&#45;&gt;Node3 -->
<g id="edge106_Node000000_Node000003" class="edge">
<title>Node0&#45;&gt;Node3</title>
<g id="a_edge106_Node000000_Node000003"><a xlink:title=" ">
<path fill="none" stroke="#63b8ff" d="M176.09,-86.22C192.77,-84.23 210.17,-82.15 226.63,-80.19"/>
<polygon fill="#63b8ff" stroke="#63b8ff" points="175.69,-82.75 166.18,-87.41 176.52,-89.7 175.69,-82.75"/>
</a>
</g>
</g>
<!-- Node4 -->
<g id="Node000004" class="node">
<title>Node4</title>
<g id="a_Node000004"><a xlink:href="class_unlock_ship_effect_handler.html" target="_top" xlink:title=" ">
<ellipse fill="white" stroke="#666666" cx="307.85" cy="-17.61" rx="95.57" ry="17.61"/>
<text text-anchor="middle" x="307.85" y="-13.36" font-family="Consolas" font-size="10.00">UnlockShipEffectHandler</text>
</a>
</g>
</g>
<!-- Node0&#45;&gt;Node4 -->
<g id="edge107_Node000000_Node000004" class="edge">
<title>Node0&#45;&gt;Node4</title>
<g id="a_edge107_Node000000_Node000004"><a xlink:title=" ">
<path fill="none" stroke="#63b8ff" d="M134.1,-75.48C157.17,-65.1 185.9,-52.86 212.28,-43.61 224.25,-39.41 237.26,-35.45 249.7,-31.95"/>
<polygon fill="#63b8ff" stroke="#63b8ff" points="132.96,-72.15 125.31,-79.48 135.86,-78.53 132.96,-72.15"/>
</a>
</g>
</g>
</g>
</svg>
