<?xml version="1.0" encoding="UTF-8" standalone="no"?>
<!DOCTYPE svg PUBLIC "-//W3C//DTD SVG 1.1//EN"
 "http://www.w3.org/Graphics/SVG/1.1/DTD/svg11.dtd">
<!-- Generated by graphviz version 12.2.1 (20241206.2353)
 -->
<!-- Title: Graphical Class Hierarchy Pages: 1 -->
<svg width="204pt" height="256pt"
 viewBox="0.00 0.00 204.25 256.00" xmlns="http://www.w3.org/2000/svg" xmlns:xlink="http://www.w3.org/1999/xlink">
<g id="graph0" class="graph" transform="scale(1 1) rotate(0) translate(4 252)">
<title>Graphical Class Hierarchy</title>
<!-- Node0 -->
<g id="Node000000" class="node">
<title>Node0</title>
<g id="a_Node000000"><a xlink:href="class_ship_system.html" target="_top" xlink:title=" ">
<polygon fill="white" stroke="#666666" points="69.25,-134 0,-134 0,-114 69.25,-114 69.25,-134"/>
<text text-anchor="middle" x="34.62" y="-120.5" font-family="Helvetica,sans-Serif" font-size="10.00">ShipSystem</text>
</a>
</g>
</g>
<!-- Node1 -->
<g id="Node000001" class="node">
<title>Node1</title>
<g id="a_Node000001"><a xlink:href="class_crew_system.html" target="_top" xlink:title=" ">
<polygon fill="white" stroke="#666666" points="187.25,-248 114.25,-248 114.25,-228 187.25,-228 187.25,-248"/>
<text text-anchor="middle" x="150.75" y="-234.5" font-family="Helvetica,sans-Serif" font-size="10.00">CrewSystem</text>
</a>
</g>
</g>
<!-- Node0&#45;&gt;Node1 -->
<g id="edge136_Node000000_Node000001" class="edge">
<title>Node0&#45;&gt;Node1</title>
<g id="a_edge136_Node000000_Node000001"><a xlink:title=" ">
<path fill="none" stroke="#63b8ff" d="M46.07,-144.1C57.93,-165.23 79.06,-198.21 105.25,-219 109.46,-222.34 114.35,-225.2 119.31,-227.61"/>
<polygon fill="#63b8ff" stroke="#63b8ff" points="49.3,-142.72 41.46,-135.6 43.15,-146.06 49.3,-142.72"/>
</a>
</g>
</g>
<!-- Node2 -->
<g id="Node000002" class="node">
<title>Node2</title>
<g id="a_Node000002"><a xlink:href="class_hit_point_system.html" target="_top" xlink:title=" ">
<polygon fill="white" stroke="#666666" points="193.25,-210 108.25,-210 108.25,-190 193.25,-190 193.25,-210"/>
<text text-anchor="middle" x="150.75" y="-196.5" font-family="Helvetica,sans-Serif" font-size="10.00">HitPointSystem</text>
</a>
</g>
</g>
<!-- Node0&#45;&gt;Node2 -->
<g id="edge137_Node000000_Node000002" class="edge">
<title>Node0&#45;&gt;Node2</title>
<g id="a_edge137_Node000000_Node000002"><a xlink:title=" ">
<path fill="none" stroke="#63b8ff" d="M54.58,-142.01C67.99,-154.11 86.8,-169.82 105.25,-181 110.42,-184.13 116.21,-187.01 121.85,-189.52"/>
<polygon fill="#63b8ff" stroke="#63b8ff" points="57.07,-139.55 47.34,-135.34 52.32,-144.69 57.07,-139.55"/>
</a>
</g>
</g>
<!-- Node3 -->
<g id="Node000003" class="node">
<title>Node3</title>
<g id="a_Node000003"><a xlink:href="class_outer_hull_system.html" target="_top" xlink:title=" ">
<polygon fill="white" stroke="#666666" points="196.25,-172 105.25,-172 105.25,-152 196.25,-152 196.25,-172"/>
<text text-anchor="middle" x="150.75" y="-158.5" font-family="Helvetica,sans-Serif" font-size="10.00">OuterHullSystem</text>
</a>
</g>
</g>
<!-- Node0&#45;&gt;Node3 -->
<g id="edge138_Node000000_Node000003" class="edge">
<title>Node0&#45;&gt;Node3</title>
<g id="a_edge138_Node000000_Node000003"><a xlink:title=" ">
<path fill="none" stroke="#63b8ff" d="M78,-138.11C91.38,-142.56 105.9,-147.4 118.37,-151.55"/>
<polygon fill="#63b8ff" stroke="#63b8ff" points="79.14,-134.8 68.55,-134.96 76.93,-141.44 79.14,-134.8"/>
</a>
</g>
</g>
<!-- Node4 -->
<g id="Node000004" class="node">
<title>Node4</title>
<g id="a_Node000004"><a xlink:href="class_oxygen_system.html" target="_top" xlink:title=" ">
<polygon fill="white" stroke="#666666" points="192.5,-134 109,-134 109,-114 192.5,-114 192.5,-134"/>
<text text-anchor="middle" x="150.75" y="-120.5" font-family="Helvetica,sans-Serif" font-size="10.00">OxygenSystem</text>
</a>
</g>
</g>
<!-- Node0&#45;&gt;Node4 -->
<g id="edge139_Node000000_Node000004" class="edge">
<title>Node0&#45;&gt;Node4</title>
<g id="a_edge139_Node000000_Node000004"><a xlink:title=" ">
<path fill="none" stroke="#63b8ff" d="M80.94,-124C90.17,-124 99.83,-124 108.89,-124"/>
<polygon fill="#63b8ff" stroke="#63b8ff" points="81.07,-120.5 71.07,-124 81.07,-127.5 81.07,-120.5"/>
</a>
</g>
</g>
<!-- Node5 -->
<g id="Node000005" class="node">
<title>Node5</title>
<g id="a_Node000005"><a xlink:href="class_power_system.html" target="_top" xlink:title=" ">
<polygon fill="white" stroke="#666666" points="189.5,-96 112,-96 112,-76 189.5,-76 189.5,-96"/>
<text text-anchor="middle" x="150.75" y="-82.5" font-family="Helvetica,sans-Serif" font-size="10.00">PowerSystem</text>
</a>
</g>
</g>
<!-- Node0&#45;&gt;Node5 -->
<g id="edge140_Node000000_Node000005" class="edge">
<title>Node0&#45;&gt;Node5</title>
<g id="a_edge140_Node000000_Node000005"><a xlink:title=" ">
<path fill="none" stroke="#63b8ff" d="M78,-109.89C91.38,-105.44 105.9,-100.6 118.37,-96.45"/>
<polygon fill="#63b8ff" stroke="#63b8ff" points="76.93,-106.56 68.55,-113.04 79.14,-113.2 76.93,-106.56"/>
</a>
</g>
</g>
<!-- Node6 -->
<g id="Node000006" class="node">
<title>Node6</title>
<g id="a_Node000006"><a xlink:href="class_shield_system.html" target="_top" xlink:title=" ">
<polygon fill="white" stroke="#666666" points="189.12,-58 112.38,-58 112.38,-38 189.12,-38 189.12,-58"/>
<text text-anchor="middle" x="150.75" y="-44.5" font-family="Helvetica,sans-Serif" font-size="10.00">ShieldSystem</text>
</a>
</g>
</g>
<!-- Node0&#45;&gt;Node6 -->
<g id="edge141_Node000000_Node000006" class="edge">
<title>Node0&#45;&gt;Node6</title>
<g id="a_edge141_Node000000_Node000006"><a xlink:title=" ">
<path fill="none" stroke="#63b8ff" d="M54.58,-105.99C67.99,-93.89 86.8,-78.18 105.25,-67 110.42,-63.87 116.21,-60.99 121.85,-58.48"/>
<polygon fill="#63b8ff" stroke="#63b8ff" points="52.32,-103.31 47.34,-112.66 57.07,-108.45 52.32,-103.31"/>
</a>
</g>
</g>
<!-- Node7 -->
<g id="Node000007" class="node">
<title>Node7</title>
<g id="a_Node000007"><a xlink:href="class_weapon_system.html" target="_top" xlink:title=" ">
<polygon fill="white" stroke="#666666" points="193.25,-20 108.25,-20 108.25,0 193.25,0 193.25,-20"/>
<text text-anchor="middle" x="150.75" y="-6.5" font-family="Helvetica,sans-Serif" font-size="10.00">WeaponSystem</text>
</a>
</g>
</g>
<!-- Node0&#45;&gt;Node7 -->
<g id="edge142_Node000000_Node000007" class="edge">
<title>Node0&#45;&gt;Node7</title>
<g id="a_edge142_Node000000_Node000007"><a xlink:title=" ">
<path fill="none" stroke="#63b8ff" d="M46.07,-103.9C57.93,-82.77 79.06,-49.79 105.25,-29 109.46,-25.66 114.35,-22.8 119.31,-20.39"/>
<polygon fill="#63b8ff" stroke="#63b8ff" points="43.15,-101.94 41.46,-112.4 49.3,-105.28 43.15,-101.94"/>
</a>
</g>
</g>
</g>
</svg>
