<?xml version="1.0" encoding="UTF-8" standalone="no"?>
<!DOCTYPE svg PUBLIC "-//W3C//DTD SVG 1.1//EN"
 "http://www.w3.org/Graphics/SVG/1.1/DTD/svg11.dtd">
<!-- Generated by graphviz version 12.2.1 (20241206.2353)
 -->
<!-- Title: Graphical Class Hierarchy Pages: 1 -->
<svg width="518pt" height="503pt"
 viewBox="0.00 0.00 518.25 503.00" xmlns="http://www.w3.org/2000/svg" xmlns:xlink="http://www.w3.org/1999/xlink">
<g id="graph0" class="graph" transform="scale(1 1) rotate(0) translate(4 499)">
<title>Graphical Class Hierarchy</title>
<!-- Node0 -->
<g id="Node000000" class="node">
<title>Node0</title>
<g id="a_Node000000"><a xlink:title=" ">
<polygon fill="#e0e0e0" stroke="#999999" points="88,-324 0,-324 0,-304 88,-304 88,-324"/>
<text text-anchor="middle" x="44" y="-310.5" font-family="Helvetica,sans-Serif" font-size="10.00">ScriptableObject</text>
</a>
</g>
</g>
<!-- Node1 -->
<g id="Node000001" class="node">
<title>Node1</title>
<g id="a_Node000001"><a xlink:href="class_crew_race_stat.html" target="_top" xlink:title=" ">
<polygon fill="white" stroke="#666666" points="213.12,-495 132.62,-495 132.62,-475 213.12,-475 213.12,-495"/>
<text text-anchor="middle" x="172.88" y="-481.5" font-family="Helvetica,sans-Serif" font-size="10.00">CrewRaceStat</text>
</a>
</g>
</g>
<!-- Node0&#45;&gt;Node1 -->
<g id="edge112_Node000000_Node000001" class="edge">
<title>Node0&#45;&gt;Node1</title>
<g id="a_edge112_Node000000_Node000001"><a xlink:title=" ">
<path fill="none" stroke="#63b8ff" d="M50.81,-335.31C60.68,-367.75 83.69,-429.58 124,-466 127.85,-469.48 132.41,-472.35 137.17,-474.72"/>
<polygon fill="#63b8ff" stroke="#63b8ff" points="54.22,-334.52 48.08,-325.88 47.5,-336.46 54.22,-334.52"/>
</a>
</g>
</g>
<!-- Node2 -->
<g id="Node000002" class="node">
<title>Node2</title>
<g id="a_Node000002"><a xlink:href="class_equipment_item.html" target="_top" xlink:title=" ">
<polygon fill="white" stroke="#666666" points="213.88,-457 131.88,-457 131.88,-437 213.88,-437 213.88,-457"/>
<text text-anchor="middle" x="172.88" y="-443.5" font-family="Helvetica,sans-Serif" font-size="10.00">EquipmentItem</text>
</a>
</g>
</g>
<!-- Node0&#45;&gt;Node2 -->
<g id="edge113_Node000000_Node000002" class="edge">
<title>Node0&#45;&gt;Node2</title>
<g id="a_edge113_Node000000_Node000002"><a xlink:title=" ">
<path fill="none" stroke="#63b8ff" d="M54.53,-334.58C67.14,-359.78 91.63,-402.28 124,-428 128.2,-431.34 133.06,-434.15 138.04,-436.51"/>
<polygon fill="#63b8ff" stroke="#63b8ff" points="57.74,-333.18 50.24,-325.7 51.44,-336.23 57.74,-333.18"/>
</a>
</g>
</g>
<!-- Node3 -->
<g id="Node000003" class="node">
<title>Node3</title>
<g id="a_Node000003"><a xlink:href="class_item_types.html" target="_top" xlink:title=" ">
<polygon fill="white" stroke="#666666" points="203.75,-419 142,-419 142,-399 203.75,-399 203.75,-419"/>
<text text-anchor="middle" x="172.88" y="-405.5" font-family="Helvetica,sans-Serif" font-size="10.00">ItemTypes</text>
</a>
</g>
</g>
<!-- Node0&#45;&gt;Node3 -->
<g id="edge114_Node000000_Node000003" class="edge">
<title>Node0&#45;&gt;Node3</title>
<g id="a_edge114_Node000000_Node000003"><a xlink:title=" ">
<path fill="none" stroke="#63b8ff" d="M60.78,-332.89C75.65,-349.73 99.29,-374.09 124,-390 129.41,-393.48 135.57,-396.51 141.62,-399.06"/>
<polygon fill="#63b8ff" stroke="#63b8ff" points="63.63,-330.85 54.45,-325.56 58.33,-335.42 63.63,-330.85"/>
</a>
</g>
</g>
<!-- Node4 -->
<g id="Node000004" class="node">
<title>Node4</title>
<g id="a_Node000004"><a xlink:href="class_mystery_event_data.html" target="_top" xlink:title=" ">
<polygon fill="white" stroke="#666666" points="221.75,-381 124,-381 124,-361 221.75,-361 221.75,-381"/>
<text text-anchor="middle" x="172.88" y="-367.5" font-family="Helvetica,sans-Serif" font-size="10.00">MysteryEventData</text>
</a>
</g>
</g>
<!-- Node0&#45;&gt;Node4 -->
<g id="edge115_Node000000_Node000004" class="edge">
<title>Node0&#45;&gt;Node4</title>
<g id="a_edge115_Node000000_Node000004"><a xlink:title=" ">
<path fill="none" stroke="#63b8ff" d="M75.58,-329.33C90.13,-336.46 107.85,-344.92 124,-352 130.63,-354.91 137.86,-357.88 144.65,-360.58"/>
<polygon fill="#63b8ff" stroke="#63b8ff" points="77.48,-326.36 66.96,-325.07 74.38,-332.64 77.48,-326.36"/>
</a>
</g>
</g>
<!-- Node5 -->
<g id="Node000005" class="node">
<title>Node5</title>
<g id="a_Node000005"><a xlink:href="class_outer_hull_data.html" target="_top" xlink:title="외갑판의 데이터를 담는 ScriptableObject">
<polygon fill="white" stroke="#666666" points="212,-343 133.75,-343 133.75,-323 212,-323 212,-343"/>
<text text-anchor="middle" x="172.88" y="-329.5" font-family="Helvetica,sans-Serif" font-size="10.00">OuterHullData</text>
</a>
</g>
</g>
<!-- Node0&#45;&gt;Node5 -->
<g id="edge116_Node000000_Node000005" class="edge">
<title>Node0&#45;&gt;Node5</title>
<g id="a_edge116_Node000000_Node000005"><a xlink:title=" ">
<path fill="none" stroke="#63b8ff" d="M99.53,-322.17C110.95,-323.88 122.75,-325.64 133.43,-327.24"/>
<polygon fill="#63b8ff" stroke="#63b8ff" points="100.21,-318.73 89.81,-320.71 99.18,-325.65 100.21,-318.73"/>
</a>
</g>
</g>
<!-- Node6 -->
<g id="Node000006" class="node">
<title>Node6</title>
<g id="a_Node000006"><a xlink:href="class_random_event.html" target="_top" xlink:title=" ">
<polygon fill="white" stroke="#666666" points="212,-305 133.75,-305 133.75,-285 212,-285 212,-305"/>
<text text-anchor="middle" x="172.88" y="-291.5" font-family="Helvetica,sans-Serif" font-size="10.00">RandomEvent</text>
</a>
</g>
</g>
<!-- Node0&#45;&gt;Node6 -->
<g id="edge117_Node000000_Node000006" class="edge">
<title>Node0&#45;&gt;Node6</title>
<g id="a_edge117_Node000000_Node000006"><a xlink:title=" ">
<path fill="none" stroke="#63b8ff" d="M99.53,-305.83C110.95,-304.12 122.75,-302.36 133.43,-300.76"/>
<polygon fill="#63b8ff" stroke="#63b8ff" points="99.18,-302.35 89.81,-307.29 100.21,-309.27 99.18,-302.35"/>
</a>
</g>
</g>
<!-- Node7 -->
<g id="Node000007" class="node">
<title>Node7</title>
<g id="a_Node000007"><a xlink:href="class_random_quest.html" target="_top" xlink:title="랜덤 퀘스트 정보 관련 클래스">
<polygon fill="white" stroke="#666666" points="212.38,-267 133.38,-267 133.38,-247 212.38,-247 212.38,-267"/>
<text text-anchor="middle" x="172.88" y="-253.5" font-family="Helvetica,sans-Serif" font-size="10.00">RandomQuest</text>
</a>
</g>
</g>
<!-- Node0&#45;&gt;Node7 -->
<g id="edge118_Node000000_Node000007" class="edge">
<title>Node0&#45;&gt;Node7</title>
<g id="a_edge118_Node000000_Node000007"><a xlink:title=" ">
<path fill="none" stroke="#63b8ff" d="M75.58,-298.67C90.13,-291.54 107.85,-283.08 124,-276 130.63,-273.09 137.86,-270.12 144.65,-267.42"/>
<polygon fill="#63b8ff" stroke="#63b8ff" points="74.38,-295.36 66.96,-302.93 77.48,-301.64 74.38,-295.36"/>
</a>
</g>
</g>
<!-- Node8 -->
<g id="Node000008" class="node">
<title>Node8</title>
<g id="a_Node000008"><a xlink:href="class_room_data.html" target="_top" xlink:title="모든 방 유형의 기본 데이터를 정의하는 추상 ScriptableObject">
<polygon fill="white" stroke="#666666" points="204.5,-229 141.25,-229 141.25,-209 204.5,-209 204.5,-229"/>
<text text-anchor="middle" x="172.88" y="-215.5" font-family="Helvetica,sans-Serif" font-size="10.00">RoomData</text>
</a>
</g>
</g>
<!-- Node0&#45;&gt;Node8 -->
<g id="edge119_Node000000_Node000008" class="edge">
<title>Node0&#45;&gt;Node8</title>
<g id="a_edge119_Node000000_Node000008"><a xlink:title=" ">
<path fill="none" stroke="#63b8ff" d="M60.78,-295.11C75.65,-278.27 99.29,-253.91 124,-238 129.19,-234.66 135.06,-231.74 140.86,-229.26"/>
<polygon fill="#63b8ff" stroke="#63b8ff" points="58.33,-292.58 54.45,-302.44 63.63,-297.15 58.33,-292.58"/>
</a>
</g>
</g>
<!-- Node22 -->
<g id="Node000022" class="node">
<title>Node22</title>
<g id="a_Node000022"><a xlink:href="class_ship_stat_settings.html" target="_top" xlink:title="Ship 스탯의 최소값과 최대값을 관리하는 ScriptableObject.">
<polygon fill="white" stroke="#666666" points="217.62,-191 128.12,-191 128.12,-171 217.62,-171 217.62,-191"/>
<text text-anchor="middle" x="172.88" y="-177.5" font-family="Helvetica,sans-Serif" font-size="10.00">ShipStatSettings</text>
</a>
</g>
</g>
<!-- Node0&#45;&gt;Node22 -->
<g id="edge133_Node000000_Node000022" class="edge">
<title>Node0&#45;&gt;Node22</title>
<g id="a_edge133_Node000000_Node000022"><a xlink:title=" ">
<path fill="none" stroke="#63b8ff" d="M54.53,-293.42C67.14,-268.22 91.63,-225.72 124,-200 128.2,-196.66 133.06,-193.85 138.04,-191.49"/>
<polygon fill="#63b8ff" stroke="#63b8ff" points="51.44,-291.77 50.24,-302.3 57.74,-294.82 51.44,-291.77"/>
</a>
</g>
</g>
<!-- Node23 -->
<g id="Node000023" class="node">
<title>Node23</title>
<g id="a_Node000023"><a xlink:href="class_ship_weapon_data.html" target="_top" xlink:title=" ">
<polygon fill="white" stroke="#666666" points="218.75,-153 127,-153 127,-133 218.75,-133 218.75,-153"/>
<text text-anchor="middle" x="172.88" y="-139.5" font-family="Helvetica,sans-Serif" font-size="10.00">ShipWeaponData</text>
</a>
</g>
</g>
<!-- Node0&#45;&gt;Node23 -->
<g id="edge134_Node000000_Node000023" class="edge">
<title>Node0&#45;&gt;Node23</title>
<g id="a_edge134_Node000000_Node000023"><a xlink:title=" ">
<path fill="none" stroke="#63b8ff" d="M50.81,-292.69C60.68,-260.25 83.69,-198.42 124,-162 127.85,-158.52 132.41,-155.65 137.17,-153.28"/>
<polygon fill="#63b8ff" stroke="#63b8ff" points="47.5,-291.54 48.08,-302.12 54.22,-293.48 47.5,-291.54"/>
</a>
</g>
</g>
<!-- Node9 -->
<g id="Node000009" class="node">
<title>Node9</title>
<g id="a_Node000009"><a xlink:href="class_room_data-1-g.html" target="_top" xlink:title=" ">
<polygon fill="white" stroke="#666666" points="344.25,-229 257.75,-229 257.75,-209 344.25,-209 344.25,-229"/>
<text text-anchor="middle" x="301" y="-215.5" font-family="Helvetica,sans-Serif" font-size="10.00">RoomData&lt; T &gt;</text>
</a>
</g>
</g>
<!-- Node8&#45;&gt;Node9 -->
<g id="edge120_Node000008_Node000009" class="edge">
<title>Node8&#45;&gt;Node9</title>
<g id="a_edge120_Node000008_Node000009"><a xlink:title=" ">
<path fill="none" stroke="#63b8ff" d="M216.04,-219C229.4,-219 244.18,-219 257.56,-219"/>
<polygon fill="#63b8ff" stroke="#63b8ff" points="216.24,-215.5 206.24,-219 216.24,-222.5 216.24,-215.5"/>
</a>
</g>
</g>
<!-- Node10 -->
<g id="Node000010" class="node">
<title>Node10</title>
<g id="a_Node000010"><a xlink:href="class_ammunition_room_data.html" target="_top" xlink:title="탄약고의 레벨별 데이터를 저장하는 ScriptableObject">
<polygon fill="white" stroke="#666666" points="502.75,-438 387.75,-438 387.75,-418 502.75,-418 502.75,-438"/>
<text text-anchor="middle" x="445.25" y="-424.5" font-family="Helvetica,sans-Serif" font-size="10.00">AmmunitionRoomData</text>
</a>
</g>
</g>
<!-- Node9&#45;&gt;Node10 -->
<g id="edge121_Node000009_Node000010" class="edge">
<title>Node9&#45;&gt;Node10</title>
<g id="a_edge121_Node000009_Node000010"><a xlink:title=" ">
<path fill="none" stroke="#63b8ff" d="M304.8,-240.77C311.03,-280.15 329.71,-363.37 380.25,-409 384.04,-412.42 388.41,-415.22 393.06,-417.52"/>
<polygon fill="#63b8ff" stroke="#63b8ff" points="308.27,-240.31 303.38,-230.92 301.34,-241.31 308.27,-240.31"/>
</a>
</g>
</g>
<!-- Node11 -->
<g id="Node000011" class="node">
<title>Node11</title>
<g id="a_Node000011"><a xlink:href="class_cockpit_room_data.html" target="_top" xlink:title="조종실의 레벨별 데이터를 저장하는 ScriptableObject">
<polygon fill="white" stroke="#666666" points="493.75,-400 396.75,-400 396.75,-380 493.75,-380 493.75,-400"/>
<text text-anchor="middle" x="445.25" y="-386.5" font-family="Helvetica,sans-Serif" font-size="10.00">CockpitRoomData</text>
</a>
</g>
</g>
<!-- Node9&#45;&gt;Node11 -->
<g id="edge122_Node000009_Node000011" class="edge">
<title>Node9&#45;&gt;Node11</title>
<g id="a_edge122_Node000009_Node000011"><a xlink:title=" ">
<path fill="none" stroke="#63b8ff" d="M307.18,-240.28C316.28,-273.18 338.3,-336.24 380.25,-371 384.98,-374.92 390.49,-378.03 396.27,-380.5"/>
<polygon fill="#63b8ff" stroke="#63b8ff" points="310.6,-239.52 304.69,-230.73 303.82,-241.29 310.6,-239.52"/>
</a>
</g>
</g>
<!-- Node12 -->
<g id="Node000012" class="node">
<title>Node12</title>
<g id="a_Node000012"><a xlink:href="class_crew_quarters_room_data.html" target="_top" xlink:title="승무원 선실의 데이터를 저장하는 ScriptableObject">
<polygon fill="white" stroke="#666666" points="507.25,-362 383.25,-362 383.25,-342 507.25,-342 507.25,-362"/>
<text text-anchor="middle" x="445.25" y="-348.5" font-family="Helvetica,sans-Serif" font-size="10.00">CrewQuartersRoomData</text>
</a>
</g>
</g>
<!-- Node9&#45;&gt;Node12 -->
<g id="edge123_Node000009_Node000012" class="edge">
<title>Node9&#45;&gt;Node12</title>
<g id="a_edge123_Node000009_Node000012"><a xlink:title=" ">
<path fill="none" stroke="#63b8ff" d="M310.84,-239.67C322.86,-265.31 346.75,-308.63 380.25,-333 384.94,-336.41 390.23,-339.21 395.72,-341.51"/>
<polygon fill="#63b8ff" stroke="#63b8ff" points="314.08,-238.33 306.79,-230.64 307.69,-241.2 314.08,-238.33"/>
</a>
</g>
</g>
<!-- Node13 -->
<g id="Node000013" class="node">
<title>Node13</title>
<g id="a_Node000013"><a xlink:href="class_engine_room_data.html" target="_top" xlink:title="엔진실의 레벨별 데이터를 저장하는 ScriptableObject">
<polygon fill="white" stroke="#666666" points="491.88,-324 398.62,-324 398.62,-304 491.88,-304 491.88,-324"/>
<text text-anchor="middle" x="445.25" y="-310.5" font-family="Helvetica,sans-Serif" font-size="10.00">EngineRoomData</text>
</a>
</g>
</g>
<!-- Node9&#45;&gt;Node13 -->
<g id="edge124_Node000009_Node000013" class="edge">
<title>Node9&#45;&gt;Node13</title>
<g id="a_edge124_Node000009_Node000013"><a xlink:title=" ">
<path fill="none" stroke="#63b8ff" d="M317.03,-238.15C331.5,-255.36 354.88,-280.14 380.25,-295 386.05,-298.4 392.51,-301.23 399.03,-303.58"/>
<polygon fill="#63b8ff" stroke="#63b8ff" points="319.94,-236.18 310.91,-230.65 314.52,-240.61 319.94,-236.18"/>
</a>
</g>
</g>
<!-- Node14 -->
<g id="Node000014" class="node">
<title>Node14</title>
<g id="a_Node000014"><a xlink:href="class_life_support_room_data.html" target="_top" xlink:title="생활 시설의 데이터를 저장하는 ScriptableObject">
<polygon fill="white" stroke="#666666" points="501.62,-286 388.88,-286 388.88,-266 501.62,-266 501.62,-286"/>
<text text-anchor="middle" x="445.25" y="-272.5" font-family="Helvetica,sans-Serif" font-size="10.00">LifeSupportRoomData</text>
</a>
</g>
</g>
<!-- Node9&#45;&gt;Node14 -->
<g id="edge125_Node000009_Node000014" class="edge">
<title>Node9&#45;&gt;Node14</title>
<g id="a_edge125_Node000009_Node000014"><a xlink:title=" ">
<path fill="none" stroke="#63b8ff" d="M331.11,-234.55C345.63,-241.93 363.6,-250.53 380.25,-257 388.25,-260.1 396.97,-263 405.32,-265.55"/>
<polygon fill="#63b8ff" stroke="#63b8ff" points="333.06,-231.61 322.57,-230.13 329.84,-237.83 333.06,-231.61"/>
</a>
</g>
</g>
<!-- Node15 -->
<g id="Node000015" class="node">
<title>Node15</title>
<g id="a_Node000015"><a xlink:href="class_med_bay_room_data.html" target="_top" xlink:title="의무실의 레벨별 데이터를 저장하는 ScriptableObject">
<polygon fill="white" stroke="#666666" points="494.88,-248 395.62,-248 395.62,-228 494.88,-228 494.88,-248"/>
<text text-anchor="middle" x="445.25" y="-234.5" font-family="Helvetica,sans-Serif" font-size="10.00">MedBayRoomData</text>
</a>
</g>
</g>
<!-- Node9&#45;&gt;Node15 -->
<g id="edge126_Node000009_Node000015" class="edge">
<title>Node9&#45;&gt;Node15</title>
<g id="a_edge126_Node000009_Node000015"><a xlink:title=" ">
<path fill="none" stroke="#63b8ff" d="M355.83,-226.19C368.81,-227.92 382.62,-229.77 395.36,-231.47"/>
<polygon fill="#63b8ff" stroke="#63b8ff" points="356.56,-222.76 346.18,-224.9 355.63,-229.69 356.56,-222.76"/>
</a>
</g>
</g>
<!-- Node16 -->
<g id="Node000016" class="node">
<title>Node16</title>
<g id="a_Node000016"><a xlink:href="class_oxygen_room_data.html" target="_top" xlink:title="산소실의 레벨별 데이터를 저장하는 ScriptableObject">
<polygon fill="white" stroke="#666666" points="493.75,-210 396.75,-210 396.75,-190 493.75,-190 493.75,-210"/>
<text text-anchor="middle" x="445.25" y="-196.5" font-family="Helvetica,sans-Serif" font-size="10.00">OxygenRoomData</text>
</a>
</g>
</g>
<!-- Node9&#45;&gt;Node16 -->
<g id="edge127_Node000009_Node000016" class="edge">
<title>Node9&#45;&gt;Node16</title>
<g id="a_edge127_Node000009_Node000016"><a xlink:title=" ">
<path fill="none" stroke="#63b8ff" d="M356.07,-211.78C369.33,-210.01 383.43,-208.12 396.37,-206.4"/>
<polygon fill="#63b8ff" stroke="#63b8ff" points="355.63,-208.31 346.18,-213.1 356.56,-215.24 355.63,-208.31"/>
</a>
</g>
</g>
<!-- Node17 -->
<g id="Node000017" class="node">
<title>Node17</title>
<g id="a_Node000017"><a xlink:href="class_power_room_data.html" target="_top" xlink:title="전력실의 레벨별 데이터를 저장하는 ScriptableObject">
<polygon fill="white" stroke="#666666" points="490.75,-172 399.75,-172 399.75,-152 490.75,-152 490.75,-172"/>
<text text-anchor="middle" x="445.25" y="-158.5" font-family="Helvetica,sans-Serif" font-size="10.00">PowerRoomData</text>
</a>
</g>
</g>
<!-- Node9&#45;&gt;Node17 -->
<g id="edge128_Node000009_Node000017" class="edge">
<title>Node9&#45;&gt;Node17</title>
<g id="a_edge128_Node000009_Node000017"><a xlink:title=" ">
<path fill="none" stroke="#63b8ff" d="M331.11,-203.45C345.63,-196.07 363.6,-187.47 380.25,-181 388.25,-177.9 396.97,-175 405.32,-172.45"/>
<polygon fill="#63b8ff" stroke="#63b8ff" points="329.84,-200.17 322.57,-207.87 333.06,-206.39 329.84,-200.17"/>
</a>
</g>
</g>
<!-- Node18 -->
<g id="Node000018" class="node">
<title>Node18</title>
<g id="a_Node000018"><a xlink:href="class_shield_room_data.html" target="_top" xlink:title="배리어실의 레벨별 데이터를 저장하는 ScriptableObject">
<polygon fill="white" stroke="#666666" points="490.38,-134 400.12,-134 400.12,-114 490.38,-114 490.38,-134"/>
<text text-anchor="middle" x="445.25" y="-120.5" font-family="Helvetica,sans-Serif" font-size="10.00">ShieldRoomData</text>
</a>
</g>
</g>
<!-- Node9&#45;&gt;Node18 -->
<g id="edge129_Node000009_Node000018" class="edge">
<title>Node9&#45;&gt;Node18</title>
<g id="a_edge129_Node000009_Node000018"><a xlink:title=" ">
<path fill="none" stroke="#63b8ff" d="M317.03,-199.85C331.5,-182.64 354.88,-157.86 380.25,-143 386.25,-139.49 392.96,-136.58 399.7,-134.18"/>
<polygon fill="#63b8ff" stroke="#63b8ff" points="314.52,-197.39 310.91,-207.35 319.94,-201.82 314.52,-197.39"/>
</a>
</g>
</g>
<!-- Node19 -->
<g id="Node000019" class="node">
<title>Node19</title>
<g id="a_Node000019"><a xlink:href="class_storage_room_base_data.html" target="_top" xlink:title="모든 창고 타입의 기본 데이터 클래스">
<polygon fill="white" stroke="#666666" points="505,-96 385.5,-96 385.5,-76 505,-76 505,-96"/>
<text text-anchor="middle" x="445.25" y="-82.5" font-family="Helvetica,sans-Serif" font-size="10.00">StorageRoomBaseData</text>
</a>
</g>
</g>
<!-- Node9&#45;&gt;Node19 -->
<g id="edge130_Node000009_Node000019" class="edge">
<title>Node9&#45;&gt;Node19</title>
<g id="a_edge130_Node000009_Node000019"><a xlink:title=" ">
<path fill="none" stroke="#63b8ff" d="M310.84,-198.33C322.86,-172.69 346.75,-129.37 380.25,-105 384.94,-101.59 390.23,-98.79 395.72,-96.49"/>
<polygon fill="#63b8ff" stroke="#63b8ff" points="307.69,-196.8 306.79,-207.36 314.08,-199.67 307.69,-196.8"/>
</a>
</g>
</g>
<!-- Node20 -->
<g id="Node000020" class="node">
<title>Node20</title>
<g id="a_Node000020"><a xlink:href="class_teleport_room_data.html" target="_top" xlink:title="텔레포트실의 레벨별 데이터를 저장하는 ScriptableObject">
<polygon fill="white" stroke="#666666" points="494.12,-58 396.38,-58 396.38,-38 494.12,-38 494.12,-58"/>
<text text-anchor="middle" x="445.25" y="-44.5" font-family="Helvetica,sans-Serif" font-size="10.00">TeleportRoomData</text>
</a>
</g>
</g>
<!-- Node9&#45;&gt;Node20 -->
<g id="edge131_Node000009_Node000020" class="edge">
<title>Node9&#45;&gt;Node20</title>
<g id="a_edge131_Node000009_Node000020"><a xlink:title=" ">
<path fill="none" stroke="#63b8ff" d="M307.18,-197.72C316.28,-164.82 338.3,-101.76 380.25,-67 384.89,-63.15 390.29,-60.09 395.94,-57.64"/>
<polygon fill="#63b8ff" stroke="#63b8ff" points="303.82,-196.71 304.69,-207.27 310.6,-198.48 303.82,-196.71"/>
</a>
</g>
</g>
<!-- Node21 -->
<g id="Node000021" class="node">
<title>Node21</title>
<g id="a_Node000021"><a xlink:href="class_weapon_control_room_data.html" target="_top" xlink:title="조준석의 레벨별 데이터를 저장하는 ScriptableObject">
<polygon fill="white" stroke="#666666" points="510.25,-20 380.25,-20 380.25,0 510.25,0 510.25,-20"/>
<text text-anchor="middle" x="445.25" y="-6.5" font-family="Helvetica,sans-Serif" font-size="10.00">WeaponControlRoomData</text>
</a>
</g>
</g>
<!-- Node9&#45;&gt;Node21 -->
<g id="edge132_Node000009_Node000021" class="edge">
<title>Node9&#45;&gt;Node21</title>
<g id="a_edge132_Node000009_Node000021"><a xlink:title=" ">
<path fill="none" stroke="#63b8ff" d="M304.8,-197.23C311.03,-157.85 329.71,-74.63 380.25,-29 384.04,-25.58 388.41,-22.78 393.06,-20.48"/>
<polygon fill="#63b8ff" stroke="#63b8ff" points="301.34,-196.69 303.38,-207.08 308.27,-197.69 301.34,-196.69"/>
</a>
</g>
</g>
</g>
</svg>
