<?xml version="1.0" encoding="UTF-8" standalone="no"?>
<!DOCTYPE svg PUBLIC "-//W3C//DTD SVG 1.1//EN"
 "http://www.w3.org/Graphics/SVG/1.1/DTD/svg11.dtd">
<!-- Generated by graphviz version 12.2.1 (20241206.2353)
 -->
<!-- Title: Graphical Class Hierarchy Pages: 1 -->
<svg width="281pt" height="366pt"
 viewBox="0.00 0.00 280.75 366.00" xmlns="http://www.w3.org/2000/svg" xmlns:xlink="http://www.w3.org/1999/xlink">
<g id="graph0" class="graph" transform="scale(1 1) rotate(0) translate(4 362)">
<title>Graphical Class Hierarchy</title>
<!-- Node0 -->
<g id="Node000000" class="node">
<title>Node0</title>
<g id="a_Node000000"><a xlink:title=" ">
<polygon fill="#e0e0e0" stroke="#999999" points="65.5,-177 0,-177 0,-157 65.5,-157 65.5,-177"/>
<text text-anchor="middle" x="32.75" y="-163.5" font-family="Helvetica,sans-Serif" font-size="10.00">RoomLevel</text>
</a>
</g>
</g>
<!-- Node1 -->
<g id="Node000001" class="node">
<title>Node1</title>
<g id="a_Node000001"><a xlink:href="class_ammunition_room_data_1_1_ammunition_room_level.html" target="_top" xlink:title=" ">
<polygon fill="white" stroke="#666666" points="272,-358 102.25,-358 102.25,-326 272,-326 272,-358"/>
<text text-anchor="start" x="110.25" y="-344.5" font-family="Helvetica,sans-Serif" font-size="10.00">AmmunitionRoomData.Ammunition</text>
<text text-anchor="middle" x="187.12" y="-332.5" font-family="Helvetica,sans-Serif" font-size="10.00">RoomLevel</text>
</a>
</g>
</g>
<!-- Node0&#45;&gt;Node1 -->
<g id="edge112_Node000000_Node000001" class="edge">
<title>Node0&#45;&gt;Node1</title>
<g id="a_edge112_Node000000_Node000001"><a xlink:title=" ">
<path fill="none" stroke="#63b8ff" d="M37.55,-188.39C44.45,-220.93 62.14,-282.69 101.5,-317 105.31,-320.32 109.55,-323.2 114.03,-325.7"/>
<polygon fill="#63b8ff" stroke="#63b8ff" points="40.99,-187.74 35.64,-178.6 34.12,-189.08 40.99,-187.74"/>
</a>
</g>
</g>
<!-- Node2 -->
<g id="Node000002" class="node">
<title>Node2</title>
<g id="a_Node000002"><a xlink:href="class_cockpit_room_data_1_1_cockpit_room_level.html" target="_top" xlink:title=" ">
<polygon fill="white" stroke="#666666" points="267.12,-308 107.12,-308 107.12,-276 267.12,-276 267.12,-308"/>
<text text-anchor="start" x="115.12" y="-294.5" font-family="Helvetica,sans-Serif" font-size="10.00">CockpitRoomData.CockpitRoom</text>
<text text-anchor="middle" x="187.12" y="-282.5" font-family="Helvetica,sans-Serif" font-size="10.00">Level</text>
</a>
</g>
</g>
<!-- Node0&#45;&gt;Node2 -->
<g id="edge113_Node000000_Node000002" class="edge">
<title>Node0&#45;&gt;Node2</title>
<g id="a_edge113_Node000000_Node000002"><a xlink:title=" ">
<path fill="none" stroke="#63b8ff" d="M42.41,-187.44C53.06,-210.15 73.26,-246.35 101.5,-267 105.95,-270.25 110.83,-273.09 115.91,-275.56"/>
<polygon fill="#63b8ff" stroke="#63b8ff" points="45.73,-186.3 38.45,-178.6 39.34,-189.16 45.73,-186.3"/>
</a>
</g>
</g>
<!-- Node3 -->
<g id="Node000003" class="node">
<title>Node3</title>
<g id="a_Node000003"><a xlink:href="class_crew_quarters_room_data_1_1_crew_quarters_room_level.html" target="_top" xlink:title=" ">
<polygon fill="white" stroke="#666666" points="262.25,-258 112,-258 112,-226 262.25,-226 262.25,-258"/>
<text text-anchor="start" x="120" y="-244.5" font-family="Helvetica,sans-Serif" font-size="10.00">CrewQuartersRoomData.Crew</text>
<text text-anchor="middle" x="187.12" y="-232.5" font-family="Helvetica,sans-Serif" font-size="10.00">QuartersRoomLevel</text>
</a>
</g>
</g>
<!-- Node0&#45;&gt;Node3 -->
<g id="edge114_Node000000_Node000003" class="edge">
<title>Node0&#45;&gt;Node3</title>
<g id="a_edge114_Node000000_Node000003"><a xlink:title=" ">
<path fill="none" stroke="#63b8ff" d="M53.42,-184.4C66.33,-195.07 84.02,-208.3 101.5,-217 107.95,-220.21 114.88,-223.08 121.9,-225.63"/>
<polygon fill="#63b8ff" stroke="#63b8ff" points="55.97,-181.98 46.08,-178.17 51.43,-187.31 55.97,-181.98"/>
</a>
</g>
</g>
<!-- Node4 -->
<g id="Node000004" class="node">
<title>Node4</title>
<g id="a_Node000004"><a xlink:href="class_engine_room_data_1_1_engine_room_level.html" target="_top" xlink:title=" ">
<polygon fill="white" stroke="#666666" points="263.38,-208 110.88,-208 110.88,-176 263.38,-176 263.38,-208"/>
<text text-anchor="start" x="118.88" y="-194.5" font-family="Helvetica,sans-Serif" font-size="10.00">EngineRoomData.EngineRoom</text>
<text text-anchor="middle" x="187.12" y="-182.5" font-family="Helvetica,sans-Serif" font-size="10.00">Level</text>
</a>
</g>
</g>
<!-- Node0&#45;&gt;Node4 -->
<g id="edge115_Node000000_Node000004" class="edge">
<title>Node0&#45;&gt;Node4</title>
<g id="a_edge115_Node000000_Node000004"><a xlink:title=" ">
<path fill="none" stroke="#63b8ff" d="M77.05,-174.1C87.55,-175.83 99.08,-177.72 110.59,-179.61"/>
<polygon fill="#63b8ff" stroke="#63b8ff" points="77.62,-170.65 67.19,-172.49 76.49,-177.56 77.62,-170.65"/>
</a>
</g>
</g>
<!-- Node5 -->
<g id="Node000005" class="node">
<title>Node5</title>
<g id="a_Node000005"><a xlink:href="class_life_support_room_data_1_1_life_support_room_level.html" target="_top" xlink:title=" ">
<polygon fill="white" stroke="#666666" points="252.88,-158 121.38,-158 121.38,-126 252.88,-126 252.88,-158"/>
<text text-anchor="start" x="129.38" y="-144.5" font-family="Helvetica,sans-Serif" font-size="10.00">LifeSupportRoomData.Life</text>
<text text-anchor="middle" x="187.12" y="-132.5" font-family="Helvetica,sans-Serif" font-size="10.00">SupportRoomLevel</text>
</a>
</g>
</g>
<!-- Node0&#45;&gt;Node5 -->
<g id="edge116_Node000000_Node000005" class="edge">
<title>Node0&#45;&gt;Node5</title>
<g id="a_edge116_Node000000_Node000005"><a xlink:title=" ">
<path fill="none" stroke="#63b8ff" d="M76.75,-159.94C90.49,-157.69 106,-155.15 120.94,-152.69"/>
<polygon fill="#63b8ff" stroke="#63b8ff" points="76.49,-156.44 67.19,-161.51 77.62,-163.35 76.49,-156.44"/>
</a>
</g>
</g>
<!-- Node6 -->
<g id="Node000006" class="node">
<title>Node6</title>
<g id="a_Node000006"><a xlink:href="class_med_bay_room_data_1_1_med_bay_room_level.html" target="_top" xlink:title=" ">
<polygon fill="white" stroke="#666666" points="269.38,-108 104.88,-108 104.88,-76 269.38,-76 269.38,-108"/>
<text text-anchor="start" x="112.88" y="-94.5" font-family="Helvetica,sans-Serif" font-size="10.00">MedBayRoomData.MedBayRoom</text>
<text text-anchor="middle" x="187.12" y="-82.5" font-family="Helvetica,sans-Serif" font-size="10.00">Level</text>
</a>
</g>
</g>
<!-- Node0&#45;&gt;Node6 -->
<g id="edge117_Node000000_Node000006" class="edge">
<title>Node0&#45;&gt;Node6</title>
<g id="a_edge117_Node000000_Node000006"><a xlink:title=" ">
<path fill="none" stroke="#63b8ff" d="M53.42,-149.6C66.33,-138.93 84.02,-125.7 101.5,-117 107.95,-113.79 114.88,-110.92 121.9,-108.37"/>
<polygon fill="#63b8ff" stroke="#63b8ff" points="51.43,-146.69 46.08,-155.83 55.97,-152.02 51.43,-146.69"/>
</a>
</g>
</g>
<!-- Node7 -->
<g id="Node000007" class="node">
<title>Node7</title>
<g id="a_Node000007"><a xlink:href="class_oxygen_room_data_1_1_oxygen_level.html" target="_top" xlink:title=" ">
<polygon fill="white" stroke="#666666" points="265.62,-58 108.62,-58 108.62,-38 265.62,-38 265.62,-58"/>
<text text-anchor="middle" x="187.12" y="-44.5" font-family="Helvetica,sans-Serif" font-size="10.00">OxygenRoomData.OxygenLevel</text>
</a>
</g>
</g>
<!-- Node0&#45;&gt;Node7 -->
<g id="edge118_Node000000_Node000007" class="edge">
<title>Node0&#45;&gt;Node7</title>
<g id="a_edge118_Node000000_Node000007"><a xlink:title=" ">
<path fill="none" stroke="#63b8ff" d="M42.16,-146.22C52.59,-123.19 72.59,-86.7 101.5,-67 106.6,-63.52 112.24,-60.67 118.11,-58.34"/>
<polygon fill="#63b8ff" stroke="#63b8ff" points="39.03,-144.63 38.3,-155.2 45.46,-147.4 39.03,-144.63"/>
</a>
</g>
</g>
<!-- Node8 -->
<g id="Node000008" class="node">
<title>Node8</title>
<g id="a_Node000008"><a xlink:href="class_power_room_data_1_1_power_room_level.html" target="_top" xlink:title=" ">
<polygon fill="white" stroke="#666666" points="272.75,-20 101.5,-20 101.5,0 272.75,0 272.75,-20"/>
<text text-anchor="middle" x="187.12" y="-6.5" font-family="Helvetica,sans-Serif" font-size="10.00">PowerRoomData.PowerRoomLevel</text>
</a>
</g>
</g>
<!-- Node0&#45;&gt;Node8 -->
<g id="edge119_Node000000_Node000008" class="edge">
<title>Node0&#45;&gt;Node8</title>
<g id="a_edge119_Node000000_Node000008"><a xlink:title=" ">
<path fill="none" stroke="#63b8ff" d="M38.12,-145.69C45.57,-115 63.74,-58.77 101.5,-29 105.88,-25.55 110.75,-22.7 115.9,-20.35"/>
<polygon fill="#63b8ff" stroke="#63b8ff" points="34.74,-144.78 35.96,-155.31 41.57,-146.32 34.74,-144.78"/>
</a>
</g>
</g>
</g>
</svg>
