<?xml version="1.0" encoding="UTF-8" standalone="no"?>
<!DOCTYPE svg PUBLIC "-//W3C//DTD SVG 1.1//EN"
 "http://www.w3.org/Graphics/SVG/1.1/DTD/svg11.dtd">
<!-- Generated by graphviz version 12.2.1 (20241206.2353)
 -->
<!-- Title: Graphical Class Hierarchy Pages: 1 -->
<svg width="328pt" height="190pt"
 viewBox="0.00 0.00 328.00 190.00" xmlns="http://www.w3.org/2000/svg" xmlns:xlink="http://www.w3.org/1999/xlink">
<g id="graph0" class="graph" transform="scale(1 1) rotate(0) translate(4 186)">
<title>Graphical Class Hierarchy</title>
<!-- Node0 -->
<g id="Node000000" class="node">
<title>Node0</title>
<g id="a_Node000000"><a xlink:href="class_room_data_1_1_room_level.html" target="_top" xlink:title=" ">
<polygon fill="white" stroke="#666666" points="115.75,-101 0,-101 0,-81 115.75,-81 115.75,-101"/>
<text text-anchor="middle" x="57.88" y="-87.5" font-family="Helvetica,sans-Serif" font-size="10.00">RoomData.RoomLevel</text>
</a>
</g>
</g>
<!-- Node1 -->
<g id="Node000001" class="node">
<title>Node1</title>
<g id="a_Node000001"><a xlink:href="class_shield_room_data_1_1_shield_room_level.html" target="_top" xlink:title=" ">
<polygon fill="white" stroke="#666666" points="309.12,-182 162.62,-182 162.62,-150 309.12,-150 309.12,-182"/>
<text text-anchor="start" x="170.62" y="-168.5" font-family="Helvetica,sans-Serif" font-size="10.00">ShieldRoomData.ShieldRoom</text>
<text text-anchor="middle" x="235.88" y="-156.5" font-family="Helvetica,sans-Serif" font-size="10.00">Level</text>
</a>
</g>
</g>
<!-- Node0&#45;&gt;Node1 -->
<g id="edge108_Node000000_Node000001" class="edge">
<title>Node0&#45;&gt;Node1</title>
<g id="a_edge108_Node000000_Node000001"><a xlink:title=" ">
<path fill="none" stroke="#63b8ff" d="M85.7,-107.31C103.88,-117.9 128.7,-131.44 151.75,-141 159.13,-144.06 167.01,-146.92 174.88,-149.54"/>
<polygon fill="#63b8ff" stroke="#63b8ff" points="87.52,-104.32 77.13,-102.25 83.95,-110.35 87.52,-104.32"/>
</a>
</g>
</g>
<!-- Node2 -->
<g id="Node000002" class="node">
<title>Node2</title>
<g id="a_Node000002"><a xlink:href="class_storage_room_base_data_1_1_storage_room_base_level.html" target="_top" xlink:title=" ">
<polygon fill="white" stroke="#666666" points="314,-132 157.75,-132 157.75,-100 314,-100 314,-132"/>
<text text-anchor="start" x="165.75" y="-118.5" font-family="Helvetica,sans-Serif" font-size="10.00">StorageRoomBaseData.Storage</text>
<text text-anchor="middle" x="235.88" y="-106.5" font-family="Helvetica,sans-Serif" font-size="10.00">RoomBaseLevel</text>
</a>
</g>
</g>
<!-- Node0&#45;&gt;Node2 -->
<g id="edge109_Node000000_Node000002" class="edge">
<title>Node0&#45;&gt;Node2</title>
<g id="a_edge109_Node000000_Node000002"><a xlink:title=" ">
<path fill="none" stroke="#63b8ff" d="M127.1,-100.69C137.07,-102.11 147.4,-103.57 157.54,-105.01"/>
<polygon fill="#63b8ff" stroke="#63b8ff" points="127.91,-97.27 117.52,-99.33 126.92,-104.2 127.91,-97.27"/>
</a>
</g>
</g>
<!-- Node3 -->
<g id="Node000003" class="node">
<title>Node3</title>
<g id="a_Node000003"><a xlink:href="class_teleport_room_data_1_1_teleport_room_level.html" target="_top" xlink:title=" ">
<polygon fill="white" stroke="#666666" points="303.5,-82 168.25,-82 168.25,-50 303.5,-50 303.5,-82"/>
<text text-anchor="start" x="176.25" y="-68.5" font-family="Helvetica,sans-Serif" font-size="10.00">TeleportRoomData.Teleport</text>
<text text-anchor="middle" x="235.88" y="-56.5" font-family="Helvetica,sans-Serif" font-size="10.00">RoomLevel</text>
</a>
</g>
</g>
<!-- Node0&#45;&gt;Node3 -->
<g id="edge110_Node000000_Node000003" class="edge">
<title>Node0&#45;&gt;Node3</title>
<g id="a_edge110_Node000000_Node000003"><a xlink:title=" ">
<path fill="none" stroke="#63b8ff" d="M127.1,-81.31C140.5,-79.41 154.55,-77.41 167.91,-75.51"/>
<polygon fill="#63b8ff" stroke="#63b8ff" points="126.92,-77.8 117.52,-82.67 127.91,-84.73 126.92,-77.8"/>
</a>
</g>
</g>
<!-- Node4 -->
<g id="Node000004" class="node">
<title>Node4</title>
<g id="a_Node000004"><a xlink:href="class_weapon_control_room_data_1_1_weapon_control_room_level.html" target="_top" xlink:title=" ">
<polygon fill="white" stroke="#666666" points="320,-32 151.75,-32 151.75,0 320,0 320,-32"/>
<text text-anchor="start" x="159.75" y="-18.5" font-family="Helvetica,sans-Serif" font-size="10.00">WeaponControlRoomData.Weapon</text>
<text text-anchor="middle" x="235.88" y="-6.5" font-family="Helvetica,sans-Serif" font-size="10.00">ControlRoomLevel</text>
</a>
</g>
</g>
<!-- Node0&#45;&gt;Node4 -->
<g id="edge111_Node000000_Node000004" class="edge">
<title>Node0&#45;&gt;Node4</title>
<g id="a_edge111_Node000000_Node000004"><a xlink:title=" ">
<path fill="none" stroke="#63b8ff" d="M85.7,-74.69C103.88,-64.1 128.7,-50.56 151.75,-41 159.13,-37.94 167.01,-35.08 174.88,-32.46"/>
<polygon fill="#63b8ff" stroke="#63b8ff" points="83.95,-71.65 77.13,-79.75 87.52,-77.68 83.95,-71.65"/>
</a>
</g>
</g>
</g>
</svg>
