<?xml version="1.0" encoding="UTF-8" standalone="no"?>
<!DOCTYPE svg PUBLIC "-//W3C//DTD SVG 1.1//EN"
 "http://www.w3.org/Graphics/SVG/1.1/DTD/svg11.dtd">
<!-- Generated by graphviz version 12.2.1 (20241206.2353)
 -->
<!-- Title: IUIController Pages: 1 -->
<svg width="183pt" height="458pt"
 viewBox="0.00 0.00 182.75 457.50" xmlns="http://www.w3.org/2000/svg" xmlns:xlink="http://www.w3.org/1999/xlink">
<g id="graph0" class="graph" transform="scale(1 1) rotate(0) translate(4 453.5)">
<title>IUIController</title>
<!-- Node1 -->
<g id="Node000001" class="node">
<title>Node1</title>
<g id="a_Node000001"><a xlink:title=" ">
<polygon fill="#999999" stroke="none" points="140.62,-449.5 34.12,-449.5 34.12,-358.5 140.62,-358.5 140.62,-449.5"/>
<text text-anchor="start" x="53.25" y="-436" font-family="Consolas" font-size="10.00">IUIController</text>
<text text-anchor="start" x="84.75" y="-421.5" font-family="Consolas" font-size="10.00"> </text>
<text text-anchor="start" x="38.12" y="-407" font-family="Consolas" font-size="10.00">+</text>
<text text-anchor="start" x="47.38" y="-407" font-family="Consolas" font-size="10.00">void Initialize()</text>
<text text-anchor="start" x="38.12" y="-392.5" font-family="Consolas" font-size="10.00">+</text>
<text text-anchor="start" x="47.38" y="-392.5" font-family="Consolas" font-size="10.00">void Show()</text>
<text text-anchor="start" x="38.12" y="-378" font-family="Consolas" font-size="10.00">+</text>
<text text-anchor="start" x="47.38" y="-378" font-family="Consolas" font-size="10.00">void Hide()</text>
<text text-anchor="start" x="38.12" y="-363.5" font-family="Consolas" font-size="10.00">+</text>
<text text-anchor="start" x="47.38" y="-363.5" font-family="Consolas" font-size="10.00">void Update()</text>
<polygon fill="#666666" stroke="#666666" points="34.12,-433 34.12,-433 140.62,-433 140.62,-433 34.12,-433"/>
<polygon fill="#666666" stroke="#666666" points="34.12,-418.5 34.12,-418.5 140.62,-418.5 140.62,-418.5 34.12,-418.5"/>
<polygon fill="none" stroke="#666666" points="34.12,-358.5 34.12,-449.5 140.62,-449.5 140.62,-358.5 34.12,-358.5"/>
</a>
</g>
</g>
<!-- Node2 -->
<g id="Node000002" class="node">
<title>Node2</title>
<g id="a_Node000002"><a xlink:href="class_warp_u_i_controller.html" target="_top" xlink:title="워프 과정의 모든 UI 요소를 관리하는 컨트롤러 맵 컴포넌트들의 조정자 역할 수행">
<polygon fill="white" stroke="none" points="174.75,-322.5 0,-322.5 0,0 174.75,0 174.75,-322.5"/>
<text text-anchor="start" x="45.38" y="-309" font-family="Consolas" font-size="10.00">WarpUIController</text>
<text text-anchor="start" x="84.75" y="-294.5" font-family="Consolas" font-size="10.00"> </text>
<text text-anchor="start" x="4" y="-280" font-family="Consolas" font-size="10.00">+</text>
<text text-anchor="start" x="13.25" y="-280" font-family="Consolas" font-size="10.00">void Initialize()</text>
<text text-anchor="start" x="4" y="-265.5" font-family="Consolas" font-size="10.00">+</text>
<text text-anchor="start" x="13.25" y="-265.5" font-family="Consolas" font-size="10.00">void Show()</text>
<text text-anchor="start" x="4" y="-251" font-family="Consolas" font-size="10.00">+</text>
<text text-anchor="start" x="13.25" y="-251" font-family="Consolas" font-size="10.00">void Hide()</text>
<text text-anchor="start" x="4" y="-236.5" font-family="Consolas" font-size="10.00">+</text>
<text text-anchor="start" x="13.25" y="-236.5" font-family="Consolas" font-size="10.00">void Update()</text>
<text text-anchor="start" x="4" y="-222" font-family="Consolas" font-size="10.00">+</text>
<text text-anchor="start" x="13.25" y="-222" font-family="Consolas" font-size="10.00">void SetUIState(WarpUIState</text>
<text text-anchor="start" x="13.25" y="-211.5" font-family="Consolas" font-size="10.00"> state)</text>
<text text-anchor="start" x="4" y="-197" font-family="Consolas" font-size="10.00">+</text>
<text text-anchor="start" x="13.25" y="-197" font-family="Consolas" font-size="10.00">void SetArrivalPlanetInfo</text>
<text text-anchor="start" x="13.25" y="-186.5" font-family="Consolas" font-size="10.00">(string planetName)</text>
<text text-anchor="start" x="4" y="-172" font-family="Consolas" font-size="10.00">+</text>
<text text-anchor="start" x="13.25" y="-172" font-family="Consolas" font-size="10.00">void SetEventInfo(string</text>
<text text-anchor="start" x="13.25" y="-161.5" font-family="Consolas" font-size="10.00"> title, string description,</text>
<text text-anchor="start" x="13.25" y="-151" font-family="Consolas" font-size="10.00"> string[] choices)</text>
<text text-anchor="start" x="4" y="-136.5" font-family="Consolas" font-size="10.00">+</text>
<text text-anchor="start" x="13.25" y="-136.5" font-family="Consolas" font-size="10.00">void InitializeRoutePlanning</text>
<text text-anchor="start" x="13.25" y="-126" font-family="Consolas" font-size="10.00">UI(int numberOfPlanets,</text>
<text text-anchor="start" x="13.25" y="-115.5" font-family="Consolas" font-size="10.00"> float maxPlacementDistance)</text>
<text text-anchor="start" x="4" y="-101" font-family="Consolas" font-size="10.00">+</text>
<text text-anchor="start" x="13.25" y="-101" font-family="Consolas" font-size="10.00">void InitializeEventSelection</text>
<text text-anchor="start" x="13.25" y="-90.5" font-family="Consolas" font-size="10.00">UI(List&lt; Vector2 &gt; pathNodes,</text>
<text text-anchor="start" x="13.25" y="-80" font-family="Consolas" font-size="10.00"> List&lt; bool &gt; dangerInfo)</text>
<text text-anchor="start" x="4" y="-65.5" font-family="Consolas" font-size="10.00">+</text>
<text text-anchor="start" x="13.25" y="-65.5" font-family="Consolas" font-size="10.00">void SetPathData(List</text>
<text text-anchor="start" x="13.25" y="-55" font-family="Consolas" font-size="10.00">&lt; Vector2 &gt; nodes, List</text>
<text text-anchor="start" x="13.25" y="-44.5" font-family="Consolas" font-size="10.00">&lt; bool &gt; dangerInfo)</text>
<text text-anchor="start" x="4" y="-30" font-family="Consolas" font-size="10.00">+</text>
<text text-anchor="start" x="13.25" y="-30" font-family="Consolas" font-size="10.00">List&lt; Vector2 &gt; GetPathNodes()</text>
<text text-anchor="start" x="4" y="-15.5" font-family="Consolas" font-size="10.00">+</text>
<text text-anchor="start" x="13.25" y="-15.5" font-family="Consolas" font-size="10.00">List&lt; bool &gt; GetPathDanger</text>
<text text-anchor="start" x="13.25" y="-5" font-family="Consolas" font-size="10.00">Info()</text>
<polygon fill="#666666" stroke="#666666" points="0,-306 0,-306 174.75,-306 174.75,-306 0,-306"/>
<polygon fill="#666666" stroke="#666666" points="0,-291.5 0,-291.5 174.75,-291.5 174.75,-291.5 0,-291.5"/>
<polygon fill="none" stroke="#666666" points="0,0 0,-322.5 174.75,-322.5 174.75,0 0,0"/>
</a>
</g>
</g>
<!-- Node1&#45;&gt;Node2 -->
<g id="edge1_Node000001_Node000002" class="edge">
<title>Node1&#45;&gt;Node2</title>
<g id="a_edge1_Node000001_Node000002"><a xlink:title=" ">
<path fill="none" stroke="#63b8ff" d="M87.38,-347.16C87.38,-339.37 87.38,-331.07 87.38,-322.47"/>
<polygon fill="none" stroke="#63b8ff" points="83.88,-347.05 87.38,-357.05 90.88,-347.05 83.88,-347.05"/>
</a>
</g>
</g>
</g>
</svg>
